<svg xmlns="http://www.w3.org/2000/svg" width="760" height="420" viewBox="0 0 760 420"><rect width="100%" height="100%" fill="white"/><style>
text{font-family:"JetBrains Mono","Consolas","Noto Sans Mono CJK KR",monospace;fill:#202020}
.label{font-size:18px}.small{font-size:14px;fill:#555}.tiny{font-size:13px;fill:#555}
.point{fill:white;stroke:#202020;stroke-width:2}.pointHi{fill:#eee;stroke:#202020;stroke-width:2.6}
.line{fill:none;stroke:#888;stroke-width:1.8}.lineHi{fill:none;stroke:#202020;stroke-width:3.2}
.hull{fill:none;stroke:#202020;stroke-width:3.2}
.dash{fill:none;stroke:#777;stroke-width:1.5;stroke-dasharray:6 5}
.arc{fill:none;stroke:#555;stroke-width:1.8;marker-end:url(#arrowSmall)}
.box{fill:white;stroke:#777;stroke-width:1.2;rx:5}.boxHi{fill:#eee;stroke:#202020;stroke-width:2;rx:5}
.cell{fill:white;stroke:#777;stroke-width:1.2}.cellHi{fill:#eee;stroke:#202020;stroke-width:2}.cellPop{fill:#f7f7f7;stroke:#202020;stroke-width:2;stroke-dasharray:5 4}
.arrow{fill:none;stroke:#202020;stroke-width:1.7;marker-end:url(#arrow)}
</style><defs>
<marker id="arrow" markerWidth="9" markerHeight="9" refX="7" refY="3" orient="auto"><path d="M0,0 L0,6 L8,3 z" fill="#202020"/></marker>
<marker id="arrowSmall" markerWidth="8" markerHeight="8" refX="6" refY="3" orient="auto"><path d="M0,0 L0,6 L7,3 z" fill="#555"/></marker>
</defs><circle cx="140" cy="305" r="8" class="pointHi"/><text x="140" y="289" text-anchor="middle" class="label">P1</text><circle cx="285" cy="130" r="8" class="point"/><text x="285" y="114" text-anchor="middle" class="label">P2</text><circle cx="470" cy="85" r="8" class="point"/><text x="470" y="69" text-anchor="middle" class="label">P3</text><circle cx="535" cy="215" r="8" class="point"/><text x="535" y="199" text-anchor="middle" class="label">P4</text><circle cx="390" cy="300" r="8" class="point"/><text x="390" y="284" text-anchor="middle" class="label">P5</text><circle cx="235" cy="255" r="8" class="point"/><text x="235" y="239" text-anchor="middle" class="label">P6</text><circle cx="610" cy="330" r="8" class="point"/><text x="610" y="314" text-anchor="middle" class="label">P7</text><line x1="140" y1="305" x2="285" y2="130" class="dash"/><line x1="140" y1="305" x2="470" y2="85" class="dash"/><line x1="140" y1="305" x2="535" y2="215" class="dash"/><line x1="140" y1="305" x2="610" y2="330" class="dash"/><line x1="140" y1="305" x2="390" y2="300" class="dash"/><line x1="140" y1="305" x2="235" y2="255" class="dash"/><text x="303" y="152" class="small">2</text><text x="488" y="107" class="small">3</text><text x="553" y="237" class="small">4</text><text x="628" y="352" class="small">5</text><text x="408" y="322" class="small">6</text><text x="253" y="277" class="small">7</text><path d="M 205 300 Q 250 180 315 142" class="arc"/><rect x="260" y="360" width="240" height="42" class="boxHi"/><text x="380.0" y="387.0" text-anchor="middle" class="label">angle sort</text></svg>