<svg xmlns="http://www.w3.org/2000/svg" width="760" height="450" viewBox="0 0 760 450"><rect width="100%" height="100%" fill="white"/><style>
text{font-family:"JetBrains Mono","Consolas","Noto Sans Mono CJK KR",monospace;fill:#202020}
.label{font-size:18px}.small{font-size:14px;fill:#555}.tiny{font-size:13px;fill:#555}
.point{fill:white;stroke:#202020;stroke-width:2}.pointHi{fill:#eee;stroke:#202020;stroke-width:2.6}
.line{fill:none;stroke:#888;stroke-width:1.8}.lineHi{fill:none;stroke:#202020;stroke-width:3.2}
.hull{fill:none;stroke:#202020;stroke-width:3.2}
.dash{fill:none;stroke:#777;stroke-width:1.5;stroke-dasharray:6 5}
.arc{fill:none;stroke:#555;stroke-width:1.8;marker-end:url(#arrowSmall)}
.box{fill:white;stroke:#777;stroke-width:1.2;rx:5}.boxHi{fill:#eee;stroke:#202020;stroke-width:2;rx:5}
.cell{fill:white;stroke:#777;stroke-width:1.2}.cellHi{fill:#eee;stroke:#202020;stroke-width:2}.cellPop{fill:#f7f7f7;stroke:#202020;stroke-width:2;stroke-dasharray:5 4}
.arrow{fill:none;stroke:#202020;stroke-width:1.7;marker-end:url(#arrow)}
</style><defs>
<marker id="arrow" markerWidth="9" markerHeight="9" refX="7" refY="3" orient="auto"><path d="M0,0 L0,6 L8,3 z" fill="#202020"/></marker>
<marker id="arrowSmall" markerWidth="8" markerHeight="8" refX="6" refY="3" orient="auto"><path d="M0,0 L0,6 L7,3 z" fill="#555"/></marker>
</defs><circle cx="140" cy="305" r="8" class="pointHi"/><text x="140" y="289" text-anchor="middle" class="label">P1</text><circle cx="285" cy="130" r="8" class="pointHi"/><text x="285" y="114" text-anchor="middle" class="label">P2</text><circle cx="470" cy="85" r="8" class="pointHi"/><text x="470" y="69" text-anchor="middle" class="label">P3</text><circle cx="535" cy="215" r="8" class="point"/><text x="535" y="199" text-anchor="middle" class="label">P4</text><circle cx="390" cy="300" r="8" class="point"/><text x="390" y="284" text-anchor="middle" class="label">P5</text><circle cx="235" cy="255" r="8" class="point"/><text x="235" y="239" text-anchor="middle" class="label">P6</text><circle cx="610" cy="330" r="8" class="pointHi"/><text x="610" y="314" text-anchor="middle" class="label">P7</text><polyline points="140,305 285,130 470,85 610,330" class="hull"/><line x1="470" y1="85" x2="610" y2="330" class="lineHi"/><text x="142" y="425" text-anchor="end" class="label">stack</text><rect x="160" y="398" width="95" height="42" class="cellHi"/><text x="207.5" y="425" text-anchor="middle" class="label">P1</text><rect x="255" y="398" width="95" height="42" class="cellHi"/><text x="302.5" y="425" text-anchor="middle" class="label">P2</text><rect x="350" y="398" width="95" height="42" class="cellHi"/><text x="397.5" y="425" text-anchor="middle" class="label">P3</text><rect x="445" y="398" width="95" height="42" class="cellHi"/><text x="492.5" y="425" text-anchor="middle" class="label">P7</text></svg>