<svg xmlns="http://www.w3.org/2000/svg" width="980" height="760" viewBox="0 0 980 760">
<rect width="100%" height="100%" fill="white"/>
<style>
text { font-family: "Noto Sans CJK KR", "Malgun Gothic", Arial, sans-serif; fill: #202020; }
.title { font-size: 23px; font-weight: 700; }
.label { font-size: 17px; }
.small { font-size: 14px; fill: #5a5a5a; }
.node { fill: white; stroke: #555; stroke-width: 1.7; }
.edge { stroke: #b6b6b6; stroke-width: 1.5; }
.match { stroke: #202020; stroke-width: 4.0; }
.path { stroke: #202020; stroke-width: 3.0; stroke-dasharray: 9 6; }
.cell { fill: white; stroke: #777; stroke-width: 1; }
.cellHi { fill: #e7e7e7; stroke: #202020; stroke-width: 2; }
</style>
<text x="490.0" y="42" text-anchor="middle" class="title">두 번째 BFS: 새로운 최단 증가 경로의 레벨 계산</text><text x="190" y="82" text-anchor="middle" class="label" font-weight="700">A</text><text x="700" y="82" text-anchor="middle" class="label" font-weight="700">B</text><line x1="217" y1="130" x2="673" y2="130" class="match"/><line x1="217" y1="130" x2="673" y2="255" class="path"/><line x1="217" y1="255" x2="673" y2="130" class="path"/><line x1="217" y1="255" x2="673" y2="380" class="match"/><line x1="217" y1="380" x2="673" y2="255" class="match"/><line x1="217" y1="380" x2="673" y2="505" class="path"/><line x1="217" y1="505" x2="673" y2="380" class="path"/><circle cx="190" cy="130" r="26" class="node"/><text x="190" y="136" text-anchor="middle" class="label">A1</text><circle cx="190" cy="255" r="26" class="node"/><text x="190" y="261" text-anchor="middle" class="label">A2</text><circle cx="190" cy="380" r="26" class="node"/><text x="190" y="386" text-anchor="middle" class="label">A3</text><circle cx="190" cy="505" r="26" class="node"/><text x="190" y="511" text-anchor="middle" class="label">A4</text><circle cx="700" cy="130" r="26" class="node"/><text x="700" y="136" text-anchor="middle" class="label">B1</text><circle cx="700" cy="255" r="26" class="node"/><text x="700" y="261" text-anchor="middle" class="label">B2</text><circle cx="700" cy="380" r="26" class="node"/><text x="700" y="386" text-anchor="middle" class="label">B3</text><circle cx="700" cy="505" r="26" class="node"/><text x="700" y="511" text-anchor="middle" class="label">B4</text><text x="490.0" y="585" text-anchor="middle" class="label">A4 → B3 → A2 → B1 → A1 → B2 → A3 → B4</text><text x="225" y="653" text-anchor="end" class="label">level</text><text x="334" y="612" text-anchor="middle" class="small">A1</text><rect x="295" y="625" width="78" height="44" class="cellHi"/><text x="334" y="654" text-anchor="middle" class="label">2</text><text x="439" y="612" text-anchor="middle" class="small">A2</text><rect x="400" y="625" width="78" height="44" class="cellHi"/><text x="439" y="654" text-anchor="middle" class="label">1</text><text x="544" y="612" text-anchor="middle" class="small">A3</text><rect x="505" y="625" width="78" height="44" class="cellHi"/><text x="544" y="654" text-anchor="middle" class="label">3</text><text x="649" y="612" text-anchor="middle" class="small">A4</text><rect x="610" y="625" width="78" height="44" class="cellHi"/><text x="649" y="654" text-anchor="middle" class="label">0</text></svg>