<?xml version="1.0" encoding="UTF-8" standalone="no"?>
<!-- Created with Inkscape (http://www.inkscape.org/) -->

<svg
   version="1.1"
   id="svg1"
   width="634.45331"
   height="223.26666"
   viewBox="0 0 634.45331 223.26666"
   sodipodi:docname="3.pdf"
   xmlns:inkscape="http://www.inkscape.org/namespaces/inkscape"
   xmlns:sodipodi="http://sodipodi.sourceforge.net/DTD/sodipodi-0.dtd"
   xmlns="http://www.w3.org/2000/svg"
   xmlns:svg="http://www.w3.org/2000/svg">
  <defs
     id="defs1" />
  <sodipodi:namedview
     id="namedview1"
     pagecolor="#ffffff"
     bordercolor="#000000"
     borderopacity="0.25"
     inkscape:showpageshadow="2"
     inkscape:pageopacity="0.0"
     inkscape:pagecheckerboard="0"
     inkscape:deskcolor="#d1d1d1">
    <inkscape:page
       x="0"
       y="0"
       inkscape:label="1"
       id="page1"
       width="634.45331"
       height="223.26666"
       margin="0"
       bleed="0" />
  </sodipodi:namedview>
  <g
     id="g1"
     inkscape:groupmode="layer"
     inkscape:label="1">
    <path
       id="path1"
       d="M 0,-22.67752 H 238.67021"
       style="fill:none;stroke:#808080;stroke-width:0.54794;stroke-linecap:butt;stroke-linejoin:miter;stroke-miterlimit:10;stroke-dasharray:none;stroke-opacity:1"
       transform="matrix(1.3333333,0,0,-1.3333333,72.997333,160.17867)" />
    <path
       id="path2"
       d="M 3.41533,0 C 2.99591,0.10364 1.15227,0.69095 0,1.3301 V -1.3301 C 1.15227,-0.69095 2.99591,-0.10364 3.41533,0 Z"
       style="fill:#808080;fill-opacity:1;fill-rule:nonzero;stroke:#808080;stroke-width:0.54794;stroke-linecap:butt;stroke-linejoin:miter;stroke-miterlimit:10;stroke-dasharray:none;stroke-opacity:1"
       transform="matrix(1.3333333,0,0,-1.3333333,391.22428,190.41536)" />
    <path
       id="path3"
       d="m 0,-25.79568 v 6.23632"
       style="fill:none;stroke:#858585;stroke-width:0.44832;stroke-linecap:butt;stroke-linejoin:miter;stroke-miterlimit:10;stroke-dasharray:none;stroke-opacity:1"
       transform="matrix(1.3333333,0,0,-1.3333333,72.997333,160.17867)" />
    <path
       id="path4"
       d="m 1.9340703,0.0950625 c 0.9960938,0 1.59375,-0.92578125 1.59375,-2.6015625 0,-1.6523438 -0.5976562,-2.5546875 -1.59375,-2.5546875 -0.99609374,0 -1.58203124,0.890625 -1.58203124,2.5546875 0,1.67578125 0.5859375,2.6015625 1.58203124,2.6015625 z m 0,-0.515625 c -0.5742187,0 -0.97265624,-0.6210938 -0.97265624,-2.0859375 0,-1.453125 0.39843754,-2.0507813 0.97265624,-2.0507813 0.5859375,0 0.984375,0.5976563 0.984375,2.0507813 0,1.4648437 -0.3984375,2.0859375 -0.984375,2.0859375 z m 0,0"
       style="fill:#525252;fill-opacity:1;fill-rule:nonzero;stroke:none"
       aria-label="0"
       transform="matrix(1.3333333,0,0,1.3333333,70.417333,208.092)" />
    <path
       id="path5"
       d="m 22.11046,-25.79568 v 6.23632"
       style="fill:none;stroke:#858585;stroke-width:0.44832;stroke-linecap:butt;stroke-linejoin:miter;stroke-miterlimit:10;stroke-dasharray:none;stroke-opacity:1"
       transform="matrix(1.3333333,0,0,-1.3333333,72.997333,160.17867)" />
    <path
       id="path6"
       d="M 0.61020312,0.0013125 H 3.4227031 v -0.52734375 h -1.03125 V -4.9674375 H 1.8992656 c -0.2695312,0.1640625 -0.5976562,0.28125 -1.05468748,0.3632812 V -4.194 H 1.7586406 v 3.66796875 H 0.61020312 Z m 0,0"
       style="fill:#525252;fill-opacity:1;fill-rule:nonzero;stroke:none"
       aria-label="1"
       transform="matrix(1.3333333,0,0,1.3333333,99.897333,208.092)" />
    <path
       id="path7"
       d="m 44.22093,-25.79568 v 6.23632"
       style="fill:none;stroke:#858585;stroke-width:0.44832;stroke-linecap:butt;stroke-linejoin:miter;stroke-miterlimit:10;stroke-dasharray:none;stroke-opacity:1"
       transform="matrix(1.3333333,0,0,-1.3333333,72.997333,160.17867)" />
    <path
       id="path8"
       d="M 0.30486719,-7.421875e-4 H 3.5158047 V -0.55152344 H 2.0743984 c -0.2578125,0 -0.5625,0.0234375 -0.8320312,0.046875 1.171875,-1.23046876 2.0390625,-2.16796876 2.0390625,-3.10546876 0,-0.8789062 -0.5859375,-1.453125 -1.5,-1.453125 -0.6445313,0 -1.08984376,0.2929688 -1.50000001,0.75 l 0.36328125,0.3632813 c 0.29296875,-0.328125 0.64453126,-0.5976563 1.06640626,-0.5976563 0.6328125,0 0.9375,0.4101563 0.9375,0.9726563 0,0.8085937 -0.84375,1.7109375 -2.34375001,3.19921871 z m 0,0"
       style="fill:#525252;fill-opacity:1;fill-rule:nonzero;stroke:none"
       aria-label="2"
       transform="matrix(1.3333333,0,0,1.3333333,129.37867,208.15333)" />
    <path
       id="path9"
       d="m 66.3314,-25.79568 v 6.23632"
       style="fill:none;stroke:#858585;stroke-width:0.44832;stroke-linecap:butt;stroke-linejoin:miter;stroke-miterlimit:10;stroke-dasharray:none;stroke-opacity:1"
       transform="matrix(1.3333333,0,0,-1.3333333,72.997333,160.17867)" />
    <path
       id="path10"
       d="m 1.8286562,0.0950625 c 0.9140625,0 1.6523438,-0.52734375 1.6523438,-1.4179688 0,-0.6796875 -0.4804688,-1.125 -1.078125,-1.265625 v -0.035156 c 0.5273437,-0.1875 0.9023437,-0.5742188 0.9023437,-1.1835938 0,-0.796875 -0.6328125,-1.2539062 -1.4882812,-1.2539062 -0.5859375,0 -1.04296875,0.2695312 -1.4296875,0.6210937 l 0.33984375,0.3984375 C 1.0200625,-4.334625 1.3833437,-4.5455625 1.7935,-4.5455625 c 0.5390625,0 0.8671875,0.3046875 0.8671875,0.7851562 0,0.5273438 -0.3632813,0.9257813 -1.4179688,0.9257813 v 0.5039062 c 1.1835938,0 1.59375,0.3867188 1.59375,0.984375 0,0.56250005 -0.4335937,0.91406255 -1.0429687,0.91406255 -0.5742188,0 -0.9609375,-0.28125 -1.265625,-0.58593755 L 0.19975,-0.6080625 c 0.33984375,0.36328125 0.84375,0.703125 1.6289062,0.703125 z m 0,0"
       style="fill:#525252;fill-opacity:1;fill-rule:nonzero;stroke:none"
       aria-label="3"
       transform="matrix(1.3333333,0,0,1.3333333,158.85867,208.092)" />
    <path
       id="path11"
       d="m 88.44188,-25.79568 v 6.23632"
       style="fill:none;stroke:#858585;stroke-width:0.44832;stroke-linecap:butt;stroke-linejoin:miter;stroke-miterlimit:10;stroke-dasharray:none;stroke-opacity:1"
       transform="matrix(1.3333333,0,0,-1.3333333,72.997333,160.17867)" />
    <path
       id="path12"
       d="m 2.3670703,0.0013125 h 0.5976563 v -1.3710938 h 0.6914062 v -0.515625 H 2.9647266 v -3.0820312 h -0.703125 l -2.12109379,3.1757812 v 0.421875 H 2.3670703 Z m 0,-1.8867188 H 0.79675781 L 1.9686328,-3.584625 c 0.140625,-0.2460938 0.28125,-0.46875 0.4101563,-0.703125 h 0.023437 c -0.011719,0.2578125 -0.035156,0.703125 -0.035156,0.9492187 z m 0,0"
       style="fill:#525252;fill-opacity:1;fill-rule:nonzero;stroke:none"
       aria-label="4"
       transform="matrix(1.3333333,0,0,1.3333333,188.34,208.092)" />
    <path
       id="path13"
       d="m 110.55235,-25.79568 v 6.23632"
       style="fill:none;stroke:#858585;stroke-width:0.44832;stroke-linecap:butt;stroke-linejoin:miter;stroke-miterlimit:10;stroke-dasharray:none;stroke-opacity:1"
       transform="matrix(1.3333333,0,0,-1.3333333,72.997333,160.17867)" />
    <path
       id="path14"
       d="m 1.8283594,0.0931875 c 0.8554687,0 1.6757812,-0.609375 1.6757812,-1.6875 0,-1.0664063 -0.703125,-1.546875 -1.546875,-1.546875 -0.3046875,0 -0.5390625,0.070312 -0.7617187,0.1992187 l 0.1289062,-1.4765625 h 1.921875 V -4.9693125 H 0.76195312 l -0.1640625,2.390625 0.33984375,0.2109375 c 0.29296873,-0.1875 0.51562503,-0.3046875 0.85546873,-0.3046875 0.6445313,0 1.0546875,0.4101562 1.0546875,1.1015625 0,0.69140625 -0.4804687,1.13671875 -1.078125,1.13671875 -0.5976562,0 -0.97265623,-0.28125 -1.26562498,-0.57421875 L 0.18773437,-0.5865 c 0.3515625,0.33984375 0.83203123,0.6796875 1.64062503,0.6796875 z m 0,0"
       style="fill:#525252;fill-opacity:1;fill-rule:nonzero;stroke:none"
       aria-label="5"
       transform="matrix(1.3333333,0,0,1.3333333,217.82,208.032)" />
    <path
       id="path15"
       d="m 132.66283,-25.79568 v 6.23632"
       style="fill:none;stroke:#858585;stroke-width:0.44832;stroke-linecap:butt;stroke-linejoin:miter;stroke-miterlimit:10;stroke-dasharray:none;stroke-opacity:1"
       transform="matrix(1.3333333,0,0,-1.3333333,72.997333,160.17867)" />
    <path
       id="path16"
       d="m 2.0972422,0.0950625 c 0.7851562,0 1.453125,-0.64453125 1.453125,-1.59375 0,-1.0195313 -0.5507813,-1.5351563 -1.4179688,-1.5351563 -0.3984375,0 -0.84375,0.234375 -1.16015621,0.6328125 0.0351562,-1.5820312 0.62109371,-2.1328125 1.32421871,-2.1328125 0.3164063,0 0.6210938,0.1523438 0.8085938,0.3984375 l 0.3632812,-0.3984375 c -0.28125,-0.3046875 -0.6679687,-0.5273437 -1.2070312,-0.5273437 -0.984375,0 -1.88671876,0.7617187 -1.88671876,2.765625 0,1.59375 0.73828126,2.390625 1.72265626,2.390625 z M 0.98396094,-1.897125 c 0.35156246,-0.4804688 0.72656246,-0.65625 1.05468746,-0.65625 0.609375,0 0.9257813,0.4101562 0.9257813,1.0546875 0,0.65625 -0.3867188,1.08984375 -0.8789063,1.08984375 -0.6328125,0 -1.0078125,-0.515625 -1.10156246,-1.48828125 z m 0,0"
       style="fill:#525252;fill-opacity:1;fill-rule:nonzero;stroke:none"
       aria-label="6"
       transform="matrix(1.3333333,0,0,1.3333333,247.30133,208.092)" />
    <path
       id="path17"
       d="m 154.7733,-25.79568 v 6.23632"
       style="fill:none;stroke:#858585;stroke-width:0.44832;stroke-linecap:butt;stroke-linejoin:miter;stroke-miterlimit:10;stroke-dasharray:none;stroke-opacity:1"
       transform="matrix(1.3333333,0,0,-1.3333333,72.997333,160.17867)" />
    <path
       id="path18"
       d="M 1.38275,0.0013125 H 2.039 C 2.1210312,-1.9322813 2.367125,-3.069 3.539,-4.5807188 V -4.9674375 H 0.33978125 v 0.5507812 H 2.8241562 C 1.8397812,-3.0572813 1.4765,-1.8736875 1.38275,0.0013125 Z m 0,0"
       style="fill:#525252;fill-opacity:1;fill-rule:nonzero;stroke:none"
       aria-label="7"
       transform="matrix(1.3333333,0,0,1.3333333,276.78133,208.092)" />
    <path
       id="path19"
       d="m 176.88377,-25.79568 v 6.23632"
       style="fill:none;stroke:#858585;stroke-width:0.44832;stroke-linecap:butt;stroke-linejoin:miter;stroke-miterlimit:10;stroke-dasharray:none;stroke-opacity:1"
       transform="matrix(1.3333333,0,0,-1.3333333,72.997333,160.17867)" />
    <path
       id="path20"
       d="m 1.9563203,0.0950625 c 0.9492188,0 1.59375,-0.5859375 1.59375,-1.3242188 0,-0.6679687 -0.421875,-1.0195312 -0.8554687,-1.2890625 v -0.023437 c 0.2929687,-0.234375 0.6679687,-0.6796875 0.6679687,-1.2070312 0,-0.7617188 -0.5273437,-1.3125 -1.3945312,-1.3125 -0.796875,0 -1.40625004,0.5039062 -1.40625004,1.265625 0,0.5273437 0.328125,0.890625 0.69140624,1.1484375 v 0.035156 c -0.45703124,0.2460938 -0.93749999,0.6914063 -0.93749999,1.3476563 0,0.78515625 0.69140629,1.359375 1.64062499,1.3593747 z m 0.3398438,-2.8007813 c -0.5976563,-0.234375 -1.1484375,-0.4921875 -1.1484375,-1.0898437 0,-0.4804688 0.3398437,-0.796875 0.8085937,-0.796875 0.5507813,0 0.8671875,0.3984375 0.8671875,0.8789062 0,0.375 -0.1875,0.703125 -0.5273437,1.0078125 z m -0.3398438,2.32031255 c -0.609375,0 -1.06640624,-0.3984375 -1.06640624,-0.93750005 0,-0.46875 0.29296874,-0.8320312 0.70312504,-1.0898437 0.7148437,0.2929687 1.3476562,0.515625 1.3476562,1.1601562 0,0.51562505 -0.3867187,0.86718755 -0.984375,0.86718755 z m 0,0"
       style="fill:#525252;fill-opacity:1;fill-rule:nonzero;stroke:none"
       aria-label="8"
       transform="matrix(1.3333333,0,0,1.3333333,306.26267,208.092)" />
    <path
       id="path21"
       d="m 198.99423,-25.79568 v 6.23632"
       style="fill:none;stroke:#858585;stroke-width:0.44832;stroke-linecap:butt;stroke-linejoin:miter;stroke-miterlimit:10;stroke-dasharray:none;stroke-opacity:1"
       transform="matrix(1.3333333,0,0,-1.3333333,72.997333,160.17867)" />
    <path
       id="path22"
       d="m 1.5933906,0.0950625 c 0.9960938,0 1.8984375,-0.7734375 1.8984375,-2.765625 0,-1.59375 -0.7382812,-2.390625 -1.7226562,-2.390625 -0.79687502,0 -1.46484377,0.6445312 -1.46484377,1.59375 0,1.0195312 0.5625,1.5351562 1.41796877,1.5351562 0.4101562,0 0.8554687,-0.2460937 1.171875,-0.6328125 -0.023437,1.59375005 -0.6210938,2.13281255 -1.3242188,2.13281255 -0.3046875,0 -0.60937497,-0.15234375 -0.82031247,-0.3984375 l -0.33984375,0.3984375 C 0.66760938,-0.12759375 1.0543281,0.0950625 1.5933906,0.0950625 Z m 1.2890625,-3.1757813 c -0.3398437,0.4921875 -0.7382812,0.6796875 -1.0546875,0.6796875 -0.609375,0 -0.92578122,-0.4101562 -0.92578122,-1.0664062 0,-0.65625 0.37500002,-1.1015625 0.87890622,-1.1015625 0.6210938,0 1.0195313,0.5273437 1.1015625,1.4882812 z m 0,0"
       style="fill:#525252;fill-opacity:1;fill-rule:nonzero;stroke:none"
       aria-label="9"
       transform="matrix(1.3333333,0,0,1.3333333,335.74267,208.092)" />
    <path
       id="path23"
       d="m 221.1047,-25.79568 v 6.23632"
       style="fill:none;stroke:#858585;stroke-width:0.44832;stroke-linecap:butt;stroke-linejoin:miter;stroke-miterlimit:10;stroke-dasharray:none;stroke-opacity:1"
       transform="matrix(1.3333333,0,0,-1.3333333,72.997333,160.17867)" />
    <path
       id="path24"
       d="M 0.61077344,0.0013125 H 3.4232734 v -0.52734375 h -1.03125 V -4.9674375 H 1.8998359 c -0.2695312,0.1640625 -0.5976562,0.28125 -1.05468746,0.3632812 V -4.194 H 1.7592109 v 3.66796875 H 0.61077344 Z m 5.19433596,0.09375 c 0.9960937,0 1.59375,-0.92578125 1.59375,-2.6015625 0,-1.6523438 -0.5976563,-2.5546875 -1.59375,-2.5546875 -0.9960938,0 -1.5820313,0.890625 -1.5820313,2.5546875 0,1.67578125 0.5859375,2.6015625 1.5820313,2.6015625 z m 0,-0.515625 c -0.5742188,0 -0.9726563,-0.6210938 -0.9726563,-2.0859375 0,-1.453125 0.3984375,-2.0507813 0.9726563,-2.0507813 0.5859375,0 0.984375,0.5976563 0.984375,2.0507813 0,1.4648437 -0.3984375,2.0859375 -0.984375,2.0859375 z m 0,0"
       style="fill:#525252;fill-opacity:1;fill-rule:nonzero;stroke:none"
       aria-label="10"
       transform="matrix(1.3333333,0,0,1.3333333,362.64267,208.092)" />
    <path
       id="path25"
       d="M 22.11046,72.28444 H 154.7733"
       style="fill:none;stroke:#000000;stroke-width:2.98883;stroke-linecap:round;stroke-linejoin:miter;stroke-miterlimit:10;stroke-dasharray:none;stroke-opacity:1"
       transform="matrix(1.3333333,0,0,-1.3333333,72.997333,160.17867)" />
    <path
       id="path26"
       d="m 25.79555,72.28444 c 0,2.03523 -1.64986,3.68509 -3.68509,3.68509 -2.03522,0 -3.68508,-1.64986 -3.68508,-3.68509 0,-2.03522 1.64986,-3.68507 3.68508,-3.68507 2.03523,0 3.68509,1.64985 3.68509,3.68507 z"
       style="fill:#ffffff;fill-opacity:1;fill-rule:nonzero;stroke:#000000;stroke-width:0.54794;stroke-linecap:butt;stroke-linejoin:miter;stroke-miterlimit:10;stroke-dasharray:none;stroke-opacity:1"
       transform="matrix(1.3333333,0,0,-1.3333333,72.997333,160.17867)" />
    <path
       id="path27"
       d="m 158.45837,72.28444 c 0,2.03523 -1.64985,3.68509 -3.68507,3.68509 -2.03523,0 -3.68509,-1.64986 -3.68509,-3.68509 0,-2.03522 1.64986,-3.68507 3.68509,-3.68507 2.03522,0 3.68507,1.64985 3.68507,3.68507 z"
       style="fill:#ffffff;fill-opacity:1;fill-rule:nonzero;stroke:#000000;stroke-width:0.54794;stroke-linecap:butt;stroke-linejoin:miter;stroke-miterlimit:10;stroke-dasharray:none;stroke-opacity:1"
       transform="matrix(1.3333333,0,0,-1.3333333,72.997333,160.17867)" />
    <path
       id="path28"
       d="M 44.22093,46.77203 H 154.7733"
       style="fill:none;stroke:#c7c7c7;stroke-width:2.1918;stroke-linecap:round;stroke-linejoin:miter;stroke-miterlimit:10;stroke-dasharray:none;stroke-opacity:1"
       transform="matrix(1.3333333,0,0,-1.3333333,72.997333,160.17867)" />
    <path
       id="path29"
       d="m 47.90602,46.77203 c 0,2.03524 -1.64986,3.68509 -3.68509,3.68509 -2.03522,0 -3.68507,-1.64985 -3.68507,-3.68509 0,-2.03521 1.64985,-3.68507 3.68507,-3.68507 2.03523,0 3.68509,1.64986 3.68509,3.68507 z"
       style="fill:#ffffff;fill-opacity:1;fill-rule:nonzero;stroke:#c2c2c2;stroke-width:0.44832;stroke-linecap:butt;stroke-linejoin:miter;stroke-miterlimit:10;stroke-dasharray:none;stroke-opacity:1"
       transform="matrix(1.3333333,0,0,-1.3333333,72.997333,160.17867)" />
    <path
       id="path30"
       d="m 158.45837,46.77203 c 0,2.03524 -1.64985,3.68509 -3.68507,3.68509 -2.03523,0 -3.68509,-1.64985 -3.68509,-3.68509 0,-2.03521 1.64986,-3.68507 3.68509,-3.68507 2.03522,0 3.68507,1.64986 3.68507,3.68507 z"
       style="fill:#ffffff;fill-opacity:1;fill-rule:nonzero;stroke:#c2c2c2;stroke-width:0.44832;stroke-linecap:butt;stroke-linejoin:miter;stroke-miterlimit:10;stroke-dasharray:none;stroke-opacity:1"
       transform="matrix(1.3333333,0,0,-1.3333333,72.997333,160.17867)" />
    <path
       id="path31"
       d="m 88.44188,21.2601 h 44.22095"
       style="fill:none;stroke:#c7c7c7;stroke-width:2.1918;stroke-linecap:round;stroke-linejoin:miter;stroke-miterlimit:10;stroke-dasharray:none;stroke-opacity:1"
       transform="matrix(1.3333333,0,0,-1.3333333,72.997333,160.17867)" />
    <path
       id="path32"
       d="m 92.12697,21.2601 c 0,2.03522 -1.64986,3.68508 -3.68509,3.68508 -2.03523,0 -3.68508,-1.64986 -3.68508,-3.68508 0,-2.03523 1.64985,-3.68509 3.68508,-3.68509 2.03523,0 3.68509,1.64986 3.68509,3.68509 z"
       style="fill:#ffffff;fill-opacity:1;fill-rule:nonzero;stroke:#c2c2c2;stroke-width:0.44832;stroke-linecap:butt;stroke-linejoin:miter;stroke-miterlimit:10;stroke-dasharray:none;stroke-opacity:1"
       transform="matrix(1.3333333,0,0,-1.3333333,72.997333,160.17867)" />
    <path
       id="path33"
       d="m 136.3479,21.2601 c 0,2.03522 -1.64986,3.68508 -3.68507,3.68508 -2.03523,0 -3.68509,-1.64986 -3.68509,-3.68508 0,-2.03523 1.64986,-3.68509 3.68509,-3.68509 2.03521,0 3.68507,1.64986 3.68507,3.68509 z"
       style="fill:#ffffff;fill-opacity:1;fill-rule:nonzero;stroke:#c2c2c2;stroke-width:0.44832;stroke-linecap:butt;stroke-linejoin:miter;stroke-miterlimit:10;stroke-dasharray:none;stroke-opacity:1"
       transform="matrix(1.3333333,0,0,-1.3333333,72.997333,160.17867)" />
    <path
       id="path34"
       d="M 176.88377,-4.25183 H 221.1047"
       style="fill:none;stroke:#c7c7c7;stroke-width:2.1918;stroke-linecap:round;stroke-linejoin:miter;stroke-miterlimit:10;stroke-dasharray:none;stroke-opacity:1"
       transform="matrix(1.3333333,0,0,-1.3333333,72.997333,160.17867)" />
    <path
       id="path35"
       d="m 180.56885,-4.25183 c 0,2.03522 -1.64986,3.68507 -3.68508,3.68507 -2.03523,0 -3.68509,-1.64985 -3.68509,-3.68507 0,-2.03523 1.64986,-3.68509 3.68509,-3.68509 2.03522,0 3.68508,1.64986 3.68508,3.68509 z"
       style="fill:#ffffff;fill-opacity:1;fill-rule:nonzero;stroke:#c2c2c2;stroke-width:0.44832;stroke-linecap:butt;stroke-linejoin:miter;stroke-miterlimit:10;stroke-dasharray:none;stroke-opacity:1"
       transform="matrix(1.3333333,0,0,-1.3333333,72.997333,160.17867)" />
    <path
       id="path36"
       d="m 224.7898,-4.25183 c 0,2.03522 -1.64986,3.68507 -3.6851,3.68507 -2.03521,0 -3.68507,-1.64985 -3.68507,-3.68507 0,-2.03523 1.64986,-3.68509 3.68507,-3.68509 2.03524,0 3.6851,1.64986 3.6851,3.68509 z"
       style="fill:#ffffff;fill-opacity:1;fill-rule:nonzero;stroke:#c2c2c2;stroke-width:0.44832;stroke-linecap:butt;stroke-linejoin:miter;stroke-miterlimit:10;stroke-dasharray:none;stroke-opacity:1"
       transform="matrix(1.3333333,0,0,-1.3333333,72.997333,160.17867)" />
    <path
       id="path37"
       d="M 1.6416406,-2.3425156 V 0.58717187 H 6.7392969 V -2.3425156 H 6.0010156 v 0.8554687 H 2.3799219 v -0.8554687 z m 0.7382813,1.44140622 h 3.6210937 v 0.890625 H 2.3799219 Z M 2.8603906,-5.6003281 c -1.1601562,0 -1.94531248,0.5507812 -1.94531248,1.4179687 0,0.8671875 0.78515628,1.4179688 1.94531248,1.4179688 1.1601563,0 1.9335938,-0.5507813 1.9335938,-1.4179688 0,-0.8671875 -0.7734375,-1.4179687 -1.9335938,-1.4179687 z m 0,0.5625 c 0.7382813,0 1.2304688,0.3398437 1.2304688,0.8554687 0,0.5273438 -0.4921875,0.8554688 -1.2304688,0.8554688 -0.7382812,0 -1.2304687,-0.328125 -1.2304687,-0.8554688 0,-0.515625 0.4921875,-0.8554687 1.2304687,-0.8554687 z m 3.140625,-2.3789063 v 4.7226563 h 0.7382813 v -2.015625 H 7.9346094 V -5.3425156 H 6.7392969 v -2.0742188 z m -3.5039062,-0.070312 v 0.9023438 H 0.46976562 v 0.609375 H 5.2510156 v -0.609375 h -2.015625 v -0.9023438 z m 10.4853516,4.3359375 v 0.609375 h 1.640625 v 3.24609377 h 0.738281 V -7.4167344 h -0.738281 v 2.5664063 h -1.640625 v 0.6210937 h 1.640625 v 1.078125 z m -2.226563,-4.1132812 v 1.2539062 H 8.9277734 v 0.609375 h 1.8281246 v 0.609375 c 0,1.3945313 -0.8554683,2.7890625 -2.0390621,3.3515625 l 0.4101563,0.57421877 C 10.052773,-1.3112656 10.779336,-2.2604844 11.130898,-3.3737656 c 0.363282,1.0664062 1.101563,1.9453125 2.015625,2.3671875 l 0.421875,-0.5742188 c -1.183593,-0.5390625 -2.074218,-1.875 -2.074218,-3.2109375 v -0.609375 h 1.804687 v -0.609375 h -1.792969 v -1.2539062 z m 12.09375,-0.140625 v 5.9414062 h 0.738282 v -5.9414062 z m -5.601562,0.6679687 v 0.609375 h 1.863281 v 0.4335938 c 0,1.1484375 -0.84375,2.203125 -2.0625,2.6367187 l 0.386719,0.5859375 c 0.972656,-0.3515625 1.710937,-1.078125 2.0625,-1.9921875 0.363281,0.84375 1.101562,1.5117188 2.027344,1.828125 l 0.375,-0.5859375 c -1.195313,-0.3867187 -2.039063,-1.3710937 -2.039063,-2.4726562 v -0.4335938 h 1.828125 v -0.609375 z m 1.136719,4.7109375 v 2.54296877 h 5.460937 v -0.609375 H 19.123086 V -2.0261094 Z m 8.80664,-1.3828125 v 0.6210938 h 3.269532 v 3.49218747 h 0.75 V -2.7878281 h 3.304687 V -3.4089219 H 33.33207 c 0.222657,-1.1601562 0.222657,-2.0039062 0.222657,-2.765625 v -0.7148437 h -5.449219 v 0.609375 h 4.722656 v 0.1054687 c 0,0.75 0,1.6171875 -0.257812,2.765625 z m 13.792969,-4.0078125 v 5.9296875 h 0.75 v -2.8359375 h 1.195313 v -0.6328125 h -1.195313 v -2.4609375 z m -5.203125,0.6328125 v 0.6210938 h 2.976563 c -0.152344,1.4179687 -1.382813,2.5546875 -3.304688,3.1523437 l 0.316406,0.5976563 c 2.332032,-0.7382813 3.785157,-2.2734375 3.785157,-4.3710938 z m 0.902344,4.6992188 v 2.60156247 h 5.402344 v -0.609375 H 37.421914 V -2.0847031 Z m 0,0"
       style="fill:#000000;fill-opacity:1;fill-rule:nonzero;stroke:none"
       aria-label="합쳐진구간"
       transform="matrix(1.3333333,0,0,1.3333333,15.053333,68.318667)" />
    <path
       id="path38"
       d="m 1.3955469,-1.5576406 v 0.58593747 h 4.59375 v 1.67578125 h 0.75 V -1.5576406 Z m 1.5351562,-3.7265625 c 0.7265625,0 1.1835938,0.2460937 1.1835938,0.6796875 0,0.4101562 -0.4570313,0.6914062 -1.1835938,0.6914062 -0.7265625,0 -1.1835937,-0.28125 -1.1835937,-0.6914062 0,-0.4335938 0.4570312,-0.6796875 1.1835937,-0.6796875 z m 0,-0.5273438 c -1.1367187,0 -1.8867187,0.4570313 -1.8867187,1.2070313 0,0.65625 0.5976562,1.0898437 1.5351562,1.1835937 v 0.5859375 c -0.7851562,0.035156 -1.5234375,0.035156 -2.17968748,0.035156 l 0.09375,0.5976562 c 1.41796878,0 3.33984378,-0.011719 5.06249998,-0.328125 l -0.046875,-0.5273437 c -0.703125,0.1054687 -1.453125,0.1640625 -2.203125,0.1992187 v -0.5625 c 0.9257813,-0.09375 1.5234375,-0.5273437 1.5234375,-1.1835937 0,-0.75 -0.7617187,-1.2070313 -1.8984375,-1.207031 z m 3.0585938,-1.59375 v 5.4375 h 0.75 v -2.3671875 h 1.171875 v -0.6210937 h -1.171875 v -2.4492188 z m -3.4101563,-0.070312 v 0.796875 H 0.61039062 v 0.5625 H 5.2627344 v -0.5625 H 3.3057031 v -0.796875 z m 12.0205074,0.070312 v 5.9179688 h 0.738282 v -5.9179688 z m -3.609375,0.5625 c -1.1953121,0 -2.1093746,0.8320313 -2.1093746,1.9921875 0,1.171875 0.9140625,2.0039063 2.1093746,2.0039063 1.207032,0 2.121094,-0.8320313 2.121094,-2.0039063 0,-1.1601562 -0.914062,-1.9921875 -2.121094,-1.9921875 z m 0,0.6445313 c 0.785157,0 1.394532,0.5625 1.394532,1.3476562 0,0.796875 -0.609375,1.3476563 -1.394532,1.3476563 -0.785156,0 -1.3828121,-0.5507813 -1.3828121,-1.3476563 0,-0.7851562 0.5976561,-1.3476562 1.3828121,-1.3476562 z m -0.855468,4.1132812 v 2.60156252 h 5.460937 v -0.609375 H 10.873086 V -2.0849844 Z m 9.222656,-3.2929687 c -1.160156,0 -1.945313,0.5976562 -1.945313,1.5117187 0,0.9140625 0.785157,1.5117188 1.945313,1.5117188 1.148437,0 1.933594,-0.5976563 1.933594,-1.5117188 0,-0.9140625 -0.785157,-1.5117187 -1.933594,-1.5117187 z m 0,0.5859375 c 0.738281,0 1.230469,0.3632812 1.230469,0.9257812 0,0.5625 -0.492188,0.9257813 -1.230469,0.9257813 -0.738281,0 -1.230469,-0.3632813 -1.230469,-0.9257813 0,-0.5625 0.492188,-0.9257812 1.230469,-0.9257812 z m 3.140625,-2.6132813 v 6.0820313 h 0.738281 v -2.8007813 h 1.195313 v -0.6210937 h -1.195313 v -2.6601563 z m -3.503906,0 v 0.984375 h -2.027344 v 0.609375 h 4.78125 v -0.609375 h -2.015625 v -0.984375 z m -0.796875,5.5898438 v 2.33203122 h 5.402343 v -0.609375 H 18.923867 V -1.8154531 Z m 14.923828,-5.5898438 v 1.8984375 h -1.769531 v 0.6210938 h 1.769531 v 3.5390625 h 0.738281 v -6.0585938 z m -3.890625,0.4804688 v 0.9960937 c 0,1.2539063 -0.820313,2.390625 -2.027344,2.8359375 l 0.398438,0.5976563 c 0.949218,-0.3867188 1.664062,-1.1484375 2.003906,-2.1210938 0.351562,0.8789063 1.042969,1.5820313 1.933594,1.9335938 l 0.398437,-0.5859375 c -1.171875,-0.4335938 -1.96875,-1.5 -1.96875,-2.625 v -1.03125 z m -0.574219,4.9101562 v 2.53125002 h 5.390625 v -0.609375 H 29.39457 V -2.0146719 Z m 7.757813,-5.1328125 v 3.234375 h 5.390625 v -3.234375 h -0.726563 v 1.03125 h -3.925781 v -1.03125 z m 0.738281,1.59375 h 3.925781 v 1.0429688 h -3.925781 z m -1.722656,2.4257813 v 0.5976562 h 3.363281 v 1.57031252 h 0.738281 V -2.5302969 h 3.257813 v -0.5976562 z m 0.9375,1.4414062 v 2.20312502 h 5.601562 v -0.609375 H 37.105508 V -1.6865469 Z m 0,0"
       style="fill:#000000;fill-opacity:1;fill-rule:nonzero;stroke:none"
       aria-label="확인한선분"
       transform="matrix(1.3333333,0,0,1.3333333,15.053333,102.33467)" />
    <path
       id="path39"
       d="M 410.9358,111.96982 H 267.51746 c -1.10047,0 -1.99256,-0.89209 -1.99256,-1.99256 V 14.7485 c 0,-1.10046 0.89209,-1.99255 1.99256,-1.99255 H 410.9358 c 1.10049,0 1.99256,0.89209 1.99256,1.99255 v 95.22876 c 0,1.10047 -0.89207,1.99256 -1.99256,1.99256 z"
       style="fill:#fcfcfc;fill-opacity:1;fill-rule:nonzero;stroke:#c7c7c7;stroke-width:0.3985;stroke-linecap:butt;stroke-linejoin:miter;stroke-miterlimit:10;stroke-dasharray:none;stroke-opacity:1"
       transform="matrix(1.3333333,0,0,-1.3333333,72.997333,160.17867)" />
    <g
       id="g39"
       aria-label="겹치는구간병합&#10;[1,3]과[2,7]은겹친다.&#10;right=max(3,7)&#10;left=1,right=7"
       transform="matrix(1.3333333,0,0,1.3333333,455.20533,53.506667)">
      <path
         id="path40"
         d="M 1.8059609,-2.6475781 V 0.71570312 H 7.3020547 V -2.6475781 h -1.171875 v 0.7734375 h -3.140625 v -0.7734375 z m 1.1835938,1.69921872 h 3.140625 v 0.703125 H 2.9895547 Z M 6.1184609,-7.5108594 v 1.1132813 H 4.6418984 c 0.035156,-0.2109375 0.035156,-0.421875 0.035156,-0.6445313 H 0.88017969 v 0.9492188 H 3.3879922 c -0.1523438,1.0546875 -1.0546875,1.921875 -2.95312501,2.3671875 l 0.45703125,0.9257812 C 2.7317422,-3.2569531 3.9153359,-4.1358594 4.4075234,-5.4366406 h 1.7109375 v 0.75 H 4.3137734 v 0.9726562 h 1.8046875 v 0.6914063 h 1.1835938 v -4.4882813 z m 8.1884771,0 v 8.29687502 h 1.207031 V -7.5108594 Z m -3.65625,0.1992188 v 1.1484375 H 8.9280313 v 0.9492187 h 1.7226567 v 0.2929688 c 0,1.2539062 -0.644532,2.6601562 -2.0039067,3.2578125 l 0.6445312,0.92578122 C 10.240531,-1.1475781 10.9085,-2.0030469 11.271781,-2.9991406 c 0.375,0.9375 1.03125,1.734375 1.96875,2.12109372 L 13.873344,-1.7803906 C 12.50225,-2.3780469 11.846,-3.7257031 11.846,-4.9210156 v -0.2929688 h 1.6875 v -0.9492187 h -1.675781 v -1.1484375 z m 6.210937,3.8554687 v 0.9492188 h 7.511719 v -0.9492188 z m 0.925781,-3.7617187 v 2.8945312 h 5.753907 v -0.9492187 h -4.558594 v -1.9453125 z m -0.07031,5.3671875 v 2.47265622 h 5.871094 v -0.9609375 H 18.912406 V -1.8507031 Z m 9.418945,-1.640625 v 0.9609375 h 3.117188 v 3.32812497 h 1.195312 V -2.5303906 h 3.199219 v -0.9609375 h -1.089844 c 0.210938,-1.171875 0.210938,-2.015625 0.210938,-2.8007813 v -0.7382812 h -5.765625 v 0.9492187 h 4.582031 c 0,0.7265625 -0.01172,1.5234375 -0.222656,2.5898438 z M 40.71807,-7.4991406 v 5.9296875 h 1.195313 v -2.6484375 h 1.101562 v -0.9726563 h -1.101562 v -2.3085937 z m -5.027343,0.609375 v 0.9609375 h 2.695312 c -0.175781,1.1484375 -1.21875,2.109375 -3.058594,2.625 l 0.492188,0.9375 c 2.472656,-0.703125 3.855469,-2.2734375 3.855469,-4.5234375 z m 0.867187,4.7226562 v 2.82421877 h 5.648438 v -0.9609375 H 37.753227 V -2.1671094 Z m 10.634766,-2.8125 h 1.582031 v 1.03125 H 47.19268 Z m 2.613281,2.578125 c -1.757813,0 -2.835938,0.5976563 -2.835938,1.59375002 0,1.01953125 1.078125,1.60546875 2.835938,1.60546875 1.757812,0 2.847656,-0.5859375 2.847656,-1.60546875 0,-0.99609372 -1.089844,-1.59375002 -2.847656,-1.59375002 z m 0,0.9140625 c 1.078125,0 1.652344,0.2109375 1.652344,0.67968752 0,0.48046875 -0.574219,0.703125 -1.652344,0.703125 -1.089844,0 -1.652344,-0.22265625 -1.652344,-0.703125 0,-0.46875002 0.5625,-0.67968752 1.652344,-0.67968752 z m 0.140625,-3.8671875 h 1.476562 v 0.7617188 h -1.476562 z m 1.476562,-2.1445312 v 1.1953125 h -1.476562 v -0.6914063 h -1.171875 v 1.1015625 H 47.19268 v -1.1015625 h -1.183594 v 3.984375 h 3.9375 v -0.6328125 h 1.476562 v 1.1015625 h 1.195313 v -4.9570312 z m 3.632813,5.1796875 v 3.02343747 h 5.390625 V -2.3194531 h -1.171875 v 0.6210937 h -3.035156 v -0.6210937 z m 1.183594,1.51171872 h 3.035156 v 0.5859375 h -3.035156 z m 0.117187,-4.81640622 c -1.195312,0 -2.039062,0.5859375 -2.039062,1.4648437 0,0.8789063 0.84375,1.4765625 2.039062,1.4765625 1.207031,0 2.050781,-0.5976562 2.050781,-1.4765625 0,-0.8789062 -0.84375,-1.4648437 -2.050781,-1.4648437 z m 0,0.8671875 c 0.539063,0 0.902344,0.2109375 0.902344,0.5976562 0,0.3984375 -0.363281,0.609375 -0.902344,0.609375 -0.527344,0 -0.890625,-0.2109375 -0.890625,-0.609375 0,-0.3867187 0.363281,-0.5976562 0.890625,-0.5976562 z m 2.90625,-2.7421875 v 4.8515625 h 1.183594 v -1.8867188 h 1.101562 v -0.9726562 h -1.101562 v -1.9921875 z m -3.492187,-0.070312 v 0.7851562 h -1.851563 v 0.9375 h 4.886719 v -0.9375 h -1.851563 v -0.7851562 z m 0,0"
         style="fill:#000000;fill-opacity:1;fill-rule:nonzero;stroke:none" />
      <path
         id="path41"
         d="m 4.3372109,15.938359 c 0,-0.28125 -0.2460937,-0.28125 -0.375,-0.28125 H 2.6145547 V 9.8563281 h 1.3476562 c 0.140625,0 0.375,0 0.375,-0.2929687 0,-0.2929688 -0.2460937,-0.2929688 -0.375,-0.2929688 H 2.3333047 c -0.2929688,0 -0.375,0.070312 -0.375,0.375 v 6.2109374 c 0,0.304688 0.070312,0.375 0.375,0.375 h 1.6289062 c 0.140625,0 0.375,0 0.375,-0.292969 z m 4.3535157,-0.726562 c 0,-0.304688 -0.2226563,-0.304688 -0.375,-0.304688 h -0.796875 v -4.617187 c 0,-0.128906 0,-0.3750001 -0.28125,-0.3750001 -0.1523438,0 -0.2226563,0.082031 -0.28125,0.1992191 -0.28125,0.632812 -0.6328125,0.867187 -0.9960938,0.902343 -0.1289062,0 -0.328125,0.02344 -0.328125,0.292969 0,0.175781 0.09375,0.28125 0.3164063,0.28125 0.3515625,0 0.703125,-0.1875 0.9140625,-0.363281 v 3.679687 h -0.796875 c -0.1523438,0 -0.3867188,0 -0.3867188,0.304688 0,0.28125 0.2460938,0.28125 0.3867188,0.28125 h 2.25 c 0.140625,0 0.375,0 0.375,-0.28125 z m 3.8291014,0.04687 c 0,-0.515625 -0.328125,-0.902344 -0.75,-0.902344 -0.351562,0 -0.574219,0.269531 -0.574219,0.5625 0,0.328125 0.246094,0.574219 0.574219,0.574219 0.07031,0 0.128906,-0.01172 0.140625,-0.02344 -0.03516,0.199219 -0.199219,0.539063 -0.65625,0.691407 -0.08203,0.03516 -0.246094,0.08203 -0.246094,0.28125 0,0.140625 0.140625,0.292968 0.304688,0.292968 0.292969,0 1.207031,-0.46875 1.207031,-1.476562 z m 10.602539,-1.335938 c 0,-0.738281 -0.550781,-1.230468 -0.972656,-1.429687 0.65625,-0.457031 0.714844,-1.054688 0.714844,-1.289063 0,-0.691406 -0.679688,-1.2890621 -1.699219,-1.2890621 -1.101563,0 -1.6875,0.4453121 -1.6875,1.0546871 0,0.269532 0.199219,0.421875 0.421875,0.421875 0.222656,0 0.410156,-0.175781 0.410156,-0.410156 0,-0.08203 -0.02344,-0.175781 -0.07031,-0.234375 0.292968,-0.246094 0.878906,-0.246094 0.925781,-0.246094 0.632812,0 1.03125,0.328125 1.03125,0.703125 0,0.246094 -0.117188,0.609375 -0.457031,0.832032 -0.234375,0.152343 -0.398438,0.164062 -0.820313,0.199218 -0.351562,0.01172 -0.527344,0.03516 -0.527344,0.304688 0,0.292969 0.246094,0.292969 0.375,0.292969 h 0.375 c 0.925782,0 1.324219,0.621093 1.324219,1.078125 0,0.574218 -0.515625,1.101562 -1.289062,1.101562 -0.234375,0 -0.914063,-0.03516 -1.230469,-0.46875 l 0.02344,-0.02344 c 0.05859,-0.08203 0.05859,-0.105469 0.07031,-0.1875 0,0 0.01172,-0.03516 0.01172,-0.07031 0,-0.222656 -0.175782,-0.410156 -0.410157,-0.410156 -0.222656,0 -0.421875,0.128906 -0.421875,0.433594 0,0.796875 0.84375,1.300781 1.957032,1.300781 1.171875,0 1.945312,-0.808594 1.945312,-1.664063 z m 3.146485,1.933594 V 9.6453906 c 0,-0.2929687 -0.07031,-0.375 -0.375,-0.375 h -1.628907 c -0.128906,0 -0.375,0 -0.375,0.2929688 0,0.2929687 0.234375,0.2929687 0.375,0.2929687 h 1.335938 v 5.8007809 h -1.335938 c -0.128906,0 -0.375,0 -0.375,0.28125 0,0.292969 0.234375,0.292969 0.375,0.292969 h 1.628907 c 0.292968,0 0.375,-0.07031 0.375,-0.375 z m 0,0"
         style="fill:#000000;fill-opacity:1;fill-rule:nonzero;stroke:none" />
      <path
         id="path42"
         d="m 29.512016,8.9657031 v 0.609375 h 3.351562 c 0,0.6562499 -0.02344,1.6289059 -0.234375,2.9882809 l 0.738281,0.05859 c 0.222657,-1.5 0.222657,-2.566406 0.222657,-3.2109374 V 8.9657031 Z m -0.363282,5.4492189 c 1.429688,0 3.328125,-0.03516 5.015625,-0.304688 l -0.04687,-0.550781 c -0.832031,0.105469 -1.734375,0.164063 -2.613281,0.199219 v -2.472656 h -0.738281 v 2.484375 l -1.710938,0.02344 z m 5.460938,-6.3398439 v 8.1210939 h 0.738281 v -4.089844 h 1.300781 V 11.473516 H 35.347953 V 8.0750781 Z m 0,0"
         style="fill:#000000;fill-opacity:1;fill-rule:nonzero;stroke:none" />
      <path
         id="path43"
         d="m 43.284477,15.938359 c 0,-0.28125 -0.246094,-0.28125 -0.375,-0.28125 H 41.56182 V 9.8563281 h 1.347657 c 0.140625,0 0.375,0 0.375,-0.2929687 0,-0.2929688 -0.246094,-0.2929688 -0.375,-0.2929688 H 41.28057 c -0.292968,0 -0.375,0.070312 -0.375,0.375 v 6.2109374 c 0,0.304688 0.07031,0.375 0.375,0.375 h 1.628907 c 0.140625,0 0.375,0 0.375,-0.292969 z m 4.602539,-0.820312 v -0.257813 c 0,-0.175781 0,-0.375 -0.328125,-0.375 -0.339844,0 -0.339844,0.1875 -0.339844,0.421875 h -2.015625 c 0.480469,-0.410156 1.488281,-1.207031 1.710937,-1.417968 0.328125,-0.316407 0.972657,-0.914063 0.972657,-1.804688 0,-1.066406 -0.890625,-1.7695311 -2.003907,-1.7695311 -1.042968,0 -1.757812,0.7148441 -1.757812,1.4765621 0,0.363282 0.28125,0.457032 0.421875,0.457032 0.175781,0 0.410156,-0.152344 0.410156,-0.421875 0,-0.1875 -0.07031,-0.257813 -0.117187,-0.304688 0.152343,-0.386719 0.550781,-0.621094 1.007812,-0.621094 0.714844,0 1.371094,0.410157 1.371094,1.183594 0,0.621094 -0.480469,1.160156 -0.832031,1.464844 l -2.132813,1.792969 c -0.07031,0.05859 -0.128906,0.117187 -0.128906,0.257812 0,0.292969 0.234375,0.292969 0.386719,0.292969 h 3 c 0.292968,0 0.375,-0.07031 0.375,-0.375 z m 3.583007,0.140625 c 0,-0.515625 -0.328125,-0.902344 -0.75,-0.902344 -0.351562,0 -0.574218,0.269531 -0.574218,0.5625 0,0.328125 0.246093,0.574219 0.574218,0.574219 0.07031,0 0.128907,-0.01172 0.140625,-0.02344 -0.03516,0.199219 -0.199218,0.539063 -0.65625,0.691407 -0.08203,0.03516 -0.246093,0.08203 -0.246093,0.28125 0,0.140625 0.140625,0.292968 0.304687,0.292968 0.292969,0 1.207031,-0.46875 1.207031,-1.476562 z m 10.60254,-4.945313 c 0,-0.292968 -0.234375,-0.292968 -0.375,-0.292968 h -2.90625 c -0.05859,-0.1523441 -0.210938,-0.1523441 -0.292969,-0.1523441 -0.328125,0 -0.328125,0.2109371 -0.328125,0.3750001 v 0.410156 c 0,0.164063 0,0.375 0.328125,0.375 0.328125,0 0.328125,-0.1875 0.328125,-0.433594 h 2.25 c -0.527344,0.597657 -0.960938,1.265625 -1.265625,1.992188 -0.46875,1.089844 -0.539063,2.15625 -0.539063,2.566406 0,0.117188 0,0.433594 0.328125,0.433594 0.328125,0 0.328125,-0.304688 0.328125,-0.445313 0.03516,-2.015625 1.019532,-3.609375 1.945313,-4.511718 0.175781,-0.164063 0.199219,-0.1875 0.199219,-0.316407 z m 3.146484,5.542969 V 9.6453906 c 0,-0.2929687 -0.07031,-0.375 -0.375,-0.375 h -1.628906 c -0.128907,0 -0.375,0 -0.375,0.2929688 0,0.2929687 0.234375,0.2929687 0.375,0.2929687 h 1.335937 v 5.8007809 h -1.335937 c -0.128907,0 -0.375,0 -0.375,0.28125 0,0.292969 0.234375,0.292969 0.375,0.292969 h 1.628906 c 0.292969,0 0.375,-0.07031 0.375,-0.375 z m 0,0"
         style="fill:#000000;fill-opacity:1;fill-rule:nonzero;stroke:none" />
      <path
         id="path44"
         d="m 68.087211,12.340703 v 0.609375 h 7.324219 v -0.609375 z m 3.65625,-3.9843749 c -1.734375,0 -2.847656,0.5976563 -2.847656,1.6171875 0,1.0078124 1.113281,1.6171874 2.847656,1.6171874 1.746094,0 2.859375,-0.609375 2.859375,-1.6171874 0,-1.0195312 -1.113281,-1.6171875 -2.859375,-1.6171875 z m 0,0.5976563 c 1.289062,0 2.097656,0.3867187 2.097656,1.0195312 0,0.6328124 -0.808594,1.0078124 -2.097656,1.0078124 -1.265625,0 -2.085938,-0.375 -2.085938,-1.0078124 0,-0.6328125 0.820313,-1.0195312 2.085938,-1.0195312 z M 69.03643,13.664922 v 2.34375 h 5.566406 v -0.609375 h -4.828125 v -1.734375 z m 10.737304,-0.820313 v 3.234375 h 5.238282 v -3.234375 h -0.738282 v 1.019532 h -3.761718 v -1.019532 z m 0.738282,1.605469 h 3.761718 v 1.03125 h -3.761718 z m 3.761718,-6.3749999 v 1.2773438 h -1.816406 c 0.03516,-0.2460938 0.07031,-0.5039063 0.07031,-0.7734375 h -3.65625 v 0.609375 h 2.847656 c -0.140625,1.3242186 -1.289063,2.3437496 -3.269531,2.8359376 l 0.292968,0.597656 c 1.792969,-0.46875 3.035157,-1.371094 3.527344,-2.6601561 h 2.003906 v 1.0429691 h -2.097656 v 0.621093 h 2.097656 v 0.820313 h 0.738282 V 8.0750781 Z m 8.226563,0.011719 v 5.9882809 h 0.738281 V 8.0867969 Z m -4.464844,5.4374999 v 2.484375 h 5.460938 v -0.609375 h -4.722657 v -1.875 z m 0.761719,-5.4023437 v 1.0429688 h -1.839844 v 0.5976562 h 1.839844 v 0.2109375 c 0,1.1250002 -0.832031,2.1445312 -2.039063,2.5429682 l 0.363282,0.585938 c 0.960937,-0.339844 1.699218,-1.019531 2.050781,-1.921875 0.363281,0.820312 1.101562,1.464844 2.050781,1.78125 l 0.363281,-0.597656 c -1.21875,-0.375 -2.0625,-1.324219 -2.0625,-2.3906252 V 9.7625781 h 1.828125 V 9.1649219 H 89.535453 V 8.1219531 Z m 11.531248,-0.046875 v 8.1210937 h 0.75 v -4.300781 h 1.32422 v -0.621094 h -1.32422 V 8.0750781 Z m -5.132811,0.796875 v 5.3085937 h 0.632813 c 1.523437,0 2.589844,-0.04687 3.84375,-0.269531 l -0.09375,-0.644532 c -1.183594,0.222657 -2.214844,0.28125 -3.644531,0.28125 V 9.4813281 h 3.023437 v -0.609375 z m 8.692381,6.7382807 c 0.32813,0 0.59766,-0.246093 0.59766,-0.621093 0,-0.375 -0.26953,-0.621094 -0.59766,-0.621094 -0.32812,0 -0.58594,0.246094 -0.58594,0.621094 0,0.375 0.25782,0.621093 0.58594,0.621093 z m 0,0"
         style="fill:#000000;fill-opacity:1;fill-rule:nonzero;stroke:none" />
      <path
         id="path45"
         d="m 4.3723672,26.514531 c 0,-0.164062 -0.1171875,-0.574219 -0.8554688,-0.574219 -0.515625,0 -1.078125,0.222657 -1.5117187,0.703125 v -0.28125 c 0,-0.292968 -0.070312,-0.375 -0.375,-0.375 H 0.63408594 c -0.140625,0 -0.38671875,0 -0.38671875,0.292969 0,0.292969 0.234375,0.292969 0.38671875,0.292969 H 1.3489297 v 2.695312 H 0.63408594 c -0.140625,0 -0.38671875,0 -0.38671875,0.292969 0,0.292969 0.234375,0.292969 0.38671875,0.292969 H 3.0012734 c 0.1289063,0 0.3867188,0 0.3867188,-0.28125 0,-0.304688 -0.2460938,-0.304688 -0.3867188,-0.304688 H 2.0051797 v -1.066406 c 0,-0.902344 0.609375,-1.675781 1.5703125,-1.675781 0.035156,0.328125 0.28125,0.398437 0.3984375,0.398437 0.1992187,0 0.3984375,-0.152343 0.3984375,-0.410156 z m 4.4589844,3.058594 c 0,-0.304688 -0.2578125,-0.304688 -0.3867188,-0.304688 h -0.9375 v -2.90625 c 0,-0.292968 -0.070312,-0.375 -0.375,-0.375 H 5.8313516 c -0.140625,0 -0.3867188,0 -0.3867188,0.292969 0,0.292969 0.234375,0.292969 0.3867188,0.292969 h 1.0078125 v 2.695312 H 5.7493203 c -0.1289062,0 -0.375,0 -0.375,0.292969 0,0.292969 0.234375,0.292969 0.375,0.292969 h 2.6953125 c 0.1289063,0 0.3867188,0 0.3867188,-0.28125 z m -1.3125,-4.699219 c 0,-0.257812 -0.1992188,-0.457031 -0.4570313,-0.457031 -0.2460937,0 -0.4570312,0.199219 -0.4570312,0.457031 0,0.246094 0.2109375,0.457031 0.4570312,0.457031 0.2578125,0 0.4570313,-0.210937 0.4570313,-0.457031 z m 6.4541014,1.535156 c 0,-0.234375 -0.1875,-0.515625 -0.667969,-0.515625 -0.210937,0 -0.597656,0.04687 -0.9375,0.316407 -0.246093,-0.164063 -0.550781,-0.269532 -0.867187,-0.269532 -0.84375,0 -1.5,0.65625 -1.5,1.453125 0,0.328125 0.117187,0.609375 0.269531,0.832032 -0.07031,0.140625 -0.164062,0.375 -0.164062,0.609375 0,0.375 0.1875,0.621093 0.199218,0.644531 -0.6093746,0.375 -0.6328121,0.960937 -0.6328121,1.089844 0,0.796875 0.9492191,1.324218 2.0859371,1.324218 1.136719,0 2.097657,-0.527343 2.097657,-1.324218 0,-1.277344 -1.652344,-1.277344 -1.910157,-1.277344 h -0.644531 c -0.07031,0 -0.1875,0 -0.257812,-0.02344 -0.140625,0 -0.175782,0 -0.269532,-0.117187 -0.08203,-0.08203 -0.117187,-0.1875 -0.117187,-0.304688 0,-0.04687 0,-0.152343 0.04687,-0.234375 0.246094,0.140625 0.527344,0.222657 0.796875,0.222657 0.84375,0 1.511719,-0.65625 1.511719,-1.441407 0,-0.292968 -0.08203,-0.539062 -0.234375,-0.773437 0.199218,-0.105469 0.328125,-0.128906 0.457031,-0.140625 0.04687,0.234375 0.246094,0.304687 0.363281,0.304687 0.210938,0 0.375,-0.152343 0.375,-0.375 z m -1.628906,0.984375 c 0,0.480469 -0.386719,0.867188 -0.84375,0.867188 -0.457031,0 -0.84375,-0.386719 -0.84375,-0.867188 0,-0.492187 0.386719,-0.878906 0.84375,-0.878906 0.457031,0 0.84375,0.386719 0.84375,0.878906 z m 0.949219,3.1875 c 0,0.363282 -0.621094,0.738282 -1.535157,0.738282 -0.878906,0 -1.523437,-0.363282 -1.523437,-0.75 0,-0.328125 0.28125,-0.691407 0.738281,-0.738282 h 0.539063 c 0.808593,0 1.78125,0 1.78125,0.75 z m 5.458007,-1.007812 c 0,-0.304688 -0.246093,-0.304688 -0.375,-0.304688 h -0.398437 v -2.027343 c 0,-0.890625 -0.445313,-1.300782 -1.171875,-1.300782 -0.421875,0 -0.832031,0.152344 -1.171875,0.457032 v -1.640625 c 0,-0.304688 -0.08203,-0.375 -0.386719,-0.375 H 14.56768 c -0.117188,0 -0.375,0 -0.375,0.28125 0,0.292968 0.246093,0.292968 0.375,0.292968 h 0.398437 v 4.3125 H 14.56768 c -0.117188,0 -0.375,0 -0.375,0.292969 0,0.292969 0.246093,0.292969 0.375,0.292969 h 1.453125 c 0.128906,0 0.375,0 0.375,-0.28125 0,-0.304688 -0.234375,-0.304688 -0.375,-0.304688 h -0.386719 v -1.546875 c 0,-0.878906 0.679687,-1.195312 1.113281,-1.195312 0.445313,0 0.5625,0.222656 0.5625,0.75 v 1.992187 h -0.28125 c -0.128906,0 -0.386719,0 -0.386719,0.292969 0,0.292969 0.246094,0.292969 0.386719,0.292969 h 1.347656 c 0.117188,0 0.375,0 0.375,-0.28125 z m 4.098633,-0.878906 c 0,-0.304688 -0.222656,-0.304688 -0.328125,-0.304688 -0.140625,0 -0.316406,0.01172 -0.328125,0.304688 -0.02344,0.421875 -0.375,0.621093 -0.679687,0.621093 -0.667969,0 -0.667969,-0.480468 -0.667969,-0.703125 v -2.039062 h 1.429688 c 0.117187,0 0.375,0 0.375,-0.28125 0,-0.304688 -0.246094,-0.304688 -0.375,-0.304688 H 20.846 v -0.726562 c 0,-0.164063 0,-0.375 -0.328125,-0.375 -0.328125,0 -0.328125,0.210937 -0.328125,0.386719 v 0.714843 h -0.75 c -0.140625,0 -0.386719,0 -0.386719,0.304688 0,0.28125 0.246094,0.28125 0.375,0.28125 h 0.761719 v 2.074219 c 0,0.9375 0.644531,1.253906 1.277344,1.253906 0.773437,0 1.382812,-0.539063 1.382812,-1.207031 z m 9.75586,-2.25 c 0,-0.351563 -0.351563,-0.351563 -0.480469,-0.351563 h -3.082031 c -0.128907,0 -0.480469,0 -0.480469,0.351563 0,0.328125 0.328125,0.328125 0.421875,0.328125 h 3.199219 c 0.09375,0 0.421875,0 0.421875,-0.328125 z m 0,1.347656 c 0,-0.328125 -0.328125,-0.328125 -0.421875,-0.328125 h -3.199219 c -0.09375,0 -0.421875,0 -0.421875,0.328125 0,0.339844 0.351562,0.339844 0.480469,0.339844 h 3.082031 c 0.128906,0 0.480469,0 0.480469,-0.339844 z m 9.673828,1.78125 c 0,-0.304688 -0.199219,-0.304688 -0.515625,-0.304688 v -2.121093 c 0,-0.199219 0,-1.207032 -0.796875,-1.207032 -0.09375,0 -0.515625,0 -0.890625,0.457032 -0.01172,-0.03516 -0.1875,-0.457032 -0.667969,-0.457032 -0.210937,0 -0.503906,0.08203 -0.761719,0.304688 -0.03516,-0.257813 -0.210937,-0.257813 -0.375,-0.257813 h -0.292968 c -0.140625,0 -0.386719,0 -0.386719,0.292969 0,0.292969 0.199219,0.292969 0.515625,0.292969 v 2.695312 c -0.316406,0 -0.515625,0 -0.515625,0.304688 0,0.28125 0.246094,0.28125 0.386719,0.28125 h 0.796875 c 0.140625,0 0.386718,0 0.386718,-0.28125 0,-0.304688 -0.199218,-0.304688 -0.515625,-0.304688 v -1.570312 c 0,-0.761719 0.363282,-1.171875 0.726563,-1.171875 0.175781,0 0.292969,0.128906 0.292969,0.679687 v 2.0625 c -0.08203,0 -0.339844,0 -0.339844,0.292969 0,0.292969 0.246094,0.292969 0.375,0.292969 h 0.632812 c 0.140625,0 0.386719,0 0.386719,-0.28125 0,-0.304688 -0.199219,-0.304688 -0.515625,-0.304688 v -1.570312 c 0,-0.761719 0.363281,-1.171875 0.726563,-1.171875 0.175781,0 0.292968,0.128906 0.292968,0.679687 v 2.0625 c -0.08203,0 -0.339843,0 -0.339843,0.292969 0,0.292969 0.246093,0.292969 0.375,0.292969 h 0.644531 c 0.128906,0 0.375,0 0.375,-0.28125 z m 4.731445,-0.01172 c 0,-0.292969 -0.246094,-0.292969 -0.386719,-0.292969 -0.128906,0 -0.316406,0 -0.492187,-0.05859 v -1.886719 c 0,-0.703125 -0.539063,-1.40625 -1.792969,-1.40625 -0.410156,0 -1.3125,0 -1.3125,0.679687 0,0.257813 0.1875,0.410157 0.410156,0.410157 0.140625,0 0.421875,-0.04687 0.421875,-0.480469 0.246094,-0.02344 0.410157,-0.02344 0.492188,-0.02344 0.703125,0 1.113281,0.292969 1.113281,0.84375 -1.488281,0.01172 -2.671875,0.433594 -2.671875,1.3125 0,0.679688 0.621094,1.242188 1.488281,1.242188 0.105469,0 0.785157,0 1.265625,-0.351563 0.222657,0.304688 0.703125,0.304688 0.996094,0.304688 0.257813,0 0.46875,0 0.46875,-0.292969 z M 45.464164,28.58875 c 0,0.210937 0,0.398437 -0.351562,0.574219 -0.328125,0.152343 -0.726563,0.152343 -0.761719,0.152343 -0.527344,0 -0.902344,-0.292968 -0.902344,-0.65625 0,-0.433593 0.914063,-0.738281 2.015625,-0.75 z m 6.029297,0.984375 c 0,-0.304688 -0.234375,-0.304688 -0.375,-0.304688 H 50.75518 l -1.101563,-1.40625 0.972656,-1.289062 h 0.363282 c 0.140625,0 0.375,0 0.375,-0.28125 0,-0.304688 -0.234375,-0.304688 -0.375,-0.304688 h -1.066407 c -0.128906,0 -0.375,0 -0.375,0.292969 0,0.292969 0.210938,0.292969 0.433594,0.292969 l -0.597656,0.832031 -0.621094,-0.832031 c 0.222656,0 0.433594,0 0.433594,-0.292969 0,-0.292969 -0.246094,-0.292969 -0.375,-0.292969 H 47.75518 c -0.140625,0 -0.375,0 -0.375,0.292969 0,0.292969 0.234375,0.292969 0.375,0.292969 h 0.363281 l 1.007812,1.289062 -1.066406,1.40625 h -0.363281 c -0.140625,0 -0.375,0 -0.375,0.304688 0,0.28125 0.246094,0.28125 0.375,0.28125 h 1.066406 c 0.140625,0 0.375,0 0.375,-0.28125 0,-0.304688 -0.199219,-0.304688 -0.457031,-0.304688 l 0.703125,-1.03125 0.738281,1.03125 c -0.234375,0 -0.445312,0 -0.445312,0.304688 0,0.28125 0.234375,0.28125 0.375,0.28125 h 1.066406 c 0.128906,0 0.375,0 0.375,-0.28125 z m 4.192383,0.761719 c 0,-0.152344 -0.08203,-0.199219 -0.164063,-0.269532 -1.183593,-0.773437 -1.558593,-2.015625 -1.558593,-2.941406 0,-0.679687 0.1875,-1.265625 0.386718,-1.675781 0.363282,-0.679688 0.796875,-1.042969 1.21875,-1.324219 0.07031,-0.04687 0.117188,-0.128906 0.117188,-0.222656 0,-0.09375 -0.04687,-0.269531 -0.292969,-0.269531 -0.210937,0 -0.960937,0.515625 -1.464844,1.300781 -0.46875,0.75 -0.621093,1.546875 -0.621093,2.179687 0,0.597657 0.128906,1.453125 0.714843,2.308594 0.433594,0.644531 1.148438,1.171875 1.371094,1.171875 0.246094,0 0.292969,-0.175781 0.292969,-0.257812 z m 5.094726,-2.050782 c 0,-0.738281 -0.550781,-1.230468 -0.972656,-1.429687 0.65625,-0.457031 0.714844,-1.054688 0.714844,-1.289063 0,-0.691406 -0.679688,-1.289062 -1.699219,-1.289062 -1.101562,0 -1.6875,0.445312 -1.6875,1.054687 0,0.269532 0.199219,0.421875 0.421875,0.421875 0.222656,0 0.410156,-0.175781 0.410156,-0.410156 0,-0.08203 -0.02344,-0.175781 -0.07031,-0.234375 0.292969,-0.246094 0.878906,-0.246094 0.925781,-0.246094 0.632813,0 1.03125,0.328125 1.03125,0.703125 0,0.246094 -0.117187,0.609375 -0.457031,0.832032 -0.234375,0.152343 -0.398438,0.164062 -0.820313,0.199218 -0.351562,0.01172 -0.527343,0.03516 -0.527343,0.304688 0,0.292969 0.246093,0.292969 0.375,0.292969 h 0.375 c 0.925781,0 1.324218,0.621093 1.324218,1.078125 0,0.574218 -0.515625,1.101562 -1.289062,1.101562 -0.234375,0 -0.914063,-0.03516 -1.230469,-0.46875 l 0.02344,-0.02344 c 0.05859,-0.08203 0.05859,-0.105469 0.07031,-0.1875 0,0 0.01172,-0.03516 0.01172,-0.07031 0,-0.222656 -0.175781,-0.410156 -0.410156,-0.410156 -0.222657,0 -0.421875,0.128906 -0.421875,0.433594 0,0.796875 0.84375,1.300781 1.957031,1.300781 1.171875,0 1.945312,-0.808594 1.945312,-1.664063 z M 64.293266,29.62 c 0,-0.515625 -0.328125,-0.902344 -0.75,-0.902344 -0.351563,0 -0.574219,0.269531 -0.574219,0.5625 0,0.328125 0.246094,0.574219 0.574219,0.574219 0.07031,0 0.128906,-0.01172 0.140625,-0.02344 -0.03516,0.199219 -0.199219,0.539063 -0.65625,0.691407 -0.08203,0.03516 -0.246094,0.08203 -0.246094,0.28125 0,0.140625 0.140625,0.292968 0.304687,0.292968 0.292969,0 1.207032,-0.46875 1.207032,-1.476562 z m 10.608398,-4.945313 c 0,-0.292968 -0.234375,-0.292968 -0.375,-0.292968 h -2.90625 c -0.05859,-0.152344 -0.210937,-0.152344 -0.292969,-0.152344 -0.328125,0 -0.328125,0.210937 -0.328125,0.375 v 0.410156 c 0,0.164063 0,0.375 0.328125,0.375 0.328125,0 0.328125,-0.1875 0.328125,-0.433594 h 2.25 c -0.527343,0.597657 -0.960937,1.265625 -1.265625,1.992188 -0.46875,1.089844 -0.539062,2.15625 -0.539062,2.566406 0,0.117188 0,0.433594 0.328125,0.433594 0.328125,0 0.328125,-0.304688 0.328125,-0.445313 0.03516,-2.015625 1.019531,-3.609375 1.945312,-4.511718 0.175782,-0.164063 0.199219,-0.1875 0.199219,-0.316407 z m 3.580078,2.449219 c 0,-0.609375 -0.128906,-1.453125 -0.714844,-2.308594 -0.445312,-0.644531 -1.136718,-1.183593 -1.371093,-1.183593 -0.257813,0 -0.292969,0.199218 -0.292969,0.269531 0,0.140625 0.08203,0.210937 0.164062,0.257812 1.183594,0.785157 1.546875,2.015625 1.546875,2.953125 0,0.679688 -0.1875,1.265625 -0.375,1.664063 -0.363281,0.679687 -0.808593,1.054687 -1.230468,1.324219 -0.07031,0.05859 -0.105469,0.152343 -0.105469,0.234375 0,0.07031 0.04687,0.257812 0.292969,0.257812 0.199218,0 0.960937,-0.515625 1.453125,-1.289062 0.480468,-0.75 0.632812,-1.546875 0.632812,-2.179688 z M 4.2200234,40.533086 c 0,-0.304688 -0.234375,-0.304688 -0.375,-0.304688 H 2.6848672 V 35.71668 c 0,-0.304688 -0.070312,-0.375 -0.375,-0.375 H 0.85674219 c -0.140625,0 -0.375,0 -0.375,0.28125 0,0.292968 0.22265625,0.292968 0.375,0.292968 H 2.0168984 v 4.3125 H 0.85674219 c -0.140625,0 -0.375,0 -0.375,0.292969 0,0.292969 0.22265625,0.292969 0.375,0.292969 H 3.8450234 c 0.140625,0 0.375,0 0.375,-0.28125 z M 8.8665078,39.84168 c 0,-0.1875 -0.140625,-0.269532 -0.328125,-0.269532 -0.1289062,0 -0.2460937,0 -0.328125,0.1875 -0.2109375,0.515625 -0.7851562,0.515625 -0.890625,0.515625 -0.515625,0 -1.265625,-0.304687 -1.453125,-1.160156 h 2.625 c 0.1757813,0 0.375,0 0.375,-0.339844 0,-1.03125 -0.5859375,-1.898437 -1.734375,-1.898437 -1.1015625,0 -1.9453125,0.914062 -1.9453125,1.980469 0,1.113281 0.9257813,2.003906 2.0742188,2.003906 1.2070312,0 1.6054687,-0.808594 1.6054687,-1.019531 z M 8.1868203,38.540898 H 5.8782266 c 0.1757812,-0.726562 0.7382812,-1.078125 1.2539062,-1.078125 0.6210938,0 0.984375,0.410157 1.0546875,1.078125 z m 5.1416017,-2.695312 c 0,-0.550781 -0.726563,-0.550781 -0.867188,-0.550781 -0.691406,0 -1.417968,0.386718 -1.417968,1.207031 v 0.445312 h -0.855469 c -0.140625,0 -0.3867189,0 -0.3867189,0.304688 0,0.28125 0.2460939,0.28125 0.3749999,0.28125 h 0.867188 v 2.695312 h -0.902344 c -0.128906,0 -0.3867189,0 -0.3867189,0.292969 0,0.292969 0.2460939,0.292969 0.3867189,0.292969 h 2.472656 c 0.128906,0 0.386719,0 0.386719,-0.28125 0,-0.304688 -0.246094,-0.304688 -0.386719,-0.304688 h -0.902344 v -2.695312 h 1.042969 c 0.128906,0 0.375,0 0.375,-0.28125 0,-0.304688 -0.234375,-0.304688 -0.375,-0.304688 h -1.042969 v -0.410156 c 0,-0.65625 0.550782,-0.667969 0.808594,-0.667969 0.03516,0.246094 0.222656,0.386719 0.410156,0.386719 0.164063,0 0.398438,-0.117187 0.398438,-0.410156 z m 4.813476,3.808594 c 0,-0.304688 -0.222656,-0.304688 -0.328125,-0.304688 -0.140625,0 -0.316406,0.01172 -0.328125,0.304688 -0.02344,0.421875 -0.375,0.621093 -0.679687,0.621093 -0.667969,0 -0.667969,-0.480468 -0.667969,-0.703125 v -2.039062 h 1.429688 c 0.117187,0 0.375,0 0.375,-0.28125 0,-0.304688 -0.246094,-0.304688 -0.375,-0.304688 h -1.429688 v -0.726562 c 0,-0.164063 0,-0.375 -0.328125,-0.375 -0.328125,0 -0.328125,0.210937 -0.328125,0.386719 v 0.714843 h -0.75 c -0.140625,0 -0.386719,0 -0.386719,0.304688 0,0.28125 0.246094,0.28125 0.375,0.28125 h 0.761719 v 2.074219 c 0,0.9375 0.644531,1.253906 1.277344,1.253906 0.773437,0 1.382812,-0.539063 1.382812,-1.207031 z m 9.75586,-2.25 c 0,-0.351563 -0.351563,-0.351563 -0.480469,-0.351563 h -3.082031 c -0.128906,0 -0.480469,0 -0.480469,0.351563 0,0.328125 0.328125,0.328125 0.421875,0.328125 h 3.199219 c 0.09375,0 0.421875,0 0.421875,-0.328125 z m 0,1.347656 c 0,-0.328125 -0.328125,-0.328125 -0.421875,-0.328125 h -3.199219 c -0.09375,0 -0.421875,0 -0.421875,0.328125 0,0.339844 0.351563,0.339844 0.480469,0.339844 h 3.082031 c 0.128906,0 0.480469,0 0.480469,-0.339844 z m 9.029297,1.78125 c 0,-0.304688 -0.222657,-0.304688 -0.375,-0.304688 H 35.75518 v -4.617187 c 0,-0.128906 0,-0.375 -0.28125,-0.375 -0.152344,0 -0.222657,0.08203 -0.28125,0.199219 -0.28125,0.632812 -0.632813,0.867187 -0.996094,0.902343 -0.128906,0 -0.328125,0.02344 -0.328125,0.292969 0,0.175781 0.09375,0.28125 0.316406,0.28125 0.351563,0 0.703125,-0.1875 0.914063,-0.363281 v 3.679687 h -0.796875 c -0.152344,0 -0.386719,0 -0.386719,0.304688 0,0.28125 0.246094,0.28125 0.386719,0.28125 h 2.25 c 0.140625,0 0.375,0 0.375,-0.28125 z m 3.829101,0.04687 c 0,-0.515625 -0.328125,-0.902344 -0.75,-0.902344 -0.351562,0 -0.574218,0.269531 -0.574218,0.5625 0,0.328125 0.246093,0.574219 0.574218,0.574219 0.07031,0 0.128907,-0.01172 0.140625,-0.02344 -0.03516,0.199219 -0.199218,0.539063 -0.65625,0.691407 -0.08203,0.03516 -0.246093,0.08203 -0.246093,0.28125 0,0.140625 0.140625,0.292968 0.304687,0.292968 0.292969,0 1.207031,-0.46875 1.207031,-1.476562 z m 10.678711,-3.105469 c 0,-0.164062 -0.117187,-0.574219 -0.855469,-0.574219 -0.515625,0 -1.078125,0.222657 -1.511718,0.703125 v -0.28125 c 0,-0.292968 -0.07031,-0.375 -0.375,-0.375 h -0.996094 c -0.140625,0 -0.386719,0 -0.386719,0.292969 0,0.292969 0.234375,0.292969 0.386719,0.292969 h 0.714844 v 2.695312 h -0.714844 c -0.140625,0 -0.386719,0 -0.386719,0.292969 0,0.292969 0.234375,0.292969 0.386719,0.292969 h 2.367187 c 0.128907,0 0.386719,0 0.386719,-0.28125 0,-0.304688 -0.246094,-0.304688 -0.386719,-0.304688 H 49.06768 v -1.066406 c 0,-0.902344 0.609375,-1.675781 1.570312,-1.675781 0.03516,0.328125 0.28125,0.398437 0.398438,0.398437 0.199218,0 0.398437,-0.152343 0.398437,-0.410156 z m 4.461914,3.058594 c 0,-0.304688 -0.257812,-0.304688 -0.386718,-0.304688 h -0.9375 v -2.90625 c 0,-0.292968 -0.07031,-0.375 -0.375,-0.375 h -1.300782 c -0.140625,0 -0.386718,0 -0.386718,0.292969 0,0.292969 0.234375,0.292969 0.386718,0.292969 h 1.007813 v 2.695312 H 52.81475 c -0.128906,0 -0.375,0 -0.375,0.292969 0,0.292969 0.234375,0.292969 0.375,0.292969 h 2.695313 c 0.128906,0 0.386718,0 0.386718,-0.28125 z m -1.3125,-4.699219 c 0,-0.257812 -0.199218,-0.457031 -0.457031,-0.457031 -0.246094,0 -0.457031,0.199219 -0.457031,0.457031 0,0.246094 0.210937,0.457031 0.457031,0.457031 0.257813,0 0.457031,-0.210937 0.457031,-0.457031 z m 6.454102,1.535156 c 0,-0.234375 -0.1875,-0.515625 -0.667969,-0.515625 -0.210937,0 -0.597656,0.04687 -0.9375,0.316407 -0.246094,-0.164063 -0.550781,-0.269532 -0.867187,-0.269532 -0.84375,0 -1.5,0.65625 -1.5,1.453125 0,0.328125 0.117187,0.609375 0.269531,0.832032 -0.07031,0.140625 -0.164063,0.375 -0.164063,0.609375 0,0.375 0.1875,0.621093 0.199219,0.644531 -0.609375,0.375 -0.632812,0.960937 -0.632812,1.089844 0,0.796875 0.949218,1.324218 2.085937,1.324218 1.136719,0 2.097656,-0.527343 2.097656,-1.324218 0,-1.277344 -1.652343,-1.277344 -1.910156,-1.277344 h -0.644531 c -0.07031,0 -0.1875,0 -0.257813,-0.02344 -0.140625,0 -0.175781,0 -0.269531,-0.117187 -0.08203,-0.08203 -0.117187,-0.1875 -0.117187,-0.304688 0,-0.04687 0,-0.152343 0.04687,-0.234375 0.246093,0.140625 0.527343,0.222657 0.796875,0.222657 0.84375,0 1.511718,-0.65625 1.511718,-1.441407 0,-0.292968 -0.08203,-0.539062 -0.234375,-0.773437 0.199219,-0.105469 0.328125,-0.128906 0.457032,-0.140625 0.04687,0.234375 0.246093,0.304687 0.363281,0.304687 0.210937,0 0.375,-0.152343 0.375,-0.375 z m -1.628906,0.984375 c 0,0.480469 -0.386719,0.867188 -0.84375,0.867188 -0.457032,0 -0.84375,-0.386719 -0.84375,-0.867188 0,-0.492187 0.386718,-0.878906 0.84375,-0.878906 0.457031,0 0.84375,0.386719 0.84375,0.878906 z m 0.949218,3.1875 c 0,0.363282 -0.621093,0.738282 -1.535156,0.738282 -0.878906,0 -1.523437,-0.363282 -1.523437,-0.75 0,-0.328125 0.28125,-0.691407 0.738281,-0.738282 h 0.539062 c 0.808594,0 1.78125,0 1.78125,0.75 z m 5.458008,-1.007812 c 0,-0.304688 -0.246094,-0.304688 -0.375,-0.304688 H 65.043266 V 38.20105 c 0,-0.890625 -0.445313,-1.300782 -1.171875,-1.300782 -0.421875,0 -0.832032,0.152344 -1.171875,0.457032 v -1.64062 c 0,-0.304688 -0.08203,-0.375 -0.386719,-0.375 h -0.679688 c -0.117187,0 -0.375,0 -0.375,0.28125 0,0.292968 0.246094,0.292968 0.375,0.292968 h 0.398438 v 4.3125 h -0.398438 c -0.117187,0 -0.375,0 -0.375,0.292969 0,0.292969 0.246094,0.292969 0.375,0.292969 h 1.453125 c 0.128907,0 0.375,0 0.375,-0.28125 0,-0.304688 -0.234375,-0.304688 -0.375,-0.304688 h -0.386718 v -1.546875 c 0,-0.878906 0.679687,-1.195312 1.113281,-1.195312 0.445312,0 0.5625,0.222656 0.5625,0.75 v 1.992187 h -0.28125 c -0.128906,0 -0.386719,0 -0.386719,0.292969 0,0.292969 0.246094,0.292969 0.386719,0.292969 h 1.347656 c 0.117188,0 0.375,0 0.375,-0.28125 z m 4.095703,-0.878906 c 0,-0.304688 -0.222656,-0.304688 -0.328125,-0.304688 -0.140625,0 -0.316406,0.01172 -0.328125,0.304688 -0.02344,0.421875 -0.375,0.621093 -0.679687,0.621093 -0.667969,0 -0.667969,-0.480468 -0.667969,-0.703125 v -2.039062 h 1.429688 c 0.117187,0 0.375,0 0.375,-0.28125 0,-0.304688 -0.246094,-0.304688 -0.375,-0.304688 H 67.9085 v -0.726562 c 0,-0.164063 0,-0.375 -0.328125,-0.375 -0.328125,0 -0.328125,0.210937 -0.328125,0.386719 v 0.714843 h -0.75 c -0.140625,0 -0.386719,0 -0.386719,0.304688 0,0.28125 0.246094,0.28125 0.375,0.28125 H 67.25225 V 39.6073 c 0,0.9375 0.644531,1.253906 1.277344,1.253906 0.773437,0 1.382812,-0.539063 1.382812,-1.207031 z m 9.767578,-2.25 c 0,-0.351563 -0.351562,-0.351563 -0.480468,-0.351563 h -3.082032 c -0.128906,0 -0.480468,0 -0.480468,0.351563 0,0.328125 0.328125,0.328125 0.421875,0.328125 h 3.199218 c 0.09375,0 0.421875,0 0.421875,-0.328125 z m 0,1.347656 c 0,-0.328125 -0.328125,-0.328125 -0.421875,-0.328125 h -3.199218 c -0.09375,0 -0.421875,0 -0.421875,0.328125 0,0.339844 0.351562,0.339844 0.480468,0.339844 h 3.082032 c 0.128906,0 0.480468,0 0.480468,-0.339844 z m 9.354493,-3.117188 c 0,-0.292968 -0.234375,-0.292968 -0.375,-0.292968 h -2.90625 c -0.05859,-0.152344 -0.210938,-0.152344 -0.292969,-0.152344 -0.328125,0 -0.328125,0.210937 -0.328125,0.375 v 0.410156 c 0,0.164063 0,0.375 0.328125,0.375 0.328125,0 0.328125,-0.1875 0.328125,-0.433594 h 2.25 c -0.527344,0.597657 -0.960938,1.265625 -1.265625,1.992188 -0.46875,1.089844 -0.539063,2.15625 -0.539063,2.566406 0,0.117188 0,0.433594 0.328125,0.433594 0.328125,0 0.328125,-0.304688 0.328125,-0.445313 0.03516,-2.015625 1.019532,-3.609375 1.945313,-4.511718 0.175781,-0.164063 0.199219,-0.1875 0.199219,-0.316407 z m 0,0"
         style="fill:#000000;fill-opacity:1;fill-rule:nonzero;stroke:none" />
    </g>
  </g>
</svg>
