<?xml version="1.0" encoding="UTF-8" standalone="no"?>
<!-- Created with Inkscape (http://www.inkscape.org/) -->

<svg
   version="1.1"
   id="svg1"
   width="623.45331"
   height="223.26666"
   viewBox="0 0 623.45331 223.26666"
   sodipodi:docname="4.pdf"
   xmlns:inkscape="http://www.inkscape.org/namespaces/inkscape"
   xmlns:sodipodi="http://sodipodi.sourceforge.net/DTD/sodipodi-0.dtd"
   xmlns="http://www.w3.org/2000/svg"
   xmlns:svg="http://www.w3.org/2000/svg">
  <defs
     id="defs1" />
  <sodipodi:namedview
     id="namedview1"
     pagecolor="#ffffff"
     bordercolor="#000000"
     borderopacity="0.25"
     inkscape:showpageshadow="2"
     inkscape:pageopacity="0.0"
     inkscape:pagecheckerboard="0"
     inkscape:deskcolor="#d1d1d1">
    <inkscape:page
       x="0"
       y="0"
       inkscape:label="1"
       id="page1"
       width="623.45331"
       height="223.26666"
       margin="0"
       bleed="0" />
  </sodipodi:namedview>
  <g
     id="g1"
     inkscape:groupmode="layer"
     inkscape:label="1">
    <path
       id="path1"
       d="M 0,-22.67752 H 238.67021"
       style="fill:none;stroke:#808080;stroke-width:0.54794;stroke-linecap:butt;stroke-linejoin:miter;stroke-miterlimit:10;stroke-dasharray:none;stroke-opacity:1"
       transform="matrix(1.3333333,0,0,-1.3333333,61.998667,160.17867)" />
    <path
       id="path2"
       d="M 3.41533,0 C 2.99591,0.10364 1.15227,0.69095 0,1.3301 V -1.3301 C 1.15227,-0.69095 2.99591,-0.10364 3.41533,0 Z"
       style="fill:#808080;fill-opacity:1;fill-rule:nonzero;stroke:#808080;stroke-width:0.54794;stroke-linecap:butt;stroke-linejoin:miter;stroke-miterlimit:10;stroke-dasharray:none;stroke-opacity:1"
       transform="matrix(1.3333333,0,0,-1.3333333,380.22561,190.41536)" />
    <path
       id="path3"
       d="m 0,-25.79568 v 6.23632"
       style="fill:none;stroke:#858585;stroke-width:0.44832;stroke-linecap:butt;stroke-linejoin:miter;stroke-miterlimit:10;stroke-dasharray:none;stroke-opacity:1"
       transform="matrix(1.3333333,0,0,-1.3333333,61.998667,160.17867)" />
    <path
       id="path4"
       d="m 1.9330703,0.0950625 c 0.9960938,0 1.59375,-0.92578125 1.59375,-2.6015625 0,-1.6523438 -0.5976562,-2.5546875 -1.59375,-2.5546875 -0.99609374,0 -1.58203124,0.890625 -1.58203124,2.5546875 0,1.67578125 0.5859375,2.6015625 1.58203124,2.6015625 z m 0,-0.515625 c -0.5742187,0 -0.97265624,-0.6210938 -0.97265624,-2.0859375 0,-1.453125 0.39843754,-2.0507813 0.97265624,-2.0507813 0.5859375,0 0.984375,0.5976563 0.984375,2.0507813 0,1.4648437 -0.3984375,2.0859375 -0.984375,2.0859375 z m 0,0"
       style="fill:#525252;fill-opacity:1;fill-rule:nonzero;stroke:none"
       aria-label="0"
       transform="matrix(1.3333333,0,0,1.3333333,59.418667,208.092)" />
    <path
       id="path5"
       d="m 22.11046,-25.79568 v 6.23632"
       style="fill:none;stroke:#858585;stroke-width:0.44832;stroke-linecap:butt;stroke-linejoin:miter;stroke-miterlimit:10;stroke-dasharray:none;stroke-opacity:1"
       transform="matrix(1.3333333,0,0,-1.3333333,61.998667,160.17867)" />
    <path
       id="path6"
       d="M 0.60920312,0.0013125 H 3.4217031 v -0.52734375 h -1.03125 V -4.9674375 H 1.8982656 c -0.2695312,0.1640625 -0.5976562,0.28125 -1.05468748,0.3632812 V -4.194 H 1.7576406 v 3.66796875 H 0.60920312 Z m 0,0"
       style="fill:#525252;fill-opacity:1;fill-rule:nonzero;stroke:none"
       aria-label="1"
       transform="matrix(1.3333333,0,0,1.3333333,88.898667,208.092)" />
    <path
       id="path7"
       d="m 44.22093,-25.79568 v 6.23632"
       style="fill:none;stroke:#858585;stroke-width:0.44832;stroke-linecap:butt;stroke-linejoin:miter;stroke-miterlimit:10;stroke-dasharray:none;stroke-opacity:1"
       transform="matrix(1.3333333,0,0,-1.3333333,61.998667,160.17867)" />
    <path
       id="path8"
       d="M 0.30386719,-7.421875e-4 H 3.5148047 V -0.55152344 H 2.0733984 c -0.2578125,0 -0.5625,0.0234375 -0.8320312,0.046875 1.171875,-1.23046876 2.0390625,-2.16796876 2.0390625,-3.10546876 0,-0.8789062 -0.5859375,-1.453125 -1.5,-1.453125 -0.6445313,0 -1.08984376,0.2929688 -1.50000001,0.75 l 0.36328125,0.3632813 c 0.29296875,-0.328125 0.64453126,-0.5976563 1.06640626,-0.5976563 0.6328125,0 0.9375,0.4101563 0.9375,0.9726563 0,0.8085937 -0.84375,1.7109375 -2.34375001,3.19921871 z m 0,0"
       style="fill:#525252;fill-opacity:1;fill-rule:nonzero;stroke:none"
       aria-label="2"
       transform="matrix(1.3333333,0,0,1.3333333,118.38,208.15333)" />
    <path
       id="path9"
       d="m 66.3314,-25.79568 v 6.23632"
       style="fill:none;stroke:#858585;stroke-width:0.44832;stroke-linecap:butt;stroke-linejoin:miter;stroke-miterlimit:10;stroke-dasharray:none;stroke-opacity:1"
       transform="matrix(1.3333333,0,0,-1.3333333,61.998667,160.17867)" />
    <path
       id="path10"
       d="m 1.8276562,0.0950625 c 0.9140625,0 1.6523438,-0.52734375 1.6523438,-1.4179688 0,-0.6796875 -0.4804688,-1.125 -1.078125,-1.265625 v -0.035156 c 0.5273437,-0.1875 0.9023437,-0.5742188 0.9023437,-1.1835938 0,-0.796875 -0.6328125,-1.2539062 -1.4882812,-1.2539062 -0.5859375,0 -1.04296875,0.2695312 -1.4296875,0.6210937 l 0.33984375,0.3984375 C 1.0190625,-4.334625 1.3823437,-4.5455625 1.7925,-4.5455625 c 0.5390625,0 0.8671875,0.3046875 0.8671875,0.7851562 0,0.5273438 -0.3632813,0.9257813 -1.4179688,0.9257813 v 0.5039062 c 1.1835938,0 1.59375,0.3867188 1.59375,0.984375 0,0.56250005 -0.4335937,0.91406255 -1.0429687,0.91406255 -0.5742188,0 -0.9609375,-0.28125 -1.265625,-0.58593755 L 0.19875,-0.6080625 c 0.33984375,0.36328125 0.84375,0.703125 1.6289062,0.703125 z m 0,0"
       style="fill:#525252;fill-opacity:1;fill-rule:nonzero;stroke:none"
       aria-label="3"
       transform="matrix(1.3333333,0,0,1.3333333,147.86,208.092)" />
    <path
       id="path11"
       d="m 88.44188,-25.79568 v 6.23632"
       style="fill:none;stroke:#858585;stroke-width:0.44832;stroke-linecap:butt;stroke-linejoin:miter;stroke-miterlimit:10;stroke-dasharray:none;stroke-opacity:1"
       transform="matrix(1.3333333,0,0,-1.3333333,61.998667,160.17867)" />
    <path
       id="path12"
       d="m 2.3660703,0.0013125 h 0.5976563 v -1.3710938 h 0.6914062 v -0.515625 H 2.9637266 v -3.0820312 h -0.703125 l -2.12109379,3.1757812 v 0.421875 H 2.3660703 Z m 0,-1.8867188 H 0.79575781 L 1.9676328,-3.584625 c 0.140625,-0.2460938 0.28125,-0.46875 0.4101563,-0.703125 h 0.023437 c -0.011719,0.2578125 -0.035156,0.703125 -0.035156,0.9492187 z m 0,0"
       style="fill:#525252;fill-opacity:1;fill-rule:nonzero;stroke:none"
       aria-label="4"
       transform="matrix(1.3333333,0,0,1.3333333,177.34133,208.092)" />
    <path
       id="path13"
       d="m 110.55235,-25.79568 v 6.23632"
       style="fill:none;stroke:#858585;stroke-width:0.44832;stroke-linecap:butt;stroke-linejoin:miter;stroke-miterlimit:10;stroke-dasharray:none;stroke-opacity:1"
       transform="matrix(1.3333333,0,0,-1.3333333,61.998667,160.17867)" />
    <path
       id="path14"
       d="m 1.8273594,0.0931875 c 0.8554687,0 1.6757812,-0.609375 1.6757812,-1.6875 0,-1.0664063 -0.703125,-1.546875 -1.546875,-1.546875 -0.3046875,0 -0.5390625,0.070312 -0.7617187,0.1992187 l 0.1289062,-1.4765625 h 1.921875 V -4.9693125 H 0.76095313 l -0.1640625,2.390625 0.33984375,0.2109375 c 0.29296872,-0.1875 0.51562502,-0.3046875 0.85546872,-0.3046875 0.6445313,0 1.0546875,0.4101562 1.0546875,1.1015625 0,0.69140625 -0.4804687,1.13671875 -1.078125,1.13671875 -0.5976562,0 -0.97265622,-0.28125 -1.26562497,-0.57421875 L 0.18673438,-0.5865 c 0.3515625,0.33984375 0.83203122,0.6796875 1.64062502,0.6796875 z m 0,0"
       style="fill:#525252;fill-opacity:1;fill-rule:nonzero;stroke:none"
       aria-label="5"
       transform="matrix(1.3333333,0,0,1.3333333,206.82133,208.032)" />
    <path
       id="path15"
       d="m 132.66283,-25.79568 v 6.23632"
       style="fill:none;stroke:#858585;stroke-width:0.44832;stroke-linecap:butt;stroke-linejoin:miter;stroke-miterlimit:10;stroke-dasharray:none;stroke-opacity:1"
       transform="matrix(1.3333333,0,0,-1.3333333,61.998667,160.17867)" />
    <path
       id="path16"
       d="m 2.0962422,0.0950625 c 0.7851562,0 1.453125,-0.64453125 1.453125,-1.59375 0,-1.0195313 -0.5507813,-1.5351563 -1.4179688,-1.5351563 -0.3984375,0 -0.84375,0.234375 -1.16015621,0.6328125 0.0351562,-1.5820312 0.62109371,-2.1328125 1.32421871,-2.1328125 0.3164063,0 0.6210938,0.1523438 0.8085938,0.3984375 l 0.3632812,-0.3984375 c -0.28125,-0.3046875 -0.6679687,-0.5273437 -1.2070312,-0.5273437 -0.984375,0 -1.88671876,0.7617187 -1.88671876,2.765625 0,1.59375 0.73828126,2.390625 1.72265626,2.390625 z M 0.98296094,-1.897125 c 0.35156246,-0.4804688 0.72656246,-0.65625 1.05468746,-0.65625 0.609375,0 0.9257813,0.4101562 0.9257813,1.0546875 0,0.65625 -0.3867188,1.08984375 -0.8789063,1.08984375 -0.6328125,0 -1.0078125,-0.515625 -1.10156246,-1.48828125 z m 0,0"
       style="fill:#525252;fill-opacity:1;fill-rule:nonzero;stroke:none"
       aria-label="6"
       transform="matrix(1.3333333,0,0,1.3333333,236.30267,208.092)" />
    <path
       id="path17"
       d="m 154.7733,-25.79568 v 6.23632"
       style="fill:none;stroke:#858585;stroke-width:0.44832;stroke-linecap:butt;stroke-linejoin:miter;stroke-miterlimit:10;stroke-dasharray:none;stroke-opacity:1"
       transform="matrix(1.3333333,0,0,-1.3333333,61.998667,160.17867)" />
    <path
       id="path18"
       d="M 1.38175,0.0013125 H 2.038 C 2.1200313,-1.9322813 2.366125,-3.069 3.538,-4.5807188 V -4.9674375 H 0.33878125 v 0.5507812 H 2.8231563 C 1.8387813,-3.0572813 1.4755,-1.8736875 1.38175,0.0013125 Z m 0,0"
       style="fill:#525252;fill-opacity:1;fill-rule:nonzero;stroke:none"
       aria-label="7"
       transform="matrix(1.3333333,0,0,1.3333333,265.78267,208.092)" />
    <path
       id="path19"
       d="m 176.88377,-25.79568 v 6.23632"
       style="fill:none;stroke:#858585;stroke-width:0.44832;stroke-linecap:butt;stroke-linejoin:miter;stroke-miterlimit:10;stroke-dasharray:none;stroke-opacity:1"
       transform="matrix(1.3333333,0,0,-1.3333333,61.998667,160.17867)" />
    <path
       id="path20"
       d="m 1.95825,0.0950625 c 0.9492188,0 1.59375,-0.5859375 1.59375,-1.3242188 0,-0.6679687 -0.421875,-1.0195312 -0.8554687,-1.2890625 v -0.023437 C 2.9895,-2.7760313 3.3645,-3.2213438 3.3645,-3.7486875 c 0,-0.7617188 -0.5273437,-1.3125 -1.3945312,-1.3125 -0.796875,0 -1.40625005,0.5039062 -1.40625005,1.265625 0,0.5273437 0.328125,0.890625 0.69140625,1.1484375 v 0.035156 c -0.45703125,0.2460938 -0.9375,0.6914063 -0.9375,1.3476563 0,0.78515625 0.6914063,1.359375 1.640625,1.3593752 z m 0.3398438,-2.8007813 c -0.5976563,-0.234375 -1.1484375,-0.4921875 -1.1484375,-1.0898437 0,-0.4804688 0.3398437,-0.796875 0.8085937,-0.796875 0.5507813,0 0.8671875,0.3984375 0.8671875,0.8789062 0,0.375 -0.1875,0.703125 -0.5273437,1.0078125 z M 1.95825,-0.38540625 c -0.609375,0 -1.06640625,-0.3984375 -1.06640625,-0.93750005 0,-0.46875 0.29296875,-0.8320312 0.70312505,-1.0898437 0.7148437,0.2929687 1.3476562,0.515625 1.3476562,1.1601562 0,0.51562505 -0.3867187,0.86718755 -0.984375,0.86718755 z m 0,0"
       style="fill:#525252;fill-opacity:1;fill-rule:nonzero;stroke:none"
       aria-label="8"
       transform="matrix(1.3333333,0,0,1.3333333,295.264,208.092)" />
    <path
       id="path21"
       d="m 198.99423,-25.79568 v 6.23632"
       style="fill:none;stroke:#858585;stroke-width:0.44832;stroke-linecap:butt;stroke-linejoin:miter;stroke-miterlimit:10;stroke-dasharray:none;stroke-opacity:1"
       transform="matrix(1.3333333,0,0,-1.3333333,61.998667,160.17867)" />
    <path
       id="path22"
       d="m 1.5923906,0.0950625 c 0.9960938,0 1.8984375,-0.7734375 1.8984375,-2.765625 0,-1.59375 -0.7382812,-2.390625 -1.7226562,-2.390625 -0.79687502,0 -1.46484377,0.6445312 -1.46484377,1.59375 0,1.0195312 0.5625,1.5351562 1.41796877,1.5351562 0.4101562,0 0.8554687,-0.2460937 1.171875,-0.6328125 -0.023437,1.59375005 -0.6210938,2.13281255 -1.3242188,2.13281255 -0.3046875,0 -0.60937497,-0.15234375 -0.82031247,-0.3984375 l -0.33984375,0.3984375 C 0.66660938,-0.12759375 1.0533281,0.0950625 1.5923906,0.0950625 Z m 1.2890625,-3.1757813 c -0.3398437,0.4921875 -0.7382812,0.6796875 -1.0546875,0.6796875 -0.609375,0 -0.92578122,-0.4101562 -0.92578122,-1.0664062 0,-0.65625 0.37500002,-1.1015625 0.87890622,-1.1015625 0.6210938,0 1.0195313,0.5273437 1.1015625,1.4882812 z m 0,0"
       style="fill:#525252;fill-opacity:1;fill-rule:nonzero;stroke:none"
       aria-label="9"
       transform="matrix(1.3333333,0,0,1.3333333,324.744,208.092)" />
    <path
       id="path23"
       d="m 221.1047,-25.79568 v 6.23632"
       style="fill:none;stroke:#858585;stroke-width:0.44832;stroke-linecap:butt;stroke-linejoin:miter;stroke-miterlimit:10;stroke-dasharray:none;stroke-opacity:1"
       transform="matrix(1.3333333,0,0,-1.3333333,61.998667,160.17867)" />
    <path
       id="path24"
       d="M 0.60977344,0.0013125 H 3.4222734 v -0.52734375 h -1.03125 V -4.9674375 H 1.8988359 c -0.2695312,0.1640625 -0.5976562,0.28125 -1.05468746,0.3632812 V -4.194 H 1.7582109 v 3.66796875 H 0.60977344 Z m 5.19433596,0.09375 c 0.9960937,0 1.59375,-0.92578125 1.59375,-2.6015625 0,-1.6523438 -0.5976563,-2.5546875 -1.59375,-2.5546875 -0.9960938,0 -1.5820313,0.890625 -1.5820313,2.5546875 0,1.67578125 0.5859375,2.6015625 1.5820313,2.6015625 z m 0,-0.515625 c -0.5742188,0 -0.9726563,-0.6210938 -0.9726563,-2.0859375 0,-1.453125 0.3984375,-2.0507813 0.9726563,-2.0507813 0.5859375,0 0.984375,0.5976563 0.984375,2.0507813 0,1.4648437 -0.3984375,2.0859375 -0.984375,2.0859375 z m 0,0"
       style="fill:#525252;fill-opacity:1;fill-rule:nonzero;stroke:none"
       aria-label="10"
       transform="matrix(1.3333333,0,0,1.3333333,351.644,208.092)" />
    <path
       id="path25"
       d="M 22.11046,72.28444 H 154.7733"
       style="fill:none;stroke:#000000;stroke-width:2.98883;stroke-linecap:round;stroke-linejoin:miter;stroke-miterlimit:10;stroke-dasharray:none;stroke-opacity:1"
       transform="matrix(1.3333333,0,0,-1.3333333,61.998667,160.17867)" />
    <path
       id="path26"
       d="m 25.79555,72.28444 c 0,2.03523 -1.64986,3.68509 -3.68509,3.68509 -2.03522,0 -3.68508,-1.64986 -3.68508,-3.68509 0,-2.03522 1.64986,-3.68507 3.68508,-3.68507 2.03523,0 3.68509,1.64985 3.68509,3.68507 z"
       style="fill:#ffffff;fill-opacity:1;fill-rule:nonzero;stroke:#000000;stroke-width:0.54794;stroke-linecap:butt;stroke-linejoin:miter;stroke-miterlimit:10;stroke-dasharray:none;stroke-opacity:1"
       transform="matrix(1.3333333,0,0,-1.3333333,61.998667,160.17867)" />
    <path
       id="path27"
       d="m 158.45837,72.28444 c 0,2.03523 -1.64985,3.68509 -3.68507,3.68509 -2.03523,0 -3.68509,-1.64986 -3.68509,-3.68509 0,-2.03522 1.64986,-3.68507 3.68509,-3.68507 2.03522,0 3.68507,1.64985 3.68507,3.68507 z"
       style="fill:#ffffff;fill-opacity:1;fill-rule:nonzero;stroke:#000000;stroke-width:0.54794;stroke-linecap:butt;stroke-linejoin:miter;stroke-miterlimit:10;stroke-dasharray:none;stroke-opacity:1"
       transform="matrix(1.3333333,0,0,-1.3333333,61.998667,160.17867)" />
    <path
       id="path28"
       d="M 176.88377,32.59865 H 221.1047"
       style="fill:none;stroke:#616161;stroke-width:2.1918;stroke-linecap:round;stroke-linejoin:miter;stroke-miterlimit:10;stroke-dasharray:none;stroke-opacity:1"
       transform="matrix(1.3333333,0,0,-1.3333333,61.998667,160.17867)" />
    <path
       id="path29"
       d="m 180.56885,32.59865 c 0,2.03522 -1.64986,3.68507 -3.68508,3.68507 -2.03523,0 -3.68509,-1.64985 -3.68509,-3.68507 0,-2.03523 1.64986,-3.68509 3.68509,-3.68509 2.03522,0 3.68508,1.64986 3.68508,3.68509 z"
       style="fill:#ffffff;fill-opacity:1;fill-rule:nonzero;stroke:#000000;stroke-width:0.54794;stroke-linecap:butt;stroke-linejoin:miter;stroke-miterlimit:10;stroke-dasharray:none;stroke-opacity:1"
       transform="matrix(1.3333333,0,0,-1.3333333,61.998667,160.17867)" />
    <path
       id="path30"
       d="m 224.7898,32.59865 c 0,2.03522 -1.64986,3.68507 -3.6851,3.68507 -2.03521,0 -3.68507,-1.64985 -3.68507,-3.68507 0,-2.03523 1.64986,-3.68509 3.68507,-3.68509 2.03524,0 3.6851,1.64986 3.6851,3.68509 z"
       style="fill:#ffffff;fill-opacity:1;fill-rule:nonzero;stroke:#000000;stroke-width:0.54794;stroke-linecap:butt;stroke-linejoin:miter;stroke-miterlimit:10;stroke-dasharray:none;stroke-opacity:1"
       transform="matrix(1.3333333,0,0,-1.3333333,61.998667,160.17867)" />
    <path
       id="path31"
       d="M 6.3408594,-7.4188203 V 0.70227344 H 7.0791406 V -7.4188203 Z m -3.5390625,0.6328125 c -1.1953125,0 -2.06250002,1.1015625 -2.06250002,2.8242187 0,1.734375 0.86718752,2.8359375 2.06250002,2.8359375 1.1953125,0 2.0625,-1.1015625 2.0625,-2.8359375 0,-1.7226562 -0.8671875,-2.8242187 -2.0625,-2.8242187 z m 0,0.6679687 c 0.796875,0 1.3359375,0.84375 1.3359375,2.15625 0,1.3125 -0.5390625,2.1679688 -1.3359375,2.1679688 -0.796875,0 -1.3359375,-0.8554688 -1.3359375,-2.1679688 0,-1.3125 0.5390625,-2.15625 1.3359375,-2.15625 z M 14.623086,-7.4071016 v 2.2382813 H 12.99418 v 0.609375 h 1.628906 v 3.09375 h 0.738281 v -5.9414063 z m -4.429688,5.4140625 v 2.50781254 h 5.402344 v -0.609375 H 10.93168 V -1.9930391 Z M 8.9512109,-6.7508516 v 0.609375 h 1.8046871 v 0.3984375 c 0,1.1484375 -0.8320308,2.2265625 -2.0273433,2.6484375 l 0.375,0.5976563 c 0.9609373,-0.3515625 1.6992183,-1.1015625 2.0390623,-2.0273438 0.351563,0.84375 1.054688,1.5117188 1.957031,1.8398438 l 0.375,-0.5859375 c -1.171875,-0.4101563 -1.96875,-1.4414063 -1.96875,-2.4726563 v -0.3984375 h 1.78125 v -0.609375 z m 9.9931641,3.3398438 v 0.6210937 h 3.269531 v 3.49218754 h 0.75 V -2.7899141 h 3.304688 V -3.4110078 H 25.085 c 0.222656,-1.1601563 0.222656,-2.0039063 0.222656,-2.765625 v -0.7148438 h -5.449218 v 0.609375 h 4.722656 v 0.1054688 c 0,0.75 0,1.6171875 -0.257813,2.765625 z m 13.790039,-4.0078125 v 5.9296875 h 0.75 v -2.8359375 h 1.195313 v -0.6328125 h -1.195313 v -2.4609375 z m -5.203125,0.6328125 v 0.6210937 h 2.976563 c -0.152344,1.4179688 -1.382813,2.5546875 -3.304688,3.1523438 l 0.316406,0.5976562 c 2.332032,-0.7382812 3.785157,-2.2734375 3.785157,-4.3710937 z m 0.902344,4.6992187 v 2.60156254 h 5.402344 v -0.609375 H 29.171914 V -2.0867891 Z m 0,0"
       style="fill:#000000;fill-opacity:1;fill-rule:nonzero;stroke:none"
       aria-label="이전구간"
       transform="matrix(1.3333333,0,0,1.3333333,15.053333,68.270667)" />
    <path
       id="path32"
       d="m 2.1572656,-6.6575547 v 1.5585938 c 0,1.3828125 -0.6796875,2.8359375 -1.79296872,3.4921875 l 0.46875,0.5507812 c 0.79687502,-0.4921875 1.38281252,-1.3828125 1.67578122,-2.4375 0.2929688,0.9609375 0.8320313,1.7929688 1.6054688,2.2265625 l 0.4453125,-0.5859375 c -1.0664063,-0.5859375 -1.6875,-1.9570312 -1.6875,-3.2929687 V -6.6575547 Z M 4.8408594,-7.2434922 V 0.27994531 H 5.5557031 V -3.5403672 H 6.6221094 V 0.70182031 H 7.3486719 V -7.4192734 H 6.6221094 v 3.2695312 H 5.5557031 v -3.09375 z m 5.8535156,3.8320313 v 0.6210937 h 3.269531 v 3.49218751 h 0.75 V -2.7903672 h 3.304688 V -3.4114609 H 16.835 c 0.222656,-1.1601563 0.222656,-2.0039063 0.222656,-2.765625 v -0.7148438 h -5.449218 v 0.609375 h 4.722656 v 0.1054688 c 0,0.75 0,1.6171875 -0.257813,2.765625 z m 13.792969,-4.0078125 v 5.9296875 h 0.75 v -2.8359375 h 1.195312 v -0.6328125 h -1.195312 v -2.4609375 z m -5.203125,0.6328125 v 0.6210937 h 2.976562 c -0.152344,1.4179688 -1.382812,2.5546875 -3.304687,3.1523438 l 0.316406,0.5976562 c 2.332031,-0.7382812 3.785156,-2.2734375 3.785156,-4.3710937 z m 0.902343,4.6992187 v 2.60156251 h 5.402344 v -0.609375 H 20.924844 V -2.0872422 Z m 0,0"
       style="fill:#000000;fill-opacity:1;fill-rule:nonzero;stroke:none"
       aria-label="새구간"
       transform="matrix(1.3333333,0,0,1.3333333,26.053333,121.18533)" />
    <path
       id="path33"
       d="M 410.9358,111.96982 H 267.51746 c -1.10047,0 -1.99256,-0.89209 -1.99256,-1.99256 V 14.7485 c 0,-1.10046 0.89209,-1.99255 1.99256,-1.99255 H 410.9358 c 1.10049,0 1.99256,0.89209 1.99256,1.99255 v 95.22876 c 0,1.10047 -0.89207,1.99256 -1.99256,1.99256 z"
       style="fill:#fcfcfc;fill-opacity:1;fill-rule:nonzero;stroke:#c7c7c7;stroke-width:0.3985;stroke-linecap:butt;stroke-linejoin:miter;stroke-miterlimit:10;stroke-dasharray:none;stroke-opacity:1"
       transform="matrix(1.3333333,0,0,-1.3333333,61.998667,160.17867)" />
    <g
       id="g33"
       aria-label="겹치지않는구간발견&#10;sum+=7-1&#10;left=8&#10;right=10&#10;마지막에10-8도더한다.&#10;전체길이:8"
       transform="matrix(1.3333333,0,0,1.3333333,446.83733,39.678667)">
      <path
         id="path34"
         d="M 1.8036406,-2.6476719 V 0.71560937 H 7.2997344 V -2.6476719 h -1.171875 v 0.7734375 h -3.140625 v -0.7734375 z m 1.1835938,1.69921877 h 3.140625 v 0.703125 H 2.9872344 Z M 6.1161406,-7.5109531 v 1.1132812 H 4.6395781 c 0.035156,-0.2109375 0.035156,-0.421875 0.035156,-0.6445312 H 0.87785938 v 0.9492187 H 3.3856719 c -0.1523438,1.0546875 -1.0546875,1.921875 -2.95312502,2.3671875 l 0.45703125,0.9257813 C 2.7294219,-3.2570469 3.9130156,-4.1359531 4.4052031,-5.4367344 h 1.7109375 v 0.75 H 4.3114531 v 0.9726563 h 1.8046875 v 0.6914062 h 1.1835938 v -4.4882812 z m 8.1914064,0 v 8.29687497 h 1.207031 V -7.5109531 Z m -3.65625,0.1992187 v 1.1484375 H 8.9286406 v 0.9492188 h 1.7226564 v 0.2929687 c 0,1.2539063 -0.644531,2.6601563 -2.0039064,3.2578125 l 0.6445313,0.92578127 C 10.241141,-1.1476719 10.909109,-2.0031406 11.272391,-2.9992344 c 0.375,0.9375 1.03125,1.734375 1.96875,2.12109377 l 0.632812,-0.90234377 c -1.371094,-0.5976562 -2.027344,-1.9453125 -2.027344,-3.140625 v -0.2929687 h 1.6875 v -0.9492188 h -1.675781 v -1.1484375 z m 11.90625,-0.1875 v 8.29687502 h 1.195312 V -7.4992344 Z m -5.425781,0.7851563 v 0.984375 h 1.734375 v 0.46875 c 0,1.3945312 -0.679688,2.9296875 -2.074219,3.5625 l 0.679687,0.93749997 c 0.984375,-0.44531247 1.640625,-1.34765627 2.015625,-2.42578127 0.375,0.9960938 1.03125,1.8046875 1.992188,2.21484377 l 0.644531,-0.94921877 c -1.382812,-0.5742187 -2.0625,-2.0039062 -2.0625,-3.3398437 v -0.46875 h 1.722656 v -0.984375 z m 12.27832,-0.3984375 c -1.277344,0 -2.214844,0.8085937 -2.214844,1.9453125 0,1.1367187 0.9375,1.9453125 2.214844,1.9453125 1.277344,0 2.214844,-0.8085938 2.214844,-1.9453125 0,-1.1367188 -0.9375,-1.9453125 -2.214844,-1.9453125 z m 0,0.9726562 c 0.609375,0 1.054687,0.3632813 1.054687,0.9726563 0,0.609375 -0.445312,0.9609375 -1.054687,0.9609375 -0.597656,0 -1.066406,-0.3515625 -1.066406,-0.9609375 0,-0.609375 0.46875,-0.9726563 1.066406,-0.9726563 z m 2.847656,4.6054688 c -0.9375,0 -1.605469,0.4570312 -1.605469,1.17187497 0,0.71484375 0.667969,1.171875 1.605469,1.171875 0.949219,0 1.605469,-0.45703125 1.605469,-1.171875 0,-0.71484377 -0.65625,-1.17187497 -1.605469,-1.17187497 z m 0,0.80859372 c 0.304688,0 0.550781,0.1171875 0.550781,0.36328125 0,0.24609375 -0.246093,0.363281255 -0.550781,0.363281255 -0.316406,0 -0.539062,-0.117187505 -0.539062,-0.363281255 0,-0.24609375 0.222656,-0.36328125 0.539062,-0.36328125 z m 0.222656,-6.77343752 v 4.078125 h 1.183594 v -1.3945312 h 1.101563 v -0.9726563 h -1.101563 v -1.7109375 z m -4.617187,4.875 v 3.21093752 h 0.46875 c 0.808594,0 1.464844,-0.046875 2.144531,-0.28125 l -0.175781,-0.9375 c -0.410156,0.140625 -0.832031,0.2109375 -1.277344,0.234375 V -2.6242344 Z m 3.820312,-0.5625 v 0.5859375 h -1.5 v 0.8554688 h 4.148438 V -2.6007969 H 32.84368 v -0.5859375 z m 3.703125,-0.2695312 v 0.9492187 h 7.511719 v -0.9492187 z m 0.925782,-3.7617188 v 2.8945313 h 5.753906 v -0.9492188 h -4.558594 v -1.9453125 z m -0.07031,5.3671875 v 2.47265627 h 5.871094 v -0.9609375 H 37.43743 V -1.8507969 Z m 9.427735,-1.640625 v 0.9609375 h 3.117187 v 3.32812502 h 1.195313 V -2.5304844 h 3.199218 V -3.4914219 H 52.09173 c 0.210937,-1.171875 0.210937,-2.015625 0.210937,-2.8007812 v -0.7382813 h -5.765625 v 0.9492188 h 4.582031 c 0,0.7265625 -0.01172,1.5234375 -0.222656,2.5898437 z m 13.582031,-4.0078125 v 5.9296875 h 1.195312 v -2.6484375 h 1.101563 v -0.9726562 h -1.101563 v -2.3085938 z m -5.027344,0.609375 v 0.9609375 h 2.695313 c -0.175782,1.1484375 -1.21875,2.109375 -3.058594,2.625 l 0.492187,0.9375 c 2.472657,-0.703125 3.855469,-2.2734375 3.855469,-4.5234375 z m 0.867188,4.7226563 v 2.82421872 h 5.648437 v -0.9609375 H 56.287039 V -2.1672031 Z m 9.345703,-4.9804688 v 3.6328125 h 3.996093 V -7.1476719 H 67.24993 v 0.984375 h -1.628907 v -0.984375 z m 1.183593,1.875 h 1.628907 v 0.8320313 h -1.628907 z m 3.925782,-2.2265625 v 4.2070313 h 1.183593 v -1.6523438 h 1.101563 v -0.9726562 h -1.101563 v -1.5820313 z m -4.277344,7.31250002 v 0.92578125 h 5.707031 v -0.92578125 h -4.523437 v -0.515625 h 4.277343 V -2.9757969 h -5.472656 v 0.9140625 h 4.300781 v 0.5039063 H 65.269461 Z M 76.34368,-4.0539219 v 0.9609375 h 1.863281 v 1.6992188 h 1.195312 v -6.1171875 h -1.195312 v 1.59375 h -1.417969 c 0.05859,-0.3046875 0.09375,-0.6210938 0.09375,-0.9726563 h -3.878906 v 0.9609375 h 2.589844 c -0.199219,1.2070313 -1.289063,2.1914063 -3.035157,2.7304688 l 0.492188,0.9375 c 1.664062,-0.5039063 2.847656,-1.4414063 3.433594,-2.7070313 h 1.722656 v 0.9140625 z m -2.378907,2.0742188 v 2.63671872 h 5.648438 v -0.9609375 H 75.160086 V -1.9797031 Z m 0,0"
         style="fill:#000000;fill-opacity:1;fill-rule:nonzero;stroke:none" />
      <path
         id="path35"
         d="m 4.1122344,14.370883 c 0,-0.445313 -0.28125,-0.726563 -0.4921875,-0.855469 -0.3632813,-0.222656 -0.5859375,-0.269531 -1.4296875,-0.398437 -0.375,-0.05859 -0.9609375,-0.152344 -0.9609375,-0.492188 0,-0.234375 0.28125,-0.480469 1.1015625,-0.480469 0.8203125,0 0.84375,0.304688 0.8554687,0.503907 0.011719,0.246093 0.2578125,0.246093 0.328125,0.246093 0.328125,0 0.328125,-0.199218 0.328125,-0.375 v -0.585937 c 0,-0.128906 0,-0.375 -0.28125,-0.375 -0.2109375,0 -0.2578125,0.105469 -0.28125,0.175781 -0.3398437,-0.175781 -0.7851562,-0.175781 -0.9375,-0.175781 -1.55859372,0 -1.69921872,0.820312 -1.69921872,1.066406 0,0.480469 0.36328122,0.691406 0.46875002,0.761719 0.3046875,0.1875 0.5507812,0.234375 1.4765625,0.375 0.234375,0.03516 0.9375,0.152344 0.9375,0.609375 0,0.269531 -0.2578125,0.585937 -1.1132813,0.585937 -0.5507812,0 -0.9023437,-0.1875 -1.0898437,-0.714843 -0.058594,-0.175782 -0.09375,-0.28125 -0.35156252,-0.28125 -0.328125,0 -0.328125,0.210937 -0.328125,0.386718 v 0.820313 c 0,0.128906 0,0.375 0.29296875,0.375 0.12890627,0 0.25781247,-0.07031 0.32812497,-0.316406 0.4453125,0.316406 0.9609375,0.316406 1.1484375,0.316406 1.4882813,0 1.6992188,-0.832031 1.6992188,-1.171875 z m 5.2236328,0.84375 c 0,-0.304688 -0.2460938,-0.304688 -0.375,-0.304688 H 8.5624297 v -2.90625 c 0,-0.292968 -0.070312,-0.375 -0.375,-0.375 H 7.5077422 c -0.1289063,0 -0.375,0 -0.375,0.292969 0,0.292969 0.234375,0.292969 0.375,0.292969 h 0.3867187 v 1.886719 c 0,0.75 -0.6914062,0.855468 -0.9960937,0.855468 -0.6796875,0 -0.6796875,-0.257812 -0.6796875,-0.539062 v -2.414063 c 0,-0.292968 -0.082031,-0.375 -0.3867188,-0.375 H 5.1522734 c -0.1171875,0 -0.375,0 -0.375,0.292969 0,0.292969 0.2460938,0.292969 0.375,0.292969 h 0.3984375 v 2.25 c 0,0.84375 0.5976563,1.078125 1.2890625,1.078125 0.3164063,0 0.6679688,-0.04687 1.0546875,-0.316406 0.035156,0.269531 0.2226563,0.269531 0.375,0.269531 h 0.6914063 c 0.1171875,0 0.375,0 0.375,-0.28125 z m 4.7080078,0 c 0,-0.304688 -0.199219,-0.304688 -0.515625,-0.304688 v -2.121093 c 0,-0.199219 0,-1.207032 -0.796875,-1.207032 -0.09375,0 -0.515625,0 -0.890625,0.457032 -0.01172,-0.03516 -0.1875,-0.457032 -0.667969,-0.457032 -0.210937,0 -0.503906,0.08203 -0.761718,0.304688 -0.03516,-0.257813 -0.210938,-0.257813 -0.375,-0.257813 H 9.7430938 c -0.140625,0 -0.3867188,0 -0.3867188,0.292969 0,0.292969 0.1992188,0.292969 0.515625,0.292969 v 2.695312 c -0.3164062,0 -0.515625,0 -0.515625,0.304688 0,0.28125 0.2460938,0.28125 0.3867188,0.28125 h 0.7968752 c 0.140625,0 0.386719,0 0.386719,-0.28125 0,-0.304688 -0.199219,-0.304688 -0.515625,-0.304688 v -1.570312 c 0,-0.761719 0.363281,-1.171875 0.726562,-1.171875 0.175781,0 0.292969,0.128906 0.292969,0.679687 v 2.0625 c -0.08203,0 -0.339844,0 -0.339844,0.292969 0,0.292969 0.246094,0.292969 0.375,0.292969 h 0.632813 c 0.140625,0 0.386718,0 0.386718,-0.28125 0,-0.304688 -0.199218,-0.304688 -0.515625,-0.304688 v -1.570312 c 0,-0.761719 0.363282,-1.171875 0.726563,-1.171875 0.175781,0 0.292969,0.128906 0.292969,0.679687 v 2.0625 c -0.08203,0 -0.339844,0 -0.339844,0.292969 0,0.292969 0.246094,0.292969 0.375,0.292969 h 0.644531 c 0.128906,0 0.375,0 0.375,-0.28125 z m 9.146484,-2.449219 c 0,-0.339844 -0.339843,-0.339844 -0.445312,-0.339844 h -1.242188 v -1.253906 c 0,-0.09375 0,-0.433594 -0.328125,-0.433594 -0.339843,0 -0.339843,0.328125 -0.339843,0.433594 v 1.253906 h -1.242188 c -0.105469,0 -0.445312,0 -0.445312,0.328125 0,0.339844 0.339843,0.339844 0.445312,0.339844 h 1.242188 v 1.242188 c 0,0.105468 0,0.445312 0.328125,0.445312 0.339843,0 0.339843,-0.339844 0.339843,-0.445312 v -1.242188 h 1.242188 c 0.09375,0 0.445312,0 0.445312,-0.328125 z m 4.708008,-0.679687 c 0,-0.351563 -0.351562,-0.351563 -0.480469,-0.351563 h -3.082031 c -0.128906,0 -0.480469,0 -0.480469,0.351563 0,0.328125 0.328125,0.328125 0.421875,0.328125 h 3.199219 c 0.09375,0 0.421875,0 0.421875,-0.328125 z m 0,1.347656 c 0,-0.328125 -0.328125,-0.328125 -0.421875,-0.328125 h -3.199219 c -0.09375,0 -0.421875,0 -0.421875,0.328125 0,0.339844 0.351563,0.339844 0.480469,0.339844 h 3.082031 c 0.128907,0 0.480469,0 0.480469,-0.339844 z m 9.345703,-3.117188 c 0,-0.292968 -0.234375,-0.292968 -0.375,-0.292968 H 33.96282 C 33.90423,9.8708828 33.751883,9.8708828 33.669852,9.8708828 c -0.328125,0 -0.328125,0.2109372 -0.328125,0.3750002 v 0.410156 c 0,0.164063 0,0.375 0.328125,0.375 0.328125,0 0.328125,-0.1875 0.328125,-0.433594 h 2.25 c -0.527344,0.597657 -0.960938,1.265625 -1.265625,1.992188 -0.46875,1.089844 -0.539063,2.15625 -0.539063,2.566406 0,0.117188 0,0.433594 0.328125,0.433594 0.328125,0 0.328125,-0.304688 0.328125,-0.445313 0.03516,-2.015625 1.019531,-3.609375 1.945313,-4.511718 0.175781,-0.164063 0.199218,-0.1875 0.199218,-0.316407 z m 9.307618,2.449219 c 0,-0.339844 -0.328125,-0.339844 -0.433594,-0.339844 h -2.824219 c -0.09375,0 -0.433594,0 -0.433594,0.328125 0,0.339844 0.328125,0.339844 0.433594,0.339844 h 2.824219 c 0.09375,0 0.433594,0 0.433594,-0.328125 z m 9.205078,2.449219 c 0,-0.304688 -0.222657,-0.304688 -0.375,-0.304688 h -0.796875 v -4.617187 c 0,-0.128906 0,-0.3750002 -0.28125,-0.3750002 -0.152344,0 -0.222657,0.082031 -0.28125,0.1992192 -0.28125,0.632812 -0.632813,0.867187 -0.996094,0.902343 -0.128906,0 -0.328125,0.02344 -0.328125,0.292969 0,0.175781 0.09375,0.28125 0.316406,0.28125 0.351563,0 0.703125,-0.1875 0.914063,-0.363281 v 3.679687 h -0.796875 c -0.152344,0 -0.386719,0 -0.386719,0.304688 0,0.28125 0.246094,0.28125 0.386719,0.28125 h 2.25 c 0.140625,0 0.375,0 0.375,-0.28125 z M 4.2177031,26.171664 c 0,-0.304687 -0.234375,-0.304687 -0.375,-0.304687 H 2.6825469 v -4.511719 c 0,-0.304688 -0.070312,-0.375 -0.375,-0.375 H 0.85442188 c -0.140625,0 -0.375,0 -0.375,0.28125 0,0.292969 0.22265625,0.292969 0.375,0.292969 H 2.0145781 v 4.3125 H 0.85442188 c -0.140625,0 -0.375,0 -0.375,0.292968 0,0.292969 0.22265625,0.292969 0.375,0.292969 H 3.8427031 c 0.140625,0 0.375,0 0.375,-0.28125 z m 4.6494141,-0.691406 c 0,-0.1875 -0.140625,-0.269531 -0.328125,-0.269531 -0.1289063,0 -0.2460938,0 -0.328125,0.1875 -0.2109375,0.515625 -0.7851563,0.515625 -0.890625,0.515625 -0.515625,0 -1.265625,-0.304688 -1.453125,-1.160157 h 2.625 c 0.1757812,0 0.375,0 0.375,-0.339843 0,-1.03125 -0.5859375,-1.898438 -1.734375,-1.898438 -1.1015625,0 -1.9453125,0.914063 -1.9453125,1.980469 0,1.113281 0.9257812,2.003906 2.0742187,2.003906 1.2070313,0 1.6054688,-0.808594 1.6054688,-1.019531 z M 8.1874297,24.179477 H 5.8788359 c 0.1757813,-0.726563 0.7382813,-1.078125 1.2539063,-1.078125 0.6210937,0 0.984375,0.410156 1.0546875,1.078125 z m 5.1416013,-2.695313 c 0,-0.550781 -0.726562,-0.550781 -0.867187,-0.550781 -0.691406,0 -1.417969,0.386719 -1.417969,1.207031 v 0.445313 h -0.855469 c -0.140625,0 -0.3867185,0 -0.3867185,0.304687 0,0.28125 0.2460935,0.28125 0.3750005,0.28125 h 0.867187 v 2.695313 h -0.902344 c -0.128906,0 -0.3867185,0 -0.3867185,0.292968 0,0.292969 0.2460935,0.292969 0.3867185,0.292969 h 2.472657 c 0.128906,0 0.386718,0 0.386718,-0.28125 0,-0.304687 -0.246093,-0.304687 -0.386718,-0.304687 h -0.902344 v -2.695313 h 1.042969 c 0.128906,0 0.375,0 0.375,-0.28125 0,-0.304687 -0.234375,-0.304687 -0.375,-0.304687 H 11.711844 V 22.17557 c 0,-0.65625 0.550781,-0.667968 0.808594,-0.667968 0.03516,0.246093 0.222656,0.386718 0.410156,0.386718 0.164062,0 0.398437,-0.117187 0.398437,-0.410156 z m 4.813477,3.808594 c 0,-0.304688 -0.222656,-0.304688 -0.328125,-0.304688 -0.140625,0 -0.316406,0.01172 -0.328125,0.304688 -0.02344,0.421875 -0.375,0.621094 -0.679688,0.621094 -0.667968,0 -0.667968,-0.480469 -0.667968,-0.703125 v -2.039063 h 1.429687 c 0.117188,0 0.375,0 0.375,-0.28125 0,-0.304687 -0.246094,-0.304687 -0.375,-0.304687 h -1.429687 v -0.726563 c 0,-0.164062 0,-0.375 -0.328125,-0.375 -0.328125,0 -0.328125,0.210938 -0.328125,0.386719 v 0.714844 h -0.75 c -0.140625,0 -0.386719,0 -0.386719,0.304687 0,0.28125 0.246094,0.28125 0.375,0.28125 h 0.761719 v 2.074219 c 0,0.9375 0.644531,1.253906 1.277343,1.253906 0.773438,0 1.382813,-0.539062 1.382813,-1.207031 z m 9.755859,-2.25 c 0,-0.351563 -0.351562,-0.351563 -0.480469,-0.351563 h -3.082031 c -0.128906,0 -0.480469,0 -0.480469,0.351563 0,0.328125 0.328125,0.328125 0.421875,0.328125 h 3.199219 c 0.09375,0 0.421875,0 0.421875,-0.328125 z m 0,1.347656 c 0,-0.328125 -0.328125,-0.328125 -0.421875,-0.328125 h -3.199219 c -0.09375,0 -0.421875,0 -0.421875,0.328125 0,0.339844 0.351563,0.339844 0.480469,0.339844 h 3.082031 c 0.128907,0 0.480469,0 0.480469,-0.339844 z m 9.345703,0.492188 c 0,-0.738282 -0.679687,-1.230469 -1.242187,-1.382813 0.515625,-0.152344 1.113281,-0.5625 1.113281,-1.183594 0,-0.726562 -0.75,-1.441406 -1.828125,-1.441406 -1.066406,0 -1.828125,0.714844 -1.828125,1.441406 0,0.621094 0.609375,1.03125 1.125,1.183594 -0.585937,0.164063 -1.242187,0.65625 -1.242187,1.382813 0,0.878906 0.820312,1.664062 1.945312,1.664062 1.136719,0 1.957031,-0.796875 1.957031,-1.664062 z m -0.785156,-2.554688 c 0,0.492188 -0.539062,0.878906 -1.171875,0.878906 -0.621094,0 -1.160156,-0.386718 -1.160156,-0.878906 0,-0.445312 0.480469,-0.867187 1.160156,-0.867187 0.691406,0 1.171875,0.421875 1.171875,0.867187 z m 0.128906,2.542969 c 0,0.597656 -0.574218,1.101562 -1.300781,1.101562 -0.726562,0 -1.289062,-0.503906 -1.289062,-1.101562 0,-0.539063 0.515625,-1.078125 1.289062,-1.078125 0.796875,0 1.300781,0.539062 1.300781,1.078125 z M 4.3700469,34.073031 c 0,-0.164062 -0.1171875,-0.574219 -0.8554688,-0.574219 -0.515625,0 -1.078125,0.222657 -1.5117187,0.703125 v -0.28125 c 0,-0.292968 -0.070313,-0.375 -0.375,-0.375 H 0.63176563 c -0.140625,0 -0.38671875,0 -0.38671875,0.292969 0,0.292969 0.234375,0.292969 0.38671875,0.292969 H 1.3466094 v 2.695312 H 0.63176563 c -0.140625,0 -0.38671875,0 -0.38671875,0.292969 0,0.292969 0.234375,0.292969 0.38671875,0.292969 H 2.9989531 c 0.1289063,0 0.3867188,0 0.3867188,-0.28125 0,-0.304688 -0.2460938,-0.304688 -0.3867188,-0.304688 H 2.0028594 v -1.066406 c 0,-0.902344 0.609375,-1.675781 1.5703125,-1.675781 0.035156,0.328125 0.28125,0.398437 0.3984375,0.398437 0.1992187,0 0.3984375,-0.152343 0.3984375,-0.410156 z m 4.461914,3.058594 c 0,-0.304688 -0.2578125,-0.304688 -0.3867187,-0.304688 h -0.9375 v -2.90625 c 0,-0.292968 -0.070312,-0.375 -0.375,-0.375 H 5.8319609 c -0.140625,0 -0.3867187,0 -0.3867187,0.292969 0,0.292969 0.234375,0.292969 0.3867187,0.292969 h 1.0078125 v 2.695312 H 5.7499297 c -0.1289063,0 -0.375,0 -0.375,0.292969 0,0.292969 0.234375,0.292969 0.375,0.292969 h 2.6953125 c 0.1289062,0 0.3867187,0 0.3867187,-0.28125 z m -1.3125,-4.699219 c 0,-0.257812 -0.1992187,-0.457031 -0.4570312,-0.457031 -0.2460938,0 -0.4570313,0.199219 -0.4570313,0.457031 0,0.246094 0.2109375,0.457031 0.4570313,0.457031 0.2578125,0 0.4570312,-0.210937 0.4570312,-0.457031 z m 6.4541021,1.535156 c 0,-0.234375 -0.1875,-0.515625 -0.667969,-0.515625 -0.210938,0 -0.597656,0.04687 -0.9375,0.316407 -0.246094,-0.164063 -0.550781,-0.269532 -0.867188,-0.269532 -0.84375,0 -1.5,0.65625 -1.5,1.453125 0,0.328125 0.117188,0.609375 0.269532,0.832032 -0.07031,0.140625 -0.164063,0.375 -0.164063,0.609375 0,0.375 0.1875,0.621093 0.199219,0.644531 -0.6093752,0.375 -0.6328127,0.960937 -0.6328127,1.089844 0,0.796875 0.9492187,1.324218 2.0859377,1.324218 1.136719,0 2.097656,-0.527343 2.097656,-1.324218 0,-1.277344 -1.652344,-1.277344 -1.910156,-1.277344 h -0.644531 c -0.07031,0 -0.1875,0 -0.257813,-0.02344 -0.140625,0 -0.175781,0 -0.269531,-0.117187 -0.08203,-0.08203 -0.117188,-0.1875 -0.117188,-0.304688 0,-0.04687 0,-0.152343 0.04687,-0.234375 0.246094,0.140625 0.527344,0.222657 0.796875,0.222657 0.84375,0 1.511719,-0.65625 1.511719,-1.441407 0,-0.292968 -0.08203,-0.539062 -0.234375,-0.773437 0.199219,-0.105469 0.328125,-0.128906 0.457031,-0.140625 0.04687,0.234375 0.246094,0.304687 0.363282,0.304687 0.210937,0 0.375,-0.152343 0.375,-0.375 z m -1.628907,0.984375 c 0,0.480469 -0.386718,0.867188 -0.84375,0.867188 -0.457031,0 -0.84375,-0.386719 -0.84375,-0.867188 0,-0.492187 0.386719,-0.878906 0.84375,-0.878906 0.457032,0 0.84375,0.386719 0.84375,0.878906 z m 0.949219,3.1875 c 0,0.363282 -0.621094,0.738282 -1.535156,0.738282 -0.878906,0 -1.523438,-0.363282 -1.523438,-0.75 0,-0.328125 0.28125,-0.691407 0.738282,-0.738282 h 0.539062 c 0.808594,0 1.78125,0 1.78125,0.75 z m 5.458008,-1.007812 c 0,-0.304688 -0.246094,-0.304688 -0.375,-0.304688 h -0.398438 v -2.027343 c 0,-0.890625 -0.445312,-1.300782 -1.171875,-1.300782 -0.421875,0 -0.832031,0.152344 -1.171875,0.457032 v -1.640625 c 0,-0.304688 -0.08203,-0.375 -0.386718,-0.375 h -0.679688 c -0.117187,0 -0.375,0 -0.375,0.28125 0,0.292968 0.246094,0.292968 0.375,0.292968 h 0.398438 v 4.3125 h -0.398438 c -0.117187,0 -0.375,0 -0.375,0.292969 0,0.292969 0.246094,0.292969 0.375,0.292969 h 1.453125 c 0.128906,0 0.375,0 0.375,-0.28125 0,-0.304688 -0.234375,-0.304688 -0.375,-0.304688 h -0.386719 v -1.546875 c 0,-0.878906 0.679688,-1.195312 1.113282,-1.195312 0.445312,0 0.5625,0.222656 0.5625,0.75 v 1.992187 h -0.28125 c -0.128907,0 -0.386719,0 -0.386719,0.292969 0,0.292969 0.246094,0.292969 0.386719,0.292969 h 1.347656 c 0.117187,0 0.375,0 0.375,-0.28125 z m 4.095703,-0.878906 c 0,-0.304688 -0.222656,-0.304688 -0.328125,-0.304688 -0.140625,0 -0.316406,0.01172 -0.328125,0.304688 -0.02344,0.421875 -0.375,0.621093 -0.679688,0.621093 -0.667968,0 -0.667968,-0.480468 -0.667968,-0.703125 v -2.039062 h 1.429687 c 0.117188,0 0.375,0 0.375,-0.28125 0,-0.304688 -0.246094,-0.304688 -0.375,-0.304688 H 20.84368 v -0.726562 c 0,-0.164063 0,-0.375 -0.328125,-0.375 -0.328125,0 -0.328125,0.210937 -0.328125,0.386719 v 0.714843 h -0.75 c -0.140625,0 -0.386719,0 -0.386719,0.304688 0,0.28125 0.246094,0.28125 0.375,0.28125 h 0.761719 v 2.074219 c 0,0.9375 0.644531,1.253906 1.277343,1.253906 0.773438,0 1.382813,-0.539063 1.382813,-1.207031 z m 9.758789,-2.25 c 0,-0.351563 -0.351562,-0.351563 -0.480469,-0.351563 h -3.082031 c -0.128906,0 -0.480469,0 -0.480469,0.351563 0,0.328125 0.328125,0.328125 0.421875,0.328125 H 32.1845 c 0.09375,0 0.421875,0 0.421875,-0.328125 z m 0,1.347656 c 0,-0.328125 -0.328125,-0.328125 -0.421875,-0.328125 h -3.199219 c -0.09375,0 -0.421875,0 -0.421875,0.328125 0,0.339844 0.351563,0.339844 0.480469,0.339844 h 3.082031 c 0.128907,0 0.480469,0 0.480469,-0.339844 z m 9.029297,1.78125 c 0,-0.304688 -0.222656,-0.304688 -0.375,-0.304688 H 40.463797 V 32.20975 c 0,-0.128906 0,-0.375 -0.28125,-0.375 -0.152344,0 -0.222656,0.08203 -0.28125,0.199219 -0.28125,0.632812 -0.632813,0.867187 -0.996094,0.902343 -0.128906,0 -0.328125,0.02344 -0.328125,0.292969 0,0.175781 0.09375,0.28125 0.316406,0.28125 0.351563,0 0.703125,-0.1875 0.914063,-0.363281 v 3.679687 h -0.796875 c -0.152344,0 -0.386719,0 -0.386719,0.304688 0,0.28125 0.246094,0.28125 0.386719,0.28125 h 2.25 c 0.140625,0 0.375,0 0.375,-0.28125 z M 46.622,34.682406 c 0,-1.675781 -0.914062,-2.847656 -1.921875,-2.847656 -1.007812,0 -1.910156,1.207031 -1.910156,2.835937 0,1.664063 0.914062,2.835938 1.910156,2.835938 1.019531,0 1.921875,-1.195313 1.921875,-2.824219 z m -0.65625,-0.105469 c 0,1.300782 -0.5625,2.355469 -1.265625,2.355469 -0.691406,0 -1.253906,-1.066406 -1.253906,-2.355469 0,-1.300781 0.609375,-2.15625 1.253906,-2.15625 0.65625,0 1.265625,0.867188 1.265625,2.15625 z m 0,0"
         style="fill:#000000;fill-opacity:1;fill-rule:nonzero;stroke:none" />
      <path
         id="path36"
         d="m 0.77239063,45.176547 v 5.238281 H 4.4872344 v -5.238281 z m 2.98828127,0.585937 v 4.042969 H 1.4989531 v -4.042969 z m 2.1679687,-1.40625 v 8.121094 h 0.75 V 48.223422 H 8.0028594 V 47.602328 H 6.6786406 v -3.246094 z m 8.6601564,0 v 8.121094 h 0.738281 v -8.121094 z m -5.6367189,0.832032 v 0.621093 h 1.8867189 v 1.019532 c 0,1.40625 -0.9726564,2.941406 -2.1445314,3.492187 l 0.4335938,0.597656 c 0.9257816,-0.46875 1.7343746,-1.488281 2.0976566,-2.671875 0.375,1.101563 1.171875,2.027344 2.121093,2.472657 l 0.410157,-0.597657 c -1.195313,-0.515625 -2.167969,-1.910156 -2.167969,-3.292968 v -1.019532 h 1.898437 v -0.621093 z m 8.3320309,-0.222657 v 3.597657 h 3.726563 v -3.597657 z m 3,0.597657 v 2.402343 h -2.273437 v -2.402343 z m -2.320312,4.03125 v 0.597656 h 4.535156 v 2.285156 h 0.738281 v -2.882812 z m 4.535156,-5.238282 v 4.804688 h 0.738281 v -2.074219 h 1.195313 v -0.621094 h -1.195313 v -2.109375 z m 8.868164,0 v 8.121094 h 0.726563 v -8.121094 z m -4.347656,1.371094 c 0.644531,0 1.042969,0.820313 1.042969,2.132813 0,1.3125 -0.398438,2.132812 -1.042969,2.132812 -0.632813,0 -1.03125,-0.820312 -1.03125,-2.132812 0,-1.3125 0.398437,-2.132813 1.03125,-2.132813 z m 0,-0.691406 c -1.042969,0 -1.722656,1.089844 -1.722656,2.824219 0,1.734375 0.679687,2.824218 1.722656,2.824218 0.996094,0 1.664062,-0.972656 1.722656,-2.554687 h 1.019531 v 3.925781 h 0.703125 v -7.523437 h -0.703125 v 2.988281 h -1.019531 c -0.08203,-1.535156 -0.738281,-2.484375 -1.722656,-2.484375 z m 0,0"
         style="fill:#000000;fill-opacity:1;fill-rule:nonzero;stroke:none" />
      <path
         id="path37"
         d="m 38.987234,51.492953 c 0,-0.304687 -0.222656,-0.304687 -0.375,-0.304687 h -0.796875 v -4.617188 c 0,-0.128906 0,-0.375 -0.28125,-0.375 -0.152343,0 -0.222656,0.08203 -0.28125,0.199219 -0.28125,0.632812 -0.632812,0.867187 -0.996093,0.902344 -0.128907,0 -0.328125,0.02344 -0.328125,0.292968 0,0.175782 0.09375,0.28125 0.316406,0.28125 0.351562,0 0.703125,-0.1875 0.914062,-0.363281 v 3.679688 h -0.796875 c -0.152343,0 -0.386718,0 -0.386718,0.304687 0,0.28125 0.246093,0.28125 0.386718,0.28125 h 2.25 c 0.140625,0 0.375,0 0.375,-0.28125 z m 4.989258,-2.449219 c 0,-1.675781 -0.914062,-2.847656 -1.921875,-2.847656 -1.007812,0 -1.910156,1.207031 -1.910156,2.835938 0,1.664062 0.914062,2.835937 1.910156,2.835937 1.019531,0 1.921875,-1.195312 1.921875,-2.824219 z m -0.65625,-0.105468 c 0,1.300781 -0.5625,2.355468 -1.265625,2.355468 -0.691406,0 -1.253906,-1.066406 -1.253906,-2.355468 0,-1.300782 0.609375,-2.15625 1.253906,-2.15625 0.65625,0 1.265625,0.867187 1.265625,2.15625 z m 10.001953,0.105468 c 0,-0.339843 -0.328125,-0.339843 -0.433593,-0.339843 h -2.824219 c -0.09375,0 -0.433594,0 -0.433594,0.328125 0,0.339843 0.328125,0.339843 0.433594,0.339843 h 2.824219 c 0.09375,0 0.433593,0 0.433593,-0.328125 z m 9.518555,1.160157 c 0,-0.738282 -0.679687,-1.230469 -1.242187,-1.382813 0.515625,-0.152344 1.113281,-0.5625 1.113281,-1.183594 0,-0.726562 -0.75,-1.441406 -1.828125,-1.441406 -1.066406,0 -1.828125,0.714844 -1.828125,1.441406 0,0.621094 0.609375,1.03125 1.125,1.183594 -0.585938,0.164063 -1.242188,0.65625 -1.242188,1.382813 0,0.878906 0.820313,1.664062 1.945313,1.664062 1.136719,0 1.957031,-0.796875 1.957031,-1.664062 z m -0.785156,-2.554688 c 0,0.492188 -0.539063,0.878906 -1.171875,0.878906 -0.621094,0 -1.160156,-0.386718 -1.160156,-0.878906 0,-0.445312 0.480468,-0.867187 1.160156,-0.867187 0.691406,0 1.171875,0.421875 1.171875,0.867187 z m 0.128906,2.542969 c 0,0.597656 -0.574219,1.101562 -1.300781,1.101562 -0.726563,0 -1.289063,-0.503906 -1.289063,-1.101562 0,-0.539063 0.515625,-1.078125 1.289063,-1.078125 0.796875,0 1.300781,0.539062 1.300781,1.078125 z m 0,0"
         style="fill:#000000;fill-opacity:1;fill-rule:nonzero;stroke:none" />
      <path
         id="path38"
         d="m 65.079031,45.012484 v 3.738282 H 67.4345 v 2.085937 h -3.292969 v 0.609375 h 7.359375 v -0.609375 h -3.328125 v -2.085937 h 2.472657 v -0.597657 h -4.828125 v -2.53125 h 4.746093 v -0.609375 z m 9.720703,0.117188 v 5.355469 h 0.609375 c 1.546875,0 2.519532,-0.05859 3.703125,-0.28125 l -0.09375,-0.609375 c -1.089843,0.210937 -2.039062,0.257812 -3.480468,0.257812 v -4.101562 h 2.941406 v -0.621094 z m 3.210938,2.167969 v 0.621093 h 2.320312 v 4.558594 h 0.738282 v -8.121094 h -0.738282 v 2.941407 z m 7.042969,-0.902344 c -1.160157,0 -1.945313,0.597656 -1.945313,1.511719 0,0.914062 0.785156,1.511718 1.945313,1.511718 1.148437,0 1.933593,-0.597656 1.933593,-1.511718 0,-0.914063 -0.785156,-1.511719 -1.933593,-1.511719 z m 0,0.585937 c 0.738281,0 1.230468,0.363282 1.230468,0.925782 0,0.5625 -0.492187,0.925781 -1.230468,0.925781 -0.738282,0 -1.230469,-0.363281 -1.230469,-0.925781 0,-0.5625 0.492187,-0.925782 1.230469,-0.925782 z m 3.140625,-2.613281 v 6.082031 h 0.738281 v -2.800781 h 1.195312 v -0.621094 h -1.195312 v -2.660156 z m -3.503907,0 v 0.984375 h -2.027343 v 0.609375 h 4.78125 v -0.609375 h -2.015625 v -0.984375 z m -0.796875,5.589844 v 2.332031 h 5.402344 v -0.609375 h -4.675781 v -1.722656 z m 12.480469,-5.601563 v 8.121094 h 0.75 v -4.300781 h 1.324219 v -0.621094 h -1.324219 v -3.199219 z m -5.132812,0.796875 v 5.308594 h 0.632812 c 1.523438,0 2.589844,-0.04687 3.84375,-0.269531 l -0.09375,-0.644531 c -1.183594,0.222656 -2.214844,0.28125 -3.644531,0.28125 v -4.066407 h 3.023437 v -0.609375 z m 8.695312,6.738282 c 0.328127,0 0.597657,-0.246094 0.597657,-0.621094 0,-0.375 -0.26953,-0.621094 -0.597657,-0.621094 -0.328125,0 -0.585937,0.246094 -0.585937,0.621094 0,0.375 0.257812,0.621094 0.585937,0.621094 z m 0,0"
         style="fill:#000000;fill-opacity:1;fill-rule:nonzero;stroke:none" />
      <path
         id="path39"
         d="m 6.1161406,55.231234 v 2.144532 H 4.8153594 v 0.949218 h 1.3007812 v 2.953125 h 1.1953125 v -6.046875 z m -4.2890625,5.53125 v 2.625 h 5.671875 V 62.426547 H 3.0223906 V 60.762484 Z M 0.64348438,55.782016 v 0.949218 H 2.2841094 v 0.105469 c 0,1.054688 -0.5976563,2.132813 -1.95703127,2.589844 l 0.5859375,0.949219 C 1.8856719,60.047641 2.5419219,59.391391 2.9052031,58.559359 c 0.3515625,0.75 0.9609375,1.347657 1.8867188,1.640625 l 0.5742187,-0.925781 c -1.3007812,-0.445312 -1.875,-1.464844 -1.875,-2.4375 v -0.105469 h 1.6171875 v -0.949218 z m 13.95703162,-0.5625 v 8.296875 h 1.148437 v -8.296875 z m -1.675782,0.128906 v 3.011719 h -0.925781 v 0.972656 h 0.925781 v 3.808594 h 1.113282 v -7.792969 z m -2.859375,0.152344 v 1.113281 H 8.7645781 v 0.960937 h 1.3007809 v 0.175782 c 0,1.265625 -0.4218746,2.636718 -1.6054684,3.316406 l 0.6679688,0.902344 c 0.7382812,-0.433594 1.2304686,-1.160157 1.5117186,-2.027344 0.292969,0.785156 0.785156,1.441406 1.511719,1.828125 l 0.644531,-0.890625 c -1.171875,-0.621094 -1.59375,-1.886719 -1.59375,-3.128906 v -0.175782 h 1.265625 v -0.960937 h -1.265625 v -1.113281 z m 14.528321,-0.28125 v 4.171875 h 1.195312 v -4.171875 z m -5.144532,0.316406 v 0.9375 h 2.519532 c -0.105469,0.972656 -0.914063,1.769531 -2.964844,2.132812 l 0.410156,0.960938 c 2.636719,-0.539063 3.878906,-1.769531 3.878906,-4.03125 z m 0.808594,6.984375 v 0.925781 h 5.730469 v -0.925781 h -4.535156 v -0.527344 h 4.335937 v -2.261719 h -5.53125 v 0.914063 h 4.324219 v 0.480469 h -4.324219 z m 12.574219,-7.3125 v 8.332031 h 1.195312 v -8.332031 z m -3.28125,0.585937 c -1.253906,0 -2.179688,1.148438 -2.179688,2.964844 0,1.816406 0.925782,2.976563 2.179688,2.976563 1.265625,0 2.191406,-1.160157 2.191406,-2.976563 0,-1.816406 -0.925781,-2.964844 -2.191406,-2.964844 z m 0,1.078125 c 0.621094,0 1.042969,0.65625 1.042969,1.886719 0,1.242188 -0.421875,1.898438 -1.042969,1.898438 -0.621094,0 -1.03125,-0.65625 -1.03125,-1.898438 0,-1.230469 0.410156,-1.886719 1.03125,-1.886719 z m 0,0"
         style="fill:#000000;fill-opacity:1;fill-rule:nonzero;stroke:none" />
      <path
         id="path40"
         d="m 36.722586,59.239047 c 0.328125,0 0.597656,-0.257813 0.597656,-0.632813 0,-0.363281 -0.269531,-0.621093 -0.597656,-0.621093 -0.328125,0 -0.585938,0.257812 -0.585938,0.621093 0,0.375 0.257813,0.632813 0.585938,0.632813 z m 0,3.609375 c 0.328125,0 0.597656,-0.246094 0.597656,-0.621094 0,-0.375 -0.269531,-0.621094 -0.597656,-0.621094 -0.328125,0 -0.585938,0.246094 -0.585938,0.621094 0,0.375 0.257813,0.621094 0.585938,0.621094 z m 0,0"
         style="fill:#000000;fill-opacity:1;fill-rule:nonzero;stroke:none" />
      <path
         id="path41"
         d="m 44.952078,61.160922 c 0,-0.738281 -0.679687,-1.230469 -1.242187,-1.382813 0.515625,-0.152343 1.113281,-0.5625 1.113281,-1.183593 0,-0.726563 -0.75,-1.441407 -1.828125,-1.441407 -1.066406,0 -1.828125,0.714844 -1.828125,1.441407 0,0.621093 0.609375,1.03125 1.125,1.183593 -0.585938,0.164063 -1.242188,0.65625 -1.242188,1.382813 0,0.878906 0.820313,1.664062 1.945313,1.664062 1.136719,0 1.957031,-0.796875 1.957031,-1.664062 z m -0.785156,-2.554688 c 0,0.492188 -0.539063,0.878907 -1.171875,0.878907 -0.621094,0 -1.160156,-0.386719 -1.160156,-0.878907 0,-0.445312 0.480468,-0.867187 1.160156,-0.867187 0.691406,0 1.171875,0.421875 1.171875,0.867187 z m 0.128906,2.542969 c 0,0.597656 -0.574219,1.101563 -1.300781,1.101563 -0.726563,0 -1.289063,-0.503907 -1.289063,-1.101563 0,-0.539062 0.515625,-1.078125 1.289063,-1.078125 0.796875,0 1.300781,0.539063 1.300781,1.078125 z m 0,0"
         style="fill:#000000;fill-opacity:1;fill-rule:nonzero;stroke:none" />
    </g>
  </g>
</svg>
