<?xml version="1.0" encoding="UTF-8" standalone="no"?>
<!-- Created with Inkscape (http://www.inkscape.org/) -->

<svg
   version="1.1"
   id="svg1"
   width="541.84003"
   height="175.38667"
   viewBox="0 0 541.84003 175.38667"
   sodipodi:docname="1.pdf"
   xmlns:inkscape="http://www.inkscape.org/namespaces/inkscape"
   xmlns:sodipodi="http://sodipodi.sourceforge.net/DTD/sodipodi-0.dtd"
   xmlns="http://www.w3.org/2000/svg"
   xmlns:svg="http://www.w3.org/2000/svg">
  <defs
     id="defs1" />
  <sodipodi:namedview
     id="namedview1"
     pagecolor="#ffffff"
     bordercolor="#000000"
     borderopacity="0.25"
     inkscape:showpageshadow="2"
     inkscape:pageopacity="0.0"
     inkscape:pagecheckerboard="0"
     inkscape:deskcolor="#d1d1d1">
    <inkscape:page
       x="0"
       y="0"
       inkscape:label="1"
       id="page1"
       width="541.84003"
       height="175.38667"
       margin="0"
       bleed="0" />
  </sodipodi:namedview>
  <g
     id="g1"
     inkscape:groupmode="layer"
     inkscape:label="1">
    <path
       id="path1"
       d="M 85.04042,89.29227 36.85092,46.77203"
       style="fill:none;stroke:#858585;stroke-width:0.54794;stroke-linecap:butt;stroke-linejoin:miter;stroke-miterlimit:10;stroke-dasharray:none;stroke-opacity:1"
       transform="matrix(1.3333333,0,0,-1.3333333,-19.244,149.276)" />
    <path
       id="path2"
       d="M 85.04042,89.29227 133.2299,46.77203"
       style="fill:none;stroke:#858585;stroke-width:0.54794;stroke-linecap:butt;stroke-linejoin:miter;stroke-miterlimit:10;stroke-dasharray:none;stroke-opacity:1"
       transform="matrix(1.3333333,0,0,-1.3333333,-19.244,149.276)" />
    <path
       id="path3"
       d="M 36.85092,46.77203 85.04042,2.83484"
       style="fill:none;stroke:#858585;stroke-width:0.54794;stroke-linecap:butt;stroke-linejoin:miter;stroke-miterlimit:10;stroke-dasharray:none;stroke-opacity:1"
       transform="matrix(1.3333333,0,0,-1.3333333,-19.244,149.276)" />
    <path
       id="path4"
       d="M 133.2299,46.77203 85.04042,2.83484"
       style="fill:none;stroke:#858585;stroke-width:0.54794;stroke-linecap:butt;stroke-linejoin:miter;stroke-miterlimit:10;stroke-dasharray:none;stroke-opacity:1"
       transform="matrix(1.3333333,0,0,-1.3333333,-19.244,149.276)" />
    <path
       id="path5"
       d="M 85.04042,89.29227 H 188.50609"
       style="fill:none;stroke:#858585;stroke-width:0.54794;stroke-linecap:butt;stroke-linejoin:miter;stroke-miterlimit:10;stroke-dasharray:none;stroke-opacity:1"
       transform="matrix(1.3333333,0,0,-1.3333333,-19.244,149.276)" />
    <path
       id="path6"
       d="m 99.21382,89.29227 c 0,7.82785 -6.34555,14.1734 -14.1734,14.1734 -7.82785,0 -14.1734,-6.34555 -14.1734,-14.1734 0,-7.82785 6.34555,-14.1734 14.1734,-14.1734 7.82785,0 14.1734,6.34555 14.1734,14.1734 z"
       style="fill:#c2c2c2;fill-opacity:1;fill-rule:nonzero;stroke:#000000;stroke-width:1.04608;stroke-linecap:butt;stroke-linejoin:miter;stroke-miterlimit:10;stroke-dasharray:none;stroke-opacity:1"
       transform="matrix(1.3333333,0,0,-1.3333333,-19.244,149.276)" />
    <path
       id="path7"
       d="M 0.78432031,-6.484375e-4 H 4.3936953 V -0.68033594 H 3.0694766 V -6.3873672 H 2.4483828 c -0.3632812,0.2109375 -0.7851562,0.3632813 -1.359375,0.46875 v 0.515625 h 1.171875 v 4.72265626 H 0.78432031 Z m 0,0"
       style="fill:#000000;fill-opacity:1;fill-rule:nonzero;stroke:none"
       aria-label="1"
       transform="matrix(1.3333333,0,0,1.3333333,90.825333,34.481333)" />
    <path
       id="path8"
       d="m 51.02432,46.77203 c 0,7.82785 -6.34555,14.1734 -14.1734,14.1734 -7.82785,0 -14.17338,-6.34555 -14.17338,-14.1734 0,-7.82783 6.34553,-14.17338 14.17338,-14.17338 7.82785,0 14.1734,6.34555 14.1734,14.17338 z"
       style="fill:#ffffff;fill-opacity:1;fill-rule:nonzero;stroke:#666666;stroke-width:0.54794;stroke-linecap:butt;stroke-linejoin:miter;stroke-miterlimit:10;stroke-dasharray:none;stroke-opacity:1"
       transform="matrix(1.3333333,0,0,-1.3333333,-19.244,149.276)" />
    <path
       id="path9"
       d="M 0.39910156,4.296875e-4 H 4.5241016 V -0.70269531 H 2.6725391 c -0.328125,0 -0.7382813,0.0351563 -1.078125,0.0585938 1.5117187,-1.58203129 2.625,-2.78906259 2.625,-3.99609369 0,-1.125 -0.75,-1.8632813 -1.921875,-1.8632813 -0.8320313,0 -1.40625004,0.375 -1.93359379,0.9609375 l 0.46875,0.4570313 c 0.37499999,-0.421875 0.83203129,-0.7617188 1.35937499,-0.7617188 0.8203125,0 1.21875,0.5273438 1.21875,1.2539063 0,1.0429687 -1.0898437,2.1914062 -3.01171874,4.11328119 z m 0,0"
       style="fill:#000000;fill-opacity:1;fill-rule:nonzero;stroke:none"
       aria-label="2"
       transform="matrix(1.3333333,0,0,1.3333333,26.573333,91.253333)" />
    <path
       id="path10"
       d="m 147.4033,46.77203 c 0,7.82785 -6.34555,14.1734 -14.1734,14.1734 -7.82785,0 -14.1734,-6.34555 -14.1734,-14.1734 0,-7.82783 6.34555,-14.17338 14.1734,-14.17338 7.82785,0 14.1734,6.34555 14.1734,14.17338 z"
       style="fill:#ffffff;fill-opacity:1;fill-rule:nonzero;stroke:#666666;stroke-width:0.54794;stroke-linecap:butt;stroke-linejoin:miter;stroke-miterlimit:10;stroke-dasharray:none;stroke-opacity:1"
       transform="matrix(1.3333333,0,0,-1.3333333,-19.244,149.276)" />
    <path
       id="path11"
       d="m 2.3550625,0.11702344 c 1.171875,0 2.1210938,-0.6796875 2.1210938,-1.81640624 0,-0.8789063 -0.6210938,-1.453125 -1.3945313,-1.640625 v -0.035156 C 3.7730313,-3.6212578 4.2535,-4.1134453 4.2535,-4.8986016 c 0,-1.0195312 -0.8085937,-1.6054687 -1.921875,-1.6054687 -0.75,0 -1.3359375,0.3398437 -1.828125,0.796875 l 0.43359375,0.515625 c 0.37500005,-0.3867188 0.83203125,-0.65625 1.37109375,-0.65625 0.6914063,0 1.1015625,0.3984375 1.1015625,1.0195312 0,0.6679688 -0.4570312,1.1835938 -1.8164062,1.1835938 v 0.6445312 c 1.5234375,0 2.0507812,0.5039063 2.0507812,1.265625 0,0.7265625 -0.5507812,1.17187504 -1.3359375,1.17187504 -0.75,0 -1.2421875,-0.36328125 -1.62890625,-0.75000004 l -0.421875,0.52734379 C 0.691,-0.31657031 1.3355313,0.11702344 2.3550625,0.11702344 Z m 0,0"
       style="fill:#000000;fill-opacity:1;fill-rule:nonzero;stroke:none"
       aria-label="3"
       transform="matrix(1.3333333,0,0,1.3333333,155.07867,91.176)" />
    <path
       id="path12"
       d="m 99.21382,2.83484 c 0,7.82785 -6.34555,14.1734 -14.1734,14.1734 -7.82785,0 -14.1734,-6.34555 -14.1734,-14.1734 0,-7.82784 6.34555,-14.17339 14.1734,-14.17339 7.82785,0 14.1734,6.34555 14.1734,14.17339 z"
       style="fill:#ffffff;fill-opacity:1;fill-rule:nonzero;stroke:#666666;stroke-width:0.54794;stroke-linecap:butt;stroke-linejoin:miter;stroke-miterlimit:10;stroke-dasharray:none;stroke-opacity:1"
       transform="matrix(1.3333333,0,0,-1.3333333,-19.244,149.276)" />
    <path
       id="path13"
       d="M 3.0460391,-6.40625e-4 H 3.8194766 V -1.7701719 h 0.8789062 v -0.65625 H 3.8194766 V -6.3873594 H 2.9171328 l -2.74218749,4.078125 v 0.5390625 H 3.0460391 Z m 0,-2.425781275 h -2.015625 l 1.5,-2.1796875 c 0.1875,-0.328125 0.3632812,-0.5976562 0.5273437,-0.9023437 h 0.035156 c -0.023437,0.328125 -0.046875,0.890625 -0.046875,1.21875 z m 0,0"
       style="fill:#000000;fill-opacity:1;fill-rule:nonzero;stroke:none"
       aria-label="4"
       transform="matrix(1.3333333,0,0,1.3333333,90.825333,149.75867)" />
    <path
       id="path14"
       d="m 202.67949,89.29227 c 0,7.82785 -6.34555,14.1734 -14.1734,14.1734 -7.82785,0 -14.1734,-6.34555 -14.1734,-14.1734 0,-7.82785 6.34555,-14.1734 14.1734,-14.1734 7.82785,0 14.1734,6.34555 14.1734,14.1734 z"
       style="fill:#ffffff;fill-opacity:1;fill-rule:nonzero;stroke:#666666;stroke-width:0.54794;stroke-linecap:butt;stroke-linejoin:miter;stroke-miterlimit:10;stroke-dasharray:none;stroke-opacity:1"
       transform="matrix(1.3333333,0,0,-1.3333333,-19.244,149.276)" />
    <path
       id="path15"
       d="m 2.3446875,0.11594531 c 1.1132812,0 2.15625,-0.78515625 2.15625,-2.15625001 0,-1.3828125 -0.890625,-2.0039062 -1.9804688,-2.0039062 -0.3984375,0 -0.6914062,0.09375 -0.984375,0.2578125 l 0.1640625,-1.8984375 h 2.4726563 v -0.703125 h -3.1875 l -0.2109375,3.0703125 0.4335937,0.28125 c 0.375,-0.2578125 0.65625,-0.3984375 1.1015625,-0.3984375 0.8203125,0 1.359375,0.5273437 1.359375,1.4179687 0,0.890625 -0.6210937,1.45312501 -1.3945312,1.45312501 -0.7617188,0 -1.2539063,-0.3515625 -1.6171875,-0.72656251 l -0.41015625,0.53906251 c 0.4453125,0.43359375 1.06640625,0.8671875 2.09765625,0.8671875 z m 0,0"
       style="fill:#000000;fill-opacity:1;fill-rule:nonzero;stroke:none"
       aria-label="5"
       transform="matrix(1.3333333,0,0,1.3333333,228.78,34.404)" />
    <path
       id="path16"
       d="M 410.65292,92.69392 H 230.3837 c -1.10048,0 -1.99256,-0.89209 -1.99256,-1.99255 V 1.14198 c 0,-1.10048 0.89208,-1.99254 1.99256,-1.99254 h 180.26922 c 1.10047,0 1.99256,0.89206 1.99256,1.99254 v 89.55939 c 0,1.10046 -0.89209,1.99255 -1.99256,1.99255 z"
       style="fill:#fcfcfc;fill-opacity:1;fill-rule:nonzero;stroke:#c7c7c7;stroke-width:0.3985;stroke-linecap:butt;stroke-linejoin:miter;stroke-miterlimit:10;stroke-dasharray:none;stroke-opacity:1"
       transform="matrix(1.3333333,0,0,-1.3333333,-19.244,149.276)" />
    <g
       id="g16"
       aria-label="시작정점:1번&#10;1번정점을방문한다.&#10;방문순서:1"
       transform="matrix(1.3333333,0,0,1.3333333,356.16133,72.622667)">
      <path
         id="path17"
         d="M 6.0577109,-7.5246172 V 0.80741406 H 7.2530234 V -7.5246172 Z m -3.6796875,0.65625 v 1.2070313 c 0,1.6054687 -0.6796875,3.2109375 -2.12109371,3.84375 l 0.71484375,0.98437496 C 1.9678672,-1.3019609 2.6358359,-2.1925859 2.9991172,-3.2941484 c 0.375,1.0195312 1.0195312,1.828125 1.96875,2.2617187 L 5.6592734,-2.0050859 C 4.2413047,-2.6027422 3.5850547,-4.1261797 3.5850547,-5.6613359 v -1.2070313 z m 7.2304688,4.7226563 v 0.9492187 h 4.3476558 v 1.99218751 h 1.183594 V -2.1457109 Z m -0.8085938,-4.875 v 0.9492187 h 1.6640626 c -0.02344,1.0195313 -0.6328126,2.0625 -1.9687501,2.5078125 l 0.609375,0.9140625 c 0.9609371,-0.3046875 1.6054691,-0.9492187 1.9804691,-1.7578125 0.363281,0.7382813 0.984375,1.3242188 1.886718,1.6171875 l 0.597657,-0.9257812 c -1.300782,-0.421875 -1.875,-1.40625 -1.910157,-2.3554688 h 1.640625 v -0.9492187 z m 5.1562496,-0.4804688 v 4.9921875 h 1.183594 v -2.015625 h 1.101563 v -0.984375 h -1.101563 v -1.9921875 z m 9.067383,5.109375 c -1.757812,0 -2.835937,0.5976563 -2.835937,1.59375001 0,1.01953125 1.078125,1.60546875 2.835937,1.60546875 1.757813,0 2.847657,-0.5859375 2.847657,-1.60546875 0,-0.99609371 -1.089844,-1.59375001 -2.847657,-1.59375001 z m 0,0.9023438 c 1.078125,0 1.652344,0.2226562 1.652344,0.69140621 0,0.46875 -0.574219,0.703125 -1.652344,0.703125 -1.089843,0 -1.652343,-0.234375 -1.652343,-0.703125 0,-0.46875001 0.5625,-0.69140621 1.652343,-0.69140621 z m 1.617188,-6.0117188 v 1.9921875 h -1.253906 v 0.9726563 h 1.253906 v 1.9570312 h 1.195312 v -4.921875 z m -5.472656,0.5039063 v 0.9375 h 1.640625 c -0.03516,1.0429687 -0.621094,2.0859375 -1.957032,2.5429687 l 0.597657,0.9375 c 0.972656,-0.328125 1.628906,-0.9960937 1.992187,-1.828125 0.351563,0.7265625 0.960938,1.3242188 1.875,1.6171875 l 0.574219,-0.9257812 c -1.265625,-0.421875 -1.839844,-1.3945313 -1.875,-2.34375 h 1.617187 v -0.9375 z m 9.375,4.6171875 v 3.08203121 h 5.542968 V -2.3800859 Z m 4.371093,0.9375 v 1.20703121 h -3.1875 V -1.4425859 Z m -0.02344,-6.0585938 v 1.8984375 H 31.63681 v 0.9609375 h 1.253906 v 1.9335938 h 1.195312 v -4.7929688 z m -5.472656,0.4101563 v 0.9492187 h 1.640625 c -0.02344,1.0195313 -0.621094,2.0625 -1.957032,2.5078125 l 0.585938,0.9492188 c 0.972656,-0.328125 1.628906,-0.9960938 1.992187,-1.8046875 0.351563,0.7382812 0.972657,1.3359375 1.886719,1.640625 l 0.574219,-0.9375 c -1.265625,-0.4335938 -1.839844,-1.40625 -1.875,-2.3554688 h 1.617187 v -0.9492187 z m 0,0"
         style="fill:#000000;fill-opacity:1;fill-rule:nonzero;stroke:none" />
      <path
         id="path18"
         d="m 36.72275,-3.4933672 c 0.328125,0 0.597656,-0.2578125 0.597656,-0.6328125 0,-0.3632812 -0.269531,-0.6210937 -0.597656,-0.6210937 -0.328125,0 -0.585937,0.2578125 -0.585937,0.6210937 0,0.375 0.257812,0.6328125 0.585937,0.6328125 z m 0,3.60937501 c 0.328125,0 0.597656,-0.24609375 0.597656,-0.62109375 0,-0.375 -0.269531,-0.62109376 -0.597656,-0.62109376 -0.328125,0 -0.585937,0.24609376 -0.585937,0.62109376 0,0.375 0.257812,0.62109375 0.585937,0.62109375 z m 4.708008,-0.1171875 h 3.609375 v -0.6796875 H 43.715914 V -6.3878984 H 43.09482 c -0.363281,0.2109375 -0.785156,0.3632812 -1.359375,0.46875 v 0.515625 h 1.171875 v 4.72265621 h -1.476562 z m 6.219726,-4.86328121 h 2.191407 v 1.4765625 h -2.191407 z m -0.738281,-2.0039063 v 4.078125 h 3.667969 v -1.734375 h 1.863281 v 3.1171875 h 0.738281 v -6 h -0.738281 v 2.2734375 h -1.863281 v -1.734375 h -0.738281 v 1.4296875 h -2.191407 v -1.4296875 z m 1.066406,4.875 v 2.50781251 h 5.390625 v -0.609375 H 48.716891 V -1.9933672 Z M 0.78427344,14.925578 H 4.3936484 V 14.245891 H 3.0694297 V 8.5388594 H 2.4483359 c -0.3632812,0.2109375 -0.7851562,0.3632812 -1.359375,0.46875 v 0.515625 h 1.171875 V 14.245891 H 0.78427344 Z M 6.9981406,10.062297 h 2.1914063 v 1.476562 H 6.9981406 Z M 6.2598594,8.0583906 v 4.0781254 h 3.6679687 v -1.734375 h 1.8632809 v 3.117187 h 0.738282 V 7.5193281 H 11.791109 V 9.7927656 H 9.9278281 V 8.0583906 H 9.1895469 V 9.4880781 H 6.9981406 V 8.0583906 Z m 1.0664062,4.8750004 v 2.507812 H 12.716891 V 14.831828 H 8.0645469 V 12.933391 Z M 20.114352,12.593547 c -1.675782,0 -2.695313,0.5625 -2.695313,1.511719 0,0.949218 1.019531,1.511718 2.695313,1.511718 1.675781,0 2.707031,-0.5625 2.707031,-1.511718 0,-0.949219 -1.03125,-1.511719 -2.707031,-1.511719 z m 0,0.585937 c 1.21875,0 1.96875,0.339844 1.96875,0.925782 0,0.585937 -0.75,0.925781 -1.96875,0.925781 -1.21875,0 -1.957032,-0.339844 -1.957032,-0.925781 0,-0.585938 0.738282,-0.925782 1.957032,-0.925782 z m 1.933593,-5.6718746 v 2.109375 h -1.59375 v 0.6210936 h 1.59375 v 2.109375 h 0.738282 V 7.5076094 Z M 16.37607,8.1052656 v 0.609375 h 1.804688 v 0.28125 c 0,1.1484374 -0.820313,2.2500004 -2.027344,2.6835934 l 0.375,0.597657 c 0.960938,-0.375 1.699219,-1.113282 2.050781,-2.0625 0.351563,0.832031 1.042969,1.5 1.945313,1.828125 l 0.375,-0.585938 c -1.171875,-0.410156 -1.96875,-1.429687 -1.96875,-2.4726561 V 8.7146406 h 1.78125 v -0.609375 z m 9.398438,4.5468754 v 2.859375 h 5.261719 v -2.859375 z m 4.535156,0.597656 v 1.652344 h -3.796875 v -1.652344 z m -0.01172,-5.7421876 v 2.0273437 h -1.605468 v 0.6210939 h 1.605468 v 2.097656 h 0.738282 V 7.5076094 Z M 24.62607,8.0349531 v 0.609375 h 1.804688 v 0.2929688 c 0,1.1484371 -0.832031,2.2265621 -2.027344,2.6484371 l 0.375,0.597657 c 0.960938,-0.351563 1.699219,-1.089844 2.039063,-2.015625 0.351562,0.832031 1.054687,1.5 1.957031,1.839843 l 0.375,-0.597656 C 27.977633,10.988078 27.180758,9.9802656 27.180758,8.9372969 V 8.6443281 h 1.78125 v -0.609375 z m 11.645508,-0.375 c -1.792969,0 -2.847656,0.4921875 -2.847656,1.3945313 0,0.9023437 1.054687,1.4062496 2.847656,1.4062496 1.792969,0 2.859375,-0.5039059 2.859375,-1.4062496 0,-0.9023438 -1.066406,-1.3945313 -2.859375,-1.3945313 z m 0,0.5507813 c 1.335938,0 2.097656,0.3164062 2.097656,0.84375 0,0.5507812 -0.761718,0.84375 -2.097656,0.84375 -1.3125,0 -2.074219,-0.2929688 -2.074219,-0.84375 0,-0.5273438 0.761719,-0.84375 2.074219,-0.84375 z m -3.65625,2.8007816 v 0.597656 h 7.324219 v -0.597656 z m 0.914063,3.9375 v 0.585937 h 5.71875 v -0.585937 h -5.003907 v -0.820313 h 4.757813 v -1.828125 h -5.496094 v 0.5625 h 4.769531 v 0.714844 h -4.746093 z m 13.060547,-2.34375 c -1.664063,0 -2.671875,0.550781 -2.671875,1.5 0,0.949218 1.007812,1.511718 2.671875,1.511718 1.652343,0 2.648437,-0.5625 2.648437,-1.511718 0,-0.949219 -0.996094,-1.5 -2.648437,-1.5 z m 0,0.585937 c 1.195312,0 1.921875,0.339844 1.921875,0.914063 0,0.574218 -0.726563,0.914062 -1.921875,0.914062 -1.207032,0 -1.933594,-0.339844 -1.933594,-0.914062 0,-0.574219 0.726562,-0.914063 1.933594,-0.914063 z m -3.375,-5.1679686 v 3.7382816 h 3.75 V 8.0232344 h -0.738282 v 1.21875 H 43.9415 v -1.21875 z M 43.9415,9.8279219 h 2.285156 V 11.163859 H 43.9415 Z m 4.488281,-2.3203125 v 4.8749996 h 0.738282 v -2.203125 h 1.195312 V 9.5466719 H 49.168063 V 7.5076094 Z m 3.641602,0.3867187 v 2.8476559 h 5.4375 V 7.8943281 Z M 56.78232,8.4919844 V 10.144328 H 52.797945 V 8.4919844 Z m -5.671875,3.1640626 v 0.609375 h 3.363282 v 1.640625 h 0.738281 v -1.640625 h 3.257812 v -0.609375 z m 0.9375,1.464844 v 2.320312 h 5.601563 v -0.609375 h -4.851563 v -1.710937 z m 9.738282,-3.5742191 c -1.160157,0 -1.945313,0.5976561 -1.945313,1.5117191 0,0.914062 0.785156,1.511718 1.945313,1.511718 1.148437,0 1.933593,-0.597656 1.933593,-1.511718 0,-0.914063 -0.785156,-1.5117191 -1.933593,-1.5117191 z m 0,0.5859371 c 0.738281,0 1.230468,0.363282 1.230468,0.925782 0,0.5625 -0.492187,0.925781 -1.230468,0.925781 -0.738282,0 -1.230469,-0.363281 -1.230469,-0.925781 0,-0.5625 0.492187,-0.925782 1.230469,-0.925782 z m 3.140625,-2.6132809 v 6.0820309 h 0.738281 v -2.800781 h 1.195312 V 10.179484 H 65.665133 V 7.5193281 Z m -3.503907,0 v 0.984375 h -2.027343 v 0.609375 h 4.78125 V 8.5037031 H 62.161227 V 7.5193281 Z M 60.62607,13.109172 v 2.332031 h 5.402344 V 14.831828 H 61.352633 V 13.109172 Z M 73.106539,7.5076094 v 8.1210936 h 0.75 v -4.300781 h 1.324219 V 10.706828 H 73.856539 V 7.5076094 Z m -5.132812,0.796875 v 5.3085936 h 0.632812 c 1.523438,0 2.589844,-0.04687 3.84375,-0.269531 l -0.09375,-0.644531 c -1.183594,0.222656 -2.214844,0.28125 -3.644531,0.28125 V 8.9138594 h 3.023437 v -0.609375 z m 8.692382,6.7382816 c 0.328125,0 0.597657,-0.246094 0.597657,-0.621094 0,-0.375 -0.269532,-0.621094 -0.597657,-0.621094 -0.328125,0 -0.585937,0.246094 -0.585937,0.621094 0,0.375 0.257812,0.621094 0.585937,0.621094 z m 0,0"
         style="fill:#000000;fill-opacity:1;fill-rule:nonzero;stroke:none" />
      <path
         id="path19"
         d="m 4.1827109,27.417766 c -1.7226562,0 -2.8125,0.609375 -2.8125,1.617187 0,1.03125 1.0898438,1.628906 2.8125,1.628906 1.7226563,0 2.8125,-0.597656 2.8125,-1.628906 0,-1.007812 -1.0898437,-1.617187 -2.8125,-1.617187 z m 0,0.9375 c 1.0664063,0 1.6289063,0.222656 1.6289063,0.679687 0,0.480469 -0.5625,0.703125 -1.6289063,0.703125 -1.0546875,0 -1.6171875,-0.222656 -1.6171875,-0.703125 0,-0.457031 0.5625,-0.679687 1.6171875,-0.679687 z M 0.59677344,22.870891 v 3.914062 H 4.5928672 V 22.870891 H 3.4092734 v 1.03125 H 1.7803672 v -1.03125 z m 1.18359376,1.945312 h 1.6289062 v 1.03125 H 1.7803672 Z m 3.9257812,-2.460937 v 4.886718 H 6.8897422 V 25.261516 H 7.9913047 V 24.277141 H 6.8897422 v -1.921875 z m 3.8203125,0.339843 v 3.09375 h 5.6484371 v -3.09375 z m 4.4648441,0.925782 v 1.21875 h -3.28125 v -1.21875 z m -5.3789066,2.824218 v 0.949219 h 3.2578126 v 1.394531 h 1.195312 v -1.394531 h 3.058594 v -0.949219 z m 0.8671875,1.640625 v 2.425782 h 5.8125001 v -0.960938 h -4.617188 v -1.464844 z m 12.5478521,-5.53125 v 0.269532 c 0,0.9375 -0.925782,1.957031 -2.765625,2.214843 l 0.445312,0.9375 c 1.394531,-0.210937 2.414063,-0.855468 2.941406,-1.710937 0.515625,0.84375 1.535157,1.476562 2.917969,1.675781 l 0.457031,-0.914062 c -1.839843,-0.269532 -2.777343,-1.289063 -2.777343,-2.203125 v -0.269532 z m -3.140625,3.878907 v 0.9375 h 3.257812 v 1.394531 h 1.195313 v -1.394531 h 3.058593 v -0.9375 z M 19.754,28.074016 v 2.4375 h 5.8125 v -0.960938 h -4.617187 v -1.476562 z m 13.160156,-5.742188 v 2.613281 h -1.582031 v 0.960938 h 1.582031 v 4.757812 h 1.195313 v -8.332031 z m -3.84375,0.644531 v 1.21875 c 0,1.570313 -0.632812,3.175782 -2.050781,3.832032 l 0.75,0.949218 c 0.925781,-0.457031 1.546875,-1.324218 1.898438,-2.390625 0.339843,0.996094 0.949218,1.804688 1.851562,2.261719 l 0.726563,-0.960937 c -1.382813,-0.609375 -1.980469,-2.132813 -1.980469,-3.691407 v -1.21875 z m 0,0"
         style="fill:#000000;fill-opacity:1;fill-rule:nonzero;stroke:none" />
      <path
         id="path20"
         d="m 36.72275,26.363078 c 0.328125,0 0.597656,-0.257812 0.597656,-0.632812 0,-0.363282 -0.269531,-0.621094 -0.597656,-0.621094 -0.328125,0 -0.585937,0.257812 -0.585937,0.621094 0,0.375 0.257812,0.632812 0.585937,0.632812 z m 0,3.609375 c 0.328125,0 0.597656,-0.246094 0.597656,-0.621094 0,-0.375 -0.269531,-0.621093 -0.597656,-0.621093 -0.328125,0 -0.585937,0.246093 -0.585937,0.621093 0,0.375 0.257812,0.621094 0.585937,0.621094 z m 0,0"
         style="fill:#000000;fill-opacity:1;fill-rule:nonzero;stroke:none" />
      <path
         id="path21"
         d="m 44.635836,29.574016 c 0,-0.304688 -0.222656,-0.304688 -0.375,-0.304688 h -0.796875 v -4.617187 c 0,-0.128907 0,-0.375 -0.28125,-0.375 -0.152344,0 -0.222656,0.08203 -0.28125,0.199218 -0.28125,0.632813 -0.632813,0.867188 -0.996094,0.902344 -0.128906,0 -0.328125,0.02344 -0.328125,0.292969 0,0.175781 0.09375,0.28125 0.316406,0.28125 0.351563,0 0.703125,-0.1875 0.914063,-0.363281 v 3.679687 h -0.796875 c -0.152344,0 -0.386719,0 -0.386719,0.304688 0,0.28125 0.246094,0.28125 0.386719,0.28125 h 2.25 c 0.140625,0 0.375,0 0.375,-0.28125 z m 0,0"
         style="fill:#000000;fill-opacity:1;fill-rule:nonzero;stroke:none" />
    </g>
  </g>
</svg>
