<?xml version="1.0" encoding="UTF-8" standalone="no"?>
<!-- Created with Inkscape (http://www.inkscape.org/) -->

<svg
   version="1.1"
   id="svg1"
   width="542.03998"
   height="175.45332"
   viewBox="0 0 542.03998 175.45332"
   sodipodi:docname="2.pdf"
   xmlns:inkscape="http://www.inkscape.org/namespaces/inkscape"
   xmlns:sodipodi="http://sodipodi.sourceforge.net/DTD/sodipodi-0.dtd"
   xmlns="http://www.w3.org/2000/svg"
   xmlns:svg="http://www.w3.org/2000/svg">
  <defs
     id="defs1" />
  <sodipodi:namedview
     id="namedview1"
     pagecolor="#ffffff"
     bordercolor="#000000"
     borderopacity="0.25"
     inkscape:showpageshadow="2"
     inkscape:pageopacity="0.0"
     inkscape:pagecheckerboard="0"
     inkscape:deskcolor="#d1d1d1">
    <inkscape:page
       x="0"
       y="0"
       inkscape:label="1"
       id="page1"
       width="542.03998"
       height="175.45332"
       margin="0"
       bleed="0" />
  </sodipodi:namedview>
  <g
     id="g1"
     inkscape:groupmode="layer"
     inkscape:label="1">
    <path
       id="path1"
       d="M 85.04042,89.29227 36.85092,46.77203"
       style="fill:none;stroke:#858585;stroke-width:0.54794;stroke-linecap:butt;stroke-linejoin:miter;stroke-miterlimit:10;stroke-dasharray:none;stroke-opacity:1"
       transform="matrix(1.3333333,0,0,-1.3333333,-19.045333,149.144)" />
    <path
       id="path2"
       d="M 85.04042,89.29227 133.2299,46.77203"
       style="fill:none;stroke:#858585;stroke-width:0.54794;stroke-linecap:butt;stroke-linejoin:miter;stroke-miterlimit:10;stroke-dasharray:none;stroke-opacity:1"
       transform="matrix(1.3333333,0,0,-1.3333333,-19.045333,149.144)" />
    <path
       id="path3"
       d="M 36.85092,46.77203 85.04042,2.83484"
       style="fill:none;stroke:#858585;stroke-width:0.54794;stroke-linecap:butt;stroke-linejoin:miter;stroke-miterlimit:10;stroke-dasharray:none;stroke-opacity:1"
       transform="matrix(1.3333333,0,0,-1.3333333,-19.045333,149.144)" />
    <path
       id="path4"
       d="M 133.2299,46.77203 85.04042,2.83484"
       style="fill:none;stroke:#858585;stroke-width:0.54794;stroke-linecap:butt;stroke-linejoin:miter;stroke-miterlimit:10;stroke-dasharray:none;stroke-opacity:1"
       transform="matrix(1.3333333,0,0,-1.3333333,-19.045333,149.144)" />
    <path
       id="path5"
       d="M 85.04042,89.29227 H 188.50609"
       style="fill:none;stroke:#858585;stroke-width:0.54794;stroke-linecap:butt;stroke-linejoin:miter;stroke-miterlimit:10;stroke-dasharray:none;stroke-opacity:1"
       transform="matrix(1.3333333,0,0,-1.3333333,-19.045333,149.144)" />
    <path
       id="path6"
       d="M 85.04042,89.29227 36.85092,46.77203"
       style="fill:none;stroke:#000000;stroke-width:1.19553;stroke-linecap:butt;stroke-linejoin:miter;stroke-miterlimit:10;stroke-dasharray:none;stroke-opacity:1"
       transform="matrix(1.3333333,0,0,-1.3333333,-19.045333,149.144)" />
    <path
       id="path7"
       d="M 36.85092,46.77203 85.04042,2.83484"
       style="fill:none;stroke:#000000;stroke-width:1.19553;stroke-linecap:butt;stroke-linejoin:miter;stroke-miterlimit:10;stroke-dasharray:none;stroke-opacity:1"
       transform="matrix(1.3333333,0,0,-1.3333333,-19.045333,149.144)" />
    <path
       id="path8"
       d="M 85.04042,2.83484 133.2299,46.77203"
       style="fill:none;stroke:#000000;stroke-width:1.19553;stroke-linecap:butt;stroke-linejoin:miter;stroke-miterlimit:10;stroke-dasharray:none;stroke-opacity:1"
       transform="matrix(1.3333333,0,0,-1.3333333,-19.045333,149.144)" />
    <path
       id="path9"
       d="m 99.21382,89.29227 c 0,7.82785 -6.34555,14.1734 -14.1734,14.1734 -7.82785,0 -14.1734,-6.34555 -14.1734,-14.1734 0,-7.82785 6.34555,-14.1734 14.1734,-14.1734 7.82785,0 14.1734,6.34555 14.1734,14.1734 z"
       style="fill:#e0e0e0;fill-opacity:1;fill-rule:nonzero;stroke:#000000;stroke-width:0.84683;stroke-linecap:butt;stroke-linejoin:miter;stroke-miterlimit:10;stroke-dasharray:none;stroke-opacity:1"
       transform="matrix(1.3333333,0,0,-1.3333333,-19.045333,149.144)" />
    <path
       id="path10"
       d="M 0.78473438,-0.00125781 H 4.3941094 v -0.6796875 H 3.0698906 V -6.3879766 H 2.4487969 c -0.3632813,0.2109375 -0.7851563,0.3632813 -1.359375,0.46875 v 0.515625 h 1.171875 v 4.72265629 H 0.78473438 Z m 0,0"
       style="fill:#000000;fill-opacity:1;fill-rule:nonzero;stroke:none"
       aria-label="1"
       transform="matrix(1.3333333,0,0,1.3333333,91.024,34.349333)" />
    <path
       id="path11"
       d="m 51.02432,46.77203 c 0,7.82785 -6.34555,14.1734 -14.1734,14.1734 -7.82785,0 -14.17338,-6.34555 -14.17338,-14.1734 0,-7.82783 6.34553,-14.17338 14.17338,-14.17338 7.82785,0 14.1734,6.34555 14.1734,14.17338 z"
       style="fill:#e0e0e0;fill-opacity:1;fill-rule:nonzero;stroke:#000000;stroke-width:0.84683;stroke-linecap:butt;stroke-linejoin:miter;stroke-miterlimit:10;stroke-dasharray:none;stroke-opacity:1"
       transform="matrix(1.3333333,0,0,-1.3333333,-19.045333,149.144)" />
    <path
       id="path12"
       d="M 0.39951563,-1.796875e-4 H 4.5245156 V -0.70330469 H 2.6729531 c -0.328125,0 -0.7382812,0.0351563 -1.078125,0.0585938 1.5117188,-1.58203121 2.625,-2.78906241 2.625,-3.99609371 0,-1.125 -0.75,-1.8632812 -1.921875,-1.8632812 -0.8320312,0 -1.40624997,0.375 -1.93359372,0.9609375 l 0.46875,0.4570312 c 0.37500002,-0.421875 0.83203122,-0.7617187 1.35937502,-0.7617187 0.8203125,0 1.21875,0.5273437 1.21875,1.2539062 0,1.0429687 -1.0898438,2.1914063 -3.01171877,4.11328121 z m 0,0"
       style="fill:#000000;fill-opacity:1;fill-rule:nonzero;stroke:none"
       aria-label="2"
       transform="matrix(1.3333333,0,0,1.3333333,26.772,91.121333)" />
    <path
       id="path13"
       d="m 147.4033,46.77203 c 0,7.82785 -6.34555,14.1734 -14.1734,14.1734 -7.82785,0 -14.1734,-6.34555 -14.1734,-14.1734 0,-7.82783 6.34555,-14.17338 14.1734,-14.17338 7.82785,0 14.1734,6.34555 14.1734,14.17338 z"
       style="fill:#c2c2c2;fill-opacity:1;fill-rule:nonzero;stroke:#000000;stroke-width:1.04608;stroke-linecap:butt;stroke-linejoin:miter;stroke-miterlimit:10;stroke-dasharray:none;stroke-opacity:1"
       transform="matrix(1.3333333,0,0,-1.3333333,-19.045333,149.144)" />
    <path
       id="path14"
       d="m 2.3554766,0.11641406 c 1.171875,0 2.1210937,-0.6796875 2.1210937,-1.81640626 0,-0.8789062 -0.6210937,-1.453125 -1.3945312,-1.640625 v -0.035156 c 0.6914062,-0.2460938 1.171875,-0.7382813 1.171875,-1.5234375 0,-1.0195313 -0.8085938,-1.6054688 -1.921875,-1.6054688 -0.75,0 -1.33593754,0.3398438 -1.82812504,0.796875 l 0.43359375,0.515625 c 0.37499999,-0.3867187 0.83203129,-0.65625 1.37109379,-0.65625 0.6914062,0 1.1015625,0.3984375 1.1015625,1.0195313 0,0.6679687 -0.4570313,1.1835937 -1.8164063,1.1835937 v 0.6445313 c 1.5234375,0 2.0507813,0.5039062 2.0507813,1.265625 0,0.7265625 -0.5507813,1.17187496 -1.3359375,1.17187496 -0.75,0 -1.2421875,-0.36328125 -1.62890629,-0.74999996 l -0.421875,0.52734371 c 0.43359375,0.46875 1.07812499,0.90234375 2.09765629,0.90234355 z m 0,0"
       style="fill:#000000;fill-opacity:1;fill-rule:nonzero;stroke:none"
       aria-label="3"
       transform="matrix(1.3333333,0,0,1.3333333,155.27733,91.044)" />
    <path
       id="path15"
       d="m 99.21382,2.83484 c 0,7.82785 -6.34555,14.1734 -14.1734,14.1734 -7.82785,0 -14.1734,-6.34555 -14.1734,-14.1734 0,-7.82784 6.34555,-14.17339 14.1734,-14.17339 7.82785,0 14.1734,6.34555 14.1734,14.17339 z"
       style="fill:#e0e0e0;fill-opacity:1;fill-rule:nonzero;stroke:#000000;stroke-width:0.84683;stroke-linecap:butt;stroke-linejoin:miter;stroke-miterlimit:10;stroke-dasharray:none;stroke-opacity:1"
       transform="matrix(1.3333333,0,0,-1.3333333,-19.045333,149.144)" />
    <path
       id="path16"
       d="m 3.0464531,-0.00125 h 0.7734375 v -1.7695312 h 0.8789063 v -0.65625 H 3.8198906 V -6.3879687 H 2.9175469 l -2.74218752,4.078125 v 0.5390625 H 3.0464531 Z m 0,-2.4257812 h -2.015625 l 1.5,-2.1796875 c 0.1875,-0.328125 0.3632813,-0.5976563 0.5273438,-0.9023438 h 0.035156 c -0.023437,0.328125 -0.046875,0.890625 -0.046875,1.21875 z m 0,0"
       style="fill:#000000;fill-opacity:1;fill-rule:nonzero;stroke:none"
       aria-label="4"
       transform="matrix(1.3333333,0,0,1.3333333,91.024,149.62667)" />
    <path
       id="path17"
       d="m 202.67949,89.29227 c 0,7.82785 -6.34555,14.1734 -14.1734,14.1734 -7.82785,0 -14.1734,-6.34555 -14.1734,-14.1734 0,-7.82785 6.34555,-14.1734 14.1734,-14.1734 7.82785,0 14.1734,6.34555 14.1734,14.1734 z"
       style="fill:#ffffff;fill-opacity:1;fill-rule:nonzero;stroke:#666666;stroke-width:0.54794;stroke-linecap:butt;stroke-linejoin:miter;stroke-miterlimit:10;stroke-dasharray:none;stroke-opacity:1"
       transform="matrix(1.3333333,0,0,-1.3333333,-19.045333,149.144)" />
    <path
       id="path18"
       d="m 2.3451016,0.11826563 c 1.1132812,0 2.15625,-0.78515625 2.15625,-2.15625003 0,-1.3828125 -0.890625,-2.0039062 -1.9804688,-2.0039062 -0.3984375,0 -0.6914062,0.09375 -0.984375,0.2578125 l 0.1640625,-1.8984375 h 2.4726563 v -0.703125 H 0.98572656 l -0.2109375,3.0703125 0.43359374,0.28125 c 0.375,-0.2578125 0.65625,-0.3984375 1.1015625,-0.3984375 0.8203125,0 1.359375,0.5273437 1.359375,1.4179687 0,0.890625 -0.6210937,1.45312503 -1.3945312,1.45312503 -0.7617188,0 -1.2539063,-0.3515625 -1.61718754,-0.72656253 l -0.41015625,0.53906253 c 0.4453125,0.43359375 1.06640629,0.8671875 2.09765629,0.8671875 z m 0,0"
       style="fill:#000000;fill-opacity:1;fill-rule:nonzero;stroke:none"
       aria-label="5"
       transform="matrix(1.3333333,0,0,1.3333333,228.97867,34.272)" />
    <path
       id="path19"
       d="M 410.65292,92.69392 H 230.3837 c -1.10048,0 -1.99256,-0.89209 -1.99256,-1.99255 V 1.14198 c 0,-1.10048 0.89208,-1.99254 1.99256,-1.99254 h 180.26922 c 1.10047,0 1.99256,0.89206 1.99256,1.99254 v 89.55939 c 0,1.10046 -0.89209,1.99255 -1.99256,1.99255 z"
       style="fill:#fcfcfc;fill-opacity:1;fill-rule:nonzero;stroke:#c7c7c7;stroke-width:0.3985;stroke-linecap:butt;stroke-linejoin:miter;stroke-miterlimit:10;stroke-dasharray:none;stroke-opacity:1"
       transform="matrix(1.3333333,0,0,-1.3333333,-19.045333,149.144)" />
    <g
       id="g19"
       aria-label="번호가작은정점부터방문한다.&#10;이동:1"
       transform="matrix(1.3333333,0,0,1.3333333,331.14133,72.417333)">
      <path
         id="path20"
         d="m 1.5815,-4.8628047 h 2.1914062 v 1.4765625 H 1.5815 Z M 0.84321875,-6.8667109 v 4.078125 H 4.5111875 v -1.734375 h 1.8632812 v 3.1171875 H 7.11275 v -6 H 6.3744687 v 2.2734375 H 4.5111875 v -1.734375 H 3.7729062 v 1.4296875 H 1.5815 v -1.4296875 z m 1.06640625,4.875 V 0.51610156 H 7.30025 v -0.609375 H 2.6479062 V -1.9917109 Z m 10.441406,-2.484375 c 1.183594,0 1.910156,0.3398437 1.910156,0.9492187 0,0.5976563 -0.726562,0.9492188 -1.910156,0.9492188 -1.183594,0 -1.898437,-0.3515625 -1.898437,-0.9492188 0,-0.609375 0.714843,-0.9492187 1.898437,-0.9492187 z M 11.98775,-7.2768672 v 1.0546875 H 9.0580625 v 0.609375 H 15.644 v -0.609375 h -2.917969 v -1.0546875 z m 0.363281,2.203125 c -1.640625,0 -2.6484373,0.5742188 -2.6484373,1.546875 0,0.9023438 0.8554683,1.453125 2.2851563,1.5351563 v 1.13671871 H 8.6947812 v 0.609375 h 7.3593748 v -0.609375 H 12.726031 V -1.9917109 c 1.417969,-0.082031 2.285156,-0.6328125 2.285156,-1.5351563 0,-0.9726562 -1.019531,-1.546875 -2.660156,-1.546875 z m 10.078125,-2.34375 v 8.10937501 h 0.75 V -3.5034297 h 1.289063 v -0.6210937 h -1.289063 v -3.2929688 z m -5.0625,0.8789063 v 0.609375 h 2.976563 c -0.164063,1.921875 -1.289063,3.46875 -3.351563,4.5117187 l 0.410156,0.57421876 c 2.625,-1.31249996 3.691407,-3.39843746 3.691407,-5.69531246 z m 10.854492,4.4414062 v 0.609375 h 4.535157 v 2.19140626 h 0.738281 V -2.0971797 Z m -0.832031,-4.7460937 v 0.609375 h 1.816406 v 0.3046875 c 0,1.1601562 -0.820312,2.2148437 -2.039062,2.6367187 l 0.398437,0.5742188 c 0.949219,-0.3398438 1.675782,-1.0429688 2.027344,-1.9570313 0.339844,0.8203125 1.03125,1.4882813 1.945313,1.8046875 l 0.375,-0.5859375 c -1.195313,-0.4101562 -1.96875,-1.3945312 -1.96875,-2.4726562 v -0.3046875 h 1.792968 v -0.609375 z m 5.367188,-0.5742188 v 4.8867188 h 0.738281 v -2.1210938 h 1.195312 v -0.6328125 h -1.195312 v -2.1328125 z m 2.692382,4.265625 v 0.609375 h 7.324219 v -0.609375 z m 3.65625,-3.984375 c -1.734375,0 -2.847656,0.5976563 -2.847656,1.6171875 0,1.0078125 1.113281,1.6171875 2.847656,1.6171875 1.746094,0 2.859375,-0.609375 2.859375,-1.6171875 0,-1.0195312 -1.113281,-1.6171875 -2.859375,-1.6171875 z m 0,0.5976563 c 1.289063,0 2.097657,0.3867187 2.097657,1.0195312 0,0.6328125 -0.808594,1.0078125 -2.097657,1.0078125 -1.265625,0 -2.085937,-0.375 -2.085937,-1.0078125 0,-0.6328125 0.820312,-1.0195312 2.085937,-1.0195312 z m -2.707031,4.7109375 v 2.34374996 h 5.566406 v -0.609375 H 37.136187 V -1.8276484 Z m 13.306641,-0.5039063 c -1.675781,0 -2.695313,0.5625 -2.695313,1.51171876 0,0.94921875 1.019532,1.51171875 2.695313,1.51171875 1.675781,0 2.707031,-0.5625 2.707031,-1.51171875 0,-0.94921876 -1.03125,-1.51171876 -2.707031,-1.51171876 z m 0,0.5859375 c 1.21875,0 1.96875,0.3398438 1.96875,0.92578126 0,0.5859375 -0.75,0.92578125 -1.96875,0.92578125 -1.21875,0 -1.957031,-0.33984375 -1.957031,-0.92578125 0,-0.58593746 0.738281,-0.92578126 1.957031,-0.92578126 z m 1.933594,-5.671875 v 2.109375 h -1.59375 v 0.6210938 h 1.59375 v 2.109375 h 0.738281 v -4.8398438 z m -5.671875,0.5976563 v 0.609375 h 1.804687 v 0.28125 c 0,1.1484375 -0.820312,2.25 -2.027344,2.6835937 l 0.375,0.5976563 c 0.960938,-0.375 1.699219,-1.1132813 2.050782,-2.0625 0.351562,0.8320312 1.042968,1.5 1.945312,1.828125 l 0.375,-0.5859375 c -1.171875,-0.4101563 -1.96875,-1.4296875 -1.96875,-2.4726563 v -0.2695312 h 1.78125 v -0.609375 z m 9.395507,4.546875 v 2.85937496 h 5.261719 V -2.2729609 Z m 4.535157,0.5976562 v 1.65234376 H 56.100055 V -1.6753047 Z m -0.01172,-5.7421875 v 2.0273438 h -1.605469 v 0.6210937 h 1.605469 v 2.0976563 h 0.738281 v -4.7460938 z m -5.671875,0.5273438 v 0.609375 h 1.804687 v 0.2929687 c 0,1.1484375 -0.832031,2.2265625 -2.027343,2.6484375 l 0.375,0.5976563 c 0.960937,-0.3515625 1.699218,-1.0898438 2.039062,-2.015625 0.351563,0.8320312 1.054688,1.5 1.957031,1.8398437 l 0.375,-0.5976562 c -1.171875,-0.421875 -1.96875,-1.4296875 -1.96875,-2.4726563 v -0.2929687 h 1.78125 v -0.609375 z m 8.917969,-0.1875 v 3.5039062 h 5.484375 v -3.5039062 h -0.738282 v 1.1132812 h -4.007812 v -1.1132812 z m 0.738281,1.7109375 h 4.007812 v 1.1835937 h -4.007812 z m -1.675781,2.7539062 v 0.609375 h 3.292968 v 2.70703126 h 0.738282 V -2.0034297 h 3.328125 v -0.609375 z m 12.527343,-1.7460937 v 0.609375 h 1.675782 v 4.45312496 h 0.726562 V -7.4174922 H 76.39693 v 3.0585938 z m -3.890625,-2.3085938 v 5.4257813 h 0.609375 c 1.546875,0 2.542969,-0.046875 3.703125,-0.2460938 l -0.08203,-0.609375 c -1.089844,0.1992188 -2.039062,0.2460938 -3.492187,0.2460938 v -1.9453125 h 2.660156 v -0.5976563 h -2.660156 v -1.6640625 h 3.011718 v -0.609375 z m 13.59668,4.3476563 c -1.664062,0 -2.671875,0.5507812 -2.671875,1.49999996 0,0.94921875 1.007813,1.51171875 2.671875,1.51171875 1.652344,0 2.648438,-0.5625 2.648438,-1.51171875 0,-0.94921876 -0.996094,-1.49999996 -2.648438,-1.49999996 z m 0,0.5859375 c 1.195313,0 1.921875,0.3398437 1.921875,0.91406246 0,0.57421875 -0.726562,0.9140625 -1.921875,0.9140625 -1.207031,0 -1.933594,-0.33984375 -1.933594,-0.9140625 0,-0.57421876 0.726563,-0.91406246 1.933594,-0.91406246 z m -3.375,-5.1679688 v 3.7382813 h 3.75 v -3.7382813 h -0.738281 v 1.21875 h -2.285156 v -1.21875 z m 0.726563,1.8046875 h 2.285156 v 1.3359375 h -2.285156 z m 4.488281,-2.3203125 v 4.875 h 0.738281 v -2.203125 h 1.195313 v -0.6328125 h -1.195313 v -2.0390625 z m 3.644531,0.3867188 v 2.8476562 h 5.4375 v -2.8476562 z m 4.710938,0.5976562 v 1.6523438 H 90.63814 v -1.6523438 z m -5.671875,3.1640625 v 0.609375 h 3.363281 v 1.640625 h 0.738281 v -1.640625 h 3.257813 v -0.609375 z m 0.9375,1.4648438 v 2.32031246 h 5.601562 v -0.609375 H 90.638141 V -1.8042109 Z m 9.735351,-3.5742188 c -1.160156,0 -1.945312,0.5976563 -1.945312,1.5117188 0,0.9140625 0.785156,1.5117187 1.945312,1.5117187 1.148439,0 1.933599,-0.5976562 1.933599,-1.5117187 0,-0.9140625 -0.78516,-1.5117188 -1.933599,-1.5117188 z m 0,0.5859375 c 0.738279,0 1.230469,0.3632813 1.230469,0.9257813 0,0.5625 -0.49219,0.9257812 -1.230469,0.9257812 -0.738281,0 -1.230469,-0.3632812 -1.230469,-0.9257812 0,-0.5625 0.492188,-0.9257813 1.230469,-0.9257813 z m 3.140629,-2.6132812 v 6.0820312 h 0.73828 v -2.8007812 h 1.19531 v -0.6210938 h -1.19531 v -2.6601562 z m -3.50391,0 v 0.984375 h -2.027344 v 0.609375 h 4.781254 v -0.609375 h -2.015629 v -0.984375 z m -0.796875,5.5898437 v 2.33203126 h 5.402345 v -0.609375 H 99.189898 V -1.8159297 Z M 110.9438,-7.4174922 v 8.12109376 h 0.75 V -3.5971797 h 1.32422 v -0.6210937 h -1.32422 v -3.1992188 z m -5.13281,0.796875 v 5.3085938 h 0.63281 c 1.52344,0 2.58985,-0.046875 3.84375,-0.2695313 l -0.0937,-0.6445312 c -1.18359,0.2226562 -2.21484,0.28125 -3.64453,0.28125 v -4.0664063 h 3.02344 v -0.609375 z m 8.69531,6.73828126 c 0.32813,0 0.59766,-0.24609375 0.59766,-0.62109375 0,-0.375 -0.26953,-0.62109371 -0.59766,-0.62109371 -0.32812,0 -0.58593,0.24609371 -0.58593,0.62109371 0,0.375 0.25781,0.62109375 0.58593,0.62109375 z m 0,0"
         style="fill:#000000;fill-opacity:1;fill-rule:nonzero;stroke:none" />
      <path
         id="path21"
         d="M 6.0580625,7.4037969 V 15.735828 H 7.253375 V 7.4037969 Z m -3.28125,0.5859375 c -1.2539063,0 -2.1796875,1.1484375 -2.1796875,2.9648436 0,1.816406 0.9257812,2.976563 2.1796875,2.976563 1.265625,0 2.1914062,-1.160157 2.1914062,-2.976563 0,-1.8164061 -0.9257812,-2.9648436 -2.1914062,-2.9648436 z m 0,1.078125 c 0.6210937,0 1.0429687,0.65625 1.0429687,1.8867186 0,1.242188 -0.421875,1.898438 -1.0429687,1.898438 -0.6210938,0 -1.03125,-0.65625 -1.03125,-1.898438 0,-1.2304686 0.4101562,-1.8867186 1.03125,-1.8867186 z m 9.5742185,3.6093746 c -1.792969,0 -2.8828123,0.550782 -2.8828123,1.535157 0,0.960937 1.0898433,1.523437 2.8828123,1.523437 1.792969,0 2.882813,-0.5625 2.882813,-1.523437 0,-0.984375 -1.089844,-1.535157 -2.882813,-1.535157 z m 0,0.902344 c 1.101563,0 1.675781,0.199219 1.675781,0.632813 0,0.421875 -0.574218,0.621093 -1.675781,0.621093 -1.113281,0 -1.675781,-0.199218 -1.675781,-0.621093 0,-0.433594 0.5625,-0.632813 1.675781,-0.632813 z M 9.5268125,7.7787969 v 2.8593751 h 2.2499995 v 0.679687 H 8.6244687 v 0.949219 h 7.5000003 v -0.949219 h -3.152344 v -0.679687 h 2.308594 V 9.7006719 h -4.570313 v -0.984375 h 4.523438 v -0.9375 z m 0,0"
         style="fill:#000000;fill-opacity:1;fill-rule:nonzero;stroke:none" />
      <path
         id="path22"
         d="m 18.189898,11.435047 c 0.328125,0 0.597657,-0.257813 0.597657,-0.632813 0,-0.363281 -0.269532,-0.621093 -0.597657,-0.621093 -0.328125,0 -0.585937,0.257812 -0.585937,0.621093 0,0.375 0.257812,0.632813 0.585937,0.632813 z m 0,3.609375 c 0.328125,0 0.597657,-0.246094 0.597657,-0.621094 0,-0.375 -0.269532,-0.621094 -0.597657,-0.621094 -0.328125,0 -0.585937,0.246094 -0.585937,0.621094 0,0.375 0.257812,0.621094 0.585937,0.621094 z m 0,0"
         style="fill:#000000;fill-opacity:1;fill-rule:nonzero;stroke:none" />
      <path
         id="path23"
         d="m 26.100055,14.645984 c 0,-0.304687 -0.222657,-0.304687 -0.375,-0.304687 H 24.92818 V 9.7241094 c 0,-0.1289063 0,-0.375 -0.28125,-0.375 -0.152344,0 -0.222657,0.082031 -0.28125,0.1992187 -0.28125,0.6328129 -0.632813,0.8671879 -0.996094,0.9023439 -0.128906,0 -0.328125,0.02344 -0.328125,0.292969 0,0.175781 0.09375,0.28125 0.316406,0.28125 0.351563,0 0.703125,-0.1875 0.914063,-0.363282 v 3.679688 h -0.796875 c -0.152344,0 -0.386719,0 -0.386719,0.304687 0,0.28125 0.246094,0.28125 0.386719,0.28125 h 2.25 c 0.140625,0 0.375,0 0.375,-0.28125 z m 0,0"
         style="fill:#000000;fill-opacity:1;fill-rule:nonzero;stroke:none" />
    </g>
    <text
       id="text23"
       xml:space="preserve"
       transform="matrix(1.3333333,0,0,1.2698413,373.184,92.32)"><tspan
         id="tspan23"
         style="font-variant:normal;font-weight:normal;font-size:9.41472px;font-family:UnDotum;writing-mode:lr-tb;fill:#000000;fill-opacity:1;fill-rule:nonzero;stroke:none"
         x="0"
         y="0">→</tspan></text>
    <path
       id="path24"
       d="m 4.2292578,-0.37476562 v -0.2578125 c 0,-0.17578125 0,-0.37499998 -0.328125,-0.37499998 -0.3398437,0 -0.3398437,0.18749998 -0.3398437,0.42187498 h -2.015625 c 0.4804687,-0.41015625 1.4882812,-1.20703128 1.7109375,-1.41796878 0.328125,-0.3164062 0.9726562,-0.9140625 0.9726562,-1.8046875 0,-1.0664062 -0.890625,-1.7695312 -2.0039062,-1.7695312 -1.0429688,0 -1.75781254,0.7148437 -1.75781254,1.4765625 0,0.3632812 0.28125,0.4570312 0.421875,0.4570312 0.17578124,0 0.41015624,-0.1523437 0.41015624,-0.421875 0,-0.1875 -0.070312,-0.2578125 -0.1171875,-0.3046875 0.1523438,-0.3867187 0.5507813,-0.6210937 1.0078125,-0.6210937 0.7148438,0 1.3710938,0.4101562 1.3710938,1.1835937 0,0.6210938 -0.4804688,1.1601563 -0.8320313,1.4648438 l -2.13281249,1.79296873 c -0.0703125,0.0585938 -0.12890625,0.1171875 -0.12890625,0.2578125 0,0.292968745 0.234375,0.292968745 0.38671875,0.292968745 H 3.8542578 c 0.2929688,0 0.375,-0.070312495 0.375,-0.374999995 z m 0,0"
       style="fill:#000000;fill-opacity:1;fill-rule:nonzero;stroke:none"
       aria-label="2"
       transform="matrix(1.3333333,0,0,1.3333333,392.01333,92.32)" />
    <text
       id="text24"
       xml:space="preserve"
       transform="matrix(1.3333333,0,0,1.2698413,404.56667,92.32)"><tspan
         id="tspan24"
         style="font-variant:normal;font-weight:normal;font-size:9.41472px;font-family:UnDotum;writing-mode:lr-tb;fill:#000000;fill-opacity:1;fill-rule:nonzero;stroke:none"
         x="0"
         y="0">→</tspan></text>
    <path
       id="path25"
       d="m 4.4403047,-1.7927344 c 0,-0.2929687 -0.2460938,-0.2929687 -0.375,-0.2929687 H 3.3973359 v -3.1289063 c 0,-0.3046875 -0.070312,-0.3867187 -0.3867187,-0.3867187 H 2.7528047 c -0.2226563,0 -0.28125,0.011719 -0.3984375,0.1992187 l -2.01562501,3.1875 c -0.0820313,0.1171875 -0.0820313,0.140625 -0.0820313,0.328125 0,0.2578125 0.0351563,0.375 0.375,0.375 H 2.8582734 v 0.92578128 H 2.3192109 c -0.1289062,0 -0.375,0 -0.375,0.29296875 0,0.292968745 0.2460938,0.292968745 0.375,0.292968745 h 1.6171875 c 0.1289063,0 0.375,0 0.375,-0.281249995 0,-0.3046875 -0.2460937,-0.3046875 -0.375,-0.3046875 H 3.3973359 V -1.5114844 h 0.6679688 c 0.1171875,0 0.375,0 0.375,-0.28125 z M 2.8582734,-2.0857031 H 0.93639844 L 2.8582734,-5.1442969 Z m 0,0"
       style="fill:#000000;fill-opacity:1;fill-rule:nonzero;stroke:none"
       aria-label="4"
       transform="matrix(1.3333333,0,0,1.3333333,423.396,92.32)" />
    <text
       id="text25"
       xml:space="preserve"
       transform="matrix(1.3333333,0,0,1.2698413,435.94933,92.32)"><tspan
         id="tspan25"
         style="font-variant:normal;font-weight:normal;font-size:9.41472px;font-family:UnDotum;writing-mode:lr-tb;fill:#000000;fill-opacity:1;fill-rule:nonzero;stroke:none"
         x="0"
         y="0">→</tspan></text>
    <path
       id="path26"
       d="m 4.2997891,-1.5700781 c 0,-0.7382813 -0.5507813,-1.2304688 -0.9726563,-1.4296875 0.65625,-0.4570313 0.7148438,-1.0546875 0.7148438,-1.2890625 0,-0.6914063 -0.6796875,-1.2890625 -1.6992188,-1.2890625 -1.1015625,0 -1.68749999,0.4453125 -1.68749999,1.0546875 0,0.2695312 0.19921875,0.421875 0.42187499,0.421875 0.2226563,0 0.4101563,-0.1757813 0.4101563,-0.4101563 0,-0.082031 -0.023437,-0.1757812 -0.070312,-0.234375 0.2929687,-0.2460937 0.8789062,-0.2460937 0.9257812,-0.2460937 0.6328125,0 1.03125,0.328125 1.03125,0.703125 0,0.2460937 -0.1171875,0.609375 -0.4570312,0.8320312 -0.234375,0.1523438 -0.3984375,0.1640625 -0.8203125,0.1992188 -0.3515625,0.011719 -0.5273438,0.035156 -0.5273438,0.3046875 0,0.2929687 0.2460938,0.2929687 0.375,0.2929687 h 0.375 c 0.9257813,0 1.3242188,0.6210938 1.3242188,1.078125 0,0.5742188 -0.515625,1.10156253 -1.2890625,1.10156253 -0.234375,0 -0.9140625,-0.0351563 -1.2304688,-0.46875 l 0.023437,-0.0234375 c 0.058594,-0.0820312 0.058594,-0.10546873 0.070312,-0.18750003 0,0 0.011719,-0.035156 0.011719,-0.070312 0,-0.2226562 -0.1757813,-0.4101562 -0.41015629,-0.4101562 -0.22265625,0 -0.421875,0.1289062 -0.421875,0.4335937 0,0.79687503 0.84374999,1.30078128 1.95703129,1.30078128 1.171875,0 1.9453125,-0.80859375 1.9453128,-1.66406298 z m 0,0"
       style="fill:#000000;fill-opacity:1;fill-rule:nonzero;stroke:none"
       aria-label="3"
       transform="matrix(1.3333333,0,0,1.3333333,454.77867,92.32)" />
    <g
       id="g26"
       aria-label="현재정점:3번"
       transform="matrix(1.3333333,0,0,1.3333333,331.14267,112.22267)">
      <path
         id="path27"
         d="m 2.7201484,-5.4023516 c -1.1367187,0 -1.94531246,0.65625 -1.94531246,1.6289063 0,0.9609375 0.80859376,1.6289062 1.94531246,1.6289062 1.1367188,0 1.9570313,-0.6679687 1.9570313,-1.6289062 0,-0.9726563 -0.8203125,-1.6289063 -1.9570313,-1.6289063 z m 0,0.9140625 c 0.4804688,0 0.8320313,0.2578125 0.8320313,0.7148438 0,0.4570312 -0.3515625,0.7148437 -0.8320313,0.7148437 -0.4921875,0 -0.8203125,-0.2578125 -0.8203125,-0.7148437 0,-0.4570313 0.328125,-0.7148438 0.8203125,-0.7148438 z m 2.3203125,0.8203125 v 0.9492188 h 1.078125 v 1.5351562 H 7.3138984 V -7.5000078 H 6.1185859 v 2.0625 h -1.078125 v 0.9492187 h 1.078125 v 0.8203125 z m -2.90625,-3.8671875 v 0.9023438 H 0.38811719 v 0.9257812 H 4.9467109 V -6.6328203 H 3.3295234 v -0.9023438 z m -0.3164062,5.8359375 v 2.35546879 h 5.6835937 v -0.9609375 H 3.0131172 V -1.6992266 Z m 6.899414,-4.96875 v 0.9609375 h 1.3828123 v 0.2226563 c 0,1.6054687 -0.410156,3.0585937 -1.6406248,3.7851562 L 9.17425,-0.78516406 c 0.7734375,-0.46875004 1.253906,-1.25390624 1.535156,-2.21484374 0.28125,0.84375 0.761719,1.5 1.511719,1.9101562 l 0.667969,-0.8789062 v 2.39062499 h 1.101562 V -3.3632891 h 0.679688 v 4.14843754 h 1.136718 V -7.5117266 h -1.136718 v 3.1875 h -0.679688 v -3.0585937 h -1.101562 v 5.3789062 c -1.230469,-0.65625 -1.640625,-2.0273437 -1.640625,-3.4804687 v -0.2226563 h 1.242187 v -0.9609375 z m 14.3085933,4.2773438 c -1.757812,0 -2.835937,0.5976562 -2.835937,1.59374999 0,1.01953125 1.078125,1.60546875 2.835937,1.60546875 1.757813,0 2.847657,-0.5859375 2.847657,-1.60546875 0,-0.99609379 -1.089844,-1.59374999 -2.847657,-1.59374999 z m 0,0.9023437 c 1.078125,0 1.652344,0.2226563 1.652344,0.69140629 0,0.46875 -0.574219,0.703125 -1.652344,0.703125 -1.089843,0 -1.652343,-0.234375 -1.652343,-0.703125 0,-0.46874999 0.5625,-0.69140629 1.652343,-0.69140629 z M 24.643,-7.5000078 v 1.9921875 h -1.253906 v 0.9726562 H 24.643 v 1.9570313 h 1.195312 v -4.921875 z m -5.472656,0.5039062 v 0.9375 h 1.640625 c -0.03516,1.0429688 -0.621094,2.0859375 -1.957032,2.5429688 l 0.597657,0.9375 c 0.972656,-0.328125 1.628906,-0.9960938 1.992187,-1.828125 0.351563,0.7265625 0.960938,1.3242187 1.875,1.6171875 L 23.893,-3.7148516 c -1.265625,-0.421875 -1.839844,-1.3945312 -1.875,-2.34375 h 1.617187 v -0.9375 z m 9.37207,4.6171875 v 3.08203129 h 5.542969 V -2.3789141 Z m 4.371094,0.9375 v 1.20703129 h -3.1875 V -1.4414141 Z m -0.02344,-6.0585937 v 1.8984375 h -1.253906 v 0.9609375 h 1.253906 v 1.9335937 h 1.195313 v -4.7929687 z m -5.472656,0.4101562 v 0.9492188 h 1.640625 c -0.02344,1.0195312 -0.621094,2.0625 -1.957031,2.5078125 l 0.585937,0.9492187 c 0.972657,-0.328125 1.628907,-0.9960937 1.992188,-1.8046875 0.351562,0.7382813 0.972656,1.3359375 1.886719,1.640625 l 0.574218,-0.9375 c -1.265625,-0.4335937 -1.839843,-1.40625 -1.875,-2.3554687 h 1.617188 v -0.9492188 z m 0,0"
         style="fill:#000000;fill-opacity:1;fill-rule:nonzero;stroke:none" />
      <path
         id="path28"
         d="m 36.722102,-3.4921953 c 0.328125,0 0.597656,-0.2578125 0.597656,-0.6328125 0,-0.3632813 -0.269531,-0.6210938 -0.597656,-0.6210938 -0.328125,0 -0.585938,0.2578125 -0.585938,0.6210938 0,0.375 0.257813,0.6328125 0.585938,0.6328125 z m 0,3.60937499 c 0.328125,0 0.597656,-0.24609375 0.597656,-0.62109375 0,-0.375 -0.269531,-0.62109374 -0.597656,-0.62109374 -0.328125,0 -0.585938,0.24609374 -0.585938,0.62109374 0,0.375 0.257813,0.62109375 0.585938,0.62109375 z m 6.27832,0 c 1.171875,0 2.121094,-0.6796875 2.121094,-1.81640629 0,-0.8789062 -0.621094,-1.453125 -1.394532,-1.640625 v -0.035156 c 0.691407,-0.2460938 1.171875,-0.7382813 1.171875,-1.5234375 0,-1.0195313 -0.808593,-1.6054688 -1.921875,-1.6054688 -0.75,0 -1.335937,0.3398438 -1.828125,0.796875 l 0.433594,0.515625 c 0.375,-0.3867187 0.832031,-0.65625 1.371094,-0.65625 0.691406,0 1.101562,0.3984375 1.101562,1.0195313 0,0.6679687 -0.457031,1.1835937 -1.816406,1.1835937 v 0.6445313 c 1.523438,0 2.050781,0.5039062 2.050781,1.265625 0,0.7265625 -0.550781,1.17187499 -1.335937,1.17187499 -0.75,0 -1.242188,-0.36328125 -1.628906,-0.74999999 l -0.421875,0.52734374 c 0.433593,0.46875 1.078125,0.90234375 2.097656,0.90234355 z m 4.652344,-4.98046879 h 2.191406 v 1.4765625 h -2.191406 z m -0.738282,-2.0039062 v 4.078125 h 3.667969 v -1.734375 h 1.863281 v 3.1171875 h 0.738282 v -6 h -0.738282 v 2.2734375 h -1.863281 v -1.734375 h -0.738281 v 1.4296875 h -2.191406 v -1.4296875 z m 1.066407,4.875 v 2.50781249 h 5.390625 v -0.609375 H 48.719172 V -1.9921953 Z m 0,0"
         style="fill:#000000;fill-opacity:1;fill-rule:nonzero;stroke:none" />
    </g>
  </g>
</svg>
