<?xml version="1.0" encoding="UTF-8" standalone="no"?>
<!-- Created with Inkscape (http://www.inkscape.org/) -->

<svg
   version="1.1"
   id="svg1"
   width="552.29333"
   height="175.58667"
   viewBox="0 0 552.29333 175.58667"
   sodipodi:docname="3.pdf"
   xmlns:inkscape="http://www.inkscape.org/namespaces/inkscape"
   xmlns:sodipodi="http://sodipodi.sourceforge.net/DTD/sodipodi-0.dtd"
   xmlns="http://www.w3.org/2000/svg"
   xmlns:svg="http://www.w3.org/2000/svg">
  <defs
     id="defs1" />
  <sodipodi:namedview
     id="namedview1"
     pagecolor="#ffffff"
     bordercolor="#000000"
     borderopacity="0.25"
     inkscape:showpageshadow="2"
     inkscape:pageopacity="0.0"
     inkscape:pagecheckerboard="0"
     inkscape:deskcolor="#d1d1d1">
    <inkscape:page
       x="0"
       y="0"
       inkscape:label="1"
       id="page1"
       width="552.29333"
       height="175.58667"
       margin="0"
       bleed="0" />
  </sodipodi:namedview>
  <g
     id="g1"
     inkscape:groupmode="layer"
     inkscape:label="1">
    <path
       id="path1"
       d="M 85.04042,89.29227 36.85092,46.77203"
       style="fill:none;stroke:#858585;stroke-width:0.54794;stroke-linecap:butt;stroke-linejoin:miter;stroke-miterlimit:10;stroke-dasharray:none;stroke-opacity:1"
       transform="matrix(1.3333333,0,0,-1.3333333,-19.045333,149.27733)" />
    <path
       id="path2"
       d="M 85.04042,89.29227 133.2299,46.77203"
       style="fill:none;stroke:#858585;stroke-width:0.54794;stroke-linecap:butt;stroke-linejoin:miter;stroke-miterlimit:10;stroke-dasharray:none;stroke-opacity:1"
       transform="matrix(1.3333333,0,0,-1.3333333,-19.045333,149.27733)" />
    <path
       id="path3"
       d="M 36.85092,46.77203 85.04042,2.83484"
       style="fill:none;stroke:#858585;stroke-width:0.54794;stroke-linecap:butt;stroke-linejoin:miter;stroke-miterlimit:10;stroke-dasharray:none;stroke-opacity:1"
       transform="matrix(1.3333333,0,0,-1.3333333,-19.045333,149.27733)" />
    <path
       id="path4"
       d="M 133.2299,46.77203 85.04042,2.83484"
       style="fill:none;stroke:#858585;stroke-width:0.54794;stroke-linecap:butt;stroke-linejoin:miter;stroke-miterlimit:10;stroke-dasharray:none;stroke-opacity:1"
       transform="matrix(1.3333333,0,0,-1.3333333,-19.045333,149.27733)" />
    <path
       id="path5"
       d="M 85.04042,89.29227 H 188.50609"
       style="fill:none;stroke:#858585;stroke-width:0.54794;stroke-linecap:butt;stroke-linejoin:miter;stroke-miterlimit:10;stroke-dasharray:none;stroke-opacity:1"
       transform="matrix(1.3333333,0,0,-1.3333333,-19.045333,149.27733)" />
    <path
       id="path6"
       d="M 85.04042,89.29227 36.85092,46.77203"
       style="fill:none;stroke:#000000;stroke-width:1.19553;stroke-linecap:butt;stroke-linejoin:miter;stroke-miterlimit:10;stroke-dasharray:none;stroke-opacity:1"
       transform="matrix(1.3333333,0,0,-1.3333333,-19.045333,149.27733)" />
    <path
       id="path7"
       d="M 36.85092,46.77203 85.04042,2.83484"
       style="fill:none;stroke:#000000;stroke-width:1.19553;stroke-linecap:butt;stroke-linejoin:miter;stroke-miterlimit:10;stroke-dasharray:none;stroke-opacity:1"
       transform="matrix(1.3333333,0,0,-1.3333333,-19.045333,149.27733)" />
    <path
       id="path8"
       d="M 85.04042,2.83484 133.2299,46.77203"
       style="fill:none;stroke:#000000;stroke-width:1.19553;stroke-linecap:butt;stroke-linejoin:miter;stroke-miterlimit:10;stroke-dasharray:none;stroke-opacity:1"
       transform="matrix(1.3333333,0,0,-1.3333333,-19.045333,149.27733)" />
    <path
       id="path9"
       d="M 85.04042,89.29227 H 188.50609"
       style="fill:none;stroke:#000000;stroke-width:1.19553;stroke-linecap:butt;stroke-linejoin:miter;stroke-miterlimit:10;stroke-dasharray:none;stroke-opacity:1"
       transform="matrix(1.3333333,0,0,-1.3333333,-19.045333,149.27733)" />
    <path
       id="path10"
       d="m 99.21382,89.29227 c 0,7.82785 -6.34555,14.1734 -14.1734,14.1734 -7.82785,0 -14.1734,-6.34555 -14.1734,-14.1734 0,-7.82785 6.34555,-14.1734 14.1734,-14.1734 7.82785,0 14.1734,6.34555 14.1734,14.1734 z"
       style="fill:#e0e0e0;fill-opacity:1;fill-rule:nonzero;stroke:#000000;stroke-width:0.84683;stroke-linecap:butt;stroke-linejoin:miter;stroke-miterlimit:10;stroke-dasharray:none;stroke-opacity:1"
       transform="matrix(1.3333333,0,0,-1.3333333,-19.045333,149.27733)" />
    <path
       id="path11"
       d="M 0.78473438,0.00128125 H 4.3941094 v -0.6796875 H 3.0698906 V -6.3854375 H 2.4487969 c -0.3632813,0.2109375 -0.7851563,0.3632813 -1.359375,0.46875 v 0.515625 h 1.171875 v 4.72265625 H 0.78473438 Z m 0,0"
       style="fill:#000000;fill-opacity:1;fill-rule:nonzero;stroke:none"
       aria-label="1"
       transform="matrix(1.3333333,0,0,1.3333333,91.024,34.482667)" />
    <path
       id="path12"
       d="m 51.02432,46.77203 c 0,7.82785 -6.34555,14.1734 -14.1734,14.1734 -7.82785,0 -14.17338,-6.34555 -14.17338,-14.1734 0,-7.82783 6.34553,-14.17338 14.17338,-14.17338 7.82785,0 14.1734,6.34555 14.1734,14.17338 z"
       style="fill:#e0e0e0;fill-opacity:1;fill-rule:nonzero;stroke:#000000;stroke-width:0.84683;stroke-linecap:butt;stroke-linejoin:miter;stroke-miterlimit:10;stroke-dasharray:none;stroke-opacity:1"
       transform="matrix(1.3333333,0,0,-1.3333333,-19.045333,149.27733)" />
    <path
       id="path13"
       d="M 0.39951563,-5.703125e-4 H 4.5245156 V -0.70369531 H 2.6729531 c -0.328125,0 -0.7382812,0.0351563 -1.078125,0.0585938 1.5117188,-1.58203129 2.625,-2.78906259 2.625,-3.99609369 0,-1.125 -0.75,-1.8632813 -1.921875,-1.8632813 -0.8320312,0 -1.40624997,0.375 -1.93359372,0.9609375 l 0.46875,0.4570313 c 0.37500002,-0.421875 0.83203122,-0.7617188 1.35937502,-0.7617188 0.8203125,0 1.21875,0.5273438 1.21875,1.2539063 0,1.0429687 -1.0898438,2.1914061 -3.01171877,4.11328119 z m 0,0"
       style="fill:#000000;fill-opacity:1;fill-rule:nonzero;stroke:none"
       aria-label="2"
       transform="matrix(1.3333333,0,0,1.3333333,26.772,91.254667)" />
    <path
       id="path14"
       d="m 147.4033,46.77203 c 0,7.82785 -6.34555,14.1734 -14.1734,14.1734 -7.82785,0 -14.1734,-6.34555 -14.1734,-14.1734 0,-7.82783 6.34555,-14.17338 14.1734,-14.17338 7.82785,0 14.1734,6.34555 14.1734,14.17338 z"
       style="fill:#e0e0e0;fill-opacity:1;fill-rule:nonzero;stroke:#000000;stroke-width:0.84683;stroke-linecap:butt;stroke-linejoin:miter;stroke-miterlimit:10;stroke-dasharray:none;stroke-opacity:1"
       transform="matrix(1.3333333,0,0,-1.3333333,-19.045333,149.27733)" />
    <path
       id="path15"
       d="m 2.3554766,0.11602344 c 1.171875,0 2.1210937,-0.6796875 2.1210937,-1.81640624 0,-0.8789063 -0.6210937,-1.453125 -1.3945312,-1.640625 v -0.035156 c 0.6914062,-0.2460937 1.171875,-0.7382812 1.171875,-1.5234375 0,-1.0195312 -0.8085938,-1.6054687 -1.921875,-1.6054687 -0.75,0 -1.33593754,0.3398437 -1.82812504,0.796875 L 0.93750781,-5.19257 C 1.3125078,-5.5792888 1.7695391,-5.84882 2.3086016,-5.84882 c 0.6914062,0 1.1015625,0.3984375 1.1015625,1.0195312 0,0.6679688 -0.4570313,1.1835938 -1.8164063,1.1835938 v 0.6445312 c 1.5234375,0 2.0507813,0.5039063 2.0507813,1.265625 0,0.7265625 -0.5507813,1.17187504 -1.3359375,1.17187504 -0.75,0 -1.2421875,-0.36328125 -1.62890629,-0.75000004 l -0.421875,0.52734379 c 0.43359375,0.46875 1.07812499,0.90234375 2.09765629,0.90234345 z m 0,0"
       style="fill:#000000;fill-opacity:1;fill-rule:nonzero;stroke:none"
       aria-label="3"
       transform="matrix(1.3333333,0,0,1.3333333,155.27733,91.177333)" />
    <path
       id="path16"
       d="m 99.21382,2.83484 c 0,7.82785 -6.34555,14.1734 -14.1734,14.1734 -7.82785,0 -14.1734,-6.34555 -14.1734,-14.1734 0,-7.82784 6.34555,-14.17339 14.1734,-14.17339 7.82785,0 14.1734,6.34555 14.1734,14.17339 z"
       style="fill:#e0e0e0;fill-opacity:1;fill-rule:nonzero;stroke:#000000;stroke-width:0.84683;stroke-linecap:butt;stroke-linejoin:miter;stroke-miterlimit:10;stroke-dasharray:none;stroke-opacity:1"
       transform="matrix(1.3333333,0,0,-1.3333333,-19.045333,149.27733)" />
    <path
       id="path17"
       d="M 3.0464531,0.00128906 H 3.8198906 V -1.7682422 h 0.8789063 v -0.65625 H 3.8198906 V -6.3854297 H 2.9175469 l -2.74218752,4.078125 v 0.5390625 H 3.0464531 Z m 0,-2.42578126 h -2.015625 l 1.5,-2.1796875 c 0.1875,-0.328125 0.3632813,-0.5976562 0.5273438,-0.9023437 h 0.035156 c -0.023437,0.328125 -0.046875,0.890625 -0.046875,1.21875 z m 0,0"
       style="fill:#000000;fill-opacity:1;fill-rule:nonzero;stroke:none"
       aria-label="4"
       transform="matrix(1.3333333,0,0,1.3333333,91.024,149.76)" />
    <path
       id="path18"
       d="m 202.67949,89.29227 c 0,7.82785 -6.34555,14.1734 -14.1734,14.1734 -7.82785,0 -14.1734,-6.34555 -14.1734,-14.1734 0,-7.82785 6.34555,-14.1734 14.1734,-14.1734 7.82785,0 14.1734,6.34555 14.1734,14.1734 z"
       style="fill:#c2c2c2;fill-opacity:1;fill-rule:nonzero;stroke:#000000;stroke-width:1.04608;stroke-linecap:butt;stroke-linejoin:miter;stroke-miterlimit:10;stroke-dasharray:none;stroke-opacity:1"
       transform="matrix(1.3333333,0,0,-1.3333333,-19.045333,149.27733)" />
    <path
       id="path19"
       d="m 2.3451016,0.117875 c 1.1132812,0 2.15625,-0.78515625 2.15625,-2.15625 0,-1.3828125 -0.890625,-2.0039062 -1.9804688,-2.0039062 -0.3984375,0 -0.6914062,0.09375 -0.984375,0.2578125 l 0.1640625,-1.8984375 h 2.4726563 v -0.703125 H 0.98572656 l -0.2109375,3.0703125 0.43359374,0.28125 c 0.375,-0.2578125 0.65625,-0.3984375 1.1015625,-0.3984375 0.8203125,0 1.359375,0.5273437 1.359375,1.4179687 0,0.890625 -0.6210937,1.453125 -1.3945312,1.453125 -0.7617188,0 -1.2539063,-0.3515625 -1.61718754,-0.7265625 L 0.24744531,-0.7493125 C 0.69275781,-0.31571875 1.3138516,0.117875 2.3451016,0.117875 Z m 0,0"
       style="fill:#000000;fill-opacity:1;fill-rule:nonzero;stroke:none"
       aria-label="5"
       transform="matrix(1.3333333,0,0,1.3333333,228.97867,34.405333)" />
    <path
       id="path20"
       d="M 418.34546,92.69392 H 230.3837 c -1.10048,0 -1.99256,-0.89209 -1.99256,-1.99255 V 1.14198 c 0,-1.10048 0.89208,-1.99254 1.99256,-1.99254 h 187.96176 c 1.10046,0 1.99255,0.89206 1.99255,1.99254 v 89.55939 c 0,1.10046 -0.89209,1.99255 -1.99255,1.99255 z"
       style="fill:#fcfcfc;fill-opacity:1;fill-rule:nonzero;stroke:#c7c7c7;stroke-width:0.3985;stroke-linecap:butt;stroke-linejoin:miter;stroke-miterlimit:10;stroke-dasharray:none;stroke-opacity:1"
       transform="matrix(1.3333333,0,0,-1.3333333,-19.045333,149.27733)" />
    <g
       id="g20"
       aria-label="방문할정점이없으면이전정점으로돌아간다.&#10;되돌아가기:3"
       transform="matrix(1.3333333,0,0,1.3333333,300.59467,62.653333)">
      <path
         id="path21"
         d="m 4.1594688,-2.3210547 c -1.6640625,0 -2.671875,0.5507813 -2.671875,1.50000001 0,0.94921875 1.0078125,1.51171875 2.671875,1.51171875 1.6523437,0 2.6484375,-0.5625 2.6484375,-1.51171875 0,-0.94921871 -0.9960938,-1.50000001 -2.6484375,-1.50000001 z m 0,0.5859375 c 1.1953125,0 1.921875,0.3398438 1.921875,0.91406251 0,0.57421875 -0.7265625,0.9140625 -1.921875,0.9140625 -1.2070313,0 -1.9335938,-0.33984375 -1.9335938,-0.9140625 0,-0.57421871 0.7265625,-0.91406251 1.9335938,-0.91406251 z M 0.78446875,-6.9030859 v 3.7382812 H 4.5344688 V -6.9030859 H 3.7961875 v 1.21875 H 1.5110313 v -1.21875 z m 0.72656255,1.8046875 h 2.2851562 v 1.3359375 H 1.5110313 Z m 4.4882812,-2.3203125 v 4.875 h 0.7382813 v -2.203125 H 7.9329063 V -5.3796484 H 6.7375938 v -2.0390625 z m 3.6445313,0.3867187 v 2.8476563 h 5.4375002 v -2.8476563 z m 4.7109372,0.5976563 v 1.6523437 h -3.984375 v -1.6523437 z m -5.6718747,3.1640625 v 0.609375 h 3.3632817 v 1.640625 h 0.738281 v -1.640625 h 3.257812 v -0.609375 z m 0.9375,1.4648437 v 2.32031251 h 5.6015627 v -0.609375 H 10.370406 V -1.8054297 Z m 9.7382817,-3.9375 c -1.171875,0 -1.945313,0.515625 -1.945313,1.3359375 0,0.8203125 0.773438,1.3242188 1.945313,1.3242188 1.171875,0 1.933593,-0.5039063 1.933593,-1.3242188 0,-0.8203125 -0.761718,-1.3359375 -1.933593,-1.3359375 z m 0,0.5507813 c 0.75,0 1.230468,0.3046875 1.230468,0.7851562 0,0.4804688 -0.480468,0.7734375 -1.230468,0.7734375 -0.738282,0 -1.230469,-0.2929687 -1.230469,-0.7734375 0,-0.4804687 0.492187,-0.7851562 1.230469,-0.7851562 z m 3.140625,-2.25 v 4.4882812 h 0.738281 v -1.9101562 h 1.207031 V -5.4851172 H 23.237594 V -7.4421484 Z M 18.1165,0.03441406 v 0.57421875 h 5.414063 V 0.03441406 h -4.6875 v -0.7734375 h 4.394531 V -2.5437109 h -5.144531 v 0.5507812 h 4.417968 v 0.7148438 H 18.1165 Z m 0.878906,-7.53515626 v 0.8203125 h -2.027343 v 0.5859375 h 4.78125 v -0.5859375 h -2.015625 v -0.8203125 z m 12.202149,5.1679688 c -1.675782,0 -2.695313,0.5625 -2.695313,1.51171871 0,0.94921875 1.019531,1.51171875 2.695313,1.51171875 1.675781,0 2.707031,-0.5625 2.707031,-1.51171875 0,-0.94921871 -1.03125,-1.51171871 -2.707031,-1.51171871 z m 0,0.5859375 c 1.21875,0 1.96875,0.3398437 1.96875,0.92578121 0,0.5859375 -0.75,0.92578125 -1.96875,0.92578125 -1.21875,0 -1.957032,-0.33984375 -1.957032,-0.92578125 0,-0.58593751 0.738282,-0.92578121 1.957032,-0.92578121 z m 1.933593,-5.671875 v 2.109375 h -1.59375 v 0.6210937 h 1.59375 v 2.109375 h 0.738282 v -4.8398437 z m -5.671875,0.5976562 v 0.609375 h 1.804688 v 0.28125 c 0,1.1484375 -0.820313,2.25 -2.027344,2.6835938 l 0.375,0.5976562 c 0.960938,-0.375 1.699219,-1.1132812 2.050781,-2.0625 0.351563,0.8320313 1.042969,1.5 1.945313,1.828125 l 0.375,-0.5859375 c -1.171875,-0.4101562 -1.96875,-1.4296875 -1.96875,-2.4726562 v -0.2695313 h 1.78125 v -0.609375 z m 9.398438,4.546875 V 0.58519531 H 42.11943 V -2.2741797 Z m 4.535156,0.5976563 v 1.65234371 H 37.595992 V -1.6765234 Z m -0.01172,-5.7421875 v 2.0273437 H 39.77568 v 0.6210938 h 1.605468 v 2.0976562 h 0.738282 v -4.7460937 z m -5.671875,0.5273437 v 0.609375 h 1.804688 v 0.2929688 c 0,1.1484375 -0.832031,2.2265625 -2.027344,2.6484375 l 0.375,0.5976562 c 0.960938,-0.3515625 1.699219,-1.0898437 2.039063,-2.015625 0.351562,0.8320313 1.054687,1.5 1.957031,1.8398438 l 0.375,-0.5976563 c -1.171875,-0.421875 -1.96875,-1.4296875 -1.96875,-2.4726562 v -0.2929688 h 1.78125 v -0.609375 z m 13.88379,-0.5273437 v 8.12109371 h 0.738281 V -7.4187109 Z M 46.054,-6.7858984 c -1.195312,0 -2.0625,1.1015625 -2.0625,2.8242187 0,1.734375 0.867188,2.8359375 2.0625,2.8359375 1.195313,0 2.0625,-1.1015625 2.0625,-2.8359375 0,-1.7226562 -0.867187,-2.8242187 -2.0625,-2.8242187 z m 0,0.6679687 c 0.796875,0 1.335938,0.84375 1.335938,2.15625 0,1.3125 -0.539063,2.1679688 -1.335938,2.1679688 -0.796875,0 -1.335937,-0.8554688 -1.335937,-2.1679688 0,-1.3125 0.539062,-2.15625 1.335937,-2.15625 z m 8.827148,3.46875 V 0.58519531 H 57.68193 V -2.6491797 h -0.679688 v 0.9960938 h -1.417969 v -0.9960938 z m 0.703125,1.5585938 h 1.417969 v 1.10156246 h -1.417969 z m 0.585938,-5.34375 c 0.796875,0 1.371094,0.5039062 1.371094,1.2421875 0,0.7382812 -0.574219,1.2539062 -1.371094,1.2539062 -0.808594,0 -1.382813,-0.515625 -1.382813,-1.2539062 0,-0.7382813 0.574219,-1.2421875 1.382813,-1.2421875 z m 3.082031,3.7265625 v 0.6796875 c 0,0.8203125 -0.492187,1.71093746 -1.464844,2.12109371 l 0.375,0.5625 c 0.703125,-0.3046875 1.207032,-0.8671875 1.464844,-1.5234375 0.234375,0.65625 0.726563,1.23046875 1.453125,1.5234375 l 0.386719,-0.5625 c -0.972656,-0.375 -1.476563,-1.25390621 -1.476563,-2.12109371 v -0.6796875 z m 0.632813,-4.7109375 v 1.9101562 h -1.664063 c -0.152344,-0.9257812 -0.972656,-1.546875 -2.050781,-1.546875 -1.21875,0 -2.085938,0.7617188 -2.085938,1.8632813 0,1.1132812 0.867188,1.875 2.085938,1.875 1.101562,0 1.921875,-0.6328125 2.0625,-1.5820313 h 1.652344 v 1.78125 h 0.738281 v -4.3007812 z m 5.976562,0.5273437 c -1.675781,0 -2.941406,0.8789063 -2.941406,2.2265625 0,1.359375 1.265625,2.2382813 2.941406,2.2382813 1.6875,0 2.953125,-0.8789063 2.953125,-2.2382813 0,-1.3476562 -1.265625,-2.2265625 -2.953125,-2.2265625 z m 0,0.5976563 c 1.289063,0 2.238281,0.6679687 2.238281,1.6289062 0,0.984375 -0.949218,1.6289063 -2.238281,1.6289063 -1.265625,0 -2.226562,-0.6445313 -2.226562,-1.6289063 0,-0.9609375 0.960937,-1.6289062 2.226562,-1.6289062 z m -3.65625,5.29687496 v 0.62109375 h 7.359375 V -0.99683594 Z M 73.80693,-6.1062109 v 2.6015625 h -2.25 v -2.6015625 z m 0.726562,0.7382812 h 1.851563 v 1.1132813 h -1.851563 z m 1.851563,-2.0390625 v 1.4179688 h -1.851563 v -0.7148438 h -3.703125 v 3.7851563 h 3.703125 v -0.7265625 h 1.851563 v 2.15625 h 0.738281 v -5.9179688 z m -4.464844,5.390625 v 2.53125001 h 5.390625 v -0.609375 H 72.658492 V -2.0163672 Z m 14.686523,-5.4023437 v 8.12109371 h 0.738282 V -7.4187109 Z m -3.539062,0.6328125 c -1.195313,0 -2.0625,1.1015625 -2.0625,2.8242187 0,1.734375 0.867187,2.8359375 2.0625,2.8359375 1.195312,0 2.0625,-1.1015625 2.0625,-2.8359375 0,-1.7226562 -0.867188,-2.8242187 -2.0625,-2.8242187 z m 0,0.6679687 c 0.796875,0 1.335937,0.84375 1.335937,2.15625 0,1.3125 -0.539062,2.1679688 -1.335937,2.1679688 -0.796875,0 -1.335938,-0.8554688 -1.335938,-2.1679688 0,-1.3125 0.539063,-2.15625 1.335938,-2.15625 z m 11.824219,-1.2890625 v 2.2382813 h -1.628907 v 0.609375 h 1.628907 v 3.09375 h 0.738281 v -5.9414063 z m -4.429688,5.4140625 v 2.50781251 h 5.402344 v -0.609375 H 91.200484 V -1.9929297 Z m -1.242187,-4.7578125 v 0.609375 h 1.804687 v 0.3984375 c 0,1.1484375 -0.832031,2.2265625 -2.027344,2.6484375 l 0.375,0.5976563 c 0.960938,-0.3515625 1.699219,-1.1015625 2.039063,-2.0273438 0.351562,0.84375 1.054687,1.5117188 1.957031,1.8398438 l 0.375,-0.5859375 c -1.171875,-0.4101563 -1.96875,-1.4414063 -1.96875,-2.4726563 v -0.3984375 h 1.78125 v -0.609375 z m 13.995114,4.4179688 c -1.67578,0 -2.69531,0.5625 -2.69531,1.51171871 0,0.94921875 1.01953,1.51171875 2.69531,1.51171875 1.67578,0 2.70703,-0.5625 2.70703,-1.51171875 0,-0.94921871 -1.03125,-1.51171871 -2.70703,-1.51171871 z m 0,0.5859375 c 1.21875,0 1.96875,0.3398437 1.96875,0.92578121 0,0.5859375 -0.75,0.92578125 -1.96875,0.92578125 -1.21875,0 -1.95703,-0.33984375 -1.95703,-0.92578125 0,-0.58593751 0.73828,-0.92578121 1.95703,-0.92578121 z m 1.9336,-5.671875 v 2.109375 h -1.59375 v 0.6210937 h 1.59375 v 2.109375 h 0.73828 v -4.8398437 z m -5.671878,0.5976562 v 0.609375 h 1.804688 v 0.28125 c 0,1.1484375 -0.82031,2.25 -2.027345,2.6835938 l 0.375,0.5976562 c 0.960935,-0.375 1.699215,-1.1132812 2.050785,-2.0625 0.35156,0.8320313 1.04297,1.5 1.94531,1.828125 l 0.375,-0.5859375 c -1.17188,-0.4101562 -1.96875,-1.4296875 -1.96875,-2.4726562 v -0.2695313 h 1.78125 v -0.609375 z m 9.398438,4.546875 v 2.85937501 h 5.26172 V -2.2741797 Z m 4.53516,0.5976563 v 1.65234371 h -3.79688 V -1.6765234 Z m -0.0117,-5.7421875 v 2.0273437 h -1.60547 v 0.6210938 h 1.60547 v 2.0976562 h 0.73828 v -4.7460937 z m -5.67188,0.5273437 v 0.609375 h 1.80469 v 0.2929688 c 0,1.1484375 -0.83203,2.2265625 -2.02734,2.6484375 l 0.375,0.5976562 c 0.96093,-0.3515625 1.69921,-1.0898437 2.03906,-2.015625 0.35156,0.8320313 1.05469,1.5 1.95703,1.8398438 l 0.375,-0.5976563 c -1.17188,-0.421875 -1.96875,-1.4296875 -1.96875,-2.4726562 v -0.2929688 h 1.78125 v -0.609375 z m 11.64551,0 c -1.67578,0 -2.94141,0.8789063 -2.94141,2.2265625 0,1.359375 1.26563,2.2382813 2.94141,2.2382813 1.6875,0 2.95312,-0.8789063 2.95312,-2.2382813 0,-1.3476562 -1.26562,-2.2265625 -2.95312,-2.2265625 z m 0,0.5976563 c 1.28906,0 2.23828,0.6679687 2.23828,1.6289062 0,0.984375 -0.94922,1.6289063 -2.23828,1.6289063 -1.26563,0 -2.22656,-0.6445313 -2.22656,-1.6289063 0,-0.9609375 0.96093,-1.6289062 2.22656,-1.6289062 z m -3.65625,5.29687496 v 0.62109375 h 7.35937 v -0.62109375 z m 9.16406,-2.05078126 v 0.609375 h 2.37891 v 1.51171876 h -3.29297 v 0.62109375 h 7.35937 v -0.62109375 h -3.32812 V -2.4382422 h 2.60156 v -0.609375 h -4.98047 v -1.3125 h 4.79297 v -2.4492187 h -5.54297 v 0.609375 h 4.80469 v 1.2539062 h -4.79297 z m 9.34278,-0.84375 v 0.5976563 h 7.32421 v -0.5976563 h -3.29296 V -4.6648047 H 140.68 v -0.5976562 h -4.7461 v -1.2304688 h 4.66407 v -0.609375 h -5.39063 v 2.4375 h 2.30859 v 0.7734375 z m 0.91406,3.91406251 v 0.57421875 h 5.71875 V 0.02269531 h -5.00391 v -0.80859375 h 4.75781 V -2.6140234 h -5.49609 v 0.5742187 h 4.76953 v 0.7148438 h -4.74609 z m 9.49219,-6.80859371 c -1.19532,0 -2.03907,1.1015625 -2.03907,2.8242187 0,1.734375 0.84375,2.8359375 2.03907,2.8359375 1.19531,0 2.03906,-1.1015625 2.03906,-2.8359375 0,-1.7226562 -0.84375,-2.8242187 -2.03906,-2.8242187 z m 0,0.6679687 c 0.78515,0 1.32421,0.84375 1.32421,2.15625 0,1.3125 -0.53906,2.1679688 -1.32421,2.1679688 -0.78516,0 -1.32422,-0.8554688 -1.32422,-2.1679688 0,-1.3125 0.53906,-2.15625 1.32422,-2.15625 z m 3.32812,-1.3007812 v 8.12109371 h 0.75 V -3.5515234 h 1.32422 v -0.6210938 h -1.32422 v -3.2460937 z m 8.30859,0 v 5.9296875 h 0.75 v -2.8359375 h 1.19532 v -0.6328125 h -1.19532 v -2.4609375 z m -5.20312,0.6328125 v 0.6210937 h 2.97656 c -0.15234,1.4179688 -1.38281,2.5546875 -3.30469,3.1523438 l 0.31641,0.5976562 c 2.33203,-0.7382812 3.78516,-2.2734375 3.78516,-4.3710937 z m 0.90234,4.6992187 v 2.60156251 h 5.40235 v -0.609375 h -4.66407 V -2.0866797 Z m 12.48926,-5.3320312 v 8.12109371 h 0.75 V -3.5983984 h 1.32422 v -0.6210938 h -1.32422 v -3.1992187 z m -5.13281,0.796875 v 5.3085937 h 0.63281 c 1.52344,0 2.58984,-0.046875 3.84375,-0.2695312 l -0.0937,-0.6445313 c -1.18359,0.2226563 -2.21484,0.28125 -3.64453,0.28125 v -4.0664062 h 3.02344 v -0.609375 z m 8.69531,6.73828121 c 0.32813,0 0.59766,-0.24609375 0.59766,-0.62109375 0,-0.375 -0.26953,-0.62109376 -0.59766,-0.62109376 -0.32812,0 -0.58594,0.24609376 -0.58594,0.62109376 0,0.375 0.25782,0.62109375 0.58594,0.62109375 z m 0,0"
         style="fill:#000000;fill-opacity:1;fill-rule:nonzero;stroke:none" />
      <path
         id="path22"
         d="M 6.0930625,7.4055078 V 15.737539 H 7.288375 V 7.4055078 Z M 0.538375,14.108633 c 1.546875,0 3.4101563,-0.01172 5.1914063,-0.304688 L 5.64775,12.936758 C 5.0149375,13.00707 4.3586875,13.053945 3.679,13.077383 V 11.741445 H 5.2610313 V 10.780508 H 2.1204063 V 9.1047266 h 3.09375 V 8.1555078 H 0.92509375 V 11.741445 H 2.4954063 v 1.371094 C 1.7688438,13.135977 1.054,13.135977 0.39775,13.135977 Z m 8.0742188,-3.328125 v 0.9375 h 7.5117192 v -0.9375 H 12.96025 v -0.527344 h 2.285156 V 9.3273828 H 10.733688 V 8.6359766 h 4.441406 v -0.9375 H 9.5500938 v 2.5546874 h 2.2265622 v 0.527344 z m 0.8671875,3.984375 v 0.902344 h 5.9531247 v -0.902344 h -4.769531 v -0.46875 H 15.21025 V 12.151602 H 9.4680625 v 0.890625 h 4.5585935 v 0.421875 H 9.4797813 Z M 19.089156,7.9914453 c -1.265625,0 -2.191406,1.1484375 -2.191406,2.9648437 0,1.816406 0.925781,2.976563 2.191406,2.976563 1.253907,0 2.179688,-1.160157 2.179688,-2.976563 0,-1.8164062 -0.925781,-2.9648437 -2.179688,-2.9648437 z m 0,1.078125 c 0.609375,0 1.03125,0.65625 1.03125,1.8867187 0,1.242188 -0.421875,1.898438 -1.03125,1.898438 -0.621093,0 -1.042968,-0.65625 -1.042968,-1.898438 0,-1.2304687 0.421875,-1.8867187 1.042968,-1.8867187 z m 3.070313,-1.640625 V 15.72582 H 23.3665 v -4.195312 h 1.195313 V 10.557852 H 23.3665 V 7.4289453 Z m 8.24707,-0.023437 v 8.3085937 h 1.207031 v -4.148437 h 1.160157 V 10.593008 H 31.61357 V 7.4055078 Z m -4.921875,0.8671875 v 0.9492188 h 2.707031 C 27.980758,11.073477 26.949508,12.385977 25.027633,13.38207 l 0.667969,0.902344 c 2.765625,-1.394531 3.714843,-3.527344 3.714843,-6.0117187 z m 13.59375,-0.8554687 v 8.2968749 h 1.195313 V 7.4172266 Z m -5.25,0.8554687 v 0.9492188 h 2.777344 c -0.1875,1.8398434 -1.113281,3.1406244 -3.222656,4.1601554 l 0.621093,0.9375 c 2.953125,-1.429687 3.808594,-3.492187 3.808594,-6.0468742 z m 0,0"
         style="fill:#000000;fill-opacity:1;fill-rule:nonzero;stroke:none" />
      <path
         id="path23"
         d="m 42.936813,11.436758 c 0.328125,0 0.597656,-0.257813 0.597656,-0.632813 0,-0.363281 -0.269531,-0.621093 -0.597656,-0.621093 -0.328125,0 -0.585938,0.257812 -0.585938,0.621093 0,0.375 0.257813,0.632813 0.585938,0.632813 z m 0,3.609375 c 0.328125,0 0.597656,-0.246094 0.597656,-0.621094 0,-0.375 -0.269531,-0.621094 -0.597656,-0.621094 -0.328125,0 -0.585938,0.246094 -0.585938,0.621094 0,0.375 0.257813,0.621094 0.585938,0.621094 z m 0,0"
         style="fill:#000000;fill-opacity:1;fill-rule:nonzero;stroke:none" />
      <path
         id="path24"
         d="m 51.166305,13.358633 c 0,-0.738281 -0.550782,-1.230469 -0.972657,-1.429688 0.65625,-0.457031 0.714844,-1.054687 0.714844,-1.289062 0,-0.6914064 -0.679687,-1.2890627 -1.699219,-1.2890627 -1.101562,0 -1.6875,0.4453125 -1.6875,1.0546877 0,0.269531 0.199219,0.421875 0.421875,0.421875 0.222657,0 0.410157,-0.175781 0.410157,-0.410156 0,-0.08203 -0.02344,-0.175782 -0.07031,-0.234375 0.292969,-0.2460942 0.878906,-0.2460942 0.925781,-0.2460942 0.632813,0 1.03125,0.3281252 1.03125,0.7031252 0,0.246094 -0.117187,0.609375 -0.457031,0.832031 -0.234375,0.152344 -0.398437,0.164063 -0.820312,0.199219 -0.351563,0.01172 -0.527344,0.03516 -0.527344,0.304687 0,0.292969 0.246094,0.292969 0.375,0.292969 h 0.375 c 0.925781,0 1.324219,0.621094 1.324219,1.078125 0,0.574219 -0.515625,1.101563 -1.289063,1.101563 -0.234375,0 -0.914062,-0.03516 -1.230469,-0.46875 l 0.02344,-0.02344 c 0.05859,-0.08203 0.05859,-0.105469 0.07031,-0.1875 0,0 0.01172,-0.03516 0.01172,-0.07031 0,-0.222657 -0.175781,-0.410157 -0.410156,-0.410157 -0.222656,0 -0.421875,0.128907 -0.421875,0.433594 0,0.796875 0.84375,1.300781 1.957031,1.300781 1.171875,0 1.945313,-0.808593 1.945313,-1.664062 z m 0,0"
         style="fill:#000000;fill-opacity:1;fill-rule:nonzero;stroke:none" />
    </g>
    <text
       id="text24"
       xml:space="preserve"
       transform="matrix(1.3333333,0,0,1.2698413,375.63333,82.557333)"><tspan
         id="tspan24"
         style="font-variant:normal;font-weight:normal;font-size:9.41472px;font-family:UnDotum;writing-mode:lr-tb;fill:#000000;fill-opacity:1;fill-rule:nonzero;stroke:none"
         x="0"
         y="0">→</tspan></text>
    <path
       id="path25"
       d="m 4.4401094,-1.7920234 c 0,-0.2929688 -0.2460938,-0.2929688 -0.375,-0.2929688 H 3.3971406 v -3.1289062 c 0,-0.3046875 -0.070312,-0.3867188 -0.3867187,-0.3867188 H 2.7526094 c -0.2226563,0 -0.28125,0.011719 -0.3984375,0.1992188 l -2.01562502,3.1875 c -0.0820313,0.1171875 -0.0820313,0.140625 -0.0820313,0.328125 0,0.2578125 0.0351563,0.375 0.375,0.375 H 2.8580781 v 0.92578121 H 2.3190156 c -0.1289062,0 -0.375,0 -0.375,0.29296875 0,0.2929687525 0.2460938,0.2929687525 0.375,0.2929687525 h 1.6171875 c 0.1289063,0 0.375,0 0.375,-0.2812500025 0,-0.3046875 -0.2460937,-0.3046875 -0.375,-0.3046875 H 3.3971406 V -1.5107734 h 0.6679688 c 0.1171875,0 0.375,0 0.375,-0.28125 z M 2.8580781,-2.0849922 H 0.93620313 L 2.8580781,-5.1435859 Z m 0,0"
       style="fill:#000000;fill-opacity:1;fill-rule:nonzero;stroke:none"
       aria-label="4"
       transform="matrix(1.3333333,0,0,1.3333333,394.46267,82.557333)" />
    <text
       id="text25"
       xml:space="preserve"
       transform="matrix(1.3333333,0,0,1.2698413,407.016,82.557333)"><tspan
         id="tspan25"
         style="font-variant:normal;font-weight:normal;font-size:9.41472px;font-family:UnDotum;writing-mode:lr-tb;fill:#000000;fill-opacity:1;fill-rule:nonzero;stroke:none"
         x="0"
         y="0">→</tspan></text>
    <path
       id="path26"
       d="m 4.2292812,-0.37405469 v -0.2578125 c 0,-0.17578125 0,-0.37500001 -0.328125,-0.37500001 -0.3398437,0 -0.3398437,0.18750001 -0.3398437,0.42187501 H 1.5456875 C 2.0261562,-0.99514844 3.0339687,-1.7920234 3.256625,-2.0029609 3.58475,-2.3193672 4.2292812,-2.9170234 4.2292812,-3.8076484 c 0,-1.0664063 -0.890625,-1.7695313 -2.0039062,-1.7695313 -1.0429688,0 -1.7578125,0.7148438 -1.7578125,1.4765625 0,0.3632813 0.28125,0.4570313 0.421875,0.4570313 0.1757812,0 0.4101562,-0.1523438 0.4101562,-0.421875 0,-0.1875 -0.070312,-0.2578125 -0.1171875,-0.3046875 0.1523438,-0.3867188 0.5507813,-0.6210938 1.0078125,-0.6210938 0.7148438,0 1.3710938,0.4101563 1.3710938,1.1835938 0,0.6210937 -0.4804688,1.1601562 -0.8320313,1.4648437 l -2.13281245,1.79296876 c -0.0703125,0.0585938 -0.12890625,0.1171875 -0.12890625,0.2578125 0,0.2929687525 0.234375,0.2929687525 0.38671875,0.2929687525 H 3.8542812 c 0.2929688,0 0.375,-0.0703125025 0.375,-0.3750000025 z m 0,0"
       style="fill:#000000;fill-opacity:1;fill-rule:nonzero;stroke:none"
       aria-label="2"
       transform="matrix(1.3333333,0,0,1.3333333,425.84533,82.557333)" />
    <text
       id="text26"
       xml:space="preserve"
       transform="matrix(1.3333333,0,0,1.2698413,438.39867,82.557333)"><tspan
         id="tspan26"
         style="font-variant:normal;font-weight:normal;font-size:9.41472px;font-family:UnDotum;writing-mode:lr-tb;fill:#000000;fill-opacity:1;fill-rule:nonzero;stroke:none"
         x="0"
         y="0">→</tspan></text>
    <path
       id="path27"
       d="m 3.9832969,-0.28030469 c 0,-0.3046875 -0.2226563,-0.3046875 -0.375,-0.3046875 H 2.8114219 V -5.2021797 c 0,-0.1289062 0,-0.375 -0.28125,-0.375 -0.1523438,0 -0.2226563,0.082031 -0.28125,0.1992188 -0.28125,0.6328125 -0.6328125,0.8671875 -0.9960938,0.9023437 -0.1289062,0 -0.32812497,0.023437 -0.32812497,0.2929688 0,0.1757812 0.09375,0.28125 0.31640627,0.28125 0.3515625,0 0.703125,-0.1875 0.9140625,-0.3632813 v 3.67968751 h -0.796875 c -0.1523438,0 -0.38671877,0 -0.38671877,0.3046875 0,0.2812500025 0.24609377,0.2812500025 0.38671877,0.2812500025 h 2.25 c 0.140625,0 0.375,0 0.375,-0.2812500025 z m 0,0"
       style="fill:#000000;fill-opacity:1;fill-rule:nonzero;stroke:none"
       aria-label="1"
       transform="matrix(1.3333333,0,0,1.3333333,457.228,82.557333)" />
    <g
       id="g27"
       aria-label="다음이동:1"
       transform="matrix(1.3333333,0,0,1.3333333,300.59467,102.46)">
      <path
         id="path28"
         d="M 5.6594687,-7.5227344 V 0.80929688 H 6.8665 V -3.4563281 h 1.1953125 v -0.984375 H 6.8665 V -7.5227344 Z M 0.679,-6.7492969 v 5.5664063 h 0.703125 c 1.4414062,0 2.578125,-0.046875 3.8320312,-0.2695313 l -0.1171875,-0.984375 c -1.0664062,0.1875 -2.0390625,0.2460938 -3.2226562,0.2695313 v -3.6210938 h 2.6835937 v -0.9609375 z m 11.683594,-0.5976562 c -1.828125,0 -3.0000003,0.609375 -3.0000003,1.6054687 0,1.0195313 1.1718753,1.6289063 3.0000003,1.6289063 1.839843,0 3.011718,-0.609375 3.011718,-1.6289063 0,-0.9960937 -1.171875,-1.6054687 -3.011718,-1.6054687 z m 0,0.9140625 c 1.136718,0 1.78125,0.234375 1.78125,0.6914062 0,0.4804688 -0.644532,0.703125 -1.78125,0.703125 -1.125,0 -1.769532,-0.2226562 -1.769532,-0.703125 0,-0.4570312 0.644532,-0.6914062 1.769532,-0.6914062 z m -2.871094,4.3125 v 2.82421873 h 5.730469 V -2.1203906 Z m 4.570312,0.9375 v 0.94921873 H 10.651656 V -1.1828906 Z M 8.6125937,-3.6438281 v 0.9375 h 7.5117183 v -0.9375 z M 24.591109,-7.5227344 v 8.33203128 h 1.195313 V -7.5227344 Z m -3.28125,0.5859375 c -1.253906,0 -2.179687,1.1484375 -2.179687,2.9648438 0,1.8164062 0.925781,2.97656248 2.179687,2.97656248 1.265625,0 2.191407,-1.16015628 2.191407,-2.97656248 0,-1.8164063 -0.925782,-2.9648438 -2.191407,-2.9648438 z m 0,1.078125 c 0.621094,0 1.042969,0.65625 1.042969,1.8867188 0,1.2421875 -0.421875,1.8984375 -1.042969,1.8984375 -0.621093,0 -1.03125,-0.65625 -1.03125,-1.8984375 0,-1.2304688 0.410157,-1.8867188 1.03125,-1.8867188 z m 9.574219,3.609375 c -1.792969,0 -2.882812,0.5507813 -2.882812,1.53515628 0,0.9609375 1.089843,1.5234375 2.882812,1.5234375 1.792969,0 2.882813,-0.5625 2.882813,-1.5234375 0,-0.98437498 -1.089844,-1.53515628 -2.882813,-1.53515628 z m 0,0.9023438 c 1.101563,0 1.675781,0.1992187 1.675781,0.63281248 0,0.421875 -0.574218,0.62109375 -1.675781,0.62109375 -1.113281,0 -1.675781,-0.19921875 -1.675781,-0.62109375 0,-0.43359378 0.5625,-0.63281248 1.675781,-0.63281248 z m -2.824219,-5.8007813 v 2.859375 h 2.25 v 0.6796875 h -3.152343 v 0.9492188 h 7.5 v -0.9492188 h -3.152344 v -0.6796875 h 2.308594 v -0.9375 h -4.570313 v -0.984375 h 4.523438 v -0.9375 z m 0,0"
         style="fill:#000000;fill-opacity:1;fill-rule:nonzero;stroke:none" />
      <path
         id="path29"
         d="m 36.722945,-3.4914844 c 0.328125,0 0.597657,-0.2578125 0.597657,-0.6328125 0,-0.3632812 -0.269532,-0.6210937 -0.597657,-0.6210937 -0.328125,0 -0.585937,0.2578125 -0.585937,0.6210937 0,0.375 0.257812,0.6328125 0.585937,0.6328125 z m 0,3.60937503 c 0.328125,0 0.597657,-0.24609375 0.597657,-0.62109375 0,-0.375 -0.269532,-0.62109378 -0.597657,-0.62109378 -0.328125,0 -0.585937,0.24609378 -0.585937,0.62109378 0,0.375 0.257812,0.62109375 0.585937,0.62109375 z m 0,0"
         style="fill:#000000;fill-opacity:1;fill-rule:nonzero;stroke:none" />
      <path
         id="path30"
         d="m 44.636031,-0.28054687 c 0,-0.3046875 -0.222656,-0.3046875 -0.375,-0.3046875 H 43.464156 V -5.2024219 c 0,-0.1289062 0,-0.375 -0.28125,-0.375 -0.152344,0 -0.222656,0.082031 -0.28125,0.1992188 -0.28125,0.6328125 -0.632812,0.8671875 -0.996094,0.9023437 -0.128906,0 -0.328125,0.023437 -0.328125,0.2929688 0,0.1757812 0.09375,0.28125 0.316407,0.28125 0.351562,0 0.703125,-0.1875 0.914062,-0.3632813 v 3.67968753 h -0.796875 c -0.152344,0 -0.386719,0 -0.386719,0.3046875 0,0.281249995 0.246094,0.281249995 0.386719,0.281249995 h 2.25 c 0.140625,0 0.375,0 0.375,-0.281249995 z m 0,0"
         style="fill:#000000;fill-opacity:1;fill-rule:nonzero;stroke:none" />
    </g>
    <text
       id="text30"
       xml:space="preserve"
       transform="matrix(1.3333333,0,0,1.2698413,367.34933,102.46)"><tspan
         id="tspan30"
         style="font-variant:normal;font-weight:normal;font-size:9.41472px;font-family:UnDotum;writing-mode:lr-tb;fill:#000000;fill-opacity:1;fill-rule:nonzero;stroke:none"
         x="0"
         y="0">→</tspan></text>
    <path
       id="path31"
       d="m 4.2312344,-1.6985156 c 0,-0.9140625 -0.703125,-1.7929688 -1.7578125,-1.7929688 -0.2929688,0 -0.65625,0.046875 -1.0429688,0.2460938 v -1.6523438 h 2.109375 c 0.1289063,0 0.375,0 0.375,-0.28125 0,-0.2929687 -0.234375,-0.2929687 -0.375,-0.2929687 h -2.390625 c -0.30468747,0 -0.38671872,0.070312 -0.38671872,0.4101562 v 2.3320313 c 0,0.1757812 0,0.4101562 0.31640622,0.4101562 0.1640625,0 0.1992188,-0.046875 0.28125,-0.140625 0.2578125,-0.3164062 0.6679688,-0.4453125 1.1015625,-0.4453125 0.7148438,0 1.1015625,0.6328125 1.1015625,1.2070313 0,0.6914062 -0.609375,1.21874998 -1.3476562,1.21874998 -0.3632813,0 -0.8203125,-0.15234375 -1.0195313,-0.52734378 l 0.011719,-0.011719 c 0.058594,-0.09375 0.070312,-0.1054688 0.082031,-0.2226563 0,0 0.011719,-0.023437 0.011719,-0.058594 0,-0.234375 -0.1757813,-0.4101563 -0.41015627,-0.4101563 -0.17578125,0 -0.421875,0.1054688 -0.421875,0.4453125 0,0.72656253 0.73828127,1.35937503 1.74609377,1.35937503 1.125,0 2.015625,-0.796875 2.0156248,-1.79296813 z m 0,0"
       style="fill:#000000;fill-opacity:1;fill-rule:nonzero;stroke:none"
       aria-label="5"
       transform="matrix(1.3333333,0,0,1.3333333,386.17867,102.46)" />
    <g
       id="g31"
       aria-label="방문순서:1"
       transform="matrix(1.3333333,0,0,1.3333333,300.596,122.36267)">
      <path
         id="path32"
         d="m 4.1848359,-2.4370391 c -1.7226562,0 -2.8125,0.609375 -2.8125,1.61718754 0,1.03125 1.0898438,1.62890625 2.8125,1.62890625 1.7226563,0 2.8125,-0.59765625 2.8125,-1.62890625 0,-1.00781254 -1.0898437,-1.61718754 -2.8125,-1.61718754 z m 0,0.9375 c 1.0664063,0 1.6289063,0.2226563 1.6289063,0.67968754 0,0.48046875 -0.5625,0.703125 -1.6289063,0.703125 -1.0546875,0 -1.6171875,-0.22265625 -1.6171875,-0.703125 0,-0.45703124 0.5625,-0.67968754 1.6171875,-0.67968754 z m -3.58593746,-5.484375 v 3.9140625 H 4.5949922 V -6.9839141 H 3.4113984 v 1.03125 H 1.7824922 v -1.03125 z m 1.18359376,1.9453125 h 1.6289062 v 1.03125 H 1.7824922 Z m 3.9257812,-2.4609375 v 4.8867188 h 1.1835938 v -1.9804688 h 1.1015625 v -0.984375 H 6.8918672 v -1.921875 z m 3.8173828,0.3398438 v 3.09375 h 5.6484378 v -3.09375 z M 13.9905,-6.2339141 v 1.21875 h -3.28125 v -1.21875 z m -5.3789063,2.8242188 v 0.9492187 h 3.2578123 v 1.3945313 h 1.195313 v -1.3945313 h 3.058593 v -0.9492187 z m 0.8671875,1.640625 v 2.42578124 h 5.8124998 v -0.9609375 H 10.674094 V -1.7690703 Z m 12.5507808,-5.53125 v 0.2695312 c 0,0.9375 -0.925781,1.9570313 -2.765625,2.2148438 l 0.445313,0.9375 c 1.394531,-0.2109375 2.414062,-0.8554688 2.941406,-1.7109375 0.515625,0.84375 1.535156,1.4765625 2.917969,1.6757812 l 0.457031,-0.9140625 c -1.839844,-0.2695312 -2.777344,-1.2890625 -2.777344,-2.203125 v -0.2695312 z m -3.140625,3.8789062 v 0.9375 h 3.257813 v 1.3945313 h 1.195312 v -1.3945313 h 3.058594 v -0.9375 z m 0.867188,1.640625 v 2.43750004 h 5.8125 v -0.9609375 H 20.951437 V -1.7807891 Z m 13.157227,-5.7421875 v 2.6132813 H 31.33132 v 0.9609375 h 1.582032 v 4.75781249 h 1.195312 V -7.5229766 Z m -3.84375,0.6445313 v 1.21875 c 0,1.5703125 -0.632813,3.1757812 -2.050782,3.8320312 l 0.75,0.94921879 c 0.925782,-0.45703129 1.546875,-1.32421879 1.898438,-2.39062499 0.339844,0.9960937 0.949219,1.8046875 1.851562,2.2617187 l 0.726563,-0.9609375 c -1.382813,-0.609375 -1.980469,-2.1328125 -1.980469,-3.6914062 v -1.21875 z m 0,0"
         style="fill:#000000;fill-opacity:1;fill-rule:nonzero;stroke:none" />
      <path
         id="path33"
         d="m 36.721945,-3.4917266 c 0.328125,0 0.597657,-0.2578125 0.597657,-0.6328125 0,-0.3632812 -0.269532,-0.6210937 -0.597657,-0.6210937 -0.328125,0 -0.585937,0.2578125 -0.585937,0.6210937 0,0.375 0.257812,0.6328125 0.585937,0.6328125 z m 0,3.60937504 c 0.328125,0 0.597657,-0.24609375 0.597657,-0.62109375 0,-0.375 -0.269532,-0.62109379 -0.597657,-0.62109379 -0.328125,0 -0.585937,0.24609379 -0.585937,0.62109379 0,0.375 0.257812,0.62109375 0.585937,0.62109375 z m 0,0"
         style="fill:#000000;fill-opacity:1;fill-rule:nonzero;stroke:none" />
      <path
         id="path34"
         d="m 44.635031,-0.28078906 c 0,-0.3046875 -0.222656,-0.3046875 -0.375,-0.3046875 H 43.463156 V -5.2026641 c 0,-0.1289062 0,-0.375 -0.28125,-0.375 -0.152344,0 -0.222656,0.082031 -0.28125,0.1992188 -0.28125,0.6328125 -0.632812,0.8671875 -0.996094,0.9023437 -0.128906,0 -0.328125,0.023437 -0.328125,0.2929688 0,0.1757812 0.09375,0.28125 0.316407,0.28125 0.351562,0 0.703125,-0.1875 0.914062,-0.3632813 v 3.67968754 h -0.796875 c -0.152344,0 -0.386719,0 -0.386719,0.3046875 0,0.2812499975 0.246094,0.2812499975 0.386719,0.2812499975 h 2.25 c 0.140625,0 0.375,0 0.375,-0.2812499975 z m 0,0"
         style="fill:#000000;fill-opacity:1;fill-rule:nonzero;stroke:none" />
    </g>
    <text
       id="text34"
       xml:space="preserve"
       transform="matrix(1.3333333,0,0,1.2698413,367.34933,122.36267)"><tspan
         id="tspan34"
         style="font-variant:normal;font-weight:normal;font-size:9.41472px;font-family:UnDotum;writing-mode:lr-tb;fill:#000000;fill-opacity:1;fill-rule:nonzero;stroke:none"
         x="0"
         y="0">→</tspan></text>
    <path
       id="path35"
       d="m 4.2312344,-0.37453906 v -0.2578125 c 0,-0.17578125 0,-0.37500004 -0.328125,-0.37500004 -0.3398438,0 -0.3398438,0.18750004 -0.3398438,0.42187504 h -2.015625 c 0.4804688,-0.41015625 1.4882813,-1.20703124 1.7109375,-1.41796874 0.328125,-0.3164063 0.9726563,-0.9140625 0.9726563,-1.8046875 0,-1.0664063 -0.890625,-1.7695313 -2.0039063,-1.7695313 -1.0429687,0 -1.75781247,0.7148438 -1.75781247,1.4765625 0,0.3632813 0.28125,0.4570313 0.421875,0.4570313 0.17578127,0 0.41015627,-0.1523438 0.41015627,-0.421875 0,-0.1875 -0.070312,-0.2578125 -0.1171875,-0.3046875 0.1523437,-0.3867188 0.5507812,-0.6210938 1.0078125,-0.6210938 0.7148437,0 1.3710937,0.4101563 1.3710937,1.1835938 0,0.6210937 -0.4804687,1.1601562 -0.8320312,1.4648437 l -2.13281252,1.79296879 c -0.0703125,0.0585938 -0.12890625,0.1171875 -0.12890625,0.2578125 0,0.2929687475 0.234375,0.2929687475 0.38671875,0.2929687475 H 3.8562344 c 0.2929687,0 0.375,-0.0703124975 0.375,-0.3749999975 z m 0,0"
       style="fill:#000000;fill-opacity:1;fill-rule:nonzero;stroke:none"
       aria-label="2"
       transform="matrix(1.3333333,0,0,1.3333333,386.17867,122.36267)" />
    <text
       id="text35"
       xml:space="preserve"
       transform="matrix(1.3333333,0,0,1.2698413,398.73067,122.36267)"><tspan
         id="tspan35"
         style="font-variant:normal;font-weight:normal;font-size:9.41472px;font-family:UnDotum;writing-mode:lr-tb;fill:#000000;fill-opacity:1;fill-rule:nonzero;stroke:none"
         x="0"
         y="0">→</tspan></text>
    <path
       id="path36"
       d="m 4.4403516,-1.7925078 c 0,-0.2929688 -0.2460938,-0.2929688 -0.375,-0.2929688 H 3.3973828 v -3.1289062 c 0,-0.3046875 -0.070312,-0.3867188 -0.3867187,-0.3867188 H 2.7528516 c -0.2226563,0 -0.28125,0.011719 -0.3984375,0.1992188 l -2.01562504,3.1875 c -0.0820313,0.1171875 -0.0820313,0.140625 -0.0820313,0.328125 0,0.2578125 0.0351563,0.375 0.375,0.375 H 2.8583203 v 0.92578124 H 2.3192578 c -0.1289062,0 -0.375,0 -0.375,0.29296875 0,0.2929687475 0.2460938,0.2929687475 0.375,0.2929687475 h 1.6171875 c 0.1289063,0 0.375,0 0.375,-0.2812499975 0,-0.3046875 -0.2460937,-0.3046875 -0.375,-0.3046875 H 3.3973828 V -1.5112578 h 0.6679688 c 0.1171875,0 0.375,0 0.375,-0.28125 z M 2.8583203,-2.0854766 H 0.93644531 L 2.8583203,-5.1440703 Z m 0,0"
       style="fill:#000000;fill-opacity:1;fill-rule:nonzero;stroke:none"
       aria-label="4"
       transform="matrix(1.3333333,0,0,1.3333333,417.56,122.36267)" />
    <text
       id="text36"
       xml:space="preserve"
       transform="matrix(1.3333333,0,0,1.2698413,430.11333,122.36267)"><tspan
         id="tspan36"
         style="font-variant:normal;font-weight:normal;font-size:9.41472px;font-family:UnDotum;writing-mode:lr-tb;fill:#000000;fill-opacity:1;fill-rule:nonzero;stroke:none"
         x="0"
         y="0">→</tspan></text>
    <path
       id="path37"
       d="m 4.2998359,-1.5698516 c 0,-0.7382812 -0.5507812,-1.2304687 -0.9726562,-1.4296875 0.65625,-0.4570312 0.7148437,-1.0546875 0.7148437,-1.2890625 0,-0.6914062 -0.6796875,-1.2890625 -1.6992187,-1.2890625 -1.1015625,0 -1.68750001,0.4453125 -1.68750001,1.0546875 0,0.2695313 0.19921875,0.421875 0.42187501,0.421875 0.2226562,0 0.4101562,-0.1757812 0.4101562,-0.4101562 0,-0.082031 -0.023437,-0.1757813 -0.070312,-0.234375 0.2929688,-0.2460938 0.8789063,-0.2460938 0.9257813,-0.2460938 0.6328125,0 1.03125,0.328125 1.03125,0.703125 0,0.2460938 -0.1171875,0.609375 -0.4570313,0.8320313 -0.234375,0.1523437 -0.3984375,0.1640625 -0.8203125,0.1992187 -0.3515625,0.011719 -0.5273437,0.035156 -0.5273437,0.3046875 0,0.2929688 0.2460937,0.2929688 0.375,0.2929688 h 0.375 c 0.9257812,0 1.3242187,0.6210937 1.3242187,1.078125 0,0.5742187 -0.515625,1.10156249 -1.2890625,1.10156249 -0.234375,0 -0.9140625,-0.0351563 -1.2304687,-0.46875 l 0.023437,-0.0234375 c 0.058594,-0.0820313 0.058594,-0.10546879 0.070312,-0.18749999 0,0 0.011719,-0.035156 0.011719,-0.070312 0,-0.2226563 -0.1757812,-0.4101563 -0.41015621,-0.4101563 -0.22265625,0 -0.421875,0.1289063 -0.421875,0.4335938 0,0.79687499 0.84375001,1.30078124 1.95703121,1.30078124 1.171875,0 1.9453125,-0.80859375 1.9453127,-1.66406304 z m 0,0"
       style="fill:#000000;fill-opacity:1;fill-rule:nonzero;stroke:none"
       aria-label="3"
       transform="matrix(1.3333333,0,0,1.3333333,448.94267,122.36267)" />
    <text
       id="text37"
       xml:space="preserve"
       transform="matrix(1.3333333,0,0,1.2698413,461.496,122.36267)"><tspan
         id="tspan37"
         style="font-variant:normal;font-weight:normal;font-size:9.41472px;font-family:UnDotum;writing-mode:lr-tb;fill:#000000;fill-opacity:1;fill-rule:nonzero;stroke:none"
         x="0"
         y="0">→</tspan></text>
    <path
       id="path38"
       d="m 4.2296328,-1.6987578 c 0,-0.9140625 -0.703125,-1.7929688 -1.7578125,-1.7929688 -0.2929687,0 -0.65625,0.046875 -1.0429687,0.2460938 v -1.6523438 h 2.109375 c 0.1289062,0 0.375,0 0.375,-0.28125 0,-0.2929687 -0.234375,-0.2929687 -0.375,-0.2929687 h -2.390625 c -0.30468754,0 -0.38671879,0.070312 -0.38671879,0.4101562 v 2.3320313 c 0,0.1757812 0,0.4101562 0.31640629,0.4101562 0.1640625,0 0.1992187,-0.046875 0.28125,-0.140625 0.2578125,-0.3164062 0.6679687,-0.4453125 1.1015625,-0.4453125 0.7148437,0 1.1015625,0.6328125 1.1015625,1.2070313 0,0.6914062 -0.609375,1.21874999 -1.3476563,1.21874999 -0.3632812,0 -0.8203125,-0.15234375 -1.0195312,-0.52734379 l 0.011719,-0.011719 c 0.058594,-0.09375 0.070312,-0.1054688 0.082031,-0.2226563 0,0 0.011719,-0.023437 0.011719,-0.058594 0,-0.234375 -0.1757812,-0.4101563 -0.41015624,-0.4101563 -0.17578125,0 -0.421875,0.1054688 -0.421875,0.4453125 0,0.72656254 0.73828124,1.35937504 1.74609374,1.35937504 1.125,0 2.015625,-0.796875 2.0156247,-1.79296814 z m 0,0"
       style="fill:#000000;fill-opacity:1;fill-rule:nonzero;stroke:none"
       aria-label="5"
       transform="matrix(1.3333333,0,0,1.3333333,480.32533,122.36267)" />
  </g>
</svg>
