<svg xmlns="http://www.w3.org/2000/svg" viewBox="0 0 500 190" role="img">
  <rect width="100%" height="100%" fill="#FFFFFF"/>

  <style>
    text{font-family:"Noto Serif CJK KR","NanumMyeongjo",serif;fill:#202124}
    .label{font-size:15px;font-weight:600}
    .small{font-size:13px}
    .tiny{font-size:11px;fill:#5F6368}
    .value{font-size:15px;font-weight:600;text-anchor:middle;dominant-baseline:middle}
    .edge{stroke:#9AA0A6;stroke-width:1.05;fill:none;stroke-linecap:round;stroke-linejoin:round}
    .edgeLight{stroke:#D3D6DA;stroke-width:0.9;fill:none;stroke-linecap:round;stroke-linejoin:round}
    .focus{stroke:#202124;stroke-width:2.2;fill:none;stroke-linecap:round;stroke-linejoin:round}
    .dash{stroke:#9AA0A6;stroke-width:1.0;stroke-dasharray:5 5;fill:none;stroke-linecap:round}
    .node{fill:#FFFFFF;stroke:#8A9096;stroke-width:1.05}
    .nodeFocus{fill:#FFFFFF;stroke:#202124;stroke-width:1.8}
    .nodeMuted{fill:#FAFAFA;stroke:#C6C9CD;stroke-width:0.95}
    .cell{fill:#FFFFFF;stroke:#A7ACB1;stroke-width:0.9}
    .cellFocus{fill:#F2F2F2;stroke:#202124;stroke-width:1.6}
    .cellMuted{fill:#FAFAFA;stroke:#D5D8DB;stroke-width:0.8}
    .tableHead{fill:#F4F4F4;stroke:#8A9096;stroke-width:1.0}
    .panel{fill:#FFFFFF;stroke:#D3D6DA;stroke-width:0.85}
    .scc{fill:#FFFFFF;stroke:#8A9096;stroke-width:1.0;stroke-dasharray:5 4}
  </style>
<rect x="36" y="34" width="94" height="34" class="tableHead"/><text x="83.0" y="55" class="small" text-anchor="middle">변수</text><rect x="130" y="34" width="92" height="34" class="tableHead"/><text x="176.0" y="55" class="small" text-anchor="middle">x</text><rect x="222" y="34" width="92" height="34" class="tableHead"/><text x="268.0" y="55" class="small" text-anchor="middle">¬x</text><rect x="314" y="34" width="172" height="34" class="tableHead"/><text x="400.0" y="55" class="small" text-anchor="middle">반대 정점</text><rect x="36" y="68" width="94" height="34" class="cell"/><text x="83.0" y="89" class="small" text-anchor="middle">x<tspan baseline-shift="sub" font-size="10">1</tspan></text><rect x="130" y="68" width="92" height="34" class="cell"/><text x="176.0" y="89" class="small" text-anchor="middle">1</text><rect x="222" y="68" width="92" height="34" class="cell"/><text x="268.0" y="89" class="small" text-anchor="middle">2</text><rect x="314" y="68" width="172" height="34" class="cell"/><text x="400.0" y="89" class="small" text-anchor="middle">1 ↔ 2</text><rect x="36" y="102" width="94" height="34" class="cell"/><text x="83.0" y="123" class="small" text-anchor="middle">x<tspan baseline-shift="sub" font-size="10">2</tspan></text><rect x="130" y="102" width="92" height="34" class="cell"/><text x="176.0" y="123" class="small" text-anchor="middle">3</text><rect x="222" y="102" width="92" height="34" class="cell"/><text x="268.0" y="123" class="small" text-anchor="middle">4</text><rect x="314" y="102" width="172" height="34" class="cell"/><text x="400.0" y="123" class="small" text-anchor="middle">3 ↔ 4</text><rect x="36" y="136" width="94" height="34" class="cell"/><text x="83.0" y="157" class="small" text-anchor="middle">x<tspan baseline-shift="sub" font-size="10">3</tspan></text><rect x="130" y="136" width="92" height="34" class="cell"/><text x="176.0" y="157" class="small" text-anchor="middle">5</text><rect x="222" y="136" width="92" height="34" class="cell"/><text x="268.0" y="157" class="small" text-anchor="middle">6</text><rect x="314" y="136" width="172" height="34" class="cell"/><text x="400.0" y="157" class="small" text-anchor="middle">5 ↔ 6</text>
</svg>
