<svg xmlns="http://www.w3.org/2000/svg" width="900" height="430" viewBox="0 0 900 430"><rect width="100%" height="100%" fill="white"/>
<style>
text { font-family: "Noto Sans CJK KR", "Malgun Gothic", Arial, sans-serif; fill: #202020; }
.label { font-size: 18px; }
.small { font-size: 14px; fill: #5a5a5a; }
.node { fill: white; stroke: #555; stroke-width: 1.8; }
.edge { fill: none; stroke: #777; stroke-width: 2.0; marker-end: url(#arrow); }
.focus { fill: none; stroke: #202020; stroke-width: 3.6; marker-end: url(#arrowBold); }
.scc { fill: none; stroke: #202020; stroke-width: 2.4; stroke-dasharray: 9 6; }
.cell { fill: white; stroke: #777; stroke-width: 1.2; }
.cellHi { fill: #e8e8e8; stroke: #202020; stroke-width: 1.6; }
</style>

<defs>
  <marker id="arrow" markerWidth="10" markerHeight="10" refX="8" refY="3" orient="auto">
    <path d="M0,0 L0,6 L9,3 z" fill="#777"/>
  </marker>
  <marker id="arrowBold" markerWidth="10" markerHeight="10" refX="8" refY="3" orient="auto">
    <path d="M0,0 L0,6 L9,3 z" fill="#202020"/>
  </marker>
</defs>
<path d="M 167.0 115.0 L 418.0 115.0" class="edge"/><path d="M 418.0 315.0 L 167.0 315.0" class="edge"/><path d="M 482.0 115.0 L 733.0 115.0" class="edge"/><path d="M 733.0 315.0 L 482.0 315.0" class="edge"/><path d="M 481 325 Q 607.5 405 734 325" class="edge"/><path d="M 734 105 Q 607.5 25 481 105" class="edge"/><circle cx="135" cy="115" r="31" class="node"/><text x="135" y="121" text-anchor="middle" class="label">1</text><circle cx="450" cy="115" r="31" class="node"/><text x="450" y="121" text-anchor="middle" class="label">2</text><circle cx="765" cy="115" r="31" class="node"/><text x="765" y="121" text-anchor="middle" class="label">3</text><circle cx="135" cy="315" r="31" class="node"/><text x="135" y="321" text-anchor="middle" class="label">¬1</text><circle cx="450" cy="315" r="31" class="node"/><text x="450" y="321" text-anchor="middle" class="label">¬2</text><circle cx="765" cy="315" r="31" class="node"/><text x="765" y="321" text-anchor="middle" class="label">¬3</text><rect x="395" y="62" width="425" height="106" rx="31" class="scc"/><rect x="395" y="262" width="425" height="106" rx="31" class="scc"/><circle cx="135" cy="115" r="48" class="scc"/><circle cx="135" cy="315" r="48" class="scc"/></svg>