<?xml version="1.0" encoding="UTF-8" standalone="no"?>
<!-- Created with Inkscape (http://www.inkscape.org/) -->

<svg
   version="1.1"
   id="svg1"
   width="481.21332"
   height="250.02667"
   viewBox="0 0 481.21332 250.02667"
   sodipodi:docname="1.pdf"
   xmlns:inkscape="http://www.inkscape.org/namespaces/inkscape"
   xmlns:sodipodi="http://sodipodi.sourceforge.net/DTD/sodipodi-0.dtd"
   xmlns="http://www.w3.org/2000/svg"
   xmlns:svg="http://www.w3.org/2000/svg">
  <defs
     id="defs1" />
  <sodipodi:namedview
     id="namedview1"
     pagecolor="#ffffff"
     bordercolor="#000000"
     borderopacity="0.25"
     inkscape:showpageshadow="2"
     inkscape:pageopacity="0.0"
     inkscape:pagecheckerboard="0"
     inkscape:deskcolor="#d1d1d1">
    <inkscape:page
       x="0"
       y="0"
       inkscape:label="1"
       id="page1"
       width="481.21332"
       height="250.02667"
       margin="0"
       bleed="0" />
  </sodipodi:namedview>
  <g
     id="g1"
     inkscape:groupmode="layer"
     inkscape:label="1">
    <g
       id="g2"
       aria-label="30이하의소수찾기"
       transform="matrix(1.3333333,0,0,1.3333333,80.170667,25.093333)">
      <path
         id="path2"
         d="m 2.731375,-3.1520313 c 0.8320313,-0.3164062 1.2304688,-0.9726562 1.2304688,-1.59375 0,-0.6914062 -0.7617188,-1.21875 -1.6875,-1.21875 -0.9375,0 -1.64062505,0.5273438 -1.64062505,1.2070313 0,0.2929687 0.19921875,0.46875 0.45703125,0.46875 0.2695313,0 0.4570313,-0.1875 0.4570313,-0.4570313 0,-0.3046875 -0.2226563,-0.4453125 -0.5273438,-0.4453125 0.234375,-0.375 0.7851563,-0.5507812 1.21875,-0.5507812 0.75,0 0.890625,0.5859375 0.890625,1.0078125 0,0.2695312 -0.058594,0.703125 -0.28125,1.0429687 -0.2695312,0.3984375 -0.5859375,0.421875 -0.84375,0.4335938 -0.234375,0.023437 -0.2460937,0.023437 -0.3164062,0.023437 -0.082031,0.011719 -0.1523438,0.011719 -0.1523438,0.1171875 0,0.1171875 0.070312,0.1171875 0.2226563,0.1171875 h 0.421875 c 0.7734375,0 1.125,0.6210937 1.125,1.4765625 0,1.1484375 -0.6210938,1.46484375 -1.078125,1.46484375 -0.1640625,0 -1.03125,-0.03515625 -1.4414063,-0.703125 0.328125,0.046875 0.5742188,-0.17578125 0.5742188,-0.48046875 0,-0.3046875 -0.2226563,-0.4921875 -0.4804688,-0.4921875 -0.22265625,0 -0.4921875,0.140625 -0.4921875,0.515625 0,0.796875 0.8320313,1.41796875 1.875,1.41796875 1.1132813,0 1.9570313,-0.80859375 1.9570313,-1.72265625 0,-0.7851563 -0.6210938,-1.4414063 -1.4882813,-1.6289058 z m 6.1113281,0.28125 c 0,-0.5976562 -0.023437,-1.3710937 -0.3398437,-2.0390625 -0.3984375,-0.84375 -1.078125,-1.0546875 -1.59375,-1.0546875 -0.5390625,0 -1.21875,0.2109375 -1.6171875,1.0664063 -0.2929688,0.6210937 -0.328125,1.3476562 -0.328125,2.0273437 0,0.5859375 0.011719,1.453125 0.3984375,2.1679688 0.421875,0.76171875 1.125,0.90234375 1.5351562,0.90234375 0.5859375,0 1.2421875,-0.2578125 1.6171875,-1.078125 C 8.7841094,-1.47625 8.8427031,-2.1559375 8.8427031,-2.8707813 Z M 6.9091094,-0.023125 c -0.2695313,0 -0.9140625,-0.12890625 -1.0898438,-1.1367188 -0.09375,-0.5390625 -0.09375,-1.3007812 -0.09375,-1.8164062 0,-0.609375 0,-1.3125 0.1171875,-1.8164063 0.1757813,-0.796875 0.75,-0.9492187 1.0546875,-0.9492187 0.3398438,0 0.9023438,0.1757812 1.078125,1.0078125 0.09375,0.4921875 0.09375,1.1953125 0.09375,1.7578125 0,0.5507812 0,1.3125 -0.09375,1.8398437 -0.1875,1.0195313 -0.84375,1.1132813 -1.0664062,1.1132813 z m 0,0"
         style="fill:#000000;fill-opacity:1;fill-rule:nonzero;stroke:none" />
      <path
         id="path3"
         d="m 17.3095,-7.523125 v 8.33203125 h 1.195313 V -7.523125 Z m -3.28125,0.5859375 c -1.253906,0 -2.179687,1.1484375 -2.179687,2.9648437 0,1.8164063 0.925781,2.97656255 2.179687,2.97656255 1.265625,0 2.191406,-1.16015625 2.191406,-2.97656255 0,-1.8164062 -0.925781,-2.9648437 -2.191406,-2.9648437 z m 0,1.078125 c 0.621094,0 1.042969,0.65625 1.042969,1.8867187 0,1.2421875 -0.421875,1.8984375 -1.042969,1.8984375 -0.621094,0 -1.03125,-0.65625 -1.03125,-1.8984375 0,-1.2304687 0.410156,-1.8867187 1.03125,-1.8867187 z m 8.238281,0.9960937 c -1.21875,0 -2.109375,0.8203125 -2.109375,1.9804688 0,1.1601562 0.890625,1.98046875 2.109375,1.98046875 1.195313,0 2.097657,-0.82031255 2.097657,-1.98046875 0,-1.1601563 -0.902344,-1.9804688 -2.097657,-1.9804688 z m 0,0.9726563 c 0.550782,0 0.949219,0.3632812 0.949219,1.0078125 0,0.6328125 -0.398437,1.0078125 -0.949219,1.0078125 -0.574218,0 -0.972656,-0.375 -0.972656,-1.0078125 0,-0.6445313 0.398438,-1.0078125 0.972656,-1.0078125 z m 2.917969,-3.609375 v 8.296875 h 1.195313 v -4.078125 h 1.183593 v -0.984375 h -1.183593 v -3.234375 z m -3.527344,0.1289062 v 1.0898438 h -1.828125 v 0.9492187 h 4.839844 v -0.9492187 h -1.816406 v -1.0898438 z m 9.125977,0.4101563 c -1.300781,0 -2.296875,0.8554687 -2.296875,2.0507812 0,1.1953125 0.996094,2.0390625 2.296875,2.0390625 1.300781,0 2.285156,-0.84375 2.285156,-2.0390625 0,-1.1953125 -0.984375,-2.0507812 -2.285156,-2.0507812 z m 0,1.03125 c 0.632812,0 1.113281,0.3632812 1.113281,1.0195312 0,0.6445313 -0.480469,1.03125 -1.113281,1.03125 -0.644531,0 -1.125,-0.3867187 -1.125,-1.03125 0,-0.65625 0.480469,-1.0195312 1.125,-1.0195312 z m 3.058594,-1.59375 v 8.33203125 h 1.195312 V -7.523125 Z m -5.554688,6.65625 c 1.441406,0 3.386719,-0.0234375 5.191406,-0.375 l -0.08203,-0.8671875 c -1.757812,0.2578125 -3.796875,0.2695312 -5.25,0.2695312 z m 13.239258,-2.1328125 v 1.8515625 h -3.128906 v 0.97265625 h 7.523437 V -1.148125 h -3.210937 v -1.8515625 z m -0.03516,-4.0429688 V -6.445 c 0,1.1484375 -1.03125,2.4257812 -2.917969,2.7304687 l 0.492187,0.984375 c 1.453125,-0.2695312 2.507813,-1.0429687 3.046875,-2.0625 0.539063,1.0195313 1.59375,1.7929688 3.058594,2.0625 l 0.492188,-0.984375 C 43.776297,-4.0192188 42.756766,-5.273125 42.756766,-6.445 v -0.5976563 z m 8.285156,-0.2226562 v 0.3867187 c 0,0.9726563 -0.949219,2.0507813 -2.847656,2.3203125 l 0.46875,0.9492188 c 1.441406,-0.2226563 2.484375,-0.890625 3.023437,-1.78125 0.527344,0.890625 1.570313,1.5585937 3.011719,1.78125 l 0.457031,-0.9492188 c -1.898437,-0.2695312 -2.847656,-1.359375 -2.847656,-2.3203125 v -0.3867187 z m -3.128906,4.265625 V -2.03875 h 3.128906 v 2.8359375 h 1.195312 V -2.03875 h 3.1875 v -0.9609375 z m 12.146484,-4.5351563 v 0.8203125 H 57.15325 v 0.9375 h 1.640625 c -0.02344,0.8789063 -0.609375,1.7578125 -1.933594,2.0976563 l 0.550782,0.9257812 c 0.972656,-0.2578125 1.628906,-0.8203125 2.003906,-1.5351562 0.363281,0.6445312 1.007812,1.1484375 1.945312,1.3945312 L 61.887625,-3.82 c -1.300781,-0.3164063 -1.886719,-1.1601563 -1.910156,-1.9570313 h 1.640625 v -0.9375 h -1.640625 v -0.8203125 z m 3.480469,0.035156 v 4.7226562 h 1.183594 V -4.6754688 H 64.5595 V -5.648125 h -1.101562 v -1.8515625 z m -4.265625,5.0742187 v 0.9375 h 2.085937 c -0.210937,0.60937505 -0.984375,1.1835938 -2.4375,1.35937505 L 58.079031,0.77375 c 1.335938,-0.1875 2.25,-0.69140625 2.71875,-1.39453125 0.480469,0.703125 1.394532,1.2421875 2.695313,1.40625 l 0.421875,-0.9140625 C 62.497,-0.304375 61.700125,-0.8903125 61.489188,-1.4879688 h 2.074218 v -0.9375 z M 70.89934,-7.5114066 v 8.29687505 h 1.195312 V -7.5114063 Z m -5.25,0.8554688 v 0.9492187 h 2.777344 c -0.1875,1.8398438 -1.113282,3.140625 -3.222657,4.1601563 l 0.621094,0.9375 C 68.77825,-2.03875 69.633719,-4.10125 69.633719,-6.6559375 Z m 0,0"
         style="fill:#000000;fill-opacity:1;fill-rule:nonzero;stroke:none" />
    </g>
    <path
       id="path4"
       d="M -14.17339,-14.17339 H 14.1734 V 14.1734 h -28.34679 z"
       style="fill:#ffffff;fill-opacity:1;fill-rule:nonzero;stroke:#737373;stroke-width:0.49814;stroke-linecap:butt;stroke-linejoin:miter;stroke-miterlimit:10;stroke-dasharray:none;stroke-opacity:1"
       transform="matrix(1.3333333,0,0,-1.3333333,29.856,61.429333)" />
    <path
       id="path5"
       d="M 0.78545313,-4.453125e-4 H 4.3948281 V -0.68013281 H 3.0706094 V -6.3871641 H 2.4495156 c -0.3632812,0.2109375 -0.7851562,0.3632813 -1.359375,0.46875 v 0.515625 h 1.171875 v 4.72265629 H 0.78545313 Z m 0,0"
       style="fill:#000000;fill-opacity:1;fill-rule:nonzero;stroke:none"
       aria-label="1"
       transform="matrix(1.3333333,0,0,1.3333333,26.538667,65.692)" />
    <path
       id="path6"
       d="M 15.59082,-14.17339 H 43.93761 V 14.1734 H 15.59082 Z"
       style="fill:#ffffff;fill-opacity:1;fill-rule:nonzero;stroke:#737373;stroke-width:0.49814;stroke-linecap:butt;stroke-linejoin:miter;stroke-miterlimit:10;stroke-dasharray:none;stroke-opacity:1"
       transform="matrix(1.3333333,0,0,-1.3333333,29.856,61.429333)" />
    <path
       id="path7"
       d="M 0.39742969,1.484375e-4 H 4.5224297 V -0.70297656 H 2.6708672 c -0.328125,0 -0.7382813,0.0351563 -1.078125,0.0585938 1.5117187,-1.58203124 2.625,-2.78906254 2.625,-3.99609374 0,-1.125 -0.75,-1.8632812 -1.921875,-1.8632812 -0.8320313,0 -1.40625001,0.375 -1.93359376,0.9609375 l 0.46875,0.4570312 C 1.2060234,-5.507664 1.6630547,-5.8475077 2.1903984,-5.8475077 c 0.8203125,0 1.21875,0.5273437 1.21875,1.2539062 0,1.0429687 -1.0898437,2.1914063 -3.01171871,4.11328124 z m 0,0"
       style="fill:#000000;fill-opacity:1;fill-rule:nonzero;stroke:none"
       aria-label="2"
       transform="matrix(1.3333333,0,0,1.3333333,66.224,65.769333)" />
    <path
       id="path8"
       d="M 45.35507,-14.17339 H 73.70186 V 14.1734 H 45.35507 Z"
       style="fill:#ffffff;fill-opacity:1;fill-rule:nonzero;stroke:#737373;stroke-width:0.49814;stroke-linecap:butt;stroke-linejoin:miter;stroke-miterlimit:10;stroke-dasharray:none;stroke-opacity:1"
       transform="matrix(1.3333333,0,0,-1.3333333,29.856,61.429333)" />
    <path
       id="path9"
       d="m 2.3560859,0.11674219 c 1.171875,0 2.1210938,-0.6796875 2.1210938,-1.81640629 0,-0.8789062 -0.6210938,-1.453125 -1.3945313,-1.640625 v -0.035156 c 0.6914063,-0.2460938 1.171875,-0.7382813 1.171875,-1.5234375 0,-1.0195313 -0.8085937,-1.6054688 -1.921875,-1.6054688 -0.75,0 -1.33593746,0.3398438 -1.82812496,0.796875 l 0.43359375,0.515625 c 0.37500001,-0.3867187 0.83203121,-0.65625 1.37109371,-0.65625 0.6914063,0 1.1015625,0.3984375 1.1015625,1.0195313 0,0.6679687 -0.4570312,1.1835937 -1.8164062,1.1835937 v 0.6445313 c 1.5234375,0 2.0507812,0.5039062 2.0507812,1.265625 0,0.7265625 -0.5507812,1.17187499 -1.3359375,1.17187499 -0.75,0 -1.2421875,-0.36328125 -1.62890621,-0.74999999 l -0.421875,0.52734374 c 0.43359375,0.46875 1.07812501,0.90234375 2.09765621,0.90234355 z m 0,0"
       style="fill:#000000;fill-opacity:1;fill-rule:nonzero;stroke:none"
       aria-label="3"
       transform="matrix(1.3333333,0,0,1.3333333,105.90933,65.692)" />
    <path
       id="path10"
       d="m 75.1193,-14.17339 h 28.34679 V 14.1734 H 75.1193 Z"
       style="fill:#ffffff;fill-opacity:1;fill-rule:nonzero;stroke:#737373;stroke-width:0.49814;stroke-linecap:butt;stroke-linejoin:miter;stroke-miterlimit:10;stroke-dasharray:none;stroke-opacity:1"
       transform="matrix(1.3333333,0,0,-1.3333333,29.856,61.429333)" />
    <path
       id="path11"
       d="M 3.0461875,-4.453125e-4 H 3.819625 V -1.7699766 h 0.8789063 v -0.65625 H 3.819625 V -6.3871641 H 2.9172813 l -2.74218755,4.078125 v 0.5390625 H 3.0461875 Z m 0,-2.4257812875 h -2.015625 l 1.5,-2.1796875 c 0.1875,-0.328125 0.3632813,-0.5976562 0.5273438,-0.9023437 h 0.035156 c -0.023437,0.328125 -0.046875,0.890625 -0.046875,1.21875 z m 0,0"
       style="fill:#000000;fill-opacity:1;fill-rule:nonzero;stroke:none"
       aria-label="4"
       transform="matrix(1.3333333,0,0,1.3333333,145.59467,65.692)" />
    <path
       id="path12"
       d="m 104.88353,-14.17339 h 28.34679 V 14.1734 h -28.34679 z"
       style="fill:#ffffff;fill-opacity:1;fill-rule:nonzero;stroke:#737373;stroke-width:0.49814;stroke-linecap:butt;stroke-linejoin:miter;stroke-miterlimit:10;stroke-dasharray:none;stroke-opacity:1"
       transform="matrix(1.3333333,0,0,-1.3333333,29.856,61.429333)" />
    <path
       id="path13"
       d="m 2.3436875,0.11714844 c 1.1132813,0 2.15625,-0.78515625 2.15625,-2.15625004 0,-1.3828125 -0.890625,-2.0039062 -1.9804687,-2.0039062 -0.3984375,0 -0.6914063,0.09375 -0.984375,0.2578125 l 0.1640625,-1.8984375 h 2.4726562 v -0.703125 h -3.1875 l -0.2109375,3.0703125 0.4335938,0.28125 c 0.375,-0.2578125 0.65625,-0.3984375 1.1015625,-0.3984375 0.8203125,0 1.359375,0.5273437 1.359375,1.4179687 0,0.890625 -0.6210938,1.45312504 -1.3945313,1.45312504 -0.7617187,0 -1.2539062,-0.3515625 -1.6171875,-0.72656254 l -0.41015625,0.53906254 c 0.4453125,0.43359375 1.06640625,0.8671875 2.09765625,0.8671875 z m 0,0"
       style="fill:#000000;fill-opacity:1;fill-rule:nonzero;stroke:none"
       aria-label="5"
       transform="matrix(1.3333333,0,0,1.3333333,185.28133,65.613333)" />
    <path
       id="path14"
       d="m 134.64778,-14.17339 h 28.34679 V 14.1734 h -28.34679 z"
       style="fill:#ffffff;fill-opacity:1;fill-rule:nonzero;stroke:#737373;stroke-width:0.49814;stroke-linecap:butt;stroke-linejoin:miter;stroke-miterlimit:10;stroke-dasharray:none;stroke-opacity:1"
       transform="matrix(1.3333333,0,0,-1.3333333,29.856,61.429333)" />
    <path
       id="path15"
       d="m 2.6822266,0.11674219 c 1.03125,0 1.8867187,-0.8203125 1.8867187,-2.03906249 0,-1.3125 -0.7148437,-1.9804688 -1.828125,-1.9804688 -0.515625,0 -1.078125,0.3046875 -1.4882812,0.8203125 0.035156,-2.0507812 0.7851562,-2.7421875 1.6992187,-2.7421875 0.3984375,0 0.796875,0.1875 1.0429688,0.5039063 l 0.4570312,-0.515625 c -0.3515625,-0.3867188 -0.84375,-0.6679688 -1.5351562,-0.6679688 -1.2773438,0 -2.43750004,0.984375 -2.43750004,3.5507813 0,2.05078124 0.94921874,3.07031249 2.20312504,3.07031249 z m -1.40625,-2.55468749 c 0.4335937,-0.6328125 0.9257812,-0.8554688 1.3359375,-0.8554688 0.796875,0 1.1953125,0.5273438 1.1953125,1.3710938 0,0.8320312 -0.4921875,1.39453124 -1.125,1.39453124 -0.8085938,0 -1.3007813,-0.66796874 -1.40625,-1.91015624 z m 0,0"
       style="fill:#000000;fill-opacity:1;fill-rule:nonzero;stroke:none"
       aria-label="6"
       transform="matrix(1.3333333,0,0,1.3333333,224.96667,65.692)" />
    <path
       id="path16"
       d="M -14.17339,-43.93762 H 14.1734 v 28.34679 h -28.34679 z"
       style="fill:#ffffff;fill-opacity:1;fill-rule:nonzero;stroke:#737373;stroke-width:0.49814;stroke-linecap:butt;stroke-linejoin:miter;stroke-miterlimit:10;stroke-dasharray:none;stroke-opacity:1"
       transform="matrix(1.3333333,0,0,-1.3333333,29.856,61.429333)" />
    <path
       id="path17"
       d="M 1.7698281,0.00117969 H 2.6252969 C 2.7307656,-2.4949141 3.0471719,-3.9480391 4.5588906,-5.8933516 V -6.3855391 H 0.43389063 v 0.703125 H 3.6331094 c -1.265625,1.7460938 -1.7460938,3.2695313 -1.8632813,5.68359379 z m 0,0"
       style="fill:#000000;fill-opacity:1;fill-rule:nonzero;stroke:none"
       aria-label="7"
       transform="matrix(1.3333333,0,0,1.3333333,26.538667,105.37733)" />
    <path
       id="path18"
       d="m 15.59082,-43.93762 h 28.34679 v 28.34679 H 15.59082 Z"
       style="fill:#ffffff;fill-opacity:1;fill-rule:nonzero;stroke:#737373;stroke-width:0.49814;stroke-linecap:butt;stroke-linejoin:miter;stroke-miterlimit:10;stroke-dasharray:none;stroke-opacity:1"
       transform="matrix(1.3333333,0,0,-1.3333333,29.856,61.429333)" />
    <path
       id="path19"
       d="m 2.5068047,0.11836719 c 1.2304687,0 2.0507812,-0.75 2.0507812,-1.69921879 0,-0.8554687 -0.5390625,-1.3125 -1.1015625,-1.6523437 v -0.035156 c 0.3867188,-0.2929687 0.8671875,-0.8671875 0.8671875,-1.546875 0,-0.984375 -0.6796875,-1.6875 -1.7929687,-1.6875 -1.0195313,0 -1.80468751,0.6445313 -1.80468751,1.6289063 0,0.6679687 0.41015621,1.1484375 0.89062501,1.4765625 v 0.035156 c -0.5976563,0.328125 -1.20703126,0.9023438 -1.20703126,1.734375 0,1.00781254 0.87890626,1.74609379 2.09765626,1.74609369 z M 2.9521172,-3.4792891 C 2.1903984,-3.7839766 1.4638359,-4.1003828 1.4638359,-4.8738203 c 0,-0.6210938 0.4453125,-1.0195313 1.0546875,-1.0195313 0.703125,0 1.1132813,0.4921875 1.1132813,1.125 0,0.4804688 -0.2460938,0.9023438 -0.6796875,1.2890625 z m -0.4335938,2.98828129 c -0.7851562,0 -1.3828125,-0.51562499 -1.3828125,-1.20703129 0,-0.609375 0.3867188,-1.0664062 0.9023438,-1.40625 0.9257812,0.375 1.7460937,0.65625 1.7460937,1.5 0,0.65625004 -0.5039062,1.11328129 -1.265625,1.11328129 z m 0,0"
       style="fill:#000000;fill-opacity:1;fill-rule:nonzero;stroke:none"
       aria-label="8"
       transform="matrix(1.3333333,0,0,1.3333333,66.224,105.37733)" />
    <path
       id="path20"
       d="m 45.35507,-43.93762 h 28.34679 v 28.34679 H 45.35507 Z"
       style="fill:#ffffff;fill-opacity:1;fill-rule:nonzero;stroke:#737373;stroke-width:0.49814;stroke-linecap:butt;stroke-linejoin:miter;stroke-miterlimit:10;stroke-dasharray:none;stroke-opacity:1"
       transform="matrix(1.3333333,0,0,-1.3333333,29.856,61.429333)" />
    <path
       id="path21"
       d="m 2.0513984,0.11836719 c 1.2773438,0 2.4375,-0.984375 2.4375,-3.55078129 0,-2.0507812 -0.9492187,-3.0703125 -2.2148437,-3.0703125 -1.0195313,0 -1.87500001,0.8203125 -1.87500001,2.0507813 0,1.3007812 0.71484371,1.9570312 1.81640621,1.9570312 0.5273438,0 1.0898438,-0.3046875 1.5,-0.8085937 -0.035156,2.0507812 -0.796875,2.74218749 -1.6875,2.74218749 -0.3984375,0 -0.796875,-0.1875 -1.05468746,-0.50390629 l -0.45703125,0.51562504 c 0.33984375,0.375 0.84375001,0.66796875 1.53515621,0.66796875 z M 3.7037422,-3.9597578 c -0.4453125,0.6210937 -0.9375,0.8671875 -1.3476563,0.8671875 -0.796875,0 -1.1953125,-0.5273438 -1.1953125,-1.359375 0,-0.8554688 0.4921875,-1.4179688 1.125,-1.4179688 0.8085938,0 1.3125,0.6679688 1.4179688,1.9101563 z m 0,0"
       style="fill:#000000;fill-opacity:1;fill-rule:nonzero;stroke:none"
       aria-label="9"
       transform="matrix(1.3333333,0,0,1.3333333,105.90933,105.37733)" />
    <path
       id="path22"
       d="m 75.1193,-43.93762 h 28.34679 v 28.34679 H 75.1193 Z"
       style="fill:#ffffff;fill-opacity:1;fill-rule:nonzero;stroke:#737373;stroke-width:0.49814;stroke-linecap:butt;stroke-linejoin:miter;stroke-miterlimit:10;stroke-dasharray:none;stroke-opacity:1"
       transform="matrix(1.3333333,0,0,-1.3333333,29.856,61.429333)" />
    <path
       id="path23"
       d="M 0.78516406,0.00117969 H 4.3945391 v -0.6796875 H 3.0703203 V -6.3855391 H 2.4492266 c -0.3632813,0.2109375 -0.7851563,0.3632813 -1.359375,0.46875 v 0.515625 h 1.171875 v 4.72265629 H 0.78516406 Z m 6.68847654,0.1171875 c 1.265625,0 2.0390625,-1.19531249 2.0390625,-3.33984379 0,-2.1328125 -0.7734375,-3.28125 -2.0390625,-3.28125 -1.2890625,0 -2.0507812,1.1484375 -2.0507812,3.28125 0,2.1445313 0.7617187,3.33984379 2.0507812,3.33984379 z m 0,-0.66796875 c -0.75,0 -1.2539062,-0.79687504 -1.2539062,-2.67187504 0,-1.875 0.5039062,-2.6367187 1.2539062,-2.6367187 0.7382813,0 1.2539063,0.7617187 1.2539063,2.6367187 0,1.875 -0.515625,2.67187504 -1.2539063,2.67187504 z m 0,0"
       style="fill:#000000;fill-opacity:1;fill-rule:nonzero;stroke:none"
       aria-label="10"
       transform="matrix(1.3333333,0,0,1.3333333,142.27733,105.37733)" />
    <path
       id="path24"
       d="m 104.88353,-43.93762 h 28.34679 v 28.34679 h -28.34679 z"
       style="fill:#ffffff;fill-opacity:1;fill-rule:nonzero;stroke:#737373;stroke-width:0.49814;stroke-linecap:butt;stroke-linejoin:miter;stroke-miterlimit:10;stroke-dasharray:none;stroke-opacity:1"
       transform="matrix(1.3333333,0,0,-1.3333333,29.856,61.429333)" />
    <path
       id="path25"
       d="M 0.78578906,0.00117969 H 4.3951641 v -0.6796875 H 3.0709453 V -6.3855391 H 2.4498516 c -0.3632813,0.2109375 -0.7851563,0.3632813 -1.359375,0.46875 v 0.515625 h 1.171875 v 4.72265629 H 0.78578906 Z m 4.97460934,0 h 3.609375 v -0.6796875 H 8.0455547 V -6.3855391 H 7.4244609 c -0.3632812,0.2109375 -0.7851562,0.3632813 -1.359375,0.46875 v 0.515625 h 1.171875 v 4.72265629 H 5.7603984 Z m 0,0"
       style="fill:#000000;fill-opacity:1;fill-rule:nonzero;stroke:none"
       aria-label="11"
       transform="matrix(1.3333333,0,0,1.3333333,181.964,105.37733)" />
    <path
       id="path26"
       d="m 134.64778,-43.93762 h 28.34679 v 28.34679 h -28.34679 z"
       style="fill:#ffffff;fill-opacity:1;fill-rule:nonzero;stroke:#737373;stroke-width:0.49814;stroke-linecap:butt;stroke-linejoin:miter;stroke-miterlimit:10;stroke-dasharray:none;stroke-opacity:1"
       transform="matrix(1.3333333,0,0,-1.3333333,29.856,61.429333)" />
    <path
       id="path27"
       d="M 0.78448438,-0.00115625 H 4.3938594 v -0.6796875 H 3.0696406 V -6.387875 H 2.4485469 c -0.3632813,0.2109375 -0.7851563,0.3632812 -1.359375,0.46875 V -5.4035 h 1.171875 v 4.72265625 H 0.78448438 Z m 4.59082032,0 h 4.125 v -0.703125 H 7.6487422 c -0.328125,0 -0.7382813,0.0351563 -1.078125,0.0585938 1.5117187,-1.58203125 2.625,-2.78906255 2.625,-3.99609375 0,-1.125 -0.75,-1.8632813 -1.921875,-1.8632813 -0.8320313,0 -1.40625,0.375 -1.9335938,0.9609375 l 0.46875,0.4570313 c 0.375,-0.421875 0.8320313,-0.7617188 1.359375,-0.7617188 0.8203125,0 1.21875,0.5273438 1.21875,1.2539063 0,1.0429687 -1.0898437,2.1914062 -3.0117187,4.11328125 z m 0,0"
       style="fill:#000000;fill-opacity:1;fill-rule:nonzero;stroke:none"
       aria-label="12"
       transform="matrix(1.3333333,0,0,1.3333333,221.64933,105.45467)" />
    <path
       id="path28"
       d="M -14.17339,-73.70186 H 14.1734 v 28.34679 h -28.34679 z"
       style="fill:#ffffff;fill-opacity:1;fill-rule:nonzero;stroke:#737373;stroke-width:0.49814;stroke-linecap:butt;stroke-linejoin:miter;stroke-miterlimit:10;stroke-dasharray:none;stroke-opacity:1"
       transform="matrix(1.3333333,0,0,-1.3333333,29.856,61.429333)" />
    <path
       id="path29"
       d="M 0.78614844,-1.25e-4 H 4.3955234 V -0.6798125 H 3.0713047 V -6.3868438 H 2.4502109 c -0.3632812,0.2109375 -0.7851562,0.3632813 -1.359375,0.46875 v 0.515625 h 1.171875 v 4.7226563 H 0.78614844 Z M 7.3310703,0.1170625 c 1.171875,0 2.1210938,-0.6796875 2.1210938,-1.8164063 0,-0.8789062 -0.6210938,-1.453125 -1.3945313,-1.640625 v -0.035156 c 0.6914063,-0.2460938 1.171875,-0.7382813 1.171875,-1.5234375 0,-1.0195313 -0.8085937,-1.6054688 -1.921875,-1.6054688 -0.75,0 -1.3359375,0.3398438 -1.828125,0.796875 l 0.4335938,0.515625 c 0.375,-0.3867187 0.8320312,-0.65625 1.3710937,-0.65625 0.6914063,0 1.1015625,0.3984375 1.1015625,1.0195313 0,0.6679687 -0.4570312,1.1835937 -1.8164062,1.1835937 v 0.6445313 c 1.5234375,0 2.0507812,0.5039062 2.0507812,1.265625 0,0.7265625 -0.5507812,1.171875 -1.3359375,1.171875 -0.75,0 -1.2421875,-0.36328125 -1.6289062,-0.75 l -0.421875,0.52734375 c 0.4335937,0.46875 1.078125,0.90234375 2.0976562,0.90234355 z m 0,0"
       style="fill:#000000;fill-opacity:1;fill-rule:nonzero;stroke:none"
       aria-label="13"
       transform="matrix(1.3333333,0,0,1.3333333,23.221333,145.06267)" />
    <path
       id="path30"
       d="m 15.59082,-73.70186 h 28.34679 v 28.34679 H 15.59082 Z"
       style="fill:#ffffff;fill-opacity:1;fill-rule:nonzero;stroke:#737373;stroke-width:0.49814;stroke-linecap:butt;stroke-linejoin:miter;stroke-miterlimit:10;stroke-dasharray:none;stroke-opacity:1"
       transform="matrix(1.3333333,0,0,-1.3333333,29.856,61.429333)" />
    <path
       id="path31"
       d="M 0.78484375,-1.25e-4 H 4.3942188 V -0.6798125 H 3.07 V -6.3868438 H 2.4489063 c -0.3632813,0.2109375 -0.7851563,0.3632813 -1.359375,0.46875 v 0.515625 h 1.171875 v 4.7226563 H 0.78484375 Z m 7.23925785,0 h 0.7734375 v -1.7695313 h 0.8789062 v -0.65625 H 8.7975391 V -6.3868438 H 7.8951953 l -2.7421875,4.078125 v 0.5390625 h 2.8710938 z m 0,-2.4257813 h -2.015625 l 1.5,-2.1796875 c 0.1875,-0.328125 0.3632812,-0.5976562 0.5273437,-0.9023437 h 0.035156 c -0.023437,0.328125 -0.046875,0.890625 -0.046875,1.21875 z m 0,0"
       style="fill:#000000;fill-opacity:1;fill-rule:nonzero;stroke:none"
       aria-label="14"
       transform="matrix(1.3333333,0,0,1.3333333,62.906667,145.06267)" />
    <path
       id="path32"
       d="m 45.35507,-73.70186 h 28.34679 v 28.34679 H 45.35507 Z"
       style="fill:#ffffff;fill-opacity:1;fill-rule:nonzero;stroke:#737373;stroke-width:0.49814;stroke-linecap:butt;stroke-linejoin:miter;stroke-miterlimit:10;stroke-dasharray:none;stroke-opacity:1"
       transform="matrix(1.3333333,0,0,-1.3333333,29.856,61.429333)" />
    <path
       id="path33"
       d="M 0.78646875,-7.1875e-4 H 4.3958438 v -0.6796875 H 3.071625 V -6.3874375 H 2.4505313 C 2.08725,-6.1765 1.665375,-6.0241563 1.0911563,-5.9186875 v 0.515625 h 1.171875 v 4.72265625 H 0.78646875 Z m 6.53320315,0.1171875 c 1.1132812,0 2.15625,-0.78515625 2.15625,-2.15625005 0,-1.3828125 -0.890625,-2.0039062 -1.9804688,-2.0039062 -0.3984375,0 -0.6914062,0.09375 -0.984375,0.2578125 l 0.1640625,-1.8984375 h 2.4726563 v -0.703125 h -3.1875 l -0.2109375,3.0703125 0.4335937,0.28125 c 0.375,-0.2578125 0.65625,-0.3984375 1.1015625,-0.3984375 0.8203125,0 1.359375,0.5273437 1.359375,1.4179687 0,0.890625 -0.6210937,1.45312505 -1.3945312,1.45312505 -0.7617188,0 -1.2539063,-0.3515625 -1.6171875,-0.72656255 l -0.4101563,0.53906255 c 0.4453125,0.43359375 1.0664063,0.8671875 2.0976563,0.8671875 z m 0,0"
       style="fill:#000000;fill-opacity:1;fill-rule:nonzero;stroke:none"
       aria-label="15"
       transform="matrix(1.3333333,0,0,1.3333333,102.592,144.98533)" />
    <path
       id="path34"
       d="m 75.1193,-73.70186 h 28.34679 v 28.34679 H 75.1193 Z"
       style="fill:#ffffff;fill-opacity:1;fill-rule:nonzero;stroke:#737373;stroke-width:0.49814;stroke-linecap:butt;stroke-linejoin:miter;stroke-miterlimit:10;stroke-dasharray:none;stroke-opacity:1"
       transform="matrix(1.3333333,0,0,-1.3333333,29.856,61.429333)" />
    <path
       id="path35"
       d="M 0.78516406,-1.25e-4 H 4.3945391 V -0.6798125 H 3.0703203 V -6.3868438 H 2.4492266 c -0.3632813,0.2109375 -0.7851563,0.3632813 -1.359375,0.46875 v 0.515625 h 1.171875 v 4.7226563 H 0.78516406 Z M 7.6611406,0.1170625 c 1.03125,0 1.8867188,-0.8203125 1.8867188,-2.0390625 0,-1.3125 -0.7148438,-1.9804688 -1.828125,-1.9804688 -0.515625,0 -1.078125,0.3046875 -1.4882813,0.8203125 0.035156,-2.0507812 0.7851563,-2.7421875 1.6992188,-2.7421875 0.3984375,0 0.796875,0.1875 1.0429687,0.5039063 l 0.4570313,-0.515625 c -0.3515625,-0.3867188 -0.84375,-0.6679688 -1.5351563,-0.6679688 -1.2773437,0 -2.4375,0.984375 -2.4375,3.5507813 0,2.05078125 0.9492188,3.0703125 2.203125,3.0703125 z m -1.40625,-2.5546875 c 0.4335938,-0.6328125 0.9257813,-0.8554688 1.3359375,-0.8554688 0.796875,0 1.1953125,0.5273438 1.1953125,1.3710938 0,0.8320312 -0.4921875,1.39453125 -1.125,1.39453125 -0.8085937,0 -1.3007812,-0.66796875 -1.40625,-1.91015625 z m 0,0"
       style="fill:#000000;fill-opacity:1;fill-rule:nonzero;stroke:none"
       aria-label="16"
       transform="matrix(1.3333333,0,0,1.3333333,142.27733,145.06267)" />
    <path
       id="path36"
       d="m 104.88353,-73.70186 h 28.34679 v 28.34679 h -28.34679 z"
       style="fill:#ffffff;fill-opacity:1;fill-rule:nonzero;stroke:#737373;stroke-width:0.49814;stroke-linecap:butt;stroke-linejoin:miter;stroke-miterlimit:10;stroke-dasharray:none;stroke-opacity:1"
       transform="matrix(1.3333333,0,0,-1.3333333,29.856,61.429333)" />
    <path
       id="path37"
       d="M 0.78578906,-1.25e-4 H 4.3951641 V -0.6798125 H 3.0709453 V -6.3868438 H 2.4498516 c -0.3632813,0.2109375 -0.7851563,0.3632813 -1.359375,0.46875 v 0.515625 h 1.171875 v 4.7226563 H 0.78578906 Z m 5.95898434,0 h 0.8554688 c 0.1054687,-2.4960938 0.421875,-3.9492188 1.9335937,-5.8945313 v -0.4921875 h -4.125 v 0.703125 H 8.6080547 C 7.3424297,-3.937625 6.8619609,-2.4141875 6.7447734,-1.25e-4 Z m 0,0"
       style="fill:#000000;fill-opacity:1;fill-rule:nonzero;stroke:none"
       aria-label="17"
       transform="matrix(1.3333333,0,0,1.3333333,181.964,145.06267)" />
    <path
       id="path38"
       d="m 134.64778,-73.70186 h 28.34679 v 28.34679 h -28.34679 z"
       style="fill:#ffffff;fill-opacity:1;fill-rule:nonzero;stroke:#737373;stroke-width:0.49814;stroke-linecap:butt;stroke-linejoin:miter;stroke-miterlimit:10;stroke-dasharray:none;stroke-opacity:1"
       transform="matrix(1.3333333,0,0,-1.3333333,29.856,61.429333)" />
    <path
       id="path39"
       d="M 0.78448438,-1.25e-4 H 4.3938594 V -0.6798125 H 3.0696406 V -6.3868438 H 2.4485469 c -0.3632813,0.2109375 -0.7851563,0.3632813 -1.359375,0.46875 v 0.515625 h 1.171875 v 4.7226563 H 0.78448438 Z M 7.4846797,0.1170625 c 1.2304687,0 2.0507812,-0.75 2.0507812,-1.6992188 0,-0.8554687 -0.5390625,-1.3125 -1.1015625,-1.6523437 v -0.035156 c 0.3867188,-0.2929687 0.8671875,-0.8671875 0.8671875,-1.546875 0,-0.984375 -0.6796875,-1.6875 -1.7929687,-1.6875 -1.0195313,0 -1.8046875,0.6445313 -1.8046875,1.6289063 0,0.6679687 0.4101562,1.1484375 0.890625,1.4765625 v 0.035156 c -0.5976563,0.328125 -1.2070313,0.9023438 -1.2070313,1.734375 0,1.00781255 0.8789063,1.7460938 2.0976563,1.7460937 z M 7.9299922,-3.4805938 C 7.1682734,-3.7852813 6.4417109,-4.1016875 6.4417109,-4.875125 c 0,-0.6210938 0.4453125,-1.0195313 1.0546875,-1.0195313 0.703125,0 1.1132813,0.4921875 1.1132813,1.125 0,0.4804688 -0.2460938,0.9023438 -0.6796875,1.2890625 z m -0.4335938,2.9882813 c -0.7851562,0 -1.3828125,-0.515625 -1.3828125,-1.2070313 0,-0.609375 0.3867188,-1.0664062 0.9023438,-1.40625 0.9257812,0.375 1.7460937,0.65625 1.7460937,1.5 0,0.65625005 -0.5039062,1.1132813 -1.265625,1.1132813 z m 0,0"
       style="fill:#000000;fill-opacity:1;fill-rule:nonzero;stroke:none"
       aria-label="18"
       transform="matrix(1.3333333,0,0,1.3333333,221.64933,145.06267)" />
    <path
       id="path40"
       d="M -14.17339,-103.46608 H 14.1734 v 28.34679 h -28.34679 z"
       style="fill:#ffffff;fill-opacity:1;fill-rule:nonzero;stroke:#737373;stroke-width:0.49814;stroke-linecap:butt;stroke-linejoin:miter;stroke-miterlimit:10;stroke-dasharray:none;stroke-opacity:1"
       transform="matrix(1.3333333,0,0,-1.3333333,29.856,61.429333)" />
    <path
       id="path41"
       d="M 0.78614844,-0.00142969 H 4.3955234 v -0.6796875 H 3.0713047 V -6.3881484 H 2.4502109 c -0.3632812,0.2109375 -0.7851562,0.3632812 -1.359375,0.46875 v 0.515625 h 1.171875 v 4.72265621 H 0.78614844 Z m 6.24023436,0.1171875 c 1.2773438,0 2.4375,-0.984375 2.4375,-3.55078121 0,-2.0507813 -0.9492187,-3.0703125 -2.2148437,-3.0703125 -1.0195313,0 -1.875,0.8203125 -1.875,2.0507812 0,1.3007813 0.7148437,1.9570313 1.8164062,1.9570313 0.5273438,0 1.0898438,-0.3046875 1.5,-0.8085938 -0.035156,2.0507813 -0.796875,2.74218751 -1.6875,2.74218751 -0.3984375,0 -0.796875,-0.1875 -1.0546875,-0.50390621 l -0.4570312,0.51562496 c 0.3398437,0.375 0.84375,0.66796875 1.5351562,0.66796875 z M 8.6787266,-3.9623672 c -0.4453125,0.6210938 -0.9375,0.8671875 -1.3476563,0.8671875 -0.796875,0 -1.1953125,-0.5273437 -1.1953125,-1.359375 0,-0.8554687 0.4921875,-1.4179687 1.125,-1.4179687 0.8085938,0 1.3125,0.6679687 1.4179688,1.9101562 z m 0,0"
       style="fill:#000000;fill-opacity:1;fill-rule:nonzero;stroke:none"
       aria-label="19"
       transform="matrix(1.3333333,0,0,1.3333333,23.221333,184.748)" />
    <path
       id="path42"
       d="m 15.59082,-103.46608 h 28.34679 v 28.34679 H 15.59082 Z"
       style="fill:#ffffff;fill-opacity:1;fill-rule:nonzero;stroke:#737373;stroke-width:0.49814;stroke-linecap:butt;stroke-linejoin:miter;stroke-miterlimit:10;stroke-dasharray:none;stroke-opacity:1"
       transform="matrix(1.3333333,0,0,-1.3333333,29.856,61.429333)" />
    <path
       id="path43"
       d="m 0.398125,-0.00142969 h 4.125 v -0.703125 H 2.6715625 c -0.328125,0 -0.7382812,0.0351563 -1.078125,0.0585938 1.5117188,-1.58203131 2.625,-2.78906241 2.625,-3.99609381 0,-1.125 -0.75,-1.8632812 -1.921875,-1.8632812 -0.8320312,0 -1.40625,0.375 -1.93359375,0.9609375 l 0.46875,0.4570312 C 1.2067188,-5.5092422 1.66375,-5.8490859 2.1910938,-5.8490859 c 0.8203125,0 1.21875,0.5273437 1.21875,1.2539062 0,1.0429688 -1.0898438,2.1914063 -3.0117188,4.11328126 z m 7.0751953,0.1171875 c 1.265625,0 2.0390625,-1.19531251 2.0390625,-3.33984371 0,-2.1328125 -0.7734375,-3.28125 -2.0390625,-3.28125 -1.2890625,0 -2.0507812,1.1484375 -2.0507812,3.28125 0,2.1445312 0.7617187,3.33984371 2.0507812,3.33984371 z m 0,-0.66796875 c -0.75,0 -1.2539062,-0.79687496 -1.2539062,-2.67187496 0,-1.875 0.5039062,-2.6367188 1.2539062,-2.6367188 0.7382813,0 1.2539063,0.7617188 1.2539063,2.6367188 0,1.875 -0.515625,2.67187496 -1.2539063,2.67187496 z m 0,0"
       style="fill:#000000;fill-opacity:1;fill-rule:nonzero;stroke:none"
       aria-label="20"
       transform="matrix(1.3333333,0,0,1.3333333,62.906667,184.748)" />
    <path
       id="path44"
       d="m 45.35507,-103.46608 h 28.34679 v 28.34679 H 45.35507 Z"
       style="fill:#ffffff;fill-opacity:1;fill-rule:nonzero;stroke:#737373;stroke-width:0.49814;stroke-linecap:butt;stroke-linejoin:miter;stroke-miterlimit:10;stroke-dasharray:none;stroke-opacity:1"
       transform="matrix(1.3333333,0,0,-1.3333333,29.856,61.429333)" />
    <path
       id="path45"
       d="m 0.39975,0.00109375 h 4.125 v -0.703125 H 2.6731875 c -0.328125,0 -0.7382812,0.0351563 -1.078125,0.0585938 1.5117188,-1.58203135 2.625,-2.78906255 2.625,-3.99609375 0,-1.125 -0.75,-1.8632813 -1.921875,-1.8632813 -0.8320312,0 -1.40625,0.375 -1.93359375,0.9609375 l 0.46875,0.4570313 C 1.2083438,-5.5067188 1.665375,-5.8465625 2.1927188,-5.8465625 c 0.8203125,0 1.21875,0.5273437 1.21875,1.2539062 0,1.0429688 -1.0898438,2.1914063 -3.0117188,4.1132813 z m 5.3613281,0 h 3.609375 v -0.6796875 H 8.0462344 V -6.385625 H 7.4251406 c -0.3632812,0.2109375 -0.7851562,0.3632812 -1.359375,0.46875 v 0.515625 h 1.171875 v 4.72265625 H 5.7610781 Z m 0,0"
       style="fill:#000000;fill-opacity:1;fill-rule:nonzero;stroke:none"
       aria-label="21"
       transform="matrix(1.3333333,0,0,1.3333333,102.592,184.82667)" />
    <path
       id="path46"
       d="m 75.1193,-103.46608 h 28.34679 v 28.34679 H 75.1193 Z"
       style="fill:#ffffff;fill-opacity:1;fill-rule:nonzero;stroke:#737373;stroke-width:0.49814;stroke-linecap:butt;stroke-linejoin:miter;stroke-miterlimit:10;stroke-dasharray:none;stroke-opacity:1"
       transform="matrix(1.3333333,0,0,-1.3333333,29.856,61.429333)" />
    <path
       id="path47"
       d="M 0.39844531,0.00109375 H 4.5234453 v -0.703125 H 2.6718828 c -0.328125,0 -0.7382812,0.0351563 -1.078125,0.0585938 1.5117188,-1.58203135 2.625,-2.78906255 2.625,-3.99609375 0,-1.125 -0.75,-1.8632813 -1.921875,-1.8632813 -0.8320312,0 -1.40624999,0.375 -1.93359374,0.9609375 l 0.46875,0.4570313 c 0.37500004,-0.421875 0.83203124,-0.7617188 1.35937504,-0.7617188 0.8203125,0 1.21875,0.5273438 1.21875,1.2539063 0,1.0429687 -1.0898438,2.1914062 -3.01171879,4.11328125 z m 4.97753909,0 h 4.125 v -0.703125 H 7.6494219 c -0.328125,0 -0.7382813,0.0351563 -1.078125,0.0585938 1.5117187,-1.58203135 2.625,-2.78906255 2.625,-3.99609375 0,-1.125 -0.75,-1.8632813 -1.921875,-1.8632813 -0.8320313,0 -1.40625,0.375 -1.9335938,0.9609375 l 0.46875,0.4570313 c 0.375,-0.421875 0.8320313,-0.7617188 1.359375,-0.7617188 0.8203125,0 1.21875,0.5273438 1.21875,1.2539063 0,1.0429687 -1.0898437,2.1914062 -3.0117187,4.11328125 z m 0,0"
       style="fill:#000000;fill-opacity:1;fill-rule:nonzero;stroke:none"
       aria-label="22"
       transform="matrix(1.3333333,0,0,1.3333333,142.27733,184.82667)" />
    <path
       id="path48"
       d="m 104.88353,-103.46608 h 28.34679 v 28.34679 h -28.34679 z"
       style="fill:#ffffff;fill-opacity:1;fill-rule:nonzero;stroke:#737373;stroke-width:0.49814;stroke-linecap:butt;stroke-linejoin:miter;stroke-miterlimit:10;stroke-dasharray:none;stroke-opacity:1"
       transform="matrix(1.3333333,0,0,-1.3333333,29.856,61.429333)" />
    <path
       id="path49"
       d="M 0.39907031,-0.00142969 H 4.5240703 v -0.703125 H 2.6725078 c -0.328125,0 -0.7382812,0.0351563 -1.078125,0.0585938 1.5117188,-1.58203131 2.625,-2.78906241 2.625,-3.99609381 0,-1.125 -0.75,-1.8632812 -1.921875,-1.8632812 -0.8320312,0 -1.40624999,0.375 -1.93359374,0.9609375 l 0.46875,0.4570312 c 0.37500004,-0.421875 0.83203124,-0.7617187 1.35937504,-0.7617187 0.8203125,0 1.21875,0.5273437 1.21875,1.2539062 0,1.0429688 -1.0898438,2.1914063 -3.01171879,4.11328131 z m 6.93164059,0.1171875 c 1.171875,0 2.1210938,-0.6796875 2.1210938,-1.81640621 0,-0.8789063 -0.6210938,-1.453125 -1.3945313,-1.640625 v -0.035156 c 0.6914063,-0.2460937 1.171875,-0.7382812 1.171875,-1.5234375 0,-1.0195312 -0.8085937,-1.6054687 -1.921875,-1.6054687 -0.75,0 -1.3359375,0.3398437 -1.828125,0.796875 l 0.4335938,0.515625 c 0.375,-0.3867188 0.8320312,-0.65625 1.3710937,-0.65625 0.6914063,0 1.1015625,0.3984375 1.1015625,1.0195312 0,0.6679688 -0.4570312,1.1835938 -1.8164062,1.1835938 v 0.6445312 c 1.5234375,0 2.0507812,0.5039063 2.0507812,1.265625 0,0.7265625 -0.5507812,1.17187501 -1.3359375,1.17187501 -0.75,0 -1.2421875,-0.36328125 -1.6289062,-0.75000001 l -0.421875,0.52734376 c 0.4335937,0.46875 1.078125,0.90234375 2.0976562,0.90234345 z m 0,0"
       style="fill:#000000;fill-opacity:1;fill-rule:nonzero;stroke:none"
       aria-label="23"
       transform="matrix(1.3333333,0,0,1.3333333,181.964,184.748)" />
    <path
       id="path50"
       d="m 134.64778,-103.46608 h 28.34679 v 28.34679 h -28.34679 z"
       style="fill:#ffffff;fill-opacity:1;fill-rule:nonzero;stroke:#737373;stroke-width:0.49814;stroke-linecap:butt;stroke-linejoin:miter;stroke-miterlimit:10;stroke-dasharray:none;stroke-opacity:1"
       transform="matrix(1.3333333,0,0,-1.3333333,29.856,61.429333)" />
    <path
       id="path51"
       d="M 0.39776563,0.00109375 H 4.5227656 v -0.703125 H 2.6712031 c -0.328125,0 -0.7382812,0.0351563 -1.078125,0.0585938 1.5117188,-1.58203135 2.625,-2.78906255 2.625,-3.99609375 0,-1.125 -0.75,-1.8632813 -1.921875,-1.8632813 -0.8320312,0 -1.40624997,0.375 -1.93359372,0.9609375 l 0.46875,0.4570313 c 0.37500002,-0.421875 0.83203122,-0.7617188 1.35937502,-0.7617188 0.8203125,0 1.21875,0.5273438 1.21875,1.2539063 0,1.0429687 -1.0898438,2.1914062 -3.01171877,4.11328125 z m 7.62597657,0 H 8.7971797 V -1.7684375 h 0.8789062 v -0.65625 H 8.7971797 V -6.385625 H 7.8948359 L 5.1526484,-2.3075 v 0.5390625 h 2.8710938 z m 0,-2.42578125 h -2.015625 l 1.5,-2.1796875 c 0.1875,-0.328125 0.3632812,-0.5976563 0.5273437,-0.9023438 h 0.035156 c -0.023437,0.328125 -0.046875,0.890625 -0.046875,1.21875 z m 0,0"
       style="fill:#000000;fill-opacity:1;fill-rule:nonzero;stroke:none"
       aria-label="24"
       transform="matrix(1.3333333,0,0,1.3333333,221.64933,184.82667)" />
    <path
       id="path52"
       d="M -14.17339,-133.23033 H 14.1734 v 28.34679 h -28.34679 z"
       style="fill:#ffffff;fill-opacity:1;fill-rule:nonzero;stroke:#737373;stroke-width:0.49814;stroke-linecap:butt;stroke-linejoin:miter;stroke-miterlimit:10;stroke-dasharray:none;stroke-opacity:1"
       transform="matrix(1.3333333,0,0,-1.3333333,29.856,61.429333)" />
    <path
       id="path53"
       d="M 0.39942969,-8.046875e-4 H 4.5244297 V -0.70392969 H 2.6728672 c -0.328125,0 -0.7382813,0.0351563 -1.078125,0.0585938 1.5117187,-1.58203131 2.625,-2.78906251 2.625,-3.99609371 0,-1.125 -0.75,-1.8632813 -1.921875,-1.8632813 -0.8320313,0 -1.40625001,0.375 -1.93359376,0.9609375 l 0.46875,0.4570313 c 0.37499996,-0.421875 0.83203126,-0.7617188 1.35937496,-0.7617188 0.8203125,0 1.21875,0.5273438 1.21875,1.2539063 0,1.0429687 -1.0898437,2.1914062 -3.01171871,4.11328121 z M 7.3193516,0.11638281 c 1.1132812,0 2.15625,-0.78515625 2.15625,-2.15625001 0,-1.3828125 -0.890625,-2.0039062 -1.9804688,-2.0039062 -0.3984375,0 -0.6914062,0.09375 -0.984375,0.2578125 l 0.1640625,-1.8984375 h 2.4726563 v -0.703125 h -3.1875 l -0.2109375,3.0703125 0.4335937,0.28125 c 0.375,-0.2578125 0.65625,-0.3984375 1.1015625,-0.3984375 0.8203125,0 1.359375,0.5273437 1.359375,1.4179687 0,0.890625 -0.6210937,1.45312501 -1.3945312,1.45312501 -0.7617188,0 -1.2539063,-0.3515625 -1.6171875,-0.72656251 l -0.4101563,0.53906251 c 0.4453125,0.43359375 1.0664063,0.8671875 2.0976563,0.8671875 z m 0,0"
       style="fill:#000000;fill-opacity:1;fill-rule:nonzero;stroke:none"
       aria-label="25"
       transform="matrix(1.3333333,0,0,1.3333333,23.221333,224.43467)" />
    <path
       id="path54"
       d="m 15.59082,-133.23033 h 28.34679 v 28.34679 H 15.59082 Z"
       style="fill:#ffffff;fill-opacity:1;fill-rule:nonzero;stroke:#737373;stroke-width:0.49814;stroke-linecap:butt;stroke-linejoin:miter;stroke-miterlimit:10;stroke-dasharray:none;stroke-opacity:1"
       transform="matrix(1.3333333,0,0,-1.3333333,29.856,61.429333)" />
    <path
       id="path55"
       d="m 0.398125,-8.046875e-4 h 4.125 V -0.70392969 H 2.6715625 c -0.328125,0 -0.7382812,0.0351563 -1.078125,0.0585938 1.5117188,-1.58203131 2.625,-2.78906251 2.625,-3.99609371 0,-1.125 -0.75,-1.8632813 -1.921875,-1.8632813 -0.8320312,0 -1.40625,0.375 -1.93359375,0.9609375 l 0.46875,0.4570313 C 1.2067188,-5.5086172 1.66375,-5.8484609 2.1910938,-5.8484609 c 0.8203125,0 1.21875,0.5273437 1.21875,1.2539062 0,1.0429688 -1.0898438,2.1914063 -3.0117188,4.11328126 z M 7.6608203,0.11638281 c 1.03125,0 1.8867188,-0.8203125 1.8867188,-2.03906251 0,-1.3125 -0.7148438,-1.9804687 -1.828125,-1.9804687 -0.515625,0 -1.078125,0.3046875 -1.4882813,0.8203125 0.035156,-2.0507813 0.7851563,-2.7421875 1.6992188,-2.7421875 0.3984375,0 0.796875,0.1875 1.0429687,0.5039062 l 0.4570313,-0.515625 c -0.3515625,-0.3867187 -0.84375,-0.6679687 -1.5351563,-0.6679687 -1.2773437,0 -2.4375,0.984375 -2.4375,3.5507812 0,2.05078126 0.9492188,3.07031251 2.203125,3.07031251 z m -1.40625,-2.55468751 c 0.4335938,-0.6328125 0.9257813,-0.8554687 1.3359375,-0.8554687 0.796875,0 1.1953125,0.5273437 1.1953125,1.3710937 0,0.8320313 -0.4921875,1.39453126 -1.125,1.39453126 -0.8085937,0 -1.3007812,-0.66796876 -1.40625,-1.91015626 z m 0,0"
       style="fill:#000000;fill-opacity:1;fill-rule:nonzero;stroke:none"
       aria-label="26"
       transform="matrix(1.3333333,0,0,1.3333333,62.906667,224.43467)" />
    <path
       id="path56"
       d="m 45.35507,-133.23033 h 28.34679 v 28.34679 H 45.35507 Z"
       style="fill:#ffffff;fill-opacity:1;fill-rule:nonzero;stroke:#737373;stroke-width:0.49814;stroke-linecap:butt;stroke-linejoin:miter;stroke-miterlimit:10;stroke-dasharray:none;stroke-opacity:1"
       transform="matrix(1.3333333,0,0,-1.3333333,29.856,61.429333)" />
    <path
       id="path57"
       d="m 0.39975,-2.109375e-4 h 4.125 V -0.70333594 H 2.6731875 c -0.328125,0 -0.7382812,0.0351563 -1.078125,0.0585938 1.5117188,-1.58203126 2.625,-2.78906256 2.625,-3.99609366 0,-1.125 -0.75,-1.8632813 -1.921875,-1.8632813 -0.8320312,0 -1.40625,0.375 -1.93359375,0.9609375 l 0.46875,0.4570313 C 1.2083438,-5.5080234 1.665375,-5.8478672 2.1927188,-5.8478672 c 0.8203125,0 1.21875,0.5273438 1.21875,1.2539063 0,1.0429687 -1.0898438,2.1914062 -3.0117188,4.11328121 z m 6.3457031,0 H 7.6009219 C 7.7063906,-2.4963047 8.0227969,-3.9494297 9.5345156,-5.8947422 v -0.4921875 h -4.125 v 0.703125 h 3.1992188 c -1.265625,1.7460938 -1.7460938,3.2695313 -1.8632813,5.6835937625 z m 0,0"
       style="fill:#000000;fill-opacity:1;fill-rule:nonzero;stroke:none"
       aria-label="27"
       transform="matrix(1.3333333,0,0,1.3333333,102.592,224.512)" />
    <path
       id="path58"
       d="m 75.1193,-133.23033 h 28.34679 v 28.34679 H 75.1193 Z"
       style="fill:#ffffff;fill-opacity:1;fill-rule:nonzero;stroke:#737373;stroke-width:0.49814;stroke-linecap:butt;stroke-linejoin:miter;stroke-miterlimit:10;stroke-dasharray:none;stroke-opacity:1"
       transform="matrix(1.3333333,0,0,-1.3333333,29.856,61.429333)" />
    <path
       id="path59"
       d="M 0.39844531,-8.046875e-4 H 4.5234453 V -0.70392969 H 2.6718828 c -0.328125,0 -0.7382812,0.0351563 -1.078125,0.0585938 1.5117188,-1.58203131 2.625,-2.78906251 2.625,-3.99609371 0,-1.125 -0.75,-1.8632813 -1.921875,-1.8632813 -0.8320312,0 -1.40624999,0.375 -1.93359374,0.9609375 l 0.46875,0.4570313 c 0.37500004,-0.421875 0.83203124,-0.7617188 1.35937504,-0.7617188 0.8203125,0 1.21875,0.5273438 1.21875,1.2539063 0,1.0429687 -1.0898438,2.1914062 -3.01171879,4.11328121 z M 7.4853594,0.11638281 c 1.2304687,0 2.0507812,-0.75 2.0507812,-1.69921871 0,-0.8554688 -0.5390625,-1.3125 -1.1015625,-1.6523438 v -0.035156 c 0.3867188,-0.2929688 0.8671875,-0.8671875 0.8671875,-1.546875 0,-0.984375 -0.6796875,-1.6875 -1.7929687,-1.6875 -1.0195313,0 -1.8046875,0.6445312 -1.8046875,1.6289062 0,0.6679688 0.4101562,1.1484375 0.890625,1.4765625 v 0.035156 c -0.5976563,0.328125 -1.2070313,0.9023437 -1.2070313,1.734375 0,1.00781246 0.8789063,1.74609371 2.0976563,1.74609381 z M 7.9306719,-3.4812734 C 7.1689531,-3.7859609 6.4423906,-4.1023672 6.4423906,-4.8758047 c 0,-0.6210937 0.4453125,-1.0195312 1.0546875,-1.0195312 0.703125,0 1.1132813,0.4921875 1.1132813,1.125 0,0.4804687 -0.2460938,0.9023437 -0.6796875,1.2890625 z m -0.4335938,2.98828121 c -0.7851562,0 -1.3828125,-0.51562501 -1.3828125,-1.20703121 0,-0.609375 0.3867188,-1.0664063 0.9023438,-1.40625 0.9257812,0.375 1.7460937,0.65625 1.7460937,1.5 0,0.65624996 -0.5039062,1.11328121 -1.265625,1.11328121 z m 0,0"
       style="fill:#000000;fill-opacity:1;fill-rule:nonzero;stroke:none"
       aria-label="28"
       transform="matrix(1.3333333,0,0,1.3333333,142.27733,224.43467)" />
    <path
       id="path60"
       d="m 104.88353,-133.23033 h 28.34679 v 28.34679 h -28.34679 z"
       style="fill:#ffffff;fill-opacity:1;fill-rule:nonzero;stroke:#737373;stroke-width:0.49814;stroke-linecap:butt;stroke-linejoin:miter;stroke-miterlimit:10;stroke-dasharray:none;stroke-opacity:1"
       transform="matrix(1.3333333,0,0,-1.3333333,29.856,61.429333)" />
    <path
       id="path61"
       d="M 0.39907031,-8.046875e-4 H 4.5240703 V -0.70392969 H 2.6725078 c -0.328125,0 -0.7382812,0.0351563 -1.078125,0.0585938 1.5117188,-1.58203131 2.625,-2.78906251 2.625,-3.99609371 0,-1.125 -0.75,-1.8632813 -1.921875,-1.8632813 -0.8320312,0 -1.40624999,0.375 -1.93359374,0.9609375 l 0.46875,0.4570313 c 0.37500004,-0.421875 0.83203124,-0.7617188 1.35937504,-0.7617188 0.8203125,0 1.21875,0.5273438 1.21875,1.2539063 0,1.0429687 -1.0898438,2.1914062 -3.01171879,4.11328121 z M 7.0260234,0.11638281 c 1.2773438,0 2.4375,-0.984375 2.4375,-3.55078121 0,-2.0507813 -0.9492187,-3.0703125 -2.2148437,-3.0703125 -1.0195313,0 -1.875,0.8203125 -1.875,2.0507812 0,1.3007813 0.7148437,1.9570313 1.8164062,1.9570313 0.5273438,0 1.0898438,-0.3046875 1.5,-0.8085938 -0.035156,2.0507813 -0.796875,2.74218751 -1.6875,2.74218751 -0.3984375,0 -0.796875,-0.1875 -1.0546875,-0.50390621 l -0.4570312,0.51562496 c 0.3398437,0.375 0.84375,0.66796875 1.5351562,0.66796875 z M 8.6783672,-3.9617422 c -0.4453125,0.6210938 -0.9375,0.8671875 -1.3476563,0.8671875 -0.796875,0 -1.1953125,-0.5273437 -1.1953125,-1.359375 0,-0.8554687 0.4921875,-1.4179687 1.125,-1.4179687 0.8085938,0 1.3125,0.6679687 1.4179688,1.9101562 z m 0,0"
       style="fill:#000000;fill-opacity:1;fill-rule:nonzero;stroke:none"
       aria-label="29"
       transform="matrix(1.3333333,0,0,1.3333333,181.964,224.43467)" />
    <path
       id="path62"
       d="m 134.64778,-133.23033 h 28.34679 v 28.34679 h -28.34679 z"
       style="fill:#ffffff;fill-opacity:1;fill-rule:nonzero;stroke:#737373;stroke-width:0.49814;stroke-linecap:butt;stroke-linejoin:miter;stroke-miterlimit:10;stroke-dasharray:none;stroke-opacity:1"
       transform="matrix(1.3333333,0,0,-1.3333333,29.856,61.429333)" />
    <path
       id="path63"
       d="m 2.3547969,0.11638281 c 1.171875,0 2.1210937,-0.6796875 2.1210937,-1.81640621 0,-0.8789063 -0.6210937,-1.453125 -1.3945312,-1.640625 v -0.035156 c 0.6914062,-0.2460937 1.171875,-0.7382812 1.171875,-1.5234375 0,-1.0195312 -0.8085938,-1.6054687 -1.921875,-1.6054687 -0.75,0 -1.33593752,0.3398437 -1.82812502,0.796875 l 0.43359375,0.515625 c 0.37499997,-0.3867188 0.83203127,-0.65625 1.37109377,-0.65625 0.6914062,0 1.1015625,0.3984375 1.1015625,1.0195312 0,0.6679688 -0.4570313,1.1835938 -1.8164063,1.1835938 v 0.6445312 c 1.5234375,0 2.0507813,0.5039063 2.0507813,1.265625 0,0.7265625 -0.5507813,1.17187501 -1.3359375,1.17187501 -0.75,0 -1.2421875,-0.36328125 -1.62890627,-0.75000001 l -0.421875,0.52734376 c 0.43359375,0.46875 1.07812497,0.90234375 2.09765627,0.90234345 z m 5.118164,0 c 1.265625,0 2.0390625,-1.19531251 2.0390625,-3.33984371 0,-2.1328125 -0.7734375,-3.28125 -2.0390625,-3.28125 -1.2890625,0 -2.0507812,1.1484375 -2.0507812,3.28125 0,2.1445312 0.7617187,3.33984371 2.0507812,3.33984371 z m 0,-0.66796875 c -0.75,0 -1.2539062,-0.79687496 -1.2539062,-2.67187496 0,-1.875 0.5039062,-2.6367188 1.2539062,-2.6367188 0.7382813,0 1.2539063,0.7617188 1.2539063,2.6367188 0,1.875 -0.515625,2.67187496 -1.2539063,2.67187496 z m 0,0"
       style="fill:#000000;fill-opacity:1;fill-rule:nonzero;stroke:none"
       aria-label="30"
       transform="matrix(1.3333333,0,0,1.3333333,221.64933,224.43467)" />
    <path
       id="path64"
       d="M -14.17339,-14.17339 H 14.1734 V 14.1734 h -28.34679 z"
       style="fill:#f7f7f7;fill-opacity:1;fill-rule:nonzero;stroke:#c2c2c2;stroke-width:0.41843;stroke-linecap:butt;stroke-linejoin:miter;stroke-miterlimit:10;stroke-dasharray:none;stroke-opacity:1"
       transform="matrix(1.3333333,0,0,-1.3333333,29.856,61.429333)" />
    <path
       id="path65"
       d="M 0.78545313,-4.453125e-4 H 4.3948281 V -0.68013281 H 3.0706094 V -6.3871641 H 2.4495156 c -0.3632812,0.2109375 -0.7851562,0.3632813 -1.359375,0.46875 v 0.515625 h 1.171875 v 4.72265629 H 0.78545313 Z m 0,0"
       style="fill:#a8a8a8;fill-opacity:1;fill-rule:nonzero;stroke:none"
       aria-label="1"
       transform="matrix(1.3333333,0,0,1.3333333,26.538667,65.692)" />
    <path
       id="path66"
       d="M 15.59082,-14.17339 H 43.93761 V 14.1734 H 15.59082 Z"
       style="fill:#b8b8b8;fill-opacity:1;fill-rule:nonzero;stroke:#000000;stroke-width:1.0959;stroke-linecap:butt;stroke-linejoin:miter;stroke-miterlimit:10;stroke-dasharray:none;stroke-opacity:1"
       transform="matrix(1.3333333,0,0,-1.3333333,29.856,61.429333)" />
    <path
       id="path67"
       d="M 0.39742969,1.484375e-4 H 4.5224297 V -0.70297656 H 2.6708672 c -0.328125,0 -0.7382813,0.0351563 -1.078125,0.0585938 1.5117187,-1.58203124 2.625,-2.78906254 2.625,-3.99609374 0,-1.125 -0.75,-1.8632812 -1.921875,-1.8632812 -0.8320313,0 -1.40625001,0.375 -1.93359376,0.9609375 l 0.46875,0.4570312 C 1.2060234,-5.507664 1.6630547,-5.8475077 2.1903984,-5.8475077 c 0.8203125,0 1.21875,0.5273437 1.21875,1.2539062 0,1.0429687 -1.0898437,2.1914063 -3.01171871,4.11328124 z m 0,0"
       style="fill:#000000;fill-opacity:1;fill-rule:nonzero;stroke:none"
       aria-label="2"
       transform="matrix(1.3333333,0,0,1.3333333,66.224,65.769333)" />
    <path
       id="path68"
       d="m 297.38773,4.30363 h -96.76827 c -1.10046,0 -1.99256,-0.89207 -1.99256,-1.99255 v -68.11873 c 0,-1.10048 0.8921,-1.99255 1.99256,-1.99255 h 96.76827 c 1.10046,0 1.99255,0.89207 1.99255,1.99255 V 2.31108 c 0,1.10048 -0.89209,1.99255 -1.99255,1.99255 z"
       style="fill:#fcfcfc;fill-opacity:1;fill-rule:nonzero;stroke:#c7c7c7;stroke-width:0.3985;stroke-linecap:butt;stroke-linejoin:miter;stroke-miterlimit:10;stroke-dasharray:none;stroke-opacity:1"
       transform="matrix(1.3333333,0,0,-1.3333333,29.856,61.429333)" />
    <path
       id="path69"
       d="M 15.56346,8.50403 H 2.5405 c -1.10047,0 -1.99256,-0.89209 -1.99256,-1.99256 V -6.51147 c 0,-1.10047 0.89209,-1.99256 1.99256,-1.99256 h 13.02296 c 1.10047,0 1.99256,0.89209 1.99256,1.99256 V 6.51147 c 0,1.10047 -0.89209,1.99256 -1.99256,1.99256 z"
       style="fill:#b8b8b8;fill-opacity:1;fill-rule:nonzero;stroke:#000000;stroke-width:1.0959;stroke-linecap:butt;stroke-linejoin:miter;stroke-miterlimit:10;stroke-dasharray:none;stroke-opacity:1"
       transform="matrix(1.3333333,0,0,-1.3333333,303.00667,76.561333)" />
    <path
       id="path70"
       d="m 2.1451719,-4.1849297 c -0.84375,0 -1.42968752,0.4921875 -1.42968752,1.2070313 0,0.7148437 0.58593752,1.2070312 1.42968752,1.2070312 0.84375,0 1.4296875,-0.4921875 1.4296875,-1.2070312 0,-0.7148438 -0.5859375,-1.2070313 -1.4296875,-1.2070313 z m 0,0.4570313 c 0.515625,0 0.8789062,0.3046875 0.8789062,0.75 0,0.4570312 -0.3632812,0.75 -0.8789062,0.75 -0.5273438,0 -0.8789063,-0.2929688 -0.8789063,-0.75 0,-0.4453125 0.3515625,-0.75 0.8789063,-0.75 z m 1.7460937,0.9609375 v 0.46875 h 1.0664063 v 1.34765621 H 5.5318906 V -5.7552422 H 4.9576719 v 1.6640625 H 3.8912656 v 0.4804688 h 1.0664063 v 0.84375 z m -2.0273437,-3 v 0.7734375 H 0.35220313 v 0.46875 H 3.8912656 v -0.46875 h -1.453125 v -0.7734375 z m -0.375,4.3945312 V 0.40882031 H 5.6842344 V -0.07164844 H 2.0631406 V -1.3724297 Z m 8.7246091,-4.265625 v 5.85937501 h 0.550782 V -2.7318047 h 0.820312 v 3.26953126 h 0.550781 V -5.7669609 h -0.550781 v 2.5429687 H 10.764313 V -5.6380547 Z M 6.85025,-5.0169609 v 0.46875 H 8.069 v 0.4921875 c 0,1.2773437 -0.46875,2.3554687 -1.3710937,2.859375 l 0.3632812,0.44531246 C 7.7174375,-1.1497734 8.1510313,-1.8294609 8.3619688,-2.6966484 8.584625,-1.9232109 9.0065,-1.3138359 9.6393125,-0.97399219 L 9.9791563,-1.4193047 C 9.0885313,-1.8880547 8.6315,-2.9075859 8.6315,-4.0560234 v -0.4921875 h 1.1367188 v -0.46875 z m 8.633789,3.796875 v 0.46874996 h 3.5625 v 1.2890625 h 0.585938 V -1.2200859 Z m 1.195313,-2.8945313 c 0.5625,0 0.914062,0.1992188 0.914062,0.5273438 0,0.328125 -0.351562,0.5390625 -0.914062,0.5390625 -0.574219,0 -0.925782,-0.2109375 -0.925782,-0.5390625 0,-0.328125 0.351563,-0.5273438 0.925782,-0.5273438 z m 0,-0.4101562 c -0.890625,0 -1.476563,0.3632812 -1.476563,0.9375 0,0.515625 0.46875,0.8554687 1.195313,0.9257812 v 0.4570313 c -0.609375,0.023437 -1.183594,0.023437 -1.6875,0.023437 l 0.07031,0.46875 c 1.101563,0 2.589844,-0.011719 3.9375,-0.2578125 l -0.04687,-0.4101563 c -0.539062,0.082031 -1.125,0.1289063 -1.699219,0.1523438 v -0.4335938 c 0.714844,-0.070312 1.171875,-0.4101562 1.171875,-0.9257812 0,-0.5742188 -0.585937,-0.9375 -1.464843,-0.9375 z m 2.367187,-1.2304688 v 4.21875 h 0.585938 v -1.8398437 h 0.914062 v -0.4804688 h -0.914062 v -1.8984375 z m -2.648437,-0.058594 v 0.6210937 h -1.535157 v 0.4335938 h 3.621094 V -5.1927422 H 16.97232 v -0.6210937 z m 9.345703,0.058594 v 4.59375 h 0.585937 v -4.59375 z m -2.800782,0.4335938 c -0.9375,0 -1.640625,0.6445312 -1.640625,1.546875 0,0.9140625 0.703125,1.5585937 1.640625,1.5585937 0.9375,0 1.640625,-0.6445312 1.640625,-1.5585937 0,-0.9023438 -0.703125,-1.546875 -1.640625,-1.546875 z m 0,0.5039062 c 0.609375,0 1.078125,0.4335938 1.078125,1.0429688 0,0.6210937 -0.46875,1.0429687 -1.078125,1.0429687 -0.609375,0 -1.078125,-0.421875 -1.078125,-1.0429687 0,-0.609375 0.46875,-1.0429688 1.078125,-1.0429688 z m -0.667968,3.1875 v 2.03906251 h 4.242187 V -0.07164844 H 22.849273 V -1.6302422 Z m 7.154297,-2.1328125 c -0.890625,0 -1.535157,0.5976563 -1.535157,1.4414063 0,0.8671875 0.644532,1.45312496 1.535157,1.45312496 0.890625,0 1.535156,-0.58593746 1.535156,-1.45312496 0,-0.84375 -0.644531,-1.4414063 -1.535156,-1.4414063 z m 0,0.4804688 c 0.5625,0 0.984375,0.3984375 0.984375,0.9609375 0,0.5742187 -0.421875,0.9726562 -0.984375,0.9726562 -0.574219,0 -0.984375,-0.3984375 -0.984375,-0.9726562 0,-0.5625 0.410156,-0.9609375 0.984375,-0.9609375 z m 2.414062,-2.484375 v 6.30468746 h 0.574219 V -2.6966484 h 1.03125 v -0.4804688 h -1.03125 v -2.5898437 z m -2.71875,0.070312 v 0.9375 h -1.582031 v 0.4804687 h 3.714844 v -0.4804687 h -1.546875 v -0.9375 z m 4.857422,3.140625 v 0.46875 h 5.71875 v -0.46875 z m 0.773437,-2.9765625 v 2.1328125 h 4.289063 v -0.46875 h -3.714844 v -1.6640625 z m -0.03516,4.078125 v 1.83984371 h 4.359375 v -0.46875 H 35.294586 V -1.4544609 Z m 9.793946,-0.8320313 v 1.53515626 H 41.97134 v 0.46875 h 5.71875 v -0.46875 H 45.088531 V -2.2864922 Z m -0.02344,-3.0585937 v 0.4804687 c 0,1.0546875 -1.183594,1.9804688 -2.296875,2.1679688 l 0.246094,0.4804687 c 0.972656,-0.1992187 1.945312,-0.84375 2.355469,-1.7460937 0.410156,0.9023437 1.394531,1.546875 2.367187,1.7460937 l 0.246094,-0.4804687 c -1.113281,-0.1875 -2.308594,-1.1132813 -2.308594,-2.1679688 v -0.4804687 z m 6.451172,-0.1992188 v 0.3515625 c 0,0.890625 -1.113281,1.6523438 -2.261719,1.828125 l 0.222656,0.4570313 c 0.984375,-0.1523438 1.933594,-0.703125 2.34375,-1.4648438 0.398438,0.7617188 1.347657,1.3125 2.320313,1.4648438 l 0.234375,-0.4570313 c -1.148438,-0.1757812 -2.261719,-0.9492187 -2.261719,-1.828125 v -0.3515625 z m -2.554688,3.328125 v 0.4804688 h 2.554688 v 2.27343746 h 0.5625 V -1.7357109 h 2.578125 v -0.4804688 z m 0,0"
       style="fill:#616161;fill-opacity:1;fill-rule:nonzero;stroke:none"
       aria-label="현재확인하는소수"
       transform="matrix(1.3333333,0,0,1.3333333,331.24133,80.076)" />
    <path
       id="path71"
       d="M 15.43892,-11.9057 H 2.41597 c -1.10048,0 -1.99255,-0.89208 -1.99255,-1.99255 V -26.9212 c 0,-1.10048 0.89207,-1.99256 1.99255,-1.99256 h 13.02295 c 1.10048,0 1.99255,0.89208 1.99255,1.99256 v 13.02295 c 0,1.10047 -0.89207,1.99255 -1.99255,1.99255 z"
       style="fill:#dbdbdb;fill-opacity:1;fill-rule:nonzero;stroke:#000000;stroke-width:0.84683;stroke-linecap:butt;stroke-linejoin:miter;stroke-miterlimit:10;stroke-dasharray:none;stroke-opacity:1"
       transform="matrix(1.3333333,0,0,-1.3333333,303.00667,76.561333)" />
    <path
       id="path72"
       d="m 1.0904844,-1.2189531 v 0.46874997 h 3.5625 v 1.2890625 H 5.2389219 V -1.2189531 Z m 1.1953125,-2.8945313 c 0.5625,0 0.9140625,0.1992188 0.9140625,0.5273438 0,0.328125 -0.3515625,0.5390625 -0.9140625,0.5390625 -0.5742188,0 -0.9257813,-0.2109375 -0.9257813,-0.5390625 0,-0.328125 0.3515625,-0.5273438 0.9257813,-0.5273438 z m 0,-0.4101562 c -0.890625,0 -1.47656252,0.3632812 -1.47656252,0.9375 0,0.515625 0.46875002,0.8554687 1.19531252,0.9257812 v 0.4570313 c -0.609375,0.023437 -1.18359377,0.023437 -1.68750002,0.023437 l 0.0703125,0.46875 c 1.10156252,0 2.58984372,-0.011719 3.93750002,-0.2578125 l -0.046875,-0.4101563 c -0.5390625,0.082031 -1.125,0.1289063 -1.6992188,0.1523438 v -0.4335938 c 0.7148438,-0.070312 1.171875,-0.4101562 1.171875,-0.9257812 0,-0.5742188 -0.5859375,-0.9375 -1.4648437,-0.9374995 z m 2.3671875,-1.2304688 v 4.21875 H 5.2389219 V -3.3752031 H 6.1529844 V -3.8556719 H 5.2389219 v -1.8984375 z m -2.6484375,-0.058594 v 0.6210937 H 0.46939063 v 0.4335938 H 4.0904844 V -5.1916094 H 2.5787656 v -0.6210937 z m 9.3457031,0.058594 v 4.59375 h 0.585938 v -4.59375 z m -2.8007812,0.4335938 c -0.9375,0 -1.640625,0.6445312 -1.640625,1.546875 0,0.9140625 0.703125,1.5585937 1.640625,1.5585937 0.9375,0 1.6406252,-0.6445312 1.6406252,-1.5585937 0,-0.9023438 -0.7031252,-1.546875 -1.6406252,-1.546875 z m 0,0.5039062 c 0.609375,0 1.078125,0.4335938 1.078125,1.0429688 0,0.6210937 -0.46875,1.0429687 -1.078125,1.0429687 -0.609375,0 -1.078125,-0.421875 -1.078125,-1.0429687 0,-0.609375 0.46875,-1.0429688 1.078125,-1.0429688 z m -0.6679688,3.1875 v 2.03906252 h 4.242188 V -0.07051563 H 8.4557188 V -1.6291094 Z m 7.177734,-2.5546875 c -0.902343,0 -1.511718,0.46875 -1.511718,1.1835938 0,0.703125 0.609375,1.171875 1.511718,1.171875 0.890625,0 1.5,-0.46875 1.5,-1.171875 0,-0.7148438 -0.609375,-1.1835938 -1.5,-1.1835938 z m 0,0.4570313 c 0.574219,0 0.949219,0.28125 0.949219,0.7265625 0,0.4335937 -0.375,0.7148437 -0.949219,0.7148437 -0.574218,0 -0.960937,-0.28125 -0.960937,-0.7148437 0,-0.4453125 0.386719,-0.7265625 0.960937,-0.7265625 z m 2.4375,-2.0273438 v 4.7226563 h 0.574219 v -2.1796875 h 0.9375 v -0.4804688 h -0.9375 v -2.0625 z m -2.730468,0 v 0.7617188 h -1.570313 v 0.46875 h 3.726563 v -0.46875 h -1.570313 v -0.7617188 z m -0.621094,4.3476563 v 1.81640622 h 4.207031 V -0.07051563 H 14.719391 V -1.4064531 Z m 9.55957,-0.8789063 v 1.53515627 h -2.542969 v 0.46875 h 5.71875 v -0.46875 H 24.278961 V -2.2853594 Z m -0.02344,-3.0585937 v 0.4804687 c 0,1.0546875 -1.183594,1.9804688 -2.296875,2.1679688 l 0.246093,0.4804687 c 0.972657,-0.1992187 1.945313,-0.84375 2.355469,-1.7460937 0.410156,0.9023437 1.394531,1.546875 2.367188,1.7460937 l 0.246093,-0.4804687 c -1.113281,-0.1875 -2.308593,-1.1132813 -2.308593,-2.1679688 v -0.4804687 z m 6.451172,-0.1992188 v 0.3515625 c 0,0.890625 -1.113282,1.6523438 -2.261719,1.828125 l 0.222656,0.4570313 c 0.984375,-0.1523438 1.933594,-0.703125 2.34375,-1.4648438 0.398438,0.7617188 1.347656,1.3125 2.320313,1.4648438 l 0.234375,-0.4570313 C 31.843411,-3.5392656 30.73013,-4.3127031 30.73013,-5.1916094 v -0.3515625 z m -2.554688,3.328125 v 0.4804688 h 2.554688 v 2.27343747 h 0.5625 V -1.7345781 h 2.578125 v -0.4804688 z m 0,0"
       style="fill:#616161;fill-opacity:1;fill-rule:nonzero;stroke:none"
       aria-label="확인한소수"
       transform="matrix(1.3333333,0,0,1.3333333,331.24133,107.28933)" />
    <path
       id="path73"
       d="M 15.22472,-32.31543 H 2.20175 c -1.10046,0 -1.99255,-0.89209 -1.99255,-1.99255 v -13.02297 c 0,-1.10046 0.89209,-1.99255 1.99255,-1.99255 h 13.02297 c 1.10046,0 1.99255,0.89209 1.99255,1.99255 v 13.02297 c 0,1.10046 -0.89209,1.99255 -1.99255,1.99255 z"
       style="fill:#f7f7f7;fill-opacity:1;fill-rule:nonzero;stroke:#c2c2c2;stroke-width:0.41843;stroke-linecap:butt;stroke-linejoin:miter;stroke-miterlimit:10;stroke-dasharray:none;stroke-opacity:1"
       transform="matrix(1.3333333,0,0,-1.3333333,303.00667,76.561333)" />
    <path
       id="path74"
       d="m 2.8951719,-2.2855234 v 1.53515621 H 0.35220313 v 0.46875 H 6.0709531 v -0.46875 H 3.4693906 V -2.2855234 Z m -0.023437,-3.0585938 v 0.4804688 c 0,1.0546875 -1.1835938,1.9804687 -2.29687502,2.1679687 l 0.24609375,0.4804688 c 0.97265627,-0.1992188 1.94531247,-0.84375 2.35546877,-1.7460938 0.4101562,0.9023438 1.3945312,1.546875 2.3671875,1.7460938 l 0.2460937,-0.4804688 c -1.1132812,-0.1875 -2.3085937,-1.1132812 -2.3085937,-2.1679687 v -0.4804688 z m 6.4511719,-0.1992187 v 0.3515625 c 0,0.890625 -1.1132813,1.6523437 -2.2617188,1.828125 l 0.2226563,0.4570312 c 0.984375,-0.1523437 1.9335937,-0.703125 2.34375,-1.4648437 0.3984367,0.7617187 1.3476557,1.3125 2.3203117,1.4648437 l 0.234375,-0.4570312 C 11.033844,-3.5394297 9.9205625,-4.3128672 9.9205625,-5.1917734 v -0.3515625 z m -2.5546875,3.328125 v 0.4804687 h 2.5546875 v 2.27343751 h 0.5625 V -1.7347422 H 12.463531 V -2.2152109 Z M 17.449859,-5.7659922 v 6.30468751 h 0.574219 V -2.7308359 h 1.007813 v -0.4804688 h -1.007813 v -2.5546875 z m -3.9375,0.6796875 v 0.4804688 h 2.308594 c -0.128906,1.4882812 -0.996094,2.6953125 -2.601562,3.5039062 l 0.316406,0.44531251 c 2.039062,-1.01953121 2.871094,-2.63671871 2.871094,-4.42968751 z m 9.325196,-0.1875 c -0.9375,0 -1.59375,0.8554688 -1.59375,2.1914063 0,1.3476562 0.65625,2.20312496 1.59375,2.20312496 0.925781,0 1.582031,-0.85546876 1.582031,-2.20312496 0,-1.3359375 -0.65625,-2.1914063 -1.582031,-2.1914063 z m 0,0.515625 c 0.609375,0 1.03125,0.65625 1.03125,1.6757813 0,1.0195312 -0.421875,1.6875 -1.03125,1.6875 -0.609375,0 -1.042969,-0.6679688 -1.042969,-1.6875 0,-1.0195313 0.433594,-1.6757813 1.042969,-1.6757813 z m 2.589843,-1.0078125 v 6.30468751 h 0.574219 V -2.7659922 h 1.03125 v -0.4804687 h -1.03125 v -2.5195313 z m 6.732422,0 v 6.30468751 h 0.574219 V -5.7659922 Z m -4.183593,4.1835938 v 0.5039062 h 0.515625 c 0.996093,0 1.992187,-0.082031 3.09375,-0.3046875 l -0.08203,-0.4921875 c -1.03125,0.2109375 -2.015625,0.2929688 -2.964843,0.2929688 v -3.5625 h -0.5625 z m 6.017578,0.80859371 v 0.48046875 h 5.71875 v -0.48046875 z m 0.667968,-4.44140621 v 2.9882812 h 4.347657 v -2.9882812 z m 3.785157,0.46875 v 2.0625 h -3.222657 v -2.0625 z m 2.666015,2.3789062 v 0.46875 h 1.851563 v 1.18359376 H 40.40982 v 0.48046875 h 5.71875 V -0.71521094 H 43.538727 V -1.8988047 h 2.015625 v -0.46875 h -3.867188 v -1.0195312 h 3.726563 v -1.9101563 h -4.3125 v 0.46875 h 3.738281 v 0.984375 h -3.726563 z m 12.067383,-3.3984375 v 6.30468751 h 0.550781 V -5.7659922 Z m -1.265625,0.140625 v 2.1210938 h -1.03125 v 0.4804687 h 1.03125 v 3.23437501 h 0.550781 V -5.6253672 Z m -3.433594,0.5976563 v 0.46875 h 1.195313 v 0.5742187 c 0,1.1484375 -0.492188,2.3085938 -1.371094,2.8359375 l 0.363281,0.43359376 c 0.621094,-0.39843746 1.066407,-1.13671876 1.289063,-1.99218746 0.222656,0.796875 0.65625,1.4765625 1.265625,1.83984371 l 0.351562,-0.43359371 c -0.867187,-0.5039063 -1.347656,-1.5820313 -1.347656,-2.6835938 v -0.5742187 h 1.136719 v -0.46875 z m 8.361329,0.1757812 c 0.644531,0 1.125,0.3867188 1.125,0.984375 0,0.5742188 -0.480469,0.984375 -1.125,0.984375 -0.644532,0 -1.125,-0.4101562 -1.125,-0.984375 0,-0.5976562 0.480468,-0.984375 1.125,-0.984375 z m 2.519531,-0.9140625 v 6.31640626 h 0.574219 V -5.7659922 Z m -4.453125,4.94531251 c 1.136719,0 2.671875,-0.0117188 4.089844,-0.26953121 l -0.04687,-0.4335938 c -0.585938,0.09375 -1.207032,0.140625 -1.828125,0.1757813 v -1.0664063 c 0.832031,-0.1054687 1.40625,-0.6679687 1.40625,-1.453125 0,-0.8789062 -0.703125,-1.4882812 -1.6875,-1.4882812 -0.984375,0 -1.6875,0.609375 -1.6875,1.4882812 0,0.7851563 0.5625,1.3476563 1.394531,1.453125 v 1.0898438 c -0.621094,0.023437 -1.207031,0.023437 -1.710938,0.023437 z m 0,0"
       style="fill:#616161;fill-opacity:1;fill-rule:nonzero;stroke:none"
       aria-label="소수가아니므로제외"
       transform="matrix(1.3333333,0,0,1.3333333,331.24133,134.46533)" />
    <g
       id="g74"
       aria-label="1은소수가아니므로제외한다."
       transform="matrix(1.3333333,0,0,1.3333333,299.11867,201.20933)">
      <path
         id="path75"
         d="m 2.7293594,-5.7292656 c 0,-0.2226563 -0.011719,-0.234375 -0.234375,-0.234375 -0.5625,0.5625 -1.3828125,0.5625 -1.66406252,0.5625 v 0.28125 c 0.17578122,0 0.71484372,0 1.20703122,-0.234375 v 4.64062497 c 0,0.328125 -0.035156,0.43359375 -0.8671875,0.43359375 H 0.88951563 v 0.28125 c 0.31640627,-0.0234375 1.11328127,-0.0234375 1.48828127,-0.0234375 0.3632812,0 1.171875,0 1.4882812,0.0234375 v -0.28125 h -0.28125 c -0.8320312,0 -0.8554687,-0.10546875 -0.8554687,-0.43359375 z m 0,0"
         style="fill:#000000;fill-opacity:1;fill-rule:nonzero;stroke:none" />
      <path
         id="path76"
         d="m 5.9490859,-3.1511406 v 0.609375 h 7.3242191 v -0.609375 z m 3.65625,-3.984375 c -1.734375,0 -2.8476562,0.5976562 -2.8476562,1.6171875 0,1.0078125 1.1132812,1.6171875 2.8476562,1.6171875 1.7460941,0 2.8593751,-0.609375 2.8593751,-1.6171875 0,-1.0195313 -1.113281,-1.6171875 -2.8593751,-1.6171875 z m 0,0.5976562 c 1.2890621,0 2.0976561,0.3867188 2.0976561,1.0195313 0,0.6328125 -0.808594,1.0078125 -2.0976561,1.0078125 -1.265625,0 -2.0859375,-0.375 -2.0859375,-1.0078125 0,-0.6328125 0.8203125,-1.0195313 2.0859375,-1.0195313 z m -2.7070312,4.7109375 v 2.34375002 h 5.5664063 v -0.609375 H 7.6365859 V -1.8269219 Z M 19.469594,-2.9402031 v 1.96874997 h -3.269531 v 0.609375 h 7.359375 v -0.609375 H 20.207875 V -2.9402031 Z m -0.02344,-3.9257813 v 0.6210938 c 0,1.3476562 -1.523437,2.53125 -2.953125,2.7890625 l 0.316407,0.609375 c 1.253906,-0.2578125 2.507812,-1.0898438 3.035156,-2.25 0.527344,1.1601562 1.792969,1.9921875 3.035156,2.25 l 0.328125,-0.609375 c -1.441406,-0.2578125 -2.976562,-1.4414063 -2.976562,-2.7890625 v -0.6210938 z m 8.282227,-0.2578125 v 0.4570313 c 0,1.1484375 -1.417969,2.1210937 -2.90625,2.34375 l 0.304687,0.5976562 c 1.253907,-0.2109375 2.484375,-0.9140625 3,-1.8984375 0.515625,0.984375 1.734375,1.6875 2.988282,1.8984375 l 0.304687,-0.5976562 c -1.476562,-0.2226563 -2.917969,-1.21875 -2.917969,-2.34375 v -0.4570313 z m -3.28125,4.2773438 v 0.6210937 h 3.28125 v 2.92968752 h 0.738281 V -2.2253594 h 3.304688 v -0.6210937 z m 13.734375,-4.5703125 v 8.10937497 h 0.75 V -3.5027031 h 1.289062 v -0.6210938 h -1.289062 v -3.2929687 z m -5.0625,0.8789062 v 0.609375 h 2.976562 c -0.164062,1.921875 -1.289062,3.46875 -3.351562,4.5117188 l 0.410156,0.57421872 c 2.625,-1.31250002 3.691406,-3.39843752 3.691406,-5.69531252 z m 11.991211,-0.2460937 c -1.195313,0 -2.039063,1.1015625 -2.039063,2.8242187 0,1.734375 0.84375,2.8359375 2.039063,2.8359375 1.195312,0 2.039062,-1.1015625 2.039062,-2.8359375 0,-1.7226562 -0.84375,-2.8242187 -2.039062,-2.8242187 z m 0,0.6679687 c 0.785156,0 1.324219,0.84375 1.324219,2.15625 0,1.3125 -0.539063,2.1679688 -1.324219,2.1679688 -0.785156,0 -1.324219,-0.8554688 -1.324219,-2.1679688 0,-1.3125 0.539063,-2.15625 1.324219,-2.15625 z m 3.328125,-1.3007812 v 8.12109372 h 0.75 V -3.5495781 h 1.324219 v -0.6210938 h -1.324219 v -3.2460937 z m 8.671875,0 v 8.12109372 h 0.726562 V -7.4167656 Z m -5.390625,5.3789062 v 0.6445313 h 0.65625 c 1.289062,0 2.566406,-0.09375 3.984375,-0.3867188 l -0.09375,-0.6328125 c -1.335938,0.2695313 -2.589844,0.375 -3.808594,0.375 v -4.5820312 h -0.738281 z m 7.734375,1.04296877 v 0.62109375 h 7.359375 v -0.62109375 z m 0.867187,-5.70703127 v 3.84375 H 65.911 v -3.84375 z m 4.863282,0.5976563 v 2.6484375 h -4.136719 v -2.6484375 z m 3.430664,3.0585937 v 0.609375 h 2.378906 v 1.51171877 h -3.292969 v 0.62109375 h 7.359375 V -0.92457813 H 71.732289 V -2.4362969 h 2.601563 v -0.609375 h -4.980469 v -1.3125 h 4.792969 v -2.4492187 h -5.542969 v 0.609375 h 4.804687 v 1.2539062 h -4.792968 z m 15.521484,-4.3710937 v 8.12109372 h 0.703125 V -7.4167656 Z m -1.628906,0.1875 v 2.7304687 H 81.17174 v 0.609375 h 1.335938 v 4.17187502 h 0.703125 V -7.2292656 Z m -4.417969,0.7617187 v 0.609375 h 1.535156 v 0.7382813 c 0,1.4765625 -0.644531,2.9648437 -1.757812,3.6445312 l 0.457031,0.55078127 c 0.808594,-0.50390627 1.382812,-1.45312497 1.664062,-2.55468747 0.292969,1.0195312 0.832032,1.8984375 1.628907,2.3671875 l 0.445312,-0.5507813 c -1.113281,-0.6445312 -1.722656,-2.0507812 -1.722656,-3.4570312 v -0.7382813 h 1.453125 v -0.609375 z m 10.743164,0.234375 c 0.84375,0 1.453125,0.4921875 1.453125,1.2539063 0,0.75 -0.609375,1.265625 -1.453125,1.265625 -0.832031,0 -1.441406,-0.515625 -1.441406,-1.265625 0,-0.7617188 0.609375,-1.2539063 1.441406,-1.2539063 z m 3.246094,-1.1835937 V 0.70432812 H 92.81725 V -7.4167656 Z M 86.3485,-1.0534844 c 1.453125,0 3.433594,-0.011719 5.261719,-0.3515625 l -0.07031,-0.5507812 c -0.75,0.1171875 -1.546875,0.1875 -2.332031,0.2226562 v -1.3710937 c 1.066406,-0.1289063 1.804688,-0.8554688 1.804688,-1.875 0,-1.125 -0.914063,-1.9101563 -2.179688,-1.9101563 -1.253906,0 -2.179687,0.7851563 -2.179687,1.9101563 0,1.0195312 0.738281,1.7460937 1.804687,1.875 v 1.40625 C 87.661,-1.6745781 86.911,-1.6745781 86.25475,-1.6745781 Z m 10.523438,-4.3242187 c -1.160157,0 -1.945313,0.5976562 -1.945313,1.5117187 0,0.9140625 0.785156,1.5117188 1.945313,1.5117188 1.148437,0 1.933593,-0.5976563 1.933593,-1.5117188 0,-0.9140625 -0.785156,-1.5117187 -1.933593,-1.5117187 z m 0,0.5859375 c 0.738281,0 1.230468,0.3632812 1.230468,0.9257812 0,0.5625 -0.492187,0.9257813 -1.230468,0.9257813 -0.738282,0 -1.230469,-0.3632813 -1.230469,-0.9257813 0,-0.5625 0.492187,-0.9257812 1.230469,-0.9257812 z m 3.140622,-2.6132813 v 6.0820313 h 0.73828 v -2.8007813 h 1.19532 v -0.6210937 h -1.19532 v -2.6601563 z m -3.503904,0 v 0.984375 h -2.027343 v 0.609375 h 4.78125 v -0.609375 h -2.015625 v -0.984375 z m -0.796875,5.5898438 v 2.33203122 h 5.402349 v -0.609375 H 96.438344 V -1.8152031 Z m 12.480469,-5.6015625 v 8.12109372 h 0.75 V -3.5964531 h 1.32422 v -0.6210938 h -1.32422 v -3.1992187 z m -5.13281,0.796875 v 5.3085937 h 0.63281 c 1.52344,0 2.58984,-0.046875 3.84375,-0.2695312 l -0.0937,-0.6445313 c -1.18359,0.2226563 -2.21484,0.28125 -3.64453,0.28125 v -4.0664062 h 3.02344 v -0.609375 z m 8.69238,6.73828122 c 0.32813,0 0.59766,-0.24609375 0.59766,-0.62109375 0,-0.375 -0.26953,-0.62109377 -0.59766,-0.62109377 -0.32812,0 -0.58594,0.24609377 -0.58594,0.62109377 0,0.375 0.25782,0.62109375 0.58594,0.62109375 z m 0,0"
         style="fill:#000000;fill-opacity:1;fill-rule:nonzero;stroke:none" />
    </g>
    <g
       id="g76"
       aria-label="가장작은남은수인2를확인한다."
       transform="matrix(1.3333333,0,0,1.3333333,299.11867,220.14933)">
      <path
         id="path77"
         d="m 5.9285781,-7.4186406 v 8.10937497 h 0.75 V -3.5045781 H 7.9676406 V -4.1256719 H 6.6785781 v -3.2929687 z m -5.06249997,0.8789062 v 0.609375 H 3.8426406 c -0.1640625,1.921875 -1.2890625,3.46875 -3.35156247,4.5117188 l 0.41015625,0.57421872 C 3.5262344,-2.1569219 4.5926406,-4.2428594 4.5926406,-6.5397344 Z M 12.409047,-2.3092656 c -1.664063,0 -2.6718751,0.5507812 -2.6718751,1.48828122 0,0.94921875 1.0078121,1.5 2.6718751,1.5 1.652344,0 2.648437,-0.55078125 2.648437,-1.5 0,-0.93750002 -0.996093,-1.48828122 -2.648437,-1.48828122 z m 0,0.5976562 c 1.195312,0 1.921875,0.328125 1.921875,0.89062502 0,0.57421875 -0.726563,0.9140625 -1.921875,0.9140625 -1.207031,0 -1.933594,-0.33984375 -1.933594,-0.9140625 0,-0.56250002 0.726563,-0.89062502 1.933594,-0.89062502 z M 8.8817031,-6.8092656 v 0.609375 h 1.8164059 v 0.3164062 c 0,1.1601563 -0.8203121,2.203125 -2.0390621,2.625 l 0.375,0.5976563 c 0.9726561,-0.3515625 1.7109371,-1.0664063 2.0507811,-1.9921875 0.351563,0.8085937 1.03125,1.4296875 1.957031,1.7460937 l 0.351563,-0.5859375 c -1.183594,-0.3867187 -1.957031,-1.3359375 -1.957031,-2.4023437 v -0.3046875 h 1.792968 v -0.609375 z m 5.3671879,-0.609375 v 4.8867187 h 0.738281 v -2.203125 h 1.195312 v -0.6210937 h -1.195312 v -2.0625 z m 5.721679,5.3203125 v 0.609375 h 4.535157 v 2.19140622 h 0.738281 V -2.0983281 Z m -0.832031,-4.7460938 v 0.609375 h 1.816406 v 0.3046875 c 0,1.1601563 -0.820312,2.2148438 -2.039062,2.6367188 l 0.398437,0.5742187 c 0.949219,-0.3398437 1.675782,-1.0429687 2.027344,-1.9570312 0.339844,0.8203125 1.03125,1.4882812 1.945313,1.8046875 l 0.375,-0.5859375 c -1.195313,-0.4101563 -1.96875,-1.3945313 -1.96875,-2.4726563 v -0.3046875 h 1.792968 v -0.609375 z m 5.367188,-0.5742187 v 4.8867187 h 0.738281 v -2.1210937 h 1.195312 v -0.6328125 h -1.195312 v -2.1328125 z m 2.695312,4.265625 v 0.609375 h 7.324219 v -0.609375 z m 3.65625,-3.984375 c -1.734375,0 -2.847656,0.5976562 -2.847656,1.6171875 0,1.0078125 1.113281,1.6171875 2.847656,1.6171875 1.746094,0 2.859375,-0.609375 2.859375,-1.6171875 0,-1.0195313 -1.113281,-1.6171875 -2.859375,-1.6171875 z m 0,0.5976562 c 1.289063,0 2.097656,0.3867188 2.097656,1.0195313 0,0.6328125 -0.808593,1.0078125 -2.097656,1.0078125 -1.265625,0 -2.085937,-0.375 -2.085937,-1.0078125 0,-0.6328125 0.820312,-1.0195313 2.085937,-1.0195313 z m -2.707031,4.7109375 v 2.34375002 h 5.566406 v -0.609375 H 28.888539 V -1.8287969 Z m 10.491211,-0.5507812 v 2.96484372 h 5.109375 V -2.3795781 Z m 4.382812,0.5859375 v 1.76953122 h -3.65625 V -1.7936406 Z m -0.01172,-5.6132813 v 4.5820313 h 0.738281 v -2.109375 h 1.207031 v -0.6210938 h -1.207031 v -1.8515625 z m -5.167969,3.3398438 v 0.6210937 h 0.644531 c 1.207031,0 2.425781,-0.082031 3.785156,-0.3515625 l -0.09375,-0.6210937 c -1.289062,0.2578125 -2.449218,0.3515625 -3.585937,0.3515625 v -2.9296875 h -0.75 z m 7.863281,0.9140625 v 0.609375 h 7.324219 v -0.609375 z m 3.65625,-3.984375 c -1.734375,0 -2.847656,0.5976562 -2.847656,1.6171875 0,1.0078125 1.113281,1.6171875 2.847656,1.6171875 1.746094,0 2.859375,-0.609375 2.859375,-1.6171875 0,-1.0195313 -1.113281,-1.6171875 -2.859375,-1.6171875 z m 0,0.5976562 c 1.289063,0 2.097656,0.3867188 2.097656,1.0195313 0,0.6328125 -0.808593,1.0078125 -2.097656,1.0078125 -1.265625,0 -2.085937,-0.375 -2.085937,-1.0078125 0,-0.6328125 0.820312,-1.0195313 2.085937,-1.0195313 z m -2.707031,4.7109375 V 0.51495312 H 52.2235 v -0.609375 H 47.395375 V -1.8287969 Z m 12.588867,-5.296875 v 0.4570313 c 0,1.1484375 -1.417969,2.1210937 -2.90625,2.34375 l 0.304687,0.5976562 c 1.253907,-0.2109375 2.484375,-0.9140625 3,-1.8984375 0.515625,0.984375 1.734375,1.6875 2.988282,1.8984375 l 0.304687,-0.5976562 c -1.476562,-0.2226563 -2.917969,-1.21875 -2.917969,-2.34375 v -0.4570313 z m -3.28125,4.2773438 v 0.6210937 h 3.28125 V 0.70245312 H 59.98424 V -2.2272344 h 3.304688 v -0.6210937 z m 14.15625,-4.5585938 v 5.9179688 h 0.738281 v -5.9179688 z m -3.609375,0.5625 c -1.195313,0 -2.109375,0.8320313 -2.109375,1.9921875 0,1.171875 0.914062,2.0039063 2.109375,2.0039063 1.207031,0 2.121094,-0.8320313 2.121094,-2.0039063 0,-1.1601562 -0.914063,-1.9921875 -2.121094,-1.9921875 z m 0,0.6445313 c 0.785156,0 1.394531,0.5625 1.394531,1.3476562 0,0.796875 -0.609375,1.3476563 -1.394531,1.3476563 -0.785156,0 -1.382813,-0.5507813 -1.382813,-1.3476563 0,-0.7851562 0.597657,-1.3476562 1.382813,-1.3476562 z m -0.855469,4.1132812 v 2.60156252 h 5.460938 v -0.609375 H 66.394398 V -2.0866094 Z m 0,0"
         style="fill:#000000;fill-opacity:1;fill-rule:nonzero;stroke:none" />
      <path
         id="path78"
         d="m 78.162953,-1.5827031 h -0.246094 c -0.02344,0.1171875 -0.09375,0.64453122 -0.210937,0.78515622 -0.04687,0.0820313 -0.667969,0.0820313 -0.84375,0.0820313 h -1.59375 l 0.878906,-0.84374992 c 1.476563,-1.2773439 2.015625,-1.7460938 2.015625,-2.6601563 0,-1.03125 -0.84375,-1.7460937 -1.945312,-1.7460937 -1.03125,0 -1.734375,0.8085937 -1.734375,1.6289062 0,0.4453124 0.386718,0.4921874 0.46875,0.4921874 0.199218,0 0.46875,-0.140625 0.46875,-0.4687499 0,-0.2695312 -0.1875,-0.46875 -0.46875,-0.46875 -0.04687,0 -0.07031,0 -0.105469,0.011719 0.210937,-0.6328125 0.785156,-0.9257813 1.265625,-0.9257813 0.914062,0 1.230469,0.8554688 1.230469,1.4765625 0,0.9140625 -0.691407,1.6523438 -1.125,2.1210938 l -1.640625,1.76953117 c -0.09375,0.10546875 -0.09375,0.1171875 -0.09375,0.328125005 h 3.433593 z m 0,0"
         style="fill:#000000;fill-opacity:1;fill-rule:nonzero;stroke:none" />
      <path
         id="path79"
         d="m 79.964711,-3.6452031 v 0.5742187 h 7.359375 v -0.5742187 z m 0.902344,3.70312497 v 0.52734375 h 5.800781 V 0.05792187 h -5.0625 v -0.76171875 h 4.804687 V -2.4264531 h -5.566406 v 0.5390625 h 4.828125 v 0.6796875 h -4.804687 z m 0.05859,-4.85156247 v 0.5390625 h 5.601563 v -0.5390625 h -4.875 v -0.6914063 h 4.722656 v -1.6875 h -5.472656 v 0.5273438 h 4.746094 v 0.65625 h -4.722657 z m 10.256836,3.234375 v 0.58593747 h 4.59375 v 1.67578125 h 0.75 V -1.5592656 Z m 1.535157,-3.7265625 c 0.726562,0 1.183593,0.2460937 1.183593,0.6796875 0,0.4101562 -0.457031,0.6914062 -1.183593,0.6914062 -0.726563,0 -1.183594,-0.28125 -1.183594,-0.6914062 0,-0.4335938 0.457031,-0.6796875 1.183594,-0.6796875 z m 0,-0.5273438 c -1.136719,0 -1.886719,0.4570313 -1.886719,1.2070313 0,0.65625 0.597656,1.0898437 1.535156,1.1835937 v 0.5859375 c -0.785156,0.035156 -1.523437,0.035156 -2.179687,0.035156 l 0.09375,0.5976562 c 1.417968,0 3.339843,-0.011719 5.0625,-0.328125 l -0.04687,-0.5273437 c -0.703125,0.1054687 -1.453125,0.1640625 -2.203125,0.1992187 v -0.5625 c 0.925781,-0.09375 1.523437,-0.5273437 1.523437,-1.1835937 0,-0.75 -0.761719,-1.2070313 -1.898437,-1.2070313 z m 3.058593,-1.59375 v 5.4375 h 0.75 v -2.3671875 h 1.171875 v -0.6210937 h -1.171875 v -2.4492188 z m -3.410156,-0.070312 v 0.796875 h -1.96875 v 0.5625 h 4.652344 v -0.5625 h -1.957031 v -0.796875 z m 12.023445,0.070312 v 5.9179688 h 0.73828 v -5.9179688 z m -3.60938,0.5625 c -1.195315,0 -2.109377,0.8320313 -2.109377,1.9921875 0,1.171875 0.914062,2.0039063 2.109377,2.0039063 1.20703,0 2.12109,-0.8320313 2.12109,-2.0039063 0,-1.1601562 -0.91406,-1.9921875 -2.12109,-1.9921875 z m 0,0.6445313 c 0.78516,0 1.39453,0.5625 1.39453,1.3476562 0,0.796875 -0.60937,1.3476563 -1.39453,1.3476563 -0.785159,0 -1.382815,-0.5507813 -1.382815,-1.3476563 0,-0.7851562 0.597656,-1.3476562 1.382815,-1.3476562 z m -0.855471,4.1132812 v 2.60156252 h 5.460941 v -0.609375 h -4.72266 V -2.0866094 Z m 9.222661,-3.2929687 c -1.16016,0 -1.94531,0.5976562 -1.94531,1.5117187 0,0.9140625 0.78515,1.5117188 1.94531,1.5117188 1.14844,0 1.93359,-0.5976563 1.93359,-1.5117188 0,-0.9140625 -0.78515,-1.5117187 -1.93359,-1.5117187 z m 0,0.5859375 c 0.73828,0 1.23047,0.3632812 1.23047,0.9257812 0,0.5625 -0.49219,0.9257813 -1.23047,0.9257813 -0.73828,0 -1.23047,-0.3632813 -1.23047,-0.9257813 0,-0.5625 0.49219,-0.9257812 1.23047,-0.9257812 z m 3.14062,-2.6132813 v 6.0820313 h 0.73828 v -2.8007813 h 1.19532 v -0.6210937 h -1.19532 v -2.6601563 z m -3.5039,0 v 0.984375 h -2.02735 v 0.609375 h 4.78125 v -0.609375 h -2.01562 v -0.984375 z m -0.79688,5.5898438 v 2.33203122 h 5.40235 v -0.609375 h -4.67579 V -1.8170781 Z m 12.47754,-5.6015625 v 8.12109372 h 0.75 V -3.5983281 h 1.32422 v -0.6210938 h -1.32422 v -3.1992187 z m -5.13281,0.796875 v 5.3085937 h 0.63281 c 1.52344,0 2.58984,-0.046875 3.84375,-0.2695312 l -0.0937,-0.6445313 c -1.18359,0.2226563 -2.21484,0.28125 -3.64453,0.28125 v -4.0664062 h 3.02344 v -0.609375 z m 8.69531,6.73828122 c 0.32813,0 0.59766,-0.24609375 0.59766,-0.62109375 0,-0.375 -0.26953,-0.62109377 -0.59766,-0.62109377 -0.32812,0 -0.58594,0.24609377 -0.58594,0.62109377 0,0.375 0.25782,0.62109375 0.58594,0.62109375 z m 0,0"
         style="fill:#000000;fill-opacity:1;fill-rule:nonzero;stroke:none" />
    </g>
  </g>
</svg>
