<?xml version="1.0" encoding="UTF-8" standalone="no"?>
<!-- Created with Inkscape (http://www.inkscape.org/) -->

<svg
   version="1.1"
   id="svg1"
   width="340.59732"
   height="138.196"
   viewBox="0 0 340.59732 138.196"
   sodipodi:docname="1.pdf"
   xmlns:inkscape="http://www.inkscape.org/namespaces/inkscape"
   xmlns:sodipodi="http://sodipodi.sourceforge.net/DTD/sodipodi-0.dtd"
   xmlns="http://www.w3.org/2000/svg"
   xmlns:svg="http://www.w3.org/2000/svg">
  <defs
     id="defs1" />
  <sodipodi:namedview
     id="namedview1"
     pagecolor="#ffffff"
     bordercolor="#000000"
     borderopacity="0.25"
     inkscape:showpageshadow="2"
     inkscape:pageopacity="0.0"
     inkscape:pagecheckerboard="0"
     inkscape:deskcolor="#d1d1d1">
    <inkscape:page
       x="0"
       y="0"
       inkscape:label="1"
       id="page1"
       width="340.59732"
       height="138.196"
       margin="0"
       bleed="0" />
  </sodipodi:namedview>
  <g
     id="g1"
     inkscape:groupmode="layer"
     inkscape:label="1">
    <path
       id="path1"
       d="M -14.17339,-11.33871 H 14.1734 v 22.67743 h -28.34679 z"
       style="fill:#e0e0e0;fill-opacity:1;fill-rule:nonzero;stroke:#000000;stroke-width:0.84683;stroke-linecap:butt;stroke-linejoin:miter;stroke-miterlimit:10;stroke-dasharray:none;stroke-opacity:1"
       transform="matrix(1.3333333,0,0,-1.3333333,27.432,60.012)" />
    <path
       id="path2"
       d="m 2.73,-5.7310078 c 0,-0.2226563 -0.011719,-0.234375 -0.234375,-0.234375 -0.5625,0.5625 -1.3828125,0.5625 -1.6640625,0.5625 v 0.28125 c 0.1757812,0 0.7148437,0 1.2070312,-0.234375 v 4.64062499 c 0,0.328125 -0.035156,0.43359375 -0.8671875,0.43359375 H 0.89015625 V -5.390625e-4 C 1.2065625,-0.02397656 2.0034375,-0.02397656 2.3784375,-0.02397656 c 0.3632812,0 1.171875,0 1.4882812,0.0234374975 V -0.28178906 h -0.28125 C 2.7534375,-0.28178906 2.73,-0.38725781 2.73,-0.71538281 Z m 0,0"
       style="fill:#000000;fill-opacity:1;fill-rule:nonzero;stroke:none"
       aria-label="1"
       transform="matrix(1.3333333,0,0,1.3333333,24.36,63.864)" />
    <path
       id="path3"
       d="m 3.5975234,-2.2262969 c 0,-0.7617187 -0.09375,-1.3125 -0.4101562,-1.8046875 -0.2226563,-0.3164062 -0.6445313,-0.5976562 -1.2070313,-0.5976562 -1.61718746,0 -1.61718746,1.8984375 -1.61718746,2.4023437 0,0.5039063 0,2.36718752 1.61718746,2.36718752 1.6171875,0 1.6171875,-1.86328122 1.6171875,-2.36718752 z m -1.6171875,2.16796877 c -0.3164062,0 -0.75,-0.1875 -0.890625,-0.76171875 -0.09375,-0.41015622 -0.09375,-0.98437502 -0.09375,-1.50000002 0,-0.5039062 0,-1.03125 0.1054688,-1.4179687 0.1523437,-0.5507813 0.5976562,-0.6914063 0.8789062,-0.6914063 0.375,0 0.7382813,0.2226563 0.8671875,0.6328125 0.1054688,0.375 0.1171875,0.8789063 0.1171875,1.4765625 0,0.515625 0,1.0429688 -0.09375,1.47656252 -0.140625,0.6328125 -0.609375,0.78515625 -0.890625,0.78515625 z m 0,0"
       style="fill:#737373;fill-opacity:1;fill-rule:nonzero;stroke:none"
       aria-label="0"
       transform="matrix(1.3333333,0,0,1.3333333,24.785333,84.929333)" />
    <path
       id="path4"
       d="M 16.4412,-11.33871 H 44.78799 V 11.33872 H 16.4412 Z"
       style="fill:#ffffff;fill-opacity:1;fill-rule:nonzero;stroke:#666666;stroke-width:0.44832;stroke-linecap:butt;stroke-linejoin:miter;stroke-miterlimit:10;stroke-dasharray:none;stroke-opacity:1"
       transform="matrix(1.3333333,0,0,-1.3333333,27.432,60.012)" />
    <path
       id="path5"
       d="M 4.1364844,-1.5825703 H 3.8903906 c -0.023437,0.1171875 -0.09375,0.64453124 -0.2109375,0.78515624 -0.046875,0.0820313 -0.6679687,0.0820313 -0.84375,0.0820313 h -1.59375 L 2.1208594,-1.5591328 c 1.4765625,-1.2773438 2.015625,-1.7460938 2.015625,-2.6601563 0,-1.03125 -0.84375,-1.7460937 -1.9453125,-1.7460937 -1.03125,0 -1.73437503,0.8085937 -1.73437503,1.6289062 0,0.4453125 0.38671875,0.4921875 0.46875,0.4921875 0.19921873,0 0.46875003,-0.140625 0.46875003,-0.46875 0,-0.2695312 -0.1875,-0.46875 -0.46875003,-0.46875 -0.046875,0 -0.0703125,0 -0.10546875,0.011719 0.21093748,-0.6328125 0.78515628,-0.9257813 1.26562498,-0.9257813 0.9140625,0 1.2304688,0.8554688 1.2304688,1.4765625 0,0.9140625 -0.6914063,1.6523438 -1.125,2.1210938 l -1.64062503,1.76953124 c -0.09375,0.10546875 -0.09375,0.1171875 -0.09375,0.3281249975 H 3.8903906 Z m 0,0"
       style="fill:#000000;fill-opacity:1;fill-rule:nonzero;stroke:none"
       aria-label="2"
       transform="matrix(1.3333333,0,0,1.3333333,65.18,63.864)" />
    <path
       id="path6"
       d="m 2.3331328,-4.4294219 c 0,-0.1875 -0.011719,-0.1992187 -0.2109375,-0.1992187 -0.4453125,0.4335937 -1.078125,0.4453125 -1.35937499,0.4453125 v 0.2460937 c 0.1640625,0 0.62109379,0 1.00781249,-0.1875 v 3.55078127 c 0,0.234375 0,0.328125 -0.6914062,0.328125 H 0.80969531 V 2.65625e-4 C 0.93860156,-0.01145313 1.7940703,-0.02317188 2.0518828,-0.02317188 c 0.2109375,0 1.0898438,0.01171875 1.2421875,0.023437505 V -0.24582813 H 3.0362578 c -0.703125,0 -0.703125,-0.09375 -0.703125,-0.328125 z m 0,0"
       style="fill:#737373;fill-opacity:1;fill-rule:nonzero;stroke:none"
       aria-label="1"
       transform="matrix(1.3333333,0,0,1.3333333,65.604,84.929333)" />
    <path
       id="path7"
       d="M 47.0558,-11.33871 H 75.40259 V 11.33872 H 47.0558 Z"
       style="fill:#ffffff;fill-opacity:1;fill-rule:nonzero;stroke:#666666;stroke-width:0.44832;stroke-linecap:butt;stroke-linejoin:miter;stroke-miterlimit:10;stroke-dasharray:none;stroke-opacity:1"
       transform="matrix(1.3333333,0,0,-1.3333333,27.432,60.012)" />
    <path
       id="path8"
       d="m 0.2588125,-1.7583516 v 0.28125 h 2.4492188 v 0.77343754 c 0,0.328125 -0.023437,0.421875 -0.703125,0.421875 h -0.1875 V -5.390625e-4 C 2.3799063,-0.02397656 3.001,-0.02397656 3.0713125,-0.02397656 c 0.035156,0 0.6914063,0 1.2539063,0.0234374975 V -0.28178906 H 4.126 c -0.6679687,0 -0.703125,-0.09375 -0.703125,-0.421875 V -1.4771016 h 0.9140625 v -0.28125 H 3.422875 v -4.0664062 c 0,-0.1875 0,-0.2460938 -0.1640625,-0.2460938 -0.1054687,0 -0.1171875,0.011719 -0.1992187,0.140625 z m 0.29296875,0 2.21484375,-3.3164062 v 3.3164062 z m 0,0"
       style="fill:#000000;fill-opacity:1;fill-rule:nonzero;stroke:none"
       aria-label="4"
       transform="matrix(1.3333333,0,0,1.3333333,105.99867,63.864)" />
    <path
       id="path9"
       d="m 3.5150312,-1.2653594 h -0.234375 c -0.023437,0.1523438 -0.082031,0.56250002 -0.1757812,0.63281252 -0.058594,0.0351563 -0.5976563,0.0351563 -0.6914063,0.0351563 H 1.1244062 c 0.7382813,-0.64453122 0.984375,-0.84374992 1.3945313,-1.17187492 0.515625,-0.4101563 0.9960937,-0.8437501 0.9960937,-1.5000001 0,-0.8437499 -0.7382812,-1.3593749 -1.6289062,-1.3593749 -0.8671875,0 -1.453125,0.609375 -1.453125,1.2421874 0,0.3632812 0.3046875,0.3984375 0.375,0.3984375 0.1640625,0 0.375,-0.1171875 0.375,-0.375 0,-0.1289063 -0.058594,-0.3632813 -0.421875,-0.3632813 0.22265625,-0.5039061 0.6914062,-0.65625 1.0195312,-0.65625 0.703125,0 1.0664063,0.5507813 1.0664063,1.1132813 0,0.609375 -0.4335938,1.0898437 -0.65625,1.3359375 l -1.6875,1.66406252 C 0.433,-0.21067188 0.433,-0.19895313 0.433,2.65625e-4 h 2.8828125 z m 0,0"
       style="fill:#737373;fill-opacity:1;fill-rule:nonzero;stroke:none"
       aria-label="2"
       transform="matrix(1.3333333,0,0,1.3333333,106.42267,84.929333)" />
    <path
       id="path10"
       d="M 77.67041,-11.33871 H 106.0172 V 11.33872 H 77.67041 Z"
       style="fill:#ffffff;fill-opacity:1;fill-rule:nonzero;stroke:#666666;stroke-width:0.44832;stroke-linecap:butt;stroke-linejoin:miter;stroke-miterlimit:10;stroke-dasharray:none;stroke-opacity:1"
       transform="matrix(1.3333333,0,0,-1.3333333,27.432,60.012)" />
    <path
       id="path11"
       d="m 0.93680469,-3.0942891 c 0,0.1640625 0,0.2578125 0.11718751,0.2578125 0.070312,0 0.1054687,-0.035156 0.1523437,-0.1171875 0.2695313,-0.375 0.703125,-0.5859375 1.171875,-0.5859375 0.9609375,0 0.9609375,1.3828125 0.9609375,1.6992188 0,0.28125 0,0.8320312 -0.2578125,1.24218749 -0.234375,0.375 -0.6210937,0.5390625 -0.9609375,0.5390625 -0.5390625,0 -1.13671871,-0.328125 -1.34765621,-0.99609379 0.0117188,0 0.0585938,0.023437 0.1171875,0.023437 0.18750001,0 0.44531251,-0.1171875 0.44531251,-0.4335937 0,-0.28125 -0.1992188,-0.4453125 -0.44531251,-0.4453125 -0.1875,0 -0.43359375,0.1054687 -0.43359375,0.46875 0,0.80859374 0.67968746,1.64062499 1.67578126,1.64062499 1.0898437,0 2.0039062,-0.87890625 2.0039062,-1.99218749 0,-1.0898438 -0.7617187,-1.96875 -1.7460937,-1.96875 -0.421875,0 -0.8671875,0.140625 -1.1835938,0.4570312 v -1.7578125 c 0.2695313,0.082031 0.5507813,0.1171875 0.8320313,0.1171875 1.1015625,0 1.7460937,-0.796875 1.7460937,-0.9140625 0,-0.070312 -0.058594,-0.1054687 -0.1054687,-0.1054687 -0.011719,0 -0.035156,0 -0.1171875,0.035156 -0.4101563,0.1757813 -0.8320313,0.2460938 -1.2070313,0.2460938 -0.3867187,0 -0.7851562,-0.070312 -1.1953125,-0.2460938 -0.09375,-0.035156 -0.1054687,-0.035156 -0.1171875,-0.035156 -0.10546871,0 -0.10546871,0.082031 -0.10546871,0.234375 z m 0,0"
       style="fill:#000000;fill-opacity:1;fill-rule:nonzero;stroke:none"
       aria-label="5"
       transform="matrix(1.3333333,0,0,1.3333333,146.81733,63.864)" />
    <path
       id="path12"
       d="m 1.8990781,-2.3317656 c 0.5507813,0 0.9375,0.375 0.9375,1.125 0,0.86718747 -0.5039062,1.12499997 -0.9023437,1.12499997 -0.28125,0 -0.890625,-0.08203125 -1.18359377,-0.4921875 0.32812497,-0.0117188 0.39843747,-0.24609375 0.39843747,-0.38671875 0,-0.22265622 -0.16406247,-0.38671872 -0.38671872,-0.38671872 -0.1875,0 -0.38671875,0.1171875 -0.38671875,0.41015622 0,0.65625 0.72656247,1.078125 1.57031247,1.078125 0.9726563,0 1.640625,-0.64453125 1.640625,-1.34765622 0,-0.5390625 -0.4453125,-1.0898438 -1.21875,-1.2421875 0.7382813,-0.2695313 0.9960938,-0.796875 0.9960938,-1.21875 0,-0.5507813 -0.6328125,-0.9609375 -1.40625,-0.9609375 -0.7734375,0 -1.35937502,0.375 -1.35937502,0.9375 0,0.234375 0.15234375,0.3632812 0.36328125,0.3632812 0.21093747,0 0.35156247,-0.1640625 0.35156247,-0.3515625 0,-0.1992187 -0.140625,-0.3515625 -0.35156247,-0.3632812 0.23437497,-0.3046875 0.71484377,-0.3867188 0.97265627,-0.3867188 0.3164062,0 0.7617187,0.1523438 0.7617187,0.7617188 0,0.2929687 -0.1054687,0.609375 -0.28125,0.8320312 -0.234375,0.2578125 -0.421875,0.28125 -0.7734375,0.2929688 -0.1757812,0.023437 -0.1875,0.023437 -0.2226562,0.023437 -0.011719,0 -0.070312,0.011719 -0.070312,0.09375 0,0.09375 0.058594,0.09375 0.1757812,0.09375 z m 0,0"
       style="fill:#737373;fill-opacity:1;fill-rule:nonzero;stroke:none"
       aria-label="3"
       transform="matrix(1.3333333,0,0,1.3333333,147.24133,84.929333)" />
    <path
       id="path13"
       d="m 108.285,-11.33871 h 28.34679 V 11.33872 H 108.285 Z"
       style="fill:#ffffff;fill-opacity:1;fill-rule:nonzero;stroke:#666666;stroke-width:0.44832;stroke-linecap:butt;stroke-linejoin:miter;stroke-miterlimit:10;stroke-dasharray:none;stroke-opacity:1"
       transform="matrix(1.3333333,0,0,-1.3333333,27.432,60.012)" />
    <path
       id="path14"
       d="m 1.2075703,-2.9653828 c 0,-0.9140625 0.09375,-1.4296875 0.3398438,-1.8984375 0.1757812,-0.3632813 0.609375,-0.8789063 1.2773437,-0.8789063 0.1757813,0 0.5859375,0.035156 0.796875,0.3515625 -0.328125,0 -0.46875,0.1757813 -0.46875,0.4101563 0,0.234375 0.1523438,0.421875 0.4101563,0.421875 0.2460937,0 0.421875,-0.1640625 0.421875,-0.4335938 0,-0.5039062 -0.3632813,-0.9726562 -1.1835938,-0.9726562 -1.1484375,0 -2.41406249,1.1367187 -2.41406249,3.1289062 0,2.43750004 1.08984379,3.03515629 1.93359379,3.03515629 0.9960937,0 1.8984375,-0.83203125 1.8984375,-2.01562499 0,-1.1367188 -0.8320313,-2.0039063 -1.8398438,-2.0039063 -0.5390625,0 -0.9257812,0.3164063 -1.171875,0.8554688 z m 1.1015625,2.90624999 c -0.5039062,0 -0.796875,-0.421875 -0.9140625,-0.6796875 C 1.2310078,-1.1372578 1.2192891,-1.8872578 1.2192891,-2.0278828 c 0,-0.5976563 0.28125,-1.5703125 1.1367187,-1.5703125 0.140625,0 0.5859375,0 0.8671875,0.5625 0.1757813,0.3398437 0.1757813,0.7734375 0.1757813,1.2070312 0,0.4335938 0,0.86718754 -0.1757813,1.19531254 -0.2695312,0.515625 -0.6679687,0.57421875 -0.9140625,0.57421875 z m 0,0"
       style="fill:#000000;fill-opacity:1;fill-rule:nonzero;stroke:none"
       aria-label="6"
       transform="matrix(1.3333333,0,0,1.3333333,187.636,63.864)" />
    <path
       id="path15"
       d="M 3.6903516,-1.1481719 V -1.3942656 H 2.9169141 v -3.1054688 c 0,-0.1523437 0,-0.1992187 -0.1523438,-0.1992187 -0.09375,0 -0.1171875,0 -0.1875,0.09375 l -2.30859374,3.2109375 v 0.2460937 H 2.3192578 v 0.57421877 c 0,0.234375 0,0.328125 -0.5625,0.328125 h -0.1875 V 2.65625e-4 c 0.3515625,-0.011718755 0.796875,-0.023437505 1.0429688,-0.023437505 0.2578125,0 0.703125,0.01171875 1.0546875,0.023437505 V -0.24582813 h -0.1875 c -0.5625,0 -0.5625,-0.09375 -0.5625,-0.328125 V -1.1481719 Z M 2.3661328,-3.9489531 v 2.5546875 H 0.52628906 Z m 0,0"
       style="fill:#737373;fill-opacity:1;fill-rule:nonzero;stroke:none"
       aria-label="4"
       transform="matrix(1.3333333,0,0,1.3333333,188.06,84.929333)" />
    <path
       id="path16"
       d="M 138.89961,-11.33871 H 167.2464 V 11.33872 H 138.89961 Z"
       style="fill:#ffffff;fill-opacity:1;fill-rule:nonzero;stroke:#666666;stroke-width:0.44832;stroke-linecap:butt;stroke-linejoin:miter;stroke-miterlimit:10;stroke-dasharray:none;stroke-opacity:1"
       transform="matrix(1.3333333,0,0,-1.3333333,27.432,60.012)" />
    <path
       id="path17"
       d="m 1.5457188,-4.0669453 c -0.2695313,-0.1757813 -0.4804688,-0.4101563 -0.4804688,-0.75 0,-0.5859375 0.6328125,-0.9257813 1.21875,-0.9257813 0.6914063,0 1.2421875,0.4804688 1.2421875,1.1015625 0,0.6328125 -0.5273437,1.0429688 -0.890625,1.2539063 z m 1.3125,0.8203125 c 0.4453125,-0.2109375 1.1015625,-0.6679688 1.1015625,-1.3945313 0,-0.8320312 -0.84375,-1.3242187 -1.6523438,-1.3242187 -0.9375,0 -1.67578125,0.6679687 -1.67578125,1.4882812 0,0.3398438 0.12890625,0.6679688 0.33984375,0.9257813 0.1523438,0.1757812 0.2109375,0.2109375 0.7265625,0.5390625 -0.78515625,0.375 -1.3125,0.9257812 -1.3125,1.6523437 0,0.96093754 0.9375,1.55859379 1.9101563,1.55859379 1.0429687,0 1.921875,-0.73828125 1.921875,-1.71093749 0,-0.8671875 -0.6679688,-1.2890625 -0.890625,-1.4414063 -0.1054688,-0.070312 -0.3632813,-0.234375 -0.46875,-0.2929687 z m -0.9140625,0.3867187 1.125,0.703125 c 0.2109375,0.1289063 0.65625,0.421875 0.65625,0.9609375 0,0.71484379 -0.7148438,1.13671879 -1.4179688,1.13671879 -0.7851562,0 -1.44140625,-0.55078125 -1.44140625,-1.30078129 0,-0.6445312 0.44531255,-1.171875 1.07812505,-1.5 z m 0,0"
       style="fill:#000000;fill-opacity:1;fill-rule:nonzero;stroke:none"
       aria-label="8"
       transform="matrix(1.3333333,0,0,1.3333333,228.45467,63.864)" />
    <path
       id="path18"
       d="m 1.0773047,-3.8903594 c 0.3632812,0.09375 0.5625,0.09375 0.6796875,0.09375 0.9140625,0 1.4648437,-0.6328125 1.4648437,-0.7382812 0,-0.070312 -0.046875,-0.09375 -0.082031,-0.09375 -0.011719,0 -0.035156,0 -0.058594,0.023437 -0.1640625,0.058594 -0.5390625,0.1992187 -1.0546875,0.1992187 -0.1992187,0 -0.5625,-0.011719 -1.0195312,-0.1875 -0.0703125,-0.035156 -0.0820313,-0.035156 -0.0820313,-0.035156 -0.09375,0 -0.09375,0.070312 -0.09375,0.1875 v 2.0625 c 0,0.1171875 0,0.1992187 0.10546875,0.1992187 0.0703126,0 0.0703126,-0.011719 0.14062505,-0.1054687 0.3046875,-0.375 0.7265625,-0.4335938 0.9726562,-0.4335938 0.421875,0 0.609375,0.3398438 0.6445313,0.3867188 0.1171875,0.234375 0.1640625,0.5039062 0.1640625,0.9023437 0,0.2109375 0,0.62109377 -0.2109375,0.92578127 -0.1757813,0.2578125 -0.46875,0.421875 -0.8203125,0.421875 -0.4453125,0 -0.91406255,-0.2578125 -1.0898438,-0.71484375 0.2695313,0.0234375 0.3984375,-0.15234375 0.3984375,-0.33984372 0,-0.3046875 -0.2578125,-0.3515625 -0.3515625,-0.3515625 -0.0117188,0 -0.3515625,0 -0.3515625,0.375 0,0.62109372 0.5742188,1.25390622 1.4179688,1.25390622 0.890625,0 1.6640625,-0.66796875 1.6640625,-1.54687502 0,-0.7851562 -0.5976563,-1.5117187 -1.453125,-1.5117187 -0.3164063,0 -0.6796875,0.082031 -0.984375,0.3398437 z m 0,0"
       style="fill:#737373;fill-opacity:1;fill-rule:nonzero;stroke:none"
       aria-label="5"
       transform="matrix(1.3333333,0,0,1.3333333,228.88,84.929333)" />
    <path
       id="path19"
       d="m 169.51422,-11.33871 h 28.34679 v 22.67743 h -28.34679 z"
       style="fill:#ffffff;fill-opacity:1;fill-rule:nonzero;stroke:#666666;stroke-width:0.44832;stroke-linecap:butt;stroke-linejoin:miter;stroke-miterlimit:10;stroke-dasharray:none;stroke-opacity:1"
       transform="matrix(1.3333333,0,0,-1.3333333,27.432,60.012)" />
    <path
       id="path20"
       d="m 2.7308125,-5.7310078 c 0,-0.2226563 -0.011719,-0.234375 -0.234375,-0.234375 -0.5625,0.5625 -1.3828125,0.5625 -1.6640625,0.5625 v 0.28125 c 0.1757812,0 0.7148437,0 1.2070312,-0.234375 v 4.64062499 c 0,0.328125 -0.035156,0.43359375 -0.8671875,0.43359375 H 0.89096875 V -5.390625e-4 C 1.207375,-0.02397656 2.00425,-0.02397656 2.37925,-0.02397656 c 0.3632812,0 1.171875,0 1.4882812,0.0234374975 V -0.28178906 h -0.28125 c -0.8320312,0 -0.8554687,-0.10546875 -0.8554687,-0.43359375 z m 6.1201172,2.859375 c 0,-0.5976563 -0.023437,-1.3710938 -0.3398438,-2.0390625 -0.3984375,-0.84375 -1.078125,-1.0546875 -1.59375,-1.0546875 -0.5390625,0 -1.21875,0.2109375 -1.6171875,1.0664062 -0.2929687,0.6210938 -0.328125,1.3476563 -0.328125,2.0273438 0,0.5859375 0.011719,1.453125 0.3984375,2.16796874 0.421875,0.76171875 1.125,0.90234375 1.5351563,0.90234375 0.5859375,0 1.2421875,-0.2578125 1.6171875,-1.078125 0.2695312,-0.59765629 0.328125,-1.27734379 0.328125,-1.99218749 z m -1.9335938,2.84765624 c -0.2695312,0 -0.9140625,-0.12890625 -1.0898437,-1.13671874 -0.09375,-0.5390625 -0.09375,-1.3007813 -0.09375,-1.8164063 0,-0.609375 0,-1.3125 0.1171875,-1.8164062 0.1757812,-0.796875 0.75,-0.9492188 1.0546875,-0.9492188 0.3398437,0 0.9023437,0.1757813 1.078125,1.0078125 0.09375,0.4921875 0.09375,1.1953125 0.09375,1.7578125 0,0.5507813 0,1.3125 -0.09375,1.8398438 -0.1875,1.01953124 -0.84375,1.11328124 -1.0664063,1.11328124 z m 0,0"
       style="fill:#000000;fill-opacity:1;fill-rule:nonzero;stroke:none"
       aria-label="10"
       transform="matrix(1.3333333,0,0,1.3333333,266.20267,63.864)" />
    <path
       id="path21"
       d="m 1.0433828,-2.2848906 c 0,-0.5625 0.046875,-1.078125 0.3164063,-1.5117188 0.234375,-0.375 0.609375,-0.6328125 1.0546875,-0.6328125 0.2109375,0 0.4921875,0.058594 0.6328125,0.2460938 -0.1757813,0.011719 -0.3164063,0.1289062 -0.3164063,0.3398437 0,0.1640625 0.1171875,0.328125 0.328125,0.328125 0.1992188,0 0.328125,-0.140625 0.328125,-0.3515625 0,-0.3984375 -0.2929687,-0.7617187 -0.984375,-0.7617187 -0.9960937,0 -2.02734374,0.9140625 -2.02734374,2.4140625 0,1.80468747 0.85546874,2.35546872 1.61718754,2.35546872 0.8554687,0 1.59375,-0.64453125 1.59375,-1.55859372 0,-0.890625 -0.703125,-1.546875 -1.5234375,-1.546875 -0.5507813,0 -0.8671875,0.375 -1.0195313,0.6796875 z m 0.9492188,2.20312497 c -0.3515625,0 -0.6210938,-0.19921875 -0.7617188,-0.515625 C 1.1254141,-0.79660938 1.0668203,-1.1481719 1.0668203,-1.5700469 c 0,-0.6796875 0.4101563,-1.1953125 0.9609375,-1.1953125 0.328125,0 0.5390625,0.1171875 0.7148438,0.3867188 0.1640625,0.2578125 0.1757812,0.5507812 0.1757812,0.9609375 0,0.3984375 0,0.69140622 -0.1875,0.96093747 -0.1757812,0.24609375 -0.3984375,0.375 -0.7382812,0.375 z m 0,0"
       style="fill:#737373;fill-opacity:1;fill-rule:nonzero;stroke:none"
       aria-label="6"
       transform="matrix(1.3333333,0,0,1.3333333,269.69867,84.929333)" />
    <path
       id="path22"
       d="m 200.12885,-11.33871 h 28.34679 v 22.67743 h -28.34679 z"
       style="fill:#e0e0e0;fill-opacity:1;fill-rule:nonzero;stroke:#000000;stroke-width:0.84683;stroke-linecap:butt;stroke-linejoin:miter;stroke-miterlimit:10;stroke-dasharray:none;stroke-opacity:1"
       transform="matrix(1.3333333,0,0,-1.3333333,27.432,60.012)" />
    <path
       id="path23"
       d="m 2.7291172,-5.7310078 c 0,-0.2226563 -0.011719,-0.234375 -0.234375,-0.234375 -0.5625,0.5625 -1.3828125,0.5625 -1.66406251,0.5625 v 0.28125 c 0.17578121,0 0.71484371,0 1.20703121,-0.234375 v 4.64062499 c 0,0.328125 -0.035156,0.43359375 -0.8671875,0.43359375 H 0.88927344 V -5.390625e-4 C 1.2056797,-0.02397656 2.0025547,-0.02397656 2.3775547,-0.02397656 c 0.3632812,0 1.171875,0 1.4882812,0.0234374975 V -0.28178906 h -0.28125 c -0.8320312,0 -0.8554687,-0.10546875 -0.8554687,-0.43359375 z m 6.0146484,4.1484375 H 8.4976719 c -0.023437,0.1171875 -0.09375,0.64453124 -0.2109375,0.78515624 -0.046875,0.0820313 -0.6679688,0.0820313 -0.84375,0.0820313 h -1.59375 L 6.7281406,-1.5591328 c 1.4765625,-1.2773438 2.015625,-1.7460938 2.015625,-2.6601563 0,-1.03125 -0.84375,-1.7460937 -1.9453125,-1.7460937 -1.03125,0 -1.734375,0.8085937 -1.734375,1.6289062 0,0.4453125 0.3867188,0.4921875 0.46875,0.4921875 0.1992188,0 0.46875,-0.140625 0.46875,-0.46875 0,-0.2695312 -0.1875,-0.46875 -0.46875,-0.46875 -0.046875,0 -0.070312,0 -0.1054687,0.011719 0.2109375,-0.6328125 0.7851562,-0.9257813 1.265625,-0.9257813 0.9140625,0 1.2304687,0.8554688 1.2304687,1.4765625 0,0.9140625 -0.6914062,1.6523438 -1.125,2.1210938 l -1.640625,1.76953124 c -0.09375,0.10546875 -0.09375,0.1171875 -0.09375,0.3281249975 h 3.4335938 z m 0,0"
       style="fill:#000000;fill-opacity:1;fill-rule:nonzero;stroke:none"
       aria-label="12"
       transform="matrix(1.3333333,0,0,1.3333333,307.02133,63.864)" />
    <path
       id="path24"
       d="m 3.7252812,-4.2067656 c 0.070312,-0.09375 0.070312,-0.1054688 0.070312,-0.28125 h -1.828125 c -0.2695312,0 -0.3515625,-0.011719 -0.5976562,-0.035156 -0.3632813,-0.023437 -0.38671875,-0.070312 -0.3984375,-0.1875 H 0.72528125 l -0.234375,1.4882813 h 0.234375 C 0.737,-3.3278594 0.8073125,-3.7848906 0.9245,-3.8552031 c 0.046875,-0.046875 0.609375,-0.046875 0.7148437,-0.046875 H 3.1627812 C 2.940125,-3.6091094 2.5885625,-3.1755156 2.4362187,-2.9762969 1.5221562,-1.7809844 1.440125,-0.66770313 1.440125,-0.25754688 c 0,0.0820312 0,0.3984375 0.328125,0.3984375 0.3398437,0 0.3398437,-0.31640625 0.3398437,-0.41015625 v -0.26953125 c 0,-1.35937502 0.2695313,-1.98046872 0.5742188,-2.35546872 z m 0,0"
       style="fill:#737373;fill-opacity:1;fill-rule:nonzero;stroke:none"
       aria-label="7"
       transform="matrix(1.3333333,0,0,1.3333333,310.51733,84.929333)" />
    <path
       id="path25"
       d="m 2.3085937,-5.9175547 c 0.035156,-0.1289062 0.035156,-0.140625 0.035156,-0.1757812 0,-0.082031 -0.046875,-0.1289063 -0.1289063,-0.1289063 -0.1523437,0 -0.9023437,0.070312 -1.0898437,0.09375 -0.070312,0.011719 -0.1875,0.011719 -0.1875,0.1640625 0,0.1171875 0.1054687,0.1171875 0.234375,0.1171875 0.421875,0 0.421875,0.070312 0.421875,0.140625 0,0.046875 0,0.058594 -0.046875,0.2226563 l -1.1015625,4.40625 c -0.046875,0.18749996 -0.046875,0.30468746 -0.046875,0.33984371 0,0.5625 0.45703125,0.83203125 0.8554687,0.83203125 0.4101563,0 0.5976563,-0.31640625 0.6914063,-0.515625 0.1640625,-0.31640625 0.2695312,-0.83203126 0.2695312,-0.85546876 0,-0.046875 -0.023437,-0.1171875 -0.1171875,-0.1171875 -0.1054687,0 -0.1171875,0.046875 -0.1523437,0.2226563 -0.1523438,0.60937496 -0.328125,1.04296871 -0.6679688,1.04296871 -0.1757812,0 -0.2695312,-0.1171875 -0.2695312,-0.41015625 0,-0.1875 0.011719,-0.24609375 0.046875,-0.3984375 z m 0,0"
       style="fill:#000000;fill-opacity:1;fill-rule:nonzero;stroke:none"
       aria-label="l"
       transform="matrix(1.3333333,0,0,1.3333333,25.5,20.698667)" />
    <path
       id="path26"
       d="M 0,25.96545 V 17.32582"
       style="fill:none;stroke:#000000;stroke-width:0.49814;stroke-linecap:butt;stroke-linejoin:miter;stroke-miterlimit:10;stroke-dasharray:none;stroke-opacity:1"
       transform="matrix(1.3333333,0,0,-1.3333333,27.432,60.012)" />
    <path
       id="path27"
       d="M 3.54292,0 C 3.10782,0.10701 1.19533,0.71347 0,1.37344 V -1.37344 C 1.19533,-0.71347 3.10782,-0.10701 3.54292,0 Z"
       style="fill:#000000;fill-opacity:1;fill-rule:nonzero;stroke:#000000;stroke-width:0.49814;stroke-linecap:butt;stroke-linejoin:miter;stroke-miterlimit:10;stroke-dasharray:none;stroke-opacity:1"
       transform="matrix(0,1.3333333,1.3333333,0,27.432,36.910907)" />
    <path
       id="path28"
       d="m 3.6220859,-3.6329922 c -0.2929687,0.058594 -0.4453125,0.3046875 -0.4453125,0.4921875 0,0.1757813 0.1289063,0.328125 0.3515625,0.328125 0.234375,0 0.4921875,-0.2109375 0.4921875,-0.5390625 0,-0.3515625 -0.328125,-0.609375 -0.7617187,-0.609375 -0.6796875,0 -1.0546875,0.5039063 -1.1835938,0.6679688 -0.1054687,-0.4921875 -0.5039062,-0.6679688 -0.84375,-0.6679688 -0.32812496,0 -0.52734371,0.1992188 -0.67968746,0.5039063 -0.17578125,0.328125 -0.29296875,0.84375 -0.29296875,0.8789062 0,0.082031 0.0703125,0.1054688 0.12890625,0.1054688 0.09375,0 0.1171875,-0.046875 0.1640625,-0.2226563 0.1640625,-0.7148437 0.3515625,-1.0429687 0.65624996,-1.0429687 0.2695313,0 0.2695313,0.28125 0.2695313,0.421875 0,0.1875 -0.070312,0.46875 -0.1171875,0.703125 -0.070312,0.234375 -0.1523438,0.609375 -0.1992188,0.7265625 l -0.35156246,1.46484371 c -0.0703125,0.2109375 -0.0703125,0.234375 -0.0703125,0.2578125 0,0.1171875 0.0820313,0.2578125 0.28124996,0.2578125 0.2929688,0 0.3515625,-0.234375 0.4101563,-0.4921875 0.1171875,-0.38671875 0.1171875,-0.41015625 0.1992187,-0.77343751 0.3398438,-1.3476562 0.3867188,-1.5585937 0.4101563,-1.6054687 0.046875,-0.1054688 0.4570312,-0.9609375 1.2070312,-0.9609375 0.2109375,0 0.328125,0.070312 0.375,0.1054687 z m 0,0"
       style="fill:#000000;fill-opacity:1;fill-rule:nonzero;stroke:none"
       aria-label="r"
       transform="matrix(1.3333333,0,0,1.3333333,310.22133,19.121333)" />
    <path
       id="path29"
       d="M 214.30179,27.14854 V 17.32582"
       style="fill:none;stroke:#000000;stroke-width:0.49814;stroke-linecap:butt;stroke-linejoin:miter;stroke-miterlimit:10;stroke-dasharray:none;stroke-opacity:1"
       transform="matrix(1.3333333,0,0,-1.3333333,27.432,60.012)" />
    <path
       id="path30"
       d="M 3.54292,0 C 3.10782,0.10701 1.19533,0.71347 0,1.37344 V -1.37344 C 1.19533,-0.71347 3.10782,-0.10701 3.54292,0 Z"
       style="fill:#000000;fill-opacity:1;fill-rule:nonzero;stroke:#000000;stroke-width:0.49814;stroke-linecap:butt;stroke-linejoin:miter;stroke-miterlimit:10;stroke-dasharray:none;stroke-opacity:1"
       transform="matrix(0,1.3333333,1.3333333,0,313.16772,36.910907)" />
    <path
       id="path31"
       d="m -14.17339,-36.28403 c 0.59774,-1.19554 1.99256,-1.99255 3.98511,-1.99255 H 103.166 c 1.99255,0 3.38736,-0.79702 3.98511,-1.99255 0.59775,1.19553 1.99255,1.99255 3.98511,1.99255 h 113.3543 c 1.99256,0 3.38738,0.79701 3.98511,1.99255"
       style="fill:none;stroke:#000000;stroke-width:0.44832;stroke-linecap:butt;stroke-linejoin:miter;stroke-miterlimit:10;stroke-dasharray:none;stroke-opacity:1"
       transform="matrix(1.3333333,0,0,-1.3333333,27.432,60.012)" />
    <g
       id="g31"
       aria-label="A&#10;0&#10;+A&#10;7&#10;=1+12=13⇒cnt=1,l++,r−−"
       transform="matrix(1.3333333,0,0,1.3333333,43.110667,123.47333)">
      <path
         id="path32"
         d="m 1.6279375,-1.0551953 c -0.4335937,0.72656249 -0.83203125,0.74999999 -1.1953125,0.77343749 -0.0585938,0.0117188 -0.10546875,0.0820313 -0.10546875,0.1640625 0,0.05859375 0.0351563,0.1171874975 0.12890625,0.1171874975 0.17578125,0 0.5976563,-0.0234374975 0.7617188,-0.0234374975 0.1992187,0 0.6796875,0.0234374975 0.8789062,0.0234374975 0.058594,0 0.1757813,0 0.1757813,-0.1640624975 0,-0.10546875 -0.1171875,-0.1171875 -0.140625,-0.1171875 -0.082031,0 -0.421875,-0.0234375 -0.421875,-0.29296875 0,-0.12890625 0.1054687,-0.29296875 0.1289062,-0.33984375 L 2.542,-2.0747266 h 2.34375 c 0.023437,0.2109375 0.058594,0.515625 0.082031,0.7382813 0.035156,0.35156249 0.082031,0.74999999 0.082031,0.77343749 0,0.12890625 -0.1171875,0.28125 -0.6445312,0.28125 -0.082031,0 -0.1992188,0 -0.1992188,0.1640625 0,0.09375 0.070312,0.1171874975 0.1289063,0.1171874975 0.1757812,0 0.3867187,-0.0234374975 0.5625,-0.0234374975 0.1875,0 0.3984375,0 0.5390625,0 0.3046875,0 0.3164062,0 0.5273437,0 0.1523438,0.01171875 0.3515625,0.0234374975 0.5039063,0.0234374975 0.046875,0 0.1640625,0 0.1640625,-0.1640624975 0,-0.1171875 -0.09375,-0.1171875 -0.1992188,-0.1171875 -0.5390625,0 -0.5507812,-0.0585938 -0.5742187,-0.31640625 L 5.2255938,-6.1762891 c -0.023437,-0.1992187 -0.023437,-0.2460937 -0.1757813,-0.2460937 -0.1289062,0 -0.1875,0.070312 -0.2578125,0.1875 z m 1.0898438,-1.2890625 1.8046875,-2.9648438 0.3398437,2.9648438 z m 0,0"
         style="fill:#000000;fill-opacity:1;fill-rule:nonzero;stroke:none" />
      <path
         id="path33"
         d="m 10.191414,-0.91457031 c 0,-0.43359379 0,-2.06249999 -1.4531249,-2.06249999 -1.4648438,0 -1.4648438,1.6289062 -1.4648438,2.06249999 0,0.43359375 0,2.03906251 1.4648438,2.03906251 1.4531249,0 1.4531249,-1.60546876 1.4531249,-2.03906251 z M 8.7382891,0.92527344 c -0.2578125,0 -0.6679688,-0.1171875 -0.8085938,-0.609375 -0.09375,-0.3515625 -0.09375,-0.9375 -0.09375,-1.30078125 0,-0.39843749 0,-0.86718749 0.082031,-1.18359379 0.1523437,-0.5390625 0.609375,-0.6210937 0.8203125,-0.6210937 0.2695312,0 0.6679687,0.1289062 0.796875,0.5859375 0.09375,0.3164062 0.09375,0.75 0.09375,1.21874999 0,0.375 0,0.9843749975 -0.1054688,1.3125 C 9.3593828,0.85496094 8.9257891,0.92527344 8.7382891,0.92527344 Z m 0,0"
         style="fill:#000000;fill-opacity:1;fill-rule:nonzero;stroke:none" />
      <path
         id="path34"
         d="m 19.437508,-2.0512891 c 0.128906,0 0.316406,0 0.316406,-0.1875 0,-0.1992187 -0.175781,-0.1992187 -0.316406,-0.1992187 H 16.88282 v -2.5664063 c 0,-0.140625 0,-0.3164062 -0.199218,-0.3164062 -0.1875,0 -0.1875,0.1875 -0.1875,0.3164062 v 2.5664063 h -2.566407 c -0.117187,0 -0.304687,0 -0.304687,0.1875 0,0.1992187 0.164062,0.1992187 0.304687,0.1992187 h 2.566407 v 2.56640629 c 0,0.140625 0,0.3046875 0.199218,0.3046875 0.1875,0 0.1875,-0.1875 0.1875,-0.3046875 V -2.0512891 Z m 0,0"
         style="fill:#000000;fill-opacity:1;fill-rule:nonzero;stroke:none" />
      <path
         id="path35"
         d="m 23.952156,-1.0551953 c -0.433593,0.72656249 -0.832031,0.74999999 -1.195312,0.77343749 -0.05859,0.0117188 -0.105469,0.0820313 -0.105469,0.1640625 0,0.05859375 0.03516,0.1171874975 0.128906,0.1171874975 0.175782,0 0.597657,-0.0234374975 0.761719,-0.0234374975 0.199219,0 0.679688,0.0234374975 0.878906,0.0234374975 0.05859,0 0.175782,0 0.175782,-0.1640624975 0,-0.10546875 -0.117188,-0.1171875 -0.140625,-0.1171875 -0.08203,0 -0.421875,-0.0234375 -0.421875,-0.29296875 0,-0.12890625 0.105468,-0.29296875 0.128906,-0.33984375 l 0.703125,-1.16015629 h 2.34375 c 0.02344,0.2109375 0.05859,0.515625 0.08203,0.7382813 0.03516,0.35156249 0.08203,0.74999999 0.08203,0.77343749 0,0.12890625 -0.117187,0.28125 -0.644531,0.28125 -0.08203,0 -0.199219,0 -0.199219,0.1640625 0,0.09375 0.07031,0.1171874975 0.128907,0.1171874975 0.175781,0 0.386718,-0.0234374975 0.5625,-0.0234374975 0.1875,0 0.398437,0 0.539062,0 0.304688,0 0.316406,0 0.527344,0 0.152344,0.01171875 0.351562,0.0234374975 0.503906,0.0234374975 0.04687,0 0.164063,0 0.164063,-0.1640624975 0,-0.1171875 -0.09375,-0.1171875 -0.199219,-0.1171875 -0.539063,0 -0.550781,-0.0585938 -0.574219,-0.31640625 l -0.63281,-5.57812504 c -0.02344,-0.1992187 -0.02344,-0.2460937 -0.175782,-0.2460937 -0.128906,0 -0.1875,0.070312 -0.257812,0.1875 z m 1.089844,-1.2890625 1.804688,-2.9648438 0.339843,2.9648438 z m 0,0"
         style="fill:#000000;fill-opacity:1;fill-rule:nonzero;stroke:none" />
      <path
         id="path36"
         d="m 32.644539,-2.6137891 c 0.05859,-0.058594 0.05859,-0.070312 0.05859,-0.234375 h -1.546875 c -0.246094,0 -0.386719,-0.011719 -0.621094,-0.023437 -0.292969,-0.023437 -0.363281,-0.035156 -0.386719,-0.1757812 h -0.222656 l -0.222656,1.3125 h 0.222656 c 0.02344,-0.1289063 0.08203,-0.4804688 0.164063,-0.5390625 0.05859,-0.046875 0.5625,-0.046875 0.65625,-0.046875 h 1.347656 c -0.05859,0.09375 -0.386719,0.46875 -0.527344,0.6445312 -0.585937,0.70312504 -0.984375,1.54687504 -0.984375,2.46093754 0,0.046875 0,0.33984376 0.28125,0.33984376 0.292969,0 0.292969,-0.28125001 0.292969,-0.35156251 V 0.59714844 c 0,-1.1484375 0.246094,-1.73437504 0.550781,-2.08593754 z m 0,0"
         style="fill:#000000;fill-opacity:1;fill-rule:nonzero;stroke:none" />
      <path
         id="path37"
         d="m 42.297859,-2.9653516 c 0.117188,0 0.292969,0 0.292969,-0.1875 0,-0.1992187 -0.199219,-0.1992187 -0.328125,-0.1992187 h -5.472656 c -0.140625,0 -0.328125,0 -0.328125,0.1992187 0,0.1875 0.175781,0.1875 0.292969,0.1875 z m -0.03516,1.828125 c 0.128906,0 0.328125,0 0.328125,-0.1992187 0,-0.1875 -0.175781,-0.1875 -0.292969,-0.1875 h -5.542968 c -0.117188,0 -0.292969,0 -0.292969,0.1875 0,0.1992187 0.1875,0.1992187 0.328125,0.1992187 z m 6.143555,-4.59375 c 0,-0.2226562 -0.01172,-0.234375 -0.234375,-0.234375 -0.5625,0.5625 -1.382813,0.5625 -1.664063,0.5625 v 0.28125 c 0.175782,0 0.714844,0 1.207032,-0.234375 v 4.64062504 c 0,0.328125 -0.03516,0.43359375 -0.867188,0.43359375 H 46.56641 V -5.078125e-4 C 46.88282,-0.02394531 47.679695,-0.02394531 48.054695,-0.02394531 c 0.363282,0 1.171875,0 1.488282,0.0234374975 V -0.28175781 h -0.28125 c -0.832032,0 -0.855469,-0.10546875 -0.855469,-0.43359375 z m 10.250976,3.6796875 c 0.128907,0 0.316407,0 0.316407,-0.1875 0,-0.1992187 -0.175782,-0.1992187 -0.316407,-0.1992187 h -2.554687 v -2.5664063 c 0,-0.140625 0,-0.3164062 -0.199219,-0.3164062 -0.1875,0 -0.1875,0.1875 -0.1875,0.3164062 v 2.5664063 h -2.566406 c -0.117188,0 -0.304688,0 -0.304688,0.1875 0,0.1992187 0.164063,0.1992187 0.304688,0.1992187 h 2.566406 v 2.56640629 c 0,0.140625 0,0.3046875 0.199219,0.3046875 0.1875,0 0.1875,-0.1875 0.1875,-0.3046875 V -2.0512891 Z m 5.613282,-3.6796875 c 0,-0.2226562 -0.01172,-0.234375 -0.234375,-0.234375 -0.5625,0.5625 -1.382813,0.5625 -1.664063,0.5625 v 0.28125 c 0.175781,0 0.714844,0 1.207031,-0.234375 v 4.64062504 c 0,0.328125 -0.03516,0.43359375 -0.867187,0.43359375 h -0.28125 v 0.2812499975 c 0.31641,-0.0234374975 1.113285,-0.0234374975 1.488285,-0.0234374975 0.363281,0 1.171875,0 1.488281,0.0234374975 V -0.28175781 h -0.28125 c -0.832031,0 -0.855468,-0.10546875 -0.855468,-0.43359375 z m 6.014648,4.1484375 h -0.24609 c -0.02344,0.1171875 -0.09375,0.64453129 -0.210937,0.78515629 -0.04687,0.0820313 -0.667969,0.0820313 -0.84375,0.0820313 h -1.59375 l 0.878906,-0.84374999 c 1.476563,-1.2773437 2.015625,-1.7460937 2.015625,-2.6601562 0,-1.03125 -0.84375,-1.7460938 -1.945312,-1.7460938 -1.03125,0 -1.734375,0.8085938 -1.734375,1.6289063 0,0.4453125 0.386718,0.4921875 0.46875,0.4921875 0.199218,0 0.46875,-0.140625 0.46875,-0.46875 0,-0.2695313 -0.1875,-0.46875 -0.46875,-0.46875 -0.04687,0 -0.07031,0 -0.105469,0.011719 0.210937,-0.6328125 0.785156,-0.9257812 1.265625,-0.9257812 0.914062,0 1.230469,0.8554687 1.230469,1.4765625 0,0.9140625 -0.691407,1.6523437 -1.125,2.1210936 l -1.640625,1.76953134 c -0.09375,0.10546875 -0.09375,0.1171875 -0.09375,0.3281249975 h 3.433593 z m 9.386719,-1.3828125 c 0.117187,0 0.292969,0 0.292969,-0.1875 0,-0.1992187 -0.199219,-0.1992187 -0.328125,-0.1992187 H 74.16407 c -0.140625,0 -0.328125,0 -0.328125,0.1992187 0,0.1875 0.175782,0.1875 0.292969,0.1875 z m -0.03516,1.828125 c 0.128906,0 0.328125,0 0.328125,-0.1992187 0,-0.1875 -0.175782,-0.1875 -0.292969,-0.1875 h -5.542969 c -0.117187,0 -0.292969,0 -0.292969,0.1875 0,0.1992187 0.1875,0.1992187 0.328125,0.1992187 z m 6.137695,-4.59375 c 0,-0.2226562 -0.01172,-0.234375 -0.234375,-0.234375 -0.5625,0.5625 -1.382813,0.5625 -1.664063,0.5625 v 0.28125 c 0.175782,0 0.714844,0 1.207032,-0.234375 v 4.64062504 c 0,0.328125 -0.03516,0.43359375 -0.867188,0.43359375 H 83.93457 V -5.078125e-4 C 84.250984,-0.02394531 85.047859,-0.02394531 85.422859,-0.02394531 c 0.363282,0 1.171875,0 1.488282,0.0234374975 V -0.28175781 h -0.28125 c -0.832032,0 -0.855469,-0.10546875 -0.855469,-0.43359375 z m 4.608398,2.578125 c 0.832032,-0.3164062 1.230469,-0.9726562 1.230469,-1.59375 0,-0.6914062 -0.761719,-1.21875 -1.6875,-1.21875 -0.9375,0 -1.640625,0.5273438 -1.640625,1.2070313 0,0.2929687 0.199219,0.46875 0.457031,0.46875 0.269532,0 0.457032,-0.1875 0.457032,-0.4570313 0,-0.3046875 -0.222657,-0.4453125 -0.527344,-0.4453125 0.234375,-0.375 0.785156,-0.5507812 1.21875,-0.5507812 0.75,0 0.890625,0.5859375 0.890625,1.0078125 0,0.2695312 -0.05859,0.703125 -0.28125,1.0429687 -0.269531,0.3984375 -0.585938,0.421875 -0.84375,0.4335938 -0.234375,0.023437 -0.246094,0.023437 -0.316406,0.023437 -0.08203,0.011719 -0.152344,0.011719 -0.152344,0.1171875 0,0.1171875 0.07031,0.1171875 0.222656,0.1171875 h 0.421875 c 0.773438,0 1.125,0.6210937 1.125,1.4765625 0,1.14843749 -0.621094,1.46484374 -1.078125,1.46484374 -0.164062,0 -1.03125,-0.03515625 -1.441406,-0.703125 0.328125,0.046875 0.574219,-0.17578125 0.574219,-0.48046874 0,-0.3046875 -0.222657,-0.4921875 -0.480469,-0.4921875 -0.222656,0 -0.492188,0.140625 -0.492188,0.515625 0,0.79687499 0.832032,1.41796874 1.875,1.41796874 1.113282,0 1.957032,-0.80859375 1.957032,-1.72265624 0,-0.7851563 -0.621094,-1.4414063 -1.488282,-1.6289058 z m 0,0"
         style="fill:#000000;fill-opacity:1;fill-rule:nonzero;stroke:none" />
      <path
         id="path38"
         d="m 104.01466,-2.9653516 c 0.45703,0.3867188 0.90234,0.5976563 1.19531,0.7148438 -0.38672,0.1757812 -0.78516,0.3867187 -1.19531,0.7265625 h -5.812504 c -0.128906,0 -0.304687,0 -0.304687,0.1875 0,0.1992187 0.1875,0.1992187 0.351562,0.1992187 h 5.332029 c -0.5625,0.59765629 -0.8789,1.21875004 -0.8789,1.28906254 0,0.1171875 0.11718,0.1171875 0.1875,0.1171875 0.11718,0 0.15234,0 0.19922,-0.0820313 0.72656,-1.39453124 1.73437,-2.00390624 2.89453,-2.32031254 0.0703,-0.023437 0.0937,-0.070312 0.0937,-0.1054688 0,-0.09375 -0.082,-0.1054687 -0.0937,-0.1171875 -0.44532,-0.1289062 -1.06641,-0.2929687 -1.83985,-0.9492187 -0.32812,-0.2929688 -0.71484,-0.7148437 -1.00781,-1.2773437 -0.0937,-0.1640625 -0.0937,-0.1757812 -0.24609,-0.1757812 -0.0703,0 -0.1875,0 -0.1875,0.1171875 0,0.070312 0.30468,0.6796874 0.8789,1.2890624 h -5.332029 c -0.164062,0 -0.351562,0 -0.351562,0.1992187 0,0.1875 0.175781,0.1875 0.304687,0.1875 z m 0,0"
         style="fill:#000000;fill-opacity:1;fill-rule:nonzero;stroke:none" />
      <path
         id="path39"
         d="m 115.32618,-3.4223828 c -0.35156,0.011719 -0.52734,0.2695312 -0.52734,0.4921875 0,0.2578125 0.23437,0.3164062 0.33984,0.3164062 0.1875,0 0.50391,-0.1523437 0.50391,-0.5742187 0,-0.46875 -0.46875,-0.7734375 -1.08985,-0.7734375 -1.21875,0 -2.44922,1.2304687 -2.44922,2.53125 0,0.89062499 0.59766,1.52343749 1.5,1.52343749 1.34766,0 2.09766,-0.92578125 2.09766,-1.04296875 0,-0.0585937 -0.0586,-0.12890624 -0.11719,-0.12890624 -0.0469,0 -0.0586,0.011719 -0.14062,0.10546874 -0.53907,0.66796875 -1.34766,0.84375 -1.81641,0.84375 -0.50391,0 -0.83203,-0.328125 -0.83203,-0.97265624 0,-0.3867188 0.16406,-1.2773438 0.52734,-1.8515625 0.21094,-0.3164063 0.66797,-0.7851563 1.24219,-0.7851563 0.16406,0 0.53906,0.035156 0.76172,0.3164063 z m 2.07715,2.015625 c 0.0937,-0.421875 0.26953,-1.078125 0.26953,-1.1484375 0.0234,-0.058594 0.24609,-0.4804688 0.5625,-0.796875 0.26953,-0.2460938 0.60937,-0.3867188 0.96094,-0.3867188 0.48047,0 0.48047,0.4804688 0.48047,0.6328125 0,0.5390625 -0.42188,1.640625 -0.51563,1.9101563 -0.11719,0.28124999 -0.15234,0.37499999 -0.15234,0.53906249 0,0.48046875 0.375,0.75 0.77343,0.75 0.86719,0 1.20704,-1.27734379 1.20704,-1.37109379 0,-0.046875 -0.0234,-0.1171875 -0.11719,-0.1171875 -0.0937,0 -0.10547,0.046875 -0.14063,0.1640625 -0.22265,0.76171879 -0.59765,1.10156254 -0.92578,1.10156254 -0.0586,0 -0.22265,0 -0.22265,-0.28125 0,-0.22265625 0.0937,-0.45703125 0.16406,-0.65625004 0.17578,-0.4570312 0.53906,-1.40625 0.53906,-1.9101562 0,-0.796875 -0.59766,-0.984375 -1.06641,-0.984375 -0.83203,0 -1.27734,0.5859375 -1.41796,0.7734375 -0.0586,-0.4804688 -0.42188,-0.7734375 -0.86719,-0.7734375 -0.375,0 -0.5625,0.28125 -0.69141,0.515625 -0.15234,0.3164062 -0.28125,0.8320312 -0.28125,0.8671875 0,0.082031 0.0703,0.1054687 0.12891,0.1054687 0.0937,0 0.11719,-0.046875 0.16406,-0.2226562 0.16406,-0.7148438 0.35156,-1.0429688 0.65625,-1.0429688 0.26953,0 0.26953,0.28125 0.26953,0.421875 0,0.1875 -0.0703,0.46875 -0.11719,0.703125 -0.0703,0.234375 -0.15234,0.609375 -0.19921,0.7265625 l -0.35157,1.46484379 c -0.0703,0.2109375 -0.0703,0.234375 -0.0703,0.2578125 0,0.1171875 0.082,0.2578125 0.28125,0.2578125 0.12891,0 0.25781,-0.0703125 0.32813,-0.1875 0.0234,-0.046875 0.0937,-0.33984375 0.14062,-0.515625 z m 5.77148,-2.1796875 h 0.85547 c 0.15235,0 0.26953,0 0.26953,-0.1640625 0,-0.1171875 -0.0937,-0.1171875 -0.25781,-0.1171875 h -0.79687 l 0.36328,-1.4882813 c 0,-0.140625 -0.11719,-0.2578125 -0.26953,-0.2578125 -0.29297,0 -0.36329,0.2578125 -0.375,0.3515625 l -0.36329,1.3945313 h -0.84375 c -0.16406,0 -0.28125,0 -0.28125,0.1640625 0,0.1171875 0.10547,0.1171875 0.26954,0.1171875 h 0.79687 l -0.60937,2.4375 c -0.082,0.26953124 -0.082,0.29296874 -0.082,0.41015624 0,0.52734375 0.41016,0.83203125 0.87891,0.83203125 0.92578,0 1.45313,-1.28906249 1.45313,-1.37109379 0,-0.046875 -0.0234,-0.1171875 -0.11719,-0.1171875 -0.082,0 -0.0937,0.035156 -0.15235,0.1875 -0.28125,0.64453129 -0.72656,1.07812504 -1.17187,1.07812504 -0.17578,0 -0.28125,-0.1171875 -0.28125,-0.41015625 0,-0.19921875 0.0234,-0.3046875 0.0586,-0.43359375 z m 0,0"
         style="fill:#000000;fill-opacity:1;fill-rule:nonzero;stroke:none" />
      <path
         id="path40"
         d="m 133.50489,-2.9653516 c 0.11719,0 0.29297,0 0.29297,-0.1875 0,-0.1992187 -0.19922,-0.1992187 -0.32813,-0.1992187 h -5.47265 c -0.14063,0 -0.32813,0 -0.32813,0.1992187 0,0.1875 0.17578,0.1875 0.29297,0.1875 z m -0.0352,1.828125 c 0.12891,0 0.32813,0 0.32813,-0.1992187 0,-0.1875 -0.17578,-0.1875 -0.29297,-0.1875 h -5.54297 c -0.11719,0 -0.29297,0 -0.29297,0.1875 0,0.1992187 0.1875,0.1992187 0.32813,0.1992187 z m 6.14356,-4.59375 c 0,-0.2226562 -0.0117,-0.234375 -0.23438,-0.234375 -0.5625,0.5625 -1.38281,0.5625 -1.66406,0.5625 v 0.28125 c 0.17578,0 0.71485,0 1.20703,-0.234375 v 4.64062504 c 0,0.328125 -0.0351,0.43359375 -0.86718,0.43359375 h -0.28125 v 0.2812499975 c 0.3164,-0.0234374975 1.11328,-0.0234374975 1.48828,-0.0234374975 0.36328,0 1.17187,0 1.48828,0.0234374975 V -0.28175781 h -0.28125 c -0.83203,0 -0.85547,-0.10546875 -0.85547,-0.43359375 z m 0,0"
         style="fill:#000000;fill-opacity:1;fill-rule:nonzero;stroke:none" />
      <path
         id="path41"
         d="m 143.1172,-0.14113281 c 0,0.29296875 0,1.03125 -0.65625,1.66406251 -0.0586,0.058594 -0.0586,0.058594 -0.0586,0.09375 0,0.070312 0.0586,0.1171875 0.11719,0.1171875 0.0937,0 0.82031,-0.703125 0.82031,-1.75781251 0,-0.55078125 -0.1875,-0.94921875 -0.57422,-0.94921875 -0.30468,0 -0.49218,0.234375 -0.49218,0.4921875 0,0.24609375 0.1875,0.4804687475 0.49218,0.4804687475 0.12891,0 0.26953,-0.0468749975 0.35157,-0.1406249975 z m 7.33593,-5.77734379 c 0.0352,-0.1289062 0.0352,-0.140625 0.0352,-0.1757812 0,-0.082031 -0.0469,-0.1289063 -0.12891,-0.1289063 -0.15234,0 -0.90234,0.070312 -1.08984,0.09375 -0.0703,0.011719 -0.1875,0.011719 -0.1875,0.1640625 0,0.1171875 0.10547,0.1171875 0.23437,0.1171875 0.42188,0 0.42188,0.070312 0.42188,0.140625 0,0.046875 0,0.058594 -0.0469,0.2226563 l -1.10156,4.40625 c -0.0469,0.18749999 -0.0469,0.30468749 -0.0469,0.33984374 0,0.5625 0.45703,0.83203125 0.85547,0.83203125 0.41015,0 0.59765,-0.31640625 0.6914,-0.515625 0.16406,-0.31640625 0.26953,-0.83203129 0.26953,-0.85546879 0,-0.046875 -0.0234,-0.1171875 -0.11718,-0.1171875 -0.10547,0 -0.11719,0.046875 -0.15235,0.2226563 -0.15234,0.60937499 -0.32812,1.04296874 -0.66797,1.04296874 -0.17578,0 -0.26953,-0.1171875 -0.26953,-0.41015625 0,-0.1875 0.0117,-0.24609375 0.0469,-0.3984375 z m 0,0"
         style="fill:#000000;fill-opacity:1;fill-rule:nonzero;stroke:none" />
      <path
         id="path42"
         d="m 157.37012,-2.0512891 c 0.12891,0 0.31641,0 0.31641,-0.1875 0,-0.1992187 -0.17578,-0.1992187 -0.31641,-0.1992187 h -2.55468 v -2.5664063 c 0,-0.140625 0,-0.3164062 -0.19922,-0.3164062 -0.1875,0 -0.1875,0.1875 -0.1875,0.3164062 v 2.5664063 h -2.56641 c -0.11719,0 -0.30469,0 -0.30469,0.1875 0,0.1992187 0.16407,0.1992187 0.30469,0.1992187 h 2.56641 v 2.56640629 c 0,0.140625 0,0.3046875 0.19922,0.3046875 0.1875,0 0.1875,-0.1875 0.1875,-0.3046875 V -2.0512891 Z m 7.16895,0 c 0.12891,0 0.31641,0 0.31641,-0.1875 0,-0.1992187 -0.17578,-0.1992187 -0.31641,-0.1992187 h -2.55469 v -2.5664063 c 0,-0.140625 0,-0.3164062 -0.19922,-0.3164062 -0.1875,0 -0.1875,0.1875 -0.1875,0.3164062 v 2.5664063 h -2.5664 c -0.11719,0 -0.30469,0 -0.30469,0.1875 0,0.1992187 0.16406,0.1992187 0.30469,0.1992187 h 2.5664 v 2.56640629 c 0,0.140625 0,0.3046875 0.19922,0.3046875 0.1875,0 0.1875,-0.1875 0.1875,-0.3046875 V -2.0512891 Z m 0,0"
         style="fill:#000000;fill-opacity:1;fill-rule:nonzero;stroke:none" />
      <path
         id="path43"
         d="m 167.00587,-0.14113281 c 0,0.29296875 0,1.03125 -0.65625,1.66406251 -0.0586,0.058594 -0.0586,0.058594 -0.0586,0.09375 0,0.070312 0.0586,0.1171875 0.11719,0.1171875 0.0937,0 0.82031,-0.703125 0.82031,-1.75781251 0,-0.55078125 -0.1875,-0.94921875 -0.57422,-0.94921875 -0.30468,0 -0.49218,0.234375 -0.49218,0.4921875 0,0.24609375 0.1875,0.4804687475 0.49218,0.4804687475 0.12891,0 0.26954,-0.0468749975 0.35157,-0.1406249975 z m 8.64843,-3.49218749 c -0.29296,0.058594 -0.44531,0.3046875 -0.44531,0.4921875 0,0.1757812 0.12891,0.328125 0.35156,0.328125 0.23438,0 0.49219,-0.2109375 0.49219,-0.5390625 0,-0.3515625 -0.32812,-0.609375 -0.76172,-0.609375 -0.67968,0 -1.05468,0.5039062 -1.18359,0.6679687 -0.10547,-0.4921875 -0.50391,-0.6679687 -0.84375,-0.6679687 -0.32813,0 -0.52734,0.1992187 -0.67969,0.5039062 -0.17578,0.328125 -0.29297,0.84375 -0.29297,0.8789063 0,0.082031 0.0703,0.1054687 0.12891,0.1054687 0.0937,0 0.11719,-0.046875 0.16406,-0.2226562 0.16406,-0.7148438 0.35156,-1.0429688 0.65625,-1.0429688 0.26953,0 0.26953,0.28125 0.26953,0.421875 0,0.1875 -0.0703,0.46875 -0.11718,0.703125 -0.0703,0.234375 -0.15235,0.609375 -0.19922,0.7265625 l -0.35157,1.46484379 c -0.0703,0.2109375 -0.0703,0.234375 -0.0703,0.2578125 0,0.1171875 0.082,0.2578125 0.28125,0.2578125 0.29297,0 0.35156,-0.234375 0.41016,-0.4921875 0.11719,-0.38671875 0.11719,-0.41015625 0.19922,-0.77343749 0.33984,-1.3476563 0.38672,-1.5585938 0.41015,-1.6054688 0.0469,-0.1054687 0.45703,-0.9609375 1.20703,-0.9609375 0.21094,0 0.32813,0.070312 0.375,0.1054688 z m 0,0"
         style="fill:#000000;fill-opacity:1;fill-rule:nonzero;stroke:none" />
      <path
         id="path44"
         d="m 182.4922,-2.0512891 c 0.16406,0 0.33984,0 0.33984,-0.1992187 0,-0.1875 -0.1875,-0.1875 -0.33984,-0.1875 h -4.94532 c -0.15234,0 -0.32812,0 -0.32812,0.1875 0,0.1992187 0.16406,0.1992187 0.32812,0.1992187 z m 7.16894,0 c 0.16406,0 0.33984,0 0.33984,-0.1992187 0,-0.1875 -0.1875,-0.1875 -0.33984,-0.1875 h -4.94531 c -0.15235,0 -0.32813,0 -0.32813,0.1875 0,0.1992187 0.16407,0.1992187 0.32813,0.1992187 z m 0,0"
         style="fill:#000000;fill-opacity:1;fill-rule:nonzero;stroke:none" />
    </g>
  </g>
</svg>
