<svg xmlns="http://www.w3.org/2000/svg" width="820" height="380" viewBox="0 0 820 380"><rect width="100%" height="100%" fill="white"/><style>
text{font-family:"JetBrains Mono","Consolas","Noto Sans Mono CJK KR",monospace;fill:#202020}
.label{font-size:18px}.small{font-size:14px;fill:#555}.tiny{font-size:13px;fill:#555}
.node{fill:white;stroke:#555;stroke-width:1.8}.nodeHi{fill:#eee;stroke:#202020;stroke-width:2.3}
.edge{fill:none;stroke:#888;stroke-width:1.7}
.cell{fill:white;stroke:#777;stroke-width:1.2}.cellHi{fill:#eee;stroke:#202020;stroke-width:2}.cellMute{fill:#fafafa;stroke:#bbb;stroke-width:1}
.arrow{fill:none;stroke:#202020;stroke-width:1.7;marker-end:url(#arrow)}
</style><defs><marker id="arrow" markerWidth="9" markerHeight="9" refX="7" refY="3" orient="auto"><path d="M0,0 L0,6 L8,3 z" fill="#202020"/></marker></defs><line x1="410" y1="102" x2="250" y2="133" class="edge"/><line x1="410" y1="102" x2="570" y2="133" class="edge"/><line x1="250" y1="197" x2="170" y2="238" class="edge"/><line x1="250" y1="197" x2="330" y2="238" class="edge"/><line x1="570" y1="197" x2="490" y2="238" class="edge"/><line x1="570" y1="197" x2="650" y2="238" class="edge"/><circle cx="410" cy="70" r="32" class="nodeHi"/><text x="410" y="67" text-anchor="middle" class="label">20</text><text x="410" y="88" text-anchor="middle" class="tiny">[0,3]</text><circle cx="250" cy="165" r="32" class="nodeHi"/><text x="250" y="162" text-anchor="middle" class="label">9</text><text x="250" y="183" text-anchor="middle" class="tiny">[0,1]</text><circle cx="570" cy="165" r="32" class="nodeHi"/><text x="570" y="162" text-anchor="middle" class="label">11</text><text x="570" y="183" text-anchor="middle" class="tiny">[2,3]</text><circle cx="170" cy="270" r="32" class="node"/><text x="170" y="267" text-anchor="middle" class="label">3</text><text x="170" y="288" text-anchor="middle" class="tiny">[0,0]</text><circle cx="330" cy="270" r="32" class="node"/><text x="330" y="267" text-anchor="middle" class="label">6</text><text x="330" y="288" text-anchor="middle" class="tiny">[1,1]</text><circle cx="490" cy="270" r="32" class="node"/><text x="490" y="267" text-anchor="middle" class="label">9</text><text x="490" y="288" text-anchor="middle" class="tiny">[2,2]</text><circle cx="650" cy="270" r="32" class="node"/><text x="650" y="267" text-anchor="middle" class="label">2</text><text x="650" y="288" text-anchor="middle" class="tiny">[3,3]</text><text x="232" y="349" text-anchor="end" class="label">arr</text><rect x="250" y="322" width="78" height="42" class="cellHi"/><text x="289.0" y="349" text-anchor="middle" class="label">3</text><rect x="328" y="322" width="78" height="42" class="cellHi"/><text x="367.0" y="349" text-anchor="middle" class="label">6</text><rect x="406" y="322" width="78" height="42" class="cellHi"/><text x="445.0" y="349" text-anchor="middle" class="label">9</text><rect x="484" y="322" width="78" height="42" class="cellHi"/><text x="523.0" y="349" text-anchor="middle" class="label">2</text></svg>