<svg xmlns="http://www.w3.org/2000/svg" width="920" height="290" viewBox="0 0 920 290"><rect width="100%" height="100%" fill="white"/><style>
text{font-family:"JetBrains Mono","Consolas","Noto Sans Mono CJK KR",monospace;fill:#202020}
.label{font-size:18px}.small{font-size:14px;fill:#555}.tiny{font-size:13px;fill:#555}
.node{fill:white;stroke:#555;stroke-width:1.8}.nodeHi{fill:#eee;stroke:#202020;stroke-width:2.3}
.edge{fill:none;stroke:#888;stroke-width:1.7}
.cell{fill:white;stroke:#777;stroke-width:1.2}.cellHi{fill:#eee;stroke:#202020;stroke-width:2}.cellMute{fill:#fafafa;stroke:#bbb;stroke-width:1}
.arrow{fill:none;stroke:#202020;stroke-width:1.7;marker-end:url(#arrow)}
</style><defs><marker id="arrow" markerWidth="9" markerHeight="9" refX="7" refY="3" orient="auto"><path d="M0,0 L0,6 L8,3 z" fill="#202020"/></marker></defs><text x="157" y="65" text-anchor="end" class="label">index</text><rect x="175" y="38" width="76" height="42" class="cell"/><text x="213.0" y="65" text-anchor="middle" class="label">0</text><rect x="251" y="38" width="76" height="42" class="cell"/><text x="289.0" y="65" text-anchor="middle" class="label">1</text><rect x="327" y="38" width="76" height="42" class="cell"/><text x="365.0" y="65" text-anchor="middle" class="label">2</text><rect x="403" y="38" width="76" height="42" class="cell"/><text x="441.0" y="65" text-anchor="middle" class="label">3</text><rect x="479" y="38" width="76" height="42" class="cell"/><text x="517.0" y="65" text-anchor="middle" class="label">4</text><rect x="555" y="38" width="76" height="42" class="cellHi"/><text x="593.0" y="65" text-anchor="middle" class="label">5</text><rect x="631" y="38" width="76" height="42" class="cellHi"/><text x="669.0" y="65" text-anchor="middle" class="label">6</text><rect x="707" y="38" width="76" height="42" class="cellHi"/><text x="745.0" y="65" text-anchor="middle" class="label">7</text><text x="157" y="119" text-anchor="end" class="label">arr</text><rect x="175" y="92" width="76" height="42" class="cell"/><text x="213.0" y="119" text-anchor="middle" class="label"></text><rect x="251" y="92" width="76" height="42" class="cell"/><text x="289.0" y="119" text-anchor="middle" class="label">20</text><rect x="327" y="92" width="76" height="42" class="cell"/><text x="365.0" y="119" text-anchor="middle" class="label">9</text><rect x="403" y="92" width="76" height="42" class="cell"/><text x="441.0" y="119" text-anchor="middle" class="label">11</text><rect x="479" y="92" width="76" height="42" class="cell"/><text x="517.0" y="119" text-anchor="middle" class="label">3</text><rect x="555" y="92" width="76" height="42" class="cellHi"/><text x="593.0" y="119" text-anchor="middle" class="label">6</text><rect x="631" y="92" width="76" height="42" class="cellHi"/><text x="669.0" y="119" text-anchor="middle" class="label">9</text><rect x="707" y="92" width="76" height="42" class="cellHi"/><text x="745.0" y="119" text-anchor="middle" class="label">2</text><text x="252" y="194" text-anchor="middle" class="label">L = 5</text><text x="710" y="194" text-anchor="middle" class="label">R = 7</text><path d="M 555 180 L 555 145" class="arrow"/><path d="M 710 180 L 710 145" class="arrow"/><text x="460" y="252" text-anchor="middle" class="small">if(L&amp;1) ret += arr[L++]</text><text x="460" y="275" text-anchor="middle" class="small">if(!(R&amp;1)) ret += arr[R--]</text></svg>