<svg xmlns="http://www.w3.org/2000/svg" width="760" height="220" viewBox="0 0 760 220"><rect width="100%" height="100%" fill="white"/>
<style>
text{font-family:"JetBrains Mono","Consolas","Noto Sans Mono CJK KR",monospace;fill:#202020}
.label{font-size:18px}.small{font-size:14px;fill:#555}
.cell{fill:white;stroke:#777;stroke-width:1.2}
.match{fill:#eee;stroke:#555;stroke-width:1.4}
.current{fill:#ddd;stroke:#202020;stroke-width:2}
.box{fill:white;stroke:#777;stroke-width:1.2;rx:5}
.boxHi{fill:#eee;stroke:#202020;stroke-width:1.8;rx:5}
.arrow{fill:none;stroke:#202020;stroke-width:1.6;marker-end:url(#arrow)}
.bracket{fill:none;stroke:#202020;stroke-width:1.5}
</style>

<defs>
  <marker id="arrow" markerWidth="9" markerHeight="9" refX="7" refY="3" orient="auto">
    <path d="M0,0 L0,6 L8,3 z" fill="#202020"/>
  </marker>
</defs>
<text x="162" y="51" text-anchor="end" class="label">index</text><rect x="180" y="24" width="132" height="42" class="cell"/><text x="246.0" y="51" text-anchor="middle" class="label">1</text><rect x="312" y="24" width="132" height="42" class="cell"/><text x="378.0" y="51" text-anchor="middle" class="label">2</text><rect x="444" y="24" width="132" height="42" class="cell"/><text x="510.0" y="51" text-anchor="middle" class="label">3</text><text x="162" y="105" text-anchor="end" class="label">string</text><rect x="180" y="78" width="132" height="42" class="match"/><text x="246.0" y="105" text-anchor="middle" class="label">A</text><rect x="312" y="78" width="132" height="42" class="match"/><text x="378.0" y="105" text-anchor="middle" class="label">B</text><rect x="444" y="78" width="132" height="42" class="match"/><text x="510.0" y="105" text-anchor="middle" class="label">A</text><text x="162" y="159" text-anchor="end" class="label">weight</text><rect x="180" y="132" width="132" height="42" class="cell"/><text x="246.0" y="159" text-anchor="middle" class="label">P²</text><rect x="312" y="132" width="132" height="42" class="cell"/><text x="378.0" y="159" text-anchor="middle" class="label">P</text><rect x="444" y="132" width="132" height="42" class="cell"/><text x="510.0" y="159" text-anchor="middle" class="label">1</text><text x="378" y="202" text-anchor="middle" class="label">H("ABA") = A × P² + B × P + A</text></svg>