<svg xmlns="http://www.w3.org/2000/svg" width="900" height="300" viewBox="0 0 900 300"><rect width="100%" height="100%" fill="white"/>
<style>
text{font-family:"JetBrains Mono","Consolas","Noto Sans Mono CJK KR",monospace;fill:#202020}
.label{font-size:18px}.small{font-size:14px;fill:#555}
.cell{fill:white;stroke:#777;stroke-width:1.2}
.match{fill:#eee;stroke:#555;stroke-width:1.4}
.current{fill:#ddd;stroke:#202020;stroke-width:2}
.box{fill:white;stroke:#777;stroke-width:1.2;rx:5}
.boxHi{fill:#eee;stroke:#202020;stroke-width:1.8;rx:5}
.arrow{fill:none;stroke:#202020;stroke-width:1.6;marker-end:url(#arrow)}
.bracket{fill:none;stroke:#202020;stroke-width:1.5}
</style>

<defs>
  <marker id="arrow" markerWidth="9" markerHeight="9" refX="7" refY="3" orient="auto">
    <path d="M0,0 L0,6 L8,3 z" fill="#202020"/>
  </marker>
</defs>
<text x="170" y="51" text-anchor="end" class="label">index</text><rect x="188" y="24" width="76" height="42" class="cell"/><text x="226.0" y="51" text-anchor="middle" class="label">1</text><rect x="264" y="24" width="76" height="42" class="cell"/><text x="302.0" y="51" text-anchor="middle" class="label">2</text><rect x="340" y="24" width="76" height="42" class="cell"/><text x="378.0" y="51" text-anchor="middle" class="label">3</text><rect x="416" y="24" width="76" height="42" class="cell"/><text x="454.0" y="51" text-anchor="middle" class="label">4</text><rect x="492" y="24" width="76" height="42" class="cell"/><text x="530.0" y="51" text-anchor="middle" class="label">5</text><rect x="568" y="24" width="76" height="42" class="cell"/><text x="606.0" y="51" text-anchor="middle" class="label">6</text><rect x="644" y="24" width="76" height="42" class="cell"/><text x="682.0" y="51" text-anchor="middle" class="label">7</text><text x="170" y="105" text-anchor="end" class="label">text</text><rect x="188" y="78" width="76" height="42" class="current"/><text x="226.0" y="105" text-anchor="middle" class="label">A</text><rect x="264" y="78" width="76" height="42" class="current"/><text x="302.0" y="105" text-anchor="middle" class="label">B</text><rect x="340" y="78" width="76" height="42" class="current"/><text x="378.0" y="105" text-anchor="middle" class="label">A</text><rect x="416" y="78" width="76" height="42" class="cell"/><text x="454.0" y="105" text-anchor="middle" class="label">B</text><rect x="492" y="78" width="76" height="42" class="cell"/><text x="530.0" y="105" text-anchor="middle" class="label">A</text><rect x="568" y="78" width="76" height="42" class="cell"/><text x="606.0" y="105" text-anchor="middle" class="label">C</text><rect x="644" y="78" width="76" height="42" class="cell"/><text x="682.0" y="105" text-anchor="middle" class="label">A</text><text x="132" y="211" text-anchor="end" class="label">prefix</text><rect x="150" y="184" width="76" height="42" class="current"/><text x="188.0" y="211" text-anchor="middle" class="label">h[0]</text><rect x="226" y="184" width="76" height="42" class="cell"/><text x="264.0" y="211" text-anchor="middle" class="label">h[1]</text><rect x="302" y="184" width="76" height="42" class="cell"/><text x="340.0" y="211" text-anchor="middle" class="label">h[2]</text><rect x="378" y="184" width="76" height="42" class="current"/><text x="416.0" y="211" text-anchor="middle" class="label">h[3]</text><rect x="454" y="184" width="76" height="42" class="cell"/><text x="492.0" y="211" text-anchor="middle" class="label">h[4]</text><rect x="530" y="184" width="76" height="42" class="cell"/><text x="568.0" y="211" text-anchor="middle" class="label">h[5]</text><rect x="606" y="184" width="76" height="42" class="cell"/><text x="644.0" y="211" text-anchor="middle" class="label">h[6]</text><rect x="682" y="184" width="76" height="42" class="cell"/><text x="720.0" y="211" text-anchor="middle" class="label">h[7]</text><path d="M 188 150 L 188 160 L 416 160 L 416 150" class="bracket"/><text x="302.0" y="145" text-anchor="middle" class="small">[1, 3]</text><text x="450" y="278" text-anchor="middle" class="label">getHash(1, 3) = h[3] - h[0] × P³</text></svg>