<svg xmlns="http://www.w3.org/2000/svg" width="980" height="380" viewBox="0 0 980 380"><rect width="100%" height="100%" fill="white"/>
<style>
text{font-family:"JetBrains Mono","Consolas","Noto Sans Mono CJK KR",monospace;fill:#202020}
.label{font-size:18px}.small{font-size:14px;fill:#555}
.cell{fill:white;stroke:#777;stroke-width:1.2}
.match{fill:#eee;stroke:#555;stroke-width:1.4}
.current{fill:#ddd;stroke:#202020;stroke-width:2}
.box{fill:white;stroke:#777;stroke-width:1.2;rx:5}
.boxHi{fill:#eee;stroke:#202020;stroke-width:1.8;rx:5}
.arrow{fill:none;stroke:#202020;stroke-width:1.6;marker-end:url(#arrow)}
.bracket{fill:none;stroke:#202020;stroke-width:1.5}
</style>

<defs>
  <marker id="arrow" markerWidth="9" markerHeight="9" refX="7" refY="3" orient="auto">
    <path d="M0,0 L0,6 L8,3 z" fill="#202020"/>
  </marker>
</defs>
<text x="152" y="51" text-anchor="end" class="label">text</text><rect x="170" y="24" width="72" height="42" class="cell"/><text x="206.0" y="51" text-anchor="middle" class="label">A</text><rect x="242" y="24" width="72" height="42" class="cell"/><text x="278.0" y="51" text-anchor="middle" class="label">B</text><rect x="314" y="24" width="72" height="42" class="cell"/><text x="350.0" y="51" text-anchor="middle" class="label">A</text><rect x="386" y="24" width="72" height="42" class="cell"/><text x="422.0" y="51" text-anchor="middle" class="label">B</text><rect x="458" y="24" width="72" height="42" class="cell"/><text x="494.0" y="51" text-anchor="middle" class="label">A</text><rect x="530" y="24" width="72" height="42" class="cell"/><text x="566.0" y="51" text-anchor="middle" class="label">C</text><rect x="602" y="24" width="72" height="42" class="cell"/><text x="638.0" y="51" text-anchor="middle" class="label">A</text><text x="138" y="117" text-anchor="end" class="small">start = 1</text><rect x="170" y="92" width="72" height="38" class="match"/><text x="206" y="117" text-anchor="middle" class="label">A</text><rect x="242" y="92" width="72" height="38" class="match"/><text x="278" y="117" text-anchor="middle" class="label">B</text><rect x="314" y="92" width="72" height="38" class="match"/><text x="350" y="117" text-anchor="middle" class="label">A</text><text x="730" y="117" class="label">getHash(1, 3)</text><text x="934" y="117" text-anchor="middle" class="label">=</text><text x="138" y="167" text-anchor="end" class="small">start = 2</text><rect x="242" y="142" width="72" height="38" class="cell"/><text x="278" y="167" text-anchor="middle" class="label">B</text><rect x="314" y="142" width="72" height="38" class="cell"/><text x="350" y="167" text-anchor="middle" class="label">A</text><rect x="386" y="142" width="72" height="38" class="cell"/><text x="422" y="167" text-anchor="middle" class="label">B</text><text x="730" y="167" class="label">getHash(2, 4)</text><text x="934" y="167" text-anchor="middle" class="label">≠</text><text x="138" y="217" text-anchor="end" class="small">start = 3</text><rect x="314" y="192" width="72" height="38" class="match"/><text x="350" y="217" text-anchor="middle" class="label">A</text><rect x="386" y="192" width="72" height="38" class="match"/><text x="422" y="217" text-anchor="middle" class="label">B</text><rect x="458" y="192" width="72" height="38" class="match"/><text x="494" y="217" text-anchor="middle" class="label">A</text><text x="730" y="217" class="label">getHash(3, 5)</text><text x="934" y="217" text-anchor="middle" class="label">=</text><text x="138" y="267" text-anchor="end" class="small">start = 4</text><rect x="386" y="242" width="72" height="38" class="cell"/><text x="422" y="267" text-anchor="middle" class="label">B</text><rect x="458" y="242" width="72" height="38" class="cell"/><text x="494" y="267" text-anchor="middle" class="label">A</text><rect x="530" y="242" width="72" height="38" class="cell"/><text x="566" y="267" text-anchor="middle" class="label">C</text><text x="730" y="267" class="label">getHash(4, 6)</text><text x="934" y="267" text-anchor="middle" class="label">≠</text><text x="138" y="317" text-anchor="end" class="small">start = 5</text><rect x="458" y="292" width="72" height="38" class="cell"/><text x="494" y="317" text-anchor="middle" class="label">A</text><rect x="530" y="292" width="72" height="38" class="cell"/><text x="566" y="317" text-anchor="middle" class="label">C</text><rect x="602" y="292" width="72" height="38" class="cell"/><text x="638" y="317" text-anchor="middle" class="label">A</text><text x="730" y="317" class="label">getHash(5, 7)</text><text x="934" y="317" text-anchor="middle" class="label">≠</text></svg>