<svg xmlns="http://www.w3.org/2000/svg" width="780" height="245" viewBox="0 0 780 245"><rect width="100%" height="100%" fill="white"/>
<style>
text{font-family:"JetBrains Mono","Consolas","Noto Sans Mono CJK KR",monospace;fill:#202020}
.label{font-size:18px}.small{font-size:14px;fill:#555}
.cell{fill:white;stroke:#777;stroke-width:1.2}
.match{fill:#eee;stroke:#555;stroke-width:1.4}
.current{fill:#ddd;stroke:#202020;stroke-width:2}
.box{fill:white;stroke:#777;stroke-width:1.2;rx:5}
.boxHi{fill:#eee;stroke:#202020;stroke-width:1.8;rx:5}
.arrow{fill:none;stroke:#202020;stroke-width:1.6;marker-end:url(#arrow)}
.bracket{fill:none;stroke:#202020;stroke-width:1.5}
</style>

<defs>
  <marker id="arrow" markerWidth="9" markerHeight="9" refX="7" refY="3" orient="auto">
    <path d="M0,0 L0,6 L8,3 z" fill="#202020"/>
  </marker>
</defs>
<rect x="72" y="40" width="174" height="54" class="boxHi"/><text x="159.0" y="73.0" text-anchor="middle" class="label">pattern = &quot;ABA&quot;</text><rect x="294" y="40" width="174" height="54" class="box"/><text x="381.0" y="73.0" text-anchor="middle" class="label">patternHash</text><line x1="254" y1="67" x2="286" y2="67" class="arrow"/><text x="136" y="171" text-anchor="end" class="label">text</text><rect x="154" y="144" width="70" height="42" class="match"/><text x="189.0" y="171" text-anchor="middle" class="label">A</text><rect x="224" y="144" width="70" height="42" class="match"/><text x="259.0" y="171" text-anchor="middle" class="label">B</text><rect x="294" y="144" width="70" height="42" class="match"/><text x="329.0" y="171" text-anchor="middle" class="label">A</text><rect x="364" y="144" width="70" height="42" class="match"/><text x="399.0" y="171" text-anchor="middle" class="label">B</text><rect x="434" y="144" width="70" height="42" class="match"/><text x="469.0" y="171" text-anchor="middle" class="label">A</text><rect x="504" y="144" width="70" height="42" class="cell"/><text x="539.0" y="171" text-anchor="middle" class="label">C</text><rect x="574" y="144" width="70" height="42" class="cell"/><text x="609.0" y="171" text-anchor="middle" class="label">A</text><path d="M 154 132 L 154 122 L 364 122 L 364 132" class="bracket"/><path d="M 294 206 L 294 216 L 504 216 L 504 206" class="bracket"/><text x="259" y="116" text-anchor="middle" class="small">getHash(1, 3)</text><text x="399" y="238" text-anchor="middle" class="small">getHash(3, 5)</text></svg>