<?xml version="1.0" encoding="UTF-8" standalone="no"?>
<!-- Created with Inkscape (http://www.inkscape.org/) -->

<svg
   version="1.1"
   id="svg1"
   width="564.74664"
   height="177.58667"
   viewBox="0 0 564.74664 177.58667"
   sodipodi:docname="1.pdf"
   xmlns:inkscape="http://www.inkscape.org/namespaces/inkscape"
   xmlns:sodipodi="http://sodipodi.sourceforge.net/DTD/sodipodi-0.dtd"
   xmlns="http://www.w3.org/2000/svg"
   xmlns:svg="http://www.w3.org/2000/svg">
  <defs
     id="defs1" />
  <sodipodi:namedview
     id="namedview1"
     pagecolor="#ffffff"
     bordercolor="#000000"
     borderopacity="0.25"
     inkscape:showpageshadow="2"
     inkscape:pageopacity="0.0"
     inkscape:pagecheckerboard="0"
     inkscape:deskcolor="#d1d1d1">
    <inkscape:page
       x="0"
       y="0"
       inkscape:label="1"
       id="page1"
       width="564.74664"
       height="177.58667"
       margin="0"
       bleed="0" />
  </sodipodi:namedview>
  <g
     id="g1"
     inkscape:groupmode="layer"
     inkscape:label="1">
    <g
       id="g2"
       aria-label="GCD(60,18)계산과정"
       transform="matrix(1.3333333,0,0,1.3333333,69.948,25.073333)">
      <path
         id="path2"
         d="m 3.4931016,0.11785156 c 0.8789062,0 1.6054687,-0.328125 2.015625,-0.76171875 V -3.4094922 h -2.15625 v 0.6914063 h 1.3945312 v 1.72265621 c -0.2578125,0.24609375 -0.7148437,0.38671875 -1.1835937,0.38671875 -1.40625,0 -2.1914063,-1.04296876 -2.1914063,-2.69531246 0,-1.640625 0.8554688,-2.6601563 2.1914063,-2.6601563 0.65625,0 1.078125,0.28125 1.4179687,0.6210938 l 0.4453125,-0.5390625 c -0.375,-0.3867188 -0.984375,-0.8085938 -1.8984375,-0.8085938 -1.734375,0 -3.01171874,1.2890625 -3.01171874,3.4101563 0,2.1328125 1.24218754,3.39843746 2.97656254,3.39843746 z m 6.0585937,0 c 0.8554687,0 1.4999997,-0.33984375 2.0273437,-0.9375 L 11.122008,-1.3587109 c -0.421875,0.46874996 -0.902344,0.74999996 -1.5351564,0.74999996 -1.2539063,0 -2.0390625,-1.04296876 -2.0390625,-2.69531246 0,-1.640625 0.8320312,-2.6601563 2.0742187,-2.6601563 0.5625002,0 0.9960942,0.2578125 1.3476562,0.6210938 l 0.445313,-0.5390625 c -0.375,-0.421875 -1.007813,-0.8085938 -1.8046879,-0.8085938 -1.6640625,0 -2.9179688,1.2890625 -2.9179688,3.4101563 0,2.1328125 1.21875,3.39843746 2.859375,3.39843746 z M 12.800719,6.640625e-4 H 14.4765 c 1.980469,0 3.058594,-1.2304687625 3.058594,-3.3046874625 0,-2.0976563 -1.078125,-3.2695313 -3.09375,-3.2695313 H 12.800719 Z M 13.63275,-0.67902344 V -5.8938672 h 0.738281 c 1.546875,0 2.320313,0.9140625 2.320313,2.5898438 0,1.6523437 -0.773438,2.62499996 -2.320313,2.62499996 z m 0,0"
         style="fill:#000000;fill-opacity:1;fill-rule:nonzero;stroke:none" />
      <path
         id="path3"
         d="m 21.126891,2.1334766 c 0,-0.046875 -0.02344,-0.070312 -0.08203,-0.1289063 -1.160156,-1.06640624 -1.511718,-2.67187499 -1.511718,-4.2421875 0,-1.3945312 0.269531,-3.0820312 1.535156,-4.2773437 0.03516,-0.035156 0.05859,-0.070312 0.05859,-0.1054688 0,-0.070312 -0.04687,-0.1054687 -0.105469,-0.1054687 -0.105469,0 -0.914063,0.6445312 -1.40625,1.6289062 -0.421875,0.8554688 -0.644531,1.78125 -0.644531,2.8476563 0,0.6445312 0.08203,1.66406246 0.574218,2.73046871 0.527344,1.10156249 1.371094,1.74609379 1.476563,1.74609379 0.05859,0 0.105469,-0.035156 0.105469,-0.09375 z m 1.725586,-5.0976563 c 0,-0.9140625 0.09375,-1.4296875 0.339843,-1.8984375 0.175782,-0.3632812 0.609375,-0.8789062 1.277344,-0.8789062 0.175781,0 0.585938,0.035156 0.796875,0.3515625 -0.328125,0 -0.46875,0.1757812 -0.46875,0.4101562 0,0.234375 0.152344,0.421875 0.410156,0.421875 0.246094,0 0.421875,-0.1640625 0.421875,-0.4335937 0,-0.5039063 -0.363281,-0.9726563 -1.183593,-0.9726563 -1.148438,0 -2.414063,1.1367188 -2.414063,3.1289063 0,2.43749996 1.089844,3.03515621 1.933594,3.03515621 0.996094,0 1.898437,-0.83203125 1.898437,-2.01562501 0,-1.1367187 -0.832031,-2.0039062 -1.839843,-2.0039062 -0.539063,0 -0.925782,0.3164062 -1.171875,0.8554687 z m 1.101562,2.90625001 c -0.503906,0 -0.796875,-0.421875 -0.914062,-0.6796875 -0.164063,-0.39843751 -0.175782,-1.14843751 -0.175782,-1.28906251 0,-0.5976562 0.28125,-1.5703125 1.136719,-1.5703125 0.140625,0 0.585938,0 0.867188,0.5625 0.175781,0.3398438 0.175781,0.7734375 0.175781,1.2070313 0,0.4335937 0,0.86718746 -0.175781,1.19531246 -0.269532,0.515625 -0.667969,0.57421875 -0.914063,0.57421875 z m 6.533203,-2.81250001 c 0,-0.5976562 -0.02344,-1.3710937 -0.339844,-2.0390625 -0.398437,-0.84375 -1.078125,-1.0546875 -1.59375,-1.0546875 -0.539062,0 -1.21875,0.2109375 -1.617187,1.0664063 -0.292969,0.6210937 -0.328125,1.3476562 -0.328125,2.0273437 0,0.5859375 0.01172,1.453125 0.398437,2.16796876 0.421875,0.76171875 1.125,0.90234375 1.535157,0.90234375 0.585937,0 1.242187,-0.2578125 1.617187,-1.078125 0.269531,-0.59765621 0.328125,-1.27734371 0.328125,-1.99218751 z m -1.933594,2.84765626 c -0.269531,0 -0.914062,-0.12890625 -1.089843,-1.13671876 -0.09375,-0.5390625 -0.09375,-1.3007812 -0.09375,-1.8164062 0,-0.609375 0,-1.3125 0.117187,-1.8164063 0.175781,-0.796875 0.75,-0.9492187 1.054688,-0.9492187 0.339843,0 0.902343,0.1757812 1.078125,1.0078125 0.09375,0.4921875 0.09375,1.1953125 0.09375,1.7578125 0,0.5507812 0,1.3125 -0.09375,1.8398437 -0.1875,1.01953126 -0.84375,1.11328126 -1.066407,1.11328126 z m 0,0"
         style="fill:#000000;fill-opacity:1;fill-rule:nonzero;stroke:none" />
      <path
         id="path4"
         d="m 32.497008,-0.13996094 c 0,0.29296875 0,1.03125 -0.65625,1.66406254 -0.05859,0.058594 -0.05859,0.058594 -0.05859,0.09375 0,0.070312 0.05859,0.1171875 0.117188,0.1171875 0.09375,0 0.820312,-0.703125 0.820312,-1.75781254 0,-0.55078125 -0.1875,-0.94921875 -0.574219,-0.94921875 -0.304687,0 -0.492187,0.234375 -0.492187,0.4921875 0,0.24609375 0.1875,0.4804687525 0.492187,0.4804687525 0.128907,0 0.269532,-0.0468750025 0.351563,-0.1406250025 z m 0,0"
         style="fill:#000000;fill-opacity:1;fill-rule:nonzero;stroke:none" />
      <path
         id="path5"
         d="m 37.694273,-5.7298047 c 0,-0.2226562 -0.01172,-0.234375 -0.234375,-0.234375 -0.5625,0.5625 -1.382812,0.5625 -1.664062,0.5625 v 0.28125 c 0.175781,0 0.714844,0 1.207031,-0.234375 v 4.64062501 c 0,0.328125 -0.03516,0.43359375 -0.867187,0.43359375 H 35.85443 V 6.640625e-4 C 36.170836,-0.02277344 36.967711,-0.02277344 37.342711,-0.02277344 c 0.363281,0 1.171875,0 1.488281,0.0234375025 V -0.28058594 h -0.28125 c -0.832031,0 -0.855469,-0.10546875 -0.855469,-0.43359375 z m 3.416016,1.6640625 c -0.269531,-0.1757812 -0.480469,-0.4101562 -0.480469,-0.75 0,-0.5859375 0.632813,-0.9257812 1.21875,-0.9257812 0.691407,0 1.242188,0.4804687 1.242188,1.1015625 0,0.6328125 -0.527344,1.0429687 -0.890625,1.2539062 z m 1.3125,0.8203125 c 0.445313,-0.2109375 1.101563,-0.6679687 1.101563,-1.3945312 0,-0.8320313 -0.84375,-1.3242188 -1.652344,-1.3242188 -0.9375,0 -1.675781,0.6679688 -1.675781,1.4882813 0,0.3398437 0.128906,0.6679687 0.339843,0.9257812 0.152344,0.1757813 0.210938,0.2109375 0.726563,0.5390625 -0.785156,0.375 -1.3125,0.9257813 -1.3125,1.6523438 0,0.96093746 0.9375,1.55859371 1.910156,1.55859371 1.042969,0 1.921875,-0.73828125 1.921875,-1.71093751 0,-0.8671875 -0.667969,-1.2890625 -0.890625,-1.4414062 -0.105469,-0.070312 -0.363281,-0.234375 -0.46875,-0.2929688 z m -0.914062,0.3867188 1.125,0.703125 c 0.210937,0.1289062 0.65625,0.421875 0.65625,0.9609375 0,0.71484371 -0.714844,1.13671871 -1.417969,1.13671871 -0.785156,0 -1.441406,-0.55078125 -1.441406,-1.30078121 0,-0.6445313 0.445312,-1.171875 1.078125,-1.5 z m 5.326171,0.609375 c 0,-0.7382813 -0.105468,-1.7226563 -0.574218,-2.71875 -0.527344,-1.1015625 -1.359375,-1.7578125 -1.464844,-1.7578125 -0.09375,0 -0.117188,0.070312 -0.117188,0.1054687 0,0.035156 0.02344,0.070312 0.08203,0.1289063 0.527343,0.46875 1.511718,1.6875 1.511718,4.2421875 0,1.27734371 -0.234375,3.07031246 -1.535156,4.2773437 -0.02344,0.023437 -0.05859,0.058594 -0.05859,0.1054688 0,0.023437 0.02344,0.09375 0.117188,0.09375 0.105469,0 0.914062,-0.6445313 1.394531,-1.61718754 C 46.623963,-0.24542969 46.8349,-1.1712109 46.8349,-2.2493359 Z m 0,0"
         style="fill:#000000;fill-opacity:1;fill-rule:nonzero;stroke:none" />
      <path
         id="path6"
         d="m 56.171813,-7.5110547 v 8.29687501 h 1.136718 V -7.5110547 Z m -5.660157,0.9726563 v 0.9609375 h 2.050782 c -0.152344,1.6289062 -0.878907,2.8242187 -2.519532,3.8085937 l 0.667969,0.83203126 C 52.269469,-1.8508984 53.1015,-2.9993359 53.4765,-4.3704297 h 0.996094 v 1.125 h -1.148438 v 0.9492188 h 1.148438 v 2.71874996 h 1.101562 V -7.3352734 h -1.101562 v 2.015625 H 53.664 c 0.04687,-0.3867188 0.07031,-0.796875 0.07031,-1.21875 z m 9.761719,-0.4570313 v 0.890625 c 0,1.125 -0.585937,2.2382813 -1.992187,2.6953125 L 58.914,-2.4954297 c 0.960938,-0.3164062 1.617188,-0.9609375 1.980469,-1.7929687 0.363281,0.7617187 0.972656,1.3476562 1.875,1.640625 l 0.609375,-0.9257813 c -1.335938,-0.4453125 -1.898438,-1.4765625 -1.898438,-2.5195312 v -0.9023438 z m 3.480469,-0.5039062 v 6.0703125 h 1.183594 V -4.1243359 H 66.039 v -0.9726563 h -1.101562 v -2.4023437 z m -4.160156,5.484375 v 2.67187496 h 5.648437 v -0.9609375 H 60.800719 V -2.0149609 Z m 9.439453,-4.6757813 v 0.9492188 h 3.105468 c 0,0.7382812 -0.02344,1.640625 -0.210937,2.8242187 l 1.160156,0.09375 c 0.222656,-1.3828125 0.222656,-2.3789062 0.222656,-3.1875 v -0.6796875 z m -0.304688,5.81250001 c 1.441406,0 3.304688,-0.0351563 4.980469,-0.32812501 l -0.05859,-0.8671875 c -0.75,0.1054688 -1.558594,0.1523438 -2.367187,0.1875 V -4.3118359 H 70.11127 v 2.4609375 h -1.488282 z m 5.308594,-6.63281251 v 8.29687501 h 1.183594 V -3.1868359 h 1.113281 v -0.984375 h -1.113281 v -3.3398438 z m 7.042969,5.1210938 c -1.757813,0 -2.835938,0.5976562 -2.835938,1.59374996 0,1.01953125 1.078125,1.60546875 2.835938,1.60546875 1.757812,0 2.847656,-0.5859375 2.847656,-1.60546875 0,-0.99609376 -1.089844,-1.59374996 -2.847656,-1.59374996 z m 0,0.9023437 c 1.078125,0 1.652343,0.2226563 1.652343,0.69140626 0,0.46875 -0.574218,0.703125 -1.652343,0.703125 -1.089844,0 -1.652344,-0.234375 -1.652344,-0.703125 0,-0.46874996 0.5625,-0.69140626 1.652344,-0.69140626 z m 1.617187,-6.0117187 v 1.9921875 h -1.253906 v 0.9726562 h 1.253906 v 1.9570313 h 1.195313 v -4.921875 z m -5.472656,0.5039062 v 0.9375 h 1.640625 c -0.03516,1.0429688 -0.621094,2.0859375 -1.957031,2.5429688 l 0.597656,0.9375 c 0.972656,-0.328125 1.628906,-0.9960938 1.992187,-1.828125 0.351563,0.7265625 0.960938,1.3242187 1.875,1.6171875 l 0.574219,-0.9257813 c -1.265625,-0.421875 -1.839844,-1.3945312 -1.875,-2.34375 h 1.617188 v -0.9375 z m 0,0"
         style="fill:#000000;fill-opacity:1;fill-rule:nonzero;stroke:none" />
    </g>
    <path
       id="path7"
       d="M 55.1992,111.11942 H 1.49442 C 0.66907,111.11942 0,110.45035 0,109.625 V 84.26704 C 0,83.4417 0.66907,82.77263 1.49442,82.77263 H 55.1992 c 0.82534,0 1.49442,0.66907 1.49442,1.49441 V 109.625 c 0,0.82535 -0.66908,1.49442 -1.49442,1.49442 z"
       style="fill:#dbdbdb;fill-opacity:1;fill-rule:nonzero;stroke:#000000;stroke-width:0.89664;stroke-linecap:butt;stroke-linejoin:miter;stroke-miterlimit:10;stroke-dasharray:none;stroke-opacity:1"
       transform="matrix(1.3333333,0,0,-1.3333333,11.224,181.056)" />
    <path
       id="path8"
       d="m 1.6294531,-1.0555078 c -0.4335937,0.72656249 -0.83203123,0.74999999 -1.19531248,0.77343749 -0.0585938,0.0117188 -0.10546875,0.0820313 -0.10546875,0.1640625 0,0.05859375 0.0351563,0.1171874975 0.12890625,0.1171874975 0.17578125,0 0.59765628,-0.0234374975 0.76171878,-0.0234374975 0.1992187,0 0.6796875,0.0234374975 0.8789062,0.0234374975 0.058594,0 0.1757813,0 0.1757813,-0.1640624975 0,-0.10546875 -0.1171875,-0.1171875 -0.140625,-0.1171875 -0.082031,0 -0.421875,-0.0234375 -0.421875,-0.29296875 0,-0.12890625 0.1054687,-0.29296875 0.1289062,-0.33984375 l 0.703125,-1.16015629 h 2.34375 c 0.023437,0.2109375 0.058594,0.515625 0.082031,0.7382813 0.035156,0.35156249 0.082031,0.74999999 0.082031,0.77343749 0,0.12890625 -0.1171875,0.28125 -0.6445312,0.28125 -0.082031,0 -0.1992188,0 -0.1992188,0.1640625 0,0.09375 0.070312,0.1171874975 0.1289063,0.1171874975 0.1757812,0 0.3867187,-0.0234374975 0.5625,-0.0234374975 0.1875,0 0.3984375,0 0.5390625,0 0.3046875,0 0.3164062,0 0.5273437,0 0.1523438,0.01171875 0.3515625,0.0234374975 0.5039063,0.0234374975 0.046875,0 0.1640625,0 0.1640625,-0.1640624975 0,-0.1171875 -0.09375,-0.1171875 -0.1992188,-0.1171875 -0.5390625,0 -0.5507812,-0.0585938 -0.5742187,-0.31640625 L 5.2271094,-6.1766016 c -0.023437,-0.1992187 -0.023437,-0.2460937 -0.1757813,-0.2460937 -0.1289062,0 -0.1875,0.070312 -0.2578125,0.1875 z m 1.0898438,-1.2890625 1.8046875,-2.9648438 0.3398437,2.9648438 z m 0,0"
       style="fill:#000000;fill-opacity:1;fill-rule:nonzero;stroke:none"
       aria-label="A"
       transform="matrix(1.3333333,0,0,1.3333333,44.413333,55.88)" />
    <path
       id="path9"
       d="M 114.72766,111.11942 H 61.02287 c -0.82534,0 -1.49441,-0.66907 -1.49441,-1.49442 V 84.26704 c 0,-0.82534 0.66907,-1.49441 1.49441,-1.49441 h 53.70479 c 0.82535,0 1.49442,0.66907 1.49442,1.49441 V 109.625 c 0,0.82535 -0.66907,1.49442 -1.49442,1.49442 z"
       style="fill:#dbdbdb;fill-opacity:1;fill-rule:nonzero;stroke:#000000;stroke-width:0.89664;stroke-linecap:butt;stroke-linejoin:miter;stroke-miterlimit:10;stroke-dasharray:none;stroke-opacity:1"
       transform="matrix(1.3333333,0,0,-1.3333333,11.224,181.056)" />
    <path
       id="path10"
       d="m 1.4658281,-0.68050781 c -0.082031,0.31640625 -0.1054687,0.3984375 -0.77343747,0.3984375 -0.17578125,0 -0.26953125,0 -0.26953125,0.1640625 0,0.1171874975 0.09375,0.1171874975 0.24609375,0.1171874975 H 3.9384844 c 1.453125,0 2.5195312,-1.0546874875 2.5195312,-1.9218749875 0,-0.6445313 -0.5273437,-1.1835938 -1.4179687,-1.2773438 1.0195312,-0.1992187 1.8867187,-0.8789062 1.8867187,-1.6757812 0,-0.703125 -0.6445312,-1.2421875 -1.7109375,-1.2421875 H 2.1572344 c -0.1640625,0 -0.2695313,0 -0.2695313,0.1523437 0,0.1171875 0.082031,0.1171875 0.2695313,0.1171875 0.035156,0 0.1875,0 0.3398437,0.023437 0.1523438,0.011719 0.2109375,0.035156 0.2109375,0.1289063 0,0.046875 -0.011719,0.082031 -0.035156,0.1875 z M 2.8603594,-3.3055078 3.4111406,-5.4969141 c 0.082031,-0.3164062 0.09375,-0.3515625 0.46875,-0.3515625 h 1.21875 c 0.9257813,0 1.0078125,0.7148438 1.0078125,0.9375 0,0.796875 -0.8320312,1.6054688 -1.8515625,1.6054688 z m -0.4335938,3.02343749 c -0.1171875,0 -0.140625,0 -0.1757812,0 -0.09375,-0.0117188 -0.1171875,-0.0234375 -0.1171875,-0.0820313 0,-0.0351563 0,-0.046875 0.046875,-0.2109375 L 2.8017656,-3.0711328 h 1.6757813 c 0.5625,0 1.125,0.234375 1.125,1.0546875 0,0.890625 -0.8085938,1.73437499 -1.8867188,1.73437499 z m 0,0"
       style="fill:#000000;fill-opacity:1;fill-rule:nonzero;stroke:none"
       aria-label="B"
       transform="matrix(1.3333333,0,0,1.3333333,123.444,55.88)" />
    <path
       id="path11"
       d="m 190.41351,111.11942 h -70.71289 c -0.82533,0 -1.49442,-0.66907 -1.49442,-1.49442 V 84.26704 c 0,-0.82534 0.66909,-1.49441 1.49442,-1.49441 h 70.71289 c 0.82535,0 1.49442,0.66907 1.49442,1.49441 V 109.625 c 0,0.82535 -0.66907,1.49442 -1.49442,1.49442 z"
       style="fill:#dbdbdb;fill-opacity:1;fill-rule:nonzero;stroke:#000000;stroke-width:0.89664;stroke-linecap:butt;stroke-linejoin:miter;stroke-miterlimit:10;stroke-dasharray:none;stroke-opacity:1"
       transform="matrix(1.3333333,0,0,-1.3333333,11.224,181.056)" />
    <g
       id="g11"
       aria-label="AmodB"
       transform="matrix(1.3333333,0,0,1.3333333,192.136,56.474667)">
      <path
         id="path12"
         d="m 1.6294453,-1.0532656 c -0.4335937,0.72656248 -0.83203124,0.74999998 -1.19531249,0.77343748 -0.0585938,0.0117188 -0.10546875,0.0820313 -0.10546875,0.1640625 0,0.05859375 0.0351563,0.1171875 0.12890625,0.1171875 0.17578125,0 0.59765629,-0.0234375 0.76171879,-0.0234375 0.1992187,0 0.6796875,0.0234375 0.8789062,0.0234375 0.058594,0 0.1757813,0 0.1757813,-0.1640625 0,-0.10546875 -0.1171875,-0.1171875 -0.140625,-0.1171875 -0.082031,0 -0.421875,-0.0234375 -0.421875,-0.29296875 0,-0.12890625 0.1054687,-0.29296875 0.1289062,-0.33984375 l 0.703125,-1.16015628 h 2.34375 c 0.023437,0.2109375 0.058594,0.515625 0.082031,0.7382813 0.035156,0.35156248 0.082031,0.74999998 0.082031,0.77343748 0,0.12890625 -0.1171875,0.28125 -0.6445312,0.28125 -0.082031,0 -0.1992188,0 -0.1992188,0.1640625 0,0.09375 0.070312,0.1171875 0.1289063,0.1171875 0.1757812,0 0.3867187,-0.0234375 0.5625,-0.0234375 0.1875,0 0.3984375,0 0.5390625,0 0.3046875,0 0.3164062,0 0.5273437,0 0.1523438,0.01171875 0.3515625,0.0234375 0.5039063,0.0234375 0.046875,0 0.1640625,0 0.1640625,-0.1640625 0,-0.1171875 -0.09375,-0.1171875 -0.1992188,-0.1171875 -0.5390625,0 -0.5507812,-0.0585938 -0.5742187,-0.31640625 L 5.2271016,-6.1743594 c -0.023437,-0.1992187 -0.023437,-0.2460937 -0.1757813,-0.2460937 -0.1289062,0 -0.1875,0.070312 -0.2578125,0.1875 z m 1.0898438,-1.2890625 1.8046875,-2.9648438 0.3398437,2.9648438 z m 0,0"
         style="fill:#000000;fill-opacity:1;fill-rule:nonzero;stroke:none" />
      <path
         id="path13"
         d="m 10.289602,0.00142188 h 0.832031 V -3.5259219 c 0.433594,-0.5039062 0.84375,-0.75 1.21875,-0.75 0.621094,0 0.902344,0.3867188 0.902344,1.3007813 v 2.97656248 h 0.820312 V -3.5259219 c 0.457031,-0.5039062 0.84375,-0.75 1.21875,-0.75 0.621094,0 0.914063,0.3867188 0.914063,1.3007813 v 2.97656248 h 0.808593 V -3.0806094 c 0,-1.2421875 -0.46875,-1.9101562 -1.464843,-1.9101562 -0.597657,0 -1.101563,0.3867187 -1.617188,0.9257812 -0.199219,-0.5742187 -0.585937,-0.9257812 -1.347656,-0.9257812 -0.574219,0 -1.078125,0.3632812 -1.511719,0.8320312 h -0.01172 l -0.08203,-0.703125 h -0.679687 z m 10.201171,0.1171875 c 1.195313,0 2.25,-0.9375 2.25,-2.54296878 0,-1.6289062 -1.054687,-2.5664062 -2.25,-2.5664062 -1.195312,0 -2.25,0.9375 -2.25,2.5664062 0,1.60546878 1.054688,2.54296878 2.25,2.54296878 z m 0,-0.6796875 c -0.84375,0 -1.40625,-0.74999998 -1.40625,-1.86328128 0,-1.125 0.5625,-1.875 1.40625,-1.875 0.84375,0 1.417969,0.75 1.417969,1.875 0,1.1132813 -0.574219,1.86328128 -1.417969,1.86328128 z m 5.200196,0.6796875 c 0.585937,0 1.101562,-0.31640625 1.476562,-0.69140625 h 0.02344 L 27.273,0.00142188 h 0.667969 V -7.1352969 h -0.820313 v 1.875 l 0.03516,0.8320313 c -0.421875,-0.3515625 -0.796875,-0.5625 -1.371094,-0.5625 -1.113281,0 -2.097656,0.984375 -2.097656,2.5664062 0,1.61718753 0.785156,2.54296878 2.003906,2.54296878 z m 0.175781,-0.69140625 c -0.84375,0 -1.347656,-0.69140623 -1.347656,-1.86328123 0,-1.1132813 0.632812,-1.8632813 1.417969,-1.8632813 0.398437,0 0.773437,0.140625 1.183593,0.5039063 v 2.5546875 c -0.410156,0.45703123 -0.808593,0.66796873 -1.253906,0.66796873 z m 0,0"
         style="fill:#000000;fill-opacity:1;fill-rule:nonzero;stroke:none" />
      <path
         id="path14"
         d="m 32.789602,-0.67826562 c -0.08203,0.31640625 -0.105469,0.3984375 -0.773438,0.3984375 -0.175781,0 -0.269531,0 -0.269531,0.1640625 0,0.1171875 0.09375,0.1171875 0.246094,0.1171875 h 3.269531 c 1.453125,0 2.519531,-1.05468748 2.519531,-1.92187498 0,-0.6445313 -0.527344,-1.1835938 -1.417969,-1.2773438 1.019532,-0.1992187 1.886719,-0.8789062 1.886719,-1.6757812 0,-0.703125 -0.644531,-1.2421875 -1.710937,-1.2421875 h -3.058594 c -0.164063,0 -0.269531,0 -0.269531,0.1523437 0,0.1171875 0.08203,0.1171875 0.269531,0.1171875 0.03516,0 0.1875,0 0.339844,0.023437 0.152343,0.011719 0.210937,0.035156 0.210937,0.1289063 0,0.046875 -0.01172,0.082031 -0.03516,0.1875 z m 1.394531,-2.62499998 0.550781,-2.1914063 c 0.08203,-0.3164062 0.09375,-0.3515625 0.46875,-0.3515625 h 1.21875 c 0.925781,0 1.007813,0.7148438 1.007813,0.9375 0,0.796875 -0.832032,1.6054688 -1.851563,1.6054688 z m -0.433594,3.02343748 c -0.117187,0 -0.140625,0 -0.175781,0 -0.09375,-0.0117188 -0.117188,-0.0234375 -0.117188,-0.0820313 0,-0.0351563 0,-0.046875 0.04687,-0.2109375 l 0.621094,-2.49609378 h 1.675781 c 0.5625,0 1.125,0.234375 1.125,1.0546875 0,0.890625 -0.808593,1.73437503 -1.886718,1.73437503 z m 0,0"
         style="fill:#000000;fill-opacity:1;fill-rule:nonzero;stroke:none" />
    </g>
    <path
       id="path15"
       d="M 55.1992,90.14264 H 1.49442 C 0.66907,90.14264 0,89.47356 0,88.64822 V 63.29025 C 0,62.4649 0.66907,61.79584 1.49442,61.79584 H 55.1992 c 0.82534,0 1.49442,0.66906 1.49442,1.49441 v 25.35797 c 0,0.82534 -0.66908,1.49442 -1.49442,1.49442 z"
       style="fill:#ffffff;fill-opacity:1;fill-rule:nonzero;stroke:#6b6b6b;stroke-width:0.54794;stroke-linecap:butt;stroke-linejoin:miter;stroke-miterlimit:10;stroke-dasharray:none;stroke-opacity:1"
       transform="matrix(1.3333333,0,0,-1.3333333,11.224,181.056)" />
    <path
       id="path16"
       d="m 1.2062812,-2.9639531 c 0,-0.9140625 0.09375,-1.4296875 0.3398438,-1.8984375 0.1757812,-0.3632813 0.609375,-0.8789063 1.2773437,-0.8789063 0.1757813,0 0.5859375,0.035156 0.796875,0.3515625 -0.328125,0 -0.46875,0.1757813 -0.46875,0.4101563 0,0.234375 0.1523438,0.421875 0.4101563,0.421875 0.2460937,0 0.421875,-0.1640625 0.421875,-0.4335938 0,-0.5039062 -0.3632813,-0.9726562 -1.1835938,-0.9726562 -1.1484375,0 -2.41406245,1.1367187 -2.41406245,3.1289062 0,2.43750003 1.08984375,3.03515628 1.93359375,3.03515628 0.9960937,0 1.8984375,-0.83203125 1.8984375,-2.01562498 0,-1.1367188 -0.8320313,-2.0039063 -1.8398438,-2.0039063 -0.5390625,0 -0.9257812,0.3164063 -1.171875,0.8554688 z m 1.1015625,2.90624998 c -0.5039062,0 -0.796875,-0.421875 -0.9140625,-0.6796875 C 1.2297187,-1.1358281 1.218,-1.8858281 1.218,-2.0264531 c 0,-0.5976563 0.28125,-1.5703125 1.1367187,-1.5703125 0.140625,0 0.5859375,0 0.8671875,0.5625 0.1757813,0.3398437 0.1757813,0.7734375 0.1757813,1.2070312 0,0.4335938 0,0.86718753 -0.1757813,1.19531253 -0.2695312,0.515625 -0.6679687,0.57421875 -0.9140625,0.57421875 z M 8.8410469,-2.8702031 c 0,-0.5976563 -0.023437,-1.3710938 -0.3398438,-2.0390625 -0.3984375,-0.84375 -1.078125,-1.0546875 -1.59375,-1.0546875 -0.5390625,0 -1.21875,0.2109375 -1.6171875,1.0664062 -0.2929687,0.6210938 -0.328125,1.3476563 -0.328125,2.0273438 0,0.5859375 0.011719,1.453125 0.3984375,2.16796873 0.421875,0.76171875 1.125,0.90234375 1.5351563,0.90234375 0.5859375,0 1.2421875,-0.2578125 1.6171875,-1.078125 0.2695312,-0.59765628 0.328125,-1.27734378 0.328125,-1.99218748 z m -1.9335938,2.84765623 c -0.2695312,0 -0.9140625,-0.12890625 -1.0898437,-1.13671873 -0.09375,-0.5390625 -0.09375,-1.3007813 -0.09375,-1.8164063 0,-0.609375 0,-1.3125 0.1171875,-1.8164062 0.1757812,-0.796875 0.75,-0.9492188 1.0546875,-0.9492188 0.3398437,0 0.9023437,0.1757813 1.078125,1.0078125 0.09375,0.4921875 0.09375,1.1953125 0.09375,1.7578125 0,0.5507813 0,1.3125 -0.09375,1.8398438 -0.1875,1.01953123 -0.84375,1.11328123 -1.0664063,1.11328123 z m 0,0"
       style="fill:#000000;fill-opacity:1;fill-rule:nonzero;stroke:none"
       aria-label="60"
       transform="matrix(1.3333333,0,0,1.3333333,42.876,83.616)" />
    <path
       id="path17"
       d="M 114.72766,90.14264 H 61.02287 c -0.82534,0 -1.49441,-0.66908 -1.49441,-1.49442 V 63.29025 c 0,-0.82535 0.66907,-1.49441 1.49441,-1.49441 h 53.70479 c 0.82535,0 1.49442,0.66906 1.49442,1.49441 v 25.35797 c 0,0.82534 -0.66907,1.49442 -1.49442,1.49442 z"
       style="fill:#ffffff;fill-opacity:1;fill-rule:nonzero;stroke:#6b6b6b;stroke-width:0.54794;stroke-linecap:butt;stroke-linejoin:miter;stroke-miterlimit:10;stroke-dasharray:none;stroke-opacity:1"
       transform="matrix(1.3333333,0,0,-1.3333333,11.224,181.056)" />
    <path
       id="path18"
       d="m 2.7290391,-5.7295781 c 0,-0.2226563 -0.011719,-0.234375 -0.234375,-0.234375 -0.5625,0.5625 -1.3828125,0.5625 -1.66406254,0.5625 v 0.28125 c 0.17578124,0 0.71484374,0 1.20703124,-0.234375 v 4.64062498 c 0,0.328125 -0.035156,0.43359375 -0.8671875,0.43359375 H 0.88919531 V 8.90625e-4 C 1.2056016,-0.02254687 2.0024766,-0.02254687 2.3774766,-0.02254687 c 0.3632812,0 1.171875,0 1.4882812,0.023437495 V -0.28035937 h -0.28125 c -0.8320312,0 -0.8554687,-0.10546875 -0.8554687,-0.43359375 z m 3.4189453,1.6640625 c -0.2695313,-0.1757813 -0.4804688,-0.4101563 -0.4804688,-0.75 0,-0.5859375 0.6328125,-0.9257813 1.21875,-0.9257813 0.6914063,0 1.2421875,0.4804688 1.2421875,1.1015625 0,0.6328125 -0.5273437,1.0429688 -0.890625,1.2539063 z m 1.3125,0.8203125 c 0.4453125,-0.2109375 1.1015625,-0.6679688 1.1015625,-1.3945313 0,-0.8320312 -0.84375,-1.3242187 -1.6523438,-1.3242187 -0.9375,0 -1.6757812,0.6679687 -1.6757812,1.4882812 0,0.3398438 0.1289062,0.6679688 0.3398437,0.9257813 0.1523438,0.1757812 0.2109375,0.2109375 0.7265625,0.5390625 -0.7851562,0.375 -1.3125,0.9257812 -1.3125,1.6523437 0,0.96093753 0.9375,1.55859378 1.9101563,1.55859378 1.0429687,0 1.921875,-0.73828125 1.921875,-1.71093748 0,-0.8671875 -0.6679688,-1.2890625 -0.890625,-1.4414063 -0.1054688,-0.070312 -0.3632813,-0.234375 -0.46875,-0.2929687 z m -0.9140625,0.3867187 1.125,0.703125 c 0.2109375,0.1289063 0.65625,0.421875 0.65625,0.9609375 0,0.71484378 -0.7148438,1.13671878 -1.4179688,1.13671878 -0.7851562,0 -1.4414062,-0.55078125 -1.4414062,-1.30078128 0,-0.6445312 0.4453125,-1.171875 1.078125,-1.5 z m 0,0"
       style="fill:#000000;fill-opacity:1;fill-rule:nonzero;stroke:none"
       aria-label="18"
       transform="matrix(1.3333333,0,0,1.3333333,122.248,83.616)" />
    <path
       id="path19"
       d="m 190.41351,90.14264 h -70.71289 c -0.82533,0 -1.49442,-0.66908 -1.49442,-1.49442 V 63.29025 c 0,-0.82535 0.66909,-1.49441 1.49442,-1.49441 h 70.71289 c 0.82535,0 1.49442,0.66906 1.49442,1.49441 v 25.35797 c 0,0.82534 -0.66907,1.49442 -1.49442,1.49442 z"
       style="fill:#ffffff;fill-opacity:1;fill-rule:nonzero;stroke:#6b6b6b;stroke-width:0.54794;stroke-linecap:butt;stroke-linejoin:miter;stroke-miterlimit:10;stroke-dasharray:none;stroke-opacity:1"
       transform="matrix(1.3333333,0,0,-1.3333333,11.224,181.056)" />
    <path
       id="path20"
       d="m 1.2069297,-2.9639531 c 0,-0.9140625 0.09375,-1.4296875 0.3398437,-1.8984375 0.1757813,-0.3632813 0.609375,-0.8789063 1.2773438,-0.8789063 0.1757812,0 0.5859375,0.035156 0.796875,0.3515625 -0.328125,0 -0.46875,0.1757813 -0.46875,0.4101563 0,0.234375 0.1523437,0.421875 0.4101562,0.421875 0.2460938,0 0.421875,-0.1640625 0.421875,-0.4335938 0,-0.5039062 -0.3632812,-0.9726562 -1.1835937,-0.9726562 -1.1484375,0 -2.41406251,1.1367187 -2.41406251,3.1289062 0,2.43750003 1.08984371,3.03515628 1.93359371,3.03515628 0.9960938,0 1.8984375,-0.83203125 1.8984375,-2.01562498 0,-1.1367188 -0.8320312,-2.0039063 -1.8398437,-2.0039063 -0.5390625,0 -0.9257813,0.3164063 -1.171875,0.8554688 z m 1.1015625,2.90624998 c -0.5039063,0 -0.796875,-0.421875 -0.9140625,-0.6796875 C 1.2303672,-1.1358281 1.2186484,-1.8858281 1.2186484,-2.0264531 c 0,-0.5976563 0.28125,-1.5703125 1.1367188,-1.5703125 0.140625,0 0.5859375,0 0.8671875,0.5625 0.1757812,0.3398437 0.1757812,0.7734375 0.1757812,1.2070312 0,0.4335938 0,0.86718753 -0.1757812,1.19531253 -0.2695313,0.515625 -0.6679688,0.57421875 -0.9140625,0.57421875 z m 0,0"
       style="fill:#000000;fill-opacity:1;fill-rule:nonzero;stroke:none"
       aria-label="6"
       transform="matrix(1.3333333,0,0,1.3333333,214.89467,83.616)" />
    <path
       id="path21"
       d="M 55.1992,69.16626 H 1.49442 C 0.66907,69.16626 0,68.4972 0,67.67184 V 42.31387 C 0,41.48853 0.66907,40.81946 1.49442,40.81946 H 55.1992 c 0.82534,0 1.49442,0.66907 1.49442,1.49441 v 25.35797 c 0,0.82536 -0.66908,1.49442 -1.49442,1.49442 z"
       style="fill:#ffffff;fill-opacity:1;fill-rule:nonzero;stroke:#6b6b6b;stroke-width:0.54794;stroke-linecap:butt;stroke-linejoin:miter;stroke-miterlimit:10;stroke-dasharray:none;stroke-opacity:1"
       transform="matrix(1.3333333,0,0,-1.3333333,11.224,181.056)" />
    <path
       id="path22"
       d="m 2.7297187,-5.7290156 c 0,-0.2226563 -0.011719,-0.234375 -0.234375,-0.234375 -0.5625,0.5625 -1.3828125,0.5625 -1.66406245,0.5625 v 0.28125 c 0.17578125,0 0.71484375,0 1.20703125,-0.234375 v 4.64062498 c 0,0.328125 -0.035156,0.43359375 -0.8671875,0.43359375 h -0.28125 v 0.28125 c 0.3164062,-0.0234375 1.1132812,-0.0234375 1.4882812,-0.0234375 0.3632813,0 1.171875,0 1.4882813,0.0234375 v -0.28125 h -0.28125 c -0.8320313,0 -0.8554688,-0.10546875 -0.8554688,-0.43359375 z m 3.4160157,1.6640625 c -0.2695313,-0.1757813 -0.4804688,-0.4101563 -0.4804688,-0.75 0,-0.5859375 0.6328125,-0.9257813 1.21875,-0.9257813 0.6914063,0 1.2421875,0.4804688 1.2421875,1.1015625 0,0.6328125 -0.5273437,1.0429688 -0.890625,1.2539063 z m 1.3125,0.8203125 c 0.4453125,-0.2109375 1.1015625,-0.6679688 1.1015625,-1.3945313 0,-0.8320312 -0.84375,-1.3242187 -1.6523438,-1.3242187 -0.9375,0 -1.6757812,0.6679687 -1.6757812,1.4882812 0,0.3398438 0.1289062,0.6679688 0.3398437,0.9257813 0.1523438,0.1757812 0.2109375,0.2109375 0.7265625,0.5390625 -0.7851562,0.375 -1.3125,0.9257812 -1.3125,1.6523437 0,0.96093753 0.9375,1.55859378 1.9101563,1.55859378 1.0429687,0 1.921875,-0.73828125 1.921875,-1.71093748 0,-0.8671875 -0.6679688,-1.2890625 -0.890625,-1.4414063 -0.1054688,-0.070312 -0.3632813,-0.234375 -0.46875,-0.2929687 z m -0.9140625,0.3867187 1.125,0.703125 c 0.2109375,0.1289063 0.65625,0.421875 0.65625,0.9609375 0,0.71484378 -0.7148438,1.13671878 -1.4179688,1.13671878 -0.7851562,0 -1.4414062,-0.55078125 -1.4414062,-1.30078128 0,-0.6445312 0.4453125,-1.171875 1.078125,-1.5 z m 0,0"
       style="fill:#000000;fill-opacity:1;fill-rule:nonzero;stroke:none"
       aria-label="18"
       transform="matrix(1.3333333,0,0,1.3333333,42.876,111.584)" />
    <path
       id="path23"
       d="M 114.72766,69.16626 H 61.02287 c -0.82534,0 -1.49441,-0.66906 -1.49441,-1.49442 V 42.31387 c 0,-0.82534 0.66907,-1.49441 1.49441,-1.49441 h 53.70479 c 0.82535,0 1.49442,0.66907 1.49442,1.49441 v 25.35797 c 0,0.82536 -0.66907,1.49442 -1.49442,1.49442 z"
       style="fill:#ffffff;fill-opacity:1;fill-rule:nonzero;stroke:#6b6b6b;stroke-width:0.54794;stroke-linecap:butt;stroke-linejoin:miter;stroke-miterlimit:10;stroke-dasharray:none;stroke-opacity:1"
       transform="matrix(1.3333333,0,0,-1.3333333,11.224,181.056)" />
    <path
       id="path24"
       d="m 1.2082656,-2.9633906 c 0,-0.9140625 0.09375,-1.4296875 0.3398438,-1.8984375 0.1757812,-0.3632813 0.609375,-0.8789063 1.2773437,-0.8789063 0.1757813,0 0.5859375,0.035156 0.796875,0.3515625 -0.328125,0 -0.46875,0.1757813 -0.46875,0.4101563 0,0.234375 0.1523438,0.421875 0.4101563,0.421875 0.2460937,0 0.421875,-0.1640625 0.421875,-0.4335938 0,-0.5039062 -0.3632813,-0.9726562 -1.1835938,-0.9726562 -1.1484375,0 -2.41406247,1.1367187 -2.41406247,3.1289062 0,2.43750003 1.08984377,3.03515628 1.93359377,3.03515628 0.9960937,0 1.8984375,-0.83203125 1.8984375,-2.01562498 0,-1.1367188 -0.8320313,-2.0039063 -1.8398438,-2.0039063 -0.5390625,0 -0.9257812,0.3164063 -1.171875,0.8554688 z m 1.1015625,2.90624998 c -0.5039062,0 -0.796875,-0.421875 -0.9140625,-0.6796875 C 1.2317031,-1.1352656 1.2199844,-1.8852656 1.2199844,-2.0258906 c 0,-0.5976563 0.28125,-1.5703125 1.1367187,-1.5703125 0.140625,0 0.5859375,0 0.8671875,0.5625 0.1757813,0.3398437 0.1757813,0.7734375 0.1757813,1.2070312 0,0.4335938 0,0.86718753 -0.1757813,1.19531253 -0.2695312,0.515625 -0.6679687,0.57421875 -0.9140625,0.57421875 z m 0,0"
       style="fill:#000000;fill-opacity:1;fill-rule:nonzero;stroke:none"
       aria-label="6"
       transform="matrix(1.3333333,0,0,1.3333333,125.31867,111.584)" />
    <path
       id="path25"
       d="m 190.41351,69.16626 h -70.71289 c -0.82533,0 -1.49442,-0.66906 -1.49442,-1.49442 V 42.31387 c 0,-0.82534 0.66909,-1.49441 1.49442,-1.49441 h 70.71289 c 0.82535,0 1.49442,0.66907 1.49442,1.49441 v 25.35797 c 0,0.82536 -0.66907,1.49442 -1.49442,1.49442 z"
       style="fill:#ffffff;fill-opacity:1;fill-rule:nonzero;stroke:#6b6b6b;stroke-width:0.54794;stroke-linecap:butt;stroke-linejoin:miter;stroke-miterlimit:10;stroke-dasharray:none;stroke-opacity:1"
       transform="matrix(1.3333333,0,0,-1.3333333,11.224,181.056)" />
    <path
       id="path26"
       d="m 4.2420859,-2.8696406 c 0,-0.5976563 -0.023437,-1.3710938 -0.3398437,-2.0390625 -0.3984375,-0.84375 -1.078125,-1.0546875 -1.59375,-1.0546875 -0.5390625,0 -1.21875,0.2109375 -1.61718751,1.0664062 -0.29296875,0.6210938 -0.328125,1.3476563 -0.328125,2.0273438 0,0.5859375 0.0117188,1.453125 0.3984375,2.16796873 0.42187501,0.76171875 1.12500001,0.90234375 1.53515621,0.90234375 0.5859375,0 1.2421875,-0.2578125 1.6171875,-1.078125 0.2695313,-0.59765628 0.328125,-1.27734378 0.328125,-1.99218748 z m -1.9335937,2.84765623 c -0.2695313,0 -0.9140625,-0.12890625 -1.0898438,-1.13671873 -0.09375,-0.5390625 -0.09375,-1.3007813 -0.09375,-1.8164063 0,-0.609375 0,-1.3125 0.1171875,-1.8164062 0.1757813,-0.796875 0.75,-0.9492188 1.0546875,-0.9492188 0.3398438,0 0.9023438,0.1757813 1.078125,1.0078125 0.09375,0.4921875 0.09375,1.1953125 0.09375,1.7578125 0,0.5507813 0,1.3125 -0.09375,1.8398438 -0.1875,1.01953123 -0.84375,1.11328123 -1.0664062,1.11328123 z m 0,0"
       style="fill:#000000;fill-opacity:1;fill-rule:nonzero;stroke:none"
       aria-label="0"
       transform="matrix(1.3333333,0,0,1.3333333,214.89467,111.584)" />
    <path
       id="path27"
       d="M 55.1992,48.18947 H 1.49442 C 0.66907,48.18947 0,47.5204 0,46.69505 V 21.3371 C 0,20.51175 0.66907,19.84268 1.49442,19.84268 H 55.1992 c 0.82534,0 1.49442,0.66907 1.49442,1.49442 v 25.35795 c 0,0.82535 -0.66908,1.49442 -1.49442,1.49442 z"
       style="fill:#dbdbdb;fill-opacity:1;fill-rule:nonzero;stroke:#000000;stroke-width:0.89664;stroke-linecap:butt;stroke-linejoin:miter;stroke-miterlimit:10;stroke-dasharray:none;stroke-opacity:1"
       transform="matrix(1.3333333,0,0,-1.3333333,11.224,181.056)" />
    <path
       id="path28"
       d="m 1.2079453,-2.9638281 c 0,-0.9140625 0.09375,-1.4296875 0.3398438,-1.8984375 0.1757812,-0.3632813 0.609375,-0.8789063 1.2773437,-0.8789063 0.1757813,0 0.5859375,0.035156 0.796875,0.3515625 -0.328125,0 -0.46875,0.1757813 -0.46875,0.4101563 0,0.234375 0.1523438,0.421875 0.4101563,0.421875 0.2460937,0 0.421875,-0.1640625 0.421875,-0.4335938 0,-0.5039062 -0.3632813,-0.9726562 -1.1835938,-0.9726562 -1.1484375,0 -2.41406249,1.1367187 -2.41406249,3.1289062 0,2.43750003 1.08984379,3.03515628 1.93359379,3.03515628 0.9960937,0 1.8984375,-0.83203125 1.8984375,-2.01562498 0,-1.1367188 -0.8320313,-2.0039063 -1.8398438,-2.0039063 -0.5390625,0 -0.9257812,0.3164063 -1.171875,0.8554688 z m 1.1015625,2.90624998 c -0.5039062,0 -0.796875,-0.421875 -0.9140625,-0.6796875 C 1.2313828,-1.1357031 1.2196641,-1.8857031 1.2196641,-2.0263281 c 0,-0.5976563 0.28125,-1.5703125 1.1367187,-1.5703125 0.140625,0 0.5859375,0 0.8671875,0.5625 0.1757813,0.3398437 0.1757813,0.7734375 0.1757813,1.2070312 0,0.4335938 0,0.86718753 -0.1757813,1.19531253 -0.2695312,0.515625 -0.6679687,0.57421875 -0.9140625,0.57421875 z m 0,0"
       style="fill:#000000;fill-opacity:1;fill-rule:nonzero;stroke:none"
       aria-label="6"
       transform="matrix(1.3333333,0,0,1.3333333,45.948,139.55333)" />
    <path
       id="path29"
       d="M 114.72766,48.18947 H 61.02287 c -0.82534,0 -1.49441,-0.66907 -1.49441,-1.49442 V 21.3371 c 0,-0.82535 0.66907,-1.49442 1.49441,-1.49442 h 53.70479 c 0.82535,0 1.49442,0.66907 1.49442,1.49442 v 25.35795 c 0,0.82535 -0.66907,1.49442 -1.49442,1.49442 z"
       style="fill:#dbdbdb;fill-opacity:1;fill-rule:nonzero;stroke:#000000;stroke-width:0.89664;stroke-linecap:butt;stroke-linejoin:miter;stroke-miterlimit:10;stroke-dasharray:none;stroke-opacity:1"
       transform="matrix(1.3333333,0,0,-1.3333333,11.224,181.056)" />
    <path
       id="path30"
       d="m 4.2434219,-2.8700781 c 0,-0.5976563 -0.023437,-1.3710938 -0.3398438,-2.0390625 -0.3984375,-0.84375 -1.078125,-1.0546875 -1.59375,-1.0546875 -0.5390625,0 -1.21875,0.2109375 -1.61718747,1.0664062 -0.29296875,0.6210938 -0.328125,1.3476563 -0.328125,2.0273438 0,0.5859375 0.0117188,1.453125 0.3984375,2.16796873 0.42187497,0.76171875 1.12499997,0.90234375 1.53515627,0.90234375 0.5859375,0 1.2421875,-0.2578125 1.6171875,-1.078125 0.2695312,-0.59765628 0.328125,-1.27734378 0.328125,-1.99218748 z m -1.9335938,2.84765623 c -0.2695312,0 -0.9140625,-0.12890625 -1.0898437,-1.13671873 -0.09375,-0.5390625 -0.09375,-1.3007813 -0.09375,-1.8164063 0,-0.609375 0,-1.3125 0.1171875,-1.8164062 0.1757812,-0.796875 0.75,-0.9492188 1.0546875,-0.9492188 0.3398437,0 0.9023437,0.1757813 1.078125,1.0078125 0.09375,0.4921875 0.09375,1.1953125 0.09375,1.7578125 0,0.5507813 0,1.3125 -0.09375,1.8398438 -0.1875,1.01953123 -0.84375,1.11328123 -1.0664063,1.11328123 z m 0,0"
       style="fill:#000000;fill-opacity:1;fill-rule:nonzero;stroke:none"
       aria-label="0"
       transform="matrix(1.3333333,0,0,1.3333333,125.31867,139.55333)" />
    <path
       id="path31"
       d="m 190.41351,48.18947 h -70.71289 c -0.82533,0 -1.49442,-0.66907 -1.49442,-1.49442 V 21.3371 c 0,-0.82535 0.66909,-1.49442 1.49442,-1.49442 h 70.71289 c 0.82535,0 1.49442,0.66907 1.49442,1.49442 v 25.35795 c 0,0.82535 -0.66907,1.49442 -1.49442,1.49442 z"
       style="fill:#fafafa;fill-opacity:1;fill-rule:nonzero;stroke:#b8b8b8;stroke-width:0.54794;stroke-linecap:butt;stroke-linejoin:miter;stroke-miterlimit:10;stroke-dasharray:none;stroke-opacity:1"
       transform="matrix(1.3333333,0,0,-1.3333333,11.224,181.056)" />
    <path
       id="path32"
       d="m 4.102125,-2.1200391 c -1.734375,0 -2.7773437,0.5039063 -2.7773437,1.40625004 0,0.890625 1.0429687,1.39453125 2.7773437,1.39453125 1.7460938,0 2.7773438,-0.50390625 2.7773438,-1.39453125 0,-0.90234374 -1.03125,-1.40625004 -2.7773438,-1.40625004 z m 0,0.5859375 c 1.2773438,0 2.0273438,0.2929688 2.0273438,0.82031254 0,0.52734375 -0.75,0.8203125 -2.0273438,0.8203125 -1.2773437,0 -2.0273437,-0.29296875 -2.0273437,-0.8203125 0,-0.52734374 0.75,-0.82031254 2.0273437,-0.82031254 z m -3.65625,-1.8398437 v 0.609375 h 7.3242188 v -0.609375 H 4.477125 V -4.5223828 H 3.7388438 v 1.1484375 z m 0.6796875,-3.6679688 v 0.609375 H 3.633375 C 3.5630625,-5.5536328 2.274,-4.8622266 0.85603125,-4.7098828 l 0.26953125,0.5859375 c 1.3359375,-0.1640625 2.5546875,-0.75 2.9765625,-1.640625 0.4570313,0.890625 1.6640625,1.4765625 3,1.640625 l 0.2695313,-0.5859375 c -1.4179688,-0.1523438 -2.71875,-0.84375 -2.7773438,-1.7226563 h 2.5195313 v -0.609375 z m 8.4814453,3.984375 v 0.609375 h 1.1367192 v 1.52343754 H 8.6929453 v 0.62109375 H 16.05232 V -0.92472656 H 14.060133 V -2.4481641 h 1.265625 v -0.609375 h -4.980469 v -1.3007812 h 4.792969 V -6.8075391 H 9.5952891 v 0.609375 h 4.8046879 v 1.2421875 H 9.6070078 Z m 1.8632812,2.13281254 V -2.4481641 h 1.875 v 1.52343754 z m 0,0"
       style="fill:#8a8a8a;fill-opacity:1;fill-rule:nonzero;stroke:none"
       aria-label="종료"
       transform="matrix(1.3333333,0,0,1.3333333,206.968,139.94)" />
    <path
       id="path33"
       d="M 404.98347,98.64668 H 221.87958 c -1.10048,0 -1.99256,-0.89208 -1.99256,-1.99255 V 12.7641 c 0,-1.10046 0.89208,-1.99255 1.99256,-1.99255 h 183.10389 c 1.10048,0 1.99256,0.89209 1.99256,1.99255 v 83.89003 c 0,1.10047 -0.89208,1.99255 -1.99256,1.99255 z"
       style="fill:#fcfcfc;fill-opacity:1;fill-rule:nonzero;stroke:#c7c7c7;stroke-width:0.3985;stroke-linecap:butt;stroke-linejoin:miter;stroke-miterlimit:10;stroke-dasharray:none;stroke-opacity:1"
       transform="matrix(1.3333333,0,0,-1.3333333,11.224,181.056)" />
    <g
       id="g33"
       aria-label="B=0이되면반복을종료한다.&#10;마지막으로남은A가최대공약수이다.&#10;GCD(60,18)=6"
       transform="matrix(1.3333333,0,0,1.3333333,335.75733,89.389333)">
      <path
         id="path34"
         d="m 1.4652031,-0.67871875 c -0.082031,0.31640625 -0.1054687,0.3984375 -0.77343747,0.3984375 -0.17578125,0 -0.26953125,0 -0.26953125,0.1640625 0,0.1171875 0.09375,0.1171875 0.24609375,0.1171875 H 3.9378594 c 1.453125,0 2.5195312,-1.05468745 2.5195312,-1.92187495 0,-0.6445313 -0.5273437,-1.1835938 -1.4179687,-1.2773438 1.0195312,-0.1992187 1.8867187,-0.8789062 1.8867187,-1.6757812 0,-0.703125 -0.6445312,-1.2421875 -1.7109375,-1.2421875 H 2.1566094 c -0.1640625,0 -0.2695313,0 -0.2695313,0.1523437 0,0.1171875 0.082031,0.1171875 0.2695313,0.1171875 0.035156,0 0.1875,0 0.3398437,0.023437 0.1523438,0.011719 0.2109375,0.035156 0.2109375,0.1289063 0,0.046875 -0.011719,0.082031 -0.035156,0.1875 z M 2.8597344,-3.3037187 3.4105156,-5.495125 c 0.082031,-0.3164062 0.09375,-0.3515625 0.46875,-0.3515625 h 1.21875 c 0.9257813,0 1.0078125,0.7148438 1.0078125,0.9375 0,0.796875 -0.8320312,1.6054688 -1.8515625,1.6054688 z m -0.4335938,3.02343745 c -0.1171875,0 -0.140625,0 -0.1757812,0 -0.09375,-0.0117188 -0.1171875,-0.0234375 -0.1171875,-0.0820313 0,-0.0351563 0,-0.046875 0.046875,-0.2109375 L 2.8011406,-3.0693438 h 1.6757813 c 0.5625,0 1.125,0.234375 1.125,1.0546875 0,0.890625 -0.8085938,1.734375 -1.8867188,1.734375 z m 0,0"
         style="fill:#000000;fill-opacity:1;fill-rule:nonzero;stroke:none" />
      <path
         id="path35"
         d="m 16.330438,-2.963875 c 0.117187,0 0.292968,0 0.292968,-0.1875 0,-0.1992187 -0.199218,-0.1992187 -0.328125,-0.1992187 h -5.472656 c -0.140625,0 -0.328125,0 -0.328125,0.1992187 0,0.1875 0.175781,0.1875 0.292969,0.1875 z m -0.03516,1.828125 c 0.128907,0 0.328125,0 0.328125,-0.1992187 0,-0.1875 -0.175781,-0.1875 -0.292968,-0.1875 h -5.542969 c -0.117188,0 -0.292969,0 -0.292969,0.1875 0,0.1992187 0.1875,0.1992187 0.328125,0.1992187 z m 7.646485,-1.734375 c 0,-0.5976562 -0.02344,-1.3710937 -0.339844,-2.0390625 -0.398438,-0.84375 -1.078125,-1.0546875 -1.59375,-1.0546875 -0.539063,0 -1.21875,0.2109375 -1.617188,1.0664063 -0.292968,0.6210937 -0.328125,1.3476562 -0.328125,2.0273437 0,0.5859375 0.01172,1.453125 0.398438,2.16796875 0.421875,0.76171875 1.125,0.90234375 1.535156,0.90234375 0.585938,0 1.242188,-0.2578125 1.617188,-1.078125 0.269531,-0.5976562 0.328125,-1.2773437 0.328125,-1.9921875 z m -1.933594,2.84765625 c -0.269531,0 -0.914063,-0.12890625 -1.089844,-1.13671875 -0.09375,-0.5390625 -0.09375,-1.3007812 -0.09375,-1.8164062 0,-0.609375 0,-1.3125 0.117188,-1.8164063 0.175781,-0.796875 0.75,-0.9492187 1.054687,-0.9492187 0.339844,0 0.902344,0.1757812 1.078125,1.0078125 0.09375,0.4921875 0.09375,1.1953125 0.09375,1.7578125 0,0.5507812 0,1.3125 -0.09375,1.8398437 -0.1875,1.01953125 -0.84375,1.11328125 -1.066406,1.11328125 z m 0,0"
         style="fill:#000000;fill-opacity:1;fill-rule:nonzero;stroke:none" />
      <path
         id="path36"
         d="m 31.553094,-7.417 v 8.12109375 h 0.738281 V -7.417 Z m -3.539063,0.6328125 c -1.195312,0 -2.0625,1.1015625 -2.0625,2.8242188 0,1.734375 0.867188,2.8359375 2.0625,2.8359375 1.195313,0 2.0625,-1.1015625 2.0625,-2.8359375 0,-1.7226563 -0.867187,-2.8242188 -2.0625,-2.8242188 z m 0,0.6679688 c 0.796875,0 1.335938,0.84375 1.335938,2.15625 0,1.3125 -0.539063,2.1679687 -1.335938,2.1679687 -0.796875,0 -1.335937,-0.8554687 -1.335937,-2.1679687 0,-1.3125 0.539062,-2.15625 1.335937,-2.15625 z M 41.777703,-7.417 v 8.12109375 h 0.738281 V -7.417 Z m -5.730469,6.3632813 c 1.546875,0 3.480469,-0.035156 5.261719,-0.3046875 l -0.07031,-0.5390625 c -0.726563,0.082031 -1.511719,0.1289062 -2.285157,0.1640625 v -1.5703125 h 1.746094 v -0.609375 h -3.410156 v -2.1328125 h 3.375 v -0.5976563 h -4.113281 v 3.3398438 h 1.664062 V -1.69825 c -0.785156,0.011719 -1.558594,0.023437 -2.261719,0.023437 z M 47.505242,-6.1045 v 2.6015625 h -2.25 V -6.1045 Z m 0.726563,0.7382813 h 1.851562 v 1.1132812 h -1.851562 z m 1.851562,-2.0390625 v 1.4179687 H 48.231805 V -6.7021562 H 44.52868 V -2.917 h 3.703125 v -0.7265625 h 1.851562 v 2.15625 h 0.738281 v -5.9179687 z m -4.464844,5.390625 v 2.53124995 h 5.390625 v -0.609375 H 46.356805 V -2.0146562 Z m 9.134766,-4.8046875 v 4.0078125 h 3.75 v -4.0078125 h -0.738281 v 1.3476562 h -2.285156 v -1.3476562 z m 0.726563,1.9335937 h 2.285156 v 1.4765625 h -2.285156 z m 4.488281,-2.5195312 v 5.953125 h 0.738281 v -2.8828125 h 1.195313 v -0.6210938 h -1.195313 v -2.4492187 z m -4.300781,5.3789062 v 2.54296875 h 5.402343 v -0.609375 H 56.393914 V -2.026375 Z m 7.813476,0.1992188 V -1.2295 h 4.851563 v 1.93359375 h 0.75 V -1.8271562 Z M 64.371453,-5.7295 h 3.925781 v 0.9375 h -3.925781 z m -0.738281,-1.5 v 3.046875 h 2.320312 v 0.9609375 h -3.292968 v 0.609375 h 7.324218 v -0.609375 H 66.691766 V -4.182625 h 2.332031 V -7.2295 h -0.726563 v 0.9257813 H 64.371453 V -7.2295 Z m 10.933594,-0.035156 c -1.792969,0 -2.847657,0.4921875 -2.847657,1.3945312 0,0.9023438 1.054688,1.40625 2.847657,1.40625 1.792968,0 2.859375,-0.5039062 2.859375,-1.40625 0,-0.9023437 -1.066407,-1.3945312 -2.859375,-1.3945312 z m 0,0.5507812 c 1.335937,0 2.097656,0.3164063 2.097656,0.84375 0,0.5507813 -0.761719,0.84375 -2.097656,0.84375 -1.3125,0 -2.074219,-0.2929687 -2.074219,-0.84375 0,-0.5273437 0.761719,-0.84375 2.074219,-0.84375 z m -3.65625,2.8007813 v 0.5976562 h 7.324218 v -0.5976562 z m 0.914062,3.93749995 v 0.5859375 h 5.71875 v -0.5859375 h -5.003906 v -0.8203125 h 4.757812 V -2.6240312 h -5.496093 v 0.5625 h 4.769531 v 0.7148437 H 71.824578 Z M 84.823602,-2.120125 c -1.734375,0 -2.777344,0.5039063 -2.777344,1.40625 0,0.890625 1.042969,1.39453125 2.777344,1.39453125 1.746093,0 2.777343,-0.50390625 2.777343,-1.39453125 0,-0.9023437 -1.03125,-1.40625 -2.777343,-1.40625 z m 0,0.5859375 c 1.277343,0 2.027343,0.2929688 2.027343,0.8203125 0,0.52734375 -0.75,0.8203125 -2.027343,0.8203125 -1.277344,0 -2.027344,-0.29296875 -2.027344,-0.8203125 0,-0.5273437 0.75,-0.8203125 2.027344,-0.8203125 z m -3.65625,-1.8398437 v 0.609375 h 7.324218 v -0.609375 H 85.198602 V -4.5224687 H 84.46032 v 1.1484375 z M 81.847039,-7.042 v 0.609375 h 2.507813 c -0.07031,0.8789063 -1.359375,1.5703125 -2.777344,1.7226563 l 0.269531,0.5859375 c 1.335938,-0.1640625 2.554688,-0.75 2.976563,-1.640625 0.457031,0.890625 1.664062,1.4765625 3,1.640625 l 0.269531,-0.5859375 c -1.417969,-0.1523438 -2.71875,-0.84375 -2.777344,-1.7226563 H 87.83532 V -7.042 Z m 8.484375,3.984375 v 0.609375 h 1.136719 v 1.5234375 h -2.050781 v 0.62109375 h 7.359375 V -0.9248125 H 94.784539 V -2.44825 h 1.265625 v -0.609375 h -4.980469 v -1.3007812 h 4.792969 V -6.807625 h -5.542969 v 0.609375 h 4.804688 v 1.2421875 h -4.792969 z m 1.863281,2.1328125 V -2.44825 h 1.875 v 1.5234375 z m 7.886715,-4.453125 c -1.160152,0 -1.945308,0.5976563 -1.945308,1.5117188 0,0.9140625 0.785156,1.5117187 1.945308,1.5117187 1.14844,0 1.9336,-0.5976562 1.9336,-1.5117187 0,-0.9140625 -0.78516,-1.5117188 -1.9336,-1.5117188 z m 0,0.5859375 c 0.73829,0 1.23047,0.3632813 1.23047,0.9257813 0,0.5625 -0.49218,0.9257812 -1.23047,0.9257812 -0.738277,0 -1.230465,-0.3632812 -1.230465,-0.9257812 0,-0.5625 0.492188,-0.9257813 1.230465,-0.9257813 z m 3.14063,-2.6132812 V -1.32325 h 0.73828 v -2.8007812 h 1.19531 V -4.745125 h -1.19531 v -2.6601562 z m -3.503907,0 v 0.984375 h -2.027344 v 0.609375 h 4.781251 v -0.609375 h -2.01563 v -0.984375 z m -0.796875,5.5898437 v 2.33203125 h 5.402342 v -0.609375 H 99.64782 V -1.8154375 Z M 111.3988,-7.417 v 8.12109375 h 0.75 V -3.5966875 h 1.32422 V -4.2177812 H 112.1488 V -7.417 Z m -5.13282,0.796875 v 5.3085938 h 0.63282 c 1.52343,0 2.58984,-0.046875 3.84375,-0.2695313 l -0.0937,-0.6445312 c -1.1836,0.2226562 -2.21485,0.28125 -3.64453,0.28125 V -6.01075 h 3.02343 v -0.609375 z m 8.69532,6.73828125 c 0.32812,0 0.59765,-0.24609375 0.59765,-0.62109375 0,-0.375 -0.26953,-0.6210937 -0.59765,-0.6210937 -0.32813,0 -0.58594,0.2460937 -0.58594,0.6210937 0,0.375 0.25781,0.62109375 0.58594,0.62109375 z M 0.77379688,10.029289 V 15.26757 H 4.4886406 v -5.238281 z m 2.98828122,0.585938 v 4.042968 H 1.5003594 V 10.615227 Z M 5.9300469,9.2089766 V 17.33007 h 0.75 V 13.076164 H 8.0042656 V 12.45507 H 6.6800469 V 9.2089766 Z m 8.6601561,0 V 17.33007 h 0.738281 V 9.2089766 Z M 8.9534844,10.041008 v 0.621094 h 1.8867186 v 1.019531 c 0,1.40625 -0.9726561,2.941406 -2.1445311,3.492187 l 0.4335937,0.597657 c 0.9257814,-0.46875 1.7343754,-1.488282 2.0976564,-2.671875 0.375,1.101562 1.171875,2.027343 2.121094,2.472656 l 0.410156,-0.597656 c -1.195313,-0.515625 -2.167969,-1.910157 -2.167969,-3.292969 v -1.019531 h 1.898438 V 10.041008 Z M 17.282586,9.8183516 v 3.5976564 h 3.726562 V 9.8183516 Z m 3,0.5976564 v 2.402344 h -2.273438 v -2.402344 z m -2.320313,4.03125 v 0.597656 h 4.535157 v 2.285156 h 0.738281 V 14.447258 Z M 22.49743,9.2089766 v 4.8046874 h 0.738281 v -2.074219 h 1.195312 V 11.318352 H 23.235711 V 9.2089766 Z m 6.351562,0.5273437 c -1.675781,0 -2.941406,0.8789067 -2.941406,2.2265627 0,1.359375 1.265625,2.238281 2.941406,2.238281 1.6875,0 2.953125,-0.878906 2.953125,-2.238281 0,-1.347656 -1.265625,-2.2265627 -2.953125,-2.2265627 z m 0,0.5976567 c 1.289063,0 2.238281,0.667968 2.238281,1.628906 0,0.984375 -0.949218,1.628906 -2.238281,1.628906 -1.265625,0 -2.226562,-0.644531 -2.226562,-1.628906 0,-0.960938 0.960937,-1.628906 2.226562,-1.628906 z m -3.65625,5.296875 v 0.621093 h 7.359375 v -0.621093 z m 9.164063,-2.050782 v 0.609375 h 2.378906 v 1.511719 h -3.292969 v 0.621094 h 7.359375 v -0.621094 h -3.328125 v -1.511719 h 2.601563 V 13.58007 h -4.980469 v -1.3125 h 4.792969 V 9.8183516 h -5.542969 v 0.6093754 h 4.804687 v 1.253906 h -4.792968 z m 10.526367,0.667969 v 2.964844 h 5.109375 v -2.964844 z m 4.382812,0.585938 v 1.769531 h -3.65625 v -1.769531 z m -0.01172,-5.6132817 v 4.5820317 h 0.738281 v -2.109375 h 1.207031 V 11.072258 H 49.992547 V 9.2206953 Z m -5.167969,3.3398437 v 0.621094 h 0.644531 c 1.207031,0 2.425781,-0.08203 3.785156,-0.351563 l -0.09375,-0.621093 c -1.289062,0.257812 -2.449218,0.351562 -3.585937,0.351562 V 9.6308516 h -0.75 z m 7.863281,0.914063 v 0.609375 h 7.324219 v -0.609375 z m 3.65625,-3.9843754 c -1.734375,0 -2.847656,0.5976564 -2.847656,1.6171874 0,1.007813 1.113281,1.617188 2.847656,1.617188 1.746094,0 2.859375,-0.609375 2.859375,-1.617188 0,-1.019531 -1.113281,-1.6171874 -2.859375,-1.6171874 z m 0,0.5976564 c 1.289063,0 2.097656,0.386719 2.097656,1.019531 0,0.632813 -0.808593,1.007813 -2.097656,1.007813 -1.265625,0 -2.085937,-0.375 -2.085937,-1.007813 0,-0.632812 0.820312,-1.019531 2.085937,-1.019531 z m -2.707031,4.710937 v 2.34375 h 5.566406 V 16.533195 H 53.637078 V 14.79882 Z m 0,0"
         style="fill:#000000;fill-opacity:1;fill-rule:nonzero;stroke:none" />
      <path
         id="path37"
         d="m 63.390008,15.572258 c -0.433594,0.726562 -0.832031,0.75 -1.195313,0.773437 -0.05859,0.01172 -0.105468,0.08203 -0.105468,0.164063 0,0.05859 0.03516,0.117187 0.128906,0.117187 0.175781,0 0.597656,-0.02344 0.761719,-0.02344 0.199218,0 0.679687,0.02344 0.878906,0.02344 0.05859,0 0.175781,0 0.175781,-0.164062 0,-0.105469 -0.117187,-0.117188 -0.140625,-0.117188 -0.08203,0 -0.421875,-0.02344 -0.421875,-0.292968 0,-0.128907 0.105469,-0.292969 0.128906,-0.339844 l 0.703125,-1.160156 h 2.34375 c 0.02344,0.210937 0.05859,0.515625 0.08203,0.738281 0.03516,0.351562 0.08203,0.75 0.08203,0.773437 0,0.128907 -0.117188,0.28125 -0.644531,0.28125 -0.08203,0 -0.199219,0 -0.199219,0.164063 0,0.09375 0.07031,0.117187 0.128906,0.117187 0.175781,0 0.386719,-0.02344 0.5625,-0.02344 0.1875,0 0.398438,0 0.539063,0 0.304687,0 0.316406,0 0.527343,0 0.152344,0.01172 0.351563,0.02344 0.503907,0.02344 0.04687,0 0.164062,0 0.164062,-0.164062 0,-0.117188 -0.09375,-0.117188 -0.199219,-0.117188 -0.539062,0 -0.550781,-0.05859 -0.574218,-0.316406 l -0.632813,-5.578125 c -0.02344,-0.199219 -0.02344,-0.246094 -0.175781,-0.246094 -0.128906,0 -0.1875,0.07031 -0.257813,0.1875 z m 1.089844,-1.289063 1.804687,-2.964843 0.339844,2.964843 z m 0,0"
         style="fill:#000000;fill-opacity:1;fill-rule:nonzero;stroke:none" />
      <path
         id="path38"
         d="m 75.498406,9.2089766 v 8.1093754 h 0.75 v -4.195313 h 1.289063 V 12.501945 H 76.248406 V 9.2089766 Z m -5.0625,0.8789064 v 0.609375 h 2.976563 c -0.164063,1.921875 -1.289063,3.46875 -3.351563,4.511719 l 0.410157,0.574218 c 2.625,-1.3125 3.691406,-3.398437 3.691406,-5.695312 z M 86.133172,9.2089766 V 17.33007 h 0.738281 V 9.2089766 Z m -5.730469,6.4453124 c 1.453125,0 3.433594,0 5.261719,-0.339844 l -0.07031,-0.5625 c -0.726562,0.117188 -1.5,0.175782 -2.261718,0.222657 v -1.476563 h -0.75 v 1.511719 c -0.820313,0.03516 -1.605469,0.03516 -2.273438,0.03516 z m 2.179688,-6.3749999 v 0.9960939 h -1.828125 v 0.609375 h 1.828125 c -0.03516,1.066406 -0.84375,1.957031 -2.027344,2.308594 l 0.351562,0.574218 c 0.960938,-0.292968 1.710938,-0.9375 2.0625,-1.792968 0.351563,0.808593 1.101563,1.429687 2.0625,1.710937 l 0.339844,-0.585937 c -1.183594,-0.328125 -2.015625,-1.183594 -2.039062,-2.214844 h 1.863281 V 10.275383 H 83.332391 V 9.2792891 Z m 10.265625,0.1171875 v 7.5117184 h 0.691406 v -3.832031 h 1.148437 v 4.253906 h 0.703125 V 9.2089766 H 94.687859 V 12.466789 H 93.539422 V 9.3964766 Z m -4.042969,0.7968754 v 5.132812 h 0.527344 c 1.21875,0 2.039062,-0.03516 3,-0.246094 l -0.07031,-0.609375 c -0.878906,0.1875 -1.640625,0.222657 -2.71875,0.234375 v -3.890625 h 2.273438 v -0.621093 z m 11.586913,4.136718 c -1.722655,0 -2.812499,0.5625 -2.812499,1.5 0,0.925782 1.089844,1.476563 2.812499,1.476563 1.73438,0 2.82422,-0.550781 2.82422,-1.476563 0,-0.9375 -1.08984,-1.5 -2.82422,-1.5 z m 0,0.574219 c 1.27734,0 2.08594,0.351563 2.08594,0.925781 0,0.550782 -0.8086,0.890625 -2.08594,0.890625 -1.265624,0 -2.074218,-0.339843 -2.074218,-0.890625 0,-0.574218 0.808594,-0.925781 2.074218,-0.925781 z M 97.626336,9.6308516 v 0.5976564 h 4.792964 v 0.08203 c 0,0.632813 0,1.230469 -0.21093,2.0625 l 0.72656,0.08203 c 0.22266,-0.832031 0.22266,-1.488281 0.22266,-2.144531 V 9.6308516 Z m 2.144531,1.7929684 v 1.558594 h -3 v 0.609375 h 7.300783 v -0.609375 h -3.5625 V 11.42382 Z m 6.257813,2.988282 v 0.609375 h 4.53516 v 2.308593 h 0.73828 v -2.917968 z m 1.24219,-4.7109379 c -1.21875,0 -2.1211,0.7851559 -2.1211,1.9101559 0,1.148438 0.90235,1.921875 2.1211,1.921875 1.23047,0 2.12109,-0.773437 2.12109,-1.921875 0,-1.125 -0.89062,-1.9101559 -2.12109,-1.9101559 z m 0,0.6328129 c 0.80859,0 1.39453,0.515625 1.39453,1.277343 0,0.773438 -0.58594,1.300782 -1.39453,1.300782 -0.79688,0 -1.39453,-0.527344 -1.39453,-1.300782 0,-0.761718 0.59765,-1.277343 1.39453,-1.277343 z m 3.29297,-1.1250004 v 4.8164064 h 0.73828 v -1.21875 h 1.17187 v -0.621094 h -1.17187 v -1.113281 h 1.17187 v -0.621094 h -1.17187 V 9.2089766 Z m 5.97656,0.2929687 v 0.4570313 c 0,1.1484374 -1.41797,2.1210934 -2.90625,2.3437504 l 0.30469,0.597656 c 1.2539,-0.210938 2.48437,-0.914063 3,-1.898438 0.51562,0.984375 1.73437,1.6875 2.98828,1.898438 l 0.30468,-0.597656 c -1.47656,-0.222657 -2.91796,-1.21875 -2.91796,-2.3437504 V 9.5019453 Z m -3.28125,4.2773437 v 0.621094 h 3.28125 v 2.929687 h 0.73828 v -2.929687 h 3.30469 v -0.621094 z m 14.1416,-4.5703124 V 17.33007 h 0.73828 V 9.2089766 Z m -3.53906,0.6328125 c -1.19531,0 -2.0625,1.1015629 -2.0625,2.8242189 0,1.734375 0.86719,2.835937 2.0625,2.835937 1.19531,0 2.0625,-1.101562 2.0625,-2.835937 0,-1.722656 -0.86719,-2.8242189 -2.0625,-2.8242189 z m 0,0.6679689 c 0.79687,0 1.33594,0.84375 1.33594,2.15625 0,1.3125 -0.53907,2.167969 -1.33594,2.167969 -0.79688,0 -1.33594,-0.855469 -1.33594,-2.167969 0,-1.3125 0.53906,-2.15625 1.33594,-2.15625 z m 11.3789,-1.3007814 V 17.33007 h 0.75 v -4.300781 h 1.32422 v -0.621094 h -1.32422 V 9.2089766 Z m -5.13281,0.7968754 v 5.308593 h 0.63281 c 1.52344,0 2.58985,-0.04687 3.84375,-0.269531 l -0.0937,-0.644531 c -1.18359,0.222656 -2.21484,0.28125 -3.64453,0.28125 v -4.066406 h 3.02344 v -0.609375 z m 8.69531,6.738281 c 0.32813,0 0.59766,-0.246094 0.59766,-0.621094 0,-0.375 -0.26953,-0.621094 -0.59766,-0.621094 -0.32812,0 -0.58593,0.246094 -0.58593,0.621094 0,0.375 0.25781,0.621094 0.58593,0.621094 z M 3.4925469,33.373039 c 0.8789062,0 1.6054687,-0.328125 2.015625,-0.761719 v -2.765625 h -2.15625 v 0.691407 h 1.3945312 v 1.722656 c -0.2578125,0.246094 -0.7148437,0.386719 -1.1835937,0.386719 -1.40625,0 -2.1914063,-1.042969 -2.1914063,-2.695313 0,-1.640625 0.8554688,-2.660156 2.1914063,-2.660156 0.65625,0 1.078125,0.28125 1.4179687,0.621094 l 0.4453125,-0.539063 c -0.375,-0.386719 -0.984375,-0.808594 -1.8984375,-0.808594 -1.734375,0 -3.01171872,1.289063 -3.01171872,3.410157 0,2.132812 1.24218752,3.398437 2.97656252,3.398437 z m 6.0615234,0 c 0.8554687,0 1.4999997,-0.339844 2.0273437,-0.9375 l -0.457031,-0.539062 c -0.421875,0.46875 -0.902344,0.75 -1.5351564,0.75 -1.2539063,0 -2.0390625,-1.042969 -2.0390625,-2.695313 0,-1.640625 0.8320312,-2.660156 2.0742187,-2.660156 0.5625002,0 0.9960942,0.257812 1.3476562,0.621094 l 0.445313,-0.539063 c -0.375,-0.421875 -1.007813,-0.808594 -1.8046879,-0.808594 -1.6640625,0 -2.9179688,1.289063 -2.9179688,3.410157 0,2.132812 1.21875,3.398437 2.859375,3.398437 z m 3.2460937,-0.117187 h 1.675781 c 1.980469,0 3.058594,-1.230469 3.058594,-3.304688 0,-2.097656 -1.078125,-3.269531 -3.09375,-3.269531 h -1.640625 z m 0.832031,-0.679688 V 27.36132 h 0.738282 c 1.546875,0 2.320312,0.914063 2.320312,2.589844 0,1.652344 -0.773437,2.625 -2.320312,2.625 z m 0,0"
         style="fill:#000000;fill-opacity:1;fill-rule:nonzero;stroke:none" />
      <path
         id="path39"
         d="m 21.126336,35.388664 c 0,-0.04687 -0.02344,-0.07031 -0.08203,-0.128906 -1.160157,-1.066406 -1.511719,-2.671875 -1.511719,-4.242188 0,-1.394531 0.269531,-3.082031 1.535156,-4.277343 0.03516,-0.03516 0.05859,-0.07031 0.05859,-0.105469 0,-0.07031 -0.04687,-0.105469 -0.105469,-0.105469 -0.105469,0 -0.914062,0.644531 -1.40625,1.628906 -0.421875,0.855469 -0.644531,1.78125 -0.644531,2.847657 0,0.644531 0.08203,1.664062 0.574219,2.730468 0.527343,1.101563 1.371093,1.746094 1.476562,1.746094 0.05859,0 0.105469,-0.03516 0.105469,-0.09375 z m 1.725586,-5.097656 c 0,-0.914063 0.09375,-1.429688 0.339844,-1.898438 0.175781,-0.363281 0.609375,-0.878906 1.277343,-0.878906 0.175782,0 0.585938,0.03516 0.796875,0.351563 -0.328125,0 -0.46875,0.175781 -0.46875,0.410156 0,0.234375 0.152344,0.421875 0.410157,0.421875 0.246093,0 0.421875,-0.164063 0.421875,-0.433594 0,-0.503906 -0.363282,-0.972656 -1.183594,-0.972656 -1.148438,0 -2.414063,1.136719 -2.414063,3.128906 0,2.4375 1.089844,3.035156 1.933594,3.035156 0.996094,0 1.898438,-0.832031 1.898438,-2.015625 0,-1.136718 -0.832032,-2.003906 -1.839844,-2.003906 -0.539063,0 -0.925781,0.316406 -1.171875,0.855469 z m 1.101562,2.90625 c -0.503906,0 -0.796875,-0.421875 -0.914062,-0.679688 -0.164063,-0.398437 -0.175781,-1.148437 -0.175781,-1.289062 0,-0.597656 0.28125,-1.570313 1.136718,-1.570313 0.140625,0 0.585938,0 0.867188,0.5625 0.175781,0.339844 0.175781,0.773438 0.175781,1.207032 0,0.433593 0,0.867187 -0.175781,1.195312 -0.269531,0.515625 -0.667969,0.574219 -0.914063,0.574219 z m 6.533204,-2.8125 c 0,-0.597656 -0.02344,-1.371094 -0.339844,-2.039063 -0.398438,-0.84375 -1.078125,-1.054687 -1.59375,-1.054687 -0.539063,0 -1.21875,0.210937 -1.617188,1.066406 -0.292968,0.621094 -0.328125,1.347656 -0.328125,2.027344 0,0.585937 0.01172,1.453125 0.398438,2.167969 0.421875,0.761718 1.125,0.902343 1.535156,0.902343 0.585938,0 1.242188,-0.257812 1.617188,-1.078125 0.269531,-0.597656 0.328125,-1.277343 0.328125,-1.992187 z m -1.933594,2.847656 c -0.269531,0 -0.914063,-0.128906 -1.089844,-1.136719 -0.09375,-0.539062 -0.09375,-1.300781 -0.09375,-1.816406 0,-0.609375 0,-1.3125 0.117188,-1.816406 0.175781,-0.796875 0.75,-0.949219 1.054687,-0.949219 0.339844,0 0.902344,0.175781 1.078125,1.007813 0.09375,0.492187 0.09375,1.195312 0.09375,1.757812 0,0.550781 0,1.3125 -0.09375,1.839844 -0.1875,1.019531 -0.84375,1.113281 -1.066406,1.113281 z m 0,0"
         style="fill:#000000;fill-opacity:1;fill-rule:nonzero;stroke:none" />
      <path
         id="path40"
         d="m 32.496453,33.115227 c 0,0.292968 0,1.03125 -0.65625,1.664062 -0.05859,0.05859 -0.05859,0.05859 -0.05859,0.09375 0,0.07031 0.05859,0.117188 0.117188,0.117188 0.09375,0 0.820312,-0.703125 0.820312,-1.757813 0,-0.550781 -0.1875,-0.949219 -0.574218,-0.949219 -0.304688,0 -0.492188,0.234375 -0.492188,0.492188 0,0.246094 0.1875,0.480469 0.492188,0.480469 0.128906,0 0.269531,-0.04687 0.351562,-0.140625 z m 0,0"
         style="fill:#000000;fill-opacity:1;fill-rule:nonzero;stroke:none" />
      <path
         id="path41"
         d="m 37.693719,27.525383 c 0,-0.222656 -0.01172,-0.234375 -0.234375,-0.234375 -0.5625,0.5625 -1.382813,0.5625 -1.664063,0.5625 v 0.28125 c 0.175782,0 0.714844,0 1.207032,-0.234375 v 4.640625 c 0,0.328125 -0.03516,0.433594 -0.867188,0.433594 h -0.28125 v 0.28125 c 0.316406,-0.02344 1.113281,-0.02344 1.488281,-0.02344 0.363282,0 1.171875,0 1.488282,0.02344 v -0.28125 h -0.28125 c -0.832032,0 -0.855469,-0.105469 -0.855469,-0.433594 z m 3.416015,1.664062 c -0.269531,-0.175781 -0.480468,-0.410156 -0.480468,-0.75 0,-0.585937 0.632812,-0.925781 1.21875,-0.925781 0.691406,0 1.242187,0.480469 1.242187,1.101563 0,0.632812 -0.527344,1.042968 -0.890625,1.253906 z m 1.3125,0.820313 c 0.445313,-0.210938 1.101563,-0.667969 1.101563,-1.394531 0,-0.832032 -0.84375,-1.324219 -1.652344,-1.324219 -0.9375,0 -1.675781,0.667969 -1.675781,1.488281 0,0.339844 0.128906,0.667969 0.339844,0.925781 0.152343,0.175782 0.210937,0.210938 0.726562,0.539063 -0.785156,0.375 -1.3125,0.925781 -1.3125,1.652344 0,0.960937 0.9375,1.558593 1.910156,1.558593 1.042969,0 1.921875,-0.738281 1.921875,-1.710937 0,-0.867188 -0.667968,-1.289063 -0.890625,-1.441406 -0.105468,-0.07031 -0.363281,-0.234375 -0.46875,-0.292969 z m -0.914062,0.386719 1.125,0.703125 c 0.210937,0.128906 0.65625,0.421875 0.65625,0.960937 0,0.714844 -0.714844,1.136719 -1.417969,1.136719 -0.785156,0 -1.441406,-0.550781 -1.441406,-1.300781 0,-0.644532 0.445312,-1.171875 1.078125,-1.5 z m 5.326172,0.609375 c 0,-0.738282 -0.105469,-1.722657 -0.574219,-2.71875 -0.527344,-1.101563 -1.359375,-1.757813 -1.464844,-1.757813 -0.09375,0 -0.117187,0.07031 -0.117187,0.105469 0,0.03516 0.02344,0.07031 0.08203,0.128906 0.527344,0.46875 1.511719,1.6875 1.511719,4.242188 0,1.277343 -0.234375,3.070312 -1.535156,4.277343 -0.02344,0.02344 -0.05859,0.05859 -0.05859,0.105469 0,0.02344 0.02344,0.09375 0.117187,0.09375 0.105469,0 0.914063,-0.644531 1.394532,-1.617187 0.433593,-0.855469 0.644531,-1.78125 0.644531,-2.859375 z m 9.811523,-0.714844 c 0.117188,0 0.292969,0 0.292969,-0.1875 0,-0.199219 -0.199219,-0.199219 -0.328125,-0.199219 h -5.472656 c -0.140625,0 -0.328125,0 -0.328125,0.199219 0,0.1875 0.175781,0.1875 0.292968,0.1875 z m -0.03516,1.828125 c 0.128906,0 0.328125,0 0.328125,-0.199219 0,-0.1875 -0.175781,-0.1875 -0.292969,-0.1875 h -5.542969 c -0.117187,0 -0.292968,0 -0.292968,0.1875 0,0.199219 0.1875,0.199219 0.328125,0.199219 z m 4.611328,-1.828125 c 0,-0.914063 0.09375,-1.429688 0.339844,-1.898438 0.175781,-0.363281 0.609375,-0.878906 1.277344,-0.878906 0.175781,0 0.585937,0.03516 0.796875,0.351563 -0.328125,0 -0.46875,0.175781 -0.46875,0.410156 0,0.234375 0.152343,0.421875 0.410156,0.421875 0.246094,0 0.421875,-0.164063 0.421875,-0.433594 0,-0.503906 -0.363281,-0.972656 -1.183594,-0.972656 -1.148437,0 -2.414062,1.136719 -2.414062,3.128906 0,2.4375 1.089843,3.035156 1.933593,3.035156 0.996094,0 1.898438,-0.832031 1.898438,-2.015625 0,-1.136718 -0.832031,-2.003906 -1.839844,-2.003906 -0.539062,0 -0.925781,0.316406 -1.171875,0.855469 z m 1.101563,2.90625 c -0.503907,0 -0.796875,-0.421875 -0.914063,-0.679688 -0.164062,-0.398437 -0.175781,-1.148437 -0.175781,-1.289062 0,-0.597656 0.28125,-1.570313 1.136719,-1.570313 0.140625,0 0.585937,0 0.867187,0.5625 0.175781,0.339844 0.175781,0.773438 0.175781,1.207032 0,0.433593 0,0.867187 -0.175781,1.195312 -0.269531,0.515625 -0.667969,0.574219 -0.914062,0.574219 z m 0,0"
         style="fill:#000000;fill-opacity:1;fill-rule:nonzero;stroke:none" />
    </g>
  </g>
</svg>
