<svg xmlns="http://www.w3.org/2000/svg" width="320" height="170" viewBox="0 0 320 170">
<rect width="100%" height="100%" fill="white"/>
<style>
text{font-family:"JetBrains Mono","Consolas","Noto Sans Mono CJK KR",monospace;fill:#202020}
.title{font-size:12px;font-weight:600}
.head{font-size:12px;font-style:italic}
.cellText{font-size:12px}
.muted{font-size:12px;fill:#999}
.cell{fill:white;stroke:#777;stroke-width:1}
.headCell{fill:#d9d9d9;stroke:#202020;stroke-width:1.2}
.hi{fill:#d9d9d9;stroke:#202020;stroke-width:1.2}
</style>

<text x="160" y="24" text-anchor="middle" class="title">GCD(60,18) 계산 과정</text>

<rect x="32" y="38" width="74" height="30" class="headCell"/>
<rect x="106" y="38" width="74" height="30" class="headCell"/>
<rect x="180" y="38" width="96" height="30" class="headCell"/>
<text x="69" y="57" text-anchor="middle" class="head">A</text>
<text x="143" y="57" text-anchor="middle" class="head">B</text>
<text x="228" y="57" text-anchor="middle" class="head">A mod B</text>

<rect x="32" y="68" width="74" height="30" class="cell"/>
<rect x="106" y="68" width="74" height="30" class="cell"/>
<rect x="180" y="68" width="96" height="30" class="cell"/>
<text x="69" y="87" text-anchor="middle" class="cellText">60</text>
<text x="143" y="87" text-anchor="middle" class="cellText">18</text>
<text x="228" y="87" text-anchor="middle" class="cellText">6</text>

<rect x="32" y="98" width="74" height="30" class="cell"/>
<rect x="106" y="98" width="74" height="30" class="cell"/>
<rect x="180" y="98" width="96" height="30" class="cell"/>
<text x="69" y="117" text-anchor="middle" class="cellText">18</text>
<text x="143" y="117" text-anchor="middle" class="cellText">6</text>
<text x="228" y="117" text-anchor="middle" class="cellText">0</text>

<rect x="32" y="128" width="74" height="30" class="hi"/>
<rect x="106" y="128" width="74" height="30" class="hi"/>
<rect x="180" y="128" width="96" height="30" class="cell"/>
<text x="69" y="147" text-anchor="middle" class="cellText">6</text>
<text x="143" y="147" text-anchor="middle" class="cellText">0</text>
<text x="228" y="147" text-anchor="middle" class="muted">종료</text>
</svg>
