<svg xmlns="http://www.w3.org/2000/svg" width="860" height="370" viewBox="0 0 860 370"><rect width="100%" height="100%" fill="white"/><style>
text{font-family:"JetBrains Mono","Consolas","Noto Sans Mono CJK KR",monospace;fill:#202020}
.label{font-size:18px}.small{font-size:14px;fill:#555}.tiny{font-size:13px;fill:#555}
.node{fill:white;stroke:#555;stroke-width:1.8}.nodeHi{fill:#eee;stroke:#202020;stroke-width:2.3}
.edge{fill:none;stroke:#888;stroke-width:1.7}.edgeHi{fill:none;stroke:#202020;stroke-width:3}
.cell{fill:white;stroke:#777;stroke-width:1.2}.cellHi{fill:#eee;stroke:#202020;stroke-width:2}
.box{fill:white;stroke:#777;stroke-width:1.2;rx:5}.boxHi{fill:#eee;stroke:#202020;stroke-width:2;rx:5}
.arrow{fill:none;stroke:#202020;stroke-width:1.7;marker-end:url(#arrow)}
</style><defs><marker id="arrow" markerWidth="9" markerHeight="9" refX="7" refY="3" orient="auto"><path d="M0,0 L0,6 L8,3 z" fill="#202020"/></marker></defs><line x1="430" y1="101" x2="260" y2="139" class="edgeHi"/><line x1="430" y1="101" x2="600" y2="139" class="edgeHi"/><line x1="260" y1="201" x2="180" y2="249" class="edge"/><line x1="260" y1="201" x2="340" y2="249" class="edgeHi"/><line x1="600" y1="201" x2="520" y2="249" class="edge"/><line x1="600" y1="201" x2="680" y2="249" class="edge"/><rect x="372" y="39" width="116" height="62" class="node" rx="7"/><text x="430" y="65" text-anchor="middle" class="small">[2,3,6,9]</text><text x="430" y="88" text-anchor="middle" class="tiny">[0,3]</text><rect x="202" y="139" width="116" height="62" class="node" rx="7"/><text x="260" y="165" text-anchor="middle" class="small">[3,6]</text><text x="260" y="188" text-anchor="middle" class="tiny">[0,1]</text><rect x="542" y="139" width="116" height="62" class="nodeHi" rx="7"/><text x="600" y="165" text-anchor="middle" class="small">[2,9]</text><text x="600" y="188" text-anchor="middle" class="tiny">[2,3]</text><rect x="122" y="249" width="116" height="62" class="node" rx="7"/><text x="180" y="275" text-anchor="middle" class="small">[3]</text><text x="180" y="298" text-anchor="middle" class="tiny">[0]</text><rect x="282" y="249" width="116" height="62" class="nodeHi" rx="7"/><text x="340" y="275" text-anchor="middle" class="small">[6]</text><text x="340" y="298" text-anchor="middle" class="tiny">[1]</text><rect x="462" y="249" width="116" height="62" class="node" rx="7"/><text x="520" y="275" text-anchor="middle" class="small">[9]</text><text x="520" y="298" text-anchor="middle" class="tiny">[2]</text><rect x="622" y="249" width="116" height="62" class="node" rx="7"/><text x="680" y="275" text-anchor="middle" class="small">[2]</text><text x="680" y="298" text-anchor="middle" class="tiny">[3]</text><text x="430" y="342" text-anchor="middle" class="label">query(1, 3, 5)</text></svg>