<svg xmlns="http://www.w3.org/2000/svg" width="900" height="310" viewBox="0 0 900 310"><rect width="100%" height="100%" fill="white"/><style>
text{font-family:"JetBrains Mono","Consolas","Noto Sans Mono CJK KR",monospace;fill:#202020}
.label{font-size:18px}.small{font-size:14px;fill:#555}.tiny{font-size:13px;fill:#555}
.node{fill:white;stroke:#555;stroke-width:1.8}.nodeHi{fill:#eee;stroke:#202020;stroke-width:2.3}
.edge{fill:none;stroke:#888;stroke-width:1.7}.edgeHi{fill:none;stroke:#202020;stroke-width:3}
.cell{fill:white;stroke:#777;stroke-width:1.2}.cellHi{fill:#eee;stroke:#202020;stroke-width:2}
.box{fill:white;stroke:#777;stroke-width:1.2;rx:5}.boxHi{fill:#eee;stroke:#202020;stroke-width:2;rx:5}
.arrow{fill:none;stroke:#202020;stroke-width:1.7;marker-end:url(#arrow)}
</style><defs><marker id="arrow" markerWidth="9" markerHeight="9" refX="7" refY="3" orient="auto"><path d="M0,0 L0,6 L8,3 z" fill="#202020"/></marker></defs><text x="142" y="65" text-anchor="end" class="label">idx</text><rect x="160" y="38" width="92" height="42" class="cell"/><text x="206.0" y="65" text-anchor="middle" class="label">1</text><rect x="252" y="38" width="92" height="42" class="cell"/><text x="298.0" y="65" text-anchor="middle" class="label">2</text><rect x="344" y="38" width="92" height="42" class="cellHi"/><text x="390.0" y="65" text-anchor="middle" class="label">3</text><rect x="436" y="38" width="92" height="42" class="cell"/><text x="482.0" y="65" text-anchor="middle" class="label">4</text><rect x="528" y="38" width="92" height="42" class="cellHi"/><text x="574.0" y="65" text-anchor="middle" class="label">5</text><rect x="620" y="38" width="92" height="42" class="cell"/><text x="666.0" y="65" text-anchor="middle" class="label">6</text><rect x="712" y="38" width="92" height="42" class="cell"/><text x="758.0" y="65" text-anchor="middle" class="label">7</text><text x="142" y="127" text-anchor="end" class="label">tree</text><rect x="160" y="100" width="92" height="42" class="cell"/><text x="206.0" y="127" text-anchor="middle" class="label">[2,3,6,9]</text><rect x="252" y="100" width="92" height="42" class="cell"/><text x="298.0" y="127" text-anchor="middle" class="label">[3,6]</text><rect x="344" y="100" width="92" height="42" class="cellHi"/><text x="390.0" y="127" text-anchor="middle" class="label">[2,9]</text><rect x="436" y="100" width="92" height="42" class="cell"/><text x="482.0" y="127" text-anchor="middle" class="label">[3]</text><rect x="528" y="100" width="92" height="42" class="cellHi"/><text x="574.0" y="127" text-anchor="middle" class="label">[6]</text><rect x="620" y="100" width="92" height="42" class="cell"/><text x="666.0" y="127" text-anchor="middle" class="label">[9]</text><rect x="712" y="100" width="92" height="42" class="cell"/><text x="758.0" y="127" text-anchor="middle" class="label">[2]</text><text x="436" y="205" text-anchor="middle" class="label">L = 5, R = 7</text><text x="436" y="250" text-anchor="middle" class="small">arr[5], arr[3] 사용</text></svg>