<svg xmlns="http://www.w3.org/2000/svg" width="820" height="390" viewBox="0 0 820 390"><rect width="100%" height="100%" fill="white"/><style>
text{font-family:"JetBrains Mono","Consolas","Noto Sans Mono CJK KR",monospace;fill:#202020}
.label{font-size:18px}.small{font-size:14px;fill:#555}.tiny{font-size:13px;fill:#555}
.node{fill:white;stroke:#555;stroke-width:1.8}.nodeHi{fill:#eee;stroke:#202020;stroke-width:2.3}
.edge{fill:none;stroke:#888;stroke-width:1.7}.edgeHi{fill:none;stroke:#202020;stroke-width:3.2}
.cell{fill:white;stroke:#777;stroke-width:1.2}.cellHi{fill:#eee;stroke:#202020;stroke-width:2}
.arrow{fill:none;stroke:#202020;stroke-width:1.7;marker-end:url(#arrow)}
</style><defs><marker id="arrow" markerWidth="9" markerHeight="9" refX="7" refY="3" orient="auto"><path d="M0,0 L0,6 L8,3 z" fill="#202020"/></marker></defs><line x1="410" y1="104" x2="250" y2="138" class="edge"/><line x1="410" y1="104" x2="570" y2="138" class="edgeHi"/><line x1="250" y1="202" x2="170" y2="246" class="edge"/><line x1="250" y1="202" x2="330" y2="246" class="edge"/><line x1="570" y1="202" x2="490" y2="246" class="edgeHi"/><line x1="570" y1="202" x2="650" y2="246" class="edge"/><circle cx="410" cy="72" r="32" class="node"/><text x="410" y="69" text-anchor="middle" class="label">4</text><text x="410" y="90" text-anchor="middle" class="tiny">[1,4]</text><circle cx="250" cy="170" r="32" class="node"/><text x="250" y="167" text-anchor="middle" class="label">2</text><text x="250" y="188" text-anchor="middle" class="tiny">[1,2]</text><circle cx="570" cy="170" r="32" class="nodeHi"/><text x="570" y="167" text-anchor="middle" class="label">2</text><text x="570" y="188" text-anchor="middle" class="tiny">[3,4]</text><circle cx="170" cy="278" r="32" class="node"/><text x="170" y="275" text-anchor="middle" class="label">1</text><text x="170" y="296" text-anchor="middle" class="tiny">1</text><circle cx="330" cy="278" r="32" class="node"/><text x="330" y="275" text-anchor="middle" class="label">1</text><text x="330" y="296" text-anchor="middle" class="tiny">2</text><circle cx="490" cy="278" r="32" class="nodeHi"/><text x="490" y="275" text-anchor="middle" class="label">1</text><text x="490" y="296" text-anchor="middle" class="tiny">3</text><circle cx="650" cy="278" r="32" class="node"/><text x="650" y="275" text-anchor="middle" class="label">1</text><text x="650" y="296" text-anchor="middle" class="tiny">4</text><text x="410" y="342" text-anchor="middle" class="label">k = 1, leftCount = 1</text><text x="410" y="370" text-anchor="middle" class="small">왼쪽으로 이동</text></svg>