<svg xmlns="http://www.w3.org/2000/svg" width="820" height="290" viewBox="0 0 820 290"><rect width="100%" height="100%" fill="white"/><style>
text{font-family:"JetBrains Mono","Consolas","Noto Sans Mono CJK KR",monospace;fill:#202020}
.label{font-size:18px}.small{font-size:14px;fill:#555}.tiny{font-size:13px;fill:#555}
.node{fill:white;stroke:#555;stroke-width:1.8}.nodeHi{fill:#eee;stroke:#202020;stroke-width:2.3}
.edge{fill:none;stroke:#888;stroke-width:1.7}.edgeHi{fill:none;stroke:#202020;stroke-width:3.2}
.cell{fill:white;stroke:#777;stroke-width:1.2}.cellHi{fill:#eee;stroke:#202020;stroke-width:2}
.arrow{fill:none;stroke:#202020;stroke-width:1.7;marker-end:url(#arrow)}
</style><defs><marker id="arrow" markerWidth="9" markerHeight="9" refX="7" refY="3" orient="auto"><path d="M0,0 L0,6 L8,3 z" fill="#202020"/></marker></defs><text x="122" y="63" text-anchor="end" class="label">idx</text><rect x="140" y="36" width="82" height="42" class="cellHi"/><text x="181.0" y="63" text-anchor="middle" class="label">1</text><rect x="222" y="36" width="82" height="42" class="cell"/><text x="263.0" y="63" text-anchor="middle" class="label">2</text><rect x="304" y="36" width="82" height="42" class="cellHi"/><text x="345.0" y="63" text-anchor="middle" class="label">3</text><rect x="386" y="36" width="82" height="42" class="cell"/><text x="427.0" y="63" text-anchor="middle" class="label">4</text><rect x="468" y="36" width="82" height="42" class="cell"/><text x="509.0" y="63" text-anchor="middle" class="label">5</text><rect x="550" y="36" width="82" height="42" class="cellHi"/><text x="591.0" y="63" text-anchor="middle" class="label">6</text><rect x="632" y="36" width="82" height="42" class="cell"/><text x="673.0" y="63" text-anchor="middle" class="label">7</text><text x="122" y="123" text-anchor="end" class="label">arr</text><rect x="140" y="96" width="82" height="42" class="cellHi"/><text x="181.0" y="123" text-anchor="middle" class="label">4</text><rect x="222" y="96" width="82" height="42" class="cell"/><text x="263.0" y="123" text-anchor="middle" class="label">2</text><rect x="304" y="96" width="82" height="42" class="cellHi"/><text x="345.0" y="123" text-anchor="middle" class="label">2</text><rect x="386" y="96" width="82" height="42" class="cell"/><text x="427.0" y="123" text-anchor="middle" class="label">1</text><rect x="468" y="96" width="82" height="42" class="cell"/><text x="509.0" y="123" text-anchor="middle" class="label">1</text><rect x="550" y="96" width="82" height="42" class="cellHi"/><text x="591.0" y="123" text-anchor="middle" class="label">1</text><rect x="632" y="96" width="82" height="42" class="cell"/><text x="673.0" y="123" text-anchor="middle" class="label">1</text><text x="410" y="185" text-anchor="middle" class="label">1 → 3 → 6</text><text x="410" y="230" text-anchor="middle" class="small">i <<= 1, 필요하면 k -= arr[i], i++</text></svg>