<svg xmlns="http://www.w3.org/2000/svg" width="740" height="520" viewBox="0 0 740 520"><rect width="100%" height="100%" fill="white"/>
<style>
text{font-family:"Noto Sans CJK KR","Malgun Gothic",Arial,sans-serif;fill:#202020}
.poly{fill:none;stroke:#333;stroke-width:1.8}
.vec{stroke:#202020;stroke-width:2.4;marker-end:url(#arrow)}
.vec2{stroke:#666;stroke-width:1.8;marker-end:url(#arrow2)}
.node{fill:white;stroke:#333;stroke-width:1.5}
.point{fill:#202020;stroke:#202020;stroke-width:1.5}
.hi{fill:#efefef;stroke:#111;stroke-width:2}
.label{font-size:15px}
.small{font-size:13px;fill:#555}
</style>
<defs>
<marker id="arrow" markerWidth="10" markerHeight="10" refX="8" refY="3" orient="auto">
<path d="M0,0 L0,6 L9,3 z" fill="#202020"/>
</marker>
<marker id="arrow2" markerWidth="10" markerHeight="10" refX="8" refY="3" orient="auto">
<path d="M0,0 L0,6 L9,3 z" fill="#666"/>
</marker>
</defs>
<polygon points="145,360 325,455 570,370 610,180 430,85 230,145" class="poly"/><circle cx="145" cy="360" r="21" class="hi"/><text x="145" y="365" text-anchor="middle" class="label">P0</text><circle cx="325" cy="455" r="21" class="node"/><text x="325" y="460" text-anchor="middle" class="label">P1</text><circle cx="570" cy="370" r="21" class="node"/><text x="570" y="375" text-anchor="middle" class="label">P2</text><circle cx="610" cy="180" r="21" class="node"/><text x="610" y="185" text-anchor="middle" class="label">P3</text><circle cx="430" cy="85" r="21" class="node"/><text x="430" y="90" text-anchor="middle" class="label">P4</text><circle cx="230" cy="145" r="21" class="node"/><text x="230" y="150" text-anchor="middle" class="label">P5</text><line x1="145" y1="360" x2="325" y2="455" class="vec2"/><line x1="145" y1="360" x2="570" y2="370" class="vec2"/><line x1="145" y1="360" x2="610" y2="180" class="vec2"/><line x1="145" y1="360" x2="430" y2="85" class="vec2"/><line x1="145" y1="360" x2="230" y2="145" class="vec2"/><circle cx="390" cy="285" r="6" class="point"/><text x="406" y="275" class="label">P</text><line x1="145" y1="360" x2="390" y2="285" class="vec"/></svg>