<svg xmlns="http://www.w3.org/2000/svg" width="790" height="460" viewBox="0 0 790 460"><rect width="100%" height="100%" fill="white"/><style>
text{font-family:"JetBrains Mono","Consolas","Noto Sans Mono CJK KR",monospace;fill:#202020}
.label{font-size:18px}.small{font-size:14px;fill:#555}.tiny{font-size:13px;fill:#555}
.point{fill:white;stroke:#202020;stroke-width:2}.pointHi{fill:#eee;stroke:#202020;stroke-width:2.6}
.query{fill:white;stroke:#202020;stroke-width:2.5}
.poly{fill:none;stroke:#555;stroke-width:2.2}
.tri{fill:#f7f7f7;stroke:#202020;stroke-width:2}
.ray{fill:none;stroke:#777;stroke-width:1.6;stroke-dasharray:6 5}
.rayHi{fill:none;stroke:#202020;stroke-width:3}
.box{fill:white;stroke:#777;stroke-width:1.2;rx:5}.boxHi{fill:#eee;stroke:#202020;stroke-width:2;rx:5}
.cell{fill:white;stroke:#777;stroke-width:1.2}.cellHi{fill:#eee;stroke:#202020;stroke-width:2}
.arrow{fill:none;stroke:#202020;stroke-width:1.7;marker-end:url(#arrow)}
</style><defs>
<marker id="arrow" markerWidth="9" markerHeight="9" refX="7" refY="3" orient="auto"><path d="M0,0 L0,6 L8,3 z" fill="#202020"/></marker>
</defs><polyline points="140,300 220,135 390,75 585,125 650,265 520,380 300,390 140,300" class="poly"/><circle cx="140" cy="300" r="8" class="pointHi"/><text x="140" y="284" text-anchor="middle" class="label">P0</text><circle cx="220" cy="135" r="8" class="pointHi"/><text x="220" y="119" text-anchor="middle" class="label">P1</text><circle cx="390" cy="75" r="8" class="point"/><text x="390" y="59" text-anchor="middle" class="label">P2</text><circle cx="585" cy="125" r="8" class="pointHi"/><text x="585" y="109" text-anchor="middle" class="label">P3</text><circle cx="650" cy="265" r="8" class="point"/><text x="650" y="249" text-anchor="middle" class="label">P4</text><circle cx="520" cy="380" r="8" class="point"/><text x="520" y="364" text-anchor="middle" class="label">P5</text><circle cx="300" cy="390" r="8" class="pointHi"/><text x="300" y="374" text-anchor="middle" class="label">P6</text><circle cx="425" cy="235" r="8" class="query"/><text x="425" y="219" text-anchor="middle" class="label">P</text><line x1="140" y1="300" x2="220" y2="135" class="ray"/><line x1="140" y1="300" x2="585" y2="125" class="rayHi"/><line x1="140" y1="300" x2="300" y2="390" class="ray"/><rect x="450" y="55" width="230" height="42" class="boxHi"/><text x="565.0" y="82.0" text-anchor="middle" class="label">mid = 3</text><rect x="450" y="107" width="230" height="42" class="box"/><text x="565.0" y="134.0" text-anchor="middle" class="label">left = mid</text></svg>