<svg xmlns="http://www.w3.org/2000/svg" width="860" height="310" viewBox="0 0 860 310"><rect width="100%" height="100%" fill="white"/><style>
text{font-family:"JetBrains Mono","Consolas","Noto Sans Mono CJK KR",monospace;fill:#202020}
.label{font-size:18px}.small{font-size:14px;fill:#555}.tiny{font-size:13px;fill:#555}
.point{fill:white;stroke:#202020;stroke-width:2}.pointHi{fill:#eee;stroke:#202020;stroke-width:2.6}
.query{fill:white;stroke:#202020;stroke-width:2.5}
.poly{fill:none;stroke:#555;stroke-width:2.2}
.tri{fill:#f7f7f7;stroke:#202020;stroke-width:2}
.ray{fill:none;stroke:#777;stroke-width:1.6;stroke-dasharray:6 5}
.rayHi{fill:none;stroke:#202020;stroke-width:3}
.box{fill:white;stroke:#777;stroke-width:1.2;rx:5}.boxHi{fill:#eee;stroke:#202020;stroke-width:2;rx:5}
.cell{fill:white;stroke:#777;stroke-width:1.2}.cellHi{fill:#eee;stroke:#202020;stroke-width:2}
.arrow{fill:none;stroke:#202020;stroke-width:1.7;marker-end:url(#arrow)}
</style><defs>
<marker id="arrow" markerWidth="9" markerHeight="9" refX="7" refY="3" orient="auto"><path d="M0,0 L0,6 L8,3 z" fill="#202020"/></marker>
</defs><text x="127" y="75" text-anchor="end" class="label">step</text><rect x="145" y="48" width="210" height="42" class="cellHi"/><text x="250.0" y="75" text-anchor="middle" class="label">wedge check</text><rect x="355" y="48" width="210" height="42" class="cellHi"/><text x="460.0" y="75" text-anchor="middle" class="label">binary search</text><rect x="565" y="48" width="210" height="42" class="cellHi"/><text x="670.0" y="75" text-anchor="middle" class="label">triangle check</text><text x="127" y="147" text-anchor="end" class="label">ccw</text><rect x="145" y="120" width="210" height="42" class="cell"/><text x="250.0" y="147" text-anchor="middle" class="label">P0P1 / P0Pn</text><rect x="355" y="120" width="210" height="42" class="cell"/><text x="460.0" y="147" text-anchor="middle" class="label">P0Pmid</text><rect x="565" y="120" width="210" height="42" class="cell"/><text x="670.0" y="147" text-anchor="middle" class="label">Pleft Pright</text><text x="127" y="219" text-anchor="end" class="label">result</text><rect x="145" y="192" width="210" height="42" class="cell"/><text x="250.0" y="219" text-anchor="middle" class="label">early false</text><rect x="355" y="192" width="210" height="42" class="cell"/><text x="460.0" y="219" text-anchor="middle" class="label">left/right</text><rect x="565" y="192" width="210" height="42" class="cell"/><text x="670.0" y="219" text-anchor="middle" class="label">inside</text></svg>