<svg xmlns="http://www.w3.org/2000/svg" width="850" height="300" viewBox="0 0 850 300"><rect width="100%" height="100%" fill="white"/><style>
text{font-family:"JetBrains Mono","Consolas","Noto Sans Mono CJK KR",monospace;fill:#202020}
.label{font-size:18px}.small{font-size:14px;fill:#555}.tiny{font-size:13px;fill:#555}
.point{fill:white;stroke:#202020;stroke-width:2}
.line{fill:none;stroke:#777;stroke-width:2.2}
.lineHi{fill:none;stroke:#202020;stroke-width:3.4}
.dash{fill:none;stroke:#999;stroke-width:1.5;stroke-dasharray:6 5}
.box{fill:white;stroke:#777;stroke-width:1.2;rx:5}
.boxHi{fill:#eee;stroke:#202020;stroke-width:2;rx:5}
.cell{fill:white;stroke:#777;stroke-width:1.2}.cellHi{fill:#eee;stroke:#202020;stroke-width:2}
.arrow{fill:none;stroke:#202020;stroke-width:1.7;marker-end:url(#arrow)}
</style><defs>
<marker id="arrow" markerWidth="9" markerHeight="9" refX="7" refY="3" orient="auto">
<path d="M0,0 L0,6 L8,3 z" fill="#202020"/></marker>
</defs><text x="132" y="77" text-anchor="end" class="label">check</text><rect x="150" y="50" width="190" height="42" class="cellHi"/><text x="245.0" y="77" text-anchor="middle" class="label">A 기준</text><rect x="340" y="50" width="190" height="42" class="cellHi"/><text x="435.0" y="77" text-anchor="middle" class="label">B 기준</text><rect x="530" y="50" width="190" height="42" class="cellHi"/><text x="625.0" y="77" text-anchor="middle" class="label">일직선</text><text x="132" y="147" text-anchor="end" class="label">expr</text><rect x="150" y="120" width="190" height="42" class="cell"/><text x="245.0" y="147" text-anchor="middle" class="label">ab1*ab2≤0</text><rect x="340" y="120" width="190" height="42" class="cell"/><text x="435.0" y="147" text-anchor="middle" class="label">cd1*cd2≤0</text><rect x="530" y="120" width="190" height="42" class="cell"/><text x="625.0" y="147" text-anchor="middle" class="label">범위 겹침</text><text x="132" y="217" text-anchor="end" class="label">result</text><rect x="150" y="190" width="190" height="42" class="cell"/><text x="245.0" y="217" text-anchor="middle" class="label">필요</text><rect x="340" y="190" width="190" height="42" class="cell"/><text x="435.0" y="217" text-anchor="middle" class="label">필요</text><rect x="530" y="190" width="190" height="42" class="cell"/><text x="625.0" y="217" text-anchor="middle" class="label">별도 처리</text></svg>