<svg xmlns="http://www.w3.org/2000/svg" width="850" height="390" viewBox="0 0 850 390"><rect width="100%" height="100%" fill="white"/><style>
text{font-family:"JetBrains Mono","Consolas","Noto Sans Mono CJK KR",monospace;fill:#202020}
.label{font-size:18px}.small{font-size:14px;fill:#555}.tiny{font-size:13px;fill:#555}
.node{fill:white;stroke:#555;stroke-width:1.8}.nodeHi{fill:#eee;stroke:#202020;stroke-width:2.3}
.nodeMissing{fill:white;stroke:#aaa;stroke-width:1.6;stroke-dasharray:5 4}
.edge{fill:none;stroke:#888;stroke-width:1.7}.edgeHi{fill:none;stroke:#202020;stroke-width:3}
.edgeMissing{fill:none;stroke:#aaa;stroke-width:1.5;stroke-dasharray:5 4}
.cell{fill:white;stroke:#777;stroke-width:1.2}.cellHi{fill:#eee;stroke:#202020;stroke-width:2}
.box{fill:white;stroke:#777;stroke-width:1.2;rx:5}.boxHi{fill:#eee;stroke:#202020;stroke-width:2;rx:5}
.arrow{fill:none;stroke:#202020;stroke-width:1.7;marker-end:url(#arrow)}
</style><defs><marker id="arrow" markerWidth="9" markerHeight="9" refX="7" refY="3" orient="auto"><path d="M0,0 L0,6 L8,3 z" fill="#202020"/></marker></defs><line x1="420" y1="102" x2="250" y2="143" class="edgeHi"/><line x1="420" y1="102" x2="590" y2="143" class="edgeHi"/><line x1="250" y1="207" x2="170" y2="258" class="edgeMissing"/><line x1="250" y1="207" x2="330" y2="258" class="edgeHi"/><line x1="590" y1="207" x2="510" y2="258" class="edgeMissing"/><line x1="590" y1="207" x2="670" y2="258" class="edge"/><rect x="362" y="39" width="116" height="62" class="node" rx="7"/><text x="420" y="65" text-anchor="middle" class="label">12</text><text x="420" y="88" text-anchor="middle" class="tiny">[0,7]</text><rect x="192" y="144" width="116" height="62" class="node" rx="7"/><text x="250" y="170" text-anchor="middle" class="label">5</text><text x="250" y="193" text-anchor="middle" class="tiny">[0,3]</text><rect x="532" y="144" width="116" height="62" class="nodeHi" rx="7"/><text x="590" y="170" text-anchor="middle" class="label">7</text><text x="590" y="193" text-anchor="middle" class="tiny">[4,7]</text><rect x="112" y="259" width="116" height="62" class="nodeMissing" rx="7"/><text x="170" y="285" text-anchor="middle" class="label"></text><text x="170" y="308" text-anchor="middle" class="tiny">[0,1]</text><rect x="272" y="259" width="116" height="62" class="nodeHi" rx="7"/><text x="330" y="285" text-anchor="middle" class="label">5</text><text x="330" y="308" text-anchor="middle" class="tiny">[2,3]</text><rect x="452" y="259" width="116" height="62" class="nodeMissing" rx="7"/><text x="510" y="285" text-anchor="middle" class="label"></text><text x="510" y="308" text-anchor="middle" class="tiny">[4,5]</text><rect x="612" y="259" width="116" height="62" class="node" rx="7"/><text x="670" y="285" text-anchor="middle" class="label">7</text><text x="670" y="308" text-anchor="middle" class="tiny">[6,7]</text><text x="420" y="355" text-anchor="middle" class="label">query(2, 6) = 5 + 7</text></svg>