<svg xmlns="http://www.w3.org/2000/svg" width="760" height="260" viewBox="0 0 760 260"><rect width="100%" height="100%" fill="white"/><style>
text{font-family:"JetBrains Mono","Consolas","Noto Sans Mono CJK KR",monospace;fill:#202020}
.label{font-size:18px}.small{font-size:14px;fill:#555}.tiny{font-size:13px;fill:#555}
.node{fill:white;stroke:#555;stroke-width:1.8}.nodeHi{fill:#eee;stroke:#202020;stroke-width:2.3}
.nodeMissing{fill:white;stroke:#aaa;stroke-width:1.6;stroke-dasharray:5 4}
.edge{fill:none;stroke:#888;stroke-width:1.7}.edgeHi{fill:none;stroke:#202020;stroke-width:3}
.edgeMissing{fill:none;stroke:#aaa;stroke-width:1.5;stroke-dasharray:5 4}
.cell{fill:white;stroke:#777;stroke-width:1.2}.cellHi{fill:#eee;stroke:#202020;stroke-width:2}
.box{fill:white;stroke:#777;stroke-width:1.2;rx:5}.boxHi{fill:#eee;stroke:#202020;stroke-width:2;rx:5}
.arrow{fill:none;stroke:#202020;stroke-width:1.7;marker-end:url(#arrow)}
</style><defs><marker id="arrow" markerWidth="9" markerHeight="9" refX="7" refY="3" orient="auto"><path d="M0,0 L0,6 L8,3 z" fill="#202020"/></marker></defs><text x="132" y="72" text-anchor="end" class="label">idx</text><rect x="150" y="45" width="102" height="42" class="cellHi"/><text x="201.0" y="72" text-anchor="middle" class="label">0</text><rect x="252" y="45" width="102" height="42" class="cellHi"/><text x="303.0" y="72" text-anchor="middle" class="label">1</text><rect x="354" y="45" width="102" height="42" class="cellHi"/><text x="405.0" y="72" text-anchor="middle" class="label">2</text><rect x="456" y="45" width="102" height="42" class="cell"/><text x="507.0" y="72" text-anchor="middle" class="label">3</text><rect x="558" y="45" width="102" height="42" class="cellHi"/><text x="609.0" y="72" text-anchor="middle" class="label">4</text><text x="132" y="132" text-anchor="end" class="label">l</text><rect x="150" y="105" width="102" height="42" class="cellHi"/><text x="201.0" y="132" text-anchor="middle" class="label">1</text><rect x="252" y="105" width="102" height="42" class="cellHi"/><text x="303.0" y="132" text-anchor="middle" class="label">3</text><rect x="354" y="105" width="102" height="42" class="cellHi"/><text x="405.0" y="132" text-anchor="middle" class="label">5</text><rect x="456" y="105" width="102" height="42" class="cell"/><text x="507.0" y="132" text-anchor="middle" class="label">-1</text><rect x="558" y="105" width="102" height="42" class="cell"/><text x="609.0" y="132" text-anchor="middle" class="label">-1</text><text x="132" y="192" text-anchor="end" class="label">r</text><rect x="150" y="165" width="102" height="42" class="cellHi"/><text x="201.0" y="192" text-anchor="middle" class="label">2</text><rect x="252" y="165" width="102" height="42" class="cellHi"/><text x="303.0" y="192" text-anchor="middle" class="label">4</text><rect x="354" y="165" width="102" height="42" class="cellHi"/><text x="405.0" y="192" text-anchor="middle" class="label">6</text><rect x="456" y="165" width="102" height="42" class="cell"/><text x="507.0" y="192" text-anchor="middle" class="label">-1</text><rect x="558" y="165" width="102" height="42" class="cell"/><text x="609.0" y="192" text-anchor="middle" class="label">-1</text><text x="378" y="238" text-anchor="middle" class="small">없는 자식은 -1</text></svg>