<svg xmlns="http://www.w3.org/2000/svg" width="650" height="360" viewBox="0 0 650 360"><rect width="100%" height="100%" fill="white"/>
<style>
text{font-family:"JetBrains Mono","Consolas","Noto Sans Mono CJK KR",monospace;fill:#202020}
.label{font-size:16px}.small{font-size:13px;fill:#555}
.cell{fill:white;stroke:#777;stroke-width:1.2}
.cellHi{fill:#efefef;stroke:#202020;stroke-width:2}
.cellBad{fill:white;stroke:#bcbcbc;stroke-width:1.2;stroke-dasharray:4 4}
.light{stroke:#aaa;stroke-width:1.2}
</style>
<text x="109.0" y="42" text-anchor="middle" class="small">1</text><rect x="80" y="60" width="58" height="40" class="cell"/><text x="109.0" y="85.0" text-anchor="middle" class="label">1</text><text x="167.0" y="42" text-anchor="middle" class="small">2</text><rect x="138" y="60" width="58" height="40" class="cell"/><text x="167.0" y="85.0" text-anchor="middle" class="label">2</text><text x="225.0" y="42" text-anchor="middle" class="small">3</text><rect x="196" y="60" width="58" height="40" class="cell"/><text x="225.0" y="85.0" text-anchor="middle" class="label">1</text><text x="283.0" y="42" text-anchor="middle" class="small">4</text><rect x="254" y="60" width="58" height="40" class="cell"/><text x="283.0" y="85.0" text-anchor="middle" class="label">3</text><text x="341.0" y="42" text-anchor="middle" class="small">5</text><rect x="312" y="60" width="58" height="40" class="cell"/><text x="341.0" y="85.0" text-anchor="middle" class="label">2</text><text x="399.0" y="42" text-anchor="middle" class="small">6</text><rect x="370" y="60" width="58" height="40" class="cell"/><text x="399.0" y="85.0" text-anchor="middle" class="label">1</text><text x="457.0" y="42" text-anchor="middle" class="small">7</text><rect x="428" y="60" width="58" height="40" class="cell"/><text x="457.0" y="85.0" text-anchor="middle" class="label">4</text><text x="515.0" y="42" text-anchor="middle" class="small">8</text><rect x="486" y="60" width="58" height="40" class="cell"/><text x="515.0" y="85.0" text-anchor="middle" class="label">2</text><text x="62" y="85" text-anchor="end" class="small">a</text><line x1="80" y1="25" x2="80" y2="135" class="light"/><line x1="254" y1="25" x2="254" y2="135" class="light"/><line x1="428" y1="25" x2="428" y2="135" class="light"/><line x1="254" y1="25" x2="254" y2="135" class="light"/><line x1="428" y1="25" x2="428" y2="135" class="light"/><line x1="544" y1="25" x2="544" y2="135" class="light"/><rect x="110" y="170" width="70" height="34" class="cell"/><text x="145.0" y="192.0" text-anchor="middle" class="small">idx</text><rect x="180" y="170" width="70" height="34" class="cell"/><text x="215.0" y="192.0" text-anchor="middle" class="small">L</text><rect x="250" y="170" width="70" height="34" class="cell"/><text x="285.0" y="192.0" text-anchor="middle" class="small">R</text><rect x="110" y="204" width="70" height="34" class="cell"/><text x="145.0" y="226.0" text-anchor="middle" class="label">q0</text><rect x="180" y="204" width="70" height="34" class="cell"/><text x="215.0" y="226.0" text-anchor="middle" class="label">1</text><rect x="250" y="204" width="70" height="34" class="cell"/><text x="285.0" y="226.0" text-anchor="middle" class="label">4</text><rect x="110" y="238" width="70" height="34" class="cell"/><text x="145.0" y="260.0" text-anchor="middle" class="label">q1</text><rect x="180" y="238" width="70" height="34" class="cell"/><text x="215.0" y="260.0" text-anchor="middle" class="label">2</text><rect x="250" y="238" width="70" height="34" class="cell"/><text x="285.0" y="260.0" text-anchor="middle" class="label">6</text><rect x="110" y="272" width="70" height="34" class="cell"/><text x="145.0" y="294.0" text-anchor="middle" class="label">q3</text><rect x="180" y="272" width="70" height="34" class="cell"/><text x="215.0" y="294.0" text-anchor="middle" class="label">3</text><rect x="250" y="272" width="70" height="34" class="cell"/><text x="285.0" y="294.0" text-anchor="middle" class="label">7</text><rect x="110" y="306" width="70" height="34" class="cell"/><text x="145.0" y="328.0" text-anchor="middle" class="label">q2</text><rect x="180" y="306" width="70" height="34" class="cell"/><text x="215.0" y="328.0" text-anchor="middle" class="label">5</text><rect x="250" y="306" width="70" height="34" class="cell"/><text x="285.0" y="328.0" text-anchor="middle" class="label">8</text></svg>