<svg xmlns="http://www.w3.org/2000/svg" width="850" height="330" viewBox="0 0 850 330"><rect width="100%" height="100%" fill="white"/><style>
text{font-family:"JetBrains Mono","Consolas","Noto Sans Mono CJK KR",monospace;fill:#202020}
.label{font-size:18px}.small{font-size:14px;fill:#555}.tiny{font-size:13px;fill:#555}
.cell{fill:white;stroke:#777;stroke-width:1.2}.cellHi{fill:#eee;stroke:#202020;stroke-width:2}.cellCur{fill:#f7f7f7;stroke:#202020;stroke-width:2}
.block{fill:none;stroke:#202020;stroke-width:2.1;stroke-dasharray:6 5}
.range{fill:none;stroke:#202020;stroke-width:2.1;marker-start:url(#arrow);marker-end:url(#arrow)}
.rangeHi{fill:none;stroke:#202020;stroke-width:3;marker-start:url(#arrow);marker-end:url(#arrow)}
.box{fill:white;stroke:#777;stroke-width:1.2;rx:5}.boxHi{fill:#eee;stroke:#202020;stroke-width:2;rx:5}
.arrowLine{fill:none;stroke:#202020;stroke-width:1.7;marker-end:url(#arrow)}
</style><defs><marker id="arrow" markerWidth="9" markerHeight="9" refX="4" refY="3" orient="auto"><path d="M0,3 L8,0 L8,6 z" fill="#202020"/></marker></defs><text x="107" y="67" text-anchor="end" class="label">i</text><rect x="125" y="40" width="72" height="42" class="cell"/><text x="161.0" y="67" text-anchor="middle" class="label">0</text><rect x="197" y="40" width="72" height="42" class="cell"/><text x="233.0" y="67" text-anchor="middle" class="label">1</text><rect x="269" y="40" width="72" height="42" class="cell"/><text x="305.0" y="67" text-anchor="middle" class="label">2</text><rect x="341" y="40" width="72" height="42" class="cell"/><text x="377.0" y="67" text-anchor="middle" class="label">3</text><rect x="413" y="40" width="72" height="42" class="cell"/><text x="449.0" y="67" text-anchor="middle" class="label">4</text><rect x="485" y="40" width="72" height="42" class="cell"/><text x="521.0" y="67" text-anchor="middle" class="label">5</text><rect x="557" y="40" width="72" height="42" class="cell"/><text x="593.0" y="67" text-anchor="middle" class="label">6</text><rect x="629" y="40" width="72" height="42" class="cell"/><text x="665.0" y="67" text-anchor="middle" class="label">7</text><text x="107" y="127" text-anchor="end" class="label">A</text><rect x="125" y="100" width="72" height="42" class="cell"/><text x="161.0" y="127" text-anchor="middle" class="label">1</text><rect x="197" y="100" width="72" height="42" class="cell"/><text x="233.0" y="127" text-anchor="middle" class="label">2</text><rect x="269" y="100" width="72" height="42" class="cell"/><text x="305.0" y="127" text-anchor="middle" class="label">1</text><rect x="341" y="100" width="72" height="42" class="cell"/><text x="377.0" y="127" text-anchor="middle" class="label">2</text><rect x="413" y="100" width="72" height="42" class="cell"/><text x="449.0" y="127" text-anchor="middle" class="label">3</text><rect x="485" y="100" width="72" height="42" class="cell"/><text x="521.0" y="127" text-anchor="middle" class="label">2</text><rect x="557" y="100" width="72" height="42" class="cell"/><text x="593.0" y="127" text-anchor="middle" class="label">3</text><rect x="629" y="100" width="72" height="42" class="cell"/><text x="665.0" y="127" text-anchor="middle" class="label">3</text><rect x="123" y="98" width="148" height="46" class="block"/><rect x="267" y="98" width="148" height="46" class="block"/><rect x="411" y="98" width="148" height="46" class="block"/><rect x="555" y="98" width="148" height="46" class="block"/><text x="107" y="217" text-anchor="end" class="label">bucket</text><rect x="125" y="190" width="72" height="42" class="cellHi"/><text x="161.0" y="217" text-anchor="middle" class="label">0</text><rect x="197" y="190" width="72" height="42" class="cellHi"/><text x="233.0" y="217" text-anchor="middle" class="label">0</text><rect x="269" y="190" width="72" height="42" class="cellHi"/><text x="305.0" y="217" text-anchor="middle" class="label">1</text><rect x="341" y="190" width="72" height="42" class="cellHi"/><text x="377.0" y="217" text-anchor="middle" class="label">1</text><rect x="413" y="190" width="72" height="42" class="cellHi"/><text x="449.0" y="217" text-anchor="middle" class="label">2</text><rect x="485" y="190" width="72" height="42" class="cellHi"/><text x="521.0" y="217" text-anchor="middle" class="label">2</text><rect x="557" y="190" width="72" height="42" class="cellHi"/><text x="593.0" y="217" text-anchor="middle" class="label">3</text><rect x="629" y="190" width="72" height="42" class="cellHi"/><text x="665.0" y="217" text-anchor="middle" class="label">3</text><rect x="275" y="260" width="300" height="42" class="boxHi"/><text x="425.0" y="287.0" text-anchor="middle" class="label">sort by (L / sqrtN, R)</text></svg>