<svg xmlns="http://www.w3.org/2000/svg" width="650" height="355" viewBox="0 0 650 355"><rect width="100%" height="100%" fill="white"/>
<style>
text{font-family:"JetBrains Mono","Consolas","Noto Sans Mono CJK KR",monospace;fill:#202020}
.label{font-size:16px}.small{font-size:13px;fill:#555}
.cell{fill:white;stroke:#777;stroke-width:1.2}
.cellHi{fill:#efefef;stroke:#202020;stroke-width:2}
.cellBad{fill:white;stroke:#bcbcbc;stroke-width:1.2;stroke-dasharray:4 4}
.light{stroke:#aaa;stroke-width:1.2}
</style>
<text x="109.0" y="37" text-anchor="middle" class="small">1</text><rect x="80" y="55" width="58" height="40" class="cellHi"/><text x="109.0" y="80.0" text-anchor="middle" class="label">1</text><text x="167.0" y="37" text-anchor="middle" class="small">2</text><rect x="138" y="55" width="58" height="40" class="cellHi"/><text x="167.0" y="80.0" text-anchor="middle" class="label">2</text><text x="225.0" y="37" text-anchor="middle" class="small">3</text><rect x="196" y="55" width="58" height="40" class="cellHi"/><text x="225.0" y="80.0" text-anchor="middle" class="label">1</text><text x="283.0" y="37" text-anchor="middle" class="small">4</text><rect x="254" y="55" width="58" height="40" class="cellHi"/><text x="283.0" y="80.0" text-anchor="middle" class="label">3</text><text x="341.0" y="37" text-anchor="middle" class="small">5</text><rect x="312" y="55" width="58" height="40" class="cell"/><text x="341.0" y="80.0" text-anchor="middle" class="label">2</text><text x="399.0" y="37" text-anchor="middle" class="small">6</text><rect x="370" y="55" width="58" height="40" class="cell"/><text x="399.0" y="80.0" text-anchor="middle" class="label">1</text><text x="457.0" y="37" text-anchor="middle" class="small">7</text><rect x="428" y="55" width="58" height="40" class="cell"/><text x="457.0" y="80.0" text-anchor="middle" class="label">4</text><text x="515.0" y="37" text-anchor="middle" class="small">8</text><rect x="486" y="55" width="58" height="40" class="cell"/><text x="515.0" y="80.0" text-anchor="middle" class="label">2</text><text x="62" y="80" text-anchor="end" class="small">a</text><text x="109" y="124" text-anchor="middle" class="small">L</text><text x="283" y="124" text-anchor="middle" class="small">R</text><rect x="145" y="165" width="90" height="34" class="cell"/><text x="190.0" y="187.0" text-anchor="middle" class="small">value</text><rect x="235" y="165" width="90" height="34" class="cell"/><text x="280.0" y="187.0" text-anchor="middle" class="small">cnt</text><rect x="145" y="199" width="90" height="34" class="cell"/><text x="190.0" y="221.0" text-anchor="middle" class="label">1</text><rect x="235" y="199" width="90" height="34" class="cell"/><text x="280.0" y="221.0" text-anchor="middle" class="label">2</text><rect x="145" y="233" width="90" height="34" class="cell"/><text x="190.0" y="255.0" text-anchor="middle" class="label">2</text><rect x="235" y="233" width="90" height="34" class="cell"/><text x="280.0" y="255.0" text-anchor="middle" class="label">1</text><rect x="145" y="267" width="90" height="34" class="cell"/><text x="190.0" y="289.0" text-anchor="middle" class="label">3</text><rect x="235" y="267" width="90" height="34" class="cell"/><text x="280.0" y="289.0" text-anchor="middle" class="label">1</text><rect x="145" y="301" width="90" height="34" class="cell"/><text x="190.0" y="323.0" text-anchor="middle" class="label">4</text><rect x="235" y="301" width="90" height="34" class="cell"/><text x="280.0" y="323.0" text-anchor="middle" class="label">0</text><text x="470" y="230" text-anchor="middle" class="label">cur = 1</text></svg>