<svg xmlns="http://www.w3.org/2000/svg" width="840" height="300" viewBox="0 0 840 300"><rect width="100%" height="100%" fill="white"/><style>
text{font-family:"JetBrains Mono","Consolas","Noto Sans Mono CJK KR",monospace;fill:#202020}
.label{font-size:18px}.small{font-size:14px;fill:#555}.tiny{font-size:13px;fill:#555}
.cell{fill:white;stroke:#777;stroke-width:1.2}.cellHi{fill:#eee;stroke:#202020;stroke-width:2}.cellCur{fill:#f7f7f7;stroke:#202020;stroke-width:2}
.block{fill:none;stroke:#202020;stroke-width:2.1;stroke-dasharray:6 5}
.range{fill:none;stroke:#202020;stroke-width:2.1;marker-start:url(#arrow);marker-end:url(#arrow)}
.rangeHi{fill:none;stroke:#202020;stroke-width:3;marker-start:url(#arrow);marker-end:url(#arrow)}
.box{fill:white;stroke:#777;stroke-width:1.2;rx:5}.boxHi{fill:#eee;stroke:#202020;stroke-width:2;rx:5}
.arrowLine{fill:none;stroke:#202020;stroke-width:1.7;marker-end:url(#arrow)}
</style><defs><marker id="arrow" markerWidth="9" markerHeight="9" refX="4" refY="3" orient="auto"><path d="M0,3 L8,0 L8,6 z" fill="#202020"/></marker></defs><text x="197" y="72" text-anchor="end" class="label">value</text><rect x="215" y="45" width="130" height="42" class="cellHi"/><text x="280.0" y="72" text-anchor="middle" class="label">1</text><rect x="345" y="45" width="130" height="42" class="cellHi"/><text x="410.0" y="72" text-anchor="middle" class="label">2</text><rect x="475" y="45" width="130" height="42" class="cellHi"/><text x="540.0" y="72" text-anchor="middle" class="label">3</text><text x="197" y="142" text-anchor="end" class="label">before</text><rect x="215" y="115" width="130" height="42" class="cell"/><text x="280.0" y="142" text-anchor="middle" class="label">1</text><rect x="345" y="115" width="130" height="42" class="cell"/><text x="410.0" y="142" text-anchor="middle" class="label">0</text><rect x="475" y="115" width="130" height="42" class="cell"/><text x="540.0" y="142" text-anchor="middle" class="label">2</text><text x="197" y="212" text-anchor="end" class="label">after add 2</text><rect x="215" y="185" width="130" height="42" class="cell"/><text x="280.0" y="212" text-anchor="middle" class="label">1</text><rect x="345" y="185" width="130" height="42" class="cellHi"/><text x="410.0" y="212" text-anchor="middle" class="label">1</text><rect x="475" y="185" width="130" height="42" class="cell"/><text x="540.0" y="212" text-anchor="middle" class="label">2</text><rect x="300" y="245" width="230" height="42" class="boxHi"/><text x="415.0" y="272.0" text-anchor="middle" class="label">distinct + 1</text></svg>