<svg xmlns="http://www.w3.org/2000/svg" width="780" height="230" viewBox="0 0 780 230"><rect width="100%" height="100%" fill="white"/><style>
text{font-family:"JetBrains Mono","Consolas","Noto Sans Mono CJK KR",monospace;fill:#202020}
.label{font-size:18px}.small{font-size:14px;fill:#555}.tiny{font-size:13px;fill:#555}
.cell{fill:white;stroke:#777;stroke-width:1.2}.cellHi{fill:#eee;stroke:#202020;stroke-width:2}.cellQuery{fill:#f7f7f7;stroke:#202020;stroke-width:2}
.block{fill:none;stroke:#202020;stroke-width:2.2;stroke-dasharray:6 5}
.box{fill:white;stroke:#777;stroke-width:1.2;rx:5}.boxHi{fill:#eee;stroke:#202020;stroke-width:2;rx:5}
.arrow{fill:none;stroke:#202020;stroke-width:1.7;marker-end:url(#arrow)}
.line{fill:none;stroke:#777;stroke-width:1.5}
</style><defs><marker id="arrow" markerWidth="9" markerHeight="9" refX="7" refY="3" orient="auto"><path d="M0,0 L0,6 L8,3 z" fill="#202020"/></marker></defs><text x="112" y="72" text-anchor="end" class="label">i</text><rect x="130" y="45" width="70" height="42" class="cell"/><text x="165.0" y="72" text-anchor="middle" class="label">0</text><rect x="200" y="45" width="70" height="42" class="cell"/><text x="235.0" y="72" text-anchor="middle" class="label">1</text><rect x="270" y="45" width="70" height="42" class="cell"/><text x="305.0" y="72" text-anchor="middle" class="label">2</text><rect x="340" y="45" width="70" height="42" class="cell"/><text x="375.0" y="72" text-anchor="middle" class="label">3</text><rect x="410" y="45" width="70" height="42" class="cell"/><text x="445.0" y="72" text-anchor="middle" class="label">4</text><rect x="480" y="45" width="70" height="42" class="cell"/><text x="515.0" y="72" text-anchor="middle" class="label">5</text><rect x="550" y="45" width="70" height="42" class="cell"/><text x="585.0" y="72" text-anchor="middle" class="label">6</text><rect x="620" y="45" width="70" height="42" class="cell"/><text x="655.0" y="72" text-anchor="middle" class="label">7</text><text x="112" y="132" text-anchor="end" class="label">A</text><rect x="130" y="105" width="70" height="42" class="cell"/><text x="165.0" y="132" text-anchor="middle" class="label">2</text><rect x="200" y="105" width="70" height="42" class="cell"/><text x="235.0" y="132" text-anchor="middle" class="label">1</text><rect x="270" y="105" width="70" height="42" class="cell"/><text x="305.0" y="132" text-anchor="middle" class="label">2</text><rect x="340" y="105" width="70" height="42" class="cell"/><text x="375.0" y="132" text-anchor="middle" class="label">3</text><rect x="410" y="105" width="70" height="42" class="cell"/><text x="445.0" y="132" text-anchor="middle" class="label">2</text><rect x="480" y="105" width="70" height="42" class="cell"/><text x="515.0" y="132" text-anchor="middle" class="label">1</text><rect x="550" y="105" width="70" height="42" class="cell"/><text x="585.0" y="132" text-anchor="middle" class="label">3</text><rect x="620" y="105" width="70" height="42" class="cell"/><text x="655.0" y="132" text-anchor="middle" class="label">3</text><rect x="275" y="170" width="260" height="42" class="boxHi"/><text x="405.0" y="197.0" text-anchor="middle" class="label">N = 8</text></svg>