<svg xmlns="http://www.w3.org/2000/svg" width="760" height="260" viewBox="0 0 760 260"><rect width="100%" height="100%" fill="white"/>
<style>
text{font-family:"JetBrains Mono","Consolas","Noto Sans Mono CJK KR",monospace;fill:#202020}
.label{font-size:16px}.small{font-size:13px;fill:#555}.tiny{font-size:12px;fill:#555}
.cell{fill:white;stroke:#777;stroke-width:1.2}
.cellHi{fill:#efefef;stroke:#202020;stroke-width:2}
.cellBad{fill:white;stroke:#bcbcbc;stroke-width:1.2;stroke-dasharray:4 4}
.thin{stroke:#aaa;stroke-width:1.2}
</style>
<text x="96.0" y="52" text-anchor="middle" class="small">1</text><rect x="70" y="70" width="52" height="38" class="cell"/><text x="96.0" y="94" text-anchor="middle" class="label">4</text><text x="148.0" y="52" text-anchor="middle" class="small">2</text><rect x="122" y="70" width="52" height="38" class="cell"/><text x="148.0" y="94" text-anchor="middle" class="label">3</text><text x="200.0" y="52" text-anchor="middle" class="small">3</text><rect x="174" y="70" width="52" height="38" class="cell"/><text x="200.0" y="94" text-anchor="middle" class="label">8</text><text x="252.0" y="52" text-anchor="middle" class="small">4</text><rect x="226" y="70" width="52" height="38" class="cell"/><text x="252.0" y="94" text-anchor="middle" class="label">2</text><text x="304.0" y="52" text-anchor="middle" class="small">5</text><rect x="278" y="70" width="52" height="38" class="cell"/><text x="304.0" y="94" text-anchor="middle" class="label">5</text><text x="356.0" y="52" text-anchor="middle" class="small">6</text><rect x="330" y="70" width="52" height="38" class="cell"/><text x="356.0" y="94" text-anchor="middle" class="label">7</text><text x="408.0" y="52" text-anchor="middle" class="small">7</text><rect x="382" y="70" width="52" height="38" class="cell"/><text x="408.0" y="94" text-anchor="middle" class="label">1</text><text x="460.0" y="52" text-anchor="middle" class="small">8</text><rect x="434" y="70" width="52" height="38" class="cell"/><text x="460.0" y="94" text-anchor="middle" class="label">9</text><text x="512.0" y="52" text-anchor="middle" class="small">9</text><rect x="486" y="70" width="52" height="38" class="cell"/><text x="512.0" y="94" text-anchor="middle" class="label">4</text><text x="564.0" y="52" text-anchor="middle" class="small">10</text><rect x="538" y="70" width="52" height="38" class="cell"/><text x="564.0" y="94" text-anchor="middle" class="label">6</text><text x="616.0" y="52" text-anchor="middle" class="small">11</text><rect x="590" y="70" width="52" height="38" class="cell"/><text x="616.0" y="94" text-anchor="middle" class="label">2</text><text x="668.0" y="52" text-anchor="middle" class="small">12</text><rect x="642" y="70" width="52" height="38" class="cell"/><text x="668.0" y="94" text-anchor="middle" class="label">10</text><text x="52" y="94" text-anchor="end" class="small">a</text><text x="52" y="174" text-anchor="end" class="small">bucket</text><rect x="70" y="150" width="156" height="38" class="cell"/><text x="148.0" y="174" text-anchor="middle" class="label">8</text><text x="148.0" y="206" text-anchor="middle" class="tiny">b=0</text><rect x="226" y="150" width="208" height="38" class="cell"/><text x="330.0" y="174" text-anchor="middle" class="label">7</text><text x="330.0" y="206" text-anchor="middle" class="tiny">b=1</text><rect x="434" y="150" width="208" height="38" class="cell"/><text x="538.0" y="174" text-anchor="middle" class="label">9</text><text x="538.0" y="206" text-anchor="middle" class="tiny">b=2</text><rect x="642" y="150" width="52" height="38" class="cell"/><text x="668.0" y="174" text-anchor="middle" class="label">10</text><text x="668.0" y="206" text-anchor="middle" class="tiny">b=3</text><line x1="70" y1="70" x2="70" y2="188" class="thin"/><line x1="226" y1="70" x2="226" y2="188" class="thin"/><line x1="226" y1="70" x2="226" y2="188" class="thin"/><line x1="434" y1="70" x2="434" y2="188" class="thin"/><line x1="434" y1="70" x2="434" y2="188" class="thin"/><line x1="642" y1="70" x2="642" y2="188" class="thin"/><line x1="642" y1="70" x2="642" y2="188" class="thin"/><line x1="694" y1="70" x2="694" y2="188" class="thin"/></svg>