<svg xmlns="http://www.w3.org/2000/svg" width="860" height="330" viewBox="0 0 860 330"><rect width="100%" height="100%" fill="white"/><style>
text{font-family:"JetBrains Mono","Consolas","Noto Sans Mono CJK KR",monospace;fill:#202020}
.label{font-size:18px}.small{font-size:14px;fill:#555}.tiny{font-size:13px;fill:#555}
.cell{fill:white;stroke:#777;stroke-width:1.2}.cellHi{fill:#eee;stroke:#202020;stroke-width:2}.cellQuery{fill:#f7f7f7;stroke:#202020;stroke-width:2}
.block{fill:none;stroke:#202020;stroke-width:2.2;stroke-dasharray:6 5}
.box{fill:white;stroke:#777;stroke-width:1.2;rx:5}.boxHi{fill:#eee;stroke:#202020;stroke-width:2;rx:5}
.arrow{fill:none;stroke:#202020;stroke-width:1.7;marker-end:url(#arrow)}
.line{fill:none;stroke:#777;stroke-width:1.5}
</style><defs><marker id="arrow" markerWidth="9" markerHeight="9" refX="7" refY="3" orient="auto"><path d="M0,0 L0,6 L8,3 z" fill="#202020"/></marker></defs><text x="132" y="82" text-anchor="end" class="label">part</text><rect x="150" y="55" width="190" height="42" class="cellHi"/><text x="245.0" y="82" text-anchor="middle" class="label">left tail</text><rect x="340" y="55" width="190" height="42" class="cellHi"/><text x="435.0" y="82" text-anchor="middle" class="label">full blocks</text><rect x="530" y="55" width="190" height="42" class="cellHi"/><text x="625.0" y="82" text-anchor="middle" class="label">right tail</text><text x="132" y="152" text-anchor="end" class="label">candidate</text><rect x="150" y="125" width="190" height="42" class="cell"/><text x="245.0" y="152" text-anchor="middle" class="label">arr[i]</text><rect x="340" y="125" width="190" height="42" class="cell"/><text x="435.0" y="152" text-anchor="middle" class="label">bucket[b]</text><rect x="530" y="125" width="190" height="42" class="cell"/><text x="625.0" y="152" text-anchor="middle" class="label">arr[i]</text><text x="132" y="222" text-anchor="end" class="label">verify</text><rect x="150" y="195" width="190" height="42" class="cell"/><text x="245.0" y="222" text-anchor="middle" class="label">findCnt</text><rect x="340" y="195" width="190" height="42" class="cell"/><text x="435.0" y="222" text-anchor="middle" class="label">findCnt</text><rect x="530" y="195" width="190" height="42" class="cell"/><text x="625.0" y="222" text-anchor="middle" class="label">findCnt</text><rect x="280" y="265" width="300" height="42" class="boxHi"/><text x="430.0" y="292.0" text-anchor="middle" class="label">only candidates are checked</text></svg>