<svg xmlns="http://www.w3.org/2000/svg" width="1000" height="700" viewBox="0 0 1000 700">
<style>
text{font-family:"Noto Sans CJK KR","Malgun Gothic",Arial,sans-serif;fill:#202020}
.title{font-size:24px;font-weight:700}.label{font-size:17px}.small{font-size:14px;fill:#5a5a5a}
.node{fill:white;stroke:#555;stroke-width:1.7}.edge{fill:none;stroke:#9a9a9a;stroke-width:1.8;marker-end:url(#a)}
.sel{fill:none;stroke:#202020;stroke-width:4.2;marker-end:url(#b)}
.rev{fill:none;stroke:#202020;stroke-width:4.2;stroke-dasharray:9 6;marker-end:url(#b)}
.panel{fill:#fcfcfc;stroke:#c7c7c7;stroke-width:1.2;rx:11}
</style>

<defs>
<marker id="a" markerWidth="10" markerHeight="10" refX="8" refY="3" orient="auto"><path d="M0,0 L0,6 L9,3 z" fill="#9a9a9a"/></marker>
<marker id="b" markerWidth="10" markerHeight="10" refX="8" refY="3" orient="auto"><path d="M0,0 L0,6 L9,3 z" fill="#202020"/></marker>
</defs>
<line x1="142.4" y1="330.0" x2="327.6" y2="165.0" class="edge"/><rect x="204" y="213" width="44" height="25" fill="white"/><text x="226" y="232" text-anchor="middle" class="label">0/2</text><line x1="142.4" y1="370.0" x2="327.6" y2="535.0" class="edge"/><rect x="204" y="461" width="44" height="25" fill="white"/><text x="226" y="480" text-anchor="middle" class="label">0/1</text><line x1="379.7" y1="149.0" x2="620.3" y2="181.0" class="edge"/><rect x="478" y="121" width="44" height="25" fill="white"/><text x="500" y="140" text-anchor="middle" class="label">0/2</text><line x1="368.9" y1="531.7" x2="631.1" y2="208.3" class="edge"/><rect x="468" y="331" width="44" height="25" fill="white"/><text x="490" y="350" text-anchor="middle" class="label">0/1</text><line x1="379.7" y1="551.0" x2="620.3" y2="519.0" class="edge"/><rect x="478" y="546" width="44" height="25" fill="white"/><text x="500" y="565" text-anchor="middle" class="label">0/2</text><line x1="675.3" y1="201.1" x2="884.7" y2="333.9" class="edge"/><rect x="763" y="221" width="44" height="25" fill="white"/><text x="785" y="240" text-anchor="middle" class="label">0/2</text><line x1="675.3" y1="498.9" x2="884.7" y2="366.1" class="edge"/><rect x="763" y="461" width="44" height="25" fill="white"/><text x="785" y="480" text-anchor="middle" class="label">0/1</text><circle cx="120" cy="350" r="28" class="node"/><text x="120" y="356" text-anchor="middle" class="label">S</text><circle cx="350" cy="145" r="28" class="node"/><text x="350" y="151" text-anchor="middle" class="label">1</text><circle cx="350" cy="555" r="28" class="node"/><text x="350" y="561" text-anchor="middle" class="label">3</text><circle cx="650" cy="185" r="28" class="node"/><text x="650" y="191" text-anchor="middle" class="label">2</text><circle cx="650" cy="515" r="28" class="node"/><text x="650" y="521" text-anchor="middle" class="label">4</text><circle cx="910" cy="350" r="28" class="node"/><text x="910" y="356" text-anchor="middle" class="label">E</text></svg>