<svg xmlns="http://www.w3.org/2000/svg" width="850" height="310" viewBox="0 0 850 310"><rect width="100%" height="100%" fill="white"/><style>
text{font-family:"JetBrains Mono","Consolas","Noto Sans Mono CJK KR",monospace;fill:#202020}
.label{font-size:18px}.small{font-size:14px;fill:#555}.tiny{font-size:13px;fill:#555}
.node{fill:white;stroke:#202020;stroke-width:2}.nodeHi{fill:#eee;stroke:#202020;stroke-width:2.6}.nodeMute{fill:white;stroke:#aaa;stroke-width:1.6}
.edge{fill:none;stroke:#777;stroke-width:2}.edgeHi{fill:none;stroke:#202020;stroke-width:3.2}.edgeMute{fill:none;stroke:#bbb;stroke-width:1.5;stroke-dasharray:6 5}
.cell{fill:white;stroke:#777;stroke-width:1.2}.cellHi{fill:#eee;stroke:#202020;stroke-width:2}.cellMute{fill:#fafafa;stroke:#bbb;stroke-width:1}
.box{fill:white;stroke:#777;stroke-width:1.2;rx:5}.boxHi{fill:#eee;stroke:#202020;stroke-width:2;rx:5}
.arrow{fill:none;stroke:#202020;stroke-width:1.7;marker-end:url(#arrow)}
.range{fill:none;stroke:#202020;stroke-width:2;marker-start:url(#arrow);marker-end:url(#arrow)}
</style><defs><marker id="arrow" markerWidth="9" markerHeight="9" refX="7" refY="3" orient="auto"><path d="M0,0 L0,6 L8,3 z" fill="#202020"/></marker></defs><line x1="120" y1="130" x2="270" y2="130" class="edgeHi"/><rect x="181.0" y="98" width="28" height="22" fill="white"/><text x="195.0" y="115" text-anchor="middle" class="small">1</text><line x1="270" y1="130" x2="420" y2="130" class="edgeHi"/><rect x="331.0" y="98" width="28" height="22" fill="white"/><text x="345.0" y="115" text-anchor="middle" class="small">2</text><line x1="420" y1="130" x2="570" y2="130" class="edgeHi"/><rect x="481.0" y="98" width="28" height="22" fill="white"/><text x="495.0" y="115" text-anchor="middle" class="small">4</text><line x1="570" y1="130" x2="720" y2="130" class="edgeHi"/><rect x="631.0" y="98" width="28" height="22" fill="white"/><text x="645.0" y="115" text-anchor="middle" class="small">3</text><circle cx="120" cy="130" r="25" class="node"/><text x="120" y="136" text-anchor="middle" class="label">1</text><circle cx="270" cy="130" r="25" class="node"/><text x="270" y="136" text-anchor="middle" class="label">2</text><circle cx="420" cy="130" r="25" class="node"/><text x="420" y="136" text-anchor="middle" class="label">3</text><circle cx="570" cy="130" r="25" class="node"/><text x="570" y="136" text-anchor="middle" class="label">4</text><circle cx="720" cy="130" r="25" class="node"/><text x="720" y="136" text-anchor="middle" class="label">5</text><text x="232" y="242" text-anchor="end" class="label">query</text><rect x="250" y="215" width="160" height="42" class="cellHi"/><text x="330.0" y="242" text-anchor="middle" class="label">1-5</text><rect x="410" y="215" width="160" height="42" class="cellHi"/><text x="490.0" y="242" text-anchor="middle" class="label">2-3</text><rect x="300" y="265" width="250" height="38" class="boxHi"/><text x="425.0" y="290.0" text-anchor="middle" class="label">minimum reachable cost</text></svg>