<svg xmlns="http://www.w3.org/2000/svg" width="860" height="330" viewBox="0 0 860 330"><rect width="100%" height="100%" fill="white"/><style>
text{font-family:"JetBrains Mono","Consolas","Noto Sans Mono CJK KR",monospace;fill:#202020}
.label{font-size:18px}.small{font-size:14px;fill:#555}.tiny{font-size:13px;fill:#555}
.node{fill:white;stroke:#202020;stroke-width:2}.nodeHi{fill:#eee;stroke:#202020;stroke-width:2.6}.nodeMute{fill:white;stroke:#aaa;stroke-width:1.6}
.edge{fill:none;stroke:#777;stroke-width:2}.edgeHi{fill:none;stroke:#202020;stroke-width:3.2}.edgeMute{fill:none;stroke:#bbb;stroke-width:1.5;stroke-dasharray:6 5}
.cell{fill:white;stroke:#777;stroke-width:1.2}.cellHi{fill:#eee;stroke:#202020;stroke-width:2}.cellMute{fill:#fafafa;stroke:#bbb;stroke-width:1}
.box{fill:white;stroke:#777;stroke-width:1.2;rx:5}.boxHi{fill:#eee;stroke:#202020;stroke-width:2;rx:5}
.arrow{fill:none;stroke:#202020;stroke-width:1.7;marker-end:url(#arrow)}
.range{fill:none;stroke:#202020;stroke-width:2;marker-start:url(#arrow);marker-end:url(#arrow)}
</style><defs><marker id="arrow" markerWidth="9" markerHeight="9" refX="7" refY="3" orient="auto"><path d="M0,0 L0,6 L8,3 z" fill="#202020"/></marker></defs><text x="212" y="69" text-anchor="end" class="label">edge idx</text><rect x="230" y="42" width="100" height="42" class="cellHi"/><text x="280.0" y="69" text-anchor="middle" class="label">0</text><rect x="330" y="42" width="100" height="42" class="cellHi"/><text x="380.0" y="69" text-anchor="middle" class="label">1</text><rect x="430" y="42" width="100" height="42" class="cellHi"/><text x="480.0" y="69" text-anchor="middle" class="label">2</text><rect x="530" y="42" width="100" height="42" class="cellHi"/><text x="580.0" y="69" text-anchor="middle" class="label">3</text><text x="212" y="129" text-anchor="end" class="label">cost</text><rect x="230" y="102" width="100" height="42" class="cell"/><text x="280.0" y="129" text-anchor="middle" class="label">1</text><rect x="330" y="102" width="100" height="42" class="cell"/><text x="380.0" y="129" text-anchor="middle" class="label">2</text><rect x="430" y="102" width="100" height="42" class="cell"/><text x="480.0" y="129" text-anchor="middle" class="label">3</text><rect x="530" y="102" width="100" height="42" class="cell"/><text x="580.0" y="129" text-anchor="middle" class="label">4</text><text x="212" y="199" text-anchor="end" class="label">Q1 1-5</text><rect x="230" y="172" width="100" height="42" class="cell"/><text x="280.0" y="199" text-anchor="middle" class="label">L=0</text><rect x="330" y="172" width="100" height="42" class="cell"/><text x="380.0" y="199" text-anchor="middle" class="label"></text><rect x="430" y="172" width="100" height="42" class="cellHi"/><text x="480.0" y="199" text-anchor="middle" class="label">mid=2</text><rect x="530" y="172" width="100" height="42" class="cell"/><text x="580.0" y="199" text-anchor="middle" class="label">R=4</text><text x="212" y="259" text-anchor="end" class="label">Q2 2-3</text><rect x="230" y="232" width="100" height="42" class="cell"/><text x="280.0" y="259" text-anchor="middle" class="label">L=0</text><rect x="330" y="232" width="100" height="42" class="cell"/><text x="380.0" y="259" text-anchor="middle" class="label"></text><rect x="430" y="232" width="100" height="42" class="cellHi"/><text x="480.0" y="259" text-anchor="middle" class="label">mid=2</text><rect x="530" y="232" width="100" height="42" class="cell"/><text x="580.0" y="259" text-anchor="middle" class="label">R=4</text><rect x="590" y="172" width="170" height="42" class="boxHi"/><text x="675.0" y="199.0" text-anchor="middle" class="label">same mid</text></svg>