<svg xmlns="http://www.w3.org/2000/svg" width="640" height="390" viewBox="0 0 640 390"><rect width="100%" height="100%" fill="white"/>
<style>
text{font-family:"JetBrains Mono","Consolas","Noto Sans Mono CJK KR",monospace;fill:#202020}
.label{font-size:16px}.small{font-size:13px;fill:#555}.tiny{font-size:12px;fill:#555}
.node{fill:white;stroke:#202020;stroke-width:1.8}
.nodeHi{fill:#efefef;stroke:#202020;stroke-width:2.4}
.edge{stroke:#aaa;stroke-width:1.6}
.edgeHi{stroke:#202020;stroke-width:3}
.cell{fill:white;stroke:#777;stroke-width:1.2}
.cellHi{fill:#efefef;stroke:#202020;stroke-width:2}
.cellBad{fill:white;stroke:#bcbcbc;stroke-width:1.2;stroke-dasharray:4 4}
</style>
<rect x="170" y="90" width="80" height="34" class="cell"/><text x="210.0" y="112" text-anchor="middle" class="small">idx</text><rect x="250" y="90" width="80" height="34" class="cell"/><text x="290.0" y="112" text-anchor="middle" class="small">l</text><rect x="330" y="90" width="80" height="34" class="cell"/><text x="370.0" y="112" text-anchor="middle" class="small">r</text><rect x="170" y="124" width="80" height="34" class="cell"/><text x="210.0" y="146" text-anchor="middle" class="label">q0</text><rect x="250" y="124" width="80" height="34" class="cell"/><text x="290.0" y="146" text-anchor="middle" class="label">1</text><rect x="330" y="124" width="80" height="34" class="cell"/><text x="370.0" y="146" text-anchor="middle" class="label">7</text><rect x="170" y="158" width="80" height="34" class="cell"/><text x="210.0" y="180" text-anchor="middle" class="label">q1</text><rect x="250" y="158" width="80" height="34" class="cell"/><text x="290.0" y="180" text-anchor="middle" class="label">1</text><rect x="330" y="158" width="80" height="34" class="cell"/><text x="370.0" y="180" text-anchor="middle" class="label">7</text><rect x="170" y="192" width="80" height="34" class="cell"/><text x="210.0" y="214" text-anchor="middle" class="label">q2</text><rect x="250" y="192" width="80" height="34" class="cell"/><text x="290.0" y="214" text-anchor="middle" class="label">1</text><rect x="330" y="192" width="80" height="34" class="cell"/><text x="370.0" y="214" text-anchor="middle" class="label">7</text><rect x="80" y="250" width="75" height="34" class="cell"/><text x="117.5" y="272" text-anchor="middle" class="small">edge</text><rect x="155" y="250" width="55" height="34" class="cell"/><text x="182.5" y="272" text-anchor="middle" class="small">1</text><rect x="210" y="250" width="55" height="34" class="cell"/><text x="237.5" y="272" text-anchor="middle" class="small">2</text><rect x="265" y="250" width="55" height="34" class="cell"/><text x="292.5" y="272" text-anchor="middle" class="small">3</text><rect x="320" y="250" width="55" height="34" class="cell"/><text x="347.5" y="272" text-anchor="middle" class="small">4</text><rect x="375" y="250" width="55" height="34" class="cell"/><text x="402.5" y="272" text-anchor="middle" class="small">5</text><rect x="430" y="250" width="55" height="34" class="cell"/><text x="457.5" y="272" text-anchor="middle" class="small">6</text><rect x="485" y="250" width="95" height="34" class="cell"/><text x="532.5" y="272" text-anchor="middle" class="small">7</text><rect x="80" y="284" width="75" height="34" class="cell"/><text x="117.5" y="306" text-anchor="middle" class="label">state</text><rect x="155" y="284" width="55" height="34" class="cell"/><text x="182.5" y="306" text-anchor="middle" class="label"></text><rect x="210" y="284" width="55" height="34" class="cell"/><text x="237.5" y="306" text-anchor="middle" class="label"></text><rect x="265" y="284" width="55" height="34" class="cell"/><text x="292.5" y="306" text-anchor="middle" class="label"></text><rect x="320" y="284" width="55" height="34" class="cell"/><text x="347.5" y="306" text-anchor="middle" class="label"></text><rect x="375" y="284" width="55" height="34" class="cell"/><text x="402.5" y="306" text-anchor="middle" class="label"></text><rect x="430" y="284" width="55" height="34" class="cell"/><text x="457.5" y="306" text-anchor="middle" class="label"></text><rect x="485" y="284" width="95" height="34" class="cell"/><text x="532.5" y="306" text-anchor="middle" class="label">not found</text></svg>