<svg xmlns="http://www.w3.org/2000/svg" width="860" height="300" viewBox="0 0 860 300"><rect width="100%" height="100%" fill="white"/><style>
text{font-family:"JetBrains Mono","Consolas","Noto Sans Mono CJK KR",monospace;fill:#202020}
.label{font-size:18px}.small{font-size:14px;fill:#555}.tiny{font-size:13px;fill:#555}
.node{fill:white;stroke:#202020;stroke-width:2}.nodeHi{fill:#eee;stroke:#202020;stroke-width:2.6}.nodeMute{fill:white;stroke:#aaa;stroke-width:1.6}
.edge{fill:none;stroke:#777;stroke-width:2}.edgeHi{fill:none;stroke:#202020;stroke-width:3.2}.edgeMute{fill:none;stroke:#bbb;stroke-width:1.5;stroke-dasharray:6 5}
.cell{fill:white;stroke:#777;stroke-width:1.2}.cellHi{fill:#eee;stroke:#202020;stroke-width:2}.cellMute{fill:#fafafa;stroke:#bbb;stroke-width:1}
.box{fill:white;stroke:#777;stroke-width:1.2;rx:5}.boxHi{fill:#eee;stroke:#202020;stroke-width:2;rx:5}
.arrow{fill:none;stroke:#202020;stroke-width:1.7;marker-end:url(#arrow)}
.range{fill:none;stroke:#202020;stroke-width:2;marker-start:url(#arrow);marker-end:url(#arrow)}
</style><defs><marker id="arrow" markerWidth="9" markerHeight="9" refX="7" refY="3" orient="auto"><path d="M0,0 L0,6 L8,3 z" fill="#202020"/></marker></defs><text x="202" y="72" text-anchor="end" class="label">mid</text><rect x="220" y="45" width="115" height="42" class="cell"/><text x="277.5" y="72" text-anchor="middle" class="label">0</text><rect x="335" y="45" width="115" height="42" class="cell"/><text x="392.5" y="72" text-anchor="middle" class="label">1</text><rect x="450" y="45" width="115" height="42" class="cellHi"/><text x="507.5" y="72" text-anchor="middle" class="label">2</text><rect x="565" y="45" width="115" height="42" class="cell"/><text x="622.5" y="72" text-anchor="middle" class="label">3</text><text x="202" y="142" text-anchor="end" class="label">bucket</text><rect x="220" y="115" width="115" height="42" class="cell"/><text x="277.5" y="142" text-anchor="middle" class="label"></text><rect x="335" y="115" width="115" height="42" class="cell"/><text x="392.5" y="142" text-anchor="middle" class="label"></text><rect x="450" y="115" width="115" height="42" class="cellHi"/><text x="507.5" y="142" text-anchor="middle" class="label">Q1,Q2</text><rect x="565" y="115" width="115" height="42" class="cell"/><text x="622.5" y="142" text-anchor="middle" class="label"></text><rect x="250" y="205" width="360" height="44" class="boxHi"/><text x="430.0" y="233.0" text-anchor="middle" class="label">mids[mid].push_back(query_id)</text></svg>