<svg xmlns="http://www.w3.org/2000/svg" width="640" height="390" viewBox="0 0 640 390"><rect width="100%" height="100%" fill="white"/>
<style>
text{font-family:"JetBrains Mono","Consolas","Noto Sans Mono CJK KR",monospace;fill:#202020}
.label{font-size:16px}.small{font-size:13px;fill:#555}.tiny{font-size:12px;fill:#555}
.node{fill:white;stroke:#202020;stroke-width:1.8}
.nodeHi{fill:#efefef;stroke:#202020;stroke-width:2.4}
.edge{stroke:#aaa;stroke-width:1.6}
.edgeHi{stroke:#202020;stroke-width:3}
.cell{fill:white;stroke:#777;stroke-width:1.2}
.cellHi{fill:#efefef;stroke:#202020;stroke-width:2}
.cellBad{fill:white;stroke:#bcbcbc;stroke-width:1.2;stroke-dasharray:4 4}
</style>
<rect x="120" y="70" width="70" height="34" class="cell"/><text x="155.0" y="92" text-anchor="middle" class="small">idx</text><rect x="190" y="70" width="70" height="34" class="cell"/><text x="225.0" y="92" text-anchor="middle" class="small">l</text><rect x="260" y="70" width="70" height="34" class="cell"/><text x="295.0" y="92" text-anchor="middle" class="small">r</text><rect x="330" y="70" width="80" height="34" class="cellHi"/><text x="370.0" y="92" text-anchor="middle" class="small">mid</text><rect x="120" y="104" width="70" height="34" class="cell"/><text x="155.0" y="126" text-anchor="middle" class="label">q0</text><rect x="190" y="104" width="70" height="34" class="cell"/><text x="225.0" y="126" text-anchor="middle" class="label">1</text><rect x="260" y="104" width="70" height="34" class="cell"/><text x="295.0" y="126" text-anchor="middle" class="label">7</text><rect x="330" y="104" width="80" height="34" class="cell"/><text x="370.0" y="126" text-anchor="middle" class="label">4</text><rect x="120" y="138" width="70" height="34" class="cell"/><text x="155.0" y="160" text-anchor="middle" class="label">q1</text><rect x="190" y="138" width="70" height="34" class="cell"/><text x="225.0" y="160" text-anchor="middle" class="label">1</text><rect x="260" y="138" width="70" height="34" class="cell"/><text x="295.0" y="160" text-anchor="middle" class="label">7</text><rect x="330" y="138" width="80" height="34" class="cell"/><text x="370.0" y="160" text-anchor="middle" class="label">4</text><rect x="120" y="172" width="70" height="34" class="cell"/><text x="155.0" y="194" text-anchor="middle" class="label">q2</text><rect x="190" y="172" width="70" height="34" class="cell"/><text x="225.0" y="194" text-anchor="middle" class="label">1</text><rect x="260" y="172" width="70" height="34" class="cell"/><text x="295.0" y="194" text-anchor="middle" class="label">7</text><rect x="330" y="172" width="80" height="34" class="cell"/><text x="370.0" y="194" text-anchor="middle" class="label">4</text><rect x="155" y="245" width="100" height="34" class="cell"/><text x="205.0" y="267" text-anchor="middle" class="small">bucket</text><rect x="255" y="245" width="180" height="34" class="cell"/><text x="345.0" y="267" text-anchor="middle" class="small">queries</text><rect x="155" y="279" width="100" height="34" class="cell"/><text x="205.0" y="301" text-anchor="middle" class="label">mid=4</text><rect x="255" y="279" width="180" height="34" class="cell"/><text x="345.0" y="301" text-anchor="middle" class="label">q0 q1 q2</text></svg>