<svg xmlns="http://www.w3.org/2000/svg" width="640" height="420" viewBox="0 0 640 420"><rect width="100%" height="100%" fill="white"/>
<style>
text{font-family:"JetBrains Mono","Consolas","Noto Sans Mono CJK KR",monospace;fill:#202020}
.label{font-size:16px}.small{font-size:13px;fill:#555}.tiny{font-size:12px;fill:#555}
.node{fill:white;stroke:#202020;stroke-width:1.8}
.nodeHi{fill:#efefef;stroke:#202020;stroke-width:2.4}
.edge{stroke:#aaa;stroke-width:1.6}
.edgeHi{stroke:#202020;stroke-width:3}
.cell{fill:white;stroke:#777;stroke-width:1.2}
.cellHi{fill:#efefef;stroke:#202020;stroke-width:2}
.cellBad{fill:white;stroke:#bcbcbc;stroke-width:1.2;stroke-dasharray:4 4}
</style>
<line x1="120" y1="150" x2="245" y2="75" class="edgeHi"/><text x="182.5" y="104.5" text-anchor="middle" class="tiny">1</text><line x1="245" y1="225" x2="395" y2="75" class="edgeHi"/><text x="320.0" y="142.0" text-anchor="middle" class="tiny">2</text><line x1="245" y1="75" x2="245" y2="225" class="edgeHi"/><text x="245.0" y="142.0" text-anchor="middle" class="tiny">3</text><line x1="395" y1="75" x2="395" y2="225" class="edgeHi"/><text x="395.0" y="142.0" text-anchor="middle" class="tiny">4</text><line x1="395" y1="225" x2="520" y2="150" class="edge"/><text x="457.5" y="179.5" text-anchor="middle" class="tiny">5</text><line x1="245" y1="75" x2="395" y2="75" class="edge"/><text x="320.0" y="67.0" text-anchor="middle" class="tiny">6</text><circle cx="120" cy="150" r="18" class="nodeHi"/><text x="120" y="155" text-anchor="middle" class="label">1</text><circle cx="245" cy="75" r="18" class="nodeHi"/><text x="245" y="80" text-anchor="middle" class="label">2</text><circle cx="245" cy="225" r="18" class="nodeHi"/><text x="245" y="230" text-anchor="middle" class="label">3</text><circle cx="395" cy="75" r="18" class="nodeHi"/><text x="395" y="80" text-anchor="middle" class="label">4</text><circle cx="395" cy="225" r="18" class="nodeHi"/><text x="395" y="230" text-anchor="middle" class="label">5</text><circle cx="520" cy="150" r="18" class="node"/><text x="520" y="155" text-anchor="middle" class="label">6</text><rect x="190" y="295" width="90" height="34" class="cell"/><text x="235.0" y="317" text-anchor="middle" class="small">mid</text><rect x="280" y="295" width="170" height="34" class="cell"/><text x="365.0" y="317" text-anchor="middle" class="small">queries</text><rect x="190" y="329" width="90" height="34" class="cell"/><text x="235.0" y="351" text-anchor="middle" class="label">4</text><rect x="280" y="329" width="170" height="34" class="cell"/><text x="365.0" y="351" text-anchor="middle" class="label">q0 q1 q2</text></svg>