<svg xmlns="http://www.w3.org/2000/svg" width="640" height="310" viewBox="0 0 640 310"><rect width="100%" height="100%" fill="white"/>
<style>
text{font-family:"JetBrains Mono","Consolas","Noto Sans Mono CJK KR",monospace;fill:#202020}
.label{font-size:16px}.small{font-size:13px;fill:#555}.tiny{font-size:12px;fill:#555}
.node{fill:white;stroke:#202020;stroke-width:1.8}
.nodeHi{fill:#efefef;stroke:#202020;stroke-width:2.4}
.edge{stroke:#aaa;stroke-width:1.6}
.edgeHi{stroke:#202020;stroke-width:3}
.cell{fill:white;stroke:#777;stroke-width:1.2}
.cellHi{fill:#efefef;stroke:#202020;stroke-width:2}
.cellBad{fill:white;stroke:#bcbcbc;stroke-width:1.2;stroke-dasharray:4 4}
</style>
<rect x="120" y="90" width="80" height="34" class="cell"/><text x="160.0" y="112" text-anchor="middle" class="small">idx</text><rect x="200" y="90" width="120" height="34" class="cell"/><text x="260.0" y="112" text-anchor="middle" class="small">connected</text><rect x="320" y="90" width="70" height="34" class="cell"/><text x="355.0" y="112" text-anchor="middle" class="small">l</text><rect x="390" y="90" width="70" height="34" class="cell"/><text x="425.0" y="112" text-anchor="middle" class="small">r</text><rect x="120" y="124" width="80" height="34" class="cell"/><text x="160.0" y="146" text-anchor="middle" class="label">q0</text><rect x="200" y="124" width="120" height="34" class="cell"/><text x="260.0" y="146" text-anchor="middle" class="label">yes</text><rect x="320" y="124" width="70" height="34" class="cell"/><text x="355.0" y="146" text-anchor="middle" class="label">1</text><rect x="390" y="124" width="70" height="34" class="cell"/><text x="425.0" y="146" text-anchor="middle" class="label">4</text><rect x="120" y="158" width="80" height="34" class="cell"/><text x="160.0" y="180" text-anchor="middle" class="label">q1</text><rect x="200" y="158" width="120" height="34" class="cell"/><text x="260.0" y="180" text-anchor="middle" class="label">no</text><rect x="320" y="158" width="70" height="34" class="cell"/><text x="355.0" y="180" text-anchor="middle" class="label">5</text><rect x="390" y="158" width="70" height="34" class="cell"/><text x="425.0" y="180" text-anchor="middle" class="label">7</text><rect x="120" y="192" width="80" height="34" class="cell"/><text x="160.0" y="214" text-anchor="middle" class="label">q2</text><rect x="200" y="192" width="120" height="34" class="cell"/><text x="260.0" y="214" text-anchor="middle" class="label">no</text><rect x="320" y="192" width="70" height="34" class="cell"/><text x="355.0" y="214" text-anchor="middle" class="label">5</text><rect x="390" y="192" width="70" height="34" class="cell"/><text x="425.0" y="214" text-anchor="middle" class="label">7</text></svg>