<svg xmlns="http://www.w3.org/2000/svg" width="880" height="330" viewBox="0 0 880 330"><rect width="100%" height="100%" fill="white"/><style>
text{font-family:"JetBrains Mono","Consolas","Noto Sans Mono CJK KR",monospace;fill:#202020}
.label{font-size:18px}.small{font-size:14px;fill:#555}.tiny{font-size:13px;fill:#555}
.node{fill:white;stroke:#202020;stroke-width:2}.nodeHi{fill:#eee;stroke:#202020;stroke-width:2.6}.nodeMute{fill:white;stroke:#aaa;stroke-width:1.6}
.edge{fill:none;stroke:#777;stroke-width:2}.edgeHi{fill:none;stroke:#202020;stroke-width:3.2}.edgeMute{fill:none;stroke:#bbb;stroke-width:1.5;stroke-dasharray:6 5}
.cell{fill:white;stroke:#777;stroke-width:1.2}.cellHi{fill:#eee;stroke:#202020;stroke-width:2}.cellMute{fill:#fafafa;stroke:#bbb;stroke-width:1}
.box{fill:white;stroke:#777;stroke-width:1.2;rx:5}.boxHi{fill:#eee;stroke:#202020;stroke-width:2;rx:5}
.arrow{fill:none;stroke:#202020;stroke-width:1.7;marker-end:url(#arrow)}
.range{fill:none;stroke:#202020;stroke-width:2;marker-start:url(#arrow);marker-end:url(#arrow)}
</style><defs><marker id="arrow" markerWidth="9" markerHeight="9" refX="7" refY="3" orient="auto"><path d="M0,0 L0,6 L8,3 z" fill="#202020"/></marker></defs><text x="172" y="67" text-anchor="end" class="label">query</text><rect x="190" y="40" width="230" height="42" class="cellHi"/><text x="305.0" y="67" text-anchor="middle" class="label">Q1 1-5</text><rect x="420" y="40" width="230" height="42" class="cellHi"/><text x="535.0" y="67" text-anchor="middle" class="label">Q2 2-3</text><text x="172" y="127" text-anchor="end" class="label">range</text><rect x="190" y="100" width="230" height="42" class="cell"/><text x="305.0" y="127" text-anchor="middle" class="label">[3,4]</text><rect x="420" y="100" width="230" height="42" class="cell"/><text x="535.0" y="127" text-anchor="middle" class="label">[0,2]</text><text x="172" y="187" text-anchor="end" class="label">mid</text><rect x="190" y="160" width="230" height="42" class="cellHi"/><text x="305.0" y="187" text-anchor="middle" class="label">3</text><rect x="420" y="160" width="230" height="42" class="cellHi"/><text x="535.0" y="187" text-anchor="middle" class="label">1</text><text x="172" y="247" text-anchor="end" class="label">bucket</text><rect x="190" y="220" width="230" height="42" class="cell"/><text x="305.0" y="247" text-anchor="middle" class="label">mids[3]</text><rect x="420" y="220" width="230" height="42" class="cell"/><text x="535.0" y="247" text-anchor="middle" class="label">mids[1]</text></svg>