<svg xmlns="http://www.w3.org/2000/svg" width="900" height="350" viewBox="0 0 900 350"><rect width="100%" height="100%" fill="white"/><style>
text{font-family:"JetBrains Mono","Consolas","Noto Sans Mono CJK KR",monospace;fill:#202020}
.label{font-size:18px}.small{font-size:14px;fill:#555}.tiny{font-size:13px;fill:#555}
.node{fill:white;stroke:#202020;stroke-width:2}.nodeHi{fill:#eee;stroke:#202020;stroke-width:2.6}.nodeMute{fill:white;stroke:#aaa;stroke-width:1.6}
.edge{fill:none;stroke:#777;stroke-width:2}.edgeHi{fill:none;stroke:#202020;stroke-width:3.2}.edgeMute{fill:none;stroke:#bbb;stroke-width:1.5;stroke-dasharray:6 5}
.cell{fill:white;stroke:#777;stroke-width:1.2}.cellHi{fill:#eee;stroke:#202020;stroke-width:2}.cellMute{fill:#fafafa;stroke:#bbb;stroke-width:1}
.box{fill:white;stroke:#777;stroke-width:1.2;rx:5}.boxHi{fill:#eee;stroke:#202020;stroke-width:2;rx:5}
.arrow{fill:none;stroke:#202020;stroke-width:1.7;marker-end:url(#arrow)}
.range{fill:none;stroke:#202020;stroke-width:2;marker-start:url(#arrow);marker-end:url(#arrow)}
</style><defs><marker id="arrow" markerWidth="9" markerHeight="9" refX="7" refY="3" orient="auto"><path d="M0,0 L0,6 L8,3 z" fill="#202020"/></marker></defs><text x="162" y="67" text-anchor="end" class="label">edge idx</text><rect x="180" y="40" width="120" height="42" class="cellHi"/><text x="240.0" y="67" text-anchor="middle" class="label">0</text><rect x="300" y="40" width="120" height="42" class="cellHi"/><text x="360.0" y="67" text-anchor="middle" class="label">1</text><rect x="420" y="40" width="120" height="42" class="cellHi"/><text x="480.0" y="67" text-anchor="middle" class="label">2</text><rect x="540" y="40" width="120" height="42" class="cellHi"/><text x="600.0" y="67" text-anchor="middle" class="label">3</text><text x="162" y="127" text-anchor="end" class="label">cost</text><rect x="180" y="100" width="120" height="42" class="cell"/><text x="240.0" y="127" text-anchor="middle" class="label">1</text><rect x="300" y="100" width="120" height="42" class="cell"/><text x="360.0" y="127" text-anchor="middle" class="label">2</text><rect x="420" y="100" width="120" height="42" class="cell"/><text x="480.0" y="127" text-anchor="middle" class="label">3</text><rect x="540" y="100" width="120" height="42" class="cell"/><text x="600.0" y="127" text-anchor="middle" class="label">4</text><text x="162" y="187" text-anchor="end" class="label">mids</text><rect x="180" y="160" width="120" height="42" class="cell"/><text x="240.0" y="187" text-anchor="middle" class="label"></text><rect x="300" y="160" width="120" height="42" class="cellHi"/><text x="360.0" y="187" text-anchor="middle" class="label">Q2</text><rect x="420" y="160" width="120" height="42" class="cell"/><text x="480.0" y="187" text-anchor="middle" class="label"></text><rect x="540" y="160" width="120" height="42" class="cellHi"/><text x="600.0" y="187" text-anchor="middle" class="label">Q1</text><rect x="265" y="245" width="360" height="44" class="boxHi"/><text x="445.0" y="273.0" text-anchor="middle" class="label">scan edges once and answer buckets</text></svg>