<svg xmlns="http://www.w3.org/2000/svg" width="880" height="320" viewBox="0 0 880 320"><rect width="100%" height="100%" fill="white"/><style>
text{font-family:"JetBrains Mono","Consolas","Noto Sans Mono CJK KR",monospace;fill:#202020}
.label{font-size:18px}.small{font-size:14px;fill:#555}.tiny{font-size:13px;fill:#555}
.node{fill:white;stroke:#202020;stroke-width:2}.nodeHi{fill:#eee;stroke:#202020;stroke-width:2.6}.nodeMute{fill:white;stroke:#aaa;stroke-width:1.6}
.edge{fill:none;stroke:#777;stroke-width:2}.edgeHi{fill:none;stroke:#202020;stroke-width:3.2}.edgeMute{fill:none;stroke:#bbb;stroke-width:1.5;stroke-dasharray:6 5}
.cell{fill:white;stroke:#777;stroke-width:1.2}.cellHi{fill:#eee;stroke:#202020;stroke-width:2}.cellMute{fill:#fafafa;stroke:#bbb;stroke-width:1}
.box{fill:white;stroke:#777;stroke-width:1.2;rx:5}.boxHi{fill:#eee;stroke:#202020;stroke-width:2;rx:5}
.arrow{fill:none;stroke:#202020;stroke-width:1.7;marker-end:url(#arrow)}
.range{fill:none;stroke:#202020;stroke-width:2;marker-start:url(#arrow);marker-end:url(#arrow)}
</style><defs><marker id="arrow" markerWidth="9" markerHeight="9" refX="7" refY="3" orient="auto"><path d="M0,0 L0,6 L8,3 z" fill="#202020"/></marker></defs><text x="117" y="72" text-anchor="end" class="label">step</text><rect x="135" y="45" width="175" height="42" class="cellHi"/><text x="222.5" y="72" text-anchor="middle" class="label">init range</text><rect x="310" y="45" width="175" height="42" class="cellHi"/><text x="397.5" y="72" text-anchor="middle" class="label">group mid</text><rect x="485" y="45" width="175" height="42" class="cellHi"/><text x="572.5" y="72" text-anchor="middle" class="label">DSU scan</text><rect x="660" y="45" width="175" height="42" class="cellHi"/><text x="747.5" y="72" text-anchor="middle" class="label">update range</text><text x="117" y="147" text-anchor="end" class="label">work</text><rect x="135" y="120" width="175" height="42" class="cell"/><text x="222.5" y="147" text-anchor="middle" class="label">L,R</text><rect x="310" y="120" width="175" height="42" class="cell"/><text x="397.5" y="147" text-anchor="middle" class="label">mids[mid]</text><rect x="485" y="120" width="175" height="42" class="cell"/><text x="572.5" y="147" text-anchor="middle" class="label">edges ≤ mid</text><rect x="660" y="120" width="175" height="42" class="cell"/><text x="747.5" y="147" text-anchor="middle" class="label">YES/NO</text><text x="117" y="222" text-anchor="end" class="label">repeat</text><rect x="135" y="195" width="175" height="42" class="cell"/><text x="222.5" y="222" text-anchor="middle" class="label">until L=R</text><rect x="310" y="195" width="175" height="42" class="cell"/><text x="397.5" y="222" text-anchor="middle" class="label"></text><rect x="485" y="195" width="175" height="42" class="cell"/><text x="572.5" y="222" text-anchor="middle" class="label"></text><rect x="660" y="195" width="175" height="42" class="cell"/><text x="747.5" y="222" text-anchor="middle" class="label"></text><rect x="260" y="260" width="360" height="42" class="boxHi"/><text x="440.0" y="287.0" text-anchor="middle" class="label">Parallel Binary Search</text></svg>