<svg xmlns="http://www.w3.org/2000/svg" width="820" height="500" viewBox="0 0 820 500"><rect width="100%" height="100%" fill="white"/>
<style>
text {
  font-family: "JetBrains Mono", "Consolas", "Noto Sans Mono CJK KR", monospace;
  fill: #202020;
}
.label { font-size: 18px; }
.small { font-size: 14px; fill: #555; }
.node { fill: white; stroke: #555; stroke-width: 1.8; }
.nodeCurrent { fill: #dddddd; stroke: #202020; stroke-width: 2.2; }
.edge { fill: none; stroke: #999; stroke-width: 1.7; marker-end: url(#arrowGray); }
.selected { fill: none; stroke: #202020; stroke-width: 3.8; marker-end: url(#arrow); }
.cell { fill: white; stroke: #777; stroke-width: 1.2; }
.cellHi { fill: #eeeeee; stroke: #202020; stroke-width: 1.8; }
.pathBox { fill: white; stroke: #777; stroke-width: 1.2; rx: 5; }
.pathBoxHi { fill: #eeeeee; stroke: #202020; stroke-width: 1.8; rx: 5; }
</style>

<defs>
  <marker id="arrow" markerWidth="9" markerHeight="9" refX="7" refY="3" orient="auto">
    <path d="M0,0 L0,6 L8,3 z" fill="#202020"/>
  </marker>
  <marker id="arrowGray" markerWidth="9" markerHeight="9" refX="7" refY="3" orient="auto">
    <path d="M0,0 L0,6 L8,3 z" fill="#999"/>
  </marker>
</defs>
<path d="M 172 221 Q 310 125 458 102" class="edge" transform="translate(10,0)"/><rect x="293" y="110" width="38" height="23" fill="white"/><text x="312" y="128" text-anchor="middle" class="label">10</text><path d="M 459 119 Q 305 183 170 246" class="selected" transform="translate(10,0)"/><rect x="295" y="176" width="38" height="23" fill="white"/><text x="314" y="194" text-anchor="middle" class="label">5</text><path d="M 170 251 Q 310 315 459 369" class="selected" transform="translate(10,0)"/><rect x="293" y="304" width="38" height="23" fill="white"/><text x="312" y="322" text-anchor="middle" class="label">15</text><path d="M 458 397 Q 305 351 172 266" class="edge" transform="translate(10,0)"/><rect x="295" y="364" width="38" height="23" fill="white"/><text x="314" y="382" text-anchor="middle" class="label">6</text><path d="M 476 122 Q 442 238 476 354" class="edge" transform="translate(10,0)"/><rect x="433" y="220" width="38" height="23" fill="white"/><text x="452" y="238" text-anchor="middle" class="label">9</text><path d="M 505 354 Q 540 238 505 122" class="selected" transform="translate(10,0)"/><rect x="532" y="220" width="38" height="23" fill="white"/><text x="551" y="238" text-anchor="middle" class="label">13</text><circle cx="155" cy="238" r="28" class="node"/><text x="155" y="244" text-anchor="middle" class="label">0</text><circle cx="500" cy="92" r="28" class="nodeCurrent"/><text x="500" y="98" text-anchor="middle" class="label">1</text><circle cx="500" cy="384" r="28" class="node"/><text x="500" y="390" text-anchor="middle" class="label">2</text><rect x="600" y="118" width="168" height="52" class="pathBoxHi"/><text x="684.0" y="150.0" text-anchor="middle" class="label">visit = 111</text><rect x="600" y="205" width="168" height="52" class="pathBox"/><text x="684.0" y="237.0" text-anchor="middle" class="label">15 + 13 + 5</text><rect x="600" y="292" width="168" height="52" class="pathBoxHi"/><text x="684.0" y="324.0" text-anchor="middle" class="label">cost = 33</text></svg>