<svg xmlns="http://www.w3.org/2000/svg" width="890" height="360" viewBox="0 0 890 360"><rect width="100%" height="100%" fill="white"/>
<style>
text {
  font-family: "JetBrains Mono", "Consolas", "Noto Sans Mono CJK KR", monospace;
  fill: #202020;
}
.label { font-size: 18px; }
.small { font-size: 14px; fill: #555; }
.node { fill: white; stroke: #555; stroke-width: 1.8; }
.nodeCurrent { fill: #dddddd; stroke: #202020; stroke-width: 2.2; }
.edge { fill: none; stroke: #999; stroke-width: 1.7; marker-end: url(#arrowGray); }
.selected { fill: none; stroke: #202020; stroke-width: 3.8; marker-end: url(#arrow); }
.cell { fill: white; stroke: #777; stroke-width: 1.2; }
.cellHi { fill: #eeeeee; stroke: #202020; stroke-width: 1.8; }
.pathBox { fill: white; stroke: #777; stroke-width: 1.2; rx: 5; }
.pathBoxHi { fill: #eeeeee; stroke: #202020; stroke-width: 1.8; rx: 5; }
</style>

<defs>
  <marker id="arrow" markerWidth="9" markerHeight="9" refX="7" refY="3" orient="auto">
    <path d="M0,0 L0,6 L8,3 z" fill="#202020"/>
  </marker>
  <marker id="arrowGray" markerWidth="9" markerHeight="9" refX="7" refY="3" orient="auto">
    <path d="M0,0 L0,6 L8,3 z" fill="#999"/>
  </marker>
</defs>
<rect x="240" y="68" width="136" height="58" class="cell"/><text x="308.0" y="96" text-anchor="middle" class="small">001</text><rect x="376" y="68" width="136" height="58" class="cell"/><text x="444.0" y="96" text-anchor="middle" class="small">011</text><rect x="512" y="68" width="136" height="58" class="cell"/><text x="580.0" y="96" text-anchor="middle" class="small">101</text><rect x="648" y="68" width="136" height="58" class="cell"/><text x="716.0" y="96" text-anchor="middle" class="small">111</text><rect x="104" y="126" width="136" height="58" class="cell"/><text x="172.0" y="154" text-anchor="middle" class="small">cur = 0</text><rect x="240" y="126" width="136" height="58" class="cellHi"/><text x="308.0" y="154" text-anchor="middle" class="label">25</text><rect x="376" y="126" width="136" height="58" class="cell"/><text x="444.0" y="154" text-anchor="middle" class="label">-</text><rect x="512" y="126" width="136" height="58" class="cell"/><text x="580.0" y="154" text-anchor="middle" class="label">-</text><rect x="648" y="126" width="136" height="58" class="cell"/><text x="716.0" y="154" text-anchor="middle" class="label">-</text><rect x="104" y="184" width="136" height="58" class="cell"/><text x="172.0" y="212" text-anchor="middle" class="small">cur = 1</text><rect x="240" y="184" width="136" height="58" class="cell"/><text x="308.0" y="212" text-anchor="middle" class="label">-</text><rect x="376" y="184" width="136" height="58" class="cellHi"/><text x="444.0" y="212" text-anchor="middle" class="label">15</text><rect x="512" y="184" width="136" height="58" class="cell"/><text x="580.0" y="212" text-anchor="middle" class="label">-</text><rect x="648" y="184" width="136" height="58" class="cellHi"/><text x="716.0" y="212" text-anchor="middle" class="label">5</text><rect x="104" y="242" width="136" height="58" class="cell"/><text x="172.0" y="270" text-anchor="middle" class="small">cur = 2</text><rect x="240" y="242" width="136" height="58" class="cell"/><text x="308.0" y="270" text-anchor="middle" class="label">-</text><rect x="376" y="242" width="136" height="58" class="cell"/><text x="444.0" y="270" text-anchor="middle" class="label">-</text><rect x="512" y="242" width="136" height="58" class="cellHi"/><text x="580.0" y="270" text-anchor="middle" class="label">18</text><rect x="648" y="242" width="136" height="58" class="cellHi"/><text x="716.0" y="270" text-anchor="middle" class="label">6</text></svg>