<?xml version="1.0" encoding="UTF-8" standalone="no"?>
<!-- Created with Inkscape (http://www.inkscape.org/) -->

<svg
   version="1.1"
   id="svg1"
   width="406.33334"
   height="251.88"
   viewBox="0 0 406.33334 251.88"
   sodipodi:docname="1.pdf"
   xmlns:inkscape="http://www.inkscape.org/namespaces/inkscape"
   xmlns:sodipodi="http://sodipodi.sourceforge.net/DTD/sodipodi-0.dtd"
   xmlns="http://www.w3.org/2000/svg"
   xmlns:svg="http://www.w3.org/2000/svg">
  <defs
     id="defs1" />
  <sodipodi:namedview
     id="namedview1"
     pagecolor="#ffffff"
     bordercolor="#000000"
     borderopacity="0.25"
     inkscape:showpageshadow="2"
     inkscape:pageopacity="0.0"
     inkscape:pagecheckerboard="0"
     inkscape:deskcolor="#d1d1d1">
    <inkscape:page
       x="0"
       y="0"
       inkscape:label="1"
       id="page1"
       width="406.33334"
       height="251.88"
       margin="0"
       bleed="0" />
  </sodipodi:namedview>
  <g
     id="g1"
     inkscape:groupmode="layer"
     inkscape:label="1">
    <path
       id="path1"
       d="m 16.43286,126.85204 h -32.86572 c -1.10047,0 -1.99256,-0.89209 -1.99256,-1.99256 v -20.10966 c 0,-1.10047 0.89209,-1.99256 1.99256,-1.99256 h 32.86572 c 1.10047,0 1.99256,0.89209 1.99256,1.99256 v 20.10966 c 0,1.10047 -0.89209,1.99256 -1.99256,1.99256 z"
       style="fill:#e0e0e0;fill-opacity:1;fill-rule:nonzero;stroke:#000000;stroke-width:0.89664;stroke-linecap:butt;stroke-linejoin:miter;stroke-miterlimit:10;stroke-dasharray:none;stroke-opacity:1"
       transform="matrix(1.3333333,0,0,-1.3333333,265.96267,180.356)" />
    <path
       id="path2"
       d="M 6.3404766,-7.4185391 V 0.70255469 H 7.0787578 V -7.4185391 Z m -3.7617188,0.703125 v 1.453125 c 0,1.546875 -0.9609375,3.09375 -2.17968749,3.65625 l 0.45703125,0.62109379 C 1.8170391,-1.4654141 2.5904766,-2.4849453 2.9654766,-3.7036953 c 0.375,1.1601562 1.1601562,2.109375 2.0742187,2.5546875 l 0.4453125,-0.5859375 c -1.1953125,-0.5507813 -2.15625,-2.0507813 -2.15625,-3.5273438 v -1.453125 z m 7.1337891,4.6171875 v 0.609375 h 4.5351561 v 2.19140629 h 0.738281 V -2.0982266 Z M 8.8805156,-6.8443203 v 0.609375 h 1.8164064 v 0.3046875 c 0,1.1601562 -0.8203126,2.2148437 -2.0390626,2.6367187 l 0.3984375,0.5742188 c 0.9492191,-0.3398438 1.6757811,-1.0429688 2.0273441,-1.9570313 0.339843,0.8203125 1.03125,1.4882813 1.945312,1.8046875 l 0.375,-0.5859375 c -1.195312,-0.4101562 -1.96875,-1.3945312 -1.96875,-2.4726562 v -0.3046875 h 1.792969 v -0.609375 z m 5.3671874,-0.5742188 v 4.8867188 h 0.738281 v -2.1210938 h 1.195313 v -0.6328125 h -1.195313 v -2.1328125 z m 0,0"
       style="fill:#000000;fill-opacity:1;fill-rule:nonzero;stroke:none"
       aria-label="시작"
       transform="matrix(1.3333333,0,0,1.3333333,254.964,31.754667)" />
    <path
       id="path3"
       d="m -72.99304,79.9382 c 0,6.65366 -5.39372,12.04738 -12.04738,12.04738 -6.65367,0 -12.04739,-5.39372 -12.04739,-12.04738 0,-6.65367 5.39372,-12.04739 12.04739,-12.04739 6.65366,0 12.04738,5.39372 12.04738,12.04739 z"
       style="fill:#e0e0e0;fill-opacity:1;fill-rule:nonzero;stroke:#000000;stroke-width:0.89664;stroke-linecap:butt;stroke-linejoin:miter;stroke-miterlimit:10;stroke-dasharray:none;stroke-opacity:1"
       transform="matrix(1.3333333,0,0,-1.3333333,265.96267,180.356)" />
    <path
       id="path4"
       d="m 2.7303984,-5.7297187 c 0,-0.2226563 -0.011719,-0.234375 -0.234375,-0.234375 -0.5625,0.5625 -1.3828125,0.5625 -1.66406246,0.5625 v 0.28125 c 0.17578126,0 0.71484376,0 1.20703126,-0.234375 v 4.64062495 c 0,0.328125 -0.035156,0.43359375 -0.8671875,0.43359375 H 0.89055469 V 7.5e-4 C 1.2069609,-0.0226875 2.0038359,-0.0226875 2.3788359,-0.0226875 c 0.3632813,0 1.171875,0 1.4882813,0.0234375 V -0.2805 h -0.28125 c -0.8320313,0 -0.8554688,-0.10546875 -0.8554688,-0.43359375 z m 0,0"
       style="fill:#000000;fill-opacity:1;fill-rule:nonzero;stroke:none"
       aria-label="1"
       transform="matrix(1.3333333,0,0,1.3333333,149.504,77.624)" />
    <path
       id="path5"
       d="m -16.29942,79.9382 c 0,6.65366 -5.39373,12.04738 -12.04738,12.04738 -6.65366,0 -12.04738,-5.39372 -12.04738,-12.04738 0,-6.65367 5.39372,-12.04739 12.04738,-12.04739 6.65365,0 12.04738,5.39372 12.04738,12.04739 z"
       style="fill:#fafafa;fill-opacity:1;fill-rule:nonzero;stroke:#cccccc;stroke-width:0.44832;stroke-linecap:butt;stroke-linejoin:miter;stroke-miterlimit:10;stroke-dasharray:none;stroke-opacity:1"
       transform="matrix(1.3333333,0,0,-1.3333333,265.96267,180.356)" />
    <path
       id="path6"
       d="M 4.1360312,-1.5812812 H 3.8899375 C 3.8665,-1.4640937 3.7961875,-0.93675 3.679,-0.796125 3.632125,-0.7140937 3.0110312,-0.7140937 2.83525,-0.7140937 H 1.2415 l 0.8789062,-0.84375 c 1.4765625,-1.2773438 2.015625,-1.7460938 2.015625,-2.6601563 0,-1.03125 -0.84375,-1.7460937 -1.9453125,-1.7460937 -1.03125,0 -1.73437495,0.8085937 -1.73437495,1.6289062 0,0.4453125 0.38671875,0.4921875 0.46875,0.4921875 0.19921875,0 0.46874995,-0.140625 0.46874995,-0.46875 0,-0.2695312 -0.1875,-0.46875 -0.46874995,-0.46875 -0.046875,0 -0.0703125,0 -0.10546875,0.011719 0.2109375,-0.6328125 0.7851562,-0.9257813 1.265625,-0.9257813 0.9140625,0 1.2304687,0.8554688 1.2304687,1.4765625 0,0.9140625 -0.6914062,1.6523438 -1.125,2.1210938 l -1.64062495,1.769531 c -0.09375,0.10546875 -0.09375,0.1171875 -0.09375,0.328125 H 3.8899375 Z m 0,0"
       style="fill:#a6a6a6;fill-opacity:1;fill-rule:nonzero;stroke:none"
       aria-label="2"
       transform="matrix(1.3333333,0,0,1.3333333,225.09467,77.624)" />
    <path
       id="path7"
       d="m 40.39418,79.9382 c 0,6.65366 -5.39372,12.04738 -12.04738,12.04738 -6.65365,0 -12.04738,-5.39372 -12.04738,-12.04738 0,-6.65367 5.39373,-12.04739 12.04738,-12.04739 6.65366,0 12.04738,5.39372 12.04738,12.04739 z"
       style="fill:#fafafa;fill-opacity:1;fill-rule:nonzero;stroke:#cccccc;stroke-width:0.44832;stroke-linecap:butt;stroke-linejoin:miter;stroke-miterlimit:10;stroke-dasharray:none;stroke-opacity:1"
       transform="matrix(1.3333333,0,0,-1.3333333,265.96267,180.356)" />
    <path
       id="path8"
       d="M 2.7310938,-3.1515937 C 3.563125,-3.468 3.9615625,-4.12425 3.9615625,-4.7453437 c 0,-0.6914063 -0.7617187,-1.21875 -1.6875,-1.21875 -0.9375,0 -1.640625,0.5273437 -1.640625,1.2070312 0,0.2929688 0.19921875,0.46875 0.4570313,0.46875 0.2695312,0 0.4570312,-0.1875 0.4570312,-0.4570312 0,-0.3046875 -0.2226562,-0.4453125 -0.5273437,-0.4453125 0.234375,-0.375 0.7851562,-0.5507813 1.21875,-0.5507813 0.75,0 0.890625,0.5859375 0.890625,1.0078125 0,0.2695313 -0.058594,0.703125 -0.28125,1.0429688 -0.2695313,0.3984375 -0.5859375,0.421875 -0.84375,0.4335937 -0.234375,0.023437 -0.2460938,0.023437 -0.3164063,0.023437 -0.082031,0.011719 -0.1523437,0.011719 -0.1523437,0.1171875 0,0.1171875 0.070312,0.1171875 0.2226562,0.1171875 h 0.421875 c 0.7734375,0 1.125,0.6210938 1.125,1.4765625 0,1.1484375 -0.6210937,1.46484375 -1.078125,1.46484375 -0.1640625,0 -1.03125,-0.03515625 -1.44140625,-0.703125 C 1.1139063,-0.71409375 1.36,-0.93675 1.36,-1.2414375 1.36,-1.546125 1.1373438,-1.733625 0.87953125,-1.733625 c -0.22265625,0 -0.4921875,0.140625 -0.4921875,0.515625 0,0.796875 0.83203125,1.41796875 1.87500005,1.41796875 1.1132812,0 1.9570312,-0.80859375 1.9570312,-1.72265625 0,-0.7851562 -0.6210937,-1.4414062 -1.4882812,-1.6289062 z m 0,0"
       style="fill:#a6a6a6;fill-opacity:1;fill-rule:nonzero;stroke:none"
       aria-label="3"
       transform="matrix(1.3333333,0,0,1.3333333,300.68667,77.624)" />
    <path
       id="path9"
       d="m 97.08781,79.9382 c 0,6.65366 -5.39372,12.04738 -12.04739,12.04738 -6.65366,0 -12.04738,-5.39372 -12.04738,-12.04738 0,-6.65367 5.39372,-12.04739 12.04738,-12.04739 6.65367,0 12.04739,5.39372 12.04739,12.04739 z"
       style="fill:#fafafa;fill-opacity:1;fill-rule:nonzero;stroke:#cccccc;stroke-width:0.44832;stroke-linecap:butt;stroke-linejoin:miter;stroke-miterlimit:10;stroke-dasharray:none;stroke-opacity:1"
       transform="matrix(1.3333333,0,0,-1.3333333,265.96267,180.356)" />
    <path
       id="path10"
       d="m 0.25682031,-1.7570625 v 0.28125 H 2.7060391 v 0.7734375 c 0,0.328125 -0.023437,0.421875 -0.703125,0.421875 h -0.1875 V 7.5e-4 c 0.5625,-0.0234375 1.1835937,-0.0234375 1.2539062,-0.0234375 0.035156,0 0.6914063,0 1.2539063,0.0234375 V -0.2805 H 4.1240078 c -0.6679687,0 -0.703125,-0.09375 -0.703125,-0.421875 v -0.7734375 h 0.9140625 v -0.28125 H 3.4208828 v -4.0664062 c 0,-0.1875 0,-0.2460938 -0.1640625,-0.2460938 -0.1054687,0 -0.1171875,0.011719 -0.1992187,0.140625 z m 0.29296875,0 2.21484374,-3.3164062 v 3.3164062 z m 0,0"
       style="fill:#a6a6a6;fill-opacity:1;fill-rule:nonzero;stroke:none"
       aria-label="4"
       transform="matrix(1.3333333,0,0,1.3333333,376.27867,77.624)" />
    <path
       id="path11"
       d="M -18.87373,107.07153 -73.4792,84.67804"
       style="fill:none;stroke:#595959;stroke-width:0.54794;stroke-linecap:butt;stroke-linejoin:miter;stroke-miterlimit:10;stroke-dasharray:none;stroke-opacity:1"
       transform="matrix(1.3333333,0,0,-1.3333333,265.96267,180.356)" />
    <path
       id="path12"
       d="M -10.15866,102.30894 -20.60594,89.45943"
       style="fill:none;stroke:#c2c2c2;stroke-width:0.44832;stroke-linecap:butt;stroke-linejoin:miter;stroke-miterlimit:10;stroke-dasharray:none;stroke-opacity:1"
       transform="matrix(1.3333333,0,0,-1.3333333,265.96267,180.356)" />
    <path
       id="path13"
       d="M 10.15866,102.30894 20.60594,89.45943"
       style="fill:none;stroke:#c2c2c2;stroke-width:0.44832;stroke-linecap:butt;stroke-linejoin:miter;stroke-miterlimit:10;stroke-dasharray:none;stroke-opacity:1"
       transform="matrix(1.3333333,0,0,-1.3333333,265.96267,180.356)" />
    <path
       id="path14"
       d="M 18.87373,107.06721 73.6866,84.59302"
       style="fill:none;stroke:#c2c2c2;stroke-width:0.44832;stroke-linecap:butt;stroke-linejoin:miter;stroke-miterlimit:10;stroke-dasharray:none;stroke-opacity:1"
       transform="matrix(1.3333333,0,0,-1.3333333,265.96267,180.356)" />
    <path
       id="path15"
       d="m -104.1747,43.08727 c 0,6.65365 -5.39372,12.04737 -12.04738,12.04737 -6.65367,0 -12.04739,-5.39372 -12.04739,-12.04737 0,-6.65367 5.39372,-12.0474 12.04739,-12.0474 6.65366,0 12.04738,5.39373 12.04738,12.0474 z"
       style="fill:#e0e0e0;fill-opacity:1;fill-rule:nonzero;stroke:#000000;stroke-width:0.89664;stroke-linecap:butt;stroke-linejoin:miter;stroke-miterlimit:10;stroke-dasharray:none;stroke-opacity:1"
       transform="matrix(1.3333333,0,0,-1.3333333,265.96267,180.356)" />
    <path
       id="path16"
       d="M 4.1379844,-1.5826719 H 3.8918906 c -0.023437,0.1171875 -0.09375,0.64453128 -0.2109375,0.78515628 -0.046875,0.0820313 -0.6679687,0.0820313 -0.84375,0.0820313 h -1.59375 L 2.1223594,-1.5592344 c 1.4765625,-1.2773437 2.015625,-1.7460937 2.015625,-2.6601562 0,-1.03125 -0.84375,-1.7460938 -1.9453125,-1.7460938 -1.03125,0 -1.73437503,0.8085938 -1.73437503,1.6289063 0,0.4453125 0.38671875,0.4921875 0.46875,0.4921875 0.19921873,0 0.46875003,-0.140625 0.46875003,-0.46875 0,-0.2695313 -0.1875,-0.46875 -0.46875003,-0.46875 -0.046875,0 -0.0703125,0 -0.10546875,0.011719 0.21093748,-0.6328125 0.78515628,-0.9257812 1.26562498,-0.9257812 0.9140625,0 1.2304688,0.8554687 1.2304688,1.4765625 0,0.9140625 -0.6914063,1.6523437 -1.125,2.1210937 l -1.64062503,1.76953128 c -0.09375,0.10546875 -0.09375,0.1171875 -0.09375,0.328124995 H 3.8918906 Z m 0,0"
       style="fill:#000000;fill-opacity:1;fill-rule:nonzero;stroke:none"
       aria-label="2"
       transform="matrix(1.3333333,0,0,1.3333333,107.928,126.75867)" />
    <path
       id="path17"
       d="m -72.99304,43.08727 c 0,6.65365 -5.39372,12.04737 -12.04738,12.04737 -6.65367,0 -12.04739,-5.39372 -12.04739,-12.04737 0,-6.65367 5.39372,-12.0474 12.04739,-12.0474 6.65366,0 12.04738,5.39373 12.04738,12.0474 z"
       style="fill:#fafafa;fill-opacity:1;fill-rule:nonzero;stroke:#cccccc;stroke-width:0.44832;stroke-linecap:butt;stroke-linejoin:miter;stroke-miterlimit:10;stroke-dasharray:none;stroke-opacity:1"
       transform="matrix(1.3333333,0,0,-1.3333333,265.96267,180.356)" />
    <path
       id="path18"
       d="m 2.7303984,-3.1529844 c 0.8320313,-0.3164062 1.2304688,-0.9726562 1.2304688,-1.59375 0,-0.6914062 -0.7617188,-1.21875 -1.6875,-1.21875 -0.9375,0 -1.64062501,0.5273438 -1.64062501,1.2070313 0,0.2929687 0.19921875,0.46875 0.45703121,0.46875 0.2695313,0 0.4570313,-0.1875 0.4570313,-0.4570313 0,-0.3046875 -0.2226563,-0.4453125 -0.5273438,-0.4453125 0.234375,-0.375 0.7851563,-0.5507812 1.21875,-0.5507812 0.75,0 0.890625,0.5859375 0.890625,1.0078125 0,0.2695312 -0.058594,0.703125 -0.28125,1.0429687 -0.2695312,0.3984375 -0.5859375,0.421875 -0.84375,0.4335938 -0.234375,0.023437 -0.2460937,0.023437 -0.3164062,0.023437 -0.082031,0.011719 -0.1523438,0.011719 -0.1523438,0.1171875 0,0.1171875 0.070312,0.1171875 0.2226563,0.1171875 h 0.421875 c 0.7734375,0 1.125,0.6210937 1.125,1.4765625 0,1.14843748 -0.6210938,1.46484373 -1.078125,1.46484373 -0.1640625,0 -1.03125,-0.03515625 -1.44140626,-0.703125 0.32812496,0.046875 0.57421876,-0.17578125 0.57421876,-0.48046873 0,-0.3046875 -0.2226563,-0.4921875 -0.48046876,-0.4921875 -0.22265625,0 -0.4921875,0.140625 -0.4921875,0.515625 0,0.79687498 0.83203126,1.41796873 1.87499996,1.41796873 1.1132813,0 1.9570313,-0.80859375 1.9570313,-1.72265623 0,-0.7851563 -0.6210938,-1.4414063 -1.4882813,-1.6289058 z m 0,0"
       style="fill:#a6a6a6;fill-opacity:1;fill-rule:nonzero;stroke:none"
       aria-label="3"
       transform="matrix(1.3333333,0,0,1.3333333,149.504,126.75867)" />
    <path
       id="path19"
       d="m -41.81136,43.08727 c 0,6.65365 -5.39372,12.04737 -12.04739,12.04737 -6.65365,0 -12.04738,-5.39372 -12.04738,-12.04737 0,-6.65367 5.39373,-12.0474 12.04738,-12.0474 6.65367,0 12.04739,5.39373 12.04739,12.0474 z"
       style="fill:#fafafa;fill-opacity:1;fill-rule:nonzero;stroke:#cccccc;stroke-width:0.44832;stroke-linecap:butt;stroke-linejoin:miter;stroke-miterlimit:10;stroke-dasharray:none;stroke-opacity:1"
       transform="matrix(1.3333333,0,0,-1.3333333,265.96267,180.356)" />
    <path
       id="path20"
       d="m 0.25740625,-1.7584531 v 0.28125 H 2.706625 v 0.77343748 c 0,0.328125 -0.023437,0.421875 -0.703125,0.421875 H 1.816 V -6.40625e-4 C 2.3785,-0.02407812 2.9995938,-0.02407812 3.0699063,-0.02407812 c 0.035156,0 0.6914062,0 1.2539062,0.023437495 V -0.28189062 H 4.1245938 c -0.6679688,0 -0.703125,-0.09375 -0.703125,-0.421875 V -1.4772031 h 0.9140625 v -0.28125 H 3.4214688 v -4.0664063 c 0,-0.1875 0,-0.2460937 -0.1640625,-0.2460937 -0.1054688,0 -0.1171875,0.011719 -0.1992188,0.140625 z m 0.29296875,0 2.2148438,-3.3164063 v 3.3164063 z m 0,0"
       style="fill:#a6a6a6;fill-opacity:1;fill-rule:nonzero;stroke:none"
       aria-label="4"
       transform="matrix(1.3333333,0,0,1.3333333,191.07867,126.75867)" />
    <path
       id="path21"
       d="M -93.11143,70.39978 -108.15086,52.62569"
       style="fill:none;stroke:#595959;stroke-width:0.54794;stroke-linecap:butt;stroke-linejoin:miter;stroke-miterlimit:10;stroke-dasharray:none;stroke-opacity:1"
       transform="matrix(1.3333333,0,0,-1.3333333,265.96267,180.356)" />
    <path
       id="path22"
       d="M -85.04042,67.44249 V 55.3588"
       style="fill:none;stroke:#c2c2c2;stroke-width:0.44832;stroke-linecap:butt;stroke-linejoin:miter;stroke-miterlimit:10;stroke-dasharray:none;stroke-opacity:1"
       transform="matrix(1.3333333,0,0,-1.3333333,265.96267,180.356)" />
    <path
       id="path23"
       d="M -76.9694,70.39978 -61.78517,52.45457"
       style="fill:none;stroke:#c2c2c2;stroke-width:0.44832;stroke-linecap:butt;stroke-linejoin:miter;stroke-miterlimit:10;stroke-dasharray:none;stroke-opacity:1"
       transform="matrix(1.3333333,0,0,-1.3333333,265.96267,180.356)" />
    <path
       id="path24"
       d="m -118.91472,5.66927 c 0,6.65365 -5.39372,12.04737 -12.04738,12.04737 -6.65367,0 -12.04739,-5.39372 -12.04739,-12.04737 0,-6.65365 5.39372,-12.04737 12.04739,-12.04737 6.65366,0 12.04738,5.39372 12.04738,12.04737 z"
       style="fill:#e0e0e0;fill-opacity:1;fill-rule:nonzero;stroke:#000000;stroke-width:0.89664;stroke-linecap:butt;stroke-linejoin:miter;stroke-miterlimit:10;stroke-dasharray:none;stroke-opacity:1"
       transform="matrix(1.3333333,0,0,-1.3333333,265.96267,180.356)" />
    <path
       id="path25"
       d="m 2.7295469,-3.1530156 c 0.8320312,-0.3164063 1.2304687,-0.9726563 1.2304687,-1.59375 0,-0.6914063 -0.7617187,-1.21875 -1.6875,-1.21875 -0.9375,0 -1.64062498,0.5273437 -1.64062498,1.2070312 0,0.2929688 0.19921875,0.46875 0.45703128,0.46875 0.2695312,0 0.4570312,-0.1875 0.4570312,-0.4570312 0,-0.3046875 -0.2226562,-0.4453125 -0.5273437,-0.4453125 0.234375,-0.375 0.7851562,-0.5507813 1.21875,-0.5507813 0.75,0 0.890625,0.5859375 0.890625,1.0078125 0,0.2695313 -0.058594,0.703125 -0.28125,1.0429688 -0.2695313,0.3984375 -0.5859375,0.421875 -0.84375,0.4335937 -0.234375,0.023437 -0.2460938,0.023437 -0.3164063,0.023437 -0.082031,0.011719 -0.1523437,0.011719 -0.1523437,0.1171875 0,0.1171875 0.070312,0.1171875 0.2226562,0.1171875 h 0.421875 c 0.7734375,0 1.125,0.6210938 1.125,1.4765625 0,1.14843752 -0.6210937,1.46484377 -1.078125,1.46484377 -0.1640625,0 -1.03125,-0.03515625 -1.44140623,-0.703125 0.32812503,0.046875 0.57421873,-0.17578125 0.57421873,-0.48046877 0,-0.3046875 -0.2226562,-0.4921875 -0.48046873,-0.4921875 -0.22265625,0 -0.4921875,0.140625 -0.4921875,0.515625 0,0.79687502 0.83203123,1.41796877 1.87500003,1.41796877 1.1132812,0 1.9570312,-0.80859375 1.9570312,-1.72265627 0,-0.7851562 -0.6210937,-1.4414062 -1.4882812,-1.6289057 z m 0,0"
       style="fill:#000000;fill-opacity:1;fill-rule:nonzero;stroke:none"
       aria-label="3"
       transform="matrix(1.3333333,0,0,1.3333333,88.274667,176.64933)" />
    <path
       id="path26"
       d="m -89.43423,5.66927 c 0,6.65365 -5.39373,12.04737 -12.04738,12.04737 -6.65367,0 -12.04739,-5.39372 -12.04739,-12.04737 0,-6.65365 5.39372,-12.04737 12.04739,-12.04737 6.65365,0 12.04738,5.39372 12.04738,12.04737 z"
       style="fill:#ffffff;fill-opacity:1;fill-rule:nonzero;stroke:#666666;stroke-width:0.44832;stroke-linecap:butt;stroke-linejoin:miter;stroke-miterlimit:10;stroke-dasharray:none;stroke-opacity:1"
       transform="matrix(1.3333333,0,0,-1.3333333,265.96267,180.356)" />
    <path
       id="path27"
       d="m 0.25733594,-1.7584844 v 0.28125 H 2.7065547 v 0.77343752 c 0,0.328125 -0.023437,0.421875 -0.703125,0.421875 h -0.1875 v 0.281250005 c 0.5625,-0.023437505 1.1835937,-0.023437505 1.2539062,-0.023437505 0.035156,0 0.6914063,0 1.2539063,0.023437505 V -0.28192188 H 4.1245234 c -0.6679687,0 -0.703125,-0.09375 -0.703125,-0.421875 V -1.4772344 h 0.9140625 v -0.28125 H 3.4213984 v -4.0664062 c 0,-0.1875 0,-0.2460938 -0.1640625,-0.2460938 -0.1054687,0 -0.1171875,0.011719 -0.1992187,0.140625 z m 0.29296875,0 2.21484371,-3.3164062 v 3.3164062 z m 0,0"
       style="fill:#000000;fill-opacity:1;fill-rule:nonzero;stroke:none"
       aria-label="4"
       transform="matrix(1.3333333,0,0,1.3333333,127.58267,176.64933)" />
    <path
       id="path28"
       d="m -120.80157,31.46178 -5.58104,-14.16703"
       style="fill:none;stroke:#595959;stroke-width:0.54794;stroke-linecap:butt;stroke-linejoin:miter;stroke-miterlimit:10;stroke-dasharray:none;stroke-opacity:1"
       transform="matrix(1.3333333,0,0,-1.3333333,265.96267,180.356)" />
    <path
       id="path29"
       d="m -111.6424,31.46178 5.66344,-14.37558"
       style="fill:none;stroke:#595959;stroke-width:0.54794;stroke-linecap:butt;stroke-linejoin:miter;stroke-miterlimit:10;stroke-dasharray:none;stroke-opacity:1"
       transform="matrix(1.3333333,0,0,-1.3333333,265.96267,180.356)" />
    <path
       id="path30"
       d="m 3.6211797,-0.23583594 c 0,-0.22265625 -0.1875,-0.22265625 -0.3046875,-0.22265625 h -0.28125 V -3.9623984 c 0,-0.234375 -0.070312,-0.3046875 -0.3046875,-0.3046875 h -0.515625 c -0.1054688,0 -0.2929688,0 -0.2929688,0.234375 0,0.234375 0.1875,0.234375 0.2929688,0.234375 h 0.2929687 v 1.0429687 c -0.328125,-0.2460937 -0.6210937,-0.28125 -0.8085937,-0.28125 -0.77343751,0 -1.46484376,0.65625 -1.46484376,1.5351563 0,0.85546871 0.6328125,1.53515621 1.40624996,1.53515621 0.3632813,0 0.65625,-0.1640625 0.8671875,-0.36328125 0,0.19921875 0,0.328125 0.2929688,0.328125 h 0.515625 c 0.1171875,0 0.3046875,0 0.3046875,-0.234375 z M 2.5078984,-1.3725547 c 0,0.39843751 -0.328125,0.94921876 -0.84375,0.94921876 -0.46875,0 -0.90234371,-0.46875 -0.90234371,-1.07812496 0,-0.6210938 0.46875001,-1.078125 0.97265621,-1.078125 0.4101563,0 0.7734375,0.3515625 0.7734375,0.7382812 z m 4.4765625,0.62109376 c 0,-0.15234375 -0.1171875,-0.22265625 -0.2695312,-0.22265625 -0.1171875,0 -0.1875,0.0117188 -0.2578125,0.1640625 -0.140625,0.31640625 -0.4804688,0.38671875 -0.703125,0.38671875 -0.515625,0 -1.0195313,-0.33984375 -1.125,-0.89062496 h 2.0507812 c 0.1289063,0 0.3046875,0 0.3046875,-0.2578125 0,-0.84375 -0.4804687,-1.4882813 -1.3828125,-1.4882813 -0.8554687,0 -1.5234375,0.6914063 -1.5234375,1.546875 0,0.83203126 0.6914063,1.54687501 1.640625,1.54687501 0.9492188,0 1.265625,-0.609375 1.265625,-0.78515625 z M 6.4336797,-1.7709922 H 4.6289922 c 0.1054687,-0.4804687 0.515625,-0.8320312 0.9726562,-0.8320312 0.6328125,0 0.796875,0.4921875 0.8320313,0.8320312 z m 4.4296873,0.2578125 c 0,-0.84375 -0.621094,-1.5234375 -1.3945311,-1.5234375 -0.328125,0 -0.6210937,0.1171875 -0.8671875,0.3046875 0,-0.2695312 -0.1523437,-0.2695312 -0.3046875,-0.2695312 h -0.515625 c -0.1054687,0 -0.2929687,0 -0.2929687,0.2226562 0,0.234375 0.1875,0.234375 0.2929687,0.234375 H 8.0743047 V 1.0883828 H 7.7813359 c -0.1054687,0 -0.2929687,0 -0.2929687,0.2226563 0,0.234375 0.1875,0.234375 0.2929687,0.234375 h 1.1015625 c 0.1171875,0 0.3046875,0 0.3046875,-0.234375 0,-0.2226563 -0.1875,-0.2226563 -0.3046875,-0.2226563 h -0.28125 v -1.38281249 c 0.2109375,0.2109375 0.4804688,0.328125 0.796875,0.328125 0.7734376,0 1.4648436,-0.65625 1.4648436,-1.54687501 z m -0.527344,0 c 0,0.64453126 -0.4804683,1.08984376 -0.9609371,1.08984376 -0.515625,0 -0.7734375,-0.58593746 -0.7734375,-0.92578126 v -0.4804687 c 0,-0.4101563 0.4101563,-0.75 0.8320313,-0.75 0.4921875,0 0.9023433,0.46875 0.9023433,1.0664062 z m 3.9375,0.60937501 c 0,-0.24609371 -0.199218,-0.24609371 -0.257812,-0.24609371 -0.1875,0 -0.257813,0.070312 -0.269531,0.24609371 -0.01172,0.29296875 -0.269532,0.48046875 -0.527344,0.48046875 -0.515625,0 -0.515625,-0.38671875 -0.515625,-0.55078125 V -2.5444297 h 1.113281 c 0.105469,0 0.292969,0 0.292969,-0.234375 0,-0.2226562 -0.1875,-0.2226562 -0.292969,-0.2226562 h -1.113281 v -0.5625 c 0,-0.1289063 0,-0.3046875 -0.269531,-0.3046875 -0.269532,0 -0.269532,0.1757812 -0.269532,0.3046875 v 0.5625 H 11.58993 c -0.105469,0 -0.304688,0 -0.304688,0.2226562 0,0.234375 0.199219,0.234375 0.292969,0.234375 h 0.585937 v 1.58203126 c 0,0.76171875 0.539063,0.99609375 1.019532,0.99609375 0.632812,0 1.089843,-0.4453125 1.089843,-0.9375 z m 4.160157,0.66796875 c 0,-0.22265625 -0.1875,-0.22265625 -0.304688,-0.22265625 h -0.28125 V -2.0288047 c 0,-0.703125 -0.351562,-1.0078125 -0.925781,-1.0078125 -0.515625,0 -0.84375,0.2695313 -0.914063,0.3398438 v -1.265625 c 0,-0.234375 -0.07031,-0.3046875 -0.304687,-0.3046875 h -0.515625 c -0.105469,0 -0.292969,0 -0.292969,0.234375 0,0.234375 0.1875,0.234375 0.292969,0.234375 h 0.292969 v 3.33984371 h -0.292969 c -0.105469,0 -0.292969,0 -0.292969,0.22265625 0,0.234375 0.1875,0.234375 0.292969,0.234375 h 1.101562 c 0.117188,0 0.304688,0 0.304688,-0.234375 0,-0.22265625 -0.1875,-0.22265625 -0.304688,-0.22265625 h -0.28125 V -1.6655234 c 0,-0.6679688 0.539063,-0.9140625 0.878907,-0.9140625 0.328125,0 0.433593,0.1523437 0.433593,0.5625 v 1.55859371 h -0.234375 c -0.105468,0 -0.304687,0 -0.304687,0.22265625 0,0.234375 0.199219,0.234375 0.304687,0.234375 h 1.042969 c 0.117188,0 0.304688,0 0.304688,-0.234375 z m 3.515625,-2.42578126 c 0,-0.2695312 -0.28125,-0.2695312 -0.375,-0.2695312 h -2.414063 c -0.105469,0 -0.375,0 -0.375,0.2695312 0,0.2695313 0.257813,0.2695313 0.328125,0.2695313 h 2.496094 c 0.07031,0 0.339844,0 0.339844,-0.2695313 z m 0,1.0546875 c 0,-0.2578125 -0.269532,-0.2578125 -0.339844,-0.2578125 h -2.496094 c -0.07031,0 -0.328125,0 -0.328125,0.2578125 0,0.2695313 0.269531,0.2695313 0.375,0.2695313 h 2.414063 c 0.09375,0 0.375,0 0.375,-0.2695313 z m 3.632812,-0.515625 c 0,-1.3007812 -0.726562,-2.203125 -1.511719,-2.203125 -0.796875,0 -1.511718,0.9257813 -1.511718,2.1914063 0,1.28906246 0.714843,2.20312496 1.511718,2.20312496 0.796875,0 1.511719,-0.92578125 1.511719,-2.19140626 z m -0.527344,-0.082031 c 0,1.0078125 -0.457031,1.81640621 -0.984375,1.81640621 -0.550781,0 -0.984375,-0.80859371 -0.984375,-1.81640621 0,-0.9960938 0.46875,-1.6640625 0.984375,-1.6640625 0.503907,0 0.984375,0.6679687 0.984375,1.6640625 z m 0,0"
       style="fill:#595959;fill-opacity:1;fill-rule:nonzero;stroke:none"
       aria-label="depth=0"
       transform="matrix(1.3333333,0,0,1.3333333,15.050667,29.138667)" />
    <path
       id="path31"
       d="m 3.6211797,-0.235625 c 0,-0.22265625 -0.1875,-0.22265625 -0.3046875,-0.22265625 h -0.28125 V -3.9621875 c 0,-0.234375 -0.070312,-0.3046875 -0.3046875,-0.3046875 h -0.515625 c -0.1054688,0 -0.2929688,0 -0.2929688,0.234375 0,0.234375 0.1875,0.234375 0.2929688,0.234375 h 0.2929687 v 1.0429688 c -0.328125,-0.2460938 -0.6210937,-0.28125 -0.8085937,-0.28125 -0.77343751,0 -1.46484376,0.65625 -1.46484376,1.5351562 0,0.85546875 0.6328125,1.53515625 1.40624996,1.53515625 0.3632813,0 0.65625,-0.1640625 0.8671875,-0.36328125 0,0.19921875 0,0.328125 0.2929688,0.328125 h 0.515625 c 0.1171875,0 0.3046875,0 0.3046875,-0.234375 z M 2.5078984,-1.3723437 c 0,0.39843745 -0.328125,0.9492187 -0.84375,0.9492187 -0.46875,0 -0.90234371,-0.46875 -0.90234371,-1.078125 0,-0.6210937 0.46875001,-1.078125 0.97265621,-1.078125 0.4101563,0 0.7734375,0.3515625 0.7734375,0.7382813 z M 6.9844609,-0.75125 c 0,-0.15234375 -0.1171875,-0.22265625 -0.2695312,-0.22265625 -0.1171875,0 -0.1875,0.0117188 -0.2578125,0.1640625 -0.140625,0.31640625 -0.4804688,0.38671875 -0.703125,0.38671875 -0.515625,0 -1.0195313,-0.33984375 -1.125,-0.890625 h 2.0507812 c 0.1289063,0 0.3046875,0 0.3046875,-0.2578125 0,-0.84375 -0.4804687,-1.4882812 -1.3828125,-1.4882812 -0.8554687,0 -1.5234375,0.6914062 -1.5234375,1.546875 0,0.8320312 0.6914063,1.54687495 1.640625,1.54687495 0.9492188,0 1.265625,-0.609375 1.265625,-0.78515625 z M 6.4336797,-1.7707812 H 4.6289922 c 0.1054687,-0.4804688 0.515625,-0.8320313 0.9726562,-0.8320313 0.6328125,0 0.796875,0.4921875 0.8320313,0.8320313 z m 4.4296873,0.2578125 c 0,-0.84375 -0.621094,-1.5234375 -1.3945311,-1.5234375 -0.328125,0 -0.6210937,0.1171875 -0.8671875,0.3046875 0,-0.2695313 -0.1523437,-0.2695313 -0.3046875,-0.2695313 h -0.515625 c -0.1054687,0 -0.2929687,0 -0.2929687,0.2226563 0,0.234375 0.1875,0.234375 0.2929687,0.234375 H 8.0743047 V 1.0885938 H 7.7813359 c -0.1054687,0 -0.2929687,0 -0.2929687,0.2226562 0,0.234375 0.1875,0.234375 0.2929687,0.234375 h 1.1015625 c 0.1171875,0 0.3046875,0 0.3046875,-0.234375 0,-0.2226562 -0.1875,-0.2226562 -0.3046875,-0.2226562 h -0.28125 v -1.38281255 c 0.2109375,0.2109375 0.4804688,0.328125 0.796875,0.328125 0.7734376,0 1.4648436,-0.65625 1.4648436,-1.54687495 z m -0.527344,0 c 0,0.6445312 -0.4804683,1.0898437 -0.9609371,1.0898437 -0.515625,0 -0.7734375,-0.5859375 -0.7734375,-0.9257812 V -1.829375 c 0,-0.4101562 0.4101563,-0.75 0.8320313,-0.75 0.4921875,0 0.9023433,0.46875 0.9023433,1.0664063 z m 3.9375,0.60937495 c 0,-0.24609375 -0.199218,-0.24609375 -0.257812,-0.24609375 -0.1875,0 -0.257813,0.070312 -0.269531,0.24609375 -0.01172,0.29296875 -0.269532,0.48046875 -0.527344,0.48046875 -0.515625,0 -0.515625,-0.38671875 -0.515625,-0.55078125 V -2.5442187 h 1.113281 c 0.105469,0 0.292969,0 0.292969,-0.234375 0,-0.2226563 -0.1875,-0.2226563 -0.292969,-0.2226563 h -1.113281 v -0.5625 c 0,-0.1289062 0,-0.3046875 -0.269531,-0.3046875 -0.269532,0 -0.269532,0.1757813 -0.269532,0.3046875 v 0.5625 H 11.58993 c -0.105469,0 -0.304688,0 -0.304688,0.2226563 0,0.234375 0.199219,0.234375 0.292969,0.234375 h 0.585937 v 1.5820312 c 0,0.76171875 0.539063,0.99609375 1.019532,0.99609375 0.632812,0 1.089843,-0.4453125 1.089843,-0.9375 z M 18.43368,-0.235625 c 0,-0.22265625 -0.1875,-0.22265625 -0.304688,-0.22265625 h -0.28125 V -2.0285937 c 0,-0.703125 -0.351562,-1.0078125 -0.925781,-1.0078125 -0.515625,0 -0.84375,0.2695312 -0.914063,0.3398437 v -1.265625 c 0,-0.234375 -0.07031,-0.3046875 -0.304687,-0.3046875 h -0.515625 c -0.105469,0 -0.292969,0 -0.292969,0.234375 0,0.234375 0.1875,0.234375 0.292969,0.234375 h 0.292969 v 3.33984375 h -0.292969 c -0.105469,0 -0.292969,0 -0.292969,0.22265625 0,0.234375 0.1875,0.234375 0.292969,0.234375 h 1.101562 c 0.117188,0 0.304688,0 0.304688,-0.234375 0,-0.22265625 -0.1875,-0.22265625 -0.304688,-0.22265625 h -0.28125 V -1.6653125 c 0,-0.6679687 0.539063,-0.9140625 0.878907,-0.9140625 0.328125,0 0.433593,0.1523438 0.433593,0.5625 v 1.55859375 h -0.234375 c -0.105468,0 -0.304687,0 -0.304687,0.22265625 0,0.234375 0.199219,0.234375 0.304687,0.234375 h 1.042969 c 0.117188,0 0.304688,0 0.304688,-0.234375 z m 3.515625,-2.4257812 c 0,-0.2695313 -0.28125,-0.2695313 -0.375,-0.2695313 h -2.414063 c -0.105469,0 -0.375,0 -0.375,0.2695313 0,0.2695312 0.257813,0.2695312 0.328125,0.2695312 h 2.496094 c 0.07031,0 0.339844,0 0.339844,-0.2695312 z m 0,1.0546875 c 0,-0.2578125 -0.269532,-0.2578125 -0.339844,-0.2578125 h -2.496094 c -0.07031,0 -0.328125,0 -0.328125,0.2578125 0,0.2695312 0.269531,0.2695312 0.375,0.2695312 h 2.414063 c 0.09375,0 0.375,0 0.375,-0.2695312 z m 3.410156,1.3710937 c 0,-0.22265625 -0.210938,-0.22265625 -0.304688,-0.22265625 H 24.43368 V -4.0325 c 0,-0.1054687 0,-0.2929687 -0.222657,-0.2929687 -0.152343,0 -0.1875,0.082031 -0.222656,0.1523437 -0.316406,0.65625 -0.632812,0.6796875 -0.84375,0.6914063 -0.105469,0.011719 -0.210937,0.09375 -0.210937,0.234375 0,0.082031 0.04687,0.2226562 0.257812,0.2226562 0.328125,0 0.621094,-0.1992187 0.714844,-0.2695312 v 2.83593745 h -0.621094 c -0.105469,0 -0.304687,0 -0.304687,0.22265625 0,0.234375 0.210937,0.234375 0.304687,0.234375 h 1.769531 c 0.105469,0 0.304688,0 0.304688,-0.234375 z m 0,0"
       style="fill:#595959;fill-opacity:1;fill-rule:nonzero;stroke:none"
       aria-label="depth=1"
       transform="matrix(1.3333333,0,0,1.3333333,15.050667,75.626667)" />
    <path
       id="path32"
       d="m 3.6211797,-0.23408594 c 0,-0.22265625 -0.1875,-0.22265625 -0.3046875,-0.22265625 h -0.28125 V -3.9606484 c 0,-0.234375 -0.070312,-0.3046875 -0.3046875,-0.3046875 h -0.515625 c -0.1054688,0 -0.2929688,0 -0.2929688,0.234375 0,0.234375 0.1875,0.234375 0.2929688,0.234375 h 0.2929687 v 1.0429687 c -0.328125,-0.2460937 -0.6210937,-0.28125 -0.8085937,-0.28125 -0.77343751,0 -1.46484376,0.65625 -1.46484376,1.5351563 0,0.85546871 0.6328125,1.53515621 1.40624996,1.53515621 0.3632813,0 0.65625,-0.1640625 0.8671875,-0.36328125 0,0.19921875 0,0.3281250025 0.2929688,0.3281250025 h 0.515625 c 0.1171875,0 0.3046875,0 0.3046875,-0.2343750025 z M 2.5078984,-1.3708047 c 0,0.39843751 -0.328125,0.94921876 -0.84375,0.94921876 -0.46875,0 -0.90234371,-0.46875 -0.90234371,-1.07812496 0,-0.6210938 0.46875001,-1.078125 0.97265621,-1.078125 0.4101563,0 0.7734375,0.3515625 0.7734375,0.7382812 z m 4.4765625,0.62109376 c 0,-0.15234375 -0.1171875,-0.22265625 -0.2695312,-0.22265625 -0.1171875,0 -0.1875,0.0117188 -0.2578125,0.1640625 -0.140625,0.31640625 -0.4804688,0.38671875 -0.703125,0.38671875 -0.515625,0 -1.0195313,-0.33984375 -1.125,-0.89062496 h 2.0507812 c 0.1289063,0 0.3046875,0 0.3046875,-0.2578125 0,-0.84375 -0.4804687,-1.4882813 -1.3828125,-1.4882813 -0.8554687,0 -1.5234375,0.6914063 -1.5234375,1.546875 0,0.83203126 0.6914063,1.54687501 1.640625,1.54687501 0.9492188,0 1.265625,-0.609375 1.265625,-0.78515625 z M 6.4336797,-1.7692422 H 4.6289922 c 0.1054687,-0.4804687 0.515625,-0.8320312 0.9726562,-0.8320312 0.6328125,0 0.796875,0.4921875 0.8320313,0.8320312 z m 4.4296873,0.2578125 c 0,-0.84375 -0.621094,-1.5234375 -1.3945311,-1.5234375 -0.328125,0 -0.6210937,0.1171875 -0.8671875,0.3046875 0,-0.2695312 -0.1523437,-0.2695312 -0.3046875,-0.2695312 h -0.515625 c -0.1054687,0 -0.2929687,0 -0.2929687,0.2226562 0,0.234375 0.1875,0.234375 0.2929687,0.234375 H 8.0743047 V 1.0901328 H 7.7813359 c -0.1054687,0 -0.2929687,0 -0.2929687,0.2226563 0,0.234375 0.1875,0.234375 0.2929687,0.234375 h 1.1015625 c 0.1171875,0 0.3046875,0 0.3046875,-0.234375 0,-0.2226563 -0.1875,-0.2226563 -0.3046875,-0.2226563 h -0.28125 v -1.38281249 c 0.2109375,0.2109375 0.4804688,0.328125 0.796875,0.328125 0.7734376,0 1.4648436,-0.65625 1.4648436,-1.54687501 z m -0.527344,0 c 0,0.64453126 -0.4804683,1.08984376 -0.9609371,1.08984376 -0.515625,0 -0.7734375,-0.58593746 -0.7734375,-0.92578126 v -0.4804687 c 0,-0.4101563 0.4101563,-0.75 0.8320313,-0.75 0.4921875,0 0.9023433,0.46875 0.9023433,1.0664062 z m 3.9375,0.60937501 c 0,-0.24609371 -0.199218,-0.24609371 -0.257812,-0.24609371 -0.1875,0 -0.257813,0.070312 -0.269531,0.24609371 -0.01172,0.29296875 -0.269532,0.48046875 -0.527344,0.48046875 -0.515625,0 -0.515625,-0.38671875 -0.515625,-0.55078125 V -2.5426797 h 1.113281 c 0.105469,0 0.292969,0 0.292969,-0.234375 0,-0.2226562 -0.1875,-0.2226562 -0.292969,-0.2226562 h -1.113281 v -0.5625 c 0,-0.1289063 0,-0.3046875 -0.269531,-0.3046875 -0.269532,0 -0.269532,0.1757812 -0.269532,0.3046875 v 0.5625 H 11.58993 c -0.105469,0 -0.304688,0 -0.304688,0.2226562 0,0.234375 0.199219,0.234375 0.292969,0.234375 h 0.585937 v 1.58203126 c 0,0.76171875 0.539063,0.99609375 1.019532,0.99609375 0.632812,0 1.089843,-0.4453125 1.089843,-0.9375 z m 4.160157,0.66796875 c 0,-0.22265625 -0.1875,-0.22265625 -0.304688,-0.22265625 h -0.28125 V -2.0270547 c 0,-0.703125 -0.351562,-1.0078125 -0.925781,-1.0078125 -0.515625,0 -0.84375,0.2695313 -0.914063,0.3398438 v -1.265625 c 0,-0.234375 -0.07031,-0.3046875 -0.304687,-0.3046875 h -0.515625 c -0.105469,0 -0.292969,0 -0.292969,0.234375 0,0.234375 0.1875,0.234375 0.292969,0.234375 h 0.292969 v 3.33984371 h -0.292969 c -0.105469,0 -0.292969,0 -0.292969,0.22265625 0,0.2343750025 0.1875,0.2343750025 0.292969,0.2343750025 h 1.101562 c 0.117188,0 0.304688,0 0.304688,-0.2343750025 0,-0.22265625 -0.1875,-0.22265625 -0.304688,-0.22265625 h -0.28125 V -1.6637734 c 0,-0.6679688 0.539063,-0.9140625 0.878907,-0.9140625 0.328125,0 0.433593,0.1523437 0.433593,0.5625 v 1.55859371 h -0.234375 c -0.105468,0 -0.304687,0 -0.304687,0.22265625 0,0.2343750025 0.199219,0.2343750025 0.304687,0.2343750025 h 1.042969 c 0.117188,0 0.304688,0 0.304688,-0.2343750025 z m 3.515625,-2.42578126 c 0,-0.2695312 -0.28125,-0.2695312 -0.375,-0.2695312 h -2.414063 c -0.105469,0 -0.375,0 -0.375,0.2695312 0,0.2695313 0.257813,0.2695313 0.328125,0.2695313 h 2.496094 c 0.07031,0 0.339844,0 0.339844,-0.2695313 z m 0,1.0546875 c 0,-0.2578125 -0.269532,-0.2578125 -0.339844,-0.2578125 h -2.496094 c -0.07031,0 -0.328125,0 -0.328125,0.2578125 0,0.2695313 0.269531,0.2695313 0.375,0.2695313 h 2.414063 c 0.09375,0 0.375,0 0.375,-0.2695313 z m 3.597656,1.30078126 v -0.1875 c 0,-0.12890625 0,-0.29296875 -0.269531,-0.29296875 -0.257813,0 -0.257813,0.15234375 -0.257813,0.328125 h -1.558594 c 0.503907,-0.43359375 1.066407,-0.86718751 1.300782,-1.06640621 0.386718,-0.3632813 0.785156,-0.8203125 0.785156,-1.4414063 0,-0.8203125 -0.703125,-1.359375 -1.570313,-1.359375 -0.820312,0 -1.382812,0.5273438 -1.382812,1.125 0,0.2929688 0.234375,0.3632813 0.339844,0.3632813 0.140625,0 0.328125,-0.1171875 0.328125,-0.3398438 0,-0.082031 -0.03516,-0.1875 -0.09375,-0.2460937 0.117187,-0.2578125 0.398437,-0.4453125 0.785156,-0.4453125 0.550781,0 1.066406,0.3164062 1.066406,0.9023437 0,0.515625 -0.398437,0.9257813 -0.832031,1.2890625 l -1.464844,1.21875001 c -0.09375,0.0820313 -0.128906,0.1171875 -0.128906,0.22265625 0,0.2343750025 0.199219,0.2343750025 0.304687,0.2343750025 h 2.34375 c 0.234375,0 0.304688,-0.0585937525 0.304688,-0.3046875025 z m 0,0"
       style="fill:#595959;fill-opacity:1;fill-rule:nonzero;stroke:none"
       aria-label="depth=2"
       transform="matrix(1.3333333,0,0,1.3333333,15.050667,124.76133)" />
    <path
       id="path33"
       d="m 3.6211797,-0.23411719 c 0,-0.22265625 -0.1875,-0.22265625 -0.3046875,-0.22265625 h -0.28125 V -3.9606797 c 0,-0.234375 -0.070312,-0.3046875 -0.3046875,-0.3046875 h -0.515625 c -0.1054688,0 -0.2929688,0 -0.2929688,0.234375 0,0.234375 0.1875,0.234375 0.2929688,0.234375 h 0.2929687 v 1.0429688 c -0.328125,-0.2460938 -0.6210937,-0.28125 -0.8085937,-0.28125 -0.77343751,0 -1.46484376,0.65625 -1.46484376,1.5351562 0,0.85546876 0.6328125,1.53515626 1.40624996,1.53515626 0.3632813,0 0.65625,-0.1640625 0.8671875,-0.36328125 0,0.19921875 0,0.3281250025 0.2929688,0.3281250025 h 0.515625 c 0.1171875,0 0.3046875,0 0.3046875,-0.2343750025 z M 2.5078984,-1.3708359 c 0,0.39843746 -0.328125,0.94921871 -0.84375,0.94921871 -0.46875,0 -0.90234371,-0.46875 -0.90234371,-1.07812501 0,-0.6210937 0.46875001,-1.078125 0.97265621,-1.078125 0.4101563,0 0.7734375,0.3515625 0.7734375,0.7382813 z m 4.4765625,0.62109371 c 0,-0.15234375 -0.1171875,-0.22265625 -0.2695312,-0.22265625 -0.1171875,0 -0.1875,0.0117188 -0.2578125,0.1640625 -0.140625,0.31640625 -0.4804688,0.38671875 -0.703125,0.38671875 -0.515625,0 -1.0195313,-0.33984375 -1.125,-0.89062501 h 2.0507812 c 0.1289063,0 0.3046875,0 0.3046875,-0.2578125 0,-0.84375 -0.4804687,-1.4882812 -1.3828125,-1.4882812 -0.8554687,0 -1.5234375,0.6914062 -1.5234375,1.546875 0,0.83203121 0.6914063,1.54687496 1.640625,1.54687496 0.9492188,0 1.265625,-0.609375 1.265625,-0.78515625 z M 6.4336797,-1.7692734 H 4.6289922 c 0.1054687,-0.4804688 0.515625,-0.8320313 0.9726562,-0.8320313 0.6328125,0 0.796875,0.4921875 0.8320313,0.8320313 z m 4.4296873,0.2578125 c 0,-0.84375 -0.621094,-1.5234375 -1.3945311,-1.5234375 -0.328125,0 -0.6210937,0.1171875 -0.8671875,0.3046875 0,-0.2695313 -0.1523437,-0.2695313 -0.3046875,-0.2695313 h -0.515625 c -0.1054687,0 -0.2929687,0 -0.2929687,0.2226563 0,0.234375 0.1875,0.234375 0.2929687,0.234375 H 8.0743047 V 1.0901016 H 7.7813359 c -0.1054687,0 -0.2929687,0 -0.2929687,0.2226562 0,0.234375 0.1875,0.234375 0.2929687,0.234375 h 1.1015625 c 0.1171875,0 0.3046875,0 0.3046875,-0.234375 0,-0.2226562 -0.1875,-0.2226562 -0.3046875,-0.2226562 h -0.28125 v -1.38281254 c 0.2109375,0.2109375 0.4804688,0.328125 0.796875,0.328125 0.7734376,0 1.4648436,-0.65625 1.4648436,-1.54687496 z m -0.527344,0 c 0,0.64453121 -0.4804683,1.08984371 -0.9609371,1.08984371 -0.515625,0 -0.7734375,-0.58593751 -0.7734375,-0.92578121 v -0.4804688 c 0,-0.4101562 0.4101563,-0.75 0.8320313,-0.75 0.4921875,0 0.9023433,0.46875 0.9023433,1.0664063 z m 3.9375,0.60937496 c 0,-0.24609376 -0.199218,-0.24609376 -0.257812,-0.24609376 -0.1875,0 -0.257813,0.070312 -0.269531,0.24609376 -0.01172,0.29296875 -0.269532,0.48046875 -0.527344,0.48046875 -0.515625,0 -0.515625,-0.38671875 -0.515625,-0.55078125 V -2.5427109 h 1.113281 c 0.105469,0 0.292969,0 0.292969,-0.234375 0,-0.2226563 -0.1875,-0.2226563 -0.292969,-0.2226563 h -1.113281 v -0.5625 c 0,-0.1289062 0,-0.3046875 -0.269531,-0.3046875 -0.269532,0 -0.269532,0.1757813 -0.269532,0.3046875 v 0.5625 H 11.58993 c -0.105469,0 -0.304688,0 -0.304688,0.2226563 0,0.234375 0.199219,0.234375 0.292969,0.234375 h 0.585937 v 1.58203121 c 0,0.76171875 0.539063,0.99609375 1.019532,0.99609375 0.632812,0 1.089843,-0.4453125 1.089843,-0.9375 z m 4.160157,0.66796875 c 0,-0.22265625 -0.1875,-0.22265625 -0.304688,-0.22265625 h -0.28125 V -2.0270859 c 0,-0.703125 -0.351562,-1.0078125 -0.925781,-1.0078125 -0.515625,0 -0.84375,0.2695312 -0.914063,0.3398437 v -1.265625 c 0,-0.234375 -0.07031,-0.3046875 -0.304687,-0.3046875 h -0.515625 c -0.105469,0 -0.292969,0 -0.292969,0.234375 0,0.234375 0.1875,0.234375 0.292969,0.234375 h 0.292969 v 3.33984376 h -0.292969 c -0.105469,0 -0.292969,0 -0.292969,0.22265625 0,0.2343750025 0.1875,0.2343750025 0.292969,0.2343750025 h 1.101562 c 0.117188,0 0.304688,0 0.304688,-0.2343750025 0,-0.22265625 -0.1875,-0.22265625 -0.304688,-0.22265625 h -0.28125 V -1.6638047 c 0,-0.6679687 0.539063,-0.9140625 0.878907,-0.9140625 0.328125,0 0.433593,0.1523438 0.433593,0.5625 v 1.55859376 h -0.234375 c -0.105468,0 -0.304687,0 -0.304687,0.22265625 0,0.2343750025 0.199219,0.2343750025 0.304687,0.2343750025 h 1.042969 c 0.117188,0 0.304688,0 0.304688,-0.2343750025 z m 3.515625,-2.42578121 c 0,-0.2695313 -0.28125,-0.2695313 -0.375,-0.2695313 h -2.414063 c -0.105469,0 -0.375,0 -0.375,0.2695313 0,0.2695312 0.257813,0.2695312 0.328125,0.2695312 h 2.496094 c 0.07031,0 0.339844,0 0.339844,-0.2695312 z m 0,1.0546875 c 0,-0.2578125 -0.269532,-0.2578125 -0.339844,-0.2578125 h -2.496094 c -0.07031,0 -0.328125,0 -0.328125,0.2578125 0,0.2695312 0.269531,0.2695312 0.375,0.2695312 h 2.414063 c 0.09375,0 0.375,0 0.375,-0.2695312 z m 3.65625,0.375 c 0,-0.375 -0.210938,-0.8320313 -0.761719,-1.1015625 0.304687,-0.2109375 0.550781,-0.5859375 0.550781,-0.9960938 0,-0.5507812 -0.527344,-0.9960937 -1.324219,-0.9960937 -0.832031,0 -1.335937,0.3046875 -1.335937,0.8203125 0,0.2226562 0.164062,0.3398437 0.339844,0.3398437 0.1875,0 0.339843,-0.140625 0.339843,-0.328125 0,-0.1171875 -0.03516,-0.1523437 -0.05859,-0.1992187 0.222656,-0.1757813 0.667968,-0.1757813 0.714843,-0.1757813 0.480469,0 0.796875,0.2578125 0.796875,0.5390625 0,0.1054688 -0.02344,0.3632813 -0.269531,0.5742188 -0.199219,0.1757812 -0.398437,0.1875 -0.621094,0.1992187 -0.410156,0.035156 -0.527343,0.035156 -0.527343,0.2578125 0,0.2226563 0.199218,0.2226563 0.304687,0.2226563 h 0.292969 c 0.726562,0 1.03125,0.5039062 1.03125,0.84375 0,0.41015621 -0.375,0.84374996 -1.007813,0.84374996 -0.09375,0 -0.679687,0 -0.949218,-0.328125 l 0.02344,-0.0234375 c 0.03516,-0.0703125 0.03516,-0.0820313 0.04687,-0.15234375 0,0 0.01172,-0.0234375 0.01172,-0.046875 0,-0.17578121 -0.128906,-0.33984371 -0.339844,-0.33984371 -0.175781,0 -0.339844,0.1171875 -0.339844,0.35156246 0,0.62109375 0.667969,0.99609375 1.546875,0.99609375 0.949219,0 1.535157,-0.64453125 1.535157,-1.30078121 z m 0,0"
       style="fill:#595959;fill-opacity:1;fill-rule:nonzero;stroke:none"
       aria-label="depth=3"
       transform="matrix(1.3333333,0,0,1.3333333,15.050667,174.652)" />
    <g
       id="g33"
       aria-label="첫번째출력:123"
       transform="matrix(1.3333333,0,0,1.3333333,216.35067,213.204)">
      <path
         id="path34"
         d="m 2.4733281,-7.4420625 v 0.984375 H 0.66864062 v 0.5976563 H 2.4733281 v 0.1875 c 0,1.1015625 -0.8085937,2.0976562 -1.99218748,2.4960937 l 0.36328125,0.5976563 c 0.94921873,-0.3398438 1.66406253,-1.03125 2.01562503,-1.9101563 0.3515625,0.7734375 1.0546875,1.3945313 1.96875,1.6875 l 0.3515625,-0.5742187 c -1.1835938,-0.375 -1.96875,-1.3007813 -1.96875,-2.296875 v -0.1875 h 1.7929687 v -0.5976563 h -1.78125 v -0.984375 z m 3.9023438,0.023437 V -5.12175 H 4.7584844 v 0.6210938 h 1.6171875 v 2.7070312 h 0.7382812 v -5.625 z m -2.2382813,5.0742188 v 0.1757812 c 0,1.1015625 -1.2890625,1.9921875 -2.71875,2.23828125 l 0.28125,0.59765625 c 1.21875,-0.234375 2.3203125,-0.87890625 2.8125,-1.7929687 0.46875,0.9257812 1.5703125,1.5585937 2.8007813,1.7929687 L 7.6061406,0.06965625 C 6.1647344,-0.16471875 4.8991094,-1.043625 4.8991094,-2.168625 V -2.3444062 Z M 11.839539,-4.863938 h 2.191406 v 1.4765625 h -2.191406 z m -0.738281,-2.0039062 v 4.078125 h 3.667969 v -1.734375 h 1.863281 v 3.1171875 h 0.738281 v -6 h -0.738281 v 2.2734375 h -1.863281 v -1.734375 h -0.738282 v 1.4296875 h -2.191406 v -1.4296875 z m 1.066406,4.875 v 2.50781245 h 5.390625 v -0.609375 H 12.905945 V -1.9928437 Z m 11.507813,-5.25 v 7.52343745 h 0.691406 V -3.4928437 h 0.878906 v 4.19531245 h 0.703125 V -7.418625 h -0.703125 v 3.3164063 h -0.878906 v -3.140625 z M 21.29657,-6.43425 v 0.609375 h 0.480469 v 0.84375 c 0,0.796875 -0.03516,1.9921875 -0.597656,2.8476563 -0.585938,-0.9023438 -0.621094,-2.1679688 -0.621094,-2.8476563 v -0.84375 h 0.492188 V -6.43425 h -1.980469 v 0.609375 h 0.832031 v 0.84375 c 0,0.9960938 -0.175781,2.484375 -1.113281,3.2226563 l 0.433594,0.515625 c 0.527343,-0.421875 0.832031,-1.0898438 0.996093,-1.7929688 0.140625,0.7148438 0.433594,1.4179688 0.949219,1.875 0.527344,-0.4453125 0.808594,-1.125 0.960938,-1.8515625 0.175781,0.703125 0.480468,1.3476563 0.996093,1.7695313 l 0.421875,-0.515625 C 22.620789,-2.49675 22.433289,-3.949875 22.433289,-4.981125 v -0.84375 h 0.785156 V -6.43425 Z m 8.827149,6.46875 v 0.57421875 h 5.71875 V 0.0345 h -5.003907 v -0.76171875 h 4.757813 V -2.49675 h -2.355469 v -0.75 h 3.28125 v -0.5625 h -7.300781 v 0.5625 h 3.28125 v 0.75 h -2.402344 v 0.5507813 h 4.769531 v 0.6914062 h -4.746093 z m -0.152344,-6.7382812 v 0.5742187 h 2.472656 c -0.128906,0.7851563 -1.335937,1.3007813 -2.835937,1.3828125 l 0.210937,0.5742188 c 1.371094,-0.1171875 2.554688,-0.5390625 3.046875,-1.3007813 0.503906,0.7617188 1.699219,1.1835938 3.046875,1.3007813 L 36.147156,-4.74675 c -1.5,-0.082031 -2.71875,-0.5976562 -2.859375,-1.3828125 h 2.507813 v -0.5742187 h -2.554688 v -0.75 h -0.738281 v 0.75 z m 8.742187,4.7109375 v 0.609375 h 4.675782 v 2.08593745 h 0.738281 V -1.9928437 Z m -0.925781,-4.9335938 v 0.609375 h 2.753906 v 1.1132813 H 37.7995 v 2.4140625 h 0.574219 c 1.628906,0 2.4375,-0.023437 3.433593,-0.1992188 L 41.737,-3.5983125 c -0.925781,0.1757813 -1.710938,0.2109375 -3.199219,0.2109375 v -1.2421875 h 2.730469 v -2.296875 z m 4.019531,2.4023438 v 0.609375 h 1.582032 v 1.4882812 h 0.738281 v -4.9804687 h -0.738281 v 1.2070312 h -1.582032 v 0.5976563 h 1.582032 v 1.078125 z m 5.144532,1.03125 c 0.328125,0 0.597656,-0.2578125 0.597656,-0.6328125 0,-0.3632813 -0.269531,-0.6210938 -0.597656,-0.6210938 -0.328125,0 -0.585938,0.2578125 -0.585938,0.6210938 0,0.375 0.257813,0.6328125 0.585938,0.6328125 z m 0,3.60937495 c 0.328125,0 0.597656,-0.24609375 0.597656,-0.62109375 0,-0.375 -0.269531,-0.6210937 -0.597656,-0.6210937 -0.328125,0 -0.585938,0.2460937 -0.585938,0.6210937 0,0.375 0.257813,0.62109375 0.585938,0.62109375 z m 0,0"
         style="fill:#000000;fill-opacity:1;fill-rule:nonzero;stroke:none" />
      <path
         id="path35"
         d="m 54.86493,-0.28190625 c 0,-0.3046875 -0.222657,-0.3046875 -0.375,-0.3046875 H 53.693055 V -5.2037812 c 0,-0.1289063 0,-0.375 -0.28125,-0.375 -0.152344,0 -0.222657,0.082031 -0.28125,0.1992187 -0.28125,0.6328125 -0.632813,0.8671875 -0.996094,0.9023438 -0.128906,0 -0.328125,0.023437 -0.328125,0.2929687 0,0.1757813 0.09375,0.28125 0.316406,0.28125 0.351563,0 0.703125,-0.1875 0.914063,-0.3632812 v 3.67968745 H 52.23993 c -0.152344,0 -0.386719,0 -0.386719,0.3046875 0,0.28125 0.246094,0.28125 0.386719,0.28125 h 2.25 c 0.140625,0 0.375,0 0.375,-0.28125 z m 9.65332,-0.09375 v -0.2578125 c 0,-0.17578125 0,-0.37499995 -0.328125,-0.37499995 -0.339844,0 -0.339844,0.18749995 -0.339844,0.42187495 H 61.834656 C 62.315125,-0.99675 63.322937,-1.793625 63.545594,-2.0045625 63.873719,-2.3209687 64.51825,-2.918625 64.51825,-3.80925 c 0,-1.0664062 -0.890625,-1.7695312 -2.003906,-1.7695312 -1.042969,0 -1.757813,0.7148437 -1.757813,1.4765625 0,0.3632812 0.28125,0.4570312 0.421875,0.4570312 0.175781,0 0.410156,-0.1523437 0.410156,-0.421875 0,-0.1875 -0.07031,-0.2578125 -0.117187,-0.3046875 0.152344,-0.3867187 0.550781,-0.6210937 1.007812,-0.6210937 0.714844,0 1.371094,0.4101562 1.371094,1.1835937 0,0.6210938 -0.480469,1.1601563 -0.832031,1.4648438 l -2.132813,1.7929687 c -0.07031,0.0585938 -0.128906,0.1171875 -0.128906,0.2578125 0,0.29296875 0.234375,0.29296875 0.386719,0.29296875 h 3 c 0.292969,0 0.375,-0.0703125 0.375,-0.375 z m 9.486328,-1.19531245 c 0,-0.7382813 -0.550781,-1.2304688 -0.972656,-1.4296875 0.65625,-0.4570313 0.714844,-1.0546875 0.714844,-1.2890625 0,-0.6914063 -0.679688,-1.2890625 -1.699219,-1.2890625 -1.101563,0 -1.6875,0.4453125 -1.6875,1.0546875 0,0.2695312 0.199219,0.421875 0.421875,0.421875 0.222656,0 0.410156,-0.1757813 0.410156,-0.4101563 0,-0.082031 -0.02344,-0.1757812 -0.07031,-0.234375 0.292968,-0.2460937 0.878906,-0.2460937 0.925781,-0.2460937 0.632812,0 1.03125,0.328125 1.03125,0.703125 0,0.2460937 -0.117188,0.609375 -0.457031,0.8320312 -0.234375,0.1523438 -0.398438,0.1640625 -0.820313,0.1992188 -0.351562,0.011719 -0.527344,0.035156 -0.527344,0.3046875 0,0.2929687 0.246094,0.2929687 0.375,0.2929687 h 0.375 c 0.925782,0 1.324219,0.6210938 1.324219,1.078125 0,0.5742188 -0.515625,1.1015625 -1.289062,1.1015625 -0.234375,0 -0.914063,-0.0351563 -1.230469,-0.46875 l 0.02344,-0.0234375 c 0.05859,-0.0820312 0.05859,-0.1054687 0.07031,-0.1875 0,0 0.01172,-0.035156 0.01172,-0.070312 0,-0.2226562 -0.175782,-0.4101562 -0.410157,-0.4101562 -0.222656,0 -0.421875,0.1289062 -0.421875,0.4335937 0,0.796875 0.84375,1.30078125 1.957032,1.30078125 1.171875,0 1.945312,-0.80859375 1.945312,-1.66406245 z m 0,0"
         style="fill:#000000;fill-opacity:1;fill-rule:nonzero;stroke:none" />
    </g>
    <g
       id="g35"
       aria-label="이전상태로돌아간뒤다음출력:124"
       transform="matrix(1.3333333,0,0,1.3333333,168.33733,235.88133)">
      <path
         id="path36"
         d="M 6.3387969,-7.4168594 V 0.70423437 H 7.0770781 V -7.4168594 Z m -3.5390625,0.6328125 c -1.1953125,0 -2.06250003,1.1015625 -2.06250003,2.8242188 0,1.734375 0.86718753,2.8359375 2.06250003,2.8359375 1.1953125,0 2.0625,-1.1015625 2.0625,-2.8359375 0,-1.7226563 -0.8671875,-2.8242188 -2.0625,-2.8242188 z m 0,0.6679688 c 0.796875,0 1.3359375,0.84375 1.3359375,2.15625 0,1.3125 -0.5390625,2.1679687 -1.3359375,2.1679687 -0.796875,0 -1.3359375,-0.8554687 -1.3359375,-2.1679687 0,-1.3125 0.5390625,-2.15625 1.3359375,-2.15625 z M 14.623953,-7.4051406 v 2.2382812 h -1.628906 v 0.609375 h 1.628906 v 3.09375 h 0.738281 v -5.9414062 z m -4.429687,5.4140625 v 2.50781247 h 5.402343 v -0.609375 H 10.932547 V -1.9910781 Z M 8.9520781,-6.7488906 v 0.609375 h 1.8046879 v 0.3984375 c 0,1.1484375 -0.8320316,2.2265625 -2.0273441,2.6484375 l 0.375,0.5976562 c 0.9609371,-0.3515625 1.6992191,-1.1015625 2.0390621,-2.0273437 0.351563,0.84375 1.054688,1.5117187 1.957032,1.8398437 l 0.375,-0.5859375 c -1.171875,-0.4101562 -1.96875,-1.4414062 -1.96875,-2.4726562 v -0.3984375 h 1.78125 v -0.609375 z m 13.7138669,4.4765625 c -1.664062,0 -2.671875,0.5390625 -2.671875,1.47656247 0,0.9375 1.007813,1.4765625 2.671875,1.4765625 1.652344,0 2.648438,-0.5390625 2.648438,-1.4765625 0,-0.93749997 -0.996094,-1.47656247 -2.648438,-1.47656247 z m 0,0.5859375 c 1.195313,0 1.921875,0.328125 1.921875,0.89062497 0,0.5625 -0.726562,0.890625 -1.921875,0.890625 -1.207031,0 -1.933593,-0.328125 -1.933593,-0.890625 0,-0.56249997 0.726562,-0.89062497 1.933593,-0.89062497 z M 20.93157,-6.9949844 v 0.8320313 c 0,1.2421875 -0.796875,2.3320312 -2.015625,2.7890625 l 0.398438,0.5859375 c 0.949219,-0.3632813 1.652344,-1.1015625 1.992187,-2.0507813 0.351563,0.8320313 1.042969,1.5 1.933594,1.828125 l 0.398438,-0.5859375 c -1.171875,-0.3984375 -1.980469,-1.4179687 -1.980469,-2.5078125 v -0.890625 z m 3.574219,-0.421875 v 4.921875 h 0.738281 v -2.1914062 h 1.195313 V -5.3192031 H 25.24407 v -2.0976563 z m 3.023438,0.9375 v 5.1796875 h 0.515625 c 1.3125,0 2.085937,-0.035156 3.035156,-0.2109375 l -0.07031,-0.6210937 c -0.878906,0.1640625 -1.605468,0.2109375 -2.777343,0.2109375 v -1.828125 h 2.355468 v -0.5859375 h -2.355468 v -1.546875 h 2.484375 v -0.5976563 z m 4.066406,-0.7617187 v 7.52343747 h 0.714844 V -3.5496719 h 1.066406 v 4.25390627 h 0.726562 V -7.4168594 h -0.726562 v 3.2578125 h -1.066406 v -3.0820312 z m 4.769531,4.1953125 v 0.609375 h 2.378906 v 1.51171872 h -3.292968 v 0.62109375 h 7.359375 V -0.92467188 H 39.482352 V -2.4363906 h 2.601562 v -0.609375 h -4.980469 v -1.3125 h 4.792969 v -2.4492188 h -5.542969 v 0.609375 h 4.804688 v 1.2539063 h -4.792969 z m 9.342773,-0.84375 v 0.5976562 h 7.324219 v -0.5976562 h -3.292969 v -0.7734375 h 2.425782 v -0.5976563 h -4.746094 v -1.2304687 h 4.664062 v -0.609375 h -5.390625 v 2.4375 h 2.308594 v 0.7734375 z M 46.622,0.02454687 v 0.57421875 h 5.71875 V 0.02454687 h -5.003906 v -0.80859375 h 4.757812 V -2.6121719 h -5.496094 v 0.5742188 h 4.769532 v 0.7148437 H 46.622 Z m 9.492187,-6.80859377 c -1.195312,0 -2.039062,1.1015625 -2.039062,2.8242188 0,1.734375 0.84375,2.8359375 2.039062,2.8359375 1.195313,0 2.039063,-1.1015625 2.039063,-2.8359375 0,-1.7226563 -0.84375,-2.8242188 -2.039063,-2.8242188 z m 0,0.6679688 c 0.785157,0 1.324219,0.84375 1.324219,2.15625 0,1.3125 -0.539062,2.1679687 -1.324219,2.1679687 -0.785156,0 -1.324218,-0.8554687 -1.324218,-2.1679687 0,-1.3125 0.539062,-2.15625 1.324218,-2.15625 z m 3.328125,-1.3007813 v 8.12109377 h 0.75 V -3.5496719 h 1.324219 v -0.6210937 h -1.324219 v -3.2460938 z m 8.305665,0 v 5.9296875 h 0.75 v -2.8359375 h 1.195312 v -0.6328125 h -1.195312 v -2.4609375 z m -5.203125,0.6328125 v 0.6210938 h 2.976562 c -0.152344,1.4179687 -1.382812,2.5546875 -3.304687,3.1523437 l 0.316406,0.5976563 c 2.332031,-0.7382813 3.785156,-2.2734375 3.785156,-4.3710938 z m 0.902343,4.6992188 v 2.60156247 h 5.402344 v -0.609375 H 64.185477 V -2.0848281 Z m 14.923828,-5.3203125 v 8.10937497 h 0.738282 V -7.4051406 Z m -5.847656,5.0390625 c 0.691406,0 1.453125,-0.011719 2.25,-0.035156 v 2.84765627 h 0.738281 V -2.4246719 c 0.773438,-0.046875 1.570313,-0.1171875 2.332032,-0.2226562 l -0.03516,-0.5625 c -1.769531,0.1992187 -3.773437,0.2109375 -5.378906,0.2109375 z m 0.667969,-4.59375 v 2.9414062 h 4.007812 v -0.6210937 h -3.257812 v -1.7109375 h 3.152344 v -0.609375 z m 15.014648,-0.4570313 v 8.12109377 h 0.75 V -3.5965469 h 1.324219 v -0.6210937 h -1.324219 v -3.1992188 z m -5.132812,0.796875 v 5.3085938 h 0.632812 c 1.523438,0 2.589844,-0.046875 3.84375,-0.2695313 l -0.09375,-0.6445312 c -1.183593,0.2226562 -2.214843,0.28125 -3.644531,0.28125 v -4.0664063 h 3.023438 v -0.609375 z m 11.551758,-0.609375 c -1.746094,0 -2.847657,0.5742188 -2.847657,1.5351563 0,0.9609375 1.101563,1.5234375 2.847657,1.5234375 1.757812,0 2.859375,-0.5625 2.859375,-1.5234375 0,-0.9609375 -1.101563,-1.5351563 -2.859375,-1.5351563 z m 0,0.5859375 c 1.289062,0 2.097656,0.3515625 2.097656,0.9492188 0,0.5859375 -0.808594,0.9375 -2.097656,0.9375 -1.277344,0 -2.085938,-0.3515625 -2.085938,-0.9375 0,-0.5976563 0.808594,-0.9492188 2.085938,-0.9492188 z m -2.753907,4.5703125 v 2.66015627 h 5.53125 V -2.0731094 Z m 4.804688,0.5976563 v 1.45312497 H 92.597586 V -1.4754531 Z M 90.96868,-3.4793594 v 0.609375 h 7.324218 v -0.609375 z m 11.17383,3.51562502 v 0.57421875 h 5.71875 V 0.03626562 h -5.00391 v -0.76171875 h 4.75781 V -2.4949844 h -2.35546 v -0.75 h 3.28125 v -0.5625 h -7.30079 v 0.5625 h 3.28125 v 0.75 h -2.40234 v 0.5507813 h 4.76953 v 0.6914062 h -4.74609 z m -0.15235,-6.73828122 v 0.5742187 h 2.47266 c -0.12891,0.7851563 -1.33594,1.3007813 -2.83594,1.3828125 l 0.21094,0.5742188 c 1.37109,-0.1171875 2.55469,-0.5390625 3.04688,-1.3007813 0.5039,0.7617188 1.69921,1.1835938 3.04687,1.3007813 l 0.23438,-0.5742188 c -1.5,-0.082031 -2.71875,-0.5976562 -2.85938,-1.3828125 h 2.50781 v -0.5742187 h -2.55468 v -0.75 h -0.73829 v 0.75 z m 8.73926,4.7109375 v 0.609375 h 4.67578 v 2.08593747 h 0.73828 V -1.9910781 Z m -0.92578,-4.9335938 v 0.609375 h 2.75391 v 1.1132813 h -2.74219 v 2.4140625 h 0.57422 c 1.6289,0 2.4375,-0.023437 3.43359,-0.1992188 l -0.0703,-0.609375 c -0.92578,0.1757813 -1.71094,0.2109375 -3.19922,0.2109375 v -1.2421875 h 2.73047 v -2.296875 z m 4.01953,2.4023438 v 0.609375 h 1.58203 v 1.4882812 h 0.73828 v -4.9804687 h -0.73828 v 1.2070312 h -1.58203 v 0.5976563 h 1.58203 v 1.078125 z m 5.14746,1.03125 c 0.32813,0 0.59766,-0.2578125 0.59766,-0.6328125 0,-0.3632813 -0.26953,-0.6210938 -0.59766,-0.6210938 -0.32812,0 -0.58593,0.2578125 -0.58593,0.6210938 0,0.375 0.25781,0.6328125 0.58593,0.6328125 z m 0,3.60937497 c 0.32813,0 0.59766,-0.24609375 0.59766,-0.62109375 0,-0.375 -0.26953,-0.62109372 -0.59766,-0.62109372 -0.32812,0 -0.58593,0.24609372 -0.58593,0.62109372 0,0.375 0.25781,0.62109375 0.58593,0.62109375 z m 0,0"
         style="fill:#000000;fill-opacity:1;fill-rule:nonzero;stroke:none" />
      <path
         id="path37"
         d="m 126.88372,-0.28014063 c 0,-0.3046875 -0.22266,-0.3046875 -0.375,-0.3046875 h -0.79688 V -5.2020156 c 0,-0.1289063 0,-0.375 -0.28125,-0.375 -0.15234,0 -0.22265,0.082031 -0.28125,0.1992187 -0.28125,0.6328125 -0.63281,0.8671875 -0.99609,0.9023438 -0.12891,0 -0.32812,0.023437 -0.32812,0.2929687 0,0.1757813 0.0937,0.28125 0.3164,0.28125 0.35156,0 0.70313,-0.1875 0.91406,-0.3632812 v 3.67968747 h -0.79687 c -0.15234,0 -0.38672,0 -0.38672,0.3046875 0,0.28125 0.24609,0.28125 0.38672,0.28125 h 2.25 c 0.14062,0 0.375,0 0.375,-0.28125 z m 9.65332,-0.09375 v -0.2578125 c 0,-0.17578125 0,-0.37499997 -0.32813,-0.37499997 -0.33984,0 -0.33984,0.18749997 -0.33984,0.42187497 h -2.01562 c 0.48046,-0.41015625 1.48828,-1.20703127 1.71093,-1.41796877 0.32813,-0.3164062 0.97266,-0.9140625 0.97266,-1.8046875 0,-1.0664062 -0.89063,-1.7695312 -2.00391,-1.7695312 -1.04297,0 -1.75781,0.7148437 -1.75781,1.4765625 0,0.3632812 0.28125,0.4570312 0.42188,0.4570312 0.17578,0 0.41015,-0.1523437 0.41015,-0.421875 0,-0.1875 -0.0703,-0.2578125 -0.11719,-0.3046875 0.15235,-0.3867187 0.55079,-0.6210937 1.00782,-0.6210937 0.71484,0 1.37109,0.4101562 1.37109,1.1835937 0,0.6210938 -0.48047,1.1601563 -0.83203,1.4648438 l -2.13281,1.79296872 c -0.0703,0.0585938 -0.12891,0.1171875 -0.12891,0.2578125 0,0.29296875 0.23438,0.29296875 0.38672,0.29296875 h 3 c 0.29297,0 0.375,-0.0703125 0.375,-0.375 z m 9.62402,-1.41796877 c 0,-0.2929687 -0.24609,-0.2929687 -0.375,-0.2929687 h -0.66797 v -3.1289063 c 0,-0.3046875 -0.0703,-0.3867187 -0.38671,-0.3867187 h -0.25782 c -0.22265,0 -0.28125,0.011719 -0.39843,0.1992187 l -2.01563,3.1875 c -0.082,0.1171875 -0.082,0.140625 -0.082,0.328125 0,0.2578125 0.0352,0.375 0.375,0.375 h 2.22656 v 0.92578127 H 144.04 c -0.12891,0 -0.375,0 -0.375,0.29296875 0,0.29296875 0.24609,0.29296875 0.375,0.29296875 h 1.61719 c 0.1289,0 0.375,0 0.375,-0.28125 0,-0.3046875 -0.2461,-0.3046875 -0.375,-0.3046875 h -0.53907 V -1.5106094 h 0.66797 c 0.11719,0 0.375,0 0.375,-0.28125 z m -1.58203,-0.2929687 h -1.92187 l 1.92187,-3.0585938 z m 0,0"
         style="fill:#000000;fill-opacity:1;fill-rule:nonzero;stroke:none" />
    </g>
  </g>
</svg>
