<?xml version="1.0" encoding="UTF-8" standalone="no"?>
<!-- Created with Inkscape (http://www.inkscape.org/) -->

<svg
   version="1.1"
   id="svg1"
   width="340.06534"
   height="137.632"
   viewBox="0 0 340.06534 137.632"
   sodipodi:docname="3.pdf"
   xmlns:inkscape="http://www.inkscape.org/namespaces/inkscape"
   xmlns:sodipodi="http://sodipodi.sourceforge.net/DTD/sodipodi-0.dtd"
   xmlns="http://www.w3.org/2000/svg"
   xmlns:svg="http://www.w3.org/2000/svg">
  <defs
     id="defs1" />
  <sodipodi:namedview
     id="namedview1"
     pagecolor="#ffffff"
     bordercolor="#000000"
     borderopacity="0.25"
     inkscape:showpageshadow="2"
     inkscape:pageopacity="0.0"
     inkscape:pagecheckerboard="0"
     inkscape:deskcolor="#d1d1d1">
    <inkscape:page
       x="0"
       y="0"
       inkscape:label="1"
       id="page1"
       width="340.06534"
       height="137.632"
       margin="0"
       bleed="0" />
  </sodipodi:namedview>
  <g
     id="g1"
     inkscape:groupmode="layer"
     inkscape:label="1">
    <path
       id="path1"
       d="M -14.17339,-11.33871 H 14.1734 v 22.67743 h -28.34679 z"
       style="fill:#fafafa;fill-opacity:1;fill-rule:nonzero;stroke:#d1d1d1;stroke-width:0.44832;stroke-linecap:butt;stroke-linejoin:miter;stroke-miterlimit:10;stroke-dasharray:none;stroke-opacity:1"
       transform="matrix(1.3333333,0,0,-1.3333333,27.166667,60.013333)" />
    <path
       id="path2"
       d="m 2.7297813,-5.7290781 c 0,-0.2226563 -0.011719,-0.234375 -0.234375,-0.234375 -0.5625,0.5625 -1.3828125,0.5625 -1.66406255,0.5625 v 0.28125 c 0.17578125,0 0.71484375,0 1.20703125,-0.234375 v 4.64062497 c 0,0.328125 -0.035156,0.43359375 -0.8671875,0.43359375 h -0.28125 v 0.28125 c 0.3164063,-0.0234375 1.1132813,-0.0234375 1.4882813,-0.0234375 0.3632812,0 1.171875,0 1.4882812,0.0234375 v -0.28125 H 3.58525 c -0.8320312,0 -0.8554687,-0.10546875 -0.8554687,-0.43359375 z m 0,0"
       style="fill:#bfbfbf;fill-opacity:1;fill-rule:nonzero;stroke:none"
       aria-label="1"
       transform="matrix(1.3333333,0,0,1.3333333,24.094667,63.865333)" />
    <path
       id="path3"
       d="m 3.5983047,-2.2272969 c 0,-0.7617187 -0.09375,-1.3125 -0.4101563,-1.8046875 -0.2226562,-0.3164062 -0.6445312,-0.5976562 -1.2070312,-0.5976562 -1.61718751,0 -1.61718751,1.8984375 -1.61718751,2.4023437 0,0.5039063 0,2.36718752 1.61718751,2.36718752 1.6171875,0 1.6171875,-1.86328122 1.6171875,-2.36718752 z m -1.6171875,2.16796877 c -0.3164063,0 -0.75,-0.1875 -0.890625,-0.76171875 -0.09375,-0.41015622 -0.09375,-0.98437502 -0.09375,-1.50000002 0,-0.5039062 0,-1.03125 0.1054687,-1.4179687 0.1523438,-0.5507813 0.5976563,-0.6914063 0.8789063,-0.6914063 0.375,0 0.7382812,0.2226563 0.8671875,0.6328125 0.1054687,0.375 0.1171875,0.8789063 0.1171875,1.4765625 0,0.515625 0,1.0429688 -0.09375,1.47656252 -0.140625,0.6328125 -0.609375,0.78515625 -0.890625,0.78515625 z m 0,0"
       style="fill:#737373;fill-opacity:1;fill-rule:nonzero;stroke:none"
       aria-label="0"
       transform="matrix(1.3333333,0,0,1.3333333,24.518667,84.930667)" />
    <path
       id="path4"
       d="M 16.4412,-11.33871 H 44.78799 V 11.33872 H 16.4412 Z"
       style="fill:#fafafa;fill-opacity:1;fill-rule:nonzero;stroke:#d1d1d1;stroke-width:0.44832;stroke-linecap:butt;stroke-linejoin:miter;stroke-miterlimit:10;stroke-dasharray:none;stroke-opacity:1"
       transform="matrix(1.3333333,0,0,-1.3333333,27.166667,60.013333)" />
    <path
       id="path5"
       d="M 4.1372656,-1.5806406 H 3.8911719 c -0.023437,0.1171875 -0.09375,0.64453122 -0.2109375,0.78515622 -0.046875,0.0820313 -0.6679688,0.0820313 -0.84375,0.0820313 h -1.59375 L 2.1216406,-1.5572031 c 1.4765625,-1.2773438 2.015625,-1.7460938 2.015625,-2.6601563 0,-1.03125 -0.84375,-1.7460937 -1.9453125,-1.7460937 -1.03125,0 -1.73437497,0.8085937 -1.73437497,1.6289062 0,0.4453125 0.38671875,0.4921875 0.46875,0.4921875 0.19921877,0 0.46874997,-0.140625 0.46874997,-0.46875 0,-0.2695312 -0.1875,-0.46875 -0.46874997,-0.46875 -0.046875,0 -0.0703125,0 -0.10546875,0.011719 0.21093752,-0.6328125 0.78515622,-0.9257813 1.26562502,-0.9257813 0.9140625,0 1.2304687,0.8554688 1.2304687,1.4765625 0,0.9140625 -0.6914062,1.6523438 -1.125,2.1210938 l -1.64062497,1.76953122 c -0.09375,0.10546875 -0.09375,0.1171875 -0.09375,0.328125 H 3.8911719 Z m 0,0"
       style="fill:#bfbfbf;fill-opacity:1;fill-rule:nonzero;stroke:none"
       aria-label="2"
       transform="matrix(1.3333333,0,0,1.3333333,64.913333,63.865333)" />
    <path
       id="path6"
       d="m 2.3329141,-4.4304219 c 0,-0.1875 -0.011719,-0.1992187 -0.2109375,-0.1992187 -0.4453125,0.4335937 -1.078125,0.4453125 -1.35937504,0.4453125 v 0.2460937 c 0.1640625,0 0.62109374,0 1.00781254,-0.1875 v 3.55078127 c 0,0.234375 0,0.328125 -0.6914063,0.328125 H 0.80947656 V -7.34375e-4 C 0.93838281,-0.01245313 1.7938516,-0.02417188 2.0516641,-0.02417188 c 0.2109375,0 1.0898437,0.01171875 1.2421875,0.023437505 V -0.24682813 H 3.0360391 c -0.703125,0 -0.703125,-0.09375 -0.703125,-0.328125 z m 0,0"
       style="fill:#737373;fill-opacity:1;fill-rule:nonzero;stroke:none"
       aria-label="1"
       transform="matrix(1.3333333,0,0,1.3333333,65.338667,84.930667)" />
    <path
       id="path7"
       d="M 47.0558,-11.33871 H 75.40259 V 11.33872 H 47.0558 Z"
       style="fill:#e0e0e0;fill-opacity:1;fill-rule:nonzero;stroke:#000000;stroke-width:0.84683;stroke-linecap:butt;stroke-linejoin:miter;stroke-miterlimit:10;stroke-dasharray:none;stroke-opacity:1"
       transform="matrix(1.3333333,0,0,-1.3333333,27.166667,60.013333)" />
    <path
       id="path8"
       d="m 0.25859375,-1.7564219 v 0.28125 H 2.7078125 v 0.77343752 c 0,0.328125 -0.023437,0.421875 -0.703125,0.421875 h -0.1875 v 0.28125 c 0.5625,-0.0234375 1.1835938,-0.0234375 1.2539063,-0.0234375 0.035156,0 0.6914062,0 1.2539062,0.0234375 v -0.28125 H 4.1257813 c -0.6679688,0 -0.703125,-0.09375 -0.703125,-0.421875 V -1.4751719 h 0.9140625 v -0.28125 H 3.4226563 v -4.0664062 c 0,-0.1875 0,-0.2460938 -0.1640625,-0.2460938 -0.1054688,0 -0.1171875,0.011719 -0.1992188,0.140625 z m 0.29296875,0 2.2148438,-3.3164062 v 3.3164062 z m 0,0"
       style="fill:#000000;fill-opacity:1;fill-rule:nonzero;stroke:none"
       aria-label="4"
       transform="matrix(1.3333333,0,0,1.3333333,105.73333,63.865333)" />
    <path
       id="path9"
       d="M 3.5148125,-1.2663594 H 3.2804375 C 3.257,-1.1140156 3.1984063,-0.70385938 3.1046563,-0.63354688 3.0460625,-0.59839063 2.507,-0.59839063 2.41325,-0.59839063 H 1.1241875 c 0.7382813,-0.64453127 0.984375,-0.84374997 1.3945313,-1.17187497 0.515625,-0.4101563 0.9960937,-0.84375 0.9960937,-1.5 0,-0.84375 -0.7382812,-1.359375 -1.6289062,-1.359375 -0.8671875,0 -1.45312505,0.609375 -1.45312505,1.2421875 0,0.3632812 0.3046875,0.3984375 0.375,0.3984375 0.1640625,0 0.37500005,-0.1171875 0.37500005,-0.375 0,-0.1289063 -0.058594,-0.3632813 -0.42187505,-0.3632813 0.22265625,-0.5039062 0.69140625,-0.65625 1.01953125,-0.65625 0.703125,0 1.0664063,0.5507813 1.0664063,1.1132813 0,0.609375 -0.4335938,1.0898437 -0.65625,1.3359375 l -1.68750005,1.66406247 c -0.0703125,0.0585937 -0.0703125,0.0703125 -0.0703125,0.269531255 H 3.3155938 Z m 0,0"
       style="fill:#737373;fill-opacity:1;fill-rule:nonzero;stroke:none"
       aria-label="2"
       transform="matrix(1.3333333,0,0,1.3333333,106.15733,84.930667)" />
    <path
       id="path10"
       d="M 77.67041,-11.33871 H 106.0172 V 11.33872 H 77.67041 Z"
       style="fill:#ffffff;fill-opacity:1;fill-rule:nonzero;stroke:#666666;stroke-width:0.44832;stroke-linecap:butt;stroke-linejoin:miter;stroke-miterlimit:10;stroke-dasharray:none;stroke-opacity:1"
       transform="matrix(1.3333333,0,0,-1.3333333,27.166667,60.013333)" />
    <path
       id="path11"
       d="m 0.93658594,-3.0923594 c 0,0.1640625 0,0.2578125 0.11718746,0.2578125 0.070312,0 0.1054688,-0.035156 0.1523438,-0.1171875 0.2695312,-0.375 0.703125,-0.5859375 1.171875,-0.5859375 0.9609375,0 0.9609375,1.3828125 0.9609375,1.6992188 0,0.28125 0,0.8320312 -0.2578125,1.24218747 -0.234375,0.375 -0.6210938,0.5390625 -0.9609375,0.5390625 -0.5390625,0 -1.13671876,-0.328125 -1.34765626,-0.99609377 0.0117188,0 0.0585938,0.023437 0.1171875,0.023437 0.18749996,0 0.44531246,-0.1171875 0.44531246,-0.4335937 0,-0.28125 -0.1992187,-0.4453125 -0.44531246,-0.4453125 -0.1875,0 -0.43359375,0.1054687 -0.43359375,0.46875 0,0.80859372 0.67968751,1.64062497 1.67578121,1.64062497 1.0898438,0 2.0039063,-0.87890625 2.0039063,-1.99218747 0,-1.0898438 -0.7617188,-1.96875 -1.7460938,-1.96875 -0.421875,0 -0.8671875,0.140625 -1.1835937,0.4570312 v -1.7578125 c 0.2695312,0.082031 0.5507812,0.1171875 0.8320312,0.1171875 1.1015625,0 1.7460938,-0.796875 1.7460938,-0.9140625 0,-0.070312 -0.058594,-0.1054687 -0.1054688,-0.1054687 -0.011719,0 -0.035156,0 -0.1171875,0.035156 -0.4101562,0.1757813 -0.8320312,0.2460938 -1.2070312,0.2460938 -0.3867188,0 -0.7851563,-0.070312 -1.1953125,-0.2460938 -0.09375,-0.035156 -0.1054688,-0.035156 -0.1171875,-0.035156 -0.10546876,0 -0.10546876,0.082031 -0.10546876,0.234375 z m 0,0"
       style="fill:#000000;fill-opacity:1;fill-rule:nonzero;stroke:none"
       aria-label="5"
       transform="matrix(1.3333333,0,0,1.3333333,146.552,63.865333)" />
    <path
       id="path12"
       d="m 1.8988594,-2.3327656 c 0.5507812,0 0.9375,0.375 0.9375,1.125 0,0.86718747 -0.5039063,1.12499997 -0.9023438,1.12499997 -0.28125,0 -0.890625,-0.08203125 -1.18359372,-0.4921875 0.32812502,-0.0117188 0.39843752,-0.24609375 0.39843752,-0.38671875 0,-0.22265622 -0.16406252,-0.38671872 -0.38671877,-0.38671872 -0.1875,0 -0.38671875,0.1171875 -0.38671875,0.41015622 0,0.65625 0.72656252,1.078125 1.57031252,1.078125 0.9726562,0 1.640625,-0.64453125 1.640625,-1.34765622 0,-0.5390625 -0.4453125,-1.0898438 -1.21875,-1.2421875 0.7382812,-0.2695313 0.9960937,-0.796875 0.9960937,-1.21875 0,-0.5507813 -0.6328125,-0.9609375 -1.40625,-0.9609375 -0.7734375,0 -1.35937497,0.375 -1.35937497,0.9375 0,0.234375 0.15234375,0.3632812 0.36328125,0.3632812 0.21093752,0 0.35156252,-0.1640625 0.35156252,-0.3515625 0,-0.1992187 -0.140625,-0.3515625 -0.35156252,-0.3632812 0.23437502,-0.3046875 0.71484372,-0.3867188 0.97265622,-0.3867188 0.3164063,0 0.7617188,0.1523438 0.7617188,0.7617188 0,0.2929687 -0.1054688,0.609375 -0.28125,0.8320312 -0.234375,0.2578125 -0.421875,0.28125 -0.7734375,0.2929688 -0.1757813,0.023437 -0.1875,0.023437 -0.2226563,0.023437 -0.011719,0 -0.070312,0.011719 -0.070312,0.09375 0,0.09375 0.058594,0.09375 0.1757813,0.09375 z m 0,0"
       style="fill:#737373;fill-opacity:1;fill-rule:nonzero;stroke:none"
       aria-label="3"
       transform="matrix(1.3333333,0,0,1.3333333,146.976,84.930667)" />
    <path
       id="path13"
       d="m 108.285,-11.33871 h 28.34679 V 11.33872 H 108.285 Z"
       style="fill:#ffffff;fill-opacity:1;fill-rule:nonzero;stroke:#666666;stroke-width:0.44832;stroke-linecap:butt;stroke-linejoin:miter;stroke-miterlimit:10;stroke-dasharray:none;stroke-opacity:1"
       transform="matrix(1.3333333,0,0,-1.3333333,27.166667,60.013333)" />
    <path
       id="path14"
       d="m 1.2073516,-2.9634531 c 0,-0.9140625 0.09375,-1.4296875 0.3398437,-1.8984375 0.1757813,-0.3632813 0.609375,-0.8789063 1.2773438,-0.8789063 0.1757812,0 0.5859375,0.035156 0.796875,0.3515625 -0.328125,0 -0.46875,0.1757813 -0.46875,0.4101563 0,0.234375 0.1523437,0.421875 0.4101562,0.421875 0.2460938,0 0.421875,-0.1640625 0.421875,-0.4335938 0,-0.5039062 -0.3632812,-0.9726562 -1.1835937,-0.9726562 -1.1484375,0 -2.41406254,1.1367187 -2.41406254,3.1289062 0,2.43750002 1.08984374,3.03515627 1.93359374,3.03515627 0.9960938,0 1.8984375,-0.83203125 1.8984375,-2.01562497 0,-1.1367188 -0.8320312,-2.0039063 -1.8398437,-2.0039063 -0.5390625,0 -0.9257813,0.3164063 -1.171875,0.8554688 z m 1.1015625,2.90624997 c -0.5039063,0 -0.796875,-0.421875 -0.9140625,-0.6796875 C 1.2307891,-1.1353281 1.2190703,-1.8853281 1.2190703,-2.0259531 c 0,-0.5976563 0.28125,-1.5703125 1.1367188,-1.5703125 0.140625,0 0.5859375,0 0.8671875,0.5625 0.1757812,0.3398437 0.1757812,0.7734375 0.1757812,1.2070312 0,0.4335938 0,0.86718752 -0.1757812,1.19531252 -0.2695313,0.515625 -0.6679688,0.57421875 -0.9140625,0.57421875 z m 0,0"
       style="fill:#000000;fill-opacity:1;fill-rule:nonzero;stroke:none"
       aria-label="6"
       transform="matrix(1.3333333,0,0,1.3333333,187.37067,63.865333)" />
    <path
       id="path15"
       d="M 3.6901328,-1.1491719 V -1.3952656 H 2.9166953 v -3.1054688 c 0,-0.1523437 0,-0.1992187 -0.1523437,-0.1992187 -0.09375,0 -0.1171875,0 -0.1875,0.09375 l -2.30859379,3.2109375 v 0.2460937 H 2.3190391 v 0.57421877 c 0,0.234375 0,0.328125 -0.5625,0.328125 h -0.1875 v 0.246093755 c 0.3515625,-0.011718755 0.796875,-0.023437505 1.0429687,-0.023437505 0.2578125,0 0.703125,0.01171875 1.0546875,0.023437505 V -0.24682813 h -0.1875 c -0.5625,0 -0.5625,-0.09375 -0.5625,-0.328125 V -1.1491719 Z M 2.3659141,-3.9499531 v 2.5546875 H 0.52607031 Z m 0,0"
       style="fill:#737373;fill-opacity:1;fill-rule:nonzero;stroke:none"
       aria-label="4"
       transform="matrix(1.3333333,0,0,1.3333333,187.79467,84.930667)" />
    <path
       id="path16"
       d="M 138.89961,-11.33871 H 167.2464 V 11.33872 H 138.89961 Z"
       style="fill:#ffffff;fill-opacity:1;fill-rule:nonzero;stroke:#666666;stroke-width:0.44832;stroke-linecap:butt;stroke-linejoin:miter;stroke-miterlimit:10;stroke-dasharray:none;stroke-opacity:1"
       transform="matrix(1.3333333,0,0,-1.3333333,27.166667,60.013333)" />
    <path
       id="path17"
       d="m 1.5455,-4.0650156 c -0.2695312,-0.1757813 -0.4804687,-0.4101563 -0.4804687,-0.75 0,-0.5859375 0.6328125,-0.9257813 1.21875,-0.9257813 0.6914062,0 1.2421875,0.4804688 1.2421875,1.1015625 0,0.6328125 -0.5273438,1.0429688 -0.890625,1.2539063 z m 1.3125,0.8203125 c 0.4453125,-0.2109375 1.1015625,-0.6679688 1.1015625,-1.3945313 0,-0.8320312 -0.84375,-1.3242187 -1.6523437,-1.3242187 -0.9375,0 -1.6757813,0.6679687 -1.6757813,1.4882812 0,0.3398438 0.12890625,0.6679688 0.33984375,0.9257813 0.15234375,0.1757812 0.21093755,0.2109375 0.72656255,0.5390625 -0.7851563,0.375 -1.31250005,0.9257812 -1.31250005,1.6523437 0,0.96093752 0.93750005,1.55859377 1.91015625,1.55859377 1.0429688,0 1.921875,-0.73828125 1.921875,-1.71093747 0,-0.8671875 -0.6679687,-1.2890625 -0.890625,-1.4414063 C 3.2212813,-3.0220469 2.9634688,-3.1861094 2.858,-3.2447031 Z m -0.9140625,0.3867187 1.125,0.703125 c 0.2109375,0.1289063 0.65625,0.421875 0.65625,0.9609375 0,0.71484377 -0.7148437,1.13671877 -1.4179687,1.13671877 -0.7851563,0 -1.4414063,-0.55078125 -1.4414063,-1.30078127 0,-0.6445312 0.4453125,-1.171875 1.078125,-1.5 z m 0,0"
       style="fill:#000000;fill-opacity:1;fill-rule:nonzero;stroke:none"
       aria-label="8"
       transform="matrix(1.3333333,0,0,1.3333333,228.18933,63.865333)" />
    <path
       id="path18"
       d="m 1.0780859,-3.8913594 c 0.3632813,0.09375 0.5625,0.09375 0.6796875,0.09375 0.9140625,0 1.4648438,-0.6328125 1.4648438,-0.7382812 0,-0.070312 -0.046875,-0.09375 -0.082031,-0.09375 -0.011719,0 -0.035156,0 -0.058594,0.023437 -0.1640625,0.058594 -0.5390625,0.1992187 -1.0546875,0.1992187 -0.1992188,0 -0.5625,-0.011719 -1.0195313,-0.1875 -0.0703125,-0.035156 -0.0820312,-0.035156 -0.0820312,-0.035156 -0.09375,0 -0.09375,0.070312 -0.09375,0.1875 v 2.0625 c 0,0.1171875 0,0.1992187 0.10546875,0.1992187 0.0703126,0 0.0703126,-0.011719 0.14062495,-0.1054687 0.3046875,-0.375 0.7265625,-0.4335938 0.9726563,-0.4335938 0.421875,0 0.609375,0.3398438 0.6445312,0.3867188 0.1171875,0.234375 0.1640625,0.5039062 0.1640625,0.9023437 0,0.2109375 0,0.62109377 -0.2109375,0.92578127 -0.1757812,0.2578125 -0.46875,0.421875 -0.8203125,0.421875 -0.4453125,0 -0.91406245,-0.2578125 -1.0898437,-0.71484375 0.2695312,0.0234375 0.3984375,-0.15234375 0.3984375,-0.33984372 0,-0.3046875 -0.2578125,-0.3515625 -0.3515625,-0.3515625 -0.0117188,0 -0.3515625,0 -0.3515625,0.375 0,0.62109372 0.5742187,1.25390622 1.4179687,1.25390622 0.890625,0 1.6640625,-0.66796875 1.6640625,-1.54687502 0,-0.7851562 -0.5976562,-1.5117187 -1.453125,-1.5117187 -0.3164062,0 -0.6796875,0.082031 -0.984375,0.3398437 z m 0,0"
       style="fill:#737373;fill-opacity:1;fill-rule:nonzero;stroke:none"
       aria-label="5"
       transform="matrix(1.3333333,0,0,1.3333333,228.61333,84.930667)" />
    <path
       id="path19"
       d="m 169.51422,-11.33871 h 28.34679 v 22.67743 h -28.34679 z"
       style="fill:#e0e0e0;fill-opacity:1;fill-rule:nonzero;stroke:#000000;stroke-width:0.84683;stroke-linecap:butt;stroke-linejoin:miter;stroke-miterlimit:10;stroke-dasharray:none;stroke-opacity:1"
       transform="matrix(1.3333333,0,0,-1.3333333,27.166667,60.013333)" />
    <path
       id="path20"
       d="m 2.7305937,-5.7290781 c 0,-0.2226563 -0.011719,-0.234375 -0.234375,-0.234375 -0.5625,0.5625 -1.3828125,0.5625 -1.66406245,0.5625 v 0.28125 c 0.17578125,0 0.71484375,0 1.20703125,-0.234375 v 4.64062497 c 0,0.328125 -0.035156,0.43359375 -0.8671875,0.43359375 H 0.89075 v 0.28125 c 0.3164062,-0.0234375 1.1132812,-0.0234375 1.4882812,-0.0234375 0.3632813,0 1.171875,0 1.4882813,0.0234375 v -0.28125 h -0.28125 c -0.8320313,0 -0.8554688,-0.10546875 -0.8554688,-0.43359375 z m 6.1201172,2.859375 c 0,-0.5976563 -0.023437,-1.3710938 -0.3398437,-2.0390625 -0.3984375,-0.84375 -1.078125,-1.0546875 -1.59375,-1.0546875 -0.5390625,0 -1.21875,0.2109375 -1.6171875,1.0664062 -0.2929688,0.6210938 -0.328125,1.3476563 -0.328125,2.0273438 0,0.5859375 0.011719,1.453125 0.3984375,2.16796872 0.421875,0.76171875 1.125,0.90234375 1.5351562,0.90234375 0.5859375,0 1.2421875,-0.2578125 1.6171875,-1.078125 0.2695313,-0.59765627 0.328125,-1.27734377 0.328125,-1.99218747 z m -1.9335937,2.84765622 c -0.2695313,0 -0.9140625,-0.12890625 -1.0898438,-1.13671872 -0.09375,-0.5390625 -0.09375,-1.3007813 -0.09375,-1.8164063 0,-0.609375 0,-1.3125 0.1171875,-1.8164062 0.1757813,-0.796875 0.75,-0.9492188 1.0546875,-0.9492188 0.3398438,0 0.9023438,0.1757813 1.078125,1.0078125 0.09375,0.4921875 0.09375,1.1953125 0.09375,1.7578125 0,0.5507813 0,1.3125 -0.09375,1.8398438 -0.1875,1.01953122 -0.84375,1.11328122 -1.0664062,1.11328122 z m 0,0"
       style="fill:#000000;fill-opacity:1;fill-rule:nonzero;stroke:none"
       aria-label="10"
       transform="matrix(1.3333333,0,0,1.3333333,265.93733,63.865333)" />
    <path
       id="path21"
       d="m 1.0431641,-2.2858906 c 0,-0.5625 0.046875,-1.078125 0.3164062,-1.5117188 0.234375,-0.375 0.609375,-0.6328125 1.0546875,-0.6328125 0.2109375,0 0.4921875,0.058594 0.6328125,0.2460938 -0.1757812,0.011719 -0.3164062,0.1289062 -0.3164062,0.3398437 0,0.1640625 0.1171875,0.328125 0.328125,0.328125 0.1992187,0 0.328125,-0.140625 0.328125,-0.3515625 0,-0.3984375 -0.2929688,-0.7617187 -0.984375,-0.7617187 -0.9960938,0 -2.02734379,0.9140625 -2.02734379,2.4140625 0,1.80468747 0.85546879,2.35546872 1.61718749,2.35546872 0.8554688,0 1.59375,-0.64453125 1.59375,-1.55859372 0,-0.890625 -0.703125,-1.546875 -1.5234375,-1.546875 -0.5507812,0 -0.8671875,0.375 -1.0195312,0.6796875 z m 0.9492187,2.20312497 c -0.3515625,0 -0.6210937,-0.19921875 -0.7617187,-0.515625 C 1.1251953,-0.79760938 1.0666016,-1.1491719 1.0666016,-1.5710469 c 0,-0.6796875 0.4101562,-1.1953125 0.9609375,-1.1953125 0.328125,0 0.5390625,0.1171875 0.7148437,0.3867188 0.1640625,0.2578125 0.1757813,0.5507812 0.1757813,0.9609375 0,0.3984375 0,0.69140622 -0.1875,0.96093747 -0.1757813,0.24609375 -0.3984375,0.375 -0.7382813,0.375 z m 0,0"
       style="fill:#737373;fill-opacity:1;fill-rule:nonzero;stroke:none"
       aria-label="6"
       transform="matrix(1.3333333,0,0,1.3333333,269.43333,84.930667)" />
    <path
       id="path22"
       d="m 200.12885,-11.33871 h 28.34679 v 22.67743 h -28.34679 z"
       style="fill:#fafafa;fill-opacity:1;fill-rule:nonzero;stroke:#d1d1d1;stroke-width:0.44832;stroke-linecap:butt;stroke-linejoin:miter;stroke-miterlimit:10;stroke-dasharray:none;stroke-opacity:1"
       transform="matrix(1.3333333,0,0,-1.3333333,27.166667,60.013333)" />
    <path
       id="path23"
       d="m 2.7318281,-5.7290781 c 0,-0.2226563 -0.011719,-0.234375 -0.234375,-0.234375 -0.5625,0.5625 -1.3828125,0.5625 -1.66406248,0.5625 v 0.28125 c 0.17578128,0 0.71484378,0 1.20703128,-0.234375 v 4.64062497 c 0,0.328125 -0.035156,0.43359375 -0.8671875,0.43359375 H 0.89198437 v 0.28125 c 0.31640623,-0.0234375 1.11328123,-0.0234375 1.48828123,-0.0234375 0.3632813,0 1.171875,0 1.4882813,0.0234375 v -0.28125 h -0.28125 c -0.8320313,0 -0.8554688,-0.10546875 -0.8554688,-0.43359375 z m 6.0117188,4.1484375 H 8.4974531 c -0.023437,0.1171875 -0.09375,0.64453122 -0.2109375,0.78515622 -0.046875,0.0820313 -0.6679687,0.0820313 -0.84375,0.0820313 h -1.59375 L 6.7279219,-1.5572031 c 1.4765625,-1.2773438 2.015625,-1.7460938 2.015625,-2.6601563 0,-1.03125 -0.84375,-1.7460937 -1.9453125,-1.7460937 -1.03125,0 -1.734375,0.8085937 -1.734375,1.6289062 0,0.4453125 0.3867187,0.4921875 0.46875,0.4921875 0.1992187,0 0.46875,-0.140625 0.46875,-0.46875 0,-0.2695312 -0.1875,-0.46875 -0.46875,-0.46875 -0.046875,0 -0.070312,0 -0.1054688,0.011719 0.2109375,-0.6328125 0.7851563,-0.9257813 1.265625,-0.9257813 0.9140625,0 1.2304688,0.8554688 1.2304688,1.4765625 0,0.9140625 -0.6914063,1.6523438 -1.125,2.1210938 l -1.640625,1.76953122 c -0.09375,0.10546875 -0.09375,0.1171875 -0.09375,0.328125 h 3.4335937 z m 0,0"
       style="fill:#bfbfbf;fill-opacity:1;fill-rule:nonzero;stroke:none"
       aria-label="12"
       transform="matrix(1.3333333,0,0,1.3333333,306.756,63.865333)" />
    <path
       id="path24"
       d="m 3.7279922,-4.2077656 c 0.070312,-0.09375 0.070312,-0.1054688 0.070312,-0.28125 h -1.828125 c -0.2695313,0 -0.3515625,-0.011719 -0.5976563,-0.035156 -0.3632812,-0.023437 -0.38671871,-0.070312 -0.39843746,-0.1875 H 0.72799219 l -0.234375,1.4882813 h 0.234375 c 0.0117188,-0.1054688 0.0820313,-0.5625 0.19921875,-0.6328125 0.046875,-0.046875 0.60937496,-0.046875 0.71484376,-0.046875 h 1.5234375 c -0.2226563,0.2929687 -0.5742188,0.7265625 -0.7265625,0.9257812 -0.9140625,1.1953125 -0.9960938,2.30859377 -0.9960938,2.71875002 0,0.0820312 0,0.3984375 0.328125,0.3984375 0.3398438,0 0.3398438,-0.31640625 0.3398438,-0.41015625 v -0.26953125 c 0,-1.35937502 0.2695312,-1.98046872 0.5742187,-2.35546872 z m 0,0"
       style="fill:#737373;fill-opacity:1;fill-rule:nonzero;stroke:none"
       aria-label="7"
       transform="matrix(1.3333333,0,0,1.3333333,310.252,84.930667)" />
    <path
       id="path25"
       d="m 2.3079141,-5.9185547 c 0.035156,-0.1289062 0.035156,-0.140625 0.035156,-0.1757812 0,-0.082031 -0.046875,-0.1289063 -0.1289062,-0.1289063 -0.1523438,0 -0.9023438,0.070312 -1.0898438,0.09375 -0.070312,0.011719 -0.18749999,0.011719 -0.18749999,0.1640625 0,0.1171875 0.10546879,0.1171875 0.23437499,0.1171875 0.421875,0 0.421875,0.070312 0.421875,0.140625 0,0.046875 0,0.058594 -0.046875,0.2226563 l -1.10156249,4.40625 c -0.046875,0.18749996 -0.046875,0.30468746 -0.046875,0.33984371 0,0.5625 0.45703125,0.83203125 0.85546879,0.83203125 0.4101562,0 0.5976562,-0.31640625 0.6914062,-0.515625 0.1640625,-0.31640625 0.2695313,-0.83203126 0.2695313,-0.85546876 0,-0.046875 -0.023437,-0.1171875 -0.1171875,-0.1171875 -0.1054688,0 -0.1171875,0.046875 -0.1523438,0.2226563 -0.1523437,0.60937496 -0.328125,1.04296871 -0.6679687,1.04296871 -0.1757813,0 -0.2695313,-0.1171875 -0.2695313,-0.41015625 0,-0.1875 0.011719,-0.24609375 0.046875,-0.3984375 z m 0,0"
       style="fill:#000000;fill-opacity:1;fill-rule:nonzero;stroke:none"
       aria-label="l"
       transform="matrix(1.3333333,0,0,1.3333333,106.872,20.7)" />
    <path
       id="path26"
       d="M 61.2292,25.96545 V 17.32582"
       style="fill:none;stroke:#000000;stroke-width:0.49814;stroke-linecap:butt;stroke-linejoin:miter;stroke-miterlimit:10;stroke-dasharray:none;stroke-opacity:1"
       transform="matrix(1.3333333,0,0,-1.3333333,27.166667,60.013333)" />
    <path
       id="path27"
       d="M 3.54292,0 C 3.10782,0.10701 1.19533,0.71347 0,1.37344 V -1.37344 C 1.19533,-0.71347 3.10782,-0.10701 3.54292,0 Z"
       style="fill:#000000;fill-opacity:1;fill-rule:nonzero;stroke:#000000;stroke-width:0.49814;stroke-linecap:butt;stroke-linejoin:miter;stroke-miterlimit:10;stroke-dasharray:none;stroke-opacity:1"
       transform="matrix(0,1.3333333,1.3333333,0,108.8056,36.91224)" />
    <path
       id="path28"
       d="m 3.6206328,-3.6339922 c -0.2929687,0.058594 -0.4453125,0.3046875 -0.4453125,0.4921875 0,0.1757813 0.1289063,0.328125 0.3515625,0.328125 0.234375,0 0.4921875,-0.2109375 0.4921875,-0.5390625 0,-0.3515625 -0.328125,-0.609375 -0.7617187,-0.609375 -0.6796875,0 -1.0546875,0.5039063 -1.1835938,0.6679688 -0.1054687,-0.4921875 -0.5039062,-0.6679688 -0.84375,-0.6679688 -0.32812499,0 -0.52734374,0.1992188 -0.67968749,0.5039063 -0.17578125,0.328125 -0.29296875,0.84375 -0.29296875,0.8789062 0,0.082031 0.0703125,0.1054688 0.12890625,0.1054688 0.09375,0 0.1171875,-0.046875 0.1640625,-0.2226563 0.1640625,-0.7148437 0.3515625,-1.0429687 0.65624999,-1.0429687 0.2695313,0 0.2695313,0.28125 0.2695313,0.421875 0,0.1875 -0.070312,0.46875 -0.1171875,0.703125 -0.070312,0.234375 -0.1523438,0.609375 -0.1992188,0.7265625 l -0.35156249,1.46484371 c -0.0703125,0.2109375 -0.0703125,0.234375 -0.0703125,0.2578125 0,0.1171875 0.0820313,0.2578125 0.28124999,0.2578125 0.2929688,0 0.3515625,-0.234375 0.4101563,-0.4921875 0.1171875,-0.38671875 0.1171875,-0.41015625 0.1992187,-0.77343751 0.3398438,-1.3476562 0.3867188,-1.5585937 0.4101563,-1.6054687 0.046875,-0.1054688 0.4570312,-0.9609375 1.2070312,-0.9609375 0.2109375,0 0.328125,0.070312 0.375,0.1054687 z m 0,0"
       style="fill:#000000;fill-opacity:1;fill-rule:nonzero;stroke:none"
       aria-label="r"
       transform="matrix(1.3333333,0,0,1.3333333,269.13733,19.122667)" />
    <path
       id="path29"
       d="M 183.68718,27.14854 V 17.32582"
       style="fill:none;stroke:#000000;stroke-width:0.49814;stroke-linecap:butt;stroke-linejoin:miter;stroke-miterlimit:10;stroke-dasharray:none;stroke-opacity:1"
       transform="matrix(1.3333333,0,0,-1.3333333,27.166667,60.013333)" />
    <path
       id="path30"
       d="M 3.54292,0 C 3.10782,0.10701 1.19533,0.71347 0,1.37344 V -1.37344 C 1.19533,-0.71347 3.10782,-0.10701 3.54292,0 Z"
       style="fill:#000000;fill-opacity:1;fill-rule:nonzero;stroke:#000000;stroke-width:0.49814;stroke-linecap:butt;stroke-linejoin:miter;stroke-miterlimit:10;stroke-dasharray:none;stroke-opacity:1"
       transform="matrix(0,1.3333333,1.3333333,0,272.08291,36.91224)" />
    <path
       id="path31"
       d="m 47.0558,-36.28403 c 0.59775,-1.19554 1.99256,-1.99255 3.98511,-1.99255 h 67.43239 c 1.99255,0 3.38736,-0.79702 3.9851,-1.99255 0.59775,1.19553 1.99256,1.99255 3.98511,1.99255 h 67.43241 c 1.99255,0 3.38736,0.79701 3.9851,1.99255"
       style="fill:none;stroke:#000000;stroke-width:0.44832;stroke-linecap:butt;stroke-linejoin:miter;stroke-miterlimit:10;stroke-dasharray:none;stroke-opacity:1"
       transform="matrix(1.3333333,0,0,-1.3333333,27.166667,60.013333)" />
    <g
       id="g31"
       aria-label="A&#10;2&#10;+A&#10;6&#10;=4+10=14&gt;13⇒r−−"
       transform="matrix(1.3333333,0,0,1.3333333,68.721333,123.90667)">
      <path
         id="path32"
         d="m 1.6298984,-1.055 c -0.4335937,0.7265625 -0.83203121,0.75 -1.19531246,0.7734375 -0.0585938,0.0117188 -0.10546875,0.0820313 -0.10546875,0.1640625 0,0.05859375 0.0351563,0.1171875 0.12890625,0.1171875 0.17578125,0 0.59765626,-0.0234375 0.76171876,-0.0234375 0.1992187,0 0.6796875,0.0234375 0.8789062,0.0234375 0.058594,0 0.1757813,0 0.1757813,-0.1640625 0,-0.10546875 -0.1171875,-0.1171875 -0.140625,-0.1171875 -0.082031,0 -0.421875,-0.0234375 -0.421875,-0.29296875 0,-0.12890625 0.1054687,-0.29296875 0.1289062,-0.33984375 l 0.703125,-1.1601563 h 2.34375 c 0.023437,0.2109375 0.058594,0.515625 0.082031,0.7382813 0.035156,0.3515625 0.082031,0.75 0.082031,0.7734375 0,0.12890625 -0.1171875,0.28125 -0.6445312,0.28125 -0.082031,0 -0.1992188,0 -0.1992188,0.1640625 0,0.09375 0.070312,0.1171875 0.1289063,0.1171875 0.1757812,0 0.3867187,-0.0234375 0.5625,-0.0234375 0.1875,0 0.3984375,0 0.5390625,0 0.3046875,0 0.3164062,0 0.5273437,0 0.1523438,0.01171875 0.3515625,0.0234375 0.5039063,0.0234375 0.046875,0 0.1640625,0 0.1640625,-0.1640625 0,-0.1171875 -0.09375,-0.1171875 -0.1992188,-0.1171875 -0.5390625,0 -0.5507812,-0.0585938 -0.5742187,-0.31640625 L 5.2275547,-6.1760938 c -0.023437,-0.1992187 -0.023437,-0.2460937 -0.1757813,-0.2460937 -0.1289062,0 -0.1875,0.070312 -0.2578125,0.1875 z m 1.0898438,-1.2890625 1.8046875,-2.9648438 0.3398437,2.9648438 z m 0,0"
         style="fill:#000000;fill-opacity:1;fill-rule:nonzero;stroke:none" />
      <path
         id="path33"
         d="M 10.120133,-0.1175 H 9.9091953 C 9.8857583,-0.03546875 9.8271643,0.35125 9.7451328,0.4215625 9.6982578,0.4567188 9.2177891,0.4567188 9.1357578,0.4567188 h -1.125 L 8.7841953,-0.164375 c 0.1992188,-0.1640625 0.7265625,-0.5390625 0.9140625,-0.7265625 0.1757813,-0.1757813 0.4218752,-0.4804688 0.4218752,-0.9023438 0,-0.75 -0.6679689,-1.1835937 -1.4765627,-1.1835937 -0.7617187,0 -1.3007812,0.5039062 -1.3007812,1.0664062 0,0.3046875 0.2578125,0.3398438 0.3164062,0.3398438 0.1523438,0 0.328125,-0.1054688 0.328125,-0.3164063 0,-0.140625 -0.082031,-0.328125 -0.3398437,-0.328125 C 7.7763828,-2.5198438 8.1513828,-2.7425 8.5615391,-2.7425 c 0.6210937,0 0.9609375,0.46875 0.9609375,0.9492187 0,0.421875 -0.28125,0.8554688 -0.703125,1.24218755 L 7.4013828,0.7496875 c -0.058594,0.0585938 -0.058594,0.0585938 -0.058594,0.24609375 h 2.6015625 z m 0,0"
         style="fill:#000000;fill-opacity:1;fill-rule:nonzero;stroke:none" />
      <path
         id="path34"
         d="m 19.436539,-2.0510938 c 0.128906,0 0.316406,0 0.316406,-0.1875 0,-0.1992187 -0.175781,-0.1992187 -0.316406,-0.1992187 h -2.554687 v -2.5664063 c 0,-0.140625 0,-0.3164062 -0.199219,-0.3164062 -0.1875,0 -0.1875,0.1875 -0.1875,0.3164062 v 2.5664063 h -2.566406 c -0.117188,0 -0.304688,0 -0.304688,0.1875 0,0.1992187 0.164063,0.1992187 0.304688,0.1992187 h 2.566406 v 2.5664063 c 0,0.140625 0,0.3046875 0.199219,0.3046875 0.1875,0 0.1875,-0.1875 0.1875,-0.3046875 v -2.5664063 z m 0,0"
         style="fill:#000000;fill-opacity:1;fill-rule:nonzero;stroke:none" />
      <path
         id="path35"
         d="m 23.954117,-1.055 c -0.433594,0.7265625 -0.832031,0.75 -1.195312,0.7734375 -0.05859,0.0117188 -0.105469,0.0820313 -0.105469,0.1640625 0,0.05859375 0.03516,0.1171875 0.128906,0.1171875 0.175781,0 0.597656,-0.0234375 0.761719,-0.0234375 0.199219,0 0.679687,0.0234375 0.878906,0.0234375 0.05859,0 0.175781,0 0.175781,-0.1640625 0,-0.10546875 -0.117187,-0.1171875 -0.140625,-0.1171875 -0.08203,0 -0.421875,-0.0234375 -0.421875,-0.29296875 0,-0.12890625 0.105469,-0.29296875 0.128907,-0.33984375 l 0.703125,-1.1601563 h 2.34375 c 0.02344,0.2109375 0.05859,0.515625 0.08203,0.7382813 0.03516,0.3515625 0.08203,0.75 0.08203,0.7734375 0,0.12890625 -0.117187,0.28125 -0.644531,0.28125 -0.08203,0 -0.199219,0 -0.199219,0.1640625 0,0.09375 0.07031,0.1171875 0.128906,0.1171875 0.175782,0 0.386719,-0.0234375 0.5625,-0.0234375 0.1875,0 0.398438,0 0.539063,0 0.304687,0 0.316406,0 0.527344,0 0.152343,0.01171875 0.351562,0.0234375 0.503906,0.0234375 0.04687,0 0.164062,0 0.164062,-0.1640625 0,-0.1171875 -0.09375,-0.1171875 -0.199218,-0.1171875 -0.539063,0 -0.550782,-0.0585938 -0.574219,-0.31640625 L 27.551773,-6.1760938 c -0.02344,-0.1992187 -0.02344,-0.2460937 -0.175781,-0.2460937 -0.128906,0 -0.1875,0.070312 -0.257812,0.1875 z m 1.089844,-1.2890625 1.804687,-2.9648438 0.339844,2.9648438 z m 0,0"
         style="fill:#000000;fill-opacity:1;fill-rule:nonzero;stroke:none" />
      <path
         id="path36"
         d="m 30.20607,-0.9846875 c 0.01172,-0.2929688 0.02344,-0.796875 0.234375,-1.1601563 0.257813,-0.4570312 0.65625,-0.6328125 1.007813,-0.6328125 0.140625,0 0.410156,0.023437 0.5625,0.1875 -0.222656,0.035156 -0.257813,0.1875 -0.257813,0.28125 0,0.1640625 0.105469,0.2929688 0.28125,0.2929688 0.175782,0 0.292969,-0.1171875 0.292969,-0.3046875 0,-0.3632813 -0.269531,-0.65625 -0.878906,-0.65625 -0.925781,0 -1.839844,0.8085937 -1.839844,2.07421875 0,1.453125 0.679688,2.02734375 1.464844,2.02734375 0.234375,0 0.644531,-0.035156 1.007812,-0.38671875 0.1875,-0.19921875 0.421875,-0.43359375 0.421875,-0.9609375 0,-0.19921875 -0.02344,-0.5859375 -0.386718,-0.92578125 -0.210938,-0.1875 -0.46875,-0.3984375 -0.984375,-0.3984375 -0.421875,0 -0.726563,0.2109375 -0.925782,0.5625 z m 0.867188,1.88671875 c -0.84375,0 -0.84375,-1.01953125 -0.84375,-1.25390625 0,-0.515625 0.339844,-1.0078125 0.878906,-1.0078125 0.304688,0 0.480469,0.1289062 0.632813,0.3164062 0.164062,0.23437505 0.164062,0.5039063 0.164062,0.82031255 0,0.41015625 -0.01172,0.609375 -0.210937,0.85546875 -0.152344,0.17578125 -0.339844,0.26953125 -0.621094,0.26953125 z m 0,0"
         style="fill:#000000;fill-opacity:1;fill-rule:nonzero;stroke:none" />
      <path
         id="path37"
         d="m 42.296891,-2.9651563 c 0.117187,0 0.292968,0 0.292968,-0.1875 0,-0.1992187 -0.199218,-0.1992187 -0.328125,-0.1992187 h -5.472656 c -0.140625,0 -0.328125,0 -0.328125,0.1992187 0,0.1875 0.175781,0.1875 0.292969,0.1875 z m -0.03516,1.828125 c 0.128907,0 0.328125,0 0.328125,-0.1992187 0,-0.1875 -0.175781,-0.1875 -0.292968,-0.1875 h -5.542969 c -0.117188,0 -0.292969,0 -0.292969,0.1875 0,0.1992187 0.1875,0.1992187 0.328125,0.1992187 z M 45.92677,-1.758125 v 0.28125 h 2.449219 v 0.7734375 c 0,0.328125 -0.02344,0.421875 -0.703125,0.421875 h -0.1875 v 0.28125 c 0.5625,-0.0234375 1.183594,-0.0234375 1.253906,-0.0234375 0.03516,0 0.691407,0 1.253907,0.0234375 v -0.28125 h -0.199219 c -0.667969,0 -0.703125,-0.09375 -0.703125,-0.421875 V -1.476875 h 0.914062 v -0.28125 h -0.914062 v -4.0664063 c 0,-0.1875 0,-0.2460937 -0.164063,-0.2460937 -0.105468,0 -0.117187,0.011719 -0.199218,0.140625 z m 0.292969,0 2.214844,-3.3164063 v 3.3164063 z m 12.436524,-0.2929688 c 0.128906,0 0.316406,0 0.316406,-0.1875 0,-0.1992187 -0.175781,-0.1992187 -0.316406,-0.1992187 h -2.554688 v -2.5664063 c 0,-0.140625 0,-0.3164062 -0.199219,-0.3164062 -0.1875,0 -0.1875,0.1875 -0.1875,0.3164062 v 2.5664063 H 53.14845 c -0.117187,0 -0.304687,0 -0.304687,0.1875 0,0.1992187 0.164062,0.1992187 0.304687,0.1992187 h 2.566406 v 2.5664063 c 0,0.140625 0,0.3046875 0.199219,0.3046875 0.1875,0 0.1875,-0.1875 0.1875,-0.3046875 v -2.5664063 z m 5.616211,-3.6796875 c 0,-0.2226562 -0.01172,-0.234375 -0.234375,-0.234375 -0.5625,0.5625 -1.382813,0.5625 -1.664063,0.5625 v 0.28125 c 0.175781,0 0.714844,0 1.207031,-0.234375 v 4.64062505 c 0,0.328125 -0.03516,0.43359375 -0.867187,0.43359375 h -0.28125 v 0.28125 C 62.749039,-0.02375 63.545914,-0.02375 63.920914,-0.02375 c 0.363281,0 1.171875,0 1.488281,0.0234375 v -0.28125 h -0.28125 c -0.832031,0 -0.855468,-0.10546875 -0.855468,-0.43359375 z m 6.120117,2.859375 c 0,-0.5976562 -0.02344,-1.3710937 -0.339844,-2.0390625 -0.398437,-0.84375 -1.078125,-1.0546875 -1.59375,-1.0546875 -0.539062,0 -1.21875,0.2109375 -1.617187,1.0664063 -0.292969,0.6210937 -0.328125,1.3476562 -0.328125,2.0273437 0,0.5859375 0.01172,1.453125 0.398437,2.1679688 0.421875,0.76171875 1.125,0.90234375 1.535156,0.90234375 0.585938,0 1.242188,-0.2578125 1.617188,-1.078125 C 70.334,-1.476875 70.392594,-2.1565625 70.392594,-2.8714063 Z M 68.459,-0.02375 c -0.269531,0 -0.914062,-0.12890625 -1.089844,-1.1367188 -0.09375,-0.5390625 -0.09375,-1.3007812 -0.09375,-1.8164062 0,-0.609375 0,-1.3125 0.117188,-1.8164063 0.175781,-0.796875 0.75,-0.9492187 1.054687,-0.9492187 0.339844,0 0.902344,0.1757812 1.078125,1.0078125 0.09375,0.4921875 0.09375,1.1953125 0.09375,1.7578125 0,0.5507812 0,1.3125 -0.09375,1.8398437 C 69.337906,-0.1175 68.681656,-0.02375 68.459,-0.02375 Z m 11.214844,-2.9414063 c 0.117187,0 0.292969,0 0.292969,-0.1875 0,-0.1992187 -0.199219,-0.1992187 -0.328125,-0.1992187 h -5.472657 c -0.140625,0 -0.328125,0 -0.328125,0.1992187 0,0.1875 0.175782,0.1875 0.292969,0.1875 z m -0.03516,1.828125 c 0.128906,0 0.328125,0 0.328125,-0.1992187 0,-0.1875 -0.175782,-0.1875 -0.292969,-0.1875 h -5.542969 c -0.117187,0 -0.292969,0 -0.292969,0.1875 0,0.1992187 0.1875,0.1992187 0.328125,0.1992187 z m 6.137695,-4.59375 c 0,-0.2226562 -0.01172,-0.234375 -0.234375,-0.234375 -0.5625,0.5625 -1.382813,0.5625 -1.664063,0.5625 v 0.28125 c 0.175782,0 0.714844,0 1.207032,-0.234375 v 4.64062505 c 0,0.328125 -0.03516,0.43359375 -0.867188,0.43359375 h -0.28125 v 0.28125 C 84.252945,-0.02375 85.04982,-0.02375 85.42482,-0.02375 c 0.363282,0 1.171875,0 1.488282,0.0234375 v -0.28125 h -0.28125 c -0.832032,0 -0.855469,-0.10546875 -0.855469,-0.43359375 z m 2.132812,3.9726563 v 0.28125 h 2.449219 v 0.7734375 c 0,0.328125 -0.02344,0.421875 -0.703125,0.421875 h -0.1875 v 0.28125 c 0.5625,-0.0234375 1.183594,-0.0234375 1.253906,-0.0234375 0.03516,0 0.691407,0 1.253907,0.0234375 v -0.28125 h -0.199219 c -0.667969,0 -0.703125,-0.09375 -0.703125,-0.421875 V -1.476875 h 0.914062 v -0.28125 h -0.914062 v -4.0664063 c 0,-0.1875 0,-0.2460937 -0.164063,-0.2460937 -0.105468,0 -0.117187,0.011719 -0.199218,0.140625 z m 0.292969,0 2.214844,-3.3164063 v 3.3164063 z m 0,0"
         style="fill:#000000;fill-opacity:1;fill-rule:nonzero;stroke:none" />
      <path
         id="path38"
         d="m 101.01955,-2.039375 c 0.10547,-0.035156 0.1875,-0.082031 0.1875,-0.2109375 0,-0.1171875 -0.10547,-0.1757813 -0.1875,-0.2109375 l -5.050784,-2.4257813 c -0.128907,-0.058594 -0.175782,-0.058594 -0.1875,-0.058594 -0.117188,0 -0.1875,0.09375 -0.1875,0.1875 0,0.1054687 0.04687,0.1523437 0.175781,0.2109375 l 4.792973,2.296875 -4.792973,2.30859375 C 95.640641,0.116875 95.593766,0.16375 95.593766,0.26921875 c 0,0.0585938 0.04687,0.1875 0.199218,0.1875 0,0 0.04687,0 0.152344,-0.0585938 z m 0,0"
         style="fill:#000000;fill-opacity:1;fill-rule:nonzero;stroke:none" />
      <path
         id="path39"
         d="m 107.27736,-5.7307813 c 0,-0.2226562 -0.0117,-0.234375 -0.23438,-0.234375 -0.5625,0.5625 -1.38281,0.5625 -1.66406,0.5625 v 0.28125 c 0.17578,0 0.71485,0 1.20703,-0.234375 v 4.64062505 c 0,0.328125 -0.0352,0.43359375 -0.86718,0.43359375 h -0.28125 v 0.28125 c 0.3164,-0.0234375 1.11328,-0.0234375 1.48828,-0.0234375 0.36328,0 1.17187,0 1.48828,0.0234375 v -0.28125 h -0.28125 c -0.83203,0 -0.85547,-0.10546875 -0.85547,-0.43359375 z m 4.6084,2.578125 c 0.83203,-0.3164062 1.23047,-0.9726562 1.23047,-1.59375 0,-0.6914062 -0.76172,-1.21875 -1.6875,-1.21875 -0.9375,0 -1.64063,0.5273438 -1.64063,1.2070313 0,0.2929687 0.19922,0.46875 0.45703,0.46875 0.26953,0 0.45703,-0.1875 0.45703,-0.4570313 0,-0.3046875 -0.22265,-0.4453125 -0.52734,-0.4453125 0.23438,-0.375 0.78516,-0.5507812 1.21875,-0.5507812 0.75,0 0.89063,0.5859375 0.89063,1.0078125 0,0.2695312 -0.0586,0.703125 -0.28125,1.0429687 -0.26954,0.3984375 -0.58594,0.421875 -0.84375,0.4335938 -0.23438,0.023437 -0.2461,0.023437 -0.31641,0.023437 -0.082,0.011719 -0.15234,0.011719 -0.15234,0.1171875 0,0.1171875 0.0703,0.1171875 0.22265,0.1171875 h 0.42188 c 0.77343,0 1.125,0.6210937 1.125,1.4765625 0,1.1484375 -0.6211,1.46484375 -1.07813,1.46484375 -0.16406,0 -1.03125,-0.03515625 -1.4414,-0.703125 0.32812,0.046875 0.57421,-0.17578125 0.57421,-0.48046875 0,-0.3046875 -0.22265,-0.4921875 -0.48046,-0.4921875 -0.22266,0 -0.49219,0.140625 -0.49219,0.515625 0,0.796875 0.83203,1.41796875 1.875,1.41796875 1.11328,0 1.95703,-0.80859375 1.95703,-1.72265625 0,-0.7851563 -0.62109,-1.4414063 -1.48828,-1.6289058 z m 0,0"
         style="fill:#000000;fill-opacity:1;fill-rule:nonzero;stroke:none" />
      <path
         id="path40"
         d="m 125.51466,-2.9651563 c 0.45704,0.3867188 0.90235,0.5976563 1.19532,0.7148438 -0.38672,0.1757812 -0.78516,0.3867187 -1.19532,0.7265625 h -5.8125 c -0.1289,0 -0.30468,0 -0.30468,0.1875 0,0.1992187 0.1875,0.1992187 0.35156,0.1992187 h 5.33203 c -0.5625,0.5976563 -0.87891,1.21875005 -0.87891,1.28906255 0,0.1171875 0.11719,0.1171875 0.1875,0.1171875 0.11719,0 0.15235,0 0.19922,-0.0820313 0.72657,-1.39453125 1.73438,-2.00390625 2.89453,-2.32031245 0.0703,-0.023437 0.0937,-0.070312 0.0937,-0.1054689 0,-0.09375 -0.082,-0.1054686 -0.0937,-0.1171875 -0.44531,-0.1289061 -1.0664,-0.2929686 -1.83984,-0.9492186 -0.32812,-0.2929689 -0.71484,-0.7148438 -1.00781,-1.2773438 -0.0937,-0.1640625 -0.0937,-0.1757812 -0.2461,-0.1757812 -0.0703,0 -0.1875,0 -0.1875,0.1171875 0,0.070312 0.30469,0.6796874 0.87891,1.2890624 h -5.33203 c -0.16406,0 -0.35156,0 -0.35156,0.1992187 0,0.1875 0.17578,0.1875 0.30468,0.1875 z m 0,0"
         style="fill:#000000;fill-opacity:1;fill-rule:nonzero;stroke:none" />
      <path
         id="path41"
         d="m 136.83791,-3.633125 c -0.29297,0.058594 -0.44532,0.3046875 -0.44532,0.4921875 0,0.1757812 0.12891,0.328125 0.35157,0.328125 0.23437,0 0.49218,-0.2109375 0.49218,-0.5390625 0,-0.3515625 -0.32812,-0.609375 -0.76172,-0.609375 -0.67968,0 -1.05468,0.5039062 -1.18359,0.6679687 -0.10547,-0.4921875 -0.50391,-0.6679687 -0.84375,-0.6679687 -0.32812,0 -0.52734,0.1992187 -0.67969,0.5039062 -0.17578,0.328125 -0.29297,0.84375 -0.29297,0.8789063 0,0.082031 0.0703,0.1054687 0.12891,0.1054687 0.0937,0 0.11719,-0.046875 0.16406,-0.2226562 0.16407,-0.7148438 0.35157,-1.0429688 0.65625,-1.0429688 0.26953,0 0.26953,0.28125 0.26953,0.421875 0,0.1875 -0.0703,0.46875 -0.11718,0.703125 -0.0703,0.234375 -0.15235,0.609375 -0.19922,0.7265625 l -0.35156,1.4648438 c -0.0703,0.2109375 -0.0703,0.234375 -0.0703,0.2578125 0,0.1171875 0.082,0.2578125 0.28125,0.2578125 0.29297,0 0.35157,-0.234375 0.41016,-0.4921875 0.11719,-0.38671875 0.11719,-0.41015625 0.19922,-0.7734375 0.33984,-1.3476563 0.38672,-1.5585938 0.41015,-1.6054688 0.0469,-0.1054687 0.45704,-0.9609375 1.20704,-0.9609375 0.21093,0 0.32812,0.070312 0.375,0.1054688 z m 0,0"
         style="fill:#000000;fill-opacity:1;fill-rule:nonzero;stroke:none" />
      <path
         id="path42"
         d="m 143.67873,-2.0510938 c 0.16406,0 0.33984,0 0.33984,-0.1992187 0,-0.1875 -0.1875,-0.1875 -0.33984,-0.1875 h -4.94532 c -0.15234,0 -0.32812,0 -0.32812,0.1875 0,0.1992187 0.16406,0.1992187 0.32812,0.1992187 z m 7.16894,0 c 0.16406,0 0.33985,0 0.33985,-0.1992187 0,-0.1875 -0.1875,-0.1875 -0.33985,-0.1875 h -4.94531 c -0.15234,0 -0.32813,0 -0.32813,0.1875 0,0.1992187 0.16407,0.1992187 0.32813,0.1992187 z m 0,0"
         style="fill:#000000;fill-opacity:1;fill-rule:nonzero;stroke:none" />
    </g>
  </g>
</svg>
