<?xml version="1.0" encoding="UTF-8" standalone="no"?>
<!-- Created with Inkscape (http://www.inkscape.org/) -->

<svg
   version="1.1"
   id="svg1"
   width="340.06534"
   height="138.196"
   viewBox="0 0 340.06534 138.196"
   sodipodi:docname="5.pdf"
   xmlns:inkscape="http://www.inkscape.org/namespaces/inkscape"
   xmlns:sodipodi="http://sodipodi.sourceforge.net/DTD/sodipodi-0.dtd"
   xmlns="http://www.w3.org/2000/svg"
   xmlns:svg="http://www.w3.org/2000/svg">
  <defs
     id="defs1" />
  <sodipodi:namedview
     id="namedview1"
     pagecolor="#ffffff"
     bordercolor="#000000"
     borderopacity="0.25"
     inkscape:showpageshadow="2"
     inkscape:pageopacity="0.0"
     inkscape:pagecheckerboard="0"
     inkscape:deskcolor="#d1d1d1">
    <inkscape:page
       x="0"
       y="0"
       inkscape:label="1"
       id="page1"
       width="340.06534"
       height="138.196"
       margin="0"
       bleed="0" />
  </sodipodi:namedview>
  <g
     id="g1"
     inkscape:groupmode="layer"
     inkscape:label="1">
    <path
       id="path1"
       d="M -14.17339,-11.33871 H 14.1734 v 22.67743 h -28.34679 z"
       style="fill:#fafafa;fill-opacity:1;fill-rule:nonzero;stroke:#d1d1d1;stroke-width:0.44832;stroke-linecap:butt;stroke-linejoin:miter;stroke-miterlimit:10;stroke-dasharray:none;stroke-opacity:1"
       transform="matrix(1.3333333,0,0,-1.3333333,27.166667,60.012)" />
    <path
       id="path2"
       d="m 2.7297813,-5.7310078 c 0,-0.2226563 -0.011719,-0.234375 -0.234375,-0.234375 -0.5625,0.5625 -1.3828125,0.5625 -1.66406255,0.5625 v 0.28125 c 0.17578125,0 0.71484375,0 1.20703125,-0.234375 v 4.64062499 c 0,0.328125 -0.035156,0.43359375 -0.8671875,0.43359375 h -0.28125 V -5.390625e-4 C 1.2063438,-0.02397656 2.0032188,-0.02397656 2.3782188,-0.02397656 c 0.3632812,0 1.171875,0 1.4882812,0.0234374975 V -0.28178906 H 3.58525 c -0.8320312,0 -0.8554687,-0.10546875 -0.8554687,-0.43359375 z m 0,0"
       style="fill:#bfbfbf;fill-opacity:1;fill-rule:nonzero;stroke:none"
       aria-label="1"
       transform="matrix(1.3333333,0,0,1.3333333,24.094667,63.864)" />
    <path
       id="path3"
       d="m 3.5983047,-2.2262969 c 0,-0.7617187 -0.09375,-1.3125 -0.4101563,-1.8046875 -0.2226562,-0.3164062 -0.6445312,-0.5976562 -1.2070312,-0.5976562 -1.61718751,0 -1.61718751,1.8984375 -1.61718751,2.4023437 0,0.5039063 0,2.36718752 1.61718751,2.36718752 1.6171875,0 1.6171875,-1.86328122 1.6171875,-2.36718752 z m -1.6171875,2.16796877 c -0.3164063,0 -0.75,-0.1875 -0.890625,-0.76171875 -0.09375,-0.41015622 -0.09375,-0.98437502 -0.09375,-1.50000002 0,-0.5039062 0,-1.03125 0.1054687,-1.4179687 0.1523438,-0.5507813 0.5976563,-0.6914063 0.8789063,-0.6914063 0.375,0 0.7382812,0.2226563 0.8671875,0.6328125 0.1054687,0.375 0.1171875,0.8789063 0.1171875,1.4765625 0,0.515625 0,1.0429688 -0.09375,1.47656252 -0.140625,0.6328125 -0.609375,0.78515625 -0.890625,0.78515625 z m 0,0"
       style="fill:#737373;fill-opacity:1;fill-rule:nonzero;stroke:none"
       aria-label="0"
       transform="matrix(1.3333333,0,0,1.3333333,24.518667,84.929333)" />
    <path
       id="path4"
       d="M 16.4412,-11.33871 H 44.78799 V 11.33872 H 16.4412 Z"
       style="fill:#fafafa;fill-opacity:1;fill-rule:nonzero;stroke:#d1d1d1;stroke-width:0.44832;stroke-linecap:butt;stroke-linejoin:miter;stroke-miterlimit:10;stroke-dasharray:none;stroke-opacity:1"
       transform="matrix(1.3333333,0,0,-1.3333333,27.166667,60.012)" />
    <path
       id="path5"
       d="M 4.1372656,-1.5825703 H 3.8911719 c -0.023437,0.1171875 -0.09375,0.64453124 -0.2109375,0.78515624 -0.046875,0.0820313 -0.6679688,0.0820313 -0.84375,0.0820313 h -1.59375 L 2.1216406,-1.5591328 c 1.4765625,-1.2773438 2.015625,-1.7460938 2.015625,-2.6601563 0,-1.03125 -0.84375,-1.7460937 -1.9453125,-1.7460937 -1.03125,0 -1.73437497,0.8085937 -1.73437497,1.6289062 0,0.4453125 0.38671875,0.4921875 0.46875,0.4921875 0.19921877,0 0.46874997,-0.140625 0.46874997,-0.46875 0,-0.2695312 -0.1875,-0.46875 -0.46874997,-0.46875 -0.046875,0 -0.0703125,0 -0.10546875,0.011719 0.21093752,-0.6328125 0.78515622,-0.9257813 1.26562502,-0.9257813 0.9140625,0 1.2304687,0.8554688 1.2304687,1.4765625 0,0.9140625 -0.6914062,1.6523438 -1.125,2.1210938 l -1.64062497,1.76953124 c -0.09375,0.10546875 -0.09375,0.1171875 -0.09375,0.3281249975 H 3.8911719 Z m 0,0"
       style="fill:#bfbfbf;fill-opacity:1;fill-rule:nonzero;stroke:none"
       aria-label="2"
       transform="matrix(1.3333333,0,0,1.3333333,64.913333,63.864)" />
    <path
       id="path6"
       d="m 2.3329141,-4.4294219 c 0,-0.1875 -0.011719,-0.1992187 -0.2109375,-0.1992187 -0.4453125,0.4335937 -1.078125,0.4453125 -1.35937504,0.4453125 v 0.2460937 c 0.1640625,0 0.62109374,0 1.00781254,-0.1875 v 3.55078127 c 0,0.234375 0,0.328125 -0.6914063,0.328125 H 0.80947656 V 2.65625e-4 C 0.93838281,-0.01145313 1.7938516,-0.02317188 2.0516641,-0.02317188 c 0.2109375,0 1.0898437,0.01171875 1.2421875,0.023437505 V -0.24582813 H 3.0360391 c -0.703125,0 -0.703125,-0.09375 -0.703125,-0.328125 z m 0,0"
       style="fill:#737373;fill-opacity:1;fill-rule:nonzero;stroke:none"
       aria-label="1"
       transform="matrix(1.3333333,0,0,1.3333333,65.338667,84.929333)" />
    <path
       id="path7"
       d="M 47.0558,-11.33871 H 75.40259 V 11.33872 H 47.0558 Z"
       style="fill:#fafafa;fill-opacity:1;fill-rule:nonzero;stroke:#d1d1d1;stroke-width:0.44832;stroke-linecap:butt;stroke-linejoin:miter;stroke-miterlimit:10;stroke-dasharray:none;stroke-opacity:1"
       transform="matrix(1.3333333,0,0,-1.3333333,27.166667,60.012)" />
    <path
       id="path8"
       d="m 0.25859375,-1.7583516 v 0.28125 H 2.7078125 v 0.77343754 c 0,0.328125 -0.023437,0.421875 -0.703125,0.421875 h -0.1875 V -5.390625e-4 C 2.3796875,-0.02397656 3.0007813,-0.02397656 3.0710938,-0.02397656 c 0.035156,0 0.6914062,0 1.2539062,0.0234374975 V -0.28178906 H 4.1257813 c -0.6679688,0 -0.703125,-0.09375 -0.703125,-0.421875 V -1.4771016 h 0.9140625 v -0.28125 H 3.4226563 v -4.0664062 c 0,-0.1875 0,-0.2460938 -0.1640625,-0.2460938 -0.1054688,0 -0.1171875,0.011719 -0.1992188,0.140625 z m 0.29296875,0 2.2148438,-3.3164062 v 3.3164062 z m 0,0"
       style="fill:#bfbfbf;fill-opacity:1;fill-rule:nonzero;stroke:none"
       aria-label="4"
       transform="matrix(1.3333333,0,0,1.3333333,105.73333,63.864)" />
    <path
       id="path9"
       d="M 3.5148125,-1.2653594 H 3.2804375 C 3.257,-1.1130156 3.1984063,-0.70285938 3.1046563,-0.63254688 3.0460625,-0.59739063 2.507,-0.59739063 2.41325,-0.59739063 H 1.1241875 c 0.7382813,-0.64453127 0.984375,-0.84374997 1.3945313,-1.17187497 0.515625,-0.4101563 0.9960937,-0.84375 0.9960937,-1.5 0,-0.84375 -0.7382812,-1.359375 -1.6289062,-1.359375 -0.8671875,0 -1.45312505,0.609375 -1.45312505,1.2421875 0,0.3632812 0.3046875,0.3984375 0.375,0.3984375 0.1640625,0 0.37500005,-0.1171875 0.37500005,-0.375 0,-0.1289063 -0.058594,-0.3632813 -0.42187505,-0.3632813 0.22265625,-0.5039062 0.69140625,-0.65625 1.01953125,-0.65625 0.703125,0 1.0664063,0.5507813 1.0664063,1.1132813 0,0.609375 -0.4335938,1.0898437 -0.65625,1.3359375 l -1.68750005,1.66406247 c -0.0703125,0.0585937 -0.0703125,0.0703125 -0.0703125,0.269531255 H 3.3155938 Z m 0,0"
       style="fill:#737373;fill-opacity:1;fill-rule:nonzero;stroke:none"
       aria-label="2"
       transform="matrix(1.3333333,0,0,1.3333333,106.15733,84.929333)" />
    <path
       id="path10"
       d="M 77.67041,-11.33871 H 106.0172 V 11.33872 H 77.67041 Z"
       style="fill:#e0e0e0;fill-opacity:1;fill-rule:nonzero;stroke:#000000;stroke-width:0.84683;stroke-linecap:butt;stroke-linejoin:miter;stroke-miterlimit:10;stroke-dasharray:none;stroke-opacity:1"
       transform="matrix(1.3333333,0,0,-1.3333333,27.166667,60.012)" />
    <path
       id="path11"
       d="m 0.93658594,-3.0942891 c 0,0.1640625 0,0.2578125 0.11718746,0.2578125 0.070312,0 0.1054688,-0.035156 0.1523438,-0.1171875 0.2695312,-0.375 0.703125,-0.5859375 1.171875,-0.5859375 0.9609375,0 0.9609375,1.3828125 0.9609375,1.6992188 0,0.28125 0,0.8320312 -0.2578125,1.24218749 -0.234375,0.375 -0.6210938,0.5390625 -0.9609375,0.5390625 -0.5390625,0 -1.13671876,-0.328125 -1.34765626,-0.99609379 0.0117188,0 0.0585938,0.023437 0.1171875,0.023437 0.18749996,0 0.44531246,-0.1171875 0.44531246,-0.4335937 0,-0.28125 -0.1992187,-0.4453125 -0.44531246,-0.4453125 -0.1875,0 -0.43359375,0.1054687 -0.43359375,0.46875 0,0.80859374 0.67968751,1.64062499 1.67578121,1.64062499 1.0898438,0 2.0039063,-0.87890625 2.0039063,-1.99218749 0,-1.0898438 -0.7617188,-1.96875 -1.7460938,-1.96875 -0.421875,0 -0.8671875,0.140625 -1.1835937,0.4570312 v -1.7578125 c 0.2695312,0.082031 0.5507812,0.1171875 0.8320312,0.1171875 1.1015625,0 1.7460938,-0.796875 1.7460938,-0.9140625 0,-0.070312 -0.058594,-0.1054687 -0.1054688,-0.1054687 -0.011719,0 -0.035156,0 -0.1171875,0.035156 -0.4101562,0.1757813 -0.8320312,0.2460938 -1.2070312,0.2460938 -0.3867188,0 -0.7851563,-0.070312 -1.1953125,-0.2460938 -0.09375,-0.035156 -0.1054688,-0.035156 -0.1171875,-0.035156 -0.10546876,0 -0.10546876,0.082031 -0.10546876,0.234375 z m 0,0"
       style="fill:#000000;fill-opacity:1;fill-rule:nonzero;stroke:none"
       aria-label="5"
       transform="matrix(1.3333333,0,0,1.3333333,146.552,63.864)" />
    <path
       id="path12"
       d="m 1.8988594,-2.3317656 c 0.5507812,0 0.9375,0.375 0.9375,1.125 0,0.86718747 -0.5039063,1.12499997 -0.9023438,1.12499997 -0.28125,0 -0.890625,-0.08203125 -1.18359372,-0.4921875 0.32812502,-0.0117188 0.39843752,-0.24609375 0.39843752,-0.38671875 0,-0.22265622 -0.16406252,-0.38671872 -0.38671877,-0.38671872 -0.1875,0 -0.38671875,0.1171875 -0.38671875,0.41015622 0,0.65625 0.72656252,1.078125 1.57031252,1.078125 0.9726562,0 1.640625,-0.64453125 1.640625,-1.34765622 0,-0.5390625 -0.4453125,-1.0898438 -1.21875,-1.2421875 0.7382812,-0.2695313 0.9960937,-0.796875 0.9960937,-1.21875 0,-0.5507813 -0.6328125,-0.9609375 -1.40625,-0.9609375 -0.7734375,0 -1.35937497,0.375 -1.35937497,0.9375 0,0.234375 0.15234375,0.3632812 0.36328125,0.3632812 0.21093752,0 0.35156252,-0.1640625 0.35156252,-0.3515625 0,-0.1992187 -0.140625,-0.3515625 -0.35156252,-0.3632812 0.23437502,-0.3046875 0.71484372,-0.3867188 0.97265622,-0.3867188 0.3164063,0 0.7617188,0.1523438 0.7617188,0.7617188 0,0.2929687 -0.1054688,0.609375 -0.28125,0.8320312 -0.234375,0.2578125 -0.421875,0.28125 -0.7734375,0.2929688 -0.1757813,0.023437 -0.1875,0.023437 -0.2226563,0.023437 -0.011719,0 -0.070312,0.011719 -0.070312,0.09375 0,0.09375 0.058594,0.09375 0.1757813,0.09375 z m 0,0"
       style="fill:#737373;fill-opacity:1;fill-rule:nonzero;stroke:none"
       aria-label="3"
       transform="matrix(1.3333333,0,0,1.3333333,146.976,84.929333)" />
    <path
       id="path13"
       d="m 108.285,-11.33871 h 28.34679 V 11.33872 H 108.285 Z"
       style="fill:#ffffff;fill-opacity:1;fill-rule:nonzero;stroke:#666666;stroke-width:0.44832;stroke-linecap:butt;stroke-linejoin:miter;stroke-miterlimit:10;stroke-dasharray:none;stroke-opacity:1"
       transform="matrix(1.3333333,0,0,-1.3333333,27.166667,60.012)" />
    <path
       id="path14"
       d="m 1.2073516,-2.9653828 c 0,-0.9140625 0.09375,-1.4296875 0.3398437,-1.8984375 0.1757813,-0.3632813 0.609375,-0.8789063 1.2773438,-0.8789063 0.1757812,0 0.5859375,0.035156 0.796875,0.3515625 -0.328125,0 -0.46875,0.1757813 -0.46875,0.4101563 0,0.234375 0.1523437,0.421875 0.4101562,0.421875 0.2460938,0 0.421875,-0.1640625 0.421875,-0.4335938 0,-0.5039062 -0.3632812,-0.9726562 -1.1835937,-0.9726562 -1.1484375,0 -2.41406254,1.1367187 -2.41406254,3.1289062 0,2.43750004 1.08984374,3.03515629 1.93359374,3.03515629 0.9960938,0 1.8984375,-0.83203125 1.8984375,-2.01562499 0,-1.1367188 -0.8320312,-2.0039063 -1.8398437,-2.0039063 -0.5390625,0 -0.9257813,0.3164063 -1.171875,0.8554688 z m 1.1015625,2.90624999 c -0.5039063,0 -0.796875,-0.421875 -0.9140625,-0.6796875 C 1.2307891,-1.1372578 1.2190703,-1.8872578 1.2190703,-2.0278828 c 0,-0.5976563 0.28125,-1.5703125 1.1367188,-1.5703125 0.140625,0 0.5859375,0 0.8671875,0.5625 0.1757812,0.3398437 0.1757812,0.7734375 0.1757812,1.2070312 0,0.4335938 0,0.86718754 -0.1757812,1.19531254 -0.2695313,0.515625 -0.6679688,0.57421875 -0.9140625,0.57421875 z m 0,0"
       style="fill:#000000;fill-opacity:1;fill-rule:nonzero;stroke:none"
       aria-label="6"
       transform="matrix(1.3333333,0,0,1.3333333,187.37067,63.864)" />
    <path
       id="path15"
       d="M 3.6901328,-1.1481719 V -1.3942656 H 2.9166953 v -3.1054688 c 0,-0.1523437 0,-0.1992187 -0.1523437,-0.1992187 -0.09375,0 -0.1171875,0 -0.1875,0.09375 l -2.30859379,3.2109375 v 0.2460937 H 2.3190391 v 0.57421877 c 0,0.234375 0,0.328125 -0.5625,0.328125 h -0.1875 V 2.65625e-4 c 0.3515625,-0.011718755 0.796875,-0.023437505 1.0429687,-0.023437505 0.2578125,0 0.703125,0.01171875 1.0546875,0.023437505 V -0.24582813 h -0.1875 c -0.5625,0 -0.5625,-0.09375 -0.5625,-0.328125 V -1.1481719 Z M 2.3659141,-3.9489531 v 2.5546875 H 0.52607031 Z m 0,0"
       style="fill:#737373;fill-opacity:1;fill-rule:nonzero;stroke:none"
       aria-label="4"
       transform="matrix(1.3333333,0,0,1.3333333,187.79467,84.929333)" />
    <path
       id="path16"
       d="M 138.89961,-11.33871 H 167.2464 V 11.33872 H 138.89961 Z"
       style="fill:#e0e0e0;fill-opacity:1;fill-rule:nonzero;stroke:#000000;stroke-width:0.84683;stroke-linecap:butt;stroke-linejoin:miter;stroke-miterlimit:10;stroke-dasharray:none;stroke-opacity:1"
       transform="matrix(1.3333333,0,0,-1.3333333,27.166667,60.012)" />
    <path
       id="path17"
       d="m 1.5455,-4.0669453 c -0.2695312,-0.1757813 -0.4804687,-0.4101563 -0.4804687,-0.75 0,-0.5859375 0.6328125,-0.9257813 1.21875,-0.9257813 0.6914062,0 1.2421875,0.4804688 1.2421875,1.1015625 0,0.6328125 -0.5273438,1.0429688 -0.890625,1.2539063 z m 1.3125,0.8203125 c 0.4453125,-0.2109375 1.1015625,-0.6679688 1.1015625,-1.3945313 0,-0.8320312 -0.84375,-1.3242187 -1.6523437,-1.3242187 -0.9375,0 -1.6757813,0.6679687 -1.6757813,1.4882812 0,0.3398438 0.12890625,0.6679688 0.33984375,0.9257813 0.15234375,0.1757812 0.21093755,0.2109375 0.72656255,0.5390625 -0.7851563,0.375 -1.31250005,0.9257812 -1.31250005,1.6523437 0,0.96093754 0.93750005,1.55859379 1.91015625,1.55859379 1.0429688,0 1.921875,-0.73828125 1.921875,-1.71093749 0,-0.8671875 -0.6679687,-1.2890625 -0.890625,-1.4414063 C 3.2212813,-3.0239766 2.9634688,-3.1880391 2.858,-3.2466328 Z m -0.9140625,0.3867187 1.125,0.703125 c 0.2109375,0.1289063 0.65625,0.421875 0.65625,0.9609375 0,0.71484379 -0.7148437,1.13671879 -1.4179687,1.13671879 -0.7851563,0 -1.4414063,-0.55078125 -1.4414063,-1.30078129 0,-0.6445312 0.4453125,-1.171875 1.078125,-1.5 z m 0,0"
       style="fill:#000000;fill-opacity:1;fill-rule:nonzero;stroke:none"
       aria-label="8"
       transform="matrix(1.3333333,0,0,1.3333333,228.18933,63.864)" />
    <path
       id="path18"
       d="m 1.0780859,-3.8903594 c 0.3632813,0.09375 0.5625,0.09375 0.6796875,0.09375 0.9140625,0 1.4648438,-0.6328125 1.4648438,-0.7382812 0,-0.070312 -0.046875,-0.09375 -0.082031,-0.09375 -0.011719,0 -0.035156,0 -0.058594,0.023437 -0.1640625,0.058594 -0.5390625,0.1992187 -1.0546875,0.1992187 -0.1992188,0 -0.5625,-0.011719 -1.0195313,-0.1875 -0.0703125,-0.035156 -0.0820312,-0.035156 -0.0820312,-0.035156 -0.09375,0 -0.09375,0.070312 -0.09375,0.1875 v 2.0625 c 0,0.1171875 0,0.1992187 0.10546875,0.1992187 0.0703126,0 0.0703126,-0.011719 0.14062495,-0.1054687 0.3046875,-0.375 0.7265625,-0.4335938 0.9726563,-0.4335938 0.421875,0 0.609375,0.3398438 0.6445312,0.3867188 0.1171875,0.234375 0.1640625,0.5039062 0.1640625,0.9023437 0,0.2109375 0,0.62109377 -0.2109375,0.92578127 -0.1757812,0.2578125 -0.46875,0.421875 -0.8203125,0.421875 -0.4453125,0 -0.91406245,-0.2578125 -1.0898437,-0.71484375 0.2695312,0.0234375 0.3984375,-0.15234375 0.3984375,-0.33984372 0,-0.3046875 -0.2578125,-0.3515625 -0.3515625,-0.3515625 -0.0117188,0 -0.3515625,0 -0.3515625,0.375 0,0.62109372 0.5742187,1.25390622 1.4179687,1.25390622 0.890625,0 1.6640625,-0.66796875 1.6640625,-1.54687502 0,-0.7851562 -0.5976562,-1.5117187 -1.453125,-1.5117187 -0.3164062,0 -0.6796875,0.082031 -0.984375,0.3398437 z m 0,0"
       style="fill:#737373;fill-opacity:1;fill-rule:nonzero;stroke:none"
       aria-label="5"
       transform="matrix(1.3333333,0,0,1.3333333,228.61333,84.929333)" />
    <path
       id="path19"
       d="m 169.51422,-11.33871 h 28.34679 v 22.67743 h -28.34679 z"
       style="fill:#fafafa;fill-opacity:1;fill-rule:nonzero;stroke:#d1d1d1;stroke-width:0.44832;stroke-linecap:butt;stroke-linejoin:miter;stroke-miterlimit:10;stroke-dasharray:none;stroke-opacity:1"
       transform="matrix(1.3333333,0,0,-1.3333333,27.166667,60.012)" />
    <path
       id="path20"
       d="m 2.7305937,-5.7310078 c 0,-0.2226563 -0.011719,-0.234375 -0.234375,-0.234375 -0.5625,0.5625 -1.3828125,0.5625 -1.66406245,0.5625 v 0.28125 c 0.17578125,0 0.71484375,0 1.20703125,-0.234375 v 4.64062499 c 0,0.328125 -0.035156,0.43359375 -0.8671875,0.43359375 H 0.89075 V -5.390625e-4 C 1.2071562,-0.02397656 2.0040312,-0.02397656 2.3790312,-0.02397656 c 0.3632813,0 1.171875,0 1.4882813,0.0234374975 V -0.28178906 h -0.28125 c -0.8320313,0 -0.8554688,-0.10546875 -0.8554688,-0.43359375 z m 6.1201172,2.859375 c 0,-0.5976563 -0.023437,-1.3710938 -0.3398437,-2.0390625 -0.3984375,-0.84375 -1.078125,-1.0546875 -1.59375,-1.0546875 -0.5390625,0 -1.21875,0.2109375 -1.6171875,1.0664062 -0.2929688,0.6210938 -0.328125,1.3476563 -0.328125,2.0273438 0,0.5859375 0.011719,1.453125 0.3984375,2.16796874 0.421875,0.76171875 1.125,0.90234375 1.5351562,0.90234375 0.5859375,0 1.2421875,-0.2578125 1.6171875,-1.078125 0.2695313,-0.59765629 0.328125,-1.27734379 0.328125,-1.99218749 z m -1.9335937,2.84765624 c -0.2695313,0 -0.9140625,-0.12890625 -1.0898438,-1.13671874 -0.09375,-0.5390625 -0.09375,-1.3007813 -0.09375,-1.8164063 0,-0.609375 0,-1.3125 0.1171875,-1.8164062 0.1757813,-0.796875 0.75,-0.9492188 1.0546875,-0.9492188 0.3398438,0 0.9023438,0.1757813 1.078125,1.0078125 0.09375,0.4921875 0.09375,1.1953125 0.09375,1.7578125 0,0.5507813 0,1.3125 -0.09375,1.8398438 -0.1875,1.01953124 -0.84375,1.11328124 -1.0664062,1.11328124 z m 0,0"
       style="fill:#bfbfbf;fill-opacity:1;fill-rule:nonzero;stroke:none"
       aria-label="10"
       transform="matrix(1.3333333,0,0,1.3333333,265.93733,63.864)" />
    <path
       id="path21"
       d="m 1.0431641,-2.2848906 c 0,-0.5625 0.046875,-1.078125 0.3164062,-1.5117188 0.234375,-0.375 0.609375,-0.6328125 1.0546875,-0.6328125 0.2109375,0 0.4921875,0.058594 0.6328125,0.2460938 -0.1757812,0.011719 -0.3164062,0.1289062 -0.3164062,0.3398437 0,0.1640625 0.1171875,0.328125 0.328125,0.328125 0.1992187,0 0.328125,-0.140625 0.328125,-0.3515625 0,-0.3984375 -0.2929688,-0.7617187 -0.984375,-0.7617187 -0.9960938,0 -2.02734379,0.9140625 -2.02734379,2.4140625 0,1.80468747 0.85546879,2.35546872 1.61718749,2.35546872 0.8554688,0 1.59375,-0.64453125 1.59375,-1.55859372 0,-0.890625 -0.703125,-1.546875 -1.5234375,-1.546875 -0.5507812,0 -0.8671875,0.375 -1.0195312,0.6796875 z m 0.9492187,2.20312497 c -0.3515625,0 -0.6210937,-0.19921875 -0.7617187,-0.515625 C 1.1251953,-0.79660938 1.0666016,-1.1481719 1.0666016,-1.5700469 c 0,-0.6796875 0.4101562,-1.1953125 0.9609375,-1.1953125 0.328125,0 0.5390625,0.1171875 0.7148437,0.3867188 0.1640625,0.2578125 0.1757813,0.5507812 0.1757813,0.9609375 0,0.3984375 0,0.69140622 -0.1875,0.96093747 -0.1757813,0.24609375 -0.3984375,0.375 -0.7382813,0.375 z m 0,0"
       style="fill:#737373;fill-opacity:1;fill-rule:nonzero;stroke:none"
       aria-label="6"
       transform="matrix(1.3333333,0,0,1.3333333,269.43333,84.929333)" />
    <path
       id="path22"
       d="m 200.12885,-11.33871 h 28.34679 v 22.67743 h -28.34679 z"
       style="fill:#fafafa;fill-opacity:1;fill-rule:nonzero;stroke:#d1d1d1;stroke-width:0.44832;stroke-linecap:butt;stroke-linejoin:miter;stroke-miterlimit:10;stroke-dasharray:none;stroke-opacity:1"
       transform="matrix(1.3333333,0,0,-1.3333333,27.166667,60.012)" />
    <path
       id="path23"
       d="m 2.7318281,-5.7310078 c 0,-0.2226563 -0.011719,-0.234375 -0.234375,-0.234375 -0.5625,0.5625 -1.3828125,0.5625 -1.66406248,0.5625 v 0.28125 c 0.17578128,0 0.71484378,0 1.20703128,-0.234375 v 4.64062499 c 0,0.328125 -0.035156,0.43359375 -0.8671875,0.43359375 H 0.89198437 V -5.390625e-4 C 1.2083906,-0.02397656 2.0052656,-0.02397656 2.3802656,-0.02397656 c 0.3632813,0 1.171875,0 1.4882813,0.0234374975 V -0.28178906 h -0.28125 c -0.8320313,0 -0.8554688,-0.10546875 -0.8554688,-0.43359375 z m 6.0117188,4.1484375 H 8.4974531 c -0.023437,0.1171875 -0.09375,0.64453124 -0.2109375,0.78515624 -0.046875,0.0820313 -0.6679687,0.0820313 -0.84375,0.0820313 h -1.59375 L 6.7279219,-1.5591328 c 1.4765625,-1.2773438 2.015625,-1.7460938 2.015625,-2.6601563 0,-1.03125 -0.84375,-1.7460937 -1.9453125,-1.7460937 -1.03125,0 -1.734375,0.8085937 -1.734375,1.6289062 0,0.4453125 0.3867187,0.4921875 0.46875,0.4921875 0.1992187,0 0.46875,-0.140625 0.46875,-0.46875 0,-0.2695312 -0.1875,-0.46875 -0.46875,-0.46875 -0.046875,0 -0.070312,0 -0.1054688,0.011719 0.2109375,-0.6328125 0.7851563,-0.9257813 1.265625,-0.9257813 0.9140625,0 1.2304688,0.8554688 1.2304688,1.4765625 0,0.9140625 -0.6914063,1.6523438 -1.125,2.1210938 l -1.640625,1.76953124 c -0.09375,0.10546875 -0.09375,0.1171875 -0.09375,0.3281249975 h 3.4335937 z m 0,0"
       style="fill:#bfbfbf;fill-opacity:1;fill-rule:nonzero;stroke:none"
       aria-label="12"
       transform="matrix(1.3333333,0,0,1.3333333,306.756,63.864)" />
    <path
       id="path24"
       d="m 3.7279922,-4.2067656 c 0.070312,-0.09375 0.070312,-0.1054688 0.070312,-0.28125 h -1.828125 c -0.2695313,0 -0.3515625,-0.011719 -0.5976563,-0.035156 -0.3632812,-0.023437 -0.38671871,-0.070312 -0.39843746,-0.1875 H 0.72799219 l -0.234375,1.4882813 h 0.234375 c 0.0117188,-0.1054688 0.0820313,-0.5625 0.19921875,-0.6328125 0.046875,-0.046875 0.60937496,-0.046875 0.71484376,-0.046875 h 1.5234375 c -0.2226563,0.2929687 -0.5742188,0.7265625 -0.7265625,0.9257812 -0.9140625,1.1953125 -0.9960938,2.30859377 -0.9960938,2.71875002 0,0.0820312 0,0.3984375 0.328125,0.3984375 0.3398438,0 0.3398438,-0.31640625 0.3398438,-0.41015625 v -0.26953125 c 0,-1.35937502 0.2695312,-1.98046872 0.5742187,-2.35546872 z m 0,0"
       style="fill:#737373;fill-opacity:1;fill-rule:nonzero;stroke:none"
       aria-label="7"
       transform="matrix(1.3333333,0,0,1.3333333,310.252,84.929333)" />
    <path
       id="path25"
       d="m 2.3091484,-5.9175547 c 0.035156,-0.1289062 0.035156,-0.140625 0.035156,-0.1757812 0,-0.082031 -0.046875,-0.1289063 -0.1289063,-0.1289063 -0.1523437,0 -0.9023437,0.070312 -1.0898437,0.09375 -0.070312,0.011719 -0.18750001,0.011719 -0.18750001,0.1640625 0,0.1171875 0.10546871,0.1171875 0.23437501,0.1171875 0.421875,0 0.421875,0.070312 0.421875,0.140625 0,0.046875 0,0.058594 -0.046875,0.2226563 l -1.10156251,4.40625 c -0.046875,0.18749996 -0.046875,0.30468746 -0.046875,0.33984371 0,0.5625 0.45703125,0.83203125 0.85546871,0.83203125 0.4101563,0 0.5976563,-0.31640625 0.6914063,-0.515625 0.1640625,-0.31640625 0.2695312,-0.83203126 0.2695312,-0.85546876 0,-0.046875 -0.023437,-0.1171875 -0.1171875,-0.1171875 -0.1054687,0 -0.1171875,0.046875 -0.1523437,0.2226563 -0.1523438,0.60937496 -0.328125,1.04296871 -0.6679688,1.04296871 -0.1757812,0 -0.2695312,-0.1171875 -0.2695312,-0.41015625 0,-0.1875 0.011719,-0.24609375 0.046875,-0.3984375 z m 0,0"
       style="fill:#000000;fill-opacity:1;fill-rule:nonzero;stroke:none"
       aria-label="l"
       transform="matrix(1.3333333,0,0,1.3333333,147.69067,20.698667)" />
    <path
       id="path26"
       d="M 91.84381,25.96545 V 17.32582"
       style="fill:none;stroke:#000000;stroke-width:0.49814;stroke-linecap:butt;stroke-linejoin:miter;stroke-miterlimit:10;stroke-dasharray:none;stroke-opacity:1"
       transform="matrix(1.3333333,0,0,-1.3333333,27.166667,60.012)" />
    <path
       id="path27"
       d="M 3.54292,0 C 3.10782,0.10701 1.19533,0.71347 0,1.37344 V -1.37344 C 1.19533,-0.71347 3.10782,-0.10701 3.54292,0 Z"
       style="fill:#000000;fill-opacity:1;fill-rule:nonzero;stroke:#000000;stroke-width:0.49814;stroke-linecap:butt;stroke-linejoin:miter;stroke-miterlimit:10;stroke-dasharray:none;stroke-opacity:1"
       transform="matrix(0,1.3333333,1.3333333,0,149.62508,36.910907)" />
    <path
       id="path28"
       d="m 3.6223281,-3.6329922 c -0.2929687,0.058594 -0.4453125,0.3046875 -0.4453125,0.4921875 0,0.1757813 0.1289063,0.328125 0.3515625,0.328125 0.234375,0 0.4921875,-0.2109375 0.4921875,-0.5390625 0,-0.3515625 -0.328125,-0.609375 -0.7617187,-0.609375 -0.6796875,0 -1.0546875,0.5039063 -1.1835938,0.6679688 -0.1054687,-0.4921875 -0.5039062,-0.6679688 -0.84375,-0.6679688 -0.32812497,0 -0.52734372,0.1992188 -0.67968747,0.5039063 -0.17578125,0.328125 -0.29296875,0.84375 -0.29296875,0.8789062 0,0.082031 0.0703125,0.1054688 0.12890625,0.1054688 0.09375,0 0.1171875,-0.046875 0.1640625,-0.2226563 0.1640625,-0.7148437 0.3515625,-1.0429687 0.65624997,-1.0429687 0.2695313,0 0.2695313,0.28125 0.2695313,0.421875 0,0.1875 -0.070312,0.46875 -0.1171875,0.703125 -0.070312,0.234375 -0.1523438,0.609375 -0.1992188,0.7265625 l -0.35156247,1.46484371 c -0.0703125,0.2109375 -0.0703125,0.234375 -0.0703125,0.2578125 0,0.1171875 0.0820313,0.2578125 0.28124997,0.2578125 0.2929688,0 0.3515625,-0.234375 0.4101563,-0.4921875 0.1171875,-0.38671875 0.1171875,-0.41015625 0.1992187,-0.77343751 0.3398438,-1.3476562 0.3867188,-1.5585937 0.4101563,-1.6054687 0.046875,-0.1054688 0.4570312,-0.9609375 1.2070312,-0.9609375 0.2109375,0 0.328125,0.070312 0.375,0.1054687 z m 0,0"
       style="fill:#000000;fill-opacity:1;fill-rule:nonzero;stroke:none"
       aria-label="r"
       transform="matrix(1.3333333,0,0,1.3333333,228.31867,19.121333)" />
    <path
       id="path29"
       d="M 153.07259,27.14854 V 17.32582"
       style="fill:none;stroke:#000000;stroke-width:0.49814;stroke-linecap:butt;stroke-linejoin:miter;stroke-miterlimit:10;stroke-dasharray:none;stroke-opacity:1"
       transform="matrix(1.3333333,0,0,-1.3333333,27.166667,60.012)" />
    <path
       id="path30"
       d="M 3.54292,0 C 3.10782,0.10701 1.19533,0.71347 0,1.37344 V -1.37344 C 1.19533,-0.71347 3.10782,-0.10701 3.54292,0 Z"
       style="fill:#000000;fill-opacity:1;fill-rule:nonzero;stroke:#000000;stroke-width:0.49814;stroke-linecap:butt;stroke-linejoin:miter;stroke-miterlimit:10;stroke-dasharray:none;stroke-opacity:1"
       transform="matrix(0,1.3333333,1.3333333,0,231.26345,36.910907)" />
    <path
       id="path31"
       d="m 77.67041,-36.28403 c 0.59775,-1.19554 1.99255,-1.99255 3.98511,-1.99255 h 36.81778 c 1.99255,0 3.38736,-0.79702 3.9851,-1.99255 0.59775,1.19553 1.99256,1.99255 3.98511,1.99255 h 36.81779 c 1.99256,0 3.38737,0.79701 3.98511,1.99255"
       style="fill:none;stroke:#000000;stroke-width:0.44832;stroke-linecap:butt;stroke-linejoin:miter;stroke-miterlimit:10;stroke-dasharray:none;stroke-opacity:1"
       transform="matrix(1.3333333,0,0,-1.3333333,27.166667,60.012)" />
    <g
       id="g31"
       aria-label="A&#10;3&#10;+A&#10;5&#10;=5+8=13⇒cnt=2,l++,r−−"
       transform="matrix(1.3333333,0,0,1.3333333,45.917333,123.47333)">
      <path
         id="path32"
         d="m 1.6293828,-1.0551953 c -0.4335937,0.72656249 -0.83203124,0.74999999 -1.19531249,0.77343749 -0.0585938,0.0117188 -0.10546875,0.0820313 -0.10546875,0.1640625 0,0.05859375 0.0351563,0.1171874975 0.12890625,0.1171874975 0.17578125,0 0.59765629,-0.0234374975 0.76171879,-0.0234374975 0.1992187,0 0.6796875,0.0234374975 0.8789062,0.0234374975 0.058594,0 0.1757813,0 0.1757813,-0.1640624975 0,-0.10546875 -0.1171875,-0.1171875 -0.140625,-0.1171875 -0.082031,0 -0.421875,-0.0234375 -0.421875,-0.29296875 0,-0.12890625 0.1054687,-0.29296875 0.1289062,-0.33984375 l 0.703125,-1.16015629 h 2.34375 c 0.023437,0.2109375 0.058594,0.515625 0.082031,0.7382813 0.035156,0.35156249 0.082031,0.74999999 0.082031,0.77343749 0,0.12890625 -0.1171875,0.28125 -0.6445312,0.28125 -0.082031,0 -0.1992188,0 -0.1992188,0.1640625 0,0.09375 0.070312,0.1171874975 0.1289063,0.1171874975 0.1757812,0 0.3867187,-0.0234374975 0.5625,-0.0234374975 0.1875,0 0.3984375,0 0.5390625,0 0.3046875,0 0.3164062,0 0.5273437,0 0.1523438,0.01171875 0.3515625,0.0234374975 0.5039063,0.0234374975 0.046875,0 0.1640625,0 0.1640625,-0.1640624975 0,-0.1171875 -0.09375,-0.1171875 -0.1992188,-0.1171875 -0.5390625,0 -0.5507812,-0.0585938 -0.5742187,-0.31640625 L 5.2270391,-6.1762891 c -0.023437,-0.1992187 -0.023437,-0.2460937 -0.1757813,-0.2460937 -0.1289062,0 -0.1875,0.070312 -0.2578125,0.1875 z m 1.0898438,-1.2890625 1.8046875,-2.9648438 0.3398437,2.9648438 z m 0,0"
         style="fill:#000000;fill-opacity:1;fill-rule:nonzero;stroke:none" />
      <path
         id="path33"
         d="m 8.6664922,-0.98488281 c 0.5039062,0 0.84375,0.33984375 0.84375,0.94921875 0,0.65625 -0.3867188,0.9375 -0.8320313,0.9375 -0.1523437,0 -0.7734375,-0.0351563 -1.0429687,-0.375 0.234375,-0.0234375 0.328125,-0.1875 0.328125,-0.33984375 0,-0.2109375 -0.140625,-0.33984375 -0.3398438,-0.33984375 -0.1640625,0 -0.3398437,0.09375 -0.3398437,0.3515625 0,0.5859375 0.65625,0.92578126 1.4179687,0.92578126 0.8789063,0 1.4765626,-0.57421876 1.4765626,-1.16015626 0,-0.43359375 -0.3398438,-0.90234375 -1.0429688,-1.07812504 0.46875,-0.1523437 0.8554687,-0.5390625 0.8554687,-1.03125 0,-0.4804687 -0.5625,-0.8320312 -1.2773437,-0.8320312 -0.703125,0 -1.2421875,0.3164062 -1.2421875,0.8085937 0,0.2578125 0.1992187,0.328125 0.3164062,0.328125 0.1640625,0 0.328125,-0.1054687 0.328125,-0.3164062 0,-0.1875 -0.140625,-0.2929688 -0.2929687,-0.3164063 0.2695312,-0.3046875 0.8203125,-0.3046875 0.8671875,-0.3046875 0.3046875,0 0.6914062,0.140625 0.6914062,0.6328125 0,0.328125 -0.1875,0.9023438 -0.7851562,0.9375 -0.1054688,0.011719 -0.2695313,0.023437 -0.3164063,0.023437 -0.058594,0 -0.1289062,0.011719 -0.1289062,0.1054688 0,0.09375 0.070312,0.09375 0.1640625,0.09375 z m 0,0"
         style="fill:#000000;fill-opacity:1;fill-rule:nonzero;stroke:none" />
      <path
         id="path34"
         d="m 19.436023,-2.0512891 c 0.128907,0 0.316407,0 0.316407,-0.1875 0,-0.1992187 -0.175782,-0.1992187 -0.316407,-0.1992187 h -2.554687 v -2.5664063 c 0,-0.140625 0,-0.3164062 -0.199219,-0.3164062 -0.1875,0 -0.1875,0.1875 -0.1875,0.3164062 v 2.5664063 h -2.566406 c -0.117188,0 -0.304688,0 -0.304688,0.1875 0,0.1992187 0.164063,0.1992187 0.304688,0.1992187 h 2.566406 v 2.56640629 c 0,0.140625 0,0.3046875 0.199219,0.3046875 0.1875,0 0.1875,-0.1875 0.1875,-0.3046875 V -2.0512891 Z m 0,0"
         style="fill:#000000;fill-opacity:1;fill-rule:nonzero;stroke:none" />
      <path
         id="path35"
         d="m 23.953602,-1.0551953 c -0.433594,0.72656249 -0.832032,0.74999999 -1.195313,0.77343749 -0.05859,0.0117188 -0.105469,0.0820313 -0.105469,0.1640625 0,0.05859375 0.03516,0.1171874975 0.128907,0.1171874975 0.175781,0 0.597656,-0.0234374975 0.761718,-0.0234374975 0.199219,0 0.679688,0.0234374975 0.878907,0.0234374975 0.05859,0 0.175781,0 0.175781,-0.1640624975 0,-0.10546875 -0.117188,-0.1171875 -0.140625,-0.1171875 -0.08203,0 -0.421875,-0.0234375 -0.421875,-0.29296875 0,-0.12890625 0.105469,-0.29296875 0.128906,-0.33984375 l 0.703125,-1.16015629 h 2.34375 c 0.02344,0.2109375 0.05859,0.515625 0.08203,0.7382813 0.03516,0.35156249 0.08203,0.74999999 0.08203,0.77343749 0,0.12890625 -0.117188,0.28125 -0.644532,0.28125 -0.08203,0 -0.199218,0 -0.199218,0.1640625 0,0.09375 0.07031,0.1171874975 0.128906,0.1171874975 0.175781,0 0.386719,-0.0234374975 0.5625,-0.0234374975 0.1875,0 0.398437,0 0.539062,0 0.304688,0 0.316407,0 0.527344,0 0.152344,0.01171875 0.351563,0.0234374975 0.503906,0.0234374975 0.04687,0 0.164063,0 0.164063,-0.1640624975 0,-0.1171875 -0.09375,-0.1171875 -0.199219,-0.1171875 -0.539062,0 -0.550781,-0.0585938 -0.574219,-0.31640625 L 27.551258,-6.1762891 c -0.02344,-0.1992187 -0.02344,-0.2460937 -0.175781,-0.2460937 -0.128907,0 -0.1875,0.070312 -0.257813,0.1875 z m 1.089843,-1.2890625 1.804688,-2.9648438 0.339844,2.9648438 z m 0,0"
         style="fill:#000000;fill-opacity:1;fill-rule:nonzero;stroke:none" />
      <path
         id="path36"
         d="m 30.25243,-2.3208203 c 0.199218,0.058594 0.398437,0.082031 0.609375,0.082031 0.128906,0 0.457031,0 0.84375,-0.2109375 0.09375,-0.058594 0.46875,-0.3046875 0.46875,-0.4335937 0,-0.082031 -0.05859,-0.09375 -0.08203,-0.09375 -0.02344,0 -0.02344,0 -0.09375,0.023437 -0.210937,0.082031 -0.515625,0.1640625 -0.902343,0.1640625 -0.292969,0 -0.621094,-0.046875 -0.890625,-0.1523438 -0.05859,-0.023437 -0.08203,-0.035156 -0.105469,-0.035156 -0.08203,0 -0.08203,0.058594 -0.08203,0.1640625 v 1.7929687 c 0,0.09375 0,0.16406254 0.105468,0.16406254 0.05859,0 0.07031,-0.0234375 0.117188,-0.0703125 0.140625,-0.18750004 0.410156,-0.38671874 0.878906,-0.38671874 0.726563,0 0.726563,0.89062499 0.726563,1.07812499 0,0.2343749975 -0.01172,0.57421875 -0.210938,0.8203125 -0.1875,0.22265625 -0.457031,0.31640625 -0.714844,0.31640625 -0.410156,0 -0.832031,-0.22265625 -0.972656,-0.57421875 0.292969,0 0.328125,-0.234375 0.328125,-0.3046875 0,-0.1640625 -0.117187,-0.3046875 -0.304687,-0.3046875 -0.05859,0 -0.304688,0.0234375 -0.304688,0.328125 0,0.55078125 0.515625,1.07812501 1.265625,1.07812501 0.820313,0 1.511719,-0.58593751 1.511719,-1.33593751 0,-0.6796875 -0.550781,-1.30078129 -1.3125,-1.30078129 -0.386719,0 -0.691406,0.1289063 -0.878906,0.2929688 z m 0,0"
         style="fill:#000000;fill-opacity:1;fill-rule:nonzero;stroke:none" />
      <path
         id="path37"
         d="m 42.296375,-2.9653516 c 0.117187,0 0.292969,0 0.292969,-0.1875 0,-0.1992187 -0.199219,-0.1992187 -0.328125,-0.1992187 h -5.472657 c -0.140625,0 -0.328125,0 -0.328125,0.1992187 0,0.1875 0.175782,0.1875 0.292969,0.1875 z m -0.03516,1.828125 c 0.128906,0 0.328125,0 0.328125,-0.1992187 0,-0.1875 -0.175782,-0.1875 -0.292969,-0.1875 h -5.542969 c -0.117187,0 -0.292969,0 -0.292969,0.1875 0,0.1992187 0.1875,0.1992187 0.328125,0.1992187 z m 4.344726,-1.9570312 c 0,0.1640625 0,0.2578125 0.117188,0.2578125 0.07031,0 0.105469,-0.035156 0.152344,-0.1171875 0.269531,-0.375 0.703125,-0.5859375 1.171875,-0.5859375 0.960937,0 0.960937,1.3828125 0.960937,1.6992187 0,0.28125 0,0.8320313 -0.257812,1.24218754 -0.234375,0.375 -0.621094,0.5390625 -0.960938,0.5390625 -0.539062,0 -1.136719,-0.328125 -1.347656,-0.99609374 0.01172,0 0.05859,0.023437 0.117187,0.023437 0.1875,0 0.445313,-0.1171875 0.445313,-0.4335938 0,-0.28125 -0.199219,-0.4453125 -0.445313,-0.4453125 -0.1875,0 -0.433593,0.1054688 -0.433593,0.46875 0,0.80859379 0.679687,1.64062504 1.675781,1.64062504 1.089844,0 2.003906,-0.87890625 2.003906,-1.99218754 0,-1.0898437 -0.761719,-1.96875 -1.746094,-1.96875 -0.421875,0 -0.867187,0.140625 -1.183593,0.4570313 v -1.7578125 c 0.269531,0.082031 0.550781,0.1171875 0.832031,0.1171875 1.101562,0 1.746094,-0.796875 1.746094,-0.9140625 0,-0.070312 -0.05859,-0.1054688 -0.105469,-0.1054688 -0.01172,0 -0.03516,0 -0.117188,0.035156 -0.410156,0.1757812 -0.832031,0.2460937 -1.207031,0.2460937 -0.386719,0 -0.785156,-0.070312 -1.195312,-0.2460937 -0.09375,-0.035156 -0.105469,-0.035156 -0.117188,-0.035156 -0.105469,0 -0.105469,0.082031 -0.105469,0.234375 z m 12.052735,1.0429687 c 0.128906,0 0.316406,0 0.316406,-0.1875 0,-0.1992187 -0.175781,-0.1992187 -0.316406,-0.1992187 h -2.554688 v -2.5664063 c 0,-0.140625 0,-0.3164062 -0.199219,-0.3164062 -0.1875,0 -0.1875,0.1875 -0.1875,0.3164062 v 2.5664063 h -2.566406 c -0.117187,0 -0.304687,0 -0.304687,0.1875 0,0.1992187 0.164062,0.1992187 0.304687,0.1992187 h 2.566406 v 2.56640629 c 0,0.140625 0,0.3046875 0.199219,0.3046875 0.1875,0 0.1875,-0.1875 0.1875,-0.3046875 V -2.0512891 Z m 4.429687,-2.015625 c -0.269531,-0.1757812 -0.480469,-0.4101562 -0.480469,-0.75 0,-0.5859375 0.632813,-0.9257812 1.21875,-0.9257812 0.691407,0 1.242188,0.4804687 1.242188,1.1015625 0,0.6328125 -0.527344,1.0429687 -0.890625,1.2539062 z m 1.3125,0.8203125 c 0.445313,-0.2109375 1.101563,-0.6679687 1.101563,-1.3945312 0,-0.8320313 -0.84375,-1.3242188 -1.652344,-1.3242188 -0.9375,0 -1.675781,0.6679688 -1.675781,1.4882813 0,0.3398437 0.128906,0.6679687 0.339843,0.9257812 0.152344,0.1757813 0.210938,0.2109375 0.726563,0.5390625 -0.785156,0.375 -1.3125,0.9257813 -1.3125,1.6523438 0,0.96093749 0.9375,1.55859374 1.910156,1.55859374 1.042969,0 1.921875,-0.73828125 1.921875,-1.71093754 0,-0.8671875 -0.667969,-1.2890625 -0.890625,-1.4414062 -0.105469,-0.070312 -0.363281,-0.234375 -0.46875,-0.2929688 z m -0.914062,0.3867188 1.125,0.703125 c 0.210937,0.1289062 0.65625,0.421875 0.65625,0.9609375 0,0.71484374 -0.714844,1.13671874 -1.417969,1.13671874 -0.785156,0 -1.441406,-0.55078125 -1.441406,-1.30078124 0,-0.6445313 0.445312,-1.171875 1.078125,-1.5 z M 75.06493,-2.9653516 c 0.117187,0 0.292968,0 0.292968,-0.1875 0,-0.1992187 -0.199218,-0.1992187 -0.328125,-0.1992187 h -5.472656 c -0.140625,0 -0.328125,0 -0.328125,0.1992187 0,0.1875 0.175781,0.1875 0.292969,0.1875 z m -0.03516,1.828125 c 0.128907,0 0.328125,0 0.328125,-0.1992187 0,-0.1875 -0.175781,-0.1875 -0.292968,-0.1875 h -5.542969 c -0.117188,0 -0.292969,0 -0.292969,0.1875 0,0.1992187 0.1875,0.1992187 0.328125,0.1992187 z m 6.137696,-4.59375 c 0,-0.2226562 -0.01172,-0.234375 -0.234375,-0.234375 -0.5625,0.5625 -1.382813,0.5625 -1.664063,0.5625 v 0.28125 c 0.175781,0 0.714844,0 1.207031,-0.234375 v 4.64062504 c 0,0.328125 -0.03516,0.43359375 -0.867187,0.43359375 h -0.28125 V -5.078125e-4 C 79.644031,-0.02394531 80.440906,-0.02394531 80.815906,-0.02394531 c 0.363281,0 1.171875,0 1.488281,0.0234374975 V -0.28175781 h -0.28125 c -0.832031,0 -0.855468,-0.10546875 -0.855468,-0.43359375 z m 4.608398,2.578125 c 0.832031,-0.3164062 1.230469,-0.9726562 1.230469,-1.59375 0,-0.6914062 -0.761719,-1.21875 -1.6875,-1.21875 -0.9375,0 -1.640625,0.5273438 -1.640625,1.2070313 0,0.2929687 0.199219,0.46875 0.457031,0.46875 0.269531,0 0.457031,-0.1875 0.457031,-0.4570313 0,-0.3046875 -0.222656,-0.4453125 -0.527343,-0.4453125 0.234375,-0.375 0.785156,-0.5507812 1.21875,-0.5507812 0.75,0 0.890625,0.5859375 0.890625,1.0078125 0,0.2695312 -0.05859,0.703125 -0.28125,1.0429687 -0.269532,0.3984375 -0.585938,0.421875 -0.84375,0.4335938 -0.234375,0.023437 -0.246094,0.023437 -0.316407,0.023437 -0.08203,0.011719 -0.152343,0.011719 -0.152343,0.1171875 0,0.1171875 0.07031,0.1171875 0.222656,0.1171875 h 0.421875 c 0.773437,0 1.125,0.6210937 1.125,1.4765625 0,1.14843749 -0.621094,1.46484374 -1.078125,1.46484374 -0.164063,0 -1.03125,-0.03515625 -1.441406,-0.703125 0.328125,0.046875 0.574218,-0.17578125 0.574218,-0.48046874 0,-0.3046875 -0.222656,-0.4921875 -0.480468,-0.4921875 -0.222657,0 -0.492188,0.140625 -0.492188,0.515625 0,0.79687499 0.832031,1.41796874 1.875,1.41796874 1.113281,0 1.957031,-0.80859375 1.957031,-1.72265624 0,-0.7851563 -0.621093,-1.4414063 -1.488281,-1.6289058 z m 0,0"
         style="fill:#000000;fill-opacity:1;fill-rule:nonzero;stroke:none" />
      <path
         id="path38"
         d="m 99.404773,-2.9653516 c 0.457032,0.3867188 0.902347,0.5976563 1.195317,0.7148438 -0.38672,0.1757812 -0.78516,0.3867187 -1.195317,0.7265625 h -5.8125 c -0.128906,0 -0.304687,0 -0.304687,0.1875 0,0.1992187 0.1875,0.1992187 0.351562,0.1992187 h 5.332032 c -0.5625,0.59765629 -0.878907,1.21875004 -0.878907,1.28906254 0,0.1171875 0.117188,0.1171875 0.1875,0.1171875 0.117188,0 0.152344,0 0.199219,-0.0820313 0.726563,-1.39453124 1.734378,-2.00390624 2.894528,-2.32031254 0.0703,-0.023437 0.0937,-0.070312 0.0937,-0.1054688 0,-0.09375 -0.082,-0.1054687 -0.0937,-0.1171875 -0.44531,-0.1289062 -1.0664,-0.2929687 -1.83984,-0.9492187 -0.328125,-0.2929688 -0.714844,-0.7148437 -1.007813,-1.2773437 -0.09375,-0.1640625 -0.09375,-0.1757812 -0.246094,-0.1757812 -0.07031,0 -0.1875,0 -0.1875,0.1171875 0,0.070312 0.304688,0.6796874 0.878907,1.2890624 h -5.332032 c -0.164062,0 -0.351562,0 -0.351562,0.1992187 0,0.1875 0.175781,0.1875 0.304687,0.1875 z m 0,0"
         style="fill:#000000;fill-opacity:1;fill-rule:nonzero;stroke:none" />
      <path
         id="path39"
         d="m 110.7163,-3.4223828 c -0.35157,0.011719 -0.52735,0.2695312 -0.52735,0.4921875 0,0.2578125 0.23438,0.3164062 0.33985,0.3164062 0.1875,0 0.5039,-0.1523437 0.5039,-0.5742187 0,-0.46875 -0.46875,-0.7734375 -1.08984,-0.7734375 -1.21875,0 -2.44922,1.2304687 -2.44922,2.53125 0,0.89062499 0.59766,1.52343749 1.5,1.52343749 1.34766,0 2.09766,-0.92578125 2.09766,-1.04296875 0,-0.0585937 -0.0586,-0.12890624 -0.11719,-0.12890624 -0.0469,0 -0.0586,0.011719 -0.14063,0.10546874 -0.53906,0.66796875 -1.34765,0.84375 -1.8164,0.84375 -0.50391,0 -0.83203,-0.328125 -0.83203,-0.97265624 0,-0.3867188 0.16406,-1.2773438 0.52734,-1.8515625 0.21094,-0.3164063 0.66797,-0.7851563 1.24219,-0.7851563 0.16406,0 0.53906,0.035156 0.76172,0.3164063 z m 2.08007,2.015625 c 0.0937,-0.421875 0.26954,-1.078125 0.26954,-1.1484375 0.0234,-0.058594 0.24609,-0.4804688 0.5625,-0.796875 0.26953,-0.2460938 0.60937,-0.3867188 0.96093,-0.3867188 0.48047,0 0.48047,0.4804688 0.48047,0.6328125 0,0.5390625 -0.42187,1.640625 -0.51562,1.9101563 -0.11719,0.28124999 -0.15235,0.37499999 -0.15235,0.53906249 0,0.48046875 0.375,0.75 0.77344,0.75 0.86719,0 1.20703,-1.27734379 1.20703,-1.37109379 0,-0.046875 -0.0234,-0.1171875 -0.11719,-0.1171875 -0.0937,0 -0.10546,0.046875 -0.14062,0.1640625 -0.22266,0.76171879 -0.59766,1.10156254 -0.92578,1.10156254 -0.0586,0 -0.22266,0 -0.22266,-0.28125 0,-0.22265625 0.0937,-0.45703125 0.16406,-0.65625004 0.17579,-0.4570312 0.53907,-1.40625 0.53907,-1.9101562 0,-0.796875 -0.59766,-0.984375 -1.06641,-0.984375 -0.83203,0 -1.27734,0.5859375 -1.41797,0.7734375 -0.0586,-0.4804688 -0.42187,-0.7734375 -0.86719,-0.7734375 -0.375,0 -0.5625,0.28125 -0.6914,0.515625 -0.15235,0.3164062 -0.28125,0.8320312 -0.28125,0.8671875 0,0.082031 0.0703,0.1054687 0.1289,0.1054687 0.0937,0 0.11719,-0.046875 0.16407,-0.2226562 0.16406,-0.7148438 0.35156,-1.0429688 0.65625,-1.0429688 0.26953,0 0.26953,0.28125 0.26953,0.421875 0,0.1875 -0.0703,0.46875 -0.11719,0.703125 -0.0703,0.234375 -0.15234,0.609375 -0.19922,0.7265625 l -0.35156,1.46484379 c -0.0703,0.2109375 -0.0703,0.234375 -0.0703,0.2578125 0,0.1171875 0.082,0.2578125 0.28125,0.2578125 0.1289,0 0.25781,-0.0703125 0.32812,-0.1875 0.0234,-0.046875 0.0937,-0.33984375 0.14063,-0.515625 z m 5.77149,-2.1796875 h 0.85547 c 0.15234,0 0.26953,0 0.26953,-0.1640625 0,-0.1171875 -0.0937,-0.1171875 -0.25781,-0.1171875 h -0.79688 l 0.36328,-1.4882813 c 0,-0.140625 -0.11718,-0.2578125 -0.26953,-0.2578125 -0.29297,0 -0.36328,0.2578125 -0.375,0.3515625 l -0.36328,1.3945313 h -0.84375 c -0.16406,0 -0.28125,0 -0.28125,0.1640625 0,0.1171875 0.10547,0.1171875 0.26953,0.1171875 h 0.79688 l -0.60938,2.4375 c -0.082,0.26953124 -0.082,0.29296874 -0.082,0.41015624 0,0.52734375 0.41016,0.83203125 0.87891,0.83203125 0.92578,0 1.45312,-1.28906249 1.45312,-1.37109379 0,-0.046875 -0.0234,-0.1171875 -0.11719,-0.1171875 -0.082,0 -0.0937,0.035156 -0.15234,0.1875 -0.28125,0.64453129 -0.72656,1.07812504 -1.17187,1.07812504 -0.17579,0 -0.28125,-0.1171875 -0.28125,-0.41015625 0,-0.19921875 0.0234,-0.3046875 0.0586,-0.43359375 z m 0,0"
         style="fill:#000000;fill-opacity:1;fill-rule:nonzero;stroke:none" />
      <path
         id="path40"
         d="m 128.89501,-2.9653516 c 0.11719,0 0.29297,0 0.29297,-0.1875 0,-0.1992187 -0.19922,-0.1992187 -0.32813,-0.1992187 h -5.47265 c -0.14063,0 -0.32813,0 -0.32813,0.1992187 0,0.1875 0.17578,0.1875 0.29297,0.1875 z m -0.0352,1.828125 c 0.12891,0 0.32813,0 0.32813,-0.1992187 0,-0.1875 -0.17578,-0.1875 -0.29297,-0.1875 H 123.352 c -0.11719,0 -0.29297,0 -0.29297,0.1875 0,0.1992187 0.1875,0.1992187 0.32813,0.1992187 z m 7.55274,-0.4453125 h -0.2461 c -0.0234,0.1171875 -0.0937,0.64453129 -0.21094,0.78515629 -0.0469,0.0820313 -0.66796,0.0820313 -0.84375,0.0820313 h -1.59375 l 0.87891,-0.84374999 c 1.47656,-1.2773437 2.01563,-1.7460937 2.01563,-2.6601562 0,-1.03125 -0.84375,-1.7460938 -1.94532,-1.7460938 -1.03125,0 -1.73437,0.8085938 -1.73437,1.6289063 0,0.4453125 0.38672,0.4921875 0.46875,0.4921875 0.19922,0 0.46875,-0.140625 0.46875,-0.46875 0,-0.2695313 -0.1875,-0.46875 -0.46875,-0.46875 -0.0469,0 -0.0703,0 -0.10547,0.011719 0.21094,-0.6328125 0.78516,-0.9257812 1.26562,-0.9257812 0.91407,0 1.23047,0.8554687 1.23047,1.4765625 0,0.9140625 -0.6914,1.6523437 -1.125,2.1210936 l -1.64062,1.76953134 c -0.0937,0.10546875 -0.0937,0.1171875 -0.0937,0.3281249975 h 3.43359 z m 0,0"
         style="fill:#000000;fill-opacity:1;fill-rule:nonzero;stroke:none" />
      <path
         id="path41"
         d="m 138.50731,-0.14113281 c 0,0.29296875 0,1.03125 -0.65625,1.66406251 -0.0586,0.058594 -0.0586,0.058594 -0.0586,0.09375 0,0.070312 0.0586,0.1171875 0.11719,0.1171875 0.0937,0 0.82031,-0.703125 0.82031,-1.75781251 0,-0.55078125 -0.1875,-0.94921875 -0.57422,-0.94921875 -0.30469,0 -0.49219,0.234375 -0.49219,0.4921875 0,0.24609375 0.1875,0.4804687475 0.49219,0.4804687475 0.12891,0 0.26953,-0.0468749975 0.35156,-0.1406249975 z m 7.33887,-5.77734379 c 0.0352,-0.1289062 0.0352,-0.140625 0.0352,-0.1757812 0,-0.082031 -0.0469,-0.1289063 -0.12891,-0.1289063 -0.15234,0 -0.90234,0.070312 -1.08984,0.09375 -0.0703,0.011719 -0.1875,0.011719 -0.1875,0.1640625 0,0.1171875 0.10546,0.1171875 0.23437,0.1171875 0.42188,0 0.42188,0.070312 0.42188,0.140625 0,0.046875 0,0.058594 -0.0469,0.2226563 l -1.10156,4.40625 c -0.0469,0.18749999 -0.0469,0.30468749 -0.0469,0.33984374 0,0.5625 0.45703,0.83203125 0.85547,0.83203125 0.41016,0 0.59766,-0.31640625 0.69141,-0.515625 0.16406,-0.31640625 0.26953,-0.83203129 0.26953,-0.85546879 0,-0.046875 -0.0234,-0.1171875 -0.11719,-0.1171875 -0.10547,0 -0.11719,0.046875 -0.15234,0.2226563 -0.15235,0.60937499 -0.32813,1.04296874 -0.66797,1.04296874 -0.17578,0 -0.26953,-0.1171875 -0.26953,-0.41015625 0,-0.1875 0.0117,-0.24609375 0.0469,-0.3984375 z m 0,0"
         style="fill:#000000;fill-opacity:1;fill-rule:nonzero;stroke:none" />
      <path
         id="path42"
         d="m 152.76317,-2.0512891 c 0.12891,0 0.31641,0 0.31641,-0.1875 0,-0.1992187 -0.17578,-0.1992187 -0.31641,-0.1992187 h -2.55469 v -2.5664063 c 0,-0.140625 0,-0.3164062 -0.19921,-0.3164062 -0.1875,0 -0.1875,0.1875 -0.1875,0.3164062 v 2.5664063 h -2.56641 c -0.11719,0 -0.30469,0 -0.30469,0.1875 0,0.1992187 0.16406,0.1992187 0.30469,0.1992187 h 2.56641 v 2.56640629 c 0,0.140625 0,0.3046875 0.19921,0.3046875 0.1875,0 0.1875,-0.1875 0.1875,-0.3046875 V -2.0512891 Z m 7.16602,0 c 0.1289,0 0.3164,0 0.3164,-0.1875 0,-0.1992187 -0.17578,-0.1992187 -0.3164,-0.1992187 h -2.55469 v -2.5664063 c 0,-0.140625 0,-0.3164062 -0.19922,-0.3164062 -0.1875,0 -0.1875,0.1875 -0.1875,0.3164062 v 2.5664063 h -2.56641 c -0.11718,0 -0.30468,0 -0.30468,0.1875 0,0.1992187 0.16406,0.1992187 0.30468,0.1992187 h 2.56641 v 2.56640629 c 0,0.140625 0,0.3046875 0.19922,0.3046875 0.1875,0 0.1875,-0.1875 0.1875,-0.3046875 V -2.0512891 Z m 0,0"
         style="fill:#000000;fill-opacity:1;fill-rule:nonzero;stroke:none" />
      <path
         id="path43"
         d="m 162.39891,-0.14113281 c 0,0.29296875 0,1.03125 -0.65625,1.66406251 -0.0586,0.058594 -0.0586,0.058594 -0.0586,0.09375 0,0.070312 0.0586,0.1171875 0.11719,0.1171875 0.0937,0 0.82031,-0.703125 0.82031,-1.75781251 0,-0.55078125 -0.1875,-0.94921875 -0.57422,-0.94921875 -0.30469,0 -0.49219,0.234375 -0.49219,0.4921875 0,0.24609375 0.1875,0.4804687475 0.49219,0.4804687475 0.12891,0 0.26953,-0.0468749975 0.35156,-0.1406249975 z m 8.64844,-3.49218749 c -0.29297,0.058594 -0.44531,0.3046875 -0.44531,0.4921875 0,0.1757812 0.12891,0.328125 0.35156,0.328125 0.23438,0 0.49219,-0.2109375 0.49219,-0.5390625 0,-0.3515625 -0.32813,-0.609375 -0.76172,-0.609375 -0.67969,0 -1.05469,0.5039062 -1.18359,0.6679687 -0.10547,-0.4921875 -0.50391,-0.6679687 -0.84375,-0.6679687 -0.32813,0 -0.52735,0.1992187 -0.67969,0.5039062 -0.17578,0.328125 -0.29297,0.84375 -0.29297,0.8789063 0,0.082031 0.0703,0.1054687 0.12891,0.1054687 0.0937,0 0.11718,-0.046875 0.16406,-0.2226562 0.16406,-0.7148438 0.35156,-1.0429688 0.65625,-1.0429688 0.26953,0 0.26953,0.28125 0.26953,0.421875 0,0.1875 -0.0703,0.46875 -0.11719,0.703125 -0.0703,0.234375 -0.15234,0.609375 -0.19922,0.7265625 l -0.35156,1.46484379 c -0.0703,0.2109375 -0.0703,0.234375 -0.0703,0.2578125 0,0.1171875 0.082,0.2578125 0.28125,0.2578125 0.29297,0 0.35156,-0.234375 0.41016,-0.4921875 0.11718,-0.38671875 0.11718,-0.41015625 0.19921,-0.77343749 0.33985,-1.3476563 0.38672,-1.5585938 0.41016,-1.6054688 0.0469,-0.1054687 0.45703,-0.9609375 1.20703,-0.9609375 0.21094,0 0.32813,0.070312 0.375,0.1054688 z m 0,0"
         style="fill:#000000;fill-opacity:1;fill-rule:nonzero;stroke:none" />
      <path
         id="path44"
         d="m 177.88524,-2.0512891 c 0.16406,0 0.33985,0 0.33985,-0.1992187 0,-0.1875 -0.1875,-0.1875 -0.33985,-0.1875 h -4.94531 c -0.15234,0 -0.32813,0 -0.32813,0.1875 0,0.1992187 0.16407,0.1992187 0.32813,0.1992187 z m 7.16602,0 c 0.16406,0 0.33984,0 0.33984,-0.1992187 0,-0.1875 -0.1875,-0.1875 -0.33984,-0.1875 h -4.94531 c -0.15235,0 -0.32813,0 -0.32813,0.1875 0,0.1992187 0.16406,0.1992187 0.32813,0.1992187 z m 0,0"
         style="fill:#000000;fill-opacity:1;fill-rule:nonzero;stroke:none" />
    </g>
  </g>
</svg>
