<svg xmlns="http://www.w3.org/2000/svg" width="1140" height="830" viewBox="0 0 1140 830"><rect width="100%" height="100%" fill="white"/><style>
text{font-family:"Noto Sans CJK KR","Malgun Gothic",Arial,sans-serif;fill:#202020}.title{font-size:24px;font-weight:700}.label{font-size:17px}.small{font-size:14px;fill:#5b5b5b}.node{fill:white;stroke:#555;stroke-width:1.7}.edge{fill:none;stroke:#999;stroke-width:1.7;marker-end:url(#arrow)}.focus{fill:none;stroke:#202020;stroke-width:4;marker-end:url(#arrowBold)}.back{fill:none;stroke:#202020;stroke-width:3;stroke-dasharray:8 6;marker-end:url(#arrowBold)}.cell{fill:white;stroke:#777;stroke-width:1}.cellHi{fill:#e7e7e7;stroke:#202020;stroke-width:2}.stackCell{fill:white;stroke:#777;stroke-width:1.2;rx:4}.stackHi{fill:#e7e7e7;stroke:#202020;stroke-width:2;rx:4}.scc{fill:none;stroke:#202020;stroke-width:2.2;stroke-dasharray:9 6;rx:18}</style><defs><marker id="arrow" markerWidth="10" markerHeight="10" refX="8" refY="3" orient="auto"><path d="M0,0 L0,6 L9,3 z" fill="#999"/></marker><marker id="arrowBold" markerWidth="10" markerHeight="10" refX="8" refY="3" orient="auto"><path d="M0,0 L0,6 L9,3 z" fill="#202020"/></marker></defs><text x="570.0" y="44" text-anchor="middle" class="title">6번과 7번 정점을 하나의 SCC로 확정한 상태</text><path d="M 143.0 140.0 L 322.0 140.0" class="edge"/><path d="M 378.0 140.0 L 557.0 140.0" class="edge"/><path d="M 613.0 140.0 L 792.0 140.0" class="edge"/><path d="M 792 128 Q 702.5 68 613 128" class="edge"/><path d="M 585.0 168.0 L 585.0 352.0" class="focus"/><path d="M 613.0 380.0 L 792.0 380.0" class="edge"/><path d="M 832 356 C 912 290, 916 390, 846 390" class="edge"/><path d="M 557.0 380.0 L 378.0 380.0" class="focus"/><path d="M 378 392 Q 467.5 452 557 392" class="back"/><path d="M 115.0 352.0 L 115.0 168.0" class="edge"/><path d="M 143.0 380.0 L 322.0 380.0" class="edge"/><path d="M 330.4 160.0 L 134.6 360.0" class="edge"/><path d="M 350.0 168.0 L 350.0 352.0" class="edge"/><path d="M 820.0 168.0 L 820.0 352.0" class="edge"/><circle cx="115" cy="140" r="27" class="node"/><text x="115" y="146" text-anchor="middle" class="label">1</text><circle cx="350" cy="140" r="27" class="node"/><text x="350" y="146" text-anchor="middle" class="label">2</text><circle cx="585" cy="140" r="27" class="node"/><text x="585" y="146" text-anchor="middle" class="label">3</text><circle cx="820" cy="140" r="27" class="node"/><text x="820" y="146" text-anchor="middle" class="label">4</text><circle cx="115" cy="380" r="27" class="node"/><text x="115" y="386" text-anchor="middle" class="label">5</text><circle cx="350" cy="380" r="27" class="node"/><text x="350" y="386" text-anchor="middle" class="label">6</text><circle cx="585" cy="380" r="27" class="node"/><text x="585" y="386" text-anchor="middle" class="label">7</text><circle cx="820" cy="380" r="27" class="node"/><text x="820" y="386" text-anchor="middle" class="label">8</text><circle cx="820" cy="380" r="50" class="scc"/><rect x="536" y="82" width="333" height="116" class="scc"/><rect x="300" y="322" width="334" height="116" class="scc"/><text x="165" y="612" text-anchor="end" class="label">par</text><text x="249" y="574" text-anchor="middle" class="small">1</text><rect x="214" y="585" width="70" height="42" class="cell"/><text x="249" y="613" text-anchor="middle" class="label">1</text><text x="340" y="574" text-anchor="middle" class="small">2</text><rect x="305" y="585" width="70" height="42" class="cell"/><text x="340" y="613" text-anchor="middle" class="label">2</text><text x="431" y="574" text-anchor="middle" class="small">3</text><rect x="396" y="585" width="70" height="42" class="cell"/><text x="431" y="613" text-anchor="middle" class="label">3</text><text x="522" y="574" text-anchor="middle" class="small">4</text><rect x="487" y="585" width="70" height="42" class="cell"/><text x="522" y="613" text-anchor="middle" class="label">4</text><text x="613" y="574" text-anchor="middle" class="small">5</text><rect x="578" y="585" width="70" height="42" class="cell"/><text x="613" y="613" text-anchor="middle" class="label">-</text><text x="704" y="574" text-anchor="middle" class="small">6</text><rect x="669" y="585" width="70" height="42" class="cell"/><text x="704" y="613" text-anchor="middle" class="label">7</text><text x="795" y="574" text-anchor="middle" class="small">7</text><rect x="760" y="585" width="70" height="42" class="cell"/><text x="795" y="613" text-anchor="middle" class="label">6</text><text x="886" y="574" text-anchor="middle" class="small">8</text><rect x="851" y="585" width="70" height="42" class="cell"/><text x="886" y="613" text-anchor="middle" class="label">5</text><text x="165" y="697" text-anchor="end" class="label">rem</text><text x="249" y="659" text-anchor="middle" class="small">1</text><rect x="214" y="670" width="70" height="42" class="cell"/><text x="249" y="698" text-anchor="middle" class="label">1</text><text x="340" y="659" text-anchor="middle" class="small">2</text><rect x="305" y="670" width="70" height="42" class="cell"/><text x="340" y="698" text-anchor="middle" class="label">2</text><text x="431" y="659" text-anchor="middle" class="small">3</text><rect x="396" y="670" width="70" height="42" class="cell"/><text x="431" y="698" text-anchor="middle" class="label">3</text><text x="522" y="659" text-anchor="middle" class="small">4</text><rect x="487" y="670" width="70" height="42" class="cell"/><text x="522" y="698" text-anchor="middle" class="label">3</text><text x="613" y="659" text-anchor="middle" class="small">5</text><rect x="578" y="670" width="70" height="42" class="cell"/><text x="613" y="698" text-anchor="middle" class="label">-</text><text x="704" y="659" text-anchor="middle" class="small">6</text><rect x="669" y="670" width="70" height="42" class="cellHi"/><text x="704" y="698" text-anchor="middle" class="label">6</text><text x="795" y="659" text-anchor="middle" class="small">7</text><rect x="760" y="670" width="70" height="42" class="cellHi"/><text x="795" y="698" text-anchor="middle" class="label">6</text><text x="886" y="659" text-anchor="middle" class="small">8</text><rect x="851" y="670" width="70" height="42" class="cell"/><text x="886" y="698" text-anchor="middle" class="label">5</text><text x="165" y="779" text-anchor="end" class="label">stack</text><rect x="214" y="752" width="62" height="42" class="stackCell"/><text x="245" y="780" text-anchor="middle" class="label">1</text><rect x="288" y="752" width="62" height="42" class="stackCell"/><text x="319" y="780" text-anchor="middle" class="label">2</text></svg>