<svg xmlns="http://www.w3.org/2000/svg" width="1140" height="560" viewBox="0 0 1140 560">
<style>
text { font-family: "Noto Sans CJK KR", "Malgun Gothic", Arial, sans-serif; fill:#222; }
.title { font-size:24px; font-weight:700; }
.label { font-size:18px; }
.small { font-size:14px; fill:#555; }
.node { fill:#fff; stroke:#666; stroke-width:1.5; }
.node-hi { fill:#ddd; stroke:#222; stroke-width:2.2; }
.edge { stroke:#888; stroke-width:1.5; fill:none; marker-end:url(#arrow); }
.edge-hi { stroke:#222; stroke-width:2.4; stroke-dasharray:7 5; fill:none; marker-end:url(#arrow2); }
.panel { fill:#fcfcfc; stroke:#ccc; stroke-width:1.2; rx:10; }
.cell { fill:#fff; stroke:#777; stroke-width:1; }
.cell-hi { fill:#e7e7e7; stroke:#222; stroke-width:1.8; }
.cell-muted { fill:#fafafa; stroke:#bbb; stroke-width:1; }
</style>
<defs>
  <marker id="arrow" markerWidth="9" markerHeight="9" refX="8" refY="3" orient="auto"><path d="M0,0 L0,6 L8,3 z" fill="#888"/></marker>
  <marker id="arrow2" markerWidth="9" markerHeight="9" refX="8" refY="3" orient="auto"><path d="M0,0 L0,6 L8,3 z" fill="#222"/></marker>
</defs><text x="570" y="42" text-anchor="middle" class="title">SPFA 탐색 시작</text><line x1="210" y1="95" x2="90" y2="340" class="edge"/><rect x="134.0" y="199.5" width="32" height="22" fill="white"/><text x="150.0" y="215.5" text-anchor="middle" class="small">4</text><line x1="210" y1="95" x2="340" y2="340" class="edge"/><rect x="259.0" y="199.5" width="32" height="22" fill="white"/><text x="275.0" y="215.5" text-anchor="middle" class="small">3</text><line x1="210" y1="95" x2="215" y2="245" class="edge"/><rect x="196.5" y="152.0" width="32" height="22" fill="white"/><text x="212.5" y="168.0" text-anchor="middle" class="small">1</text><line x1="90" y1="340" x2="215" y2="475" class="edge"/><rect x="136.5" y="389.5" width="32" height="22" fill="white"/><text x="152.5" y="405.5" text-anchor="middle" class="small">2</text><line x1="340" y1="340" x2="215" y2="475" class="edge"/><rect x="261.5" y="389.5" width="32" height="22" fill="white"/><text x="277.5" y="405.5" text-anchor="middle" class="small">1</text><line x1="215" y1="245" x2="215" y2="475" class="edge"/><rect x="199.0" y="342.0" width="32" height="22" fill="white"/><text x="215.0" y="358.0" text-anchor="middle" class="small">-3</text><circle cx="210" cy="95" r="23" class="node-hi"/><text x="210" y="102" text-anchor="middle" class="label">1</text><circle cx="90" cy="340" r="23" class="node"/><text x="90" y="347" text-anchor="middle" class="label">2</text><circle cx="340" cy="340" r="23" class="node"/><text x="340" y="347" text-anchor="middle" class="label">3</text><circle cx="215" cy="475" r="23" class="node"/><text x="215" y="482" text-anchor="middle" class="label">4</text><circle cx="215" cy="245" r="23" class="node"/><text x="215" y="252" text-anchor="middle" class="label">5</text><rect x="500" y="80" width="590" height="410" class="panel"/><text x="535" y="125" class="label" font-weight="700">dist</text><text x="560" y="158" text-anchor="middle" class="small">1</text><rect x="530" y="174" width="60" height="42" class="cell"/><text x="560" y="202" text-anchor="middle" class="label">0</text><text x="642" y="158" text-anchor="middle" class="small">2</text><rect x="612" y="174" width="60" height="42" class="cell"/><text x="642" y="202" text-anchor="middle" class="label">∞</text><text x="724" y="158" text-anchor="middle" class="small">3</text><rect x="694" y="174" width="60" height="42" class="cell"/><text x="724" y="202" text-anchor="middle" class="label">∞</text><text x="806" y="158" text-anchor="middle" class="small">4</text><rect x="776" y="174" width="60" height="42" class="cell"/><text x="806" y="202" text-anchor="middle" class="label">∞</text><text x="888" y="158" text-anchor="middle" class="small">5</text><rect x="858" y="174" width="60" height="42" class="cell"/><text x="888" y="202" text-anchor="middle" class="label">∞</text><text x="535" y="270" class="label" font-weight="700">queue</text><rect x="547" y="292" width="66" height="42" class="cell-hi"/><text x="580" y="320" text-anchor="middle" class="label">1</text><text x="535" y="382" class="label">시작 정점의 거리를 0으로 둔다.</text><text x="535" y="424" class="label">시작 정점을 큐에 넣는다.</text></svg>