<svg xmlns="http://www.w3.org/2000/svg" width="980" height="520" viewBox="0 0 980 520"><style>
text { font-family: "Noto Sans CJK KR", "Malgun Gothic", Arial, sans-serif; fill:#202020; }
.title { font-size:22px; font-weight:700; } .label { font-size:17px; } .small { font-size:14px; fill:#555; }
.cell { fill:white; stroke:#777; stroke-width:1; } .changed { fill:#e9e9e9; stroke:#202020; stroke-width:2; }
.node { fill:white; stroke:#555; stroke-width:1.4; } .edge { stroke:#777; stroke-width:1.5; }
.panel { fill:#fcfcfc; stroke:#c7c7c7; stroke-width:1.2; rx:10; }
</style><text x="490.0" y="45" text-anchor="middle" class="title">예시 그래프</text><line x1="230" y1="90" x2="100" y2="245" class="edge"/><rect x="152.0" y="151.5" width="26" height="22" fill="white"/><text x="165.0" y="167.5" text-anchor="middle" class="label">4</text><line x1="230" y1="90" x2="360" y2="245" class="edge"/><rect x="282.0" y="151.5" width="26" height="22" fill="white"/><text x="295.0" y="167.5" text-anchor="middle" class="label">3</text><line x1="230" y1="90" x2="230" y2="235" class="edge"/><rect x="217.0" y="146.5" width="26" height="22" fill="white"/><text x="230.0" y="162.5" text-anchor="middle" class="label">1</text><line x1="100" y1="245" x2="230" y2="235" class="edge"/><rect x="152.0" y="224.0" width="26" height="22" fill="white"/><text x="165.0" y="240.0" text-anchor="middle" class="label">3</text><line x1="230" y1="235" x2="360" y2="245" class="edge"/><rect x="282.0" y="224.0" width="26" height="22" fill="white"/><text x="295.0" y="240.0" text-anchor="middle" class="label">5</text><line x1="230" y1="235" x2="230" y2="410" class="edge"/><rect x="217.0" y="306.5" width="26" height="22" fill="white"/><text x="230.0" y="322.5" text-anchor="middle" class="label">3</text><line x1="100" y1="245" x2="230" y2="410" class="edge"/><rect x="152.0" y="311.5" width="26" height="22" fill="white"/><text x="165.0" y="327.5" text-anchor="middle" class="label">2</text><line x1="230" y1="410" x2="360" y2="245" class="edge"/><rect x="282.0" y="311.5" width="26" height="22" fill="white"/><text x="295.0" y="327.5" text-anchor="middle" class="label">1</text><circle cx="230" cy="90" r="23" class="node"/><text x="230" y="96" text-anchor="middle" class="label">1</text><circle cx="100" cy="245" r="23" class="node"/><text x="100" y="251" text-anchor="middle" class="label">2</text><circle cx="360" cy="245" r="23" class="node"/><text x="360" y="251" text-anchor="middle" class="label">3</text><circle cx="230" cy="410" r="23" class="node"/><text x="230" y="416" text-anchor="middle" class="label">4</text><circle cx="230" cy="235" r="23" class="node"/><text x="230" y="241" text-anchor="middle" class="label">5</text><rect x="500" y="120" width="400" height="230" class="panel"/><text x="540" y="175" class="label">모든 정점 쌍 사이의 최단 거리를 구한다.</text><text x="540" y="217" class="label">간선이 없다면 거리를 ∞로 둔다.</text><text x="540" y="259" class="label">자기 자신까지의 거리는 0으로 둔다.</text><text x="540" y="301" class="label">각 정점을 경유지로 하나씩 추가한다.</text></svg>