<svg xmlns="http://www.w3.org/2000/svg" width="360" height="250" viewBox="0 0 360 250">
<rect width="100%" height="100%" fill="white"/>

<style>
text{font-family:"Noto Sans CJK KR","Noto Sans KR","Apple SD Gothic Neo","Malgun Gothic",sans-serif;fill:#202020}
.node{fill:white;stroke:#202020;stroke-width:1.2}
.edge{stroke:#777;stroke-width:1.1}
.w{font-size:12px}
.label{font-size:14px}
</style>

<line x1="180" y1="42" x2="80" y2="130" class="edge"/><text x="116.0" y="78.0" text-anchor="middle" class="w">4</text>
<line x1="180" y1="42" x2="180" y2="122" class="edge"/><text x="192.0" y="82.0" text-anchor="middle" class="w">1</text>
<line x1="180" y1="42" x2="280" y2="130" class="edge"/><text x="244.0" y="78.0" text-anchor="middle" class="w">3</text>
<line x1="80" y1="130" x2="180" y2="122" class="edge"/><text x="130.0" y="118.0" text-anchor="middle" class="w">3</text>
<line x1="180" y1="122" x2="280" y2="130" class="edge"/><text x="230.0" y="118.0" text-anchor="middle" class="w">5</text>
<line x1="80" y1="130" x2="180" y2="220" class="edge"/><text x="115.0" y="180.0" text-anchor="middle" class="w">2</text>
<line x1="180" y1="122" x2="180" y2="220" class="edge"/><text x="192.0" y="171.0" text-anchor="middle" class="w">3</text>
<line x1="180" y1="220" x2="280" y2="130" class="edge"/><text x="245.0" y="180.0" text-anchor="middle" class="w">1</text>
<circle cx="180" cy="42" r="17" class="node"/>
<text x="180" y="47" text-anchor="middle" class="label">1</text>
<circle cx="80" cy="130" r="17" class="node"/>
<text x="80" y="135" text-anchor="middle" class="label">2</text>
<circle cx="280" cy="130" r="17" class="node"/>
<text x="280" y="135" text-anchor="middle" class="label">3</text>
<circle cx="180" cy="220" r="17" class="node"/>
<text x="180" y="225" text-anchor="middle" class="label">4</text>
<circle cx="180" cy="122" r="17" class="node"/>
<text x="180" y="127" text-anchor="middle" class="label">5</text>
</svg>