<svg xmlns="http://www.w3.org/2000/svg" width="360" height="270" viewBox="0 0 360 270">
<rect width="100%" height="100%" fill="white"/>

<style>
text{font-family:"Noto Sans CJK KR","Noto Sans KR","Apple SD Gothic Neo","Malgun Gothic",sans-serif;fill:#202020}
.axis{font-size:12px}
.num{font-size:12px}
.cell{fill:white;stroke:#999;stroke-width:1}
.cellHi{fill:#e0e0e0;stroke:#202020;stroke-width:1.2}
</style>

<text x="190.0" y="30" text-anchor="middle" class="axis">도착 정점</text>
<text x="57" y="140.0" text-anchor="middle" class="axis" transform="rotate(-90 57 140.0)">출발 정점</text>
<text x="122.0" y="47" text-anchor="middle" class="num">1</text>
<text x="89" y="76.0" text-anchor="middle" class="num">1</text>
<text x="156.0" y="47" text-anchor="middle" class="num">2</text>
<text x="89" y="110.0" text-anchor="middle" class="num">2</text>
<text x="190.0" y="47" text-anchor="middle" class="num">3</text>
<text x="89" y="144.0" text-anchor="middle" class="num">3</text>
<text x="224.0" y="47" text-anchor="middle" class="num">4</text>
<text x="89" y="178.0" text-anchor="middle" class="num">4</text>
<text x="258.0" y="47" text-anchor="middle" class="num">5</text>
<text x="89" y="212.0" text-anchor="middle" class="num">5</text>
<rect x="105" y="55" width="34" height="34" class="cell"/>
<text x="122.0" y="76.0" text-anchor="middle" class="num">0</text>
<rect x="139" y="55" width="34" height="34" class="cell"/>
<text x="156.0" y="76.0" text-anchor="middle" class="num">4</text>
<rect x="173" y="55" width="34" height="34" class="cell"/>
<text x="190.0" y="76.0" text-anchor="middle" class="num">3</text>
<rect x="207" y="55" width="34" height="34" class="cell"/>
<text x="224.0" y="76.0" text-anchor="middle" class="num">∞</text>
<rect x="241" y="55" width="34" height="34" class="cell"/>
<text x="258.0" y="76.0" text-anchor="middle" class="num">1</text>
<rect x="105" y="89" width="34" height="34" class="cell"/>
<text x="122.0" y="110.0" text-anchor="middle" class="num">4</text>
<rect x="139" y="89" width="34" height="34" class="cell"/>
<text x="156.0" y="110.0" text-anchor="middle" class="num">0</text>
<rect x="173" y="89" width="34" height="34" class="cell"/>
<text x="190.0" y="110.0" text-anchor="middle" class="num">∞</text>
<rect x="207" y="89" width="34" height="34" class="cell"/>
<text x="224.0" y="110.0" text-anchor="middle" class="num">2</text>
<rect x="241" y="89" width="34" height="34" class="cell"/>
<text x="258.0" y="110.0" text-anchor="middle" class="num">3</text>
<rect x="105" y="123" width="34" height="34" class="cell"/>
<text x="122.0" y="144.0" text-anchor="middle" class="num">3</text>
<rect x="139" y="123" width="34" height="34" class="cell"/>
<text x="156.0" y="144.0" text-anchor="middle" class="num">∞</text>
<rect x="173" y="123" width="34" height="34" class="cell"/>
<text x="190.0" y="144.0" text-anchor="middle" class="num">0</text>
<rect x="207" y="123" width="34" height="34" class="cell"/>
<text x="224.0" y="144.0" text-anchor="middle" class="num">1</text>
<rect x="241" y="123" width="34" height="34" class="cell"/>
<text x="258.0" y="144.0" text-anchor="middle" class="num">5</text>
<rect x="105" y="157" width="34" height="34" class="cell"/>
<text x="122.0" y="178.0" text-anchor="middle" class="num">∞</text>
<rect x="139" y="157" width="34" height="34" class="cell"/>
<text x="156.0" y="178.0" text-anchor="middle" class="num">2</text>
<rect x="173" y="157" width="34" height="34" class="cell"/>
<text x="190.0" y="178.0" text-anchor="middle" class="num">1</text>
<rect x="207" y="157" width="34" height="34" class="cell"/>
<text x="224.0" y="178.0" text-anchor="middle" class="num">0</text>
<rect x="241" y="157" width="34" height="34" class="cell"/>
<text x="258.0" y="178.0" text-anchor="middle" class="num">3</text>
<rect x="105" y="191" width="34" height="34" class="cell"/>
<text x="122.0" y="212.0" text-anchor="middle" class="num">1</text>
<rect x="139" y="191" width="34" height="34" class="cell"/>
<text x="156.0" y="212.0" text-anchor="middle" class="num">3</text>
<rect x="173" y="191" width="34" height="34" class="cell"/>
<text x="190.0" y="212.0" text-anchor="middle" class="num">5</text>
<rect x="207" y="191" width="34" height="34" class="cell"/>
<text x="224.0" y="212.0" text-anchor="middle" class="num">3</text>
<rect x="241" y="191" width="34" height="34" class="cell"/>
<text x="258.0" y="212.0" text-anchor="middle" class="num">0</text>
</svg>