<svg xmlns="http://www.w3.org/2000/svg" width="980" height="560" viewBox="0 0 980 560"><style>
text { font-family: "Noto Sans CJK KR", "Malgun Gothic", Arial, sans-serif; fill:#202020; }
.title { font-size:22px; font-weight:700; } .label { font-size:17px; } .small { font-size:14px; fill:#555; }
.cell { fill:white; stroke:#777; stroke-width:1; } .changed { fill:#e9e9e9; stroke:#202020; stroke-width:2; }
.node { fill:white; stroke:#555; stroke-width:1.4; } .edge { stroke:#777; stroke-width:1.5; }
.panel { fill:#fcfcfc; stroke:#c7c7c7; stroke-width:1.2; rx:10; }
</style><text x="490.0" y="45" text-anchor="middle" class="title">간선을 이용해 만든 초기 거리 행렬</text><text x="235" y="88" text-anchor="middle" class="label">도착 정점</text><text x="28" y="280" transform="rotate(-90 28 280)" text-anchor="middle" class="label">출발 정점</text><text x="119.0" y="102" text-anchor="middle" class="label">1</text><text x="66" y="155.96" text-anchor="middle" class="label">1</text><text x="177.0" y="102" text-anchor="middle" class="label">2</text><text x="66" y="213.96" text-anchor="middle" class="label">2</text><text x="235.0" y="102" text-anchor="middle" class="label">3</text><text x="66" y="271.96000000000004" text-anchor="middle" class="label">3</text><text x="293.0" y="102" text-anchor="middle" class="label">4</text><text x="66" y="329.96000000000004" text-anchor="middle" class="label">4</text><text x="351.0" y="102" text-anchor="middle" class="label">5</text><text x="66" y="387.96" text-anchor="middle" class="label">5</text><rect x="90" y="120" width="58" height="58" class="cell"/><text x="119.0" y="155.0" text-anchor="middle" class="label">0</text><rect x="148" y="120" width="58" height="58" class="cell"/><text x="177.0" y="155.0" text-anchor="middle" class="label">4</text><rect x="206" y="120" width="58" height="58" class="cell"/><text x="235.0" y="155.0" text-anchor="middle" class="label">3</text><rect x="264" y="120" width="58" height="58" class="cell"/><text x="293.0" y="155.0" text-anchor="middle" class="label">∞</text><rect x="322" y="120" width="58" height="58" class="cell"/><text x="351.0" y="155.0" text-anchor="middle" class="label">1</text><rect x="90" y="178" width="58" height="58" class="cell"/><text x="119.0" y="213.0" text-anchor="middle" class="label">4</text><rect x="148" y="178" width="58" height="58" class="cell"/><text x="177.0" y="213.0" text-anchor="middle" class="label">0</text><rect x="206" y="178" width="58" height="58" class="cell"/><text x="235.0" y="213.0" text-anchor="middle" class="label">∞</text><rect x="264" y="178" width="58" height="58" class="cell"/><text x="293.0" y="213.0" text-anchor="middle" class="label">2</text><rect x="322" y="178" width="58" height="58" class="cell"/><text x="351.0" y="213.0" text-anchor="middle" class="label">3</text><rect x="90" y="236" width="58" height="58" class="cell"/><text x="119.0" y="271.0" text-anchor="middle" class="label">3</text><rect x="148" y="236" width="58" height="58" class="cell"/><text x="177.0" y="271.0" text-anchor="middle" class="label">∞</text><rect x="206" y="236" width="58" height="58" class="cell"/><text x="235.0" y="271.0" text-anchor="middle" class="label">0</text><rect x="264" y="236" width="58" height="58" class="cell"/><text x="293.0" y="271.0" text-anchor="middle" class="label">1</text><rect x="322" y="236" width="58" height="58" class="cell"/><text x="351.0" y="271.0" text-anchor="middle" class="label">5</text><rect x="90" y="294" width="58" height="58" class="cell"/><text x="119.0" y="329.0" text-anchor="middle" class="label">∞</text><rect x="148" y="294" width="58" height="58" class="cell"/><text x="177.0" y="329.0" text-anchor="middle" class="label">2</text><rect x="206" y="294" width="58" height="58" class="cell"/><text x="235.0" y="329.0" text-anchor="middle" class="label">1</text><rect x="264" y="294" width="58" height="58" class="cell"/><text x="293.0" y="329.0" text-anchor="middle" class="label">0</text><rect x="322" y="294" width="58" height="58" class="cell"/><text x="351.0" y="329.0" text-anchor="middle" class="label">3</text><rect x="90" y="352" width="58" height="58" class="cell"/><text x="119.0" y="387.0" text-anchor="middle" class="label">1</text><rect x="148" y="352" width="58" height="58" class="cell"/><text x="177.0" y="387.0" text-anchor="middle" class="label">3</text><rect x="206" y="352" width="58" height="58" class="cell"/><text x="235.0" y="387.0" text-anchor="middle" class="label">5</text><rect x="264" y="352" width="58" height="58" class="cell"/><text x="293.0" y="387.0" text-anchor="middle" class="label">3</text><rect x="322" y="352" width="58" height="58" class="cell"/><text x="351.0" y="387.0" text-anchor="middle" class="label">0</text><rect x="475" y="130" width="450" height="265" class="panel"/><text x="510" y="180" class="label">minCost[start][end]</text><text x="510" y="222" class="label">start에서 end까지 현재까지 찾은 최단 거리</text><text x="510" y="264" class="label">간선이 없다면 ∞</text><text x="510" y="306" class="label">start == end라면 0</text></svg>