<svg xmlns="http://www.w3.org/2000/svg" width="650" height="270" viewBox="0 0 650 270"><rect width="100%" height="100%" fill="white"/>
<style>
text{font-family:"JetBrains Mono","Consolas","Noto Sans Mono CJK KR",monospace;fill:#202020}
.label{font-size:16px}.small{font-size:13px;fill:#555}
.cell{fill:white;stroke:#777;stroke-width:1.2}
.cellHi{fill:#efefef;stroke:#202020;stroke-width:2}
.cellBad{fill:white;stroke:#bcbcbc;stroke-width:1.2;stroke-dasharray:4 4}
</style>
<text x="152.0" y="37" text-anchor="middle" class="small">0</text><rect x="120" y="55" width="64" height="40" class="cellHi"/><text x="152.0" y="80" text-anchor="middle" class="label">4</text><text x="216.0" y="37" text-anchor="middle" class="small">1</text><rect x="184" y="55" width="64" height="40" class="cell"/><text x="216.0" y="80" text-anchor="middle" class="label">2</text><text x="280.0" y="37" text-anchor="middle" class="small">2</text><rect x="248" y="55" width="64" height="40" class="cell"/><text x="280.0" y="80" text-anchor="middle" class="label">7</text><text x="344.0" y="37" text-anchor="middle" class="small">3</text><rect x="312" y="55" width="64" height="40" class="cell"/><text x="344.0" y="80" text-anchor="middle" class="label">1</text><text x="408.0" y="37" text-anchor="middle" class="small">4</text><rect x="376" y="55" width="64" height="40" class="cell"/><text x="408.0" y="80" text-anchor="middle" class="label">3</text><text x="472.0" y="37" text-anchor="middle" class="small">5</text><rect x="440" y="55" width="64" height="40" class="cell"/><text x="472.0" y="80" text-anchor="middle" class="label">6</text><text x="102" y="80" text-anchor="end" class="small">a</text><rect x="120" y="95" width="64" height="40" class="cellHi"/><text x="152.0" y="120" text-anchor="middle" class="label">4</text><rect x="184" y="95" width="64" height="40" class="cell"/><text x="216.0" y="120" text-anchor="middle" class="label">-</text><rect x="248" y="95" width="64" height="40" class="cell"/><text x="280.0" y="120" text-anchor="middle" class="label">-</text><rect x="312" y="95" width="64" height="40" class="cell"/><text x="344.0" y="120" text-anchor="middle" class="label">-</text><rect x="376" y="95" width="64" height="40" class="cell"/><text x="408.0" y="120" text-anchor="middle" class="label">-</text><rect x="440" y="95" width="64" height="40" class="cell"/><text x="472.0" y="120" text-anchor="middle" class="label">-</text><text x="102" y="120" text-anchor="end" class="small">dp</text><text x="192" y="201" text-anchor="end" class="small">deque</text><rect x="210" y="170" width="96" height="52" class="cellHi"/><text x="258.0" y="192" text-anchor="middle" class="small">i=0</text><text x="258.0" y="212" text-anchor="middle" class="label">dp=4</text></svg>