<svg xmlns="http://www.w3.org/2000/svg" width="820" height="300" viewBox="0 0 820 300"><rect width="100%" height="100%" fill="white"/><style>
text{font-family:"JetBrains Mono","Consolas","Noto Sans Mono CJK KR",monospace;fill:#202020}
.label{font-size:18px}.small{font-size:14px;fill:#555}.tiny{font-size:13px;fill:#555}
.cell{fill:white;stroke:#777;stroke-width:1.2}.cellHi{fill:#eee;stroke:#202020;stroke-width:2}.cellPop{fill:#f7f7f7;stroke:#202020;stroke-width:2;stroke-dasharray:5 4}
.box{fill:white;stroke:#777;stroke-width:1.2;rx:5}.boxHi{fill:#eee;stroke:#202020;stroke-width:2;rx:5}.boxPop{fill:white;stroke:#202020;stroke-width:2;stroke-dasharray:5 4;rx:5}
.arrow{fill:none;stroke:#202020;stroke-width:1.7;marker-end:url(#arrow)}
.line{fill:none;stroke:#777;stroke-width:1.5}
</style><defs><marker id="arrow" markerWidth="9" markerHeight="9" refX="7" refY="3" orient="auto"><path d="M0,0 L0,6 L8,3 z" fill="#202020"/></marker></defs><text x="197" y="67" text-anchor="end" class="label">i</text><rect x="215" y="40" width="110" height="42" class="cell"/><text x="270.0" y="67" text-anchor="middle" class="label">0</text><rect x="325" y="40" width="110" height="42" class="cell"/><text x="380.0" y="67" text-anchor="middle" class="label">1</text><rect x="435" y="40" width="110" height="42" class="cell"/><text x="490.0" y="67" text-anchor="middle" class="label">2</text><rect x="545" y="40" width="110" height="42" class="cell"/><text x="600.0" y="67" text-anchor="middle" class="label">3</text><text x="197" y="127" text-anchor="end" class="label">H</text><rect x="215" y="100" width="110" height="42" class="cell"/><text x="270.0" y="127" text-anchor="middle" class="label">3</text><rect x="325" y="100" width="110" height="42" class="cell"/><text x="380.0" y="127" text-anchor="middle" class="label">10</text><rect x="435" y="100" width="110" height="42" class="cell"/><text x="490.0" y="127" text-anchor="middle" class="label">18</text><rect x="545" y="100" width="110" height="42" class="cell"/><text x="600.0" y="127" text-anchor="middle" class="label">20</text><text x="197" y="187" text-anchor="end" class="label">W</text><rect x="215" y="160" width="110" height="42" class="cell"/><text x="270.0" y="187" text-anchor="middle" class="label">8</text><rect x="325" y="160" width="110" height="42" class="cell"/><text x="380.0" y="187" text-anchor="middle" class="label">11</text><rect x="435" y="160" width="110" height="42" class="cell"/><text x="490.0" y="187" text-anchor="middle" class="label">9</text><rect x="545" y="160" width="110" height="42" class="cell"/><text x="600.0" y="187" text-anchor="middle" class="label">3</text><text x="197" y="247" text-anchor="end" class="label">V</text><rect x="215" y="220" width="110" height="42" class="cellHi"/><text x="270.0" y="247" text-anchor="middle" class="label">24</text><rect x="325" y="220" width="110" height="42" class="cellHi"/><text x="380.0" y="247" text-anchor="middle" class="label">110</text><rect x="435" y="220" width="110" height="42" class="cellHi"/><text x="490.0" y="247" text-anchor="middle" class="label">162</text><rect x="545" y="220" width="110" height="42" class="cellHi"/><text x="600.0" y="247" text-anchor="middle" class="label">60</text></svg>