<svg xmlns="http://www.w3.org/2000/svg" width="850" height="330" viewBox="0 0 850 330"><rect width="100%" height="100%" fill="white"/><style>
text{font-family:"JetBrains Mono","Consolas","Noto Sans Mono CJK KR",monospace;fill:#202020}
.label{font-size:18px}.small{font-size:14px;fill:#555}.tiny{font-size:13px;fill:#555}
.cell{fill:white;stroke:#777;stroke-width:1.2}.cellHi{fill:#eee;stroke:#202020;stroke-width:2}.cellPop{fill:#f7f7f7;stroke:#202020;stroke-width:2;stroke-dasharray:5 4}
.box{fill:white;stroke:#777;stroke-width:1.2;rx:5}.boxHi{fill:#eee;stroke:#202020;stroke-width:2;rx:5}.boxPop{fill:white;stroke:#202020;stroke-width:2;stroke-dasharray:5 4;rx:5}
.arrow{fill:none;stroke:#202020;stroke-width:1.7;marker-end:url(#arrow)}
.line{fill:none;stroke:#777;stroke-width:1.5}
</style><defs><marker id="arrow" markerWidth="9" markerHeight="9" refX="7" refY="3" orient="auto"><path d="M0,0 L0,6 L8,3 z" fill="#202020"/></marker></defs><text x="197" y="61" text-anchor="end" class="label">H</text><rect x="215" y="34" width="110" height="42" class="cell"/><text x="270.0" y="61" text-anchor="middle" class="label">3</text><rect x="325" y="34" width="110" height="42" class="cell"/><text x="380.0" y="61" text-anchor="middle" class="label">10</text><rect x="435" y="34" width="110" height="42" class="cellHi"/><text x="490.0" y="61" text-anchor="middle" class="label">18</text><rect x="545" y="34" width="110" height="42" class="cell"/><text x="600.0" y="61" text-anchor="middle" class="label">20</text><text x="197" y="121" text-anchor="end" class="label">V</text><rect x="215" y="94" width="110" height="42" class="cell"/><text x="270.0" y="121" text-anchor="middle" class="label">24</text><rect x="325" y="94" width="110" height="42" class="cell"/><text x="380.0" y="121" text-anchor="middle" class="label">110</text><rect x="435" y="94" width="110" height="42" class="cellHi"/><text x="490.0" y="121" text-anchor="middle" class="label">162</text><rect x="545" y="94" width="110" height="42" class="cell"/><text x="600.0" y="121" text-anchor="middle" class="label">60</text><text x="425.0" y="170" text-anchor="middle" class="label">18 - 10 &gt; 7</text><rect x="230" y="215" width="130" height="44" class="boxPop"/><text x="295" y="243" text-anchor="middle" class="label">(110, 10)</text><rect x="390" y="215" width="130" height="44" class="boxHi"/><text x="455" y="243" text-anchor="middle" class="label">(162, 18)</text><path d="M 295 205 L 190 205" class="arrow"/><text x="300" y="305" text-anchor="middle" class="small">pop front</text></svg>