<svg xmlns="http://www.w3.org/2000/svg" width="720" height="340" viewBox="0 0 720 340"><rect width="100%" height="100%" fill="white"/>
<style>
text{font-family:"JetBrains Mono","Consolas","Noto Sans Mono CJK KR",monospace;fill:#202020}
.label{font-size:16px}.small{font-size:13px;fill:#555}
.cell{fill:white;stroke:#777;stroke-width:1.2}
.cellHi{fill:#efefef;stroke:#202020;stroke-width:2}
.cellBad{fill:white;stroke:#bcbcbc;stroke-width:1.2;stroke-dasharray:4 4}
</style>
<text x="142.0" y="27" text-anchor="middle" class="small">0</text><rect x="110" y="45" width="64" height="40" class="cell"/><text x="142.0" y="70" text-anchor="middle" class="label">4</text><text x="206.0" y="27" text-anchor="middle" class="small">1</text><rect x="174" y="45" width="64" height="40" class="cellBad"/><text x="206.0" y="70" text-anchor="middle" class="label">2</text><text x="270.0" y="27" text-anchor="middle" class="small">2</text><rect x="238" y="45" width="64" height="40" class="cellBad"/><text x="270.0" y="70" text-anchor="middle" class="label">7</text><text x="334.0" y="27" text-anchor="middle" class="small">3</text><rect x="302" y="45" width="64" height="40" class="cellHi"/><text x="334.0" y="70" text-anchor="middle" class="label">1</text><text x="398.0" y="27" text-anchor="middle" class="small">4</text><rect x="366" y="45" width="64" height="40" class="cell"/><text x="398.0" y="70" text-anchor="middle" class="label">3</text><text x="462.0" y="27" text-anchor="middle" class="small">5</text><rect x="430" y="45" width="64" height="40" class="cell"/><text x="462.0" y="70" text-anchor="middle" class="label">6</text><text x="92" y="70" text-anchor="end" class="small">a</text><rect x="110" y="85" width="64" height="40" class="cell"/><text x="142.0" y="110" text-anchor="middle" class="label">4</text><rect x="174" y="85" width="64" height="40" class="cellBad"/><text x="206.0" y="110" text-anchor="middle" class="label">6</text><rect x="238" y="85" width="64" height="40" class="cellBad"/><text x="270.0" y="110" text-anchor="middle" class="label">11</text><rect x="302" y="85" width="64" height="40" class="cellHi"/><text x="334.0" y="110" text-anchor="middle" class="label">5</text><rect x="366" y="85" width="64" height="40" class="cell"/><text x="398.0" y="110" text-anchor="middle" class="label">-</text><rect x="430" y="85" width="64" height="40" class="cell"/><text x="462.0" y="110" text-anchor="middle" class="label">-</text><text x="92" y="110" text-anchor="end" class="small">dp</text><text x="97" y="196" text-anchor="end" class="small">deque</text><rect x="115" y="165" width="96" height="52" class="cellHi"/><text x="163.0" y="187" text-anchor="middle" class="small">i=0</text><text x="163.0" y="207" text-anchor="middle" class="label">dp=4</text><rect x="211" y="165" width="96" height="52" class="cell"/><text x="259.0" y="187" text-anchor="middle" class="small">i=1</text><text x="259.0" y="207" text-anchor="middle" class="label">dp=6</text><rect x="307" y="165" width="96" height="52" class="cell"/><text x="355.0" y="187" text-anchor="middle" class="small">i=2</text><text x="355.0" y="207" text-anchor="middle" class="label">dp=11</text><text x="192" y="276" text-anchor="end" class="small">deque</text><rect x="210" y="245" width="96" height="52" class="cellHi"/><text x="258.0" y="267" text-anchor="middle" class="small">i=0</text><text x="258.0" y="287" text-anchor="middle" class="label">dp=4</text><rect x="306" y="245" width="96" height="52" class="cell"/><text x="354.0" y="267" text-anchor="middle" class="small">i=3</text><text x="354.0" y="287" text-anchor="middle" class="label">dp=5</text></svg>