<svg xmlns="http://www.w3.org/2000/svg" width="860" height="300" viewBox="0 0 860 300"><rect width="100%" height="100%" fill="white"/><style>
text{font-family:"JetBrains Mono","Consolas","Noto Sans Mono CJK KR",monospace;fill:#202020}
.label{font-size:18px}.small{font-size:14px;fill:#555}.tiny{font-size:13px;fill:#555}
.cell{fill:white;stroke:#777;stroke-width:1.2}.cellHi{fill:#eee;stroke:#202020;stroke-width:2}.cellPop{fill:#f7f7f7;stroke:#202020;stroke-width:2;stroke-dasharray:5 4}
.box{fill:white;stroke:#777;stroke-width:1.2;rx:5}.boxHi{fill:#eee;stroke:#202020;stroke-width:2;rx:5}.boxPop{fill:white;stroke:#202020;stroke-width:2;stroke-dasharray:5 4;rx:5}
.arrow{fill:none;stroke:#202020;stroke-width:1.7;marker-end:url(#arrow)}
.line{fill:none;stroke:#777;stroke-width:1.5}
</style><defs><marker id="arrow" markerWidth="9" markerHeight="9" refX="7" refY="3" orient="auto"><path d="M0,0 L0,6 L8,3 z" fill="#202020"/></marker></defs><text x="147" y="81" text-anchor="end" class="label">rule</text><rect x="165" y="54" width="190" height="42" class="cellHi"/><text x="260.0" y="81" text-anchor="middle" class="label">front</text><rect x="355" y="54" width="190" height="42" class="cellHi"/><text x="450.0" y="81" text-anchor="middle" class="label">back pop</text><rect x="545" y="54" width="190" height="42" class="cellHi"/><text x="640.0" y="81" text-anchor="middle" class="label">push</text><text x="147" y="151" text-anchor="end" class="label">meaning</text><rect x="165" y="124" width="190" height="42" class="cell"/><text x="260.0" y="151" text-anchor="middle" class="label">max V</text><rect x="355" y="124" width="190" height="42" class="cell"/><text x="450.0" y="151" text-anchor="middle" class="label">smaller V</text><rect x="545" y="124" width="190" height="42" class="cell"/><text x="640.0" y="151" text-anchor="middle" class="label">current</text><text x="147" y="221" text-anchor="end" class="label">height</text><rect x="165" y="194" width="190" height="42" class="cell"/><text x="260.0" y="221" text-anchor="middle" class="label">within X</text><rect x="355" y="194" width="190" height="42" class="cell"/><text x="450.0" y="221" text-anchor="middle" class="label">dominated</text><rect x="545" y="194" width="190" height="42" class="cell"/><text x="640.0" y="221" text-anchor="middle" class="label">increasing</text></svg>