<svg xmlns="http://www.w3.org/2000/svg" width="690" height="610" viewBox="0 0 690 610">
<rect width="100%" height="100%" fill="white"/>
<style>
text { font-family: "Noto Sans CJK KR", "Malgun Gothic", Arial, sans-serif; fill: #202020; }
.label { font-size: 17px; }
.node { fill: white; stroke: #555; stroke-width: 1.6; }
.edge { stroke: #b4b4b4; stroke-width: 1.5; }
.selected { stroke: #202020; stroke-width: 4.0; }
.candidate { stroke: #202020; stroke-width: 2.7; stroke-dasharray: 8 6; }
</style>
<text x="180" y="84" text-anchor="middle" class="label" font-weight="700">A</text>
<text x="560" y="84" text-anchor="middle" class="label" font-weight="700">B</text>
<line x1="206" y1="135" x2="534" y2="135" class="selected"/>
<line x1="206" y1="135" x2="534" y2="255" class="edge"/>
<line x1="206" y1="135" x2="534" y2="495" class="edge"/>
<line x1="206" y1="255" x2="534" y2="375" class="selected"/>
<line x1="206" y1="375" x2="534" y2="135" class="edge"/>
<line x1="206" y1="495" x2="534" y2="375" class="edge"/>
<circle cx="180" cy="135" r="25" class="node"/><text x="180" y="141" text-anchor="middle" class="label">A1</text>
<circle cx="180" cy="255" r="25" class="node"/><text x="180" y="261" text-anchor="middle" class="label">A2</text>
<circle cx="180" cy="375" r="25" class="node"/><text x="180" y="381" text-anchor="middle" class="label">A3</text>
<circle cx="180" cy="495" r="25" class="node"/><text x="180" y="501" text-anchor="middle" class="label">A4</text>
<circle cx="560" cy="135" r="25" class="node"/><text x="560" y="141" text-anchor="middle" class="label">B1</text>
<circle cx="560" cy="255" r="25" class="node"/><text x="560" y="261" text-anchor="middle" class="label">B2</text>
<circle cx="560" cy="375" r="25" class="node"/><text x="560" y="381" text-anchor="middle" class="label">B3</text>
<circle cx="560" cy="495" r="25" class="node"/><text x="560" y="501" text-anchor="middle" class="label">B4</text>
</svg>
