<svg xmlns="http://www.w3.org/2000/svg" width="1260" height="690" viewBox="0 0 1260 690">
<style>
text { font-family: "Noto Sans CJK KR", "Malgun Gothic", Arial, sans-serif; fill: #202020; }
.title { font-size: 23px; font-weight: 700; }
.label { font-size: 17px; }
.small { font-size: 14px; fill: #5a5a5a; }
.node { fill: white; stroke: #555; stroke-width: 1.6; }
.edge { stroke: #b4b4b4; stroke-width: 1.5; }
.selected { stroke: #202020; stroke-width: 4.0; }
.candidate { stroke: #202020; stroke-width: 2.7; stroke-dasharray: 8 6; }
.panel { fill: #fcfcfc; stroke: #c7c7c7; stroke-width: 1.2; rx: 10; }
.cell { fill: white; stroke: #777; stroke-width: 1; }
.cellHi { fill: #e7e7e7; stroke: #202020; stroke-width: 2; }
.cellMuted { fill: #f7f7f7; stroke: #bbb; stroke-width: 1; }
</style>
<text x="630.0" y="42" text-anchor="middle" class="title">A3이 이미 사용 중인 B1을 선택한 상태</text><text x="180" y="84" text-anchor="middle" class="label" font-weight="700">A</text><text x="560" y="84" text-anchor="middle" class="label" font-weight="700">B</text><line x1="206" y1="135" x2="534" y2="135" class="selected"/><line x1="206" y1="135" x2="534" y2="255" class="edge"/><line x1="206" y1="135" x2="534" y2="495" class="edge"/><line x1="206" y1="255" x2="534" y2="375" class="selected"/><line x1="206" y1="375" x2="534" y2="135" class="candidate"/><line x1="206" y1="495" x2="534" y2="375" class="edge"/><circle cx="180" cy="135" r="25" class="node"/><text x="180" y="141" text-anchor="middle" class="label">A1</text><circle cx="180" cy="255" r="25" class="node"/><text x="180" y="261" text-anchor="middle" class="label">A2</text><circle cx="180" cy="375" r="25" class="node"/><text x="180" y="381" text-anchor="middle" class="label">A3</text><circle cx="180" cy="495" r="25" class="node"/><text x="180" y="501" text-anchor="middle" class="label">A4</text><circle cx="560" cy="135" r="25" class="node"/><text x="560" y="141" text-anchor="middle" class="label">B1</text><circle cx="560" cy="255" r="25" class="node"/><text x="560" y="261" text-anchor="middle" class="label">B2</text><circle cx="560" cy="375" r="25" class="node"/><text x="560" y="381" text-anchor="middle" class="label">B3</text><circle cx="560" cy="495" r="25" class="node"/><text x="560" y="501" text-anchor="middle" class="label">B4</text><rect x="700" y="92" width="470" height="470" class="panel"/><text x="745" y="113" class="label" font-weight="700">현재 매칭</text><text x="745" y="155" class="small">A의 매칭 상대</text><text x="921" y="155" text-anchor="middle" class="small">A1</text><rect x="895" y="170" width="52" height="38" class="cellHi"/><text x="921" y="195" text-anchor="middle" class="label">B1</text><text x="987" y="155" text-anchor="middle" class="small">A2</text><rect x="961" y="170" width="52" height="38" class="cell"/><text x="987" y="195" text-anchor="middle" class="label">B3</text><text x="1053" y="155" text-anchor="middle" class="small">A3</text><rect x="1027" y="170" width="52" height="38" class="cellHi"/><text x="1053" y="195" text-anchor="middle" class="label">-</text><text x="1119" y="155" text-anchor="middle" class="small">A4</text><rect x="1093" y="170" width="52" height="38" class="cell"/><text x="1119" y="195" text-anchor="middle" class="label">-</text><text x="745" y="270" class="small">B의 매칭 상대</text><text x="921" y="270" text-anchor="middle" class="small">B1</text><rect x="895" y="285" width="52" height="38" class="cellHi"/><text x="921" y="310" text-anchor="middle" class="label">A1</text><text x="987" y="270" text-anchor="middle" class="small">B2</text><rect x="961" y="285" width="52" height="38" class="cell"/><text x="987" y="310" text-anchor="middle" class="label">-</text><text x="1053" y="270" text-anchor="middle" class="small">B3</text><rect x="1027" y="285" width="52" height="38" class="cell"/><text x="1053" y="310" text-anchor="middle" class="label">A2</text><text x="1119" y="270" text-anchor="middle" class="small">B4</text><rect x="1093" y="285" width="52" height="38" class="cell"/><text x="1119" y="310" text-anchor="middle" class="label">-</text><rect x="727" y="390" width="400" height="160" class="panel"/><text x="745" y="430" class="label">A3은 B1과 연결되어 있다.</text><text x="745" y="464" class="label">하지만 B1은 이미 A1과 매칭되어 있다.</text><text x="745" y="498" class="label">A1을 다른 정점으로 옮길 수 있는지 확인한다.</text></svg>