<svg xmlns="http://www.w3.org/2000/svg" width="1060" height="810" viewBox="0 0 1060 810">
<rect width="100%" height="100%" fill="white"/>
<style>
text{font-family:"Noto Sans CJK KR","Malgun Gothic",Arial,sans-serif;fill:#202020}
.label{font-size:17px}.small{font-size:14px;fill:#5a5a5a}
.node{fill:white;stroke:#555;stroke-width:1.7}
.edge{fill:none;stroke:#999;stroke-width:1.8;marker-end:url(#a)}
.lv{fill:none;stroke:#202020;stroke-width:2.4;marker-end:url(#b)}
.sel{fill:none;stroke:#202020;stroke-width:4.2;marker-end:url(#b)}
.muted{fill:none;stroke:#d0d0d0;stroke-width:1.4;marker-end:url(#c)}
.cell{fill:white;stroke:#777;stroke-width:1}
.hi{fill:#e7e7e7;stroke:#202020;stroke-width:2}
</style>
<defs>
<marker id="a" markerWidth="10" markerHeight="10" refX="8" refY="3" orient="auto"><path d="M0,0 L0,6 L9,3 z" fill="#999"/></marker>
<marker id="b" markerWidth="10" markerHeight="10" refX="8" refY="3" orient="auto"><path d="M0,0 L0,6 L9,3 z" fill="#202020"/></marker>
<marker id="c" markerWidth="10" markerHeight="10" refX="8" refY="3" orient="auto"><path d="M0,0 L0,6 L9,3 z" fill="#d0d0d0"/></marker>
</defs>
<line x1="123.1" y1="280.8" x2="311.9" y2="124.2" class="lv"/>
<rect x="189" y="189" width="46" height="25" fill="white"/>
<text x="212" y="208" text-anchor="middle" class="label">0/2</text>
<line x1="123.1" y1="319.2" x2="311.9" y2="475.8" class="lv"/>
<rect x="189" y="413" width="46" height="25" fill="white"/>
<text x="212" y="432" text-anchor="middle" class="label">0/1</text>
<line x1="364.8" y1="108.8" x2="620.2" y2="141.2" class="lv"/>
<rect x="472" y="93" width="46" height="25" fill="white"/>
<text x="495" y="112" text-anchor="middle" class="label">0/2</text>
<line x1="355.1" y1="472.7" x2="629.9" y2="167.3" class="lv"/>
<rect x="462" y="301" width="46" height="25" fill="white"/>
<text x="485" y="320" text-anchor="middle" class="label">0/1</text>
<line x1="364.8" y1="491.2" x2="620.2" y2="458.8" class="lv"/>
<rect x="472" y="496" width="46" height="25" fill="white"/>
<text x="495" y="515" text-anchor="middle" class="label">0/2</text>
<line x1="676.2" y1="159.5" x2="903.8" y2="285.5" class="lv"/>
<rect x="767" y="193" width="46" height="25" fill="white"/>
<text x="790" y="212" text-anchor="middle" class="label">0/2</text>
<line x1="676.2" y1="440.5" x2="903.8" y2="314.5" class="lv"/>
<rect x="767" y="409" width="46" height="25" fill="white"/>
<text x="790" y="428" text-anchor="middle" class="label">0/1</text>
<circle cx="100" cy="300" r="28" class="node"/>
<text x="100" y="306" text-anchor="middle" class="label">S</text>
<circle cx="335" cy="105" r="28" class="node"/>
<text x="335" y="111" text-anchor="middle" class="label">1</text>
<circle cx="335" cy="495" r="28" class="node"/>
<text x="335" y="501" text-anchor="middle" class="label">3</text>
<circle cx="650" cy="145" r="28" class="node"/>
<text x="650" y="151" text-anchor="middle" class="label">2</text>
<circle cx="650" cy="455" r="28" class="node"/>
<text x="650" y="461" text-anchor="middle" class="label">4</text>
<circle cx="930" cy="300" r="28" class="node"/>
<text x="930" y="306" text-anchor="middle" class="label">E</text>
<text x="530.0" y="585" text-anchor="middle" class="label">Total Flow = 0</text>
<text x="185" y="672" text-anchor="end" class="label">level</text>
<text x="284" y="633" text-anchor="middle" class="small">S</text>
<rect x="250" y="645" width="68" height="42" class="hi"/>
<text x="284" y="673" text-anchor="middle" class="label">0</text>
<text x="370" y="633" text-anchor="middle" class="small">1</text>
<rect x="336" y="645" width="68" height="42" class="hi"/>
<text x="370" y="673" text-anchor="middle" class="label">1</text>
<text x="456" y="633" text-anchor="middle" class="small">2</text>
<rect x="422" y="645" width="68" height="42" class="hi"/>
<text x="456" y="673" text-anchor="middle" class="label">2</text>
<text x="542" y="633" text-anchor="middle" class="small">3</text>
<rect x="508" y="645" width="68" height="42" class="hi"/>
<text x="542" y="673" text-anchor="middle" class="label">1</text>
<text x="628" y="633" text-anchor="middle" class="small">4</text>
<rect x="594" y="645" width="68" height="42" class="hi"/>
<text x="628" y="673" text-anchor="middle" class="label">2</text>
<text x="714" y="633" text-anchor="middle" class="small">E</text>
<rect x="680" y="645" width="68" height="42" class="hi"/>
<text x="714" y="673" text-anchor="middle" class="label">3</text>
<text x="185" y="757" text-anchor="end" class="label">work</text>
<text x="284" y="718" text-anchor="middle" class="small">S</text>
<rect x="250" y="730" width="68" height="42" class="cell"/>
<text x="284" y="758" text-anchor="middle" class="label">0</text>
<text x="370" y="718" text-anchor="middle" class="small">1</text>
<rect x="336" y="730" width="68" height="42" class="cell"/>
<text x="370" y="758" text-anchor="middle" class="label">0</text>
<text x="456" y="718" text-anchor="middle" class="small">2</text>
<rect x="422" y="730" width="68" height="42" class="cell"/>
<text x="456" y="758" text-anchor="middle" class="label">0</text>
<text x="542" y="718" text-anchor="middle" class="small">3</text>
<rect x="508" y="730" width="68" height="42" class="cell"/>
<text x="542" y="758" text-anchor="middle" class="label">0</text>
<text x="628" y="718" text-anchor="middle" class="small">4</text>
<rect x="594" y="730" width="68" height="42" class="cell"/>
<text x="628" y="758" text-anchor="middle" class="label">0</text>
<text x="714" y="718" text-anchor="middle" class="small">E</text>
<rect x="680" y="730" width="68" height="42" class="cell"/>
<text x="714" y="758" text-anchor="middle" class="label">0</text>
</svg>