<svg xmlns="http://www.w3.org/2000/svg" width="760" height="250" viewBox="0 0 760 250"><rect width="100%" height="100%" fill="white"/><style>
text{font-family:"JetBrains Mono","Consolas","Noto Sans Mono CJK KR",monospace;fill:#202020}
.label{font-size:18px}.small{font-size:14px;fill:#555}
.cell{fill:white;stroke:#777;stroke-width:1.2}
.cellHi{fill:#eee;stroke:#202020;stroke-width:2}
.chunk{fill:white;stroke:#777;stroke-width:1.5;rx:6}
.chunkHi{fill:#eee;stroke:#202020;stroke-width:2;rx:6}
.node{fill:white;stroke:#555;stroke-width:1.8}
.edge{fill:none;stroke:#888;stroke-width:1.7}
.arrow{fill:none;stroke:#202020;stroke-width:1.7;marker-end:url(#arrow)}
</style><defs><marker id="arrow" markerWidth="9" markerHeight="9" refX="7" refY="3" orient="auto"><path d="M0,0 L0,6 L8,3 z" fill="#202020"/></marker></defs><text x="152" y="61" text-anchor="end" class="label">before</text><rect x="170" y="34" width="68" height="42" class="cell"/><text x="204.0" y="61" text-anchor="middle" class="label">a</text><rect x="238" y="34" width="68" height="42" class="cell"/><text x="272.0" y="61" text-anchor="middle" class="label">b</text><rect x="306" y="34" width="68" height="42" class="cell"/><text x="340.0" y="61" text-anchor="middle" class="label">c</text><rect x="374" y="34" width="68" height="42" class="cell"/><text x="408.0" y="61" text-anchor="middle" class="label">d</text><rect x="442" y="34" width="68" height="42" class="cell"/><text x="476.0" y="61" text-anchor="middle" class="label">e</text><text x="152" y="173" text-anchor="end" class="label">after</text><rect x="170" y="146" width="68" height="42" class="cell"/><text x="204.0" y="173" text-anchor="middle" class="label">a</text><rect x="238" y="146" width="68" height="42" class="cell"/><text x="272.0" y="173" text-anchor="middle" class="label">b</text><rect x="306" y="146" width="68" height="42" class="cellHi"/><text x="340.0" y="173" text-anchor="middle" class="label">X</text><rect x="374" y="146" width="68" height="42" class="cellHi"/><text x="408.0" y="173" text-anchor="middle" class="label">Y</text><rect x="442" y="146" width="68" height="42" class="cell"/><text x="476.0" y="173" text-anchor="middle" class="label">c</text><rect x="510" y="146" width="68" height="42" class="cell"/><text x="544.0" y="173" text-anchor="middle" class="label">d</text><rect x="578" y="146" width="68" height="42" class="cell"/><text x="612.0" y="173" text-anchor="middle" class="label">e</text><path d="M 306 88 L 306 132" class="arrow"/><text x="306" y="119" text-anchor="middle" class="small">pos = 2</text></svg>