<svg xmlns="http://www.w3.org/2000/svg" width="820" height="280" viewBox="0 0 820 280"><rect width="100%" height="100%" fill="white"/><style>
text{font-family:"JetBrains Mono","Consolas","Noto Sans Mono CJK KR",monospace;fill:#202020}
.label{font-size:18px}.small{font-size:14px;fill:#555}
.cell{fill:white;stroke:#777;stroke-width:1.2}
.cellHi{fill:#eee;stroke:#202020;stroke-width:2}
.chunk{fill:white;stroke:#777;stroke-width:1.5;rx:6}
.chunkHi{fill:#eee;stroke:#202020;stroke-width:2;rx:6}
.node{fill:white;stroke:#555;stroke-width:1.8}
.edge{fill:none;stroke:#888;stroke-width:1.7}
.arrow{fill:none;stroke:#202020;stroke-width:1.7;marker-end:url(#arrow)}
</style><defs><marker id="arrow" markerWidth="9" markerHeight="9" refX="7" refY="3" orient="auto"><path d="M0,0 L0,6 L8,3 z" fill="#202020"/></marker></defs><text x="132" y="59" text-anchor="end" class="label">string</text><rect x="150" y="32" width="64" height="42" class="cell"/><text x="182.0" y="59" text-anchor="middle" class="label">a</text><rect x="214" y="32" width="64" height="42" class="cell"/><text x="246.0" y="59" text-anchor="middle" class="label">b</text><rect x="278" y="32" width="64" height="42" class="cellHi"/><text x="310.0" y="59" text-anchor="middle" class="label">c</text><rect x="342" y="32" width="64" height="42" class="cellHi"/><text x="374.0" y="59" text-anchor="middle" class="label">d</text><rect x="406" y="32" width="64" height="42" class="cellHi"/><text x="438.0" y="59" text-anchor="middle" class="label">e</text><rect x="470" y="32" width="64" height="42" class="cell"/><text x="502.0" y="59" text-anchor="middle" class="label">f</text><rect x="534" y="32" width="64" height="42" class="cell"/><text x="566.0" y="59" text-anchor="middle" class="label">g</text><rect x="598" y="32" width="64" height="42" class="cell"/><text x="630.0" y="59" text-anchor="middle" class="label">h</text><rect x="118" y="144" width="150" height="48" class="chunk"/><text x="193.0" y="175" text-anchor="middle" class="label">substr(0, 2)</text><rect x="334" y="144" width="150" height="48" class="chunkHi"/><text x="409.0" y="175" text-anchor="middle" class="label">substr(2, 3)</text><rect x="550" y="144" width="150" height="48" class="chunk"/><text x="625.0" y="175" text-anchor="middle" class="label">substr(5, 3)</text><text x="409" y="246" text-anchor="middle" class="small">index 2부터 길이 3</text></svg>