<svg xmlns="http://www.w3.org/2000/svg" width="860" height="335" viewBox="0 0 860 335"><rect width="100%" height="100%" fill="white"/><style>
text{font-family:"JetBrains Mono","Consolas","Noto Sans Mono CJK KR",monospace;fill:#202020}
.label{font-size:18px}.small{font-size:14px;fill:#555}
.cell{fill:white;stroke:#777;stroke-width:1.2}
.cellHi{fill:#eee;stroke:#202020;stroke-width:2}
.chunk{fill:white;stroke:#777;stroke-width:1.5;rx:6}
.chunkHi{fill:#eee;stroke:#202020;stroke-width:2;rx:6}
.node{fill:white;stroke:#555;stroke-width:1.8}
.edge{fill:none;stroke:#888;stroke-width:1.7}
.arrow{fill:none;stroke:#202020;stroke-width:1.7;marker-end:url(#arrow)}
</style><defs><marker id="arrow" markerWidth="9" markerHeight="9" refX="7" refY="3" orient="auto"><path d="M0,0 L0,6 L8,3 z" fill="#202020"/></marker></defs><text x="142" y="51" text-anchor="end" class="label">before</text><rect x="160" y="24" width="64" height="42" class="cell"/><text x="192.0" y="51" text-anchor="middle" class="label">a</text><rect x="224" y="24" width="64" height="42" class="cell"/><text x="256.0" y="51" text-anchor="middle" class="label">b</text><rect x="288" y="24" width="64" height="42" class="cellHi"/><text x="320.0" y="51" text-anchor="middle" class="label">c</text><rect x="352" y="24" width="64" height="42" class="cellHi"/><text x="384.0" y="51" text-anchor="middle" class="label">d</text><rect x="416" y="24" width="64" height="42" class="cellHi"/><text x="448.0" y="51" text-anchor="middle" class="label">e</text><rect x="480" y="24" width="64" height="42" class="cell"/><text x="512.0" y="51" text-anchor="middle" class="label">f</text><rect x="544" y="24" width="64" height="42" class="cell"/><text x="576.0" y="51" text-anchor="middle" class="label">g</text><rect x="608" y="24" width="64" height="42" class="cell"/><text x="640.0" y="51" text-anchor="middle" class="label">h</text><text x="142" y="163" text-anchor="end" class="label">front</text><rect x="160" y="136" width="64" height="42" class="cellHi"/><text x="192.0" y="163" text-anchor="middle" class="label">c</text><rect x="224" y="136" width="64" height="42" class="cellHi"/><text x="256.0" y="163" text-anchor="middle" class="label">d</text><rect x="288" y="136" width="64" height="42" class="cellHi"/><text x="320.0" y="163" text-anchor="middle" class="label">e</text><rect x="352" y="136" width="64" height="42" class="cell"/><text x="384.0" y="163" text-anchor="middle" class="label">a</text><rect x="416" y="136" width="64" height="42" class="cell"/><text x="448.0" y="163" text-anchor="middle" class="label">b</text><rect x="480" y="136" width="64" height="42" class="cell"/><text x="512.0" y="163" text-anchor="middle" class="label">f</text><rect x="544" y="136" width="64" height="42" class="cell"/><text x="576.0" y="163" text-anchor="middle" class="label">g</text><rect x="608" y="136" width="64" height="42" class="cell"/><text x="640.0" y="163" text-anchor="middle" class="label">h</text><text x="142" y="275" text-anchor="end" class="label">back</text><rect x="160" y="248" width="64" height="42" class="cell"/><text x="192.0" y="275" text-anchor="middle" class="label">a</text><rect x="224" y="248" width="64" height="42" class="cell"/><text x="256.0" y="275" text-anchor="middle" class="label">b</text><rect x="288" y="248" width="64" height="42" class="cell"/><text x="320.0" y="275" text-anchor="middle" class="label">f</text><rect x="352" y="248" width="64" height="42" class="cell"/><text x="384.0" y="275" text-anchor="middle" class="label">g</text><rect x="416" y="248" width="64" height="42" class="cell"/><text x="448.0" y="275" text-anchor="middle" class="label">h</text><rect x="480" y="248" width="64" height="42" class="cellHi"/><text x="512.0" y="275" text-anchor="middle" class="label">c</text><rect x="544" y="248" width="64" height="42" class="cellHi"/><text x="576.0" y="275" text-anchor="middle" class="label">d</text><rect x="608" y="248" width="64" height="42" class="cellHi"/><text x="640.0" y="275" text-anchor="middle" class="label">e</text><text x="416" y="102" text-anchor="middle" class="small">[2, 4]</text></svg>