<svg xmlns="http://www.w3.org/2000/svg" width="900" height="480" viewBox="0 0 900 480"><rect width="100%" height="100%" fill="white"/>
<style>
text{font-family:"JetBrains Mono","Consolas","Noto Sans Mono CJK KR",monospace;fill:#202020}
.label{font-size:18px}.small{font-size:14px;fill:#555}.tiny{font-size:13px;fill:#555}
.node{fill:white;stroke:#555;stroke-width:1.8}
.nodeHi{fill:#eee;stroke:#202020;stroke-width:2.2}
.edge{fill:none;stroke:#888;stroke-width:1.8;marker-end:url(#arrowGray)}
.edgeHi{fill:none;stroke:#202020;stroke-width:3.4;marker-end:url(#arrow)}
.fail{fill:none;stroke:#555;stroke-width:1.8;stroke-dasharray:7 5;marker-end:url(#arrowGray)}
.failHi{fill:none;stroke:#202020;stroke-width:2.7;stroke-dasharray:7 5;marker-end:url(#arrow)}
.end{fill:white;stroke:#202020;stroke-width:1.8}
.endHi{fill:#ddd;stroke:#202020;stroke-width:2.2}
.cell{fill:white;stroke:#777;stroke-width:1.2}
.cellHi{fill:#eee;stroke:#202020;stroke-width:2}
</style>

<defs>
<marker id="arrow" markerWidth="9" markerHeight="9" refX="7" refY="3" orient="auto">
<path d="M0,0 L0,6 L8,3 z" fill="#202020"/></marker>
<marker id="arrowGray" markerWidth="9" markerHeight="9" refX="7" refY="3" orient="auto">
<path d="M0,0 L0,6 L8,3 z" fill="#888"/></marker>
</defs>
<line x1="111.0" y1="228.0" x2="229.0" y2="132.0" class="edge"/><rect x="157.0" y="155.0" width="26" height="22" fill="white"/><text x="170.0" y="172.0" text-anchor="middle" class="label">h</text><line x1="276.4" y1="109.1" x2="403.6" y2="80.9" class="edge"/><rect x="327.0" y="70.0" width="26" height="22" fill="white"/><text x="340.0" y="87.0" text-anchor="middle" class="label">e</text><line x1="457.0" y1="75.0" x2="583.0" y2="75.0" class="edge"/><rect x="507.0" y="50.0" width="26" height="22" fill="white"/><text x="520.0" y="67.0" text-anchor="middle" class="label">r</text><line x1="637.0" y1="75.0" x2="763.0" y2="75.0" class="edge"/><rect x="687.0" y="50.0" width="26" height="22" fill="white"/><text x="700.0" y="67.0" text-anchor="middle" class="label">s</text><line x1="275.8" y1="122.9" x2="404.2" y2="162.1" class="edge"/><rect x="327.0" y="117.5" width="26" height="22" fill="white"/><text x="340.0" y="134.5" text-anchor="middle" class="label">i</text><line x1="457.0" y1="170.0" x2="583.0" y2="170.0" class="edge"/><rect x="507.0" y="145.0" width="26" height="22" fill="white"/><text x="520.0" y="162.0" text-anchor="middle" class="label">s</text><line x1="111.6" y1="261.2" x2="228.4" y2="348.8" class="edge"/><rect x="157.0" y="280.0" width="26" height="22" fill="white"/><text x="170.0" y="297.0" text-anchor="middle" class="label">s</text><line x1="277.0" y1="365.0" x2="403.0" y2="365.0" class="edge"/><rect x="327.0" y="340.0" width="26" height="22" fill="white"/><text x="340.0" y="357.0" text-anchor="middle" class="label">h</text><line x1="457.0" y1="365.0" x2="583.0" y2="365.0" class="edge"/><rect x="507.0" y="340.0" width="26" height="22" fill="white"/><text x="520.0" y="357.0" text-anchor="middle" class="label">e</text><circle cx="90" cy="245" r="27" class="node"/><text x="90" y="251" text-anchor="middle" class="small">root</text><circle cx="250" cy="115" r="27" class="node"/><circle cx="430" cy="75" r="27" class="node"/><circle cx="451" cy="54" r="7" class="end"/><circle cx="610" cy="75" r="27" class="node"/><circle cx="790" cy="75" r="27" class="nodeHi"/><circle cx="811" cy="54" r="7" class="endHi"/><circle cx="430" cy="170" r="27" class="node"/><circle cx="610" cy="170" r="27" class="nodeHi"/><circle cx="631" cy="149" r="7" class="endHi"/><circle cx="250" cy="365" r="27" class="nodeHi"/><circle cx="430" cy="365" r="27" class="node"/><circle cx="610" cy="365" r="27" class="node"/><circle cx="631" cy="344" r="7" class="end"/><path d="M 589 184 Q 422 285 274 353" class="failHi"/><path d="M 770 89 Q 510 285 275 352" class="failHi"/></svg>