<svg xmlns="http://www.w3.org/2000/svg" width="760" height="270" viewBox="0 0 760 270"><rect width="100%" height="100%" fill="white"/>
<style>
text{font-family:"JetBrains Mono","Consolas","Noto Sans Mono CJK KR",monospace;fill:#202020}
.label{font-size:18px}.small{font-size:14px;fill:#555}.tiny{font-size:13px;fill:#555}
.node{fill:white;stroke:#555;stroke-width:1.8}
.nodeHi{fill:#eee;stroke:#202020;stroke-width:2.2}
.edge{fill:none;stroke:#888;stroke-width:1.8;marker-end:url(#arrowGray)}
.edgeHi{fill:none;stroke:#202020;stroke-width:3.4;marker-end:url(#arrow)}
.fail{fill:none;stroke:#555;stroke-width:1.8;stroke-dasharray:7 5;marker-end:url(#arrowGray)}
.failHi{fill:none;stroke:#202020;stroke-width:2.7;stroke-dasharray:7 5;marker-end:url(#arrow)}
.end{fill:white;stroke:#202020;stroke-width:1.8}
.endHi{fill:#ddd;stroke:#202020;stroke-width:2.2}
.cell{fill:white;stroke:#777;stroke-width:1.2}
.cellHi{fill:#eee;stroke:#202020;stroke-width:2}
</style>

<defs>
<marker id="arrow" markerWidth="9" markerHeight="9" refX="7" refY="3" orient="auto">
<path d="M0,0 L0,6 L8,3 z" fill="#202020"/></marker>
<marker id="arrowGray" markerWidth="9" markerHeight="9" refX="7" refY="3" orient="auto">
<path d="M0,0 L0,6 L8,3 z" fill="#888"/></marker>
</defs>
<text x="142" y="59" text-anchor="end" class="label">text</text><rect x="160" y="32" width="82" height="42" class="cell"/><text x="201.0" y="59" text-anchor="middle" class="label">u</text><rect x="242" y="32" width="82" height="42" class="cellHi"/><text x="283.0" y="59" text-anchor="middle" class="label">s</text><rect x="324" y="32" width="82" height="42" class="cellHi"/><text x="365.0" y="59" text-anchor="middle" class="label">h</text><rect x="406" y="32" width="82" height="42" class="cellHi"/><text x="447.0" y="59" text-anchor="middle" class="label">e</text><rect x="488" y="32" width="82" height="42" class="cell"/><text x="529.0" y="59" text-anchor="middle" class="label">r</text><rect x="570" y="32" width="82" height="42" class="cell"/><text x="611.0" y="59" text-anchor="middle" class="label">s</text><text x="142" y="139" text-anchor="end" class="label">state</text><rect x="160" y="112" width="82" height="42" class="cell"/><text x="201.0" y="139" text-anchor="middle" class="label">root</text><rect x="242" y="112" width="82" height="42" class="cellHi"/><text x="283.0" y="139" text-anchor="middle" class="label">s</text><rect x="324" y="112" width="82" height="42" class="cellHi"/><text x="365.0" y="139" text-anchor="middle" class="label">sh</text><rect x="406" y="112" width="82" height="42" class="cellHi"/><text x="447.0" y="139" text-anchor="middle" class="label">she</text><rect x="488" y="112" width="82" height="42" class="cell"/><text x="529.0" y="139" text-anchor="middle" class="label">her</text><rect x="570" y="112" width="82" height="42" class="cell"/><text x="611.0" y="139" text-anchor="middle" class="label">hers</text><text x="447" y="226" text-anchor="middle" class="label">finish = true</text></svg>