<?xml version="1.0" encoding="UTF-8" standalone="no"?>
<!-- Created with Inkscape (http://www.inkscape.org/) -->

<svg
   version="1.1"
   id="svg1"
   width="524.76001"
   height="182.52"
   viewBox="0 0 524.76001 182.52"
   sodipodi:docname="2.pdf"
   xmlns:inkscape="http://www.inkscape.org/namespaces/inkscape"
   xmlns:sodipodi="http://sodipodi.sourceforge.net/DTD/sodipodi-0.dtd"
   xmlns="http://www.w3.org/2000/svg"
   xmlns:svg="http://www.w3.org/2000/svg">
  <defs
     id="defs1" />
  <sodipodi:namedview
     id="namedview1"
     pagecolor="#ffffff"
     bordercolor="#000000"
     borderopacity="0.25"
     inkscape:showpageshadow="2"
     inkscape:pageopacity="0.0"
     inkscape:pagecheckerboard="0"
     inkscape:deskcolor="#d1d1d1">
    <inkscape:page
       x="0"
       y="0"
       inkscape:label="1"
       id="page1"
       width="524.76001"
       height="182.52"
       margin="0"
       bleed="0" />
  </sodipodi:namedview>
  <g
     id="g1"
     inkscape:groupmode="layer"
     inkscape:label="1">
    <path
       id="path1"
       d="M 85.04042,89.29227 36.85092,46.77203"
       style="fill:none;stroke:#858585;stroke-width:0.54794;stroke-linecap:butt;stroke-linejoin:miter;stroke-miterlimit:10;stroke-dasharray:none;stroke-opacity:1"
       transform="matrix(1.3333333,0,0,-1.3333333,-19.045333,156.40933)" />
    <path
       id="path2"
       d="M 85.04042,89.29227 133.2299,46.77203"
       style="fill:none;stroke:#858585;stroke-width:0.54794;stroke-linecap:butt;stroke-linejoin:miter;stroke-miterlimit:10;stroke-dasharray:none;stroke-opacity:1"
       transform="matrix(1.3333333,0,0,-1.3333333,-19.045333,156.40933)" />
    <path
       id="path3"
       d="M 36.85092,46.77203 85.04042,2.83484"
       style="fill:none;stroke:#858585;stroke-width:0.54794;stroke-linecap:butt;stroke-linejoin:miter;stroke-miterlimit:10;stroke-dasharray:none;stroke-opacity:1"
       transform="matrix(1.3333333,0,0,-1.3333333,-19.045333,156.40933)" />
    <path
       id="path4"
       d="M 133.2299,46.77203 85.04042,2.83484"
       style="fill:none;stroke:#858585;stroke-width:0.54794;stroke-linecap:butt;stroke-linejoin:miter;stroke-miterlimit:10;stroke-dasharray:none;stroke-opacity:1"
       transform="matrix(1.3333333,0,0,-1.3333333,-19.045333,156.40933)" />
    <path
       id="path5"
       d="M 85.04042,89.29227 H 188.50609"
       style="fill:none;stroke:#858585;stroke-width:0.54794;stroke-linecap:butt;stroke-linejoin:miter;stroke-miterlimit:10;stroke-dasharray:none;stroke-opacity:1"
       transform="matrix(1.3333333,0,0,-1.3333333,-19.045333,156.40933)" />
    <path
       id="path6"
       d="m 99.21382,89.29227 c 0,7.82785 -6.34555,14.1734 -14.1734,14.1734 -7.82785,0 -14.1734,-6.34555 -14.1734,-14.1734 0,-7.82785 6.34555,-14.1734 14.1734,-14.1734 7.82785,0 14.1734,6.34555 14.1734,14.1734 z"
       style="fill:#e0e0e0;fill-opacity:1;fill-rule:nonzero;stroke:#000000;stroke-width:0.84683;stroke-linecap:butt;stroke-linejoin:miter;stroke-miterlimit:10;stroke-dasharray:none;stroke-opacity:1"
       transform="matrix(1.3333333,0,0,-1.3333333,-19.045333,156.40933)" />
    <path
       id="path7"
       d="M 0.78473438,-0.00103906 H 4.3941094 v -0.6796875 H 3.0698906 V -6.3877578 H 2.4487969 c -0.3632813,0.2109375 -0.7851563,0.3632812 -1.359375,0.46875 v 0.515625 h 1.171875 v 4.72265624 H 0.78473438 Z m 0,0"
       style="fill:#000000;fill-opacity:1;fill-rule:nonzero;stroke:none"
       aria-label="1"
       transform="matrix(1.3333333,0,0,1.3333333,91.024,41.614667)" />
    <path
       id="path8"
       d="m 51.02432,46.77203 c 0,7.82785 -6.34555,14.1734 -14.1734,14.1734 -7.82785,0 -14.17338,-6.34555 -14.17338,-14.1734 0,-7.82783 6.34553,-14.17338 14.17338,-14.17338 7.82785,0 14.1734,6.34555 14.1734,14.17338 z"
       style="fill:#e0e0e0;fill-opacity:1;fill-rule:nonzero;stroke:#000000;stroke-width:0.84683;stroke-linecap:butt;stroke-linejoin:miter;stroke-miterlimit:10;stroke-dasharray:none;stroke-opacity:1"
       transform="matrix(1.3333333,0,0,-1.3333333,-19.045333,156.40933)" />
    <path
       id="path9"
       d="M 0.39951563,3.90625e-5 H 4.5245156 V -0.70308594 H 2.6729531 c -0.328125,0 -0.7382812,0.0351563 -1.078125,0.0585938 1.5117188,-1.58203126 2.625,-2.78906256 2.625,-3.99609366 0,-1.125 -0.75,-1.8632813 -1.921875,-1.8632813 -0.8320312,0 -1.40624997,0.375 -1.93359372,0.9609375 l 0.46875,0.4570313 c 0.37500002,-0.421875 0.83203122,-0.7617188 1.35937502,-0.7617188 0.8203125,0 1.21875,0.5273438 1.21875,1.2539063 0,1.0429687 -1.0898438,2.1914061 -3.01171877,4.11328116 z m 0,0"
       style="fill:#000000;fill-opacity:1;fill-rule:nonzero;stroke:none"
       aria-label="2"
       transform="matrix(1.3333333,0,0,1.3333333,26.772,98.386667)" />
    <path
       id="path10"
       d="m 147.4033,46.77203 c 0,7.82785 -6.34555,14.1734 -14.1734,14.1734 -7.82785,0 -14.1734,-6.34555 -14.1734,-14.1734 0,-7.82783 6.34555,-14.17338 14.1734,-14.17338 7.82785,0 14.1734,6.34555 14.1734,14.17338 z"
       style="fill:#e0e0e0;fill-opacity:1;fill-rule:nonzero;stroke:#000000;stroke-width:0.84683;stroke-linecap:butt;stroke-linejoin:miter;stroke-miterlimit:10;stroke-dasharray:none;stroke-opacity:1"
       transform="matrix(1.3333333,0,0,-1.3333333,-19.045333,156.40933)" />
    <path
       id="path11"
       d="m 2.3554766,0.11663281 c 1.171875,0 2.1210937,-0.6796875 2.1210937,-1.81640621 0,-0.8789063 -0.6210937,-1.453125 -1.3945312,-1.640625 v -0.035156 c 0.6914062,-0.2460937 1.171875,-0.7382812 1.171875,-1.5234375 0,-1.0195312 -0.8085938,-1.6054687 -1.921875,-1.6054687 -0.75,0 -1.33593754,0.3398437 -1.82812504,0.796875 l 0.43359375,0.515625 c 0.37499999,-0.3867188 0.83203129,-0.65625 1.37109379,-0.65625 0.6914062,0 1.1015625,0.3984375 1.1015625,1.0195312 0,0.6679688 -0.4570313,1.1835938 -1.8164063,1.1835938 v 0.6445312 c 1.5234375,0 2.0507813,0.5039063 2.0507813,1.265625 0,0.7265625 -0.5507813,1.17187501 -1.3359375,1.17187501 -0.75,0 -1.2421875,-0.36328125 -1.62890629,-0.75000001 l -0.421875,0.52734376 c 0.43359375,0.46875 1.07812499,0.90234375 2.09765629,0.90234345 z m 0,0"
       style="fill:#000000;fill-opacity:1;fill-rule:nonzero;stroke:none"
       aria-label="3"
       transform="matrix(1.3333333,0,0,1.3333333,155.27733,98.309333)" />
    <path
       id="path12"
       d="m 99.21382,2.83484 c 0,7.82785 -6.34555,14.1734 -14.1734,14.1734 -7.82785,0 -14.1734,-6.34555 -14.1734,-14.1734 0,-7.82784 6.34555,-14.17339 14.1734,-14.17339 7.82785,0 14.1734,6.34555 14.1734,14.17339 z"
       style="fill:#ffffff;fill-opacity:1;fill-rule:nonzero;stroke:#666666;stroke-width:0.54794;stroke-linecap:butt;stroke-linejoin:miter;stroke-miterlimit:10;stroke-dasharray:none;stroke-opacity:1"
       transform="matrix(1.3333333,0,0,-1.3333333,-19.045333,156.40933)" />
    <path
       id="path13"
       d="M 3.0464531,-0.00103125 H 3.8198906 V -1.7705625 h 0.8789063 v -0.65625 H 3.8198906 V -6.38775 H 2.9175469 l -2.74218752,4.078125 v 0.5390625 H 3.0464531 Z m 0,-2.42578125 h -2.015625 l 1.5,-2.1796875 c 0.1875,-0.328125 0.3632813,-0.5976562 0.5273438,-0.9023437 h 0.035156 c -0.023437,0.328125 -0.046875,0.890625 -0.046875,1.21875 z m 0,0"
       style="fill:#000000;fill-opacity:1;fill-rule:nonzero;stroke:none"
       aria-label="4"
       transform="matrix(1.3333333,0,0,1.3333333,91.024,156.892)" />
    <path
       id="path14"
       d="m 202.67949,89.29227 c 0,7.82785 -6.34555,14.1734 -14.1734,14.1734 -7.82785,0 -14.1734,-6.34555 -14.1734,-14.1734 0,-7.82785 6.34555,-14.1734 14.1734,-14.1734 7.82785,0 14.1734,6.34555 14.1734,14.1734 z"
       style="fill:#e0e0e0;fill-opacity:1;fill-rule:nonzero;stroke:#000000;stroke-width:0.84683;stroke-linecap:butt;stroke-linejoin:miter;stroke-miterlimit:10;stroke-dasharray:none;stroke-opacity:1"
       transform="matrix(1.3333333,0,0,-1.3333333,-19.045333,156.40933)" />
    <path
       id="path15"
       d="m 2.3451016,0.11848437 c 1.1132812,0 2.15625,-0.78515625 2.15625,-2.15624997 0,-1.3828125 -0.890625,-2.0039063 -1.9804688,-2.0039063 -0.3984375,0 -0.6914062,0.09375 -0.984375,0.2578125 l 0.1640625,-1.8984375 h 2.4726563 v -0.703125 H 0.98572656 l -0.2109375,3.0703125 0.43359374,0.28125 c 0.375,-0.2578125 0.65625,-0.3984375 1.1015625,-0.3984375 0.8203125,0 1.359375,0.5273438 1.359375,1.4179688 0,0.890625 -0.6210937,1.45312497 -1.3945312,1.45312497 -0.7617188,0 -1.2539063,-0.3515625 -1.61718754,-0.72656247 l -0.41015625,0.53906247 c 0.4453125,0.43359375 1.06640629,0.8671875 2.09765629,0.8671875 z m 0,0"
       style="fill:#000000;fill-opacity:1;fill-rule:nonzero;stroke:none"
       aria-label="5"
       transform="matrix(1.3333333,0,0,1.3333333,228.97867,41.537333)" />
    <path
       id="path16"
       d="m 226.77448,-5.09413 v 112.23695 c 0,1.10047 0.89207,1.99256 1.99255,1.99256 h 168.9306 c 1.10047,0 1.99256,-0.89209 1.99256,-1.99256 V -5.09413 c 0,-1.10047 -0.89209,-1.99256 -1.99256,-1.99256 h -168.9306 c -1.10048,0 -1.99255,0.89209 -1.99255,1.99256 z"
       style="fill:#fcfcfc;fill-opacity:1;fill-rule:nonzero;stroke:#c7c7c7;stroke-width:0.3985;stroke-linecap:butt;stroke-linejoin:miter;stroke-miterlimit:10;stroke-dasharray:none;stroke-opacity:1"
       transform="matrix(1.3333333,0,0,-1.3333333,-19.045333,156.40933)" />
    <path
       id="path17"
       d="m 4.8278125,1.6066484 c 0,-0.328125 -0.2460937,-0.3398437 -0.421875,-0.3398437 H 4.054375 v -4.7929688 c 0,-0.1992187 -0.011719,-0.421875 -0.375,-0.421875 -0.3046875,0 -0.3632812,0.1054688 -0.375,0.3867188 C 3.07,-3.7839766 2.7301563,-3.9480391 2.2848438,-3.9480391 c -1.0078125,0 -1.9335938,0.84375 -1.9335938,2.0039063 0,1.12499999 0.8554688,2.00390624 1.8398438,2.00390624 0.515625,0 0.890625,-0.234375 1.1132812,-0.43359375 V 1.2668047 H 2.9528125 c -0.1640625,0 -0.421875,0.011719 -0.421875,0.328125 0,0.328125 0.2460938,0.3398437 0.421875,0.3398437 h 1.453125 c 0.1640625,0 0.421875,-0.011719 0.421875,-0.328125 z m -1.5234375,-3.375 c 0,0.46875 -0.4101562,1.14843754 -1.078125,1.14843754 -0.609375,0 -1.1484375,-0.58593754 -1.1484375,-1.32421874 0,-0.7617188 0.5859375,-1.3359375 1.2421875,-1.3359375 0.609375,0 0.984375,0.6328125 0.984375,1.171875 z m 5.9970703,1.42968754 c 0,-0.328125 -0.2695312,-0.328125 -0.4101562,-0.328125 H 8.5748828 V -3.4792891 c 0,-0.3164062 -0.070312,-0.4335937 -0.421875,-0.4335937 H 7.5084766 c -0.1640625,0 -0.421875,0.023437 -0.421875,0.3515625 0,0.3164062 0.2695312,0.328125 0.421875,0.328125 h 0.3164062 v 1.7929687 c 0,0.72656254 -0.65625,0.82031254 -0.9257812,0.82031254 -0.609375,0 -0.609375,-0.24609375 -0.609375,-0.50390624 v -2.3554688 c 0,-0.3164062 -0.070312,-0.4335937 -0.421875,-0.4335937 H 5.2233203 c -0.1640625,0 -0.421875,0.023437 -0.421875,0.3515625 0,0.3164062 0.2695313,0.328125 0.421875,0.328125 h 0.3164063 v 2.1679687 c 0,0.89062504 0.6328125,1.12500004 1.3242187,1.12500004 0.328125,0 0.6679688,-0.08203125 0.9726563,-0.28125 0.058594,0.2109375 0.2460937,0.22265625 0.4101562,0.22265625 h 0.6328125 c 0.1757813,0 0.421875,-0.01171875 0.421875,-0.33984375 z M 13.599297,-1.0183516 c 0,-0.3046875 -0.316406,-0.3164062 -0.375,-0.3164062 -0.199219,0 -0.28125,0.035156 -0.351563,0.234375 -0.1875,0.41015624 -0.621093,0.48046874 -0.84375,0.48046874 -0.609375,0 -1.207031,-0.38671874 -1.371093,-1.04296874 h 2.519531 c 0.222656,0 0.421875,0 0.421875,-0.3984375 0,-1.03125 -0.585938,-1.921875 -1.757813,-1.921875 -1.078125,0 -1.9570309,0.9140625 -1.9570309,2.015625 0,1.11328124 0.9140629,2.02734374 2.0742189,2.02734374 1.21875,0 1.640625,-0.84375 1.640625,-1.07812504 z m -0.773438,-1.3125 h -2.15625 c 0.140625,-0.5625 0.609375,-0.9726562 1.171875,-0.9726562 0.410157,0 0.890625,0.1992187 0.984375,0.9726562 z m 5.888672,1.99218754 c 0,-0.328125 -0.269531,-0.328125 -0.410156,-0.328125 H 17.987969 V -3.4792891 c 0,-0.3164062 -0.07031,-0.4335937 -0.421875,-0.4335937 h -0.644531 c -0.164063,0 -0.421875,0.023437 -0.421875,0.3515625 0,0.3164062 0.269531,0.328125 0.421875,0.328125 h 0.316406 v 1.7929687 c 0,0.72656254 -0.65625,0.82031254 -0.925781,0.82031254 -0.609375,0 -0.609375,-0.24609375 -0.609375,-0.50390624 v -2.3554688 c 0,-0.3164062 -0.07031,-0.4335937 -0.421875,-0.4335937 h -0.644532 c -0.164062,0 -0.421875,0.023437 -0.421875,0.3515625 0,0.3164062 0.269532,0.328125 0.421875,0.328125 h 0.316407 v 2.1679687 c 0,0.89062504 0.632812,1.12500004 1.324218,1.12500004 0.328125,0 0.667969,-0.08203125 0.972657,-0.28125 0.05859,0.2109375 0.246093,0.22265625 0.410156,0.22265625 h 0.632812 c 0.175782,0 0.421875,-0.01171875 0.421875,-0.33984375 z m 4.297852,-0.67968754 c 0,-0.3046875 -0.316406,-0.3164062 -0.375,-0.3164062 -0.199219,0 -0.28125,0.035156 -0.351563,0.234375 -0.1875,0.41015624 -0.621093,0.48046874 -0.84375,0.48046874 -0.609375,0 -1.207031,-0.38671874 -1.371093,-1.04296874 h 2.519531 c 0.222656,0 0.421875,0 0.421875,-0.3984375 0,-1.03125 -0.585938,-1.921875 -1.757813,-1.921875 -1.078125,0 -1.957031,0.9140625 -1.957031,2.015625 0,1.11328124 0.914063,2.02734374 2.074219,2.02734374 1.21875,0 1.640625,-0.84375 1.640625,-1.07812504 z m -0.773438,-1.3125 h -2.15625 c 0.140625,-0.5625 0.609375,-0.9726562 1.171875,-0.9726562 0.410157,0 0.890625,0.1992187 0.984375,0.9726562 z m 0,0"
       style="fill:#000000;fill-opacity:1;fill-rule:nonzero;stroke:none"
       aria-label="queue"
       transform="matrix(1.3333333,0,0,1.3333333,382.90667,27.377333)" />
    <path
       id="path18"
       d="m 245.19972,55.27646 h 28.34679 v 22.67743 h -28.34679 z"
       style="fill:#e0e0e0;fill-opacity:1;fill-rule:nonzero;stroke:#000000;stroke-width:0.79701;stroke-linecap:butt;stroke-linejoin:miter;stroke-miterlimit:10;stroke-dasharray:none;stroke-opacity:1"
       transform="matrix(1.3333333,0,0,-1.3333333,-19.045333,156.40933)" />
    <path
       id="path19"
       d="M 0.399,2.65625e-4 H 4.524 V -0.70285938 H 2.6724375 c -0.328125,0 -0.7382812,0.0351563 -1.078125,0.0585938 1.5117188,-1.58203132 2.625,-2.78906252 2.625,-3.99609372 0,-1.125 -0.75,-1.8632812 -1.921875,-1.8632812 -0.8320312,0 -1.40625,0.375 -1.93359375,0.9609375 l 0.46875,0.4570312 C 1.2075938,-5.5075469 1.664625,-5.8473906 2.1919688,-5.8473906 c 0.8203125,0 1.21875,0.5273437 1.21875,1.2539062 0,1.0429688 -1.0898438,2.1914063 -3.0117188,4.11328127 z m 0,0"
       style="fill:#000000;fill-opacity:1;fill-rule:nonzero;stroke:none"
       aria-label="2"
       transform="matrix(1.3333333,0,0,1.3333333,323.468,71.929333)" />
    <path
       id="path20"
       d="m 279.21625,55.27646 h 28.34679 v 22.67743 h -28.34679 z"
       style="fill:#ffffff;fill-opacity:1;fill-rule:nonzero;stroke:#666666;stroke-width:0.49814;stroke-linecap:butt;stroke-linejoin:miter;stroke-miterlimit:10;stroke-dasharray:none;stroke-opacity:1"
       transform="matrix(1.3333333,0,0,-1.3333333,-19.045333,156.40933)" />
    <path
       id="path21"
       d="m 2.3566328,0.11785937 c 1.171875,0 2.1210938,-0.6796875 2.1210938,-1.81640627 0,-0.8789062 -0.6210938,-1.453125 -1.3945313,-1.640625 v -0.035156 c 0.6914063,-0.2460938 1.171875,-0.7382813 1.171875,-1.5234375 0,-1.0195313 -0.8085937,-1.6054688 -1.921875,-1.6054688 -0.75,0 -1.33593749,0.3398438 -1.82812499,0.796875 l 0.43359375,0.515625 c 0.37500004,-0.3867187 0.83203124,-0.65625 1.37109374,-0.65625 0.6914063,0 1.1015625,0.3984375 1.1015625,1.0195313 0,0.6679687 -0.4570312,1.1835937 -1.8164062,1.1835937 v 0.6445313 c 1.5234375,0 2.0507812,0.5039062 2.0507812,1.265625 0,0.7265625 -0.5507812,1.17187497 -1.3359375,1.17187497 -0.75,0 -1.2421875,-0.36328125 -1.62890624,-0.74999997 l -0.421875,0.52734372 c 0.43359375,0.46875 1.07812504,0.90234375 2.09765624,0.90234355 z m 0,0"
       style="fill:#000000;fill-opacity:1;fill-rule:nonzero;stroke:none"
       aria-label="3"
       transform="matrix(1.3333333,0,0,1.3333333,368.82267,71.850667)" />
    <path
       id="path22"
       d="m 313.23233,55.27646 h 28.34679 v 22.67743 h -28.34679 z"
       style="fill:#ffffff;fill-opacity:1;fill-rule:nonzero;stroke:#666666;stroke-width:0.49814;stroke-linecap:butt;stroke-linejoin:miter;stroke-miterlimit:10;stroke-dasharray:none;stroke-opacity:1"
       transform="matrix(1.3333333,0,0,-1.3333333,-19.045333,156.40933)" />
    <path
       id="path23"
       d="m 2.3445156,0.11726562 c 1.1132813,0 2.15625,-0.78515625 2.15625,-2.15625002 0,-1.3828125 -0.890625,-2.0039062 -1.9804687,-2.0039062 -0.3984375,0 -0.6914063,0.09375 -0.984375,0.2578125 l 0.1640625,-1.8984375 h 2.4726562 v -0.703125 H 0.98514063 l -0.2109375,3.0703125 0.43359377,0.28125 c 0.375,-0.2578125 0.65625,-0.3984375 1.1015625,-0.3984375 0.8203125,0 1.359375,0.5273437 1.359375,1.4179687 0,0.890625 -0.6210938,1.45312502 -1.3945313,1.45312502 -0.7617187,0 -1.2539062,-0.3515625 -1.61718747,-0.72656252 l -0.41015625,0.53906252 c 0.4453125,0.43359375 1.06640622,0.8671875 2.09765622,0.8671875 z m 0,0"
       style="fill:#000000;fill-opacity:1;fill-rule:nonzero;stroke:none"
       aria-label="5"
       transform="matrix(1.3333333,0,0,1.3333333,414.17867,71.773333)" />
    <path
       id="path24"
       d="m 3.0938047,-3.8431094 c 0,-0.4570312 -0.5859375,-0.4570312 -0.703125,-0.4570312 -0.5390625,0 -1.1132813,0.2929687 -1.1132813,0.9492187 v 0.3515625 H 0.60942969 c -0.10546875,0 -0.3046875,0 -0.3046875,0.2226563 0,0.234375 0.1875,0.234375 0.29296875,0.234375 H 1.2773984 v 2.08593748 H 0.59771094 c -0.09375,0 -0.3046875,0 -0.3046875,0.22265625 0,0.234374995 0.2109375,0.234374995 0.3046875,0.234374995 H 2.4844297 c 0.09375,0 0.3046875,0 0.3046875,-0.234374995 0,-0.22265625 -0.2109375,-0.22265625 -0.3046875,-0.22265625 H 1.8047422 V -2.5423281 h 0.8320312 c 0.1054688,0 0.2929688,0 0.2929688,-0.234375 0,-0.2226563 -0.1875,-0.2226563 -0.2929688,-0.2226563 H 1.8047422 v -0.328125 c 0,-0.4335937 0.3398437,-0.5039062 0.6328125,-0.5039062 0.011719,0.2226562 0.1992187,0.3164062 0.328125,0.3164062 0.140625,0 0.328125,-0.1054687 0.328125,-0.328125 z m 4.0429687,1.265625 c 0,-0.1757812 -0.1171875,-0.4570312 -0.6679687,-0.4570312 -0.6445313,0 -1.0195313,0.3632812 -1.1953125,0.5390625 v -0.2109375 c 0,-0.234375 -0.058594,-0.2929688 -0.2929688,-0.2929688 H 4.2188047 c -0.09375,0 -0.3046875,0 -0.3046875,0.2226563 0,0.234375 0.2109375,0.234375 0.3046875,0.234375 h 0.5273437 v 2.08593748 H 4.2188047 c -0.09375,0 -0.3046875,0 -0.3046875,0.22265625 0,0.234374995 0.2109375,0.234374995 0.3046875,0.234374995 h 1.8046875 c 0.1054687,0 0.2929687,0 0.2929687,-0.234374995 0,-0.22265625 -0.1875,-0.22265625 -0.2929687,-0.22265625 h -0.75 V -1.2767031 c 0,-0.7617188 0.5507812,-1.3007813 1.2304687,-1.3007813 0.011719,0.2695313 0.1992188,0.328125 0.3164063,0.328125 0.1757812,0 0.3164062,-0.1289062 0.3164062,-0.328125 z m 3.5859376,1.0664063 c 0,-0.84375 -0.65625,-1.546875 -1.4648438,-1.546875 -0.8085938,0 -1.4648438,0.703125 -1.4648438,1.546875 0,0.87890623 0.6679688,1.54687498 1.4648438,1.54687498 0.7968748,0 1.4648438,-0.66796875 1.4648438,-1.54687498 z m -0.539063,-0.046875 c 0,0.63281248 -0.4218746,1.13671873 -0.9257808,1.13671873 -0.5039063,0 -0.9375,-0.50390625 -0.9375,-1.13671873 0,-0.5976563 0.4335937,-1.0429688 0.9375,-1.0429688 0.4921875,0 0.9257808,0.4453125 0.9257808,1.0429688 z m 4.546875,1.32421873 c 0,-0.22265625 -0.1875,-0.22265625 -0.304687,-0.22265625 h -0.28125 V -2.0267031 c 0,-0.703125 -0.351563,-1.0078125 -0.925781,-1.0078125 -0.515625,0 -0.84375,0.2695312 -0.914063,0.3398437 0,-0.2109375 -0.02344,-0.3046875 -0.304687,-0.3046875 H 11.48443 c -0.105469,0 -0.292969,0 -0.292969,0.2226563 0,0.234375 0.1875,0.234375 0.292969,0.234375 h 0.292968 v 2.08593748 H 11.48443 c -0.105469,0 -0.292969,0 -0.292969,0.22265625 0,0.234374995 0.1875,0.234374995 0.292969,0.234374995 h 1.101562 c 0.117188,0 0.304688,0 0.304688,-0.234374995 0,-0.22265625 -0.1875,-0.22265625 -0.304688,-0.22265625 h -0.28125 V -1.6634219 c 0,-0.6679687 0.539063,-0.9140625 0.878906,-0.9140625 0.328125,0 0.433594,0.1523438 0.433594,0.5625 v 1.55859378 h -0.234375 c -0.105469,0 -0.304687,0 -0.304687,0.22265625 0,0.234374995 0.199218,0.234374995 0.304687,0.234374995 h 1.042969 c 0.117187,0 0.304687,0 0.304687,-0.234374995 z m 3.246094,-0.66796875 c 0,-0.24609378 -0.199219,-0.24609378 -0.257812,-0.24609378 -0.1875,0 -0.257813,0.070312 -0.269532,0.24609378 -0.01172,0.29296875 -0.269531,0.48046875 -0.527343,0.48046875 -0.515625,0 -0.515625,-0.38671875 -0.515625,-0.55078125 V -2.5423281 h 1.113281 c 0.105469,0 0.292969,0 0.292969,-0.234375 0,-0.2226563 -0.1875,-0.2226563 -0.292969,-0.2226563 h -1.113281 v -0.5625 c 0,-0.1289062 0,-0.3046875 -0.269532,-0.3046875 -0.269531,0 -0.269531,0.1757813 -0.269531,0.3046875 v 0.5625 h -0.574219 c -0.105468,0 -0.304687,0 -0.304687,0.2226563 0,0.234375 0.199219,0.234375 0.292969,0.234375 h 0.585937 v 1.58203123 c 0,0.76171875 0.539063,0.99609375 1.019531,0.99609375 0.632813,0 1.089844,-0.4453125 1.089844,-0.9375 z m 0,0"
       style="fill:#595959;fill-opacity:1;fill-rule:nonzero;stroke:none"
       aria-label="front"
       transform="matrix(1.3333333,0,0,1.3333333,314.44133,94.241333)" />
    <path
       id="path25"
       d="m 3.4578516,-1.5116563 c 0,-0.84375 -0.6210938,-1.5234375 -1.3945313,-1.5234375 -0.328125,0 -0.6210937,0.1171875 -0.8671875,0.3046875 V -3.960875 c 0,-0.234375 -0.070312,-0.3046875 -0.30468749,-0.3046875 h -0.515625 c -0.10546875,0 -0.29296875,0 -0.29296875,0.234375 0,0.234375 0.1875,0.234375 0.29296875,0.234375 h 0.29296875 v 3.4921875 c 0,0.12890625 0,0.3046875 0.2578125,0.3046875 0.26953124,0 0.26953124,-0.1640625 0.26953124,-0.29296875 0.2109375,0.2109375 0.4804688,0.328125 0.796875,0.328125 0.7734375,0 1.4648438,-0.65625 1.4648438,-1.54687505 z m -0.5273438,0 c 0,0.6445313 -0.4804687,1.0898438 -0.9609375,1.0898438 -0.515625,0 -0.7734375,-0.5859375 -0.7734375,-0.9257813 v -0.4804687 c 0,-0.4101563 0.4101563,-0.75 0.8320313,-0.75 0.4921875,0 0.9023437,0.46875 0.9023437,1.0664062 z m 4.4296875,1.2773438 c 0,-0.22265625 -0.1875,-0.22265625 -0.2929687,-0.22265625 -0.2578125,0 -0.328125,-0.0234375 -0.3984375,-0.046875 V -1.9686875 c 0,-0.5742188 -0.4453125,-1.0898438 -1.40625,-1.0898438 -0.328125,0 -1.0429688,0 -1.0429688,0.5390625 0,0.1875 0.1289063,0.3398438 0.3398438,0.3398438 0.1289062,0 0.328125,-0.082031 0.3398437,-0.3398438 0,-0.058594 0,-0.058594 0.09375,-0.070312 0.082031,-0.011719 0.1992188,-0.011719 0.28125,-0.011719 0.5742188,0 0.8671875,0.2578125 0.8671875,0.6445312 -0.7382812,0 -2.0976562,0.1757813 -2.0976562,1.03125005 0,0.515625 0.4804687,0.9609375 1.1835937,0.9609375 0.5507813,0 0.9023438,-0.2109375 0.9960938,-0.26953125 0.140625,0.2109375 0.4335937,0.234375 0.7734375,0.234375 0.1875,0 0.3632812,0 0.3632812,-0.2343752 z m -1.21875,-0.76171875 c 0,0.140625 0,0.3046875 -0.2695312,0.43359375 -0.2460938,0.12890625 -0.515625,0.140625 -0.609375,0.140625 -0.4101563,0 -0.6914063,-0.24609375 -0.6914063,-0.50390625 0,-0.37500005 0.7617188,-0.58593755 1.5703125,-0.58593755 z M 10.68832,-0.7499375 c 0,-0.15234375 -0.117187,-0.22265625 -0.269531,-0.22265625 -0.09375,0 -0.199219,0 -0.257812,0.1640625 -0.128907,0.3046875 -0.3984379,0.38671875 -0.6562504,0.38671875 -0.5742188,0 -1.0664063,-0.48046875 -1.0664063,-1.0898438 0,-0.3515625 0.2226563,-1.0898437 1.1132813,-1.0898437 0.1992187,0 0.3164062,0.011719 0.3515625,0.023437 0.023437,0 0.023437,0.011719 0.023437,0.070312 0.023437,0.2109375 0.1640629,0.328125 0.3398429,0.328125 0.210938,0 0.339844,-0.1523438 0.339844,-0.3398438 0,-0.5390625 -0.7265619,-0.5390625 -1.0429682,-0.5390625 -1.2421875,0 -1.6523437,0.9609375 -1.6523437,1.546875 0,0.84375005 0.6679687,1.54687505 1.5585937,1.54687505 0.9960932,0 1.2187492,-0.66796875 1.2187492,-0.78515625 z m 3.996094,0.515625 c 0,-0.22265625 -0.1875,-0.22265625 -0.292969,-0.22265625 H 14.180508 L 13.172695,-1.7460313 v -0.023437 l 0.832032,-0.7734375 h 0.234375 c 0.105468,0 0.292968,0 0.292968,-0.234375 0,-0.2226562 -0.1875,-0.2226562 -0.292968,-0.2226562 h -1.066407 c -0.117187,0 -0.304687,0 -0.304687,0.2226562 0,0.234375 0.1875,0.234375 0.304687,0.234375 h 0.1875 l -1.054687,0.984375 V -3.960875 c 0,-0.234375 -0.07031,-0.3046875 -0.304688,-0.3046875 h -0.445312 c -0.105469,0 -0.304688,0 -0.304688,0.234375 0,0.234375 0.210938,0.234375 0.304688,0.234375 h 0.316406 v 3.33984375 h -0.316406 c -0.105469,0 -0.304688,0 -0.304688,0.22265625 0,0.234375 0.210938,0.234375 0.304688,0.234375 h 1.066406 c 0.09375,0 0.304688,0 0.304688,-0.234375 0,-0.22265625 -0.210938,-0.22265625 -0.304688,-0.22265625 h -0.316406 v -0.515625 L 12.84457,-1.4765 l 0.785157,1.01953125 c -0.175782,0 -0.363282,0 -0.363282,0.22265625 0,0.234375 0.210938,0.234375 0.304688,0.234375 h 0.820312 c 0.105469,0 0.292969,0 0.292969,-0.234375 z m 0,0"
       style="fill:#595959;fill-opacity:1;fill-rule:nonzero;stroke:none"
       aria-label="back"
       transform="matrix(1.3333333,0,0,1.3333333,407.62,94.218667)" />
    <g
       id="g25"
       aria-label="방문순서:1"
       transform="matrix(1.3333333,0,0,1.3333333,305.02133,137.45333)">
      <path
         id="path26"
         d="m 4.1822422,-2.4376563 c -1.7226563,0 -2.8125,0.609375 -2.8125,1.61718755 0,1.03125 1.0898437,1.62890625 2.8125,1.62890625 1.7226562,0 2.8125,-0.59765625 2.8125,-1.62890625 0,-1.00781255 -1.0898438,-1.61718755 -2.8125,-1.61718755 z m 0,0.9375 c 1.0664062,0 1.6289062,0.2226563 1.6289062,0.67968755 0,0.48046875 -0.5625,0.703125 -1.6289062,0.703125 -1.0546875,0 -1.6171875,-0.22265625 -1.6171875,-0.703125 0,-0.45703125 0.5625,-0.67968755 1.6171875,-0.67968755 z m -3.58593751,-5.484375 v 3.9140625 H 4.5923984 V -6.9845313 H 3.4088047 v 1.03125 H 1.7798984 v -1.03125 z m 1.18359371,1.9453125 h 1.6289063 v 1.03125 H 1.7798984 Z m 3.9257813,-2.4609375 v 4.8867188 h 1.1835937 v -1.9804688 h 1.1015625 v -0.984375 H 6.8892734 v -1.921875 z m 3.8203125,0.3398438 v 3.09375 H 15.17443 v -3.09375 z m 4.4648438,0.9257812 v 1.21875 h -3.28125 v -1.21875 z m -5.3789063,2.8242188 v 0.9492187 h 3.2578123 v 1.3945313 h 1.195313 v -1.3945313 h 3.058593 v -0.9492187 z m 0.8671875,1.640625 v 2.42578125 h 5.8124998 v -0.9609375 H 10.67443 V -1.7696875 Z m 12.5595698,-5.53125 v 0.2695312 c 0,0.9375 -0.925781,1.9570313 -2.765625,2.2148438 l 0.445313,0.9375 C 21.112906,-4.09 22.132437,-4.7345313 22.659781,-5.59 c 0.515625,0.84375 1.535156,1.4765625 2.917969,1.6757812 l 0.457031,-0.9140625 c -1.839844,-0.2695312 -2.777344,-1.2890625 -2.777344,-2.203125 v -0.2695312 z m -3.140625,3.8789062 v 0.9375 h 3.257813 V -1.09 h 1.195312 v -1.3945313 h 3.058594 v -0.9375 z m 0.867188,1.640625 v 2.43750005 h 5.8125 v -0.9609375 H 20.960562 V -1.7814063 Z m 13.157227,-5.7421875 v 2.6132813 h -1.582032 v 0.9609375 h 1.582032 v 4.7578125 h 1.195312 v -8.3320313 z m -3.84375,0.6445313 v 1.21875 c 0,1.5703125 -0.632813,3.1757812 -2.050782,3.8320312 l 0.75,0.9492188 c 0.925782,-0.4570313 1.546875,-1.3242188 1.898438,-2.390625 0.339844,0.9960937 0.949219,1.8046875 1.851562,2.2617187 l 0.726563,-0.9609375 c -1.382813,-0.609375 -1.980469,-2.1328125 -1.980469,-3.6914062 v -1.21875 z m 0,0"
         style="fill:#000000;fill-opacity:1;fill-rule:nonzero;stroke:none" />
      <path
         id="path27"
         d="m 36.722281,-3.4923438 c 0.328125,0 0.597656,-0.2578125 0.597656,-0.6328125 0,-0.3632812 -0.269531,-0.6210937 -0.597656,-0.6210937 -0.328125,0 -0.585937,0.2578125 -0.585937,0.6210937 0,0.375 0.257812,0.6328125 0.585937,0.6328125 z m 0,3.60937505 c 0.328125,0 0.597656,-0.24609375 0.597656,-0.62109375 0,-0.375 -0.269531,-0.6210938 -0.597656,-0.6210938 -0.328125,0 -0.585937,0.2460938 -0.585937,0.6210938 0,0.375 0.257812,0.62109375 0.585937,0.62109375 z m 0,0"
         style="fill:#000000;fill-opacity:1;fill-rule:nonzero;stroke:none" />
      <path
         id="path28"
         d="m 44.635367,-0.28140625 c 0,-0.3046875 -0.222656,-0.3046875 -0.375,-0.3046875 H 43.463492 V -5.2032813 c 0,-0.1289062 0,-0.375 -0.28125,-0.375 -0.152344,0 -0.222656,0.082031 -0.28125,0.1992188 -0.28125,0.6328125 -0.632812,0.8671875 -0.996094,0.9023437 -0.128906,0 -0.328125,0.023437 -0.328125,0.2929688 0,0.1757812 0.09375,0.28125 0.316407,0.28125 0.351562,0 0.703125,-0.1875 0.914062,-0.3632813 v 3.67968755 h -0.796875 c -0.152344,0 -0.386719,0 -0.386719,0.3046875 0,0.28125 0.246094,0.28125 0.386719,0.28125 h 2.25 c 0.140625,0 0.375,0 0.375,-0.28125 z m 0,0"
         style="fill:#000000;fill-opacity:1;fill-rule:nonzero;stroke:none" />
    </g>
    <path
       id="path29"
       d="M 0.78380469,0.00108594 H 4.3931797 v -0.6796875 H 3.0689609 V -6.3856328 H 2.4478672 c -0.3632813,0.2109375 -0.7851563,0.3632812 -1.359375,0.46875 v 0.515625 h 1.171875 v 4.72265624 H 0.78380469 Z M 7.0064609,-4.8621953 h 2.1914063 v 1.4765625 H 7.0064609 Z M 6.2681797,-6.8661016 v 4.078125 h 3.6679687 v -1.734375 H 11.79943 v 3.1171875 h 0.738281 v -6 H 11.79943 v 2.2734375 H 9.9361484 v -1.734375 H 9.1978672 v 1.4296875 H 7.0064609 v -1.4296875 z m 1.0664062,4.875 v 2.50781254 h 5.3906251 v -0.609375 H 8.0728672 V -1.9911016 Z m 7.1601561,-4.5351562 v 0.609375 h 3.351563 c 0,0.65625 -0.02344,1.6289062 -0.234375,2.9882812 l 0.738281,0.058594 c 0.222656,-1.5 0.222656,-2.5664063 0.222656,-3.2109375 v -0.4453125 z m -0.363281,5.4492187 c 1.429687,0 3.328125,-0.035156 5.015625,-0.3046875 l -0.04687,-0.5507812 c -0.832031,0.1054687 -1.734375,0.1640625 -2.613281,0.1992187 v -2.4726562 h -0.738282 v 2.484375 l -1.710937,0.023437 z m 5.460937,-6.3398437 V 0.70421094 H 20.33068 V -3.3856328 h 1.300781 V -4.0184453 H 20.33068 v -3.3984375 z m 6.999024,1.1835937 c 0.785156,0 1.371094,0.5742188 1.371094,1.3710938 0,0.8085937 -0.585938,1.3710937 -1.371094,1.3710937 -0.796875,0 -1.382813,-0.5625 -1.382813,-1.3710937 0,-0.796875 0.585938,-1.3710938 1.382813,-1.3710938 z m 3.714844,0.703125 v 1.3242188 h -1.734375 c 0.07031,-0.1992188 0.105468,-0.421875 0.105468,-0.65625 0,-0.234375 -0.03516,-0.4570313 -0.105468,-0.6679688 z m -3.714844,-1.359375 c -1.195313,0 -2.085938,0.84375 -2.085938,2.0273438 0,1.1835937 0.890625,2.0273437 2.085938,2.0273437 0.691406,0 1.289062,-0.28125 1.664062,-0.7617187 h 2.050782 v 2.1796875 h 0.738281 v -5.9882813 h -0.738281 v 1.265625 h -2.0625 c -0.375,-0.46875 -0.972657,-0.75 -1.652344,-0.75 z m -0.714844,4.8515625 v 2.55468754 h 5.402344 v -0.609375 H 26.614859 V -2.0379766 Z m 10.558594,-2.6484375 v 0.5859375 h 2.121094 v 0.8320313 h 0.738281 v -4.1484375 h -0.738281 v 1.1835937 h -1.828125 c 0.04687,-0.2460937 0.07031,-0.5039062 0.07031,-0.7734375 h -3.621094 v 0.609375 h 2.800782 c -0.128907,1.2773438 -1.253907,2.2382813 -3.210938,2.6953125 l 0.257813,0.609375 c 1.792968,-0.4335937 3.035156,-1.2890625 3.527343,-2.5664062 h 2.003907 v 0.9726562 z m -2.332031,4.71093754 v 0.59765625 h 5.460937 V 0.02452344 h -4.734375 v -0.9375 h 4.464844 V -2.9051641 h -5.214844 v 0.5976563 h 4.476563 v 0.8320312 H 34.103141 Z M 46.76818,-7.4051641 v 6.0585938 h 0.738281 v -6.0585938 z m -5.753907,5.0390625 c 1.523438,0 3.433594,-0.058594 5.15625,-0.2929687 l -0.05859,-0.5507813 c -0.691407,0.082031 -1.429688,0.1289063 -2.167969,0.1640625 v -1.1132812 h 1.605469 V -4.7567266 H 42.38537 v -1.5117187 h 3.09375 v -0.6210938 h -3.84375 v 2.7304688 h 1.558594 v 1.1484375 c -0.796875,0.011719 -1.582031,0.035156 -2.285156,0.035156 z m 1.253907,0.6210938 v 2.26171874 h 5.507812 v -0.609375 H 43.006461 V -1.7450078 Z m 12.861328,-0.5859375 c -1.675781,0 -2.695313,0.5625 -2.695313,1.51171874 0,0.94921875 1.019532,1.51171875 2.695313,1.51171875 1.675781,0 2.707031,-0.5625 2.707031,-1.51171875 0,-0.94921874 -1.03125,-1.51171874 -2.707031,-1.51171874 z m 0,0.5859375 c 1.21875,0 1.96875,0.3398437 1.96875,0.92578124 0,0.5859375 -0.75,0.92578125 -1.96875,0.92578125 -1.21875,0 -1.957031,-0.33984375 -1.957031,-0.92578125 0,-0.58593754 0.738281,-0.92578124 1.957031,-0.92578124 z m 1.933594,-5.671875 v 2.109375 h -1.59375 v 0.6210937 h 1.59375 v 2.109375 h 0.738281 v -4.8398437 z m -5.671875,0.5976562 v 0.609375 h 1.804687 v 0.28125 c 0,1.1484375 -0.820312,2.25 -2.027344,2.6835938 l 0.375,0.5976562 c 0.960938,-0.375 1.699219,-1.1132812 2.050782,-2.0625 0.351562,0.8320313 1.042968,1.5 1.945312,1.828125 l 0.375,-0.5859375 c -1.171875,-0.4101562 -1.96875,-1.4296875 -1.96875,-2.4726562 v -0.2695313 h 1.78125 v -0.609375 z m 9.395507,4.546875 v 2.85937504 h 5.261719 V -2.2723516 Z m 4.535157,0.5976563 v 1.65234374 H 61.525016 V -1.6746953 Z m -0.01172,-5.7421875 v 2.0273437 h -1.605469 v 0.6210938 h 1.605469 v 2.0976562 h 0.738281 v -4.7460937 z m -5.671875,0.5273437 v 0.609375 h 1.804687 v 0.2929688 c 0,1.1484375 -0.832031,2.2265625 -2.027343,2.6484375 l 0.375,0.5976562 c 0.960937,-0.3515625 1.699218,-1.0898437 2.039062,-2.015625 0.351563,0.8320313 1.054688,1.5 1.957031,1.8398438 l 0.375,-0.5976563 c -1.171875,-0.421875 -1.96875,-1.4296875 -1.96875,-2.4726562 v -0.2929688 h 1.78125 v -0.609375 z m 11.648437,-0.375 c -1.792968,0 -2.847656,0.4921875 -2.847656,1.3945313 0,0.9023437 1.054688,1.40625 2.847656,1.40625 1.792969,0 2.859375,-0.5039063 2.859375,-1.40625 0,-0.9023438 -1.066406,-1.3945313 -2.859375,-1.3945313 z m 0,0.5507813 c 1.335938,0 2.097657,0.3164062 2.097657,0.84375 0,0.5507812 -0.761719,0.84375 -2.097657,0.84375 -1.3125,0 -2.074218,-0.2929688 -2.074218,-0.84375 0,-0.5273438 0.761718,-0.84375 2.074218,-0.84375 z m -3.65625,2.8007812 v 0.5976563 h 7.324219 v -0.5976563 z m 0.914063,3.93750004 v 0.5859375 h 5.71875 V 0.02452344 H 69.25939 v -0.8203125 h 4.757812 V -2.6239141 h -5.496094 v 0.5625 h 4.769532 v 0.7148438 H 68.544547 Z M 77.88732,-3.0926641 v 0.609375 h 1.898438 v 3.17578129 h 0.738281 V -2.4832891 h 2.027344 v 3.17578129 h 0.75 V -2.4832891 h 1.910156 v -0.609375 h -1.207031 c 0.28125,-1.3125 0.28125,-2.2382812 0.28125,-3.09375 v -0.7382812 h -5.472656 v 0.609375 h 4.757812 v 0.1289062 c 0,0.328125 0,0.65625 -0.01172,1.0195313 l -4.980468,0.1640625 0.105468,0.6445312 4.839844,-0.234375 c -0.04687,0.4453125 -0.128906,0.9492188 -0.269531,1.5 z m 14.425782,-4.3242187 v 8.12109374 h 0.726562 V -7.4168828 Z m -4.347657,1.3710937 c 0.644532,0 1.042969,0.8203125 1.042969,2.1328125 0,1.3125 -0.398437,2.1328125 -1.042969,2.1328125 -0.632812,0 -1.03125,-0.8203125 -1.03125,-2.1328125 0,-1.3125 0.398438,-2.1328125 1.03125,-2.1328125 z m 0,-0.6914062 c -1.042968,0 -1.722656,1.0898437 -1.722656,2.8242187 0,1.734375 0.679688,2.8242188 1.722656,2.8242188 0.996094,0 1.664063,-0.9726563 1.722657,-2.5546875 h 1.019531 v 3.92578124 h 0.703125 V -7.2411016 h -0.703125 v 2.9882813 h -1.019531 c -0.08203,-1.5351563 -0.738282,-2.484375 -1.722657,-2.484375 z m 12.424805,5.0390625 c -1.394531,0 -2.261719,0.421875 -2.261719,1.18359374 0,0.76171875 0.867188,1.1953125 2.261719,1.1953125 1.41797,0 2.27344,-0.43359375 2.27344,-1.1953125 0,-0.76171874 -0.85547,-1.18359374 -2.27344,-1.18359374 z m 0,0.5390625 c 0.96094,0 1.52344,0.23437499 1.52344,0.64453124 0,0.421875 -0.5625,0.65625 -1.52344,0.65625 -0.949219,0 -1.523438,-0.234375 -1.523438,-0.65625 0,-0.41015625 0.574219,-0.64453124 1.523438,-0.64453124 z m -3.527344,-3.234375 v 0.6328125 h 0.632813 c 1.3125,0 2.414062,-0.070312 3.679691,-0.3164063 l -0.0937,-0.6210937 c -1.183598,0.234375 -2.250004,0.3046875 -3.468754,0.3046875 v -2.6367188 h -0.75 z m 5.460934,-3.0234375 v 1.2421875 h -2.30859 v 0.5976562 h 2.30859 v 2.4960938 h 0.73828 v -4.3359375 z m -2.29687,3.9726562 v 0.8085938 h -2.496095 v 0.5976562 h 5.718745 v -0.5976562 h -2.47265 v -0.8085938 z m 4.60547,0.1640625 v 0.5976563 h 7.35937 v -0.5976563 z m 0.99609,-3.8320312 v 2.7421875 h 5.51953 v -0.609375 h -4.78125 v -2.1328125 z m -0.0469,5.25 v 2.36718749 h 5.61328 v -0.609375 h -4.875 V -1.8621953 Z m 12.79687,-5.5546875 v 8.12109374 h 0.75 V -3.5965703 h 1.32422 v -0.6210938 h -1.32422 v -3.1992187 z m -5.13281,0.796875 v 5.3085937 h 0.63281 c 1.52344,0 2.58984,-0.046875 3.84375,-0.2695312 l -0.0937,-0.6445313 c -1.18359,0.2226563 -2.21484,0.28125 -3.64453,0.28125 v -4.0664062 h 3.02344 v -0.609375 z m 8.69238,6.73828124 c 0.32813,0 0.59766,-0.24609375 0.59766,-0.62109375 0,-0.375 -0.26953,-0.62109379 -0.59766,-0.62109379 -0.32812,0 -0.58594,0.24609379 -0.58594,0.62109379 0,0.375 0.25782,0.62109375 0.58594,0.62109375 z m 0,0"
       style="fill:#000000;fill-opacity:1;fill-rule:nonzero;stroke:none"
       aria-label="1번과연결된정점을큐에넣는다."
       transform="matrix(1.3333333,0,0,1.3333333,305.02133,118.54933)" />
  </g>
</svg>
