<?xml version="1.0" encoding="UTF-8" standalone="no"?>
<!-- Created with Inkscape (http://www.inkscape.org/) -->

<svg
   version="1.1"
   id="svg1"
   width="524.89331"
   height="182.72"
   viewBox="0 0 524.89331 182.72"
   sodipodi:docname="3.pdf"
   xmlns:inkscape="http://www.inkscape.org/namespaces/inkscape"
   xmlns:sodipodi="http://sodipodi.sourceforge.net/DTD/sodipodi-0.dtd"
   xmlns="http://www.w3.org/2000/svg"
   xmlns:svg="http://www.w3.org/2000/svg">
  <defs
     id="defs1" />
  <sodipodi:namedview
     id="namedview1"
     pagecolor="#ffffff"
     bordercolor="#000000"
     borderopacity="0.25"
     inkscape:showpageshadow="2"
     inkscape:pageopacity="0.0"
     inkscape:pagecheckerboard="0"
     inkscape:deskcolor="#d1d1d1">
    <inkscape:page
       x="0"
       y="0"
       inkscape:label="1"
       id="page1"
       width="524.89331"
       height="182.72"
       margin="0"
       bleed="0" />
  </sodipodi:namedview>
  <g
     id="g1"
     inkscape:groupmode="layer"
     inkscape:label="1">
    <path
       id="path1"
       d="M 85.04042,89.29227 36.85092,46.77203"
       style="fill:none;stroke:#858585;stroke-width:0.54794;stroke-linecap:butt;stroke-linejoin:miter;stroke-miterlimit:10;stroke-dasharray:none;stroke-opacity:1"
       transform="matrix(1.3333333,0,0,-1.3333333,-18.912,156.41067)" />
    <path
       id="path2"
       d="M 85.04042,89.29227 133.2299,46.77203"
       style="fill:none;stroke:#858585;stroke-width:0.54794;stroke-linecap:butt;stroke-linejoin:miter;stroke-miterlimit:10;stroke-dasharray:none;stroke-opacity:1"
       transform="matrix(1.3333333,0,0,-1.3333333,-18.912,156.41067)" />
    <path
       id="path3"
       d="M 36.85092,46.77203 85.04042,2.83484"
       style="fill:none;stroke:#858585;stroke-width:0.54794;stroke-linecap:butt;stroke-linejoin:miter;stroke-miterlimit:10;stroke-dasharray:none;stroke-opacity:1"
       transform="matrix(1.3333333,0,0,-1.3333333,-18.912,156.41067)" />
    <path
       id="path4"
       d="M 133.2299,46.77203 85.04042,2.83484"
       style="fill:none;stroke:#858585;stroke-width:0.54794;stroke-linecap:butt;stroke-linejoin:miter;stroke-miterlimit:10;stroke-dasharray:none;stroke-opacity:1"
       transform="matrix(1.3333333,0,0,-1.3333333,-18.912,156.41067)" />
    <path
       id="path5"
       d="M 85.04042,89.29227 H 188.50609"
       style="fill:none;stroke:#858585;stroke-width:0.54794;stroke-linecap:butt;stroke-linejoin:miter;stroke-miterlimit:10;stroke-dasharray:none;stroke-opacity:1"
       transform="matrix(1.3333333,0,0,-1.3333333,-18.912,156.41067)" />
    <path
       id="path6"
       d="m 99.21382,89.29227 c 0,7.82785 -6.34555,14.1734 -14.1734,14.1734 -7.82785,0 -14.1734,-6.34555 -14.1734,-14.1734 0,-7.82785 6.34555,-14.1734 14.1734,-14.1734 7.82785,0 14.1734,6.34555 14.1734,14.1734 z"
       style="fill:#e0e0e0;fill-opacity:1;fill-rule:nonzero;stroke:#000000;stroke-width:0.84683;stroke-linecap:butt;stroke-linejoin:miter;stroke-miterlimit:10;stroke-dasharray:none;stroke-opacity:1"
       transform="matrix(1.3333333,0,0,-1.3333333,-18.912,156.41067)" />
    <path
       id="path7"
       d="M 0.78434375,8.90625e-4 H 4.3937188 V -0.67879687 H 3.0695 V -6.3858281 H 2.4484063 c -0.3632813,0.2109375 -0.7851563,0.3632812 -1.359375,0.46875 v 0.515625 h 1.171875 v 4.72265623 H 0.78434375 Z m 0,0"
       style="fill:#000000;fill-opacity:1;fill-rule:nonzero;stroke:none"
       aria-label="1"
       transform="matrix(1.3333333,0,0,1.3333333,91.157333,41.616)" />
    <path
       id="path8"
       d="m 51.02432,46.77203 c 0,7.82785 -6.34555,14.1734 -14.1734,14.1734 -7.82785,0 -14.17338,-6.34555 -14.17338,-14.1734 0,-7.82783 6.34553,-14.17338 14.17338,-14.17338 7.82785,0 14.1734,6.34555 14.1734,14.17338 z"
       style="fill:#b8b8b8;fill-opacity:1;fill-rule:nonzero;stroke:#000000;stroke-width:1.04608;stroke-linecap:butt;stroke-linejoin:miter;stroke-miterlimit:10;stroke-dasharray:none;stroke-opacity:1"
       transform="matrix(1.3333333,0,0,-1.3333333,-18.912,156.41067)" />
    <path
       id="path9"
       d="m 0.399125,-9.609375e-4 h 4.125 V -0.70408594 H 2.6725625 c -0.328125,0 -0.7382812,0.0351563 -1.078125,0.0585938 1.5117188,-1.58203126 2.625,-2.78906256 2.625,-3.99609366 0,-1.125 -0.75,-1.8632813 -1.921875,-1.8632813 -0.8320312,0 -1.40625,0.375 -1.93359375,0.9609375 l 0.46875,0.4570313 C 1.2077188,-5.5087734 1.66475,-5.8486172 2.1920938,-5.8486172 c 0.8203125,0 1.21875,0.5273438 1.21875,1.2539063 0,1.0429687 -1.0898438,2.1914062 -3.0117188,4.11328121 z m 0,0"
       style="fill:#000000;fill-opacity:1;fill-rule:nonzero;stroke:none"
       aria-label="2"
       transform="matrix(1.3333333,0,0,1.3333333,26.905333,98.388)" />
    <path
       id="path10"
       d="m 147.4033,46.77203 c 0,7.82785 -6.34555,14.1734 -14.1734,14.1734 -7.82785,0 -14.1734,-6.34555 -14.1734,-14.1734 0,-7.82783 6.34555,-14.17338 14.1734,-14.17338 7.82785,0 14.1734,6.34555 14.1734,14.17338 z"
       style="fill:#e0e0e0;fill-opacity:1;fill-rule:nonzero;stroke:#000000;stroke-width:0.84683;stroke-linecap:butt;stroke-linejoin:miter;stroke-miterlimit:10;stroke-dasharray:none;stroke-opacity:1"
       transform="matrix(1.3333333,0,0,-1.3333333,-18.912,156.41067)" />
    <path
       id="path11"
       d="m 2.3550859,0.1185625 c 1.171875,0 2.1210938,-0.6796875 2.1210938,-1.8164063 0,-0.8789062 -0.6210938,-1.453125 -1.3945313,-1.640625 v -0.035156 c 0.6914063,-0.2460938 1.171875,-0.7382813 1.171875,-1.5234375 0,-1.0195313 -0.8085937,-1.6054688 -1.921875,-1.6054688 -0.75,0 -1.33593746,0.3398438 -1.82812496,0.796875 l 0.43359375,0.515625 c 0.37500001,-0.3867187 0.83203121,-0.65625 1.37109371,-0.65625 0.6914063,0 1.1015625,0.3984375 1.1015625,1.0195313 0,0.6679687 -0.4570312,1.1835937 -1.8164062,1.1835937 v 0.6445313 c 1.5234375,0 2.0507812,0.5039062 2.0507812,1.265625 0,0.7265625 -0.5507812,1.171875 -1.3359375,1.171875 -0.75,0 -1.2421875,-0.36328125 -1.62890621,-0.75 l -0.421875,0.52734375 c 0.43359375,0.46875 1.07812501,0.90234375 2.09765621,0.90234355 z m 0,0"
       style="fill:#000000;fill-opacity:1;fill-rule:nonzero;stroke:none"
       aria-label="3"
       transform="matrix(1.3333333,0,0,1.3333333,155.41067,98.310667)" />
    <path
       id="path12"
       d="m 99.21382,2.83484 c 0,7.82785 -6.34555,14.1734 -14.1734,14.1734 -7.82785,0 -14.1734,-6.34555 -14.1734,-14.1734 0,-7.82784 6.34555,-14.17339 14.1734,-14.17339 7.82785,0 14.1734,6.34555 14.1734,14.17339 z"
       style="fill:#e0e0e0;fill-opacity:1;fill-rule:nonzero;stroke:#000000;stroke-width:0.84683;stroke-linecap:butt;stroke-linejoin:miter;stroke-miterlimit:10;stroke-dasharray:none;stroke-opacity:1"
       transform="matrix(1.3333333,0,0,-1.3333333,-18.912,156.41067)" />
    <path
       id="path13"
       d="M 3.0460625,8.984375e-4 H 3.8195 V -1.7686328 h 0.8789063 v -0.65625 H 3.8195 V -6.3858203 H 2.9171563 l -2.74218755,4.078125 v 0.5390625 H 3.0460625 Z m 0,-2.4257812375 h -2.015625 l 1.5,-2.1796875 c 0.1875,-0.328125 0.3632813,-0.5976563 0.5273438,-0.9023438 h 0.035156 c -0.023437,0.328125 -0.046875,0.890625 -0.046875,1.21875 z m 0,0"
       style="fill:#000000;fill-opacity:1;fill-rule:nonzero;stroke:none"
       aria-label="4"
       transform="matrix(1.3333333,0,0,1.3333333,91.157333,156.89333)" />
    <path
       id="path14"
       d="m 202.67949,89.29227 c 0,7.82785 -6.34555,14.1734 -14.1734,14.1734 -7.82785,0 -14.1734,-6.34555 -14.1734,-14.1734 0,-7.82785 6.34555,-14.1734 14.1734,-14.1734 7.82785,0 14.1734,6.34555 14.1734,14.1734 z"
       style="fill:#e0e0e0;fill-opacity:1;fill-rule:nonzero;stroke:#000000;stroke-width:0.84683;stroke-linecap:butt;stroke-linejoin:miter;stroke-miterlimit:10;stroke-dasharray:none;stroke-opacity:1"
       transform="matrix(1.3333333,0,0,-1.3333333,-18.912,156.41067)" />
    <path
       id="path15"
       d="m 2.3447109,0.11748437 c 1.1132813,0 2.15625,-0.78515625 2.15625,-2.15624997 0,-1.3828125 -0.890625,-2.0039063 -1.9804687,-2.0039063 -0.3984375,0 -0.6914063,0.09375 -0.984375,0.2578125 l 0.1640625,-1.8984375 h 2.4726562 v -0.703125 H 0.98533594 l -0.2109375,3.0703125 0.43359376,0.28125 c 0.375,-0.2578125 0.65625,-0.3984375 1.1015625,-0.3984375 0.8203125,0 1.359375,0.5273438 1.359375,1.4179688 0,0.890625 -0.6210938,1.45312497 -1.3945313,1.45312497 -0.7617187,0 -1.2539062,-0.3515625 -1.61718746,-0.72656247 l -0.41015625,0.53906247 c 0.4453125,0.43359375 1.06640621,0.8671875 2.09765621,0.8671875 z m 0,0"
       style="fill:#000000;fill-opacity:1;fill-rule:nonzero;stroke:none"
       aria-label="5"
       transform="matrix(1.3333333,0,0,1.3333333,229.112,41.538667)" />
    <path
       id="path16"
       d="m 226.77448,-5.09413 v 112.23695 c 0,1.10047 0.89207,1.99256 1.99255,1.99256 h 168.9306 c 1.10047,0 1.99256,-0.89209 1.99256,-1.99256 V -5.09413 c 0,-1.10047 -0.89209,-1.99256 -1.99256,-1.99256 h -168.9306 c -1.10048,0 -1.99255,0.89209 -1.99255,1.99256 z"
       style="fill:#fcfcfc;fill-opacity:1;fill-rule:nonzero;stroke:#c7c7c7;stroke-width:0.3985;stroke-linecap:butt;stroke-linejoin:miter;stroke-miterlimit:10;stroke-dasharray:none;stroke-opacity:1"
       transform="matrix(1.3333333,0,0,-1.3333333,-18.912,156.41067)" />
    <path
       id="path17"
       d="m 4.8274219,1.6056484 c 0,-0.328125 -0.2460938,-0.3398437 -0.421875,-0.3398437 H 4.0539844 v -4.7929688 c 0,-0.1992187 -0.011719,-0.421875 -0.375,-0.421875 -0.3046875,0 -0.3632813,0.1054688 -0.375,0.3867188 -0.234375,-0.2226563 -0.5742188,-0.3867188 -1.0195313,-0.3867188 -1.0078125,0 -1.93359373,0.84375 -1.93359373,2.0039063 0,1.12499999 0.85546873,2.00390624 1.83984373,2.00390624 0.515625,0 0.890625,-0.234375 1.1132813,-0.43359375 V 1.2658047 H 2.9524219 c -0.1640625,0 -0.421875,0.011719 -0.421875,0.328125 0,0.328125 0.2460937,0.3398437 0.421875,0.3398437 h 1.453125 c 0.1640625,0 0.421875,-0.011719 0.421875,-0.328125 z m -1.5234375,-3.375 c 0,0.46875 -0.4101563,1.14843754 -1.078125,1.14843754 -0.609375,0 -1.1484375,-0.58593754 -1.1484375,-1.32421874 0,-0.7617188 0.5859375,-1.3359375 1.2421875,-1.3359375 0.609375,0 0.984375,0.6328125 0.984375,1.171875 z m 5.9970703,1.42968754 c 0,-0.328125 -0.2695313,-0.328125 -0.4101563,-0.328125 H 8.5744922 V -3.4802891 c 0,-0.3164062 -0.070312,-0.4335937 -0.421875,-0.4335937 H 7.5080859 c -0.1640625,0 -0.421875,0.023437 -0.421875,0.3515625 0,0.3164062 0.2695313,0.328125 0.421875,0.328125 h 0.3164063 v 1.7929687 c 0,0.72656254 -0.65625,0.82031254 -0.9257813,0.82031254 -0.609375,0 -0.609375,-0.24609375 -0.609375,-0.50390624 v -2.3554688 c 0,-0.3164062 -0.070312,-0.4335937 -0.421875,-0.4335937 H 5.2229297 c -0.1640625,0 -0.421875,0.023437 -0.421875,0.3515625 0,0.3164062 0.2695312,0.328125 0.421875,0.328125 h 0.3164062 v 2.1679687 c 0,0.89062504 0.6328125,1.12500004 1.3242188,1.12500004 0.328125,0 0.6679687,-0.08203125 0.9726562,-0.28125 0.058594,0.2109375 0.2460938,0.2226562475 0.4101563,0.2226562475 h 0.6328125 c 0.1757812,0 0.421875,-0.0117187475 0.421875,-0.3398437475 z M 13.598906,-1.0193516 c 0,-0.3046875 -0.316406,-0.3164062 -0.375,-0.3164062 -0.199219,0 -0.28125,0.035156 -0.351562,0.234375 -0.1875,0.41015624 -0.621094,0.48046874 -0.84375,0.48046874 -0.609375,0 -1.207032,-0.38671874 -1.371094,-1.04296874 h 2.519531 c 0.222656,0 0.421875,0 0.421875,-0.3984375 0,-1.03125 -0.585937,-1.921875 -1.757812,-1.921875 -1.078125,0 -1.9570315,0.9140625 -1.9570315,2.015625 0,1.11328124 0.9140625,2.02734374 2.0742185,2.02734374 1.21875,0 1.640625,-0.84375 1.640625,-1.07812504 z m -0.773437,-1.3125 h -2.15625 c 0.140625,-0.5625 0.609375,-0.9726562 1.171875,-0.9726562 0.410156,0 0.890625,0.1992187 0.984375,0.9726562 z m 5.891601,1.99218754 c 0,-0.328125 -0.269531,-0.328125 -0.410156,-0.328125 H 17.990508 V -3.4802891 c 0,-0.3164062 -0.07031,-0.4335937 -0.421875,-0.4335937 h -0.644531 c -0.164063,0 -0.421875,0.023437 -0.421875,0.3515625 0,0.3164062 0.269531,0.328125 0.421875,0.328125 h 0.316406 v 1.7929687 c 0,0.72656254 -0.65625,0.82031254 -0.925781,0.82031254 -0.609375,0 -0.609375,-0.24609375 -0.609375,-0.50390624 v -2.3554688 c 0,-0.3164062 -0.07031,-0.4335937 -0.421875,-0.4335937 h -0.644532 c -0.164062,0 -0.421875,0.023437 -0.421875,0.3515625 0,0.3164062 0.269532,0.328125 0.421875,0.328125 h 0.316407 v 2.1679687 c 0,0.89062504 0.632812,1.12500004 1.324218,1.12500004 0.328125,0 0.667969,-0.08203125 0.972657,-0.28125 0.05859,0.2109375 0.246093,0.2226562475 0.410156,0.2226562475 h 0.632812 c 0.175782,0 0.421875,-0.0117187475 0.421875,-0.3398437475 z m 4.294922,-0.67968754 c 0,-0.3046875 -0.316406,-0.3164062 -0.375,-0.3164062 -0.199219,0 -0.28125,0.035156 -0.351562,0.234375 -0.1875,0.41015624 -0.621094,0.48046874 -0.84375,0.48046874 -0.609375,0 -1.207032,-0.38671874 -1.371094,-1.04296874 h 2.519531 c 0.222656,0 0.421875,0 0.421875,-0.3984375 0,-1.03125 -0.585937,-1.921875 -1.757812,-1.921875 -1.078125,0 -1.957032,0.9140625 -1.957032,2.015625 0,1.11328124 0.914063,2.02734374 2.074219,2.02734374 1.21875,0 1.640625,-0.84375 1.640625,-1.07812504 z m -0.773437,-1.3125 h -2.15625 c 0.140625,-0.5625 0.609375,-0.9726562 1.171875,-0.9726562 0.410156,0 0.890625,0.1992187 0.984375,0.9726562 z m 0,0"
       style="fill:#000000;fill-opacity:1;fill-rule:nonzero;stroke:none"
       aria-label="queue"
       transform="matrix(1.3333333,0,0,1.3333333,383.04,27.378667)" />
    <path
       id="path18"
       d="m 245.19972,55.27646 h 28.34679 v 22.67743 h -28.34679 z"
       style="fill:#e0e0e0;fill-opacity:1;fill-rule:nonzero;stroke:#000000;stroke-width:0.79701;stroke-linecap:butt;stroke-linejoin:miter;stroke-miterlimit:10;stroke-dasharray:none;stroke-opacity:1"
       transform="matrix(1.3333333,0,0,-1.3333333,-18.912,156.41067)" />
    <path
       id="path19"
       d="m 2.3556406,0.11685937 c 1.171875,0 2.1210938,-0.6796875 2.1210938,-1.81640627 0,-0.8789062 -0.6210938,-1.453125 -1.3945313,-1.640625 v -0.035156 c 0.6914063,-0.2460938 1.171875,-0.7382813 1.171875,-1.5234375 0,-1.0195313 -0.8085937,-1.6054688 -1.921875,-1.6054688 -0.75,0 -1.33593748,0.3398438 -1.82812498,0.796875 l 0.43359375,0.515625 c 0.37500003,-0.3867187 0.83203123,-0.65625 1.37109373,-0.65625 0.6914063,0 1.1015625,0.3984375 1.1015625,1.0195313 0,0.6679687 -0.4570312,1.1835937 -1.8164062,1.1835937 v 0.6445313 c 1.5234375,0 2.0507812,0.5039062 2.0507812,1.265625 0,0.7265625 -0.5507812,1.17187497 -1.3359375,1.17187497 -0.75,0 -1.2421875,-0.36328125 -1.62890623,-0.74999997 l -0.421875,0.52734372 c 0.43359375,0.46875 1.07812503,0.90234375 2.09765623,0.90234355 z m 0,0"
       style="fill:#000000;fill-opacity:1;fill-rule:nonzero;stroke:none"
       aria-label="3"
       transform="matrix(1.3333333,0,0,1.3333333,323.60133,71.852)" />
    <path
       id="path20"
       d="m 279.21625,55.27646 h 28.34679 v 22.67743 h -28.34679 z"
       style="fill:#ffffff;fill-opacity:1;fill-rule:nonzero;stroke:#666666;stroke-width:0.49814;stroke-linecap:butt;stroke-linejoin:miter;stroke-miterlimit:10;stroke-dasharray:none;stroke-opacity:1"
       transform="matrix(1.3333333,0,0,-1.3333333,-18.912,156.41067)" />
    <path
       id="path21"
       d="m 2.3445234,0.11626563 c 1.1132813,0 2.15625,-0.78515625 2.15625,-2.15625003 0,-1.3828125 -0.890625,-2.0039062 -1.9804687,-2.0039062 -0.3984375,0 -0.6914063,0.09375 -0.984375,0.2578125 l 0.1640625,-1.8984375 h 2.4726562 v -0.703125 H 0.98514844 l -0.2109375,3.0703125 0.43359376,0.28125 c 0.375,-0.2578125 0.65625,-0.3984375 1.1015625,-0.3984375 0.8203125,0 1.359375,0.5273437 1.359375,1.4179687 0,0.890625 -0.6210938,1.45312503 -1.3945313,1.45312503 -0.7617187,0 -1.2539062,-0.3515625 -1.61718746,-0.72656253 l -0.41015625,0.53906253 c 0.4453125,0.43359375 1.06640621,0.8671875 2.09765621,0.8671875 z m 0,0"
       style="fill:#000000;fill-opacity:1;fill-rule:nonzero;stroke:none"
       aria-label="5"
       transform="matrix(1.3333333,0,0,1.3333333,368.956,71.774667)" />
    <path
       id="path22"
       d="m 313.23233,55.27646 h 28.34679 v 22.67743 h -28.34679 z"
       style="fill:#ffffff;fill-opacity:1;fill-rule:nonzero;stroke:#666666;stroke-width:0.49814;stroke-linecap:butt;stroke-linejoin:miter;stroke-miterlimit:10;stroke-dasharray:none;stroke-opacity:1"
       transform="matrix(1.3333333,0,0,-1.3333333,-18.912,156.41067)" />
    <path
       id="path23"
       d="M 3.04725,-3.28125e-4 H 3.8206875 V -1.7698594 h 0.8789063 v -0.65625 H 3.8206875 V -6.3870469 H 2.9183438 l -2.74218755,4.078125 v 0.5390625 H 3.04725 Z m 0,-2.425781275 H 1.031625 l 1.5,-2.1796875 c 0.1875,-0.328125 0.3632813,-0.5976562 0.5273438,-0.9023437 h 0.035156 c -0.023437,0.328125 -0.046875,0.890625 -0.046875,1.21875 z m 0,0"
       style="fill:#000000;fill-opacity:1;fill-rule:nonzero;stroke:none"
       aria-label="4"
       transform="matrix(1.3333333,0,0,1.3333333,414.312,71.852)" />
    <path
       id="path24"
       d="m 3.0934141,-3.8441094 c 0,-0.4570312 -0.5859375,-0.4570312 -0.703125,-0.4570312 -0.5390625,0 -1.1132813,0.2929687 -1.1132813,0.9492187 v 0.3515625 H 0.60903906 c -0.10546875,0 -0.3046875,0 -0.3046875,0.2226563 0,0.234375 0.1875,0.234375 0.29296875,0.234375 H 1.2770078 v 2.08593748 H 0.59732031 c -0.09375,0 -0.3046875,0 -0.3046875,0.22265625 0,0.234374995 0.2109375,0.234374995 0.3046875,0.234374995 H 2.4840391 c 0.09375,0 0.3046875,0 0.3046875,-0.234374995 0,-0.22265625 -0.2109375,-0.22265625 -0.3046875,-0.22265625 H 1.8043516 V -2.5433281 h 0.8320312 c 0.1054688,0 0.2929688,0 0.2929688,-0.234375 0,-0.2226563 -0.1875,-0.2226563 -0.2929688,-0.2226563 H 1.8043516 v -0.328125 c 0,-0.4335937 0.3398437,-0.5039062 0.6328125,-0.5039062 0.011719,0.2226562 0.1992187,0.3164062 0.328125,0.3164062 0.140625,0 0.328125,-0.1054687 0.328125,-0.328125 z m 4.0429687,1.265625 c 0,-0.1757812 -0.1171875,-0.4570312 -0.6679687,-0.4570312 -0.6445313,0 -1.0195313,0.3632812 -1.1953125,0.5390625 v -0.2109375 c 0,-0.234375 -0.058594,-0.2929688 -0.2929688,-0.2929688 H 4.2184141 c -0.09375,0 -0.3046875,0 -0.3046875,0.2226563 0,0.234375 0.2109375,0.234375 0.3046875,0.234375 h 0.5273437 v 2.08593748 H 4.2184141 c -0.09375,0 -0.3046875,0 -0.3046875,0.22265625 0,0.234374995 0.2109375,0.234374995 0.3046875,0.234374995 h 1.8046875 c 0.1054687,0 0.2929687,0 0.2929687,-0.234374995 0,-0.22265625 -0.1875,-0.22265625 -0.2929687,-0.22265625 h -0.75 V -1.2777031 c 0,-0.7617188 0.5507812,-1.3007813 1.2304687,-1.3007813 0.011719,0.2695313 0.1992188,0.328125 0.3164063,0.328125 0.1757812,0 0.3164062,-0.1289062 0.3164062,-0.328125 z m 3.5859372,1.0664063 c 0,-0.84375 -0.65625,-1.546875 -1.4648434,-1.546875 -0.8085938,0 -1.4648438,0.703125 -1.4648438,1.546875 0,0.87890623 0.6679688,1.54687498 1.4648438,1.54687498 0.7968754,0 1.4648434,-0.66796875 1.4648434,-1.54687498 z m -0.539062,-0.046875 c 0,0.63281248 -0.4218752,1.13671873 -0.9257814,1.13671873 -0.5039063,0 -0.9375,-0.50390625 -0.9375,-1.13671873 0,-0.5976563 0.4335937,-1.0429688 0.9375,-1.0429688 0.4921875,0 0.9257814,0.4453125 0.9257814,1.0429688 z m 4.546875,1.32421873 c 0,-0.22265625 -0.1875,-0.22265625 -0.304688,-0.22265625 h -0.28125 V -2.0277031 c 0,-0.703125 -0.351562,-1.0078125 -0.925781,-1.0078125 -0.515625,0 -0.84375,0.2695312 -0.914062,0.3398437 0,-0.2109375 -0.02344,-0.3046875 -0.304688,-0.3046875 h -0.515625 c -0.105469,0 -0.292969,0 -0.292969,0.2226563 0,0.234375 0.1875,0.234375 0.292969,0.234375 h 0.292969 v 2.08593748 h -0.292969 c -0.105469,0 -0.292969,0 -0.292969,0.22265625 0,0.234374995 0.1875,0.234374995 0.292969,0.234374995 h 1.101563 c 0.117187,0 0.304687,0 0.304687,-0.234374995 0,-0.22265625 -0.1875,-0.22265625 -0.304687,-0.22265625 h -0.28125 V -1.6644219 c 0,-0.6679687 0.539062,-0.9140625 0.878906,-0.9140625 0.328125,0 0.433594,0.1523438 0.433594,0.5625 v 1.55859378 h -0.234375 c -0.105469,0 -0.304688,0 -0.304688,0.22265625 0,0.234374995 0.199219,0.234374995 0.304688,0.234374995 h 1.042968 c 0.117188,0 0.304688,0 0.304688,-0.234374995 z m 3.246094,-0.66796875 c 0,-0.24609378 -0.199219,-0.24609378 -0.257813,-0.24609378 -0.1875,0 -0.257812,0.070312 -0.269531,0.24609378 -0.01172,0.29296875 -0.269531,0.48046875 -0.527344,0.48046875 -0.515625,0 -0.515625,-0.38671875 -0.515625,-0.55078125 V -2.5433281 h 1.113281 c 0.105469,0 0.292969,0 0.292969,-0.234375 0,-0.2226563 -0.1875,-0.2226563 -0.292969,-0.2226563 h -1.113281 v -0.5625 c 0,-0.1289062 0,-0.3046875 -0.269531,-0.3046875 -0.269531,0 -0.269531,0.1757813 -0.269531,0.3046875 v 0.5625 h -0.574219 c -0.105469,0 -0.304688,0 -0.304688,0.2226563 0,0.234375 0.199219,0.234375 0.292969,0.234375 h 0.585938 v 1.58203123 c 0,0.76171875 0.539062,0.99609375 1.019531,0.99609375 0.632812,0 1.089844,-0.4453125 1.089844,-0.9375 z m 0,0"
       style="fill:#595959;fill-opacity:1;fill-rule:nonzero;stroke:none"
       aria-label="front"
       transform="matrix(1.3333333,0,0,1.3333333,314.57467,94.242667)" />
    <path
       id="path25"
       d="m 3.4574609,-1.5126562 c 0,-0.84375 -0.6210937,-1.5234375 -1.3945312,-1.5234375 -0.328125,0 -0.6210938,0.1171875 -0.8671875,0.3046875 V -3.961875 c 0,-0.234375 -0.070312,-0.3046875 -0.30468751,-0.3046875 h -0.515625 c -0.10546875,0 -0.29296875,0 -0.29296875,0.234375 0,0.234375 0.1875,0.234375 0.29296875,0.234375 h 0.29296875 v 3.4921875 c 0,0.12890625 0,0.3046875 0.2578125,0.3046875 0.26953126,0 0.26953126,-0.1640625 0.26953126,-0.29296875 0.2109375,0.2109375 0.4804687,0.328125 0.796875,0.328125 0.7734375,0 1.4648437,-0.65625 1.4648437,-1.54687495 z m -0.5273437,0 c 0,0.6445312 -0.4804688,1.0898437 -0.9609375,1.0898437 -0.515625,0 -0.7734375,-0.5859375 -0.7734375,-0.9257812 v -0.4804688 c 0,-0.4101562 0.4101562,-0.75 0.8320312,-0.75 0.4921875,0 0.9023438,0.46875 0.9023438,1.0664063 z m 4.4296875,1.2773437 c 0,-0.22265625 -0.1875,-0.22265625 -0.2929688,-0.22265625 -0.2578125,0 -0.328125,-0.0234375 -0.3984375,-0.046875 V -1.9696875 c 0,-0.5742187 -0.4453125,-1.0898437 -1.40625,-1.0898437 -0.328125,0 -1.0429687,0 -1.0429687,0.5390625 0,0.1875 0.1289062,0.3398437 0.3398437,0.3398437 0.1289063,0 0.328125,-0.082031 0.3398438,-0.3398437 0,-0.058594 0,-0.058594 0.09375,-0.070312 0.082031,-0.011719 0.1992187,-0.011719 0.28125,-0.011719 0.5742187,0 0.8671875,0.2578125 0.8671875,0.6445313 -0.7382813,0 -2.0976563,0.1757812 -2.0976563,1.03124995 0,0.515625 0.4804688,0.9609375 1.1835938,0.9609375 0.5507812,0 0.9023437,-0.2109375 0.9960937,-0.26953125 0.140625,0.2109375 0.4335938,0.234375 0.7734375,0.234375 0.1875,0 0.3632813,0 0.3632813,-0.2343753 z m -1.21875,-0.76171875 c 0,0.140625 0,0.3046875 -0.2695313,0.43359375 -0.2460937,0.12890625 -0.515625,0.140625 -0.609375,0.140625 -0.4101562,0 -0.6914062,-0.24609375 -0.6914062,-0.50390625 0,-0.37499995 0.7617187,-0.58593745 1.5703125,-0.58593745 z M 10.68793,-0.7509375 c 0,-0.15234375 -0.117188,-0.22265625 -0.269532,-0.22265625 -0.09375,0 -0.199218,0 -0.257812,0.1640625 -0.128906,0.3046875 -0.3984376,0.38671875 -0.6562501,0.38671875 -0.5742187,0 -1.0664062,-0.48046875 -1.0664062,-1.0898437 0,-0.3515625 0.2226562,-1.0898438 1.1132812,-1.0898438 0.1992188,0 0.3164063,0.011719 0.3515625,0.023437 0.023437,0 0.023437,0.011719 0.023437,0.070312 0.023437,0.2109375 0.1640626,0.328125 0.3398446,0.328125 0.210937,0 0.339843,-0.1523437 0.339843,-0.3398437 0,-0.5390625 -0.7265626,-0.5390625 -1.0429688,-0.5390625 -1.2421875,0 -1.6523438,0.9609375 -1.6523438,1.546875 0,0.84374995 0.6679688,1.54687495 1.5585938,1.54687495 0.9960938,0 1.2187508,-0.66796875 1.2187508,-0.78515625 z m 3.996093,0.515625 c 0,-0.22265625 -0.1875,-0.22265625 -0.292968,-0.22265625 H 14.180117 L 13.172305,-1.7470312 v -0.023437 l 0.832031,-0.7734375 h 0.234375 c 0.105469,0 0.292969,0 0.292969,-0.234375 0,-0.2226563 -0.1875,-0.2226563 -0.292969,-0.2226563 h -1.066406 c -0.117188,0 -0.304688,0 -0.304688,0.2226563 0,0.234375 0.1875,0.234375 0.304688,0.234375 h 0.1875 l -1.054688,0.984375 V -3.961875 c 0,-0.234375 -0.07031,-0.3046875 -0.304687,-0.3046875 h -0.445313 c -0.105469,0 -0.304687,0 -0.304687,0.234375 0,0.234375 0.210937,0.234375 0.304687,0.234375 h 0.316406 v 3.33984375 h -0.316406 c -0.105469,0 -0.304687,0 -0.304687,0.22265625 0,0.234375 0.210937,0.234375 0.304687,0.234375 h 1.066406 c 0.09375,0 0.304688,0 0.304688,-0.234375 0,-0.22265625 -0.210938,-0.22265625 -0.304688,-0.22265625 h -0.316406 v -0.515625 L 12.84418,-1.4775 l 0.785156,1.01953125 c -0.175781,0 -0.363281,0 -0.363281,0.22265625 0,0.234375 0.210937,0.234375 0.304687,0.234375 h 0.820313 c 0.105468,0 0.292968,0 0.292968,-0.234375 z m 0,0"
       style="fill:#595959;fill-opacity:1;fill-rule:nonzero;stroke:none"
       aria-label="back"
       transform="matrix(1.3333333,0,0,1.3333333,407.75333,94.22)" />
    <g
       id="g25"
       aria-label="방문순서:1-&gt;2"
       transform="matrix(1.3333333,0,0,1.3333333,305.15467,137.45467)">
      <path
         id="path26"
         d="m 4.1847812,-2.4386563 c -1.7226562,0 -2.8125,0.609375 -2.8125,1.61718755 0,1.03125 1.0898438,1.62890625 2.8125,1.62890625 1.7226563,0 2.8125,-0.59765625 2.8125,-1.62890625 0,-1.00781255 -1.0898437,-1.61718755 -2.8125,-1.61718755 z m 0,0.9375 c 1.0664063,0 1.6289063,0.2226563 1.6289063,0.67968755 0,0.48046875 -0.5625,0.703125 -1.6289063,0.703125 -1.0546875,0 -1.6171875,-0.22265625 -1.6171875,-0.703125 0,-0.45703125 0.5625,-0.67968755 1.6171875,-0.67968755 z m -3.58593745,-5.484375 v 3.9140625 H 4.5949375 V -6.9855313 H 3.4113437 v 1.03125 H 1.7824375 v -1.03125 z m 1.18359375,1.9453125 h 1.6289062 v 1.03125 H 1.7824375 Z m 3.9257812,-2.4609375 v 4.8867188 H 6.8918125 V -4.5949063 H 7.993375 v -0.984375 H 6.8918125 v -1.921875 z m 3.8173829,0.3398438 v 3.09375 h 5.6484374 v -3.09375 z m 4.4648434,0.9257812 v 1.21875 h -3.28125 v -1.21875 z m -5.3789059,2.8242188 v 0.9492187 h 3.2578129 v 1.3945313 h 1.195312 v -1.3945313 h 3.058594 v -0.9492187 z m 0.8671875,1.640625 v 2.42578125 h 5.8125004 v -0.9609375 H 10.674039 V -1.7706875 Z m 12.5507814,-5.53125 v 0.2695312 c 0,0.9375 -0.925781,1.9570313 -2.765625,2.2148438 l 0.445312,0.9375 C 21.103727,-4.091 22.123258,-4.7355313 22.650602,-5.591 c 0.515625,0.84375 1.535156,1.4765625 2.917968,1.6757812 l 0.457032,-0.9140625 c -1.839844,-0.2695312 -2.777344,-1.2890625 -2.777344,-2.203125 v -0.2695312 z m -3.140625,3.8789062 v 0.9375 h 3.257812 V -1.091 h 1.195313 v -1.3945313 h 3.058594 v -0.9375 z m 0.867187,1.640625 v 2.43750005 h 5.8125 v -0.9609375 H 20.951383 V -1.7824063 Z m 13.157227,-5.7421875 v 2.6132813 h -1.582031 v 0.9609375 h 1.582031 v 4.7578125 h 1.195312 v -8.3320313 z m -3.84375,0.6445313 v 1.21875 c 0,1.5703125 -0.632813,3.1757812 -2.050781,3.8320312 l 0.75,0.9492188 c 0.925781,-0.4570313 1.546875,-1.3242188 1.898437,-2.390625 0.339844,0.9960937 0.949219,1.8046875 1.851563,2.2617187 l 0.726562,-0.9609375 c -1.382812,-0.609375 -1.980469,-2.1328125 -1.980469,-3.6914062 v -1.21875 z m 0,0"
         style="fill:#000000;fill-opacity:1;fill-rule:nonzero;stroke:none" />
      <path
         id="path27"
         d="m 36.721891,-3.4933438 c 0.328125,0 0.597656,-0.2578125 0.597656,-0.6328125 0,-0.3632812 -0.269531,-0.6210937 -0.597656,-0.6210937 -0.328125,0 -0.585938,0.2578125 -0.585938,0.6210937 0,0.375 0.257813,0.6328125 0.585938,0.6328125 z m 0,3.60937505 c 0.328125,0 0.597656,-0.24609375 0.597656,-0.62109375 0,-0.375 -0.269531,-0.6210938 -0.597656,-0.6210938 -0.328125,0 -0.585938,0.2460938 -0.585938,0.6210938 0,0.375 0.257813,0.62109375 0.585938,0.62109375 z m 0,0"
         style="fill:#000000;fill-opacity:1;fill-rule:nonzero;stroke:none" />
      <path
         id="path28"
         d="m 44.634977,-0.28240625 c 0,-0.3046875 -0.222657,-0.3046875 -0.375,-0.3046875 H 43.463102 V -5.2042813 c 0,-0.1289062 0,-0.375 -0.28125,-0.375 -0.152344,0 -0.222657,0.082031 -0.28125,0.1992188 -0.28125,0.6328125 -0.632813,0.8671875 -0.996094,0.9023437 -0.128906,0 -0.328125,0.023437 -0.328125,0.2929688 0,0.1757812 0.09375,0.28125 0.316406,0.28125 0.351563,0 0.703125,-0.1875 0.914063,-0.3632813 v 3.67968755 h -0.796875 c -0.152344,0 -0.386719,0 -0.386719,0.3046875 0,0.28125 0.246094,0.28125 0.386719,0.28125 h 2.25 c 0.140625,0 0.375,0 0.375,-0.28125 z M 54.259,-2.731625 c 0,-0.3398438 -0.328125,-0.3398438 -0.433594,-0.3398438 h -2.824219 c -0.09375,0 -0.433593,0 -0.433593,0.328125 0,0.3398438 0.328125,0.3398438 0.433593,0.3398438 h 2.824219 c 0.09375,0 0.433594,0 0.433594,-0.328125 z m 4.708008,-0.011719 c 0,-0.1757812 -0.128906,-0.2578125 -0.199219,-0.3046875 L 55.75607,-4.981625 c -0.05859,-0.023437 -0.140625,-0.035156 -0.140625,-0.035156 -0.164062,0 -0.339843,0.140625 -0.339843,0.3398438 0,0.1875 0.117187,0.2695312 0.199218,0.328125 l 2.53125,1.6054687 -2.625,1.6875 c -0.03516,0.023437 -0.105468,0.0820313 -0.105468,0.2460938 0,0.22265625 0.199218,0.33984375 0.328125,0.33984375 0.04687,0 0.09375,-0.0117188 0.140625,-0.0351562 L 58.75607,-2.4269371 c 0.117188,-0.070312 0.210938,-0.140625 0.210938,-0.3164069 z m 9.451172,2.36718755 v -0.2578125 c 0,-0.17578125 0,-0.37500005 -0.328125,-0.37500005 -0.339844,0 -0.339844,0.18750005 -0.339844,0.42187505 H 65.734586 C 66.215055,-0.99725 67.222867,-1.794125 67.445523,-2.0050625 67.773648,-2.3214688 68.41818,-2.919125 68.41818,-3.80975 c 0,-1.0664063 -0.890625,-1.7695313 -2.003907,-1.7695313 -1.042968,0 -1.757812,0.7148438 -1.757812,1.4765625 0,0.3632813 0.28125,0.4570313 0.421875,0.4570313 0.175781,0 0.410156,-0.1523438 0.410156,-0.421875 0,-0.1875 -0.07031,-0.2578125 -0.117187,-0.3046875 0.152343,-0.3867188 0.550781,-0.6210938 1.007812,-0.6210938 0.714844,0 1.371094,0.4101563 1.371094,1.1835938 0,0.6210937 -0.480469,1.1601562 -0.832031,1.4648437 l -2.132813,1.7929688 c -0.07031,0.0585937 -0.128906,0.1171875 -0.128906,0.2578125 0,0.29296875 0.234375,0.29296875 0.386719,0.29296875 h 3 c 0.292968,0 0.375,-0.0703125 0.375,-0.3750002 z m 0,0"
         style="fill:#000000;fill-opacity:1;fill-rule:nonzero;stroke:none" />
    </g>
    <path
       id="path29"
       d="m 0.399625,8.59375e-5 h 4.125 V -0.70303906 H 2.6730625 c -0.328125,0 -0.7382813,0.0351563 -1.078125,0.0585938 1.5117187,-1.58203134 2.625,-2.78906254 2.625,-3.99609374 0,-1.125 -0.75,-1.8632813 -1.921875,-1.8632813 -0.8320313,0 -1.40625,0.375 -1.93359375,0.9609375 l 0.46875,0.4570313 C 1.2082187,-5.5077266 1.66525,-5.8475703 2.1925937,-5.8475703 c 0.8203125,0 1.21875,0.5273437 1.21875,1.2539062 0,1.0429688 -1.0898437,2.1914063 -3.0117187,4.11328129 z M 6.9972812,-4.8631953 h 2.1914063 v 1.4765625 H 6.9972812 Z M 6.259,-6.8671016 v 4.078125 h 3.6679687 v -1.734375 H 11.79025 v 3.1171875 h 0.738281 v -6 H 11.79025 v 2.2734375 H 9.9269687 v -1.734375 H 9.1886875 v 1.4296875 H 6.9972812 v -1.4296875 z m 1.0664062,4.875 v 2.50781254 h 5.3906248 v -0.609375 H 8.0636875 V -1.9921016 Z M 17.766812,-7.2655391 c -1.792968,0 -2.847656,0.4921875 -2.847656,1.3945313 0,0.9023437 1.054688,1.40625 2.847656,1.40625 1.792969,0 2.859375,-0.5039063 2.859375,-1.40625 0,-0.9023438 -1.066406,-1.3945313 -2.859375,-1.3945313 z m 0,0.5507813 c 1.335938,0 2.097657,0.3164062 2.097657,0.84375 0,0.5507812 -0.761719,0.84375 -2.097657,0.84375 -1.3125,0 -2.074218,-0.2929688 -2.074218,-0.84375 0,-0.5273438 0.761718,-0.84375 2.074218,-0.84375 z m -3.65625,2.8007812 v 0.5976563 h 7.324219 v -0.5976563 z m 0.914063,3.93750004 v 0.5859375 h 5.71875 v -0.5859375 h -5.003906 v -0.8203125 h 4.757812 V -2.6249141 h -5.496094 v 0.5625 h 4.769532 v 0.7148438 H 15.024625 Z M 27.039273,-6.5389766 v 0.6210938 h 1.253907 c -0.05859,1.6992187 -0.421875,3.4804687 -1.675782,4.9101562 l 0.609375,0.42187504 c 0.773438,-0.92578124 1.21875,-1.98046874 1.476563,-3.04687504 h 1.570312 v 4.33593754 h 0.726563 V -7.4178828 h -0.726563 v 3.1757812 h -1.453125 c 0.140625,-0.7734375 0.175782,-1.546875 0.175782,-2.296875 z m -2.449218,0 v 0.6210938 h 1.511718 c -0.09375,1.6289062 -0.5625,3.1171875 -1.769531,4.3710937 l 0.597656,0.421875 c 1.453125,-1.5585937 1.875,-3.4570312 1.875,-5.4140625 z m 12.339843,-0.6914062 v 7.51171874 h 0.703125 V -3.4921016 h 1.136719 v 4.19531254 h 0.714844 V -7.4178828 h -0.714844 v 3.3046875 h -1.136719 v -3.1171875 z m -3.914062,5.1796875 v 0.65625 h 0.515625 c 0.867187,0 1.792969,-0.058594 2.90625,-0.2695313 l -0.09375,-0.6445312 c -0.949219,0.1875 -1.804688,0.2460937 -2.589844,0.2578125 v -4.3828125 h -0.738281 z m 8.633789,-4.546875 v 0.609375 h 4.933594 v 0.1875 c 0,0.9726562 0,2.1210937 -0.304688,3.6679687 l 0.75,0.09375 C 47.3215,-3.6796016 47.3215,-4.7928828 47.3215,-5.8006953 v -0.796875 z m 2.074219,2.6484375 v 2.8945312 h -2.859375 v 0.62109379 h 7.324218 V -1.0546016 H 44.450406 V -3.9491328 Z M 53.725797,8.59375e-5 h 0.773437 V -1.7694453 h 0.878907 v -0.65625 h -0.878907 v -3.9609375 h -0.902343 l -2.742188,4.078125 v 0.5390625 h 2.871094 z m 0,-2.4257812375 h -2.015625 l 1.5,-2.1796875 c 0.1875,-0.328125 0.363281,-0.5976563 0.527344,-0.9023438 h 0.03516 c -0.02344,0.328125 -0.04687,0.890625 -0.04687,1.21875 z m 3.958008,-2.4375 h 2.191406 v 1.4765625 h -2.191406 z m -0.738282,-2.0039063 v 4.078125 h 3.667969 v -1.734375 h 1.863281 v 3.1171875 h 0.738282 v -6 h -0.738282 v 2.2734375 h -1.863281 v -1.734375 h -0.738281 v 1.4296875 h -2.191406 v -1.4296875 z m 1.066407,4.875 v 2.50781254 h 5.390625 v -0.609375 H 58.750211 V -1.9921016 Z m 10.441406,-5.2734375 c -1.792969,0 -2.847656,0.4921875 -2.847656,1.3945313 0,0.9023437 1.054687,1.40625 2.847656,1.40625 1.792969,0 2.859375,-0.5039063 2.859375,-1.40625 0,-0.9023438 -1.066406,-1.3945313 -2.859375,-1.3945313 z m 0,0.5507813 c 1.335937,0 2.097656,0.3164062 2.097656,0.84375 0,0.5507812 -0.761719,0.84375 -2.097656,0.84375 -1.3125,0 -2.074219,-0.2929688 -2.074219,-0.84375 0,-0.5273438 0.761719,-0.84375 2.074219,-0.84375 z m -3.65625,2.8007812 v 0.5976563 h 7.324219 v -0.5976563 z m 0.914062,3.93750004 v 0.5859375 h 5.71875 v -0.5859375 h -5.003906 v -0.8203125 h 4.757813 V -2.6249141 h -5.496094 v 0.5625 h 4.769531 v 0.7148438 h -4.746094 z m 9.342774,-3.11718754 v 0.609375 h 1.898437 v 3.17578129 h 0.738282 V -2.4842891 h 2.027343 v 3.17578129 h 0.75 V -2.4842891 h 1.910157 v -0.609375 h -1.207032 c 0.28125,-1.3125 0.28125,-2.2382812 0.28125,-3.09375 v -0.7382812 h -5.472656 v 0.609375 h 4.757813 v 0.1289062 c 0,0.328125 0,0.65625 -0.01172,1.0195313 l -4.980469,0.1640625 0.105469,0.6445312 4.839844,-0.234375 c -0.04687,0.4453125 -0.128907,0.9492188 -0.269532,1.5 z m 14.43457,-4.3242187 v 8.12109374 h 0.726563 V -7.4178828 Z m -4.347656,1.3710937 c 0.644531,0 1.042969,0.8203125 1.042969,2.1328125 0,1.3125 -0.398438,2.1328125 -1.042969,2.1328125 -0.632813,0 -1.03125,-0.8203125 -1.03125,-2.1328125 0,-1.3125 0.398437,-2.1328125 1.03125,-2.1328125 z m 0,-0.6914062 c -1.042969,0 -1.722656,1.0898437 -1.722656,2.8242187 0,1.734375 0.679687,2.8242188 1.722656,2.8242188 0.996094,0 1.664062,-0.9726563 1.722656,-2.5546875 h 1.019531 v 3.92578124 h 0.703125 V -7.2421016 h -0.703125 v 2.9882813 h -1.019531 c -0.08203,-1.5351563 -0.738281,-2.484375 -1.722656,-2.484375 z m 12.424805,5.0390625 c -1.394532,0 -2.261719,0.421875 -2.261719,1.18359374 0,0.76171875 0.867187,1.1953125 2.261719,1.1953125 1.417968,0 2.273437,-0.43359375 2.273437,-1.1953125 0,-0.76171874 -0.855469,-1.18359374 -2.273437,-1.18359374 z m 0,0.5390625 c 0.960937,0 1.523437,0.23437499 1.523437,0.64453124 0,0.421875 -0.5625,0.65625 -1.523437,0.65625 -0.949219,0 -1.523438,-0.234375 -1.523438,-0.65625 0,-0.41015625 0.574219,-0.64453124 1.523438,-0.64453124 z m -3.527344,-3.234375 v 0.6328125 h 0.632812 c 1.3125,0 2.414063,-0.070312 3.679688,-0.3164063 l -0.09375,-0.6210937 c -1.183594,0.234375 -2.25,0.3046875 -3.46875,0.3046875 v -2.6367188 h -0.75 z m 5.460937,-3.0234375 v 1.2421875 h -2.308593 v 0.5976562 h 2.308593 v 2.4960938 h 0.738286 v -4.3359375 z m -2.296875,3.9726562 v 0.8085938 h -2.496093 v 0.5976562 h 5.718754 v -0.5976562 h -2.472661 v -0.8085938 z m 4.605471,0.1640625 v 0.5976563 h 7.35937 v -0.5976563 z m 0.99609,-3.8320312 v 2.7421875 h 5.51953 v -0.609375 h -4.78125 v -2.1328125 z m -0.0469,5.25 v 2.36718749 h 5.61328 v -0.609375 h -4.875 V -1.8631953 Z m 12.79687,-5.5546875 v 8.12109374 h 0.75 V -3.5975703 h 1.32422 v -0.6210938 h -1.32422 v -3.1992187 z m -5.13281,0.796875 v 5.3085937 h 0.63281 c 1.52344,0 2.58985,-0.046875 3.84375,-0.2695312 l -0.0937,-0.6445313 c -1.18359,0.2226563 -2.21484,0.28125 -3.64453,0.28125 v -4.0664062 h 3.02344 v -0.609375 z m 8.69238,6.73828124 c 0.32813,0 0.59766,-0.24609375 0.59766,-0.62109375 0,-0.375 -0.26953,-0.62109379 -0.59766,-0.62109379 -0.32812,0 -0.58594,0.24609379 -0.58594,0.62109379 0,0.375 0.25782,0.62109375 0.58594,0.62109375 z m 0,0"
       style="fill:#000000;fill-opacity:1;fill-rule:nonzero;stroke:none"
       aria-label="2번을꺼내고4번을큐에넣는다."
       transform="matrix(1.3333333,0,0,1.3333333,305.15467,118.55067)" />
  </g>
</svg>
