<?xml version="1.0" encoding="UTF-8" standalone="no"?>
<!-- Created with Inkscape (http://www.inkscape.org/) -->

<svg
   version="1.1"
   id="svg1"
   width="524.76001"
   height="182.84"
   viewBox="0 0 524.76001 182.84"
   sodipodi:docname="4.pdf"
   xmlns:inkscape="http://www.inkscape.org/namespaces/inkscape"
   xmlns:sodipodi="http://sodipodi.sourceforge.net/DTD/sodipodi-0.dtd"
   xmlns="http://www.w3.org/2000/svg"
   xmlns:svg="http://www.w3.org/2000/svg">
  <defs
     id="defs1" />
  <sodipodi:namedview
     id="namedview1"
     pagecolor="#ffffff"
     bordercolor="#000000"
     borderopacity="0.25"
     inkscape:showpageshadow="2"
     inkscape:pageopacity="0.0"
     inkscape:pagecheckerboard="0"
     inkscape:deskcolor="#d1d1d1">
    <inkscape:page
       x="0"
       y="0"
       inkscape:label="1"
       id="page1"
       width="524.76001"
       height="182.84"
       margin="0"
       bleed="0" />
  </sodipodi:namedview>
  <g
     id="g1"
     inkscape:groupmode="layer"
     inkscape:label="1">
    <path
       id="path1"
       d="M 85.04042,89.29227 36.85092,46.77203"
       style="fill:none;stroke:#858585;stroke-width:0.54794;stroke-linecap:butt;stroke-linejoin:miter;stroke-miterlimit:10;stroke-dasharray:none;stroke-opacity:1"
       transform="matrix(1.3333333,0,0,-1.3333333,-19.045333,156.39733)" />
    <path
       id="path2"
       d="M 85.04042,89.29227 133.2299,46.77203"
       style="fill:none;stroke:#858585;stroke-width:0.54794;stroke-linecap:butt;stroke-linejoin:miter;stroke-miterlimit:10;stroke-dasharray:none;stroke-opacity:1"
       transform="matrix(1.3333333,0,0,-1.3333333,-19.045333,156.39733)" />
    <path
       id="path3"
       d="M 36.85092,46.77203 85.04042,2.83484"
       style="fill:none;stroke:#858585;stroke-width:0.54794;stroke-linecap:butt;stroke-linejoin:miter;stroke-miterlimit:10;stroke-dasharray:none;stroke-opacity:1"
       transform="matrix(1.3333333,0,0,-1.3333333,-19.045333,156.39733)" />
    <path
       id="path4"
       d="M 133.2299,46.77203 85.04042,2.83484"
       style="fill:none;stroke:#858585;stroke-width:0.54794;stroke-linecap:butt;stroke-linejoin:miter;stroke-miterlimit:10;stroke-dasharray:none;stroke-opacity:1"
       transform="matrix(1.3333333,0,0,-1.3333333,-19.045333,156.39733)" />
    <path
       id="path5"
       d="M 85.04042,89.29227 H 188.50609"
       style="fill:none;stroke:#858585;stroke-width:0.54794;stroke-linecap:butt;stroke-linejoin:miter;stroke-miterlimit:10;stroke-dasharray:none;stroke-opacity:1"
       transform="matrix(1.3333333,0,0,-1.3333333,-19.045333,156.39733)" />
    <path
       id="path6"
       d="m 99.21382,89.29227 c 0,7.82785 -6.34555,14.1734 -14.1734,14.1734 -7.82785,0 -14.1734,-6.34555 -14.1734,-14.1734 0,-7.82785 6.34555,-14.1734 14.1734,-14.1734 7.82785,0 14.1734,6.34555 14.1734,14.1734 z"
       style="fill:#e0e0e0;fill-opacity:1;fill-rule:nonzero;stroke:#000000;stroke-width:0.84683;stroke-linecap:butt;stroke-linejoin:miter;stroke-miterlimit:10;stroke-dasharray:none;stroke-opacity:1"
       transform="matrix(1.3333333,0,0,-1.3333333,-19.045333,156.39733)" />
    <path
       id="path7"
       d="M 0.78473438,-8.28125e-4 H 4.3941094 V -0.68051562 H 3.0698906 V -6.3875469 H 2.4487969 c -0.3632813,0.2109375 -0.7851563,0.3632813 -1.359375,0.46875 v 0.515625 h 1.171875 v 4.72265628 H 0.78473438 Z m 0,0"
       style="fill:#000000;fill-opacity:1;fill-rule:nonzero;stroke:none"
       aria-label="1"
       transform="matrix(1.3333333,0,0,1.3333333,91.024,41.602667)" />
    <path
       id="path8"
       d="m 51.02432,46.77203 c 0,7.82785 -6.34555,14.1734 -14.1734,14.1734 -7.82785,0 -14.17338,-6.34555 -14.17338,-14.1734 0,-7.82783 6.34553,-14.17338 14.17338,-14.17338 7.82785,0 14.1734,6.34555 14.1734,14.17338 z"
       style="fill:#e0e0e0;fill-opacity:1;fill-rule:nonzero;stroke:#000000;stroke-width:0.84683;stroke-linecap:butt;stroke-linejoin:miter;stroke-miterlimit:10;stroke-dasharray:none;stroke-opacity:1"
       transform="matrix(1.3333333,0,0,-1.3333333,-19.045333,156.39733)" />
    <path
       id="path9"
       d="M 0.39951563,2.5e-4 H 4.5245156 V -0.702875 H 2.6729531 c -0.328125,0 -0.7382812,0.0351563 -1.078125,0.0585938 1.5117188,-1.5820313 2.625,-2.7890626 2.625,-3.9960937 0,-1.125 -0.75,-1.8632813 -1.921875,-1.8632813 -0.8320312,0 -1.40624997,0.375 -1.93359372,0.9609375 l 0.46875,0.4570313 c 0.37500002,-0.421875 0.83203122,-0.7617188 1.35937502,-0.7617188 0.8203125,0 1.21875,0.5273438 1.21875,1.2539063 0,1.0429687 -1.0898438,2.1914061 -3.01171877,4.1132812 z m 0,0"
       style="fill:#000000;fill-opacity:1;fill-rule:nonzero;stroke:none"
       aria-label="2"
       transform="matrix(1.3333333,0,0,1.3333333,26.772,98.374667)" />
    <path
       id="path10"
       d="m 147.4033,46.77203 c 0,7.82785 -6.34555,14.1734 -14.1734,14.1734 -7.82785,0 -14.1734,-6.34555 -14.1734,-14.1734 0,-7.82783 6.34555,-14.17338 14.1734,-14.17338 7.82785,0 14.1734,6.34555 14.1734,14.17338 z"
       style="fill:#e0e0e0;fill-opacity:1;fill-rule:nonzero;stroke:#000000;stroke-width:0.84683;stroke-linecap:butt;stroke-linejoin:miter;stroke-miterlimit:10;stroke-dasharray:none;stroke-opacity:1"
       transform="matrix(1.3333333,0,0,-1.3333333,-19.045333,156.39733)" />
    <path
       id="path11"
       d="m 2.3554766,0.11684375 c 1.171875,0 2.1210937,-0.6796875 2.1210937,-1.81640625 0,-0.8789063 -0.6210937,-1.453125 -1.3945312,-1.640625 v -0.035156 c 0.6914062,-0.2460937 1.171875,-0.7382812 1.171875,-1.5234375 0,-1.0195312 -0.8085938,-1.6054687 -1.921875,-1.6054687 -0.75,0 -1.33593754,0.3398437 -1.82812504,0.796875 L 0.93750781,-5.19175 C 1.3125078,-5.5784688 1.7695391,-5.848 2.3086016,-5.848 c 0.6914062,0 1.1015625,0.3984375 1.1015625,1.0195312 0,0.6679688 -0.4570313,1.1835938 -1.8164063,1.1835938 v 0.6445312 c 1.5234375,0 2.0507813,0.5039063 2.0507813,1.265625 0,0.7265625 -0.5507813,1.17187505 -1.3359375,1.17187505 -0.75,0 -1.2421875,-0.36328125 -1.62890629,-0.75000005 L 0.25782031,-0.7855 C 0.69141406,-0.31675 1.3359453,0.11684375 2.3554766,0.11684375 Z m 0,0"
       style="fill:#000000;fill-opacity:1;fill-rule:nonzero;stroke:none"
       aria-label="3"
       transform="matrix(1.3333333,0,0,1.3333333,155.27733,98.297333)" />
    <path
       id="path12"
       d="m 99.21382,2.83484 c 0,7.82785 -6.34555,14.1734 -14.1734,14.1734 -7.82785,0 -14.1734,-6.34555 -14.1734,-14.1734 0,-7.82784 6.34555,-14.17339 14.1734,-14.17339 7.82785,0 14.1734,6.34555 14.1734,14.17339 z"
       style="fill:#b8b8b8;fill-opacity:1;fill-rule:nonzero;stroke:#000000;stroke-width:1.04608;stroke-linecap:butt;stroke-linejoin:miter;stroke-miterlimit:10;stroke-dasharray:none;stroke-opacity:1"
       transform="matrix(1.3333333,0,0,-1.3333333,-19.045333,156.39733)" />
    <path
       id="path13"
       d="M 3.0464531,-8.203125e-4 H 3.8198906 V -1.7703516 h 0.8789063 v -0.65625 H 3.8198906 V -6.3875391 H 2.9175469 l -2.74218752,4.078125 v 0.5390625 H 3.0464531 Z m 0,-2.4257812875 h -2.015625 l 1.5,-2.1796875 c 0.1875,-0.328125 0.3632813,-0.5976562 0.5273438,-0.9023437 h 0.035156 c -0.023437,0.328125 -0.046875,0.890625 -0.046875,1.21875 z m 0,0"
       style="fill:#000000;fill-opacity:1;fill-rule:nonzero;stroke:none"
       aria-label="4"
       transform="matrix(1.3333333,0,0,1.3333333,91.024,156.88)" />
    <path
       id="path14"
       d="m 202.67949,89.29227 c 0,7.82785 -6.34555,14.1734 -14.1734,14.1734 -7.82785,0 -14.1734,-6.34555 -14.1734,-14.1734 0,-7.82785 6.34555,-14.1734 14.1734,-14.1734 7.82785,0 14.1734,6.34555 14.1734,14.1734 z"
       style="fill:#e0e0e0;fill-opacity:1;fill-rule:nonzero;stroke:#000000;stroke-width:0.84683;stroke-linecap:butt;stroke-linejoin:miter;stroke-miterlimit:10;stroke-dasharray:none;stroke-opacity:1"
       transform="matrix(1.3333333,0,0,-1.3333333,-19.045333,156.39733)" />
    <path
       id="path15"
       d="m 2.3451016,0.11576562 c 1.1132812,0 2.15625,-0.78515625 2.15625,-2.15625002 0,-1.3828125 -0.890625,-2.0039062 -1.9804688,-2.0039062 -0.3984375,0 -0.6914062,0.09375 -0.984375,0.2578125 l 0.1640625,-1.8984375 h 2.4726563 v -0.703125 H 0.98572656 l -0.2109375,3.0703125 0.43359374,0.28125 c 0.375,-0.2578125 0.65625,-0.3984375 1.1015625,-0.3984375 0.8203125,0 1.359375,0.5273437 1.359375,1.4179687 0,0.890625 -0.6210937,1.45312502 -1.3945312,1.45312502 -0.7617188,0 -1.2539063,-0.3515625 -1.61718754,-0.72656252 l -0.41015625,0.53906252 c 0.4453125,0.43359375 1.06640629,0.8671875 2.09765629,0.8671875 z m 0,0"
       style="fill:#000000;fill-opacity:1;fill-rule:nonzero;stroke:none"
       aria-label="5"
       transform="matrix(1.3333333,0,0,1.3333333,228.97867,41.525333)" />
    <path
       id="path16"
       d="m 226.77448,-5.09413 v 112.23695 c 0,1.10047 0.89207,1.99256 1.99255,1.99256 h 168.9306 c 1.10047,0 1.99256,-0.89209 1.99256,-1.99256 V -5.09413 c 0,-1.10047 -0.89209,-1.99256 -1.99256,-1.99256 h -168.9306 c -1.10048,0 -1.99255,0.89209 -1.99255,1.99256 z"
       style="fill:#fcfcfc;fill-opacity:1;fill-rule:nonzero;stroke:#c7c7c7;stroke-width:0.3985;stroke-linecap:butt;stroke-linejoin:miter;stroke-miterlimit:10;stroke-dasharray:none;stroke-opacity:1"
       transform="matrix(1.3333333,0,0,-1.3333333,-19.045333,156.39733)" />
    <path
       id="path17"
       d="m 4.8278125,1.6068594 c 0,-0.328125 -0.2460937,-0.3398438 -0.421875,-0.3398438 H 4.054375 v -4.7929687 c 0,-0.1992188 -0.011719,-0.421875 -0.375,-0.421875 -0.3046875,0 -0.3632812,0.1054687 -0.375,0.3867187 C 3.07,-3.7837656 2.7301563,-3.9478281 2.2848438,-3.9478281 c -1.0078125,0 -1.9335938,0.84375 -1.9335938,2.0039062 0,1.12500002 0.8554688,2.00390627 1.8398438,2.00390627 0.515625,0 0.890625,-0.234375 1.1132812,-0.43359375 V 1.2670156 H 2.9528125 c -0.1640625,0 -0.421875,0.011719 -0.421875,0.328125 0,0.328125 0.2460938,0.3398438 0.421875,0.3398438 h 1.453125 c 0.1640625,0 0.421875,-0.011719 0.421875,-0.328125 z m -1.5234375,-3.375 c 0,0.46875 -0.4101562,1.14843747 -1.078125,1.14843747 -0.609375,0 -1.1484375,-0.58593747 -1.1484375,-1.32421877 0,-0.7617187 0.5859375,-1.3359375 1.2421875,-1.3359375 0.609375,0 0.984375,0.6328125 0.984375,1.171875 z m 5.9970703,1.42968747 c 0,-0.328125 -0.2695312,-0.328125 -0.4101562,-0.328125 H 8.5748828 V -3.4790781 c 0,-0.3164063 -0.070312,-0.4335938 -0.421875,-0.4335938 H 7.5084766 c -0.1640625,0 -0.421875,0.023437 -0.421875,0.3515625 0,0.3164063 0.2695312,0.328125 0.421875,0.328125 h 0.3164062 v 1.7929688 c 0,0.72656247 -0.65625,0.82031247 -0.9257812,0.82031247 -0.609375,0 -0.609375,-0.24609375 -0.609375,-0.50390627 v -2.3554687 c 0,-0.3164063 -0.070312,-0.4335938 -0.421875,-0.4335938 H 5.2233203 c -0.1640625,0 -0.421875,0.023437 -0.421875,0.3515625 0,0.3164063 0.2695313,0.328125 0.421875,0.328125 h 0.3164063 v 2.1679688 c 0,0.89062497 0.6328125,1.12499997 1.3242187,1.12499997 0.328125,0 0.6679688,-0.08203125 0.9726563,-0.28125 0.058594,0.2109375 0.2460937,0.22265625 0.4101562,0.22265625 h 0.6328125 c 0.1757813,0 0.421875,-0.01171875 0.421875,-0.33984375 z M 13.599297,-1.0181406 c 0,-0.3046875 -0.316406,-0.3164063 -0.375,-0.3164063 -0.199219,0 -0.28125,0.035156 -0.351563,0.234375 -0.1875,0.41015627 -0.621093,0.48046877 -0.84375,0.48046877 -0.609375,0 -1.207031,-0.38671877 -1.371093,-1.04296877 h 2.519531 c 0.222656,0 0.421875,0 0.421875,-0.3984375 0,-1.03125 -0.585938,-1.921875 -1.757813,-1.921875 -1.078125,0 -1.9570309,0.9140625 -1.9570309,2.015625 0,1.11328127 0.9140629,2.02734377 2.0742189,2.02734377 1.21875,0 1.640625,-0.84375 1.640625,-1.07812497 z m -0.773438,-1.3125 h -2.15625 c 0.140625,-0.5625 0.609375,-0.9726563 1.171875,-0.9726563 0.410157,0 0.890625,0.1992188 0.984375,0.9726563 z m 5.888672,1.99218747 c 0,-0.328125 -0.269531,-0.328125 -0.410156,-0.328125 H 17.987969 V -3.4790781 c 0,-0.3164063 -0.07031,-0.4335938 -0.421875,-0.4335938 h -0.644531 c -0.164063,0 -0.421875,0.023437 -0.421875,0.3515625 0,0.3164063 0.269531,0.328125 0.421875,0.328125 h 0.316406 v 1.7929688 c 0,0.72656247 -0.65625,0.82031247 -0.925781,0.82031247 -0.609375,0 -0.609375,-0.24609375 -0.609375,-0.50390627 v -2.3554687 c 0,-0.3164063 -0.07031,-0.4335938 -0.421875,-0.4335938 h -0.644532 c -0.164062,0 -0.421875,0.023437 -0.421875,0.3515625 0,0.3164063 0.269532,0.328125 0.421875,0.328125 h 0.316407 v 2.1679688 c 0,0.89062497 0.632812,1.12499997 1.324218,1.12499997 0.328125,0 0.667969,-0.08203125 0.972657,-0.28125 0.05859,0.2109375 0.246093,0.22265625 0.410156,0.22265625 h 0.632812 c 0.175782,0 0.421875,-0.01171875 0.421875,-0.33984375 z m 4.297852,-0.67968747 c 0,-0.3046875 -0.316406,-0.3164063 -0.375,-0.3164063 -0.199219,0 -0.28125,0.035156 -0.351563,0.234375 -0.1875,0.41015627 -0.621093,0.48046877 -0.84375,0.48046877 -0.609375,0 -1.207031,-0.38671877 -1.371093,-1.04296877 h 2.519531 c 0.222656,0 0.421875,0 0.421875,-0.3984375 0,-1.03125 -0.585938,-1.921875 -1.757813,-1.921875 -1.078125,0 -1.957031,0.9140625 -1.957031,2.015625 0,1.11328127 0.914063,2.02734377 2.074219,2.02734377 1.21875,0 1.640625,-0.84375 1.640625,-1.07812497 z m -0.773438,-1.3125 h -2.15625 c 0.140625,-0.5625 0.609375,-0.9726563 1.171875,-0.9726563 0.410157,0 0.890625,0.1992188 0.984375,0.9726563 z m 0,0"
       style="fill:#000000;fill-opacity:1;fill-rule:nonzero;stroke:none"
       aria-label="queue"
       transform="matrix(1.3333333,0,0,1.3333333,382.90667,27.365333)" />
    <path
       id="path18"
       d="M 6.3401328,-7.4188125 V 0.70228125 H 7.0784141 V -7.4188125 Z m -5.43749999,0.6914062 v 5.484375 H 4.7229453 v -5.484375 H 3.9846641 v 2.1328125 H 1.6526328 V -6.7274063 Z M 1.6526328,-3.9969375 H 3.9846641 V -1.864125 H 1.6526328 Z M 10.86357,-6.1180313 c 0.773438,0 1.3125,0.84375 1.3125,2.15625 0,1.3125 -0.539062,2.1679688 -1.3125,2.1679688 -0.773437,0 -1.3124997,-0.8554688 -1.3124997,-2.1679688 0,-1.3125 0.5390627,-2.15625 1.3124997,-2.15625 z m 3.773438,-1.3007812 v 3.09375 H 12.867477 C 12.762008,-5.8367813 11.965133,-6.786 10.86357,-6.786 c -1.1835934,0 -2.0273434,1.1015625 -2.0273434,2.8242187 0,1.734375 0.84375,2.8359375 2.0273434,2.8359375 1.125,0 1.933594,-1.0078125 2.003907,-2.5898437 h 1.769531 V 0.70228125 H 15.36357 V -7.4188125 Z m 10.22168,0.011719 v 4.6289063 h 0.738281 v -4.6289063 z m -3.609375,0.46875 c -1.21875,0 -2.109375,0.7734375 -2.109375,1.8984375 0,1.1132813 0.890625,1.8867188 2.109375,1.8867188 1.230468,0 2.121093,-0.7734375 2.121093,-1.8867188 0,-1.125 -0.890625,-1.8984375 -2.121093,-1.8984375 z m 0,0.6210938 c 0.808593,0 1.394531,0.5273437 1.394531,1.2773437 0,0.75 -0.585938,1.265625 -1.394531,1.265625 -0.808594,0 -1.382813,-0.515625 -1.382813,-1.265625 0,-0.75 0.574219,-1.2773437 1.382813,-1.2773437 z m 2.730468,3.890625 v 0.4335937 c 0,0.6328125 -0.398437,1.4414063 -1.160156,1.92187505 -0.75,-0.4453125 -1.125,-1.20703125 -1.125,-1.92187505 v -0.433594 h -0.726562 v 0.4335937 c 0,0.7851563 -0.597657,1.6523438 -1.617188,2.0273438 l 0.363281,0.55078125 c 0.773438,-0.29296875 1.324219,-0.84375 1.605469,-1.5 0.246094,0.66796875 0.738281,1.265625 1.511719,1.5703125 0.75,-0.31640625 1.242187,-0.9375 1.488281,-1.59375 0.28125,0.6796875 0.84375,1.23046875 1.640625,1.5234375 L 26.323531,0.0343125 C 25.292281,-0.31725 24.706344,-1.1492813 24.706344,-1.9930313 V -2.426625 Z m 6.878907,-4.8046875 c -1.746094,0 -2.847657,0.5742187 -2.847657,1.5351562 0,0.9609375 1.101563,1.5234375 2.847657,1.5234375 1.757812,0 2.859375,-0.5625 2.859375,-1.5234375 0,-0.9609375 -1.101563,-1.5351562 -2.859375,-1.5351562 z m 0,0.5859375 c 1.289062,0 2.097656,0.3515625 2.097656,0.9492187 0,0.5859375 -0.808594,0.9375 -2.097656,0.9375 -1.277344,0 -2.085938,-0.3515625 -2.085938,-0.9375 0,-0.5976562 0.808594,-0.9492187 2.085938,-0.9492187 z m -2.753907,4.5703125 v 2.66015625 h 5.53125 V -2.0750625 Z m 4.804688,0.5976562 v 1.45312505 H 28.831344 V -1.4774063 Z m -5.707031,-2.0039062 v 0.609375 h 7.324218 v -0.609375 z m 0,0"
       style="fill:#000000;fill-opacity:1;fill-rule:nonzero;stroke:none"
       aria-label="비어있음"
       transform="matrix(1.3333333,0,0,1.3333333,375.26133,72.048)" />
    <g
       id="g18"
       aria-label="방문순서:1-&gt;2-&gt;3-&gt;5-&gt;4"
       transform="matrix(1.3333333,0,0,1.3333333,305.02133,137.44133)">
      <path
         id="path19"
         d="m 4.1822422,-2.4374453 c -1.7226563,0 -2.8125,0.609375 -2.8125,1.61718749 0,1.03125 1.0898437,1.62890625 2.8125,1.62890625 1.7226562,0 2.8125,-0.59765625 2.8125,-1.62890625 0,-1.00781249 -1.0898438,-1.61718749 -2.8125,-1.61718749 z m 0,0.9375 c 1.0664062,0 1.6289062,0.2226562 1.6289062,0.67968749 0,0.48046875 -0.5625,0.703125 -1.6289062,0.703125 -1.0546875,0 -1.6171875,-0.22265625 -1.6171875,-0.703125 0,-0.45703129 0.5625,-0.67968749 1.6171875,-0.67968749 z m -3.58593751,-5.484375 v 3.9140625 H 4.5923984 V -6.9843203 H 3.4088047 v 1.03125 H 1.7798984 v -1.03125 z m 1.18359371,1.9453125 h 1.6289063 v 1.03125 H 1.7798984 Z m 3.9257813,-2.4609375 v 4.8867187 h 1.1835937 v -1.9804687 h 1.1015625 v -0.984375 H 6.8892734 v -1.921875 z m 3.8203125,0.3398437 v 3.09375 H 15.17443 v -3.09375 z m 4.4648438,0.9257813 v 1.21875 h -3.28125 v -1.21875 z m -5.3789063,2.8242187 v 0.9492188 h 3.2578123 v 1.3945312 h 1.195313 v -1.3945312 h 3.058593 v -0.9492188 z m 0.8671875,1.640625 v 2.42578129 h 5.8124998 v -0.9609375 H 10.67443 V -1.7694766 Z m 12.5595698,-5.53125 v 0.2695313 c 0,0.9375 -0.925781,1.9570312 -2.765625,2.2148437 l 0.445313,0.9375 c 1.394531,-0.2109375 2.414062,-0.8554687 2.941406,-1.7109375 0.515625,0.84375 1.535156,1.4765625 2.917969,1.6757813 l 0.457031,-0.9140625 c -1.839844,-0.2695313 -2.777344,-1.2890625 -2.777344,-2.203125 v -0.2695313 z m -3.140625,3.8789063 v 0.9375 h 3.257813 v 1.3945312 h 1.195312 v -1.3945312 h 3.058594 v -0.9375 z m 0.867188,1.640625 v 2.43749999 h 5.8125 v -0.9609375 H 20.960562 V -1.7811953 Z m 13.157227,-5.7421875 v 2.6132812 h -1.582032 v 0.9609375 h 1.582032 v 4.75781254 h 1.195312 V -7.5233828 Z m -3.84375,0.6445312 v 1.21875 c 0,1.5703125 -0.632813,3.1757813 -2.050782,3.8320313 l 0.75,0.94921874 c 0.925782,-0.45703124 1.546875,-1.32421874 1.898438,-2.39062504 0.339844,0.9960938 0.949219,1.8046875 1.851562,2.2617188 l 0.726563,-0.9609375 c -1.382813,-0.609375 -1.980469,-2.1328125 -1.980469,-3.6914063 v -1.21875 z m 0,0"
         style="fill:#000000;fill-opacity:1;fill-rule:nonzero;stroke:none" />
      <path
         id="path20"
         d="m 36.722281,-3.4921328 c 0.328125,0 0.597656,-0.2578125 0.597656,-0.6328125 0,-0.3632813 -0.269531,-0.6210938 -0.597656,-0.6210938 -0.328125,0 -0.585937,0.2578125 -0.585937,0.6210938 0,0.375 0.257812,0.6328125 0.585937,0.6328125 z m 0,3.60937499 c 0.328125,0 0.597656,-0.24609375 0.597656,-0.62109375 0,-0.375 -0.269531,-0.62109374 -0.597656,-0.62109374 -0.328125,0 -0.585937,0.24609374 -0.585937,0.62109374 0,0.375 0.257812,0.62109375 0.585937,0.62109375 z m 0,0"
         style="fill:#000000;fill-opacity:1;fill-rule:nonzero;stroke:none" />
      <path
         id="path21"
         d="m 44.635367,-0.28119531 c 0,-0.3046875 -0.222656,-0.3046875 -0.375,-0.3046875 H 43.463492 V -5.2030703 c 0,-0.1289063 0,-0.375 -0.28125,-0.375 -0.152344,0 -0.222656,0.082031 -0.28125,0.1992187 -0.28125,0.6328125 -0.632812,0.8671875 -0.996094,0.9023438 -0.128906,0 -0.328125,0.023437 -0.328125,0.2929687 0,0.1757813 0.09375,0.28125 0.316407,0.28125 0.351562,0 0.703125,-0.1875 0.914062,-0.3632812 v 3.67968749 h -0.796875 c -0.152344,0 -0.386719,0 -0.386719,0.3046875 0,0.2812499975 0.246094,0.2812499975 0.386719,0.2812499975 h 2.25 c 0.140625,0 0.375,0 0.375,-0.2812499975 z m 9.615235,-2.44921879 c 0,-0.3398437 -0.328125,-0.3398437 -0.433594,-0.3398437 h -2.824219 c -0.09375,0 -0.433594,0 -0.433594,0.328125 0,0.3398437 0.328125,0.3398437 0.433594,0.3398437 h 2.824219 c 0.09375,0 0.433594,0 0.433594,-0.328125 z m 4.708007,-0.011719 c 0,-0.1757813 -0.128906,-0.2578125 -0.199218,-0.3046875 l -3.011719,-1.9335938 c -0.05859,-0.023437 -0.140625,-0.035156 -0.140625,-0.035156 -0.164063,0 -0.339844,0.140625 -0.339844,0.3398437 0,0.1875 0.117188,0.2695313 0.199219,0.328125 l 2.53125,1.6054688 -2.625,1.6875 c -0.03516,0.023437 -0.105469,0.0820312 -0.105469,0.24609374 0,0.22265625 0.199219,0.33984375 0.328125,0.33984375 0.04687,0 0.09375,-0.0117188 0.140625,-0.0351563 l 3.011719,-1.92187499 c 0.117187,-0.070312 0.210937,-0.140625 0.210937,-0.3164064 z m 9.451172,2.36718749 v -0.2578125 c 0,-0.17578125 0,-0.37499999 -0.328125,-0.37499999 -0.339844,0 -0.339844,0.18749999 -0.339844,0.42187499 h -2.015625 c 0.480469,-0.41015625 1.488282,-1.20703129 1.710938,-1.41796879 0.328125,-0.3164062 0.972656,-0.9140625 0.972656,-1.8046875 0,-1.0664062 -0.890625,-1.7695312 -2.003906,-1.7695312 -1.042969,0 -1.757813,0.7148437 -1.757813,1.4765625 0,0.3632812 0.28125,0.4570312 0.421875,0.4570312 0.175782,0 0.410157,-0.1523437 0.410157,-0.421875 0,-0.1875 -0.07031,-0.2578125 -0.117188,-0.3046875 0.152344,-0.3867187 0.550781,-0.6210937 1.007813,-0.6210937 0.714843,0 1.371093,0.4101562 1.371093,1.1835937 0,0.6210938 -0.480468,1.1601563 -0.832031,1.4648438 l -2.132812,1.79296874 c -0.07031,0.0585938 -0.128907,0.1171875 -0.128907,0.2578125 0,0.2929687475 0.234375,0.2929687475 0.386719,0.2929687475 h 3 c 0.292969,0 0.375,-0.0703124975 0.375,-0.3749999975 z m 9.37793,-2.35546879 c 0,-0.3398437 -0.328125,-0.3398437 -0.433594,-0.3398437 h -2.824219 c -0.09375,0 -0.433593,0 -0.433593,0.328125 0,0.3398437 0.328125,0.3398437 0.433593,0.3398437 h 2.824219 c 0.09375,0 0.433594,0 0.433594,-0.328125 z m 4.708008,-0.011719 c 0,-0.1757813 -0.128907,-0.2578125 -0.199219,-0.3046875 l -3.011719,-1.9335938 c -0.05859,-0.023437 -0.140625,-0.035156 -0.140625,-0.035156 -0.164062,0 -0.339844,0.140625 -0.339844,0.3398437 0,0.1875 0.117188,0.2695313 0.199219,0.328125 l 2.53125,1.6054688 -2.625,1.6875 c -0.03516,0.023437 -0.105469,0.0820312 -0.105469,0.24609374 0,0.22265625 0.199219,0.33984375 0.328125,0.33984375 0.04687,0 0.09375,-0.0117188 0.140625,-0.0351563 L 82.284781,-2.425727 c 0.117188,-0.070312 0.210938,-0.140625 0.210938,-0.3164064 z m 9.521484,1.171875 c 0,-0.7382813 -0.550781,-1.2304688 -0.972656,-1.4296875 0.65625,-0.4570313 0.714844,-1.0546875 0.714844,-1.2890625 0,-0.6914063 -0.679688,-1.2890625 -1.699219,-1.2890625 -1.101563,0 -1.6875,0.4453125 -1.6875,1.0546875 0,0.2695312 0.199219,0.421875 0.421875,0.421875 0.222656,0 0.410156,-0.1757813 0.410156,-0.4101563 0,-0.082031 -0.02344,-0.1757812 -0.07031,-0.234375 0.292968,-0.2460937 0.878906,-0.2460937 0.925781,-0.2460937 0.632812,0 1.03125,0.328125 1.03125,0.703125 0,0.2460937 -0.117188,0.609375 -0.457031,0.8320312 -0.234375,0.1523438 -0.398438,0.1640625 -0.820313,0.1992188 -0.351562,0.011719 -0.527344,0.035156 -0.527344,0.3046875 0,0.2929687 0.246094,0.2929687 0.375,0.2929687 h 0.375 c 0.925782,0 1.324219,0.6210938 1.324219,1.078125 0,0.5742188 -0.515625,1.10156254 -1.289062,1.10156254 -0.234375,0 -0.914063,-0.0351563 -1.230469,-0.46875 l 0.02344,-0.0234375 c 0.05859,-0.0820312 0.05859,-0.10546874 0.07031,-0.18750004 0,0 0.01172,-0.035156 0.01172,-0.070312 0,-0.2226562 -0.175782,-0.4101562 -0.410157,-0.4101562 -0.222656,0 -0.421875,0.1289062 -0.421875,0.4335937 0,0.79687504 0.84375,1.30078129 1.957032,1.30078129 1.171875,0 1.945312,-0.80859375 1.945312,-1.66406249 z m 9.316407,-1.1601563 c 0,-0.3398437 -0.32813,-0.3398437 -0.43359,-0.3398437 h -2.824223 c -0.09375,0 -0.433594,0 -0.433594,0.328125 0,0.3398437 0.328125,0.3398437 0.433594,0.3398437 h 2.824223 c 0.0937,0 0.43359,0 0.43359,-0.328125 z m 4.70801,-0.011719 c 0,-0.1757813 -0.12891,-0.2578125 -0.19922,-0.3046875 l -3.01172,-1.9335938 c -0.0586,-0.023437 -0.14063,-0.035156 -0.14063,-0.035156 -0.16406,0 -0.33984,0.140625 -0.33984,0.3398437 0,0.1875 0.11719,0.2695313 0.19922,0.328125 l 2.53125,1.6054688 -2.625,1.6875 c -0.0352,0.023437 -0.10547,0.0820312 -0.10547,0.24609374 0,0.22265625 0.19922,0.33984375 0.32813,0.33984375 0.0469,0 0.0937,-0.0117188 0.14062,-0.0351563 l 3.01172,-1.92187499 c 0.11719,-0.070312 0.21094,-0.140625 0.21094,-0.3164064 z m 9.45117,1.0429687 c 0,-0.9140625 -0.70313,-1.7929687 -1.75781,-1.7929687 -0.29297,0 -0.65625,0.046875 -1.04297,0.2460937 v -1.6523437 h 2.10937 c 0.12891,0 0.375,0 0.375,-0.28125 0,-0.2929688 -0.23437,-0.2929688 -0.375,-0.2929688 h -2.39062 c -0.30469,0 -0.38672,0.070312 -0.38672,0.4101563 v 2.3320312 c 0,0.1757813 0,0.4101563 0.31641,0.4101563 0.16406,0 0.19921,-0.046875 0.28125,-0.140625 0.25781,-0.3164063 0.66796,-0.4453125 1.10156,-0.4453125 0.71484,0 1.10156,0.6328125 1.10156,1.2070312 0,0.6914063 -0.60937,1.21875004 -1.34766,1.21875004 -0.36328,0 -0.82031,-0.15234375 -1.01953,-0.52734374 l 0.0117,-0.011719 c 0.0586,-0.09375 0.0703,-0.1054687 0.082,-0.2226562 0,0 0.0117,-0.023437 0.0117,-0.058594 0,-0.234375 -0.17578,-0.4101562 -0.41015,-0.4101562 -0.17579,0 -0.42188,0.1054687 -0.42188,0.4453125 0,0.72656249 0.73828,1.35937499 1.74609,1.35937499 1.125,0 2.01563,-0.796875 2.01563,-1.79296879 z m 9.37793,-1.03125 c 0,-0.3398437 -0.32813,-0.3398437 -0.4336,-0.3398437 h -2.82421 c -0.0937,0 -0.4336,0 -0.4336,0.328125 0,0.3398437 0.32813,0.3398437 0.4336,0.3398437 h 2.82421 c 0.0937,0 0.4336,0 0.4336,-0.328125 z m 4.70801,-0.011719 c 0,-0.1757813 -0.12891,-0.2578125 -0.19922,-0.3046875 l -3.01172,-1.9335938 c -0.0586,-0.023437 -0.14063,-0.035156 -0.14063,-0.035156 -0.16406,0 -0.33984,0.140625 -0.33984,0.3398437 0,0.1875 0.11719,0.2695313 0.19922,0.328125 l 2.53125,1.6054688 -2.625,1.6875 c -0.0352,0.023437 -0.10547,0.0820312 -0.10547,0.24609374 0,0.22265625 0.19922,0.33984375 0.32813,0.33984375 0.0469,0 0.0937,-0.0117188 0.14062,-0.0351563 l 3.01172,-1.92187499 c 0.11719,-0.070312 0.21094,-0.140625 0.21094,-0.3164064 z m 9.66211,0.9492187 c 0,-0.2929687 -0.2461,-0.2929687 -0.375,-0.2929687 h -0.66797 v -3.1289063 c 0,-0.3046875 -0.0703,-0.3867187 -0.38672,-0.3867187 h -0.25781 c -0.22266,0 -0.28125,0.011719 -0.39844,0.1992187 l -2.01563,3.1875 c -0.082,0.1171875 -0.082,0.140625 -0.082,0.328125 0,0.2578125 0.0352,0.375 0.375,0.375 h 2.22656 v 0.92578129 h -0.53906 c -0.1289,0 -0.375,0 -0.375,0.29296875 0,0.2929687475 0.2461,0.2929687475 0.375,0.2929687475 h 1.61719 c 0.12891,0 0.375,0 0.375,-0.2812499975 0,-0.3046875 -0.24609,-0.3046875 -0.375,-0.3046875 H 138.1979 V -1.5116641 h 0.66797 c 0.11718,0 0.375,0 0.375,-0.28125 z M 137.6588,-2.085884 h -1.92187 l 1.92187,-3.0585938 z m 0,0"
         style="fill:#000000;fill-opacity:1;fill-rule:nonzero;stroke:none" />
    </g>
    <path
       id="path22"
       d="m 0.44396094,-3.0924531 v 0.609375 H 2.3423984 V 0.69270312 H 3.0806797 V -2.4830781 h 2.0273437 v 3.17578122 h 0.75 V -2.4830781 h 1.9101563 v -0.609375 H 6.5611484 c 0.28125,-1.3125 0.28125,-2.2382813 0.28125,-3.09375 V -6.9244844 H 1.3697422 v 0.609375 h 4.7578125 v 0.1289063 c 0,0.328125 0,0.65625 -0.011719,1.0195312 l -4.9804687,0.1640625 0.1054687,0.6445313 4.8398438,-0.234375 c -0.046875,0.4453125 -0.1289063,0.9492187 -0.2695313,1.5 z M 14.178336,-7.4166719 v 8.10937502 h 0.75 V -3.5026094 h 1.289062 v -0.6210937 h -1.289062 v -3.2929688 z m -5.0625001,0.8789063 v 0.609375 h 2.9765621 c -0.164062,1.921875 -1.289062,3.46875 -3.3515621,4.5117187 l 0.4101563,0.57421877 C 11.775992,-2.1549531 12.842398,-4.2408906 12.842398,-6.5377656 Z M 24.845328,-7.4166719 v 8.12109377 h 0.738281 V -7.4166719 Z m -5.4375,0.6914063 v 5.484375 h 3.820313 v -5.484375 h -0.738282 v 2.1328125 h -2.332031 v -2.1328125 z m 0.75,2.7304687 h 2.332031 v 2.1328125 h -2.332031 z m 10.394531,-2.109375 v 2.6015625 h -2.25 v -2.6015625 z m 0.726563,0.7382813 h 1.851562 v 1.1132812 h -1.851562 z m 1.851562,-2.0390625 v 1.4179687 h -1.851562 v -0.7148437 h -3.703125 v 3.7851562 h 3.703125 v -0.7265625 h 1.851562 v 2.15625 h 0.738282 v -5.9179687 z m -4.464843,5.390625 v 2.53124997 h 5.390625 v -0.609375 H 29.403922 V -2.0143281 Z m 9.999023,-0.1992188 v 2.80078127 h 5.085938 V -2.2135469 Z m 4.359375,0.5976563 v 1.59374997 H 39.391227 V -1.6158906 Z m -5.191406,-5.296875 v 3.8789062 h 0.609375 c 1.664062,0 2.589844,-0.035156 3.703125,-0.234375 l -0.08203,-0.5976562 c -1.054688,0.1875 -1.945313,0.2226562 -3.492188,0.2226562 v -1.0546875 h 2.8125 v -0.5976562 h -2.8125 v -1.0078125 h 2.964844 v -0.609375 z m 5.179687,-0.5039063 v 4.7695313 h 0.738282 v -2.1328125 h 1.195312 v -0.6210938 h -1.195312 v -2.015625 z m 4.101563,5.3554688 v 0.609375 h 4.6875 v 2.15624997 h 0.738281 V -2.0612031 Z m 0.292969,-4.8632813 v 1.078125 c 0,0.9257813 -0.632813,1.9921875 -1.699219,2.4726563 l 0.410156,0.5742187 c 0.785156,-0.3515625 1.359375,-1.03125 1.652344,-1.8164062 0.292969,0.703125 0.832031,1.3007812 1.59375,1.6171875 l 0.386719,-0.5742188 c -1.03125,-0.4101562 -1.628907,-1.3476562 -1.628907,-2.2734375 v -1.078125 z m 2.683593,-0.3398437 v 4.7109375 h 0.703125 v -2.1210938 h 1.042969 v 2.1679688 h 0.703125 v -4.8984375 h -0.703125 v 2.109375 H 50.79357 v -1.96875 z m 7.523438,0 c -1.792969,0 -2.847656,0.4921875 -2.847656,1.3945312 0,0.9023438 1.054687,1.40625 2.847656,1.40625 1.792969,0 2.859375,-0.5039062 2.859375,-1.40625 0,-0.9023437 -1.066406,-1.3945312 -2.859375,-1.3945312 z m 0,0.5507812 c 1.335937,0 2.097656,0.3164063 2.097656,0.84375 0,0.5507813 -0.761719,0.84375 -2.097656,0.84375 -1.3125,0 -2.074219,-0.2929687 -2.074219,-0.84375 0,-0.5273437 0.761719,-0.84375 2.074219,-0.84375 z m -3.65625,2.8007813 v 0.5976562 h 7.324219 v -0.5976562 z m 0.914062,3.93749997 v 0.5859375 h 5.71875 v -0.5859375 h -5.003906 v -0.8203125 h 4.757813 V -2.6237031 h -5.496094 v 0.5625 h 4.769531 v 0.7148437 H 54.871695 Z M 67.870719,-2.1197969 c -1.734375,0 -2.777344,0.5039063 -2.777344,1.40625002 0,0.890625 1.042969,1.39453125 2.777344,1.39453125 1.746093,0 2.777343,-0.50390625 2.777343,-1.39453125 0,-0.90234372 -1.03125,-1.40625002 -2.777343,-1.40625002 z m 0,0.5859375 c 1.277343,0 2.027343,0.2929688 2.027343,0.82031252 0,0.52734375 -0.75,0.8203125 -2.027343,0.8203125 -1.277344,0 -2.027344,-0.29296875 -2.027344,-0.8203125 0,-0.52734372 0.75,-0.82031252 2.027344,-0.82031252 z m -3.65625,-1.8398437 v 0.609375 h 7.324218 v -0.609375 h -3.292968 v -1.1484375 h -0.738282 v 1.1484375 z m 0.679687,-3.6679688 v 0.609375 h 2.507813 c -0.07031,0.8789063 -1.359375,1.5703125 -2.777344,1.7226563 l 0.269531,0.5859375 c 1.335938,-0.1640625 2.554688,-0.75 2.976563,-1.640625 0.457031,0.890625 1.664062,1.4765625 3,1.640625 l 0.269531,-0.5859375 c -1.417969,-0.1523438 -2.71875,-0.84375 -2.777344,-1.7226563 h 2.519531 v -0.609375 z m 8.484375,3.984375 v 0.609375 h 1.136719 v 1.52343752 h -2.050781 v 0.62109375 h 7.359375 V -0.92448438 H 77.831656 V -2.4479219 h 1.265625 v -0.609375 h -4.980469 v -1.3007812 h 4.792969 v -2.4492188 h -5.542969 v 0.609375 H 78.1715 v 1.2421875 h -4.792969 z m 1.863281,2.13281252 V -2.4479219 h 1.875 v 1.52343752 z m 7.88379,-4.45312502 c -1.160157,0 -1.945313,0.5976563 -1.945313,1.5117188 0,0.9140625 0.785156,1.5117187 1.945313,1.5117187 1.148437,0 1.933593,-0.5976562 1.933593,-1.5117187 0,-0.9140625 -0.785156,-1.5117188 -1.933593,-1.5117188 z m 0,0.5859375 c 0.738281,0 1.230468,0.3632813 1.230468,0.9257813 0,0.5625 -0.492187,0.9257812 -1.230468,0.9257812 -0.738282,0 -1.230469,-0.3632812 -1.230469,-0.9257812 0,-0.5625 0.492187,-0.9257813 1.230469,-0.9257813 z m 3.140625,-2.6132812 v 6.0820312 h 0.738281 v -2.8007812 h 1.195312 v -0.6210938 h -1.195312 v -2.6601562 z m -3.503907,0 v 0.984375 h -2.027343 v 0.609375 h 4.78125 v -0.609375 h -2.015625 v -0.984375 z m -0.796875,5.5898437 v 2.33203127 h 5.402344 v -0.609375 H 82.692008 V -1.8151094 Z m 12.480469,-5.6015625 v 8.12109377 h 0.75 V -3.5963594 h 1.324219 v -0.6210937 h -1.324219 v -3.1992188 z m -5.132812,0.796875 v 5.3085938 h 0.632812 c 1.523438,0 2.589844,-0.046875 3.84375,-0.2695313 l -0.09375,-0.6445312 c -1.183594,0.2226562 -2.214844,0.28125 -3.644531,0.28125 v -4.0664063 h 3.023437 v -0.609375 z m 8.695312,6.73828127 c 0.328125,0 0.597656,-0.24609375 0.597656,-0.62109375 0,-0.375 -0.269531,-0.62109372 -0.597656,-0.62109372 -0.328125,0 -0.585937,0.24609372 -0.585937,0.62109372 0,0.375 0.257812,0.62109375 0.585937,0.62109375 z m 0,0"
       style="fill:#000000;fill-opacity:1;fill-rule:nonzero;stroke:none"
       aria-label="큐가비면탐색을종료한다."
       transform="matrix(1.3333333,0,0,1.3333333,305.02133,118.53733)" />
  </g>
</svg>
