<svg xmlns="http://www.w3.org/2000/svg" width="870" height="420" viewBox="0 0 870 420"><rect width="100%" height="100%" fill="white"/><style>
text{font-family:"JetBrains Mono","Consolas","Noto Sans Mono CJK KR",monospace;fill:#202020}
.label{font-size:18px}.small{font-size:14px;fill:#555}.tiny{font-size:13px;fill:#555}
.node{fill:white;stroke:#555;stroke-width:1.8}.nodeHi{fill:#eee;stroke:#202020;stroke-width:2.3}
.nodeMissing{fill:white;stroke:#aaa;stroke-width:1.6;stroke-dasharray:5 4}
.lazy{fill:white;stroke:#777;stroke-width:1.2;rx:5}.lazyHi{fill:#eee;stroke:#202020;stroke-width:2;rx:5}
.edge{fill:none;stroke:#888;stroke-width:1.7}.edgeHi{fill:none;stroke:#202020;stroke-width:3}
.edgeMissing{fill:none;stroke:#aaa;stroke-width:1.5;stroke-dasharray:5 4}
.cell{fill:white;stroke:#777;stroke-width:1.2}.cellHi{fill:#eee;stroke:#202020;stroke-width:2}
.box{fill:white;stroke:#777;stroke-width:1.2;rx:5}.boxHi{fill:#eee;stroke:#202020;stroke-width:2;rx:5}
.arrow{fill:none;stroke:#202020;stroke-width:1.7;marker-end:url(#arrow)}
</style><defs><marker id="arrow" markerWidth="9" markerHeight="9" refX="7" refY="3" orient="auto"><path d="M0,0 L0,6 L8,3 z" fill="#202020"/></marker></defs><line x1="430" y1="104" x2="255" y2="146" class="edgeMissing"/><line x1="430" y1="104" x2="605" y2="146" class="edgeMissing"/><rect x="368" y="38" width="124" height="64" class="nodeHi" rx="7"/><text x="430" y="64" text-anchor="middle" class="label">0</text><text x="430" y="87" text-anchor="middle" class="tiny">[1,16]</text><rect x="396" y="111" width="68" height="25" class="lazy"/><text x="430" y="129" text-anchor="middle" class="tiny">lazy=0</text><rect x="193" y="148" width="124" height="64" class="nodeMissing" rx="7"/><text x="255" y="186" text-anchor="middle" class="small">∅</text><rect x="543" y="148" width="124" height="64" class="nodeMissing" rx="7"/><text x="605" y="186" text-anchor="middle" class="small">∅</text><rect x="113" y="268" width="124" height="64" class="nodeMissing" rx="7"/><text x="175" y="306" text-anchor="middle" class="small">∅</text><rect x="273" y="268" width="124" height="64" class="nodeMissing" rx="7"/><text x="335" y="306" text-anchor="middle" class="small">∅</text><rect x="463" y="268" width="124" height="64" class="nodeMissing" rx="7"/><text x="525" y="306" text-anchor="middle" class="small">∅</text><rect x="623" y="268" width="124" height="64" class="nodeMissing" rx="7"/><text x="685" y="306" text-anchor="middle" class="small">∅</text><text x="430" y="388" text-anchor="middle" class="label">범위 [1, 16] 중 루트만 생성</text></svg>