<svg xmlns="http://www.w3.org/2000/svg" width="860" height="560" viewBox="0 0 860 560"><rect width="100%" height="100%" fill="white"/>
<style>
text{font-family:"Noto Sans CJK KR","Malgun Gothic",Arial,sans-serif;fill:#202020}
.node{fill:white;stroke:#444;stroke-width:1.4}
.node2{fill:#f3f3f3;stroke:#222;stroke-width:1.8}
.edge{stroke:#888;stroke-width:1.2}
.small{font-size:13px}
.label{font-size:15px}
.val{font-size:14px;font-family:Consolas,monospace}
</style>
<line x1="400" y1="93" x2="220" y2="135" class="edge"/><line x1="400" y1="93" x2="580" y2="135" class="edge"/><line x1="220" y1="193" x2="110" y2="245" class="edge"/><line x1="220" y1="193" x2="330" y2="245" class="edge"/><line x1="580" y1="193" x2="510" y2="245" class="edge"/><line x1="580" y1="193" x2="690" y2="245" class="edge"/><line x1="330" y1="303" x2="250" y2="355" class="edge"/><line x1="330" y1="303" x2="410" y2="355" class="edge"/><line x1="690" y1="303" x2="620" y2="355" class="edge"/><line x1="690" y1="303" x2="760" y2="355" class="edge"/><line x1="250" y1="413" x2="185" y2="465" class="edge"/><line x1="250" y1="413" x2="315" y2="465" class="edge"/><line x1="620" y1="413" x2="560" y2="465" class="edge"/><line x1="620" y1="413" x2="680" y2="465" class="edge"/>
<rect x="354" y="35" width="92" height="58" rx="4" class="node"/>
<text x="400" y="53" text-anchor="middle" class="small">[0,15]</text>
<text x="400" y="71" text-anchor="middle" class="val">val=3</text>
<text x="400" y="88" text-anchor="middle" class="val">lazy=0</text>

<rect x="174" y="135" width="92" height="58" rx="4" class="node"/>
<text x="220" y="153" text-anchor="middle" class="small">[0,7]</text>
<text x="220" y="171" text-anchor="middle" class="val">val=3</text>
<text x="220" y="188" text-anchor="middle" class="val">lazy=0</text>

<rect x="534" y="135" width="92" height="58" rx="4" class="node"/>
<text x="580" y="153" text-anchor="middle" class="small">[8,15]</text>
<text x="580" y="171" text-anchor="middle" class="val">val=3</text>
<text x="580" y="188" text-anchor="middle" class="val">lazy=0</text>

<rect x="64" y="245" width="92" height="58" rx="4" class="node"/>
<text x="110" y="263" text-anchor="middle" class="small">[0,3]</text>
<text x="110" y="281" text-anchor="middle" class="val">val=0</text>
<text x="110" y="298" text-anchor="middle" class="val">lazy=0</text>

<rect x="284" y="245" width="92" height="58" rx="4" class="node"/>
<text x="330" y="263" text-anchor="middle" class="small">[4,7]</text>
<text x="330" y="281" text-anchor="middle" class="val">val=3</text>
<text x="330" y="298" text-anchor="middle" class="val">lazy=0</text>

<rect x="464" y="245" width="92" height="58" rx="4" class="node2"/>
<text x="510" y="263" text-anchor="middle" class="small">[8,11]</text>
<text x="510" y="281" text-anchor="middle" class="val">val=3</text>
<text x="510" y="298" text-anchor="middle" class="val">lazy=3</text>

<rect x="644" y="245" width="92" height="58" rx="4" class="node"/>
<text x="690" y="263" text-anchor="middle" class="small">[12,15]</text>
<text x="690" y="281" text-anchor="middle" class="val">val=3</text>
<text x="690" y="298" text-anchor="middle" class="val">lazy=0</text>

<rect x="204" y="355" width="92" height="58" rx="4" class="node"/>
<text x="250" y="373" text-anchor="middle" class="small">[4,5]</text>
<text x="250" y="391" text-anchor="middle" class="val">val=3</text>
<text x="250" y="408" text-anchor="middle" class="val">lazy=0</text>

<rect x="364" y="355" width="92" height="58" rx="4" class="node2"/>
<text x="410" y="373" text-anchor="middle" class="small">[6,7]</text>
<text x="410" y="391" text-anchor="middle" class="val">val=3</text>
<text x="410" y="408" text-anchor="middle" class="val">lazy=3</text>

<rect x="574" y="355" width="92" height="58" rx="4" class="node"/>
<text x="620" y="373" text-anchor="middle" class="small">[12,13]</text>
<text x="620" y="391" text-anchor="middle" class="val">val=3</text>
<text x="620" y="408" text-anchor="middle" class="val">lazy=0</text>

<rect x="714" y="355" width="92" height="58" rx="4" class="node"/>
<text x="760" y="373" text-anchor="middle" class="small">[14,15]</text>
<text x="760" y="391" text-anchor="middle" class="val">val=0</text>
<text x="760" y="408" text-anchor="middle" class="val">lazy=0</text>

<rect x="139" y="465" width="92" height="58" rx="4" class="node"/>
<text x="185" y="483" text-anchor="middle" class="small">[4,4]</text>
<text x="185" y="501" text-anchor="middle" class="val">val=0</text>
<text x="185" y="518" text-anchor="middle" class="val">lazy=0</text>

<rect x="269" y="465" width="92" height="58" rx="4" class="node2"/>
<text x="315" y="483" text-anchor="middle" class="small">[5,5]</text>
<text x="315" y="501" text-anchor="middle" class="val">val=3</text>
<text x="315" y="518" text-anchor="middle" class="val">lazy=3</text>

<rect x="514" y="465" width="92" height="58" rx="4" class="node2"/>
<text x="560" y="483" text-anchor="middle" class="small">[12,12]</text>
<text x="560" y="501" text-anchor="middle" class="val">val=3</text>
<text x="560" y="518" text-anchor="middle" class="val">lazy=3</text>

<rect x="634" y="465" width="92" height="58" rx="4" class="node"/>
<text x="680" y="483" text-anchor="middle" class="small">[13,13]</text>
<text x="680" y="501" text-anchor="middle" class="val">val=0</text>
<text x="680" y="518" text-anchor="middle" class="val">lazy=0</text>
</svg>