<?xml version="1.0" encoding="UTF-8" standalone="no"?>
<!-- Created with Inkscape (http://www.inkscape.org/) -->

<svg
   version="1.1"
   id="svg1"
   width="512.58667"
   height="280.85333"
   viewBox="0 0 512.58667 280.85333"
   sodipodi:docname="1.pdf"
   xmlns:inkscape="http://www.inkscape.org/namespaces/inkscape"
   xmlns:sodipodi="http://sodipodi.sourceforge.net/DTD/sodipodi-0.dtd"
   xmlns="http://www.w3.org/2000/svg"
   xmlns:svg="http://www.w3.org/2000/svg">
  <defs
     id="defs1" />
  <sodipodi:namedview
     id="namedview1"
     pagecolor="#ffffff"
     bordercolor="#000000"
     borderopacity="0.25"
     inkscape:showpageshadow="2"
     inkscape:pageopacity="0.0"
     inkscape:pagecheckerboard="0"
     inkscape:deskcolor="#d1d1d1">
    <inkscape:page
       x="0"
       y="0"
       inkscape:label="1"
       id="page1"
       width="512.58667"
       height="280.85333"
       margin="0"
       bleed="0" />
  </sodipodi:namedview>
  <g
     id="g1"
     inkscape:groupmode="layer"
     inkscape:label="1">
    <path
       id="path1"
       d="m 6.6322734,-2.8952109 h 0.3867188 c 0.1289062,-0.328125 0.2109375,-0.9023438 0.2109375,-1.4296875 v -2.4492188 l 0.011719,-0.4570312 c 0,-0.09375 -0.023437,-0.1523438 -0.1054687,-0.1875 -0.2460938,-0.1054688 -0.8203125,-0.2226563 -1.1367188,-0.234375 -0.070312,0 -0.09375,0.023437 -0.1054687,0.046875 l -0.070312,0.2226562 c 0.3164062,0.1054688 0.609375,0.2695313 0.7617187,0.4570313 v 2.8007812 c 0,0.328125 0.011719,0.9375 0.046874,1.2304688 z m 0.011719,0.3984375 -0.2929688,0.1289062 c -0.4101562,0.023437 -2.9414062,0.058594 -3.3398437,0.058594 -0.2109375,0 -0.5976563,-0.035156 -0.8554688,-0.070312 l -0.058594,0.1054687 c -0.023437,0.023437 -0.011719,0.046875 0.023437,0.082031 0.1875,0.1523437 0.4921875,0.328125 0.7617187,0.4101562 0.1640625,-0.070312 0.515625,-0.1289062 0.6796875,-0.140625 0.375,-0.023437 2.6132813,-0.058594 2.9882813,-0.058594 0.1992187,0 0.65625,0.011719 0.8320312,0.035156 0.058594,-0.035156 0.1523438,-0.1640625 0.1523438,-0.3164062 0,-0.046875 -0.035156,-0.082031 -0.082031,-0.1054688 -0.1757812,-0.058594 -0.5507812,-0.1171875 -0.8085932,-0.1289061 z m -6.10546876,0.2226562 0.10546875,0.1054688 c 0.0234375,0.011719 0.0585938,0.011719 0.09375,-0.023437 1.91015601,-0.9257818 3.55078101,-2.5195318 4.10156231,-4.007813 l 0.1523437,-0.2695313 c 0.023437,-0.035156 0.023437,-0.070312 -0.011719,-0.1054687 -0.082031,-0.046875 -0.28125,-0.1640625 -0.3867188,-0.1992188 -0.046875,-0.023437 -0.1171875,-0.023437 -0.1523437,0 l -0.2929688,0.1523438 c -0.4335937,0.023437 -2.1445312,0.046875 -2.4726562,0.046875 -0.2109375,0 -0.515625,-0.011719 -0.75000001,-0.046875 l -0.0703125,0.1054687 c 0,0.023437 0,0.046875 0.0351563,0.082031 0.17578121,0.140625 0.43359371,0.2929687 0.66796881,0.3632812 0.1640625,-0.046875 0.4804687,-0.1171875 0.6445312,-0.1289062 0.2578125,-0.023437 1.4179688,-0.035156 1.8867187,-0.035156 -0.5859374,1.3359375 -1.8749999,2.7773438 -3.55078121,3.890625 -0.0234375,0.011719 -0.0234375,0.035156 4.5e-7,0.070312 z m 6.32812496,2.26171876 -0.28125,0.140625 H 6.3744609 l 0.023437,-1.25390626 0.023437,-0.3398437 c 0.011719,-0.070312 -0.023437,-0.1171875 -0.082031,-0.140625 -0.1992188,-0.058594 -0.5625,-0.1289063 -0.8203125,-0.1289063 -0.070312,0 -0.082031,0.011719 -0.1054688,0.035156 L 5.3549286,-1.50068 c 0.1992187,0.070312 0.3632812,0.1523438 0.4570312,0.2460938 V 0.15166406 L 4.1127422,0.17510156 4.0658672,-0.82099219 V -1.1491172 c 0,-0.058594 -0.011719,-0.1054687 -0.082031,-0.140625 -0.1875,-0.09375 -0.5625,-0.1875 -0.8085937,-0.2226562 -0.058594,0 -0.09375,0.011719 -0.1054688,0.046875 l -0.058594,0.1875 c 0.1992187,0.09375 0.3632812,0.2109375 0.4570312,0.33984371 l 0.082031,1.125 -0.703125,0.0117188 c -0.2109375,0 -0.609375,-0.0234375 -0.8789063,-0.0820312 l -0.046875,0.1171875 c -0.011719,0.0117188 0,0.046875 0.023437,0.0703125 0.1992188,0.15234375 0.5039063,0.328125 0.7734375,0.3984375 0.1640625,-0.046875 0.515625,-0.1171875 0.6914063,-0.12890625 0.4101562,-0.0234375 2.9414062,-0.0820313 3.3632812,-0.0820313 0.1992188,0 0.6445313,0.0117188 0.8085938,0.0351563 0.070312,-0.046875 0.1523437,-0.17578125 0.1523437,-0.328125 0,-0.0585938 -0.023437,-0.10546875 -0.082031,-0.1171875 C 7.4877416,0.03447666 7.1127416,-6.795875e-4 6.8666486,-0.01239844 Z M 13.654734,-4.0319297 c 0,-1.1367187 -0.867187,-1.921875 -2.050781,-1.921875 -1.195312,0 -2.0742186,0.7851563 -2.0742186,1.921875 0,1.1367188 0.8789066,1.9335938 2.0742186,1.9335938 1.183594,0 2.050781,-0.796875 2.050781,-1.9335938 z m -0.667968,0 c 0,0.9023438 -0.597657,1.4296875 -1.382813,1.4296875 -0.785156,0 -1.394531,-0.5273437 -1.394531,-1.4296875 0,-0.890625 0.609375,-1.4296875 1.394531,-1.4296875 0.785156,0 1.382813,0.5390625 1.382813,1.4296875 z m 2.332031,5.00390626 h 0.375 c 0.117187,-0.515625 0.210937,-1.359375 0.210937,-1.875 V -6.7623984 l 0.02344,-0.46875 c 0,-0.09375 -0.03516,-0.1523438 -0.117188,-0.1875 -0.257812,-0.1054688 -0.808593,-0.2226563 -1.136718,-0.234375 -0.08203,0 -0.09375,0.023437 -0.105469,0.046875 l -0.07031,0.2226562 c 0.328125,0.1054688 0.609375,0.2695313 0.773438,0.4570313 v 6.24609371 c 0,0.3984375 0.01172,1.265625 0.04687,1.65234375 z m 6.773437,-0.84375 c 1.03125,0 2.015625,-0.9375 2.015625,-3.25781246 0,-2.34375 -0.984375,-3.3046875 -2.015625,-3.3046875 -1.054687,0 -2.027343,0.9609375 -2.027343,3.3046875 0,2.32031246 0.972656,3.25781246 2.027343,3.25781246 z m 0,-0.26953125 c -0.65625,0 -1.265625,-0.71484375 -1.265625,-2.98828121 0,-2.3085938 0.609375,-3.0351563 1.265625,-3.0351563 0.632813,0 1.265625,0.7382813 1.265625,3.0351563 0,2.26171871 -0.632812,2.98828121 -1.265625,2.98828121 z m 0,0"
       style="fill:#64748b;fill-opacity:1;fill-rule:nonzero;stroke:none"
       aria-label="깊이0"
       transform="matrix(1.3333333,0,0,1.3333333,20.364,41.872)" />
    <path
       id="path2"
       d="m 6.6322734,-2.89475 h 0.3867188 c 0.1289062,-0.328125 0.2109375,-0.9023438 0.2109375,-1.4296875 v -2.4492188 l 0.011719,-0.4570312 c 0,-0.09375 -0.023437,-0.1523438 -0.1054687,-0.1875 -0.2460938,-0.1054688 -0.8203125,-0.2226563 -1.1367188,-0.234375 -0.070312,0 -0.09375,0.023437 -0.1054687,0.046875 l -0.070312,0.2226562 C 6.1400859,-7.2775625 6.4330547,-7.1135 6.5853984,-6.926 v 2.8007812 c 0,0.328125 0.011719,0.9375 0.046875,1.2304688 z m 0.011719,0.3984375 -0.2929688,0.1289062 c -0.4101562,0.023437 -2.9414062,0.058594 -3.3398437,0.058594 -0.2109375,0 -0.5976563,-0.035156 -0.8554688,-0.070312 l -0.058594,0.1054687 c -0.023437,0.023437 -0.011719,0.046875 0.023437,0.082031 0.1875,0.1523437 0.4921875,0.328125 0.7617187,0.4101562 0.1640625,-0.070312 0.515625,-0.1289062 0.6796875,-0.140625 0.375,-0.023437 2.6132813,-0.058594 2.9882813,-0.058594 0.1992187,0 0.65625,0.011719 0.8320312,0.035156 0.058594,-0.035156 0.1523438,-0.1640625 0.1523438,-0.3164062 0,-0.046875 -0.035156,-0.082031 -0.082031,-0.1054688 C 7.2768047,-2.426 6.9018047,-2.4845938 6.6439924,-2.4963125 Z m -6.10546876,0.2226562 0.10546875,0.1054688 c 0.0234375,0.011719 0.0585938,0.011719 0.09375,-0.023437 1.91015601,-0.9257818 3.55078101,-2.5195318 4.10156231,-4.007813 l 0.1523437,-0.2695313 c 0.023437,-0.035156 0.023437,-0.070312 -0.011719,-0.1054687 -0.082031,-0.046875 -0.28125,-0.1640625 -0.3867188,-0.1992188 -0.046875,-0.023437 -0.1171875,-0.023437 -0.1523437,0 l -0.2929688,0.1523438 c -0.4335937,0.023437 -2.1445312,0.046875 -2.4726562,0.046875 -0.2109375,0 -0.515625,-0.011719 -0.75000001,-0.046875 l -0.0703125,0.1054687 c 0,0.023437 0,0.046875 0.0351563,0.082031 0.17578121,0.140625 0.43359371,0.2929687 0.66796881,0.3632812 0.1640625,-0.046875 0.4804687,-0.1171875 0.6445312,-0.1289062 0.2578125,-0.023437 1.4179688,-0.035156 1.8867187,-0.035156 -0.5859374,1.3359375 -1.8749999,2.7773438 -3.55078121,3.890625 -0.0234375,0.011719 -0.0234375,0.035156 4.5e-7,0.070312 z m 6.32812496,2.2617188 -0.28125,0.140625 H 6.3744609 l 0.023437,-1.2539063 0.023437,-0.3398437 c 0.011719,-0.070312 -0.023437,-0.1171875 -0.082031,-0.140625 -0.1992188,-0.058594 -0.5625,-0.1289063 -0.8203125,-0.1289063 -0.070312,0 -0.082031,0.011719 -0.1054688,0.035156 l -0.058594,0.1992187 c 0.1992187,0.070312 0.3632812,0.1523438 0.4570312,0.2460938 v 1.40625 L 4.1127422,0.1755625 4.0658672,-0.82053125 V -1.1486563 c 0,-0.058594 -0.011719,-0.1054687 -0.082031,-0.140625 -0.1875,-0.09375 -0.5625,-0.1875 -0.8085937,-0.2226562 -0.058594,0 -0.09375,0.011719 -0.1054688,0.046875 l -0.058594,0.1875 c 0.1992187,0.09375 0.3632812,0.2109375 0.4570312,0.33984375 l 0.082031,1.125 L 2.8471172,0.199 c -0.2109375,0 -0.609375,-0.0234375 -0.8789063,-0.0820313 l -0.046875,0.1171875 c -0.011719,0.0117188 0,0.046875 0.023437,0.0703125 0.1992188,0.15234375 0.5039063,0.328125 0.7734375,0.3984375 C 2.8822734,0.65603125 3.2338359,0.58571875 3.4096172,0.574 3.8197734,0.5505625 6.3510234,0.49196875 6.7728984,0.49196875 c 0.1992188,0 0.6445313,0.0117187 0.8085938,0.0351562 C 7.6518047,0.48025 7.7338359,0.35134375 7.7338359,0.199 c 0,-0.0585938 -0.023437,-0.10546875 -0.082031,-0.1171875 -0.1640625,-0.046875 -0.5390625,-0.08203125 -0.7851563,-0.09375 z m 6.7880854,-4.0195313 c 0,-1.1367187 -0.867187,-1.921875 -2.050781,-1.921875 -1.195312,0 -2.0742184,0.7851563 -2.0742184,1.921875 0,1.1367188 0.8789064,1.9335938 2.0742184,1.9335938 1.183594,0 2.050781,-0.796875 2.050781,-1.9335938 z m -0.667968,0 c 0,0.9023438 -0.597657,1.4296875 -1.382813,1.4296875 -0.785156,0 -1.394531,-0.5273437 -1.394531,-1.4296875 0,-0.890625 0.609375,-1.4296875 1.394531,-1.4296875 0.785156,0 1.382813,0.5390625 1.382813,1.4296875 z m 2.332031,5.0039063 h 0.375 c 0.117187,-0.515625 0.210937,-1.359375 0.210937,-1.875 v -5.859375 l 0.02344,-0.46875 c 0,-0.09375 -0.03516,-0.1523438 -0.117188,-0.1875 -0.257812,-0.1054688 -0.808593,-0.2226563 -1.136718,-0.234375 -0.08203,0 -0.09375,0.023437 -0.105469,0.046875 l -0.07031,0.2226562 c 0.32812,0.1054688 0.60937,0.2695313 0.773433,0.4570313 v 6.24609375 c 0,0.3984375 0.01172,1.265625 0.04687,1.65234375 z m 6.480469,-0.97265625 h 2.144531 V -0.2463125 L 22.584422,-0.3635 c -0.01172,-0.57421875 -0.02344,-1.1484375 -0.02344,-1.6992188 v -2.8125 l 0.03516,-1.4179687 -0.128907,-0.09375 -1.957031,0.4921875 v 0.2695312 l 1.3125,-0.2109375 v 3.7734375 l -0.01172,1.6992188 -1.429687,0.1171875 v 0.24609375 z m 0,0"
       style="fill:#64748b;fill-opacity:1;fill-rule:nonzero;stroke:none"
       aria-label="깊이1"
       transform="matrix(1.3333333,0,0,1.3333333,20.364,104.23467)" />
    <path
       id="path3"
       d="m 6.6322734,-2.8952891 h 0.3867188 c 0.1289062,-0.328125 0.2109375,-0.9023437 0.2109375,-1.4296875 v -2.4492187 l 0.011719,-0.4570313 c 0,-0.09375 -0.023437,-0.1523437 -0.1054687,-0.1875 -0.2460938,-0.1054687 -0.8203125,-0.2226562 -1.1367188,-0.234375 -0.070312,0 -0.09375,0.023437 -0.1054687,0.046875 l -0.070312,0.2226563 c 0.3164062,0.1054687 0.609375,0.2695312 0.7617187,0.4570312 v 2.8007813 c 0,0.328125 0.011719,0.9375 0.046874,1.2304687 z m 0.011719,0.3984375 -0.2929688,0.1289063 c -0.4101562,0.023437 -2.9414062,0.058594 -3.3398437,0.058594 -0.2109375,0 -0.5976563,-0.035156 -0.8554688,-0.070312 l -0.058594,0.1054688 c -0.023437,0.023437 -0.011719,0.046875 0.023437,0.082031 0.1875,0.1523438 0.4921875,0.328125 0.7617187,0.4101563 0.1640625,-0.070312 0.515625,-0.1289063 0.6796875,-0.140625 0.375,-0.023437 2.6132813,-0.058594 2.9882813,-0.058594 0.1992187,0 0.65625,0.011719 0.8320312,0.035156 0.058594,-0.035156 0.1523438,-0.1640625 0.1523438,-0.3164063 0,-0.046875 -0.035156,-0.082031 -0.082031,-0.1054687 -0.1757812,-0.058594 -0.5507812,-0.1171875 -0.8085932,-0.1289064 z m -6.10546876,0.2226563 0.10546875,0.1054687 c 0.0234375,0.011719 0.0585938,0.011719 0.09375,-0.023437 1.91015601,-0.9257817 3.55078101,-2.5195317 4.10156231,-4.007813 l 0.1523437,-0.2695312 c 0.023437,-0.035156 0.023437,-0.070312 -0.011719,-0.1054688 -0.082031,-0.046875 -0.28125,-0.1640625 -0.3867188,-0.1992187 -0.046875,-0.023437 -0.1171875,-0.023437 -0.1523437,0 l -0.2929688,0.1523437 c -0.4335937,0.023437 -2.1445312,0.046875 -2.4726562,0.046875 -0.2109375,0 -0.515625,-0.011719 -0.75000001,-0.046875 l -0.0703125,0.1054688 c 0,0.023437 0,0.046875 0.0351563,0.082031 0.17578121,0.140625 0.43359371,0.2929688 0.66796881,0.3632813 0.1640625,-0.046875 0.4804687,-0.1171875 0.6445312,-0.1289063 0.2578125,-0.023437 1.4179688,-0.035156 1.8867187,-0.035156 -0.5859374,1.3359375 -1.8749999,2.7773437 -3.55078121,3.890625 -0.0234375,0.011719 -0.0234375,0.035156 4.5e-7,0.070312 z m 6.32812496,2.26171874 -0.28125,0.140625 H 6.3744609 l 0.023437,-1.25390624 0.023437,-0.3398438 c 0.011719,-0.070312 -0.023437,-0.1171875 -0.082031,-0.140625 -0.1992188,-0.058594 -0.5625,-0.1289062 -0.8203125,-0.1289062 -0.070312,0 -0.082031,0.011719 -0.1054688,0.035156 l -0.058594,0.1992188 c 0.1992187,0.070312 0.3632812,0.1523437 0.4570312,0.2460937 V 0.15158594 L 4.1127422,0.17502344 4.0658672,-0.82107031 V -1.1491953 c 0,-0.058594 -0.011719,-0.1054688 -0.082031,-0.140625 -0.1875,-0.09375 -0.5625,-0.1875 -0.8085937,-0.2226563 -0.058594,0 -0.09375,0.011719 -0.1054688,0.046875 l -0.058594,0.1875 c 0.1992187,0.09375 0.3632812,0.2109375 0.4570312,0.33984379 l 0.082031,1.125 -0.703125,0.0117188 c -0.2109375,0 -0.609375,-0.0234375 -0.8789063,-0.0820313 l -0.046875,0.1171875 c -0.011719,0.0117188 0,0.046875 0.023437,0.0703125 0.1992188,0.15234375 0.5039063,0.328125 0.7734375,0.3984375 0.1640625,-0.046875 0.515625,-0.1171875 0.6914063,-0.12890625 0.4101562,-0.0234375 2.9414062,-0.0820313 3.3632812,-0.0820313 0.1992188,0 0.6445313,0.0117188 0.8085938,0.0351563 0.070312,-0.046875 0.1523437,-0.17578125 0.1523437,-0.328125 0,-0.0585938 -0.023437,-0.10546875 -0.082031,-0.1171875 -0.1640625,-0.046875 -0.5390625,-0.0820312525 -0.7851555,-0.09375 z M 13.654734,-4.0320078 c 0,-1.1367188 -0.867187,-1.921875 -2.050781,-1.921875 -1.195312,0 -2.0742186,0.7851562 -2.0742186,1.921875 0,1.1367187 0.8789066,1.9335937 2.0742186,1.9335937 1.183594,0 2.050781,-0.796875 2.050781,-1.9335937 z m -0.667968,0 c 0,0.9023437 -0.597657,1.4296875 -1.382813,1.4296875 -0.785156,0 -1.394531,-0.5273438 -1.394531,-1.4296875 0,-0.890625 0.609375,-1.4296875 1.394531,-1.4296875 0.785156,0 1.382813,0.5390625 1.382813,1.4296875 z m 2.332031,5.00390624 h 0.375 c 0.117187,-0.515625 0.210937,-1.359375 0.210937,-1.875 V -6.7624766 l 0.02344,-0.46875 c 0,-0.09375 -0.03516,-0.1523437 -0.117188,-0.1875 -0.257812,-0.1054687 -0.808593,-0.2226562 -1.136718,-0.234375 -0.08203,0 -0.09375,0.023437 -0.105469,0.046875 l -0.07031,0.2226563 c 0.328125,0.1054687 0.609375,0.2695312 0.773438,0.4570312 v 6.24609379 c 0,0.3984375 0.01172,1.265625 0.04687,1.65234375 z m 4.78125,-0.9726562525 h 4.019531 V -0.63357031 h -3.527344 l 1.359375,-1.35937499 c 1.394532,-1.3125 1.898438,-1.9921875 1.898438,-2.8007813 0,-1.0078125 -0.621094,-1.640625 -1.816406,-1.640625 -0.925782,0 -1.78125,0.46875 -1.921875,1.3828125 0.05859,0.1757813 0.1875,0.2695313 0.363281,0.2695313 0.210937,0 0.351562,-0.1054688 0.433594,-0.46875 l 0.222656,-0.7617188 c 0.234375,-0.1054687 0.457031,-0.1523437 0.679687,-0.1523437 0.796875,0 1.265625,0.5039062 1.265625,1.359375 0,0.7851562 -0.421875,1.5117187 -1.347656,2.53125 -0.433594,0.46875 -1.019531,1.1484375 -1.628906,1.79296874 z m 0,0"
       style="fill:#64748b;fill-opacity:1;fill-rule:nonzero;stroke:none"
       aria-label="깊이2"
       transform="matrix(1.3333333,0,0,1.3333333,20.364,166.59867)" />
    <path
       id="path4"
       d="m 6.6322734,-2.8948281 h 0.3867188 c 0.1289062,-0.328125 0.2109375,-0.9023438 0.2109375,-1.4296875 v -2.4492188 l 0.011719,-0.4570312 c 0,-0.09375 -0.023437,-0.1523438 -0.1054687,-0.1875 -0.2460938,-0.1054688 -0.8203125,-0.2226563 -1.1367188,-0.234375 -0.070312,0 -0.09375,0.023437 -0.1054687,0.046875 l -0.070312,0.2226562 c 0.3164062,0.1054688 0.609375,0.2695313 0.7617187,0.4570313 v 2.8007812 c 0,0.328125 0.011719,0.9375 0.046874,1.2304688 z m 0.011719,0.3984375 -0.2929688,0.1289062 c -0.4101562,0.023437 -2.9414062,0.058594 -3.3398437,0.058594 -0.2109375,0 -0.5976563,-0.035156 -0.8554688,-0.070312 l -0.058594,0.1054687 c -0.023437,0.023437 -0.011719,0.046875 0.023437,0.082031 0.1875,0.1523437 0.4921875,0.328125 0.7617187,0.4101562 0.1640625,-0.070312 0.515625,-0.1289062 0.6796875,-0.140625 0.375,-0.023437 2.6132813,-0.058594 2.9882813,-0.058594 0.1992187,0 0.65625,0.011719 0.8320312,0.035156 0.058594,-0.035156 0.1523438,-0.1640625 0.1523438,-0.3164062 0,-0.046875 -0.035156,-0.082031 -0.082031,-0.1054688 C 7.2768044,-2.4260785 6.9018044,-2.484672 6.6439924,-2.4963906 Z m -6.10546876,0.2226562 0.10546875,0.1054688 c 0.0234375,0.011719 0.0585938,0.011719 0.09375,-0.023437 1.91015601,-0.9257818 3.55078101,-2.5195318 4.10156231,-4.007813 l 0.1523437,-0.2695313 c 0.023437,-0.035156 0.023437,-0.070312 -0.011719,-0.1054687 -0.082031,-0.046875 -0.28125,-0.1640625 -0.3867188,-0.1992188 -0.046875,-0.023437 -0.1171875,-0.023437 -0.1523437,0 l -0.2929688,0.1523438 c -0.4335937,0.023437 -2.1445312,0.046875 -2.4726562,0.046875 -0.2109375,0 -0.515625,-0.011719 -0.75000001,-0.046875 l -0.0703125,0.1054687 c 0,0.023437 0,0.046875 0.0351563,0.082031 0.17578121,0.140625 0.43359371,0.2929687 0.66796881,0.3632812 0.1640625,-0.046875 0.4804687,-0.1171875 0.6445312,-0.1289062 0.2578125,-0.023437 1.4179688,-0.035156 1.8867187,-0.035156 -0.5859374,1.3359375 -1.8749999,2.7773438 -3.55078121,3.890625 -0.0234375,0.011719 -0.0234375,0.035156 4.5e-7,0.070312 z m 6.32812496,2.26171877 -0.28125,0.140625 H 6.3744609 l 0.023437,-1.25390627 0.023437,-0.3398437 c 0.011719,-0.070312 -0.023437,-0.1171875 -0.082031,-0.140625 -0.1992188,-0.058594 -0.5625,-0.1289063 -0.8203125,-0.1289063 -0.070312,0 -0.082031,0.011719 -0.1054688,0.035156 l -0.058594,0.1992187 c 0.1992187,0.070312 0.3632812,0.1523438 0.4570312,0.2460938 V 0.15204687 L 4.1127422,0.17548437 4.0658672,-0.82060938 V -1.1487344 c 0,-0.058594 -0.011719,-0.1054687 -0.082031,-0.140625 -0.1875,-0.09375 -0.5625,-0.1875 -0.8085937,-0.2226562 -0.058594,0 -0.09375,0.011719 -0.1054688,0.046875 l -0.058594,0.1875 c 0.1992187,0.09375 0.3632812,0.2109375 0.4570312,0.33984372 l 0.082031,1.125 -0.703125,0.0117188 c -0.2109375,0 -0.609375,-0.0234375 -0.8789063,-0.0820313 l -0.046875,0.1171875 c -0.011719,0.0117188 0,0.046875 0.023437,0.0703125 0.1992188,0.15234375 0.5039063,0.328125 0.7734375,0.3984375 0.1640625,-0.046875 0.515625,-0.1171875 0.6914063,-0.12890625 0.4101562,-0.0234375 2.9414062,-0.0820312 3.3632812,-0.0820312 0.1992188,0 0.6445313,0.0117187 0.8085938,0.0351562 0.070312,-0.046875 0.1523437,-0.17578125 0.1523437,-0.328125 0,-0.0585938 -0.023437,-0.10546875 -0.082031,-0.1171875 -0.1640625,-0.046875 -0.5390625,-0.082031245 -0.7851555,-0.09375 z M 13.654734,-4.0315469 c 0,-1.1367187 -0.867187,-1.921875 -2.050781,-1.921875 -1.195312,0 -2.0742186,0.7851563 -2.0742186,1.921875 0,1.1367188 0.8789066,1.9335938 2.0742186,1.9335938 1.183594,0 2.050781,-0.796875 2.050781,-1.9335938 z m -0.667968,0 c 0,0.9023438 -0.597657,1.4296875 -1.382813,1.4296875 -0.785156,0 -1.394531,-0.5273437 -1.394531,-1.4296875 0,-0.890625 0.609375,-1.4296875 1.394531,-1.4296875 0.785156,0 1.382813,0.5390625 1.382813,1.4296875 z m 2.332031,5.00390627 h 0.375 c 0.117187,-0.515625 0.210937,-1.359375 0.210937,-1.875 V -6.7620156 l 0.02344,-0.46875 c 0,-0.09375 -0.03516,-0.1523438 -0.117188,-0.1875 -0.257812,-0.1054688 -0.808593,-0.2226563 -1.136718,-0.234375 -0.08203,0 -0.09375,0.023437 -0.105469,0.046875 l -0.07031,0.2226562 c 0.328125,0.1054688 0.609375,0.2695313 0.773438,0.4570313 v 6.24609372 c 0,0.3984375 0.01172,1.265625 0.04687,1.65234375 z m 6.609375,-0.84375 c 1.253906,0 2.132812,-0.71484375 2.132812,-1.79296877 0,-0.8671875 -0.527343,-1.4882812 -1.652343,-1.6523437 0.972656,-0.234375 1.453125,-0.84375 1.453125,-1.5703125 0,-0.9023438 -0.667969,-1.546875 -1.816407,-1.546875 -0.84375,0 -1.640625,0.375 -1.757812,1.2539062 0.03516,0.1523438 0.1875,0.2109375 0.339844,0.2109375 0.222656,0 0.351562,-0.1054687 0.421875,-0.3867187 l 0.1875,-0.6914063 c 0.210937,-0.070312 0.421875,-0.1171875 0.644531,-0.1171875 0.785156,0 1.230469,0.4921875 1.230469,1.2890625 0,0.9257813 -0.621094,1.4296875 -1.488282,1.4296875 h -0.375 v 0.3046875 h 0.410157 c 1.078125,0 1.617187,0.5273438 1.617187,1.4882813 0,0.92578122 -0.539062,1.51171872 -1.546875,1.51171872 -0.269531,0 -0.492187,-0.046875 -0.691406,-0.12890625 l -0.175781,-0.69140625 c -0.08203,-0.32812502 -0.199219,-0.46875002 -0.421875,-0.46875002 -0.175782,0 -0.328125,0.09375 -0.386719,0.28125 0.164062,0.83203127 0.84375,1.27734377 1.875,1.27734377 z m 0,0"
       style="fill:#64748b;fill-opacity:1;fill-rule:nonzero;stroke:none"
       aria-label="깊이3"
       transform="matrix(1.3333333,0,0,1.3333333,20.364,228.96133)" />
    <path
       id="path5"
       d="m 15.59073,0 c 0,8.61063 -6.9801,15.59073 -15.59073,15.59073 -8.61063,0 -15.59073,-6.9801 -15.59073,-15.59073 0,-8.61063 6.9801,-15.59073 15.59073,-15.59073 8.61063,0 15.59073,6.9801 15.59073,15.59073 z"
       style="fill:#ffffff;fill-opacity:1;fill-rule:nonzero;stroke:#dc2626;stroke-width:1.04608;stroke-linecap:butt;stroke-linejoin:miter;stroke-miterlimit:10;stroke-dasharray:none;stroke-opacity:1"
       transform="matrix(1.3333333,0,0,-1.3333333,320.47067,37.418667)" />
    <path
       id="path6"
       d="m 7.3930703,1.0787109 h 0.4101563 c 0.140625,-0.57421871 0.234375,-1.51171871 0.234375,-2.0859375 v -6.5039062 l 0.035156,-0.5273438 c 0,-0.09375 -0.035156,-0.1640625 -0.1289062,-0.1992187 -0.28125,-0.1171875 -0.9140625,-0.2460938 -1.265625,-0.2578125 -0.082031,0 -0.1054688,0.023437 -0.1171875,0.046875 l -0.082031,0.2460937 c 0.3632813,0.1171875 0.6796875,0.2929688 0.8554688,0.5039063 v 6.93749999 c 0,0.4453125 0.023437,1.41796875 0.058594,1.83984371 z M 5.0024453,-3.4564453 3.7016641,-4.8041016 c 0.2929687,-0.5273437 0.4921875,-1.0664062 0.609375,-1.5820312 0.011719,-0.058594 0.023437,-0.1523438 0.023437,-0.2226563 0,-0.070312 -0.046875,-0.140625 -0.1171875,-0.1875 -0.1992188,-0.140625 -0.7734375,-0.3398437 -1.125,-0.4101562 -0.058594,0 -0.082031,0.011719 -0.1054688,0.046875 l -0.1171875,0.2109375 c 0.2578125,0.140625 0.515625,0.3632812 0.609375,0.5507812 -0.328125,1.453125 -1.3828125,3.1757813 -2.80078124,4.5351563 -0.046875,0.046875 -0.046875,0.070312 -0.0234375,0.1054687 l 0.1171875,0.09375 c 0.046875,0.023437 0.0703125,0.023437 0.1171875,0 1.07812504,-0.796875 1.94531254,-1.734375 2.56640624,-2.7070312 l 1.9570313,2.2148437 c 0.070312,0.082031 0.1757812,0.1875 0.234375,0.1992188 0.1054687,0.058594 0.2929687,-0.011719 0.3632812,-0.140625 0.023437,-0.058594 0.011719,-0.1640625 -0.046875,-0.3046875 -0.082031,-0.2109375 -0.3046875,-0.5625 -0.4804687,-0.8085938 z M 18.880375,-4.8392578 c 0.07031,0 0.140625,-0.011719 0.1875,-0.046875 0.07031,-0.046875 0.128906,-0.1875 0.117188,-0.3515625 0,-0.082031 -0.05859,-0.1523438 -0.140625,-0.1757813 -0.175782,-0.035156 -0.585938,-0.058594 -0.878907,-0.046875 l -0.316406,0.1875 -0.703125,0.035156 v -2.2851563 l 0.02344,-0.515625 c 0,-0.09375 -0.02344,-0.1640625 -0.117188,-0.1992187 -0.292969,-0.1171875 -0.902344,-0.2460938 -1.265625,-0.2578125 -0.08203,0 -0.09375,0.023437 -0.105469,0.046875 l -0.08203,0.2460937 c 0.351563,0.1171875 0.667969,0.2929688 0.832031,0.5039063 v 3.6796875 c 0,0.375 0.02344,1.078125 0.07031,1.40625 h 0.410156 c 0.152344,-0.375 0.234375,-1.0429688 0.234375,-1.640625 v -0.5625 z m -2.402344,6.0117187 h 0.433594 c 0.117188,-0.38671871 0.199219,-1.05468746 0.199219,-1.47656246 l 0.02344,-1.34765624 0.117188,-0.3046875 c 0.02344,-0.046875 0.02344,-0.082031 -0.01172,-0.1171875 -0.08203,-0.058594 -0.28125,-0.1757813 -0.375,-0.234375 -0.04687,-0.023437 -0.105469,-0.023437 -0.164062,0 l -0.257813,0.1289062 c -0.632812,0.046875 -3.515625,0.09375 -3.972656,0.09375 -0.28125,0 -0.691406,-0.023437 -0.972656,-0.082031 l -0.07031,0.140625 c -0.01172,0.023437 0,0.070312 0.02344,0.082031 0.246093,0.1875 0.5625,0.3632813 0.867187,0.46875 0.222656,-0.082031 0.65625,-0.1523437 0.890625,-0.1640625 0.421875,-0.035156 2.449219,-0.058594 3.210938,-0.058594 v 1.57031249 c 0,0.36328125 0.01172,0.9609375 0.05859,1.30078121 z m -1.898437,-5.4023437 -1.066406,-0.8671875 c 0.503906,-0.5742188 0.902343,-1.1601563 1.171875,-1.7226563 l 0.1875,-0.28125 c 0.03516,-0.046875 0.03516,-0.1054687 -0.01172,-0.1289062 -0.09375,-0.058594 -0.328125,-0.1757813 -0.457031,-0.2109375 -0.04687,-0.035156 -0.117188,-0.035156 -0.164063,0 l -0.328125,0.1523437 c -0.457031,0.023437 -2.355469,0.058594 -2.730469,0.058594 -0.234375,0 -0.574218,-0.035156 -0.832031,-0.070312 l -0.05859,0.1054687 c -0.02344,0.035156 -0.01172,0.058594 0.02344,0.09375 0.199219,0.1640625 0.480469,0.3515625 0.738281,0.4453125 0.1875,-0.082031 0.539063,-0.1523437 0.714844,-0.1523437 0.269531,-0.023437 1.488281,-0.058594 2.039062,-0.058594 h 0.01172 c -0.691406,1.40625 -2.0625,2.9765625 -3.8320312,4.1367188 -0.023437,0.035156 -0.011719,0.058594 0,0.09375 l 0.1289062,0.1054687 c 0.01172,0.011719 0.04687,0.011719 0.08203,-0.023437 1.125,-0.5742187 2.179688,-1.3476562 3,-2.203125 l 1.734375,1.5351563 c 0.07031,0.070312 0.164063,0.1289062 0.222657,0.140625 0.117187,0.023437 0.28125,-0.046875 0.316406,-0.1757813 0.02344,-0.046875 0.01172,-0.1289062 -0.04687,-0.234375 -0.09375,-0.1523437 -0.257813,-0.4335937 -0.410156,-0.609375 z m 0,0"
       style="fill:#dc2626;fill-opacity:1;fill-rule:nonzero;stroke:none"
       aria-label="시작"
       transform="matrix(1.3333333,0,0,1.3333333,307.63867,42.3)" />
    <path
       id="path7"
       d="m -100.63135,-46.77203 c 0,8.61063 -6.9801,15.59073 -15.59073,15.59073 -8.61062,0 -15.59074,-6.9801 -15.59074,-15.59073 0,-8.61065 6.98012,-15.59075 15.59074,-15.59075 8.61063,0 15.59073,6.9801 15.59073,15.59075 z"
       style="fill:#ffffff;fill-opacity:1;fill-rule:nonzero;stroke:#dc2626;stroke-width:1.04608;stroke-linecap:butt;stroke-linejoin:miter;stroke-miterlimit:10;stroke-dasharray:none;stroke-opacity:1"
       transform="matrix(1.3333333,0,0,-1.3333333,320.47067,37.418667)" />
    <path
       id="path8"
       d="m 2.4263828,-0.00128125 h 2.3789063 v -0.28125 L 3.2935703,-0.4114375 C 3.2818516,-1.04425 3.2701328,-1.6770625 3.2701328,-2.2981562 V -5.4153437 L 3.3052891,-6.997375 3.1646641,-7.1028437 0.99669531,-6.5520625 V -6.247375 L 2.4498203,-6.48175 v 4.1835938 l -0.023437,1.8867187 -1.58203124,0.12890625 v 0.28125 z m 0,0"
       style="fill:#dc2626;fill-opacity:1;fill-rule:nonzero;stroke:none"
       aria-label="1"
       transform="matrix(1.3333333,0,0,1.3333333,161.85467,104.51733)" />
    <path
       id="path9"
       d="m -22.67761,-46.77203 c 0,8.61063 -6.98012,15.59073 -15.59075,15.59073 -8.61062,0 -15.59074,-6.9801 -15.59074,-15.59073 0,-8.61065 6.98012,-15.59075 15.59074,-15.59075 8.61063,0 15.59075,6.9801 15.59075,15.59075 z"
       style="fill:#ffffff;fill-opacity:1;fill-rule:nonzero;stroke:#94a3b8;stroke-width:0.64757;stroke-linecap:butt;stroke-linejoin:miter;stroke-miterlimit:10;stroke-dasharray:none;stroke-opacity:1"
       transform="matrix(1.3333333,0,0,-1.3333333,320.47067,37.418667)" />
    <path
       id="path10"
       d="M 0.53878906,-7.734375e-4 H 5.0036328 V -0.70389844 H 1.0778516 L 2.5895703,-2.2156172 c 1.5585938,-1.453125 2.109375,-2.203125 2.109375,-3.1171875 0,-1.1132812 -0.6796875,-1.8046875 -2.015625,-1.8046875 -1.03125,0 -1.98046874,0.515625 -2.13281249,1.5234375 0.0585938,0.1992188 0.2109375,0.3046875 0.3984375,0.3046875 0.23437499,0 0.39843749,-0.1171875 0.48046879,-0.515625 l 0.2460937,-0.8554687 c 0.2695313,-0.1171875 0.5039063,-0.1640625 0.75,-0.1640625 0.890625,0 1.4179688,0.5507812 1.4179688,1.5 0,0.8789062 -0.4804688,1.6875 -1.5,2.8125 -0.4804688,0.5273437 -1.1367188,1.2773437 -1.80468754,1.99218746 z m 0,0"
       style="fill:#374151;fill-opacity:1;fill-rule:nonzero;stroke:none"
       aria-label="2"
       transform="matrix(1.3333333,0,0,1.3333333,265.79333,104.544)" />
    <path
       id="path11"
       d="m 53.8591,-46.77203 c 0,8.61063 -6.98012,15.59073 -15.59074,15.59073 -8.61063,0 -15.59075,-6.9801 -15.59075,-15.59073 0,-8.61065 6.98012,-15.59075 15.59075,-15.59075 8.61062,0 15.59074,6.9801 15.59074,15.59075 z"
       style="fill:#ffffff;fill-opacity:1;fill-rule:nonzero;stroke:#94a3b8;stroke-width:0.64757;stroke-linecap:butt;stroke-linejoin:miter;stroke-miterlimit:10;stroke-dasharray:none;stroke-opacity:1"
       transform="matrix(1.3333333,0,0,-1.3333333,320.47067,37.418667)" />
    <path
       id="path12"
       d="m 2.5555,0.15332813 c 1.40625,0 2.3789062,-0.796875 2.3789062,-1.99218753 0,-0.984375 -0.5859375,-1.6523437 -1.8398437,-1.8515625 1.078125,-0.2578125 1.6171875,-0.9257812 1.6171875,-1.734375 0,-1.0078125 -0.7382813,-1.7109375 -2.015625,-1.7109375 -0.9375,0 -1.81640625,0.3984375 -1.95703125,1.3828125 0.046875,0.1640625 0.2109375,0.234375 0.37499995,0.234375 0.2460938,0 0.3984375,-0.1171875 0.46875,-0.4335937 l 0.2109375,-0.7617188 c 0.234375,-0.09375 0.46875,-0.1289062 0.7148438,-0.1289062 0.8789062,0 1.3710937,0.5390625 1.3710937,1.4296875 0,1.03125 -0.6914062,1.59375 -1.6523437,1.59375 H 1.8172187 v 0.328125 H 2.27425 c 1.1953125,0 1.7929687,0.5976562 1.7929687,1.6640625 0,1.01953123 -0.5976562,1.66406248 -1.7226562,1.66406248 -0.3046875,0 -0.5390625,-0.046875 -0.7734375,-0.140625 L 1.3719062,-1.0654219 c -0.082031,-0.3632812 -0.2109375,-0.515625 -0.46874995,-0.515625 -0.1875,0 -0.3515625,0.09375 -0.41015625,0.3046875 0.17578125,0.92578128 0.9375,1.42968753 2.0625,1.42968753 z m 0,0"
       style="fill:#374151;fill-opacity:1;fill-rule:nonzero;stroke:none"
       aria-label="3"
       transform="matrix(1.3333333,0,0,1.3333333,367.84267,104.444)" />
    <path
       id="path13"
       d="m 131.81282,-46.77203 c 0,8.61063 -6.98012,15.59073 -15.59074,15.59073 -8.61063,0 -15.59073,-6.9801 -15.59073,-15.59073 0,-8.61065 6.9801,-15.59075 15.59073,-15.59075 8.61062,0 15.59074,6.9801 15.59074,15.59075 z"
       style="fill:#ffffff;fill-opacity:1;fill-rule:nonzero;stroke:#94a3b8;stroke-width:0.64757;stroke-linecap:butt;stroke-linejoin:miter;stroke-miterlimit:10;stroke-dasharray:none;stroke-opacity:1"
       transform="matrix(1.3333333,0,0,-1.3333333,320.47067,37.418667)" />
    <path
       id="path14"
       d="M 3.3407813,0.17575 H 4.1025 V -1.7695625 H 5.2860938 V -2.3555 H 4.1025 V -7.089875 H 3.5517188 L 0.305625,-2.2383125 v 0.46875 H 3.3407813 Z M 0.73921875,-2.3555 2.0282813,-4.32425 l 1.3125,-1.9570313 V -2.3555 Z m 0,0"
       style="fill:#374151;fill-opacity:1;fill-rule:nonzero;stroke:none"
       aria-label="4"
       transform="matrix(1.3333333,0,0,1.3333333,471.78,104.39067)" />
    <path
       id="path15"
       d="m -136.06487,-93.54454 c 0,8.61063 -6.9801,15.59073 -15.59073,15.59073 -8.61062,0 -15.59074,-6.9801 -15.59074,-15.59073 0,-8.61063 6.98012,-15.59074 15.59074,-15.59074 8.61063,0 15.59073,6.98011 15.59073,15.59074 z"
       style="fill:#ffffff;fill-opacity:1;fill-rule:nonzero;stroke:#dc2626;stroke-width:1.04608;stroke-linecap:butt;stroke-linejoin:miter;stroke-miterlimit:10;stroke-dasharray:none;stroke-opacity:1"
       transform="matrix(1.3333333,0,0,-1.3333333,320.47067,37.418667)" />
    <path
       id="path16"
       d="M 0.53809375,-3.125e-4 H 5.0029375 v -0.703125 H 1.0771563 L 2.588875,-2.2151563 c 1.5585938,-1.453125 2.109375,-2.203125 2.109375,-3.1171875 0,-1.1132812 -0.6796875,-1.8046875 -2.015625,-1.8046875 -1.03125,0 -1.98046875,0.515625 -2.1328125,1.5234375 0.0585938,0.1992188 0.2109375,0.3046875 0.3984375,0.3046875 0.234375,0 0.3984375,-0.1171875 0.4804688,-0.515625 L 1.6748125,-6.68 c 0.2695313,-0.1171875 0.5039063,-0.1640625 0.75,-0.1640625 0.890625,0 1.4179688,0.5507812 1.4179688,1.5 0,0.8789062 -0.4804688,1.6875 -1.5,2.8125 -0.4804688,0.5273437 -1.1367188,1.2773437 -1.80468755,1.9921875 z m 0,0"
       style="fill:#dc2626;fill-opacity:1;fill-rule:nonzero;stroke:none"
       aria-label="2"
       transform="matrix(1.3333333,0,0,1.3333333,114.61067,166.90667)" />
    <path
       id="path17"
       d="m -96.37906,-93.54454 c 0,8.61063 -6.98012,15.59073 -15.59074,15.59073 -8.61063,0 -15.59073,-6.9801 -15.59073,-15.59073 0,-8.61063 6.9801,-15.59074 15.59073,-15.59074 8.61062,0 15.59074,6.98011 15.59074,15.59074 z"
       style="fill:#ffffff;fill-opacity:1;fill-rule:nonzero;stroke:#94a3b8;stroke-width:0.64757;stroke-linecap:butt;stroke-linejoin:miter;stroke-miterlimit:10;stroke-dasharray:none;stroke-opacity:1"
       transform="matrix(1.3333333,0,0,-1.3333333,320.47067,37.418667)" />
    <path
       id="path18"
       d="m 2.5542656,0.15378906 c 1.40625,0 2.3789063,-0.796875 2.3789063,-1.99218746 0,-0.984375 -0.5859375,-1.6523438 -1.8398438,-1.8515625 1.078125,-0.2578125 1.6171875,-0.9257813 1.6171875,-1.734375 0,-1.0078125 -0.7382812,-1.7109375 -2.015625,-1.7109375 -0.9375,0 -1.81640623,0.3984375 -1.95703123,1.3828125 0.046875,0.1640625 0.2109375,0.234375 0.37500003,0.234375 0.2460937,0 0.3984375,-0.1171875 0.46875,-0.4335938 l 0.2109375,-0.7617187 c 0.234375,-0.09375 0.46875,-0.1289063 0.7148437,-0.1289063 0.8789063,0 1.3710938,0.5390625 1.3710938,1.4296875 0,1.03125 -0.6914063,1.59375 -1.6523438,1.59375 H 1.8159844 v 0.328125 h 0.4570312 c 1.1953125,0 1.7929688,0.5976563 1.7929688,1.6640625 0,1.01953126 -0.5976563,1.66406251 -1.7226563,1.66406251 -0.3046875,0 -0.5390625,-0.046875 -0.7734375,-0.140625 L 1.3706719,-1.0649609 c -0.082031,-0.3632813 -0.2109375,-0.515625 -0.46875003,-0.515625 -0.1875,0 -0.3515625,0.09375 -0.41015625,0.3046875 0.17578125,0.92578121 0.93749998,1.42968746 2.06249998,1.42968746 z m 0,0"
       style="fill:#374151;fill-opacity:1;fill-rule:nonzero;stroke:none"
       aria-label="3"
       transform="matrix(1.3333333,0,0,1.3333333,167.524,166.80667)" />
    <path
       id="path19"
       d="m -56.69371,-93.54454 c 0,8.61063 -6.9801,15.59073 -15.59073,15.59073 -8.61063,0 -15.59074,-6.9801 -15.59074,-15.59073 0,-8.61063 6.98011,-15.59074 15.59074,-15.59074 8.61063,0 15.59073,6.98011 15.59073,15.59074 z"
       style="fill:#ffffff;fill-opacity:1;fill-rule:nonzero;stroke:#94a3b8;stroke-width:0.64757;stroke-linecap:butt;stroke-linejoin:miter;stroke-miterlimit:10;stroke-dasharray:none;stroke-opacity:1"
       transform="matrix(1.3333333,0,0,-1.3333333,320.47067,37.418667)" />
    <path
       id="path20"
       d="M 3.3389687,0.17521094 H 4.1006875 V -1.7701016 H 5.2842812 V -2.3560391 H 4.1006875 v -4.734375 H 3.5499062 l -3.2460937,4.8515625 v 0.46875 h 3.0351562 z m -2.60156245,-2.53125004 1.28906245,-1.96875 1.3125,-1.9570312 v 3.9257812 z m 0,0"
       style="fill:#374151;fill-opacity:1;fill-rule:nonzero;stroke:none"
       aria-label="4"
       transform="matrix(1.3333333,0,0,1.3333333,220.43867,166.75467)" />
    <path
       id="path21"
       d="m -155.90753,-140.3166 c 0,8.61062 -6.9801,15.59072 -15.59075,15.59072 -8.61062,0 -15.59072,-6.9801 -15.59072,-15.59072 0,-8.61063 6.9801,-15.59075 15.59072,-15.59075 8.61065,0 15.59075,6.98012 15.59075,15.59075 z"
       style="fill:#ffffff;fill-opacity:1;fill-rule:nonzero;stroke:#dc2626;stroke-width:1.04608;stroke-linecap:butt;stroke-linejoin:miter;stroke-miterlimit:10;stroke-dasharray:none;stroke-opacity:1"
       transform="matrix(1.3333333,0,0,-1.3333333,320.47067,37.418667)" />
    <path
       id="path22"
       d="m 2.5539453,0.15325 c 1.40625,0 2.3789063,-0.796875 2.3789063,-1.9921875 0,-0.984375 -0.5859375,-1.6523437 -1.8398438,-1.8515625 1.078125,-0.2578125 1.6171875,-0.9257812 1.6171875,-1.734375 0,-1.0078125 -0.7382812,-1.7109375 -2.015625,-1.7109375 -0.9375,0 -1.81640624,0.3984375 -1.95703124,1.3828125 0.046875,0.1640625 0.2109375,0.234375 0.37500004,0.234375 0.2460937,0 0.3984375,-0.1171875 0.46875,-0.4335937 l 0.2109375,-0.7617188 c 0.234375,-0.09375 0.46875,-0.1289062 0.7148437,-0.1289062 0.8789063,0 1.3710938,0.5390625 1.3710938,1.4296875 0,1.03125 -0.6914063,1.59375 -1.6523438,1.59375 H 1.8156641 v 0.328125 h 0.4570312 c 1.1953125,0 1.7929688,0.5976562 1.7929688,1.6640625 0,1.0195312 -0.5976563,1.66406245 -1.7226563,1.66406245 -0.3046875,0 -0.5390625,-0.046875 -0.7734375,-0.140625 L 1.3703516,-1.0655 c -0.082031,-0.3632812 -0.2109375,-0.515625 -0.46875004,-0.515625 -0.1875,0 -0.3515625,0.09375 -0.41015625,0.3046875 C 0.66722656,-0.35065625 1.4289453,0.15325 2.5539453,0.15325 Z m 0,0"
       style="fill:#dc2626;fill-opacity:1;fill-rule:nonzero;stroke:none"
       aria-label="3"
       transform="matrix(1.3333333,0,0,1.3333333,88.153333,229.17067)" />
    <path
       id="path23"
       d="m -116.22173,-140.3166 c 0,8.61062 -6.98011,15.59072 -15.59074,15.59072 -8.61063,0 -15.59074,-6.9801 -15.59074,-15.59072 0,-8.61063 6.98011,-15.59075 15.59074,-15.59075 8.61063,0 15.59074,6.98012 15.59074,15.59075 z"
       style="fill:#ffffff;fill-opacity:1;fill-rule:nonzero;stroke:#94a3b8;stroke-width:0.64757;stroke-linecap:butt;stroke-linejoin:miter;stroke-miterlimit:10;stroke-dasharray:none;stroke-opacity:1"
       transform="matrix(1.3333333,0,0,-1.3333333,320.47067,37.418667)" />
    <path
       id="path24"
       d="M 3.3386484,0.17567188 H 4.1003672 V -1.7696406 H 5.2839609 V -2.3555781 H 4.1003672 v -4.734375 H 3.5495859 l -3.24609371,4.8515625 v 0.46875 H 3.3386484 Z m -2.60156246,-2.53124998 1.28906246,-1.96875 1.3125,-1.9570313 v 3.9257813 z m 0,0"
       style="fill:#374151;fill-opacity:1;fill-rule:nonzero;stroke:none"
       aria-label="4"
       transform="matrix(1.3333333,0,0,1.3333333,141.068,229.11733)" />
    <path
       id="path25"
       d="M -14.9483,-6.0156 -97.00249,-39.03757"
       style="fill:none;stroke:#dc2626;stroke-width:0.99628;stroke-linecap:butt;stroke-linejoin:miter;stroke-miterlimit:10;stroke-dasharray:none;stroke-opacity:1"
       transform="matrix(1.3333333,0,0,-1.3333333,320.47067,37.418667)" />
    <path
       id="path26"
       d="M 2.39543,0 C 2.10126,0.07297 0.80818,0.48648 0,0.93651 V -0.93651 C 0.80818,-0.48648 2.10126,-0.07297 2.39543,0 Z"
       style="fill:#dc2626;fill-opacity:1;fill-rule:nonzero;stroke:#dc2626;stroke-width:0.99628;stroke-linecap:butt;stroke-linejoin:miter;stroke-miterlimit:10;stroke-dasharray:none;stroke-opacity:1"
       transform="matrix(-1.2368933,0.49776,0.49776,1.2368933,191.13401,89.46876)" />
    <path
       id="path27"
       d="M -10.20338,-12.4706 -25.16533,-30.7574"
       style="fill:none;stroke:#94a3b8;stroke-width:0.64757;stroke-linecap:butt;stroke-linejoin:miter;stroke-miterlimit:10;stroke-dasharray:none;stroke-opacity:1"
       transform="matrix(1.3333333,0,0,-1.3333333,320.47067,37.418667)" />
    <path
       id="path28"
       d="M 3.3429,0 C 2.93236,0.09575 1.12784,0.63834 0,1.22882 V -1.22882 C 1.12784,-0.63834 2.93236,-0.09575 3.3429,0 Z"
       style="fill:#94a3b8;fill-opacity:1;fill-rule:nonzero;stroke:#94a3b8;stroke-width:0.64757;stroke-linecap:butt;stroke-linejoin:miter;stroke-miterlimit:10;stroke-dasharray:none;stroke-opacity:1"
       transform="matrix(-0.84426667,1.03188,1.03188,0.84426667,286.91689,78.428533)" />
    <path
       id="path29"
       d="M 10.20338,-12.4706 25.16533,-30.7574"
       style="fill:none;stroke:#94a3b8;stroke-width:0.64757;stroke-linecap:butt;stroke-linejoin:miter;stroke-miterlimit:10;stroke-dasharray:none;stroke-opacity:1"
       transform="matrix(1.3333333,0,0,-1.3333333,320.47067,37.418667)" />
    <path
       id="path30"
       d="M 3.3429,0 C 2.93236,0.09575 1.12784,0.63834 0,1.22882 V -1.22882 C 1.12784,-0.63834 2.93236,-0.09575 3.3429,0 Z"
       style="fill:#94a3b8;fill-opacity:1;fill-rule:nonzero;stroke:#94a3b8;stroke-width:0.64757;stroke-linecap:butt;stroke-linejoin:miter;stroke-miterlimit:10;stroke-dasharray:none;stroke-opacity:1"
       transform="matrix(0.84426667,1.03188,1.03188,-0.84426667,354.02444,78.428533)" />
    <path
       id="path31"
       d="M 14.9483,-6.0156 97.0256,-39.04684"
       style="fill:none;stroke:#94a3b8;stroke-width:0.64757;stroke-linecap:butt;stroke-linejoin:miter;stroke-miterlimit:10;stroke-dasharray:none;stroke-opacity:1"
       transform="matrix(1.3333333,0,0,-1.3333333,320.47067,37.418667)" />
    <path
       id="path32"
       d="M 3.3429,0 C 2.93236,0.09575 1.12784,0.63834 0,1.22882 V -1.22882 C 1.12784,-0.63834 2.93236,-0.09575 3.3429,0 Z"
       style="fill:#94a3b8;fill-opacity:1;fill-rule:nonzero;stroke:#94a3b8;stroke-width:0.64757;stroke-linecap:butt;stroke-linejoin:miter;stroke-miterlimit:10;stroke-dasharray:none;stroke-opacity:1"
       transform="matrix(1.2368933,0.49776,0.49776,-1.2368933,449.83812,89.48112)" />
    <path
       id="path33"
       d="M -125.95215,-59.6159 -139.1453,-77.03075"
       style="fill:none;stroke:#dc2626;stroke-width:0.99628;stroke-linecap:butt;stroke-linejoin:miter;stroke-miterlimit:10;stroke-dasharray:none;stroke-opacity:1"
       transform="matrix(1.3333333,0,0,-1.3333333,320.47067,37.418667)" />
    <path
       id="path34"
       d="M 2.39543,0 C 2.10126,0.07297 0.80818,0.48648 0,0.93651 V -0.93651 C 0.80818,-0.48648 2.10126,-0.07297 2.39543,0 Z"
       style="fill:#dc2626;fill-opacity:1;fill-rule:nonzero;stroke:#dc2626;stroke-width:0.99628;stroke-linecap:butt;stroke-linejoin:miter;stroke-miterlimit:10;stroke-dasharray:none;stroke-opacity:1"
       transform="matrix(-0.80512,1.06276,1.06276,0.80512,134.9436,140.12631)" />
    <path
       id="path35"
       d="m -114.7633,-62.81868 0.92016,-10.11867"
       style="fill:none;stroke:#94a3b8;stroke-width:0.64757;stroke-linecap:butt;stroke-linejoin:miter;stroke-miterlimit:10;stroke-dasharray:none;stroke-opacity:1"
       transform="matrix(1.3333333,0,0,-1.3333333,320.47067,37.418667)" />
    <path
       id="path36"
       d="M 3.3429,0 C 2.93236,0.09575 1.12784,0.63834 0,1.22882 V -1.22882 C 1.12784,-0.63834 2.93236,-0.09575 3.3429,0 Z"
       style="fill:#94a3b8;fill-opacity:1;fill-rule:nonzero;stroke:#94a3b8;stroke-width:0.64757;stroke-linecap:butt;stroke-linejoin:miter;stroke-miterlimit:10;stroke-dasharray:none;stroke-opacity:1"
       transform="matrix(0.12070667,1.3277733,1.3277733,-0.12070667,168.67981,134.66847)" />
    <path
       id="path37"
       d="m -105.18983,-58.51608 18.73791,-19.94687"
       style="fill:none;stroke:#94a3b8;stroke-width:0.64757;stroke-linecap:butt;stroke-linejoin:miter;stroke-miterlimit:10;stroke-dasharray:none;stroke-opacity:1"
       transform="matrix(1.3333333,0,0,-1.3333333,320.47067,37.418667)" />
    <path
       id="path38"
       d="M 3.3429,0 C 2.93236,0.09575 1.12784,0.63834 0,1.22882 V -1.22882 C 1.12784,-0.63834 2.93236,-0.09575 3.3429,0 Z"
       style="fill:#94a3b8;fill-opacity:1;fill-rule:nonzero;stroke:#94a3b8;stroke-width:0.64757;stroke-linecap:butt;stroke-linejoin:miter;stroke-miterlimit:10;stroke-dasharray:none;stroke-opacity:1"
       transform="matrix(0.91286667,0.97176,0.97176,-0.91286667,205.20143,142.03593)" />
    <path
       id="path39"
       d="m -157.94856,-108.37828 -5.45854,-12.86606"
       style="fill:none;stroke:#dc2626;stroke-width:0.99628;stroke-linecap:butt;stroke-linejoin:miter;stroke-miterlimit:10;stroke-dasharray:none;stroke-opacity:1"
       transform="matrix(1.3333333,0,0,-1.3333333,320.47067,37.418667)" />
    <path
       id="path40"
       d="M 2.39543,0 C 2.10126,0.07297 0.80818,0.48648 0,0.93651 V -0.93651 C 0.80818,-0.48648 2.10126,-0.07297 2.39543,0 Z"
       style="fill:#dc2626;fill-opacity:1;fill-rule:nonzero;stroke:#dc2626;stroke-width:0.99628;stroke-linecap:butt;stroke-linejoin:miter;stroke-miterlimit:10;stroke-dasharray:none;stroke-opacity:1"
       transform="matrix(-0.52073333,1.2274133,1.2274133,0.52073333,102.59453,199.07779)" />
    <path
       id="path41"
       d="m -145.3624,-108.37828 5.46825,-12.88899"
       style="fill:none;stroke:#94a3b8;stroke-width:0.64757;stroke-linecap:butt;stroke-linejoin:miter;stroke-miterlimit:10;stroke-dasharray:none;stroke-opacity:1"
       transform="matrix(1.3333333,0,0,-1.3333333,320.47067,37.418667)" />
    <path
       id="path42"
       d="M 3.3429,0 C 2.93236,0.09575 1.12784,0.63834 0,1.22882 V -1.22882 C 1.12784,-0.63834 2.93236,-0.09575 3.3429,0 Z"
       style="fill:#94a3b8;fill-opacity:1;fill-rule:nonzero;stroke:#94a3b8;stroke-width:0.64757;stroke-linecap:butt;stroke-linejoin:miter;stroke-miterlimit:10;stroke-dasharray:none;stroke-opacity:1"
       transform="matrix(0.52073333,1.2274133,1.2274133,-0.52073333,133.94513,199.10836)" />
    <path
       id="path43"
       d="m 1.9103359,-7.1235859 -0.058594,0.070312 c -0.011719,0.023437 -0.011719,0.058594 0.011719,0.09375 0.140625,0.1757812 0.3632813,0.3632812 0.5390625,0.4570312 0.046875,0.035156 0.082031,0.035156 0.1523438,0.035156 0.3632812,-0.023437 0.984375,-0.035156 1.4179687,-0.035156 0.046875,0 0.09375,-0.011719 0.1171875,-0.058594 0.046875,-0.058594 0.058594,-0.234375 0.023437,-0.3164063 -0.011719,-0.046875 -0.046875,-0.082031 -0.1289062,-0.082031 -0.5859375,0 -1.3125,-0.023437 -2.0742183,-0.1640619 z m 4.8046875,5.4140625 h 0.375 c 0.140625,-0.3984375 0.2109375,-1.0195313 0.2109375,-1.6640625 v -3.3984375 l 0.023437,-0.4570313 c 0,-0.09375 -0.023437,-0.1523437 -0.1054687,-0.1875 -0.2578125,-0.1054687 -0.8203125,-0.2226562 -1.1367188,-0.234375 -0.070312,0 -0.09375,0.023437 -0.1054687,0.046875 l -0.070312,0.2226563 c 0.3164062,0.1054687 0.5976562,0.2695312 0.7617187,0.4570312 v 2.390625 c -0.3984375,0.023437 -0.9023437,0.035156 -1.1601562,0.023437 -0.2226563,0 -0.4921875,-0.011719 -0.703125,-0.046875 l -0.058594,0.1054688 c -0.011719,0.035156 0,0.058594 0.035156,0.082031 0.1640625,0.1523438 0.3867187,0.3046875 0.6328125,0.4101563 0.1757812,-0.082031 0.3984375,-0.140625 0.5625,-0.1523438 l 0.6914062,-0.035156 v 0.984375 c 0,0.3984375 0.011719,1.1132812 0.046875,1.4531255 z m -6.15234371,-0.5039063 0.0820313,0.09375 c 0.0234375,0.023437 0.0585938,0.011719 0.09375,0 C 1.7814297,-2.5532734 2.7658047,-3.1743672 3.5626797,-3.8657734 l 1.4179687,1.2890625 c 0.035156,0.046875 0.1171875,0.1054687 0.1757813,0.1171875 0.09375,0.023437 0.2460937,-0.046875 0.28125,-0.1523438 0.011719,-0.046875 0,-0.1171875 -0.035156,-0.1992187 -0.082031,-0.140625 -0.234375,-0.3867188 -0.3515625,-0.5390625 l -0.4335937,-0.1640625 -0.75,-0.6445313 c 0.421875,-0.4101562 0.7734375,-0.84375 1.0195312,-1.2773437 l 0.1875,-0.2578125 c 0.023437,-0.035156 0.023437,-0.082031 -0.023437,-0.1054688 -0.070312,-0.058594 -0.28125,-0.1523437 -0.375,-0.1875 -0.058594,-0.023437 -0.1171875,-0.023437 -0.1640625,0 l -0.2929687,0.140625 c -0.4335938,0.035156 -2.2617188,0.058594 -2.6015625,0.058594 -0.1992188,0 -0.4921875,-0.023437 -0.72656251,-0.058594 l -0.046875,0.1054688 c -0.0117188,0.023437 0,0.046875 0.0234375,0.082031 0.17578121,0.140625 0.41015621,0.2929688 0.64453121,0.375 0.1757813,-0.046875 0.5039063,-0.1054687 0.6796875,-0.1171875 0.2460938,-0.023437 1.3710938,-0.046875 1.8984375,-0.058594 -0.6914062,1.1132812 -1.9570312,2.296875 -3.51562496,3.1640625 -0.0234375,0.023437 -0.0234375,0.058594 -0.0117188,0.082031 z M 6.4923672,-0.45561719 5.2970547,-1.3110859 c 0.09375,-0.1171875 0.1640625,-0.234375 0.234375,-0.3632813 0.023437,-0.046875 0.035156,-0.1171875 0.035156,-0.1992187 0,-0.070312 -0.035156,-0.1289063 -0.1054687,-0.1757813 -0.1757813,-0.1054687 -0.65625,-0.2695312 -0.9726563,-0.328125 -0.058594,-0.011719 -0.082031,0 -0.1054687,0.035156 L 4.2775232,-2.166555 c 0.2109375,0.1054688 0.4101563,0.28125 0.5039063,0.421875 -0.46875,0.85546876 -1.4414063,1.76953126 -2.6601563,2.44921876 -0.046875,0.0117188 -0.046875,0.046875 -0.023437,0.0820313 l 0.09375,0.10546875 c 0.023437,0.0234375 0.046875,0.0234375 0.1054688,0 1.1601562,-0.45703125 2.109375,-1.11328125 2.7539062,-1.875 l 2.1914063,1.67578125 c 0.082031,0.0585938 0.1757812,0.12890625 0.234375,0.12890625 0.1054687,0.0234375 0.2460937,-0.0703125 0.28125,-0.1875 0.011719,-0.0585938 -0.023437,-0.140625 -0.1054688,-0.2578125 -0.105469,-0.16406225 -0.3515628,-0.4335935 -0.5507815,-0.6210935 z m 9.3749998,-2.69531251 -0.1875,-0.058594 c 0.05859,-0.2109375 0.105469,-0.5507813 0.105469,-0.8085938 V -4.55718 c 0.117187,0.082031 0.246094,0.1289063 0.386719,0.1875 0.152343,-0.058594 0.398437,-0.1171875 0.5625,-0.140625 0.1875,-0.011719 0.574218,-0.035156 0.878906,-0.023437 v 1.8046875 c 0,0.4101563 0.02344,1.1835938 0.05859,1.5585938 h 0.375 c 0.128906,-0.4453125 0.210937,-1.1484375 0.210937,-1.78125 v -3.8203125 l 0.02344,-0.4570313 c 0,-0.09375 -0.02344,-0.1523437 -0.105469,-0.1875 -0.257813,-0.1054687 -0.820313,-0.2226562 -1.136719,-0.234375 -0.07031,0 -0.09375,0.023437 -0.117187,0.046875 l -0.05859,0.2226563 c 0.316406,0.1054687 0.597656,0.2695312 0.75,0.4570312 v 2.0039063 c -0.433594,0.023437 -1.066406,0.046875 -1.347656,0.035156 l -0.480469,-0.011719 0.02344,-1.3125 0.01172,-0.3632813 c 0,-0.070312 -0.01172,-0.1171875 -0.08203,-0.1523437 -0.222656,-0.082031 -0.667969,-0.1640625 -0.949219,-0.1875 -0.07031,0 -0.08203,0.011719 -0.09375,0.046875 l -0.07031,0.2109375 c 0.210937,0.082031 0.421875,0.2109375 0.539062,0.3398437 v 1.1484375 l -2.390625,0.035156 v -0.703125 l 0.01172,-0.375 c 0,-0.070312 -0.02344,-0.1171875 -0.09375,-0.140625 -0.222656,-0.058594 -0.691406,-0.1171875 -0.972656,-0.1171875 -0.05859,0 -0.09375,0.035156 -0.09375,0.046875 l -0.07031,0.2226562 c 0.222656,0.046875 0.445313,0.1523438 0.5625,0.2695313 l 0.04687,2.9765625 c 0,0.1523437 0.03516,0.375 0.07031,0.5273437 h 0.351562 c 0.07031,-0.070312 0.128906,-0.1875 0.152344,-0.375 l 3.117187,-0.035156 c 0.04687,-0.035156 0.08203,-0.140625 0.08203,-0.234375 0,-0.046875 -0.03516,-0.082031 -0.07031,-0.082031 z m -1.839844,3.08203126 c 0,0.4921875 0.199219,0.703125 0.785157,0.703125 l 3.855468,-0.0234375 c 0.04687,0 0.09375,-0.0117188 0.117188,-0.046875 0.04687,-0.046875 0.09375,-0.15234375 0.09375,-0.31640625 0,-0.0703125 -0.04687,-0.1171875 -0.117188,-0.1171875 -0.164062,-0.046875 -0.574218,-0.0703125 -0.84375,-0.0703125 l -0.28125,0.15234375 c -0.527343,0.0351563 -2.15625,0.0351563 -2.730468,0.0351563 -0.152344,0 -0.222657,-0.0703125 -0.222657,-0.234375 V -1.1470234 l 0.01172,-0.3984375 c 0,-0.09375 -0.04687,-0.1523438 -0.128906,-0.1640625 -0.234375,-0.058594 -0.738281,-0.09375 -1.03125,-0.09375 -0.05859,0 -0.08203,0.023437 -0.09375,0.058594 l -0.04687,0.1992188 c 0.246094,0.058594 0.492187,0.1523437 0.632812,0.2695312 z m -1.253906,-4.66406246 2.390625,-0.035156 v 1.546875 l -2.390625,0.035156 z m 12.433594,5.07421871 h 0.339844 c 0.128906,-0.46875 0.210937,-1.2421875 0.210937,-1.73437501 v -2.1914062 l 0.949219,-0.023437 v 3.02343746 c 0,0.375 0.02344,1.1953125 0.05859,1.55859375 h 0.351562 c 0.128906,-0.4921875 0.210938,-1.2890625 0.210938,-1.78125 V -6.8188984 l 0.01172,-0.4335938 c 0.01172,-0.082031 -0.01172,-0.140625 -0.09375,-0.1640625 -0.234375,-0.1171875 -0.761718,-0.2226562 -1.054687,-0.234375 -0.07031,0 -0.105469,0.023437 -0.105469,0.058594 l -0.08203,0.2109375 c 0.304687,0.09375 0.5625,0.2460937 0.703125,0.421875 v 2.9414062 l -0.949219,0.023437 v -2.2617187 l 0.02344,-0.3867188 c 0,-0.082031 -0.03516,-0.1289062 -0.105469,-0.1640625 -0.210938,-0.09375 -0.703125,-0.1992187 -0.972656,-0.2109375 -0.07031,0 -0.09375,0.023437 -0.105469,0.058594 l -0.08203,0.1992187 c 0.269531,0.09375 0.515625,0.2226563 0.644531,0.3867188 v 5.203125 c 0,0.37499996 0.01172,1.14843746 0.04687,1.51171871 z M 22.535336,-5.4478047 v -0.035156 l 0.117187,0.058594 c 0.105469,-0.035156 0.339844,-0.082031 0.457032,-0.082031 0.07031,-0.011719 0.410156,-0.011719 0.574218,0 -0.1875,0.796875 -0.539062,1.7109375 -1.042968,2.6132812 -0.03516,-0.1289062 -0.07031,-0.2695312 -0.117188,-0.375 l -0.316406,-0.1875 -0.328125,-0.421875 c 0.316406,-0.5273437 0.539062,-1.078125 0.65625,-1.5703132 z m -1.183594,4.47656251 0.09375,0.0703125 c 0.03516,0.0117188 0.05859,0 0.09375,-0.0234375 0.761719,-0.62109371 1.441406,-1.45312501 1.945313,-2.29687501 l 0.808593,1.2773438 c 0.03516,0.058594 0.105469,0.1523437 0.152344,0.1757812 0.08203,0.035156 0.234375,0 0.304688,-0.1054687 0.02344,-0.035156 0.03516,-0.09375 0.01172,-0.2109375 -0.03516,-0.1640625 -0.128906,-0.4453125 -0.210937,-0.6445313 l -0.375,-0.2460937 -0.457031,-0.6679688 c 0.316406,-0.6210937 0.539062,-1.2539062 0.632812,-1.8164062 l 0.128906,-0.2929688 c 0,-0.035156 0,-0.070312 -0.02344,-0.1054687 -0.05859,-0.046875 -0.222656,-0.1523438 -0.316406,-0.1875 -0.03516,-0.023437 -0.105469,-0.023437 -0.140625,0 l -0.28125,0.1523437 -0.996094,0.023437 h -0.105469 c -0.08203,-0.058594 -0.210937,-0.140625 -0.28125,-0.1757812 -0.04687,-0.023437 -0.105469,-0.023437 -0.140625,0 l -0.292969,0.1523437 c -0.269531,0.023437 -0.972656,0.035156 -1.160156,0.035156 -0.140625,0 -0.339844,-0.011719 -0.480469,-0.035156 l -0.05859,0.09375 c 0,0.023437 0,0.046875 0.02344,0.070312 0.117188,0.1171875 0.28125,0.234375 0.445313,0.3164063 0.105468,-0.046875 0.339843,-0.082031 0.457031,-0.09375 0.105469,0 0.539062,-0.011719 0.75,0 -0.28125,1.1015625 -1.007813,2.4960937 -1.992188,3.5390625 -0.02344,0.035156 -0.01172,0.046875 0.01172,0.082031 l 0.09375,0.058594 c 0.02344,0.011719 0.05859,0.011719 0.09375,-0.023437 0.585938,-0.4570313 1.125,-1.0429688 1.558594,-1.6640625 l 0.585937,0.9257812 c 0.03516,0.058594 0.09375,0.1289063 0.152344,0.140625 -0.316406,0.4804688 -0.667969,0.9609375 -1.054687,1.3945313 -0.01172,0.035156 -0.01172,0.0585937 0.02344,0.0820312 z m 15.480469,-4.27734371 -1.6875,-0.796875 c 0.175781,-0.2226563 0.328125,-0.421875 0.445312,-0.6445313 0.03516,-0.058594 0.05859,-0.1171875 0.05859,-0.2109375 0,-0.082031 -0.03516,-0.140625 -0.105469,-0.1757812 -0.199218,-0.1171875 -0.644531,-0.2578125 -0.972656,-0.3046875 -0.05859,0 -0.09375,0 -0.117187,0.035156 l -0.117188,0.1992188 c 0.210938,0.09375 0.398438,0.234375 0.480469,0.3632812 -0.5625,0.984375 -1.710938,2.0039063 -3.1875,2.71875 -0.03516,0.023437 -0.04687,0.046875 -0.02344,0.082031 l 0.09375,0.1171875 c 0.02344,0.023437 0.04687,0.023437 0.09375,0 1.253907,-0.4453125 2.320313,-1.1015625 3.082032,-1.8867188 l 2.871093,1.453125 c 0.09375,0.046875 0.199219,0.082031 0.246094,0.082031 0.105469,-0.011719 0.222656,-0.1171875 0.222656,-0.234375 0.01172,-0.070312 -0.03516,-0.140625 -0.140625,-0.2226563 -0.140625,-0.1289062 -0.421875,-0.3398437 -0.65625,-0.4570312 z m -2.085938,4.61718746 h 0.410157 c 0.105468,-0.42187496 0.1875,-1.13671876 0.1875,-1.55859376 v -0.5859375 l 2.472656,-0.023437 c 0.269531,0 0.796875,0.023437 1.042969,0.046875 0.08203,-0.046875 0.1875,-0.1757812 0.1875,-0.328125 0,-0.082031 -0.05859,-0.1289062 -0.117188,-0.1523437 -0.210937,-0.070312 -0.679687,-0.1171875 -1.007812,-0.140625 l -0.316407,0.1523437 c -0.632812,0.035156 -5.191406,0.09375 -5.742187,0.082031 -0.28125,0 -0.703125,-0.035156 -0.996094,-0.09375 l -0.05859,0.1289062 c -0.01172,0.035156 0,0.058594 0.02344,0.082031 0.222656,0.1757812 0.5625,0.375 0.878906,0.46875 0.222656,-0.070312 0.679688,-0.1523438 0.902344,-0.1757813 0.199219,-0.011719 1.101562,-0.035156 2.097656,-0.035156 v 0.7617187 c 0,0.3515625 0.01172,1.01953126 0.03516,1.37109376 z m -1.300781,0.0234375 V -1.0532734 l 0.01172,-0.3984375 c 0,-0.09375 -0.04687,-0.1523438 -0.140625,-0.1640625 -0.210938,-0.058594 -0.738281,-0.082031 -1.03125,-0.082031 -0.05859,0 -0.08203,0 -0.09375,0.046875 l -0.03516,0.1992188 c 0.234375,0.058594 0.46875,0.1523437 0.621093,0.2578125 v 1.17187496 c 0,0.4921875 0.210938,0.703125 0.796875,0.703125 l 3.914063,-0.0117188 c 0.04687,0 0.08203,-0.0234375 0.117187,-0.046875 0.04687,-0.046875 0.09375,-0.15234375 0.09375,-0.328125 0,-0.0585938 -0.04687,-0.10546875 -0.117187,-0.1171875 -0.164063,-0.046875 -0.574219,-0.0703125 -0.84375,-0.0703125 l -0.28125,0.1640625 c -0.550781,0.0234375 -2.203125,0.0351563 -2.800781,0.0234375 -0.164063,0 -0.210938,-0.0703125 -0.210938,-0.234375 z m 9.94043,-4.44140626 c 0,0.7617188 -0.5625,1.265625 -1.300781,1.265625 -0.75,0 -1.3125,-0.5039062 -1.3125,-1.265625 0,-0.7617187 0.5625,-1.2773437 1.3125,-1.2773437 0.738281,0 1.300781,0.515625 1.300781,1.2773437 z m 3.011719,4.24218751 c 0.04687,-0.046875 0.08203,-0.12890625 0.08203,-0.23437501 0,-0.023437 -0.01172,-0.046875 -0.04687,-0.070312 l -0.164063,-0.082031 c 0.07031,-0.2226563 0.164063,-0.6914063 0.175782,-0.9609375 l 0.105468,-0.2109375 c 0.02344,-0.058594 0.02344,-0.09375 -0.01172,-0.1289063 -0.08203,-0.035156 -0.257813,-0.1289062 -0.339844,-0.1757812 -0.05859,-0.011719 -0.117188,-0.011719 -0.152344,0 l -0.269531,0.1289062 c -0.5625,0.023437 -2.789063,0.046875 -3.269531,0.046875 -0.222657,0 -0.5625,-0.023437 -0.808594,-0.070312 l -0.04687,0.09375 c -0.01172,0.035156 -0.01172,0.058594 0.02344,0.09375 0.199219,0.140625 0.445313,0.28125 0.726563,0.375 0.210937,-0.070312 0.550781,-0.1171875 0.714844,-0.1289062 0.363281,-0.023437 2.085937,-0.046875 2.625,-0.035156 0.01172,0.1992188 0,0.7382813 -0.01172,0.9609375 l -0.152344,0.046875 c -0.363281,0.011719 -2.167969,0.035156 -2.730469,0.035156 -0.234375,-0.023437 -0.808593,-0.035156 -1.054687,-0.035156 -0.05859,0 -0.09375,0.011719 -0.09375,0.035156 l -0.03516,0.17578121 c 0.199218,0.0351563 0.386718,0.1171875 0.503906,0.22265625 v 0.85546875 c 0,0.41015625 0.164062,0.57421875 0.65625,0.57421875 l 4.03125,-0.0234375 c 0.04687,0 0.08203,-0.0117188 0.117187,-0.046875 0.03516,-0.0351563 0.105469,-0.15234375 0.105469,-0.3046875 0,-0.0585938 -0.05859,-0.10546875 -0.117187,-0.1171875 -0.175782,-0.0351563 -0.539063,-0.0703125 -0.785157,-0.0585938 l -0.257812,0.12890625 c -0.539063,0.0351563 -2.261719,0.046875 -2.929688,0.0351563 -0.105468,0 -0.152343,-0.0585938 -0.152343,-0.1640625 V -0.77202344 Z M 44.030453,-5.0493672 c 0,-1.0078125 -0.832031,-1.7578125 -1.945312,-1.7578125 -1.148438,0 -1.980469,0.75 -1.980469,1.7578125 0,1.0078125 0.832031,1.7460938 1.980469,1.7460938 0.761718,0 1.40625,-0.3515625 1.722656,-0.9023438 0.152344,0.1054688 0.339844,0.2226563 0.550781,0.2929688 0.164063,-0.058594 0.386719,-0.1054688 0.550781,-0.1171875 0.210938,-0.035156 0.679688,-0.046875 0.996094,-0.035156 0,0.3398438 0.01172,0.8789063 0.05859,1.1367188 h 0.375 c 0.128906,-0.3164063 0.199219,-0.890625 0.199219,-1.4179688 v -2.4257812 l 0.03516,-0.4570313 c 0,-0.09375 -0.03516,-0.1523437 -0.105469,-0.1875 -0.269531,-0.1054687 -0.820312,-0.2226562 -1.148437,-0.234375 -0.07031,0 -0.09375,0.023437 -0.105469,0.046875 l -0.05859,0.2226563 c 0.316406,0.1054687 0.585938,0.2695312 0.75,0.4570312 v 0.7265625 c -0.398437,0.023437 -0.9375,0.035156 -1.195312,0.035156 -0.222657,0 -0.492188,-0.023437 -0.703125,-0.046875 l -0.05859,0.09375 c 0,0.035156 0,0.058594 0.03516,0.082031 0.164063,0.140625 0.386719,0.2578125 0.621094,0.3632813 0.175781,-0.058594 0.398437,-0.1054688 0.5625,-0.1289063 0.152344,-0.011719 0.46875,-0.011719 0.738281,-0.011719 v 1.3710937 c -0.433594,0.023437 -1.160156,0.035156 -1.453125,0.035156 -0.164062,0 -0.363281,0 -0.539062,-0.023437 0.07031,-0.1875 0.117187,-0.3984375 0.117187,-0.6210938 z m 5.780274,5.17968751 c 0.304687,0 0.550781,-0.2578125 0.550781,-0.5390625 0,-0.31640625 -0.246094,-0.5625 -0.550781,-0.5625 -0.328125,0 -0.550782,0.24609375 -0.550782,0.5625 0,0.28125 0.222657,0.5390625 0.550782,0.5390625 z m 0,-3.53906251 c 0.304687,0 0.550781,-0.2695312 0.550781,-0.5507812 0,-0.3164063 -0.246094,-0.5625 -0.550781,-0.5625 -0.328125,0 -0.550782,0.2460937 -0.550782,0.5625 0,0.28125 0.222657,0.5507812 0.550782,0.5507812 z m 6.706054,3.41015626 h 2.144532 v -0.24609375 l -1.359375,-0.1171875 C 57.290219,-0.93608594 57.2785,-1.5103047 57.2785,-2.0610859 v -2.8125 l 0.03516,-1.4179688 -0.128906,-0.09375 -1.957031,0.4921875 v 0.2695313 l 1.3125,-0.2109375 v 3.7734375 l -0.01172,1.69921871 -1.429687,0.1171875 v 0.24609375 z m 5.528321,0 h 4.019531 v -0.6328125 h -3.527344 l 1.359375,-1.35937496 c 1.394531,-1.3125 1.898438,-1.9921875 1.898438,-2.8007813 0,-1.0078125 -0.621094,-1.640625 -1.816407,-1.640625 -0.925781,0 -1.78125,0.46875 -1.921875,1.3828125 0.05859,0.1757813 0.1875,0.2695313 0.363282,0.2695313 0.210937,0 0.351562,-0.1054688 0.433593,-0.46875 l 0.222657,-0.7617188 c 0.234375,-0.1054687 0.457031,-0.1523437 0.679687,-0.1523437 0.796875,0 1.265625,0.5039062 1.265625,1.359375 0,0.7851562 -0.421875,1.5117187 -1.347656,2.53125 -0.433594,0.46875 -1.019531,1.1484375 -1.628906,1.79296871 z m 9.052734,0.12890625 c 1.253906,0 2.132812,-0.71484375 2.132812,-1.79296871 0,-0.8671875 -0.527343,-1.4882813 -1.652343,-1.6523438 0.972656,-0.234375 1.453125,-0.84375 1.453125,-1.5703125 0,-0.9023437 -0.667969,-1.546875 -1.816407,-1.546875 -0.84375,0 -1.640625,0.375 -1.757812,1.2539063 0.03516,0.1523437 0.1875,0.2109375 0.339844,0.2109375 0.222656,0 0.351562,-0.1054688 0.421875,-0.3867188 l 0.1875,-0.6914062 c 0.210937,-0.070312 0.421875,-0.1171875 0.644531,-0.1171875 0.785156,0 1.230469,0.4921875 1.230469,1.2890625 0,0.9257812 -0.621094,1.4296875 -1.488282,1.4296875 h -0.375 v 0.3046875 h 0.410157 c 1.078125,0 1.617187,0.5273437 1.617187,1.4882812 0,0.92578126 -0.539062,1.51171876 -1.546875,1.51171876 -0.269531,0 -0.492187,-0.046875 -0.691406,-0.12890625 L 70.03143,-0.95952344 C 69.9494,-1.2876484 69.832211,-1.4282734 69.609555,-1.4282734 c -0.175782,0 -0.328125,0.09375 -0.386719,0.28125 0.164062,0.83203121 0.84375,1.27734371 1.875,1.27734371 z m 0,0"
       style="fill:#64748b;fill-opacity:1;fill-rule:nonzero;stroke:none"
       aria-label="첫번째순열:123"
       transform="matrix(1.3333333,0,0,1.3333333,192.87867,259.19733)" />
  </g>
</svg>
