<?xml version="1.0" encoding="UTF-8" standalone="no"?>
<!-- Created with Inkscape (http://www.inkscape.org/) -->

<svg
   version="1.1"
   id="svg1"
   width="369.82666"
   height="186.64"
   viewBox="0 0 369.82666 186.64"
   sodipodi:docname="2.pdf"
   xmlns:inkscape="http://www.inkscape.org/namespaces/inkscape"
   xmlns:sodipodi="http://sodipodi.sourceforge.net/DTD/sodipodi-0.dtd"
   xmlns="http://www.w3.org/2000/svg"
   xmlns:svg="http://www.w3.org/2000/svg">
  <defs
     id="defs1" />
  <sodipodi:namedview
     id="namedview1"
     pagecolor="#ffffff"
     bordercolor="#000000"
     borderopacity="0.25"
     inkscape:showpageshadow="2"
     inkscape:pageopacity="0.0"
     inkscape:pagecheckerboard="0"
     inkscape:deskcolor="#d1d1d1">
    <inkscape:page
       x="0"
       y="0"
       inkscape:label="1"
       id="page1"
       width="369.82666"
       height="186.64"
       margin="0"
       bleed="0" />
  </sodipodi:namedview>
  <g
     id="g1"
     inkscape:groupmode="layer"
     inkscape:label="1">
    <path
       id="path1"
       d="m 5.179,-6.6080859 -0.328125,0.1523437 c -0.4453125,0.035156 -2.9648438,0.082031 -3.3867188,0.070312 -0.2578125,0 -0.70312495,-0.023437 -1.00781245,-0.082031 l -0.0820313,0.140625 c -0.0117188,0.046875 -0.0117188,0.082031 0.0234375,0.1171875 0.22265625,0.234375 0.55078125,0.4804687 0.85546865,0.6445312 0.1875,-0.058594 0.5742189,-0.1289062 0.7734376,-0.140625 0.375,-0.035156 2.6718749,-0.082031 3.0585937,-0.082031 0.234375,0 0.7382812,0.011719 0.9257812,0.035156 0.1054688,-0.058594 0.234375,-0.28125 0.234375,-0.5273437 0,-0.082031 -0.046875,-0.1523438 -0.1171875,-0.1875 C 5.9407186,-6.5377732 5.4836874,-6.5963675 5.179,-6.6080859 Z m -3.2226563,-1.3359375 -0.09375,0.1171875 c -0.035156,0.035156 -0.035156,0.082031 0,0.140625 0.1640625,0.2695312 0.4335938,0.5742187 0.6445313,0.7148437 0.070312,0.058594 0.140625,0.058594 0.2578125,0.046875 0.421875,-0.023437 1.171875,-0.046875 1.5820312,-0.046875 0.082031,0 0.1523438,-0.011719 0.1992188,-0.058594 0.1171875,-0.1171875 0.1289062,-0.46875 0.046875,-0.6210938 -0.046875,-0.082031 -0.1054688,-0.1054687 -0.2226563,-0.1054687 -0.6210937,0.011719 -1.546875,-0.035156 -2.4140625,-0.1874997 z m 2.390625,4.1367187 c 0,0.5859375 -0.3984375,0.9257813 -0.9492187,0.9257813 -0.5390625,0 -0.9375,-0.3398438 -0.9375,-0.9257813 0,-0.5859375 0.3984375,-0.9375 0.9375,-0.9375 0.5507812,0 0.9492187,0.3515625 0.9492187,0.9375 z m 1.0898438,0 c 0,-0.984375 -0.890625,-1.6171875 -2.0390625,-1.6171875 -1.1601563,0 -2.0507813,0.6328125 -2.0507813,1.6171875 0,0.9960938 0.890625,1.6523438 2.0507813,1.6523438 0.8671875,0 1.59375,-0.375 1.8867187,-0.9960938 0.1640625,0.140625 0.328125,0.2578125 0.5390625,0.375 0.1757813,-0.046875 0.4453125,-0.1054687 0.5976563,-0.1171875 0.1289062,-0.023437 0.4453125,-0.035156 0.703125,-0.046875 0.011719,0.5742188 0.046875,1.3710938 0.1171875,1.6640625 H 7.8860312 C 8.132125,-1.8502734 8.27275,-2.8932422 8.27275,-3.6783984 V -7.3698047 L 8.296187,-7.9557422 C 8.3079062,-8.0846484 8.27275,-8.1783984 8.1555625,-8.2252734 7.8157187,-8.3776172 7.0657187,-8.5299609 6.6086875,-8.5416797 c -0.1054688,0 -0.140625,0.023437 -0.1523438,0.070312 l -0.1171875,0.351563 C 6.679,-7.9908984 6.9719687,-7.7682422 7.1125937,-7.5455859 v 2.25 c -0.3398437,0.011719 -0.75,0.023437 -0.9726562,0.023437 -0.2578125,0 -0.5859375,-0.011719 -0.8203125,-0.046875 l -0.1054688,0.140625 c -0.011719,0.035156 0,0.082031 0.035156,0.1289062 0.1992187,0.1992188 0.4453125,0.3867188 0.7382812,0.5390625 0.1640625,-0.046875 0.4335938,-0.1054687 0.5976563,-0.1171875 l 0.5273437,-0.035156 V -3.57293 c -0.375,0.023437 -0.8789062,0.035156 -1.1367187,0.035156 -0.1757813,0 -0.375,-0.011719 -0.5625,-0.023437 z m -0.9726563,3.44531251 v -0.3984375 L 4.475875,-1.2877734 c 0,-0.140625 -0.058594,-0.2109375 -0.1875,-0.234375 -0.3164063,-0.082031 -1.0664063,-0.1289063 -1.4765625,-0.1289063 -0.09375,0 -0.140625,0.035156 -0.1523438,0.09375 l -0.070312,0.2929688 c 0.2578125,0.09375 0.5390625,0.234375 0.703125,0.36328121 v 0.85546875 c 0,0.609375 0.28125,0.87890625 1.03125,0.890625 l 4.21875,-0.0234375 c 0.082031,0 0.1640625,-0.0234375 0.1992188,-0.0585938 0.070312,-0.0703125 0.1640625,-0.28125 0.1640625,-0.55078125 0,-0.10546875 -0.082031,-0.17578125 -0.1757813,-0.2109375 -0.234375,-0.046875 -0.7265625,-0.09375 -1.0664062,-0.08203125 L 7.2649375,0.13019531 C 6.679,0.16535156 5.2844687,0.16535156 4.6985312,0.16535156 c -0.1640625,0 -0.234375,-0.08203125 -0.234375,-0.2578125 z M 15.318648,0.44660156 h 0.585938 c 0.210937,-0.59765625 0.351562,-1.68749996 0.351562,-2.29687496 v -2.0390625 l 0.84375,-0.023437 v 2.8710937 c 0,0.45703126 0.05859,1.78125001 0.128907,2.1445313 h 0.621093 c 0.234375,-0.66796879 0.375,-1.85156254 0.375,-2.484375 v -6.0351563 l 0.03516,-0.5507812 c 0.01172,-0.1289063 -0.03516,-0.2226563 -0.140625,-0.2578125 -0.328125,-0.1523438 -1.03125,-0.3046875 -1.464844,-0.3164063 -0.09375,0 -0.140625,0.023437 -0.152344,0.070312 l -0.128906,0.3398438 c 0.316406,0.1289062 0.609375,0.328125 0.726562,0.5390625 v 2.9648437 l -0.84375,0.011719 v -2.203125 l 0.03516,-0.515625 c 0,-0.1171875 -0.03516,-0.1992188 -0.128907,-0.234375 -0.304687,-0.1523438 -0.960937,-0.2929688 -1.359375,-0.3046875 -0.105468,0 -0.140625,0.023437 -0.164062,0.070312 l -0.128906,0.328125 c 0.292968,0.1289062 0.574218,0.3164062 0.691406,0.5039062 v 5.4375 c 0,0.4335938 0.04687,1.59375001 0.117187,1.98046876 z m -1.347656,-3.76171876 -0.738281,-0.796875 c 0.433594,-0.6210937 0.773437,-1.265625 0.996094,-1.8867187 l 0.210937,-0.3515625 c 0.03516,-0.058594 0.03516,-0.1171875 -0.01172,-0.1523438 -0.117187,-0.070312 -0.421875,-0.2226562 -0.585937,-0.28125 -0.05859,-0.023437 -0.140625,-0.023437 -0.199219,0 l -0.421875,0.1757813 c -0.398437,0.011719 -1.640625,0.035156 -1.96875,0.035156 -0.257812,0 -0.632812,-0.023437 -0.925781,-0.058594 l -0.07031,0.1289062 c -0.03516,0.046875 -0.02344,0.082031 0.02344,0.1289063 0.210937,0.2109375 0.527344,0.4335937 0.832031,0.5742187 0.1875,-0.058594 0.539063,-0.1289062 0.738281,-0.140625 0.152344,-0.011719 0.679688,-0.011719 1.066407,-0.011719 -0.480469,1.3828125 -1.488282,3.0585937 -2.824219,4.2773437 -0.03516,0.070312 -0.02344,0.1054688 0.02344,0.140625 l 0.175782,0.1523438 c 0.03516,0.023437 0.09375,0.023437 0.164062,-0.035156 0.878906,-0.5625 1.699219,-1.3125 2.355469,-2.1328125 l 1.160156,1.5117188 c 0.07031,0.09375 0.175781,0.1992187 0.269531,0.2226562 0.140625,0.082031 0.398438,0.011719 0.480469,-0.140625 0.04687,-0.070312 0.04687,-0.1875 0,-0.3515625 -0.05859,-0.2109375 -0.222656,-0.5859375 -0.363281,-0.84375 z M 29.3665,-0.91277344 c 0,-1.10156246 -0.996094,-1.79296876 -2.214844,-1.79296876 -1.242187,0 -2.238281,0.6914063 -2.238281,1.79296876 0,1.18359375 0.996094,1.92187504 2.238281,1.92187504 1.21875,0 2.214844,-0.73828129 2.214844,-1.92187504 z m -1.160156,0 c 0,0.64453125 -0.457032,1.01953125 -1.054688,1.01953125 -0.597656,0 -1.066406,-0.375 -1.066406,-1.01953125 0,-0.64453126 0.46875,-1.01953126 1.066406,-1.01953126 0.597656,0 1.054688,0.375 1.054688,1.01953126 z m -1.792969,-3.85546876 -1.03125,-0.8789062 c 0.222656,-0.3984375 0.386719,-0.796875 0.503906,-1.1835938 0.01172,-0.070312 0.03516,-0.1640625 0.03516,-0.2695312 0,-0.09375 -0.07031,-0.1757813 -0.175781,-0.234375 -0.269531,-0.140625 -0.984375,-0.3515625 -1.417969,-0.3984375 -0.09375,-0.011719 -0.128906,0 -0.152343,0.035156 l -0.152344,0.3046875 c 0.234375,0.1289063 0.46875,0.328125 0.5625,0.515625 -0.304688,1.265625 -1.207031,2.671875 -2.507813,3.8320313 -0.05859,0.058594 -0.05859,0.09375 -0.02344,0.140625 l 0.1875,0.1523437 c 0.04687,0.035156 0.08203,0.035156 0.140625,0 1.089844,-0.6328125 1.980469,-1.4414062 2.601562,-2.2851562 l 1.746094,1.6054687 c 0.08203,0.082031 0.199219,0.1757813 0.292969,0.1992188 0.175781,0.046875 0.433594,-0.070312 0.503906,-0.2578125 0.03516,-0.09375 0.02344,-0.1992188 -0.05859,-0.375 -0.117187,-0.1992188 -0.339843,-0.5507813 -0.527343,-0.7617188 z m 4.523437,0.082031 c 0.09375,0 0.222657,-0.035156 0.28125,-0.1054688 0.08203,-0.09375 0.140625,-0.2929687 0.117188,-0.5273437 0,-0.1054688 -0.08203,-0.1992188 -0.199219,-0.2226563 -0.1875,-0.046875 -0.609375,-0.070312 -0.902344,-0.058594 l -0.316406,0.2109375 -0.539062,0.035156 v -2.015625 l 0.03516,-0.5859375 c 0,-0.1289062 -0.03516,-0.2226562 -0.140625,-0.2695312 -0.339844,-0.1523438 -1.089844,-0.3046875 -1.558594,-0.3164063 -0.09375,0 -0.128906,0.023437 -0.152344,0.070312 l -0.117187,0.3515625 c 0.339844,0.1289063 0.632812,0.3515625 0.773437,0.5742188 v 3.1289062 c 0,0.4101563 0.05859,1.40625 0.128907,1.7460938 h 0.667968 c 0.199219,-0.46875 0.351563,-1.3828125 0.363282,-1.9804688 z m 4.713868,0.5976562 c 0.08203,0 0.164062,-0.011719 0.199218,-0.058594 0.05859,-0.058594 0.117188,-0.234375 0.117188,-0.4453125 0,-0.09375 -0.05859,-0.1875 -0.1875,-0.1992188 -0.175781,-0.023437 -0.539063,-0.046875 -0.796875,-0.035156 l -0.28125,0.1523437 c -0.210938,0.035156 -0.714844,0.058594 -1.03125,0.058594 v -1.2890625 l 2.109375,-0.082031 c 0.07031,0 0.128906,-0.023437 0.164062,-0.058594 0.09375,-0.082031 0.164063,-0.28125 0.164063,-0.5273438 0,-0.1054687 -0.05859,-0.1640625 -0.164063,-0.1757812 -0.1875,-0.046875 -0.597656,-0.058594 -0.832031,-0.058594 l -0.269531,0.1875 c -0.1875,0.023437 -0.890625,0.058594 -1.171875,0.070312 -0.328125,-0.058594 -1.160156,-0.09375 -1.535156,-0.09375 -0.07031,0 -0.09375,0.035156 -0.105469,0.070312 l -0.08203,0.2929688 c 0.246093,0.09375 0.457031,0.2226562 0.585937,0.375 v 3.1289062 c 0,0.2226563 0.03516,0.421875 0.05859,0.5273438 0.128906,0.3867187 0.445312,0.6445312 0.890625,0.6445312 0.105469,0 0.246094,0 0.375,-0.023437 0.855469,-0.070312 2.050781,-0.3164062 3,-0.65625 v 0.7734375 c 0,0.421875 0.04687,1.59375001 0.128906,1.98046876 h 0.585938 c 0.199218,-0.59765625 0.339843,-1.69921876 0.339843,-2.29687496 v -2.25 l 0.925782,-0.011719 v 3.046875 c 0,0.45703126 0.04687,1.78125001 0.117187,2.1445313 h 0.609375 c 0.246094,-0.66796879 0.386719,-1.85156254 0.386719,-2.484375 v -6.0351563 l 0.02344,-0.5507812 c 0.01172,-0.1289063 -0.02344,-0.2226563 -0.128906,-0.2578125 -0.328125,-0.1523438 -1.042969,-0.3046875 -1.476562,-0.3164063 -0.09375,0 -0.128907,0.023437 -0.152344,0.070312 l -0.117188,0.3398438 c 0.316407,0.1289062 0.597657,0.328125 0.738282,0.5390625 v 2.7773437 l -0.925782,0.023437 V -6.795588 l 0.04687,-0.5039063 c 0,-0.1171875 -0.04687,-0.1992187 -0.128906,-0.234375 -0.304687,-0.1523437 -0.960937,-0.2929687 -1.371094,-0.3164062 -0.09375,0 -0.140625,0.035156 -0.152343,0.070312 l -0.128907,0.3398437 c 0.292969,0.1171875 0.5625,0.3046875 0.679688,0.5039063 v 4.0429687 c -0.902344,0.2226563 -2.179688,0.3632813 -3,0.3867188 -0.140625,0 -0.1875,-0.058594 -0.1875,-0.1875 v -1.2539063 z m 0,0"
       style="fill:#374151;fill-opacity:1;fill-rule:nonzero;stroke:none"
       aria-label="현재상태"
       transform="matrix(1.3333333,0,0,1.3333333,41.094667,31.76)" />
    <g
       id="g2"
       aria-label="depth=3"
       transform="matrix(1.3333333,0,0,1.3333333,276.11467,29.78)">
      <path
         id="path2"
         d="m 4.6981797,-5.9170313 c 0.035156,-0.1289062 0.035156,-0.140625 0.035156,-0.1757812 0,-0.082031 -0.058594,-0.1289063 -0.140625,-0.1289063 -0.1171875,0 -0.9140625,0.070312 -1.0898437,0.09375 -0.09375,0.011719 -0.1875,0.011719 -0.1875,0.1640625 0,0.1171875 0.09375,0.1171875 0.2460937,0.1171875 0.421875,0 0.421875,0.070312 0.421875,0.140625 0,0.070312 -0.082031,0.3867188 -0.1289062,0.5742188 L 3.6786484,-4.4404688 C 3.5966172,-4.100625 3.5028672,-3.7607813 3.4208359,-3.4092188 3.2567734,-3.725625 2.9755234,-3.96 2.5770859,-3.96 c -1.0429687,0 -2.20312496,1.2304687 -2.20312496,2.6015625 0,0.99609375 0.63281246,1.453125 1.23046876,1.453125 0.5859375,0 1.0546875,-0.48046875 1.1953125,-0.64453125 0.1054687,0.4921875 0.5507812,0.64453125 0.84375,0.64453125 0.2578125,0 0.4804687,-0.1171875 0.6796875,-0.4921875 0.1523437,-0.29296875 0.28125,-0.84375 0.28125,-0.8789063 0,-0.046875 -0.023437,-0.1171875 -0.1171875,-0.1171875 -0.1054688,0 -0.1171875,0.046875 -0.1523438,0.2226563 -0.1992187,0.7734375 -0.3867187,1.04296875 -0.6679687,1.04296875 -0.2226563,0 -0.28125,-0.2109375 -0.28125,-0.41015625 0,-0.1171875 0.046875,-0.36328125 0.058594,-0.3984375 z m -1.8515625,4.828125 c -0.046875,0.1523438 -0.046875,0.16406255 -0.1992188,0.35156255 -0.3164062,0.375 -0.6796875,0.609375 -1.0195312,0.609375 -0.4335938,0 -0.5859375,-0.45703125 -0.5859375,-0.84375 0,-0.43359375 0.2578125,-1.46484375 0.46875,-1.89843755 0.2929687,-0.5390625 0.703125,-0.8671875 1.0664062,-0.8671875 0.5976563,0 0.7265625,0.7265625 0.7265625,0.7734375 0,0.046875 -0.011719,0.09375 -0.023437,0.1289063 z m 3.1552734,-0.9609375 c 0.5390625,0 1.125,0 1.6054688,-0.1171875 0.84375,-0.2109375 0.9960937,-0.7148437 0.9960937,-1.0195312 0,-0.5039063 -0.4804687,-0.7734375 -1.0078125,-0.7734375 -1.0429687,0 -2.4023437,0.8789062 -2.4023437,2.4140625 0,0.85546875 0.5039062,1.640625 1.4648437,1.640625 1.3476563,0 2.0976563,-0.92578125 2.0976563,-1.04296875 0,-0.0585938 -0.058594,-0.12890625 -0.1171875,-0.12890625 -0.046875,0 -0.058594,0.011719 -0.140625,0.10546875 -0.5390625,0.66796875 -1.3476563,0.84375 -1.8164063,0.84375 -0.6328125,0 -0.8085937,-0.59765625 -0.8085937,-1.04296875 0,-0.023437 0,-0.3398438 0.1289062,-0.8789063 z M 6.0604844,-2.2725 c 0.3984375,-1.4179688 1.3945312,-1.4648438 1.5351562,-1.4648438 0.3046875,0 0.6679688,0.140625 0.6679688,0.5507813 0,0.9140625 -1.3476563,0.9140625 -2.203125,0.9140625 z m 3.3955078,3.3984375 c -0.058594,0.2578125 -0.082031,0.3398437 -0.46875,0.3398437 -0.09375,0 -0.1992188,0 -0.1992188,0.1523438 0,0.046875 0.011719,0.1171875 0.1171875,0.1171875 l 0.3867188,-0.011719 c 0.046875,-0.011719 0.2578125,-0.011719 0.3867187,-0.011719 0.1523438,0 0.3046875,0.011719 0.4570316,0.011719 0.140625,0 0.292968,0.011719 0.421875,0.011719 0.05859,0 0.175781,0 0.175781,-0.1523438 0,-0.1171875 -0.09375,-0.1171875 -0.246094,-0.1171875 -0.421875,0 -0.421875,-0.070312 -0.421875,-0.1523437 0,-0.046875 0.07031,-0.2929688 0.105469,-0.43359375 l 0.328125,-1.3359375 c 0.09375,0.1875 0.339844,0.55078125 0.855469,0.55078125 1.042968,0 2.191406,-1.2539063 2.191406,-2.6015625 0,-0.9140625 -0.5625,-1.453125 -1.242188,-1.453125 -0.1875,0 -0.632812,0.046875 -1.183593,0.65625 C 10.991148,-3.8076563 10.580992,-3.96 10.276305,-3.96 c -0.3750003,0 -0.5625003,0.28125 -0.6914066,0.515625 -0.1523437,0.3164062 -0.28125,0.8320312 -0.28125,0.8671875 0,0.082031 0.070312,0.1054687 0.1289063,0.1054687 0.09375,0 0.1171875,-0.046875 0.1640625,-0.2226562 0.1640625,-0.7148438 0.3515625,-1.0429688 0.6562498,-1.0429688 0.269531,0 0.269531,0.28125 0.269531,0.421875 0,0.070312 -0.01172,0.2109375 -0.02344,0.28125 z m 1.6289058,-3.890625 c 0.03516,-0.1757813 0.03516,-0.1875 0.152344,-0.328125 0.246094,-0.3046875 0.65625,-0.6445313 1.054688,-0.6445313 0.421875,0 0.585937,0.421875 0.585937,0.84375 0,0.3984375 -0.246094,1.5117188 -0.527344,1.99218755 -0.304687,0.50390625 -0.679687,0.7734375 -1.007812,0.7734375 -0.585938,0 -0.726563,-0.703125 -0.726563,-0.76171875 0,-0.0585938 0.01172,-0.10546875 0.02344,-0.1523438 z M 15.576109,-3.585 h 0.855469 c 0.152344,0 0.269531,0 0.269531,-0.1640625 0,-0.1171875 -0.09375,-0.1171875 -0.257812,-0.1171875 h -0.796875 l 0.363281,-1.4882813 c 0,-0.140625 -0.117187,-0.2578125 -0.269531,-0.2578125 -0.292969,0 -0.363281,0.2578125 -0.375,0.3515625 L 15.001891,-3.86625 h -0.84375 c -0.164063,0 -0.28125,0 -0.28125,0.1640625 0,0.1171875 0.105468,0.1171875 0.269531,0.1171875 h 0.796875 l -0.609375,2.4375 c -0.08203,0.26953125 -0.08203,0.29296875 -0.08203,0.41015625 0,0.52734375 0.410156,0.83203125 0.878906,0.83203125 0.925781,0 1.453125,-1.2890625 1.453125,-1.3710938 0,-0.046875 -0.02344,-0.1171875 -0.117188,-0.1171875 -0.08203,0 -0.09375,0.035156 -0.152343,0.1875 -0.28125,0.6445313 -0.726563,1.07812505 -1.171875,1.07812505 -0.175782,0 -0.28125,-0.1171875 -0.28125,-0.41015625 0,-0.19921875 0.02344,-0.3046875 0.05859,-0.43359375 z m 3.993164,-2.3320313 c 0.03516,-0.1289062 0.03516,-0.140625 0.03516,-0.1757812 0,-0.082031 -0.05859,-0.1289063 -0.140625,-0.1289063 -0.128907,0 -0.914063,0.070312 -1.089844,0.09375 -0.09375,0.011719 -0.1875,0.011719 -0.1875,0.1640625 0,0.1171875 0.09375,0.1171875 0.234375,0.1171875 0.421875,0 0.421875,0.070312 0.421875,0.140625 0,0.046875 0,0.058594 -0.03516,0.2226563 l -1.289063,5.15625 c -0.03516,0.1171875 -0.03516,0.140625 -0.03516,0.1640625 0,0.140625 0.117187,0.2578125 0.28125,0.2578125 0.152344,0 0.28125,-0.08203125 0.339844,-0.2109375 0.01172,-0.046875 0.09375,-0.36328125 0.140625,-0.55078125 l 0.210937,-0.79687505 c 0.02344,-0.140625 0.117188,-0.4804687 0.140625,-0.609375 l 0.105469,-0.3984375 c 0.04687,-0.2109375 0.5625,-1.265625 1.523437,-1.265625 0.480469,0 0.480469,0.4804688 0.480469,0.6328125 0,0.5390625 -0.410156,1.640625 -0.515625,1.9101563 -0.105469,0.28125 -0.140625,0.375 -0.140625,0.5390625 0,0.48046875 0.363281,0.75 0.773438,0.75 0.855468,0 1.207031,-1.2773438 1.207031,-1.3710938 0,-0.046875 -0.02344,-0.1171875 -0.117188,-0.1171875 -0.09375,0 -0.105468,0.046875 -0.140625,0.1640625 -0.222656,0.7617188 -0.609375,1.10156255 -0.925781,1.10156255 -0.05859,0 -0.222656,0 -0.222656,-0.28125 0,-0.22265625 0.08203,-0.45703125 0.164062,-0.65625005 0.175782,-0.4570312 0.527344,-1.40625 0.527344,-1.9101562 0,-0.796875 -0.585937,-0.984375 -1.066406,-0.984375 -0.527344,0 -0.984375,0.2460937 -1.347656,0.6914062 z m 0,0"
         style="fill:#64748b;fill-opacity:1;fill-rule:nonzero;stroke:none" />
      <path
         id="path3"
         d="m 31.235289,-2.9639063 c 0.117188,0 0.292969,0 0.292969,-0.1875 0,-0.1992187 -0.199219,-0.1992187 -0.328125,-0.1992187 h -5.472656 c -0.140625,0 -0.328125,0 -0.328125,0.1992187 0,0.1875 0.175781,0.1875 0.292968,0.1875 z m -0.03516,1.828125 c 0.128906,0 0.328125,0 0.328125,-0.1992187 0,-0.1875 -0.175781,-0.1875 -0.292969,-0.1875 H 25.69232 c -0.117187,0 -0.292968,0 -0.292968,0.1875 0,0.1992187 0.1875,0.1992187 0.328125,0.1992187 z m 6.131836,-2.015625 c 0.832031,-0.3164062 1.230468,-0.9726562 1.230468,-1.59375 0,-0.6914062 -0.761718,-1.21875 -1.6875,-1.21875 -0.9375,0 -1.640625,0.5273438 -1.640625,1.2070313 0,0.2929687 0.199219,0.46875 0.457032,0.46875 0.269531,0 0.457031,-0.1875 0.457031,-0.4570313 0,-0.3046875 -0.222656,-0.4453125 -0.527344,-0.4453125 0.234375,-0.375 0.785156,-0.5507812 1.21875,-0.5507812 0.75,0 0.890625,0.5859375 0.890625,1.0078125 0,0.2695312 -0.05859,0.703125 -0.28125,1.0429687 -0.269531,0.3984375 -0.585937,0.421875 -0.84375,0.4335938 -0.234375,0.023437 -0.246094,0.023437 -0.316406,0.023437 -0.08203,0.011719 -0.152344,0.011719 -0.152344,0.1171875 0,0.1171875 0.07031,0.1171875 0.222656,0.1171875 h 0.421875 c 0.773438,0 1.125,0.6210937 1.125,1.4765625 0,1.1484375 -0.621093,1.46484375 -1.078125,1.46484375 -0.164062,0 -1.03125,-0.03515625 -1.441406,-0.703125 0.328125,0.046875 0.574219,-0.17578125 0.574219,-0.48046875 0,-0.3046875 -0.222656,-0.4921875 -0.480469,-0.4921875 -0.222656,0 -0.492187,0.140625 -0.492187,0.515625 0,0.796875 0.832031,1.41796875 1.875,1.41796875 1.113281,0 1.957031,-0.80859375 1.957031,-1.72265625 0,-0.7851563 -0.621094,-1.4414063 -1.488281,-1.6289058 z m 0,0"
         style="fill:#64748b;fill-opacity:1;fill-rule:nonzero;stroke:none" />
    </g>
    <path
       id="path4"
       d="m 5.9412813,-1.1379141 h 0.328125 c 0.1171875,-0.3984375 0.1875,-1.0195312 0.1875,-1.5820312 v -3.2929688 l 0.023437,-0.421875 c 0,-0.082031 -0.023437,-0.1289062 -0.09375,-0.1523437 -0.234375,-0.1054688 -0.7265625,-0.1992188 -1.0195313,-0.2109375 -0.058594,0 -0.070312,0.011719 -0.09375,0.035156 l -0.058594,0.1992188 c 0.28125,0.09375 0.5390625,0.234375 0.6796875,0.3984375 v 3.6445312 c 0,0.3632813 0.011719,1.0664063 0.046876,1.3828127 z M 4.3709688,-4.1965078 c 0,-0.9375 -0.7617188,-1.59375 -1.78125,-1.59375 -1.0429688,0 -1.80468755,0.65625 -1.80468755,1.59375 0,0.9375 0.76171875,1.59375 1.80468755,1.59375 1.0195312,0 1.78125,-0.65625 1.78125,-1.59375 z m -0.5742188,0 c 0,0.7265625 -0.5273437,1.1484375 -1.2070312,1.1484375 -0.6914063,0 -1.2070313,-0.421875 -1.2070313,-1.1484375 0,-0.7265625 0.515625,-1.171875 1.2070313,-1.171875 0.6796875,0 1.2070312,0.4453125 1.2070312,1.171875 z m -1.125,4.14843749 c 0,0.43359375 0.1875,0.62109375 0.703125,0.62109375 L 6.79675,0.56130469 c 0.046875,0 0.082031,-0.0234375 0.1054688,-0.046875 0.035156,-0.0351563 0.082031,-0.12890625 0.082031,-0.28125 0,-0.0585938 -0.035156,-0.09375 -0.09375,-0.1171875 C 6.7381563,0.08083594 6.374875,0.05739844 6.1405,0.05739844 L 5.8826875,0.20974219 c -0.46875,0.0117188 -1.9101562,0.0234375 -2.4257812,0.0234375 -0.140625,0 -0.1992188,-0.0703125 -0.1992188,-0.2109375 V -1.0910391 l 0.011719,-0.3515625 c 0,-0.09375 -0.035156,-0.140625 -0.1171875,-0.1523437 -0.1992188,-0.046875 -0.6445313,-0.082031 -0.9140625,-0.082031 -0.046875,0 -0.070312,0.023437 -0.082031,0.058594 l -0.035156,0.1757812 c 0.2109375,0.046875 0.4335937,0.1289063 0.5507812,0.234375 z M 13.956906,-2.0051016 h 0.328125 c 0.105469,-0.3046875 0.175782,-0.8789062 0.175782,-1.3007812 v -2.7539063 l 0.02344,-0.3867187 c 0,-0.070312 -0.02344,-0.1289063 -0.09375,-0.1523438 -0.199219,-0.09375 -0.679687,-0.1875 -0.949219,-0.1992187 -0.05859,0 -0.08203,0.011719 -0.105468,0.046875 l -0.04687,0.1875 c 0.246093,0.082031 0.492187,0.2226562 0.621093,0.375 v 3.0585937 c 0,0.3046875 0.01172,0.8671875 0.04687,1.125 z m -2.695312,-3.1640625 c 0.03516,0 0.08203,-0.011719 0.105469,-0.035156 0.03516,-0.046875 0.07031,-0.140625 0.07031,-0.28125 0,-0.058594 -0.02344,-0.09375 -0.09375,-0.1054688 -0.140625,-0.023437 -0.421875,-0.046875 -0.574219,-0.046875 l -0.1875,0.1171875 c -0.1875,0.035156 -0.9843747,0.082031 -1.253906,0.082031 -0.1992187,-0.023437 -0.6914062,-0.046875 -0.9023437,-0.046875 -0.046875,0 -0.070312,0.023437 -0.09375,0.046875 L 8.29675,-5.2629141 c 0.1875,0.046875 0.3515625,0.1171875 0.4570313,0.2226563 v 2.0390625 c 0,0.1992187 0.023437,0.3398437 0.046875,0.3867187 0.09375,0.234375 0.234375,0.328125 0.5273437,0.328125 0.070312,0 0.1875,0 0.28125,-0.011719 0.5625,-0.035156 1.535156,-0.2578125 2.132813,-0.5039063 0.02344,-0.011719 0.04687,-0.046875 0.03516,-0.070312 l -0.03516,-0.1171875 c 0,-0.035156 -0.02344,-0.046875 -0.07031,-0.035156 -0.550781,0.140625 -1.570312,0.2578125 -2.203125,0.2578125 -0.1054687,0 -0.140625,-0.035156 -0.140625,-0.1289063 v -2.1914062 z m 1.277344,3.0820313 h 0.328125 c 0.09375,-0.3046875 0.175781,-0.8320313 0.175781,-1.2890625 v -2.25 l 0.02344,-0.3398438 c 0,-0.082031 -0.02344,-0.1289062 -0.09375,-0.1523437 -0.199218,-0.09375 -0.632812,-0.1757813 -0.878906,-0.1992188 -0.05859,0 -0.08203,0.023437 -0.09375,0.058594 l -0.05859,0.1757812 c 0.222657,0.082031 0.445313,0.2109375 0.5625,0.3515625 v 1.3828125 c -0.375,0.023437 -0.984375,0.035156 -1.242187,0.035156 -0.210938,0 -0.445313,-0.011719 -0.644531,-0.035156 l -0.04687,0.09375 c -0.01172,0.023437 0,0.046875 0.02344,0.070312 0.152344,0.1171875 0.351563,0.234375 0.574219,0.3164063 0.152344,-0.046875 0.351562,-0.082031 0.503906,-0.1054688 0.164063,-0.011719 0.550781,-0.023437 0.832031,-0.023437 v 0.796875 c 0,0.3046875 0.01172,0.84375 0.03516,1.1132813 z m 1.335937,3.02343749 h 0.351563 c 0.09375,-0.3046875 0.164062,-0.8203125 0.164062,-1.16015625 l 0.01172,-1.03125004 0.09375,-0.2460937 c 0.01172,-0.035156 0.01172,-0.082031 -0.01172,-0.1054688 -0.05859,-0.046875 -0.222656,-0.1289062 -0.304687,-0.1757812 -0.04687,-0.023437 -0.09375,-0.023437 -0.117188,0 l -0.222656,0.1054687 c -0.550781,0.023437 -2.964844,0.070312 -3.363281,0.070312 -0.222657,0 -0.539063,-0.023437 -0.773438,-0.070312 l -0.058594,0.1054688 c -0.011719,0.023437 0,0.058594 0.023437,0.070312 0.1875,0.140625 0.445312,0.2929687 0.691406,0.375 0.175781,-0.070312 0.515625,-0.1289063 0.714844,-0.1289063 0.351562,-0.023437 2.109375,-0.058594 2.753906,-0.046875 v 1.21875004 c 0,0.28125 0.01172,0.76171875 0.04687,1.01953125 z m 8.0625,-2.01562499 -0.292969,0.11718749 c -0.550781,0.0351563 -4.617187,0.09375 -5.097656,0.0820313 -0.246094,0 -0.621094,-0.0351563 -0.890625,-0.0820313 l -0.04687,0.1171875 c -0.01172,0.0234375 0,0.046875 0.02344,0.0703125 0.199218,0.1640625 0.492187,0.328125 0.773437,0.41015625 0.199219,-0.0585938 0.597656,-0.12890625 0.796875,-0.15234375 0.421875,-0.0234375 4.078125,-0.0703125 4.628906,-0.0585938 0.246094,0 0.714844,0.0117188 0.925782,0.0351563 0.07031,-0.0351563 0.175781,-0.15234375 0.175781,-0.29296875 0,-0.0585938 -0.04687,-0.10546875 -0.105469,-0.12890625 -0.1875,-0.0585938 -0.609375,-0.10546879 -0.890625,-0.11718749 z m -5.800781,-1.2539063 0.08203,0.1171875 c 0.01172,0.011719 0.03516,0.011719 0.07031,0 1.195312,-0.5039062 2.214843,-1.2304687 2.90625,-2.0390625 l 2.636718,1.5703125 c 0.08203,0.035156 0.175782,0.082031 0.234375,0.082031 0.09375,0.011719 0.210938,-0.082031 0.222657,-0.1875 0,-0.058594 -0.03516,-0.140625 -0.128907,-0.2226563 -0.117187,-0.140625 -0.386718,-0.3632812 -0.585937,-0.5039062 l -0.515625,-0.1171875 -1.617188,-0.9140625 c 0.199219,-0.2695313 0.351563,-0.5390625 0.480469,-0.8203125 0.02344,-0.046875 0.04687,-0.1054688 0.04687,-0.1757813 0,-0.070312 -0.04687,-0.1171875 -0.105469,-0.1757812 -0.175781,-0.1054688 -0.621093,-0.2695313 -0.925781,-0.328125 -0.04687,-0.011719 -0.07031,0 -0.09375,0.035156 l -0.117187,0.1757813 c 0.199218,0.09375 0.398437,0.2695312 0.480468,0.421875 -0.480468,1.0546875 -1.617187,2.203125 -3.058593,3.0234375 -0.02344,0.011719 -0.03516,0.035156 -0.01172,0.058594 z m 0,0"
       style="fill:#64748b;fill-opacity:1;fill-rule:nonzero;stroke:none"
       aria-label="인덱스"
       transform="matrix(1.3333333,0,0,1.3333333,36.062667,62.068)" />
    <path
       id="path5"
       d="M 1.9334688,-0.00108594 H 3.843625 V -0.22374219 L 2.6365938,-0.32921094 C 2.624875,-0.83311719 2.6131563,-1.3370234 2.6131563,-1.8292109 v -2.5078125 l 0.035156,-1.2539063 -0.1171875,-0.09375 -1.734375,0.4453125 v 0.2460938 l 1.1601563,-0.1992188 v 3.3632813 l -0.011719,1.49999996 -1.265625,0.10546875 v 0.22265625 z m 0,0"
       style="fill:#64748b;fill-opacity:1;fill-rule:nonzero;stroke:none"
       aria-label="1"
       transform="matrix(1.3333333,0,0,1.3333333,92.062667,61.950667)" />
    <path
       id="path6"
       d="M 0.43497656,4.921875e-4 H 3.9974766 V -0.56200781 H 0.85685156 L 2.0756016,-1.7690391 c 1.2421875,-1.1601562 1.6875,-1.7695312 1.6875,-2.4960937 0,-0.890625 -0.5507813,-1.453125 -1.6171875,-1.453125 -0.8203125,0 -1.58203129,0.421875 -1.71093754,1.21875 0.046875,0.1640625 0.17578125,0.2578125 0.328125,0.2578125 0.1875,0 0.31640624,-0.1054688 0.38671874,-0.421875 l 0.1875,-0.6796875 c 0.2226563,-0.09375 0.4101563,-0.1289063 0.609375,-0.1289063 0.703125,0 1.125,0.4335938 1.125,1.2070313 0,0.6914062 -0.375,1.3359375 -1.1953125,2.2382812 -0.3867187,0.421875 -0.91406249,1.0195313 -1.44140624,1.59375004 z m 0,0"
       style="fill:#64748b;fill-opacity:1;fill-rule:nonzero;stroke:none"
       aria-label="2"
       transform="matrix(1.3333333,0,0,1.3333333,143.088,61.972)" />
    <path
       id="path7"
       d="m 2.0498125,0.11615625 c 1.125,0 1.8984375,-0.6328125 1.8984375,-1.59375005 0,-0.7734375 -0.4804687,-1.3242187 -1.4765625,-1.4765625 0.8671875,-0.1992187 1.3007813,-0.75 1.3007813,-1.3945312 0,-0.796875 -0.5976563,-1.3710938 -1.6171875,-1.3710938 -0.75,0 -1.45312505,0.328125 -1.57031255,1.1132813 0.046875,0.140625 0.17578125,0.1875 0.3046875,0.1875 0.19921875,0 0.31640625,-0.09375 0.37500005,-0.3515625 l 0.1640625,-0.5976563 c 0.1992187,-0.070312 0.375,-0.1054687 0.5742187,-0.1054687 0.703125,0 1.1015625,0.4335937 1.1015625,1.1367187 0,0.8320313 -0.5507812,1.2773438 -1.3242187,1.2773438 h -0.328125 v 0.2695312 h 0.3632812 c 0.9609375,0 1.4296875,0.46875 1.4296875,1.3242188 0,0.8203125 -0.46875,1.3359375 -1.3710937,1.3359375 -0.2460938,0 -0.4335938,-0.0351563 -0.6210938,-0.10546875 L 1.1005938,-0.8565 c -0.070312,-0.2929688 -0.1757813,-0.4101563 -0.37500005,-0.4101563 -0.15234375,0 -0.29296875,0.082031 -0.33984375,0.2460938 0.15234375,0.73828125 0.75,1.13671875 1.6640625,1.13671875 z m 0,0"
       style="fill:#64748b;fill-opacity:1;fill-rule:nonzero;stroke:none"
       aria-label="3"
       transform="matrix(1.3333333,0,0,1.3333333,194.11067,61.892)" />
    <path
       id="path8"
       d="m 2.6724141,0.13936719 h 0.609375 V -1.4192266 h 0.9492187 v -0.46875 H 3.2817891 V -5.6731328 H 2.8364766 l -2.58984379,3.8789062 v 0.375 H 2.6724141 Z M 0.58647656,-1.8879766 1.6294453,-3.4582891 2.6724141,-5.0168828 v 3.1289062 z m 0,0"
       style="fill:#64748b;fill-opacity:1;fill-rule:nonzero;stroke:none"
       aria-label="4"
       transform="matrix(1.3333333,0,0,1.3333333,245.136,61.849333)" />
    <path
       id="path9"
       d="m 1.9574219,-0.00103125 h 1.078125 L 4.6644531,-5.4150938 H 3.7621094 l -0.84375,3.0820313 c -0.1171875,0.5507812 -0.2695313,1.078125 -0.3984375,1.60546875 H 2.4847656 C 2.3558594,-1.2549375 2.2269531,-1.7822813 2.0863281,-2.3330625 l -0.84375,-3.0820313 H 0.31679687 Z m 5.0507812,0 H 7.9339844 V -5.4150938 H 7.0082031 Z m 0.46875,-6.53906255 c 0.3632813,0 0.6328125,-0.234375 0.6328125,-0.5976562 0,-0.3515625 -0.2695312,-0.5976563 -0.6328125,-0.5976563 -0.375,0 -0.6445312,0.2460938 -0.6445312,0.5976563 0,0.3632812 0.2695312,0.5976562 0.6445312,0.5976562 z M 12.445703,0.127875 c 1.253906,0 1.933594,-0.7265625 1.933594,-1.6054688 0,-1.0195312 -0.867188,-1.3476562 -1.617188,-1.6523437 -0.609375,-0.234375 -1.171875,-0.4101563 -1.171875,-0.9375 0,-0.4101563 0.304688,-0.7734375 0.972657,-0.7734375 0.492187,0 0.808593,0.1992187 1.183593,0.4804687 l 0.433594,-0.5859375 C 13.758203,-5.2861875 13.242578,-5.544 12.551172,-5.544 c -1.160156,0 -1.828125,0.65625 -1.828125,1.5234375 0,0.9257812 0.855469,1.2773437 1.570312,1.5703125 0.609375,0.234375 1.207032,0.46875 1.207032,1.03125 0,0.45703125 -0.339844,0.85546875 -1.03125,0.85546875 -0.667969,0 -1.078125,-0.26953125 -1.558594,-0.65625005 l -0.445313,0.5976563 c 0.527344,0.43359375 1.195313,0.75 1.980469,0.75 z m 4.526367,-0.12890625 h 0.925782 V -5.4150938 H 16.97207 Z m 0.46875,-6.53906255 c 0.363282,0 0.632813,-0.234375 0.632813,-0.5976562 0,-0.3515625 -0.269531,-0.5976563 -0.632813,-0.5976563 -0.375,0 -0.644531,0.2460938 -0.644531,0.5976563 0,0.3632812 0.269531,0.5976562 0.644531,0.5976562 z m 5.777344,6.65625005 c 0.398438,0 0.855469,-0.09375 1.253906,-0.26953125 l -0.199218,-0.66796875 c -0.269532,0.140625 -0.550782,0.2109375 -0.855469,0.2109375 -0.738281,0 -0.996094,-0.44531255 -0.996094,-1.21875005 v -2.859375 h 1.898438 v -0.7265625 h -1.898438 v -1.5234375 h -0.75 l -0.117187,1.5234375 -1.148438,0.046875 v 0.6796875 h 1.113281 v 2.8359375 c 0,1.1835938 0.421875,1.96875005 1.699219,1.96875005 z m 4.488281,0 c 0.632813,0 1.101563,-0.1875 1.5,-0.4453125 l -0.328125,-0.5859375 c -0.316406,0.19921875 -0.632812,0.31640625 -1.066406,0.31640625 -0.878906,0 -1.464844,-0.7382813 -1.5,-1.8984375 h 3.082031 c 0.01172,-0.1289063 0.02344,-0.328125 0.02344,-0.515625 0,-1.546875 -0.667969,-2.53125 -1.863281,-2.53125 -1.113282,0 -2.144532,1.078125 -2.144532,2.8476562 0,1.7695313 1.019532,2.81250005 2.296875,2.81250005 z M 26.300195,-3.153375 c 0.07031,-1.0664063 0.632813,-1.6640625 1.265625,-1.6640625 0.667969,0 1.054688,0.5742187 1.054688,1.6640625 z m 5.81543,3.29296875 c 0.503906,0 0.890625,-0.31640625 1.195312,-0.7734375 h 0.02344 l 0.08203,0.6328125 h 0.761719 V -7.653375 h -0.914063 v 1.7578125 l 0.03516,0.9492187 C 32.959375,-5.3565 32.642969,-5.544 32.197656,-5.544 c -0.996094,0 -1.851562,1.0195312 -1.851562,2.8476562 0,1.87500005 0.703125,2.83593755 1.769531,2.83593755 z m 0.199219,-0.7734375 c -0.65625,0 -1.03125,-0.73828125 -1.03125,-2.06250005 0,-1.2890625 0.515625,-2.0859375 1.113281,-2.0859375 0.316406,0 0.585937,0.1054688 0.867187,0.5273438 v 2.8945312 c -0.304687,0.5273438 -0.609375,0.72656255 -0.949218,0.72656255 z m 0,0"
       style="fill:#374151;fill-opacity:1;fill-rule:nonzero;stroke:none"
       aria-label="visited"
       transform="matrix(1.3333333,0,0,1.3333333,20.366667,99.892)" />
    <path
       id="path10"
       d="m -17.00807,-37.9849 h 34.01616 v 27.77988 h -34.01616 z"
       style="fill:#ffffff;fill-opacity:1;fill-rule:nonzero;stroke:#dc2626;stroke-width:0.99628;stroke-linecap:butt;stroke-linejoin:miter;stroke-miterlimit:10;stroke-dasharray:none;stroke-opacity:1"
       transform="matrix(1.3333333,0,0,-1.3333333,94.985333,62.697333)" />
    <path
       id="path11"
       d="m 2.3544844,0.15196875 c 0.515625,0 0.9023437,-0.1875 1.1835937,-0.515625 L 3.3857344,-0.5394375 c -0.2695313,0.1640625 -0.4570313,0.24609375 -0.7617188,0.24609375 -0.4335937,0 -0.6679687,-0.26953125 -0.6679687,-0.87890625 v -3.5976563 h 1.4296875 v -0.375 H 1.9560469 l 0.035156,-1.546875 h -0.550781 l -0.28125,1.5351563 -1.01953128,0.082031 v 0.3046875 H 1.1357344 v 2.7070313 c 0,0.3632812 -0.011719,0.5625 -0.011719,0.890625 0,0.890625 0.3867188,1.32421875 1.230469,1.32421895 z M 4.8857344,-3.75e-4 h 1.8164062 v -0.28125 l -0.9492187,-0.09375 -0.011719,-1.9101563 v -0.9257812 c 0.2929688,-0.8085938 0.6679688,-1.2773438 1.1953125,-1.5351563 l 0.082031,0.09375 c 0.234375,0.234375 0.3984375,0.375 0.65625,0.375 0.3515625,0 0.515625,-0.2109375 0.5273437,-0.5625 -0.1054687,-0.2929687 -0.421875,-0.4453125 -0.796875,-0.4453125 -0.6679687,0 -1.3359375,0.5742188 -1.6640625,1.4765625 L 5.6826086,-5.1800625 5.5537023,-5.2620935 4.0185461,-4.863656 v 0.2578125 l 0.8671875,0.046875 c 0.023437,0.4921875 0.035156,0.9960938 0.035156,1.6757813 v 0.5976562 l -0.023437,1.92187505 -0.8320312,0.0820313 v 0.28125 z m 7.9189456,0.09375 1.535156,-0.09375 v -0.26953125 l -0.761719,-0.0820313 V -3.7855314 l 0.03516,-1.3007812 -0.09375,-0.1289062 -1.546875,0.1757812 v 0.2578125 l 0.808594,0.09375 -0.01172,3.421875 c -0.457031,0.53906255 -0.996093,0.8554688 -1.558593,0.8554688 -0.65625,0 -0.996094,-0.36328125 -0.996094,-1.4296876 v -1.9453125 l 0.03516,-1.3007812 -0.09375,-0.1289062 -1.5703123,0.1640625 v 0.2578125 l 0.8320312,0.1054687 -0.035156,2.8359375 c -0.011719,1.4882813 0.5273437,2.0039063 1.4765621,2.0039063 0.785156,0 1.417969,-0.43359375 1.921875,-1.06640625 z m 4.924804,0.05859375 c 0.890625,0 1.558594,-0.41015625 1.992188,-1.08984375 L 19.569328,-1.0785 c -0.410156,0.48046875 -0.914062,0.7265625 -1.628906,0.7265625 -1.089844,0 -1.875,-0.6796875 -1.886719,-2.2734375 h 3.585938 c 0.04687,-0.1523438 0.07031,-0.3515625 0.07031,-0.5976563 0,-1.171875 -0.773437,-2.0625 -2.0625,-2.0625 -1.324219,0 -2.460937,1.0546875 -2.460937,2.7304688 0,1.79296875 1.066406,2.70703125 2.542968,2.70703125 z M 16.065422,-2.9300625 c 0.07031,-1.2890625 0.738281,-2.0390625 1.558594,-2.0390625 0.808593,0 1.289062,0.6210937 1.289062,1.4648437 0,0.3984375 -0.105469,0.5742188 -0.457031,0.5742188 z m 0,0"
       style="fill:#dc2626;fill-opacity:1;fill-rule:nonzero;stroke:none"
       aria-label="true"
       transform="matrix(1.3333333,0,0,1.3333333,81.556,99.188)" />
    <path
       id="path12"
       d="m 21.26028,-37.9849 h 34.01616 v 27.77988 H 21.26028 Z"
       style="fill:#ffffff;fill-opacity:1;fill-rule:nonzero;stroke:#dc2626;stroke-width:0.99628;stroke-linecap:butt;stroke-linejoin:miter;stroke-miterlimit:10;stroke-dasharray:none;stroke-opacity:1"
       transform="matrix(1.3333333,0,0,-1.3333333,94.985333,62.697333)" />
    <path
       id="path13"
       d="m 2.3540625,0.15196875 c 0.515625,0 0.9023437,-0.1875 1.1835937,-0.515625 L 3.3853125,-0.5394375 C 3.1157812,-0.375375 2.9282812,-0.29334375 2.6235937,-0.29334375 2.19,-0.29334375 1.955625,-0.562875 1.955625,-1.17225 v -3.5976563 h 1.4296875 v -0.375 H 1.955625 l 0.035156,-1.546875 H 1.44 L 1.15875,-5.156625 0.13921875,-5.074594 v 0.3046875 H 1.1353125 v 2.7070313 c 0,0.3632812 -0.011719,0.5625 -0.011719,0.890625 0,0.890625 0.3867188,1.32421875 1.230469,1.32421895 z M 4.8853125,-3.75e-4 h 1.8164062 v -0.28125 L 5.7525,-0.375375 5.7407812,-2.2855313 V -3.2113125 C 6.03375,-4.0199063 6.40875,-4.4886563 6.9360937,-4.7464688 l 0.082031,0.09375 c 0.234375,0.234375 0.3984375,0.375 0.65625,0.375 0.3515625,0 0.515625,-0.2109375 0.5273437,-0.5625 -0.1054687,-0.2929687 -0.421875,-0.4453125 -0.796875,-0.4453125 -0.6679687,0 -1.3359375,0.5742188 -1.6640625,1.4765625 L 5.6821875,-5.1800625 5.5532812,-5.2620938 4.018125,-4.8636563 v 0.2578125 l 0.8671875,0.046875 c 0.023437,0.4921875 0.035156,0.9960938 0.035156,1.6757813 v 0.5976562 L 4.8970312,-0.36365625 4.065,-0.281625 v 0.28125 z m 7.9218745,0.09375 1.535157,-0.09375 v -0.26953125 l -0.761719,-0.0820313 V -3.7855314 l 0.03516,-1.3007812 -0.09375,-0.1289062 -1.546875,0.1757812 v 0.2578125 l 0.808594,0.09375 -0.01172,3.421875 c -0.457031,0.53906255 -0.996094,0.8554688 -1.558594,0.8554688 -0.65625,0 -0.996093,-0.36328125 -0.996093,-1.4296876 v -1.9453125 l 0.03516,-1.3007812 -0.09375,-0.1289062 -1.5703125,0.1640625 v 0.2578125 l 0.8320312,0.1054687 -0.035156,2.8359375 c -0.011719,1.4882813 0.5273437,2.0039063 1.4765623,2.0039063 0.785156,0 1.417969,-0.43359375 1.921875,-1.06640625 z m 4.921875,0.05859375 c 0.890625,0 1.558594,-0.41015625 1.992188,-1.08984375 L 19.568906,-1.0785 c -0.410156,0.48046875 -0.914062,0.7265625 -1.628906,0.7265625 -1.089844,0 -1.875,-0.6796875 -1.886719,-2.2734375 h 3.585938 c 0.04687,-0.1523438 0.07031,-0.3515625 0.07031,-0.5976563 0,-1.171875 -0.773437,-2.0625 -2.0625,-2.0625 -1.324219,0 -2.460937,1.0546875 -2.460937,2.7304688 0,1.79296875 1.066406,2.70703125 2.542968,2.70703125 z M 16.065,-2.9300625 c 0.07031,-1.2890625 0.738281,-2.0390625 1.558594,-2.0390625 0.808593,0 1.289062,0.6210937 1.289062,1.4648437 0,0.3984375 -0.105469,0.5742188 -0.457031,0.5742188 z m 0,0"
       style="fill:#dc2626;fill-opacity:1;fill-rule:nonzero;stroke:none"
       aria-label="true"
       transform="matrix(1.3333333,0,0,1.3333333,132.58,99.188)" />
    <path
       id="path14"
       d="m 59.5282,-37.9849 h 34.01616 v 27.77988 H 59.5282 Z"
       style="fill:#ffffff;fill-opacity:1;fill-rule:nonzero;stroke:#dc2626;stroke-width:0.99628;stroke-linecap:butt;stroke-linejoin:miter;stroke-miterlimit:10;stroke-dasharray:none;stroke-opacity:1"
       transform="matrix(1.3333333,0,0,-1.3333333,94.985333,62.697333)" />
    <path
       id="path15"
       d="m 2.3565703,0.15196875 c 0.515625,0 0.9023438,-0.1875 1.1835938,-0.515625 L 3.3878203,-0.5394375 c -0.2695312,0.1640625 -0.4570312,0.24609375 -0.7617187,0.24609375 -0.4335938,0 -0.6679688,-0.26953125 -0.6679688,-0.87890625 v -3.5976563 h 1.4296875 v -0.375 H 1.9581328 l 0.035156,-1.546875 h -0.550781 l -0.28125,1.5351563 -1.01953124,0.082031 v 0.3046875 H 1.1378203 v 2.7070313 c 0,0.3632812 -0.011719,0.5625 -0.011719,0.890625 0,0.890625 0.3867187,1.32421875 1.230469,1.32421895 z M 4.8878203,-3.75e-4 h 1.8164063 v -0.28125 l -0.9492188,-0.09375 -0.011719,-1.9101563 v -0.9257812 c 0.2929687,-0.8085938 0.6679687,-1.2773438 1.1953125,-1.5351563 l 0.082031,0.09375 c 0.234375,0.234375 0.3984375,0.375 0.65625,0.375 0.3515625,0 0.515625,-0.2109375 0.5273438,-0.5625 -0.1054688,-0.2929687 -0.421875,-0.4453125 -0.796875,-0.4453125 -0.6679688,0 -1.3359375,0.5742188 -1.6640625,1.4765625 L 5.6846946,-5.1800625 5.5557884,-5.2620935 4.0206321,-4.863656 v 0.2578125 l 0.8671875,0.046875 c 0.023437,0.4921875 0.035156,0.9960938 0.035156,1.6757813 v 0.5976562 l -0.023437,1.92187505 -0.8320313,0.0820313 v 0.28125 z m 7.9189457,0.09375 1.535156,-0.09375 v -0.26953125 l -0.761719,-0.0820313 V -3.7855314 l 0.03516,-1.3007812 -0.09375,-0.1289062 -1.546875,0.1757812 v 0.2578125 l 0.808594,0.09375 -0.01172,3.421875 c -0.457031,0.53906255 -0.996093,0.8554688 -1.558593,0.8554688 -0.65625,0 -0.996094,-0.36328125 -0.996094,-1.4296876 v -1.9453125 l 0.03516,-1.3007812 -0.09375,-0.1289062 -1.5703124,0.1640625 v 0.2578125 l 0.8320313,0.1054687 -0.035156,2.8359375 c -0.011719,1.4882813 0.5273438,2.0039063 1.4765621,2.0039063 0.785156,0 1.417969,-0.43359375 1.921875,-1.06640625 z m 4.921875,0.05859375 c 0.890625,0 1.558593,-0.41015625 1.992187,-1.08984375 L 19.568484,-1.0785 c -0.410156,0.48046875 -0.914062,0.7265625 -1.628906,0.7265625 -1.089844,0 -1.875,-0.6796875 -1.886719,-2.2734375 h 3.585938 c 0.04687,-0.1523438 0.07031,-0.3515625 0.07031,-0.5976563 0,-1.171875 -0.773437,-2.0625 -2.0625,-2.0625 -1.324218,0 -2.460937,1.0546875 -2.460937,2.7304688 0,1.79296875 1.066406,2.70703125 2.542969,2.70703125 z M 16.064578,-2.9300625 c 0.07031,-1.2890625 0.738281,-2.0390625 1.558594,-2.0390625 0.808594,0 1.289062,0.6210937 1.289062,1.4648437 0,0.3984375 -0.105468,0.5742188 -0.457031,0.5742188 z m 0,0"
       style="fill:#dc2626;fill-opacity:1;fill-rule:nonzero;stroke:none"
       aria-label="true"
       transform="matrix(1.3333333,0,0,1.3333333,183.604,99.188)" />
    <path
       id="path16"
       d="m 97.79657,-37.9849 h 34.01616 v 27.77988 H 97.79657 Z"
       style="fill:#f8fafc;fill-opacity:1;fill-rule:nonzero;stroke:#94a3b8;stroke-width:0.64757;stroke-linecap:butt;stroke-linejoin:miter;stroke-miterlimit:10;stroke-dasharray:none;stroke-opacity:1"
       transform="matrix(1.3333333,0,0,-1.3333333,94.985333,62.697333)" />
    <path
       id="path17"
       d="M 1.2429844,3.984375e-4 H 3.1414219 V -0.28085156 L 2.1218906,-0.36288281 2.0984531,-2.2847578 v -2.484375 h 1.5351563 v -0.375 H 2.0984531 c -0.035156,-1.1367188 0.082031,-1.6992188 0.3984375,-2.1679688 0.140625,-0.2226562 0.3515625,-0.421875 0.5976563,-0.515625 l 0.1992187,0.1992188 c 0.2695313,0.2929687 0.4804688,0.421875 0.7382813,0.421875 0.3046875,0 0.4921875,-0.1640625 0.5039062,-0.3984375 -0.1054687,-0.3398438 -0.5273437,-0.5273438 -1.0078125,-0.5273438 -0.4921875,0 -0.9726562,0.1757813 -1.3710937,0.5625 -0.5273438,0.4921875 -0.8085938,1.1953125 -0.8789063,2.4257813 l -0.94921872,0.070312 v 0.3046875 H 1.2781406 v 2.484375 l -0.023437,1.92187499 -0.89062497,0.0820313 V 3.984375e-4 Z M 8.4119297,0.14102344 c 0.3984375,0 0.6914062,-0.1640625 0.9023437,-0.50390625 L 9.1502109,-0.51522656 c -0.1523437,0.17578125 -0.2695312,0.234375 -0.4453125,0.234375 -0.2695312,0 -0.421875,-0.1640625 -0.421875,-0.79687504 v -2.4609375 c 0,-1.2304687 -0.5507812,-1.7460937 -1.7109375,-1.7460937 -1.125,0 -1.8632812,0.4804687 -2.0625,1.3007812 0.058594,0.234375 0.2109375,0.3632813 0.4453125,0.3632813 0.2460938,0 0.4101563,-0.1289063 0.46875,-0.4921875 l 0.1523438,-0.7148438 c 0.2695312,-0.1054687 0.515625,-0.1523437 0.7851562,-0.1523437 0.7851563,0 1.125,0.2929687 1.125,1.40625 v 0.4101562 c -0.4335937,0.09375 -0.9023437,0.2226563 -1.3242187,0.3515625 -1.3125,0.3867188 -1.78125,0.890625 -1.78125,1.6640625 0,0.83203129 0.5859375,1.30078129 1.3828125,1.30078129 0.7148437,0 1.1601562,-0.328125 1.7460937,-0.97265625 0.082031,0.59765625 0.3632813,0.9609375 0.9023438,0.9609375 z M 7.4861484,-1.1246016 c -0.6210937,0.59765629 -0.984375,0.78515629 -1.3828125,0.78515629 -0.5507812,0 -0.9257812,-0.31640625 -0.9257812,-0.93749999 0,-0.5507813 0.328125,-0.9726563 1.171875,-1.2773438 0.3398437,-0.140625 0.7382812,-0.2460937 1.1367187,-0.3515625 z M 10.65607,3.984375e-4 h 1.757813 V -0.28085156 l -0.890625,-0.0820313 -0.01172,-1.92187504 v -4.1015624 l 0.02344,-1.546875 -0.152344,-0.082031 -1.5703127,0.2929688 v 0.2695312 l 0.8789067,0.046875 v 5.1210938 l -0.02344,1.92187504 -0.9023437,0.0820313 V 3.984375e-4 Z M 14.945133,0.15274219 c 1.347656,0 2.050781,-0.6796875 2.050781,-1.54687499 0,-0.703125 -0.386719,-1.1484375 -1.394531,-1.5 l -0.503906,-0.1757813 c -0.726563,-0.2460937 -1.019532,-0.515625 -1.019532,-0.9960937 0,-0.5273438 0.386719,-0.890625 1.148438,-0.890625 0.316406,0 0.597656,0.070312 0.890625,0.234375 l 0.199219,0.9492187 h 0.398437 l 0.03516,-1.0664062 c -0.503906,-0.3046875 -0.925781,-0.4453125 -1.523437,-0.4453125 -1.195313,0 -1.863281,0.6445312 -1.863281,1.4765625 0,0.75 0.503906,1.1835937 1.3125,1.4648437 l 0.515625,0.1875 c 0.808593,0.2578125 1.054687,0.5390625 1.054687,1.03125 0,0.56250004 -0.445312,0.96093754 -1.324219,0.96093754 -0.421875,0 -0.726562,-0.0703125 -1.007812,-0.19921875 L 13.714664,-1.4292891 H 13.28107 v 1.18359379 c 0.539063,0.2578125 1.019532,0.3984375 1.664063,0.3984375 z m 5.53418,0 c 0.890625,0 1.558593,-0.41015625 1.992187,-1.08984375 L 22.319156,-1.0777266 c -0.410156,0.48046879 -0.914062,0.72656254 -1.628906,0.72656254 -1.089844,0 -1.875,-0.67968754 -1.886719,-2.27343754 h 3.585938 c 0.04687,-0.1523437 0.07031,-0.3515625 0.07031,-0.5976562 0,-1.171875 -0.773437,-2.0625 -2.0625,-2.0625 -1.324218,0 -2.460937,1.0546875 -2.460937,2.7304687 0,1.79296879 1.066406,2.70703129 2.542969,2.70703129 z M 18.81525,-2.9292891 c 0.07031,-1.2890625 0.738281,-2.0390625 1.558594,-2.0390625 0.808594,0 1.289062,0.6210938 1.289062,1.4648438 0,0.3984375 -0.105468,0.5742187 -0.457031,0.5742187 z m 0,0"
       style="fill:#64748b;fill-opacity:1;fill-rule:nonzero;stroke:none"
       aria-label="false"
       transform="matrix(1.3333333,0,0,1.3333333,232.788,100.144)" />
    <path
       id="path18"
       d="m 1.9689453,0.12758594 c 0.5625,0 1.078125,-0.3046875 1.5117188,-0.796875 h 0.023437 l 0.082031,0.66796875 h 0.75 V -3.4114766 c 0,-1.2890625 -0.5976562,-2.1328125 -1.7226562,-2.1328125 -0.7265625,0 -1.3710938,0.328125 -1.85156254,0.6679688 l 0.36328124,0.6210937 c 0.3984375,-0.2929687 0.8320313,-0.5507812 1.3242188,-0.5507812 0.7148437,0 0.9726562,0.65625 0.9726562,1.3828125 -1.875,0.2695312 -2.85937499,0.8554687 -2.85937499,2.0625 0,0.97265624 0.58593749,1.48828124 1.40625069,1.48828124 z m 0.2695313,-0.73828125 c -0.4335938,0 -0.7851563,-0.22265625 -0.7851563,-0.84374999 0,-0.7148438 0.4921875,-1.1484375 1.96875,-1.3710938 v 1.5234375 c -0.3867187,0.43359379 -0.7734375,0.69140629 -1.1835937,0.69140629 z m 3.84375,0.609375 H 6.9962891 V -3.4114766 c 0.46875,-0.9492187 1.0195312,-1.3242187 1.640625,-1.3242187 0.2929687,0 0.4570312,0.035156 0.7148437,0.1523437 l 0.2109375,-0.7851562 c -0.28125,-0.1171875 -0.4804687,-0.1757813 -0.8554687,-0.1757813 -0.7382813,0 -1.3359375,0.515625 -1.78125,1.2421875 H 6.8791016 L 6.8087891,-5.4153828 H 6.0822266 Z m 4.9833984,0 h 0.914062 V -3.4114766 c 0.46875,-0.9492187 1.019532,-1.3242187 1.640625,-1.3242187 0.292969,0 0.457032,0.035156 0.714844,0.1523437 l 0.210938,-0.7851562 c -0.28125,-0.1171875 -0.480469,-0.1757813 -0.855469,-0.1757813 -0.738281,0 -1.335938,0.515625 -1.78125,1.2421875 H 11.8625 l -0.07031,-1.1132812 h -0.726562 z m 0,0"
       style="fill:#374151;fill-opacity:1;fill-rule:nonzero;stroke:none"
       aria-label="arr"
       transform="matrix(1.3333333,0,0,1.3333333,46.933333,155.13067)" />
    <path
       id="path19"
       d="m -17.00807,-80.50511 h 34.01616 v 27.77988 h -34.01616 z"
       style="fill:#ffffff;fill-opacity:1;fill-rule:nonzero;stroke:#dc2626;stroke-width:0.99628;stroke-linecap:butt;stroke-linejoin:miter;stroke-miterlimit:10;stroke-dasharray:none;stroke-opacity:1"
       transform="matrix(1.3333333,0,0,-1.3333333,94.985333,62.697333)" />
    <path
       id="path20"
       d="M 2.4258047,4.296875e-4 H 4.8047109 V -0.28082031 L 3.2929922,-0.40972656 C 3.2812734,-1.0425391 3.2695547,-1.6753516 3.2695547,-2.2964453 v -3.1171875 l 0.035156,-1.5820313 -0.140625,-0.1054687 -2.16796871,0.5507812 v 0.3046875 L 2.449242,-6.4800391 v 4.1835938 L 2.425805,-0.40972656 0.84377374,-0.28082031 V 4.296875e-4 Z m 0,0"
       style="fill:#dc2626;fill-opacity:1;fill-rule:nonzero;stroke:none"
       aria-label="1"
       transform="matrix(1.3333333,0,0,1.3333333,91.332,156.25333)" />
    <path
       id="path21"
       d="m 21.26028,-80.50511 h 34.01616 v 27.77988 H 21.26028 Z"
       style="fill:#ffffff;fill-opacity:1;fill-rule:nonzero;stroke:#dc2626;stroke-width:0.99628;stroke-linecap:butt;stroke-linejoin:miter;stroke-miterlimit:10;stroke-dasharray:none;stroke-opacity:1"
       transform="matrix(1.3333333,0,0,-1.3333333,94.985333,62.697333)" />
    <path
       id="path22"
       d="M 0.53766406,9.375e-4 H 5.0025078 v -0.703125 H 1.0767266 l 1.5117187,-1.5117188 c 1.5585938,-1.453125 2.109375,-2.203125 2.109375,-3.1171875 0,-1.1132812 -0.6796875,-1.8046875 -2.015625,-1.8046875 -1.03125,0 -1.98046874,0.515625 -2.13281249,1.5234375 0.0585938,0.1992188 0.2109375,0.3046875 0.3984375,0.3046875 0.23437499,0 0.39843749,-0.1171875 0.48046879,-0.515625 L 1.6743828,-6.67875 c 0.2695313,-0.1171875 0.5039063,-0.1640625 0.75,-0.1640625 0.890625,0 1.4179688,0.5507812 1.4179688,1.5 0,0.8789062 -0.4804688,1.6875 -1.5,2.8125 -0.4804688,0.5273437 -1.1367188,1.2773437 -1.80468754,1.9921875 z m 0,0"
       style="fill:#dc2626;fill-opacity:1;fill-rule:nonzero;stroke:none"
       aria-label="2"
       transform="matrix(1.3333333,0,0,1.3333333,142.35733,156.28)" />
    <path
       id="path23"
       d="m 59.5282,-80.50511 h 34.01616 v 27.77988 H 59.5282 Z"
       style="fill:#ffffff;fill-opacity:1;fill-rule:nonzero;stroke:#dc2626;stroke-width:0.99628;stroke-linecap:butt;stroke-linejoin:miter;stroke-miterlimit:10;stroke-dasharray:none;stroke-opacity:1"
       transform="matrix(1.3333333,0,0,-1.3333333,94.985333,62.697333)" />
    <path
       id="path24"
       d="m 2.5557969,0.15210937 c 1.40625,0 2.3789062,-0.796875 2.3789062,-1.99218747 0,-0.984375 -0.5859375,-1.6523438 -1.8398437,-1.8515625 1.078125,-0.2578125 1.6171875,-0.9257813 1.6171875,-1.734375 0,-1.0078125 -0.7382813,-1.7109375 -2.015625,-1.7109375 -0.9375,0 -1.81640628,0.3984375 -1.95703128,1.3828125 0.046875,0.1640625 0.2109375,0.234375 0.37499998,0.234375 0.2460938,0 0.3984375,-0.1171875 0.46875,-0.4335938 l 0.2109375,-0.7617187 c 0.234375,-0.09375 0.46875,-0.1289063 0.7148438,-0.1289063 0.8789062,0 1.3710937,0.5390625 1.3710937,1.4296875 0,1.03125 -0.6914062,1.59375 -1.6523437,1.59375 H 1.8175156 v 0.328125 h 0.4570313 c 1.1953125,0 1.7929687,0.5976563 1.7929687,1.6640625 0,1.01953127 -0.5976562,1.66406252 -1.7226562,1.66406252 -0.3046875,0 -0.5390625,-0.046875 -0.7734375,-0.140625 L 1.3722031,-1.0666406 c -0.082031,-0.3632813 -0.2109375,-0.515625 -0.46874998,-0.515625 -0.1875,0 -0.3515625,0.09375 -0.41015625,0.3046875 0.17578125,0.92578122 0.93750003,1.42968747 2.06250003,1.42968747 z m 0,0"
       style="fill:#dc2626;fill-opacity:1;fill-rule:nonzero;stroke:none"
       aria-label="3"
       transform="matrix(1.3333333,0,0,1.3333333,193.38133,156.18)" />
    <path
       id="path25"
       d="m 4.0773125,-3.1165469 -1.125,-1.171875 c 0.2695313,-0.5039062 0.4570313,-0.9960937 0.5742188,-1.4882812 0,-0.035156 0.011719,-0.1171875 0.011719,-0.1875 0,-0.070312 -0.035156,-0.1289063 -0.09375,-0.1757813 -0.1875,-0.1171875 -0.6914062,-0.3046875 -1.0195312,-0.3632812 -0.046875,0 -0.082031,0 -0.09375,0.035156 l -0.1054688,0.1875 c 0.234375,0.1289063 0.4570313,0.3398438 0.5507813,0.5039063 -0.3046875,1.3007812 -1.2421875,2.8476562 -2.53125005,4.078125 -0.0351563,0.035156 -0.0351563,0.070312 -0.0117188,0.082031 L 0.35075,-1.5110781 c 0.0234375,0.011719 0.046875,0.011719 0.0820313,0 0.9609375,-0.703125 1.7343751,-1.5234375 2.2851563,-2.390625 l 1.7226562,1.9453125 c 0.082031,0.082031 0.1523437,0.1640625 0.2226562,0.1875 0.09375,0.035156 0.2695313,-0.011719 0.3164063,-0.1289063 0.035156,-0.070312 0.023437,-0.1523437 -0.035156,-0.28125 -0.082031,-0.1757812 -0.2695312,-0.5039062 -0.421875,-0.7148437 z m 2.109375,4.08984377 h 0.375 c 0.1289063,-0.515625 0.2109375,-1.359375 0.2109375,-1.875 V -3.5267031 l 1.5585938,-0.023437 c 0.058594,0 0.1289062,-0.011719 0.1640625,-0.046875 0.070312,-0.046875 0.1171875,-0.1640625 0.1054687,-0.3164063 0,-0.070312 -0.046875,-0.1289062 -0.1171875,-0.1523437 -0.1640625,-0.035156 -0.5273437,-0.058594 -0.796875,-0.046875 l -0.28125,0.1640625 -0.6328125,0.035156 v -2.8476562 l 0.023437,-0.46875 c 0,-0.09375 -0.023437,-0.1523438 -0.1054687,-0.1875 -0.2578125,-0.1054688 -0.8320313,-0.2226563 -1.1484375,-0.234375 -0.070312,0 -0.09375,0.023437 -0.1054688,0.046875 l -0.070312,0.2226562 c 0.328125,0.1054688 0.609375,0.2695313 0.7617188,0.4570313 v 6.24609372 c 0,0.3984375 0.035156,1.265625 0.058594,1.65234345 z M 14.404461,-5.7063906 c 0,0.703125 -0.609375,1.1015625 -1.417969,1.1015625 -0.785156,0 -1.40625,-0.3984375 -1.40625,-1.1015625 0,-0.7148438 0.621094,-1.1132813 1.40625,-1.1132813 0.808594,0 1.417969,0.3984375 1.417969,1.1132813 z m 0.632812,5.19140622 c 0,-0.89062502 -0.855468,-1.48828122 -2.039062,-1.48828122 -1.183594,0 -2.027344,0.5976562 -2.027344,1.48828122 0,0.92578125 0.84375,1.53515628 2.027344,1.53515628 1.183594,0 2.039062,-0.60937503 2.039062,-1.53515628 z m -0.667968,0 c 0,0.6796875 -0.574219,1.078125 -1.371094,1.078125 -0.796875,0 -1.371094,-0.3984375 -1.371094,-1.078125 0,-0.67968752 0.574219,-1.06640622 1.371094,-1.06640622 0.796875,0 1.371094,0.3867187 1.371094,1.06640622 z m 1.640625,-2.70703122 -0.316407,0.1289062 -1.007812,0.035156 0.07031,-0.703125 0.07031,-0.3398438 c 0.01172,-0.070312 -0.01172,-0.1171875 -0.08203,-0.1523437 -0.140625,-0.058594 -0.339844,-0.1289063 -0.539063,-0.1757813 0.527344,-0.2578125 0.855469,-0.703125 0.855469,-1.2773437 0,-0.9375 -0.878906,-1.546875 -2.074219,-1.546875 -1.171875,0 -2.0625,0.609375 -2.0625,1.546875 0,0.9257812 0.890625,1.5351562 2.0625,1.5351562 0.269531,0 0.527344,-0.035156 0.75,-0.09375 0.1875,0.09375 0.339844,0.2109375 0.421875,0.328125 l -0.02344,0.890625 -1.980469,0.023437 v -0.9257812 c 0.01172,-0.070312 -0.01172,-0.1171875 -0.08203,-0.140625 -0.210938,-0.058594 -0.621094,-0.1054688 -0.878907,-0.1054688 -0.07031,0 -0.105468,0.023437 -0.105468,0.046875 l -0.04687,0.1992188 c 0.199218,0.046875 0.386718,0.1523437 0.492187,0.2695312 l 0.04687,0.6679688 -1.6289061,0.011719 c -0.28125,0 -0.703125,-0.035156 -0.9960937,-0.09375 l -0.058594,0.1289063 c -0.011719,0.035156 0,0.058594 0.023437,0.082031 0.2226563,0.1875 0.5625,0.3632813 0.8789063,0.46875 0.2226555,-0.070312 0.6796875,-0.1640625 0.9023435,-0.1757812 0.46875,-0.023437 4.582031,-0.070312 5.203125,-0.070312 0.269531,0 0.796875,0.011719 1.042969,0.046875 0.08203,-0.035156 0.1875,-0.1757813 0.1875,-0.3398438 0,-0.070312 -0.05859,-0.1171875 -0.117188,-0.140625 -0.210937,-0.070312 -0.679687,-0.1289062 -1.007812,-0.1289062 z m 7.816406,-0.7851563 c 0,0.9140625 -0.609375,1.4414063 -1.40625,1.4414063 -0.773438,0 -1.382813,-0.5273438 -1.382813,-1.4414063 0,-0.9023437 0.609375,-1.453125 1.382813,-1.453125 0.796875,0 1.40625,0.5507813 1.40625,1.453125 z m 0.65625,0 c 0,-1.1484375 -0.878906,-1.9453125 -2.0625,-1.9453125 -1.183594,0 -2.0625,0.796875 -2.0625,1.9453125 0,1.1484375 0.878906,1.9453125 2.0625,1.9453125 0.808594,0 1.453125,-0.3632812 1.804687,-0.9492187 0.140625,0.1054687 0.328125,0.1992187 0.527344,0.2695312 0.152344,-0.058594 0.386719,-0.1054687 0.550781,-0.1289062 0.199219,-0.011719 0.65625,-0.023437 0.984375,-0.023437 v 2.21484372 c 0,0.3984375 0.02344,1.265625 0.05859,1.65234375 h 0.375 c 0.128906,-0.515625 0.199219,-1.359375 0.199219,-1.875 V -6.7610781 l 0.03516,-0.46875 c 0,-0.09375 -0.03516,-0.1523438 -0.105469,-0.1875 -0.269531,-0.1054688 -0.832031,-0.2226563 -1.148437,-0.234375 -0.07031,0 -0.09375,0.023437 -0.105469,0.046875 l -0.07031,0.2226562 c 0.328125,0.1054688 0.609375,0.2695313 0.761718,0.4570313 v 1.5117187 c -0.398437,0.035156 -1.007812,0.046875 -1.265625,0.046875 -0.234375,0 -0.503906,-0.023437 -0.726562,-0.046875 l -0.03516,0.09375 c -0.02344,0.035156 -0.01172,0.058594 0.02344,0.082031 0.164063,0.140625 0.386719,0.2578125 0.632813,0.3632812 0.164062,-0.058594 0.398437,-0.1054687 0.5625,-0.1289062 0.152343,-0.011719 0.539062,-0.023437 0.808593,-0.023437 v 1.7578125 c -0.433593,0.023437 -1.148437,0.046875 -1.453125,0.046875 -0.152343,0 -0.328125,-0.011719 -0.503906,-0.035156 0.09375,-0.2226562 0.152344,-0.4804687 0.152344,-0.75 z m 7.886719,4.94531252 h 0.375 c 0.128906,-0.50390625 0.210937,-1.37109375 0.210937,-1.83984375 V -2.2727969 l 2.566406,-0.023437 c 0.269532,0 0.796875,0.023437 1.042969,0.046875 0.08203,-0.046875 0.1875,-0.1757812 0.1875,-0.328125 0,-0.070312 -0.05859,-0.1289062 -0.117187,-0.1523437 -0.210938,-0.070312 -0.679688,-0.1171875 -1.007813,-0.1289063 l -0.316406,0.1289063 c -0.632813,0.046875 -5.191406,0.1054687 -5.742188,0.09375 -0.28125,0 -0.703125,-0.035156 -0.996093,-0.09375 l -0.05859,0.1289062 c -0.01172,0.023437 0,0.070312 0.02344,0.082031 0.222657,0.1757812 0.5625,0.3632812 0.878907,0.4804687 0.222656,-0.082031 0.679687,-0.1640625 0.902343,-0.1875 0.1875,0 1.042969,-0.023437 2.003907,-0.046875 v 1.57031252 c 0,0.421875 0.02344,1.23046875 0.04687,1.640625 z m 2.601562,-5.07421872 -0.199219,-0.058594 c 0.05859,-0.2109375 0.09375,-0.5390625 0.09375,-0.7851562 l 0.03516,-1.6171875 0.01172,-0.4101563 c 0,-0.070312 -0.03516,-0.1054687 -0.09375,-0.1289062 -0.234375,-0.09375 -0.726562,-0.1757813 -1.019531,-0.1992188 -0.05859,-0.011719 -0.08203,0.011719 -0.09375,0.035156 l -0.07031,0.2226562 c 0.246093,0.082031 0.492187,0.2109375 0.621093,0.3515625 v 0.9140625 l -3.234375,0.023437 v -0.5273437 l 0.01172,-0.3867188 c 0,-0.09375 -0.02344,-0.140625 -0.09375,-0.1523437 -0.234375,-0.070312 -0.738281,-0.1054688 -1.007812,-0.1054688 -0.07031,0 -0.105469,0.011719 -0.105469,0.035156 l -0.03516,0.2226562 c 0.222656,0.046875 0.457031,0.1640625 0.574218,0.28125 l 0.03516,2.4609375 c 0,0.1640625 0.03516,0.3632813 0.07031,0.4921875 h 0.363281 c 0.05859,-0.058594 0.117188,-0.1640625 0.140625,-0.3164062 l 3.972657,-0.011719 c 0.04687,-0.046875 0.08203,-0.1523437 0.08203,-0.2578125 0,-0.046875 -0.02344,-0.070312 -0.05859,-0.082031 z m -3.960937,-1.2539063 3.246093,-0.023437 v 1.2070313 l -3.246093,0.023437 z m 0,0"
       style="fill:#64748b;fill-opacity:1;fill-rule:nonzero;stroke:none"
       aria-label="사용여부"
       transform="matrix(1.3333333,0,0,1.3333333,288.65733,99.241333)" />
    <path
       id="path26"
       d="m 6.7023125,-1.2180625 h 0.375 C 7.2062188,-1.663375 7.2999688,-2.3665 7.2999688,-2.9993125 V -6.77275 l 0.011719,-0.4570313 c 0,-0.09375 -0.023437,-0.1523437 -0.1054687,-0.1875 C 6.960125,-7.52275 6.3859063,-7.6399375 6.0695,-7.6516563 c -0.070312,0 -0.09375,0.023437 -0.1054687,0.046875 l -0.070312,0.2226563 c 0.3164062,0.1054687 0.609375,0.2695312 0.7617187,0.4570312 v 1.9804688 c -0.445313,0.023437 -1.054688,0.035156 -1.335938,0.035156 -0.2226562,0 -0.5039062,-0.023437 -0.7265625,-0.046875 l -0.046875,0.09375 c -0.023437,0.035156 0,0.058594 0.023437,0.09375 0.1757813,0.140625 0.4101563,0.2929688 0.65625,0.3984375 0.1757813,-0.070312 0.4101563,-0.1289062 0.5742188,-0.1523437 0.1640625,-0.011719 0.5507812,-0.035156 0.8554687,-0.035156 v 1.7929688 c 0,0.4101562 0.011719,1.1835937 0.046875,1.5468747 z M 7.710125,0.6335 c 0.046875,0 0.09375,-0.0117188 0.1171875,-0.046875 0.046875,-0.0351563 0.09375,-0.15234375 0.09375,-0.31640625 0,-0.0703125 -0.046875,-0.1171875 -0.1171875,-0.12890625 C 7.6398125,0.10615625 7.2296563,0.071 6.960125,0.08271875 L 6.678875,0.2350625 C 6.1398125,0.2585 4.4991875,0.27021875 3.91325,0.2585 3.7609063,0.2585 3.6905938,0.1881875 3.6905938,0.024125 V -1.3118125 L 3.7023125,-1.71025 c 0,-0.1054688 -0.046875,-0.1523438 -0.1289062,-0.1757813 -0.2226563,-0.035156 -0.7265625,-0.082031 -1.03125,-0.082031 -0.046875,0 -0.082031,0.023437 -0.09375,0.058594 L 2.4015313,-1.71025 c 0.2460937,0.046875 0.4921875,0.1523437 0.6328125,0.2578125 v 1.39453125 c 0,0.50390625 0.1992187,0.703125 0.796875,0.71484375 z M 4.3937188,-3.6555625 3.16325,-4.7805625 C 3.4562188,-5.225875 3.6554375,-5.6711875 3.7843438,-6.1165 c 0.011719,-0.046875 0.011719,-0.1171875 0.011719,-0.1992188 0,-0.070312 -0.035156,-0.1289062 -0.1054687,-0.1640625 -0.1757813,-0.1171875 -0.65625,-0.3046875 -0.9609375,-0.3632812 -0.058594,0 -0.09375,0 -0.1054688,0.035156 l -0.1054687,0.1875 C 2.741375,-6.5032188 2.9523125,-6.304 3.0343438,-6.1282188 2.6945,-4.944625 1.7687188,-3.5735313 0.5148125,-2.4954063 c -0.0351563,0.023437 -0.0351563,0.046875 -0.0117188,0.070312 l 0.09375,0.1054688 c 0.0351563,0.011719 0.0585938,0.011719 0.10546875,0 C 1.6163749,-2.9172818 2.3780937,-3.655563 2.928875,-4.4172818 L 4.7452812,-2.624313 C 4.803875,-2.554 4.897625,-2.4836875 4.9445,-2.4719688 c 0.1054688,0.035156 0.2578125,-0.023437 0.3046875,-0.140625 0.023437,-0.058594 0,-0.140625 -0.046875,-0.2578125 -0.082031,-0.1640625 -0.28125,-0.4453125 -0.4335937,-0.6445312 z m 9.5537112,1.4414062 h 0.363281 c 0.105469,-0.3398437 0.1875,-0.9375 0.1875,-1.4648437 v -0.8320313 l 1.148437,-0.011719 v 1.0664062 c 0,0.3164063 0.01172,0.9609375 0.05859,1.265625 h 0.375 c 0.105469,-0.3515625 0.1875,-0.9960937 0.1875,-1.4765625 v -3.140625 l 0.02344,-0.4453125 c 0.01172,-0.082031 -0.02344,-0.140625 -0.105469,-0.1640625 -0.222656,-0.1171875 -0.761719,-0.2226562 -1.066406,-0.234375 -0.07031,0 -0.09375,0.023437 -0.105469,0.058594 l -0.07031,0.2109375 c 0.292969,0.09375 0.5625,0.2460937 0.703125,0.421875 v 2.0507812 l -1.148437,0.011719 v -1.4882813 l 0.02344,-0.3984375 c 0,-0.082031 -0.03516,-0.140625 -0.09375,-0.1640625 C 14.205242,-7.054 13.713055,-7.14775 13.431805,-7.1594688 c -0.05859,0 -0.09375,0.011719 -0.105469,0.046875 l -0.07031,0.2109375 c 0.269532,0.09375 0.503907,0.234375 0.632813,0.3867188 V -3.4915 c -0.9375,0.2460937 -2.378906,0.421875 -3.246094,0.4335937 -0.117187,0 -0.164062,-0.046875 -0.164062,-0.1640625 V -4.33525 l 2.097656,-0.070312 c 0.05859,-0.011719 0.105469,-0.023437 0.128906,-0.035156 0.04687,-0.046875 0.08203,-0.1523437 0.08203,-0.2695312 0,-0.058594 -0.04687,-0.1054688 -0.117187,-0.1171875 -0.164063,-0.023437 -0.445313,-0.035156 -0.65625,-0.035156 l -0.234375,0.1171875 c -0.246094,0.035156 -0.925781,0.035156 -1.300781,0.046875 v -1.1132812 l 2.179687,-0.1054688 c 0.04687,0 0.09375,-0.011719 0.117188,-0.046875 0.03516,-0.046875 0.08203,-0.1523437 0.08203,-0.3046875 0,-0.070312 -0.02344,-0.1054687 -0.09375,-0.1171875 -0.152344,-0.035156 -0.480469,-0.058594 -0.65625,-0.046875 L 11.896648,-6.304 c -0.210937,0.035156 -1.101562,0.082031 -1.417968,0.09375 -0.222657,-0.035156 -0.7617191,-0.058594 -1.0078128,-0.058594 -0.058594,0 -0.082031,0.011719 -0.1054688,0.046875 l -0.035156,0.199219 c 0.1992187,0.046875 0.3867187,0.140625 0.515625,0.2460937 v 2.4140625 c 0,0.1757813 0.011719,0.328125 0.035156,0.4101563 0.09375,0.2695312 0.2929688,0.4453125 0.5859378,0.4453125 0.08203,0 0.1875,0 0.292969,-0.023437 0.890625,-0.058594 2.15625,-0.2929688 3.128906,-0.6210938 0.01172,0.328125 0.02344,0.7148438 0.05859,0.9375 z m 1.640625,3.28125 h 0.398437 C 16.091961,0.72725 16.162273,0.12959375 16.162273,-0.24540625 L 16.19743,-1.3469688 16.29118,-1.6165 c 0.02344,-0.046875 0.02344,-0.082031 -0.01172,-0.1171875 -0.07031,-0.046875 -0.246094,-0.1523438 -0.351563,-0.1992188 -0.03516,-0.023437 -0.08203,-0.023437 -0.128906,0 l -0.246094,0.1171875 c -0.632812,0.035156 -3.328125,0.082031 -3.785156,0.082031 -0.246094,0 -0.609375,-0.035156 -0.878906,-0.082031 l -0.04687,0.1171875 c -0.02344,0.035156 -0.01172,0.070312 0.02344,0.082031 0.210938,0.1640625 0.492188,0.328125 0.773438,0.421875 0.210937,-0.082031 0.585937,-0.140625 0.796875,-0.1523438 0.398437,-0.023437 2.367187,-0.046875 3.105469,-0.046875 v 1.31250005 c 0,0.31640625 0.01172,0.85546875 0.04687,1.14843745 z m 6.375,-6.9609375 -0.28125,0.1289063 c -0.410157,0.023437 -2.894532,0.058594 -3.269532,0.058594 -0.210937,0 -0.574218,-0.023437 -0.808593,-0.070312 l -0.07031,0.1171875 c 0,0.011719 0,0.046875 0.03516,0.070312 0.1875,0.1523438 0.457032,0.3164063 0.714844,0.4101563 0.152344,-0.058594 0.480469,-0.1171875 0.65625,-0.1289063 0.339844,-0.023437 2.566406,-0.070312 2.929688,-0.070312 0.199218,0 0.632812,0.011719 0.808593,0.035156 0.07031,-0.046875 0.1875,-0.1757813 0.1875,-0.328125 0,-0.046875 -0.03516,-0.09375 -0.105468,-0.1171875 -0.152344,-0.058594 -0.539063,-0.1054688 -0.796875,-0.1054688 z M 22.138836,-3.4915 c 0,-0.8789063 -0.832031,-1.4648438 -1.851563,-1.4648438 -1.019531,0 -1.839843,0.5859375 -1.839843,1.4648438 0,0.890625 0.820312,1.4882812 1.839843,1.4882812 1.019532,0 1.851563,-0.5976562 1.851563,-1.4882812 z m -0.621094,0 c 0,0.65625 -0.550781,1.03125 -1.230469,1.03125 -0.65625,0 -1.21875,-0.375 -1.21875,-1.03125 0,-0.65625 0.5625,-1.0429688 1.21875,-1.0429688 0.679688,0 1.230469,0.3867188 1.230469,1.0429688 z m -2.578125,-3.5859375 -0.05859,0.070312 c -0.01172,0.023437 -0.01172,0.046875 0.01172,0.082031 0.152344,0.1875 0.363281,0.3984375 0.550781,0.4921875 0.04687,0.046875 0.08203,0.046875 0.164063,0.046875 0.398437,-0.046875 1.078125,-0.046875 1.546875,-0.058594 0.03516,0 0.08203,-0.011719 0.117187,-0.058594 0.03516,-0.070312 0.05859,-0.234375 0.02344,-0.328125 -0.02344,-0.058594 -0.05859,-0.082031 -0.128906,-0.082031 -0.621094,-0.011719 -1.417969,-0.023437 -2.226563,-0.1640625 z m 6.714844,3.28125 c 0.05859,0 0.128906,-0.011719 0.164062,-0.046875 0.07031,-0.035156 0.117188,-0.1523438 0.105469,-0.3164063 0,-0.070312 -0.04687,-0.1289062 -0.117187,-0.1523437 -0.164063,-0.035156 -0.527344,-0.058594 -0.796875,-0.046875 l -0.28125,0.1757812 -0.632813,0.023437 V -6.77275 l 0.02344,-0.4570313 c 0,-0.09375 -0.02344,-0.1523437 -0.105469,-0.1875 -0.257813,-0.1054687 -0.820313,-0.2226562 -1.136719,-0.234375 -0.08203,0 -0.09375,0.023437 -0.105469,0.046875 l -0.07031,0.2226563 c 0.316406,0.1054687 0.597656,0.2695312 0.75,0.4570312 v 4.2539063 c 0,0.4101562 0.02344,1.1953125 0.05859,1.546875 h 0.375 c 0.128906,-0.4453125 0.210937,-1.1367188 0.210937,-1.7695313 V -3.77275 Z m -4.992188,3.43359375 v -0.421875 l 0.02344,-0.38671875 c 0,-0.1054688 -0.04687,-0.1523438 -0.140625,-0.1757813 C 20.32243,-1.3938438 19.818523,-1.429 19.513836,-1.429 c -0.04687,0 -0.07031,0.011719 -0.08203,0.058594 l -0.04687,0.1992188 c 0.246093,0.046875 0.480468,0.140625 0.621093,0.2578125 V 6.875e-4 c 0,0.4921875 0.210938,0.69140625 0.796875,0.703125 l 3.796875,-0.0351563 c 0.04687,0 0.08203,0 0.105469,-0.0351563 0.04687,-0.046875 0.105469,-0.15234375 0.105469,-0.31640625 0,-0.0703125 -0.04687,-0.1171875 -0.117188,-0.12890625 C 24.517748,0.1530311 24.119311,0.1178749 23.849779,0.1295936 L 23.556805,0.2819375 C 23.04118,0.305375 21.459148,0.31709375 20.88493,0.305375 c -0.152344,0 -0.222657,-0.0585938 -0.222657,-0.234375 z m 13.875,-4.88671875 -1.6875,-0.796875 c 0.175782,-0.2226563 0.328125,-0.421875 0.445313,-0.6445313 0.03516,-0.058594 0.05859,-0.1171875 0.05859,-0.2109375 0,-0.082031 -0.03516,-0.140625 -0.105469,-0.1757812 C 33.048992,-7.194625 32.60368,-7.33525 32.275555,-7.382125 c -0.05859,0 -0.09375,0 -0.117188,0.035156 L 32.04118,-7.14775 c 0.210937,0.09375 0.398437,0.234375 0.480468,0.3632812 -0.5625,0.984375 -1.710937,2.0039063 -3.1875,2.71875 -0.03516,0.023437 -0.04687,0.046875 -0.02344,0.082031 l 0.09375,0.1171875 c 0.02344,0.023437 0.04687,0.023437 0.09375,0 1.253906,-0.4453125 2.320312,-1.1015625 3.082031,-1.8867188 l 2.871094,1.453125 c 0.09375,0.046875 0.199219,0.082031 0.246094,0.082031 0.105468,-0.011719 0.222656,-0.1171875 0.222656,-0.234375 0.01172,-0.070312 -0.03516,-0.140625 -0.140625,-0.2226563 C 35.638836,-4.804 35.357586,-5.0149375 35.123211,-5.132125 Z m -2.085937,4.6171875 h 0.410156 c 0.105469,-0.421875 0.1875,-1.1367188 0.1875,-1.5585938 v -0.5859375 l 2.472656,-0.023437 c 0.269532,0 0.796875,0.023437 1.042969,0.046875 0.08203,-0.046875 0.1875,-0.1757812 0.1875,-0.328125 0,-0.082031 -0.05859,-0.1289062 -0.117187,-0.1523437 C 36.423992,-3.304 35.955242,-3.350875 35.627117,-3.3743125 l -0.316406,0.1523437 c -0.632813,0.035156 -5.191406,0.09375 -5.742188,0.082031 -0.28125,0 -0.703125,-0.035156 -0.996093,-0.09375 l -0.05859,0.1289062 c -0.01172,0.035156 0,0.058594 0.02344,0.082031 0.222657,0.1757812 0.5625,0.375 0.878907,0.46875 0.222656,-0.070312 0.679687,-0.1523438 0.902343,-0.1757813 0.199219,-0.011719 1.101563,-0.035156 2.097657,-0.035156 v 0.7617187 c 0,0.3515625 0.01172,1.0195313 0.03516,1.3710938 z m -1.300781,0.0234375 V -1.054 l 0.01172,-0.3984375 c 0,-0.09375 -0.04687,-0.1523438 -0.140625,-0.1640625 -0.210937,-0.058594 -0.738281,-0.082031 -1.03125,-0.082031 -0.05859,0 -0.08203,0 -0.09375,0.046875 l -0.03516,0.1992188 c 0.234375,0.058594 0.46875,0.1523437 0.621094,0.2578125 v 1.171875 c 0,0.4921875 0.210937,0.703125 0.796875,0.703125 l 3.914062,-0.0117188 c 0.04687,0 0.08203,-0.0234375 0.117188,-0.046875 0.04687,-0.046875 0.09375,-0.15234375 0.09375,-0.328125 0,-0.0585938 -0.04687,-0.10546875 -0.117188,-0.1171875 -0.164062,-0.046875 -0.574218,-0.0703125 -0.84375,-0.0703125 l -0.28125,0.1640625 c -0.550781,0.0234375 -2.203125,0.0351563 -2.800781,0.0234375 -0.164062,0 -0.210937,-0.0703125 -0.210937,-0.234375 z m 9.940429,-4.4414063 c 0,0.7617188 -0.5625,1.265625 -1.300781,1.265625 -0.75,0 -1.3125,-0.5039062 -1.3125,-1.265625 0,-0.7617187 0.5625,-1.2773437 1.3125,-1.2773437 0.738281,0 1.300781,0.515625 1.300781,1.2773437 z m 3.011719,4.24218755 c 0.04687,-0.046875 0.08203,-0.12890625 0.08203,-0.23437505 0,-0.023437 -0.01172,-0.046875 -0.04687,-0.070312 l -0.164062,-0.082031 c 0.07031,-0.2226563 0.164062,-0.6914063 0.175781,-0.9609375 L 44.255047,-2.3665 c 0.02344,-0.058594 0.02344,-0.09375 -0.01172,-0.1289063 -0.08203,-0.035156 -0.257812,-0.1289062 -0.339844,-0.1757812 -0.05859,-0.011719 -0.117187,-0.011719 -0.152343,0 l -0.269532,0.1289062 c -0.5625,0.023437 -2.789062,0.046875 -3.269531,0.046875 -0.222656,0 -0.5625,-0.023437 -0.808594,-0.070312 l -0.04687,0.09375 c -0.01172,0.035156 -0.01172,0.058594 0.02344,0.09375 0.199219,0.140625 0.445312,0.28125 0.726562,0.375 0.210938,-0.070312 0.550782,-0.1171875 0.714844,-0.1289062 0.363281,-0.023437 2.085938,-0.046875 2.625,-0.035156 0.01172,0.1992188 0,0.7382813 -0.01172,0.9609375 l -0.152343,0.046875 c -0.363282,0.011719 -2.167969,0.035156 -2.730469,0.035156 -0.234375,-0.023437 -0.808594,-0.035156 -1.054688,-0.035156 -0.05859,0 -0.09375,0.011719 -0.09375,0.035156 l -0.03516,0.17578125 c 0.199219,0.0351563 0.386719,0.1171875 0.503906,0.22265625 v 0.85546875 c 0,0.41015625 0.164063,0.57421875 0.65625,0.57421875 l 4.03125,-0.0234375 c 0.04687,0 0.08203,-0.0117188 0.117188,-0.046875 0.03516,-0.0351563 0.105469,-0.15234375 0.105469,-0.3046875 0,-0.0585938 -0.05859,-0.10546875 -0.117188,-0.1171875 C 44.489423,0.1764692 44.126142,0.141313 43.880048,0.1530317 l -0.257814,0.1289058 c -0.539062,0.0351563 -2.261718,0.046875 -2.929687,0.0351563 -0.105469,0 -0.152344,-0.0585938 -0.152344,-0.1640625 V -0.77275 Z M 41.735516,-5.0500938 c 0,-1.0078125 -0.832032,-1.7578125 -1.945313,-1.7578125 -1.148437,0 -1.980469,0.75 -1.980469,1.7578125 0,1.0078125 0.832032,1.7460938 1.980469,1.7460938 0.761719,0 1.40625,-0.3515625 1.722656,-0.9023438 0.152344,0.1054688 0.339844,0.2226563 0.550782,0.2929688 0.164062,-0.058594 0.386718,-0.1054688 0.550781,-0.1171875 0.210937,-0.035156 0.679687,-0.046875 0.996094,-0.035156 0,0.3398438 0.01172,0.8789063 0.05859,1.1367188 h 0.375 c 0.128907,-0.3164063 0.199219,-0.890625 0.199219,-1.4179688 V -6.77275 l 0.03516,-0.4570313 c 0,-0.09375 -0.03516,-0.1523437 -0.105468,-0.1875 -0.269532,-0.1054687 -0.820313,-0.2226562 -1.148438,-0.234375 -0.07031,0 -0.09375,0.023437 -0.105469,0.046875 l -0.05859,0.2226563 c 0.316406,0.1054687 0.585937,0.2695312 0.75,0.4570312 v 0.7265625 c -0.398438,0.023437 -0.9375,0.035156 -1.195313,0.035156 -0.222656,0 -0.492187,-0.023437 -0.703125,-0.046875 l -0.05859,0.09375 c 0,0.035156 0,0.058594 0.03516,0.082031 0.164062,0.140625 0.386718,0.2578125 0.621093,0.3632813 0.175782,-0.058594 0.398438,-0.1054688 0.5625,-0.1289063 0.152344,-0.011719 0.46875,-0.011719 0.738282,-0.011719 v 1.3710937 c -0.433594,0.023437 -1.160157,0.035156 -1.453125,0.035156 -0.164063,0 -0.363282,0 -0.539063,-0.023437 0.07031,-0.1875 0.117188,-0.3984375 0.117188,-0.6210938 z m 0,0"
       style="fill:#64748b;fill-opacity:1;fill-rule:nonzero;stroke:none"
       aria-label="선택한순열"
       transform="matrix(1.3333333,0,0,1.3333333,288.65733,155.90533)" />
  </g>
</svg>
