<svg xmlns="http://www.w3.org/2000/svg" width="760" height="600" viewBox="0 0 760 600"><rect width="100%" height="100%" fill="white"/>
<style>
text{font-family:"Noto Sans CJK KR","Malgun Gothic",Arial,sans-serif;fill:#202020}
.node{fill:white;stroke:#333;stroke-width:1.6}
.nodeHi{fill:#f0f0f0;stroke:#111;stroke-width:2.2}
.edge{stroke:#9a9a9a;stroke-width:1.6}
.heavy{stroke:#202020;stroke-width:4}
.path{stroke:#202020;stroke-width:4}
.label{font-size:15px}
.small{font-size:13px;fill:#555}
.cell{fill:white;stroke:#777;stroke-width:1}
.cellHi{fill:#efefef;stroke:#222;stroke-width:2}
</style>
<line x1="380" y1="70" x2="220" y2="170" class="edge"/><line x1="380" y1="70" x2="470" y2="170" class="heavy"/><line x1="380" y1="70" x2="640" y2="170" class="edge"/><line x1="220" y1="170" x2="220" y2="300" class="edge"/><line x1="470" y1="170" x2="470" y2="290" class="heavy"/><line x1="470" y1="290" x2="470" y2="410" class="heavy"/><line x1="470" y1="410" x2="470" y2="520" class="heavy"/><circle cx="380" cy="70" r="25" class="node"/><text x="380" y="76" text-anchor="middle" class="label">1</text><circle cx="220" cy="170" r="25" class="node"/><text x="220" y="176" text-anchor="middle" class="label">2</text><circle cx="470" cy="170" r="25" class="node"/><text x="470" y="176" text-anchor="middle" class="label">3</text><circle cx="640" cy="170" r="25" class="node"/><text x="640" y="176" text-anchor="middle" class="label">4</text><circle cx="220" cy="300" r="25" class="node"/><text x="220" y="306" text-anchor="middle" class="label">5</text><circle cx="470" cy="290" r="25" class="node"/><text x="470" y="296" text-anchor="middle" class="label">7</text><circle cx="470" cy="410" r="25" class="node"/><text x="470" y="416" text-anchor="middle" class="label">8</text><circle cx="470" cy="520" r="25" class="node"/><text x="470" y="526" text-anchor="middle" class="label">6</text></svg>