<svg xmlns="http://www.w3.org/2000/svg" width="850" height="495" viewBox="0 0 850 495"><rect width="100%" height="100%" fill="white"/><style>
text{font-family:"JetBrains Mono","Consolas","Noto Sans Mono CJK KR",monospace;fill:#202020}
.label{font-size:18px}.small{font-size:14px;fill:#555}.tiny{font-size:13px;fill:#555}
.node{fill:white;stroke:#555;stroke-width:1.8}.nodeHi{fill:#eee;stroke:#202020;stroke-width:2.3}
.edge{fill:none;stroke:#888;stroke-width:1.8}.edgeHi{fill:none;stroke:#202020;stroke-width:3.6}
.chain{fill:none;stroke:#202020;stroke-width:1.7;stroke-dasharray:6 5}
.cell{fill:white;stroke:#777;stroke-width:1.2}.cellHi{fill:#eee;stroke:#202020;stroke-width:2}
.box{fill:white;stroke:#777;stroke-width:1.2;rx:5}.boxHi{fill:#eee;stroke:#202020;stroke-width:2;rx:5}
.arrow{fill:none;stroke:#202020;stroke-width:1.7;marker-end:url(#arrow)}
</style><defs><marker id="arrow" markerWidth="9" markerHeight="9" refX="7" refY="3" orient="auto"><path d="M0,0 L0,6 L8,3 z" fill="#202020"/></marker></defs><line x1="420" y1="70" x2="270" y2="175" class="edgeHi"/><line x1="420" y1="70" x2="570" y2="175" class="edge"/><line x1="270" y1="175" x2="170" y2="295" class="edge"/><line x1="270" y1="175" x2="360" y2="295" class="edgeHi"/><line x1="360" y1="295" x2="360" y2="405" class="edgeHi"/><line x1="570" y1="175" x2="500" y2="295" class="edgeHi"/><line x1="570" y1="175" x2="680" y2="295" class="edge"/><circle cx="420" cy="70" r="27" class="node"/><text x="420" y="76" text-anchor="middle" class="label">1</text><text x="420" y="117" text-anchor="middle" class="tiny">in=0 top=1</text><circle cx="270" cy="175" r="27" class="node"/><text x="270" y="181" text-anchor="middle" class="label">2</text><text x="270" y="222" text-anchor="middle" class="tiny">in=1 top=1</text><circle cx="570" cy="175" r="27" class="node"/><text x="570" y="181" text-anchor="middle" class="label">3</text><text x="570" y="222" text-anchor="middle" class="tiny">in=5 top=3</text><circle cx="170" cy="295" r="27" class="node"/><text x="170" y="301" text-anchor="middle" class="label">4</text><text x="170" y="342" text-anchor="middle" class="tiny">in=4 top=4</text><circle cx="360" cy="295" r="27" class="node"/><text x="360" y="301" text-anchor="middle" class="label">5</text><text x="360" y="342" text-anchor="middle" class="tiny">in=2 top=1</text><circle cx="500" cy="295" r="27" class="node"/><text x="500" y="301" text-anchor="middle" class="label">6</text><text x="500" y="342" text-anchor="middle" class="tiny">in=6 top=3</text><circle cx="680" cy="295" r="27" class="node"/><text x="680" y="301" text-anchor="middle" class="label">7</text><text x="680" y="342" text-anchor="middle" class="tiny">in=7 top=7</text><circle cx="360" cy="405" r="27" class="node"/><text x="360" y="411" text-anchor="middle" class="label">8</text><text x="360" y="452" text-anchor="middle" class="tiny">in=3 top=1</text><path d="M 407 48 L 245 165 L 340 300 L 340 410" class="chain"/><text x="248" y="430" class="small">chain 0</text><path d="M 548 162 L 490 300" class="chain"/><text x="535" y="342" class="small">chain 1</text></svg>