<svg xmlns="http://www.w3.org/2000/svg" width="900" height="330" viewBox="0 0 900 330"><rect width="100%" height="100%" fill="white"/><style>
text{font-family:"JetBrains Mono","Consolas","Noto Sans Mono CJK KR",monospace;fill:#202020}
.label{font-size:18px}.small{font-size:14px;fill:#555}.tiny{font-size:13px;fill:#555}
.node{fill:white;stroke:#555;stroke-width:1.8}.nodeHi{fill:#eee;stroke:#202020;stroke-width:2.3}
.edge{fill:none;stroke:#888;stroke-width:1.8}.edgeHi{fill:none;stroke:#202020;stroke-width:3.6}
.chain{fill:none;stroke:#202020;stroke-width:1.7;stroke-dasharray:6 5}
.cell{fill:white;stroke:#777;stroke-width:1.2}.cellHi{fill:#eee;stroke:#202020;stroke-width:2}
.box{fill:white;stroke:#777;stroke-width:1.2;rx:5}.boxHi{fill:#eee;stroke:#202020;stroke-width:2;rx:5}
.arrow{fill:none;stroke:#202020;stroke-width:1.7;marker-end:url(#arrow)}
</style><defs><marker id="arrow" markerWidth="9" markerHeight="9" refX="7" refY="3" orient="auto"><path d="M0,0 L0,6 L8,3 z" fill="#202020"/></marker></defs><text x="122" y="63" text-anchor="end" class="label">in</text><rect x="140" y="36" width="86" height="42" class="cell"/><text x="183.0" y="63" text-anchor="middle" class="label">0</text><rect x="226" y="36" width="86" height="42" class="cell"/><text x="269.0" y="63" text-anchor="middle" class="label">1</text><rect x="312" y="36" width="86" height="42" class="cell"/><text x="355.0" y="63" text-anchor="middle" class="label">2</text><rect x="398" y="36" width="86" height="42" class="cell"/><text x="441.0" y="63" text-anchor="middle" class="label">3</text><rect x="484" y="36" width="86" height="42" class="cell"/><text x="527.0" y="63" text-anchor="middle" class="label">4</text><rect x="570" y="36" width="86" height="42" class="cell"/><text x="613.0" y="63" text-anchor="middle" class="label">5</text><rect x="656" y="36" width="86" height="42" class="cell"/><text x="699.0" y="63" text-anchor="middle" class="label">6</text><rect x="742" y="36" width="86" height="42" class="cell"/><text x="785.0" y="63" text-anchor="middle" class="label">7</text><text x="122" y="121" text-anchor="end" class="label">node</text><rect x="140" y="94" width="86" height="42" class="cell"/><text x="183.0" y="121" text-anchor="middle" class="label">1</text><rect x="226" y="94" width="86" height="42" class="cell"/><text x="269.0" y="121" text-anchor="middle" class="label">2</text><rect x="312" y="94" width="86" height="42" class="cell"/><text x="355.0" y="121" text-anchor="middle" class="label">5</text><rect x="398" y="94" width="86" height="42" class="cell"/><text x="441.0" y="121" text-anchor="middle" class="label">8</text><rect x="484" y="94" width="86" height="42" class="cell"/><text x="527.0" y="121" text-anchor="middle" class="label">4</text><rect x="570" y="94" width="86" height="42" class="cell"/><text x="613.0" y="121" text-anchor="middle" class="label">3</text><rect x="656" y="94" width="86" height="42" class="cell"/><text x="699.0" y="121" text-anchor="middle" class="label">6</text><rect x="742" y="94" width="86" height="42" class="cell"/><text x="785.0" y="121" text-anchor="middle" class="label">7</text><text x="122" y="179" text-anchor="end" class="label">cost</text><rect x="140" y="152" width="86" height="42" class="cell"/><text x="183.0" y="179" text-anchor="middle" class="label">0</text><rect x="226" y="152" width="86" height="42" class="cellHi"/><text x="269.0" y="179" text-anchor="middle" class="label">4</text><rect x="312" y="152" width="86" height="42" class="cellHi"/><text x="355.0" y="179" text-anchor="middle" class="label">1</text><rect x="398" y="152" width="86" height="42" class="cellHi"/><text x="441.0" y="179" text-anchor="middle" class="label">6</text><rect x="484" y="152" width="86" height="42" class="cellHi"/><text x="527.0" y="179" text-anchor="middle" class="label">7</text><rect x="570" y="152" width="86" height="42" class="cellHi"/><text x="613.0" y="179" text-anchor="middle" class="label">2</text><rect x="656" y="152" width="86" height="42" class="cellHi"/><text x="699.0" y="179" text-anchor="middle" class="label">5</text><rect x="742" y="152" width="86" height="42" class="cellHi"/><text x="785.0" y="179" text-anchor="middle" class="label">3</text><text x="484" y="245" text-anchor="middle" class="label">간선 비용은 더 깊은 정점의 in 위치에 저장</text></svg>