<svg xmlns="http://www.w3.org/2000/svg" width="850" height="500" viewBox="0 0 850 500"><rect width="100%" height="100%" fill="white"/><style>
text{font-family:"JetBrains Mono","Consolas","Noto Sans Mono CJK KR",monospace;fill:#202020}
.label{font-size:18px}.small{font-size:14px;fill:#555}.tiny{font-size:13px;fill:#555}
.node{fill:white;stroke:#555;stroke-width:1.8}.nodeHi{fill:#eee;stroke:#202020;stroke-width:2.3}
.edge{fill:none;stroke:#888;stroke-width:1.8}.edgeHi{fill:none;stroke:#202020;stroke-width:3.6}
.chain{fill:none;stroke:#202020;stroke-width:1.7;stroke-dasharray:6 5}
.cell{fill:white;stroke:#777;stroke-width:1.2}.cellHi{fill:#eee;stroke:#202020;stroke-width:2}
.box{fill:white;stroke:#777;stroke-width:1.2;rx:5}.boxHi{fill:#eee;stroke:#202020;stroke-width:2;rx:5}
.arrow{fill:none;stroke:#202020;stroke-width:1.7;marker-end:url(#arrow)}
</style><defs><marker id="arrow" markerWidth="9" markerHeight="9" refX="7" refY="3" orient="auto"><path d="M0,0 L0,6 L8,3 z" fill="#202020"/></marker></defs><line x1="420" y1="70" x2="270" y2="175" class="edgeHi"/><rect x="330.0" y="99.5" width="30" height="22" fill="white"/><text x="345.0" y="116.5" text-anchor="middle" class="small">4</text><line x1="420" y1="70" x2="570" y2="175" class="edgeHi"/><rect x="480.0" y="99.5" width="30" height="22" fill="white"/><text x="495.0" y="116.5" text-anchor="middle" class="small">2</text><line x1="270" y1="175" x2="170" y2="295" class="edgeHi"/><rect x="205.0" y="212.0" width="30" height="22" fill="white"/><text x="220.0" y="229.0" text-anchor="middle" class="small">7</text><line x1="270" y1="175" x2="360" y2="295" class="edge"/><rect x="300.0" y="212.0" width="30" height="22" fill="white"/><text x="315.0" y="229.0" text-anchor="middle" class="small">1</text><line x1="360" y1="295" x2="360" y2="405" class="edge"/><rect x="345.0" y="327.0" width="30" height="22" fill="white"/><text x="360.0" y="344.0" text-anchor="middle" class="small">6</text><line x1="570" y1="175" x2="500" y2="295" class="edgeHi"/><rect x="520.0" y="212.0" width="30" height="22" fill="white"/><text x="535.0" y="229.0" text-anchor="middle" class="small">5</text><line x1="570" y1="175" x2="680" y2="295" class="edge"/><rect x="610.0" y="212.0" width="30" height="22" fill="white"/><text x="625.0" y="229.0" text-anchor="middle" class="small">3</text><circle cx="420" cy="70" r="27" class="node"/><text x="420" y="76" text-anchor="middle" class="label">1</text><circle cx="270" cy="175" r="27" class="node"/><text x="270" y="181" text-anchor="middle" class="label">2</text><circle cx="570" cy="175" r="27" class="node"/><text x="570" y="181" text-anchor="middle" class="label">3</text><circle cx="170" cy="295" r="27" class="nodeHi"/><text x="170" y="301" text-anchor="middle" class="label">4</text><circle cx="360" cy="295" r="27" class="node"/><text x="360" y="301" text-anchor="middle" class="label">5</text><circle cx="500" cy="295" r="27" class="nodeHi"/><text x="500" y="301" text-anchor="middle" class="label">6</text><circle cx="680" cy="295" r="27" class="node"/><text x="680" y="301" text-anchor="middle" class="label">7</text><circle cx="360" cy="405" r="27" class="node"/><text x="360" y="411" text-anchor="middle" class="label">8</text><rect x="55" y="60" width="135" height="46" class="boxHi"/><text x="122.5" y="89.0" text-anchor="middle" class="label">u = 4</text><rect x="55" y="120" width="135" height="46" class="boxHi"/><text x="122.5" y="149.0" text-anchor="middle" class="label">v = 6</text><rect x="55" y="210" width="185" height="46" class="boxHi"/><text x="147.5" y="239.0" text-anchor="middle" class="label">query [4,4]</text><rect x="610" y="40" width="190" height="46" class="boxHi"/><text x="705.0" y="69.0" text-anchor="middle" class="label">query [5,6]</text><rect x="315" y="430" width="190" height="46" class="boxHi"/><text x="410.0" y="459.0" text-anchor="middle" class="label">query [1,1]</text></svg>