<?xml version="1.0" encoding="UTF-8" standalone="no"?>
<!-- Created with Inkscape (http://www.inkscape.org/) -->

<svg
   version="1.1"
   id="svg1"
   width="669.79999"
   height="138.94667"
   viewBox="0 0 669.79999 138.94667"
   sodipodi:docname="1.pdf"
   xmlns:inkscape="http://www.inkscape.org/namespaces/inkscape"
   xmlns:sodipodi="http://sodipodi.sourceforge.net/DTD/sodipodi-0.dtd"
   xmlns="http://www.w3.org/2000/svg"
   xmlns:svg="http://www.w3.org/2000/svg">
  <defs
     id="defs1" />
  <sodipodi:namedview
     id="namedview1"
     pagecolor="#ffffff"
     bordercolor="#000000"
     borderopacity="0.25"
     inkscape:showpageshadow="2"
     inkscape:pageopacity="0.0"
     inkscape:pagecheckerboard="0"
     inkscape:deskcolor="#d1d1d1">
    <inkscape:page
       x="0"
       y="0"
       inkscape:label="1"
       id="page1"
       width="669.79999"
       height="138.94667"
       margin="0"
       bleed="0" />
  </sodipodi:namedview>
  <g
     id="g1"
     inkscape:groupmode="layer"
     inkscape:label="1">
    <path
       id="path1"
       d="M -14.17339,-11.33871 H 14.1734 v 22.67743 h -28.34679 z"
       style="fill:#ffffff;fill-opacity:1;fill-rule:nonzero;stroke:#666666;stroke-width:0.49814;stroke-linecap:butt;stroke-linejoin:miter;stroke-miterlimit:10;stroke-dasharray:none;stroke-opacity:1"
       transform="matrix(1.3333333,0,0,-1.3333333,72.065333,67.581333)" />
    <path
       id="path2"
       d="m 2.4946641,0.117 c 1.265625,0 2.0390625,-1.1953125 2.0390625,-3.3398437 0,-2.1328125 -0.7734375,-3.28125 -2.0390625,-3.28125 -1.2890625,0 -2.05078129,1.1484375 -2.05078129,3.28125 0,2.1445312 0.76171879,3.3398437 2.05078129,3.3398437 z m 0,-0.66796875 c -0.75,0 -1.2539063,-0.79687495 -1.2539063,-2.67187495 0,-1.875 0.5039063,-2.6367188 1.2539063,-2.6367188 0.7382812,0 1.2539062,0.7617188 1.2539062,2.6367188 0,1.875 -0.515625,2.67187495 -1.2539062,2.67187495 z m 0,0"
       style="fill:#000000;fill-opacity:1;fill-rule:nonzero;stroke:none"
       aria-label="0"
       transform="matrix(1.3333333,0,0,1.3333333,68.748,71.844)" />
    <path
       id="path3"
       d="m 1.932875,0.09420312 c 0.9960938,0 1.59375,-0.92578125 1.59375,-2.60156252 0,-1.6523437 -0.5976562,-2.5546875 -1.59375,-2.5546875 -0.99609375,0 -1.58203125,0.890625 -1.58203125,2.5546875 0,1.67578127 0.5859375,2.60156252 1.58203125,2.60156252 z m 0,-0.515625 c -0.5742187,0 -0.97265625,-0.62109372 -0.97265625,-2.08593752 0,-1.453125 0.39843755,-2.0507812 0.97265625,-2.0507812 0.5859375,0 0.984375,0.5976562 0.984375,2.0507812 0,1.4648438 -0.3984375,2.08593752 -0.984375,2.08593752 z m 0,0"
       style="fill:#666666;fill-opacity:1;fill-rule:nonzero;stroke:none"
       aria-label="0"
       transform="matrix(1.3333333,0,0,1.3333333,69.485333,47.085333)" />
    <path
       id="path4"
       d="M 16.4412,-11.33871 H 44.78799 V 11.33872 H 16.4412 Z"
       style="fill:#ffffff;fill-opacity:1;fill-rule:nonzero;stroke:#666666;stroke-width:0.49814;stroke-linecap:butt;stroke-linejoin:miter;stroke-miterlimit:10;stroke-dasharray:none;stroke-opacity:1"
       transform="matrix(1.3333333,0,0,-1.3333333,72.065333,67.581333)" />
    <path
       id="path5"
       d="m 2.4958984,0.117 c 1.265625,0 2.0390625,-1.1953125 2.0390625,-3.3398437 0,-2.1328125 -0.7734375,-3.28125 -2.0390625,-3.28125 -1.2890625,0 -2.05078121,1.1484375 -2.05078121,3.28125 0,2.1445312 0.76171871,3.3398437 2.05078121,3.3398437 z m 0,-0.66796875 c -0.75,0 -1.2539062,-0.79687495 -1.2539062,-2.67187495 0,-1.875 0.5039062,-2.6367188 1.2539062,-2.6367188 0.7382813,0 1.2539063,0.7617188 1.2539063,2.6367188 0,1.875 -0.515625,2.67187495 -1.2539063,2.67187495 z m 0,0"
       style="fill:#000000;fill-opacity:1;fill-rule:nonzero;stroke:none"
       aria-label="0"
       transform="matrix(1.3333333,0,0,1.3333333,109.56667,71.844)" />
    <path
       id="path6"
       d="M 0.60989062,4.53125e-4 H 3.4223906 V -0.52689063 h -1.03125 V -4.9682969 H 1.8989531 c -0.2695312,0.1640625 -0.5976562,0.28125 -1.05468748,0.3632813 v 0.4101562 H 1.7583281 v 3.66796877 H 0.60989062 Z m 0,0"
       style="fill:#666666;fill-opacity:1;fill-rule:nonzero;stroke:none"
       aria-label="1"
       transform="matrix(1.3333333,0,0,1.3333333,110.304,47.085333)" />
    <path
       id="path7"
       d="M 47.0558,-11.33871 H 75.40259 V 11.33872 H 47.0558 Z"
       style="fill:#dbdbdb;fill-opacity:1;fill-rule:nonzero;stroke:#000000;stroke-width:0.89664;stroke-linecap:butt;stroke-linejoin:miter;stroke-miterlimit:10;stroke-dasharray:none;stroke-opacity:1"
       transform="matrix(1.3333333,0,0,-1.3333333,72.065333,67.581333)" />
    <path
       id="path8"
       d="m 2.1569844,-1.0431562 h 0.65625 v -1.9570313 h 1.828125 v -0.609375 h -1.828125 v -1.96875 h -0.65625 v 1.96875 H 0.34057813 v 0.609375 H 2.1569844 Z M 7.3308125,0.117 c 1.171875,0 2.1210938,-0.6796875 2.1210938,-1.8164062 0,-0.8789063 -0.6210938,-1.453125 -1.3945313,-1.640625 v -0.035156 c 0.6914063,-0.246094 1.171875,-0.7382815 1.171875,-1.5234378 0,-1.0195312 -0.8085937,-1.6054687 -1.921875,-1.6054687 -0.75,0 -1.3359375,0.3398437 -1.828125,0.796875 l 0.4335938,0.515625 c 0.375,-0.3867188 0.8320312,-0.65625 1.3710937,-0.65625 0.6914063,0 1.1015625,0.3984375 1.1015625,1.0195312 0,0.6679688 -0.4570312,1.1835938 -1.8164062,1.1835938 v 0.6445312 c 1.5234375,0 2.0507812,0.5039063 2.0507812,1.265625 0,0.7265625 -0.5507812,1.171875 -1.3359375,1.171875 -0.75,0 -1.2421875,-0.36328125 -1.6289062,-0.75 l -0.421875,0.52734375 C 5.66675,-0.31659375 6.3112813,0.117 7.3308125,0.117 Z m 0,0"
       style="fill:#000000;fill-opacity:1;fill-rule:nonzero;stroke:none"
       aria-label="+3"
       transform="matrix(1.3333333,0,0,1.3333333,147.06933,71.844)" />
    <path
       id="path9"
       d="M 0.3054375,-6.015625e-4 H 3.516375 V -0.55138281 H 2.0749687 c -0.2578125,0 -0.5625,0.0234375 -0.8320312,0.046875 C 2.4148125,-1.7349766 3.282,-2.6724766 3.282,-3.6099766 c 0,-0.8789062 -0.5859375,-1.453125 -1.5,-1.453125 -0.6445313,0 -1.08984375,0.2929688 -1.5,0.75 l 0.36328125,0.3632813 C 0.93825,-4.2779453 1.2898125,-4.5474766 1.7116875,-4.5474766 c 0.6328125,0 0.9375,0.4101563 0.9375,0.9726563 0,0.8085937 -0.84375,1.7109375 -2.34375,3.19921874 z m 0,0"
       style="fill:#666666;fill-opacity:1;fill-rule:nonzero;stroke:none"
       aria-label="2"
       transform="matrix(1.3333333,0,0,1.3333333,151.124,47.145333)" />
    <path
       id="path10"
       d="M 77.67041,-11.33871 H 106.0172 V 11.33872 H 77.67041 Z"
       style="fill:#ffffff;fill-opacity:1;fill-rule:nonzero;stroke:#666666;stroke-width:0.49814;stroke-linecap:butt;stroke-linejoin:miter;stroke-miterlimit:10;stroke-dasharray:none;stroke-opacity:1"
       transform="matrix(1.3333333,0,0,-1.3333333,72.065333,67.581333)" />
    <path
       id="path11"
       d="m 2.4963672,0.117 c 1.265625,0 2.0390625,-1.1953125 2.0390625,-3.3398437 0,-2.1328125 -0.7734375,-3.28125 -2.0390625,-3.28125 -1.2890625,0 -2.05078126,1.1484375 -2.05078126,3.28125 0,2.1445312 0.76171876,3.3398437 2.05078126,3.3398437 z m 0,-0.66796875 c -0.75,0 -1.2539063,-0.79687495 -1.2539063,-2.67187495 0,-1.875 0.5039063,-2.6367188 1.2539063,-2.6367188 0.7382812,0 1.2539062,0.7617188 1.2539062,2.6367188 0,1.875 -0.515625,2.67187495 -1.2539062,2.67187495 z m 0,0"
       style="fill:#000000;fill-opacity:1;fill-rule:nonzero;stroke:none"
       aria-label="0"
       transform="matrix(1.3333333,0,0,1.3333333,191.20667,71.844)" />
    <path
       id="path12"
       d="m 1.8291094,0.09420312 c 0.9140625,0 1.6523437,-0.52734375 1.6523437,-1.41796872 0,-0.6796875 -0.4804687,-1.125 -1.078125,-1.265625 v -0.035156 c 0.5273438,-0.1875 0.9023438,-0.5742187 0.9023438,-1.1835937 0,-0.796875 -0.6328125,-1.2539063 -1.4882813,-1.2539063 -0.5859375,0 -1.04296873,0.2695313 -1.42968748,0.6210938 l 0.33984375,0.3984375 C 1.0205156,-4.3354844 1.3837969,-4.5464219 1.7939531,-4.5464219 c 0.5390625,0 0.8671875,0.3046875 0.8671875,0.7851563 0,0.5273437 -0.3632812,0.9257812 -1.4179687,0.9257812 v 0.5039063 c 1.1835937,0 1.59375,0.3867187 1.59375,0.984375 0,0.56249997 -0.4335938,0.91406247 -1.0429688,0.91406247 -0.5742187,0 -0.96093748,-0.28125 -1.26562498,-0.58593747 l -0.328125,0.41015622 c 0.33984375,0.36328125 0.84374998,0.703125 1.62890628,0.703125 z m 0,0"
       style="fill:#666666;fill-opacity:1;fill-rule:nonzero;stroke:none"
       aria-label="3"
       transform="matrix(1.3333333,0,0,1.3333333,191.944,47.085333)" />
    <path
       id="path13"
       d="m 108.285,-11.33871 h 28.34679 V 11.33872 H 108.285 Z"
       style="fill:#ffffff;fill-opacity:1;fill-rule:nonzero;stroke:#666666;stroke-width:0.49814;stroke-linecap:butt;stroke-linejoin:miter;stroke-miterlimit:10;stroke-dasharray:none;stroke-opacity:1"
       transform="matrix(1.3333333,0,0,-1.3333333,72.065333,67.581333)" />
    <path
       id="path14"
       d="m 2.4946719,0.117 c 1.265625,0 2.0390625,-1.1953125 2.0390625,-3.3398437 0,-2.1328125 -0.7734375,-3.28125 -2.0390625,-3.28125 -1.2890625,0 -2.05078128,1.1484375 -2.05078128,3.28125 0,2.1445312 0.76171878,3.3398437 2.05078128,3.3398437 z m 0,-0.66796875 c -0.75,0 -1.2539063,-0.79687495 -1.2539063,-2.67187495 0,-1.875 0.5039063,-2.6367188 1.2539063,-2.6367188 0.7382812,0 1.2539062,0.7617188 1.2539062,2.6367188 0,1.875 -0.515625,2.67187495 -1.2539062,2.67187495 z m 0,0"
       style="fill:#000000;fill-opacity:1;fill-rule:nonzero;stroke:none"
       aria-label="0"
       transform="matrix(1.3333333,0,0,1.3333333,232.02533,71.844)" />
    <path
       id="path15"
       d="M 2.3664766,4.53125e-4 H 2.9641328 V -1.3706406 h 0.6914063 v -0.515625 H 2.9641328 v -3.0820313 h -0.703125 l -2.12109374,3.1757813 v 0.421875 H 2.3664766 Z m 0,-1.886718725 H 0.79616406 L 1.9680391,-3.5854844 c 0.140625,-0.2460937 0.28125,-0.46875 0.4101562,-0.703125 h 0.023437 c -0.011719,0.2578125 -0.035156,0.703125 -0.035156,0.9492188 z m 0,0"
       style="fill:#666666;fill-opacity:1;fill-rule:nonzero;stroke:none"
       aria-label="4"
       transform="matrix(1.3333333,0,0,1.3333333,232.76267,47.085333)" />
    <path
       id="path16"
       d="M 138.89961,-11.33871 H 167.2464 V 11.33872 H 138.89961 Z"
       style="fill:#ffffff;fill-opacity:1;fill-rule:nonzero;stroke:#666666;stroke-width:0.49814;stroke-linecap:butt;stroke-linejoin:miter;stroke-miterlimit:10;stroke-dasharray:none;stroke-opacity:1"
       transform="matrix(1.3333333,0,0,-1.3333333,72.065333,67.581333)" />
    <path
       id="path17"
       d="m 2.4949063,0.117 c 1.265625,0 2.0390625,-1.1953125 2.0390625,-3.3398437 0,-2.1328125 -0.7734375,-3.28125 -2.0390625,-3.28125 -1.2890625,0 -2.0507813,1.1484375 -2.0507813,3.28125 0,2.1445312 0.7617188,3.3398437 2.0507813,3.3398437 z m 0,-0.66796875 c -0.75,0 -1.2539063,-0.79687495 -1.2539063,-2.67187495 0,-1.875 0.5039063,-2.6367188 1.2539063,-2.6367188 0.7382812,0 1.2539062,0.7617188 1.2539062,2.6367188 0,1.875 -0.515625,2.67187495 -1.2539062,2.67187495 z m 0,0"
       style="fill:#000000;fill-opacity:1;fill-rule:nonzero;stroke:none"
       aria-label="0"
       transform="matrix(1.3333333,0,0,1.3333333,272.84533,71.844)" />
    <path
       id="path18"
       d="m 1.8276484,0.09332812 c 0.8554688,0 1.6757813,-0.609375 1.6757813,-1.68750002 0,-1.0664062 -0.703125,-1.546875 -1.546875,-1.546875 -0.3046875,0 -0.5390625,0.070312 -0.7617188,0.1992188 l 0.1289063,-1.4765625 h 1.921875 V -4.9691719 H 0.76124219 l -0.1640625,2.390625 0.33984375,0.2109375 c 0.29296876,-0.1875 0.51562496,-0.3046875 0.85546876,-0.3046875 0.6445312,0 1.0546875,0.4101563 1.0546875,1.1015625 0,0.69140627 -0.4804688,1.13671877 -1.078125,1.13671877 -0.5976563,0 -0.97265626,-0.28125 -1.26562501,-0.57421877 l -0.31640625,0.42187502 c 0.3515625,0.33984375 0.83203126,0.6796875 1.64062496,0.6796875 z m 0,0"
       style="fill:#666666;fill-opacity:1;fill-rule:nonzero;stroke:none"
       aria-label="5"
       transform="matrix(1.3333333,0,0,1.3333333,273.58267,47.024)" />
    <path
       id="path19"
       d="m 169.51422,-11.33871 h 28.34679 v 22.67743 h -28.34679 z"
       style="fill:#dbdbdb;fill-opacity:1;fill-rule:nonzero;stroke:#000000;stroke-width:0.89664;stroke-linecap:butt;stroke-linejoin:miter;stroke-miterlimit:10;stroke-dasharray:none;stroke-opacity:1"
       transform="matrix(1.3333333,0,0,-1.3333333,72.065333,67.581333)" />
    <path
       id="path20"
       d="M 0.40953906,-2.1915937 H 2.7064141 V -2.8244062 H 0.40953906 Z M 5.4661797,0.117 c 1.171875,0 2.1210937,-0.6796875 2.1210937,-1.8164062 0,-0.8789063 -0.6210937,-1.453125 -1.3945312,-1.640625 v -0.035156 c 0.6914062,-0.2460937 1.171875,-0.7382812 1.171875,-1.5234375 0,-1.0195312 -0.8085938,-1.6054687 -1.921875,-1.6054687 -0.75,0 -1.3359375,0.3398437 -1.828125,0.796875 l 0.4335937,0.515625 c 0.375,-0.3867188 0.8320313,-0.65625 1.3710938,-0.65625 0.6914062,0 1.1015625,0.3984375 1.1015625,1.0195312 0,0.6679688 -0.4570313,1.1835938 -1.8164063,1.1835938 v 0.6445312 c 1.5234375,0 2.0507813,0.5039063 2.0507813,1.265625 0,0.7265625 -0.5507813,1.171875 -1.3359375,1.171875 -0.75,0 -1.2421875,-0.36328125 -1.6289063,-0.75 l -0.421875,0.52734375 C 3.8021172,-0.31659375 4.4466484,0.117 5.4661797,0.117 Z m 0,0"
       style="fill:#000000;fill-opacity:1;fill-rule:nonzero;stroke:none"
       aria-label="‑3"
       transform="matrix(1.3333333,0,0,1.3333333,311.59067,71.844)" />
    <path
       id="path21"
       d="m 2.0984141,0.09420312 c 0.7851562,0 1.453125,-0.64453125 1.453125,-1.59375002 0,-1.0195312 -0.5507813,-1.5351562 -1.4179688,-1.5351562 -0.3984375,0 -0.84375,0.234375 -1.16015624,0.6328125 0.0351562,-1.5820313 0.62109374,-2.1328125 1.32421874,-2.1328125 0.3164063,0 0.6210938,0.1523437 0.8085938,0.3984375 l 0.3632812,-0.3984375 c -0.28125,-0.3046875 -0.6679687,-0.5273438 -1.2070312,-0.5273438 -0.984375,0 -1.88671879,0.7617188 -1.88671879,2.765625 0,1.59375002 0.73828129,2.39062502 1.72265629,2.39062502 z M 0.98513281,-1.8979844 c 0.35156249,-0.4804687 0.72656249,-0.65625 1.05468749,-0.65625 0.609375,0 0.9257813,0.4101563 0.9257813,1.0546875 0,0.65625002 -0.3867188,1.08984377 -0.8789063,1.08984377 -0.6328125,0 -1.0078125,-0.515625 -1.10156249,-1.48828127 z m 0,0"
       style="fill:#666666;fill-opacity:1;fill-rule:nonzero;stroke:none"
       aria-label="6"
       transform="matrix(1.3333333,0,0,1.3333333,314.40133,47.085333)" />
    <path
       id="path22"
       d="m 200.12885,-11.33871 h 28.34679 v 22.67743 h -28.34679 z"
       style="fill:#ffffff;fill-opacity:1;fill-rule:nonzero;stroke:#666666;stroke-width:0.49814;stroke-linecap:butt;stroke-linejoin:miter;stroke-miterlimit:10;stroke-dasharray:none;stroke-opacity:1"
       transform="matrix(1.3333333,0,0,-1.3333333,72.065333,67.581333)" />
    <path
       id="path23"
       d="m 2.496375,0.117 c 1.265625,0 2.0390625,-1.1953125 2.0390625,-3.3398437 0,-2.1328125 -0.7734375,-3.28125 -2.0390625,-3.28125 -1.2890625,0 -2.05078125,1.1484375 -2.05078125,3.28125 0,2.1445312 0.76171875,3.3398437 2.05078125,3.3398437 z m 0,-0.66796875 c -0.75,0 -1.2539062,-0.79687495 -1.2539062,-2.67187495 0,-1.875 0.5039062,-2.6367188 1.2539062,-2.6367188 0.7382813,0 1.2539063,0.7617188 1.2539063,2.6367188 0,1.875 -0.515625,2.67187495 -1.2539063,2.67187495 z m 0,0"
       style="fill:#000000;fill-opacity:1;fill-rule:nonzero;stroke:none"
       aria-label="0"
       transform="matrix(1.3333333,0,0,1.3333333,354.484,71.844)" />
    <path
       id="path24"
       d="m 1.3838047,4.53125e-4 h 0.65625 c 0.082031,-1.933593725 0.328125,-3.070312525 1.5,-4.582031225 V -4.9682969 H 0.34083594 v 0.5507813 H 2.8252109 c -0.984375,1.359375 -1.3476562,2.5429687 -1.4414062,4.417968725 z m 0,0"
       style="fill:#666666;fill-opacity:1;fill-rule:nonzero;stroke:none"
       aria-label="7"
       transform="matrix(1.3333333,0,0,1.3333333,355.22133,47.085333)" />
    <path
       id="path25"
       d="m 230.74344,-11.33871 h 28.34679 v 22.67743 h -28.34679 z"
       style="fill:#ffffff;fill-opacity:1;fill-rule:nonzero;stroke:#666666;stroke-width:0.49814;stroke-linecap:butt;stroke-linejoin:miter;stroke-miterlimit:10;stroke-dasharray:none;stroke-opacity:1"
       transform="matrix(1.3333333,0,0,-1.3333333,72.065333,67.581333)" />
    <path
       id="path26"
       d="m 2.4966094,0.117 c 1.265625,0 2.0390625,-1.1953125 2.0390625,-3.3398437 0,-2.1328125 -0.7734375,-3.28125 -2.0390625,-3.28125 -1.2890625,0 -2.05078127,1.1484375 -2.05078127,3.28125 0,2.1445312 0.76171877,3.3398437 2.05078127,3.3398437 z m 0,-0.66796875 c -0.75,0 -1.2539063,-0.79687495 -1.2539063,-2.67187495 0,-1.875 0.5039063,-2.6367188 1.2539063,-2.6367188 0.7382812,0 1.2539062,0.7617188 1.2539062,2.6367188 0,1.875 -0.515625,2.67187495 -1.2539062,2.67187495 z m 0,0"
       style="fill:#000000;fill-opacity:1;fill-rule:nonzero;stroke:none"
       aria-label="0"
       transform="matrix(1.3333333,0,0,1.3333333,395.304,71.844)" />
    <path
       id="path27"
       d="m 1.9582578,0.09420312 c 0.9492188,0 1.59375,-0.5859375 1.59375,-1.32421872 0,-0.6679688 -0.421875,-1.0195313 -0.8554687,-1.2890625 v -0.023437 c 0.2929687,-0.234375 0.6679687,-0.6796875 0.6679687,-1.2070313 0,-0.7617187 -0.5273437,-1.3125 -1.3945312,-1.3125 -0.796875,0 -1.40625004,0.5039063 -1.40625004,1.265625 0,0.5273438 0.328125,0.890625 0.69140624,1.1484375 v 0.035156 c -0.45703124,0.2460937 -0.93749999,0.6914062 -0.93749999,1.3476562 0,0.78515627 0.69140629,1.35937502 1.64062499,1.35937482 z M 2.2981016,-2.7065781 c -0.5976563,-0.234375 -1.1484375,-0.4921875 -1.1484375,-1.0898438 0,-0.4804687 0.3398437,-0.796875 0.8085937,-0.796875 0.5507813,0 0.8671875,0.3984375 0.8671875,0.8789063 0,0.375 -0.1875,0.703125 -0.5273437,1.0078125 z m -0.3398438,2.32031247 c -0.609375,0 -1.06640624,-0.3984375 -1.06640624,-0.93749997 0,-0.46875 0.29296874,-0.8320313 0.70312504,-1.0898438 0.7148437,0.2929688 1.3476562,0.515625 1.3476562,1.1601563 0,0.51562497 -0.3867187,0.86718747 -0.984375,0.86718747 z m 0,0"
       style="fill:#666666;fill-opacity:1;fill-rule:nonzero;stroke:none"
       aria-label="8"
       transform="matrix(1.3333333,0,0,1.3333333,396.04133,47.085333)" />
    <path
       id="path28"
       d="m 4.6299219,-0.28046875 c 0,-0.3046875 -0.2460938,-0.3046875 -0.375,-0.3046875 H 3.8564844 V -5.096875 c 0,-0.3046875 -0.070312,-0.375 -0.375,-0.375 H 2.8017969 c -0.1289063,0 -0.375,0 -0.375,0.28125 0,0.2929687 0.234375,0.2929687 0.375,0.2929687 h 0.3867187 v 1.3710938 c -0.1875,-0.1757813 -0.5507812,-0.3867188 -1.03125,-0.3867188 -0.9960937,0 -1.85156248,0.8671875 -1.85156248,1.9921875 0,1.10156255 0.80859378,1.96875005 1.76953128,1.96875005 0.4101562,0 0.796875,-0.15234375 1.1132812,-0.48046875 0,0.28125 0,0.43359375 0.375,0.43359375 h 0.6914063 c 0.1171875,0 0.375,0 0.375,-0.28125 z M 3.1885156,-1.7453125 c 0,0.4804687 -0.3984375,1.20703125 -1.0664062,1.20703125 -0.6210938,0 -1.14843753,-0.60937505 -1.14843753,-1.38281255 0,-0.8085937 0.57421873,-1.40625 1.23046873,-1.40625 0.5390625,0 0.984375,0.46875 0.984375,0.9492188 z m 5.6425781,1.46484375 c 0,-0.3046875 -0.2578125,-0.3046875 -0.3867187,-0.3046875 h -0.9375 V -3.4914063 c 0,-0.2929687 -0.070312,-0.375 -0.375,-0.375 H 5.8310937 c -0.140625,0 -0.3867187,0 -0.3867187,0.2929688 0,0.2929687 0.234375,0.2929687 0.3867187,0.2929687 h 1.0078125 v 2.69531255 H 5.7490625 c -0.1289063,0 -0.375,0 -0.375,0.29296875 0,0.29296875 0.234375,0.29296875 0.375,0.29296875 H 8.444375 c 0.1289062,0 0.3867187,0 0.3867187,-0.28125 z m -1.3125,-4.69921875 c 0,-0.2578125 -0.1992187,-0.4570313 -0.4570312,-0.4570313 -0.2460938,0 -0.4570313,0.1992188 -0.4570313,0.4570313 0,0.2460937 0.2109375,0.4570312 0.4570313,0.4570312 0.2578125,0 0.4570312,-0.2109375 0.4570312,-0.4570312 z m 5.8095703,0.011719 c 0,-0.5507812 -0.726562,-0.5507812 -0.867187,-0.5507812 -0.691407,0 -1.417969,0.3867187 -1.417969,1.2070312 v 0.4453125 h -0.855469 c -0.140625,0 -0.3867187,0 -0.3867187,0.3046875 0,0.28125 0.2460937,0.28125 0.3749997,0.28125 h 0.867188 v 2.69531255 h -0.902344 c -0.128906,0 -0.3867187,0 -0.3867187,0.29296875 0,0.29296875 0.2460937,0.29296875 0.3867187,0.29296875 h 2.472656 c 0.128907,0 0.386719,0 0.386719,-0.28125 0,-0.3046875 -0.246094,-0.3046875 -0.386719,-0.3046875 H 11.710977 V -3.2804688 h 1.042968 c 0.128907,0 0.375,0 0.375,-0.28125 0,-0.3046875 -0.234375,-0.3046875 -0.375,-0.3046875 h -1.042968 v -0.4101562 c 0,-0.65625 0.550781,-0.6679688 0.808593,-0.6679688 0.03516,0.2460938 0.222657,0.3867188 0.410157,0.3867188 0.164062,0 0.398437,-0.1171875 0.398437,-0.410156 z m 4.708008,0 c 0,-0.5507812 -0.726563,-0.5507812 -0.867188,-0.5507812 -0.691406,0 -1.417968,0.3867187 -1.417968,1.2070312 v 0.4453125 h -0.855469 c -0.140625,0 -0.386719,0 -0.386719,0.3046875 0,0.28125 0.246094,0.28125 0.375,0.28125 h 0.867188 v 2.69531255 h -0.902344 c -0.128906,0 -0.386719,0 -0.386719,0.29296875 0,0.29296875 0.246094,0.29296875 0.386719,0.29296875 h 2.472656 c 0.128906,0 0.386719,0 0.386719,-0.28125 0,-0.3046875 -0.246094,-0.3046875 -0.386719,-0.3046875 H 16.418984 V -3.2804688 h 1.042969 c 0.128906,0 0.375,0 0.375,-0.28125 0,-0.3046875 -0.234375,-0.3046875 -0.375,-0.3046875 h -1.042969 v -0.4101562 c 0,-0.65625 0.550782,-0.6679688 0.808594,-0.6679688 0.03516,0.2460938 0.222656,0.3867188 0.410156,0.3867188 0.164063,0 0.398438,-0.1171875 0.398438,-0.410156 z m 0,0"
       style="fill:#000000;fill-opacity:1;fill-rule:nonzero;stroke:none"
       aria-label="diff"
       transform="matrix(1.3333333,0,0,1.3333333,15.053333,71.233333)" />
    <path
       id="path29"
       d="m 46.60748,-30.21227 c 0.59969,-1.19454 1.99581,-1.98923 3.98833,-1.98596 l 52.47357,0.08647 c 1.99252,0.0033 3.38863,-0.79139 3.98833,-1.98596 0.59575,1.19651 1.98924,1.99582 3.98176,1.9991 l 52.47356,0.08647 c 1.99252,0.0033 3.386,0.8026 3.98177,1.99909"
       style="fill:none;stroke:#000000;stroke-width:0.49814;stroke-linecap:butt;stroke-linejoin:miter;stroke-miterlimit:10;stroke-dasharray:none;stroke-opacity:1"
       transform="matrix(1.3333333,0,0,-1.3333333,72.065333,67.581333)" />
    <g
       id="g29"
       aria-label="구간[2,5]에+3"
       transform="matrix(1.3333333,0,0,1.3333333,170.352,120.828)">
      <path
         id="path30"
         d="m 0.44498437,-3.4100625 v 0.6210937 H 3.7145156 v 3.49218755 h 0.75 V -2.7889688 H 7.7692031 V -3.4100625 H 6.5856094 c 0.2226562,-1.1601563 0.2226562,-2.0039063 0.2226562,-2.765625 V -6.8905313 H 1.3590469 v 0.609375 h 4.7226562 v 0.1054688 c 0,0.75 0,1.6171875 -0.2578125,2.765625 z M 14.237953,-7.417875 v 5.9296875 h 0.75 V -4.324125 h 1.195313 V -4.9569375 H 14.987953 V -7.417875 Z m -5.2031249,0.6328125 v 0.6210937 H 12.011391 C 11.859047,-4.746 10.628578,-3.6092813 8.7067031,-3.011625 l 0.3164063,0.5976562 C 11.355141,-3.15225 12.808266,-4.6874063 12.808266,-6.7850625 Z m 0.9023438,4.6992187 v 2.60156255 h 5.4023441 v -0.609375 H 10.675453 V -2.0858438 Z m 0,0"
         style="fill:#000000;fill-opacity:1;fill-rule:nonzero;stroke:none" />
      <path
         id="path31"
         d="m 22.842445,0.44540625 c 0,-0.28125 -0.246093,-0.28125 -0.375,-0.28125 H 21.119789 V -5.636625 h 1.347656 c 0.140625,0 0.375,0 0.375,-0.2929688 0,-0.2929687 -0.246093,-0.2929687 -0.375,-0.2929687 h -1.628906 c -0.292969,0 -0.375,0.070312 -0.375,0.375 V 0.363375 c 0,0.3046875 0.07031,0.375 0.375,0.375 h 1.628906 c 0.140625,0 0.375,0 0.375,-0.29296875 z m 4.602539,-0.8203125 v -0.2578125 c 0,-0.17578125 0,-0.37500005 -0.328125,-0.37500005 -0.339843,0 -0.339843,0.18750005 -0.339843,0.42187505 H 24.761391 C 25.241859,-0.996 26.249672,-1.792875 26.472328,-2.0038125 26.800453,-2.3202188 27.444984,-2.917875 27.444984,-3.8085 c 0,-1.0664063 -0.890625,-1.7695313 -2.003906,-1.7695313 -1.042969,0 -1.757812,0.7148438 -1.757812,1.4765625 0,0.3632813 0.28125,0.4570313 0.421875,0.4570313 0.175781,0 0.410156,-0.1523438 0.410156,-0.421875 0,-0.1875 -0.07031,-0.2578125 -0.117188,-0.3046875 0.152344,-0.3867188 0.550782,-0.6210938 1.007813,-0.6210938 0.714844,0 1.371094,0.4101563 1.371094,1.1835938 0,0.6210937 -0.480469,1.1601562 -0.832032,1.4648437 l -2.132812,1.7929688 c -0.07031,0.0585938 -0.128906,0.1171875 -0.128906,0.2578125 0,0.29296875 0.234375,0.29296875 0.386718,0.29296875 h 3 c 0.292969,0 0.375,-0.0703125 0.375,-0.375 z m 3.583008,0.140625 c 0,-0.515625 -0.328125,-0.90234375 -0.75,-0.90234375 -0.351562,0 -0.574219,0.26953125 -0.574219,0.5625 0,0.328125 0.246094,0.57421875 0.574219,0.57421875 0.07031,0 0.128906,-0.01171875 0.140625,-0.0234375 -0.03516,0.19921875 -0.199219,0.5390625 -0.65625,0.69140625 -0.08203,0.0351563 -0.246094,0.0820313 -0.246094,0.28125 0,0.140625 0.140625,0.2929687 0.304688,0.2929687 0.292969,0 1.207031,-0.46874995 1.207031,-1.47656245 z M 41.557289,-1.699125 c 0,-0.9140625 -0.703125,-1.7929688 -1.757812,-1.7929688 -0.292969,0 -0.65625,0.046875 -1.042969,0.2460938 v -1.6523438 h 2.109375 c 0.128906,0 0.375,0 0.375,-0.28125 0,-0.2929687 -0.234375,-0.2929687 -0.375,-0.2929687 h -2.390625 c -0.304688,0 -0.386719,0.070312 -0.386719,0.4101562 v 2.3320313 c 0,0.1757812 0,0.4101562 0.316406,0.4101562 0.164063,0 0.199219,-0.046875 0.28125,-0.140625 0.257813,-0.3164062 0.667969,-0.4453125 1.101563,-0.4453125 0.714844,0 1.101562,0.6328125 1.101562,1.2070313 0,0.6914062 -0.609375,1.21875 -1.347656,1.21875 -0.363281,0 -0.820312,-0.15234375 -1.019531,-0.5273438 l 0.01172,-0.011719 c 0.05859,-0.09375 0.07031,-0.1054688 0.08203,-0.2226563 0,0 0.01172,-0.023437 0.01172,-0.058594 0,-0.234375 -0.175782,-0.4101563 -0.410157,-0.4101563 -0.175781,0 -0.421875,0.1054688 -0.421875,0.4453125 0,0.72656255 0.738282,1.35937505 1.746094,1.35937505 1.125,0 2.015625,-0.796875 2.015625,-1.79296875 z m 3.219727,2.0625 v -6.2109375 c 0,-0.2929688 -0.07031,-0.375 -0.375,-0.375 h -1.628907 c -0.128906,0 -0.375,0 -0.375,0.2929687 0,0.2929688 0.234375,0.2929688 0.375,0.2929688 h 1.335938 v 5.80078125 h -1.335938 c -0.128906,0 -0.375,0 -0.375,0.28125 0,0.29296875 0.234375,0.29296875 0.375,0.29296875 h 1.628907 c 0.292968,0 0.375,-0.0703125 0.375,-0.375 z m 0,0"
         style="fill:#000000;fill-opacity:1;fill-rule:nonzero;stroke:none" />
      <path
         id="path32"
         d="m 53.820961,-7.417875 v 8.12109375 h 0.726562 V -7.417875 Z m -4.347656,1.3710937 c 0.644531,0 1.042968,0.8203125 1.042968,2.1328125 0,1.3125 -0.398437,2.1328125 -1.042968,2.1328125 -0.632813,0 -1.03125,-0.8203125 -1.03125,-2.1328125 0,-1.3125 0.398437,-2.1328125 1.03125,-2.1328125 z m 0,-0.6914062 c -1.042969,0 -1.722657,1.0898437 -1.722657,2.8242187 0,1.734375 0.679688,2.8242188 1.722657,2.8242188 0.996093,0 1.664062,-0.9726563 1.722656,-2.5546875 h 1.019531 v 3.92578125 h 0.703125 V -7.2420938 h -0.703125 v 2.9882813 h -1.019531 c -0.08203,-1.5351563 -0.738281,-2.484375 -1.722656,-2.484375 z m 0,0"
         style="fill:#000000;fill-opacity:1;fill-rule:nonzero;stroke:none" />
      <path
         id="path33"
         d="m 61.827797,-2.730375 c 0,-0.3398438 -0.339844,-0.3398438 -0.445313,-0.3398438 H 60.140297 V -4.324125 c 0,-0.09375 0,-0.4335938 -0.328125,-0.4335938 -0.339844,0 -0.339844,0.328125 -0.339844,0.4335938 v 1.2539062 h -1.242187 c -0.105469,0 -0.445313,0 -0.445313,0.328125 0,0.3398438 0.339844,0.3398438 0.445313,0.3398438 h 1.242187 v 1.2421875 c 0,0.1054687 0,0.4453125 0.328125,0.4453125 0.339844,0 0.339844,-0.3398438 0.339844,-0.4453125 V -2.40225 h 1.242187 c 0.09375,0 0.445313,0 0.445313,-0.328125 z m 4.637695,1.1601562 c 0,-0.7382812 -0.550781,-1.2304687 -0.972656,-1.4296875 0.65625,-0.4570312 0.714844,-1.0546875 0.714844,-1.2890625 0,-0.6914062 -0.679688,-1.2890625 -1.699219,-1.2890625 -1.101563,0 -1.6875,0.4453125 -1.6875,1.0546875 0,0.2695313 0.199219,0.421875 0.421875,0.421875 0.222656,0 0.410156,-0.1757812 0.410156,-0.4101562 0,-0.082031 -0.02344,-0.1757813 -0.07031,-0.234375 0.292968,-0.2460938 0.878906,-0.2460938 0.925781,-0.2460938 0.632812,0 1.03125,0.328125 1.03125,0.703125 0,0.2460938 -0.117188,0.609375 -0.457031,0.8320313 -0.234375,0.1523437 -0.398438,0.1640625 -0.820313,0.1992187 -0.351562,0.011719 -0.527344,0.035156 -0.527344,0.3046875 0,0.2929688 0.246094,0.2929688 0.375,0.2929688 h 0.375 c 0.925782,0 1.324219,0.6210937 1.324219,1.078125 0,0.5742187 -0.515625,1.1015625 -1.289062,1.1015625 -0.234375,0 -0.914063,-0.0351563 -1.230469,-0.46875 l 0.02344,-0.0234375 c 0.05859,-0.0820313 0.05859,-0.1054688 0.07031,-0.1875 0,0 0.01172,-0.035156 0.01172,-0.070312 0,-0.2226563 -0.175782,-0.4101563 -0.410157,-0.4101563 -0.222656,0 -0.421875,0.1289063 -0.421875,0.4335938 0,0.796875 0.84375,1.30078125 1.957032,1.30078125 1.171875,0 1.945312,-0.80859375 1.945312,-1.66406255 z m 0,0"
         style="fill:#000000;fill-opacity:1;fill-rule:nonzero;stroke:none" />
    </g>
    <path
       id="path34"
       d="M 438.14917,42.52014 H 297.56549 c -1.10046,0 -1.99255,-0.89209 -1.99255,-1.99255 v -83.89002 c 0,-1.10046 0.89209,-1.99255 1.99255,-1.99255 h 140.58368 c 1.10046,0 1.99255,0.89209 1.99255,1.99255 v 83.89002 c 0,1.10046 -0.89209,1.99255 -1.99255,1.99255 z"
       style="fill:#fcfcfc;fill-opacity:1;fill-rule:nonzero;stroke:#c7c7c7;stroke-width:0.3985;stroke-linecap:butt;stroke-linejoin:miter;stroke-miterlimit:10;stroke-dasharray:none;stroke-opacity:1"
       transform="matrix(1.3333333,0,0,-1.3333333,72.065333,67.581333)" />
    <g
       id="g34"
       aria-label="구간의시작점에값을더한다.&#10;diff[2]+=3;&#10;구간의다음위치에서값을뺀다.&#10;diff[6]-=3;"
       transform="matrix(1.3333333,0,0,1.3333333,484.03067,41.84)">
      <path
         id="path35"
         d="m 0.44575,-3.4102734 v 0.6210937 h 3.2695312 v 3.49218751 h 0.75 V -2.7891797 H 7.7699687 V -3.4102734 H 6.586375 c 0.2226562,-1.1601563 0.2226562,-2.0039063 0.2226562,-2.765625 V -6.8907422 H 1.3598125 v 0.609375 h 4.7226562 v 0.1054688 c 0,0.75 0,1.6171875 -0.2578125,2.765625 z m 13.792969,-4.0078125 v 5.9296875 h 0.75 v -2.8359375 h 1.195312 v -0.6328125 h -1.195312 v -2.4609375 z m -5.2031253,0.6328125 v 0.6210937 h 2.9765623 c -0.152344,1.4179688 -1.382812,2.5546875 -3.3046873,3.1523438 l 0.3164063,0.5976562 c 2.332031,-0.7382812 3.785156,-2.2734375 3.785156,-4.3710937 z m 0.9023438,4.6992187 v 2.60156251 h 5.4023435 v -0.609375 H 10.676219 V -2.0860547 Z m 9.6298825,-4.734375 c -1.253906,0 -2.179687,0.7734375 -2.179687,1.9101563 0,1.125 0.925781,1.9101562 2.179687,1.9101562 1.265625,0 2.179688,-0.7851562 2.179688,-1.9101562 0,-1.1367188 -0.914063,-1.9101563 -2.179688,-1.9101563 z m 0,0.6445313 c 0.84375,0 1.453125,0.515625 1.453125,1.265625 0,0.75 -0.609375,1.265625 -1.453125,1.265625 -0.832031,0 -1.441406,-0.515625 -1.441406,-1.265625 0,-0.75 0.609375,-1.265625 1.441406,-1.265625 z m 3.246094,-1.2421875 v 8.12109371 h 0.738281 V -7.4180859 Z m -5.730469,6.3515625 c 1.453125,0 3.433594,-0.011719 5.261719,-0.3632813 l -0.07031,-0.5390625 c -1.757813,0.2695313 -3.808594,0.2695313 -5.285157,0.2695313 z m 16.010742,-6.3515625 v 8.12109371 h 0.738282 V -7.4180859 Z m -3.761718,0.703125 v 1.453125 c 0,1.546875 -0.960938,3.09375 -2.179688,3.65625 l 0.457031,0.62109371 c 0.960938,-0.48046871 1.734375,-1.50000001 2.109375,-2.71875001 0.375,1.1601563 1.160157,2.109375 2.074219,2.5546875 l 0.445313,-0.5859375 c -1.195313,-0.5507812 -2.15625,-2.0507812 -2.15625,-3.5273437 v -1.453125 z m 7.136718,4.6171875 v 0.609375 h 4.535157 v 2.19140621 h 0.738281 V -2.0977734 Z m -0.832031,-4.7460938 v 0.609375 h 1.816406 v 0.3046875 c 0,1.1601563 -0.820312,2.2148438 -2.039062,2.6367188 l 0.398437,0.5742187 c 0.949219,-0.3398437 1.675782,-1.0429687 2.027344,-1.9570312 0.339844,0.8203125 1.03125,1.4882812 1.945313,1.8046875 l 0.375,-0.5859375 c -1.195313,-0.4101563 -1.96875,-1.3945313 -1.96875,-2.4726563 v -0.3046875 h 1.792968 v -0.609375 z m 5.367188,-0.5742187 v 4.8867187 h 0.738281 v -2.1210937 h 1.195312 v -0.6328125 h -1.195312 v -2.1328125 z m 4.101562,5.1445312 v 2.85937501 h 5.261719 V -2.2735547 Z m 4.535156,0.5976563 v 1.65234371 H 45.844187 V -1.6758984 Z m -0.01172,-5.7421875 v 2.0273437 h -1.605469 v 0.6210938 h 1.605469 v 2.0976562 h 0.738281 v -4.7460937 z m -5.671875,0.5273437 v 0.609375 h 1.804687 v 0.2929688 c 0,1.1484375 -0.832031,2.2265625 -2.027344,2.6484375 l 0.375,0.5976562 c 0.960938,-0.3515625 1.699219,-1.0898437 2.039063,-2.015625 0.351562,0.8320313 1.054687,1.5 1.957031,1.8398438 l 0.375,-0.5976563 c -1.171875,-0.421875 -1.96875,-1.4296875 -1.96875,-2.4726562 v -0.2929688 h 1.78125 v -0.609375 z m 14.16797,-0.5273437 V 0.70300781 H 58.852 V -7.4180859 Z m -4.347656,1.3710937 c 0.644531,0 1.042969,0.8203125 1.042969,2.1328125 0,1.3125 -0.398438,2.1328125 -1.042969,2.1328125 -0.632812,0 -1.03125,-0.8203125 -1.03125,-2.1328125 0,-1.3125 0.398438,-2.1328125 1.03125,-2.1328125 z m 0,-0.6914062 c -1.042969,0 -1.722656,1.0898437 -1.722656,2.8242187 0,1.734375 0.679687,2.8242188 1.722656,2.8242188 0.996094,0 1.664063,-0.9726563 1.722656,-2.5546875 h 1.019532 v 3.92578121 h 0.703125 V -7.2423047 h -0.703125 v 2.9882813 h -1.019532 c -0.08203,-1.5351563 -0.738281,-2.484375 -1.722656,-2.484375 z m 9.307617,4.1601562 v 3.16406251 h 2.777344 V -2.5782422 h -0.679687 v 0.9609375 h -1.394532 v -0.9609375 z m 0.703125,1.5351563 h 1.394532 v 1.0429687125 h -1.394532 z m 3.972657,-6.375 v 4.4179687 h 0.738281 v -1.921875 h 1.195312 v -0.6328125 h -1.195312 v -1.8632812 z m -5.179688,0.4921875 v 0.609375 h 2.90625 c -0.117187,1.3007812 -1.277344,2.3085937 -3.257812,2.7890625 l 0.269531,0.609375 c 2.378906,-0.5859375 3.808594,-1.96875 3.808594,-4.0078125 z m 4.734375,4.2539062 v 0.6796875 c 0,0.7734375 -0.457031,1.66406251 -1.40625,2.08593751 l 0.410156,0.57421875 c 0.667969,-0.3046875 1.113282,-0.8671875 1.359375,-1.48828125 0.246094,0.6328125 0.691407,1.18359375 1.347657,1.48828125 L 69.425242,0.09363281 C 68.499461,-0.31652344 68.030711,-1.2188672 68.030711,-2.0157422 v -0.65625 z m 6.793945,-4.59375 c -1.792968,0 -2.847656,0.4921875 -2.847656,1.3945313 0,0.9023437 1.054688,1.40625 2.847656,1.40625 1.792969,0 2.859375,-0.5039063 2.859375,-1.40625 0,-0.9023438 -1.066406,-1.3945313 -2.859375,-1.3945313 z m 0,0.5507813 c 1.335938,0 2.097657,0.3164062 2.097657,0.84375 0,0.5507812 -0.761719,0.84375 -2.097657,0.84375 -1.3125,0 -2.074218,-0.2929688 -2.074218,-0.84375 0,-0.5273438 0.761718,-0.84375 2.074218,-0.84375 z m -3.65625,2.8007812 v 0.5976563 h 7.324219 v -0.5976563 z m 0.914063,3.93750001 v 0.5859375 h 5.71875 v -0.5859375 h -5.003906 v -0.8203125 h 4.757812 V -2.6251172 h -5.496094 v 0.5625 h 4.769532 v 0.7148438 h -4.746094 z m 9.755859,-6.66796871 v 5.3554687 h 0.609375 c 1.546875,0 2.519532,-0.058594 3.703125,-0.28125 l -0.09375,-0.609375 c -1.089843,0.2109375 -2.039062,0.2578125 -3.480468,0.2578125 v -4.1015625 h 2.941406 v -0.6210937 z m 3.210938,2.1679687 v 0.6210938 h 2.320312 v 4.55859371 h 0.738282 V -7.4180859 h -0.738282 v 2.9414062 z m 7.040039,-0.9023437 c -1.160156,0 -1.945313,0.5976562 -1.945313,1.5117187 0,0.9140625 0.785157,1.5117188 1.945313,1.5117188 1.148437,0 1.933594,-0.5976563 1.933594,-1.5117188 0,-0.9140625 -0.785157,-1.5117187 -1.933594,-1.5117187 z m 0,0.5859375 c 0.738281,0 1.230469,0.3632812 1.230469,0.9257812 0,0.5625 -0.492188,0.9257813 -1.230469,0.9257813 -0.738281,0 -1.230469,-0.3632813 -1.230469,-0.9257813 0,-0.5625 0.492188,-0.9257812 1.230469,-0.9257812 z m 3.140625,-2.6132813 v 6.0820313 h 0.738281 v -2.8007813 h 1.195313 v -0.6210937 h -1.195313 v -2.6601563 z m -3.503906,0 v 0.984375 h -2.027344 v 0.609375 h 4.78125 v -0.609375 h -2.015625 v -0.984375 z m -0.796875,5.5898438 v 2.33203121 h 5.402343 v -0.609375 H 90.940867 V -1.8165234 Z m 12.480465,-5.6015625 v 8.12109371 h 0.75 V -3.5977734 h 1.32422 v -0.6210938 h -1.32422 v -3.1992187 z m -5.132809,0.796875 v 5.3085937 h 0.632812 c 1.523438,0 2.589847,-0.046875 3.843747,-0.2695312 l -0.0937,-0.6445313 c -1.18359,0.2226563 -2.21484,0.28125 -3.644528,0.28125 v -4.0664062 h 3.023438 v -0.609375 z m 8.695309,6.73828121 c 0.32813,0 0.59766,-0.24609375 0.59766,-0.62109375 0,-0.375 -0.26953,-0.62109376 -0.59766,-0.62109376 -0.32812,0 -0.58593,0.24609376 -0.58593,0.62109376 0,0.375 0.25781,0.62109375 0.58593,0.62109375 z m 0,0"
         style="fill:#000000;fill-opacity:1;fill-rule:nonzero;stroke:none" />
      <path
         id="path36"
         d="m 4.6293437,15.21375 c 0,-0.304688 -0.2460937,-0.304688 -0.375,-0.304688 H 3.8559062 v -4.511718 c 0,-0.304688 -0.070312,-0.375 -0.375,-0.375 H 2.8012187 c -0.1289062,0 -0.375,0 -0.375,0.28125 0,0.292968 0.234375,0.292968 0.375,0.292968 h 0.3867188 v 1.371094 c -0.1875,-0.175781 -0.5507813,-0.386719 -1.03125,-0.386719 -0.9960938,0 -1.8515625,0.867188 -1.8515625,1.992188 0,1.101562 0.8085937,1.96875 1.7695312,1.96875 0.4101563,0 0.796875,-0.152344 1.1132813,-0.480469 0,0.28125 0,0.433594 0.375,0.433594 h 0.6914062 c 0.1171875,0 0.375,0 0.375,-0.28125 z M 3.1879375,13.748906 c 0,0.480469 -0.3984375,1.207031 -1.0664063,1.207031 -0.6210937,0 -1.14843745,-0.609375 -1.14843745,-1.382812 0,-0.808594 0.57421875,-1.40625 1.23046875,-1.40625 0.5390625,0 0.984375,0.46875 0.984375,0.949219 z m 5.6455078,1.464844 c 0,-0.304688 -0.2578125,-0.304688 -0.3867187,-0.304688 h -0.9375 v -2.90625 c 0,-0.292968 -0.070312,-0.375 -0.375,-0.375 H 5.8334453 c -0.140625,0 -0.3867187,0 -0.3867187,0.292969 0,0.292969 0.234375,0.292969 0.3867187,0.292969 h 1.0078125 v 2.695312 H 5.7514141 c -0.1289063,0 -0.375,0 -0.375,0.292969 0,0.292969 0.234375,0.292969 0.375,0.292969 h 2.6953125 c 0.1289062,0 0.3867187,0 0.3867187,-0.28125 z m -1.3125,-4.699219 c 0,-0.257812 -0.1992187,-0.457031 -0.4570312,-0.457031 -0.2460938,0 -0.4570313,0.199219 -0.4570313,0.457031 0,0.246094 0.2109375,0.457031 0.4570313,0.457031 0.2578125,0 0.4570312,-0.210937 0.4570312,-0.457031 z m 5.8066407,0.01172 c 0,-0.5507813 -0.726563,-0.5507813 -0.867188,-0.5507813 -0.691406,0 -1.417968,0.3867183 -1.417968,1.2070313 v 0.445312 h -0.855469 c -0.140625,0 -0.3867188,0 -0.3867188,0.304688 0,0.28125 0.2460938,0.28125 0.3749998,0.28125 h 0.867188 v 2.695312 h -0.902344 c -0.128906,0 -0.3867188,0 -0.3867188,0.292969 0,0.292969 0.2460937,0.292969 0.3867188,0.292969 h 2.472656 c 0.128906,0 0.386719,0 0.386719,-0.28125 0,-0.304688 -0.246094,-0.304688 -0.386719,-0.304688 H 11.710398 V 12.21375 h 1.042969 c 0.128906,0 0.375,0 0.375,-0.28125 0,-0.304688 -0.234375,-0.304688 -0.375,-0.304688 h -1.042969 v -0.410156 c 0,-0.65625 0.550782,-0.667969 0.808594,-0.667969 0.03516,0.246094 0.222656,0.386719 0.410156,0.386719 0.164063,0 0.398438,-0.117187 0.398438,-0.410156 z m 4.708008,0 c 0,-0.5507813 -0.726563,-0.5507813 -0.867188,-0.5507813 -0.691406,0 -1.417969,0.3867183 -1.417969,1.2070313 v 0.445312 h -0.855468 c -0.140625,0 -0.386719,0 -0.386719,0.304688 0,0.28125 0.246094,0.28125 0.375,0.28125 h 0.867187 v 2.695312 h -0.902343 c -0.128907,0 -0.386719,0 -0.386719,0.292969 0,0.292969 0.246094,0.292969 0.386719,0.292969 h 2.472656 c 0.128906,0 0.386719,0 0.386719,-0.28125 0,-0.304688 -0.246094,-0.304688 -0.386719,-0.304688 H 16.418406 V 12.21375 h 1.042969 c 0.128906,0 0.375,0 0.375,-0.28125 0,-0.304688 -0.234375,-0.304688 -0.375,-0.304688 h -1.042969 v -0.410156 c 0,-0.65625 0.550781,-0.667969 0.808594,-0.667969 0.03516,0.246094 0.222656,0.386719 0.410156,0.386719 0.164063,0 0.398438,-0.117187 0.398438,-0.410156 z m 5.129883,5.414062 c 0,-0.28125 -0.246094,-0.28125 -0.375,-0.28125 H 21.44282 V 9.8582812 h 1.347657 c 0.140625,0 0.375,0 0.375,-0.2929687 0,-0.2929688 -0.246094,-0.2929688 -0.375,-0.2929688 H 21.16157 c -0.292968,0 -0.375,0.070312 -0.375,0.375 v 6.2109373 c 0,0.304688 0.07031,0.375 0.375,0.375 h 1.628907 c 0.140625,0 0.375,0 0.375,-0.292968 z M 27.768016,15.12 v -0.257813 c 0,-0.175781 0,-0.375 -0.328125,-0.375 -0.339844,0 -0.339844,0.1875 -0.339844,0.421875 h -2.015625 c 0.480469,-0.410156 1.488281,-1.207031 1.710937,-1.417968 0.328125,-0.316407 0.972657,-0.914063 0.972657,-1.804688 0,-1.066406 -0.890625,-1.769531 -2.003907,-1.769531 -1.042968,0 -1.757812,0.714844 -1.757812,1.476562 0,0.363282 0.28125,0.457032 0.421875,0.457032 0.175781,0 0.410156,-0.152344 0.410156,-0.421875 0,-0.1875 -0.07031,-0.257813 -0.117187,-0.304688 0.152343,-0.386719 0.550781,-0.621094 1.007812,-0.621094 0.714844,0 1.371094,0.410157 1.371094,1.183594 0,0.621094 -0.480469,1.160156 -0.832031,1.464844 l -2.132813,1.792969 c -0.07031,0.05859 -0.128906,0.117187 -0.128906,0.257812 0,0.292969 0.234375,0.292969 0.386719,0.292969 h 3 c 0.292968,0 0.375,-0.07031 0.375,-0.375 z m 3.219726,0.738281 V 9.6473437 c 0,-0.2929687 -0.07031,-0.375 -0.375,-0.375 h -1.628906 c -0.128906,0 -0.375,0 -0.375,0.2929688 0,0.2929687 0.234375,0.2929687 0.375,0.2929687 h 1.335937 v 5.8007808 h -1.335937 c -0.128906,0 -0.375,0 -0.375,0.28125 0,0.292969 0.234375,0.292969 0.375,0.292969 h 1.628906 c 0.292969,0 0.375,-0.07031 0.375,-0.375 z m 11.041992,-3.09375 c 0,-0.339844 -0.339843,-0.339844 -0.445312,-0.339844 h -1.242188 v -1.253906 c 0,-0.09375 0,-0.433594 -0.328125,-0.433594 -0.339843,0 -0.339843,0.328125 -0.339843,0.433594 v 1.253906 h -1.242188 c -0.105469,0 -0.445312,0 -0.445312,0.328125 0,0.339844 0.339843,0.339844 0.445312,0.339844 h 1.242188 v 1.242188 c 0,0.105468 0,0.445312 0.328125,0.445312 0.339843,0 0.339843,-0.339844 0.339843,-0.445312 v -1.242188 h 1.242188 c 0.09375,0 0.445312,0 0.445312,-0.328125 z m 4.708008,-0.679687 c 0,-0.351563 -0.351562,-0.351563 -0.480469,-0.351563 h -3.082031 c -0.128906,0 -0.480469,0 -0.480469,0.351563 0,0.328125 0.328125,0.328125 0.421875,0.328125 h 3.199219 c 0.09375,0 0.421875,0 0.421875,-0.328125 z m 0,1.347656 c 0,-0.328125 -0.328125,-0.328125 -0.421875,-0.328125 h -3.199219 c -0.09375,0 -0.421875,0 -0.421875,0.328125 0,0.339844 0.351563,0.339844 0.480469,0.339844 h 3.082031 c 0.128907,0 0.480469,0 0.480469,-0.339844 z m 9.342774,0.492187 c 0,-0.738281 -0.550782,-1.230468 -0.972657,-1.429687 0.65625,-0.457031 0.714844,-1.054688 0.714844,-1.289063 0,-0.691406 -0.679687,-1.289062 -1.699219,-1.289062 -1.101562,0 -1.6875,0.445312 -1.6875,1.054687 0,0.269532 0.199219,0.421875 0.421875,0.421875 0.222657,0 0.410157,-0.175781 0.410157,-0.410156 0,-0.08203 -0.02344,-0.175781 -0.07031,-0.234375 0.292969,-0.246094 0.878906,-0.246094 0.925781,-0.246094 0.632813,0 1.03125,0.328125 1.03125,0.703125 0,0.246094 -0.117187,0.609375 -0.457031,0.832032 -0.234375,0.152343 -0.398437,0.164062 -0.820312,0.199218 -0.351563,0.01172 -0.527344,0.03516 -0.527344,0.304688 0,0.292969 0.246094,0.292969 0.375,0.292969 h 0.375 c 0.925781,0 1.324219,0.621093 1.324219,1.078125 0,0.574218 -0.515625,1.101562 -1.289063,1.101562 -0.234375,0 -0.914062,-0.03516 -1.230469,-0.46875 l 0.02344,-0.02344 c 0.05859,-0.08203 0.05859,-0.105469 0.07031,-0.1875 0,0 0.01172,-0.03516 0.01172,-0.07031 0,-0.222656 -0.175781,-0.410156 -0.410156,-0.410156 -0.222656,0 -0.421875,0.128906 -0.421875,0.433594 0,0.796875 0.84375,1.300781 1.957031,1.300781 1.171875,0 1.945313,-0.808594 1.945313,-1.664063 z m 3.325195,-1.722656 c 0,-0.328125 -0.269531,-0.574219 -0.5625,-0.574219 -0.328125,0 -0.574219,0.28125 -0.574219,0.5625 0,0.339844 0.28125,0.574219 0.5625,0.574219 0.339844,0 0.574219,-0.269531 0.574219,-0.5625 z m 0.04687,3.046875 c 0,-0.550781 -0.234375,-0.890625 -0.621094,-0.890625 -0.316406,0 -0.5625,0.246094 -0.5625,0.5625 0,0.210938 0.128906,0.550781 0.574219,0.574219 -0.08203,0.304687 -0.292969,0.550781 -0.5625,0.691406 -0.05859,0.02344 -0.199219,0.09375 -0.199219,0.257813 0,0.140625 0.140625,0.292968 0.304688,0.292968 0.199218,0 1.066406,-0.480468 1.066406,-1.488281 z m 0,0"
         style="fill:#000000;fill-opacity:1;fill-rule:nonzero;stroke:none" />
      <path
         id="path37"
         d="m 0.44575,28.71375 v 0.621094 h 3.2695312 v 3.492187 h 0.75 V 29.334844 H 7.7699687 V 28.71375 H 6.586375 C 6.8090312,27.553594 6.8090312,26.709844 6.8090312,25.948125 V 25.233281 H 1.3598125 v 0.609375 h 4.7226562 v 0.105469 c 0,0.75 0,1.617187 -0.2578125,2.765625 z m 13.792969,-4.007813 v 5.929688 h 0.75 v -2.835938 h 1.195312 V 27.166875 H 14.988719 V 24.705937 Z M 9.0355937,25.33875 v 0.621094 h 2.9765623 c -0.152344,1.417968 -1.382812,2.554687 -3.3046873,3.152343 l 0.3164063,0.597657 c 2.332031,-0.738282 3.785156,-2.273438 3.785156,-4.371094 z m 0.9023438,4.699219 v 2.601562 H 15.340281 V 32.030156 H 10.676219 V 30.037969 Z M 19.56782,25.303594 c -1.253906,0 -2.179687,0.773437 -2.179687,1.910156 0,1.125 0.925781,1.910156 2.179687,1.910156 1.265625,0 2.179688,-0.785156 2.179688,-1.910156 0,-1.136719 -0.914063,-1.910156 -2.179688,-1.910156 z m 0,0.644531 c 0.84375,0 1.453125,0.515625 1.453125,1.265625 0,0.75 -0.609375,1.265625 -1.453125,1.265625 -0.832031,0 -1.441406,-0.515625 -1.441406,-1.265625 0,-0.75 0.609375,-1.265625 1.441406,-1.265625 z m 3.246094,-1.242188 v 8.121094 h 0.738281 V 24.705937 Z M 17.083445,31.0575 c 1.453125,0 3.433594,-0.01172 5.261719,-0.363281 l -0.07031,-0.539063 c -1.757813,0.269531 -3.808594,0.269531 -5.285157,0.269531 z m 15.600586,-6.351563 v 8.121094 h 0.75 V 28.52625 h 1.324219 v -0.621094 h -1.324219 v -3.199219 z m -5.132812,0.796875 v 5.308594 h 0.632812 c 1.523438,0 2.589844,-0.04687 3.84375,-0.269531 l -0.09375,-0.644531 C 30.750437,30.12 29.719187,30.178594 28.2895,30.178594 v -4.066407 h 3.023437 v -0.609375 z m 11.554687,-0.609375 c -1.746094,0 -2.847656,0.574219 -2.847656,1.535157 0,0.960937 1.101562,1.523437 2.847656,1.523437 1.757813,0 2.859375,-0.5625 2.859375,-1.523437 0,-0.960938 -1.101562,-1.535157 -2.859375,-1.535157 z m 0,0.585938 c 1.289063,0 2.097656,0.351562 2.097656,0.949219 0,0.585937 -0.808593,0.9375 -2.097656,0.9375 -1.277344,0 -2.085937,-0.351563 -2.085937,-0.9375 0,-0.597657 0.808593,-0.949219 2.085937,-0.949219 z M 36.352,30.049687 v 2.660157 h 5.53125 v -2.660157 z m 4.804687,0.597657 v 1.453125 h -4.078125 v -1.453125 z m -5.707031,-2.003907 v 0.609375 h 7.324219 V 28.643437 Z M 48.35493,25.092656 c -1.207032,0 -2.0625,0.679688 -2.0625,1.675781 0,0.984375 0.855468,1.664063 2.0625,1.664063 1.207031,0 2.074218,-0.679688 2.074218,-1.664063 0,-0.996093 -0.867187,-1.675781 -2.074218,-1.675781 z m 0,0.609375 c 0.796875,0 1.359375,0.433594 1.359375,1.066406 0,0.621094 -0.5625,1.042969 -1.359375,1.042969 -0.785157,0 -1.347657,-0.421875 -1.347657,-1.042969 0,-0.632812 0.5625,-1.066406 1.347657,-1.066406 z m 3.257812,-0.984375 v 8.109375 h 0.738281 V 24.717656 Z M 45.788523,29.745 c 0.667969,0 1.441407,-0.01172 2.238282,-0.04687 v 2.871094 h 0.75 V 29.65125 C 49.550242,29.59266 50.32368,29.510625 51.085398,29.37 l -0.04687,-0.550781 c -1.78125,0.269531 -3.84375,0.292968 -5.34375,0.292968 z m 14.0625,-5.039063 v 8.121094 h 0.738282 v -8.121094 z m -3.65625,0.152344 v 1.253906 h -1.863281 v 0.609375 h 1.875 v 0.609375 c 0,1.417969 -0.890625,2.789063 -2.097656,3.351563 l 0.410156,0.574219 c 0.949219,-0.445313 1.710938,-1.371094 2.0625,-2.507813 0.386719,1.066406 1.148438,1.945313 2.074219,2.367188 l 0.410156,-0.574219 c -1.207031,-0.539063 -2.121094,-1.851563 -2.121094,-3.210938 v -0.609375 h 1.851563 v -0.609375 h -1.851563 v -1.253906 z m 12.1875,-0.152344 v 8.121094 h 0.726563 v -8.121094 z m -4.347656,1.371094 c 0.644531,0 1.042969,0.820313 1.042969,2.132813 0,1.3125 -0.398438,2.132812 -1.042969,2.132812 -0.632812,0 -1.03125,-0.820312 -1.03125,-2.132812 0,-1.3125 0.398438,-2.132813 1.03125,-2.132813 z m 0,-0.691406 c -1.042969,0 -1.722656,1.089844 -1.722656,2.824219 0,1.734375 0.679687,2.824218 1.722656,2.824218 0.996094,0 1.664063,-0.972656 1.722656,-2.554687 h 1.019532 v 3.925781 H 67.47993 V 24.881719 H 66.776805 V 27.87 h -1.019532 c -0.08203,-1.535156 -0.738281,-2.484375 -1.722656,-2.484375 z m 12.360352,-0.679688 v 2.753907 H 74.50825 v 0.609375 h 1.886719 v 4.757812 h 0.726562 V 24.705937 Z M 72.5395,25.409062 v 1.453125 c 0,1.5 -0.902344,3.058594 -2.097656,3.644532 l 0.46875,0.609375 c 0.914062,-0.503907 1.675781,-1.523438 2.015625,-2.71875 0.363281,1.136718 1.101562,2.097656 2.015625,2.566406 l 0.445312,-0.597656 c -1.171875,-0.550782 -2.085937,-2.039063 -2.085937,-3.503907 v -1.453125 z m 9.052734,4.136719 v 3.164063 h 2.777344 v -3.164063 h -0.679687 v 0.960938 h -1.394532 v -0.960938 z m 0.703125,1.535156 h 1.394532 v 1.042969 h -1.394532 z m 3.972657,-6.375 v 4.417969 h 0.738281 v -1.921875 h 1.195312 v -0.632812 h -1.195312 v -1.863282 z m -5.179688,0.492188 V 25.8075 h 2.90625 c -0.117187,1.300781 -1.277344,2.308594 -3.257812,2.789062 l 0.269531,0.609375 c 2.378906,-0.585937 3.808594,-1.96875 3.808594,-4.007812 z m 4.734375,4.253906 v 0.679688 c 0,0.773437 -0.457031,1.664062 -1.40625,2.085937 l 0.410156,0.574219 c 0.667969,-0.304688 1.113282,-0.867188 1.359375,-1.488281 0.246094,0.632812 0.691407,1.183593 1.347657,1.488281 l 0.398437,-0.574219 c -0.925781,-0.410156 -1.394531,-1.3125 -1.394531,-2.109375 v -0.65625 z m 6.793945,-4.59375 c -1.792968,0 -2.847656,0.492188 -2.847656,1.394531 0,0.902344 1.054688,1.40625 2.847656,1.40625 1.792969,0 2.859375,-0.503906 2.859375,-1.40625 0,-0.902343 -1.066406,-1.394531 -2.859375,-1.394531 z m 0,0.550781 c 1.335938,0 2.097657,0.316407 2.097657,0.84375 0,0.550782 -0.761719,0.84375 -2.097657,0.84375 -1.3125,0 -2.074218,-0.292968 -2.074218,-0.84375 0,-0.527343 0.761718,-0.84375 2.074218,-0.84375 z m -3.65625,2.800782 V 28.8075 h 7.324219 v -0.597656 z m 0.914063,3.9375 v 0.585937 h 5.71875 v -0.585937 h -5.003906 v -0.820313 h 4.757812 v -1.828125 h -5.496094 v 0.5625 h 4.769532 v 0.714844 h -4.746094 z m 9.498047,-6.726563 v 3.902344 h 1.910152 v -3.902344 h -0.57421 v 1.347656 h -0.750005 v -1.347656 z m 0.585937,1.945313 h 0.750005 v 1.347656 h -0.750005 z m 1.769535,-1.945313 v 3.902344 h 1.89843 v -3.902344 h -0.57421 v 1.347656 h -0.75 v -1.347656 z m 0.57422,1.945313 h 0.75 v 1.347656 h -0.75 z M 104.20063,24.87 v 5.648437 h 0.64453 v -2.777343 h 0.77344 v 3.023437 h 0.65625 V 24.717656 H 105.6186 V 27.12 h -0.77344 v -2.25 z m -3.53906,5.214844 v 2.554687 h 5.84766 v -0.609375 h -5.10938 v -1.945312 z m 12.29004,-5.378907 v 8.121094 h 0.75 V 28.52625 h 1.32422 v -0.621094 h -1.32422 v -3.199219 z m -5.13281,0.796875 v 5.308594 h 0.63281 c 1.52344,0 2.58984,-0.04687 3.84375,-0.269531 l -0.0937,-0.644531 c -1.18359,0.222656 -2.21484,0.28125 -3.64453,0.28125 v -4.066407 h 3.02344 v -0.609375 z m 8.69531,6.738282 c 0.32812,0 0.59766,-0.246094 0.59766,-0.621094 0,-0.375 -0.26954,-0.621094 -0.59766,-0.621094 -0.32813,0 -0.58594,0.246094 -0.58594,0.621094 0,0.375 0.25781,0.621094 0.58594,0.621094 z m 0,0"
         style="fill:#000000;fill-opacity:1;fill-rule:nonzero;stroke:none" />
      <path
         id="path38"
         d="m 4.6293437,47.334844 c 0,-0.304688 -0.2460937,-0.304688 -0.375,-0.304688 H 3.8559062 v -4.511719 c 0,-0.304687 -0.070312,-0.375 -0.375,-0.375 H 2.8012187 c -0.1289062,0 -0.375,0 -0.375,0.28125 0,0.292969 0.234375,0.292969 0.375,0.292969 h 0.3867188 v 1.371094 c -0.1875,-0.175781 -0.5507813,-0.386719 -1.03125,-0.386719 -0.9960938,0 -1.8515625,0.867188 -1.8515625,1.992188 0,1.101562 0.8085937,1.96875 1.7695312,1.96875 0.4101563,0 0.796875,-0.152344 1.1132813,-0.480469 0,0.28125 0,0.433594 0.375,0.433594 h 0.6914062 c 0.1171875,0 0.375,0 0.375,-0.28125 z M 3.1879375,45.87 c 0,0.480469 -0.3984375,1.207031 -1.0664063,1.207031 -0.6210937,0 -1.14843745,-0.609375 -1.14843745,-1.382812 0,-0.808594 0.57421875,-1.40625 1.23046875,-1.40625 0.5390625,0 0.984375,0.46875 0.984375,0.949218 z m 5.6455078,1.464844 c 0,-0.304688 -0.2578125,-0.304688 -0.3867187,-0.304688 h -0.9375 v -2.90625 c 0,-0.292969 -0.070312,-0.375 -0.375,-0.375 H 5.8334453 c -0.140625,0 -0.3867187,0 -0.3867187,0.292969 0,0.292969 0.234375,0.292969 0.3867187,0.292969 h 1.0078125 v 2.695312 H 5.7514141 c -0.1289063,0 -0.375,0 -0.375,0.292969 0,0.292969 0.234375,0.292969 0.375,0.292969 h 2.6953125 c 0.1289062,0 0.3867187,0 0.3867187,-0.28125 z m -1.3125,-4.699219 c 0,-0.257813 -0.1992187,-0.457031 -0.4570312,-0.457031 -0.2460938,0 -0.4570313,0.199218 -0.4570313,0.457031 0,0.246094 0.2109375,0.457031 0.4570313,0.457031 0.2578125,0 0.4570312,-0.210937 0.4570312,-0.457031 z m 5.8066407,0.01172 c 0,-0.550782 -0.726563,-0.550782 -0.867188,-0.550782 -0.691406,0 -1.417968,0.386719 -1.417968,1.207032 v 0.445312 h -0.855469 c -0.140625,0 -0.3867188,0 -0.3867188,0.304688 0,0.28125 0.2460938,0.28125 0.3749998,0.28125 h 0.867188 v 2.695312 h -0.902344 c -0.128906,0 -0.3867188,0 -0.3867188,0.292969 0,0.292969 0.2460937,0.292969 0.3867188,0.292969 h 2.472656 c 0.128906,0 0.386719,0 0.386719,-0.28125 0,-0.304688 -0.246094,-0.304688 -0.386719,-0.304688 h -0.902344 v -2.695312 h 1.042969 c 0.128906,0 0.375,0 0.375,-0.28125 0,-0.304688 -0.234375,-0.304688 -0.375,-0.304688 H 11.710398 V 43.33875 c 0,-0.65625 0.550782,-0.667969 0.808594,-0.667969 0.03516,0.246094 0.222656,0.386719 0.410156,0.386719 0.164063,0 0.398438,-0.117188 0.398438,-0.410155 z m 4.708008,0 c 0,-0.550782 -0.726563,-0.550782 -0.867188,-0.550782 -0.691406,0 -1.417969,0.386719 -1.417969,1.207032 v 0.445312 h -0.855468 c -0.140625,0 -0.386719,0 -0.386719,0.304688 0,0.28125 0.246094,0.28125 0.375,0.28125 h 0.867187 v 2.695312 h -0.902343 c -0.128907,0 -0.386719,0 -0.386719,0.292969 0,0.292969 0.246094,0.292969 0.386719,0.292969 h 2.472656 c 0.128906,0 0.386719,0 0.386719,-0.28125 0,-0.304688 -0.246094,-0.304688 -0.386719,-0.304688 h -0.902344 v -2.695312 h 1.042969 c 0.128906,0 0.375,0 0.375,-0.28125 0,-0.304688 -0.234375,-0.304688 -0.375,-0.304688 H 16.418406 V 43.33875 c 0,-0.65625 0.550781,-0.667969 0.808594,-0.667969 0.03516,0.246094 0.222656,0.386719 0.410156,0.386719 0.164063,0 0.398438,-0.117188 0.398438,-0.410155 z m 5.129883,5.414062 c 0,-0.28125 -0.246094,-0.28125 -0.375,-0.28125 H 21.44282 v -5.800781 h 1.347657 c 0.140625,0 0.375,0 0.375,-0.292969 0,-0.292969 -0.246094,-0.292969 -0.375,-0.292969 H 21.16157 c -0.292968,0 -0.375,0.07031 -0.375,0.375 v 6.210938 c 0,0.304687 0.07031,0.375 0.375,0.375 h 1.628907 c 0.140625,0 0.375,0 0.375,-0.292969 z m 4.625976,-2.179687 c 0,-1.007813 -0.796875,-1.816407 -1.804687,-1.816407 -0.492188,0 -0.949219,0.175782 -1.324219,0.492188 0.140625,-1.195313 0.9375,-1.933594 1.746094,-1.933594 0.08203,0 0.304687,0 0.445312,0.140625 -0.05859,0.05859 -0.08203,0.164063 -0.08203,0.246094 0,0.199219 0.152344,0.410156 0.410156,0.410156 0.246094,0 0.421875,-0.175781 0.421875,-0.445312 0,-0.410157 -0.28125,-0.9375 -1.195312,-0.9375 -1.207032,0 -2.425782,1.101562 -2.425782,2.894531 0,2.109375 0.996094,2.777344 1.933594,2.777344 0.972656,0 1.875,-0.738282 1.874999,-1.828125 z m -0.667969,0 c 0,0.738281 -0.574218,1.253906 -1.21875,1.253906 -0.855468,0 -1.160156,-0.960938 -1.160156,-1.511719 0,-0.503906 0.503906,-0.960937 1.195313,-0.960937 0.714843,0 1.183593,0.574218 1.183593,1.21875 z m 3.864258,2.097656 v -6.210938 c 0,-0.292968 -0.07031,-0.375 -0.375,-0.375 h -1.628906 c -0.128906,0 -0.375,0 -0.375,0.292969 0,0.292969 0.234375,0.292969 0.375,0.292969 h 1.335937 v 5.800781 h -1.335937 c -0.128906,0 -0.375,0 -0.375,0.28125 0,0.292969 0.234375,0.292969 0.375,0.292969 h 1.628906 c 0.292969,0 0.375,-0.07031 0.375,-0.375 z m 10.866211,-3.09375 c 0,-0.339844 -0.328125,-0.339844 -0.433594,-0.339844 h -2.824218 c -0.09375,0 -0.433594,0 -0.433594,0.328125 0,0.339844 0.328125,0.339844 0.433594,0.339844 h 2.824218 c 0.09375,0 0.433594,0 0.433594,-0.328125 z m 4.883789,-0.679688 c 0,-0.351562 -0.351562,-0.351562 -0.480469,-0.351562 h -3.082031 c -0.128906,0 -0.480469,0 -0.480469,0.351562 0,0.328125 0.328125,0.328125 0.421875,0.328125 h 3.199219 c 0.09375,0 0.421875,0 0.421875,-0.328125 z m 0,1.347657 c 0,-0.328125 -0.328125,-0.328125 -0.421875,-0.328125 h -3.199219 c -0.09375,0 -0.421875,0 -0.421875,0.328125 0,0.339843 0.351563,0.339843 0.480469,0.339843 h 3.082031 c 0.128907,0 0.480469,0 0.480469,-0.339843 z m 9.342774,0.492187 c 0,-0.738281 -0.550782,-1.230469 -0.972657,-1.429687 0.65625,-0.457032 0.714844,-1.054688 0.714844,-1.289063 0,-0.691406 -0.679687,-1.289062 -1.699219,-1.289062 -1.101562,0 -1.6875,0.445312 -1.6875,1.054687 0,0.269531 0.199219,0.421875 0.421875,0.421875 0.222657,0 0.410157,-0.175781 0.410157,-0.410156 0,-0.08203 -0.02344,-0.175781 -0.07031,-0.234375 0.292969,-0.246094 0.878906,-0.246094 0.925781,-0.246094 0.632813,0 1.03125,0.328125 1.03125,0.703125 0,0.246094 -0.117187,0.609375 -0.457031,0.832031 -0.234375,0.152344 -0.398437,0.164063 -0.820312,0.199219 -0.351563,0.01172 -0.527344,0.03516 -0.527344,0.304688 0,0.292968 0.246094,0.292968 0.375,0.292968 h 0.375 c 0.925781,0 1.324219,0.621094 1.324219,1.078125 0,0.574219 -0.515625,1.101563 -1.289063,1.101563 -0.234375,0 -0.914062,-0.03516 -1.230469,-0.46875 l 0.02344,-0.02344 c 0.05859,-0.08203 0.05859,-0.105468 0.07031,-0.1875 0,0 0.01172,-0.03516 0.01172,-0.07031 0,-0.222656 -0.175781,-0.410156 -0.410156,-0.410156 -0.222656,0 -0.421875,0.128906 -0.421875,0.433593 0,0.796875 0.84375,1.300782 1.957031,1.300782 1.171875,0 1.945313,-0.808594 1.945313,-1.664063 z m 3.325195,-1.722656 c 0,-0.328125 -0.269531,-0.574219 -0.5625,-0.574219 -0.328125,0 -0.574219,0.28125 -0.574219,0.5625 0,0.339844 0.28125,0.574219 0.5625,0.574219 0.339844,0 0.574219,-0.269531 0.574219,-0.5625 z M 59.452586,47.37 c 0,-0.550781 -0.234375,-0.890625 -0.621094,-0.890625 -0.316406,0 -0.5625,0.246094 -0.5625,0.5625 0,0.210937 0.128906,0.550781 0.574219,0.574219 -0.08203,0.304687 -0.292969,0.550781 -0.5625,0.691406 -0.05859,0.02344 -0.199219,0.09375 -0.199219,0.257812 0,0.140625 0.140625,0.292969 0.304688,0.292969 0.199218,0 1.066406,-0.480469 1.066406,-1.488281 z m 0,0"
         style="fill:#000000;fill-opacity:1;fill-rule:nonzero;stroke:none" />
    </g>
  </g>
</svg>
