<svg xmlns="http://www.w3.org/2000/svg" width="430" height="180" viewBox="0 0 430 180">
<rect width="100%" height="100%" fill="white"/>

<style>
text{font-family:"JetBrains Mono","Consolas","Noto Sans Mono CJK KR",monospace;fill:#202020}
.label{font-size:12px}
.small{font-size:10px;fill:#666}
.cellText{font-size:12px}
.cell{fill:white;stroke:#999;stroke-width:1}
.cellHi{fill:#e0e0e0;stroke:#202020;stroke-width:1.4}
.cellLight{fill:#f7f7f7;stroke:#cfcfcf;stroke-width:1}
.grid{fill:white;stroke:#999;stroke-width:1}
.fill{fill:#e0e0e0;stroke:#999;stroke-width:1}
.fillHi{fill:#d9d9d9;stroke:#202020;stroke-width:1.3}
.point{fill:#e0e0e0;stroke:#202020;stroke-width:1.3}
.dash{fill:none;stroke:#777;stroke-width:1;stroke-dasharray:4 3}
.arrow{stroke:#777;stroke-width:1.1;marker-end:url(#arrow)}
.brace{fill:none;stroke:#777;stroke-width:1}
</style>
<defs>
<marker id="arrow" markerWidth="8" markerHeight="8" refX="7" refY="3" orient="auto">
<path d="M0,0 L0,6 L8,3 z" fill="#777"/>
</marker>
</defs>

<text x="45" y="67" text-anchor="end" class="label">diff</text>
<text x="87.5" y="42" text-anchor="middle" class="small">0</text>
<rect x="70" y="50" width="35" height="25" class="cell"/>
<text x="87.5" y="67" text-anchor="middle" class="cellText">0</text>
<text x="122.5" y="42" text-anchor="middle" class="small">1</text>
<rect x="105" y="50" width="35" height="25" class="cell"/>
<text x="122.5" y="67" text-anchor="middle" class="cellText">0</text>
<text x="157.5" y="42" text-anchor="middle" class="small">2</text>
<rect x="140" y="50" width="35" height="25" class="cellHi"/>
<text x="157.5" y="67" text-anchor="middle" class="cellText">+3</text>
<text x="192.5" y="42" text-anchor="middle" class="small">3</text>
<rect x="175" y="50" width="35" height="25" class="cellHi"/>
<text x="192.5" y="67" text-anchor="middle" class="cellText">0</text>
<text x="227.5" y="42" text-anchor="middle" class="small">4</text>
<rect x="210" y="50" width="35" height="25" class="cellHi"/>
<text x="227.5" y="67" text-anchor="middle" class="cellText">0</text>
<text x="262.5" y="42" text-anchor="middle" class="small">5</text>
<rect x="245" y="50" width="35" height="25" class="cellHi"/>
<text x="262.5" y="67" text-anchor="middle" class="cellText">0</text>
<text x="297.5" y="42" text-anchor="middle" class="small">6</text>
<rect x="280" y="50" width="35" height="25" class="cell"/>
<text x="297.5" y="67" text-anchor="middle" class="cellText">-3</text>
<text x="332.5" y="42" text-anchor="middle" class="small">7</text>
<rect x="315" y="50" width="35" height="25" class="cell"/>
<text x="332.5" y="67" text-anchor="middle" class="cellText">0</text>
<text x="367.5" y="42" text-anchor="middle" class="small">8</text>
<rect x="350" y="50" width="35" height="25" class="cell"/>
<text x="367.5" y="67" text-anchor="middle" class="cellText">0</text>
<text x="45" y="129" text-anchor="end" class="label">arr</text>
<rect x="70" y="112" width="35" height="25" class="cell"/>
<text x="87.5" y="129" text-anchor="middle" class="cellText">0</text>
<rect x="105" y="112" width="35" height="25" class="cell"/>
<text x="122.5" y="129" text-anchor="middle" class="cellText">0</text>
<rect x="140" y="112" width="35" height="25" class="cellHi"/>
<text x="157.5" y="129" text-anchor="middle" class="cellText">3</text>
<rect x="175" y="112" width="35" height="25" class="cellHi"/>
<text x="192.5" y="129" text-anchor="middle" class="cellText">3</text>
<rect x="210" y="112" width="35" height="25" class="cellHi"/>
<text x="227.5" y="129" text-anchor="middle" class="cellText">3</text>
<rect x="245" y="112" width="35" height="25" class="cellHi"/>
<text x="262.5" y="129" text-anchor="middle" class="cellText">3</text>
<rect x="280" y="112" width="35" height="25" class="cell"/>
<text x="297.5" y="129" text-anchor="middle" class="cellText">0</text>
<rect x="315" y="112" width="35" height="25" class="cell"/>
<text x="332.5" y="129" text-anchor="middle" class="cellText">0</text>
<rect x="350" y="112" width="35" height="25" class="cell"/>
<text x="367.5" y="129" text-anchor="middle" class="cellText">0</text>
<line x1="227.5" y1="83" x2="227.5" y2="104" class="arrow"/>
</svg>