<?xml version="1.0" encoding="UTF-8" standalone="no"?>
<!-- Created with Inkscape (http://www.inkscape.org/) -->

<svg
   version="1.1"
   id="svg1"
   width="669.79999"
   height="145.78667"
   viewBox="0 0 669.79999 145.78667"
   sodipodi:docname="2.pdf"
   xmlns:inkscape="http://www.inkscape.org/namespaces/inkscape"
   xmlns:sodipodi="http://sodipodi.sourceforge.net/DTD/sodipodi-0.dtd"
   xmlns="http://www.w3.org/2000/svg"
   xmlns:svg="http://www.w3.org/2000/svg">
  <defs
     id="defs1" />
  <sodipodi:namedview
     id="namedview1"
     pagecolor="#ffffff"
     bordercolor="#000000"
     borderopacity="0.25"
     inkscape:showpageshadow="2"
     inkscape:pageopacity="0.0"
     inkscape:pagecheckerboard="0"
     inkscape:deskcolor="#d1d1d1">
    <inkscape:page
       x="0"
       y="0"
       inkscape:label="1"
       id="page1"
       width="669.79999"
       height="145.78667"
       margin="0"
       bleed="0" />
  </sodipodi:namedview>
  <g
     id="g1"
     inkscape:groupmode="layer"
     inkscape:label="1">
    <path
       id="path1"
       d="M -14.17339,18.4255 H 14.1734 v 22.67743 h -28.34679 z"
       style="fill:#ffffff;fill-opacity:1;fill-rule:nonzero;stroke:#666666;stroke-width:0.49814;stroke-linecap:butt;stroke-linejoin:miter;stroke-miterlimit:10;stroke-dasharray:none;stroke-opacity:1"
       transform="matrix(1.3333333,0,0,-1.3333333,72.065333,81.98)" />
    <path
       id="path2"
       d="m 2.4946641,0.11620312 c 1.265625,0 2.0390625,-1.19531252 2.0390625,-3.33984372 0,-2.1328125 -0.7734375,-3.28125 -2.0390625,-3.28125 -1.2890625,0 -2.05078129,1.1484375 -2.05078129,3.28125 0,2.1445312 0.76171879,3.33984372 2.05078129,3.33984372 z m 0,-0.66796875 c -0.75,0 -1.2539063,-0.79687497 -1.2539063,-2.67187497 0,-1.875 0.5039063,-2.6367188 1.2539063,-2.6367188 0.7382812,0 1.2539062,0.7617188 1.2539062,2.6367188 0,1.875 -0.515625,2.67187497 -1.2539062,2.67187497 z m 0,0"
       style="fill:#000000;fill-opacity:1;fill-rule:nonzero;stroke:none"
       aria-label="0"
       transform="matrix(1.3333333,0,0,1.3333333,68.748,46.556)" />
    <path
       id="path3"
       d="m 1.932875,0.09240625 c 0.9960938,0 1.59375,-0.92578125 1.59375,-2.60156255 0,-1.6523437 -0.5976562,-2.5546875 -1.59375,-2.5546875 -0.99609375,0 -1.58203125,0.890625 -1.58203125,2.5546875 0,1.6757813 0.5859375,2.60156255 1.58203125,2.60156255 z m 0,-0.515625 c -0.5742187,0 -0.97265625,-0.62109375 -0.97265625,-2.08593755 0,-1.453125 0.39843755,-2.0507812 0.97265625,-2.0507812 0.5859375,0 0.984375,0.5976562 0.984375,2.0507812 0,1.4648438 -0.3984375,2.08593755 -0.984375,2.08593755 z m 0,0"
       style="fill:#666666;fill-opacity:1;fill-rule:nonzero;stroke:none"
       aria-label="0"
       transform="matrix(1.3333333,0,0,1.3333333,69.485333,21.798667)" />
    <path
       id="path4"
       d="M 16.4412,18.4255 H 44.78799 V 41.10293 H 16.4412 Z"
       style="fill:#ffffff;fill-opacity:1;fill-rule:nonzero;stroke:#666666;stroke-width:0.49814;stroke-linecap:butt;stroke-linejoin:miter;stroke-miterlimit:10;stroke-dasharray:none;stroke-opacity:1"
       transform="matrix(1.3333333,0,0,-1.3333333,72.065333,81.98)" />
    <path
       id="path5"
       d="m 2.4958984,0.11620312 c 1.265625,0 2.0390625,-1.19531252 2.0390625,-3.33984372 0,-2.1328125 -0.7734375,-3.28125 -2.0390625,-3.28125 -1.2890625,0 -2.05078121,1.1484375 -2.05078121,3.28125 0,2.1445312 0.76171871,3.33984372 2.05078121,3.33984372 z m 0,-0.66796875 c -0.75,0 -1.2539062,-0.79687497 -1.2539062,-2.67187497 0,-1.875 0.5039062,-2.6367188 1.2539062,-2.6367188 0.7382813,0 1.2539063,0.7617188 1.2539063,2.6367188 0,1.875 -0.515625,2.67187497 -1.2539063,2.67187497 z m 0,0"
       style="fill:#000000;fill-opacity:1;fill-rule:nonzero;stroke:none"
       aria-label="0"
       transform="matrix(1.3333333,0,0,1.3333333,109.56667,46.556)" />
    <path
       id="path6"
       d="M 0.60989062,-0.00134375 H 3.4223906 V -0.5286875 h -1.03125 V -4.9700938 H 1.8989531 c -0.2695312,0.1640625 -0.5976562,0.28125 -1.05468748,0.3632813 v 0.4101562 H 1.7583281 v 3.6679688 H 0.60989062 Z m 0,0"
       style="fill:#666666;fill-opacity:1;fill-rule:nonzero;stroke:none"
       aria-label="1"
       transform="matrix(1.3333333,0,0,1.3333333,110.304,21.798667)" />
    <path
       id="path7"
       d="M 47.0558,18.4255 H 75.40259 V 41.10293 H 47.0558 Z"
       style="fill:#ffffff;fill-opacity:1;fill-rule:nonzero;stroke:#666666;stroke-width:0.49814;stroke-linecap:butt;stroke-linejoin:miter;stroke-miterlimit:10;stroke-dasharray:none;stroke-opacity:1"
       transform="matrix(1.3333333,0,0,-1.3333333,72.065333,81.98)" />
    <path
       id="path8"
       d="m 2.1569844,-1.0439531 h 0.65625 v -1.9570313 h 1.828125 v -0.609375 h -1.828125 v -1.96875 h -0.65625 v 1.96875 H 0.34057813 v 0.609375 H 2.1569844 Z m 5.1738281,1.16015622 c 1.171875,0 2.1210938,-0.6796875 2.1210938,-1.81640622 0,-0.8789063 -0.6210938,-1.453125 -1.3945313,-1.640625 v -0.035156 c 0.6914063,-0.2460937 1.171875,-0.7382812 1.171875,-1.5234375 0,-1.0195312 -0.8085937,-1.6054687 -1.921875,-1.6054687 -0.75,0 -1.3359375,0.3398437 -1.828125,0.796875 l 0.4335938,0.515625 c 0.375,-0.3867188 0.8320312,-0.65625 1.3710937,-0.65625 0.6914063,0 1.1015625,0.3984375 1.1015625,1.0195312 0,0.6679688 -0.4570312,1.1835938 -1.8164062,1.1835938 v 0.6445312 c 1.5234375,0 2.0507812,0.5039063 2.0507812,1.265625 0,0.7265625 -0.5507812,1.17187502 -1.3359375,1.17187502 -0.75,0 -1.2421875,-0.36328125 -1.6289062,-0.75000002 l -0.421875,0.52734377 c 0.4335937,0.46875 1.078125,0.90234375 2.0976562,0.90234345 z m 0,0"
       style="fill:#000000;fill-opacity:1;fill-rule:nonzero;stroke:none"
       aria-label="+3"
       transform="matrix(1.3333333,0,0,1.3333333,147.06933,46.556)" />
    <path
       id="path9"
       d="M 0.3054375,5.3125e-4 H 3.516375 V -0.55025 H 2.0749687 c -0.2578125,0 -0.5625,0.0234375 -0.8320312,0.046875 C 2.4148125,-1.7338438 3.282,-2.6713438 3.282,-3.6088438 c 0,-0.8789062 -0.5859375,-1.453125 -1.5,-1.453125 -0.6445313,0 -1.08984375,0.2929688 -1.5,0.75 l 0.36328125,0.3632813 C 0.93825,-4.2768125 1.2898125,-4.5463438 1.7116875,-4.5463438 c 0.6328125,0 0.9375,0.4101563 0.9375,0.9726563 0,0.8085937 -0.84375,1.7109375 -2.34375,3.19921875 z m 0,0"
       style="fill:#666666;fill-opacity:1;fill-rule:nonzero;stroke:none"
       aria-label="2"
       transform="matrix(1.3333333,0,0,1.3333333,151.124,21.858667)" />
    <path
       id="path10"
       d="M 77.67041,18.4255 H 106.0172 V 41.10293 H 77.67041 Z"
       style="fill:#ffffff;fill-opacity:1;fill-rule:nonzero;stroke:#666666;stroke-width:0.49814;stroke-linecap:butt;stroke-linejoin:miter;stroke-miterlimit:10;stroke-dasharray:none;stroke-opacity:1"
       transform="matrix(1.3333333,0,0,-1.3333333,72.065333,81.98)" />
    <path
       id="path11"
       d="m 2.4963672,0.11620312 c 1.265625,0 2.0390625,-1.19531252 2.0390625,-3.33984372 0,-2.1328125 -0.7734375,-3.28125 -2.0390625,-3.28125 -1.2890625,0 -2.05078126,1.1484375 -2.05078126,3.28125 0,2.1445312 0.76171876,3.33984372 2.05078126,3.33984372 z m 0,-0.66796875 c -0.75,0 -1.2539063,-0.79687497 -1.2539063,-2.67187497 0,-1.875 0.5039063,-2.6367188 1.2539063,-2.6367188 0.7382812,0 1.2539062,0.7617188 1.2539062,2.6367188 0,1.875 -0.515625,2.67187497 -1.2539062,2.67187497 z m 0,0"
       style="fill:#000000;fill-opacity:1;fill-rule:nonzero;stroke:none"
       aria-label="0"
       transform="matrix(1.3333333,0,0,1.3333333,191.20667,46.556)" />
    <path
       id="path12"
       d="m 1.8291094,0.09240625 c 0.9140625,0 1.6523437,-0.52734375 1.6523437,-1.41796875 0,-0.6796875 -0.4804687,-1.125 -1.078125,-1.265625 v -0.035156 c 0.5273438,-0.1875 0.9023438,-0.5742187 0.9023438,-1.1835937 0,-0.796875 -0.6328125,-1.2539063 -1.4882813,-1.2539063 -0.5859375,0 -1.04296873,0.2695313 -1.42968748,0.6210938 l 0.33984375,0.3984375 C 1.0205156,-4.3372813 1.3837969,-4.5482188 1.7939531,-4.5482188 c 0.5390625,0 0.8671875,0.3046875 0.8671875,0.7851563 0,0.5273437 -0.3632812,0.9257812 -1.4179687,0.9257812 v 0.5039063 c 1.1835937,0 1.59375,0.3867187 1.59375,0.984375 0,0.5625 -0.4335938,0.9140625 -1.0429688,0.9140625 -0.5742187,0 -0.96093748,-0.28125 -1.26562498,-0.5859375 l -0.328125,0.41015625 c 0.33984375,0.36328125 0.84374998,0.703125 1.62890628,0.703125 z m 0,0"
       style="fill:#666666;fill-opacity:1;fill-rule:nonzero;stroke:none"
       aria-label="3"
       transform="matrix(1.3333333,0,0,1.3333333,191.944,21.798667)" />
    <path
       id="path13"
       d="m 108.285,18.4255 h 28.34679 V 41.10293 H 108.285 Z"
       style="fill:#ffffff;fill-opacity:1;fill-rule:nonzero;stroke:#666666;stroke-width:0.49814;stroke-linecap:butt;stroke-linejoin:miter;stroke-miterlimit:10;stroke-dasharray:none;stroke-opacity:1"
       transform="matrix(1.3333333,0,0,-1.3333333,72.065333,81.98)" />
    <path
       id="path14"
       d="m 2.4946719,0.11620312 c 1.265625,0 2.0390625,-1.19531252 2.0390625,-3.33984372 0,-2.1328125 -0.7734375,-3.28125 -2.0390625,-3.28125 -1.2890625,0 -2.05078128,1.1484375 -2.05078128,3.28125 0,2.1445312 0.76171878,3.33984372 2.05078128,3.33984372 z m 0,-0.66796875 c -0.75,0 -1.2539063,-0.79687497 -1.2539063,-2.67187497 0,-1.875 0.5039063,-2.6367188 1.2539063,-2.6367188 0.7382812,0 1.2539062,0.7617188 1.2539062,2.6367188 0,1.875 -0.515625,2.67187497 -1.2539062,2.67187497 z m 0,0"
       style="fill:#000000;fill-opacity:1;fill-rule:nonzero;stroke:none"
       aria-label="0"
       transform="matrix(1.3333333,0,0,1.3333333,232.02533,46.556)" />
    <path
       id="path15"
       d="M 2.3664766,-0.00134375 H 2.9641328 V -1.3724375 h 0.6914063 v -0.515625 H 2.9641328 v -3.0820313 h -0.703125 l -2.12109374,3.1757813 v 0.421875 H 2.3664766 Z m 0,-1.88671875 H 0.79616406 L 1.9680391,-3.5872813 c 0.140625,-0.2460937 0.28125,-0.46875 0.4101562,-0.703125 h 0.023437 c -0.011719,0.2578125 -0.035156,0.703125 -0.035156,0.9492188 z m 0,0"
       style="fill:#666666;fill-opacity:1;fill-rule:nonzero;stroke:none"
       aria-label="4"
       transform="matrix(1.3333333,0,0,1.3333333,232.76267,21.798667)" />
    <path
       id="path16"
       d="M 138.89961,18.4255 H 167.2464 V 41.10293 H 138.89961 Z"
       style="fill:#ffffff;fill-opacity:1;fill-rule:nonzero;stroke:#666666;stroke-width:0.49814;stroke-linecap:butt;stroke-linejoin:miter;stroke-miterlimit:10;stroke-dasharray:none;stroke-opacity:1"
       transform="matrix(1.3333333,0,0,-1.3333333,72.065333,81.98)" />
    <path
       id="path17"
       d="m 2.4949063,0.11620312 c 1.265625,0 2.0390625,-1.19531252 2.0390625,-3.33984372 0,-2.1328125 -0.7734375,-3.28125 -2.0390625,-3.28125 -1.2890625,0 -2.0507813,1.1484375 -2.0507813,3.28125 0,2.1445312 0.7617188,3.33984372 2.0507813,3.33984372 z m 0,-0.66796875 c -0.75,0 -1.2539063,-0.79687497 -1.2539063,-2.67187497 0,-1.875 0.5039063,-2.6367188 1.2539063,-2.6367188 0.7382812,0 1.2539062,0.7617188 1.2539062,2.6367188 0,1.875 -0.515625,2.67187497 -1.2539062,2.67187497 z m 0,0"
       style="fill:#000000;fill-opacity:1;fill-rule:nonzero;stroke:none"
       aria-label="0"
       transform="matrix(1.3333333,0,0,1.3333333,272.84533,46.556)" />
    <path
       id="path18"
       d="m 1.8276484,0.09446094 c 0.8554688,0 1.6757813,-0.609375 1.6757813,-1.68750004 0,-1.0664062 -0.703125,-1.546875 -1.546875,-1.546875 -0.3046875,0 -0.5390625,0.070312 -0.7617188,0.1992188 l 0.1289063,-1.4765625 h 1.921875 V -4.9680391 H 0.76124219 l -0.1640625,2.390625 0.33984375,0.2109375 c 0.29296876,-0.1875 0.51562496,-0.3046875 0.85546876,-0.3046875 0.6445312,0 1.0546875,0.4101563 1.0546875,1.1015625 0,0.69140629 -0.4804688,1.13671879 -1.078125,1.13671879 -0.5976563,0 -0.97265626,-0.28125 -1.26562501,-0.57421879 l -0.31640625,0.42187504 c 0.3515625,0.33984375 0.83203126,0.6796875 1.64062496,0.6796875 z m 0,0"
       style="fill:#666666;fill-opacity:1;fill-rule:nonzero;stroke:none"
       aria-label="5"
       transform="matrix(1.3333333,0,0,1.3333333,273.58267,21.737333)" />
    <path
       id="path19"
       d="m 169.51422,18.4255 h 28.34679 v 22.67743 h -28.34679 z"
       style="fill:#ffffff;fill-opacity:1;fill-rule:nonzero;stroke:#666666;stroke-width:0.49814;stroke-linecap:butt;stroke-linejoin:miter;stroke-miterlimit:10;stroke-dasharray:none;stroke-opacity:1"
       transform="matrix(1.3333333,0,0,-1.3333333,72.065333,81.98)" />
    <path
       id="path20"
       d="M 0.40953906,-2.1923906 H 2.7064141 V -2.8252031 H 0.40953906 Z M 5.4661797,0.11620312 c 1.171875,0 2.1210937,-0.6796875 2.1210937,-1.81640622 0,-0.8789063 -0.6210937,-1.453125 -1.3945312,-1.640625 v -0.035156 c 0.6914062,-0.2460937 1.171875,-0.7382812 1.171875,-1.5234375 0,-1.0195312 -0.8085938,-1.6054687 -1.921875,-1.6054687 -0.75,0 -1.3359375,0.3398437 -1.828125,0.796875 l 0.4335937,0.515625 c 0.375,-0.3867188 0.8320313,-0.65625 1.3710938,-0.65625 0.6914062,0 1.1015625,0.3984375 1.1015625,1.0195312 0,0.6679688 -0.4570313,1.1835938 -1.8164063,1.1835938 v 0.6445312 c 1.5234375,0 2.0507813,0.5039063 2.0507813,1.265625 0,0.7265625 -0.5507813,1.17187502 -1.3359375,1.17187502 -0.75,0 -1.2421875,-0.36328125 -1.6289063,-0.75000002 l -0.421875,0.52734377 c 0.4335938,0.46875 1.078125,0.90234375 2.0976563,0.90234345 z m 0,0"
       style="fill:#000000;fill-opacity:1;fill-rule:nonzero;stroke:none"
       aria-label="‑3"
       transform="matrix(1.3333333,0,0,1.3333333,311.59067,46.556)" />
    <path
       id="path21"
       d="m 2.0984141,0.09240625 c 0.7851562,0 1.453125,-0.64453125 1.453125,-1.59375005 0,-1.0195312 -0.5507813,-1.5351562 -1.4179688,-1.5351562 -0.3984375,0 -0.84375,0.234375 -1.16015624,0.6328125 C 1.0085703,-3.9857188 1.5945078,-4.5365 2.2976328,-4.5365 c 0.3164063,0 0.6210938,0.1523437 0.8085938,0.3984375 L 3.4695078,-4.5365 c -0.28125,-0.3046875 -0.6679687,-0.5273438 -1.2070312,-0.5273438 -0.984375,0 -1.88671879,0.7617188 -1.88671879,2.765625 0,1.59375005 0.73828129,2.39062505 1.72265629,2.39062505 z M 0.98513281,-1.8997813 c 0.35156249,-0.4804687 0.72656249,-0.65625 1.05468749,-0.65625 0.609375,0 0.9257813,0.4101563 0.9257813,1.0546875 0,0.65625005 -0.3867188,1.0898438 -0.8789063,1.0898438 -0.6328125,0 -1.0078125,-0.515625 -1.10156249,-1.4882813 z m 0,0"
       style="fill:#666666;fill-opacity:1;fill-rule:nonzero;stroke:none"
       aria-label="6"
       transform="matrix(1.3333333,0,0,1.3333333,314.40133,21.798667)" />
    <path
       id="path22"
       d="m 200.12885,18.4255 h 28.34679 v 22.67743 h -28.34679 z"
       style="fill:#ffffff;fill-opacity:1;fill-rule:nonzero;stroke:#666666;stroke-width:0.49814;stroke-linecap:butt;stroke-linejoin:miter;stroke-miterlimit:10;stroke-dasharray:none;stroke-opacity:1"
       transform="matrix(1.3333333,0,0,-1.3333333,72.065333,81.98)" />
    <path
       id="path23"
       d="m 2.496375,0.11620312 c 1.265625,0 2.0390625,-1.19531252 2.0390625,-3.33984372 0,-2.1328125 -0.7734375,-3.28125 -2.0390625,-3.28125 -1.2890625,0 -2.05078125,1.1484375 -2.05078125,3.28125 0,2.1445312 0.76171875,3.33984372 2.05078125,3.33984372 z m 0,-0.66796875 c -0.75,0 -1.2539062,-0.79687497 -1.2539062,-2.67187497 0,-1.875 0.5039062,-2.6367188 1.2539062,-2.6367188 0.7382813,0 1.2539063,0.7617188 1.2539063,2.6367188 0,1.875 -0.515625,2.67187497 -1.2539063,2.67187497 z m 0,0"
       style="fill:#000000;fill-opacity:1;fill-rule:nonzero;stroke:none"
       aria-label="0"
       transform="matrix(1.3333333,0,0,1.3333333,354.484,46.556)" />
    <path
       id="path24"
       d="m 1.3838047,-0.00134375 h 0.65625 c 0.082031,-1.93359375 0.328125,-3.07031255 1.5,-4.58203125 V -4.9700938 H 0.34083594 v 0.5507813 H 2.8252109 c -0.984375,1.359375 -1.3476562,2.5429687 -1.4414062,4.41796875 z m 0,0"
       style="fill:#666666;fill-opacity:1;fill-rule:nonzero;stroke:none"
       aria-label="7"
       transform="matrix(1.3333333,0,0,1.3333333,355.22133,21.798667)" />
    <path
       id="path25"
       d="m 230.74344,18.4255 h 28.34679 v 22.67743 h -28.34679 z"
       style="fill:#ffffff;fill-opacity:1;fill-rule:nonzero;stroke:#666666;stroke-width:0.49814;stroke-linecap:butt;stroke-linejoin:miter;stroke-miterlimit:10;stroke-dasharray:none;stroke-opacity:1"
       transform="matrix(1.3333333,0,0,-1.3333333,72.065333,81.98)" />
    <path
       id="path26"
       d="m 2.4966094,0.11620312 c 1.265625,0 2.0390625,-1.19531252 2.0390625,-3.33984372 0,-2.1328125 -0.7734375,-3.28125 -2.0390625,-3.28125 -1.2890625,0 -2.05078127,1.1484375 -2.05078127,3.28125 0,2.1445312 0.76171877,3.33984372 2.05078127,3.33984372 z m 0,-0.66796875 c -0.75,0 -1.2539063,-0.79687497 -1.2539063,-2.67187497 0,-1.875 0.5039063,-2.6367188 1.2539063,-2.6367188 0.7382812,0 1.2539062,0.7617188 1.2539062,2.6367188 0,1.875 -0.515625,2.67187497 -1.2539062,2.67187497 z m 0,0"
       style="fill:#000000;fill-opacity:1;fill-rule:nonzero;stroke:none"
       aria-label="0"
       transform="matrix(1.3333333,0,0,1.3333333,395.304,46.556)" />
    <path
       id="path27"
       d="m 1.9582578,0.09240625 c 0.9492188,0 1.59375,-0.5859375 1.59375,-1.32421875 0,-0.6679688 -0.421875,-1.0195313 -0.8554687,-1.2890625 V -2.544312 C 2.9895078,-2.7786875 3.3645078,-3.224 3.3645078,-3.7513438 c 0,-0.7617187 -0.5273437,-1.3125 -1.3945312,-1.3125 -0.796875,0 -1.40625004,0.5039063 -1.40625004,1.265625 0,0.5273438 0.328125,0.890625 0.69140624,1.1484375 v 0.035156 c -0.45703124,0.2460937 -0.93749999,0.6914062 -0.93749999,1.3476562 0,0.7851563 0.69140629,1.35937505 1.64062499,1.35937535 z M 2.2981016,-2.708375 C 1.7004453,-2.94275 1.1496641,-3.2005625 1.1496641,-3.7982188 c 0,-0.4804687 0.3398437,-0.796875 0.8085937,-0.796875 0.5507813,0 0.8671875,0.3984375 0.8671875,0.8789063 0,0.375 -0.1875,0.703125 -0.5273437,1.0078125 z m -0.3398438,2.3203125 c -0.609375,0 -1.06640624,-0.3984375 -1.06640624,-0.9375 0,-0.46875 0.29296874,-0.8320313 0.70312504,-1.0898438 0.7148437,0.2929688 1.3476562,0.515625 1.3476562,1.1601563 0,0.515625 -0.3867187,0.8671875 -0.984375,0.8671875 z m 0,0"
       style="fill:#666666;fill-opacity:1;fill-rule:nonzero;stroke:none"
       aria-label="8"
       transform="matrix(1.3333333,0,0,1.3333333,396.04133,21.798667)" />
    <path
       id="path28"
       d="m 4.6299219,-0.28226563 c 0,-0.3046875 -0.2460938,-0.3046875 -0.375,-0.3046875 H 3.8564844 V -5.0986719 c 0,-0.3046875 -0.070312,-0.375 -0.375,-0.375 H 2.8017969 c -0.1289063,0 -0.375,0 -0.375,0.28125 0,0.2929688 0.234375,0.2929688 0.375,0.2929688 h 0.3867187 v 1.3710937 c -0.1875,-0.1757812 -0.5507812,-0.3867187 -1.03125,-0.3867187 -0.9960937,0 -1.85156248,0.8671875 -1.85156248,1.9921875 0,1.10156247 0.80859378,1.96874997 1.76953128,1.96874997 0.4101562,0 0.796875,-0.15234375 1.1132812,-0.48046875 0,0.28125 0,0.43359375 0.375,0.43359375 h 0.6914063 c 0.1171875,0 0.375,0 0.375,-0.28125 z M 3.1885156,-1.7471094 c 0,0.4804688 -0.3984375,1.20703127 -1.0664062,1.20703127 -0.6210938,0 -1.14843753,-0.60937497 -1.14843753,-1.38281247 0,-0.8085938 0.57421873,-1.40625 1.23046873,-1.40625 0.5390625,0 0.984375,0.46875 0.984375,0.9492187 z m 5.6425781,1.46484377 c 0,-0.3046875 -0.2578125,-0.3046875 -0.3867187,-0.3046875 h -0.9375 V -3.4932031 c 0,-0.2929688 -0.070312,-0.375 -0.375,-0.375 H 5.8310937 c -0.140625,0 -0.3867187,0 -0.3867187,0.2929687 0,0.2929688 0.234375,0.2929688 0.3867187,0.2929688 h 1.0078125 v 2.69531247 H 5.7490625 c -0.1289063,0 -0.375,0 -0.375,0.29296875 0,0.29296875 0.234375,0.29296875 0.375,0.29296875 H 8.444375 c 0.1289062,0 0.3867187,0 0.3867187,-0.28125 z m -1.3125,-4.69921877 c 0,-0.2578125 -0.1992187,-0.4570312 -0.4570312,-0.4570312 -0.2460938,0 -0.4570313,0.1992187 -0.4570313,0.4570312 0,0.2460938 0.2109375,0.4570313 0.4570313,0.4570313 0.2578125,0 0.4570312,-0.2109375 0.4570312,-0.4570313 z m 5.8095703,0.011719 c 0,-0.5507813 -0.726562,-0.5507813 -0.867187,-0.5507813 -0.691407,0 -1.417969,0.3867188 -1.417969,1.2070313 v 0.4453125 h -0.855469 c -0.140625,0 -0.3867187,0 -0.3867187,0.3046875 0,0.28125 0.2460937,0.28125 0.3749997,0.28125 h 0.867188 v 2.69531247 h -0.902344 c -0.128906,0 -0.3867187,0 -0.3867187,0.29296875 0,0.29296875 0.2460937,0.29296875 0.3867187,0.29296875 h 2.472656 c 0.128907,0 0.386719,0 0.386719,-0.28125 0,-0.3046875 -0.246094,-0.3046875 -0.386719,-0.3046875 H 11.710977 V -3.2822656 h 1.042968 c 0.128907,0 0.375,0 0.375,-0.28125 0,-0.3046875 -0.234375,-0.3046875 -0.375,-0.3046875 h -1.042968 v -0.4101563 c 0,-0.65625 0.550781,-0.6679687 0.808593,-0.6679687 0.03516,0.2460937 0.222657,0.3867187 0.410157,0.3867187 0.164062,0 0.398437,-0.1171875 0.398437,-0.410156 z m 4.708008,0 c 0,-0.5507813 -0.726563,-0.5507813 -0.867188,-0.5507813 -0.691406,0 -1.417968,0.3867188 -1.417968,1.2070313 v 0.4453125 h -0.855469 c -0.140625,0 -0.386719,0 -0.386719,0.3046875 0,0.28125 0.246094,0.28125 0.375,0.28125 h 0.867188 v 2.69531247 h -0.902344 c -0.128906,0 -0.386719,0 -0.386719,0.29296875 0,0.29296875 0.246094,0.29296875 0.386719,0.29296875 h 2.472656 c 0.128906,0 0.386719,0 0.386719,-0.28125 0,-0.3046875 -0.246094,-0.3046875 -0.386719,-0.3046875 H 16.418984 V -3.2822656 h 1.042969 c 0.128906,0 0.375,0 0.375,-0.28125 0,-0.3046875 -0.234375,-0.3046875 -0.375,-0.3046875 h -1.042969 v -0.4101563 c 0,-0.65625 0.550782,-0.6679687 0.808594,-0.6679687 0.03516,0.2460937 0.222656,0.3867187 0.410156,0.3867187 0.164063,0 0.398438,-0.1171875 0.398438,-0.410156 z m 0,0"
       style="fill:#000000;fill-opacity:1;fill-rule:nonzero;stroke:none"
       aria-label="diff"
       transform="matrix(1.3333333,0,0,1.3333333,15.053333,45.946667)" />
    <path
       id="path29"
       d="M -14.17339,-32.59882 H 14.1734 v 22.67743 h -28.34679 z"
       style="fill:#ffffff;fill-opacity:1;fill-rule:nonzero;stroke:#666666;stroke-width:0.49814;stroke-linecap:butt;stroke-linejoin:miter;stroke-miterlimit:10;stroke-dasharray:none;stroke-opacity:1"
       transform="matrix(1.3333333,0,0,-1.3333333,72.065333,81.98)" />
    <path
       id="path30"
       d="m 2.4946641,0.11757031 c 1.265625,0 2.0390625,-1.19531251 2.0390625,-3.33984371 0,-2.1328125 -0.7734375,-3.28125 -2.0390625,-3.28125 -1.2890625,0 -2.05078129,1.1484375 -2.05078129,3.28125 0,2.1445312 0.76171879,3.33984371 2.05078129,3.33984371 z m 0,-0.66796875 c -0.75,0 -1.2539063,-0.79687496 -1.2539063,-2.67187496 0,-1.875 0.5039063,-2.6367188 1.2539063,-2.6367188 0.7382812,0 1.2539062,0.7617188 1.2539062,2.6367188 0,1.875 -0.515625,2.67187496 -1.2539062,2.67187496 z m 0,0"
       style="fill:#000000;fill-opacity:1;fill-rule:nonzero;stroke:none"
       aria-label="0"
       transform="matrix(1.3333333,0,0,1.3333333,68.748,114.58933)" />
    <path
       id="path31"
       d="M 16.4412,-32.59882 H 44.78799 V -9.92139 H 16.4412 Z"
       style="fill:#ffffff;fill-opacity:1;fill-rule:nonzero;stroke:#666666;stroke-width:0.49814;stroke-linecap:butt;stroke-linejoin:miter;stroke-miterlimit:10;stroke-dasharray:none;stroke-opacity:1"
       transform="matrix(1.3333333,0,0,-1.3333333,72.065333,81.98)" />
    <path
       id="path32"
       d="m 2.4958984,0.11757031 c 1.265625,0 2.0390625,-1.19531251 2.0390625,-3.33984371 0,-2.1328125 -0.7734375,-3.28125 -2.0390625,-3.28125 -1.2890625,0 -2.05078121,1.1484375 -2.05078121,3.28125 0,2.1445312 0.76171871,3.33984371 2.05078121,3.33984371 z m 0,-0.66796875 c -0.75,0 -1.2539062,-0.79687496 -1.2539062,-2.67187496 0,-1.875 0.5039062,-2.6367188 1.2539062,-2.6367188 0.7382813,0 1.2539063,0.7617188 1.2539063,2.6367188 0,1.875 -0.515625,2.67187496 -1.2539063,2.67187496 z m 0,0"
       style="fill:#000000;fill-opacity:1;fill-rule:nonzero;stroke:none"
       aria-label="0"
       transform="matrix(1.3333333,0,0,1.3333333,109.56667,114.58933)" />
    <path
       id="path33"
       d="M 47.0558,-32.59882 H 75.40259 V -9.92139 H 47.0558 Z"
       style="fill:#e0e0e0;fill-opacity:1;fill-rule:nonzero;stroke:#4c4c4c;stroke-width:0.59776;stroke-linecap:butt;stroke-linejoin:miter;stroke-miterlimit:10;stroke-dasharray:none;stroke-opacity:1"
       transform="matrix(1.3333333,0,0,-1.3333333,72.065333,81.98)" />
    <path
       id="path34"
       d="m 2.3555078,0.11757031 c 1.171875,0 2.1210938,-0.6796875 2.1210938,-1.81640621 0,-0.8789063 -0.6210938,-1.453125 -1.3945313,-1.640625 v -0.035156 c 0.6914063,-0.2460937 1.171875,-0.7382812 1.171875,-1.5234375 0,-1.0195312 -0.8085937,-1.6054687 -1.921875,-1.6054687 -0.75,0 -1.33593749,0.3398437 -1.82812499,0.796875 l 0.43359375,0.515625 c 0.37500004,-0.3867188 0.83203124,-0.65625 1.37109374,-0.65625 0.6914063,0 1.1015625,0.3984375 1.1015625,1.0195312 0,0.6679688 -0.4570312,1.1835938 -1.8164062,1.1835938 v 0.6445312 c 1.5234375,0 2.0507812,0.5039063 2.0507812,1.265625 0,0.7265625 -0.5507812,1.17187501 -1.3359375,1.17187501 -0.75,0 -1.2421875,-0.36328125 -1.62890624,-0.75000001 l -0.421875,0.52734376 c 0.43359375,0.46875 1.07812504,0.90234375 2.09765624,0.90234345 z m 0,0"
       style="fill:#000000;fill-opacity:1;fill-rule:nonzero;stroke:none"
       aria-label="3"
       transform="matrix(1.3333333,0,0,1.3333333,150.38667,114.58933)" />
    <path
       id="path35"
       d="M 77.67041,-32.59882 H 106.0172 V -9.92139 H 77.67041 Z"
       style="fill:#e0e0e0;fill-opacity:1;fill-rule:nonzero;stroke:#4c4c4c;stroke-width:0.59776;stroke-linecap:butt;stroke-linejoin:miter;stroke-miterlimit:10;stroke-dasharray:none;stroke-opacity:1"
       transform="matrix(1.3333333,0,0,-1.3333333,72.065333,81.98)" />
    <path
       id="path36"
       d="m 2.3557422,0.11757031 c 1.171875,0 2.1210937,-0.6796875 2.1210937,-1.81640621 0,-0.8789063 -0.6210937,-1.453125 -1.3945312,-1.640625 v -0.035156 c 0.6914062,-0.2460937 1.171875,-0.7382812 1.171875,-1.5234375 0,-1.0195312 -0.8085938,-1.6054687 -1.921875,-1.6054687 -0.75,0 -1.33593751,0.3398437 -1.82812501,0.796875 l 0.43359375,0.515625 c 0.37499996,-0.3867188 0.83203126,-0.65625 1.37109376,-0.65625 0.6914062,0 1.1015625,0.3984375 1.1015625,1.0195312 0,0.6679688 -0.4570313,1.1835938 -1.8164063,1.1835938 v 0.6445312 c 1.5234375,0 2.0507813,0.5039063 2.0507813,1.265625 0,0.7265625 -0.5507813,1.17187501 -1.3359375,1.17187501 -0.75,0 -1.2421875,-0.36328125 -1.62890626,-0.75000001 l -0.421875,0.52734376 c 0.43359375,0.46875 1.07812496,0.90234375 2.09765626,0.90234345 z m 0,0"
       style="fill:#000000;fill-opacity:1;fill-rule:nonzero;stroke:none"
       aria-label="3"
       transform="matrix(1.3333333,0,0,1.3333333,191.20667,114.58933)" />
    <path
       id="path37"
       d="m 108.285,-32.59882 h 28.34679 V -9.92139 H 108.285 Z"
       style="fill:#e0e0e0;fill-opacity:1;fill-rule:nonzero;stroke:#4c4c4c;stroke-width:0.59776;stroke-linecap:butt;stroke-linejoin:miter;stroke-miterlimit:10;stroke-dasharray:none;stroke-opacity:1"
       transform="matrix(1.3333333,0,0,-1.3333333,72.065333,81.98)" />
    <path
       id="path38"
       d="m 2.3540469,0.11757031 c 1.171875,0 2.1210937,-0.6796875 2.1210937,-1.81640621 0,-0.8789063 -0.6210937,-1.453125 -1.3945312,-1.640625 v -0.035156 c 0.6914062,-0.2460937 1.171875,-0.7382812 1.171875,-1.5234375 0,-1.0195312 -0.8085938,-1.6054687 -1.921875,-1.6054687 -0.75,0 -1.33593753,0.3398437 -1.82812503,0.796875 l 0.43359375,0.515625 c 0.37499998,-0.3867188 0.83203128,-0.65625 1.37109378,-0.65625 0.6914062,0 1.1015625,0.3984375 1.1015625,1.0195312 0,0.6679688 -0.4570313,1.1835938 -1.8164063,1.1835938 v 0.6445312 c 1.5234375,0 2.0507813,0.5039063 2.0507813,1.265625 0,0.7265625 -0.5507813,1.17187501 -1.3359375,1.17187501 -0.75,0 -1.2421875,-0.36328125 -1.62890628,-0.75000001 l -0.421875,0.52734376 c 0.43359375,0.46875 1.07812498,0.90234375 2.09765628,0.90234345 z m 0,0"
       style="fill:#000000;fill-opacity:1;fill-rule:nonzero;stroke:none"
       aria-label="3"
       transform="matrix(1.3333333,0,0,1.3333333,232.02533,114.58933)" />
    <path
       id="path39"
       d="M 138.89961,-32.59882 H 167.2464 V -9.92139 H 138.89961 Z"
       style="fill:#e0e0e0;fill-opacity:1;fill-rule:nonzero;stroke:#4c4c4c;stroke-width:0.59776;stroke-linecap:butt;stroke-linejoin:miter;stroke-miterlimit:10;stroke-dasharray:none;stroke-opacity:1"
       transform="matrix(1.3333333,0,0,-1.3333333,72.065333,81.98)" />
    <path
       id="path40"
       d="m 2.3542813,0.11757031 c 1.171875,0 2.1210937,-0.6796875 2.1210937,-1.81640621 0,-0.8789063 -0.6210937,-1.453125 -1.3945312,-1.640625 v -0.035156 c 0.6914062,-0.2460937 1.171875,-0.7382812 1.171875,-1.5234375 0,-1.0195312 -0.8085938,-1.6054687 -1.921875,-1.6054687 -0.75,0 -1.33593755,0.3398437 -1.82812505,0.796875 l 0.43359375,0.515625 c 0.375,-0.3867188 0.8320313,-0.65625 1.3710938,-0.65625 0.6914062,0 1.1015625,0.3984375 1.1015625,1.0195312 0,0.6679688 -0.4570313,1.1835938 -1.8164063,1.1835938 v 0.6445312 c 1.5234375,0 2.0507813,0.5039063 2.0507813,1.265625 0,0.7265625 -0.5507813,1.17187501 -1.3359375,1.17187501 -0.75,0 -1.2421875,-0.36328125 -1.6289063,-0.75000001 l -0.421875,0.52734376 c 0.43359375,0.46875 1.078125,0.90234375 2.0976563,0.90234345 z m 0,0"
       style="fill:#000000;fill-opacity:1;fill-rule:nonzero;stroke:none"
       aria-label="3"
       transform="matrix(1.3333333,0,0,1.3333333,272.84533,114.58933)" />
    <path
       id="path41"
       d="m 169.51422,-32.59882 h 28.34679 v 22.67743 h -28.34679 z"
       style="fill:#ffffff;fill-opacity:1;fill-rule:nonzero;stroke:#666666;stroke-width:0.49814;stroke-linecap:butt;stroke-linejoin:miter;stroke-miterlimit:10;stroke-dasharray:none;stroke-opacity:1"
       transform="matrix(1.3333333,0,0,-1.3333333,72.065333,81.98)" />
    <path
       id="path42"
       d="m 2.4961406,0.11757031 c 1.265625,0 2.0390625,-1.19531251 2.0390625,-3.33984371 0,-2.1328125 -0.7734375,-3.28125 -2.0390625,-3.28125 -1.2890625,0 -2.05078122,1.1484375 -2.05078122,3.28125 0,2.1445312 0.76171872,3.33984371 2.05078122,3.33984371 z m 0,-0.66796875 c -0.75,0 -1.2539062,-0.79687496 -1.2539062,-2.67187496 0,-1.875 0.5039062,-2.6367188 1.2539062,-2.6367188 0.7382813,0 1.2539063,0.7617188 1.2539063,2.6367188 0,1.875 -0.515625,2.67187496 -1.2539063,2.67187496 z m 0,0"
       style="fill:#000000;fill-opacity:1;fill-rule:nonzero;stroke:none"
       aria-label="0"
       transform="matrix(1.3333333,0,0,1.3333333,313.664,114.58933)" />
    <path
       id="path43"
       d="m 200.12885,-32.59882 h 28.34679 v 22.67743 h -28.34679 z"
       style="fill:#ffffff;fill-opacity:1;fill-rule:nonzero;stroke:#666666;stroke-width:0.49814;stroke-linecap:butt;stroke-linejoin:miter;stroke-miterlimit:10;stroke-dasharray:none;stroke-opacity:1"
       transform="matrix(1.3333333,0,0,-1.3333333,72.065333,81.98)" />
    <path
       id="path44"
       d="m 2.496375,0.11757031 c 1.265625,0 2.0390625,-1.19531251 2.0390625,-3.33984371 0,-2.1328125 -0.7734375,-3.28125 -2.0390625,-3.28125 -1.2890625,0 -2.05078125,1.1484375 -2.05078125,3.28125 0,2.1445312 0.76171875,3.33984371 2.05078125,3.33984371 z m 0,-0.66796875 c -0.75,0 -1.2539062,-0.79687496 -1.2539062,-2.67187496 0,-1.875 0.5039062,-2.6367188 1.2539062,-2.6367188 0.7382813,0 1.2539063,0.7617188 1.2539063,2.6367188 0,1.875 -0.515625,2.67187496 -1.2539063,2.67187496 z m 0,0"
       style="fill:#000000;fill-opacity:1;fill-rule:nonzero;stroke:none"
       aria-label="0"
       transform="matrix(1.3333333,0,0,1.3333333,354.484,114.58933)" />
    <path
       id="path45"
       d="m 230.74344,-32.59882 h 28.34679 v 22.67743 h -28.34679 z"
       style="fill:#ffffff;fill-opacity:1;fill-rule:nonzero;stroke:#666666;stroke-width:0.49814;stroke-linecap:butt;stroke-linejoin:miter;stroke-miterlimit:10;stroke-dasharray:none;stroke-opacity:1"
       transform="matrix(1.3333333,0,0,-1.3333333,72.065333,81.98)" />
    <path
       id="path46"
       d="m 2.4966094,0.11757031 c 1.265625,0 2.0390625,-1.19531251 2.0390625,-3.33984371 0,-2.1328125 -0.7734375,-3.28125 -2.0390625,-3.28125 -1.2890625,0 -2.05078127,1.1484375 -2.05078127,3.28125 0,2.1445312 0.76171877,3.33984371 2.05078127,3.33984371 z m 0,-0.66796875 c -0.75,0 -1.2539063,-0.79687496 -1.2539063,-2.67187496 0,-1.875 0.5039063,-2.6367188 1.2539063,-2.6367188 0.7382812,0 1.2539062,0.7617188 1.2539062,2.6367188 0,1.875 -0.515625,2.67187496 -1.2539062,2.67187496 z m 0,0"
       style="fill:#000000;fill-opacity:1;fill-rule:nonzero;stroke:none"
       aria-label="0"
       transform="matrix(1.3333333,0,0,1.3333333,395.304,114.58933)" />
    <path
       id="path47"
       d="m 4.6514375,-0.2925625 c 0,-0.29296875 -0.2460938,-0.29296875 -0.3867188,-0.29296875 -0.1289062,0 -0.3164062,0 -0.4921875,-0.0585938 V -2.5308439 c 0,-0.703125 -0.5390625,-1.40625 -1.7929687,-1.40625 -0.4101563,0 -1.3125,0 -1.3125,0.6796875 0,0.2578125 0.1875,0.4101563 0.4101562,0.4101563 0.140625,0 0.421875,-0.046875 0.421875,-0.4804688 0.2460938,-0.023437 0.4101563,-0.023437 0.4921875,-0.023437 0.703125,0 1.1132813,0.2929688 1.1132813,0.84375 -1.4882813,0.011719 -2.671875,0.4335938 -2.671875,1.3125001 0,0.6796875 0.6210937,1.2421875 1.4882812,1.2421875 0.1054688,0 0.7851563,0 1.265625,-0.3515625 0.2226563,0.3046875 0.703125,0.3046875 0.9960938,0.3046875 0.2578125,0 0.46875,0 0.46875,-0.2929692 z m -1.546875,-0.9726563 c 0,0.2109375 0,0.39843755 -0.3515625,0.5742188 -0.328125,0.15234375 -0.7265625,0.15234375 -0.7617188,0.15234375 -0.5273437,0 -0.9023437,-0.29296875 -0.9023437,-0.65625005 0,-0.4335937 0.9140625,-0.7382812 2.015625,-0.75 z m 5.9736328,-2.0742187 c 0,-0.1640625 -0.1171875,-0.5742188 -0.8554687,-0.5742188 -0.515625,0 -1.078125,0.2226563 -1.5117188,0.703125 v -0.28125 c 0,-0.2929687 -0.070312,-0.375 -0.375,-0.375 H 5.3399141 c -0.140625,0 -0.3867188,0 -0.3867188,0.2929688 0,0.2929687 0.234375,0.2929687 0.3867188,0.2929687 h 0.7148437 v 2.69531255 H 5.3399141 c -0.140625,0 -0.3867188,0 -0.3867188,0.29296875 0,0.29296875 0.234375,0.29296875 0.3867188,0.29296875 h 2.3671875 c 0.1289062,0 0.3867187,0 0.3867187,-0.28125 0,-0.3046875 -0.2460937,-0.3046875 -0.3867187,-0.3046875 H 6.7110078 V -1.6519375 c 0,-0.9023438 0.609375,-1.6757813 1.5703125,-1.6757813 0.035156,0.328125 0.28125,0.3984375 0.3984375,0.3984375 0.1992188,0 0.3984375,-0.1523437 0.3984375,-0.4101562 z m 4.7080077,0 c 0,-0.1640625 -0.117187,-0.5742188 -0.855469,-0.5742188 -0.515625,0 -1.078125,0.2226563 -1.511718,0.703125 v -0.28125 c 0,-0.2929687 -0.07031,-0.375 -0.375,-0.375 h -0.996094 c -0.1406251,0 -0.3867189,0 -0.3867189,0.2929688 0,0.2929687 0.234375,0.2929687 0.3867189,0.2929687 h 0.714844 v 2.69531255 h -0.714844 c -0.1406251,0 -0.3867189,0 -0.3867189,0.29296875 0,0.29296875 0.234375,0.29296875 0.3867189,0.29296875 h 2.367187 c 0.128907,0 0.386719,0 0.386719,-0.28125 0,-0.3046875 -0.246094,-0.3046875 -0.386719,-0.3046875 H 11.419016 V -1.6519375 c 0,-0.9023438 0.609375,-1.6757813 1.570312,-1.6757813 0.03516,0.328125 0.28125,0.3984375 0.398438,0.3984375 0.199218,0 0.398437,-0.1523437 0.398437,-0.4101562 z m 0,0"
       style="fill:#000000;fill-opacity:1;fill-rule:nonzero;stroke:none"
       aria-label="arr"
       transform="matrix(1.3333333,0,0,1.3333333,21.329333,112.92133)" />
    <path
       id="path48"
       d="M 122.4584,18.14192 V -4.83427"
       style="fill:none;stroke:#4c4c4c;stroke-width:0.59776;stroke-linecap:butt;stroke-linejoin:miter;stroke-miterlimit:10;stroke-dasharray:none;stroke-opacity:1"
       transform="matrix(1.3333333,0,0,-1.3333333,72.065333,81.98)" />
    <path
       id="path49"
       d="M 3.5712,0 C 3.13263,0.10854 1.20485,0.72365 0,1.39302 V -1.39302 C 1.20485,-0.72365 3.13263,-0.10854 3.5712,0 Z"
       style="fill:#4c4c4c;fill-opacity:1;fill-rule:nonzero;stroke:#4c4c4c;stroke-width:0.59776;stroke-linecap:butt;stroke-linejoin:miter;stroke-miterlimit:10;stroke-dasharray:none;stroke-opacity:1"
       transform="matrix(0,1.3333333,1.3333333,0,235.3432,88.425693)" />
    <path
       id="path50"
       d="m 2.3781875,-5.0633359 c 0.609375,0 1.03125,0.3398437 1.03125,0.8203125 0,0.4921875 -0.421875,0.8320312 -1.03125,0.8320312 -0.609375,0 -1.0429687,-0.3398437 -1.0429687,-0.8320312 0,-0.4804688 0.4335937,-0.8203125 1.0429687,-0.8203125 z M 4.932875,-5.7547422 v 4.7109375 h 0.5742188 v -4.7109375 z m -4.4765625,3.890625 c 1.171875,0 2.671875,-0.046875 4.0078125,-0.2460937 L 4.41725,-2.5438047 c -0.5507812,0.070312 -1.1601562,0.1171875 -1.7578125,0.140625 v -0.5625 c 0.7734375,-0.09375 1.3007813,-0.5859375 1.3007813,-1.2773437 0,-0.7617188 -0.65625,-1.2773438 -1.5820313,-1.2773438 -0.9257812,0 -1.58203125,0.515625 -1.58203125,1.2773438 0,0.6914062 0.51562505,1.171875 1.28906255,1.2773437 v 0.5976563 c -0.5976563,0.011719 -1.1835938,0.011719 -1.71093755,0.011719 z m 0.9492188,0.4804688 V 0.40932031 H 5.7063125 V -0.07114844 H 1.97975 V -1.3836484 Z m 5.9824218,-0.1289063 v 0.46875 h 3.7734379 v 1.58203126 h 0.585937 V -1.5125547 Z m 2.34375,-4.0195312 v 0.46875 h 0.7968749 v 0.1054687 c 0,0.3632813 -0.339844,0.8554688 -0.9140624,1.1132813 -0.5859375,-0.2695313 -0.9375,-0.7617188 -0.9375,-1.1132813 v -0.1054687 h 0.8085938 v -0.46875 H 7.1301406 v 0.46875 h 0.984375 v 0.140625 c 0,0.421875 -0.4335937,0.9960937 -1.171875,1.2304687 l 0.2578125,0.4335938 c 0.609375,-0.2109375 1.03125,-0.6210938 1.21875,-1.0664063 0.1992188,0.3984375 0.5976563,0.7851563 1.1953125,0.9726563 0.5742184,-0.1757813 0.9726564,-0.5507813 1.1835934,-0.9609375 0.1875,0.4570312 0.597657,0.8554687 1.21875,1.0546875 l 0.257813,-0.4335938 c -0.738281,-0.2109375 -1.171875,-0.7617187 -1.171875,-1.2304687 v -0.140625 h 0.984375 v -0.46875 z m -0.4101562,2.25 v 0.6328125 H 6.7668594 v 0.46875 h 5.7070316 v -0.46875 H 9.8957656 v -0.6328125 z m 8.6660161,-2.484375 v 6.30468746 h 0.550781 V -5.7664609 Z m -3.386719,1.0664062 c 0.492187,0 0.808594,0.6328125 0.808594,1.6523438 0,1.0195312 -0.316407,1.6640625 -0.808594,1.6640625 -0.492188,0 -0.808594,-0.6445313 -0.808594,-1.6640625 0,-1.0195313 0.316406,-1.6523438 0.808594,-1.6523438 z m 0,-0.5390625 c -0.808594,0 -1.347656,0.84375 -1.347656,2.1914063 0,1.3476562 0.539062,2.20312496 1.347656,2.20312496 0.773437,0 1.289062,-0.76171876 1.335937,-1.99218746 h 0.796875 v 3.05859371 h 0.550782 V -5.6375547 h -0.550782 v 2.3203125 h -0.796875 c -0.05859,-1.1835937 -0.574218,-1.921875 -1.335937,-1.921875 z m 9.615234,-0.5273437 v 2.1445312 h -1.464844 v 0.46875 h 1.464844 v 3.70312501 h 0.5625 V -5.7664609 Z m -3,0.5390625 v 1.1367187 c 0,1.1601563 -0.703125,2.3789063 -1.628906,2.8359375 l 0.363281,0.46875001 c 0.714844,-0.38671871 1.300781,-1.18359371 1.570313,-2.12109371 0.28125,0.890625 0.855468,1.640625 1.558593,2.00390621 l 0.351563,-0.46875001 c -0.914063,-0.4335937 -1.628906,-1.5820312 -1.628906,-2.71875 v -1.1367187 z m 9.208008,0.3398437 c 0.996094,0 1.734375,0.46875 1.734375,1.1835938 0,0.7265625 -0.738281,1.1953125 -1.734375,1.1953125 -1.007813,0 -1.734375,-0.46875 -1.734375,-1.1953125 0,-0.7148438 0.726562,-1.1835938 1.734375,-1.1835938 z m -2.847656,4.13671876 v 0.48046875 h 5.71875 V -0.75083594 H 30.705336 V -2.0633359 c 1.171875,-0.082031 2.003906,-0.703125 2.003906,-1.640625 0,-0.9960938 -0.960937,-1.6523438 -2.285156,-1.6523438 -1.335938,0 -2.296875,0.65625 -2.296875,1.6523438 0,0.9375 0.832031,1.5585937 2.003906,1.640625 v 1.31249996 z m 6.404297,-1.52343746 v 0.46875 h 5.71875 v -0.46875 z m 0.75,0.9726562 V 0.40932031 H 39.10182 V -0.07114844 H 35.316664 V -1.3016172 Z m -0.01172,-1.9921875 v 0.4453125 h 4.382812 v -0.4453125 h -3.808593 v -0.6914062 h 3.679687 v -1.5703125 h -4.265625 v 0.4570312 h 3.691406 v 0.6796875 h -3.679687 z m 6.310547,1.78125 v 0.46875 h 3.773437 V 0.53822656 H 45.38893 V -1.5125547 Z m 2.34375,-4.0195312 v 0.46875 h 0.796875 v 0.1054687 c 0,0.3632813 -0.339844,0.8554688 -0.914063,1.1132813 -0.585937,-0.2695313 -0.9375,-0.7617188 -0.9375,-1.1132813 v -0.1054687 h 0.808594 v -0.46875 h -2.355469 v 0.46875 h 0.984375 v 0.140625 c 0,0.421875 -0.433594,0.9960937 -1.171875,1.2304687 l 0.257813,0.4335938 c 0.609375,-0.2109375 1.03125,-0.6210938 1.21875,-1.0664063 0.199218,0.3984375 0.597656,0.7851563 1.195312,0.9726563 0.574219,-0.1757813 0.972656,-0.5507813 1.183594,-0.9609375 0.1875,0.4570312 0.597656,0.8554687 1.21875,1.0546875 l 0.257812,-0.4335938 c -0.738281,-0.2109375 -1.171875,-0.7617187 -1.171875,-1.2304687 v -0.140625 h 0.984375 v -0.46875 z m -0.410157,2.25 v 0.6328125 H 40.40846 v 0.46875 h 5.707031 v -0.46875 h -2.578125 v -0.6328125 z m 6.708985,-2.0859375 c -1.3125,0 -2.296875,0.6914062 -2.296875,1.7460937 0,1.0429688 0.984375,1.734375 2.296875,1.734375 1.300781,0 2.285156,-0.6914062 2.285156,-1.734375 0,-1.0546875 -0.984375,-1.7460937 -2.285156,-1.7460937 z m 0,0.46875 c 0.996094,0 1.734375,0.515625 1.734375,1.2773437 0,0.75 -0.738281,1.265625 -1.734375,1.265625 -0.996094,0 -1.746094,-0.515625 -1.746094,-1.265625 0,-0.7617187 0.75,-1.2773437 1.746094,-1.2773437 z m -2.847656,4.12499996 v 0.48046875 h 5.71875 v -0.48046875 z m 7.11914,-1.59374996 v 0.46875 h 1.851563 v 1.18359371 h -2.554688 v 0.48046875 h 5.71875 V -0.71567969 H 56.369398 V -1.8992734 h 2.015625 v -0.46875 h -3.867187 v -1.0195313 h 3.726562 v -1.9101562 h -4.3125 v 0.46875 h 3.738282 v 0.984375 h -3.726563 z m 8.000977,-3.0820313 v 2.2734375 h 4.324219 v -0.46875 H 62.53053 v -1.8046875 z m -0.726563,3.2226563 v 0.4804687 H 63.761 v 2.28515626 h 0.574219 V -1.7469297 h 2.601562 v -0.4804687 z m 7.388672,0.5742187 v 0.46875 h 3.632813 v 1.72265626 h 0.574218 V -1.6531797 Z m -0.773437,-3.6796875 v 0.46875 h 1.40625 v 0.2578125 c 0,0.8789063 -0.65625,1.7226563 -1.582032,2.0507813 l 0.292969,0.4570312 c 0.75,-0.2695312 1.324219,-0.84375 1.59375,-1.5585937 0.257813,0.6445312 0.808594,1.171875 1.511719,1.4179687 l 0.292969,-0.4570312 c -0.914063,-0.3164063 -1.523438,-1.1015625 -1.523438,-1.921875 v -0.2460938 h 1.371094 v -0.46875 z m 4.40625,-0.4335937 v 1.640625 h -1.230469 v 0.4804687 h 1.230469 v 1.6523438 h 0.574218 v -3.7734375 z m 4.297851,3.9492187 v 2.27343751 h 3.960938 V -1.8172422 h -0.574219 v 0.65625 h -2.8125 v -0.65625 z m 0.574219,1.11328126 h 2.8125 v 0.69140625 h -2.8125 z m 0.375,-3.65624996 c -0.914063,0 -1.511719,0.4335937 -1.511719,1.1015625 0,0.6796875 0.597656,1.1132812 1.511719,1.1132812 0.902344,0 1.5,-0.4335937 1.5,-1.1132812 0,-0.6679688 -0.597656,-1.1015625 -1.5,-1.1015625 z m 0,0.4453125 c 0.574219,0 0.949219,0.2578125 0.949219,0.65625 0,0.4101562 -0.375,0.6679687 -0.949219,0.6679687 -0.574219,0 -0.960938,-0.2578125 -0.960938,-0.6679687 0,-0.3984375 0.386719,-0.65625 0.960938,-0.65625 z m 2.4375,-1.8515625 v 3.6679687 h 0.574219 v -1.5703125 h 0.9375 v -0.4921875 h -0.9375 v -1.6054687 z m -2.730469,-0.058594 v 0.703125 h -1.570312 v 0.46875 h 3.726562 v -0.46875 h -1.570312 v -0.703125 z m 0,0"
       style="fill:#595959;fill-opacity:1;fill-rule:nonzero;stroke:none"
       aria-label="왼쪽에서오른쪽으로누적합"
       transform="matrix(1.3333333,0,0,1.3333333,249.48533,79.825333)" />
    <path
       id="path51"
       d="M 438.14917,48.18939 H 297.56549 c -1.10046,0 -1.99255,-0.89207 -1.99255,-1.99255 v -83.89 c 0,-1.10046 0.89209,-1.99255 1.99255,-1.99255 h 140.58368 c 1.10046,0 1.99255,0.89209 1.99255,1.99255 v 83.89 c 0,1.10048 -0.89209,1.99255 -1.99255,1.99255 z"
       style="fill:#fcfcfc;fill-opacity:1;fill-rule:nonzero;stroke:#c7c7c7;stroke-width:0.3985;stroke-linecap:butt;stroke-linejoin:miter;stroke-miterlimit:10;stroke-dasharray:none;stroke-opacity:1"
       transform="matrix(1.3333333,0,0,-1.3333333,72.065333,81.98)" />
    <g
       id="g51"
       aria-label="변화량배열을누적하면&#10;실제값이복원된다.&#10;diff[i]+=diff[i-1];"
       transform="matrix(1.3333333,0,0,1.3333333,496.63867,61.654667)">
      <path
         id="path52"
         d="m 1.5805703,-4.8620937 h 2.1914063 v 1.4765625 H 1.5805703 Z M 6.3735391,-5.319125 v 1.1484375 H 4.5102578 V -5.319125 Z M 0.84228906,-6.866 v 4.078125 H 4.5102578 v -0.7734375 h 1.8632813 v 2.15625 h 0.7382812 v -6 H 6.3735391 V -5.9285 H 4.5102578 V -6.866 H 3.7719766 v 1.4296875 H 1.5805703 V -6.866 Z m 1.06640624,4.875 v 2.5078125 h 5.390625 v -0.609375 H 2.6469766 V -1.991 Z m 9.2578127,-2.7890625 c 0.726562,0 1.207031,0.375 1.207031,0.9257813 0,0.5507812 -0.480469,0.9140625 -1.207031,0.9140625 -0.726563,0 -1.2070314,-0.3632813 -1.2070314,-0.9140625 0,-0.5507813 0.4804684,-0.9257813 1.2070314,-0.9257813 z m 0,-0.5742187 c -1.136719,0 -1.9101564,0.5976562 -1.9101564,1.5 0,0.796875 0.609375,1.359375 1.5351564,1.4765625 v 0.8789062 c -0.785156,0.035156 -1.5468752,0.035156 -2.1914064,0.035156 l 0.1171875,0.6210937 c 1.4062499,0 3.3046879,-0.0117188 5.0507809,-0.328125 L 13.7212,-1.721469 C 13.029789,-1.616 12.279789,-1.5574062 11.541508,-1.52225 v -0.8554687 c 0.925781,-0.1171875 1.535156,-0.6679688 1.535156,-1.4765625 0,-0.9023438 -0.773437,-1.5 -1.910156,-1.5 z m 3.035156,-2.0625 v 8.1210937 h 0.738281 v -4.0429687 h 1.265625 v -0.6328125 h -1.265625 v -3.4453125 z m -3.410156,0.023437 v 0.9609375 H 8.7407266 v 0.609375 H 13.58057 v -0.609375 h -2.039062 v -0.9609375 z m 9.855469,5.1210937 c -1.652344,0 -2.671875,0.5507813 -2.671875,1.48828125 0,0.92578125 1.019531,1.46484375 2.671875,1.46484375 1.652343,0 2.660156,-0.5390625 2.660156,-1.46484375 0,-0.93749995 -1.007813,-1.48828125 -2.660156,-1.48828125 z m 0,0.5859375 c 1.207031,0 1.933593,0.328125 1.933593,0.90234375 0,0.5625 -0.726562,0.890625 -1.933593,0.890625 -1.207032,0 -1.945313,-0.328125 -1.945313,-0.890625 0,-0.57421875 0.738281,-0.90234375 1.945313,-0.90234375 z m 1.851562,-5.71875 v 4.9101563 H 23.23682 V -3.819125 h 1.207032 V -4.4402187 H 23.23682 v -1.078125 h 1.207032 V -6.1511562 H 23.23682 v -1.2539063 z m -5.214844,0.5039063 V -6.3035 h 2.917969 v 1.0195313 h -2.90625 v 2.3085937 h 0.632813 c 1.511718,0 2.578125,-0.046875 3.855468,-0.2695312 l -0.07031,-0.609375 c -1.230469,0.2109375 -2.261719,0.2578125 -3.679688,0.2578125 V -4.70975 h 2.894532 v -2.1914062 z m 10.209961,0.2578125 v 5.3203125 h 3.09375 v -5.3203125 h -0.679687 v 1.96875 h -1.710938 v -1.96875 z m 0.703125,2.578125 h 1.710938 v 2.1328125 H 28.196781 Z M 31.5835,-7.241 v 7.5234375 h 0.703125 V -3.58475 h 1.089844 v 4.2890625 h 0.726562 v -8.1210937 h -0.726562 v 3.2109375 H 32.286625 V -7.241 Z m 6.082031,0.7148438 c 0.796875,0 1.371094,0.515625 1.371094,1.2421875 0,0.7265625 -0.574219,1.2304687 -1.371094,1.2304687 -0.796875,0 -1.382812,-0.5039062 -1.382812,-1.2304687 0,-0.7265625 0.585937,-1.2421875 1.382812,-1.2421875 z m 2.003907,0.6796875 h 1.710937 v 1.0898437 h -1.699219 c 0.03516,-0.1640625 0.07031,-0.3398437 0.07031,-0.5273437 0,-0.1992188 -0.03516,-0.3867188 -0.08203,-0.5625 z m 1.710937,-1.5703125 v 0.984375 h -2.050781 c -0.363281,-0.4453125 -0.949219,-0.703125 -1.664063,-0.703125 -1.207031,0 -2.085937,0.75 -2.085937,1.8515625 0,1.078125 0.878906,1.8398437 2.085937,1.8398437 0.714844,0 1.324219,-0.2695312 1.6875,-0.7265625 h 2.027344 v 0.9140625 h 0.738281 v -4.1601562 z m -4.464844,7.40624995 V 0.587125 h 5.507813 V -0.01053125 H 37.653813 V -0.8894375 h 4.464843 v -1.9570312 h -5.226562 v 0.5976562 h 4.488281 v 0.796875 H 36.915531 Z M 47.356938,-7.2644375 c -1.792969,0 -2.847657,0.4921875 -2.847657,1.3945313 0,0.9023437 1.054688,1.40625 2.847657,1.40625 1.792968,0 2.859375,-0.5039063 2.859375,-1.40625 0,-0.9023438 -1.066407,-1.3945313 -2.859375,-1.3945313 z m 0,0.5507813 c 1.335937,0 2.097656,0.3164062 2.097656,0.84375 0,0.5507812 -0.761719,0.84375 -2.097656,0.84375 -1.3125,0 -2.074219,-0.2929688 -2.074219,-0.84375 0,-0.5273438 0.761719,-0.84375 2.074219,-0.84375 z m -3.65625,2.8007812 v 0.5976563 h 7.324218 V -3.912875 Z m 0.914062,3.9375 V 0.6105625 H 50.3335 V 0.024625 h -5.003906 v -0.8203125 h 4.757812 v -1.828125 h -5.496093 v 0.5625 h 4.769531 v 0.7148438 H 44.61475 Z m 10.291992,-7.0195312 v 2.9179687 h 5.554688 v -0.609375 h -4.816407 v -2.3085937 z m -0.949219,4.125 v 0.6210937 h 3.269532 v 2.953125 h 0.75 v -2.953125 h 3.339843 v -0.6210937 z m 9.500977,0.75 v 0.609375 h 4.675781 v 2.2148437 h 0.738282 v -2.8242187 z m -0.996094,-4.734375 v 0.609375 h 1.804688 V -5.9285 c 0,1.1367188 -0.832031,2.2265625 -2.027344,2.6484375 l 0.375,0.5976563 c 0.960938,-0.3515625 1.699219,-1.1015625 2.050781,-2.0273438 0.339844,0.84375 1.042969,1.5117188 1.945313,1.828125 l 0.375,-0.5742187 C 65.813969,-3.866 65.017094,-4.8855312 65.017094,-5.9285 v -0.3164062 h 1.78125 v -0.609375 z m 5.671875,-0.5625 v 2.1210937 H 66.55225 v 0.6210938 h 1.582031 v 2.109375 h 0.738282 v -4.8515625 z m 4.710938,2.578125 c -1.148438,0 -1.980469,0.7734375 -1.980469,1.8632812 0,1.1015625 0.832031,1.8632813 1.980469,1.8632813 1.136719,0 1.96875,-0.7617188 1.96875,-1.8632813 0,-1.0898437 -0.832031,-1.8632812 -1.96875,-1.8632812 z m 0,0.6210937 c 0.726562,0 1.265625,0.515625 1.265625,1.2421875 0,0.7382813 -0.539063,1.2421875 -1.265625,1.2421875 -0.738281,0 -1.277344,-0.5039062 -1.277344,-1.2421875 0,-0.7265625 0.539063,-1.2421875 1.277344,-1.2421875 z m 3.105469,-3.1992187 v 8.1210937 h 0.738281 v -4.1601562 h 1.324219 V -4.0769375 H 76.688969 V -7.4167812 Z M 72.4585,-7.3113125 V -6.116 h -2.050781 v 0.609375 h 4.78125 V -6.116 h -1.992188 v -1.1953125 z m 9.597656,1.2070313 v 2.6015625 h -2.25 V -6.1042812 Z M 82.782719,-5.366 h 1.851562 v 1.1132813 h -1.851562 z m 1.851562,-2.0390625 v 1.4179688 h -1.851562 v -0.7148438 h -3.703125 v 3.7851563 h 3.703125 v -0.7265625 h 1.851562 v 2.15625 h 0.738282 v -5.9179688 z m -4.464843,5.390625 v 2.53125 h 5.390625 v -0.609375 h -4.652344 v -1.921875 z M 6.3501016,3.54025 V 7.7355625 H 7.0766641 V 3.54025 Z m -4.4765625,7.429688 v 0.597656 h 5.4960937 v -0.597656 h -4.78125 V 10.10275 h 4.5 V 8.1574375 H 1.8501016 V 8.743375 h 4.5 V 9.54025 H 1.8735391 Z M 2.5532266,3.774625 v 0.6210938 c 0,1.171875 -0.8320313,2.2617187 -2.05078129,2.6835937 l 0.375,0.5859375 C 1.8383828,7.3136875 2.5766641,6.587125 2.9399453,5.6613438 3.3032266,6.5168125 4.0415078,7.1965 4.9790078,7.5129063 l 0.375,-0.5742188 C 4.1469766,6.54025 3.3032266,5.5207188 3.3032266,4.3957188 V 3.774625 Z M 14.869633,3.54025 v 8.121094 h 0.703125 V 3.54025 Z m -1.628906,0.1875 v 2.7304688 h -1.335938 v 0.609375 h 1.335938 v 4.1718752 h 0.703125 V 3.72775 Z M 8.8227578,4.4894688 v 0.609375 H 10.357914 V 5.837125 c 0,1.4765625 -0.6445312,2.9648438 -1.7578124,3.6445313 L 9.0571328,10.032438 C 9.8657266,9.5285313 10.439945,8.5793125 10.721195,7.47775 c 0.292969,1.0195313 0.832032,1.8984375 1.628907,2.3671875 L 12.795414,9.2941563 C 11.682133,8.649625 11.072758,7.243375 11.072758,5.837125 V 5.0988438 h 1.453125 v -0.609375 z m 11.0068362,3.890625 v 3.1640622 h 2.777344 V 8.3800938 H 21.92725 V 9.3410313 H 20.532719 V 8.3800938 Z M 20.532719,9.91525 h 1.394531 v 1.042969 h -1.394531 z m 3.972656,-6.375 v 4.4179688 h 0.738281 v -1.921875 h 1.195313 V 5.4035313 H 25.243656 V 3.54025 Z m -5.179687,0.4921875 v 0.609375 h 2.90625 C 22.11475,5.9425938 20.954594,6.9504063 18.974125,7.430875 L 19.243656,8.04025 C 21.622563,7.4543125 23.05225,6.0715 23.05225,4.0324375 Z m 4.734375,4.2539063 v 0.6796875 c 0,0.7734375 -0.457032,1.6640627 -1.40625,2.0859377 l 0.410156,0.574219 C 23.731938,11.3215 24.17725,10.759 24.423344,10.137906 24.669438,10.770719 25.11475,11.3215 25.771,11.626188 l 0.398438,-0.574219 C 25.243656,10.641813 24.774906,9.7394688 24.774906,8.9425938 v -0.65625 z M 33.095219,3.54025 v 8.121094 H 33.8335 V 3.54025 Z m -3.539063,0.6328125 c -1.195312,0 -2.0625,1.1015625 -2.0625,2.8242188 0,1.734375 0.867188,2.8359375 2.0625,2.8359375 1.195313,0 2.0625,-1.1015625 2.0625,-2.8359375 0,-1.7226563 -0.867187,-2.8242188 -2.0625,-2.8242188 z m 0,0.6679688 c 0.796875,0 1.335938,0.84375 1.335938,2.15625 0,1.3125 -0.539063,2.1679687 -1.335938,2.1679687 -0.796875,0 -1.335937,-0.8554687 -1.335937,-2.1679687 0,-1.3125 0.539062,-2.15625 1.335937,-2.15625 z m 8.72168,4.2890625 V 9.72775 h 4.851562 v 1.933594 h 0.75 V 9.1300938 Z M 39.168461,5.22775 h 3.925781 v 0.9375 h -3.925781 z m -0.738281,-1.5 v 3.046875 h 2.320312 v 0.9609375 h -3.292969 v 0.609375 h 7.324219 V 7.7355625 H 41.488773 V 6.774625 h 2.332032 V 3.72775 H 43.094242 V 4.6535313 H 39.168461 V 3.72775 Z m 9.867187,0.1523438 c -1.183594,0 -1.980469,0.5625 -1.980469,1.4179687 0,0.8554688 0.796875,1.40625 1.980469,1.40625 1.183594,0 1.992188,-0.5507812 1.992188,-1.40625 0,-0.8554687 -0.808594,-1.4179687 -1.992188,-1.4179687 z m 0,0.5507812 c 0.761719,0 1.289063,0.3398438 1.289063,0.8671875 0,0.515625 -0.527344,0.84375 -1.289063,0.84375 -0.761719,0 -1.289062,-0.328125 -1.289062,-0.84375 0,-0.5273437 0.527343,-0.8671875 1.289062,-0.8671875 z m -2.53125,3.4804688 c 0.65625,0 1.429688,-0.011719 2.238281,-0.035156 v 1.5585938 h 0.75 V 7.8293125 C 49.480961,7.7824375 50.24268,7.712125 50.945805,7.5949375 L 50.887211,7.055875 C 49.176273,7.2785313 47.160648,7.29025 45.660648,7.3019688 Z m 4.183594,0.4335937 V 8.884 h 1.652344 v 0.8320313 h 0.738281 V 3.5519688 h -0.738281 v 4.7929687 z m -3.140625,0.7617188 v 2.3671877 h 5.730469 V 10.864469 H 47.559086 V 9.1066563 Z M 59.852055,3.5519688 v 6.0585937 h 0.738281 V 3.5519688 Z m -5.753907,5.0390625 c 1.523438,0 3.433594,-0.058594 5.15625,-0.2929688 L 59.195808,7.7472813 C 58.504401,7.8293123 57.76612,7.8761875 57.027839,7.9113438 V 6.7980625 h 1.605469 V 6.2004063 H 55.469242 V 4.6886875 h 3.09375 V 4.0675938 h -3.84375 v 2.7304687 h 1.558594 V 7.9465 C 55.480961,7.958219 54.695805,7.981656 53.99268,7.981656 Z m 1.253907,0.6210937 v 2.261719 h 5.507812 V 10.864469 H 56.090336 V 9.212125 Z M 67.688969,3.54025 v 8.121094 h 0.75 V 7.3605625 h 1.324219 V 6.7394688 H 68.438969 V 3.54025 Z m -5.132813,0.796875 v 5.3085938 h 0.632813 c 1.523437,0 2.589844,-0.046875 3.84375,-0.2695313 l -0.09375,-0.6445312 c -1.183594,0.2226562 -2.214844,0.28125 -3.644531,0.28125 V 4.9465 h 3.023437 V 4.337125 Z m 8.695313,6.738281 c 0.328125,0 0.597656,-0.246093 0.597656,-0.621093 0,-0.375 -0.269531,-0.6210942 -0.597656,-0.6210942 -0.328125,0 -0.585938,0.2460942 -0.585938,0.6210942 0,0.375 0.257813,0.621093 0.585938,0.621093 z m 0,0"
         style="fill:#000000;fill-opacity:1;fill-rule:nonzero;stroke:none" />
      <path
         id="path53"
         d="m 4.6274453,27.871305 c 0,-0.304688 -0.2460937,-0.304688 -0.375,-0.304688 H 3.8540078 v -4.511719 c 0,-0.304687 -0.070312,-0.375 -0.375,-0.375 H 2.7993203 c -0.1289062,0 -0.375,0 -0.375,0.28125 0,0.292969 0.234375,0.292969 0.375,0.292969 h 0.3867188 v 1.371094 c -0.1875,-0.175781 -0.5507813,-0.386719 -1.03125,-0.386719 -0.9960938,0 -1.85156254,0.867188 -1.85156254,1.992188 0,1.101562 0.80859374,1.96875 1.76953124,1.96875 0.4101563,0 0.796875,-0.152344 1.1132813,-0.480469 0,0.28125 0,0.433594 0.375,0.433594 h 0.6914062 c 0.1171875,0 0.375,0 0.375,-0.28125 z M 3.1860391,26.406461 c 0,0.480469 -0.3984375,1.207031 -1.0664063,1.207031 -0.6210937,0 -1.14843749,-0.609375 -1.14843749,-1.382812 0,-0.808594 0.57421879,-1.40625 1.23046879,-1.40625 0.5390625,0 0.984375,0.46875 0.984375,0.949218 z m 5.6455078,1.464844 c 0,-0.304688 -0.2578125,-0.304688 -0.3867188,-0.304688 h -0.9375 v -2.90625 c 0,-0.292969 -0.070312,-0.375 -0.375,-0.375 H 5.8315469 c -0.140625,0 -0.3867188,0 -0.3867188,0.292969 0,0.292969 0.234375,0.292969 0.3867188,0.292969 h 1.0078125 v 2.695312 H 5.7495156 c -0.1289062,0 -0.375,0 -0.375,0.292969 0,0.292969 0.234375,0.292969 0.375,0.292969 h 2.6953125 c 0.1289063,0 0.3867188,0 0.3867188,-0.28125 z m -1.3125,-4.699219 c 0,-0.257813 -0.1992188,-0.457031 -0.4570313,-0.457031 -0.2460937,0 -0.4570312,0.199218 -0.4570312,0.457031 0,0.246094 0.2109375,0.457031 0.4570312,0.457031 0.2578125,0 0.4570313,-0.210937 0.4570313,-0.457031 z m 5.8095701,0.01172 c 0,-0.550782 -0.726562,-0.550782 -0.867187,-0.550782 -0.691407,0 -1.417969,0.386719 -1.417969,1.207032 v 0.445312 h -0.855469 c -0.140625,0 -0.3867186,0 -0.3867186,0.304688 0,0.28125 0.2460936,0.28125 0.3749996,0.28125 h 0.867188 v 2.695312 h -0.902344 c -0.128906,0 -0.3867186,0 -0.3867186,0.292969 0,0.292969 0.2460936,0.292969 0.3867186,0.292969 h 2.472656 c 0.128907,0 0.386719,0 0.386719,-0.28125 0,-0.304688 -0.246094,-0.304688 -0.386719,-0.304688 H 11.71143 v -2.695312 h 1.042968 c 0.128907,0 0.375,0 0.375,-0.28125 0,-0.304688 -0.234375,-0.304688 -0.375,-0.304688 H 11.71143 v -0.410156 c 0,-0.65625 0.550781,-0.667969 0.808593,-0.667969 0.03516,0.246094 0.222657,0.386719 0.410157,0.386719 0.164062,0 0.398437,-0.117188 0.398437,-0.410156 z m 4.708008,0 c 0,-0.550782 -0.726562,-0.550782 -0.867187,-0.550782 -0.691407,0 -1.417969,0.386719 -1.417969,1.207032 v 0.445312 H 14.896 c -0.140625,0 -0.386719,0 -0.386719,0.304688 0,0.28125 0.246094,0.28125 0.375,0.28125 h 0.867188 v 2.695312 h -0.902344 c -0.128906,0 -0.386719,0 -0.386719,0.292969 0,0.292969 0.246094,0.292969 0.386719,0.292969 h 2.472656 c 0.128907,0 0.386719,0 0.386719,-0.28125 0,-0.304688 -0.246094,-0.304688 -0.386719,-0.304688 h -0.902343 v -2.695312 h 1.042968 c 0.128907,0 0.375,0 0.375,-0.28125 0,-0.304688 -0.234375,-0.304688 -0.375,-0.304688 h -1.042968 v -0.410156 c 0,-0.65625 0.550781,-0.667969 0.808593,-0.667969 0.03516,0.246094 0.222657,0.386719 0.410157,0.386719 0.164062,0 0.398437,-0.117188 0.398437,-0.410156 z m 5.129883,5.414062 c 0,-0.28125 -0.246094,-0.28125 -0.375,-0.28125 h -1.347656 v -5.800781 h 1.347656 c 0.140625,0 0.375,0 0.375,-0.292969 0,-0.292969 -0.246094,-0.292969 -0.375,-0.292969 h -1.628906 c -0.292969,0 -0.375,0.07031 -0.375,0.375 v 6.210938 c 0,0.304687 0.07031,0.375 0.375,0.375 h 1.628906 c 0.140625,0 0.375,0 0.375,-0.292969 z m 4.49414,-0.726562 c 0,-0.304688 -0.257812,-0.304688 -0.386718,-0.304688 h -0.9375 v -2.90625 c 0,-0.292969 -0.07031,-0.375 -0.375,-0.375 h -1.300782 c -0.140625,0 -0.386718,0 -0.386718,0.292969 0,0.292969 0.234375,0.292969 0.386718,0.292969 h 1.007813 v 2.695312 h -1.089844 c -0.128906,0 -0.375,0 -0.375,0.292969 0,0.292969 0.234375,0.292969 0.375,0.292969 h 2.695313 c 0.128906,0 0.386718,0 0.386718,-0.28125 z m -1.3125,-4.699219 c 0,-0.257813 -0.199218,-0.457031 -0.457031,-0.457031 -0.246094,0 -0.457031,0.199218 -0.457031,0.457031 0,0.246094 0.210937,0.457031 0.457031,0.457031 0.257813,0 0.457031,-0.210937 0.457031,-0.457031 z m 4.637696,5.34375 v -6.210938 c 0,-0.292968 -0.07031,-0.375 -0.375,-0.375 h -1.628906 c -0.128907,0 -0.375,0 -0.375,0.292969 0,0.292969 0.234375,0.292969 0.375,0.292969 h 1.335937 v 5.800781 h -1.335937 c -0.128907,0 -0.375,0 -0.375,0.28125 0,0.292969 0.234375,0.292969 0.375,0.292969 h 1.628906 c 0.292969,0 0.375,-0.07031 0.375,-0.375 z m 11.044922,-3.09375 c 0,-0.339844 -0.339844,-0.339844 -0.445313,-0.339844 h -1.242187 v -1.253906 c 0,-0.09375 0,-0.433594 -0.328125,-0.433594 -0.339844,0 -0.339844,0.328125 -0.339844,0.433594 v 1.253906 h -1.242188 c -0.105468,0 -0.445312,0 -0.445312,0.328125 0,0.339844 0.339844,0.339844 0.445312,0.339844 h 1.242188 v 1.242187 c 0,0.105469 0,0.445313 0.328125,0.445313 0.339844,0 0.339844,-0.339844 0.339844,-0.445313 v -1.242187 h 1.242187 c 0.09375,0 0.445313,0 0.445313,-0.328125 z m 4.708007,-0.679688 c 0,-0.351562 -0.351562,-0.351562 -0.480468,-0.351562 h -3.082032 c -0.128906,0 -0.480468,0 -0.480468,0.351562 0,0.328125 0.328125,0.328125 0.421875,0.328125 h 3.199218 c 0.09375,0 0.421875,0 0.421875,-0.328125 z m 0,1.347657 c 0,-0.328125 -0.328125,-0.328125 -0.421875,-0.328125 H 43.11768 c -0.09375,0 -0.421875,0 -0.421875,0.328125 0,0.339843 0.351562,0.339843 0.480468,0.339843 h 3.082032 c 0.128906,0 0.480468,0 0.480468,-0.339843 z m 9.670899,1.78125 c 0,-0.304688 -0.246094,-0.304688 -0.375,-0.304688 h -0.398438 v -4.511719 c 0,-0.304687 -0.07031,-0.375 -0.375,-0.375 h -0.679687 c -0.128906,0 -0.375,0 -0.375,0.28125 0,0.292969 0.234375,0.292969 0.375,0.292969 h 0.386719 v 1.371094 c -0.1875,-0.175781 -0.550782,-0.386719 -1.03125,-0.386719 -0.996094,0 -1.851563,0.867188 -1.851563,1.992188 0,1.101562 0.808594,1.96875 1.769531,1.96875 0.410157,0 0.796875,-0.152344 1.113282,-0.480469 0,0.28125 0,0.433594 0.375,0.433594 h 0.691406 c 0.117187,0 0.375,0 0.375,-0.28125 z m -1.441406,-1.464844 c 0,0.480469 -0.398438,1.207031 -1.066407,1.207031 -0.621093,0 -1.148437,-0.609375 -1.148437,-1.382812 0,-0.808594 0.574219,-1.40625 1.230469,-1.40625 0.539062,0 0.984375,0.46875 0.984375,0.949218 z m 5.645507,1.464844 c 0,-0.304688 -0.257812,-0.304688 -0.386718,-0.304688 h -0.9375 v -2.90625 c 0,-0.292969 -0.07031,-0.375 -0.375,-0.375 h -1.300782 c -0.140625,0 -0.386718,0 -0.386718,0.292969 0,0.292969 0.234375,0.292969 0.386718,0.292969 h 1.007813 v 2.695312 h -1.089844 c -0.128906,0 -0.375,0 -0.375,0.292969 0,0.292969 0.234375,0.292969 0.375,0.292969 h 2.695313 c 0.128906,0 0.386718,0 0.386718,-0.28125 z m -1.3125,-4.699219 c 0,-0.257813 -0.199218,-0.457031 -0.457031,-0.457031 -0.246094,0 -0.457031,0.199218 -0.457031,0.457031 0,0.246094 0.210937,0.457031 0.457031,0.457031 0.257813,0 0.457031,-0.210937 0.457031,-0.457031 z m 5.809571,0.01172 c 0,-0.550782 -0.726563,-0.550782 -0.867188,-0.550782 -0.691406,0 -1.417968,0.386719 -1.417968,1.207032 v 0.445312 h -0.855469 c -0.140625,0 -0.386719,0 -0.386719,0.304688 0,0.28125 0.246094,0.28125 0.375,0.28125 h 0.867188 v 2.695312 h -0.902344 c -0.128906,0 -0.386719,0 -0.386719,0.292969 0,0.292969 0.246094,0.292969 0.386719,0.292969 H 64.396 c 0.128906,0 0.386719,0 0.386719,-0.28125 0,-0.304688 -0.246094,-0.304688 -0.386719,-0.304688 h -0.902344 v -2.695312 h 1.042969 c 0.128906,0 0.375,0 0.375,-0.28125 0,-0.304688 -0.234375,-0.304688 -0.375,-0.304688 h -1.042969 v -0.410156 c 0,-0.65625 0.550782,-0.667969 0.808594,-0.667969 0.03516,0.246094 0.222656,0.386719 0.410156,0.386719 0.164063,0 0.398438,-0.117188 0.398438,-0.410156 z m 4.705078,0 c 0,-0.550782 -0.726563,-0.550782 -0.867188,-0.550782 -0.691406,0 -1.417968,0.386719 -1.417968,1.207032 v 0.445312 h -0.855469 c -0.140625,0 -0.386719,0 -0.386719,0.304688 0,0.28125 0.246094,0.28125 0.375,0.28125 h 0.867188 v 2.695312 h -0.902344 c -0.128906,0 -0.386719,0 -0.386719,0.292969 0,0.292969 0.246094,0.292969 0.386719,0.292969 h 2.472656 c 0.128906,0 0.386719,0 0.386719,-0.28125 0,-0.304688 -0.246094,-0.304688 -0.386719,-0.304688 h -0.902344 v -2.695312 h 1.042969 c 0.128906,0 0.375,0 0.375,-0.28125 0,-0.304688 -0.234375,-0.304688 -0.375,-0.304688 h -1.042969 v -0.410156 c 0,-0.65625 0.550782,-0.667969 0.808594,-0.667969 0.03516,0.246094 0.222656,0.386719 0.410156,0.386719 0.164063,0 0.398438,-0.117188 0.398438,-0.410156 z m 5.129883,5.414062 c 0,-0.28125 -0.246094,-0.28125 -0.375,-0.28125 h -1.347657 v -5.800781 h 1.347657 c 0.140625,0 0.375,0 0.375,-0.292969 0,-0.292969 -0.246094,-0.292969 -0.375,-0.292969 h -1.628907 c -0.292968,0 -0.375,0.07031 -0.375,0.375 v 6.210938 c 0,0.304687 0.07031,0.375 0.375,0.375 h 1.628907 c 0.140625,0 0.375,0 0.375,-0.292969 z m 4.49707,-0.726562 c 0,-0.304688 -0.257812,-0.304688 -0.386719,-0.304688 h -0.9375 v -2.90625 c 0,-0.292969 -0.07031,-0.375 -0.375,-0.375 h -1.300781 c -0.140625,0 -0.386719,0 -0.386719,0.292969 0,0.292969 0.234375,0.292969 0.386719,0.292969 h 1.007813 v 2.695312 h -1.089844 c -0.128906,0 -0.375,0 -0.375,0.292969 0,0.292969 0.234375,0.292969 0.375,0.292969 h 2.695312 c 0.128907,0 0.386719,0 0.386719,-0.28125 z m -1.3125,-4.699219 c 0,-0.257813 -0.199219,-0.457031 -0.457031,-0.457031 -0.246094,0 -0.457031,0.199218 -0.457031,0.457031 0,0.246094 0.210937,0.457031 0.457031,0.457031 0.257812,0 0.457031,-0.210937 0.457031,-0.457031 z m 6.09082,2.25 c 0,-0.339844 -0.328125,-0.339844 -0.433593,-0.339844 h -2.824219 c -0.09375,0 -0.433594,0 -0.433594,0.328125 0,0.339844 0.328125,0.339844 0.433594,0.339844 h 2.824219 c 0.09375,0 0.433593,0 0.433593,-0.328125 z m 4.497071,2.449219 c 0,-0.304688 -0.222657,-0.304688 -0.375,-0.304688 H 87.546391 V 22.94943 c 0,-0.128907 0,-0.375 -0.28125,-0.375 -0.152344,0 -0.222657,0.08203 -0.28125,0.199218 -0.28125,0.632813 -0.632813,0.867188 -0.996094,0.902344 -0.128906,0 -0.328125,0.02344 -0.328125,0.292969 0,0.175781 0.09375,0.28125 0.316406,0.28125 0.351563,0 0.703125,-0.1875 0.914063,-0.363281 v 3.679687 h -0.796875 c -0.152344,0 -0.386719,0 -0.386719,0.304688 0,0.28125 0.246094,0.28125 0.386719,0.28125 h 2.25 c 0.140625,0 0.375,0 0.375,-0.28125 z m 3.46289,0.644531 V 22.3049 c 0,-0.292968 -0.07031,-0.375 -0.375,-0.375 H 90.17725 c -0.128906,0 -0.375,0 -0.375,0.292969 0,0.292969 0.234375,0.292969 0.375,0.292969 h 1.335938 v 5.800781 H 90.17725 c -0.128906,0 -0.375,0 -0.375,0.28125 0,0.292969 0.234375,0.292969 0.375,0.292969 h 1.628906 c 0.292969,0 0.375,-0.07031 0.375,-0.375 z m 4.883789,-3.65625 c 0,-0.328125 -0.269531,-0.574219 -0.5625,-0.574219 -0.328125,0 -0.574218,0.28125 -0.574218,0.5625 0,0.339844 0.28125,0.574219 0.5625,0.574219 0.339843,0 0.574218,-0.269531 0.574218,-0.5625 z m 0.04687,3.046875 c 0,-0.550781 -0.234375,-0.890625 -0.621093,-0.890625 -0.316407,0 -0.5625,0.246094 -0.5625,0.5625 0,0.210937 0.128906,0.550781 0.574218,0.574219 -0.08203,0.304687 -0.292968,0.550781 -0.5625,0.691406 -0.05859,0.02344 -0.199218,0.09375 -0.199218,0.257812 0,0.140625 0.140625,0.292969 0.304687,0.292969 0.199219,0 1.066406,-0.480469 1.066406,-1.488281 z m 0,0"
         style="fill:#000000;fill-opacity:1;fill-rule:nonzero;stroke:none" />
    </g>
  </g>
</svg>
