<?xml version="1.0" encoding="UTF-8" standalone="no"?>
<!-- Created with Inkscape (http://www.inkscape.org/) -->

<svg
   version="1.1"
   id="svg1"
   width="508.22668"
   height="259.01334"
   viewBox="0 0 508.22668 259.01334"
   sodipodi:docname="3.pdf"
   xmlns:inkscape="http://www.inkscape.org/namespaces/inkscape"
   xmlns:sodipodi="http://sodipodi.sourceforge.net/DTD/sodipodi-0.dtd"
   xmlns="http://www.w3.org/2000/svg"
   xmlns:svg="http://www.w3.org/2000/svg">
  <defs
     id="defs1" />
  <sodipodi:namedview
     id="namedview1"
     pagecolor="#ffffff"
     bordercolor="#000000"
     borderopacity="0.25"
     inkscape:showpageshadow="2"
     inkscape:pageopacity="0.0"
     inkscape:pagecheckerboard="0"
     inkscape:deskcolor="#d1d1d1">
    <inkscape:page
       x="0"
       y="0"
       inkscape:label="1"
       id="page1"
       width="508.22668"
       height="259.01334"
       margin="0"
       bleed="0" />
  </sodipodi:namedview>
  <g
     id="g1"
     inkscape:groupmode="layer"
     inkscape:label="1">
    <path
       id="path1"
       d="M -12.04738,-12.04738 H 12.04738 V 12.04738 H -12.04738 Z"
       style="fill:#ffffff;fill-opacity:1;fill-rule:nonzero;stroke:#666666;stroke-width:0.49814;stroke-linecap:butt;stroke-linejoin:miter;stroke-miterlimit:10;stroke-dasharray:none;stroke-opacity:1"
       transform="matrix(1.3333333,0,0,-1.3333333,58.638667,58.133333)" />
    <path
       id="path2"
       d="M 14.03162,-12.04738 H 38.12638 V 12.04738 H 14.03162 Z"
       style="fill:#ffffff;fill-opacity:1;fill-rule:nonzero;stroke:#666666;stroke-width:0.49814;stroke-linecap:butt;stroke-linejoin:miter;stroke-miterlimit:10;stroke-dasharray:none;stroke-opacity:1"
       transform="matrix(1.3333333,0,0,-1.3333333,58.638667,58.133333)" />
    <path
       id="path3"
       d="M 40.11063,-12.04738 H 64.20539 V 12.04738 H 40.11063 Z"
       style="fill:#ffffff;fill-opacity:1;fill-rule:nonzero;stroke:#666666;stroke-width:0.49814;stroke-linecap:butt;stroke-linejoin:miter;stroke-miterlimit:10;stroke-dasharray:none;stroke-opacity:1"
       transform="matrix(1.3333333,0,0,-1.3333333,58.638667,58.133333)" />
    <path
       id="path4"
       d="M 66.18964,-12.04738 H 90.2844 V 12.04738 H 66.18964 Z"
       style="fill:#ffffff;fill-opacity:1;fill-rule:nonzero;stroke:#666666;stroke-width:0.49814;stroke-linecap:butt;stroke-linejoin:miter;stroke-miterlimit:10;stroke-dasharray:none;stroke-opacity:1"
       transform="matrix(1.3333333,0,0,-1.3333333,58.638667,58.133333)" />
    <path
       id="path5"
       d="m 92.26866,-12.04738 h 24.09476 V 12.04738 H 92.26866 Z"
       style="fill:#ffffff;fill-opacity:1;fill-rule:nonzero;stroke:#666666;stroke-width:0.49814;stroke-linecap:butt;stroke-linejoin:miter;stroke-miterlimit:10;stroke-dasharray:none;stroke-opacity:1"
       transform="matrix(1.3333333,0,0,-1.3333333,58.638667,58.133333)" />
    <path
       id="path6"
       d="m 118.34767,-12.04738 h 24.09476 v 24.09476 h -24.09476 z"
       style="fill:#ffffff;fill-opacity:1;fill-rule:nonzero;stroke:#666666;stroke-width:0.49814;stroke-linecap:butt;stroke-linejoin:miter;stroke-miterlimit:10;stroke-dasharray:none;stroke-opacity:1"
       transform="matrix(1.3333333,0,0,-1.3333333,58.638667,58.133333)" />
    <path
       id="path7"
       d="m -12.04738,-38.12639 h 24.09476 v 24.09476 h -24.09476 z"
       style="fill:#ffffff;fill-opacity:1;fill-rule:nonzero;stroke:#666666;stroke-width:0.49814;stroke-linecap:butt;stroke-linejoin:miter;stroke-miterlimit:10;stroke-dasharray:none;stroke-opacity:1"
       transform="matrix(1.3333333,0,0,-1.3333333,58.638667,58.133333)" />
    <path
       id="path8"
       d="m 14.03162,-38.12639 h 24.09476 v 24.09476 H 14.03162 Z"
       style="fill:#ffffff;fill-opacity:1;fill-rule:nonzero;stroke:#666666;stroke-width:0.49814;stroke-linecap:butt;stroke-linejoin:miter;stroke-miterlimit:10;stroke-dasharray:none;stroke-opacity:1"
       transform="matrix(1.3333333,0,0,-1.3333333,58.638667,58.133333)" />
    <path
       id="path9"
       d="m 40.11063,-38.12639 h 24.09476 v 24.09476 H 40.11063 Z"
       style="fill:#ffffff;fill-opacity:1;fill-rule:nonzero;stroke:#666666;stroke-width:0.49814;stroke-linecap:butt;stroke-linejoin:miter;stroke-miterlimit:10;stroke-dasharray:none;stroke-opacity:1"
       transform="matrix(1.3333333,0,0,-1.3333333,58.638667,58.133333)" />
    <path
       id="path10"
       d="M 66.18964,-38.12639 H 90.2844 v 24.09476 H 66.18964 Z"
       style="fill:#ffffff;fill-opacity:1;fill-rule:nonzero;stroke:#666666;stroke-width:0.49814;stroke-linecap:butt;stroke-linejoin:miter;stroke-miterlimit:10;stroke-dasharray:none;stroke-opacity:1"
       transform="matrix(1.3333333,0,0,-1.3333333,58.638667,58.133333)" />
    <path
       id="path11"
       d="m 92.26866,-38.12639 h 24.09476 v 24.09476 H 92.26866 Z"
       style="fill:#ffffff;fill-opacity:1;fill-rule:nonzero;stroke:#666666;stroke-width:0.49814;stroke-linecap:butt;stroke-linejoin:miter;stroke-miterlimit:10;stroke-dasharray:none;stroke-opacity:1"
       transform="matrix(1.3333333,0,0,-1.3333333,58.638667,58.133333)" />
    <path
       id="path12"
       d="m 118.34767,-38.12639 h 24.09476 v 24.09476 h -24.09476 z"
       style="fill:#ffffff;fill-opacity:1;fill-rule:nonzero;stroke:#666666;stroke-width:0.49814;stroke-linecap:butt;stroke-linejoin:miter;stroke-miterlimit:10;stroke-dasharray:none;stroke-opacity:1"
       transform="matrix(1.3333333,0,0,-1.3333333,58.638667,58.133333)" />
    <path
       id="path13"
       d="m -12.04738,-64.2054 h 24.09476 v 24.09476 h -24.09476 z"
       style="fill:#ffffff;fill-opacity:1;fill-rule:nonzero;stroke:#666666;stroke-width:0.49814;stroke-linecap:butt;stroke-linejoin:miter;stroke-miterlimit:10;stroke-dasharray:none;stroke-opacity:1"
       transform="matrix(1.3333333,0,0,-1.3333333,58.638667,58.133333)" />
    <path
       id="path14"
       d="m 14.03162,-64.2054 h 24.09476 v 24.09476 H 14.03162 Z"
       style="fill:#ffffff;fill-opacity:1;fill-rule:nonzero;stroke:#666666;stroke-width:0.49814;stroke-linecap:butt;stroke-linejoin:miter;stroke-miterlimit:10;stroke-dasharray:none;stroke-opacity:1"
       transform="matrix(1.3333333,0,0,-1.3333333,58.638667,58.133333)" />
    <path
       id="path15"
       d="m 40.11063,-64.2054 h 24.09476 v 24.09476 H 40.11063 Z"
       style="fill:#ffffff;fill-opacity:1;fill-rule:nonzero;stroke:#666666;stroke-width:0.49814;stroke-linecap:butt;stroke-linejoin:miter;stroke-miterlimit:10;stroke-dasharray:none;stroke-opacity:1"
       transform="matrix(1.3333333,0,0,-1.3333333,58.638667,58.133333)" />
    <path
       id="path16"
       d="M 66.18964,-64.2054 H 90.2844 v 24.09476 H 66.18964 Z"
       style="fill:#ffffff;fill-opacity:1;fill-rule:nonzero;stroke:#666666;stroke-width:0.49814;stroke-linecap:butt;stroke-linejoin:miter;stroke-miterlimit:10;stroke-dasharray:none;stroke-opacity:1"
       transform="matrix(1.3333333,0,0,-1.3333333,58.638667,58.133333)" />
    <path
       id="path17"
       d="m 92.26866,-64.2054 h 24.09476 v 24.09476 H 92.26866 Z"
       style="fill:#ffffff;fill-opacity:1;fill-rule:nonzero;stroke:#666666;stroke-width:0.49814;stroke-linecap:butt;stroke-linejoin:miter;stroke-miterlimit:10;stroke-dasharray:none;stroke-opacity:1"
       transform="matrix(1.3333333,0,0,-1.3333333,58.638667,58.133333)" />
    <path
       id="path18"
       d="m 118.34767,-64.2054 h 24.09476 v 24.09476 h -24.09476 z"
       style="fill:#ffffff;fill-opacity:1;fill-rule:nonzero;stroke:#666666;stroke-width:0.49814;stroke-linecap:butt;stroke-linejoin:miter;stroke-miterlimit:10;stroke-dasharray:none;stroke-opacity:1"
       transform="matrix(1.3333333,0,0,-1.3333333,58.638667,58.133333)" />
    <path
       id="path19"
       d="m -12.04738,-90.28441 h 24.09476 v 24.09476 h -24.09476 z"
       style="fill:#ffffff;fill-opacity:1;fill-rule:nonzero;stroke:#666666;stroke-width:0.49814;stroke-linecap:butt;stroke-linejoin:miter;stroke-miterlimit:10;stroke-dasharray:none;stroke-opacity:1"
       transform="matrix(1.3333333,0,0,-1.3333333,58.638667,58.133333)" />
    <path
       id="path20"
       d="m 14.03162,-90.28441 h 24.09476 v 24.09476 H 14.03162 Z"
       style="fill:#ffffff;fill-opacity:1;fill-rule:nonzero;stroke:#666666;stroke-width:0.49814;stroke-linecap:butt;stroke-linejoin:miter;stroke-miterlimit:10;stroke-dasharray:none;stroke-opacity:1"
       transform="matrix(1.3333333,0,0,-1.3333333,58.638667,58.133333)" />
    <path
       id="path21"
       d="m 40.11063,-90.28441 h 24.09476 v 24.09476 H 40.11063 Z"
       style="fill:#ffffff;fill-opacity:1;fill-rule:nonzero;stroke:#666666;stroke-width:0.49814;stroke-linecap:butt;stroke-linejoin:miter;stroke-miterlimit:10;stroke-dasharray:none;stroke-opacity:1"
       transform="matrix(1.3333333,0,0,-1.3333333,58.638667,58.133333)" />
    <path
       id="path22"
       d="M 66.18964,-90.28441 H 90.2844 v 24.09476 H 66.18964 Z"
       style="fill:#ffffff;fill-opacity:1;fill-rule:nonzero;stroke:#666666;stroke-width:0.49814;stroke-linecap:butt;stroke-linejoin:miter;stroke-miterlimit:10;stroke-dasharray:none;stroke-opacity:1"
       transform="matrix(1.3333333,0,0,-1.3333333,58.638667,58.133333)" />
    <path
       id="path23"
       d="m 92.26866,-90.28441 h 24.09476 v 24.09476 H 92.26866 Z"
       style="fill:#ffffff;fill-opacity:1;fill-rule:nonzero;stroke:#666666;stroke-width:0.49814;stroke-linecap:butt;stroke-linejoin:miter;stroke-miterlimit:10;stroke-dasharray:none;stroke-opacity:1"
       transform="matrix(1.3333333,0,0,-1.3333333,58.638667,58.133333)" />
    <path
       id="path24"
       d="m 118.34767,-90.28441 h 24.09476 v 24.09476 h -24.09476 z"
       style="fill:#ffffff;fill-opacity:1;fill-rule:nonzero;stroke:#666666;stroke-width:0.49814;stroke-linecap:butt;stroke-linejoin:miter;stroke-miterlimit:10;stroke-dasharray:none;stroke-opacity:1"
       transform="matrix(1.3333333,0,0,-1.3333333,58.638667,58.133333)" />
    <path
       id="path25"
       d="m -12.04738,-116.36343 h 24.09476 v 24.09476 h -24.09476 z"
       style="fill:#ffffff;fill-opacity:1;fill-rule:nonzero;stroke:#666666;stroke-width:0.49814;stroke-linecap:butt;stroke-linejoin:miter;stroke-miterlimit:10;stroke-dasharray:none;stroke-opacity:1"
       transform="matrix(1.3333333,0,0,-1.3333333,58.638667,58.133333)" />
    <path
       id="path26"
       d="m 14.03162,-116.36343 h 24.09476 v 24.09476 H 14.03162 Z"
       style="fill:#ffffff;fill-opacity:1;fill-rule:nonzero;stroke:#666666;stroke-width:0.49814;stroke-linecap:butt;stroke-linejoin:miter;stroke-miterlimit:10;stroke-dasharray:none;stroke-opacity:1"
       transform="matrix(1.3333333,0,0,-1.3333333,58.638667,58.133333)" />
    <path
       id="path27"
       d="m 40.11063,-116.36343 h 24.09476 v 24.09476 H 40.11063 Z"
       style="fill:#ffffff;fill-opacity:1;fill-rule:nonzero;stroke:#666666;stroke-width:0.49814;stroke-linecap:butt;stroke-linejoin:miter;stroke-miterlimit:10;stroke-dasharray:none;stroke-opacity:1"
       transform="matrix(1.3333333,0,0,-1.3333333,58.638667,58.133333)" />
    <path
       id="path28"
       d="M 66.18964,-116.36343 H 90.2844 v 24.09476 H 66.18964 Z"
       style="fill:#ffffff;fill-opacity:1;fill-rule:nonzero;stroke:#666666;stroke-width:0.49814;stroke-linecap:butt;stroke-linejoin:miter;stroke-miterlimit:10;stroke-dasharray:none;stroke-opacity:1"
       transform="matrix(1.3333333,0,0,-1.3333333,58.638667,58.133333)" />
    <path
       id="path29"
       d="m 92.26866,-116.36343 h 24.09476 v 24.09476 H 92.26866 Z"
       style="fill:#ffffff;fill-opacity:1;fill-rule:nonzero;stroke:#666666;stroke-width:0.49814;stroke-linecap:butt;stroke-linejoin:miter;stroke-miterlimit:10;stroke-dasharray:none;stroke-opacity:1"
       transform="matrix(1.3333333,0,0,-1.3333333,58.638667,58.133333)" />
    <path
       id="path30"
       d="m 118.34767,-116.36343 h 24.09476 v 24.09476 h -24.09476 z"
       style="fill:#ffffff;fill-opacity:1;fill-rule:nonzero;stroke:#666666;stroke-width:0.49814;stroke-linecap:butt;stroke-linejoin:miter;stroke-miterlimit:10;stroke-dasharray:none;stroke-opacity:1"
       transform="matrix(1.3333333,0,0,-1.3333333,58.638667,58.133333)" />
    <path
       id="path31"
       d="m -12.04738,-142.44244 h 24.09476 v 24.09476 h -24.09476 z"
       style="fill:#ffffff;fill-opacity:1;fill-rule:nonzero;stroke:#666666;stroke-width:0.49814;stroke-linecap:butt;stroke-linejoin:miter;stroke-miterlimit:10;stroke-dasharray:none;stroke-opacity:1"
       transform="matrix(1.3333333,0,0,-1.3333333,58.638667,58.133333)" />
    <path
       id="path32"
       d="m 14.03162,-142.44244 h 24.09476 v 24.09476 H 14.03162 Z"
       style="fill:#ffffff;fill-opacity:1;fill-rule:nonzero;stroke:#666666;stroke-width:0.49814;stroke-linecap:butt;stroke-linejoin:miter;stroke-miterlimit:10;stroke-dasharray:none;stroke-opacity:1"
       transform="matrix(1.3333333,0,0,-1.3333333,58.638667,58.133333)" />
    <path
       id="path33"
       d="m 40.11063,-142.44244 h 24.09476 v 24.09476 H 40.11063 Z"
       style="fill:#ffffff;fill-opacity:1;fill-rule:nonzero;stroke:#666666;stroke-width:0.49814;stroke-linecap:butt;stroke-linejoin:miter;stroke-miterlimit:10;stroke-dasharray:none;stroke-opacity:1"
       transform="matrix(1.3333333,0,0,-1.3333333,58.638667,58.133333)" />
    <path
       id="path34"
       d="M 66.18964,-142.44244 H 90.2844 v 24.09476 H 66.18964 Z"
       style="fill:#ffffff;fill-opacity:1;fill-rule:nonzero;stroke:#666666;stroke-width:0.49814;stroke-linecap:butt;stroke-linejoin:miter;stroke-miterlimit:10;stroke-dasharray:none;stroke-opacity:1"
       transform="matrix(1.3333333,0,0,-1.3333333,58.638667,58.133333)" />
    <path
       id="path35"
       d="m 92.26866,-142.44244 h 24.09476 v 24.09476 H 92.26866 Z"
       style="fill:#ffffff;fill-opacity:1;fill-rule:nonzero;stroke:#666666;stroke-width:0.49814;stroke-linecap:butt;stroke-linejoin:miter;stroke-miterlimit:10;stroke-dasharray:none;stroke-opacity:1"
       transform="matrix(1.3333333,0,0,-1.3333333,58.638667,58.133333)" />
    <path
       id="path36"
       d="m 118.34767,-142.44244 h 24.09476 v 24.09476 h -24.09476 z"
       style="fill:#ffffff;fill-opacity:1;fill-rule:nonzero;stroke:#666666;stroke-width:0.49814;stroke-linecap:butt;stroke-linejoin:miter;stroke-miterlimit:10;stroke-dasharray:none;stroke-opacity:1"
       transform="matrix(1.3333333,0,0,-1.3333333,58.638667,58.133333)" />
    <path
       id="path37"
       d="m 1.9335391,0.09446875 c 0.9960937,0 1.59375,-0.92578125 1.59375,-2.60156245 0,-1.6523438 -0.5976563,-2.5546875 -1.59375,-2.5546875 -0.99609379,0 -1.58203129,0.890625 -1.58203129,2.5546875 0,1.6757812 0.5859375,2.60156245 1.58203129,2.60156245 z m 0,-0.515625 c -0.5742188,0 -0.97265629,-0.62109375 -0.97265629,-2.08593745 0,-1.453125 0.39843749,-2.0507813 0.97265629,-2.0507813 0.5859375,0 0.984375,0.5976563 0.984375,2.0507813 0,1.4648437 -0.3984375,2.08593745 -0.984375,2.08593745 z m 0,0"
       style="fill:#666666;fill-opacity:1;fill-rule:nonzero;stroke:none"
       aria-label="0"
       transform="matrix(1.3333333,0,0,1.3333333,56.058667,38.014667)" />
    <path
       id="path38"
       d="M 0.61039844,7.1875e-4 H 3.4228984 V -0.526625 h -1.03125 V -4.9680312 H 1.8994609 c -0.2695312,0.1640625 -0.5976562,0.28125 -1.05468746,0.3632812 v 0.4101563 H 1.7588359 V -0.526625 H 0.61039844 Z m 0,0"
       style="fill:#666666;fill-opacity:1;fill-rule:nonzero;stroke:none"
       aria-label="1"
       transform="matrix(1.3333333,0,0,1.3333333,90.830667,38.014667)" />
    <path
       id="path39"
       d="M 0.30385938,-0.00133594 H 3.5147969 V -0.55211719 H 2.0733906 c -0.2578125,0 -0.5625,0.0234375 -0.8320312,0.046875 1.171875,-1.23046871 2.0390625,-2.16796871 2.0390625,-3.10546871 0,-0.8789063 -0.5859375,-1.453125 -1.5,-1.453125 -0.6445313,0 -1.08984377,0.2929687 -1.50000002,0.75 l 0.36328125,0.3632812 c 0.29296875,-0.328125 0.64453127,-0.5976562 1.06640627,-0.5976562 0.6328125,0 0.9375,0.4101562 0.9375,0.9726562 0,0.8085938 -0.84375,1.7109375 -2.34375002,3.19921876 z m 0,0"
       style="fill:#666666;fill-opacity:1;fill-rule:nonzero;stroke:none"
       aria-label="2"
       transform="matrix(1.3333333,0,0,1.3333333,125.60267,38.076)" />
    <path
       id="path40"
       d="m 1.828375,0.09446875 c 0.9140625,0 1.6523438,-0.52734375 1.6523438,-1.41796875 0,-0.6796875 -0.4804688,-1.125 -1.078125,-1.265625 v -0.035156 c 0.5273437,-0.1875 0.9023437,-0.5742188 0.9023437,-1.1835938 0,-0.796875 -0.6328125,-1.2539062 -1.4882812,-1.2539062 -0.5859375,0 -1.0429688,0.2695312 -1.42968755,0.6210937 L 0.7268125,-4.04225 c 0.2929688,-0.2929687 0.65625,-0.5039062 1.0664063,-0.5039062 0.5390625,0 0.8671875,0.3046875 0.8671875,0.7851562 0,0.5273438 -0.3632813,0.9257813 -1.4179688,0.9257813 v 0.5039062 c 1.1835938,0 1.59375,0.3867188 1.59375,0.984375 0,0.5625 -0.4335937,0.9140625 -1.0429687,0.9140625 -0.5742188,0 -0.96093755,-0.28125 -1.26562505,-0.5859375 l -0.328125,0.41015625 C 0.5393125,-0.245375 1.0432188,0.09446875 1.828375,0.09446875 Z m 0,0"
       style="fill:#666666;fill-opacity:1;fill-rule:nonzero;stroke:none"
       aria-label="3"
       transform="matrix(1.3333333,0,0,1.3333333,160.37467,38.014667)" />
    <path
       id="path41"
       d="M 2.3685156,7.1875e-4 H 2.9661719 V -1.370375 H 3.6575781 V -1.886 H 2.9661719 V -4.9680312 H 2.2630469 L 0.14195313,-1.79225 v 0.421875 H 2.3685156 Z m 0,-1.88671875 H 0.79820313 L 1.9700781,-3.5852187 c 0.140625,-0.2460938 0.28125,-0.46875 0.4101563,-0.703125 h 0.023437 c -0.011719,0.2578125 -0.035156,0.703125 -0.035156,0.9492187 z m 0,0"
       style="fill:#666666;fill-opacity:1;fill-rule:nonzero;stroke:none"
       aria-label="4"
       transform="matrix(1.3333333,0,0,1.3333333,195.14667,38.014667)" />
    <path
       id="path42"
       d="m 1.8276016,0.09259375 c 0.8554687,0 1.6757812,-0.609375 1.6757812,-1.68749995 0,-1.0664063 -0.703125,-1.546875 -1.546875,-1.546875 -0.3046875,0 -0.5390625,0.070312 -0.7617187,0.1992187 L 1.3236953,-4.419125 h 1.921875 V -4.9699062 H 0.76119531 l -0.1640625,2.390625 0.33984375,0.2109375 c 0.29296874,-0.1875 0.51562504,-0.3046875 0.85546874,-0.3046875 0.6445313,0 1.0546875,0.4101562 1.0546875,1.1015625 0,0.6914062 -0.4804687,1.1367187 -1.078125,1.1367187 -0.5976562,0 -0.97265624,-0.28125 -1.26562499,-0.5742187 L 0.18697656,-0.58709375 C 0.53853906,-0.24725 1.0190078,0.09259375 1.8276016,0.09259375 Z m 0,0"
       style="fill:#666666;fill-opacity:1;fill-rule:nonzero;stroke:none"
       aria-label="5"
       transform="matrix(1.3333333,0,0,1.3333333,229.91867,37.954667)" />
    <path
       id="path43"
       d="m 1.9333438,0.09466406 c 0.9960937,0 1.59375,-0.92578125 1.59375,-2.60156246 0,-1.6523438 -0.5976563,-2.5546875 -1.59375,-2.5546875 -0.9960938,0 -1.5820313,0.890625 -1.5820313,2.5546875 0,1.67578121 0.5859375,2.60156246 1.5820313,2.60156246 z m 0,-0.515625 c -0.5742188,0 -0.9726563,-0.62109376 -0.9726563,-2.08593746 0,-1.453125 0.3984375,-2.0507813 0.9726563,-2.0507813 0.5859375,0 0.984375,0.5976563 0.984375,2.0507813 0,1.4648437 -0.3984375,2.08593746 -0.984375,2.08593746 z m 0,0"
       style="fill:#666666;fill-opacity:1;fill-rule:nonzero;stroke:none"
       aria-label="0"
       transform="matrix(1.3333333,0,0,1.3333333,32.625333,61.448)" />
    <path
       id="path44"
       d="m 0.609125,-9.375e-4 h 2.8125 V -0.52828125 H 2.390375 V -4.9696875 H 1.8981875 C 1.6286563,-4.805625 1.3005313,-4.6884375 0.8435,-4.6064062 V -4.19625 h 0.9140625 v 3.66796875 H 0.609125 Z m 0,0"
       style="fill:#666666;fill-opacity:1;fill-rule:nonzero;stroke:none"
       aria-label="1"
       transform="matrix(1.3333333,0,0,1.3333333,32.625333,96.22)" />
    <path
       id="path45"
       d="M 0.3044375,0.00101563 H 3.515375 V -0.54976562 H 2.0739688 c -0.2578125,0 -0.5625,0.0234375 -0.8320313,0.046875 C 2.4138125,-1.7333594 3.281,-2.6708594 3.281,-3.6083594 c 0,-0.8789062 -0.5859375,-1.453125 -1.5,-1.453125 -0.6445312,0 -1.08984375,0.2929688 -1.5,0.75 l 0.36328125,0.3632813 C 0.93725,-4.2763281 1.2888125,-4.5458594 1.7106875,-4.5458594 c 0.6328125,0 0.9375,0.4101563 0.9375,0.9726563 0,0.8085937 -0.84375,1.7109375 -2.34375,3.19921873 z m 0,0"
       style="fill:#666666;fill-opacity:1;fill-rule:nonzero;stroke:none"
       aria-label="2"
       transform="matrix(1.3333333,0,0,1.3333333,32.625333,131.05333)" />
    <path
       id="path46"
       d="m 1.827875,0.09496875 c 0.9140625,0 1.6523438,-0.52734375 1.6523438,-1.41796875 0,-0.6796875 -0.4804688,-1.125 -1.078125,-1.265625 v -0.035156 c 0.5273437,-0.1875 0.9023437,-0.5742188 0.9023437,-1.1835938 0,-0.796875 -0.6328125,-1.2539062 -1.4882812,-1.2539062 -0.5859375,0 -1.0429688,0.2695312 -1.42968755,0.6210937 L 0.7263125,-4.04175 c 0.2929688,-0.2929687 0.65625,-0.5039062 1.0664063,-0.5039062 0.5390625,0 0.8671875,0.3046875 0.8671875,0.7851562 0,0.5273438 -0.3632813,0.9257813 -1.4179688,0.9257813 v 0.5039062 c 1.1835938,0 1.59375,0.3867188 1.59375,0.984375 0,0.5625 -0.4335937,0.9140625 -1.0429687,0.9140625 -0.5742188,0 -0.96093755,-0.28125 -1.26562505,-0.5859375 l -0.328125,0.41015625 C 0.5388125,-0.244875 1.0427188,0.09496875 1.827875,0.09496875 Z m 0,0"
       style="fill:#666666;fill-opacity:1;fill-rule:nonzero;stroke:none"
       aria-label="3"
       transform="matrix(1.3333333,0,0,1.3333333,32.625333,165.764)" />
    <path
       id="path47"
       d="M 2.3669375,-6.328125e-4 H 2.9645938 V -1.3717266 H 3.656 v -0.515625 H 2.9645938 V -4.9693828 H 2.2614688 L 0.140375,-1.7936016 v 0.421875 h 2.2265625 z m 0,-1.8867187875 H 0.796625 L 1.9685,-3.5865703 c 0.140625,-0.2460938 0.28125,-0.46875 0.4101563,-0.703125 h 0.023437 c -0.011719,0.2578125 -0.035156,0.703125 -0.035156,0.9492187 z m 0,0"
       style="fill:#666666;fill-opacity:1;fill-rule:nonzero;stroke:none"
       aria-label="4"
       transform="matrix(1.3333333,0,0,1.3333333,32.625333,200.536)" />
    <path
       id="path48"
       d="m 1.827875,0.09232031 c 0.8554688,0 1.6757813,-0.609375 1.6757813,-1.68750001 0,-1.0664062 -0.703125,-1.546875 -1.546875,-1.546875 -0.3046875,0 -0.5390625,0.070312 -0.7617188,0.1992188 l 0.1289063,-1.4765625 h 1.921875 V -4.9701797 H 0.76146875 l -0.1640625,2.390625 0.33984375,0.2109375 c 0.2929688,-0.1875 0.515625,-0.3046875 0.8554688,-0.3046875 0.6445312,0 1.0546875,0.4101563 1.0546875,1.1015625 0,0.69140626 -0.4804688,1.13671876 -1.078125,1.13671876 -0.5976563,0 -0.9726563,-0.28125 -1.26562505,-0.57421876 L 0.18725,-0.58736719 c 0.3515625,0.33984375 0.8320313,0.6796875 1.640625,0.6796875 z m 0,0"
       style="fill:#666666;fill-opacity:1;fill-rule:nonzero;stroke:none"
       aria-label="5"
       transform="matrix(1.3333333,0,0,1.3333333,32.625333,235.248)" />
    <path
       id="path49"
       d="m 2.0749453,-5.0735781 c 0.609375,0 1.0664063,0.3984375 1.0664063,0.9609375 0,0.5625 -0.4570313,0.9609375 -1.0664063,0.9609375 -0.6210937,0 -1.07812499,-0.3984375 -1.07812499,-0.9609375 0,-0.5625 0.45703129,-0.9609375 1.07812499,-0.9609375 z m 1.546875,0.5273437 h 1.3359375 v 0.84375 H 3.6335391 c 0.035156,-0.1289062 0.058594,-0.2695312 0.058594,-0.4101562 0,-0.1523438 -0.023437,-0.3046875 -0.070313,-0.4335938 z m 1.3359375,-1.21875 v 0.7617188 h -1.59375 c -0.28125,-0.3398438 -0.7382812,-0.5507813 -1.2890625,-0.5507813 -0.9492187,0 -1.62890624,0.5859375 -1.62890624,1.4414063 0,0.84375 0.67968754,1.4414062 1.62890624,1.4414062 0.5507813,0 1.03125,-0.2109375 1.3125,-0.5742187 h 1.5703125 v 0.703125 h 0.5742188 v -3.2226563 z m -3.46875,5.75390628 v 0.46875 h 4.2773438 v -0.46875 h -3.703125 v -0.6796875 h 3.46875 V -2.2142031 H 1.4772891 v 0.46875 h 3.4804687 v 0.6210937 h -3.46875 z m 0,0"
       style="fill:#595959;fill-opacity:1;fill-rule:nonzero;stroke:none"
       aria-label="열"
       transform="matrix(1.3333333,0,0,1.3333333,141.292,22.741333)" />
    <path
       id="path50"
       d="m 1.9218906,-4.2304531 c -0.796875,0 -1.34765622,0.4335937 -1.34765622,1.0898437 0,0.65625 0.55078122,1.0664063 1.34765622,1.0664063 0.7851563,0 1.3359375,-0.4101563 1.3359375,-1.0664063 0,-0.65625 -0.5507812,-1.0898437 -1.3359375,-1.0898437 z m 0,0.4335937 c 0.4804688,0 0.8203125,0.2578125 0.8203125,0.65625 0,0.3867188 -0.3398437,0.6445313 -0.8203125,0.6445313 -0.4921875,0 -0.8320312,-0.2578125 -0.8320312,-0.6445313 0,-0.3984375 0.3398437,-0.65625 0.8320312,-0.65625 z m 1.6640625,2.1328125 c -1.3125,0 -2.0976562,0.3984375 -2.0976562,1.10156253 0,0.69140625 0.7851562,1.08984375 2.0976562,1.08984375 1.3242188,0 2.109375,-0.3984375 2.109375,-1.08984375 0,-0.70312503 -0.7851562,-1.10156253 -2.109375,-1.10156253 z m 0,0.4453125 c 0.9726563,0 1.5351563,0.23437503 1.5351563,0.65625003 0,0.41015625 -0.5625,0.64453125 -1.5351563,0.64453125 -0.9609375,0 -1.5234375,-0.234375 -1.5234375,-0.64453125 0,-0.421875 0.5625,-0.65625003 1.5234375,-0.65625003 z m 0.1757813,-4.4179687 v 3.6328125 h 0.5390625 v -1.5703125 h 0.8085937 v 1.7929687 h 0.5507813 v -3.984375 H 5.1093906 v 1.7109375 H 4.3007969 v -1.5820312 z m -2.1328125,-0.082031 v 0.703125 H 0.31642188 v 0.4570313 H 3.5039219 V -5.0156094 H 2.2031406 v -0.703125 z m 0,0"
       style="fill:#595959;fill-opacity:1;fill-rule:nonzero;stroke:none"
       aria-label="행"
       transform="matrix(1.3333333,0,0,1.3333333,15.054667,148.55467)" />
    <path
       id="path51"
       d="M 14.3496,-14.3496 V -89.96643 H 116.04546 V -14.3496 Z"
       style="fill:none;stroke:#000000;stroke-width:0.84683;stroke-linecap:butt;stroke-linejoin:miter;stroke-miterlimit:10;stroke-dasharray:2.98883, 2.98883;stroke-dashoffset:0;stroke-opacity:1"
       transform="matrix(1.3333333,0,0,-1.3333333,58.638667,58.133333)" />
    <path
       id="path52"
       d="m 38.12639,-26.079 c 0,6.65366 -5.39372,12.04738 -12.04739,12.04738 -6.65366,0 -12.04738,-5.39372 -12.04738,-12.04738 0,-6.65367 5.39372,-12.04739 12.04738,-12.04739 6.65367,0 12.04739,5.39372 12.04739,12.04739 z"
       style="fill:#dbdbdb;fill-opacity:1;fill-rule:nonzero;stroke:#000000;stroke-width:0.84683;stroke-linecap:butt;stroke-linejoin:miter;stroke-miterlimit:10;stroke-dasharray:none;stroke-opacity:1"
       transform="matrix(1.3333333,0,0,-1.3333333,58.638667,58.133333)" />
    <path
       id="path53"
       d="m 3.2213516,-1.5705703 h 2.1445312 c 0.082031,0 0.2578125,0 0.2578125,-0.1757813 0,-0.1757812 -0.1640625,-0.1757812 -0.2578125,-0.1757812 H 3.2213516 v -2.1328125 c 0,-0.09375 0,-0.2578125 -0.1640625,-0.2578125 -0.1757813,0 -0.1757813,0.1523437 -0.1757813,0.2578125 v 2.1328125 H 0.74869531 c -0.09375,0 -0.2578125,0 -0.2578125,0.1757812 0,0.1757813 0.15234375,0.1757813 0.2578125,0.1757813 H 2.8815078 v 2.13281249 c 0,0.09375 0,0.2578125 0.1757813,0.2578125 0.1640625,0 0.1640625,-0.15234375 0.1640625,-0.2578125 z m 5.2265625,-2.859375 c 0,-0.1875 -0.011719,-0.1992188 -0.2109375,-0.1992188 -0.4453125,0.4335938 -1.078125,0.4453125 -1.359375,0.4453125 v 0.2460938 c 0.1640625,0 0.6210937,0 1.0078125,-0.1875 v 3.55078124 c 0,0.234375 0,0.328125 -0.6914063,0.328125 H 6.9244766 V -2.578125e-4 C 7.0533828,-0.01197656 7.9088516,-0.02369531 8.1666641,-0.02369531 c 0.2109375,0 1.0898437,0.01171875 1.2421875,0.0234374975 V -0.24635156 H 9.1510391 c -0.703125,0 -0.703125,-0.09375 -0.703125,-0.328125 z m 0,0"
       style="fill:#000000;fill-opacity:1;fill-rule:nonzero;stroke:none"
       aria-label="+1"
       transform="matrix(1.3333333,0,0,1.3333333,86.685333,95.348)" />
    <path
       id="path54"
       d="m 142.44244,-26.079 c 0,6.65366 -5.39372,12.04738 -12.04739,12.04738 -6.65365,0 -12.04738,-5.39372 -12.04738,-12.04738 0,-6.65367 5.39373,-12.04739 12.04738,-12.04739 6.65367,0 12.04739,5.39372 12.04739,12.04739 z"
       style="fill:#dbdbdb;fill-opacity:1;fill-rule:nonzero;stroke:#000000;stroke-width:0.84683;stroke-linecap:butt;stroke-linejoin:miter;stroke-miterlimit:10;stroke-dasharray:none;stroke-opacity:1"
       transform="matrix(1.3333333,0,0,-1.3333333,58.638667,58.133333)" />
    <g
       id="g54"
       aria-label="−1"
       transform="matrix(1.3333333,0,0,1.3333333,225.7,95.348)">
      <path
         id="path55"
         d="m 5.1908203,-1.5705703 c 0.1054688,0 0.2695313,0 0.2695313,-0.1757813 0,-0.1757812 -0.1523438,-0.1757812 -0.2695313,-0.1757812 H 1.0306641 c -0.10546879,0 -0.28125004,0 -0.28125004,0.1757812 0,0.1757813 0.1640625,0.1757813 0.28125004,0.1757813 z m 0,0"
         style="fill:#000000;fill-opacity:1;fill-rule:nonzero;stroke:none" />
      <path
         id="path56"
         d="m 8.5570313,-4.4299453 c 0,-0.1875 -0.011719,-0.1992188 -0.2109375,-0.1992188 -0.4453125,0.4335938 -1.078125,0.4453125 -1.359375,0.4453125 v 0.2460938 c 0.1640625,0 0.6210937,0 1.0078125,-0.1875 v 3.55078124 c 0,0.234375 0,0.328125 -0.6914063,0.328125 H 7.0335938 V -2.578125e-4 C 7.1625,-0.01197656 8.0179688,-0.02369531 8.2757813,-0.02369531 c 0.2109375,0 1.0898437,0.01171875 1.2421875,0.0234374975 V -0.24635156 H 9.2601563 c -0.703125,0 -0.703125,-0.09375 -0.703125,-0.328125 z m 0,0"
         style="fill:#000000;fill-opacity:1;fill-rule:nonzero;stroke:none" />
    </g>
    <path
       id="path57"
       d="m 38.12639,-104.31604 c 0,6.65366 -5.39372,12.04738 -12.04739,12.04738 -6.65366,0 -12.04738,-5.39372 -12.04738,-12.04738 0,-6.65367 5.39372,-12.04739 12.04738,-12.04739 6.65367,0 12.04739,5.39372 12.04739,12.04739 z"
       style="fill:#dbdbdb;fill-opacity:1;fill-rule:nonzero;stroke:#000000;stroke-width:0.84683;stroke-linecap:butt;stroke-linejoin:miter;stroke-miterlimit:10;stroke-dasharray:none;stroke-opacity:1"
       transform="matrix(1.3333333,0,0,-1.3333333,58.638667,58.133333)" />
    <g
       id="g57"
       aria-label="−1"
       transform="matrix(1.3333333,0,0,1.3333333,86.612,199.664)">
      <path
         id="path58"
         d="m 5.1923672,-1.5702656 c 0.1054687,0 0.2695312,0 0.2695312,-0.1757813 0,-0.1757812 -0.1523437,-0.1757812 -0.2695312,-0.1757812 H 1.0322109 c -0.10546871,0 -0.28124996,0 -0.28124996,0.1757812 0,0.1757813 0.1640625,0.1757813 0.28124996,0.1757813 z m 0,0"
         style="fill:#000000;fill-opacity:1;fill-rule:nonzero;stroke:none" />
      <path
         id="path59"
         d="m 8.5585781,-4.4296406 c 0,-0.1875 -0.011719,-0.1992188 -0.2109375,-0.1992188 -0.4453125,0.4335938 -1.078125,0.4453125 -1.359375,0.4453125 v 0.2460938 c 0.1640625,0 0.6210938,0 1.0078125,-0.1875 v 3.55078123 c 0,0.234375 0,0.328125 -0.6914062,0.328125 H 7.0351406 V 4.6875e-5 c 0.1289063,-0.011718745 0.984375,-0.023437495 1.2421875,-0.023437495 0.2109375,0 1.0898438,0.01171875 1.2421875,0.023437495 V -0.24604687 H 9.2617031 c -0.703125,0 -0.703125,-0.09375 -0.703125,-0.328125 z m 0,0"
         style="fill:#000000;fill-opacity:1;fill-rule:nonzero;stroke:none" />
    </g>
    <path
       id="path60"
       d="m 142.44244,-104.31604 c 0,6.65366 -5.39372,12.04738 -12.04739,12.04738 -6.65365,0 -12.04738,-5.39372 -12.04738,-12.04738 0,-6.65367 5.39373,-12.04739 12.04738,-12.04739 6.65367,0 12.04739,5.39372 12.04739,12.04739 z"
       style="fill:#dbdbdb;fill-opacity:1;fill-rule:nonzero;stroke:#000000;stroke-width:0.84683;stroke-linecap:butt;stroke-linejoin:miter;stroke-miterlimit:10;stroke-dasharray:none;stroke-opacity:1"
       transform="matrix(1.3333333,0,0,-1.3333333,58.638667,58.133333)" />
    <path
       id="path61"
       d="m 3.2227344,-1.5702656 h 2.1445312 c 0.082031,0 0.2578125,0 0.2578125,-0.1757813 0,-0.1757812 -0.1640625,-0.1757812 -0.2578125,-0.1757812 H 3.2227344 v -2.1328125 c 0,-0.09375 0,-0.2578125 -0.1640625,-0.2578125 -0.1757813,0 -0.1757813,0.1523437 -0.1757813,0.2578125 v 2.1328125 H 0.75007813 c -0.09375,0 -0.2578125,0 -0.2578125,0.1757812 0,0.1757813 0.15234375,0.1757813 0.2578125,0.1757813 H 2.8828906 v 2.13281248 c 0,0.09375 0,0.2578125 0.1757813,0.2578125 0.1640625,0 0.1640625,-0.15234375 0.1640625,-0.2578125 z m 5.2265625,-2.859375 c 0,-0.1875 -0.011719,-0.1992188 -0.2109375,-0.1992188 -0.4453125,0.4335938 -1.078125,0.4453125 -1.359375,0.4453125 v 0.2460938 c 0.1640625,0 0.6210937,0 1.0078125,-0.1875 v 3.55078123 c 0,0.234375 0,0.328125 -0.6914063,0.328125 H 6.9258594 V 4.6875e-5 c 0.1289062,-0.011718745 0.984375,-0.023437495 1.2421875,-0.023437495 0.2109375,0 1.0898437,0.01171875 1.2421875,0.023437495 V -0.24604687 H 9.1524219 c -0.703125,0 -0.703125,-0.09375 -0.703125,-0.328125 z m 0,0"
       style="fill:#000000;fill-opacity:1;fill-rule:nonzero;stroke:none"
       aria-label="+1"
       transform="matrix(1.3333333,0,0,1.3333333,225.77333,199.664)" />
    <path
       id="path62"
       d="M 327.02972,-21.26018 H 186.44606 c -1.10048,0 -1.99256,-0.89207 -1.99256,-1.99255 v -83.89002 c 0,-1.10046 0.89208,-1.99255 1.99256,-1.99255 h 140.58366 c 1.10048,0 1.99256,0.89209 1.99256,1.99255 v 83.89002 c 0,1.10048 -0.89208,1.99255 -1.99256,1.99255 z"
       style="fill:#fcfcfc;fill-opacity:1;fill-rule:nonzero;stroke:#c7c7c7;stroke-width:0.3985;stroke-linecap:butt;stroke-linejoin:miter;stroke-miterlimit:10;stroke-dasharray:none;stroke-opacity:1"
       transform="matrix(1.3333333,0,0,-1.3333333,58.638667,58.133333)" />
    <g
       id="g62"
       aria-label="사각형영역에+1&#10;board[x1][y1]+=1;&#10;board[x1][y2+1]-=1;&#10;board[x2+1][y1]-=1;&#10;board[x2+1][y2+1]+=1;"
       transform="matrix(1.3333333,0,0,1.3333333,328.776,116.82933)">
      <path
         id="path63"
         d="m 2.4267891,-6.71575 v 1.453125 c 0,1.4882813 -0.9140625,3.0351563 -2.09765629,3.6328125 l 0.45703125,0.5976563 c 0.91406254,-0.4804688 1.66406254,-1.5 2.01562504,-2.6835938 0.3632812,1.1132813 1.0898437,2.0625 1.96875,2.5195313 l 0.4570312,-0.5859375 c -1.1484375,-0.5742188 -2.0625,-2.0507813 -2.0625,-3.4804688 V -6.71575 Z m 3.5039062,-0.703125 v 8.12109375 h 0.75 V -3.4930937 H 8.0049141 V -4.137625 H 6.6806953 v -3.28125 z m 3.7822266,5.1328125 v 0.609375 h 4.5351561 v 2.37890625 h 0.738281 V -2.2860625 Z M 14.248078,-7.418875 v 4.7578125 h 0.738281 v -2.0742187 h 1.195313 V -5.356375 h -1.195313 v -2.0625 z m -5.2031249,0.5273438 v 0.5976562 h 2.9296879 c -0.128907,1.359375 -1.324219,2.4375 -3.2929691,2.9648438 l 0.3046875,0.5859375 C 11.353547,-3.3759062 12.771516,-4.84075 12.771516,-6.8915312 Z m 10.2070309,1.3828125 c -1.089843,0 -1.828125,0.609375 -1.828125,1.5117187 0,0.9023438 0.738282,1.5 1.828125,1.5 1.078125,0 1.839844,-0.5976562 1.839844,-1.5 0,-0.9023437 -0.761719,-1.5117187 -1.839844,-1.5117187 z m 0,0.5742187 c 0.679688,0 1.148438,0.375 1.148438,0.9375 0,0.5625 -0.46875,0.9257813 -1.148438,0.9257813 -0.679687,0 -1.136718,-0.3632813 -1.136718,-0.9257813 0,-0.5625 0.457031,-0.9375 1.136718,-0.9375 z m 1.710938,2.8476563 c -1.6875,0 -2.707031,0.5039062 -2.707031,1.38281245 0,0.87890625 1.019531,1.3828125 2.707031,1.3828125 1.675781,0 2.695312,-0.50390625 2.695312,-1.3828125 0,-0.87890625 -1.019531,-1.38281245 -2.695312,-1.38281245 z m 0,0.5742187 c 1.195312,0 1.921875,0.2929688 1.921875,0.80859375 0,0.515625 -0.726563,0.80859375 -1.921875,0.80859375 -1.207031,0 -1.933594,-0.29296875 -1.933594,-0.80859375 0,-0.51562495 0.726563,-0.80859375 1.933594,-0.80859375 z m 1.910156,-5.90625 v 1.9453125 h -1.371094 v 0.609375 h 1.371094 v 0.9726563 h -1.382812 v 0.609375 h 1.382812 v 1.1015625 h 0.738281 V -7.418875 Z m -3.984375,-0.070312 v 0.9726563 h -1.933594 v 0.5976562 h 4.546875 v -0.5976562 h -1.875 V -7.489187 Z m 10.517578,1.1953125 c 0.796875,0 1.371094,0.5273438 1.371094,1.2890625 0,0.75 -0.574219,1.2890625 -1.371094,1.2890625 -0.796875,0 -1.382812,-0.5390625 -1.382812,-1.2890625 0,-0.7617187 0.585937,-1.2890625 1.382812,-1.2890625 z m 1.78125,3.8671875 c -1.664062,0 -2.695312,0.5742188 -2.695312,1.55859375 0,0.97265625 1.03125,1.546875 2.695312,1.546875 1.675782,0 2.707032,-0.57421875 2.707032,-1.546875 0,-0.98437495 -1.03125,-1.55859375 -2.707032,-1.55859375 z m 0,0.5859375 c 1.230469,0 1.980469,0.3632813 1.980469,0.97265625 0,0.59765625 -0.75,0.9609375 -1.980469,0.9609375 -1.21875,0 -1.96875,-0.36328125 -1.96875,-0.9609375 0,-0.60937495 0.75,-0.97265625 1.96875,-0.97265625 z m 0.199219,-3.796875 h 1.734375 V -4.372 H 31.38675 c 0.07031,-0.1992187 0.105469,-0.4101562 0.105469,-0.6328125 0,-0.2226562 -0.03516,-0.4335937 -0.105469,-0.632812 z m 1.734375,-1.78125 v 1.1835938 h -2.085937 c -0.375,-0.4335938 -0.949219,-0.6914063 -1.628907,-0.6914063 -1.195312,0 -2.085937,0.796875 -2.085937,1.921875 0,1.1367188 0.890625,1.9335938 2.085937,1.9335938 0.679688,0 1.253907,-0.2695313 1.628907,-0.6914063 h 2.085937 v 1.1484375 h 0.738281 v -4.804688 z m 3.574219,5.2265625 v 0.609375 h 4.675781 v 2.28515625 h 0.738281 V -2.1923125 Z m 0.960937,-4.125 c 0.785157,0 1.371094,0.5390625 1.371094,1.3007813 0,0.7851562 -0.585937,1.3242187 -1.371094,1.3242187 -0.796875,0 -1.382812,-0.5390625 -1.382812,-1.3242187 0,-0.7617188 0.585937,-1.3007813 1.382812,-1.3007813 z m 3.714844,0.703125 v 1.2070313 h -1.722656 c 0.05859,-0.1875 0.09375,-0.3867188 0.09375,-0.609375 0,-0.2109375 -0.03516,-0.4101563 -0.09375,-0.5976563 z m -3.714844,-1.3476562 c -1.195312,0 -2.085937,0.8085937 -2.085937,1.9453125 0,1.1484375 0.890625,1.9570312 2.085937,1.9570312 0.703125,0 1.289063,-0.28125 1.664063,-0.7382812 h 2.050781 v 1.1601562 h 0.738281 v -4.78125 h -0.738281 v 1.1953125 h -2.050781 c -0.375,-0.4570312 -0.960938,-0.7382812 -1.664063,-0.7382812 z M 49.867219,-7.418875 v 8.12109375 h 0.726562 V -7.418875 Z m -4.347656,1.3710938 c 0.644531,0 1.042968,0.8203125 1.042968,2.1328125 0,1.3125 -0.398437,2.1328125 -1.042968,2.1328125 -0.632813,0 -1.03125,-0.8203125 -1.03125,-2.1328125 0,-1.3125 0.398437,-2.1328125 1.03125,-2.1328125 z m 0,-0.6914063 c -1.042969,0 -1.722657,1.0898438 -1.722657,2.8242188 0,1.734375 0.679688,2.8242187 1.722657,2.8242187 0.996093,0 1.664062,-0.9726562 1.722656,-2.5546875 h 1.019531 v 3.92578125 h 0.703125 V -7.2430937 H 48.26175 v 2.9882812 h -1.019531 c -0.08203,-1.5351562 -0.738281,-2.484375 -1.722656,-2.484375 z m 0,0"
         style="fill:#000000;fill-opacity:1;fill-rule:nonzero;stroke:none" />
      <path
         id="path64"
         d="m 57.882844,-2.731375 c 0,-0.3398437 -0.339844,-0.3398437 -0.445313,-0.3398437 H 56.195344 V -4.325125 c 0,-0.09375 0,-0.4335937 -0.328125,-0.4335937 -0.339844,0 -0.339844,0.328125 -0.339844,0.4335937 v 1.2539063 h -1.242187 c -0.105469,0 -0.445313,0 -0.445313,0.328125 0,0.3398437 0.339844,0.3398437 0.445313,0.3398437 h 1.242187 v 1.2421875 c 0,0.1054688 0,0.4453125 0.328125,0.4453125 0.339844,0 0.339844,-0.3398437 0.339844,-0.4453125 V -2.40325 h 1.242187 c 0.09375,0 0.445313,0 0.445313,-0.328125 z m 4.321289,2.44921875 c 0,-0.3046875 -0.222656,-0.3046875 -0.375,-0.3046875 H 61.032258 V -5.2040312 c 0,-0.1289063 0,-0.375 -0.28125,-0.375 -0.152344,0 -0.222656,0.082031 -0.28125,0.1992187 -0.28125,0.6328125 -0.632813,0.8671875 -0.996094,0.9023438 -0.128906,0 -0.328125,0.023437 -0.328125,0.2929687 0,0.1757813 0.09375,0.28125 0.316406,0.28125 0.351563,0 0.703125,-0.1875 0.914063,-0.3632812 v 3.67968745 h -0.796875 c -0.152344,0 -0.386719,0 -0.386719,0.3046875 0,0.28125 0.246094,0.28125 0.386719,0.28125 h 2.25 c 0.140625,0 0.375,0 0.375,-0.28125 z M 4.3955391,12.995188 c 0,-1.066407 -0.7734375,-1.980469 -1.78125,-1.980469 -0.421875,0 -0.796875,0.152344 -1.1015625,0.421875 V 9.831125 c 0,-0.3046875 -0.082031,-0.375 -0.3867188,-0.375 H 0.44632031 c -0.1171875,0 -0.375,0 -0.375,0.28125 0,0.292969 0.24609375,0.292969 0.375,0.292969 h 0.3984375 v 4.511719 c 0,0.175781 0,0.386718 0.32812499,0.386718 0.3398438,0 0.3398438,-0.210937 0.3398438,-0.386718 0.2695312,0.269531 0.6210937,0.433593 1.0195312,0.433593 0.9960938,0 1.8632813,-0.855468 1.8632813,-1.980468 z m -0.6679688,0 c 0,0.796875 -0.5742187,1.394531 -1.2304687,1.394531 -0.6445313,0 -0.984375,-0.726563 -0.984375,-1.195313 v -0.621093 c 0,-0.527344 0.5273437,-0.972657 1.0664062,-0.972657 0.6210938,0 1.1484375,0.609375 1.1484375,1.394532 z m 5.1855469,0 c 0,-1.113282 -0.84375,-2.003907 -1.8632813,-2.003907 -1.0078125,0 -1.8515625,0.890625 -1.8515625,2.003907 0,1.113281 0.8554688,1.980468 1.8515625,1.980468 1.0078125,0 1.8632813,-0.867187 1.8632813,-1.980468 z m -0.6679688,-0.07031 c 0,0.808594 -0.5390625,1.464844 -1.1953125,1.464844 -0.6445312,0 -1.1835937,-0.65625 -1.1835937,-1.464844 0,-0.796875 0.5742187,-1.347656 1.1835937,-1.347656 0.6328125,0 1.1953125,0.550781 1.1953125,1.347656 z m 5.8212896,1.710938 c 0,-0.292969 -0.246094,-0.292969 -0.386719,-0.292969 -0.128906,0 -0.316406,0 -0.492188,-0.05859 v -1.886719 c 0,-0.703125 -0.539062,-1.40625 -1.792968,-1.40625 -0.410157,0 -1.3125,0 -1.3125,0.679688 0,0.257812 0.1875,0.410156 0.410156,0.410156 0.140625,0 0.421875,-0.04687 0.421875,-0.480469 0.246094,-0.02344 0.410156,-0.02344 0.492187,-0.02344 0.703125,0 1.113282,0.292969 1.113282,0.84375 -1.488282,0.01172 -2.6718755,0.433594 -2.6718755,1.3125 0,0.679687 0.6210935,1.242187 1.4882815,1.242187 0.105469,0 0.785156,0 1.265625,-0.351562 0.222656,0.304687 0.703125,0.304687 0.996094,0.304687 0.257812,0 0.46875,0 0.46875,-0.292968 z m -1.546875,-0.972657 c 0,0.210938 0,0.398438 -0.351563,0.574219 -0.328125,0.152344 -0.726562,0.152344 -0.761719,0.152344 -0.527343,0 -0.902343,-0.292969 -0.902343,-0.65625 0,-0.433594 0.914062,-0.738281 2.015625,-0.75 z m 5.973632,-2.074218 c 0,-0.164063 -0.117187,-0.574219 -0.855468,-0.574219 -0.515625,0 -1.078125,0.222656 -1.511719,0.703125 v -0.28125 c 0,-0.292969 -0.07031,-0.375 -0.375,-0.375 h -0.996094 c -0.140625,0 -0.386719,0 -0.386719,0.292969 0,0.292968 0.234375,0.292968 0.386719,0.292968 h 0.714844 v 2.695313 h -0.714844 c -0.140625,0 -0.386719,0 -0.386719,0.292969 0,0.292968 0.234375,0.292968 0.386719,0.292968 h 2.367188 c 0.128906,0 0.386718,0 0.386718,-0.28125 0,-0.304687 -0.246093,-0.304687 -0.386718,-0.304687 h -0.996094 v -1.066406 c 0,-0.902344 0.609375,-1.675782 1.570312,-1.675782 0.03516,0.328125 0.28125,0.398438 0.398438,0.398438 0.199219,0 0.398437,-0.152344 0.398437,-0.410156 z m 4.965821,3.058593 c 0,-0.304687 -0.246094,-0.304687 -0.375,-0.304687 H 22.685578 V 9.831125 c 0,-0.3046875 -0.07031,-0.375 -0.375,-0.375 h -0.679687 c -0.128907,0 -0.375,0 -0.375,0.28125 0,0.292969 0.234375,0.292969 0.375,0.292969 h 0.386718 v 1.371094 c -0.1875,-0.175782 -0.550781,-0.386719 -1.03125,-0.386719 -0.996093,0 -1.851562,0.867187 -1.851562,1.992187 0,1.101563 0.808594,1.96875 1.769531,1.96875 0.410156,0 0.796875,-0.152343 1.113281,-0.480468 0,0.28125 0,0.433593 0.375,0.433593 h 0.691407 c 0.117187,0 0.375,0 0.375,-0.28125 z m -1.441407,-1.464843 c 0,0.480468 -0.398437,1.207031 -1.066406,1.207031 -0.621094,0 -1.148437,-0.609375 -1.148437,-1.382813 0,-0.808593 0.574218,-1.40625 1.230468,-1.40625 0.539063,0 0.984375,0.46875 0.984375,0.949219 z m 5.856446,2.191406 c 0,-0.28125 -0.246094,-0.28125 -0.375,-0.28125 H 26.151398 V 9.2920625 h 1.347657 c 0.140625,0 0.375,0 0.375,-0.2929687 0,-0.2929688 -0.246094,-0.2929688 -0.375,-0.2929688 h -1.628907 c -0.292968,0 -0.375,0.070312 -0.375,0.375 v 6.210938 c 0,0.304687 0.07031,0.375 0.375,0.375 h 1.628907 c 0.140625,0 0.375,0 0.375,-0.292969 z m 4.798828,-0.726563 c 0,-0.304687 -0.234375,-0.304687 -0.375,-0.304687 h -0.363281 l -1.101563,-1.40625 0.972656,-1.289063 h 0.363282 c 0.140625,0 0.375,0 0.375,-0.28125 0,-0.304687 -0.234375,-0.304687 -0.375,-0.304687 H 31.10257 c -0.128906,0 -0.375,0 -0.375,0.292969 0,0.292968 0.210938,0.292968 0.433594,0.292968 l -0.597656,0.832032 -0.621094,-0.832032 c 0.222656,0 0.433594,0 0.433594,-0.292968 0,-0.292969 -0.246094,-0.292969 -0.375,-0.292969 h -1.066406 c -0.140625,0 -0.375,0 -0.375,0.292969 0,0.292968 0.234375,0.292968 0.375,0.292968 h 0.363281 l 1.007812,1.289063 -1.066406,1.40625 h -0.363281 c -0.140625,0 -0.375,0 -0.375,0.304687 0,0.28125 0.246094,0.28125 0.375,0.28125 h 1.066406 c 0.140625,0 0.375,0 0.375,-0.28125 0,-0.304687 -0.199219,-0.304687 -0.457031,-0.304687 l 0.703125,-1.03125 0.738281,1.03125 c -0.234375,0 -0.445312,0 -0.445312,0.304687 0,0.28125 0.234375,0.28125 0.375,0.28125 h 1.066406 c 0.128906,0 0.375,0 0.375,-0.28125 z m 4.262695,0 c 0,-0.304687 -0.222656,-0.304687 -0.375,-0.304687 H 35.763703 V 9.7256563 c 0,-0.1289063 0,-0.375 -0.28125,-0.375 -0.152344,0 -0.222656,0.082031 -0.28125,0.1992187 -0.28125,0.632813 -0.632812,0.867188 -0.996094,0.902344 -0.128906,0 -0.328125,0.02344 -0.328125,0.292969 0,0.175781 0.09375,0.28125 0.316407,0.28125 0.351562,0 0.703125,-0.1875 0.914062,-0.363282 v 3.679688 h -0.796875 c -0.152344,0 -0.386719,0 -0.386719,0.304687 0,0.28125 0.246094,0.28125 0.386719,0.28125 h 2.25 c 0.140625,0 0.375,0 0.375,-0.28125 z m 3.46582,0.644532 V 9.081125 c 0,-0.2929687 -0.07031,-0.375 -0.375,-0.375 h -1.628906 c -0.128906,0 -0.375,0 -0.375,0.2929688 0,0.2929687 0.234375,0.2929687 0.375,0.2929687 h 1.335938 v 5.8007815 h -1.335938 c -0.128906,0 -0.375,0 -0.375,0.28125 0,0.292969 0.234375,0.292969 0.375,0.292969 h 1.628906 c 0.292969,0 0.375,-0.07031 0.375,-0.375 z m 6.301758,0.08203 c 0,-0.28125 -0.246093,-0.28125 -0.375,-0.28125 H 44.9805 V 9.2920625 h 1.347656 c 0.140625,0 0.375,0 0.375,-0.2929687 0,-0.2929688 -0.246093,-0.2929688 -0.375,-0.2929688 H 44.69925 c -0.292969,0 -0.375,0.070312 -0.375,0.375 v 6.210938 c 0,0.304687 0.07031,0.375 0.375,0.375 h 1.628906 c 0.140625,0 0.375,0 0.375,-0.292969 z m 4.845703,-4.019531 c 0,-0.292969 -0.246093,-0.292969 -0.398437,-0.292969 h -1.019531 c -0.152344,0 -0.410157,0 -0.410157,0.292969 0,0.117187 0.05859,0.234375 0.199219,0.269531 0.03516,0.02344 0.28125,0.02344 0.421875,0.02344 l -0.433594,1.347657 c -0.257812,0.773437 -0.351562,1.078125 -0.398437,1.253906 h -0.01172 c -0.05859,-0.257813 -0.234375,-0.726563 -0.46875,-1.359375 -0.210937,-0.539063 -0.269531,-0.667969 -0.492187,-1.242188 0.140625,0 0.363281,0 0.421875,-0.02344 0.117187,-0.03516 0.175781,-0.140625 0.175781,-0.269531 0,-0.292969 -0.246094,-0.292969 -0.398438,-0.292969 h -1.03125 c -0.140625,0 -0.398437,0 -0.398437,0.292969 0,0.164062 0.105469,0.246093 0.1875,0.269531 0.04687,0.02344 0.304687,0.02344 0.46875,0.02344 l 1.230469,3.152344 c 0,0.01172 0.03516,0.128906 0.03516,0.128906 0,0 -0.199219,0.714844 -0.339844,0.972657 -0.199219,0.363281 -0.457031,0.457031 -0.679687,0.480468 l 0.07031,-0.175781 c -0.02344,-0.304687 -0.246094,-0.398437 -0.410156,-0.398437 -0.246094,0 -0.410156,0.175781 -0.410156,0.410156 0,0.363281 0.28125,0.75 0.738281,0.75 0.632812,0 1.113281,-0.5625 1.371094,-1.335938 l 1.335937,-3.984375 c 0.152344,0 0.410156,0 0.457031,-0.02344 0.07031,-0.01172 0.1875,-0.07031 0.187499,-0.269531 z m 4.215821,3.292968 c 0,-0.304687 -0.222657,-0.304687 -0.375,-0.304687 H 54.592805 V 9.7256563 c 0,-0.1289063 0,-0.375 -0.28125,-0.375 -0.152344,0 -0.222657,0.082031 -0.28125,0.1992187 -0.28125,0.632813 -0.632813,0.867188 -0.996094,0.902344 -0.128906,0 -0.328125,0.02344 -0.328125,0.292969 0,0.175781 0.09375,0.28125 0.316406,0.28125 0.351563,0 0.703125,-0.1875 0.914063,-0.363282 v 3.679688 H 53.13968 c -0.152344,0 -0.386719,0 -0.386719,0.304687 0,0.28125 0.246094,0.28125 0.386719,0.28125 h 2.25 c 0.140625,0 0.375,0 0.375,-0.28125 z m 3.46582,0.644532 v -6.21094 c 0,-0.2929687 -0.07031,-0.375 -0.375,-0.375 h -1.628906 c -0.128906,0 -0.375,0 -0.375,0.2929688 0,0.2929687 0.234375,0.2929687 0.375,0.2929687 h 1.335937 v 5.8007815 h -1.335937 c -0.128906,0 -0.375,0 -0.375,0.28125 0,0.292969 0.234375,0.292969 0.375,0.292969 H 58.8555 c 0.292969,0 0.375,-0.07031 0.375,-0.375 z m 11.033203,-3.09375 c 0,-0.339844 -0.339844,-0.339844 -0.445312,-0.339844 h -1.242188 v -1.253906 c 0,-0.09375 0,-0.433594 -0.328125,-0.433594 -0.339844,0 -0.339844,0.328125 -0.339844,0.433594 v 1.253906 h -1.242187 c -0.105469,0 -0.445313,0 -0.445313,0.328125 0,0.339844 0.339844,0.339844 0.445313,0.339844 h 1.242187 v 1.242187 c 0,0.105469 0,0.445313 0.328125,0.445313 0.339844,0 0.339844,-0.339844 0.339844,-0.445313 V 12.52644 h 1.242188 c 0.09375,0 0.445312,0 0.445312,-0.328125 z m 4.708008,-0.679688 c 0,-0.351562 -0.351563,-0.351562 -0.480469,-0.351562 h -3.082031 c -0.128906,0 -0.480469,0 -0.480469,0.351562 0,0.328125 0.328125,0.328125 0.421875,0.328125 h 3.199219 c 0.09375,0 0.421875,0 0.421875,-0.328125 z m 0,1.347656 c 0,-0.328125 -0.328125,-0.328125 -0.421875,-0.328125 h -3.199219 c -0.09375,0 -0.421875,0 -0.421875,0.328125 0,0.339844 0.351563,0.339844 0.480469,0.339844 h 3.082031 c 0.128906,0 0.480469,0 0.480469,-0.339844 z m 9.029297,1.78125 c 0,-0.304687 -0.222656,-0.304687 -0.375,-0.304687 H 82.829133 V 9.7256563 c 0,-0.1289063 0,-0.375 -0.28125,-0.375 -0.152344,0 -0.222656,0.082031 -0.28125,0.1992187 -0.28125,0.632813 -0.632813,0.867188 -0.996094,0.902344 -0.128906,0 -0.328125,0.02344 -0.328125,0.292969 0,0.175781 0.09375,0.28125 0.316406,0.28125 0.351563,0 0.703125,-0.1875 0.914063,-0.363282 v 3.679688 h -0.796875 c -0.152344,0 -0.386719,0 -0.386719,0.304687 0,0.28125 0.246094,0.28125 0.386719,0.28125 h 2.25 c 0.140625,0 0.375,0 0.375,-0.28125 z m 3.641601,-3.011718 c 0,-0.328125 -0.269531,-0.574219 -0.5625,-0.574219 -0.328125,0 -0.574218,0.28125 -0.574218,0.5625 0,0.339844 0.28125,0.574219 0.5625,0.574219 0.339843,0 0.574218,-0.269532 0.574218,-0.5625 z m 0.04687,3.046875 c 0,-0.550782 -0.234375,-0.890625 -0.621093,-0.890625 -0.316407,0 -0.5625,0.246093 -0.5625,0.5625 0,0.210937 0.128906,0.550781 0.574218,0.574218 -0.08203,0.304688 -0.292968,0.550782 -0.5625,0.691407 -0.05859,0.02344 -0.199218,0.09375 -0.199218,0.257812 0,0.140625 0.140625,0.292969 0.304687,0.292969 0.199219,0 1.066406,-0.480469 1.066406,-1.488281 z M 4.3955391,23.952219 c 0,-1.066406 -0.7734375,-1.980469 -1.78125,-1.980469 -0.421875,0 -0.796875,0.152344 -1.1015625,0.421875 v -1.605469 c 0,-0.304687 -0.082031,-0.375 -0.3867188,-0.375 H 0.44632031 c -0.1171875,0 -0.375,0 -0.375,0.28125 0,0.292969 0.24609375,0.292969 0.375,0.292969 h 0.3984375 v 4.511719 c 0,0.175781 0,0.386719 0.32812499,0.386719 0.3398438,0 0.3398438,-0.210938 0.3398438,-0.386719 0.2695312,0.269531 0.6210937,0.433594 1.0195312,0.433594 0.9960938,0 1.8632813,-0.855469 1.8632813,-1.980469 z m -0.6679688,0 c 0,0.796875 -0.5742187,1.394531 -1.2304687,1.394531 -0.6445313,0 -0.984375,-0.726562 -0.984375,-1.195312 v -0.621094 c 0,-0.527344 0.5273437,-0.972656 1.0664062,-0.972656 0.6210938,0 1.1484375,0.609375 1.1484375,1.394531 z m 5.1855469,0 c 0,-1.113281 -0.84375,-2.003906 -1.8632813,-2.003906 -1.0078125,0 -1.8515625,0.890625 -1.8515625,2.003906 0,1.113281 0.8554688,1.980469 1.8515625,1.980469 1.0078125,0 1.8632813,-0.867188 1.8632813,-1.980469 z m -0.6679688,-0.07031 c 0,0.808594 -0.5390625,1.464844 -1.1953125,1.464844 -0.6445312,0 -1.1835937,-0.65625 -1.1835937,-1.464844 0,-0.796875 0.5742187,-1.347656 1.1835937,-1.347656 0.6328125,0 1.1953125,0.550781 1.1953125,1.347656 z m 5.8212896,1.710938 c 0,-0.292969 -0.246094,-0.292969 -0.386719,-0.292969 -0.128906,0 -0.316406,0 -0.492188,-0.05859 V 23.35457 c 0,-0.703125 -0.539062,-1.40625 -1.792968,-1.40625 -0.410157,0 -1.3125,0 -1.3125,0.679687 0,0.257813 0.1875,0.410156 0.410156,0.410156 0.140625,0 0.421875,-0.04687 0.421875,-0.480468 0.246094,-0.02344 0.410156,-0.02344 0.492187,-0.02344 0.703125,0 1.113282,0.292969 1.113282,0.84375 -1.488282,0.01172 -2.6718755,0.433594 -2.6718755,1.3125 0,0.679688 0.6210935,1.242188 1.4882815,1.242188 0.105469,0 0.785156,0 1.265625,-0.351563 0.222656,0.304688 0.703125,0.304688 0.996094,0.304688 0.257812,0 0.46875,0 0.46875,-0.292969 z m -1.546875,-0.972656 c 0,0.210937 0,0.398437 -0.351563,0.574218 -0.328125,0.152344 -0.726562,0.152344 -0.761719,0.152344 -0.527343,0 -0.902343,-0.292969 -0.902343,-0.65625 0,-0.433594 0.914062,-0.738281 2.015625,-0.75 z m 5.973632,-2.074219 c 0,-0.164063 -0.117187,-0.574219 -0.855468,-0.574219 -0.515625,0 -1.078125,0.222656 -1.511719,0.703125 v -0.28125 c 0,-0.292969 -0.07031,-0.375 -0.375,-0.375 h -0.996094 c -0.140625,0 -0.386719,0 -0.386719,0.292969 0,0.292969 0.234375,0.292969 0.386719,0.292969 h 0.714844 v 2.695312 h -0.714844 c -0.140625,0 -0.386719,0 -0.386719,0.292969 0,0.292969 0.234375,0.292969 0.386719,0.292969 h 2.367188 c 0.128906,0 0.386718,0 0.386718,-0.28125 0,-0.304688 -0.246093,-0.304688 -0.386718,-0.304688 h -0.996094 v -1.066406 c 0,-0.902344 0.609375,-1.675781 1.570312,-1.675781 0.03516,0.328125 0.28125,0.398437 0.398438,0.398437 0.199219,0 0.398437,-0.152344 0.398437,-0.410156 z m 4.965821,3.058594 c 0,-0.304688 -0.246094,-0.304688 -0.375,-0.304688 h -0.398438 v -4.511719 c 0,-0.304687 -0.07031,-0.375 -0.375,-0.375 h -0.679687 c -0.128907,0 -0.375,0 -0.375,0.28125 0,0.292969 0.234375,0.292969 0.375,0.292969 h 0.386718 v 1.371094 c -0.1875,-0.175781 -0.550781,-0.386719 -1.03125,-0.386719 -0.996093,0 -1.851562,0.867188 -1.851562,1.992188 0,1.101562 0.808594,1.96875 1.769531,1.96875 0.410156,0 0.796875,-0.152344 1.113281,-0.480469 0,0.28125 0,0.433594 0.375,0.433594 h 0.691407 c 0.117187,0 0.375,0 0.375,-0.28125 z m -1.441407,-1.464844 c 0,0.480469 -0.398437,1.207031 -1.066406,1.207031 -0.621094,0 -1.148437,-0.609375 -1.148437,-1.382812 0,-0.808594 0.574218,-1.40625 1.230468,-1.40625 0.539063,0 0.984375,0.46875 0.984375,0.949218 z m 5.856446,2.191406 c 0,-0.28125 -0.246094,-0.28125 -0.375,-0.28125 h -1.347657 v -5.800781 h 1.347657 c 0.140625,0 0.375,0 0.375,-0.292969 0,-0.292969 -0.246094,-0.292969 -0.375,-0.292969 h -1.628907 c -0.292968,0 -0.375,0.07031 -0.375,0.375 v 6.210938 c 0,0.304687 0.07031,0.375 0.375,0.375 h 1.628907 c 0.140625,0 0.375,0 0.375,-0.292969 z m 4.798828,-0.726562 c 0,-0.304688 -0.234375,-0.304688 -0.375,-0.304688 h -0.363281 l -1.101563,-1.40625 0.972656,-1.289062 h 0.363282 c 0.140625,0 0.375,0 0.375,-0.28125 0,-0.304688 -0.234375,-0.304688 -0.375,-0.304688 H 31.10257 c -0.128906,0 -0.375,0 -0.375,0.292969 0,0.292969 0.210938,0.292969 0.433594,0.292969 l -0.597656,0.832031 -0.621094,-0.832031 c 0.222656,0 0.433594,0 0.433594,-0.292969 0,-0.292969 -0.246094,-0.292969 -0.375,-0.292969 h -1.066406 c -0.140625,0 -0.375,0 -0.375,0.292969 0,0.292969 0.234375,0.292969 0.375,0.292969 h 0.363281 l 1.007812,1.289062 -1.066406,1.40625 h -0.363281 c -0.140625,0 -0.375,0 -0.375,0.304688 0,0.28125 0.246094,0.28125 0.375,0.28125 h 1.066406 c 0.140625,0 0.375,0 0.375,-0.28125 0,-0.304688 -0.199219,-0.304688 -0.457031,-0.304688 l 0.703125,-1.03125 0.738281,1.03125 c -0.234375,0 -0.445312,0 -0.445312,0.304688 0,0.28125 0.234375,0.28125 0.375,0.28125 h 1.066406 c 0.128906,0 0.375,0 0.375,-0.28125 z m 4.262695,0 c 0,-0.304688 -0.222656,-0.304688 -0.375,-0.304688 h -0.796875 v -4.617187 c 0,-0.128907 0,-0.375 -0.28125,-0.375 -0.152344,0 -0.222656,0.08203 -0.28125,0.199218 -0.28125,0.632813 -0.632812,0.867188 -0.996094,0.902344 -0.128906,0 -0.328125,0.02344 -0.328125,0.292969 0,0.175781 0.09375,0.28125 0.316407,0.28125 0.351562,0 0.703125,-0.1875 0.914062,-0.363281 v 3.679687 h -0.796875 c -0.152344,0 -0.386719,0 -0.386719,0.304688 0,0.28125 0.246094,0.28125 0.386719,0.28125 h 2.25 c 0.140625,0 0.375,0 0.375,-0.28125 z m 3.46582,0.644531 v -6.210938 c 0,-0.292968 -0.07031,-0.375 -0.375,-0.375 h -1.628906 c -0.128906,0 -0.375,0 -0.375,0.292969 0,0.292969 0.234375,0.292969 0.375,0.292969 h 1.335938 v 5.800781 h -1.335938 c -0.128906,0 -0.375,0 -0.375,0.28125 0,0.292969 0.234375,0.292969 0.375,0.292969 h 1.628906 c 0.292969,0 0.375,-0.07031 0.375,-0.375 z m 6.301758,0.08203 c 0,-0.28125 -0.246093,-0.28125 -0.375,-0.28125 H 44.9805 v -5.800781 h 1.347656 c 0.140625,0 0.375,0 0.375,-0.292969 0,-0.292969 -0.246093,-0.292969 -0.375,-0.292969 H 44.69925 c -0.292969,0 -0.375,0.07031 -0.375,0.375 v 6.210938 c 0,0.304687 0.07031,0.375 0.375,0.375 h 1.628906 c 0.140625,0 0.375,0 0.375,-0.292969 z m 4.845703,-4.019531 c 0,-0.292969 -0.246093,-0.292969 -0.398437,-0.292969 h -1.019531 c -0.152344,0 -0.410157,0 -0.410157,0.292969 0,0.117187 0.05859,0.234375 0.199219,0.269531 0.03516,0.02344 0.28125,0.02344 0.421875,0.02344 l -0.433594,1.347656 c -0.257812,0.773437 -0.351562,1.078125 -0.398437,1.253906 h -0.01172 c -0.05859,-0.257812 -0.234375,-0.726562 -0.46875,-1.359375 -0.210937,-0.539062 -0.269531,-0.667969 -0.492187,-1.242187 0.140625,0 0.363281,0 0.421875,-0.02344 0.117187,-0.03516 0.175781,-0.140625 0.175781,-0.269531 0,-0.292969 -0.246094,-0.292969 -0.398438,-0.292969 h -1.03125 c -0.140625,0 -0.398437,0 -0.398437,0.292969 0,0.164062 0.105469,0.246094 0.1875,0.269531 0.04687,0.02344 0.304687,0.02344 0.46875,0.02344 l 1.230469,3.152343 c 0,0.01172 0.03516,0.128907 0.03516,0.128907 0,0 -0.199219,0.714843 -0.339844,0.972656 -0.199219,0.363281 -0.457031,0.457031 -0.679687,0.480469 l 0.07031,-0.175782 c -0.02344,-0.304687 -0.246094,-0.398437 -0.410156,-0.398437 -0.246094,0 -0.410156,0.175781 -0.410156,0.410156 0,0.363281 0.28125,0.75 0.738281,0.75 0.632812,0 1.113281,-0.5625 1.371094,-1.335937 l 1.335937,-3.984375 c 0.152344,0 0.410156,0 0.457031,-0.02344 0.07031,-0.01172 0.1875,-0.07031 0.187499,-0.269531 z m 4.461914,3.199219 V 25.253 c 0,-0.175781 0,-0.375 -0.328125,-0.375 -0.339843,0 -0.339843,0.1875 -0.339843,0.421875 H 53.32718 c 0.480468,-0.410156 1.488281,-1.207031 1.710937,-1.417969 0.328125,-0.316406 0.972656,-0.914062 0.972656,-1.804687 0,-1.066406 -0.890625,-1.769531 -2.003906,-1.769531 -1.042969,0 -1.757812,0.714843 -1.757812,1.476562 0,0.363281 0.28125,0.457031 0.421875,0.457031 0.175781,0 0.410156,-0.152343 0.410156,-0.421875 0,-0.1875 -0.07031,-0.257812 -0.117188,-0.304687 0.152344,-0.386719 0.550782,-0.621094 1.007813,-0.621094 0.714844,0 1.371094,0.410156 1.371094,1.183594 0,0.621094 -0.480469,1.160156 -0.832032,1.464844 l -2.132812,1.792968 c -0.07031,0.05859 -0.128906,0.117188 -0.128906,0.257813 0,0.292969 0.234375,0.292969 0.386718,0.292969 h 3 c 0.292969,0 0.375,-0.07031 0.375,-0.375 z m 4.848633,-2.355469 c 0,-0.339844 -0.339843,-0.339844 -0.445312,-0.339844 h -1.242188 v -1.253906 c 0,-0.09375 0,-0.433594 -0.328125,-0.433594 -0.339843,0 -0.339843,0.328125 -0.339843,0.433594 V 22.8155 H 57.26175 c -0.105469,0 -0.445312,0 -0.445312,0.328125 0,0.339844 0.339843,0.339844 0.445312,0.339844 h 1.242188 v 1.242187 c 0,0.105469 0,0.445313 0.328125,0.445313 0.339843,0 0.339843,-0.339844 0.339843,-0.445313 v -1.242187 h 1.242188 c 0.09375,0 0.445312,0 0.445312,-0.328125 z m 4.321289,2.449219 c 0,-0.304688 -0.222656,-0.304688 -0.375,-0.304688 H 64.00882 V 20.68269 c 0,-0.128907 0,-0.375 -0.28125,-0.375 -0.152343,0 -0.222656,0.08203 -0.28125,0.199218 -0.28125,0.632813 -0.632812,0.867188 -0.996093,0.902344 -0.128907,0 -0.328125,0.02344 -0.328125,0.292969 0,0.175781 0.09375,0.28125 0.316406,0.28125 0.351562,0 0.703125,-0.1875 0.914062,-0.363281 v 3.679687 h -0.796875 c -0.152343,0 -0.386718,0 -0.386718,0.304688 0,0.28125 0.246093,0.28125 0.386718,0.28125 h 2.25 c 0.140625,0 0.375,0 0.375,-0.28125 z m 3.465821,0.644531 v -6.210938 c 0,-0.292968 -0.07031,-0.375 -0.375,-0.375 h -1.628907 c -0.128906,0 -0.375,0 -0.375,0.292969 0,0.292969 0.234375,0.292969 0.375,0.292969 h 1.335938 v 5.800781 h -1.335938 c -0.128906,0 -0.375,0 -0.375,0.28125 0,0.292969 0.234375,0.292969 0.375,0.292969 h 1.628907 c 0.292968,0 0.375,-0.07031 0.375,-0.375 z m 10.857422,-3.09375 c 0,-0.339844 -0.328125,-0.339844 -0.433594,-0.339844 h -2.824219 c -0.09375,0 -0.433594,0 -0.433594,0.328125 0,0.339844 0.328125,0.339844 0.433594,0.339844 h 2.824219 c 0.09375,0 0.433594,0 0.433594,-0.328125 z m 4.883789,-0.679688 c 0,-0.351562 -0.351563,-0.351562 -0.480469,-0.351562 h -3.082031 c -0.128907,0 -0.480469,0 -0.480469,0.351562 0,0.328125 0.328125,0.328125 0.421875,0.328125 h 3.199219 c 0.09375,0 0.421875,0 0.421875,-0.328125 z m 0,1.347657 c 0,-0.328125 -0.328125,-0.328125 -0.421875,-0.328125 h -3.199219 c -0.09375,0 -0.421875,0 -0.421875,0.328125 0,0.339843 0.351562,0.339843 0.480469,0.339843 h 3.082031 c 0.128906,0 0.480469,0 0.480469,-0.339843 z m 9.026367,1.78125 c 0,-0.304688 -0.222656,-0.304688 -0.375,-0.304688 H 92.242219 V 20.68269 c 0,-0.128907 0,-0.375 -0.28125,-0.375 -0.152344,0 -0.222656,0.08203 -0.28125,0.199218 -0.28125,0.632813 -0.632813,0.867188 -0.996094,0.902344 -0.128906,0 -0.328125,0.02344 -0.328125,0.292969 0,0.175781 0.09375,0.28125 0.316406,0.28125 0.351563,0 0.703125,-0.1875 0.914063,-0.363281 v 3.679687 h -0.796875 c -0.152344,0 -0.386719,0 -0.386719,0.304688 0,0.28125 0.246094,0.28125 0.386719,0.28125 h 2.25 c 0.140625,0 0.375,0 0.375,-0.28125 z m 3.641601,-3.011719 c 0,-0.328125 -0.269531,-0.574219 -0.5625,-0.574219 -0.328125,0 -0.574218,0.28125 -0.574218,0.5625 0,0.339844 0.28125,0.574219 0.5625,0.574219 0.339843,0 0.574218,-0.269531 0.574218,-0.5625 z m 0.04687,3.046875 c 0,-0.550781 -0.234375,-0.890625 -0.621093,-0.890625 -0.316407,0 -0.5625,0.246094 -0.5625,0.5625 0,0.210937 0.128906,0.550781 0.574218,0.574219 -0.08203,0.304687 -0.292968,0.550781 -0.5625,0.691406 -0.05859,0.02344 -0.199218,0.09375 -0.199218,0.257812 0,0.140625 0.140625,0.292969 0.304687,0.292969 0.199219,0 1.066406,-0.480469 1.066406,-1.488281 z M 4.3955391,34.91218 c 0,-1.066407 -0.7734375,-1.980469 -1.78125,-1.980469 -0.421875,0 -0.796875,0.152344 -1.1015625,0.421875 v -1.605469 c 0,-0.304687 -0.082031,-0.375 -0.3867188,-0.375 H 0.44632031 c -0.1171875,0 -0.375,0 -0.375,0.28125 0,0.292969 0.24609375,0.292969 0.375,0.292969 h 0.3984375 v 4.511719 c 0,0.175781 0,0.386718 0.32812499,0.386718 0.3398438,0 0.3398438,-0.210937 0.3398438,-0.386718 0.2695312,0.269531 0.6210937,0.433593 1.0195312,0.433593 0.9960938,0 1.8632813,-0.855468 1.8632813,-1.980468 z m -0.6679688,0 c 0,0.796875 -0.5742187,1.394531 -1.2304687,1.394531 -0.6445313,0 -0.984375,-0.726563 -0.984375,-1.195313 v -0.621093 c 0,-0.527344 0.5273437,-0.972657 1.0664062,-0.972657 0.6210938,0 1.1484375,0.609375 1.1484375,1.394532 z m 5.1855469,0 c 0,-1.113282 -0.84375,-2.003907 -1.8632813,-2.003907 -1.0078125,0 -1.8515625,0.890625 -1.8515625,2.003907 0,1.113281 0.8554688,1.980468 1.8515625,1.980468 1.0078125,0 1.8632813,-0.867187 1.8632813,-1.980468 z M 8.2451484,34.84187 c 0,0.808594 -0.5390625,1.464844 -1.1953125,1.464844 -0.6445312,0 -1.1835937,-0.65625 -1.1835937,-1.464844 0,-0.796875 0.5742187,-1.347656 1.1835937,-1.347656 0.6328125,0 1.1953125,0.550781 1.1953125,1.347656 z m 5.8212896,1.710938 c 0,-0.292969 -0.246094,-0.292969 -0.386719,-0.292969 -0.128906,0 -0.316406,0 -0.492188,-0.05859 V 34.31453 c 0,-0.703125 -0.539062,-1.40625 -1.792968,-1.40625 -0.410157,0 -1.3125,0 -1.3125,0.679688 0,0.257812 0.1875,0.410156 0.410156,0.410156 0.140625,0 0.421875,-0.04687 0.421875,-0.480469 0.246094,-0.02344 0.410156,-0.02344 0.492187,-0.02344 0.703125,0 1.113282,0.292969 1.113282,0.84375 -1.488282,0.01172 -2.6718755,0.433594 -2.6718755,1.3125 0,0.679687 0.6210935,1.242187 1.4882815,1.242187 0.105469,0 0.785156,0 1.265625,-0.351562 0.222656,0.304687 0.703125,0.304687 0.996094,0.304687 0.257812,0 0.46875,0 0.46875,-0.292969 z m -1.546875,-0.972657 c 0,0.210938 0,0.398438 -0.351563,0.574219 -0.328125,0.152344 -0.726562,0.152344 -0.761719,0.152344 -0.527343,0 -0.902343,-0.292969 -0.902343,-0.65625 0,-0.433594 0.914062,-0.738281 2.015625,-0.75 z m 5.973632,-2.074218 c 0,-0.164063 -0.117187,-0.574219 -0.855468,-0.574219 -0.515625,0 -1.078125,0.222656 -1.511719,0.703125 v -0.28125 c 0,-0.292969 -0.07031,-0.375 -0.375,-0.375 h -0.996094 c -0.140625,0 -0.386719,0 -0.386719,0.292969 0,0.292968 0.234375,0.292968 0.386719,0.292968 h 0.714844 v 2.695313 h -0.714844 c -0.140625,0 -0.386719,0 -0.386719,0.292969 0,0.292968 0.234375,0.292968 0.386719,0.292968 h 2.367188 c 0.128906,0 0.386718,0 0.386718,-0.28125 0,-0.304687 -0.246093,-0.304687 -0.386718,-0.304687 H 16.126008 V 35.19343 c 0,-0.902344 0.609375,-1.675782 1.570312,-1.675782 0.03516,0.328125 0.28125,0.398438 0.398438,0.398438 0.199219,0 0.398437,-0.152344 0.398437,-0.410156 z m 4.965821,3.058593 c 0,-0.304687 -0.246094,-0.304687 -0.375,-0.304687 H 22.685578 V 31.74812 c 0,-0.304687 -0.07031,-0.375 -0.375,-0.375 h -0.679687 c -0.128907,0 -0.375,0 -0.375,0.28125 0,0.292969 0.234375,0.292969 0.375,0.292969 h 0.386718 v 1.371094 c -0.1875,-0.175782 -0.550781,-0.386719 -1.03125,-0.386719 -0.996093,0 -1.851562,0.867187 -1.851562,1.992187 0,1.101563 0.808594,1.96875 1.769531,1.96875 0.410156,0 0.796875,-0.152343 1.113281,-0.480468 0,0.28125 0,0.433593 0.375,0.433593 h 0.691407 c 0.117187,0 0.375,0 0.375,-0.28125 z M 22.017609,35.09968 c 0,0.480468 -0.398437,1.207031 -1.066406,1.207031 -0.621094,0 -1.148437,-0.609375 -1.148437,-1.382813 0,-0.808593 0.574218,-1.40625 1.230468,-1.40625 0.539063,0 0.984375,0.46875 0.984375,0.949219 z m 5.856446,2.191406 c 0,-0.28125 -0.246094,-0.28125 -0.375,-0.28125 h -1.347657 v -5.800781 h 1.347657 c 0.140625,0 0.375,0 0.375,-0.292969 0,-0.292969 -0.246094,-0.292969 -0.375,-0.292969 h -1.628907 c -0.292968,0 -0.375,0.07031 -0.375,0.375 v 6.210938 c 0,0.304687 0.07031,0.375 0.375,0.375 h 1.628907 c 0.140625,0 0.375,0 0.375,-0.292969 z m 4.798828,-0.726563 c 0,-0.304687 -0.234375,-0.304687 -0.375,-0.304687 h -0.363281 l -1.101563,-1.40625 0.972656,-1.289063 h 0.363282 c 0.140625,0 0.375,0 0.375,-0.28125 0,-0.304687 -0.234375,-0.304687 -0.375,-0.304687 H 31.10257 c -0.128906,0 -0.375,0 -0.375,0.292969 0,0.292968 0.210938,0.292968 0.433594,0.292968 l -0.597656,0.832032 -0.621094,-0.832032 c 0.222656,0 0.433594,0 0.433594,-0.292968 0,-0.292969 -0.246094,-0.292969 -0.375,-0.292969 h -1.066406 c -0.140625,0 -0.375,0 -0.375,0.292969 0,0.292968 0.234375,0.292968 0.375,0.292968 h 0.363281 l 1.007812,1.289063 -1.066406,1.40625 h -0.363281 c -0.140625,0 -0.375,0 -0.375,0.304687 0,0.28125 0.246094,0.28125 0.375,0.28125 h 1.066406 c 0.140625,0 0.375,0 0.375,-0.28125 0,-0.304687 -0.199219,-0.304687 -0.457031,-0.304687 l 0.703125,-1.03125 0.738281,1.03125 c -0.234375,0 -0.445312,0 -0.445312,0.304687 0,0.28125 0.234375,0.28125 0.375,0.28125 h 1.066406 c 0.128906,0 0.375,0 0.375,-0.28125 z m 4.508789,-0.09375 v -0.257812 c 0,-0.175781 0,-0.375 -0.328125,-0.375 -0.339844,0 -0.339844,0.1875 -0.339844,0.421875 h -2.015625 c 0.480469,-0.410156 1.488281,-1.207031 1.710938,-1.417969 0.328125,-0.316406 0.972656,-0.914062 0.972656,-1.804687 0,-1.066407 -0.890625,-1.769532 -2.003906,-1.769532 -1.042969,0 -1.757813,0.714844 -1.757813,1.476563 0,0.363281 0.28125,0.457031 0.421875,0.457031 0.175781,0 0.410156,-0.152344 0.410156,-0.421875 0,-0.1875 -0.07031,-0.257812 -0.117187,-0.304687 0.152344,-0.386719 0.550781,-0.621094 1.007812,-0.621094 0.714844,0 1.371094,0.410156 1.371094,1.183594 0,0.621093 -0.480469,1.160156 -0.832031,1.464843 l -2.132813,1.792969 c -0.07031,0.05859 -0.128906,0.117188 -0.128906,0.257813 0,0.292968 0.234375,0.292968 0.386719,0.292968 h 3 c 0.292969,0 0.375,-0.07031 0.375,-0.375 z m 4.848633,-2.355468 c 0,-0.339844 -0.339844,-0.339844 -0.445313,-0.339844 h -1.242187 v -1.253906 c 0,-0.09375 0,-0.433594 -0.328125,-0.433594 -0.339844,0 -0.339844,0.328125 -0.339844,0.433594 v 1.253906 h -1.242188 c -0.105468,0 -0.445312,0 -0.445312,0.328125 0,0.339844 0.339844,0.339844 0.445312,0.339844 h 1.242188 v 1.242187 c 0,0.105469 0,0.445313 0.328125,0.445313 0.339844,0 0.339844,-0.339844 0.339844,-0.445313 V 34.44343 h 1.242187 c 0.09375,0 0.445313,0 0.445313,-0.328125 z m 4.321289,2.449218 c 0,-0.304687 -0.222656,-0.304687 -0.375,-0.304687 h -0.796875 v -4.617188 c 0,-0.128906 0,-0.375 -0.28125,-0.375 -0.152344,0 -0.222656,0.08203 -0.28125,0.199219 -0.28125,0.632813 -0.632813,0.867188 -0.996094,0.902344 -0.128906,0 -0.328125,0.02344 -0.328125,0.292969 0,0.175781 0.09375,0.28125 0.316406,0.28125 0.351563,0 0.703125,-0.1875 0.914063,-0.363282 v 3.679688 h -0.796875 c -0.152344,0 -0.386719,0 -0.386719,0.304687 0,0.28125 0.246094,0.28125 0.386719,0.28125 h 2.25 c 0.140625,0 0.375,0 0.375,-0.28125 z m 3.46289,0.644532 v -6.210938 c 0,-0.292969 -0.07031,-0.375 -0.375,-0.375 h -1.628906 c -0.128906,0 -0.375,0 -0.375,0.292969 0,0.292969 0.234375,0.292969 0.375,0.292969 h 1.335938 v 5.800781 h -1.335938 c -0.128906,0 -0.375,0 -0.375,0.28125 0,0.292969 0.234375,0.292969 0.375,0.292969 h 1.628906 c 0.292969,0 0.375,-0.07031 0.375,-0.375 z m 6.301758,0.08203 c 0,-0.28125 -0.246094,-0.28125 -0.375,-0.28125 h -1.347656 v -5.800781 h 1.347656 c 0.140625,0 0.375,0 0.375,-0.292969 0,-0.292969 -0.246094,-0.292969 -0.375,-0.292969 h -1.628906 c -0.292969,0 -0.375,0.07031 -0.375,0.375 v 6.210938 c 0,0.304687 0.07031,0.375 0.375,0.375 h 1.628906 c 0.140625,0 0.375,0 0.375,-0.292969 z m 4.848633,-4.019531 c 0,-0.292969 -0.246094,-0.292969 -0.398437,-0.292969 h -1.019532 c -0.152343,0 -0.410156,0 -0.410156,0.292969 0,0.117187 0.05859,0.234375 0.199219,0.269531 0.03516,0.02344 0.28125,0.02344 0.421875,0.02344 L 59.32425,34.91218 c -0.257812,0.773437 -0.351562,1.078125 -0.398437,1.253906 h -0.01172 c -0.05859,-0.257813 -0.234375,-0.726563 -0.46875,-1.359375 -0.210938,-0.539063 -0.269531,-0.667969 -0.492188,-1.242188 0.140625,0 0.363282,0 0.421875,-0.02344 0.117188,-0.03516 0.175782,-0.140625 0.175782,-0.269531 0,-0.292969 -0.246094,-0.292969 -0.398438,-0.292969 h -1.03125 c -0.140625,0 -0.398437,0 -0.398437,0.292969 0,0.164062 0.105468,0.246093 0.1875,0.269531 0.04687,0.02344 0.304687,0.02344 0.46875,0.02344 l 1.230468,3.152344 c 0,0.01172 0.03516,0.128906 0.03516,0.128906 0,0 -0.199219,0.714844 -0.339844,0.972657 -0.199219,0.363281 -0.457031,0.457031 -0.679688,0.480468 l 0.07031,-0.175781 C 57.671906,37.81843 57.44925,37.72468 57.285188,37.72468 c -0.246094,0 -0.410157,0.175781 -0.410157,0.410156 0,0.363281 0.28125,0.75 0.738282,0.75 0.632812,0 1.113281,-0.5625 1.371093,-1.335938 l 1.335938,-3.984375 c 0.152344,0 0.410156,0 0.457031,-0.02344 0.07031,-0.01172 0.1875,-0.07031 0.1875,-0.269531 z m 4.21582,3.292968 c 0,-0.304687 -0.222656,-0.304687 -0.375,-0.304687 H 64.00882 v -4.617188 c 0,-0.128906 0,-0.375 -0.28125,-0.375 -0.152343,0 -0.222656,0.08203 -0.28125,0.199219 -0.28125,0.632813 -0.632812,0.867188 -0.996093,0.902344 -0.128907,0 -0.328125,0.02344 -0.328125,0.292969 0,0.175781 0.09375,0.28125 0.316406,0.28125 0.351562,0 0.703125,-0.1875 0.914062,-0.363282 v 3.679688 h -0.796875 c -0.152343,0 -0.386718,0 -0.386718,0.304687 0,0.28125 0.246093,0.28125 0.386718,0.28125 h 2.25 c 0.140625,0 0.375,0 0.375,-0.28125 z m 3.465821,0.644532 v -6.210938 c 0,-0.292969 -0.07031,-0.375 -0.375,-0.375 h -1.628907 c -0.128906,0 -0.375,0 -0.375,0.292969 0,0.292969 0.234375,0.292969 0.375,0.292969 h 1.335938 v 5.800781 h -1.335938 c -0.128906,0 -0.375,0 -0.375,0.28125 0,0.292969 0.234375,0.292969 0.375,0.292969 h 1.628907 c 0.292968,0 0.375,-0.07031 0.375,-0.375 z m 10.857422,-3.09375 c 0,-0.339844 -0.328125,-0.339844 -0.433594,-0.339844 h -2.824219 c -0.09375,0 -0.433594,0 -0.433594,0.328125 0,0.339844 0.328125,0.339844 0.433594,0.339844 h 2.824219 c 0.09375,0 0.433594,0 0.433594,-0.328125 z m 4.883789,-0.679688 c 0,-0.351562 -0.351563,-0.351562 -0.480469,-0.351562 h -3.082031 c -0.128907,0 -0.480469,0 -0.480469,0.351562 0,0.328125 0.328125,0.328125 0.421875,0.328125 h 3.199219 c 0.09375,0 0.421875,0 0.421875,-0.328125 z m 0,1.347656 c 0,-0.328125 -0.328125,-0.328125 -0.421875,-0.328125 h -3.199219 c -0.09375,0 -0.421875,0 -0.421875,0.328125 0,0.339844 0.351562,0.339844 0.480469,0.339844 h 3.082031 c 0.128906,0 0.480469,0 0.480469,-0.339844 z m 9.026367,1.78125 c 0,-0.304687 -0.222656,-0.304687 -0.375,-0.304687 h -0.796875 v -4.617188 c 0,-0.128906 0,-0.375 -0.28125,-0.375 -0.152344,0 -0.222656,0.08203 -0.28125,0.199219 -0.28125,0.632813 -0.632813,0.867188 -0.996094,0.902344 -0.128906,0 -0.328125,0.02344 -0.328125,0.292969 0,0.175781 0.09375,0.28125 0.316406,0.28125 0.351563,0 0.703125,-0.1875 0.914063,-0.363282 v 3.679688 h -0.796875 c -0.152344,0 -0.386719,0 -0.386719,0.304687 0,0.28125 0.246094,0.28125 0.386719,0.28125 h 2.25 c 0.140625,0 0.375,0 0.375,-0.28125 z m 3.641601,-3.011718 c 0,-0.328125 -0.269531,-0.574219 -0.5625,-0.574219 -0.328125,0 -0.574218,0.28125 -0.574218,0.5625 0,0.339844 0.28125,0.574219 0.5625,0.574219 0.339843,0 0.574218,-0.269532 0.574218,-0.5625 z m 0.04687,3.046875 c 0,-0.550782 -0.234375,-0.890625 -0.621093,-0.890625 -0.316407,0 -0.5625,0.246093 -0.5625,0.5625 0,0.210937 0.128906,0.550781 0.574218,0.574218 -0.08203,0.304688 -0.292968,0.550782 -0.5625,0.691407 -0.05859,0.02344 -0.199218,0.09375 -0.199218,0.257812 0,0.140625 0.140625,0.292969 0.304687,0.292969 0.199219,0 1.066406,-0.480469 1.066406,-1.488281 z M 4.3955391,45.869211 c 0,-1.066406 -0.7734375,-1.980469 -1.78125,-1.980469 -0.421875,0 -0.796875,0.152344 -1.1015625,0.421875 v -1.605469 c 0,-0.304687 -0.082031,-0.375 -0.3867188,-0.375 H 0.44632031 c -0.1171875,0 -0.375,0 -0.375,0.28125 0,0.292969 0.24609375,0.292969 0.375,0.292969 h 0.3984375 v 4.511719 c 0,0.175781 0,0.386719 0.32812499,0.386719 0.3398438,0 0.3398438,-0.210938 0.3398438,-0.386719 0.2695312,0.269531 0.6210937,0.433594 1.0195312,0.433594 0.9960938,0 1.8632813,-0.855469 1.8632813,-1.980469 z m -0.6679688,0 c 0,0.796875 -0.5742187,1.394531 -1.2304687,1.394531 -0.6445313,0 -0.984375,-0.726562 -0.984375,-1.195312 v -0.621094 c 0,-0.527344 0.5273437,-0.972656 1.0664062,-0.972656 0.6210938,0 1.1484375,0.609375 1.1484375,1.394531 z m 5.1855469,0 c 0,-1.113281 -0.84375,-2.003906 -1.8632813,-2.003906 -1.0078125,0 -1.8515625,0.890625 -1.8515625,2.003906 0,1.113281 0.8554688,1.980469 1.8515625,1.980469 1.0078125,0 1.8632813,-0.867188 1.8632813,-1.980469 z m -0.6679688,-0.07031 c 0,0.808594 -0.5390625,1.464844 -1.1953125,1.464844 -0.6445312,0 -1.1835937,-0.65625 -1.1835937,-1.464844 0,-0.796875 0.5742187,-1.347656 1.1835937,-1.347656 0.6328125,0 1.1953125,0.550781 1.1953125,1.347656 z m 5.8212896,1.710938 c 0,-0.292969 -0.246094,-0.292969 -0.386719,-0.292969 -0.128906,0 -0.316406,0 -0.492188,-0.05859 v -1.886718 c 0,-0.703125 -0.539062,-1.40625 -1.792968,-1.40625 -0.410157,0 -1.3125,0 -1.3125,0.679687 0,0.257813 0.1875,0.410156 0.410156,0.410156 0.140625,0 0.421875,-0.04687 0.421875,-0.480468 0.246094,-0.02344 0.410156,-0.02344 0.492187,-0.02344 0.703125,0 1.113282,0.292969 1.113282,0.84375 -1.488282,0.01172 -2.6718755,0.433594 -2.6718755,1.3125 0,0.679688 0.6210935,1.242188 1.4882815,1.242188 0.105469,0 0.785156,0 1.265625,-0.351563 0.222656,0.304688 0.703125,0.304688 0.996094,0.304688 0.257812,0 0.46875,0 0.46875,-0.292969 z M 12.519563,46.53718 c 0,0.210937 0,0.398437 -0.351563,0.574218 -0.328125,0.152344 -0.726562,0.152344 -0.761719,0.152344 -0.527343,0 -0.902343,-0.292969 -0.902343,-0.65625 0,-0.433594 0.914062,-0.738281 2.015625,-0.75 z m 5.973632,-2.074219 c 0,-0.164063 -0.117187,-0.574219 -0.855468,-0.574219 -0.515625,0 -1.078125,0.222656 -1.511719,0.703125 v -0.28125 c 0,-0.292969 -0.07031,-0.375 -0.375,-0.375 h -0.996094 c -0.140625,0 -0.386719,0 -0.386719,0.292969 0,0.292969 0.234375,0.292969 0.386719,0.292969 h 0.714844 v 2.695312 h -0.714844 c -0.140625,0 -0.386719,0 -0.386719,0.292969 0,0.292969 0.234375,0.292969 0.386719,0.292969 h 2.367188 c 0.128906,0 0.386718,0 0.386718,-0.28125 0,-0.304688 -0.246093,-0.304688 -0.386718,-0.304688 h -0.996094 v -1.066406 c 0,-0.902344 0.609375,-1.675781 1.570312,-1.675781 0.03516,0.328125 0.28125,0.398437 0.398438,0.398437 0.199219,0 0.398437,-0.152344 0.398437,-0.410156 z m 4.965821,3.058594 c 0,-0.304688 -0.246094,-0.304688 -0.375,-0.304688 h -0.398438 v -4.511719 c 0,-0.304687 -0.07031,-0.375 -0.375,-0.375 h -0.679687 c -0.128907,0 -0.375,0 -0.375,0.28125 0,0.292969 0.234375,0.292969 0.375,0.292969 h 0.386718 v 1.371094 c -0.1875,-0.175781 -0.550781,-0.386719 -1.03125,-0.386719 -0.996093,0 -1.851562,0.867188 -1.851562,1.992188 0,1.101562 0.808594,1.96875 1.769531,1.96875 0.410156,0 0.796875,-0.152344 1.113281,-0.480469 0,0.28125 0,0.433594 0.375,0.433594 h 0.691407 c 0.117187,0 0.375,0 0.375,-0.28125 z m -1.441407,-1.464844 c 0,0.480469 -0.398437,1.207031 -1.066406,1.207031 -0.621094,0 -1.148437,-0.609375 -1.148437,-1.382812 0,-0.808594 0.574218,-1.40625 1.230468,-1.40625 0.539063,0 0.984375,0.46875 0.984375,0.949218 z m 5.856446,2.191406 c 0,-0.28125 -0.246094,-0.28125 -0.375,-0.28125 h -1.347657 v -5.800781 h 1.347657 c 0.140625,0 0.375,0 0.375,-0.292969 0,-0.292969 -0.246094,-0.292969 -0.375,-0.292969 h -1.628907 c -0.292968,0 -0.375,0.07031 -0.375,0.375 v 6.210938 c 0,0.304687 0.07031,0.375 0.375,0.375 h 1.628907 c 0.140625,0 0.375,0 0.375,-0.292969 z m 4.798828,-0.726562 c 0,-0.304688 -0.234375,-0.304688 -0.375,-0.304688 h -0.363281 l -1.101563,-1.40625 0.972656,-1.289062 h 0.363282 c 0.140625,0 0.375,0 0.375,-0.28125 0,-0.304688 -0.234375,-0.304688 -0.375,-0.304688 H 31.10257 c -0.128906,0 -0.375,0 -0.375,0.292969 0,0.292969 0.210938,0.292969 0.433594,0.292969 l -0.597656,0.832031 -0.621094,-0.832031 c 0.222656,0 0.433594,0 0.433594,-0.292969 0,-0.292969 -0.246094,-0.292969 -0.375,-0.292969 h -1.066406 c -0.140625,0 -0.375,0 -0.375,0.292969 0,0.292969 0.234375,0.292969 0.375,0.292969 h 0.363281 l 1.007812,1.289062 -1.066406,1.40625 h -0.363281 c -0.140625,0 -0.375,0 -0.375,0.304688 0,0.28125 0.246094,0.28125 0.375,0.28125 h 1.066406 c 0.140625,0 0.375,0 0.375,-0.28125 0,-0.304688 -0.199219,-0.304688 -0.457031,-0.304688 l 0.703125,-1.03125 0.738281,1.03125 c -0.234375,0 -0.445312,0 -0.445312,0.304688 0,0.28125 0.234375,0.28125 0.375,0.28125 h 1.066406 c 0.128906,0 0.375,0 0.375,-0.28125 z m 4.508789,-0.09375 v -0.257813 c 0,-0.175781 0,-0.375 -0.328125,-0.375 -0.339844,0 -0.339844,0.1875 -0.339844,0.421875 h -2.015625 c 0.480469,-0.410156 1.488281,-1.207031 1.710938,-1.417969 0.328125,-0.316406 0.972656,-0.914062 0.972656,-1.804687 0,-1.066406 -0.890625,-1.769531 -2.003906,-1.769531 -1.042969,0 -1.757813,0.714843 -1.757813,1.476562 0,0.363281 0.28125,0.457031 0.421875,0.457031 0.175781,0 0.410156,-0.152343 0.410156,-0.421875 0,-0.1875 -0.07031,-0.257812 -0.117187,-0.304687 0.152344,-0.386719 0.550781,-0.621094 1.007812,-0.621094 0.714844,0 1.371094,0.410156 1.371094,1.183594 0,0.621094 -0.480469,1.160156 -0.832031,1.464844 l -2.132813,1.792968 c -0.07031,0.05859 -0.128906,0.117188 -0.128906,0.257813 0,0.292969 0.234375,0.292969 0.386719,0.292969 h 3 c 0.292969,0 0.375,-0.07031 0.375,-0.375 z m 4.848633,-2.355469 c 0,-0.339844 -0.339844,-0.339844 -0.445313,-0.339844 h -1.242187 v -1.253906 c 0,-0.09375 0,-0.433594 -0.328125,-0.433594 -0.339844,0 -0.339844,0.328125 -0.339844,0.433594 v 1.253906 h -1.242188 c -0.105468,0 -0.445312,0 -0.445312,0.328125 0,0.339844 0.339844,0.339844 0.445312,0.339844 h 1.242188 v 1.242187 c 0,0.105469 0,0.445313 0.328125,0.445313 0.339844,0 0.339844,-0.339844 0.339844,-0.445313 v -1.242187 h 1.242187 c 0.09375,0 0.445313,0 0.445313,-0.328125 z m 4.321289,2.449219 c 0,-0.304688 -0.222656,-0.304688 -0.375,-0.304688 H 45.179719 V 42.59968 c 0,-0.128907 0,-0.375 -0.28125,-0.375 -0.152344,0 -0.222656,0.08203 -0.28125,0.199218 -0.28125,0.632813 -0.632813,0.867188 -0.996094,0.902344 -0.128906,0 -0.328125,0.02344 -0.328125,0.292969 0,0.175781 0.09375,0.28125 0.316406,0.28125 0.351563,0 0.703125,-0.1875 0.914063,-0.363281 v 3.679687 h -0.796875 c -0.152344,0 -0.386719,0 -0.386719,0.304688 0,0.28125 0.246094,0.28125 0.386719,0.28125 h 2.25 c 0.140625,0 0.375,0 0.375,-0.28125 z m 3.46289,0.644531 v -6.210938 c 0,-0.292968 -0.07031,-0.375 -0.375,-0.375 h -1.628906 c -0.128906,0 -0.375,0 -0.375,0.292969 0,0.292969 0.234375,0.292969 0.375,0.292969 h 1.335938 v 5.800781 h -1.335938 c -0.128906,0 -0.375,0 -0.375,0.28125 0,0.292969 0.234375,0.292969 0.375,0.292969 h 1.628906 c 0.292969,0 0.375,-0.07031 0.375,-0.375 z m 6.301758,0.08203 c 0,-0.28125 -0.246094,-0.28125 -0.375,-0.28125 h -1.347656 v -5.800781 h 1.347656 c 0.140625,0 0.375,0 0.375,-0.292969 0,-0.292969 -0.246094,-0.292969 -0.375,-0.292969 h -1.628906 c -0.292969,0 -0.375,0.07031 -0.375,0.375 v 6.210938 c 0,0.304687 0.07031,0.375 0.375,0.375 h 1.628906 c 0.140625,0 0.375,0 0.375,-0.292969 z m 4.848633,-4.019531 c 0,-0.292969 -0.246094,-0.292969 -0.398437,-0.292969 h -1.019532 c -0.152343,0 -0.410156,0 -0.410156,0.292969 0,0.117187 0.05859,0.234375 0.199219,0.269531 0.03516,0.02344 0.28125,0.02344 0.421875,0.02344 l -0.433594,1.347656 c -0.257812,0.773437 -0.351562,1.078125 -0.398437,1.253906 h -0.01172 c -0.05859,-0.257812 -0.234375,-0.726562 -0.46875,-1.359375 -0.210938,-0.539062 -0.269531,-0.667969 -0.492188,-1.242187 0.140625,0 0.363282,0 0.421875,-0.02344 0.117188,-0.03516 0.175782,-0.140625 0.175782,-0.269531 0,-0.292969 -0.246094,-0.292969 -0.398438,-0.292969 h -1.03125 c -0.140625,0 -0.398437,0 -0.398437,0.292969 0,0.164062 0.105468,0.246094 0.1875,0.269531 0.04687,0.02344 0.304687,0.02344 0.46875,0.02344 l 1.230468,3.152343 c 0,0.01172 0.03516,0.128907 0.03516,0.128907 0,0 -0.199219,0.714843 -0.339844,0.972656 -0.199219,0.363281 -0.457031,0.457031 -0.679688,0.480469 l 0.07031,-0.175782 c -0.02344,-0.304687 -0.246094,-0.398437 -0.410156,-0.398437 -0.246094,0 -0.410157,0.175781 -0.410157,0.410156 0,0.363281 0.28125,0.75 0.738282,0.75 0.632812,0 1.113281,-0.5625 1.371093,-1.335937 l 1.335938,-3.984375 c 0.152344,0 0.410156,0 0.457031,-0.02344 0.07031,-0.01172 0.1875,-0.07031 0.187501,-0.269531 z m 4.461914,3.199219 v -0.257813 c 0,-0.175781 0,-0.375 -0.328125,-0.375 -0.339844,0 -0.339844,0.1875 -0.339844,0.421875 h -2.015625 c 0.480469,-0.410156 1.488282,-1.207031 1.710938,-1.417969 0.328125,-0.316406 0.972656,-0.914062 0.972656,-1.804687 0,-1.066406 -0.890625,-1.769531 -2.003906,-1.769531 -1.042969,0 -1.757813,0.714843 -1.757813,1.476562 0,0.363281 0.28125,0.457031 0.421875,0.457031 0.175782,0 0.410157,-0.152343 0.410157,-0.421875 0,-0.1875 -0.07031,-0.257812 -0.117188,-0.304687 0.152344,-0.386719 0.550781,-0.621094 1.007813,-0.621094 0.714843,0 1.371093,0.410156 1.371093,1.183594 0,0.621094 -0.480468,1.160156 -0.832031,1.464844 l -2.132812,1.792968 c -0.07031,0.05859 -0.128907,0.117188 -0.128907,0.257813 0,0.292969 0.234375,0.292969 0.386719,0.292969 h 3 c 0.292969,0 0.375,-0.07031 0.375,-0.375 z m 4.848633,-2.355469 c 0,-0.339844 -0.339844,-0.339844 -0.445313,-0.339844 h -1.242187 v -1.253906 c 0,-0.09375 0,-0.433594 -0.328125,-0.433594 -0.339844,0 -0.339844,0.328125 -0.339844,0.433594 v 1.253906 h -1.242187 c -0.105469,0 -0.445313,0 -0.445313,0.328125 0,0.339844 0.339844,0.339844 0.445313,0.339844 h 1.242187 v 1.242187 c 0,0.105469 0,0.445313 0.328125,0.445313 0.339844,0 0.339844,-0.339844 0.339844,-0.445313 V 45.40046 h 1.242187 c 0.09375,0 0.445313,0 0.445313,-0.328125 z m 4.318359,2.449219 c 0,-0.304688 -0.222656,-0.304688 -0.375,-0.304688 H 73.421906 V 42.59968 c 0,-0.128907 0,-0.375 -0.28125,-0.375 -0.152343,0 -0.222656,0.08203 -0.28125,0.199218 -0.28125,0.632813 -0.632812,0.867188 -0.996093,0.902344 -0.128907,0 -0.328125,0.02344 -0.328125,0.292969 0,0.175781 0.09375,0.28125 0.316406,0.28125 0.351562,0 0.703125,-0.1875 0.914062,-0.363281 v 3.679687 h -0.796875 c -0.152343,0 -0.386718,0 -0.386718,0.304688 0,0.28125 0.246093,0.28125 0.386718,0.28125 h 2.25 c 0.140625,0 0.375,0 0.375,-0.281251 z m 3.465821,0.644531 v -6.210938 c 0,-0.292968 -0.07031,-0.375 -0.375,-0.375 h -1.628907 c -0.128906,0 -0.375,0 -0.375,0.292969 0,0.292969 0.234375,0.292969 0.375,0.292969 h 1.335938 v 5.800781 h -1.335938 c -0.128906,0 -0.375,0 -0.375,0.28125 0,0.292969 0.234375,0.292969 0.375,0.292969 h 1.628907 c 0.292968,0 0.375,-0.07031 0.375,-0.375 z m 11.036132,-3.09375 c 0,-0.339844 -0.339843,-0.339844 -0.445312,-0.339844 h -1.242188 v -1.253906 c 0,-0.09375 0,-0.433594 -0.328125,-0.433594 -0.339843,0 -0.339843,0.328125 -0.339843,0.433594 v 1.253906 h -1.242188 c -0.105469,0 -0.445312,0 -0.445312,0.328125 0,0.339844 0.339843,0.339844 0.445312,0.339844 h 1.242188 v 1.242187 c 0,0.105469 0,0.445313 0.328125,0.445313 0.339843,0 0.339843,-0.339844 0.339843,-0.445313 V 45.40046 h 1.242188 c 0.09375,0 0.445312,0 0.445312,-0.328125 z m 4.705079,-0.679688 c 0,-0.351562 -0.351563,-0.351562 -0.480469,-0.351562 h -3.082031 c -0.128907,0 -0.480469,0 -0.480469,0.351562 0,0.328125 0.328125,0.328125 0.421875,0.328125 h 3.199219 c 0.09375,0 0.421875,0 0.421875,-0.328125 z m 0,1.347657 c 0,-0.328125 -0.328125,-0.328125 -0.421875,-0.328125 h -3.199219 c -0.09375,0 -0.421875,0 -0.421875,0.328125 0,0.339843 0.351562,0.339843 0.480469,0.339843 h 3.082031 c 0.128906,0 0.480469,0 0.480469,-0.339843 z m 9.029297,1.78125 c 0,-0.304688 -0.22266,-0.304688 -0.375,-0.304688 h -0.79688 V 42.59968 c 0,-0.128907 0,-0.375 -0.28125,-0.375 -0.15234,0 -0.22265,0.08203 -0.28125,0.199218 -0.28125,0.632813 -0.63281,0.867188 -0.99609,0.902344 -0.128906,0 -0.328124,0.02344 -0.328124,0.292969 0,0.175781 0.09375,0.28125 0.316404,0.28125 0.35156,0 0.70313,-0.1875 0.91406,-0.363281 v 3.679687 h -0.79687 c -0.15234,0 -0.386719,0 -0.386719,0.304688 0,0.28125 0.246089,0.28125 0.386719,0.28125 h 2.25 c 0.14062,0 0.375,0 0.375,-0.281251 z m 3.6416,-3.011719 c 0,-0.328125 -0.26953,-0.574219 -0.5625,-0.574219 -0.32812,0 -0.57422,0.28125 -0.57422,0.5625 0,0.339844 0.28125,0.574219 0.5625,0.574219 0.33985,0 0.57422,-0.269531 0.57422,-0.5625 z m 0.0469,3.046875 c 0,-0.550781 -0.23438,-0.890625 -0.6211,-0.890625 -0.3164,0 -0.5625,0.246094 -0.5625,0.5625 0,0.210937 0.12891,0.550781 0.57422,0.574219 -0.082,0.304687 -0.29297,0.550781 -0.5625,0.691406 -0.0586,0.02344 -0.19922,0.09375 -0.19922,0.257812 0,0.140625 0.14063,0.292969 0.30469,0.292969 0.19922,0 1.06641,-0.480469 1.06641,-1.488281 z m 0,0"
         style="fill:#000000;fill-opacity:1;fill-rule:nonzero;stroke:none" />
    </g>
  </g>
</svg>
