<?xml version="1.0" encoding="UTF-8" standalone="no"?>
<!-- Created with Inkscape (http://www.inkscape.org/) -->

<svg
   version="1.1"
   id="svg1"
   width="527.71997"
   height="259.01334"
   viewBox="0 0 527.71997 259.01334"
   sodipodi:docname="4.pdf"
   xmlns:inkscape="http://www.inkscape.org/namespaces/inkscape"
   xmlns:sodipodi="http://sodipodi.sourceforge.net/DTD/sodipodi-0.dtd"
   xmlns="http://www.w3.org/2000/svg"
   xmlns:svg="http://www.w3.org/2000/svg">
  <defs
     id="defs1" />
  <sodipodi:namedview
     id="namedview1"
     pagecolor="#ffffff"
     bordercolor="#000000"
     borderopacity="0.25"
     inkscape:showpageshadow="2"
     inkscape:pageopacity="0.0"
     inkscape:pagecheckerboard="0"
     inkscape:deskcolor="#d1d1d1">
    <inkscape:page
       x="0"
       y="0"
       inkscape:label="1"
       id="page1"
       width="527.71997"
       height="259.01334"
       margin="0"
       bleed="0" />
  </sodipodi:namedview>
  <g
     id="g1"
     inkscape:groupmode="layer"
     inkscape:label="1">
    <path
       id="path1"
       d="M -12.04738,-12.04738 H 12.04738 V 12.04738 H -12.04738 Z"
       style="fill:#ffffff;fill-opacity:1;fill-rule:nonzero;stroke:#666666;stroke-width:0.49814;stroke-linecap:butt;stroke-linejoin:miter;stroke-miterlimit:10;stroke-dasharray:none;stroke-opacity:1"
       transform="matrix(1.3333333,0,0,-1.3333333,58.638667,58.133333)" />
    <path
       id="path2"
       d="m 2.4953281,0.11608594 c 1.265625,0 2.0390625,-1.19531254 2.0390625,-3.33984374 0,-2.1328125 -0.7734375,-3.28125 -2.0390625,-3.28125 -1.2890625,0 -2.05078122,1.1484375 -2.05078122,3.28125 0,2.1445312 0.76171872,3.33984374 2.05078122,3.33984374 z m 0,-0.66796875 c -0.75,0 -1.2539062,-0.79687499 -1.2539062,-2.67187499 0,-1.875 0.5039062,-2.6367188 1.2539062,-2.6367188 0.7382813,0 1.2539063,0.7617188 1.2539063,2.6367188 0,1.875 -0.515625,2.67187499 -1.2539063,2.67187499 z m 0,0"
       style="fill:#000000;fill-opacity:1;fill-rule:nonzero;stroke:none"
       aria-label="0"
       transform="matrix(1.3333333,0,0,1.3333333,55.321333,62.396)" />
    <path
       id="path3"
       d="M 14.03162,-12.04738 H 38.12638 V 12.04738 H 14.03162 Z"
       style="fill:#ffffff;fill-opacity:1;fill-rule:nonzero;stroke:#666666;stroke-width:0.49814;stroke-linecap:butt;stroke-linejoin:miter;stroke-miterlimit:10;stroke-dasharray:none;stroke-opacity:1"
       transform="matrix(1.3333333,0,0,-1.3333333,58.638667,58.133333)" />
    <path
       id="path4"
       d="m 2.4964063,0.11608594 c 1.265625,0 2.0390625,-1.19531254 2.0390625,-3.33984374 0,-2.1328125 -0.7734375,-3.28125 -2.0390625,-3.28125 -1.2890625,0 -2.0507813,1.1484375 -2.0507813,3.28125 0,2.1445312 0.7617188,3.33984374 2.0507813,3.33984374 z m 0,-0.66796875 c -0.75,0 -1.2539063,-0.79687499 -1.2539063,-2.67187499 0,-1.875 0.5039063,-2.6367188 1.2539063,-2.6367188 0.7382812,0 1.2539062,0.7617188 1.2539062,2.6367188 0,1.875 -0.515625,2.67187499 -1.2539062,2.67187499 z m 0,0"
       style="fill:#000000;fill-opacity:1;fill-rule:nonzero;stroke:none"
       aria-label="0"
       transform="matrix(1.3333333,0,0,1.3333333,90.093333,62.396)" />
    <path
       id="path5"
       d="M 40.11063,-12.04738 H 64.20539 V 12.04738 H 40.11063 Z"
       style="fill:#ffffff;fill-opacity:1;fill-rule:nonzero;stroke:#666666;stroke-width:0.49814;stroke-linecap:butt;stroke-linejoin:miter;stroke-miterlimit:10;stroke-dasharray:none;stroke-opacity:1"
       transform="matrix(1.3333333,0,0,-1.3333333,58.638667,58.133333)" />
    <path
       id="path6"
       d="m 2.4974844,0.11608594 c 1.265625,0 2.0390625,-1.19531254 2.0390625,-3.33984374 0,-2.1328125 -0.7734375,-3.28125 -2.0390625,-3.28125 -1.2890625,0 -2.05078128,1.1484375 -2.05078128,3.28125 0,2.1445312 0.76171878,3.33984374 2.05078128,3.33984374 z m 0,-0.66796875 c -0.75,0 -1.2539063,-0.79687499 -1.2539063,-2.67187499 0,-1.875 0.5039063,-2.6367188 1.2539063,-2.6367188 0.7382812,0 1.2539062,0.7617188 1.2539062,2.6367188 0,1.875 -0.515625,2.67187499 -1.2539062,2.67187499 z m 0,0"
       style="fill:#000000;fill-opacity:1;fill-rule:nonzero;stroke:none"
       aria-label="0"
       transform="matrix(1.3333333,0,0,1.3333333,124.86533,62.396)" />
    <path
       id="path7"
       d="M 66.18964,-12.04738 H 90.2844 V 12.04738 H 66.18964 Z"
       style="fill:#ffffff;fill-opacity:1;fill-rule:nonzero;stroke:#666666;stroke-width:0.49814;stroke-linecap:butt;stroke-linejoin:miter;stroke-miterlimit:10;stroke-dasharray:none;stroke-opacity:1"
       transform="matrix(1.3333333,0,0,-1.3333333,58.638667,58.133333)" />
    <path
       id="path8"
       d="m 2.4956328,0.11608594 c 1.265625,0 2.0390625,-1.19531254 2.0390625,-3.33984374 0,-2.1328125 -0.7734375,-3.28125 -2.0390625,-3.28125 -1.2890625,0 -2.05078124,1.1484375 -2.05078124,3.28125 0,2.1445312 0.76171874,3.33984374 2.05078124,3.33984374 z m 0,-0.66796875 c -0.75,0 -1.2539062,-0.79687499 -1.2539062,-2.67187499 0,-1.875 0.5039062,-2.6367188 1.2539062,-2.6367188 0.7382813,0 1.2539063,0.7617188 1.2539063,2.6367188 0,1.875 -0.515625,2.67187499 -1.2539063,2.67187499 z m 0,0"
       style="fill:#000000;fill-opacity:1;fill-rule:nonzero;stroke:none"
       aria-label="0"
       transform="matrix(1.3333333,0,0,1.3333333,159.63733,62.396)" />
    <path
       id="path9"
       d="m 92.26866,-12.04738 h 24.09476 V 12.04738 H 92.26866 Z"
       style="fill:#ffffff;fill-opacity:1;fill-rule:nonzero;stroke:#666666;stroke-width:0.49814;stroke-linecap:butt;stroke-linejoin:miter;stroke-miterlimit:10;stroke-dasharray:none;stroke-opacity:1"
       transform="matrix(1.3333333,0,0,-1.3333333,58.638667,58.133333)" />
    <path
       id="path10"
       d="m 2.4967109,0.11608594 c 1.265625,0 2.0390625,-1.19531254 2.0390625,-3.33984374 0,-2.1328125 -0.7734375,-3.28125 -2.0390625,-3.28125 -1.2890625,0 -2.05078121,1.1484375 -2.05078121,3.28125 0,2.1445312 0.76171871,3.33984374 2.05078121,3.33984374 z m 0,-0.66796875 c -0.75,0 -1.2539062,-0.79687499 -1.2539062,-2.67187499 0,-1.875 0.5039062,-2.6367188 1.2539062,-2.6367188 0.7382813,0 1.2539063,0.7617188 1.2539063,2.6367188 0,1.875 -0.515625,2.67187499 -1.2539063,2.67187499 z m 0,0"
       style="fill:#000000;fill-opacity:1;fill-rule:nonzero;stroke:none"
       aria-label="0"
       transform="matrix(1.3333333,0,0,1.3333333,194.40933,62.396)" />
    <path
       id="path11"
       d="m 118.34767,-12.04738 h 24.09476 v 24.09476 h -24.09476 z"
       style="fill:#ffffff;fill-opacity:1;fill-rule:nonzero;stroke:#666666;stroke-width:0.49814;stroke-linecap:butt;stroke-linejoin:miter;stroke-miterlimit:10;stroke-dasharray:none;stroke-opacity:1"
       transform="matrix(1.3333333,0,0,-1.3333333,58.638667,58.133333)" />
    <path
       id="path12"
       d="m 2.4948594,0.11608594 c 1.265625,0 2.0390625,-1.19531254 2.0390625,-3.33984374 0,-2.1328125 -0.7734375,-3.28125 -2.0390625,-3.28125 -1.2890625,0 -2.05078127,1.1484375 -2.05078127,3.28125 0,2.1445312 0.76171877,3.33984374 2.05078127,3.33984374 z m 0,-0.66796875 c -0.75,0 -1.2539063,-0.79687499 -1.2539063,-2.67187499 0,-1.875 0.5039063,-2.6367188 1.2539063,-2.6367188 0.7382812,0 1.2539062,0.7617188 1.2539062,2.6367188 0,1.875 -0.515625,2.67187499 -1.2539062,2.67187499 z m 0,0"
       style="fill:#000000;fill-opacity:1;fill-rule:nonzero;stroke:none"
       aria-label="0"
       transform="matrix(1.3333333,0,0,1.3333333,229.18133,62.396)" />
    <path
       id="path13"
       d="m -12.04738,-38.12639 h 24.09476 v 24.09476 h -24.09476 z"
       style="fill:#ffffff;fill-opacity:1;fill-rule:nonzero;stroke:#666666;stroke-width:0.49814;stroke-linecap:butt;stroke-linejoin:miter;stroke-miterlimit:10;stroke-dasharray:none;stroke-opacity:1"
       transform="matrix(1.3333333,0,0,-1.3333333,58.638667,58.133333)" />
    <path
       id="path14"
       d="m 2.4953281,0.11716406 c 1.265625,0 2.0390625,-1.19531246 2.0390625,-3.33984376 0,-2.1328125 -0.7734375,-3.28125 -2.0390625,-3.28125 -1.2890625,0 -2.05078122,1.1484375 -2.05078122,3.28125 0,2.1445313 0.76171872,3.33984376 2.05078122,3.33984376 z m 0,-0.66796875 c -0.75,0 -1.2539062,-0.79687501 -1.2539062,-2.67187501 0,-1.875 0.5039062,-2.6367187 1.2539062,-2.6367187 0.7382813,0 1.2539063,0.7617187 1.2539063,2.6367187 0,1.875 -0.515625,2.67187501 -1.2539063,2.67187501 z m 0,0"
       style="fill:#000000;fill-opacity:1;fill-rule:nonzero;stroke:none"
       aria-label="0"
       transform="matrix(1.3333333,0,0,1.3333333,55.321333,97.168)" />
    <path
       id="path15"
       d="m 14.03162,-38.12639 h 24.09476 v 24.09476 H 14.03162 Z"
       style="fill:#e0e0e0;fill-opacity:1;fill-rule:nonzero;stroke:#4c4c4c;stroke-width:0.59776;stroke-linecap:butt;stroke-linejoin:miter;stroke-miterlimit:10;stroke-dasharray:none;stroke-opacity:1"
       transform="matrix(1.3333333,0,0,-1.3333333,58.638667,58.133333)" />
    <path
       id="path16"
       d="M 0.78546875,-2.34375e-5 H 4.3948438 V -0.67971094 H 3.070625 V -6.3867422 H 2.4495313 c -0.3632813,0.2109375 -0.7851563,0.3632813 -1.359375,0.46875 v 0.515625 h 1.171875 v 4.72265626 H 0.78546875 Z m 0,0"
       style="fill:#000000;fill-opacity:1;fill-rule:nonzero;stroke:none"
       aria-label="1"
       transform="matrix(1.3333333,0,0,1.3333333,90.093333,97.168)" />
    <path
       id="path17"
       d="m 40.11063,-38.12639 h 24.09476 v 24.09476 H 40.11063 Z"
       style="fill:#e0e0e0;fill-opacity:1;fill-rule:nonzero;stroke:#4c4c4c;stroke-width:0.59776;stroke-linecap:butt;stroke-linejoin:miter;stroke-miterlimit:10;stroke-dasharray:none;stroke-opacity:1"
       transform="matrix(1.3333333,0,0,-1.3333333,58.638667,58.133333)" />
    <path
       id="path18"
       d="M 0.78654687,-2.34375e-5 H 4.3959219 V -0.67971094 H 3.0717031 V -6.3867422 H 2.4506094 c -0.3632813,0.2109375 -0.7851563,0.3632813 -1.359375,0.46875 v 0.515625 h 1.171875 v 4.72265626 H 0.78654687 Z m 0,0"
       style="fill:#000000;fill-opacity:1;fill-rule:nonzero;stroke:none"
       aria-label="1"
       transform="matrix(1.3333333,0,0,1.3333333,124.86533,97.168)" />
    <path
       id="path19"
       d="M 66.18964,-38.12639 H 90.2844 v 24.09476 H 66.18964 Z"
       style="fill:#e0e0e0;fill-opacity:1;fill-rule:nonzero;stroke:#4c4c4c;stroke-width:0.59776;stroke-linecap:butt;stroke-linejoin:miter;stroke-miterlimit:10;stroke-dasharray:none;stroke-opacity:1"
       transform="matrix(1.3333333,0,0,-1.3333333,58.638667,58.133333)" />
    <path
       id="path20"
       d="M 0.78469531,-2.34375e-5 H 4.3940703 V -0.67971094 H 3.0698516 V -6.3867422 H 2.4487578 c -0.3632812,0.2109375 -0.7851562,0.3632813 -1.359375,0.46875 v 0.515625 h 1.171875 v 4.72265626 H 0.78469531 Z m 0,0"
       style="fill:#000000;fill-opacity:1;fill-rule:nonzero;stroke:none"
       aria-label="1"
       transform="matrix(1.3333333,0,0,1.3333333,159.63733,97.168)" />
    <path
       id="path21"
       d="m 92.26866,-38.12639 h 24.09476 v 24.09476 H 92.26866 Z"
       style="fill:#e0e0e0;fill-opacity:1;fill-rule:nonzero;stroke:#4c4c4c;stroke-width:0.59776;stroke-linecap:butt;stroke-linejoin:miter;stroke-miterlimit:10;stroke-dasharray:none;stroke-opacity:1"
       transform="matrix(1.3333333,0,0,-1.3333333,58.638667,58.133333)" />
    <path
       id="path22"
       d="M 0.78577344,-2.34375e-5 H 4.3951484 V -0.67971094 H 3.0709297 V -6.3867422 H 2.4498359 c -0.3632812,0.2109375 -0.7851562,0.3632813 -1.359375,0.46875 v 0.515625 h 1.171875 v 4.72265626 H 0.78577344 Z m 0,0"
       style="fill:#000000;fill-opacity:1;fill-rule:nonzero;stroke:none"
       aria-label="1"
       transform="matrix(1.3333333,0,0,1.3333333,194.40933,97.168)" />
    <path
       id="path23"
       d="m 118.34767,-38.12639 h 24.09476 v 24.09476 h -24.09476 z"
       style="fill:#ffffff;fill-opacity:1;fill-rule:nonzero;stroke:#666666;stroke-width:0.49814;stroke-linecap:butt;stroke-linejoin:miter;stroke-miterlimit:10;stroke-dasharray:none;stroke-opacity:1"
       transform="matrix(1.3333333,0,0,-1.3333333,58.638667,58.133333)" />
    <path
       id="path24"
       d="m 2.4948594,0.11716406 c 1.265625,0 2.0390625,-1.19531246 2.0390625,-3.33984376 0,-2.1328125 -0.7734375,-3.28125 -2.0390625,-3.28125 -1.2890625,0 -2.05078127,1.1484375 -2.05078127,3.28125 0,2.1445313 0.76171877,3.33984376 2.05078127,3.33984376 z m 0,-0.66796875 c -0.75,0 -1.2539063,-0.79687501 -1.2539063,-2.67187501 0,-1.875 0.5039063,-2.6367187 1.2539063,-2.6367187 0.7382812,0 1.2539062,0.7617187 1.2539062,2.6367187 0,1.875 -0.515625,2.67187501 -1.2539062,2.67187501 z m 0,0"
       style="fill:#000000;fill-opacity:1;fill-rule:nonzero;stroke:none"
       aria-label="0"
       transform="matrix(1.3333333,0,0,1.3333333,229.18133,97.168)" />
    <path
       id="path25"
       d="m -12.04738,-64.2054 h 24.09476 v 24.09476 h -24.09476 z"
       style="fill:#ffffff;fill-opacity:1;fill-rule:nonzero;stroke:#666666;stroke-width:0.49814;stroke-linecap:butt;stroke-linejoin:miter;stroke-miterlimit:10;stroke-dasharray:none;stroke-opacity:1"
       transform="matrix(1.3333333,0,0,-1.3333333,58.638667,58.133333)" />
    <path
       id="path26"
       d="m 2.4953281,0.11824219 c 1.265625,0 2.0390625,-1.19531249 2.0390625,-3.33984379 0,-2.1328125 -0.7734375,-3.28125 -2.0390625,-3.28125 -1.2890625,0 -2.05078122,1.1484375 -2.05078122,3.28125 0,2.1445313 0.76171872,3.33984379 2.05078122,3.33984379 z m 0,-0.66796875 c -0.75,0 -1.2539062,-0.79687504 -1.2539062,-2.67187504 0,-1.875 0.5039062,-2.6367187 1.2539062,-2.6367187 0.7382813,0 1.2539063,0.7617187 1.2539063,2.6367187 0,1.875 -0.515625,2.67187504 -1.2539063,2.67187504 z m 0,0"
       style="fill:#000000;fill-opacity:1;fill-rule:nonzero;stroke:none"
       aria-label="0"
       transform="matrix(1.3333333,0,0,1.3333333,55.321333,131.94)" />
    <path
       id="path27"
       d="m 14.03162,-64.2054 h 24.09476 v 24.09476 H 14.03162 Z"
       style="fill:#e0e0e0;fill-opacity:1;fill-rule:nonzero;stroke:#4c4c4c;stroke-width:0.59776;stroke-linecap:butt;stroke-linejoin:miter;stroke-miterlimit:10;stroke-dasharray:none;stroke-opacity:1"
       transform="matrix(1.3333333,0,0,-1.3333333,58.638667,58.133333)" />
    <path
       id="path28"
       d="M 0.78546875,0.00105469 H 4.3948438 v -0.6796875 H 3.070625 V -6.3856641 H 2.4495313 c -0.3632813,0.2109375 -0.7851563,0.3632813 -1.359375,0.46875 v 0.515625 h 1.171875 v 4.72265629 H 0.78546875 Z m 0,0"
       style="fill:#000000;fill-opacity:1;fill-rule:nonzero;stroke:none"
       aria-label="1"
       transform="matrix(1.3333333,0,0,1.3333333,90.093333,131.94)" />
    <path
       id="path29"
       d="m 40.11063,-64.2054 h 24.09476 v 24.09476 H 40.11063 Z"
       style="fill:#e0e0e0;fill-opacity:1;fill-rule:nonzero;stroke:#4c4c4c;stroke-width:0.59776;stroke-linecap:butt;stroke-linejoin:miter;stroke-miterlimit:10;stroke-dasharray:none;stroke-opacity:1"
       transform="matrix(1.3333333,0,0,-1.3333333,58.638667,58.133333)" />
    <path
       id="path30"
       d="M 0.78654687,0.00105469 H 4.3959219 v -0.6796875 H 3.0717031 V -6.3856641 H 2.4506094 c -0.3632813,0.2109375 -0.7851563,0.3632813 -1.359375,0.46875 v 0.515625 h 1.171875 v 4.72265629 H 0.78654687 Z m 0,0"
       style="fill:#000000;fill-opacity:1;fill-rule:nonzero;stroke:none"
       aria-label="1"
       transform="matrix(1.3333333,0,0,1.3333333,124.86533,131.94)" />
    <path
       id="path31"
       d="M 66.18964,-64.2054 H 90.2844 v 24.09476 H 66.18964 Z"
       style="fill:#e0e0e0;fill-opacity:1;fill-rule:nonzero;stroke:#4c4c4c;stroke-width:0.59776;stroke-linecap:butt;stroke-linejoin:miter;stroke-miterlimit:10;stroke-dasharray:none;stroke-opacity:1"
       transform="matrix(1.3333333,0,0,-1.3333333,58.638667,58.133333)" />
    <path
       id="path32"
       d="M 0.78469531,0.00105469 H 4.3940703 v -0.6796875 H 3.0698516 V -6.3856641 H 2.4487578 c -0.3632812,0.2109375 -0.7851562,0.3632813 -1.359375,0.46875 v 0.515625 h 1.171875 v 4.72265629 H 0.78469531 Z m 0,0"
       style="fill:#000000;fill-opacity:1;fill-rule:nonzero;stroke:none"
       aria-label="1"
       transform="matrix(1.3333333,0,0,1.3333333,159.63733,131.94)" />
    <path
       id="path33"
       d="m 92.26866,-64.2054 h 24.09476 v 24.09476 H 92.26866 Z"
       style="fill:#e0e0e0;fill-opacity:1;fill-rule:nonzero;stroke:#4c4c4c;stroke-width:0.59776;stroke-linecap:butt;stroke-linejoin:miter;stroke-miterlimit:10;stroke-dasharray:none;stroke-opacity:1"
       transform="matrix(1.3333333,0,0,-1.3333333,58.638667,58.133333)" />
    <path
       id="path34"
       d="M 0.78577344,0.00105469 H 4.3951484 v -0.6796875 H 3.0709297 V -6.3856641 H 2.4498359 c -0.3632812,0.2109375 -0.7851562,0.3632813 -1.359375,0.46875 v 0.515625 h 1.171875 v 4.72265629 H 0.78577344 Z m 0,0"
       style="fill:#000000;fill-opacity:1;fill-rule:nonzero;stroke:none"
       aria-label="1"
       transform="matrix(1.3333333,0,0,1.3333333,194.40933,131.94)" />
    <path
       id="path35"
       d="m 118.34767,-64.2054 h 24.09476 v 24.09476 h -24.09476 z"
       style="fill:#ffffff;fill-opacity:1;fill-rule:nonzero;stroke:#666666;stroke-width:0.49814;stroke-linecap:butt;stroke-linejoin:miter;stroke-miterlimit:10;stroke-dasharray:none;stroke-opacity:1"
       transform="matrix(1.3333333,0,0,-1.3333333,58.638667,58.133333)" />
    <path
       id="path36"
       d="m 2.4948594,0.11824219 c 1.265625,0 2.0390625,-1.19531249 2.0390625,-3.33984379 0,-2.1328125 -0.7734375,-3.28125 -2.0390625,-3.28125 -1.2890625,0 -2.05078127,1.1484375 -2.05078127,3.28125 0,2.1445313 0.76171877,3.33984379 2.05078127,3.33984379 z m 0,-0.66796875 c -0.75,0 -1.2539063,-0.79687504 -1.2539063,-2.67187504 0,-1.875 0.5039063,-2.6367187 1.2539063,-2.6367187 0.7382812,0 1.2539062,0.7617187 1.2539062,2.6367187 0,1.875 -0.515625,2.67187504 -1.2539062,2.67187504 z m 0,0"
       style="fill:#000000;fill-opacity:1;fill-rule:nonzero;stroke:none"
       aria-label="0"
       transform="matrix(1.3333333,0,0,1.3333333,229.18133,131.94)" />
    <path
       id="path37"
       d="m -12.04738,-90.28441 h 24.09476 v 24.09476 h -24.09476 z"
       style="fill:#ffffff;fill-opacity:1;fill-rule:nonzero;stroke:#666666;stroke-width:0.49814;stroke-linecap:butt;stroke-linejoin:miter;stroke-miterlimit:10;stroke-dasharray:none;stroke-opacity:1"
       transform="matrix(1.3333333,0,0,-1.3333333,58.638667,58.133333)" />
    <path
       id="path38"
       d="m 2.4953281,0.11639062 c 1.265625,0 2.0390625,-1.19531252 2.0390625,-3.33984372 0,-2.1328125 -0.7734375,-3.28125 -2.0390625,-3.28125 -1.2890625,0 -2.05078122,1.1484375 -2.05078122,3.28125 0,2.1445312 0.76171872,3.33984372 2.05078122,3.33984372 z m 0,-0.66796875 c -0.75,0 -1.2539062,-0.79687497 -1.2539062,-2.67187497 0,-1.875 0.5039062,-2.6367188 1.2539062,-2.6367188 0.7382813,0 1.2539063,0.7617188 1.2539063,2.6367188 0,1.875 -0.515625,2.67187497 -1.2539063,2.67187497 z m 0,0"
       style="fill:#000000;fill-opacity:1;fill-rule:nonzero;stroke:none"
       aria-label="0"
       transform="matrix(1.3333333,0,0,1.3333333,55.321333,166.712)" />
    <path
       id="path39"
       d="m 14.03162,-90.28441 h 24.09476 v 24.09476 H 14.03162 Z"
       style="fill:#e0e0e0;fill-opacity:1;fill-rule:nonzero;stroke:#4c4c4c;stroke-width:0.59776;stroke-linecap:butt;stroke-linejoin:miter;stroke-miterlimit:10;stroke-dasharray:none;stroke-opacity:1"
       transform="matrix(1.3333333,0,0,-1.3333333,58.638667,58.133333)" />
    <path
       id="path40"
       d="M 0.78546875,-7.96875e-4 H 4.3948438 V -0.68048438 H 3.070625 V -6.3875156 H 2.4495313 c -0.3632813,0.2109375 -0.7851563,0.3632812 -1.359375,0.46875 v 0.515625 h 1.171875 v 4.72265622 H 0.78546875 Z m 0,0"
       style="fill:#000000;fill-opacity:1;fill-rule:nonzero;stroke:none"
       aria-label="1"
       transform="matrix(1.3333333,0,0,1.3333333,90.093333,166.712)" />
    <path
       id="path41"
       d="m 40.11063,-90.28441 h 24.09476 v 24.09476 H 40.11063 Z"
       style="fill:#e0e0e0;fill-opacity:1;fill-rule:nonzero;stroke:#4c4c4c;stroke-width:0.59776;stroke-linecap:butt;stroke-linejoin:miter;stroke-miterlimit:10;stroke-dasharray:none;stroke-opacity:1"
       transform="matrix(1.3333333,0,0,-1.3333333,58.638667,58.133333)" />
    <path
       id="path42"
       d="M 0.78654687,-7.96875e-4 H 4.3959219 V -0.68048438 H 3.0717031 V -6.3875156 H 2.4506094 c -0.3632813,0.2109375 -0.7851563,0.3632812 -1.359375,0.46875 v 0.515625 h 1.171875 v 4.72265622 H 0.78654687 Z m 0,0"
       style="fill:#000000;fill-opacity:1;fill-rule:nonzero;stroke:none"
       aria-label="1"
       transform="matrix(1.3333333,0,0,1.3333333,124.86533,166.712)" />
    <path
       id="path43"
       d="M 66.18964,-90.28441 H 90.2844 v 24.09476 H 66.18964 Z"
       style="fill:#e0e0e0;fill-opacity:1;fill-rule:nonzero;stroke:#4c4c4c;stroke-width:0.59776;stroke-linecap:butt;stroke-linejoin:miter;stroke-miterlimit:10;stroke-dasharray:none;stroke-opacity:1"
       transform="matrix(1.3333333,0,0,-1.3333333,58.638667,58.133333)" />
    <path
       id="path44"
       d="M 0.78469531,-7.96875e-4 H 4.3940703 V -0.68048438 H 3.0698516 V -6.3875156 H 2.4487578 c -0.3632812,0.2109375 -0.7851562,0.3632812 -1.359375,0.46875 v 0.515625 h 1.171875 v 4.72265622 H 0.78469531 Z m 0,0"
       style="fill:#000000;fill-opacity:1;fill-rule:nonzero;stroke:none"
       aria-label="1"
       transform="matrix(1.3333333,0,0,1.3333333,159.63733,166.712)" />
    <path
       id="path45"
       d="m 92.26866,-90.28441 h 24.09476 v 24.09476 H 92.26866 Z"
       style="fill:#e0e0e0;fill-opacity:1;fill-rule:nonzero;stroke:#4c4c4c;stroke-width:0.59776;stroke-linecap:butt;stroke-linejoin:miter;stroke-miterlimit:10;stroke-dasharray:none;stroke-opacity:1"
       transform="matrix(1.3333333,0,0,-1.3333333,58.638667,58.133333)" />
    <path
       id="path46"
       d="M 0.78577344,-7.96875e-4 H 4.3951484 V -0.68048438 H 3.0709297 V -6.3875156 H 2.4498359 c -0.3632812,0.2109375 -0.7851562,0.3632812 -1.359375,0.46875 v 0.515625 h 1.171875 v 4.72265622 H 0.78577344 Z m 0,0"
       style="fill:#000000;fill-opacity:1;fill-rule:nonzero;stroke:none"
       aria-label="1"
       transform="matrix(1.3333333,0,0,1.3333333,194.40933,166.712)" />
    <path
       id="path47"
       d="m 118.34767,-90.28441 h 24.09476 v 24.09476 h -24.09476 z"
       style="fill:#ffffff;fill-opacity:1;fill-rule:nonzero;stroke:#666666;stroke-width:0.49814;stroke-linecap:butt;stroke-linejoin:miter;stroke-miterlimit:10;stroke-dasharray:none;stroke-opacity:1"
       transform="matrix(1.3333333,0,0,-1.3333333,58.638667,58.133333)" />
    <path
       id="path48"
       d="m 2.4948594,0.11639062 c 1.265625,0 2.0390625,-1.19531252 2.0390625,-3.33984372 0,-2.1328125 -0.7734375,-3.28125 -2.0390625,-3.28125 -1.2890625,0 -2.05078127,1.1484375 -2.05078127,3.28125 0,2.1445312 0.76171877,3.33984372 2.05078127,3.33984372 z m 0,-0.66796875 c -0.75,0 -1.2539063,-0.79687497 -1.2539063,-2.67187497 0,-1.875 0.5039063,-2.6367188 1.2539063,-2.6367188 0.7382812,0 1.2539062,0.7617188 1.2539062,2.6367188 0,1.875 -0.515625,2.67187497 -1.2539062,2.67187497 z m 0,0"
       style="fill:#000000;fill-opacity:1;fill-rule:nonzero;stroke:none"
       aria-label="0"
       transform="matrix(1.3333333,0,0,1.3333333,229.18133,166.712)" />
    <path
       id="path49"
       d="m -12.04738,-116.36343 h 24.09476 v 24.09476 h -24.09476 z"
       style="fill:#ffffff;fill-opacity:1;fill-rule:nonzero;stroke:#666666;stroke-width:0.49814;stroke-linecap:butt;stroke-linejoin:miter;stroke-miterlimit:10;stroke-dasharray:none;stroke-opacity:1"
       transform="matrix(1.3333333,0,0,-1.3333333,58.638667,58.133333)" />
    <path
       id="path50"
       d="m 2.4953281,0.11746875 c 1.265625,0 2.0390625,-1.19531245 2.0390625,-3.33984375 0,-2.1328125 -0.7734375,-3.28125 -2.0390625,-3.28125 -1.2890625,0 -2.05078122,1.1484375 -2.05078122,3.28125 0,2.1445313 0.76171872,3.33984375 2.05078122,3.33984375 z m 0,-0.66796875 c -0.75,0 -1.2539062,-0.796875 -1.2539062,-2.671875 0,-1.875 0.5039062,-2.6367187 1.2539062,-2.6367187 0.7382813,0 1.2539063,0.7617187 1.2539063,2.6367187 0,1.875 -0.515625,2.671875 -1.2539063,2.671875 z m 0,0"
       style="fill:#000000;fill-opacity:1;fill-rule:nonzero;stroke:none"
       aria-label="0"
       transform="matrix(1.3333333,0,0,1.3333333,55.321333,201.484)" />
    <path
       id="path51"
       d="m 14.03162,-116.36343 h 24.09476 v 24.09476 H 14.03162 Z"
       style="fill:#ffffff;fill-opacity:1;fill-rule:nonzero;stroke:#666666;stroke-width:0.49814;stroke-linecap:butt;stroke-linejoin:miter;stroke-miterlimit:10;stroke-dasharray:none;stroke-opacity:1"
       transform="matrix(1.3333333,0,0,-1.3333333,58.638667,58.133333)" />
    <path
       id="path52"
       d="m 2.4964063,0.11746875 c 1.265625,0 2.0390625,-1.19531245 2.0390625,-3.33984375 0,-2.1328125 -0.7734375,-3.28125 -2.0390625,-3.28125 -1.2890625,0 -2.0507813,1.1484375 -2.0507813,3.28125 0,2.1445313 0.7617188,3.33984375 2.0507813,3.33984375 z m 0,-0.66796875 c -0.75,0 -1.2539063,-0.796875 -1.2539063,-2.671875 0,-1.875 0.5039063,-2.6367187 1.2539063,-2.6367187 0.7382812,0 1.2539062,0.7617187 1.2539062,2.6367187 0,1.875 -0.515625,2.671875 -1.2539062,2.671875 z m 0,0"
       style="fill:#000000;fill-opacity:1;fill-rule:nonzero;stroke:none"
       aria-label="0"
       transform="matrix(1.3333333,0,0,1.3333333,90.093333,201.484)" />
    <path
       id="path53"
       d="m 40.11063,-116.36343 h 24.09476 v 24.09476 H 40.11063 Z"
       style="fill:#ffffff;fill-opacity:1;fill-rule:nonzero;stroke:#666666;stroke-width:0.49814;stroke-linecap:butt;stroke-linejoin:miter;stroke-miterlimit:10;stroke-dasharray:none;stroke-opacity:1"
       transform="matrix(1.3333333,0,0,-1.3333333,58.638667,58.133333)" />
    <path
       id="path54"
       d="m 2.4974844,0.11746875 c 1.265625,0 2.0390625,-1.19531245 2.0390625,-3.33984375 0,-2.1328125 -0.7734375,-3.28125 -2.0390625,-3.28125 -1.2890625,0 -2.05078128,1.1484375 -2.05078128,3.28125 0,2.1445313 0.76171878,3.33984375 2.05078128,3.33984375 z m 0,-0.66796875 c -0.75,0 -1.2539063,-0.796875 -1.2539063,-2.671875 0,-1.875 0.5039063,-2.6367187 1.2539063,-2.6367187 0.7382812,0 1.2539062,0.7617187 1.2539062,2.6367187 0,1.875 -0.515625,2.671875 -1.2539062,2.671875 z m 0,0"
       style="fill:#000000;fill-opacity:1;fill-rule:nonzero;stroke:none"
       aria-label="0"
       transform="matrix(1.3333333,0,0,1.3333333,124.86533,201.484)" />
    <path
       id="path55"
       d="M 66.18964,-116.36343 H 90.2844 v 24.09476 H 66.18964 Z"
       style="fill:#ffffff;fill-opacity:1;fill-rule:nonzero;stroke:#666666;stroke-width:0.49814;stroke-linecap:butt;stroke-linejoin:miter;stroke-miterlimit:10;stroke-dasharray:none;stroke-opacity:1"
       transform="matrix(1.3333333,0,0,-1.3333333,58.638667,58.133333)" />
    <path
       id="path56"
       d="m 2.4956328,0.11746875 c 1.265625,0 2.0390625,-1.19531245 2.0390625,-3.33984375 0,-2.1328125 -0.7734375,-3.28125 -2.0390625,-3.28125 -1.2890625,0 -2.05078124,1.1484375 -2.05078124,3.28125 0,2.1445313 0.76171874,3.33984375 2.05078124,3.33984375 z m 0,-0.66796875 c -0.75,0 -1.2539062,-0.796875 -1.2539062,-2.671875 0,-1.875 0.5039062,-2.6367187 1.2539062,-2.6367187 0.7382813,0 1.2539063,0.7617187 1.2539063,2.6367187 0,1.875 -0.515625,2.671875 -1.2539063,2.671875 z m 0,0"
       style="fill:#000000;fill-opacity:1;fill-rule:nonzero;stroke:none"
       aria-label="0"
       transform="matrix(1.3333333,0,0,1.3333333,159.63733,201.484)" />
    <path
       id="path57"
       d="m 92.26866,-116.36343 h 24.09476 v 24.09476 H 92.26866 Z"
       style="fill:#ffffff;fill-opacity:1;fill-rule:nonzero;stroke:#666666;stroke-width:0.49814;stroke-linecap:butt;stroke-linejoin:miter;stroke-miterlimit:10;stroke-dasharray:none;stroke-opacity:1"
       transform="matrix(1.3333333,0,0,-1.3333333,58.638667,58.133333)" />
    <path
       id="path58"
       d="m 2.4967109,0.11746875 c 1.265625,0 2.0390625,-1.19531245 2.0390625,-3.33984375 0,-2.1328125 -0.7734375,-3.28125 -2.0390625,-3.28125 -1.2890625,0 -2.05078121,1.1484375 -2.05078121,3.28125 0,2.1445313 0.76171871,3.33984375 2.05078121,3.33984375 z m 0,-0.66796875 c -0.75,0 -1.2539062,-0.796875 -1.2539062,-2.671875 0,-1.875 0.5039062,-2.6367187 1.2539062,-2.6367187 0.7382813,0 1.2539063,0.7617187 1.2539063,2.6367187 0,1.875 -0.515625,2.671875 -1.2539063,2.671875 z m 0,0"
       style="fill:#000000;fill-opacity:1;fill-rule:nonzero;stroke:none"
       aria-label="0"
       transform="matrix(1.3333333,0,0,1.3333333,194.40933,201.484)" />
    <path
       id="path59"
       d="m 118.34767,-116.36343 h 24.09476 v 24.09476 h -24.09476 z"
       style="fill:#ffffff;fill-opacity:1;fill-rule:nonzero;stroke:#666666;stroke-width:0.49814;stroke-linecap:butt;stroke-linejoin:miter;stroke-miterlimit:10;stroke-dasharray:none;stroke-opacity:1"
       transform="matrix(1.3333333,0,0,-1.3333333,58.638667,58.133333)" />
    <path
       id="path60"
       d="m 2.4948594,0.11746875 c 1.265625,0 2.0390625,-1.19531245 2.0390625,-3.33984375 0,-2.1328125 -0.7734375,-3.28125 -2.0390625,-3.28125 -1.2890625,0 -2.05078127,1.1484375 -2.05078127,3.28125 0,2.1445313 0.76171877,3.33984375 2.05078127,3.33984375 z m 0,-0.66796875 c -0.75,0 -1.2539063,-0.796875 -1.2539063,-2.671875 0,-1.875 0.5039063,-2.6367187 1.2539063,-2.6367187 0.7382812,0 1.2539062,0.7617187 1.2539062,2.6367187 0,1.875 -0.515625,2.671875 -1.2539062,2.671875 z m 0,0"
       style="fill:#000000;fill-opacity:1;fill-rule:nonzero;stroke:none"
       aria-label="0"
       transform="matrix(1.3333333,0,0,1.3333333,229.18133,201.484)" />
    <path
       id="path61"
       d="m -12.04738,-142.44244 h 24.09476 v 24.09476 h -24.09476 z"
       style="fill:#ffffff;fill-opacity:1;fill-rule:nonzero;stroke:#666666;stroke-width:0.49814;stroke-linecap:butt;stroke-linejoin:miter;stroke-miterlimit:10;stroke-dasharray:none;stroke-opacity:1"
       transform="matrix(1.3333333,0,0,-1.3333333,58.638667,58.133333)" />
    <path
       id="path62"
       d="m 2.4953281,0.11854687 c 1.265625,0 2.0390625,-1.19531247 2.0390625,-3.33984377 0,-2.1328125 -0.7734375,-3.28125 -2.0390625,-3.28125 -1.2890625,0 -2.05078122,1.1484375 -2.05078122,3.28125 0,2.1445313 0.76171872,3.33984377 2.05078122,3.33984377 z m 0,-0.66796875 c -0.75,0 -1.2539062,-0.79687502 -1.2539062,-2.67187502 0,-1.875 0.5039062,-2.6367187 1.2539062,-2.6367187 0.7382813,0 1.2539063,0.7617187 1.2539063,2.6367187 0,1.875 -0.515625,2.67187502 -1.2539063,2.67187502 z m 0,0"
       style="fill:#000000;fill-opacity:1;fill-rule:nonzero;stroke:none"
       aria-label="0"
       transform="matrix(1.3333333,0,0,1.3333333,55.321333,236.256)" />
    <path
       id="path63"
       d="m 14.03162,-142.44244 h 24.09476 v 24.09476 H 14.03162 Z"
       style="fill:#ffffff;fill-opacity:1;fill-rule:nonzero;stroke:#666666;stroke-width:0.49814;stroke-linecap:butt;stroke-linejoin:miter;stroke-miterlimit:10;stroke-dasharray:none;stroke-opacity:1"
       transform="matrix(1.3333333,0,0,-1.3333333,58.638667,58.133333)" />
    <path
       id="path64"
       d="m 2.4964063,0.11854687 c 1.265625,0 2.0390625,-1.19531247 2.0390625,-3.33984377 0,-2.1328125 -0.7734375,-3.28125 -2.0390625,-3.28125 -1.2890625,0 -2.0507813,1.1484375 -2.0507813,3.28125 0,2.1445313 0.7617188,3.33984377 2.0507813,3.33984377 z m 0,-0.66796875 c -0.75,0 -1.2539063,-0.79687502 -1.2539063,-2.67187502 0,-1.875 0.5039063,-2.6367187 1.2539063,-2.6367187 0.7382812,0 1.2539062,0.7617187 1.2539062,2.6367187 0,1.875 -0.515625,2.67187502 -1.2539062,2.67187502 z m 0,0"
       style="fill:#000000;fill-opacity:1;fill-rule:nonzero;stroke:none"
       aria-label="0"
       transform="matrix(1.3333333,0,0,1.3333333,90.093333,236.256)" />
    <path
       id="path65"
       d="m 40.11063,-142.44244 h 24.09476 v 24.09476 H 40.11063 Z"
       style="fill:#ffffff;fill-opacity:1;fill-rule:nonzero;stroke:#666666;stroke-width:0.49814;stroke-linecap:butt;stroke-linejoin:miter;stroke-miterlimit:10;stroke-dasharray:none;stroke-opacity:1"
       transform="matrix(1.3333333,0,0,-1.3333333,58.638667,58.133333)" />
    <path
       id="path66"
       d="m 2.4974844,0.11854687 c 1.265625,0 2.0390625,-1.19531247 2.0390625,-3.33984377 0,-2.1328125 -0.7734375,-3.28125 -2.0390625,-3.28125 -1.2890625,0 -2.05078128,1.1484375 -2.05078128,3.28125 0,2.1445313 0.76171878,3.33984377 2.05078128,3.33984377 z m 0,-0.66796875 c -0.75,0 -1.2539063,-0.79687502 -1.2539063,-2.67187502 0,-1.875 0.5039063,-2.6367187 1.2539063,-2.6367187 0.7382812,0 1.2539062,0.7617187 1.2539062,2.6367187 0,1.875 -0.515625,2.67187502 -1.2539062,2.67187502 z m 0,0"
       style="fill:#000000;fill-opacity:1;fill-rule:nonzero;stroke:none"
       aria-label="0"
       transform="matrix(1.3333333,0,0,1.3333333,124.86533,236.256)" />
    <path
       id="path67"
       d="M 66.18964,-142.44244 H 90.2844 v 24.09476 H 66.18964 Z"
       style="fill:#ffffff;fill-opacity:1;fill-rule:nonzero;stroke:#666666;stroke-width:0.49814;stroke-linecap:butt;stroke-linejoin:miter;stroke-miterlimit:10;stroke-dasharray:none;stroke-opacity:1"
       transform="matrix(1.3333333,0,0,-1.3333333,58.638667,58.133333)" />
    <path
       id="path68"
       d="m 2.4956328,0.11854687 c 1.265625,0 2.0390625,-1.19531247 2.0390625,-3.33984377 0,-2.1328125 -0.7734375,-3.28125 -2.0390625,-3.28125 -1.2890625,0 -2.05078124,1.1484375 -2.05078124,3.28125 0,2.1445313 0.76171874,3.33984377 2.05078124,3.33984377 z m 0,-0.66796875 c -0.75,0 -1.2539062,-0.79687502 -1.2539062,-2.67187502 0,-1.875 0.5039062,-2.6367187 1.2539062,-2.6367187 0.7382813,0 1.2539063,0.7617187 1.2539063,2.6367187 0,1.875 -0.515625,2.67187502 -1.2539063,2.67187502 z m 0,0"
       style="fill:#000000;fill-opacity:1;fill-rule:nonzero;stroke:none"
       aria-label="0"
       transform="matrix(1.3333333,0,0,1.3333333,159.63733,236.256)" />
    <path
       id="path69"
       d="m 92.26866,-142.44244 h 24.09476 v 24.09476 H 92.26866 Z"
       style="fill:#ffffff;fill-opacity:1;fill-rule:nonzero;stroke:#666666;stroke-width:0.49814;stroke-linecap:butt;stroke-linejoin:miter;stroke-miterlimit:10;stroke-dasharray:none;stroke-opacity:1"
       transform="matrix(1.3333333,0,0,-1.3333333,58.638667,58.133333)" />
    <path
       id="path70"
       d="m 2.4967109,0.11854687 c 1.265625,0 2.0390625,-1.19531247 2.0390625,-3.33984377 0,-2.1328125 -0.7734375,-3.28125 -2.0390625,-3.28125 -1.2890625,0 -2.05078121,1.1484375 -2.05078121,3.28125 0,2.1445313 0.76171871,3.33984377 2.05078121,3.33984377 z m 0,-0.66796875 c -0.75,0 -1.2539062,-0.79687502 -1.2539062,-2.67187502 0,-1.875 0.5039062,-2.6367187 1.2539062,-2.6367187 0.7382813,0 1.2539063,0.7617187 1.2539063,2.6367187 0,1.875 -0.515625,2.67187502 -1.2539063,2.67187502 z m 0,0"
       style="fill:#000000;fill-opacity:1;fill-rule:nonzero;stroke:none"
       aria-label="0"
       transform="matrix(1.3333333,0,0,1.3333333,194.40933,236.256)" />
    <path
       id="path71"
       d="m 118.34767,-142.44244 h 24.09476 v 24.09476 h -24.09476 z"
       style="fill:#ffffff;fill-opacity:1;fill-rule:nonzero;stroke:#666666;stroke-width:0.49814;stroke-linecap:butt;stroke-linejoin:miter;stroke-miterlimit:10;stroke-dasharray:none;stroke-opacity:1"
       transform="matrix(1.3333333,0,0,-1.3333333,58.638667,58.133333)" />
    <path
       id="path72"
       d="m 2.4948594,0.11854687 c 1.265625,0 2.0390625,-1.19531247 2.0390625,-3.33984377 0,-2.1328125 -0.7734375,-3.28125 -2.0390625,-3.28125 -1.2890625,0 -2.05078127,1.1484375 -2.05078127,3.28125 0,2.1445313 0.76171877,3.33984377 2.05078127,3.33984377 z m 0,-0.66796875 c -0.75,0 -1.2539063,-0.79687502 -1.2539063,-2.67187502 0,-1.875 0.5039063,-2.6367187 1.2539063,-2.6367187 0.7382812,0 1.2539062,0.7617187 1.2539062,2.6367187 0,1.875 -0.515625,2.67187502 -1.2539062,2.67187502 z m 0,0"
       style="fill:#000000;fill-opacity:1;fill-rule:nonzero;stroke:none"
       aria-label="0"
       transform="matrix(1.3333333,0,0,1.3333333,229.18133,236.256)" />
    <path
       id="path73"
       d="m 1.9335391,0.09446875 c 0.9960937,0 1.59375,-0.92578125 1.59375,-2.60156245 0,-1.6523438 -0.5976563,-2.5546875 -1.59375,-2.5546875 -0.99609379,0 -1.58203129,0.890625 -1.58203129,2.5546875 0,1.6757812 0.5859375,2.60156245 1.58203129,2.60156245 z m 0,-0.515625 c -0.5742188,0 -0.97265629,-0.62109375 -0.97265629,-2.08593745 0,-1.453125 0.39843749,-2.0507813 0.97265629,-2.0507813 0.5859375,0 0.984375,0.5976563 0.984375,2.0507813 0,1.4648437 -0.3984375,2.08593745 -0.984375,2.08593745 z m 0,0"
       style="fill:#666666;fill-opacity:1;fill-rule:nonzero;stroke:none"
       aria-label="0"
       transform="matrix(1.3333333,0,0,1.3333333,56.058667,38.014667)" />
    <path
       id="path74"
       d="M 0.61039844,7.1875e-4 H 3.4228984 V -0.526625 h -1.03125 V -4.9680312 H 1.8994609 c -0.2695312,0.1640625 -0.5976562,0.28125 -1.05468746,0.3632812 v 0.4101563 H 1.7588359 V -0.526625 H 0.61039844 Z m 0,0"
       style="fill:#666666;fill-opacity:1;fill-rule:nonzero;stroke:none"
       aria-label="1"
       transform="matrix(1.3333333,0,0,1.3333333,90.830667,38.014667)" />
    <path
       id="path75"
       d="M 0.30385938,-0.00133594 H 3.5147969 V -0.55211719 H 2.0733906 c -0.2578125,0 -0.5625,0.0234375 -0.8320312,0.046875 1.171875,-1.23046871 2.0390625,-2.16796871 2.0390625,-3.10546871 0,-0.8789063 -0.5859375,-1.453125 -1.5,-1.453125 -0.6445313,0 -1.08984377,0.2929687 -1.50000002,0.75 l 0.36328125,0.3632812 c 0.29296875,-0.328125 0.64453127,-0.5976562 1.06640627,-0.5976562 0.6328125,0 0.9375,0.4101562 0.9375,0.9726562 0,0.8085938 -0.84375,1.7109375 -2.34375002,3.19921876 z m 0,0"
       style="fill:#666666;fill-opacity:1;fill-rule:nonzero;stroke:none"
       aria-label="2"
       transform="matrix(1.3333333,0,0,1.3333333,125.60267,38.076)" />
    <path
       id="path76"
       d="m 1.828375,0.09446875 c 0.9140625,0 1.6523438,-0.52734375 1.6523438,-1.41796875 0,-0.6796875 -0.4804688,-1.125 -1.078125,-1.265625 v -0.035156 c 0.5273437,-0.1875 0.9023437,-0.5742188 0.9023437,-1.1835938 0,-0.796875 -0.6328125,-1.2539062 -1.4882812,-1.2539062 -0.5859375,0 -1.0429688,0.2695312 -1.42968755,0.6210937 L 0.7268125,-4.04225 c 0.2929688,-0.2929687 0.65625,-0.5039062 1.0664063,-0.5039062 0.5390625,0 0.8671875,0.3046875 0.8671875,0.7851562 0,0.5273438 -0.3632813,0.9257813 -1.4179688,0.9257813 v 0.5039062 c 1.1835938,0 1.59375,0.3867188 1.59375,0.984375 0,0.5625 -0.4335937,0.9140625 -1.0429687,0.9140625 -0.5742188,0 -0.96093755,-0.28125 -1.26562505,-0.5859375 l -0.328125,0.41015625 C 0.5393125,-0.245375 1.0432188,0.09446875 1.828375,0.09446875 Z m 0,0"
       style="fill:#666666;fill-opacity:1;fill-rule:nonzero;stroke:none"
       aria-label="3"
       transform="matrix(1.3333333,0,0,1.3333333,160.37467,38.014667)" />
    <path
       id="path77"
       d="M 2.3685156,7.1875e-4 H 2.9661719 V -1.370375 H 3.6575781 V -1.886 H 2.9661719 V -4.9680312 H 2.2630469 L 0.14195313,-1.79225 v 0.421875 H 2.3685156 Z m 0,-1.88671875 H 0.79820313 L 1.9700781,-3.5852187 c 0.140625,-0.2460938 0.28125,-0.46875 0.4101563,-0.703125 h 0.023437 c -0.011719,0.2578125 -0.035156,0.703125 -0.035156,0.9492187 z m 0,0"
       style="fill:#666666;fill-opacity:1;fill-rule:nonzero;stroke:none"
       aria-label="4"
       transform="matrix(1.3333333,0,0,1.3333333,195.14667,38.014667)" />
    <path
       id="path78"
       d="m 1.8276016,0.09259375 c 0.8554687,0 1.6757812,-0.609375 1.6757812,-1.68749995 0,-1.0664063 -0.703125,-1.546875 -1.546875,-1.546875 -0.3046875,0 -0.5390625,0.070312 -0.7617187,0.1992187 L 1.3236953,-4.419125 h 1.921875 V -4.9699062 H 0.76119531 l -0.1640625,2.390625 0.33984375,0.2109375 c 0.29296874,-0.1875 0.51562504,-0.3046875 0.85546874,-0.3046875 0.6445313,0 1.0546875,0.4101562 1.0546875,1.1015625 0,0.6914062 -0.4804687,1.1367187 -1.078125,1.1367187 -0.5976562,0 -0.97265624,-0.28125 -1.26562499,-0.5742187 L 0.18697656,-0.58709375 C 0.53853906,-0.24725 1.0190078,0.09259375 1.8276016,0.09259375 Z m 0,0"
       style="fill:#666666;fill-opacity:1;fill-rule:nonzero;stroke:none"
       aria-label="5"
       transform="matrix(1.3333333,0,0,1.3333333,229.91867,37.954667)" />
    <path
       id="path79"
       d="m 1.9333438,0.09466406 c 0.9960937,0 1.59375,-0.92578125 1.59375,-2.60156246 0,-1.6523438 -0.5976563,-2.5546875 -1.59375,-2.5546875 -0.9960938,0 -1.5820313,0.890625 -1.5820313,2.5546875 0,1.67578121 0.5859375,2.60156246 1.5820313,2.60156246 z m 0,-0.515625 c -0.5742188,0 -0.9726563,-0.62109376 -0.9726563,-2.08593746 0,-1.453125 0.3984375,-2.0507813 0.9726563,-2.0507813 0.5859375,0 0.984375,0.5976563 0.984375,2.0507813 0,1.4648437 -0.3984375,2.08593746 -0.984375,2.08593746 z m 0,0"
       style="fill:#666666;fill-opacity:1;fill-rule:nonzero;stroke:none"
       aria-label="0"
       transform="matrix(1.3333333,0,0,1.3333333,32.625333,61.448)" />
    <path
       id="path80"
       d="m 0.609125,-9.375e-4 h 2.8125 V -0.52828125 H 2.390375 V -4.9696875 H 1.8981875 C 1.6286563,-4.805625 1.3005313,-4.6884375 0.8435,-4.6064062 V -4.19625 h 0.9140625 v 3.66796875 H 0.609125 Z m 0,0"
       style="fill:#666666;fill-opacity:1;fill-rule:nonzero;stroke:none"
       aria-label="1"
       transform="matrix(1.3333333,0,0,1.3333333,32.625333,96.22)" />
    <path
       id="path81"
       d="M 0.3044375,0.00101563 H 3.515375 V -0.54976562 H 2.0739688 c -0.2578125,0 -0.5625,0.0234375 -0.8320313,0.046875 C 2.4138125,-1.7333594 3.281,-2.6708594 3.281,-3.6083594 c 0,-0.8789062 -0.5859375,-1.453125 -1.5,-1.453125 -0.6445312,0 -1.08984375,0.2929688 -1.5,0.75 l 0.36328125,0.3632813 C 0.93725,-4.2763281 1.2888125,-4.5458594 1.7106875,-4.5458594 c 0.6328125,0 0.9375,0.4101563 0.9375,0.9726563 0,0.8085937 -0.84375,1.7109375 -2.34375,3.19921873 z m 0,0"
       style="fill:#666666;fill-opacity:1;fill-rule:nonzero;stroke:none"
       aria-label="2"
       transform="matrix(1.3333333,0,0,1.3333333,32.625333,131.05333)" />
    <path
       id="path82"
       d="m 1.827875,0.09496875 c 0.9140625,0 1.6523438,-0.52734375 1.6523438,-1.41796875 0,-0.6796875 -0.4804688,-1.125 -1.078125,-1.265625 v -0.035156 c 0.5273437,-0.1875 0.9023437,-0.5742188 0.9023437,-1.1835938 0,-0.796875 -0.6328125,-1.2539062 -1.4882812,-1.2539062 -0.5859375,0 -1.0429688,0.2695312 -1.42968755,0.6210937 L 0.7263125,-4.04175 c 0.2929688,-0.2929687 0.65625,-0.5039062 1.0664063,-0.5039062 0.5390625,0 0.8671875,0.3046875 0.8671875,0.7851562 0,0.5273438 -0.3632813,0.9257813 -1.4179688,0.9257813 v 0.5039062 c 1.1835938,0 1.59375,0.3867188 1.59375,0.984375 0,0.5625 -0.4335937,0.9140625 -1.0429687,0.9140625 -0.5742188,0 -0.96093755,-0.28125 -1.26562505,-0.5859375 l -0.328125,0.41015625 C 0.5388125,-0.244875 1.0427188,0.09496875 1.827875,0.09496875 Z m 0,0"
       style="fill:#666666;fill-opacity:1;fill-rule:nonzero;stroke:none"
       aria-label="3"
       transform="matrix(1.3333333,0,0,1.3333333,32.625333,165.764)" />
    <path
       id="path83"
       d="M 2.3669375,-6.328125e-4 H 2.9645938 V -1.3717266 H 3.656 v -0.515625 H 2.9645938 V -4.9693828 H 2.2614688 L 0.140375,-1.7936016 v 0.421875 h 2.2265625 z m 0,-1.8867187875 H 0.796625 L 1.9685,-3.5865703 c 0.140625,-0.2460938 0.28125,-0.46875 0.4101563,-0.703125 h 0.023437 c -0.011719,0.2578125 -0.035156,0.703125 -0.035156,0.9492187 z m 0,0"
       style="fill:#666666;fill-opacity:1;fill-rule:nonzero;stroke:none"
       aria-label="4"
       transform="matrix(1.3333333,0,0,1.3333333,32.625333,200.536)" />
    <path
       id="path84"
       d="m 1.827875,0.09232031 c 0.8554688,0 1.6757813,-0.609375 1.6757813,-1.68750001 0,-1.0664062 -0.703125,-1.546875 -1.546875,-1.546875 -0.3046875,0 -0.5390625,0.070312 -0.7617188,0.1992188 l 0.1289063,-1.4765625 h 1.921875 V -4.9701797 H 0.76146875 l -0.1640625,2.390625 0.33984375,0.2109375 c 0.2929688,-0.1875 0.515625,-0.3046875 0.8554688,-0.3046875 0.6445312,0 1.0546875,0.4101563 1.0546875,1.1015625 0,0.69140626 -0.4804688,1.13671876 -1.078125,1.13671876 -0.5976563,0 -0.9726563,-0.28125 -1.26562505,-0.57421876 L 0.18725,-0.58736719 c 0.3515625,0.33984375 0.8320313,0.6796875 1.640625,0.6796875 z m 0,0"
       style="fill:#666666;fill-opacity:1;fill-rule:nonzero;stroke:none"
       aria-label="5"
       transform="matrix(1.3333333,0,0,1.3333333,32.625333,235.248)" />
    <path
       id="path85"
       d="m 2.0749453,-5.0735781 c 0.609375,0 1.0664063,0.3984375 1.0664063,0.9609375 0,0.5625 -0.4570313,0.9609375 -1.0664063,0.9609375 -0.6210937,0 -1.07812499,-0.3984375 -1.07812499,-0.9609375 0,-0.5625 0.45703129,-0.9609375 1.07812499,-0.9609375 z m 1.546875,0.5273437 h 1.3359375 v 0.84375 H 3.6335391 c 0.035156,-0.1289062 0.058594,-0.2695312 0.058594,-0.4101562 0,-0.1523438 -0.023437,-0.3046875 -0.070313,-0.4335938 z m 1.3359375,-1.21875 v 0.7617188 h -1.59375 c -0.28125,-0.3398438 -0.7382812,-0.5507813 -1.2890625,-0.5507813 -0.9492187,0 -1.62890624,0.5859375 -1.62890624,1.4414063 0,0.84375 0.67968754,1.4414062 1.62890624,1.4414062 0.5507813,0 1.03125,-0.2109375 1.3125,-0.5742187 h 1.5703125 v 0.703125 h 0.5742188 v -3.2226563 z m -3.46875,5.75390628 v 0.46875 h 4.2773438 v -0.46875 h -3.703125 v -0.6796875 h 3.46875 V -2.2142031 H 1.4772891 v 0.46875 h 3.4804687 v 0.6210937 h -3.46875 z m 0,0"
       style="fill:#595959;fill-opacity:1;fill-rule:nonzero;stroke:none"
       aria-label="열"
       transform="matrix(1.3333333,0,0,1.3333333,141.292,22.741333)" />
    <path
       id="path86"
       d="m 1.9218906,-4.2304531 c -0.796875,0 -1.34765622,0.4335937 -1.34765622,1.0898437 0,0.65625 0.55078122,1.0664063 1.34765622,1.0664063 0.7851563,0 1.3359375,-0.4101563 1.3359375,-1.0664063 0,-0.65625 -0.5507812,-1.0898437 -1.3359375,-1.0898437 z m 0,0.4335937 c 0.4804688,0 0.8203125,0.2578125 0.8203125,0.65625 0,0.3867188 -0.3398437,0.6445313 -0.8203125,0.6445313 -0.4921875,0 -0.8320312,-0.2578125 -0.8320312,-0.6445313 0,-0.3984375 0.3398437,-0.65625 0.8320312,-0.65625 z m 1.6640625,2.1328125 c -1.3125,0 -2.0976562,0.3984375 -2.0976562,1.10156253 0,0.69140625 0.7851562,1.08984375 2.0976562,1.08984375 1.3242188,0 2.109375,-0.3984375 2.109375,-1.08984375 0,-0.70312503 -0.7851562,-1.10156253 -2.109375,-1.10156253 z m 0,0.4453125 c 0.9726563,0 1.5351563,0.23437503 1.5351563,0.65625003 0,0.41015625 -0.5625,0.64453125 -1.5351563,0.64453125 -0.9609375,0 -1.5234375,-0.234375 -1.5234375,-0.64453125 0,-0.421875 0.5625,-0.65625003 1.5234375,-0.65625003 z m 0.1757813,-4.4179687 v 3.6328125 h 0.5390625 v -1.5703125 h 0.8085937 v 1.7929687 h 0.5507813 v -3.984375 H 5.1093906 v 1.7109375 H 4.3007969 v -1.5820312 z m -2.1328125,-0.082031 v 0.703125 H 0.31642188 v 0.4570313 H 3.5039219 V -5.0156094 H 2.2031406 v -0.703125 z m 0,0"
       style="fill:#595959;fill-opacity:1;fill-rule:nonzero;stroke:none"
       aria-label="행"
       transform="matrix(1.3333333,0,0,1.3333333,15.054667,148.55467)" />
    <path
       id="path87"
       d="M 341.65324,-21.26018 H 186.44606 c -1.10048,0 -1.99256,-0.89207 -1.99256,-1.99255 v -83.89002 c 0,-1.10046 0.89208,-1.99255 1.99256,-1.99255 h 155.20718 c 1.10047,0 1.99256,0.89209 1.99256,1.99255 v 83.89002 c 0,1.10048 -0.89209,1.99255 -1.99256,1.99255 z"
       style="fill:#fcfcfc;fill-opacity:1;fill-rule:nonzero;stroke:#c7c7c7;stroke-width:0.3985;stroke-linecap:butt;stroke-linejoin:miter;stroke-miterlimit:10;stroke-dasharray:none;stroke-opacity:1"
       transform="matrix(1.3333333,0,0,-1.3333333,58.638667,58.133333)" />
    <g
       id="g87"
       aria-label="가로방향으로누적합을구한다.&#10;board[i][j]+=board[i][j-1];&#10;세로방향으로누적합을구한다.&#10;board[i][j]+=board[i-1][j];"
       transform="matrix(1.3333333,0,0,1.3333333,319.69467,117.70933)">
      <path
         id="path88"
         d="m 5.9301719,-7.4167656 v 8.10937498 h 0.75 V -3.5027031 H 7.9692344 V -4.1237969 H 6.6801719 v -3.2929687 z m -5.06250002,0.8789062 v 0.609375 H 3.8442344 c -0.1640625,1.921875 -1.2890625,3.46875 -3.35156252,4.5117188 l 0.41015625,0.57421873 C 3.5278281,-2.1550469 4.5942344,-4.2409844 4.5942344,-6.5378594 Z m 8.74218752,3.4921875 v 0.609375 h 2.3789066 v 1.51171878 H 8.6957969 v 0.62109375 H 16.055172 V -0.92457812 H 12.727047 V -2.4362969 h 2.601562 v -0.609375 h -4.980468 v -1.3125 h 4.792968 V -6.8073906 H 9.5981406 v 0.609375 h 4.8046874 v 1.2539062 H 9.6098594 Z m 13.0488286,0.7265625 c -1.664063,0 -2.671875,0.5507813 -2.671875,1.50000003 0,0.94921875 1.007812,1.51171875 2.671875,1.51171875 1.652343,0 2.648437,-0.5625 2.648437,-1.51171875 0,-0.94921873 -0.996094,-1.50000003 -2.648437,-1.50000003 z m 0,0.5859375 c 1.195312,0 1.921875,0.3398438 1.921875,0.91406253 0,0.57421875 -0.726563,0.9140625 -1.921875,0.9140625 -1.207032,0 -1.933594,-0.33984375 -1.933594,-0.9140625 0,-0.57421873 0.726562,-0.91406253 1.933594,-0.91406253 z m -3.375,-5.1679687 v 3.7382812 h 3.75 v -3.7382812 h -0.738282 v 1.21875 H 20.01025 v -1.21875 z m 0.726562,1.8046875 h 2.285156 v 1.3359375 H 20.01025 Z m 4.488281,-2.3203125 v 4.875 h 0.738282 v -2.203125 h 1.195312 v -0.6328125 h -1.195312 v -2.0390625 z m 6.442383,5.296875 c -1.640625,0 -2.648437,0.515625 -2.648437,1.40624998 0,0.87890625 1.007812,1.39453125 2.648437,1.39453125 1.628906,0 2.636719,-0.515625 2.636719,-1.39453125 0,-0.89062498 -1.007813,-1.40624998 -2.636719,-1.40624998 z m 0,0.5742187 c 1.183594,0 1.898438,0.3046875 1.898438,0.83203128 0,0.515625 -0.714844,0.8203125 -1.898438,0.8203125 -1.195312,0 -1.910156,-0.3046875 -1.910156,-0.8203125 0,-0.52734378 0.714844,-0.83203128 1.910156,-0.83203128 z m -1.335937,-3.9492187 c -1.160157,0 -1.945313,0.5625 -1.945313,1.4296875 0,0.8789062 0.785156,1.4296875 1.945313,1.4296875 1.160156,0 1.933593,-0.5507813 1.933593,-1.4296875 0,-0.8671875 -0.773437,-1.4296875 -1.933593,-1.4296875 z m 0,0.5625 c 0.738281,0 1.230468,0.3398437 1.230468,0.8671875 0,0.5390625 -0.492187,0.8671875 -1.230468,0.8671875 -0.738282,0 -1.230469,-0.328125 -1.230469,-0.8671875 0,-0.5273438 0.492187,-0.8671875 1.230469,-0.8671875 z m 3.140625,-2.484375 v 5.2265625 h 0.738281 v -1.4765625 h 1.171875 v -0.6210938 h -1.171875 v -1.1132812 h 1.171875 v -0.609375 h -1.171875 v -1.40625 z m -3.503907,-0.058594 v 0.9726563 h -2.027343 v 0.5976562 h 4.78125 v -0.5976562 h -2.015625 v -0.9726563 z m 9.855469,0.5859375 c -1.675781,0 -2.941406,0.8789063 -2.941406,2.2265625 0,1.359375 1.265625,2.2382813 2.941406,2.2382813 1.6875,0 2.953125,-0.8789063 2.953125,-2.2382813 0,-1.3476562 -1.265625,-2.2265625 -2.953125,-2.2265625 z m 0,0.5976563 c 1.289063,0 2.238281,0.6679687 2.238281,1.6289062 0,0.984375 -0.949218,1.6289063 -2.238281,1.6289063 -1.265625,0 -2.226562,-0.6445313 -2.226562,-1.6289063 0,-0.9609375 0.960937,-1.6289062 2.226562,-1.6289062 z m -3.65625,5.29687498 v 0.62109375 h 7.359375 v -0.62109375 z m 9.164063,-2.05078128 v 0.609375 h 2.378906 v 1.51171878 h -3.292969 v 0.62109375 h 7.359375 V -0.92457812 H 47.722164 V -2.4362969 h 2.601563 v -0.609375 h -4.980469 v -1.3125 h 4.792969 v -2.4492187 h -5.542969 v 0.609375 h 4.804687 v 1.2539062 h -4.792968 z m 10.291992,-3.9492187 v 2.9179687 h 5.554687 v -0.609375 H 55.63525 v -2.3085937 z m -0.949219,4.125 v 0.6210937 h 3.269531 v 2.95312503 h 0.75 V -2.2487969 h 3.339844 v -0.6210937 z m 9.503906,0.75 v 0.609375 h 4.675782 v 2.21484373 h 0.738281 V -2.1198906 Z m -0.996093,-4.734375 v 0.609375 h 1.804687 v 0.3164062 c 0,1.1367188 -0.832031,2.2265625 -2.027344,2.6484375 l 0.375,0.5976563 c 0.960938,-0.3515625 1.699219,-1.1015625 2.050782,-2.0273438 0.339843,0.84375 1.042968,1.5117188 1.945312,1.828125 l 0.375,-0.5742187 c -1.171875,-0.4101563 -1.96875,-1.4296875 -1.96875,-2.4726563 v -0.3164062 h 1.78125 v -0.609375 z m 5.671875,-0.5625 v 2.1210937 h -1.582032 v 0.6210938 h 1.582032 v 2.109375 h 0.738281 v -4.8515625 z m 5.52246,5.0742187 v 2.92968753 h 5.097657 V -2.3425469 h -0.738282 v 0.8554688 H 74.38818 v -0.8554688 z m 0.738282,1.44140628 h 3.621093 v 0.890625 H 74.38818 Z m 0.480468,-4.69921878 c -1.160156,0 -1.945312,0.5507813 -1.945312,1.4179688 0,0.8671875 0.785156,1.4179687 1.945312,1.4179687 1.160157,0 1.933594,-0.5507812 1.933594,-1.4179687 0,-0.8671875 -0.773437,-1.4179688 -1.933594,-1.4179688 z m 0,0.5625 c 0.738282,0 1.230469,0.3398438 1.230469,0.8554688 0,0.5273437 -0.492187,0.8554687 -1.230469,0.8554687 -0.738281,0 -1.230468,-0.328125 -1.230468,-0.8554687 0,-0.515625 0.492187,-0.8554688 1.230468,-0.8554688 z m 3.140625,-2.3789062 v 4.7226562 h 0.738282 v -2.015625 h 1.195312 v -0.6328125 h -1.195312 v -2.0742187 z m -3.503906,-0.070312 v 0.9023437 h -2.027344 v 0.609375 h 4.78125 v -0.609375 h -2.015625 v -0.9023437 z m 9.855469,0.2226562 c -1.792969,0 -2.847656,0.4921875 -2.847656,1.3945313 0,0.9023437 1.054687,1.40625 2.847656,1.40625 1.792969,0 2.859375,-0.5039063 2.859375,-1.40625 0,-0.9023438 -1.066406,-1.3945313 -2.859375,-1.3945313 z m 0,0.5507813 c 1.335937,0 2.097656,0.3164062 2.097656,0.84375 0,0.5507812 -0.761719,0.84375 -2.097656,0.84375 -1.3125,0 -2.074219,-0.2929688 -2.074219,-0.84375 0,-0.5273438 0.761719,-0.84375 2.074219,-0.84375 z m -3.65625,2.8007812 v 0.5976563 h 7.324219 v -0.5976563 z m 0.914062,3.93750003 v 0.5859375 h 5.71875 v -0.5859375 h -5.003906 v -0.8203125 h 4.757813 V -2.6237969 h -5.496094 v 0.5625 h 4.769531 v 0.7148438 h -4.746094 z m 9.342774,-3.43359373 v 0.6210937 h 3.269531 v 3.49218753 h 0.75 V -2.7878594 h 3.304688 v -0.6210937 h -1.183594 c 0.222656,-1.1601563 0.222656,-2.0039063 0.222656,-2.765625 v -0.7148438 h -5.449219 v 0.609375 h 4.722657 v 0.1054688 c 0,0.75 0,1.6171875 -0.257813,2.765625 z m 10.664058,-1.96875 c -1.16015,0 -1.945308,0.5976562 -1.945308,1.5117187 0,0.9140625 0.785158,1.5117188 1.945308,1.5117188 1.14844,0 1.9336,-0.5976563 1.9336,-1.5117188 0,-0.9140625 -0.78516,-1.5117187 -1.9336,-1.5117187 z m 0,0.5859375 c 0.73829,0 1.23047,0.3632812 1.23047,0.9257812 0,0.5625 -0.49218,0.9257813 -1.23047,0.9257813 -0.73828,0 -1.23046,-0.3632813 -1.23046,-0.9257813 0,-0.5625 0.49218,-0.9257812 1.23046,-0.9257812 z m 3.14063,-2.6132813 v 6.0820313 h 0.73828 v -2.8007813 h 1.19531 v -0.6210937 h -1.19531 v -2.6601563 z m -3.50391,0 v 0.984375 h -2.027341 v 0.609375 h 4.781251 v -0.609375 h -2.01563 v -0.984375 z m -0.79687,5.5898438 v 2.33203123 h 5.40234 v -0.609375 h -4.67578 V -1.8152031 Z m 12.47754,-5.6015625 v 8.12109373 h 0.75 V -3.5964531 h 1.32422 v -0.6210938 h -1.32422 v -3.1992187 z m -5.13282,0.796875 v 5.3085937 h 0.63282 c 1.52343,0 2.58984,-0.046875 3.84375,-0.2695312 l -0.0937,-0.6445313 c -1.1836,0.2226563 -2.21485,0.28125 -3.64453,0.28125 v -4.0664062 h 3.02343 v -0.609375 z m 8.69532,6.73828123 c 0.32812,0 0.59765,-0.24609375 0.59765,-0.62109375 0,-0.375 -0.26953,-0.62109378 -0.59765,-0.62109378 -0.32813,0 -0.58594,0.24609378 -0.58594,0.62109378 0,0.375 0.25781,0.62109375 0.58594,0.62109375 z m 0,0"
         style="fill:#000000;fill-opacity:1;fill-rule:nonzero;stroke:none" />
      <path
         id="path89"
         d="m 4.3950156,12.994367 c 0,-1.066406 -0.7734375,-1.980469 -1.78125,-1.980469 -0.421875,0 -0.796875,0.152344 -1.1015625,0.421875 V 9.8303047 c 0,-0.3046875 -0.082031,-0.375 -0.3867187,-0.375 H 0.44579688 c -0.1171875,0 -0.375,0 -0.375,0.28125 0,0.2929683 0.24609375,0.2929683 0.375,0.2929683 h 0.3984375 v 4.511719 c 0,0.175781 0,0.386719 0.32812502,0.386719 0.3398437,0 0.3398437,-0.210938 0.3398437,-0.386719 0.2695313,0.269531 0.6210938,0.433594 1.0195313,0.433594 0.9960937,0 1.8632812,-0.855469 1.8632812,-1.980469 z m -0.6679687,0 c 0,0.796875 -0.5742188,1.394531 -1.2304688,1.394531 -0.6445312,0 -0.984375,-0.726562 -0.984375,-1.195312 v -0.621094 c 0,-0.527344 0.5273438,-0.972656 1.0664063,-0.972656 0.6210937,0 1.1484375,0.609375 1.1484375,1.394531 z m 5.1884765,0 c 0,-1.113281 -0.84375,-2.003906 -1.8632812,-2.003906 -1.0078125,0 -1.8515625,0.890625 -1.8515625,2.003906 0,1.113281 0.8554687,1.980469 1.8515625,1.980469 1.0078125,0 1.8632812,-0.867188 1.8632812,-1.980469 z m -0.6679687,-0.07031 c 0,0.808593 -0.5390625,1.464843 -1.1953125,1.464843 -0.6445313,0 -1.1835938,-0.65625 -1.1835938,-1.464843 0,-0.796875 0.5742188,-1.347657 1.1835938,-1.347657 0.6328125,0 1.1953125,0.550782 1.1953125,1.347657 z m 5.8183593,1.710937 c 0,-0.292969 -0.246094,-0.292969 -0.386719,-0.292969 -0.128906,0 -0.316406,0 -0.492187,-0.05859 v -1.886719 c 0,-0.703125 -0.539063,-1.40625 -1.792969,-1.40625 -0.410156,0 -1.3125,0 -1.3125,0.679687 0,0.257813 0.1875,0.410157 0.410156,0.410157 0.140625,0 0.421875,-0.04687 0.421875,-0.480469 0.246094,-0.02344 0.410157,-0.02344 0.492188,-0.02344 0.703125,0 1.113281,0.292969 1.113281,0.84375 -1.488281,0.01172 -2.6718749,0.433594 -2.6718749,1.3125 0,0.679688 0.6210939,1.242188 1.4882809,1.242188 0.105469,0 0.785157,0 1.265625,-0.351563 0.222657,0.304688 0.703125,0.304688 0.996094,0.304688 0.257813,0 0.46875,0 0.46875,-0.292969 z m -1.546875,-0.972656 c 0,0.210937 0,0.398437 -0.351562,0.574219 -0.328125,0.152343 -0.726563,0.152343 -0.761719,0.152343 -0.527344,0 -0.902344,-0.292968 -0.902344,-0.65625 0,-0.433593 0.914063,-0.738281 2.015625,-0.75 z m 5.973633,-2.074219 c 0,-0.164062 -0.117188,-0.574219 -0.855469,-0.574219 -0.515625,0 -1.078125,0.222657 -1.511719,0.703125 v -0.28125 c 0,-0.292968 -0.07031,-0.375 -0.375,-0.375 h -0.996093 c -0.140625,0 -0.386719,0 -0.386719,0.292969 0,0.292969 0.234375,0.292969 0.386719,0.292969 h 0.714843 v 2.695312 h -0.714843 c -0.140625,0 -0.386719,0 -0.386719,0.292969 0,0.292969 0.234375,0.292969 0.386719,0.292969 h 2.367187 c 0.128906,0 0.386719,0 0.386719,-0.28125 0,-0.304688 -0.246094,-0.304688 -0.386719,-0.304688 h -0.996094 v -1.066406 c 0,-0.902344 0.609375,-1.675781 1.570313,-1.675781 0.03516,0.328125 0.28125,0.398437 0.398437,0.398437 0.199219,0 0.398438,-0.152343 0.398438,-0.410156 z m 4.96582,3.058594 c 0,-0.304688 -0.246094,-0.304688 -0.375,-0.304688 H 22.685055 V 9.8303047 c 0,-0.3046875 -0.07031,-0.375 -0.375,-0.375 h -0.679688 c -0.128906,0 -0.375,0 -0.375,0.28125 0,0.2929683 0.234375,0.2929683 0.375,0.2929683 h 0.386719 v 1.371094 c -0.1875,-0.175781 -0.550781,-0.386719 -1.03125,-0.386719 -0.996094,0 -1.851563,0.867188 -1.851563,1.992188 0,1.101562 0.808594,1.96875 1.769532,1.96875 0.410156,0 0.796875,-0.152344 1.113281,-0.480469 0,0.28125 0,0.433594 0.375,0.433594 h 0.691406 c 0.117188,0 0.375,0 0.375,-0.28125 z m -1.441406,-1.464844 c 0,0.480469 -0.398438,1.207031 -1.066406,1.207031 -0.621094,0 -1.148438,-0.609375 -1.148438,-1.382812 0,-0.808594 0.574219,-1.40625 1.230469,-1.40625 0.539062,0 0.984375,0.46875 0.984375,0.949219 z m 5.856445,2.191406 c 0,-0.28125 -0.246093,-0.28125 -0.375,-0.28125 H 26.150875 V 9.2912422 h 1.347656 c 0.140625,0 0.375,0 0.375,-0.2929688 0,-0.2929687 -0.246093,-0.2929687 -0.375,-0.2929687 h -1.628906 c -0.292969,0 -0.375,0.070312 -0.375,0.375 v 6.2109373 c 0,0.304688 0.07031,0.375 0.375,0.375 h 1.628906 c 0.140625,0 0.375,0 0.375,-0.292969 z m 4.497071,-0.726562 c 0,-0.304688 -0.257813,-0.304688 -0.386719,-0.304688 h -0.9375 v -2.90625 c 0,-0.292968 -0.07031,-0.375 -0.375,-0.375 h -1.300781 c -0.140625,0 -0.386719,0 -0.386719,0.292969 0,0.292969 0.234375,0.292969 0.386719,0.292969 h 1.007812 v 2.695312 H 29.28857 c -0.128906,0 -0.375,0 -0.375,0.292969 0,0.292969 0.234375,0.292969 0.375,0.292969 h 2.695313 c 0.128906,0 0.386719,0 0.386719,-0.28125 z m -1.3125,-4.6992188 c 0,-0.2578125 -0.199219,-0.4570313 -0.457032,-0.4570313 -0.246093,0 -0.457031,0.1992188 -0.457031,0.4570313 0,0.2460938 0.210938,0.4570308 0.457031,0.4570308 0.257813,0 0.457032,-0.210937 0.457032,-0.4570308 z m 4.634765,5.3437498 V 9.0803047 c 0,-0.2929688 -0.07031,-0.375 -0.375,-0.375 h -1.628906 c -0.128906,0 -0.375,0 -0.375,0.2929687 0,0.2929688 0.234375,0.2929688 0.375,0.2929688 h 1.335937 v 5.8007808 h -1.335937 c -0.128906,0 -0.375,0 -0.375,0.28125 0,0.292969 0.234375,0.292969 0.375,0.292969 h 1.628906 c 0.292969,0 0.375,-0.07031 0.375,-0.375 z m 6.301758,0.08203 c 0,-0.28125 -0.246094,-0.28125 -0.375,-0.28125 H 40.271969 V 9.2912422 h 1.347656 c 0.140625,0 0.375,0 0.375,-0.2929688 0,-0.2929687 -0.246094,-0.2929687 -0.375,-0.2929687 h -1.628906 c -0.292969,0 -0.375,0.070312 -0.375,0.375 v 6.2109373 c 0,0.304688 0.07031,0.375 0.375,0.375 h 1.628906 c 0.140625,0 0.375,0 0.375,-0.292969 z m 3.700195,-0.08203 v -3.855469 c 0,-0.292968 -0.07031,-0.375 -0.375,-0.375 h -1.453125 c -0.140625,0 -0.375,0 -0.375,0.292969 0,0.292969 0.234375,0.292969 0.375,0.292969 h 1.160157 v 3.621094 c 0,0.140625 0,0.480468 -0.234375,0.808593 -0.234375,0.304688 -0.492188,0.304688 -0.691407,0.304688 -0.128906,0 -0.1875,0 -0.316406,-0.01172 -0.140625,-0.01172 -0.152344,-0.02344 -0.152344,-0.09375 -0.01172,-0.351562 -0.304687,-0.433594 -0.410156,-0.433594 -0.199219,0 -0.421875,0.140625 -0.421875,0.433594 0,0.691406 0.890625,0.691406 1.253906,0.691406 1.300782,0 1.640625,-1.066406 1.640625,-1.675781 z m 0.01172,-5.3437498 c 0,-0.2578125 -0.210937,-0.4570313 -0.457031,-0.4570313 -0.257813,0 -0.457031,0.1992188 -0.457031,0.4570313 0,0.2460938 0.199218,0.4570308 0.457031,0.4570308 0.246094,0 0.457031,-0.210937 0.457031,-0.4570308 z m 4.110352,5.3437498 V 9.0803047 c 0,-0.2929688 -0.07031,-0.375 -0.375,-0.375 h -1.628907 c -0.128906,0 -0.375,0 -0.375,0.2929687 0,0.2929688 0.234375,0.2929688 0.375,0.2929688 h 1.335938 v 5.8007808 h -1.335938 c -0.128906,0 -0.375,0 -0.375,0.28125 0,0.292969 0.234375,0.292969 0.375,0.292969 h 1.628907 c 0.292968,0 0.375,-0.07031 0.375,-0.375 z m 11.033203,-3.09375 c 0,-0.339844 -0.339844,-0.339844 -0.445313,-0.339844 h -1.242187 v -1.253906 c 0,-0.09375 0,-0.433594 -0.328125,-0.433594 -0.339844,0 -0.339844,0.328125 -0.339844,0.433594 v 1.253906 h -1.242187 c -0.105469,0 -0.445313,0 -0.445313,0.328125 0,0.339844 0.339844,0.339844 0.445313,0.339844 h 1.242187 v 1.242188 c 0,0.105468 0,0.445312 0.328125,0.445312 0.339844,0 0.339844,-0.339844 0.339844,-0.445312 v -1.242188 h 1.242187 c 0.09375,0 0.445313,0 0.445313,-0.328125 z m 4.708008,-0.679687 c 0,-0.351563 -0.351563,-0.351563 -0.480469,-0.351563 h -3.082031 c -0.128907,0 -0.480469,0 -0.480469,0.351563 0,0.328125 0.328125,0.328125 0.421875,0.328125 h 3.199219 c 0.09375,0 0.421875,0 0.421875,-0.328125 z m 0,1.347656 c 0,-0.328125 -0.328125,-0.328125 -0.421875,-0.328125 h -3.199219 c -0.09375,0 -0.421875,0 -0.421875,0.328125 0,0.339844 0.351562,0.339844 0.480469,0.339844 h 3.082031 c 0.128906,0 0.480469,0 0.480469,-0.339844 z m 9.436523,0.128906 c 0,-1.066406 -0.773437,-1.980469 -1.78125,-1.980469 -0.421875,0 -0.796875,0.152344 -1.101562,0.421875 V 9.8303047 c 0,-0.3046875 -0.08203,-0.375 -0.386719,-0.375 h -0.679688 c -0.117187,0 -0.375,0 -0.375,0.28125 0,0.2929683 0.246094,0.2929683 0.375,0.2929683 h 0.398438 v 4.511719 c 0,0.175781 0,0.386719 0.328125,0.386719 0.339844,0 0.339844,-0.210938 0.339844,-0.386719 0.269531,0.269531 0.621093,0.433594 1.019531,0.433594 0.996094,0 1.863281,-0.855469 1.863281,-1.980469 z m -0.667969,0 c 0,0.796875 -0.574218,1.394531 -1.230468,1.394531 -0.644532,0 -0.984375,-0.726562 -0.984375,-1.195312 v -0.621094 c 0,-0.527344 0.527343,-0.972656 1.066406,-0.972656 0.621094,0 1.148437,0.609375 1.148437,1.394531 z m 5.188477,0 c 0,-1.113281 -0.84375,-2.003906 -1.863281,-2.003906 -1.007813,0 -1.851563,0.890625 -1.851563,2.003906 0,1.113281 0.855469,1.980469 1.851563,1.980469 1.007812,0 1.863281,-0.867188 1.863281,-1.980469 z m -0.667969,-0.07031 c 0,0.808593 -0.539062,1.464843 -1.195312,1.464843 -0.644532,0 -1.183594,-0.65625 -1.183594,-1.464843 0,-0.796875 0.574219,-1.347657 1.183594,-1.347657 0.632812,0 1.195312,0.550782 1.195312,1.347657 z m 5.821289,1.710937 c 0,-0.292969 -0.246094,-0.292969 -0.386719,-0.292969 -0.128906,0 -0.316406,0 -0.492187,-0.05859 v -1.886719 c 0,-0.703125 -0.539063,-1.40625 -1.792969,-1.40625 -0.410156,0 -1.3125,0 -1.3125,0.679687 0,0.257813 0.1875,0.410157 0.410156,0.410157 0.140625,0 0.421875,-0.04687 0.421875,-0.480469 0.246094,-0.02344 0.410157,-0.02344 0.492188,-0.02344 0.703125,0 1.113281,0.292969 1.113281,0.84375 -1.488281,0.01172 -2.671875,0.433594 -2.671875,1.3125 0,0.679688 0.621094,1.242188 1.488281,1.242188 0.105469,0 0.785157,0 1.265625,-0.351563 0.222657,0.304688 0.703125,0.304688 0.996094,0.304688 0.257813,0 0.46875,0 0.46875,-0.292969 z M 83.121579,13.66234 c 0,0.210937 0,0.398437 -0.351562,0.574219 -0.328125,0.152343 -0.726563,0.152343 -0.761719,0.152343 -0.527344,0 -0.902344,-0.292968 -0.902344,-0.65625 0,-0.433593 0.914063,-0.738281 2.015625,-0.75 z m 5.973633,-2.074219 c 0,-0.164062 -0.117188,-0.574219 -0.855469,-0.574219 -0.515625,0 -1.078125,0.222657 -1.511719,0.703125 v -0.28125 c 0,-0.292968 -0.07031,-0.375 -0.375,-0.375 H 85.35693 c -0.140625,0 -0.386719,0 -0.386719,0.292969 0,0.292969 0.234375,0.292969 0.386719,0.292969 h 0.714843 v 2.695312 H 85.35693 c -0.140625,0 -0.386719,0 -0.386719,0.292969 0,0.292969 0.234375,0.292969 0.386719,0.292969 h 2.367187 c 0.128906,0 0.386719,0 0.386719,-0.28125 0,-0.304688 -0.246094,-0.304688 -0.386719,-0.304688 h -0.996094 v -1.066406 c 0,-0.902344 0.609375,-1.675781 1.570313,-1.675781 0.03516,0.328125 0.28125,0.398437 0.398437,0.398437 0.199219,0 0.398438,-0.152343 0.398439,-0.410156 z m 4.96582,3.058594 c 0,-0.304688 -0.246093,-0.304688 -0.375,-0.304688 H 93.287594 V 9.8303047 c 0,-0.3046875 -0.07031,-0.375 -0.375,-0.375 h -0.679688 c -0.128906,0 -0.375,0 -0.375,0.28125 0,0.2929683 0.234375,0.2929683 0.375,0.2929683 h 0.386719 v 1.371094 c -0.1875,-0.175781 -0.550781,-0.386719 -1.03125,-0.386719 -0.996094,0 -1.851562,0.867188 -1.851562,1.992188 0,1.101562 0.808593,1.96875 1.769531,1.96875 0.410156,0 0.796875,-0.152344 1.113281,-0.480469 0,0.28125 0,0.433594 0.375,0.433594 h 0.691406 c 0.117188,0 0.375,0 0.375,-0.28125 z m -1.441406,-1.464844 c 0,0.480469 -0.398437,1.207031 -1.066406,1.207031 -0.621094,0 -1.148438,-0.609375 -1.148438,-1.382812 0,-0.808594 0.574219,-1.40625 1.230469,-1.40625 0.539063,0 0.984375,0.46875 0.984375,0.949219 z m 5.853516,2.191406 c 0,-0.28125 -0.246094,-0.28125 -0.375,-0.28125 H 96.750484 V 9.2912422 h 1.347657 c 0.140625,0 0.375,0 0.375,-0.2929688 0,-0.2929687 -0.246094,-0.2929687 -0.375,-0.2929687 h -1.628907 c -0.292968,0 -0.375,0.070312 -0.375,0.375 v 6.2109373 c 0,0.304688 0.07031,0.375 0.375,0.375 h 1.628907 c 0.140625,0 0.375,0 0.375,-0.292969 z m 4.497068,-0.726562 c 0,-0.304688 -0.25781,-0.304688 -0.38672,-0.304688 h -0.9375 v -2.90625 c 0,-0.292968 -0.0703,-0.375 -0.375,-0.375 h -1.300778 c -0.140625,0 -0.386719,0 -0.386719,0.292969 0,0.292969 0.234375,0.292969 0.386719,0.292969 h 1.007808 v 2.695312 h -1.089839 c -0.128907,0 -0.375,0 -0.375,0.292969 0,0.292969 0.234375,0.292969 0.375,0.292969 h 2.695309 c 0.12891,0 0.38672,0 0.38672,-0.28125 z m -1.3125,-4.6992188 c 0,-0.2578125 -0.19922,-0.4570313 -0.45703,-0.4570313 -0.24609,0 -0.45703,0.1992188 -0.45703,0.4570313 0,0.2460938 0.21094,0.4570308 0.45703,0.4570308 0.25781,0 0.45703,-0.210937 0.45703,-0.4570308 z m 4.6377,5.3437498 V 9.0803047 c 0,-0.2929688 -0.0703,-0.375 -0.375,-0.375 h -1.62891 c -0.12891,0 -0.375,0 -0.375,0.2929687 0,0.2929688 0.23438,0.2929688 0.375,0.2929688 h 1.33594 v 5.8007808 h -1.33594 c -0.12891,0 -0.375,0 -0.375,0.28125 0,0.292969 0.23438,0.292969 0.375,0.292969 h 1.62891 c 0.29297,0 0.375,-0.07031 0.375,-0.375 z m 6.30175,0.08203 c 0,-0.28125 -0.24609,-0.28125 -0.375,-0.28125 h -1.34765 V 9.2912422 h 1.34765 c 0.14063,0 0.375,0 0.375,-0.2929688 0,-0.2929687 -0.24609,-0.2929687 -0.375,-0.2929687 h -1.6289 c -0.29297,0 -0.375,0.070312 -0.375,0.375 v 6.2109373 c 0,0.304688 0.0703,0.375 0.375,0.375 h 1.6289 c 0.14063,0 0.375,0 0.375,-0.292969 z m 3.69727,-0.08203 v -3.855469 c 0,-0.292968 -0.0703,-0.375 -0.375,-0.375 h -1.45313 c -0.14062,0 -0.375,0 -0.375,0.292969 0,0.292969 0.23438,0.292969 0.375,0.292969 h 1.16016 v 3.621094 c 0,0.140625 0,0.480468 -0.23437,0.808593 -0.23438,0.304688 -0.49219,0.304688 -0.69141,0.304688 -0.12891,0 -0.1875,0 -0.31641,-0.01172 -0.14062,-0.01172 -0.15234,-0.02344 -0.15234,-0.09375 -0.0117,-0.351562 -0.30469,-0.433594 -0.41016,-0.433594 -0.19922,0 -0.42187,0.140625 -0.42187,0.433594 0,0.691406 0.89062,0.691406 1.2539,0.691406 1.30079,0 1.64063,-1.066406 1.64063,-1.675781 z m 0.0117,-5.3437498 c 0,-0.2578125 -0.21094,-0.4570313 -0.45703,-0.4570313 -0.25782,0 -0.45703,0.1992188 -0.45703,0.4570313 0,0.2460938 0.19921,0.4570308 0.45703,0.4570308 0.24609,0 0.45703,-0.210937 0.45703,-0.4570308 z m 5.56348,2.2499998 c 0,-0.339844 -0.32813,-0.339844 -0.4336,-0.339844 h -2.82422 c -0.0937,0 -0.43359,0 -0.43359,0.328125 0,0.339844 0.32812,0.339844 0.43359,0.339844 h 2.82422 c 0.0937,0 0.4336,0 0.4336,-0.328125 z m 4.49707,2.449219 c 0,-0.304688 -0.22266,-0.304688 -0.375,-0.304688 H 125.1948 V 9.7248359 c 0,-0.1289062 0,-0.375 -0.28125,-0.375 -0.15234,0 -0.22266,0.082031 -0.28125,0.1992188 -0.28125,0.6328123 -0.63281,0.8671873 -0.99609,0.9023433 -0.12891,0 -0.32813,0.02344 -0.32813,0.292969 0,0.175781 0.0937,0.28125 0.31641,0.28125 0.35156,0 0.70312,-0.1875 0.91406,-0.363281 v 3.679687 h -0.79687 c -0.15235,0 -0.38672,0 -0.38672,0.304688 0,0.28125 0.24609,0.28125 0.38672,0.28125 h 2.25 c 0.14062,0 0.375,0 0.375,-0.28125 z m 3.46582,0.644531 V 9.0803047 c 0,-0.2929688 -0.0703,-0.375 -0.375,-0.375 h -1.62891 c -0.12891,0 -0.375,0 -0.375,0.2929687 0,0.2929688 0.23437,0.2929688 0.375,0.2929688 h 1.33594 v 5.8007808 h -1.33594 c -0.12891,0 -0.375,0 -0.375,0.28125 0,0.292969 0.23437,0.292969 0.375,0.292969 h 1.62891 c 0.29296,0 0.375,-0.07031 0.375,-0.375 z m 4.88378,-3.65625 c 0,-0.328125 -0.26953,-0.574219 -0.5625,-0.574219 -0.32812,0 -0.57421,0.28125 -0.57421,0.5625 0,0.339844 0.28125,0.574219 0.5625,0.574219 0.33984,0 0.57421,-0.269531 0.57421,-0.5625 z m 0.0469,3.046875 c 0,-0.550781 -0.23438,-0.890625 -0.62109,-0.890625 -0.31641,0 -0.5625,0.246094 -0.5625,0.5625 0,0.210938 0.1289,0.550781 0.57421,0.574219 -0.082,0.304687 -0.29296,0.550781 -0.5625,0.691406 -0.0586,0.02344 -0.19921,0.09375 -0.19921,0.257813 0,0.140625 0.14062,0.292968 0.30468,0.292968 0.19922,0 1.06641,-0.480468 1.06641,-1.488281 z m 0,0"
         style="fill:#000000;fill-opacity:1;fill-rule:nonzero;stroke:none" />
      <path
         id="path90"
         d="m 6.6215781,24.138898 v 8.121094 h 0.7265625 v -8.121094 z m -1.640625,0.175782 v 2.730468 H 3.6450156 v 0.621094 h 1.3359375 v 4.171875 H 5.6723594 V 24.31468 Z m -2.8476562,0.585937 v 1.558594 c 0,1.382812 -0.6679688,2.824219 -1.76953127,3.492187 L 0.82079688,30.50218 C 1.6176719,30.021711 2.2036094,29.09593 2.4965781,28.029523 c 0.2929688,0.984375 0.8320313,1.828125 1.6054688,2.296875 L 4.5239219,29.75218 C 3.4575156,29.107648 2.8481406,27.724836 2.8481406,26.424055 v -1.523438 z m 7.4765625,3.609375 v 0.609375 h 2.3789066 v 1.511719 H 8.6957969 v 0.621094 h 7.3593751 v -0.621094 h -3.328125 v -1.511719 h 2.601562 v -0.609375 h -4.980468 v -1.3125 h 4.792968 V 24.748273 H 9.5981406 v 0.609375 h 4.8046874 v 1.253907 H 9.6098594 Z m 13.0488286,0.726563 c -1.664063,0 -2.671875,0.550781 -2.671875,1.5 0,0.949218 1.007812,1.511718 2.671875,1.511718 1.652343,0 2.648437,-0.5625 2.648437,-1.511718 0,-0.949219 -0.996094,-1.5 -2.648437,-1.5 z m 0,0.585937 c 1.195312,0 1.921875,0.339844 1.921875,0.914063 0,0.574218 -0.726563,0.914062 -1.921875,0.914062 -1.207032,0 -1.933594,-0.339844 -1.933594,-0.914062 0,-0.574219 0.726562,-0.914063 1.933594,-0.914063 z m -3.375,-5.167969 v 3.738282 h 3.75 v -3.738282 h -0.738282 v 1.21875 H 20.01025 v -1.21875 z m 0.726562,1.804688 h 2.285156 v 1.335937 H 20.01025 Z m 4.488281,-2.320313 v 4.875 h 0.738282 v -2.203125 h 1.195312 v -0.632812 h -1.195312 v -2.039063 z m 6.442383,5.296875 c -1.640625,0 -2.648437,0.515625 -2.648437,1.40625 0,0.878907 1.007812,1.394532 2.648437,1.394532 1.628906,0 2.636719,-0.515625 2.636719,-1.394532 0,-0.890625 -1.007813,-1.40625 -2.636719,-1.40625 z m 0,0.574219 c 1.183594,0 1.898438,0.304688 1.898438,0.832031 0,0.515625 -0.714844,0.820313 -1.898438,0.820313 -1.195312,0 -1.910156,-0.304688 -1.910156,-0.820313 0,-0.527343 0.714844,-0.832031 1.910156,-0.832031 z m -1.335937,-3.949219 c -1.160157,0 -1.945313,0.5625 -1.945313,1.429688 0,0.878906 0.785156,1.429687 1.945313,1.429687 1.160156,0 1.933593,-0.550781 1.933593,-1.429687 0,-0.867188 -0.773437,-1.429688 -1.933593,-1.429688 z m 0,0.5625 c 0.738281,0 1.230468,0.339844 1.230468,0.867188 0,0.539062 -0.492187,0.867187 -1.230468,0.867187 -0.738282,0 -1.230469,-0.328125 -1.230469,-0.867187 0,-0.527344 0.492187,-0.867188 1.230469,-0.867188 z m 3.140625,-2.484375 v 5.226563 h 0.738281 v -1.476563 h 1.171875 v -0.621093 h -1.171875 v -1.113282 h 1.171875 v -0.609375 h -1.171875 v -1.40625 z m -3.503907,-0.05859 v 0.972656 h -2.027343 v 0.597656 h 4.78125 v -0.597656 h -2.015625 v -0.972656 z m 9.855469,0.585937 c -1.675781,0 -2.941406,0.878906 -2.941406,2.226563 0,1.359375 1.265625,2.238281 2.941406,2.238281 1.6875,0 2.953125,-0.878906 2.953125,-2.238281 0,-1.347657 -1.265625,-2.226563 -2.953125,-2.226563 z m 0,0.597656 c 1.289063,0 2.238281,0.667969 2.238281,1.628907 0,0.984375 -0.949218,1.628906 -2.238281,1.628906 -1.265625,0 -2.226562,-0.644531 -2.226562,-1.628906 0,-0.960938 0.960937,-1.628907 2.226562,-1.628907 z m -3.65625,5.296875 v 0.621094 h 7.359375 v -0.621094 z m 9.164063,-2.050781 v 0.609375 h 2.378906 v 1.511719 h -3.292969 v 0.621094 h 7.359375 V 30.631089 H 47.722164 V 29.11937 h 2.601563 v -0.609375 h -4.980469 v -1.3125 h 4.792969 v -2.449219 h -5.542969 v 0.609375 h 4.804687 v 1.253907 h -4.792968 z m 10.291992,-3.949219 v 2.917969 h 5.554687 V 26.869367 H 55.63525 v -2.308594 z m -0.949219,4.125 v 0.621094 h 3.269531 v 2.953125 h 0.75 V 29.30687 h 3.339844 v -0.621094 z m 9.503906,0.75 v 0.609375 h 4.675782 v 2.214844 h 0.738281 v -2.824219 z m -0.996093,-4.734375 v 0.609375 h 1.804687 v 0.316407 c 0,1.136718 -0.832031,2.226562 -2.027344,2.648437 l 0.375,0.597656 c 0.960938,-0.351562 1.699219,-1.101562 2.050782,-2.027343 0.339843,0.84375 1.042968,1.511718 1.945312,1.828125 l 0.375,-0.574219 C 65.807125,27.68968 65.01025,26.670148 65.01025,25.62718 v -0.316407 h 1.78125 v -0.609375 z m 5.671875,-0.5625 v 2.121094 h -1.582032 v 0.621094 h 1.582032 v 2.109375 h 0.738281 v -4.851563 z m 5.52246,5.074219 v 2.929688 h 5.097657 V 29.21312 h -0.738282 v 0.855469 H 74.38818 V 29.21312 Z m 0.738282,1.441406 h 3.621093 v 0.890625 H 74.38818 Z m 0.480468,-4.699218 c -1.160156,0 -1.945312,0.550781 -1.945312,1.417968 0,0.867188 0.785156,1.417969 1.945312,1.417969 1.160157,0 1.933594,-0.550781 1.933594,-1.417969 0,-0.867187 -0.773437,-1.417968 -1.933594,-1.417968 z m 0,0.5625 c 0.738282,0 1.230469,0.339843 1.230469,0.855468 0,0.527344 -0.492187,0.855469 -1.230469,0.855469 -0.738281,0 -1.230468,-0.328125 -1.230468,-0.855469 0,-0.515625 0.492187,-0.855468 1.230468,-0.855468 z m 3.140625,-2.378907 v 4.722657 h 0.738282 V 26.84593 h 1.195312 v -0.632813 h -1.195312 v -2.074219 z m -3.503906,-0.07031 v 0.902344 h -2.027344 v 0.609375 h 4.78125 v -0.60938 h -2.015625 v -0.902344 z m 9.855469,0.222656 c -1.792969,0 -2.847656,0.492188 -2.847656,1.394531 0,0.902344 1.054687,1.40625 2.847656,1.40625 1.792969,0 2.859375,-0.503906 2.859375,-1.40625 0,-0.902343 -1.066406,-1.394531 -2.859375,-1.394531 z m 0,0.550781 c 1.335937,0 2.097656,0.316407 2.097656,0.84375 0,0.550782 -0.761719,0.84375 -2.097656,0.84375 -1.3125,0 -2.074219,-0.292968 -2.074219,-0.84375 0,-0.527343 0.761719,-0.84375 2.074219,-0.84375 z m -3.65625,2.800782 v 0.597656 h 7.324219 V 27.64281 Z m 0.914062,3.9375 v 0.585937 h 5.71875 V 31.58031 h -5.003906 v -0.820313 h 4.757813 v -1.828125 h -5.496094 v 0.5625 h 4.769531 v 0.714844 h -4.746094 z m 9.342774,-3.433594 v 0.621094 h 3.269531 v 3.492187 h 0.75 V 28.76781 h 3.304688 v -0.621094 h -1.183594 c 0.222656,-1.160156 0.222656,-2.003906 0.222656,-2.765625 v -0.714844 h -5.449219 v 0.609375 h 4.722657 v 0.105469 c 0,0.75 0,1.617187 -0.257813,2.765625 z m 10.664058,-1.96875 c -1.16015,0 -1.945308,0.597656 -1.945308,1.511719 0,0.914062 0.785158,1.511718 1.945308,1.511718 1.14844,0 1.9336,-0.597656 1.9336,-1.511718 0,-0.914063 -0.78516,-1.511719 -1.9336,-1.511719 z m 0,0.585937 c 0.73829,0 1.23047,0.363282 1.23047,0.925782 0,0.5625 -0.49218,0.925781 -1.23047,0.925781 -0.73828,0 -1.23046,-0.363281 -1.23046,-0.925781 0,-0.5625 0.49218,-0.925782 1.23046,-0.925782 z m 3.14063,-2.613281 v 6.082031 h 0.73828 v -2.800781 h 1.19531 v -0.621094 h -1.19531 v -2.660156 z m -3.50391,0 v 0.984375 h -2.027341 v 0.609375 h 4.781251 v -0.609375 h -2.01563 v -0.984375 z m -0.79687,5.589844 v 2.332031 h 5.40234 v -0.609375 h -4.67578 v -1.722656 z m 12.47754,-5.601563 v 8.121094 h 0.75 v -4.300781 h 1.32422 v -0.621094 h -1.32422 v -3.199219 z m -5.13282,0.796875 v 5.308594 h 0.63282 c 1.52343,0 2.58984,-0.04687 3.84375,-0.269531 l -0.0937,-0.644531 c -1.1836,0.222656 -2.21485,0.28125 -3.64453,0.28125 v -4.066407 h 3.02343 v -0.609375 z m 8.69532,6.738282 c 0.32812,0 0.59765,-0.246094 0.59765,-0.621094 0,-0.375 -0.26953,-0.621094 -0.59765,-0.621094 -0.32813,0 -0.58594,0.246094 -0.58594,0.621094 0,0.375 0.25781,0.621094 0.58594,0.621094 z m 0,0"
         style="fill:#000000;fill-opacity:1;fill-rule:nonzero;stroke:none" />
      <path
         id="path91"
         d="m 4.3950156,44.550031 c 0,-1.066406 -0.7734375,-1.980468 -1.78125,-1.980468 -0.421875,0 -0.796875,0.152343 -1.1015625,0.421875 v -1.605469 c 0,-0.304688 -0.082031,-0.375 -0.3867187,-0.375 H 0.44579688 c -0.1171875,0 -0.375,0 -0.375,0.28125 0,0.292969 0.24609375,0.292969 0.375,0.292969 h 0.3984375 v 4.511718 c 0,0.175782 0,0.386719 0.32812502,0.386719 0.3398437,0 0.3398437,-0.210937 0.3398437,-0.386719 0.2695313,0.269532 0.6210938,0.433594 1.0195313,0.433594 0.9960937,0 1.8632812,-0.855469 1.8632812,-1.980469 z m -0.6679687,0 c 0,0.796875 -0.5742188,1.394532 -1.2304688,1.394532 -0.6445312,0 -0.984375,-0.726563 -0.984375,-1.195313 v -0.621094 c 0,-0.527343 0.5273438,-0.972656 1.0664063,-0.972656 0.6210937,0 1.1484375,0.609375 1.1484375,1.394531 z m 5.1884765,0 c 0,-1.113281 -0.84375,-2.003906 -1.8632812,-2.003906 -1.0078125,0 -1.8515625,0.890625 -1.8515625,2.003906 0,1.113282 0.8554687,1.980469 1.8515625,1.980469 1.0078125,0 1.8632812,-0.867187 1.8632812,-1.980469 z m -0.6679687,-0.07031 c 0,0.808594 -0.5390625,1.464844 -1.1953125,1.464844 -0.6445313,0 -1.1835938,-0.65625 -1.1835938,-1.464844 0,-0.796875 0.5742188,-1.347656 1.1835938,-1.347656 0.6328125,0 1.1953125,0.550781 1.1953125,1.347656 z m 5.8183593,1.710937 c 0,-0.292968 -0.246094,-0.292968 -0.386719,-0.292968 -0.128906,0 -0.316406,0 -0.492187,-0.05859 v -1.886719 c 0,-0.703125 -0.539063,-1.40625 -1.792969,-1.40625 -0.410156,0 -1.3125,0 -1.3125,0.679688 0,0.257812 0.1875,0.410156 0.410156,0.410156 0.140625,0 0.421875,-0.04687 0.421875,-0.480469 0.246094,-0.02344 0.410157,-0.02344 0.492188,-0.02344 0.703125,0 1.113281,0.292968 1.113281,0.84375 -1.488281,0.01172 -2.6718749,0.433593 -2.6718749,1.3125 0,0.679687 0.6210939,1.242187 1.4882809,1.242187 0.105469,0 0.785157,0 1.265625,-0.351562 0.222657,0.304687 0.703125,0.304687 0.996094,0.304687 0.257813,0 0.46875,0 0.46875,-0.29297 z M 12.519039,45.218 c 0,0.210938 0,0.398438 -0.351562,0.574219 -0.328125,0.152344 -0.726563,0.152344 -0.761719,0.152344 -0.527344,0 -0.902344,-0.292969 -0.902344,-0.65625 0,-0.433594 0.914063,-0.738282 2.015625,-0.75 z m 5.973633,-2.074219 c 0,-0.164062 -0.117188,-0.574218 -0.855469,-0.574218 -0.515625,0 -1.078125,0.222656 -1.511719,0.703125 v -0.28125 c 0,-0.292969 -0.07031,-0.375 -0.375,-0.375 h -0.996093 c -0.140625,0 -0.386719,0 -0.386719,0.292968 0,0.292969 0.234375,0.292969 0.386719,0.292969 h 0.714843 v 2.695313 h -0.714843 c -0.140625,0 -0.386719,0 -0.386719,0.292968 0,0.292969 0.234375,0.292969 0.386719,0.292969 h 2.367187 c 0.128906,0 0.386719,0 0.386719,-0.28125 0,-0.304687 -0.246094,-0.304687 -0.386719,-0.304687 h -0.996094 v -1.066407 c 0,-0.902343 0.609375,-1.675781 1.570313,-1.675781 0.03516,0.328125 0.28125,0.398438 0.398437,0.398438 0.199219,0 0.398438,-0.152344 0.398438,-0.410157 z m 4.96582,3.058594 c 0,-0.304687 -0.246094,-0.304687 -0.375,-0.304687 h -0.398437 v -4.511719 c 0,-0.304688 -0.07031,-0.375 -0.375,-0.375 h -0.679688 c -0.128906,0 -0.375,0 -0.375,0.28125 0,0.292969 0.234375,0.292969 0.375,0.292969 h 0.386719 v 1.371093 c -0.1875,-0.175781 -0.550781,-0.386718 -1.03125,-0.386718 -0.996094,0 -1.851563,0.867187 -1.851563,1.992187 0,1.101563 0.808594,1.96875 1.769532,1.96875 0.410156,0 0.796875,-0.152344 1.113281,-0.480469 0,0.28125 0,0.433594 0.375,0.433594 h 0.691406 c 0.117188,0 0.375,0 0.375,-0.28125 z m -1.441406,-1.464844 c 0,0.480469 -0.398438,1.207032 -1.066406,1.207032 -0.621094,0 -1.148438,-0.609375 -1.148438,-1.382813 0,-0.808594 0.574219,-1.40625 1.230469,-1.40625 0.539062,0 0.984375,0.46875 0.984375,0.949219 z m 5.856445,2.191407 c 0,-0.28125 -0.246093,-0.28125 -0.375,-0.28125 h -1.347656 v -5.800782 h 1.347656 c 0.140625,0 0.375,0 0.375,-0.292968 0,-0.292969 -0.246093,-0.292969 -0.375,-0.292969 h -1.628906 c -0.292969,0 -0.375,0.07031 -0.375,0.375 v 6.210937 c 0,0.304688 0.07031,0.375 0.375,0.375 h 1.628906 c 0.140625,0 0.375,0 0.375,-0.292968 z m 4.497071,-0.726563 c 0,-0.304687 -0.257813,-0.304687 -0.386719,-0.304687 h -0.9375 v -2.90625 c 0,-0.292969 -0.07031,-0.375 -0.375,-0.375 h -1.300781 c -0.140625,0 -0.386719,0 -0.386719,0.292968 0,0.292969 0.234375,0.292969 0.386719,0.292969 h 1.007812 v 2.695313 H 29.28857 c -0.128906,0 -0.375,0 -0.375,0.292968 0,0.292969 0.234375,0.292969 0.375,0.292969 h 2.695313 c 0.128906,0 0.386719,0 0.386719,-0.28125 z m -1.3125,-4.699219 c 0,-0.257812 -0.199219,-0.457031 -0.457032,-0.457031 -0.246093,0 -0.457031,0.199219 -0.457031,0.457031 0,0.246094 0.210938,0.457032 0.457031,0.457032 0.257813,0 0.457032,-0.210938 0.457032,-0.457032 z m 4.634765,5.34375 v -6.210937 c 0,-0.292969 -0.07031,-0.375 -0.375,-0.375 h -1.628906 c -0.128906,0 -0.375,0 -0.375,0.292969 0,0.292968 0.234375,0.292968 0.375,0.292968 h 1.335937 v 5.800782 h -1.335937 c -0.128906,0 -0.375,0 -0.375,0.28125 0,0.292968 0.234375,0.292968 0.375,0.292968 h 1.628906 c 0.292969,0 0.375,-0.07031 0.375,-0.375 z m 6.301758,0.08203 c 0,-0.28125 -0.246094,-0.28125 -0.375,-0.28125 h -1.347656 v -5.800782 h 1.347656 c 0.140625,0 0.375,0 0.375,-0.292968 0,-0.292969 -0.246094,-0.292969 -0.375,-0.292969 h -1.628906 c -0.292969,0 -0.375,0.07031 -0.375,0.375 v 6.210937 c 0,0.304688 0.07031,0.375 0.375,0.375 h 1.628906 c 0.140625,0 0.375,0 0.375,-0.292968 z m 3.700195,-0.08203 v -3.855468 c 0,-0.292969 -0.07031,-0.375 -0.375,-0.375 h -1.453125 c -0.140625,0 -0.375,0 -0.375,0.292968 0,0.292969 0.234375,0.292969 0.375,0.292969 h 1.160157 v 3.621094 c 0,0.140625 0,0.480469 -0.234375,0.808594 -0.234375,0.304687 -0.492188,0.304687 -0.691407,0.304687 -0.128906,0 -0.1875,0 -0.316406,-0.01172 -0.140625,-0.01172 -0.152344,-0.02344 -0.152344,-0.09375 -0.01172,-0.351562 -0.304687,-0.433593 -0.410156,-0.433593 -0.199219,0 -0.421875,0.140625 -0.421875,0.433593 0,0.691407 0.890625,0.691407 1.253906,0.691407 1.300782,0 1.640625,-1.066407 1.640625,-1.675781 z m 0.01172,-5.34375 c 0,-0.257812 -0.210937,-0.457031 -0.457031,-0.457031 -0.257813,0 -0.457031,0.199219 -0.457031,0.457031 0,0.246094 0.199218,0.457032 0.457031,0.457032 0.246094,0 0.457031,-0.210938 0.457031,-0.457032 z m 4.110352,5.34375 v -6.210937 c 0,-0.292969 -0.07031,-0.375 -0.375,-0.375 h -1.628907 c -0.128906,0 -0.375,0 -0.375,0.292969 0,0.292968 0.234375,0.292968 0.375,0.292968 h 1.335938 v 5.800782 h -1.335938 c -0.128906,0 -0.375,0 -0.375,0.28125 0,0.292968 0.234375,0.292968 0.375,0.292968 h 1.628907 c 0.292968,0 0.375,-0.07031 0.375,-0.375 z m 11.033203,-3.09375 c 0,-0.339843 -0.339844,-0.339843 -0.445313,-0.339843 h -1.242187 v -1.253907 c 0,-0.09375 0,-0.433593 -0.328125,-0.433593 -0.339844,0 -0.339844,0.328125 -0.339844,0.433593 v 1.253907 h -1.242187 c -0.105469,0 -0.445313,0 -0.445313,0.328125 0,0.339843 0.339844,0.339843 0.445313,0.339843 h 1.242187 v 1.242188 c 0,0.105469 0,0.445312 0.328125,0.445312 0.339844,0 0.339844,-0.339843 0.339844,-0.445312 v -1.242188 h 1.242187 c 0.09375,0 0.445313,0 0.445313,-0.328125 z m 4.708008,-0.679687 c 0,-0.351563 -0.351563,-0.351563 -0.480469,-0.351563 h -3.082031 c -0.128907,0 -0.480469,0 -0.480469,0.351563 0,0.328125 0.328125,0.328125 0.421875,0.328125 h 3.199219 c 0.09375,0 0.421875,0 0.421875,-0.328125 z m 0,1.347656 C 65.558102,44.093 65.229977,44.093 65.136227,44.093 h -3.199219 c -0.09375,0 -0.421875,0 -0.421875,0.328125 0,0.339844 0.351562,0.339844 0.480469,0.339844 h 3.082031 c 0.128906,0 0.480469,0 0.48047,-0.339844 z m 9.436523,0.128906 c 0,-1.066406 -0.773437,-1.980468 -1.78125,-1.980468 -0.421875,0 -0.796875,0.152343 -1.101562,0.421875 v -1.605469 c 0,-0.304688 -0.08203,-0.375 -0.386719,-0.375 h -0.679688 c -0.117187,0 -0.375,0 -0.375,0.28125 0,0.292969 0.246094,0.292969 0.375,0.292969 h 0.398438 v 4.511718 c 0,0.175782 0,0.386719 0.328125,0.386719 0.339844,0 0.339844,-0.210937 0.339844,-0.386719 0.269531,0.269532 0.621093,0.433594 1.019531,0.433594 0.996094,0 1.863281,-0.855469 1.863281,-1.980469 z m -0.667969,0 c 0,0.796875 -0.574218,1.394532 -1.230468,1.394532 -0.644532,0 -0.984375,-0.726563 -0.984375,-1.195313 v -0.621094 c 0,-0.527343 0.527343,-0.972656 1.066406,-0.972656 0.621094,0 1.148437,0.609375 1.148437,1.394531 z m 5.188477,0 c 0,-1.113281 -0.84375,-2.003906 -1.863281,-2.003906 -1.007813,0 -1.851563,0.890625 -1.851563,2.003906 0,1.113282 0.855469,1.980469 1.851563,1.980469 1.007812,0 1.863281,-0.867187 1.863281,-1.980469 z m -0.667969,-0.07031 c 0,0.808594 -0.539062,1.464844 -1.195312,1.464844 -0.644532,0 -1.183594,-0.65625 -1.183594,-1.464844 0,-0.796875 0.574219,-1.347656 1.183594,-1.347656 0.632812,0 1.195312,0.550781 1.195312,1.347656 z m 5.821289,1.710937 c 0,-0.292968 -0.246094,-0.292968 -0.386719,-0.292968 -0.128906,0 -0.316406,0 -0.492187,-0.05859 v -1.886719 c 0,-0.703125 -0.539063,-1.40625 -1.792969,-1.40625 -0.410156,0 -1.3125,0 -1.3125,0.679688 0,0.257812 0.1875,0.410156 0.410156,0.410156 0.140625,0 0.421875,-0.04687 0.421875,-0.480469 0.246094,-0.02344 0.410157,-0.02344 0.492188,-0.02344 0.703125,0 1.113281,0.292968 1.113281,0.84375 -1.488281,0.01172 -2.671875,0.433593 -2.671875,1.3125 0,0.679687 0.621094,1.242187 1.488281,1.242187 0.105469,0 0.785157,0 1.265625,-0.351562 0.222657,0.304687 0.703125,0.304687 0.996094,0.304687 0.257813,0 0.46875,0 0.46875,-0.29297 z M 83.121578,45.218 c 0,0.210938 0,0.398438 -0.351562,0.574219 -0.328125,0.152344 -0.726563,0.152344 -0.761719,0.152344 -0.527344,0 -0.902344,-0.292969 -0.902344,-0.65625 0,-0.433594 0.914063,-0.738282 2.015625,-0.75 z m 5.973633,-2.074219 c 0,-0.164062 -0.117188,-0.574218 -0.855469,-0.574218 -0.515625,0 -1.078125,0.222656 -1.511719,0.703125 v -0.28125 c 0,-0.292969 -0.07031,-0.375 -0.375,-0.375 H 85.35693 c -0.140625,0 -0.386719,0 -0.386719,0.292968 0,0.292969 0.234375,0.292969 0.386719,0.292969 h 0.714843 v 2.695313 H 85.35693 c -0.140625,0 -0.386719,0 -0.386719,0.292968 0,0.292969 0.234375,0.292969 0.386719,0.292969 h 2.367187 c 0.128906,0 0.386719,0 0.386719,-0.28125 0,-0.304687 -0.246094,-0.304687 -0.386719,-0.304687 h -0.996094 v -1.066407 c 0,-0.902343 0.609375,-1.675781 1.570313,-1.675781 0.03516,0.328125 0.28125,0.398438 0.398437,0.398438 0.199219,0 0.398438,-0.152344 0.398438,-0.410157 z m 4.96582,3.058594 c 0,-0.304687 -0.246093,-0.304687 -0.375,-0.304687 h -0.398437 v -4.511719 c 0,-0.304688 -0.07031,-0.375 -0.375,-0.375 h -0.679688 c -0.128906,0 -0.375,0 -0.375,0.28125 0,0.292969 0.234375,0.292969 0.375,0.292969 h 0.386719 v 1.371093 c -0.1875,-0.175781 -0.550781,-0.386718 -1.03125,-0.386718 -0.996094,0 -1.851562,0.867187 -1.851562,1.992187 0,1.101563 0.808593,1.96875 1.769531,1.96875 0.410156,0 0.796875,-0.152344 1.113281,-0.480469 0,0.28125 0,0.433594 0.375,0.433594 h 0.691406 c 0.117188,0 0.375,0 0.375,-0.28125 z m -1.441406,-1.464844 c 0,0.480469 -0.398437,1.207032 -1.066406,1.207032 -0.621094,0 -1.148438,-0.609375 -1.148438,-1.382813 0,-0.808594 0.574219,-1.40625 1.230469,-1.40625 0.539063,0 0.984375,0.46875 0.984375,0.949219 z m 5.853516,2.191407 c 0,-0.28125 -0.246094,-0.28125 -0.375,-0.28125 h -1.347657 v -5.800782 h 1.347657 c 0.140625,0 0.375,0 0.375,-0.292968 0,-0.292969 -0.246094,-0.292969 -0.375,-0.292969 h -1.628907 c -0.292968,0 -0.375,0.07031 -0.375,0.375 v 6.210937 c 0,0.304688 0.07031,0.375 0.375,0.375 h 1.628907 c 0.140625,0 0.375,0 0.375,-0.292968 z m 4.497069,-0.726563 c 0,-0.304687 -0.25781,-0.304687 -0.38672,-0.304687 h -0.9375 v -2.90625 c 0,-0.292969 -0.0703,-0.375 -0.375,-0.375 h -1.300779 c -0.140625,0 -0.386719,0 -0.386719,0.292968 0,0.292969 0.234375,0.292969 0.386719,0.292969 h 1.007809 v 2.695313 h -1.08984 c -0.128907,0 -0.375,0 -0.375,0.292968 0,0.292969 0.234375,0.292969 0.375,0.292969 h 2.69531 c 0.12891,0 0.38672,0 0.38672,-0.28125 z m -1.3125,-4.699219 c 0,-0.257812 -0.19922,-0.457031 -0.45703,-0.457031 -0.24609,0 -0.45703,0.199219 -0.45703,0.457031 0,0.246094 0.21094,0.457032 0.45703,0.457032 0.25781,0 0.45703,-0.210938 0.45703,-0.457032 z m 6.09082,2.25 c 0,-0.339843 -0.32812,-0.339843 -0.43359,-0.339843 h -2.82422 c -0.0937,0 -0.43359,0 -0.43359,0.328125 0,0.339843 0.32812,0.339843 0.43359,0.339843 h 2.82422 c 0.0937,0 0.43359,0 0.43359,-0.328125 z m 4.49707,2.449219 c 0,-0.304687 -0.22265,-0.304687 -0.375,-0.304687 h -0.79687 V 41.2805 c 0,-0.128906 0,-0.375 -0.28125,-0.375 -0.15235,0 -0.22266,0.08203 -0.28125,0.199219 -0.28125,0.632812 -0.63282,0.867187 -0.9961,0.902344 -0.1289,0 -0.32812,0.02344 -0.32812,0.292968 0,0.175782 0.0937,0.28125 0.3164,0.28125 0.35157,0 0.70313,-0.1875 0.91407,-0.363281 v 3.679688 h -0.79688 c -0.15234,0 -0.38672,0 -0.38672,0.304687 0,0.28125 0.2461,0.28125 0.38672,0.28125 h 2.25 c 0.14063,0 0.375,0 0.375,-0.28125 z m 3.46289,0.644531 v -6.210937 c 0,-0.292969 -0.0703,-0.375 -0.375,-0.375 h -1.6289 c -0.12891,0 -0.375,0 -0.375,0.292969 0,0.292968 0.23437,0.292968 0.375,0.292968 h 1.33593 v 5.800782 h -1.33593 c -0.12891,0 -0.375,0 -0.375,0.28125 0,0.292968 0.23437,0.292968 0.375,0.292968 h 1.6289 c 0.29297,0 0.375,-0.07031 0.375,-0.375 z m 6.30176,0.08203 c 0,-0.28125 -0.24609,-0.28125 -0.375,-0.28125 h -1.34766 v -5.800782 h 1.34766 c 0.14063,0 0.375,0 0.375,-0.292968 0,-0.292969 -0.24609,-0.292969 -0.375,-0.292969 h -1.62891 c -0.29296,0 -0.375,0.07031 -0.375,0.375 v 6.210937 c 0,0.304688 0.0703,0.375 0.375,0.375 h 1.62891 c 0.14063,0 0.375,0 0.375,-0.292968 z m 3.7002,-0.08203 v -3.855468 c 0,-0.292969 -0.0703,-0.375 -0.375,-0.375 h -1.45313 c -0.14062,0 -0.375,0 -0.375,0.292968 0,0.292969 0.23438,0.292969 0.375,0.292969 h 1.16016 v 3.621094 c 0,0.140625 0,0.480469 -0.23438,0.808594 -0.23437,0.304687 -0.49219,0.304687 -0.6914,0.304687 -0.12891,0 -0.1875,0 -0.31641,-0.01172 -0.14063,-0.01172 -0.15234,-0.02344 -0.15234,-0.09375 -0.0117,-0.351562 -0.30469,-0.433593 -0.41016,-0.433593 -0.19922,0 -0.42188,0.140625 -0.42188,0.433593 0,0.691407 0.89063,0.691407 1.25391,0.691407 1.30078,0 1.64063,-1.066407 1.64063,-1.675781 z m 0.0117,-5.34375 c 0,-0.257812 -0.21093,-0.457031 -0.45703,-0.457031 -0.25781,0 -0.45703,0.199219 -0.45703,0.457031 0,0.246094 0.19922,0.457032 0.45703,0.457032 0.2461,0 0.45703,-0.210938 0.45703,-0.457032 z m 4.11036,5.34375 v -6.210937 c 0,-0.292969 -0.0703,-0.375 -0.375,-0.375 h -1.62891 c -0.12891,0 -0.375,0 -0.375,0.292969 0,0.292968 0.23437,0.292968 0.375,0.292968 h 1.33594 v 5.800782 h -1.33594 c -0.12891,0 -0.375,0 -0.375,0.28125 0,0.292968 0.23437,0.292968 0.375,0.292968 h 1.62891 c 0.29296,0 0.375,-0.07031 0.375,-0.375 z m 4.88378,-3.65625 c 0,-0.328125 -0.26953,-0.574218 -0.5625,-0.574218 -0.32812,0 -0.57421,0.28125 -0.57421,0.5625 0,0.339843 0.28125,0.574218 0.5625,0.574218 0.33984,0 0.57421,-0.269531 0.57421,-0.5625 z m 0.0469,3.046875 c 0,-0.550781 -0.23438,-0.890625 -0.62109,-0.890625 -0.31641,0 -0.5625,0.246094 -0.5625,0.5625 0,0.210938 0.1289,0.550782 0.57421,0.574219 -0.082,0.304688 -0.29296,0.550781 -0.5625,0.691406 -0.0586,0.02344 -0.19921,0.09375 -0.19921,0.257813 0,0.140625 0.14062,0.292969 0.30468,0.292969 0.19922,0 1.06641,-0.480469 1.06641,-1.488282 z m 0,0"
         style="fill:#000000;fill-opacity:1;fill-rule:nonzero;stroke:none" />
    </g>
  </g>
</svg>
