<svg xmlns="http://www.w3.org/2000/svg" width="330" height="250" viewBox="0 0 330 250">
<rect width="100%" height="100%" fill="white"/>

<style>
text{font-family:"JetBrains Mono","Consolas","Noto Sans Mono CJK KR",monospace;fill:#202020}
.label{font-size:12px}
.small{font-size:10px;fill:#666}
.cellText{font-size:12px}
.cell{fill:white;stroke:#999;stroke-width:1}
.cellHi{fill:#e0e0e0;stroke:#202020;stroke-width:1.4}
.cellLight{fill:#f7f7f7;stroke:#cfcfcf;stroke-width:1}
.grid{fill:white;stroke:#999;stroke-width:1}
.fill{fill:#e0e0e0;stroke:#999;stroke-width:1}
.fillHi{fill:#d9d9d9;stroke:#202020;stroke-width:1.3}
.point{fill:#e0e0e0;stroke:#202020;stroke-width:1.3}
.dash{fill:none;stroke:#777;stroke-width:1;stroke-dasharray:4 3}
.arrow{stroke:#777;stroke-width:1.1;marker-end:url(#arrow)}
.brace{fill:none;stroke:#777;stroke-width:1}
</style>
<defs>
<marker id="arrow" markerWidth="8" markerHeight="8" refX="7" refY="3" orient="auto">
<path d="M0,0 L0,6 L8,3 z" fill="#777"/>
</marker>
</defs>

<text x="167.0" y="15" text-anchor="middle" class="small">열</text>
<text x="37" y="137.0" text-anchor="middle" class="small" transform="rotate(-90 37 137.0)">행</text>
<text x="82.0" y="29" text-anchor="middle" class="small">0</text>
<text x="116.0" y="29" text-anchor="middle" class="small">1</text>
<text x="150.0" y="29" text-anchor="middle" class="small">2</text>
<text x="184.0" y="29" text-anchor="middle" class="small">3</text>
<text x="218.0" y="29" text-anchor="middle" class="small">4</text>
<text x="252.0" y="29" text-anchor="middle" class="small">5</text>
<text x="55" y="56.0" text-anchor="middle" class="small">0</text>
<text x="55" y="90.0" text-anchor="middle" class="small">1</text>
<text x="55" y="124.0" text-anchor="middle" class="small">2</text>
<text x="55" y="158.0" text-anchor="middle" class="small">3</text>
<text x="55" y="192.0" text-anchor="middle" class="small">4</text>
<text x="55" y="226.0" text-anchor="middle" class="small">5</text>
<rect x="65" y="35" width="32" height="32" class="grid"/>
<rect x="99" y="35" width="32" height="32" class="grid"/>
<rect x="133" y="35" width="32" height="32" class="grid"/>
<rect x="167" y="35" width="32" height="32" class="grid"/>
<rect x="201" y="35" width="32" height="32" class="grid"/>
<rect x="235" y="35" width="32" height="32" class="grid"/>
<rect x="65" y="69" width="32" height="32" class="grid"/>
<rect x="99" y="69" width="32" height="32" class="fillHi"/>
<text x="115.0" y="89.0" text-anchor="middle" class="cellText">1</text>
<rect x="133" y="69" width="32" height="32" class="fillHi"/>
<text x="149.0" y="89.0" text-anchor="middle" class="cellText">1</text>
<rect x="167" y="69" width="32" height="32" class="fillHi"/>
<text x="183.0" y="89.0" text-anchor="middle" class="cellText">1</text>
<rect x="201" y="69" width="32" height="32" class="fillHi"/>
<text x="217.0" y="89.0" text-anchor="middle" class="cellText">1</text>
<rect x="235" y="69" width="32" height="32" class="grid"/>
<rect x="65" y="103" width="32" height="32" class="grid"/>
<rect x="99" y="103" width="32" height="32" class="fillHi"/>
<text x="115.0" y="123.0" text-anchor="middle" class="cellText">1</text>
<rect x="133" y="103" width="32" height="32" class="fillHi"/>
<text x="149.0" y="123.0" text-anchor="middle" class="cellText">1</text>
<rect x="167" y="103" width="32" height="32" class="fillHi"/>
<text x="183.0" y="123.0" text-anchor="middle" class="cellText">1</text>
<rect x="201" y="103" width="32" height="32" class="fillHi"/>
<text x="217.0" y="123.0" text-anchor="middle" class="cellText">1</text>
<rect x="235" y="103" width="32" height="32" class="grid"/>
<rect x="65" y="137" width="32" height="32" class="grid"/>
<rect x="99" y="137" width="32" height="32" class="fillHi"/>
<text x="115.0" y="157.0" text-anchor="middle" class="cellText">1</text>
<rect x="133" y="137" width="32" height="32" class="fillHi"/>
<text x="149.0" y="157.0" text-anchor="middle" class="cellText">1</text>
<rect x="167" y="137" width="32" height="32" class="fillHi"/>
<text x="183.0" y="157.0" text-anchor="middle" class="cellText">1</text>
<rect x="201" y="137" width="32" height="32" class="fillHi"/>
<text x="217.0" y="157.0" text-anchor="middle" class="cellText">1</text>
<rect x="235" y="137" width="32" height="32" class="grid"/>
<rect x="65" y="171" width="32" height="32" class="grid"/>
<rect x="99" y="171" width="32" height="32" class="grid"/>
<rect x="133" y="171" width="32" height="32" class="grid"/>
<rect x="167" y="171" width="32" height="32" class="grid"/>
<rect x="201" y="171" width="32" height="32" class="grid"/>
<rect x="235" y="171" width="32" height="32" class="grid"/>
<rect x="65" y="205" width="32" height="32" class="grid"/>
<rect x="99" y="205" width="32" height="32" class="grid"/>
<rect x="133" y="205" width="32" height="32" class="grid"/>
<rect x="167" y="205" width="32" height="32" class="grid"/>
<rect x="201" y="205" width="32" height="32" class="grid"/>
<rect x="235" y="205" width="32" height="32" class="grid"/>
</svg>