<?xml version="1.0" encoding="UTF-8" standalone="no"?>
<!-- Created with Inkscape (http://www.inkscape.org/) -->

<svg
   version="1.1"
   id="svg1"
   width="535.71997"
   height="259.25333"
   viewBox="0 0 535.71997 259.25333"
   sodipodi:docname="5.pdf"
   xmlns:inkscape="http://www.inkscape.org/namespaces/inkscape"
   xmlns:sodipodi="http://sodipodi.sourceforge.net/DTD/sodipodi-0.dtd"
   xmlns="http://www.w3.org/2000/svg"
   xmlns:svg="http://www.w3.org/2000/svg">
  <defs
     id="defs1" />
  <sodipodi:namedview
     id="namedview1"
     pagecolor="#ffffff"
     bordercolor="#000000"
     borderopacity="0.25"
     inkscape:showpageshadow="2"
     inkscape:pageopacity="0.0"
     inkscape:pagecheckerboard="0"
     inkscape:deskcolor="#d1d1d1">
    <inkscape:page
       x="0"
       y="0"
       inkscape:label="1"
       id="page1"
       width="535.71997"
       height="259.25333"
       margin="0"
       bleed="0" />
  </sodipodi:namedview>
  <g
     id="g1"
     inkscape:groupmode="layer"
     inkscape:label="1">
    <path
       id="path1"
       d="M -12.04738,-12.04738 H 12.04738 V 12.04738 H -12.04738 Z"
       style="fill:#ffffff;fill-opacity:1;fill-rule:nonzero;stroke:#666666;stroke-width:0.49814;stroke-linecap:butt;stroke-linejoin:miter;stroke-miterlimit:10;stroke-dasharray:none;stroke-opacity:1"
       transform="matrix(1.3333333,0,0,-1.3333333,58.638667,58.141333)" />
    <path
       id="path2"
       d="M 14.03162,-12.04738 H 38.12638 V 12.04738 H 14.03162 Z"
       style="fill:#ffffff;fill-opacity:1;fill-rule:nonzero;stroke:#666666;stroke-width:0.49814;stroke-linecap:butt;stroke-linejoin:miter;stroke-miterlimit:10;stroke-dasharray:none;stroke-opacity:1"
       transform="matrix(1.3333333,0,0,-1.3333333,58.638667,58.141333)" />
    <path
       id="path3"
       d="M 40.11063,-12.04738 H 64.20539 V 12.04738 H 40.11063 Z"
       style="fill:#ffffff;fill-opacity:1;fill-rule:nonzero;stroke:#666666;stroke-width:0.49814;stroke-linecap:butt;stroke-linejoin:miter;stroke-miterlimit:10;stroke-dasharray:none;stroke-opacity:1"
       transform="matrix(1.3333333,0,0,-1.3333333,58.638667,58.141333)" />
    <path
       id="path4"
       d="M 66.18964,-12.04738 H 90.2844 V 12.04738 H 66.18964 Z"
       style="fill:#ffffff;fill-opacity:1;fill-rule:nonzero;stroke:#666666;stroke-width:0.49814;stroke-linecap:butt;stroke-linejoin:miter;stroke-miterlimit:10;stroke-dasharray:none;stroke-opacity:1"
       transform="matrix(1.3333333,0,0,-1.3333333,58.638667,58.141333)" />
    <path
       id="path5"
       d="m 92.26866,-12.04738 h 24.09476 V 12.04738 H 92.26866 Z"
       style="fill:#ffffff;fill-opacity:1;fill-rule:nonzero;stroke:#666666;stroke-width:0.49814;stroke-linecap:butt;stroke-linejoin:miter;stroke-miterlimit:10;stroke-dasharray:none;stroke-opacity:1"
       transform="matrix(1.3333333,0,0,-1.3333333,58.638667,58.141333)" />
    <path
       id="path6"
       d="m 118.34767,-12.04738 h 24.09476 v 24.09476 h -24.09476 z"
       style="fill:#ffffff;fill-opacity:1;fill-rule:nonzero;stroke:#666666;stroke-width:0.49814;stroke-linecap:butt;stroke-linejoin:miter;stroke-miterlimit:10;stroke-dasharray:none;stroke-opacity:1"
       transform="matrix(1.3333333,0,0,-1.3333333,58.638667,58.141333)" />
    <path
       id="path7"
       d="m -12.04738,-38.12639 h 24.09476 v 24.09476 h -24.09476 z"
       style="fill:#ffffff;fill-opacity:1;fill-rule:nonzero;stroke:#666666;stroke-width:0.49814;stroke-linecap:butt;stroke-linejoin:miter;stroke-miterlimit:10;stroke-dasharray:none;stroke-opacity:1"
       transform="matrix(1.3333333,0,0,-1.3333333,58.638667,58.141333)" />
    <path
       id="path8"
       d="m 14.03162,-38.12639 h 24.09476 v 24.09476 H 14.03162 Z"
       style="fill:#ffffff;fill-opacity:1;fill-rule:nonzero;stroke:#666666;stroke-width:0.49814;stroke-linecap:butt;stroke-linejoin:miter;stroke-miterlimit:10;stroke-dasharray:none;stroke-opacity:1"
       transform="matrix(1.3333333,0,0,-1.3333333,58.638667,58.141333)" />
    <path
       id="path9"
       d="m 40.11063,-38.12639 h 24.09476 v 24.09476 H 40.11063 Z"
       style="fill:#ffffff;fill-opacity:1;fill-rule:nonzero;stroke:#666666;stroke-width:0.49814;stroke-linecap:butt;stroke-linejoin:miter;stroke-miterlimit:10;stroke-dasharray:none;stroke-opacity:1"
       transform="matrix(1.3333333,0,0,-1.3333333,58.638667,58.141333)" />
    <path
       id="path10"
       d="M 66.18964,-38.12639 H 90.2844 v 24.09476 H 66.18964 Z"
       style="fill:#ffffff;fill-opacity:1;fill-rule:nonzero;stroke:#666666;stroke-width:0.49814;stroke-linecap:butt;stroke-linejoin:miter;stroke-miterlimit:10;stroke-dasharray:none;stroke-opacity:1"
       transform="matrix(1.3333333,0,0,-1.3333333,58.638667,58.141333)" />
    <path
       id="path11"
       d="m 92.26866,-38.12639 h 24.09476 v 24.09476 H 92.26866 Z"
       style="fill:#ffffff;fill-opacity:1;fill-rule:nonzero;stroke:#666666;stroke-width:0.49814;stroke-linecap:butt;stroke-linejoin:miter;stroke-miterlimit:10;stroke-dasharray:none;stroke-opacity:1"
       transform="matrix(1.3333333,0,0,-1.3333333,58.638667,58.141333)" />
    <path
       id="path12"
       d="m 118.34767,-38.12639 h 24.09476 v 24.09476 h -24.09476 z"
       style="fill:#ffffff;fill-opacity:1;fill-rule:nonzero;stroke:#666666;stroke-width:0.49814;stroke-linecap:butt;stroke-linejoin:miter;stroke-miterlimit:10;stroke-dasharray:none;stroke-opacity:1"
       transform="matrix(1.3333333,0,0,-1.3333333,58.638667,58.141333)" />
    <path
       id="path13"
       d="m -12.04738,-64.2054 h 24.09476 v 24.09476 h -24.09476 z"
       style="fill:#ffffff;fill-opacity:1;fill-rule:nonzero;stroke:#666666;stroke-width:0.49814;stroke-linecap:butt;stroke-linejoin:miter;stroke-miterlimit:10;stroke-dasharray:none;stroke-opacity:1"
       transform="matrix(1.3333333,0,0,-1.3333333,58.638667,58.141333)" />
    <path
       id="path14"
       d="m 14.03162,-64.2054 h 24.09476 v 24.09476 H 14.03162 Z"
       style="fill:#ffffff;fill-opacity:1;fill-rule:nonzero;stroke:#666666;stroke-width:0.49814;stroke-linecap:butt;stroke-linejoin:miter;stroke-miterlimit:10;stroke-dasharray:none;stroke-opacity:1"
       transform="matrix(1.3333333,0,0,-1.3333333,58.638667,58.141333)" />
    <path
       id="path15"
       d="m 40.11063,-64.2054 h 24.09476 v 24.09476 H 40.11063 Z"
       style="fill:#ffffff;fill-opacity:1;fill-rule:nonzero;stroke:#666666;stroke-width:0.49814;stroke-linecap:butt;stroke-linejoin:miter;stroke-miterlimit:10;stroke-dasharray:none;stroke-opacity:1"
       transform="matrix(1.3333333,0,0,-1.3333333,58.638667,58.141333)" />
    <path
       id="path16"
       d="M 66.18964,-64.2054 H 90.2844 v 24.09476 H 66.18964 Z"
       style="fill:#ffffff;fill-opacity:1;fill-rule:nonzero;stroke:#666666;stroke-width:0.49814;stroke-linecap:butt;stroke-linejoin:miter;stroke-miterlimit:10;stroke-dasharray:none;stroke-opacity:1"
       transform="matrix(1.3333333,0,0,-1.3333333,58.638667,58.141333)" />
    <path
       id="path17"
       d="m 92.26866,-64.2054 h 24.09476 v 24.09476 H 92.26866 Z"
       style="fill:#ffffff;fill-opacity:1;fill-rule:nonzero;stroke:#666666;stroke-width:0.49814;stroke-linecap:butt;stroke-linejoin:miter;stroke-miterlimit:10;stroke-dasharray:none;stroke-opacity:1"
       transform="matrix(1.3333333,0,0,-1.3333333,58.638667,58.141333)" />
    <path
       id="path18"
       d="m 118.34767,-64.2054 h 24.09476 v 24.09476 h -24.09476 z"
       style="fill:#ffffff;fill-opacity:1;fill-rule:nonzero;stroke:#666666;stroke-width:0.49814;stroke-linecap:butt;stroke-linejoin:miter;stroke-miterlimit:10;stroke-dasharray:none;stroke-opacity:1"
       transform="matrix(1.3333333,0,0,-1.3333333,58.638667,58.141333)" />
    <path
       id="path19"
       d="m -12.04738,-90.28441 h 24.09476 v 24.09476 h -24.09476 z"
       style="fill:#ffffff;fill-opacity:1;fill-rule:nonzero;stroke:#666666;stroke-width:0.49814;stroke-linecap:butt;stroke-linejoin:miter;stroke-miterlimit:10;stroke-dasharray:none;stroke-opacity:1"
       transform="matrix(1.3333333,0,0,-1.3333333,58.638667,58.141333)" />
    <path
       id="path20"
       d="m 14.03162,-90.28441 h 24.09476 v 24.09476 H 14.03162 Z"
       style="fill:#ffffff;fill-opacity:1;fill-rule:nonzero;stroke:#666666;stroke-width:0.49814;stroke-linecap:butt;stroke-linejoin:miter;stroke-miterlimit:10;stroke-dasharray:none;stroke-opacity:1"
       transform="matrix(1.3333333,0,0,-1.3333333,58.638667,58.141333)" />
    <path
       id="path21"
       d="m 40.11063,-90.28441 h 24.09476 v 24.09476 H 40.11063 Z"
       style="fill:#ffffff;fill-opacity:1;fill-rule:nonzero;stroke:#666666;stroke-width:0.49814;stroke-linecap:butt;stroke-linejoin:miter;stroke-miterlimit:10;stroke-dasharray:none;stroke-opacity:1"
       transform="matrix(1.3333333,0,0,-1.3333333,58.638667,58.141333)" />
    <path
       id="path22"
       d="M 66.18964,-90.28441 H 90.2844 v 24.09476 H 66.18964 Z"
       style="fill:#ffffff;fill-opacity:1;fill-rule:nonzero;stroke:#666666;stroke-width:0.49814;stroke-linecap:butt;stroke-linejoin:miter;stroke-miterlimit:10;stroke-dasharray:none;stroke-opacity:1"
       transform="matrix(1.3333333,0,0,-1.3333333,58.638667,58.141333)" />
    <path
       id="path23"
       d="m 92.26866,-90.28441 h 24.09476 v 24.09476 H 92.26866 Z"
       style="fill:#ffffff;fill-opacity:1;fill-rule:nonzero;stroke:#666666;stroke-width:0.49814;stroke-linecap:butt;stroke-linejoin:miter;stroke-miterlimit:10;stroke-dasharray:none;stroke-opacity:1"
       transform="matrix(1.3333333,0,0,-1.3333333,58.638667,58.141333)" />
    <path
       id="path24"
       d="m 118.34767,-90.28441 h 24.09476 v 24.09476 h -24.09476 z"
       style="fill:#ffffff;fill-opacity:1;fill-rule:nonzero;stroke:#666666;stroke-width:0.49814;stroke-linecap:butt;stroke-linejoin:miter;stroke-miterlimit:10;stroke-dasharray:none;stroke-opacity:1"
       transform="matrix(1.3333333,0,0,-1.3333333,58.638667,58.141333)" />
    <path
       id="path25"
       d="m -12.04738,-116.36343 h 24.09476 v 24.09476 h -24.09476 z"
       style="fill:#ffffff;fill-opacity:1;fill-rule:nonzero;stroke:#666666;stroke-width:0.49814;stroke-linecap:butt;stroke-linejoin:miter;stroke-miterlimit:10;stroke-dasharray:none;stroke-opacity:1"
       transform="matrix(1.3333333,0,0,-1.3333333,58.638667,58.141333)" />
    <path
       id="path26"
       d="m 14.03162,-116.36343 h 24.09476 v 24.09476 H 14.03162 Z"
       style="fill:#ffffff;fill-opacity:1;fill-rule:nonzero;stroke:#666666;stroke-width:0.49814;stroke-linecap:butt;stroke-linejoin:miter;stroke-miterlimit:10;stroke-dasharray:none;stroke-opacity:1"
       transform="matrix(1.3333333,0,0,-1.3333333,58.638667,58.141333)" />
    <path
       id="path27"
       d="m 40.11063,-116.36343 h 24.09476 v 24.09476 H 40.11063 Z"
       style="fill:#ffffff;fill-opacity:1;fill-rule:nonzero;stroke:#666666;stroke-width:0.49814;stroke-linecap:butt;stroke-linejoin:miter;stroke-miterlimit:10;stroke-dasharray:none;stroke-opacity:1"
       transform="matrix(1.3333333,0,0,-1.3333333,58.638667,58.141333)" />
    <path
       id="path28"
       d="M 66.18964,-116.36343 H 90.2844 v 24.09476 H 66.18964 Z"
       style="fill:#ffffff;fill-opacity:1;fill-rule:nonzero;stroke:#666666;stroke-width:0.49814;stroke-linecap:butt;stroke-linejoin:miter;stroke-miterlimit:10;stroke-dasharray:none;stroke-opacity:1"
       transform="matrix(1.3333333,0,0,-1.3333333,58.638667,58.141333)" />
    <path
       id="path29"
       d="m 92.26866,-116.36343 h 24.09476 v 24.09476 H 92.26866 Z"
       style="fill:#ffffff;fill-opacity:1;fill-rule:nonzero;stroke:#666666;stroke-width:0.49814;stroke-linecap:butt;stroke-linejoin:miter;stroke-miterlimit:10;stroke-dasharray:none;stroke-opacity:1"
       transform="matrix(1.3333333,0,0,-1.3333333,58.638667,58.141333)" />
    <path
       id="path30"
       d="m 118.34767,-116.36343 h 24.09476 v 24.09476 h -24.09476 z"
       style="fill:#ffffff;fill-opacity:1;fill-rule:nonzero;stroke:#666666;stroke-width:0.49814;stroke-linecap:butt;stroke-linejoin:miter;stroke-miterlimit:10;stroke-dasharray:none;stroke-opacity:1"
       transform="matrix(1.3333333,0,0,-1.3333333,58.638667,58.141333)" />
    <path
       id="path31"
       d="m -12.04738,-142.44244 h 24.09476 v 24.09476 h -24.09476 z"
       style="fill:#ffffff;fill-opacity:1;fill-rule:nonzero;stroke:#666666;stroke-width:0.49814;stroke-linecap:butt;stroke-linejoin:miter;stroke-miterlimit:10;stroke-dasharray:none;stroke-opacity:1"
       transform="matrix(1.3333333,0,0,-1.3333333,58.638667,58.141333)" />
    <path
       id="path32"
       d="m 14.03162,-142.44244 h 24.09476 v 24.09476 H 14.03162 Z"
       style="fill:#ffffff;fill-opacity:1;fill-rule:nonzero;stroke:#666666;stroke-width:0.49814;stroke-linecap:butt;stroke-linejoin:miter;stroke-miterlimit:10;stroke-dasharray:none;stroke-opacity:1"
       transform="matrix(1.3333333,0,0,-1.3333333,58.638667,58.141333)" />
    <path
       id="path33"
       d="m 40.11063,-142.44244 h 24.09476 v 24.09476 H 40.11063 Z"
       style="fill:#ffffff;fill-opacity:1;fill-rule:nonzero;stroke:#666666;stroke-width:0.49814;stroke-linecap:butt;stroke-linejoin:miter;stroke-miterlimit:10;stroke-dasharray:none;stroke-opacity:1"
       transform="matrix(1.3333333,0,0,-1.3333333,58.638667,58.141333)" />
    <path
       id="path34"
       d="M 66.18964,-142.44244 H 90.2844 v 24.09476 H 66.18964 Z"
       style="fill:#ffffff;fill-opacity:1;fill-rule:nonzero;stroke:#666666;stroke-width:0.49814;stroke-linecap:butt;stroke-linejoin:miter;stroke-miterlimit:10;stroke-dasharray:none;stroke-opacity:1"
       transform="matrix(1.3333333,0,0,-1.3333333,58.638667,58.141333)" />
    <path
       id="path35"
       d="m 92.26866,-142.44244 h 24.09476 v 24.09476 H 92.26866 Z"
       style="fill:#ffffff;fill-opacity:1;fill-rule:nonzero;stroke:#666666;stroke-width:0.49814;stroke-linecap:butt;stroke-linejoin:miter;stroke-miterlimit:10;stroke-dasharray:none;stroke-opacity:1"
       transform="matrix(1.3333333,0,0,-1.3333333,58.638667,58.141333)" />
    <path
       id="path36"
       d="m 118.34767,-142.44244 h 24.09476 v 24.09476 h -24.09476 z"
       style="fill:#ffffff;fill-opacity:1;fill-rule:nonzero;stroke:#666666;stroke-width:0.49814;stroke-linecap:butt;stroke-linejoin:miter;stroke-miterlimit:10;stroke-dasharray:none;stroke-opacity:1"
       transform="matrix(1.3333333,0,0,-1.3333333,58.638667,58.141333)" />
    <path
       id="path37"
       d="m 1.9335391,0.09432813 c 0.9960937,0 1.59375,-0.92578125 1.59375,-2.60156253 0,-1.6523437 -0.5976563,-2.5546875 -1.59375,-2.5546875 -0.99609379,0 -1.58203129,0.890625 -1.58203129,2.5546875 0,1.67578128 0.5859375,2.60156253 1.58203129,2.60156253 z m 0,-0.515625 c -0.5742188,0 -0.97265629,-0.62109373 -0.97265629,-2.08593753 0,-1.453125 0.39843749,-2.0507812 0.97265629,-2.0507812 0.5859375,0 0.984375,0.5976562 0.984375,2.0507812 0,1.4648438 -0.3984375,2.08593753 -0.984375,2.08593753 z m 0,0"
       style="fill:#666666;fill-opacity:1;fill-rule:nonzero;stroke:none"
       aria-label="0"
       transform="matrix(1.3333333,0,0,1.3333333,56.058667,38.022667)" />
    <path
       id="path38"
       d="M 0.61039844,5.78125e-4 H 3.4228984 V -0.52676562 h -1.03125 V -4.9681719 H 1.8994609 c -0.2695312,0.1640625 -0.5976562,0.28125 -1.05468746,0.3632813 v 0.4101562 H 1.7588359 v 3.66796878 H 0.61039844 Z m 0,0"
       style="fill:#666666;fill-opacity:1;fill-rule:nonzero;stroke:none"
       aria-label="1"
       transform="matrix(1.3333333,0,0,1.3333333,90.830667,38.022667)" />
    <path
       id="path39"
       d="M 0.30385938,0.00145313 H 3.5147969 V -0.54932812 H 2.0733906 c -0.2578125,0 -0.5625,0.0234375 -0.8320312,0.046875 1.171875,-1.23046878 2.0390625,-2.16796878 2.0390625,-3.10546878 0,-0.8789062 -0.5859375,-1.453125 -1.5,-1.453125 -0.6445313,0 -1.08984377,0.2929688 -1.50000002,0.75 l 0.36328125,0.3632813 c 0.29296875,-0.328125 0.64453127,-0.5976563 1.06640627,-0.5976563 0.6328125,0 0.9375,0.4101563 0.9375,0.9726563 0,0.8085937 -0.84375,1.7109375 -2.34375002,3.19921873 z m 0,0"
       style="fill:#666666;fill-opacity:1;fill-rule:nonzero;stroke:none"
       aria-label="2"
       transform="matrix(1.3333333,0,0,1.3333333,125.60267,38.084)" />
    <path
       id="path40"
       d="m 1.828375,0.09432813 c 0.9140625,0 1.6523438,-0.52734375 1.6523438,-1.41796873 0,-0.6796875 -0.4804688,-1.125 -1.078125,-1.265625 v -0.035156 c 0.5273437,-0.1875 0.9023437,-0.5742187 0.9023437,-1.1835937 0,-0.796875 -0.6328125,-1.2539063 -1.4882812,-1.2539063 -0.5859375,0 -1.0429688,0.2695313 -1.42968755,0.6210938 l 0.33984375,0.3984375 c 0.2929688,-0.2929688 0.65625,-0.5039063 1.0664063,-0.5039063 0.5390625,0 0.8671875,0.3046875 0.8671875,0.7851563 0,0.5273437 -0.3632813,0.9257812 -1.4179688,0.9257812 v 0.5039063 c 1.1835938,0 1.59375,0.3867187 1.59375,0.984375 0,0.56249998 -0.4335937,0.91406248 -1.0429687,0.91406248 -0.5742188,0 -0.96093755,-0.28125 -1.26562505,-0.58593748 l -0.328125,0.41015623 c 0.33984375,0.36328125 0.84375005,0.703125 1.62890625,0.7031247 z m 0,0"
       style="fill:#666666;fill-opacity:1;fill-rule:nonzero;stroke:none"
       aria-label="3"
       transform="matrix(1.3333333,0,0,1.3333333,160.37467,38.022667)" />
    <path
       id="path41"
       d="M 2.3685156,5.78125e-4 H 2.9661719 V -1.3705156 h 0.6914062 v -0.515625 H 2.9661719 v -3.0820313 h -0.703125 l -2.12109377,3.1757813 v 0.421875 H 2.3685156 Z m 0,-1.886718725 H 0.79820313 L 1.9700781,-3.5853594 c 0.140625,-0.2460937 0.28125,-0.46875 0.4101563,-0.703125 h 0.023437 c -0.011719,0.2578125 -0.035156,0.703125 -0.035156,0.9492188 z m 0,0"
       style="fill:#666666;fill-opacity:1;fill-rule:nonzero;stroke:none"
       aria-label="4"
       transform="matrix(1.3333333,0,0,1.3333333,195.14667,38.022667)" />
    <path
       id="path42"
       d="m 1.8276016,0.09245312 c 0.8554687,0 1.6757812,-0.609375 1.6757812,-1.68750002 0,-1.0664062 -0.703125,-1.546875 -1.546875,-1.546875 -0.3046875,0 -0.5390625,0.070312 -0.7617187,0.1992188 l 0.1289062,-1.4765625 h 1.921875 V -4.9700469 H 0.76119531 l -0.1640625,2.390625 0.33984375,0.2109375 c 0.29296874,-0.1875 0.51562504,-0.3046875 0.85546874,-0.3046875 0.6445313,0 1.0546875,0.4101563 1.0546875,1.1015625 0,0.69140627 -0.4804687,1.13671877 -1.078125,1.13671877 -0.5976562,0 -0.97265624,-0.28125 -1.26562499,-0.57421877 l -0.31640625,0.42187502 c 0.3515625,0.33984375 0.83203124,0.6796875 1.64062504,0.6796875 z m 0,0"
       style="fill:#666666;fill-opacity:1;fill-rule:nonzero;stroke:none"
       aria-label="5"
       transform="matrix(1.3333333,0,0,1.3333333,229.91867,37.962667)" />
    <path
       id="path43"
       d="m 1.9333438,0.09452344 c 0.9960937,0 1.59375,-0.92578125 1.59375,-2.60156254 0,-1.6523437 -0.5976563,-2.5546875 -1.59375,-2.5546875 -0.9960938,0 -1.5820313,0.890625 -1.5820313,2.5546875 0,1.67578129 0.5859375,2.60156254 1.5820313,2.60156254 z m 0,-0.515625 c -0.5742188,0 -0.9726563,-0.62109374 -0.9726563,-2.08593754 0,-1.453125 0.3984375,-2.0507812 0.9726563,-2.0507812 0.5859375,0 0.984375,0.5976562 0.984375,2.0507812 0,1.4648438 -0.3984375,2.08593754 -0.984375,2.08593754 z m 0,0"
       style="fill:#666666;fill-opacity:1;fill-rule:nonzero;stroke:none"
       aria-label="0"
       transform="matrix(1.3333333,0,0,1.3333333,32.625333,61.456)" />
    <path
       id="path44"
       d="m 0.609125,-0.00107812 h 2.8125 V -0.52842187 H 2.390375 V -4.9698281 H 1.8981875 C 1.6286563,-4.8057656 1.3005313,-4.6885781 0.8435,-4.6065469 v 0.4101563 h 0.9140625 v 3.66796873 H 0.609125 Z m 0,0"
       style="fill:#666666;fill-opacity:1;fill-rule:nonzero;stroke:none"
       aria-label="1"
       transform="matrix(1.3333333,0,0,1.3333333,32.625333,96.228)" />
    <path
       id="path45"
       d="M 0.3044375,8.75e-4 H 3.515375 V -0.54990625 H 2.0739688 c -0.2578125,0 -0.5625,0.0234375 -0.8320313,0.046875 C 2.4138125,-1.7335 3.281,-2.671 3.281,-3.6085 c 0,-0.8789063 -0.5859375,-1.453125 -1.5,-1.453125 -0.6445312,0 -1.08984375,0.2929687 -1.5,0.75 l 0.36328125,0.3632812 C 0.93725,-4.2764688 1.2888125,-4.546 1.7106875,-4.546 c 0.6328125,0 0.9375,0.4101562 0.9375,0.9726562 0,0.8085938 -0.84375,1.7109375 -2.34375,3.1992188 z m 0,0"
       style="fill:#666666;fill-opacity:1;fill-rule:nonzero;stroke:none"
       aria-label="2"
       transform="matrix(1.3333333,0,0,1.3333333,32.625333,131.06133)" />
    <path
       id="path46"
       d="m 1.827875,0.09482813 c 0.9140625,0 1.6523438,-0.52734375 1.6523438,-1.41796873 0,-0.6796875 -0.4804688,-1.125 -1.078125,-1.265625 v -0.035156 c 0.5273437,-0.1875 0.9023437,-0.5742187 0.9023437,-1.1835937 0,-0.796875 -0.6328125,-1.2539063 -1.4882812,-1.2539063 -0.5859375,0 -1.0429688,0.2695313 -1.42968755,0.6210938 l 0.33984375,0.3984375 c 0.2929688,-0.2929688 0.65625,-0.5039063 1.0664063,-0.5039063 0.5390625,0 0.8671875,0.3046875 0.8671875,0.7851563 0,0.5273437 -0.3632813,0.9257812 -1.4179688,0.9257812 v 0.5039063 c 1.1835938,0 1.59375,0.3867187 1.59375,0.984375 0,0.56249998 -0.4335937,0.91406248 -1.0429687,0.91406248 -0.5742188,0 -0.96093755,-0.28125 -1.26562505,-0.58593748 l -0.328125,0.41015623 c 0.33984375,0.36328125 0.84375005,0.703125 1.62890625,0.7031247 z m 0,0"
       style="fill:#666666;fill-opacity:1;fill-rule:nonzero;stroke:none"
       aria-label="3"
       transform="matrix(1.3333333,0,0,1.3333333,32.625333,165.772)" />
    <path
       id="path47"
       d="M 2.3669375,-7.734375e-4 H 2.9645938 V -1.3718672 H 3.656 v -0.515625 H 2.9645938 V -4.9695234 H 2.2614688 L 0.140375,-1.7937422 v 0.421875 h 2.2265625 z m 0,-1.8867187625 H 0.796625 L 1.9685,-3.5867109 c 0.140625,-0.2460938 0.28125,-0.46875 0.4101563,-0.703125 h 0.023437 c -0.011719,0.2578125 -0.035156,0.703125 -0.035156,0.9492187 z m 0,0"
       style="fill:#666666;fill-opacity:1;fill-rule:nonzero;stroke:none"
       aria-label="4"
       transform="matrix(1.3333333,0,0,1.3333333,32.625333,200.544)" />
    <path
       id="path48"
       d="m 1.827875,0.09510937 c 0.8554688,0 1.6757813,-0.609375 1.6757813,-1.68749997 0,-1.0664063 -0.703125,-1.546875 -1.546875,-1.546875 -0.3046875,0 -0.5390625,0.070312 -0.7617188,0.1992187 l 0.1289063,-1.4765625 h 1.921875 V -4.9673906 H 0.76146875 l -0.1640625,2.390625 0.33984375,0.2109375 c 0.2929688,-0.1875 0.515625,-0.3046875 0.8554688,-0.3046875 0.6445312,0 1.0546875,0.4101562 1.0546875,1.1015625 0,0.69140622 -0.4804688,1.13671872 -1.078125,1.13671872 -0.5976563,0 -0.9726563,-0.28125 -1.26562505,-0.57421872 L 0.18725,-0.58457813 c 0.3515625,0.33984375 0.8320313,0.6796875 1.640625,0.6796875 z m 0,0"
       style="fill:#666666;fill-opacity:1;fill-rule:nonzero;stroke:none"
       aria-label="5"
       transform="matrix(1.3333333,0,0,1.3333333,32.625333,235.256)" />
    <path
       id="path49"
       d="m 2.0749453,-5.0737187 c 0.609375,0 1.0664063,0.3984375 1.0664063,0.9609375 0,0.5625 -0.4570313,0.9609375 -1.0664063,0.9609375 -0.6210937,0 -1.07812499,-0.3984375 -1.07812499,-0.9609375 0,-0.5625 0.45703129,-0.9609375 1.07812499,-0.9609375 z m 1.546875,0.5273437 h 1.3359375 v 0.84375 H 3.6335391 c 0.035156,-0.1289062 0.058594,-0.2695312 0.058594,-0.4101562 0,-0.1523438 -0.023437,-0.3046875 -0.070313,-0.4335938 z m 1.3359375,-1.21875 v 0.7617188 h -1.59375 C 3.0827578,-5.34325 2.6257266,-5.5541875 2.0749453,-5.5541875 c -0.9492187,0 -1.62890624,0.5859375 -1.62890624,1.4414063 0,0.84375 0.67968754,1.4414062 1.62890624,1.4414062 0.5507813,0 1.03125,-0.2109375 1.3125,-0.5742187 h 1.5703125 v 0.703125 H 5.5319766 V -5.765125 Z m -3.46875,5.75390625 v 0.46875 h 4.2773438 v -0.46875 h -3.703125 v -0.6796875 h 3.46875 V -2.2143437 H 1.4772891 v 0.46875 H 4.9577578 V -1.1245 h -3.46875 z m 0,0"
       style="fill:#595959;fill-opacity:1;fill-rule:nonzero;stroke:none"
       aria-label="열"
       transform="matrix(1.3333333,0,0,1.3333333,141.292,22.749333)" />
    <path
       id="path50"
       d="m 1.9218906,-4.2305937 c -0.796875,0 -1.34765622,0.4335937 -1.34765622,1.0898437 0,0.65625 0.55078122,1.0664063 1.34765622,1.0664063 0.7851563,0 1.3359375,-0.4101563 1.3359375,-1.0664063 0,-0.65625 -0.5507812,-1.0898437 -1.3359375,-1.0898437 z m 0,0.4335937 c 0.4804688,0 0.8203125,0.2578125 0.8203125,0.65625 0,0.3867188 -0.3398437,0.6445313 -0.8203125,0.6445313 -0.4921875,0 -0.8320312,-0.2578125 -0.8320312,-0.6445313 0,-0.3984375 0.3398437,-0.65625 0.8320312,-0.65625 z m 1.6640625,2.1328125 c -1.3125,0 -2.0976562,0.3984375 -2.0976562,1.1015625 0,0.69140625 0.7851562,1.08984375 2.0976562,1.08984375 1.3242188,0 2.109375,-0.3984375 2.109375,-1.08984375 0,-0.703125 -0.7851562,-1.1015625 -2.109375,-1.1015625 z m 0,0.4453125 c 0.9726563,0 1.5351563,0.234375 1.5351563,0.65625 0,0.41015625 -0.5625,0.64453125 -1.5351563,0.64453125 -0.9609375,0 -1.5234375,-0.234375 -1.5234375,-0.64453125 0,-0.421875 0.5625,-0.65625 1.5234375,-0.65625 z m 0.1757813,-4.4179687 v 3.6328125 H 4.3007969 V -3.5743437 H 5.1093906 V -1.781375 H 5.6601719 V -5.76575 H 5.1093906 v 1.7109375 H 4.3007969 V -5.6368437 Z M 1.6289219,-5.718875 V -5.01575 H 0.31642188 v 0.4570313 H 3.5039219 V -5.01575 H 2.2031406 v -0.703125 z m 0,0"
       style="fill:#595959;fill-opacity:1;fill-rule:nonzero;stroke:none"
       aria-label="행"
       transform="matrix(1.3333333,0,0,1.3333333,15.054667,148.56267)" />
    <path
       id="path51"
       d="M 12.04738,0 C 12.04738,6.65366 6.65366,12.04738 0,12.04738 -6.65366,12.04738 -12.04738,6.65366 -12.04738,0 c 0,-6.65366 5.39372,-12.04738 12.04738,-12.04738 6.65366,0 12.04738,5.39372 12.04738,12.04738 z"
       style="fill:#dbdbdb;fill-opacity:1;fill-rule:nonzero;stroke:#000000;stroke-width:0.84683;stroke-linecap:butt;stroke-linejoin:miter;stroke-miterlimit:10;stroke-dasharray:none;stroke-opacity:1"
       transform="matrix(1.3333333,0,0,-1.3333333,58.638667,58.141333)" />
    <path
       id="path52"
       d="m 3.2232031,-1.5688594 h 2.1445313 c 0.082031,0 0.2578125,0 0.2578125,-0.1757812 0,-0.1757813 -0.1640625,-0.1757813 -0.2578125,-0.1757813 H 3.2232031 v -2.1328125 c 0,-0.09375 0,-0.2578125 -0.1640625,-0.2578125 -0.1757812,0 -0.1757812,0.1523438 -0.1757812,0.2578125 v 2.1328125 H 0.75054688 c -0.09375,0 -0.2578125,0 -0.2578125,0.1757813 0,0.1757812 0.15234375,0.1757812 0.2578125,0.1757812 H 2.8833594 v 2.13281253 c 0,0.09375 0,0.2578125 0.1757812,0.2578125 0.1640625,0 0.1640625,-0.15234375 0.1640625,-0.2578125 z m 5.2236328,-2.859375 c 0,-0.1875 -0.011719,-0.1992187 -0.2109375,-0.1992187 -0.4453125,0.4335937 -1.078125,0.4453125 -1.359375,0.4453125 v 0.2460937 c 0.1640625,0 0.6210938,0 1.0078125,-0.1875 v 3.55078128 c 0,0.234375 0,0.328125 -0.6914062,0.328125 H 6.9233984 v 0.24609375 c 0.1289063,-0.01171875 0.984375,-0.0234375 1.2421875,-0.0234375 0.2109375,0 1.0898438,0.01171875 1.2421875,0.0234375 V -0.24464062 H 9.1499609 c -0.703125,0 -0.703125,-0.09375 -0.703125,-0.328125 z m 0,0"
       style="fill:#000000;fill-opacity:1;fill-rule:nonzero;stroke:none"
       aria-label="+1"
       transform="matrix(1.3333333,0,0,1.3333333,51.913333,60.584)" />
    <path
       id="path53"
       d="m 38.12639,0 c 0,6.65366 -5.39372,12.04738 -12.04739,12.04738 -6.65366,0 -12.04738,-5.39372 -12.04738,-12.04738 0,-6.65366 5.39372,-12.04738 12.04738,-12.04738 6.65367,0 12.04739,5.39372 12.04739,12.04738 z"
       style="fill:#dbdbdb;fill-opacity:1;fill-rule:nonzero;stroke:#000000;stroke-width:0.84683;stroke-linecap:butt;stroke-linejoin:miter;stroke-miterlimit:10;stroke-dasharray:none;stroke-opacity:1"
       transform="matrix(1.3333333,0,0,-1.3333333,58.638667,58.141333)" />
    <g
       id="g53"
       aria-label="−1"
       transform="matrix(1.3333333,0,0,1.3333333,86.612,60.584)">
      <path
         id="path54"
         d="m 5.1923672,-1.5688594 c 0.1054687,0 0.2695312,0 0.2695312,-0.1757812 0,-0.1757813 -0.1523437,-0.1757813 -0.2695312,-0.1757813 H 1.0322109 c -0.10546871,0 -0.28124996,0 -0.28124996,0.1757813 0,0.1757812 0.1640625,0.1757812 0.28124996,0.1757812 z m 0,0"
         style="fill:#000000;fill-opacity:1;fill-rule:nonzero;stroke:none" />
      <path
         id="path55"
         d="m 8.5585781,-4.4282344 c 0,-0.1875 -0.011719,-0.1992187 -0.2109375,-0.1992187 -0.4453125,0.4335937 -1.078125,0.4453125 -1.359375,0.4453125 v 0.2460937 c 0.1640625,0 0.6210938,0 1.0078125,-0.1875 v 3.55078128 c 0,0.234375 0,0.328125 -0.6914062,0.328125 H 7.0351406 v 0.24609375 c 0.1289063,-0.01171875 0.984375,-0.0234375 1.2421875,-0.0234375 0.2109375,0 1.0898438,0.01171875 1.2421875,0.0234375 V -0.24464062 H 9.2617031 c -0.703125,0 -0.703125,-0.09375 -0.703125,-0.328125 z m 0,0"
         style="fill:#000000;fill-opacity:1;fill-rule:nonzero;stroke:none" />
    </g>
    <path
       id="path56"
       d="m 12.04738,-104.31604 c 0,6.65366 -5.39372,12.04738 -12.04738,12.04738 -6.65366,0 -12.04738,-5.39372 -12.04738,-12.04738 0,-6.65367 5.39372,-12.04739 12.04738,-12.04739 6.65366,0 12.04738,5.39372 12.04738,12.04739 z"
       style="fill:#dbdbdb;fill-opacity:1;fill-rule:nonzero;stroke:#000000;stroke-width:0.84683;stroke-linecap:butt;stroke-linejoin:miter;stroke-miterlimit:10;stroke-dasharray:none;stroke-opacity:1"
       transform="matrix(1.3333333,0,0,-1.3333333,58.638667,58.141333)" />
    <g
       id="g56"
       aria-label="−1"
       transform="matrix(1.3333333,0,0,1.3333333,51.84,199.672)">
      <path
         id="path57"
         d="m 5.1912891,-1.5704062 c 0.1054687,0 0.2695312,0 0.2695312,-0.1757813 0,-0.1757812 -0.1523437,-0.1757812 -0.2695312,-0.1757812 H 1.0311328 c -0.10546874,0 -0.28124999,0 -0.28124999,0.1757812 0,0.1757813 0.1640625,0.1757813 0.28124999,0.1757813 z m 0,0"
         style="fill:#000000;fill-opacity:1;fill-rule:nonzero;stroke:none" />
      <path
         id="path58"
         d="M 8.5575,-4.4297812 C 8.5575,-4.6172812 8.5457812,-4.629 8.3465625,-4.629 7.90125,-4.1954062 7.2684375,-4.1836875 6.9871875,-4.1836875 v 0.2460938 c 0.1640625,0 0.6210937,0 1.0078125,-0.1875 v 3.5507812 c 0,0.234375 0,0.328125 -0.6914063,0.328125 H 7.0340625 V -9.375e-5 c 0.1289062,-0.01171875 0.984375,-0.0234375 1.2421875,-0.0234375 0.2109375,0 1.0898437,0.01171875 1.2421875,0.0234375 V -0.2461875 H 9.260625 c -0.703125,0 -0.703125,-0.09375 -0.703125,-0.328125 z m 0,0"
         style="fill:#000000;fill-opacity:1;fill-rule:nonzero;stroke:none" />
    </g>
    <path
       id="path59"
       d="m 142.44244,-104.31604 c 0,6.65366 -5.39372,12.04738 -12.04739,12.04738 -6.65365,0 -12.04738,-5.39372 -12.04738,-12.04738 0,-6.65367 5.39373,-12.04739 12.04738,-12.04739 6.65367,0 12.04739,5.39372 12.04739,12.04739 z"
       style="fill:#dbdbdb;fill-opacity:1;fill-rule:nonzero;stroke:#000000;stroke-width:0.84683;stroke-linecap:butt;stroke-linejoin:miter;stroke-miterlimit:10;stroke-dasharray:none;stroke-opacity:1"
       transform="matrix(1.3333333,0,0,-1.3333333,58.638667,58.141333)" />
    <path
       id="path60"
       d="m 3.2227344,-1.5704062 h 2.1445312 c 0.082031,0 0.2578125,0 0.2578125,-0.1757813 0,-0.1757812 -0.1640625,-0.1757812 -0.2578125,-0.1757812 H 3.2227344 v -2.1328125 c 0,-0.09375 0,-0.2578125 -0.1640625,-0.2578125 -0.1757813,0 -0.1757813,0.1523437 -0.1757813,0.2578125 v 2.1328125 H 0.75007813 c -0.09375,0 -0.2578125,0 -0.2578125,0.1757812 0,0.1757813 0.15234375,0.1757813 0.2578125,0.1757813 H 2.8828906 v 2.13281245 c 0,0.09375 0,0.2578125 0.1757813,0.2578125 0.1640625,0 0.1640625,-0.15234375 0.1640625,-0.2578125 z m 5.2265625,-2.859375 c 0,-0.1875 -0.011719,-0.1992188 -0.2109375,-0.1992188 -0.4453125,0.4335938 -1.078125,0.4453125 -1.359375,0.4453125 v 0.2460938 c 0.1640625,0 0.6210937,0 1.0078125,-0.1875 v 3.5507812 c 0,0.234375 0,0.328125 -0.6914063,0.328125 H 6.9258594 V -9.375e-5 c 0.1289062,-0.01171875 0.984375,-0.0234375 1.2421875,-0.0234375 0.2109375,0 1.0898437,0.01171875 1.2421875,0.0234375 V -0.2461875 H 9.1524219 c -0.703125,0 -0.703125,-0.09375 -0.703125,-0.328125 z m 0,0"
       style="fill:#000000;fill-opacity:1;fill-rule:nonzero;stroke:none"
       aria-label="+1"
       transform="matrix(1.3333333,0,0,1.3333333,225.77333,199.672)" />
    <path
       id="path61"
       d="m 38.12639,-130.39505 c 0,6.65365 -5.39372,12.04738 -12.04739,12.04738 -6.65366,0 -12.04738,-5.39373 -12.04738,-12.04738 0,-6.65367 5.39372,-12.04739 12.04738,-12.04739 6.65367,0 12.04739,5.39372 12.04739,12.04739 z"
       style="fill:#dbdbdb;fill-opacity:1;fill-rule:nonzero;stroke:#000000;stroke-width:0.84683;stroke-linecap:butt;stroke-linejoin:miter;stroke-miterlimit:10;stroke-dasharray:none;stroke-opacity:1"
       transform="matrix(1.3333333,0,0,-1.3333333,58.638667,58.141333)" />
    <path
       id="path62"
       d="m 3.2213516,-1.5693281 h 2.1445312 c 0.082031,0 0.2578125,0 0.2578125,-0.1757813 0,-0.1757812 -0.1640625,-0.1757812 -0.2578125,-0.1757812 H 3.2213516 v -2.1328125 c 0,-0.09375 0,-0.2578125 -0.1640625,-0.2578125 -0.1757813,0 -0.1757813,0.1523437 -0.1757813,0.2578125 v 2.1328125 H 0.74869531 c -0.09375,0 -0.2578125,0 -0.2578125,0.1757812 0,0.1757813 0.15234375,0.1757813 0.2578125,0.1757813 H 2.8815078 v 2.13281248 c 0,0.09375 0,0.2578125 0.1757813,0.2578125 0.1640625,0 0.1640625,-0.15234375 0.1640625,-0.2578125 z m 5.2265625,-2.859375 c 0,-0.1875 -0.011719,-0.1992188 -0.2109375,-0.1992188 -0.4453125,0.4335938 -1.078125,0.4453125 -1.359375,0.4453125 v 0.2460938 c 0.1640625,0 0.6210937,0 1.0078125,-0.1875 v 3.55078123 c 0,0.234375 0,0.328125 -0.6914063,0.328125 H 6.9244766 V 9.84375e-4 c 0.1289062,-0.011718745 0.984375,-0.023437495 1.2421875,-0.023437495 0.2109375,0 1.0898437,0.01171875 1.2421875,0.023437495 V -0.24510937 H 9.1510391 c -0.703125,0 -0.703125,-0.09375 -0.703125,-0.328125 z m 0,0"
       style="fill:#000000;fill-opacity:1;fill-rule:nonzero;stroke:none"
       aria-label="+1"
       transform="matrix(1.3333333,0,0,1.3333333,86.685333,234.444)" />
    <path
       id="path63"
       d="m 142.44244,-130.39505 c 0,6.65365 -5.39372,12.04738 -12.04739,12.04738 -6.65365,0 -12.04738,-5.39373 -12.04738,-12.04738 0,-6.65367 5.39373,-12.04739 12.04738,-12.04739 6.65367,0 12.04739,5.39372 12.04739,12.04739 z"
       style="fill:#dbdbdb;fill-opacity:1;fill-rule:nonzero;stroke:#000000;stroke-width:0.84683;stroke-linecap:butt;stroke-linejoin:miter;stroke-miterlimit:10;stroke-dasharray:none;stroke-opacity:1"
       transform="matrix(1.3333333,0,0,-1.3333333,58.638667,58.141333)" />
    <g
       id="g63"
       aria-label="−1"
       transform="matrix(1.3333333,0,0,1.3333333,225.7,234.444)">
      <path
         id="path64"
         d="m 5.1908203,-1.5693281 c 0.1054688,0 0.2695313,0 0.2695313,-0.1757813 0,-0.1757812 -0.1523438,-0.1757812 -0.2695313,-0.1757812 H 1.0306641 c -0.10546879,0 -0.28125004,0 -0.28125004,0.1757812 0,0.1757813 0.1640625,0.1757813 0.28125004,0.1757813 z m 0,0"
         style="fill:#000000;fill-opacity:1;fill-rule:nonzero;stroke:none" />
      <path
         id="path65"
         d="m 8.5570313,-4.4287031 c 0,-0.1875 -0.011719,-0.1992188 -0.2109375,-0.1992188 -0.4453125,0.4335938 -1.078125,0.4453125 -1.359375,0.4453125 v 0.2460938 c 0.1640625,0 0.6210937,0 1.0078125,-0.1875 v 3.55078123 c 0,0.234375 0,0.328125 -0.6914063,0.328125 H 7.0335938 V 9.84375e-4 C 7.1625,-0.01073437 8.0179688,-0.02245312 8.2757813,-0.02245312 c 0.2109375,0 1.0898437,0.01171875 1.2421875,0.023437495 V -0.24510937 H 9.2601563 c -0.703125,0 -0.703125,-0.09375 -0.703125,-0.328125 z m 0,0"
         style="fill:#000000;fill-opacity:1;fill-rule:nonzero;stroke:none" />
    </g>
    <path
       id="path66"
       d="M 347.65178,-21.26018 H 186.44606 c -1.10048,0 -1.99256,-0.89207 -1.99256,-1.99255 v -83.89002 c 0,-1.10046 0.89208,-1.99255 1.99256,-1.99255 h 161.20572 c 1.10048,0 1.99255,0.89209 1.99255,1.99255 v 83.89002 c 0,1.10048 -0.89207,1.99255 -1.99255,1.99255 z"
       style="fill:#fcfcfc;fill-opacity:1;fill-rule:nonzero;stroke:#c7c7c7;stroke-width:0.3985;stroke-linecap:butt;stroke-linejoin:miter;stroke-miterlimit:10;stroke-dasharray:none;stroke-opacity:1"
       transform="matrix(1.3333333,0,0,-1.3333333,58.638667,58.141333)" />
    <path
       id="path67"
       d="m 2.6137656,-6.1172969 c 0.7734375,0 1.3125,0.84375 1.3125,2.15625 0,1.3125 -0.5390625,2.1679688 -1.3125,2.1679688 -0.7734375,0 -1.3125,-0.8554688 -1.3125,-2.1679688 0,-1.3125 0.5390625,-2.15625 1.3125,-2.15625 z m 1.8984375,1.125 h 1.875 v 1.9570313 H 4.5356406 c 0.058594,-0.28125 0.09375,-0.5976563 0.09375,-0.9257813 0,-0.375 -0.035156,-0.7148437 -0.1171875,-1.03125 z m 1.875,-2.4257812 v 1.8164062 H 4.3012656 c -0.3515625,-0.75 -0.9492187,-1.1835937 -1.6875,-1.1835937 -1.1835937,0 -2.02734372,1.1015625 -2.02734372,2.8242187 0,1.734375 0.84375002,2.8359375 2.02734372,2.8359375 0.7734375,0 1.40625,-0.4804687 1.7460938,-1.3007812 H 6.3872031 V 0.70301562 H 7.1137656 V -7.4180781 Z m 6.4687499,1.6640625 v 0.6210937 h 1.769531 v 3.3515625 h 0.738282 v -5.6367187 h -0.738282 v 1.6640625 z m -0.46875,3.4101562 v 0.2226563 c 0,1.0898437 -1.300781,1.96874997 -2.7421874,2.20312497 l 0.2929688,0.5859375 c 1.2304686,-0.22265625 2.3320316,-0.84375 2.8242186,-1.75781247 0.480469,0.91406247 1.582031,1.53515622 2.824219,1.75781247 l 0.28125,-0.5859375 c -1.453125,-0.234375 -2.71875,-1.08984377 -2.71875,-2.20312497 v -0.2226563 z m -1.664062,-4.6640625 v 0.84375 c 0,1.2539063 -0.7851566,2.34375 -2.0156254,2.7890625 l 0.3984375,0.5976563 c 0.9492189,-0.375 1.6523439,-1.1015625 1.9921879,-2.0390625 0.351562,0.8320312 1.042968,1.5117187 1.933593,1.8398437 l 0.386719,-0.5742187 c -1.171875,-0.421875 -1.96875,-1.453125 -1.96875,-2.5664063 v -0.890625 z m 10.86914,-0.023437 c -1.207031,0 -2.0625,0.6796875 -2.0625,1.6757813 0,0.984375 0.855469,1.6640625 2.0625,1.6640625 1.207032,0 2.074219,-0.6796875 2.074219,-1.6640625 0,-0.9960938 -0.867187,-1.6757813 -2.074219,-1.6757813 z m 0,0.609375 c 0.796875,0 1.359375,0.4335938 1.359375,1.0664063 0,0.6210937 -0.5625,1.0429687 -1.359375,1.0429687 -0.785156,0 -1.347656,-0.421875 -1.347656,-1.0429687 0,-0.6328125 0.5625,-1.0664063 1.347656,-1.0664063 z m 3.257813,-0.984375 v 8.10937502 h 0.738281 V -7.4063594 Z m -5.824219,5.0273438 c 0.667969,0 1.441406,-0.011719 2.238281,-0.046875 v 2.87109372 h 0.75 V -2.4727656 c 0.773438,-0.058594 1.546875,-0.140625 2.308594,-0.28125 l -0.04687,-0.5507813 c -1.78125,0.2695313 -3.84375,0.2929688 -5.34375,0.2929688 z m 14.05957,-5.0390625 v 8.12109372 h 0.738282 V -7.4180781 Z m -3.65625,0.1523437 v 1.2539063 h -1.863281 v 0.609375 h 1.875 v 0.609375 c 0,1.4179687 -0.890625,2.7890625 -2.097656,3.3515625 l 0.410156,0.57421872 c 0.949219,-0.44531252 1.710938,-1.37109372 2.0625,-2.50781252 0.386719,1.0664063 1.148438,1.9453125 2.074219,2.3671875 l 0.410156,-0.5742187 c -1.207031,-0.5390625 -2.121094,-1.8515625 -2.121094,-3.2109375 v -0.609375 h 1.851563 v -0.609375 h -1.851563 v -1.2539063 z m 12.1875,-0.1523437 v 8.12109372 h 0.726563 V -7.4180781 Z m -4.347656,1.3710937 c 0.644531,0 1.042969,0.8203125 1.042969,2.1328125 0,1.3125 -0.398438,2.1328125 -1.042969,2.1328125 -0.632812,0 -1.03125,-0.8203125 -1.03125,-2.1328125 0,-1.3125 0.398438,-2.1328125 1.03125,-2.1328125 z m 0,-0.6914062 c -1.042969,0 -1.722656,1.0898437 -1.722656,2.8242187 0,1.734375 0.679687,2.8242188 1.722656,2.8242188 0.996094,0 1.664063,-0.9726563 1.722656,-2.5546875 h 1.019532 v 3.92578122 h 0.703125 V -7.2422969 h -0.703125 v 2.9882813 h -1.019532 c -0.08203,-1.5351563 -0.738281,-2.484375 -1.722656,-2.4843745 z m 9.56543,1.875 h 2.191406 v 1.4765625 h -2.191406 z m 4.792969,-0.4570313 v 1.1484375 h -1.863282 v -1.1484375 z m -5.53125,-1.546875 v 4.078125 h 3.667968 v -0.7734375 h 1.863282 v 2.15625 h 0.738281 v -6 h -0.738281 v 1.4765625 h -1.863282 v -0.9375 h -0.738281 v 1.4296875 h -2.191406 v -1.4296875 z m 1.066406,4.875 v 2.50781252 h 5.390625 v -0.609375 H 47.900875 V -1.9922969 Z m 9.257812,-2.7890625 c 0.726563,0 1.207032,0.375 1.207032,0.9257813 0,0.5507812 -0.480469,0.9140625 -1.207032,0.9140625 -0.726562,0 -1.207031,-0.3632813 -1.207031,-0.9140625 0,-0.5507813 0.480469,-0.9257813 1.207031,-0.9257813 z m 0,-0.5742187 c -1.136718,0 -1.910156,0.5976562 -1.910156,1.5 0,0.796875 0.609375,1.359375 1.535156,1.4765625 v 0.8789062 c -0.785156,0.035156 -1.546875,0.035156 -2.191406,0.035156 l 0.117188,0.62109372 c 1.40625,0 3.304687,-0.0117188 5.050781,-0.32812502 l -0.04687,-0.5507812 c -0.691406,0.1054687 -1.441406,0.1640625 -2.179688,0.1992187 v -0.8554687 c 0.925782,-0.1171875 1.535157,-0.6679688 1.535157,-1.4765625 0,-0.9023438 -0.773438,-1.5 -1.910157,-1.5 z m 3.035157,-2.0625 v 8.12109372 h 0.738281 V -3.3399531 h 1.265625 v -0.6328125 h -1.265625 v -3.4453125 z m -3.410157,0.023437 v 0.9609375 h -2.050781 v 0.609375 h 4.839844 v -0.609375 h -2.039063 v -0.9609375 z m 9.855469,5.1210937 c -1.652344,0 -2.671875,0.5507813 -2.671875,1.48828127 0,0.92578125 1.019531,1.46484375 2.671875,1.46484375 1.652344,0 2.660156,-0.5390625 2.660156,-1.46484375 0,-0.93749997 -1.007812,-1.48828127 -2.660156,-1.48828127 z m 0,0.5859375 c 1.207031,0 1.933594,0.328125 1.933594,0.90234377 0,0.5625 -0.726563,0.890625 -1.933594,0.890625 -1.207031,0 -1.945312,-0.328125 -1.945312,-0.890625 0,-0.57421877 0.738281,-0.90234377 1.945312,-0.90234377 z m 1.851563,-5.71875 v 4.9101563 h 0.738281 v -1.3242188 h 1.207031 v -0.6210937 h -1.207031 v -1.078125 h 1.207031 v -0.6328125 h -1.207031 v -1.2539063 z m -5.214844,0.5039063 v 0.5976562 h 2.917969 v 1.0195313 h -2.90625 v 2.3085937 h 0.632812 c 1.511719,0 2.578125,-0.046875 3.855469,-0.2695312 l -0.07031,-0.609375 c -1.230468,0.2109375 -2.261718,0.2578125 -3.679687,0.2578125 v -1.1132813 h 2.894531 V -6.9024531 Z M 74.10107,-7.2657344 c -1.792968,0 -2.847656,0.4921875 -2.847656,1.3945313 0,0.9023437 1.054688,1.40625 2.847656,1.40625 1.792969,0 2.859375,-0.5039063 2.859375,-1.40625 0,-0.9023438 -1.066406,-1.3945313 -2.859375,-1.3945313 z m 0,0.5507813 c 1.335938,0 2.097657,0.3164062 2.097657,0.84375 0,0.5507812 -0.761719,0.84375 -2.097657,0.84375 -1.3125,0 -2.074218,-0.2929688 -2.074218,-0.84375 0,-0.5273438 0.761718,-0.84375 2.074218,-0.84375 z m -3.65625,2.8007812 v 0.5976563 h 7.324219 v -0.5976563 z m 0.914063,3.93750002 v 0.5859375 h 5.71875 v -0.5859375 h -5.003906 v -0.8203125 h 4.757812 V -2.6251094 h -5.496094 v 0.5625 h 4.769532 v 0.7148438 H 71.358883 Z M 86.610836,-7.4180781 v 8.12109372 h 0.75 V -7.4180781 Z m -5.425781,0.8789062 v 0.609375 h 3.035156 c -0.152344,1.9335938 -1.242188,3.46875 -3.410156,4.5117188 l 0.386718,0.59765622 c 2.71875,-1.31250002 3.773438,-3.37500002 3.773438,-5.71875002 z m 8.586914,4.8164063 v 0.5976562 h 4.886719 v 1.74609377 h 0.738281 V -1.7227656 Z m 0.128906,-2.671875 v 0.5976562 h 2.355469 v 0.84375 h -3.316406 v 0.609375 h 7.359375 v -0.609375 h -3.316407 v -0.84375 h 2.542969 v -0.5976562 h -4.898437 v -0.84375 h 4.722656 v -1.96875 h -5.472656 v 0.5859375 h 4.746093 v 0.8320312 h -4.722656 z m 9.714844,-0.984375 c -1.160156,0 -1.945313,0.5976562 -1.945313,1.5117187 0,0.9140625 0.785157,1.5117188 1.945313,1.5117188 1.148441,0 1.933591,-0.5976563 1.933591,-1.5117188 0,-0.9140625 -0.78515,-1.5117187 -1.933591,-1.5117187 z m 0,0.5859375 c 0.738281,0 1.230471,0.3632812 1.230471,0.9257812 0,0.5625 -0.49219,0.9257813 -1.230471,0.9257813 -0.738281,0 -1.230469,-0.3632813 -1.230469,-0.9257813 0,-0.5625 0.492188,-0.9257812 1.230469,-0.9257812 z m 3.140621,-2.6132813 v 6.0820313 h 0.73829 v -2.8007813 h 1.19531 v -0.6210937 h -1.19531 v -2.6601563 z m -3.503902,0 v 0.984375 h -2.027344 v 0.609375 h 4.781246 v -0.609375 h -2.015621 v -0.984375 z m -0.796875,5.5898438 v 2.33203122 h 5.402347 v -0.609375 H 99.182125 V -1.8165156 Z m 12.480467,-5.6015625 v 8.12109372 h 0.75 V -3.5977656 h 1.32422 v -0.6210938 h -1.32422 v -3.1992187 z m -5.13281,0.796875 v 5.3085937 h 0.63281 c 1.52344,0 2.58985,-0.046875 3.84375,-0.2695312 l -0.0937,-0.6445313 c -1.18359,0.2226563 -2.21484,0.28125 -3.64453,0.28125 v -4.0664062 h 3.02344 v -0.609375 z m 8.69238,6.73828122 c 0.32813,0 0.59766,-0.24609375 0.59766,-0.62109375 0,-0.375 -0.26953,-0.62109377 -0.59766,-0.62109377 -0.32812,0 -0.58594,0.24609377 -0.58594,0.62109377 0,0.375 0.25782,0.62109375 0.58594,0.62109375 z M 6.3520469,9.7762578 V 13.97157 H 7.0786094 V 9.7762578 Z M 1.8754844,17.205945 v 0.597657 h 5.4960937 v -0.597657 h -4.78125 v -0.867187 h 4.5 V 14.393445 H 1.8520469 v 0.585938 h 4.5 v 0.796875 H 1.8754844 Z m 0.6796875,-7.195312 v 0.621094 c 0,1.171875 -0.8320313,2.261718 -2.05078127,2.683593 l 0.375,0.585938 C 1.8403281,13.549695 2.5786094,12.823133 2.9418906,11.897352 c 0.3632813,0.855468 1.1015625,1.535156 2.0390625,1.851562 l 0.375,-0.574219 C 4.1489219,12.776258 3.3051719,11.756727 3.3051719,10.631727 V 10.010633 Z M 14.871578,9.7762578 v 8.1210942 h 0.703125 V 9.7762578 Z m -1.628906,0.1875 v 2.7304692 h -1.335938 v 0.609375 h 1.335938 v 4.171875 h 0.703125 V 9.9637578 Z M 8.8247031,10.725477 v 0.609375 h 1.5351559 v 0.738281 c 0,1.476562 -0.6445309,2.964844 -1.7578121,3.644531 l 0.4570312,0.550781 c 0.8085938,-0.503906 1.3828129,-1.453125 1.6640629,-2.554687 0.292968,1.019531 0.832031,1.898437 1.628906,2.367187 l 0.445312,-0.550781 c -1.113281,-0.644531 -1.722656,-2.050781 -1.722656,-3.457031 v -0.738281 h 1.453125 V 10.725477 Z M 19.82275,14.616102 v 3.164062 h 2.777344 v -3.164062 h -0.679688 v 0.960937 h -1.394531 v -0.960937 z m 0.703125,1.535156 h 1.394531 v 1.042969 h -1.394531 z m 3.972656,-6.3750002 v 4.4179692 h 0.738282 v -1.921875 h 1.195312 V 11.639539 H 25.236813 V 9.7762578 Z m -5.179687,0.4921872 v 0.609375 h 2.90625 c -0.117188,1.300782 -1.277344,2.308594 -3.257813,2.789063 l 0.269532,0.609375 c 2.378906,-0.585938 3.808593,-1.96875 3.808593,-4.007813 z m 4.734375,4.253907 v 0.679687 c 0,0.773438 -0.457031,1.664063 -1.40625,2.085938 l 0.410156,0.574218 c 0.667969,-0.304687 1.113281,-0.867187 1.359375,-1.488281 0.246094,0.632813 0.691406,1.183594 1.347656,1.488281 l 0.398438,-0.574218 c -0.925781,-0.410157 -1.394531,-1.3125 -1.394531,-2.109375 v -0.65625 z m 6.793945,-4.5937504 c -1.792969,0 -2.847656,0.4921874 -2.847656,1.3945314 0,0.902344 1.054687,1.40625 2.847656,1.40625 1.792969,0 2.859375,-0.503906 2.859375,-1.40625 0,-0.902344 -1.066406,-1.3945314 -2.859375,-1.3945314 z m 0,0.5507814 c 1.335938,0 2.097656,0.316406 2.097656,0.84375 0,0.550781 -0.761718,0.84375 -2.097656,0.84375 -1.3125,0 -2.074219,-0.292969 -2.074219,-0.84375 0,-0.527344 0.761719,-0.84375 2.074219,-0.84375 z m -3.65625,2.800781 v 0.597656 h 7.324219 v -0.597656 z m 0.914063,3.9375 v 0.585938 h 5.71875 V 17.217664 H 28.81982 v -0.820312 h 4.757813 v -1.828125 h -5.496094 v 0.5625 H 32.85107 V 15.84657 H 28.104977 Z M 43.35693,9.7762578 v 4.9101562 h 0.738281 V 9.7762578 Z m -4.675782,5.3437502 v 0.609375 h 4.675782 v 2.167969 h 0.738281 v -2.777344 z m -0.925781,-4.769531 v 0.609375 h 1.863281 v 0.304687 c 0,1.148438 -0.84375,2.214844 -2.0625,2.636719 l 0.386719,0.574219 c 0.972656,-0.339844 1.710938,-1.066407 2.0625,-1.980469 0.363281,0.84375 1.101563,1.511719 2.027344,1.828125 l 0.375,-0.585938 c -1.195313,-0.386718 -2.039063,-1.382812 -2.039063,-2.472656 v -0.304687 h 1.828125 v -0.609375 z m 9.418946,4.230468 v 3.199219 h 5.191406 v -3.199219 h -0.738281 v 0.996094 h -3.714844 v -0.996094 z m 0.738281,1.582032 h 3.714844 v 1.007812 h -3.714844 z m 3.714844,-6.3867192 v 1.9687502 h -1.605469 v 0.621094 h 1.605469 v 1.828125 h 0.738281 V 9.7762578 Z m -5.671875,0.4921872 v 0.609375 h 1.804687 v 0.199219 c 0,1.148438 -0.832031,2.226563 -2.027344,2.660156 l 0.375,0.585938 c 0.960938,-0.351563 1.699219,-1.089844 2.039063,-2.027344 0.351562,0.832031 1.054687,1.511719 1.957031,1.839844 l 0.375,-0.585938 C 49.307125,13.139539 48.51025,12.120008 48.51025,11.077039 V 10.87782 h 1.78125 v -0.609375 z m 11.666015,-0.1875 v 1.207032 h -1.535156 v 0.621093 h 1.535156 v 0.363282 c 0,1.324218 -0.644531,2.730468 -1.734375,3.375 l 0.445313,0.5625 c 0.796875,-0.480469 1.371093,-1.371094 1.640625,-2.390625 0.304687,0.949218 0.878906,1.78125 1.664062,2.214843 l 0.433594,-0.5625 C 58.969234,14.885633 58.324703,13.549695 58.324703,12.272352 V 11.90907 h 1.523438 v -0.621093 h -1.523438 v -1.207032 z m 2.765625,-0.1289059 v 7.5234379 h 0.714844 v -3.796875 h 1.054687 v 4.21875 h 0.714844 V 9.7762578 H 62.156734 V 13.057508 H 61.102047 V 9.9520391 Z m 7.473633,0.1523439 c -1.6875,0 -2.835938,0.691406 -2.835938,1.78125 0,1.089844 1.148438,1.78125 2.835938,1.78125 1.6875,0 2.835937,-0.691406 2.835937,-1.78125 0,-1.089844 -1.148437,-1.78125 -2.835937,-1.78125 z m 0,0.597656 c 1.242187,0 2.074219,0.46875 2.074219,1.183594 0,0.714844 -0.832032,1.171875 -2.074219,1.171875 -1.242188,0 -2.074219,-0.457031 -2.074219,-1.171875 0,-0.714844 0.832031,-1.183594 2.074219,-1.183594 z m -3.667969,3.726563 v 0.609375 h 3.292969 v 2.859375 h 0.738281 v -2.859375 h 3.328125 v -0.609375 z m 14.15625,-4.6523442 v 8.1210942 h 0.738281 V 9.7762578 Z m -5.636719,0.8320312 v 0.621094 h 1.886719 v 1.019531 c 0,1.40625 -0.972656,2.941406 -2.144531,3.492188 l 0.433594,0.597656 c 0.925781,-0.46875 1.734375,-1.488281 2.097656,-2.671875 0.375,1.101562 1.171875,2.027344 2.121094,2.472656 l 0.410156,-0.597656 c -1.195313,-0.515625 -2.167969,-1.910156 -2.167969,-3.292969 v -1.019531 h 1.898438 v -0.621094 z m 12.237305,-0.375 c -1.195312,0 -2.097656,0.785156 -2.097656,1.875 0,1.101563 0.902344,1.875 2.097656,1.875 1.21875,0 2.097656,-0.773437 2.097656,-1.875 0,-1.089844 -0.878906,-1.875 -2.097656,-1.875 z m 0,0.621094 c 0.785156,0 1.382813,0.527344 1.382813,1.253906 0,0.738281 -0.597657,1.265625 -1.382813,1.265625 -0.773437,0 -1.371094,-0.527344 -1.371094,-1.265625 0,-0.726562 0.597657,-1.253906 1.371094,-1.253906 z m 2.824219,4.734375 c -0.890625,0 -1.511719,0.445312 -1.511719,1.148437 0,0.703125 0.621094,1.136719 1.511719,1.136719 0.878906,0 1.488281,-0.433594 1.488281,-1.136719 0,-0.703125 -0.609375,-1.148437 -1.488281,-1.148437 z m 0,0.539062 c 0.480469,0 0.832031,0.246094 0.832031,0.609375 0,0.363282 -0.351562,0.609375 -0.832031,0.609375 -0.492188,0 -0.84375,-0.246093 -0.84375,-0.609375 0,-0.363281 0.351562,-0.609375 0.84375,-0.609375 z m 0.492187,-6.3515622 v 4.0429692 h 0.738282 v -1.605469 h 1.195312 V 11.604383 H 89.004391 V 9.7762578 Z m -4.710937,4.9218752 v 2.976562 h 0.398437 c 0.539063,0 1.300782,-0.03516 2.074219,-0.292968 l -0.117187,-0.585938 c -0.5625,0.1875 -1.160157,0.246094 -1.628907,0.269531 v -2.367187 z m 3.855469,-0.667969 v 0.714844 h -1.675782 v 0.5625 h 4.066407 v -0.5625 h -1.664063 v -0.714844 z m 3.539062,-0.117187 v 0.597656 h 7.359375 v -0.597656 z m 0.996094,-3.832032 v 2.742188 h 5.519531 v -0.609375 h -4.78125 v -2.132813 z m -0.04687,5.25 v 2.367188 h 5.613281 v -0.609375 h -4.875 V 15.330945 Z M 104.6958,9.7762578 v 8.1210942 h 0.75 V 13.59657 h 1.32422 V 12.975477 H 105.4458 V 9.7762578 Z m -5.132816,0.7968752 v 5.308594 h 0.632816 c 1.52343,0 2.58984,-0.04687 3.84375,-0.269532 l -0.0937,-0.644531 c -1.1836,0.222656 -2.21485,0.28125 -3.64453,0.28125 v -4.066406 h 3.02343 v -0.609375 z m 8.692386,6.738281 c 0.32812,0 0.59765,-0.246094 0.59765,-0.621094 0,-0.375 -0.26953,-0.621093 -0.59765,-0.621093 -0.32813,0 -0.58594,0.246093 -0.58594,0.621093 0,0.375 0.25781,0.621094 0.58594,0.621094 z M 1.3247031,31.810437 V 34.9745 H 4.1020469 V 31.810437 H 3.4223594 v 0.960938 H 2.0278281 v -0.960938 z m 0.703125,1.535157 h 1.3945313 v 1.042968 H 2.0278281 Z m 3.9726563,-6.375 v 4.417968 H 6.7387656 V 29.466687 H 7.9340781 V 28.833875 H 6.7387656 v -1.863281 z m -5.17968752,0.492187 v 0.609375 H 3.7270469 C 3.6098594,29.372937 2.4497031,30.38075 0.46923438,30.861219 l 0.26953125,0.609375 C 3.1176719,30.884656 4.5473594,29.501844 4.5473594,27.462781 Z m 4.73437502,4.253906 v 0.679688 c 0,0.773437 -0.4570313,1.664062 -1.40625,2.085937 l 0.4101562,0.574219 c 0.6679688,-0.304687 1.1132813,-0.867187 1.359375,-1.488281 0.2460938,0.632812 0.6914063,1.183594 1.3476563,1.488281 L 7.6645469,34.482312 C 6.7387656,34.072156 6.2700156,33.169812 6.2700156,32.372937 v -0.65625 z m 9.0351561,-4.746093 v 8.121093 h 0.738281 v -8.121093 z m -3.539062,0.632812 c -1.1953129,0 -2.0625004,1.101563 -2.0625004,2.824219 0,1.734375 0.8671875,2.835937 2.0625004,2.835937 1.195312,0 2.0625,-1.101562 2.0625,-2.835937 0,-1.722656 -0.867188,-2.824219 -2.0625,-2.824219 z m 0,0.667969 c 0.796875,0 1.335937,0.84375 1.335937,2.15625 0,1.3125 -0.539062,2.167969 -1.335937,2.167969 -0.796875,0 -1.3359379,-0.855469 -1.3359379,-2.167969 0,-1.3125 0.5390629,-2.15625 1.3359379,-2.15625 z m 9.029297,1.253906 h 2.191406 v 1.476563 h -2.191406 z m 4.792968,-0.457031 v 1.148437 H 23.01025 V 29.06825 Z m -5.53125,-1.546875 V 31.5995 h 3.667969 v -0.773438 h 1.863281 v 2.15625 h 0.738282 v -6 h -0.738282 v 1.476563 H 23.01025 v -0.9375 h -0.738281 v 1.429687 h -2.191406 v -1.429687 z m 1.066407,4.875 v 2.507812 h 5.390625 v -0.609375 h -4.652344 v -1.898437 z m 9.172851,-2.847656 c -1.148437,0 -1.980469,0.773437 -1.980469,1.863281 0,1.101562 0.832032,1.863281 1.980469,1.863281 1.136719,0 1.96875,-0.761719 1.96875,-1.863281 0,-1.089844 -0.832031,-1.863281 -1.96875,-1.863281 z m 0,0.621093 c 0.726563,0 1.265625,0.515625 1.265625,1.242188 0,0.738281 -0.539062,1.242187 -1.265625,1.242187 -0.738281,0 -1.277344,-0.503906 -1.277344,-1.242187 0,-0.726563 0.539063,-1.242188 1.277344,-1.242188 z m 3.105469,-3.199218 v 8.121093 h 0.738281 v -4.160156 h 1.324219 v -0.621094 h -1.324219 v -3.339843 z m -3.492188,0.105468 v 1.195313 h -2.050781 v 0.609375 h 4.78125 v -0.609375 h -1.992187 v -1.195313 z m 12.152344,-0.105468 v 8.121093 h 0.75 V 26.970594 Z M 35.921383,27.8495 v 0.609375 h 3.035156 c -0.152344,1.933594 -1.242187,3.46875 -3.410156,4.511719 l 0.386719,0.597656 c 2.71875,-1.3125 3.773437,-3.375 3.773437,-5.71875 z m 15.670898,-0.878906 v 8.121093 h 0.738282 v -8.121093 z m -3.761718,0.703125 v 1.453125 c 0,1.546875 -0.960938,3.09375 -2.179688,3.65625 l 0.457031,0.621093 c 0.960938,-0.480468 1.734375,-1.5 2.109375,-2.71875 0.375,1.160157 1.160157,2.109375 2.074219,2.554688 l 0.445313,-0.585938 c -1.195313,-0.550781 -2.15625,-2.050781 -2.15625,-3.527343 v -1.453125 z m 7.136718,4.617187 v 0.609375 h 4.535157 v 2.191406 h 0.738281 V 32.290906 Z M 54.13525,27.544812 v 0.609375 h 1.816406 v 0.304688 c 0,1.160156 -0.820312,2.214844 -2.039062,2.636719 l 0.398437,0.574218 c 0.949219,-0.339843 1.675782,-1.042968 2.027344,-1.957031 0.339844,0.820313 1.03125,1.488281 1.945313,1.804688 l 0.375,-0.585938 C 57.463375,30.521375 56.689938,29.537 56.689938,28.458875 v -0.304688 h 1.792968 v -0.609375 z m 5.367188,-0.574218 v 4.886718 h 0.738281 v -2.121093 h 1.195312 v -0.632813 h -1.195312 v -2.132812 z m 5.085937,2.578125 c -1.148437,0 -1.980469,0.773437 -1.980469,1.863281 0,1.101562 0.832032,1.863281 1.980469,1.863281 1.136719,0 1.96875,-0.761719 1.96875,-1.863281 0,-1.089844 -0.832031,-1.863281 -1.96875,-1.863281 z m 0,0.621093 c 0.726563,0 1.265625,0.515625 1.265625,1.242188 0,0.738281 -0.539062,1.242187 -1.265625,1.242187 -0.738281,0 -1.277344,-0.503906 -1.277344,-1.242187 0,-0.726563 0.539063,-1.242188 1.277344,-1.242188 z m 3.105469,-3.199218 v 8.121093 h 0.738281 v -4.160156 h 1.324219 v -0.621094 h -1.324219 v -3.339843 z m -3.492188,0.105468 v 1.195313 h -2.050781 v 0.609375 h 4.78125 v -0.609375 h -1.992187 v -1.195313 z m 6.231446,4.03125 v 0.597657 h 7.359375 v -0.597657 z m 0.996093,-3.832031 v 2.742188 h 5.519532 v -0.609375 h -4.78125 v -2.132813 z m -0.04687,5.25 v 2.367188 h 5.613282 v -0.609375 h -4.875 v -1.757813 z m 11.970703,-5.167969 c -1.207031,0 -2.0625,0.679688 -2.0625,1.675782 0,0.984375 0.855469,1.664062 2.0625,1.664062 1.207032,0 2.074219,-0.679687 2.074219,-1.664062 0,-0.996094 -0.867187,-1.675782 -2.074219,-1.675782 z m 0,0.609375 c 0.796875,0 1.359375,0.433594 1.359375,1.066407 0,0.621093 -0.5625,1.042968 -1.359375,1.042968 -0.785156,0 -1.347656,-0.421875 -1.347656,-1.042968 0,-0.632813 0.5625,-1.066407 1.347656,-1.066407 z m 3.257813,-0.984375 v 8.109375 h 0.738281 v -8.109375 z m -5.824219,5.027344 c 0.667969,0 1.441406,-0.01172 2.238281,-0.04687 v 2.871094 h 0.75 v -2.917969 c 0.773438,-0.05859 1.546875,-0.140625 2.308594,-0.28125 l -0.04687,-0.550781 c -1.78125,0.269531 -3.84375,0.292969 -5.34375,0.292969 z m 14.059571,-5.039062 v 8.121093 h 0.738281 v -8.121093 z m -3.65625,0.152343 v 1.253907 h -1.863282 v 0.609375 h 1.875 v 0.609375 c 0,1.417968 -0.890625,2.789062 -2.097656,3.351562 l 0.410156,0.574219 c 0.949219,-0.445313 1.710938,-1.371094 2.0625,-2.507813 0.386719,1.066407 1.148438,1.945313 2.074219,2.367188 l 0.410156,-0.574219 C 92.854,32.267469 91.939938,30.954969 91.939938,29.595594 V 28.986219 H 93.7915 v -0.609375 h -1.851562 v -1.253907 z m 6.351562,0.585938 v 3.75 h 3.726565 v -3.75 z m 3.000005,0.597656 v 2.554688 h -2.273442 v -2.554688 z m 2.21484,-1.335937 v 5.953125 h 0.73829 v -2.859375 h 1.19531 V 29.44325 h -1.19531 V 26.970594 Z M 98.455563,32.3495 v 2.554687 h 5.402347 V 34.294812 H 99.182125 V 32.3495 Z m 9.670897,-1.382813 v 0.609375 h 1.37109 v 1.921875 h -2.03906 v 0.609375 h 7.35938 v -0.609375 h -2.08594 v -1.921875 h 1.37109 v -0.609375 h -1.24218 v -2.625 h 1.26562 v -0.609375 h -6.02344 v 0.609375 h 1.25391 v 2.625 z m 2.10938,2.53125 v -1.921875 h 1.75781 v 1.921875 z m -0.12891,-5.15625 h 2.01562 v 2.625 h -2.01562 z m 11.49609,-1.371093 v 8.121093 h 0.73828 v -8.121093 z m -3.76172,0.703125 v 1.453125 c 0,1.546875 -0.96093,3.09375 -2.17968,3.65625 l 0.45703,0.621093 c 0.96094,-0.480468 1.73437,-1.5 2.10937,-2.71875 0.375,1.160157 1.16016,2.109375 2.07422,2.554688 l 0.44531,-0.585938 c -1.19531,-0.550781 -2.15625,-2.050781 -2.15625,-3.527343 v -1.453125 z m 8.53125,1.335937 c -1.16015,0 -1.94531,0.597656 -1.94531,1.511719 0,0.914062 0.78516,1.511719 1.94531,1.511719 1.14844,0 1.9336,-0.597657 1.9336,-1.511719 0,-0.914063 -0.78516,-1.511719 -1.9336,-1.511719 z m 0,0.585938 c 0.73829,0 1.23047,0.363281 1.23047,0.925781 0,0.5625 -0.49218,0.925781 -1.23047,0.925781 -0.73828,0 -1.23046,-0.363281 -1.23046,-0.925781 0,-0.5625 0.49218,-0.925781 1.23046,-0.925781 z m 3.14063,-2.613282 v 6.082032 h 0.73828 v -2.800782 h 1.19531 v -0.621093 h -1.19531 v -2.660157 z m -3.50391,0 v 0.984375 h -2.02734 v 0.609375 h 4.78125 v -0.609375 h -2.01563 v -0.984375 z m -0.79687,5.589844 v 2.332031 h 5.40234 v -0.609375 h -4.67578 v -1.722656 z m 12.47754,-5.601562 v 8.121093 h 0.75 v -4.300781 h 1.32422 v -0.621094 h -1.32422 v -3.199218 z m -5.13281,0.796875 v 5.308593 h 0.63281 c 1.52344,0 2.58984,-0.04687 3.84375,-0.269531 L 136.93994,32.162 c -1.1836,0.222656 -2.21485,0.28125 -3.64453,0.28125 v -4.066406 h 3.02343 v -0.609375 z m 8.69531,6.738281 c 0.32812,0 0.59765,-0.246094 0.59765,-0.621094 0,-0.375 -0.26953,-0.621094 -0.59765,-0.621094 -0.32813,0 -0.58594,0.246094 -0.58594,0.621094 0,0.375 0.25781,0.621094 0.58594,0.621094 z m 0,0"
       style="fill:#000000;fill-opacity:1;fill-rule:nonzero;stroke:none"
       aria-label="여섯위치에변화량을기록한다.&#10;실제값을직접채우지않는다.&#10;값이변하기시작하는위치만표시한다."
       transform="matrix(1.3333333,0,0,1.3333333,319.69467,126.61733)" />
  </g>
</svg>
