<?xml version="1.0" encoding="UTF-8" standalone="no"?>
<!-- Created with Inkscape (http://www.inkscape.org/) -->

<svg
   version="1.1"
   id="svg1"
   width="527.71997"
   height="270.06668"
   viewBox="0 0 527.71997 270.06668"
   sodipodi:docname="6.pdf"
   xmlns:inkscape="http://www.inkscape.org/namespaces/inkscape"
   xmlns:sodipodi="http://sodipodi.sourceforge.net/DTD/sodipodi-0.dtd"
   xmlns="http://www.w3.org/2000/svg"
   xmlns:svg="http://www.w3.org/2000/svg">
  <defs
     id="defs1" />
  <sodipodi:namedview
     id="namedview1"
     pagecolor="#ffffff"
     bordercolor="#000000"
     borderopacity="0.25"
     inkscape:showpageshadow="2"
     inkscape:pageopacity="0.0"
     inkscape:pagecheckerboard="0"
     inkscape:deskcolor="#d1d1d1">
    <inkscape:page
       x="0"
       y="0"
       inkscape:label="1"
       id="page1"
       width="527.71997"
       height="270.06668"
       margin="0"
       bleed="0" />
  </sodipodi:namedview>
  <g
     id="g1"
     inkscape:groupmode="layer"
     inkscape:label="1">
    <path
       id="path1"
       d="M -12.04738,-12.04738 H 12.04738 V 12.04738 H -12.04738 Z"
       style="fill:#ffffff;fill-opacity:1;fill-rule:nonzero;stroke:#666666;stroke-width:0.49814;stroke-linecap:butt;stroke-linejoin:miter;stroke-miterlimit:10;stroke-dasharray:none;stroke-opacity:1"
       transform="matrix(1.3333333,0,0,-1.3333333,58.638667,69.188)" />
    <path
       id="path2"
       d="M 14.03162,-12.04738 H 38.12638 V 12.04738 H 14.03162 Z"
       style="fill:#ffffff;fill-opacity:1;fill-rule:nonzero;stroke:#666666;stroke-width:0.49814;stroke-linecap:butt;stroke-linejoin:miter;stroke-miterlimit:10;stroke-dasharray:none;stroke-opacity:1"
       transform="matrix(1.3333333,0,0,-1.3333333,58.638667,69.188)" />
    <path
       id="path3"
       d="M 40.11063,-12.04738 H 64.20539 V 12.04738 H 40.11063 Z"
       style="fill:#ffffff;fill-opacity:1;fill-rule:nonzero;stroke:#666666;stroke-width:0.49814;stroke-linecap:butt;stroke-linejoin:miter;stroke-miterlimit:10;stroke-dasharray:none;stroke-opacity:1"
       transform="matrix(1.3333333,0,0,-1.3333333,58.638667,69.188)" />
    <path
       id="path4"
       d="M 66.18964,-12.04738 H 90.2844 V 12.04738 H 66.18964 Z"
       style="fill:#ffffff;fill-opacity:1;fill-rule:nonzero;stroke:#666666;stroke-width:0.49814;stroke-linecap:butt;stroke-linejoin:miter;stroke-miterlimit:10;stroke-dasharray:none;stroke-opacity:1"
       transform="matrix(1.3333333,0,0,-1.3333333,58.638667,69.188)" />
    <path
       id="path5"
       d="m 92.26866,-12.04738 h 24.09476 V 12.04738 H 92.26866 Z"
       style="fill:#ffffff;fill-opacity:1;fill-rule:nonzero;stroke:#666666;stroke-width:0.49814;stroke-linecap:butt;stroke-linejoin:miter;stroke-miterlimit:10;stroke-dasharray:none;stroke-opacity:1"
       transform="matrix(1.3333333,0,0,-1.3333333,58.638667,69.188)" />
    <path
       id="path6"
       d="m 118.34767,-12.04738 h 24.09476 v 24.09476 h -24.09476 z"
       style="fill:#ffffff;fill-opacity:1;fill-rule:nonzero;stroke:#666666;stroke-width:0.49814;stroke-linecap:butt;stroke-linejoin:miter;stroke-miterlimit:10;stroke-dasharray:none;stroke-opacity:1"
       transform="matrix(1.3333333,0,0,-1.3333333,58.638667,69.188)" />
    <path
       id="path7"
       d="m -12.04738,-38.12639 h 24.09476 v 24.09476 h -24.09476 z"
       style="fill:#ffffff;fill-opacity:1;fill-rule:nonzero;stroke:#666666;stroke-width:0.49814;stroke-linecap:butt;stroke-linejoin:miter;stroke-miterlimit:10;stroke-dasharray:none;stroke-opacity:1"
       transform="matrix(1.3333333,0,0,-1.3333333,58.638667,69.188)" />
    <path
       id="path8"
       d="m 14.03162,-38.12639 h 24.09476 v 24.09476 H 14.03162 Z"
       style="fill:#ffffff;fill-opacity:1;fill-rule:nonzero;stroke:#666666;stroke-width:0.49814;stroke-linecap:butt;stroke-linejoin:miter;stroke-miterlimit:10;stroke-dasharray:none;stroke-opacity:1"
       transform="matrix(1.3333333,0,0,-1.3333333,58.638667,69.188)" />
    <path
       id="path9"
       d="m 40.11063,-38.12639 h 24.09476 v 24.09476 H 40.11063 Z"
       style="fill:#ffffff;fill-opacity:1;fill-rule:nonzero;stroke:#666666;stroke-width:0.49814;stroke-linecap:butt;stroke-linejoin:miter;stroke-miterlimit:10;stroke-dasharray:none;stroke-opacity:1"
       transform="matrix(1.3333333,0,0,-1.3333333,58.638667,69.188)" />
    <path
       id="path10"
       d="M 66.18964,-38.12639 H 90.2844 v 24.09476 H 66.18964 Z"
       style="fill:#ffffff;fill-opacity:1;fill-rule:nonzero;stroke:#666666;stroke-width:0.49814;stroke-linecap:butt;stroke-linejoin:miter;stroke-miterlimit:10;stroke-dasharray:none;stroke-opacity:1"
       transform="matrix(1.3333333,0,0,-1.3333333,58.638667,69.188)" />
    <path
       id="path11"
       d="m 92.26866,-38.12639 h 24.09476 v 24.09476 H 92.26866 Z"
       style="fill:#ffffff;fill-opacity:1;fill-rule:nonzero;stroke:#666666;stroke-width:0.49814;stroke-linecap:butt;stroke-linejoin:miter;stroke-miterlimit:10;stroke-dasharray:none;stroke-opacity:1"
       transform="matrix(1.3333333,0,0,-1.3333333,58.638667,69.188)" />
    <path
       id="path12"
       d="m 118.34767,-38.12639 h 24.09476 v 24.09476 h -24.09476 z"
       style="fill:#ffffff;fill-opacity:1;fill-rule:nonzero;stroke:#666666;stroke-width:0.49814;stroke-linecap:butt;stroke-linejoin:miter;stroke-miterlimit:10;stroke-dasharray:none;stroke-opacity:1"
       transform="matrix(1.3333333,0,0,-1.3333333,58.638667,69.188)" />
    <path
       id="path13"
       d="m -12.04738,-64.2054 h 24.09476 v 24.09476 h -24.09476 z"
       style="fill:#ffffff;fill-opacity:1;fill-rule:nonzero;stroke:#666666;stroke-width:0.49814;stroke-linecap:butt;stroke-linejoin:miter;stroke-miterlimit:10;stroke-dasharray:none;stroke-opacity:1"
       transform="matrix(1.3333333,0,0,-1.3333333,58.638667,69.188)" />
    <path
       id="path14"
       d="m 14.03162,-64.2054 h 24.09476 v 24.09476 H 14.03162 Z"
       style="fill:#ffffff;fill-opacity:1;fill-rule:nonzero;stroke:#666666;stroke-width:0.49814;stroke-linecap:butt;stroke-linejoin:miter;stroke-miterlimit:10;stroke-dasharray:none;stroke-opacity:1"
       transform="matrix(1.3333333,0,0,-1.3333333,58.638667,69.188)" />
    <path
       id="path15"
       d="m 40.11063,-64.2054 h 24.09476 v 24.09476 H 40.11063 Z"
       style="fill:#ffffff;fill-opacity:1;fill-rule:nonzero;stroke:#666666;stroke-width:0.49814;stroke-linecap:butt;stroke-linejoin:miter;stroke-miterlimit:10;stroke-dasharray:none;stroke-opacity:1"
       transform="matrix(1.3333333,0,0,-1.3333333,58.638667,69.188)" />
    <path
       id="path16"
       d="M 66.18964,-64.2054 H 90.2844 v 24.09476 H 66.18964 Z"
       style="fill:#ffffff;fill-opacity:1;fill-rule:nonzero;stroke:#666666;stroke-width:0.49814;stroke-linecap:butt;stroke-linejoin:miter;stroke-miterlimit:10;stroke-dasharray:none;stroke-opacity:1"
       transform="matrix(1.3333333,0,0,-1.3333333,58.638667,69.188)" />
    <path
       id="path17"
       d="m 92.26866,-64.2054 h 24.09476 v 24.09476 H 92.26866 Z"
       style="fill:#ffffff;fill-opacity:1;fill-rule:nonzero;stroke:#666666;stroke-width:0.49814;stroke-linecap:butt;stroke-linejoin:miter;stroke-miterlimit:10;stroke-dasharray:none;stroke-opacity:1"
       transform="matrix(1.3333333,0,0,-1.3333333,58.638667,69.188)" />
    <path
       id="path18"
       d="m 118.34767,-64.2054 h 24.09476 v 24.09476 h -24.09476 z"
       style="fill:#ffffff;fill-opacity:1;fill-rule:nonzero;stroke:#666666;stroke-width:0.49814;stroke-linecap:butt;stroke-linejoin:miter;stroke-miterlimit:10;stroke-dasharray:none;stroke-opacity:1"
       transform="matrix(1.3333333,0,0,-1.3333333,58.638667,69.188)" />
    <path
       id="path19"
       d="m -12.04738,-90.28441 h 24.09476 v 24.09476 h -24.09476 z"
       style="fill:#ffffff;fill-opacity:1;fill-rule:nonzero;stroke:#666666;stroke-width:0.49814;stroke-linecap:butt;stroke-linejoin:miter;stroke-miterlimit:10;stroke-dasharray:none;stroke-opacity:1"
       transform="matrix(1.3333333,0,0,-1.3333333,58.638667,69.188)" />
    <path
       id="path20"
       d="m 14.03162,-90.28441 h 24.09476 v 24.09476 H 14.03162 Z"
       style="fill:#ffffff;fill-opacity:1;fill-rule:nonzero;stroke:#666666;stroke-width:0.49814;stroke-linecap:butt;stroke-linejoin:miter;stroke-miterlimit:10;stroke-dasharray:none;stroke-opacity:1"
       transform="matrix(1.3333333,0,0,-1.3333333,58.638667,69.188)" />
    <path
       id="path21"
       d="m 40.11063,-90.28441 h 24.09476 v 24.09476 H 40.11063 Z"
       style="fill:#ffffff;fill-opacity:1;fill-rule:nonzero;stroke:#666666;stroke-width:0.49814;stroke-linecap:butt;stroke-linejoin:miter;stroke-miterlimit:10;stroke-dasharray:none;stroke-opacity:1"
       transform="matrix(1.3333333,0,0,-1.3333333,58.638667,69.188)" />
    <path
       id="path22"
       d="M 66.18964,-90.28441 H 90.2844 v 24.09476 H 66.18964 Z"
       style="fill:#ffffff;fill-opacity:1;fill-rule:nonzero;stroke:#666666;stroke-width:0.49814;stroke-linecap:butt;stroke-linejoin:miter;stroke-miterlimit:10;stroke-dasharray:none;stroke-opacity:1"
       transform="matrix(1.3333333,0,0,-1.3333333,58.638667,69.188)" />
    <path
       id="path23"
       d="m 92.26866,-90.28441 h 24.09476 v 24.09476 H 92.26866 Z"
       style="fill:#ffffff;fill-opacity:1;fill-rule:nonzero;stroke:#666666;stroke-width:0.49814;stroke-linecap:butt;stroke-linejoin:miter;stroke-miterlimit:10;stroke-dasharray:none;stroke-opacity:1"
       transform="matrix(1.3333333,0,0,-1.3333333,58.638667,69.188)" />
    <path
       id="path24"
       d="m 118.34767,-90.28441 h 24.09476 v 24.09476 h -24.09476 z"
       style="fill:#ffffff;fill-opacity:1;fill-rule:nonzero;stroke:#666666;stroke-width:0.49814;stroke-linecap:butt;stroke-linejoin:miter;stroke-miterlimit:10;stroke-dasharray:none;stroke-opacity:1"
       transform="matrix(1.3333333,0,0,-1.3333333,58.638667,69.188)" />
    <path
       id="path25"
       d="m -12.04738,-116.36343 h 24.09476 v 24.09476 h -24.09476 z"
       style="fill:#ffffff;fill-opacity:1;fill-rule:nonzero;stroke:#666666;stroke-width:0.49814;stroke-linecap:butt;stroke-linejoin:miter;stroke-miterlimit:10;stroke-dasharray:none;stroke-opacity:1"
       transform="matrix(1.3333333,0,0,-1.3333333,58.638667,69.188)" />
    <path
       id="path26"
       d="m 14.03162,-116.36343 h 24.09476 v 24.09476 H 14.03162 Z"
       style="fill:#ffffff;fill-opacity:1;fill-rule:nonzero;stroke:#666666;stroke-width:0.49814;stroke-linecap:butt;stroke-linejoin:miter;stroke-miterlimit:10;stroke-dasharray:none;stroke-opacity:1"
       transform="matrix(1.3333333,0,0,-1.3333333,58.638667,69.188)" />
    <path
       id="path27"
       d="m 40.11063,-116.36343 h 24.09476 v 24.09476 H 40.11063 Z"
       style="fill:#ffffff;fill-opacity:1;fill-rule:nonzero;stroke:#666666;stroke-width:0.49814;stroke-linecap:butt;stroke-linejoin:miter;stroke-miterlimit:10;stroke-dasharray:none;stroke-opacity:1"
       transform="matrix(1.3333333,0,0,-1.3333333,58.638667,69.188)" />
    <path
       id="path28"
       d="M 66.18964,-116.36343 H 90.2844 v 24.09476 H 66.18964 Z"
       style="fill:#ffffff;fill-opacity:1;fill-rule:nonzero;stroke:#666666;stroke-width:0.49814;stroke-linecap:butt;stroke-linejoin:miter;stroke-miterlimit:10;stroke-dasharray:none;stroke-opacity:1"
       transform="matrix(1.3333333,0,0,-1.3333333,58.638667,69.188)" />
    <path
       id="path29"
       d="m 92.26866,-116.36343 h 24.09476 v 24.09476 H 92.26866 Z"
       style="fill:#ffffff;fill-opacity:1;fill-rule:nonzero;stroke:#666666;stroke-width:0.49814;stroke-linecap:butt;stroke-linejoin:miter;stroke-miterlimit:10;stroke-dasharray:none;stroke-opacity:1"
       transform="matrix(1.3333333,0,0,-1.3333333,58.638667,69.188)" />
    <path
       id="path30"
       d="m 118.34767,-116.36343 h 24.09476 v 24.09476 h -24.09476 z"
       style="fill:#ffffff;fill-opacity:1;fill-rule:nonzero;stroke:#666666;stroke-width:0.49814;stroke-linecap:butt;stroke-linejoin:miter;stroke-miterlimit:10;stroke-dasharray:none;stroke-opacity:1"
       transform="matrix(1.3333333,0,0,-1.3333333,58.638667,69.188)" />
    <path
       id="path31"
       d="m -12.04738,-142.44244 h 24.09476 v 24.09476 h -24.09476 z"
       style="fill:#ffffff;fill-opacity:1;fill-rule:nonzero;stroke:#666666;stroke-width:0.49814;stroke-linecap:butt;stroke-linejoin:miter;stroke-miterlimit:10;stroke-dasharray:none;stroke-opacity:1"
       transform="matrix(1.3333333,0,0,-1.3333333,58.638667,69.188)" />
    <path
       id="path32"
       d="m 14.03162,-142.44244 h 24.09476 v 24.09476 H 14.03162 Z"
       style="fill:#ffffff;fill-opacity:1;fill-rule:nonzero;stroke:#666666;stroke-width:0.49814;stroke-linecap:butt;stroke-linejoin:miter;stroke-miterlimit:10;stroke-dasharray:none;stroke-opacity:1"
       transform="matrix(1.3333333,0,0,-1.3333333,58.638667,69.188)" />
    <path
       id="path33"
       d="m 40.11063,-142.44244 h 24.09476 v 24.09476 H 40.11063 Z"
       style="fill:#ffffff;fill-opacity:1;fill-rule:nonzero;stroke:#666666;stroke-width:0.49814;stroke-linecap:butt;stroke-linejoin:miter;stroke-miterlimit:10;stroke-dasharray:none;stroke-opacity:1"
       transform="matrix(1.3333333,0,0,-1.3333333,58.638667,69.188)" />
    <path
       id="path34"
       d="M 66.18964,-142.44244 H 90.2844 v 24.09476 H 66.18964 Z"
       style="fill:#ffffff;fill-opacity:1;fill-rule:nonzero;stroke:#666666;stroke-width:0.49814;stroke-linecap:butt;stroke-linejoin:miter;stroke-miterlimit:10;stroke-dasharray:none;stroke-opacity:1"
       transform="matrix(1.3333333,0,0,-1.3333333,58.638667,69.188)" />
    <path
       id="path35"
       d="m 92.26866,-142.44244 h 24.09476 v 24.09476 H 92.26866 Z"
       style="fill:#ffffff;fill-opacity:1;fill-rule:nonzero;stroke:#666666;stroke-width:0.49814;stroke-linecap:butt;stroke-linejoin:miter;stroke-miterlimit:10;stroke-dasharray:none;stroke-opacity:1"
       transform="matrix(1.3333333,0,0,-1.3333333,58.638667,69.188)" />
    <path
       id="path36"
       d="m 118.34767,-142.44244 h 24.09476 v 24.09476 h -24.09476 z"
       style="fill:#ffffff;fill-opacity:1;fill-rule:nonzero;stroke:#666666;stroke-width:0.49814;stroke-linecap:butt;stroke-linejoin:miter;stroke-miterlimit:10;stroke-dasharray:none;stroke-opacity:1"
       transform="matrix(1.3333333,0,0,-1.3333333,58.638667,69.188)" />
    <path
       id="path37"
       d="m 1.9335391,0.09448438 c 0.9960937,0 1.59375,-0.92578125 1.59375,-2.60156248 0,-1.6523438 -0.5976563,-2.5546875 -1.59375,-2.5546875 -0.99609379,0 -1.58203129,0.890625 -1.58203129,2.5546875 0,1.67578123 0.5859375,2.60156248 1.58203129,2.60156248 z m 0,-0.515625 c -0.5742188,0 -0.97265629,-0.62109378 -0.97265629,-2.08593748 0,-1.453125 0.39843749,-2.0507813 0.97265629,-2.0507813 0.5859375,0 0.984375,0.5976563 0.984375,2.0507813 0,1.4648437 -0.3984375,2.08593748 -0.984375,2.08593748 z m 0,0"
       style="fill:#666666;fill-opacity:1;fill-rule:nonzero;stroke:none"
       aria-label="0"
       transform="matrix(1.3333333,0,0,1.3333333,56.058667,49.069333)" />
    <path
       id="path38"
       d="M 0.61039844,7.34375e-4 H 3.4228984 V -0.52660937 h -1.03125 V -4.9680156 H 1.8994609 c -0.2695312,0.1640625 -0.5976562,0.28125 -1.05468746,0.3632812 v 0.4101563 H 1.7588359 v 3.66796873 H 0.61039844 Z m 0,0"
       style="fill:#666666;fill-opacity:1;fill-rule:nonzero;stroke:none"
       aria-label="1"
       transform="matrix(1.3333333,0,0,1.3333333,90.830667,49.069333)" />
    <path
       id="path39"
       d="M 0.30385938,-0.00132031 H 3.5147969 V -0.55210156 H 2.0733906 c -0.2578125,0 -0.5625,0.0234375 -0.8320312,0.046875 1.171875,-1.23046874 2.0390625,-2.16796874 2.0390625,-3.10546874 0,-0.8789063 -0.5859375,-1.453125 -1.5,-1.453125 -0.6445313,0 -1.08984377,0.2929687 -1.50000002,0.75 l 0.36328125,0.3632812 c 0.29296875,-0.328125 0.64453127,-0.5976562 1.06640627,-0.5976562 0.6328125,0 0.9375,0.4101562 0.9375,0.9726562 0,0.8085938 -0.84375,1.7109375 -2.34375002,3.19921879 z m 0,0"
       style="fill:#666666;fill-opacity:1;fill-rule:nonzero;stroke:none"
       aria-label="2"
       transform="matrix(1.3333333,0,0,1.3333333,125.60267,49.130667)" />
    <path
       id="path40"
       d="m 1.828375,0.09448438 c 0.9140625,0 1.6523438,-0.52734375 1.6523438,-1.41796878 0,-0.6796875 -0.4804688,-1.125 -1.078125,-1.265625 v -0.035156 c 0.5273437,-0.1875 0.9023437,-0.5742188 0.9023437,-1.1835938 0,-0.796875 -0.6328125,-1.2539062 -1.4882812,-1.2539062 -0.5859375,0 -1.0429688,0.2695312 -1.42968755,0.6210937 l 0.33984375,0.3984375 c 0.2929688,-0.2929687 0.65625,-0.5039062 1.0664063,-0.5039062 0.5390625,0 0.8671875,0.3046875 0.8671875,0.7851562 0,0.5273438 -0.3632813,0.9257813 -1.4179688,0.9257813 v 0.5039062 c 1.1835938,0 1.59375,0.3867188 1.59375,0.984375 0,0.56250003 -0.4335937,0.91406253 -1.0429687,0.91406253 -0.5742188,0 -0.96093755,-0.28125 -1.26562505,-0.58593753 l -0.328125,0.41015628 c 0.33984375,0.36328125 0.84375005,0.703125 1.62890625,0.7031248 z m 0,0"
       style="fill:#666666;fill-opacity:1;fill-rule:nonzero;stroke:none"
       aria-label="3"
       transform="matrix(1.3333333,0,0,1.3333333,160.37467,49.069333)" />
    <path
       id="path41"
       d="M 2.3685156,7.34375e-4 H 2.9661719 V -1.3703594 h 0.6914062 v -0.515625 H 2.9661719 v -3.0820312 h -0.703125 l -2.12109377,3.1757812 v 0.421875 H 2.3685156 Z m 0,-1.886718775 H 0.79820313 L 1.9700781,-3.5852031 c 0.140625,-0.2460938 0.28125,-0.46875 0.4101563,-0.703125 h 0.023437 c -0.011719,0.2578125 -0.035156,0.703125 -0.035156,0.9492187 z m 0,0"
       style="fill:#666666;fill-opacity:1;fill-rule:nonzero;stroke:none"
       aria-label="4"
       transform="matrix(1.3333333,0,0,1.3333333,195.14667,49.069333)" />
    <path
       id="path42"
       d="m 1.8276016,0.09260938 c 0.8554687,0 1.6757812,-0.609375 1.6757812,-1.68749998 0,-1.0664063 -0.703125,-1.546875 -1.546875,-1.546875 -0.3046875,0 -0.5390625,0.070312 -0.7617187,0.1992187 l 0.1289062,-1.4765625 h 1.921875 V -4.9698906 H 0.76119531 l -0.1640625,2.390625 0.33984375,0.2109375 c 0.29296874,-0.1875 0.51562504,-0.3046875 0.85546874,-0.3046875 0.6445313,0 1.0546875,0.4101562 1.0546875,1.1015625 0,0.69140623 -0.4804687,1.13671873 -1.078125,1.13671873 -0.5976562,0 -0.97265624,-0.28125 -1.26562499,-0.57421873 l -0.31640625,0.42187498 c 0.3515625,0.33984375 0.83203124,0.6796875 1.64062504,0.6796875 z m 0,0"
       style="fill:#666666;fill-opacity:1;fill-rule:nonzero;stroke:none"
       aria-label="5"
       transform="matrix(1.3333333,0,0,1.3333333,229.91867,49.009333)" />
    <path
       id="path43"
       d="m 1.9333438,0.09467969 c 0.9960937,0 1.59375,-0.92578125 1.59375,-2.60156249 0,-1.6523438 -0.5976563,-2.5546875 -1.59375,-2.5546875 -0.9960938,0 -1.5820313,0.890625 -1.5820313,2.5546875 0,1.67578124 0.5859375,2.60156249 1.5820313,2.60156249 z m 0,-0.515625 c -0.5742188,0 -0.9726563,-0.62109379 -0.9726563,-2.08593749 0,-1.453125 0.3984375,-2.0507813 0.9726563,-2.0507813 0.5859375,0 0.984375,0.5976563 0.984375,2.0507813 0,1.4648437 -0.3984375,2.08593749 -0.984375,2.08593749 z m 0,0"
       style="fill:#666666;fill-opacity:1;fill-rule:nonzero;stroke:none"
       aria-label="0"
       transform="matrix(1.3333333,0,0,1.3333333,32.625333,72.502667)" />
    <path
       id="path44"
       d="m 0.609125,-9.21875e-4 h 2.8125 V -0.52826562 H 2.390375 V -4.9696719 H 1.8981875 C 1.6286563,-4.8056094 1.3005313,-4.6884219 0.8435,-4.6063906 v 0.4101562 h 0.9140625 v 3.66796878 H 0.609125 Z m 0,0"
       style="fill:#666666;fill-opacity:1;fill-rule:nonzero;stroke:none"
       aria-label="1"
       transform="matrix(1.3333333,0,0,1.3333333,32.625333,107.27467)" />
    <path
       id="path45"
       d="M 0.3044375,0.00103125 H 3.515375 V -0.54975 H 2.0739688 c -0.2578125,0 -0.5625,0.0234375 -0.8320313,0.046875 C 2.4138125,-1.7333437 3.281,-2.6708437 3.281,-3.6083437 c 0,-0.8789063 -0.5859375,-1.453125 -1.5,-1.453125 -0.6445312,0 -1.08984375,0.2929687 -1.5,0.75 l 0.36328125,0.3632812 C 0.93725,-4.2763125 1.2888125,-4.5458437 1.7106875,-4.5458437 c 0.6328125,0 0.9375,0.4101562 0.9375,0.9726562 0,0.8085938 -0.84375,1.7109375 -2.34375,3.19921875 z m 0,0"
       style="fill:#666666;fill-opacity:1;fill-rule:nonzero;stroke:none"
       aria-label="2"
       transform="matrix(1.3333333,0,0,1.3333333,32.625333,142.108)" />
    <path
       id="path46"
       d="m 1.827875,0.09498438 c 0.9140625,0 1.6523438,-0.52734375 1.6523438,-1.41796878 0,-0.6796875 -0.4804688,-1.125 -1.078125,-1.265625 v -0.035156 c 0.5273437,-0.1875 0.9023437,-0.5742188 0.9023437,-1.1835938 0,-0.796875 -0.6328125,-1.2539062 -1.4882812,-1.2539062 -0.5859375,0 -1.0429688,0.2695312 -1.42968755,0.6210937 l 0.33984375,0.3984375 c 0.2929688,-0.2929687 0.65625,-0.5039062 1.0664063,-0.5039062 0.5390625,0 0.8671875,0.3046875 0.8671875,0.7851562 0,0.5273438 -0.3632813,0.9257813 -1.4179688,0.9257813 v 0.5039062 c 1.1835938,0 1.59375,0.3867188 1.59375,0.984375 0,0.56250003 -0.4335937,0.91406253 -1.0429687,0.91406253 -0.5742188,0 -0.96093755,-0.28125 -1.26562505,-0.58593753 l -0.328125,0.41015628 c 0.33984375,0.36328125 0.84375005,0.703125 1.62890625,0.7031248 z m 0,0"
       style="fill:#666666;fill-opacity:1;fill-rule:nonzero;stroke:none"
       aria-label="3"
       transform="matrix(1.3333333,0,0,1.3333333,32.625333,176.81867)" />
    <path
       id="path47"
       d="M 2.3669375,-6.171875e-4 H 2.9645938 V -1.3717109 H 3.656 v -0.515625 H 2.9645938 V -4.9693672 H 2.2614688 L 0.140375,-1.7935859 v 0.421875 h 2.2265625 z m 0,-1.8867187125 H 0.796625 L 1.9685,-3.5865547 c 0.140625,-0.2460937 0.28125,-0.46875 0.4101563,-0.703125 h 0.023437 c -0.011719,0.2578125 -0.035156,0.703125 -0.035156,0.9492188 z m 0,0"
       style="fill:#666666;fill-opacity:1;fill-rule:nonzero;stroke:none"
       aria-label="4"
       transform="matrix(1.3333333,0,0,1.3333333,32.625333,211.59067)" />
    <path
       id="path48"
       d="m 1.827875,0.09233594 c 0.8554688,0 1.6757813,-0.609375 1.6757813,-1.68750004 0,-1.0664062 -0.703125,-1.546875 -1.546875,-1.546875 -0.3046875,0 -0.5390625,0.070312 -0.7617188,0.1992188 l 0.1289063,-1.4765625 h 1.921875 V -4.9701641 H 0.76146875 l -0.1640625,2.390625 0.33984375,0.2109375 c 0.2929688,-0.1875 0.515625,-0.3046875 0.8554688,-0.3046875 0.6445312,0 1.0546875,0.4101563 1.0546875,1.1015625 0,0.69140629 -0.4804688,1.13671879 -1.078125,1.13671879 -0.5976563,0 -0.9726563,-0.28125 -1.26562505,-0.57421879 L 0.18725,-0.58735156 c 0.3515625,0.33984375 0.8320313,0.6796875 1.640625,0.6796875 z m 0,0"
       style="fill:#666666;fill-opacity:1;fill-rule:nonzero;stroke:none"
       aria-label="5"
       transform="matrix(1.3333333,0,0,1.3333333,32.625333,246.30267)" />
    <path
       id="path49"
       d="m 2.0749453,-5.0735625 c 0.609375,0 1.0664063,0.3984375 1.0664063,0.9609375 0,0.5625 -0.4570313,0.9609375 -1.0664063,0.9609375 -0.6210937,0 -1.07812499,-0.3984375 -1.07812499,-0.9609375 0,-0.5625 0.45703129,-0.9609375 1.07812499,-0.9609375 z m 1.546875,0.5273438 h 1.3359375 v 0.84375 H 3.6335391 C 3.6686953,-3.831375 3.6921328,-3.972 3.6921328,-4.112625 c 0,-0.1523437 -0.023437,-0.3046875 -0.070312,-0.4335937 z m 1.3359375,-1.21875 V -5.00325 h -1.59375 c -0.28125,-0.3398437 -0.7382812,-0.5507812 -1.2890625,-0.5507812 -0.9492187,0 -1.62890624,0.5859375 -1.62890624,1.4414062 0,0.84375 0.67968754,1.4414063 1.62890624,1.4414063 0.5507813,0 1.03125,-0.2109375 1.3125,-0.5742188 h 1.5703125 v 0.703125 h 0.5742188 v -3.2226562 z m -3.46875,5.7539062 v 0.46875 h 4.2773438 v -0.46875 H 2.0632266 V -0.69075 h 3.46875 V -2.2141875 H 1.4772891 v 0.46875 h 3.4804687 v 0.6210938 h -3.46875 z m 0,0"
       style="fill:#595959;fill-opacity:1;fill-rule:nonzero;stroke:none"
       aria-label="열"
       transform="matrix(1.3333333,0,0,1.3333333,141.292,33.796)" />
    <path
       id="path50"
       d="m 1.9218906,-4.2304375 c -0.796875,0 -1.34765622,0.4335938 -1.34765622,1.0898438 0,0.65625 0.55078122,1.0664062 1.34765622,1.0664062 0.7851563,0 1.3359375,-0.4101562 1.3359375,-1.0664062 0,-0.65625 -0.5507812,-1.0898438 -1.3359375,-1.0898438 z m 0,0.4335938 c 0.4804688,0 0.8203125,0.2578125 0.8203125,0.65625 0,0.3867187 -0.3398437,0.6445312 -0.8203125,0.6445312 -0.4921875,0 -0.8320312,-0.2578125 -0.8320312,-0.6445312 0,-0.3984375 0.3398437,-0.65625 0.8320312,-0.65625 z m 1.6640625,2.1328125 c -1.3125,0 -2.0976562,0.3984375 -2.0976562,1.10156245 0,0.69140625 0.7851562,1.08984375 2.0976562,1.08984375 1.3242188,0 2.109375,-0.3984375 2.109375,-1.08984375 0,-0.70312495 -0.7851562,-1.10156245 -2.109375,-1.10156245 z m 0,0.4453125 c 0.9726563,0 1.5351563,0.23437495 1.5351563,0.65624995 0,0.41015625 -0.5625,0.64453125 -1.5351563,0.64453125 -0.9609375,0 -1.5234375,-0.234375 -1.5234375,-0.64453125 0,-0.421875 0.5625,-0.65624995 1.5234375,-0.65624995 z m 0.1757813,-4.4179688 v 3.6328125 h 0.5390625 v -1.5703125 h 0.8085937 v 1.7929688 h 0.5507813 v -3.984375 H 5.1093906 v 1.7109375 H 4.3007969 v -1.5820313 z m -2.1328125,-0.082031 v 0.703125 H 0.31642188 v 0.4570312 H 3.5039219 V -5.0155937 H 2.2031406 v -0.703125 z m 0,0"
       style="fill:#595959;fill-opacity:1;fill-rule:nonzero;stroke:none"
       aria-label="행"
       transform="matrix(1.3333333,0,0,1.3333333,15.054667,159.60933)" />
    <path
       id="path51"
       d="M -12.04738,-12.04738 H 12.04738 V 12.04738 H -12.04738 Z"
       style="fill:#e0e0e0;fill-opacity:1;fill-rule:nonzero;stroke:#666666;stroke-width:0.49814;stroke-linecap:butt;stroke-linejoin:miter;stroke-miterlimit:10;stroke-dasharray:none;stroke-opacity:1"
       transform="matrix(1.3333333,0,0,-1.3333333,58.638667,69.188)" />
    <path
       id="path52"
       d="m 2.7302734,-5.7311719 c 0,-0.2226562 -0.011719,-0.234375 -0.234375,-0.234375 -0.5625,0.5625 -1.3828125,0.5625 -1.66406246,0.5625 v 0.28125 c 0.17578126,0 0.71484376,0 1.20703126,-0.234375 v 4.64062503 c 0,0.328125 -0.035156,0.43359375 -0.8671875,0.43359375 H 0.89042969 V -7.03125e-4 C 1.2068359,-0.02414062 2.0037109,-0.02414062 2.3787109,-0.02414062 c 0.3632813,0 1.171875,0 1.4882813,0.023437495 V -0.28195312 h -0.28125 c -0.8320313,0 -0.8554688,-0.10546875 -0.8554688,-0.43359375 z m 0,0"
       style="fill:#000000;fill-opacity:1;fill-rule:nonzero;stroke:none"
       aria-label="1"
       transform="matrix(1.3333333,0,0,1.3333333,55.566667,73.04)" />
    <path
       id="path53"
       d="m -12.04738,-116.36343 h 24.09476 v 24.09476 h -24.09476 z"
       style="fill:#e0e0e0;fill-opacity:1;fill-rule:nonzero;stroke:#666666;stroke-width:0.49814;stroke-linecap:butt;stroke-linejoin:miter;stroke-miterlimit:10;stroke-dasharray:none;stroke-opacity:1"
       transform="matrix(1.3333333,0,0,-1.3333333,58.638667,69.188)" />
    <g
       id="g53"
       aria-label="−1"
       transform="matrix(1.3333333,0,0,1.3333333,50.788,211.57467)">
      <path
         id="path54"
         d="m 6.0476719,-2.0511172 c 0.1640625,0 0.3398437,0 0.3398437,-0.1992187 0,-0.1875 -0.1875,-0.1875 -0.3398437,-0.1875 H 1.1023594 c -0.15234377,0 -0.32812502,0 -0.32812502,0.1875 0,0.1992187 0.1640625,0.1992187 0.32812502,0.1992187 z m 0,0"
         style="fill:#000000;fill-opacity:1;fill-rule:nonzero;stroke:none" />
      <path
         id="path55"
         d="m 9.8972813,-5.7308047 c 0,-0.2226562 -0.011719,-0.234375 -0.234375,-0.234375 -0.5625,0.5625 -1.3828125,0.5625 -1.6640625,0.5625 v 0.28125 c 0.1757812,0 0.7148437,0 1.2070312,-0.234375 v 4.64062501 c 0,0.328125 -0.035156,0.43359375 -0.8671875,0.43359375 h -0.28125 V -3.359375e-4 C 8.3738438,-0.02377344 9.1707188,-0.02377344 9.5457188,-0.02377344 c 0.3632812,0 1.1718752,0 1.4882812,0.0234375025 V -0.28158594 h -0.28125 c -0.8320312,0 -0.8554687,-0.10546875 -0.8554687,-0.43359375 z m 0,0"
         style="fill:#000000;fill-opacity:1;fill-rule:nonzero;stroke:none" />
    </g>
    <path
       id="path56"
       d="m 14.03162,-116.36343 h 24.09476 v 24.09476 H 14.03162 Z"
       style="fill:#e0e0e0;fill-opacity:1;fill-rule:nonzero;stroke:#666666;stroke-width:0.49814;stroke-linecap:butt;stroke-linejoin:miter;stroke-miterlimit:10;stroke-dasharray:none;stroke-opacity:1"
       transform="matrix(1.3333333,0,0,-1.3333333,58.638667,69.188)" />
    <g
       id="g56"
       aria-label="−1"
       transform="matrix(1.3333333,0,0,1.3333333,85.56,211.57467)">
      <path
         id="path57"
         d="m 6.0458203,-2.0511172 c 0.1640625,0 0.3398438,0 0.3398438,-0.1992187 0,-0.1875 -0.1875,-0.1875 -0.3398438,-0.1875 H 1.1005078 c -0.15234374,0 -0.32812499,0 -0.32812499,0.1875 0,0.1992187 0.1640625,0.1992187 0.32812499,0.1992187 z m 0,0"
         style="fill:#000000;fill-opacity:1;fill-rule:nonzero;stroke:none" />
      <path
         id="path58"
         d="m 9.8983594,-5.7308047 c 0,-0.2226562 -0.011719,-0.234375 -0.234375,-0.234375 -0.5625,0.5625 -1.3828125,0.5625 -1.6640625,0.5625 v 0.28125 c 0.1757812,0 0.7148437,0 1.2070312,-0.234375 v 4.64062501 c 0,0.328125 -0.035156,0.43359375 -0.8671875,0.43359375 h -0.28125 V -3.359375e-4 C 8.3749219,-0.02377344 9.1717969,-0.02377344 9.5467969,-0.02377344 c 0.3632812,0 1.1718751,0 1.4882811,0.0234375025 V -0.28158594 h -0.28125 c -0.8320311,0 -0.8554686,-0.10546875 -0.8554686,-0.43359375 z m 0,0"
         style="fill:#000000;fill-opacity:1;fill-rule:nonzero;stroke:none" />
    </g>
    <path
       id="path59"
       d="m 40.11063,-116.36343 h 24.09476 v 24.09476 H 40.11063 Z"
       style="fill:#e0e0e0;fill-opacity:1;fill-rule:nonzero;stroke:#666666;stroke-width:0.49814;stroke-linecap:butt;stroke-linejoin:miter;stroke-miterlimit:10;stroke-dasharray:none;stroke-opacity:1"
       transform="matrix(1.3333333,0,0,-1.3333333,58.638667,69.188)" />
    <g
       id="g59"
       aria-label="−1"
       transform="matrix(1.3333333,0,0,1.3333333,120.332,211.57467)">
      <path
         id="path60"
         d="m 6.0468984,-2.0511172 c 0.1640625,0 0.3398438,0 0.3398438,-0.1992187 0,-0.1875 -0.1875,-0.1875 -0.3398438,-0.1875 H 1.1015859 c -0.15234371,0 -0.32812496,0 -0.32812496,0.1875 0,0.1992187 0.1640625,0.1992187 0.32812496,0.1992187 z m 0,0"
         style="fill:#000000;fill-opacity:1;fill-rule:nonzero;stroke:none" />
      <path
         id="path61"
         d="m 9.8965078,-5.7308047 c 0,-0.2226562 -0.011719,-0.234375 -0.234375,-0.234375 -0.5625,0.5625 -1.3828125,0.5625 -1.6640625,0.5625 v 0.28125 c 0.1757813,0 0.7148438,0 1.2070313,-0.234375 v 4.64062501 c 0,0.328125 -0.035156,0.43359375 -0.8671875,0.43359375 h -0.28125 V -3.359375e-4 C 8.3730703,-0.02377344 9.1699453,-0.02377344 9.5449453,-0.02377344 c 0.3632813,0 1.1718747,0 1.4882817,0.0234375025 V -0.28158594 h -0.28125 c -0.8320317,0 -0.8554692,-0.10546875 -0.8554692,-0.43359375 z m 0,0"
         style="fill:#000000;fill-opacity:1;fill-rule:nonzero;stroke:none" />
    </g>
    <path
       id="path62"
       d="M 66.18964,-116.36343 H 90.2844 v 24.09476 H 66.18964 Z"
       style="fill:#e0e0e0;fill-opacity:1;fill-rule:nonzero;stroke:#666666;stroke-width:0.49814;stroke-linecap:butt;stroke-linejoin:miter;stroke-miterlimit:10;stroke-dasharray:none;stroke-opacity:1"
       transform="matrix(1.3333333,0,0,-1.3333333,58.638667,69.188)" />
    <g
       id="g62"
       aria-label="−1"
       transform="matrix(1.3333333,0,0,1.3333333,155.104,211.57467)">
      <path
         id="path63"
         d="m 6.0479766,-2.0511172 c 0.1640625,0 0.3398437,0 0.3398437,-0.1992187 0,-0.1875 -0.1875,-0.1875 -0.3398437,-0.1875 H 1.1026641 c -0.15234379,0 -0.32812504,0 -0.32812504,0.1875 0,0.1992187 0.1640625,0.1992187 0.32812504,0.1992187 z m 0,0"
         style="fill:#000000;fill-opacity:1;fill-rule:nonzero;stroke:none" />
      <path
         id="path64"
         d="m 9.8975859,-5.7308047 c 0,-0.2226562 -0.011719,-0.234375 -0.234375,-0.234375 -0.5625,0.5625 -1.3828125,0.5625 -1.6640625,0.5625 v 0.28125 c 0.1757813,0 0.7148438,0 1.2070313,-0.234375 v 4.64062501 c 0,0.328125 -0.035156,0.43359375 -0.8671875,0.43359375 h -0.28125 V -3.359375e-4 C 8.3741484,-0.02377344 9.1710234,-0.02377344 9.5460234,-0.02377344 c 0.3632813,0 1.1718746,0 1.4882816,0.0234375025 V -0.28158594 h -0.28125 c -0.8320316,0 -0.8554691,-0.10546875 -0.8554691,-0.43359375 z m 0,0"
         style="fill:#000000;fill-opacity:1;fill-rule:nonzero;stroke:none" />
    </g>
    <path
       id="path65"
       d="m 92.26866,-116.36343 h 24.09476 v 24.09476 H 92.26866 Z"
       style="fill:#e0e0e0;fill-opacity:1;fill-rule:nonzero;stroke:#666666;stroke-width:0.49814;stroke-linecap:butt;stroke-linejoin:miter;stroke-miterlimit:10;stroke-dasharray:none;stroke-opacity:1"
       transform="matrix(1.3333333,0,0,-1.3333333,58.638667,69.188)" />
    <g
       id="g65"
       aria-label="−1"
       transform="matrix(1.3333333,0,0,1.3333333,189.876,211.57467)">
      <path
         id="path66"
         d="m 6.046125,-2.0511172 c 0.1640625,0 0.3398438,0 0.3398438,-0.1992187 0,-0.1875 -0.1875,-0.1875 -0.3398438,-0.1875 H 1.1008125 c -0.15234375,0 -0.328125,0 -0.328125,0.1875 0,0.1992187 0.1640625,0.1992187 0.328125,0.1992187 z m 0,0"
         style="fill:#000000;fill-opacity:1;fill-rule:nonzero;stroke:none" />
      <path
         id="path67"
         d="m 9.8986641,-5.7308047 c 0,-0.2226562 -0.011719,-0.234375 -0.234375,-0.234375 -0.5625,0.5625 -1.3828125,0.5625 -1.6640625,0.5625 v 0.28125 c 0.1757812,0 0.7148437,0 1.2070312,-0.234375 v 4.64062501 c 0,0.328125 -0.035156,0.43359375 -0.8671875,0.43359375 h -0.28125 V -3.359375e-4 C 8.3752266,-0.02377344 9.1721016,-0.02377344 9.5471016,-0.02377344 c 0.3632812,0 1.1718754,0 1.4882814,0.0234375025 V -0.28158594 h -0.28125 c -0.8320314,0 -0.8554689,-0.10546875 -0.8554689,-0.43359375 z m 0,0"
         style="fill:#000000;fill-opacity:1;fill-rule:nonzero;stroke:none" />
    </g>
    <path
       id="path68"
       d="m 14.03162,-142.44244 h 24.09476 v 24.09476 H 14.03162 Z"
       style="fill:#e0e0e0;fill-opacity:1;fill-rule:nonzero;stroke:#666666;stroke-width:0.49814;stroke-linecap:butt;stroke-linejoin:miter;stroke-miterlimit:10;stroke-dasharray:none;stroke-opacity:1"
       transform="matrix(1.3333333,0,0,-1.3333333,58.638667,69.188)" />
    <path
       id="path69"
       d="m 2.7313516,-5.7316406 c 0,-0.2226563 -0.011719,-0.234375 -0.234375,-0.234375 -0.5625,0.5625 -1.3828125,0.5625 -1.66406254,0.5625 v 0.28125 c 0.17578124,0 0.71484374,0 1.20703124,-0.234375 v 4.64062498 c 0,0.328125 -0.035156,0.43359375 -0.8671875,0.43359375 H 0.89150781 v 0.28125 c 0.31640629,-0.0234375 1.11328129,-0.0234375 1.48828129,-0.0234375 0.3632812,0 1.171875,0 1.4882812,0.0234375 v -0.28125 h -0.28125 c -0.8320312,0 -0.8554687,-0.10546875 -0.8554687,-0.43359375 z m 0,0"
       style="fill:#000000;fill-opacity:1;fill-rule:nonzero;stroke:none"
       aria-label="1"
       transform="matrix(1.3333333,0,0,1.3333333,90.338667,246.9)" />
    <path
       id="path70"
       d="m 40.11063,-142.44244 h 24.09476 v 24.09476 H 40.11063 Z"
       style="fill:#e0e0e0;fill-opacity:1;fill-rule:nonzero;stroke:#666666;stroke-width:0.49814;stroke-linecap:butt;stroke-linejoin:miter;stroke-miterlimit:10;stroke-dasharray:none;stroke-opacity:1"
       transform="matrix(1.3333333,0,0,-1.3333333,58.638667,69.188)" />
    <path
       id="path71"
       d="m 2.7295,-5.7316406 c 0,-0.2226563 -0.011719,-0.234375 -0.234375,-0.234375 -0.5625,0.5625 -1.3828125,0.5625 -1.6640625,0.5625 v 0.28125 c 0.1757813,0 0.7148438,0 1.2070313,-0.234375 v 4.64062498 c 0,0.328125 -0.035156,0.43359375 -0.8671875,0.43359375 H 0.88965625 v 0.28125 c 0.31640625,-0.0234375 1.11328125,-0.0234375 1.48828125,-0.0234375 0.3632813,0 1.171875,0 1.4882813,0.0234375 v -0.28125 h -0.28125 c -0.8320313,0 -0.8554688,-0.10546875 -0.8554688,-0.43359375 z m 0,0"
       style="fill:#000000;fill-opacity:1;fill-rule:nonzero;stroke:none"
       aria-label="1"
       transform="matrix(1.3333333,0,0,1.3333333,125.11067,246.9)" />
    <path
       id="path72"
       d="M 66.18964,-142.44244 H 90.2844 v 24.09476 H 66.18964 Z"
       style="fill:#e0e0e0;fill-opacity:1;fill-rule:nonzero;stroke:#666666;stroke-width:0.49814;stroke-linecap:butt;stroke-linejoin:miter;stroke-miterlimit:10;stroke-dasharray:none;stroke-opacity:1"
       transform="matrix(1.3333333,0,0,-1.3333333,58.638667,69.188)" />
    <path
       id="path73"
       d="m 2.7305781,-5.7316406 c 0,-0.2226563 -0.011719,-0.234375 -0.234375,-0.234375 -0.5625,0.5625 -1.3828125,0.5625 -1.66406248,0.5625 v 0.28125 c 0.17578128,0 0.71484378,0 1.20703128,-0.234375 v 4.64062498 c 0,0.328125 -0.035156,0.43359375 -0.8671875,0.43359375 H 0.89073437 v 0.28125 c 0.31640623,-0.0234375 1.11328123,-0.0234375 1.48828123,-0.0234375 0.3632813,0 1.171875,0 1.4882813,0.0234375 v -0.28125 h -0.28125 c -0.8320313,0 -0.8554688,-0.10546875 -0.8554688,-0.43359375 z m 0,0"
       style="fill:#000000;fill-opacity:1;fill-rule:nonzero;stroke:none"
       aria-label="1"
       transform="matrix(1.3333333,0,0,1.3333333,159.88267,246.9)" />
    <path
       id="path74"
       d="m 92.26866,-142.44244 h 24.09476 v 24.09476 H 92.26866 Z"
       style="fill:#e0e0e0;fill-opacity:1;fill-rule:nonzero;stroke:#666666;stroke-width:0.49814;stroke-linecap:butt;stroke-linejoin:miter;stroke-miterlimit:10;stroke-dasharray:none;stroke-opacity:1"
       transform="matrix(1.3333333,0,0,-1.3333333,58.638667,69.188)" />
    <path
       id="path75"
       d="m 2.7316563,-5.7316406 c 0,-0.2226563 -0.011719,-0.234375 -0.234375,-0.234375 -0.5625,0.5625 -1.3828125,0.5625 -1.66406255,0.5625 v 0.28125 c 0.17578125,0 0.71484375,0 1.20703125,-0.234375 v 4.64062498 c 0,0.328125 -0.035156,0.43359375 -0.8671875,0.43359375 h -0.28125 v 0.28125 c 0.3164063,-0.0234375 1.1132813,-0.0234375 1.4882813,-0.0234375 0.3632812,0 1.171875,0 1.4882812,0.0234375 v -0.28125 h -0.28125 c -0.8320312,0 -0.8554687,-0.10546875 -0.8554687,-0.43359375 z m 0,0"
       style="fill:#000000;fill-opacity:1;fill-rule:nonzero;stroke:none"
       aria-label="1"
       transform="matrix(1.3333333,0,0,1.3333333,194.65467,246.9)" />
    <path
       id="path76"
       d="M -2.83484,27.77974 H 132.43504"
       style="fill:none;stroke:#474747;stroke-width:0.67746;stroke-linecap:butt;stroke-linejoin:miter;stroke-miterlimit:10;stroke-dasharray:none;stroke-opacity:1"
       transform="matrix(1.3333333,0,0,-1.3333333,58.638667,69.188)" />
    <path
       id="path77"
       d="M 3.65054,0 C 3.20224,0.11142 1.23164,0.74284 0,1.42996 V -1.42996 C 1.23164,-0.74284 3.20224,-0.11142 3.65054,0 Z"
       style="fill:#474747;fill-opacity:1;fill-rule:nonzero;stroke:#474747;stroke-width:0.67746;stroke-linecap:butt;stroke-linejoin:miter;stroke-miterlimit:10;stroke-dasharray:none;stroke-opacity:1"
       transform="matrix(1.3333333,0,0,-1.3333333,235.21872,32.148347)" />
    <path
       id="path78"
       d="M 4.6160078,-5.7663203 V 0.53836719 H 5.1902266 V -2.7311641 H 6.1980391 V -3.2116328 H 5.1902266 v -2.5546875 z m -3.93749999,0.6796875 v 0.4804687 H 2.9871016 c -0.1289063,1.4882813 -0.9960938,2.6953125 -2.60156254,3.5039063 l 0.31640625,0.44531249 C 2.7410078,-1.6764766 3.5730391,-3.2936641 3.5730391,-5.0866328 Z m 6.79101559,2.71875 v 0.46875 h 1.8515625 v 1.18359374 H 6.7663984 v 0.48046875 H 12.485148 V -0.71553906 H 9.8953047 V -1.8991328 H 11.91093 v -0.46875 H 8.0437422 V -3.3874141 H 11.770305 V -5.2975703 H 7.4578047 v 0.46875 h 3.7382813 v 0.984375 H 7.4695234 Z m 7.9951176,-3.0820313 v 2.2734375 h 4.324218 v -0.46875 h -3.738281 v -1.8046875 z m -0.726563,3.2226563 v 0.4804687 h 2.542969 v 2.28515629 h 0.574219 V -1.7467891 h 2.601562 v -0.4804687 z m 7.388672,0.5742187 v 0.46875 h 3.632813 v 1.72265629 h 0.574218 V -1.6530391 Z m -0.773437,-3.6796875 v 0.46875 h 1.40625 v 0.2578125 c 0,0.8789063 -0.65625,1.7226563 -1.582032,2.0507813 l 0.292969,0.4570312 c 0.75,-0.2695312 1.324219,-0.84375 1.59375,-1.5585937 0.257813,0.6445312 0.808594,1.171875 1.511719,1.4179687 l 0.292969,-0.4570312 C 23.954875,-3.0124141 23.3455,-3.7975703 23.3455,-4.6178828 v -0.2460938 h 1.371094 v -0.46875 z m 4.40625,-0.4335937 v 1.640625 h -1.230469 v 0.4804687 h 1.230469 v 1.6523438 h 0.574218 v -3.7734375 z m 4.297851,3.9492187 v 2.27343754 h 3.960938 V -1.8171016 h -0.574219 v 0.65625 h -2.8125 v -0.65625 z m 0.574219,1.11328129 h 2.8125 v 0.69140625 h -2.8125 z m 0.375,-3.65624999 c -0.914063,0 -1.511719,0.4335937 -1.511719,1.1015625 0,0.6796875 0.597656,1.1132812 1.511719,1.1132812 0.902344,0 1.5,-0.4335937 1.5,-1.1132812 0,-0.6679688 -0.597656,-1.1015625 -1.5,-1.1015625 z m 0,0.4453125 c 0.574219,0 0.949219,0.2578125 0.949219,0.65625 0,0.4101562 -0.375,0.6679687 -0.949219,0.6679687 -0.574219,0 -0.960938,-0.2578125 -0.960938,-0.6679687 0,-0.3984375 0.386719,-0.65625 0.960938,-0.65625 z m 2.4375,-1.8515625 v 3.6679687 h 0.574219 v -1.5703125 h 0.9375 v -0.4921875 h -0.9375 v -1.6054687 z m -2.730469,-0.058594 v 0.703125 h -1.570312 v 0.46875 h 3.726562 v -0.46875 h -1.570312 v -0.703125 z m 0,0"
       style="fill:#595959;fill-opacity:1;fill-rule:nonzero;stroke:none"
       aria-label="가로누적합"
       transform="matrix(1.3333333,0,0,1.3333333,125.12267,22.817333)" />
    <path
       id="path79"
       d="M 341.65321,-21.26018 H 186.44606 c -1.10048,0 -1.99256,-0.89207 -1.99256,-1.99255 v -83.89002 c 0,-1.10046 0.89208,-1.99255 1.99256,-1.99255 h 155.20715 c 1.10047,0 1.99256,0.89209 1.99256,1.99255 v 83.89002 c 0,1.10048 -0.89209,1.99255 -1.99256,1.99255 z"
       style="fill:#fcfcfc;fill-opacity:1;fill-rule:nonzero;stroke:#c7c7c7;stroke-width:0.3985;stroke-linecap:butt;stroke-linejoin:miter;stroke-miterlimit:10;stroke-dasharray:none;stroke-opacity:1"
       transform="matrix(1.3333333,0,0,-1.3333333,58.638667,69.188)" />
    <g
       id="g79"
       aria-label="왼쪽에서오른쪽으로누적한다.&#10;board[i][j+1]+=board[i][j];&#10;같은행에서변화량이이어진다."
       transform="matrix(1.3333333,0,0,1.3333333,319.69467,137.66267)">
      <path
         id="path80"
         d="m 3.0590781,-6.5028594 c 0.7734375,0 1.3242188,0.421875 1.3242188,1.0546875 0,0.6328125 -0.5507813,1.0664063 -1.3242188,1.0664063 -0.7851562,0 -1.3359375,-0.4335938 -1.3359375,-1.0664063 0,-0.6328125 0.5507813,-1.0546875 1.3359375,-1.0546875 z m 3.28125,-0.9023437 v 6.0585937 h 0.7382813 v -6.0585937 z m -5.75390622,5.0039062 c 1.51171872,0 3.43359372,-0.058594 5.15625002,-0.3164062 l -0.058594,-0.5390625 c -0.7148437,0.082031 -1.4882812,0.140625 -2.2617187,0.1757812 v -0.7382812 c 0.9960937,-0.1171875 1.6757812,-0.75 1.6757812,-1.6289063 0,-0.984375 -0.84375,-1.640625 -2.0390625,-1.640625 -1.1953125,0 -2.0390625,0.65625 -2.0390625,1.640625 0,0.8789063 0.6796875,1.5 1.6640625,1.6289063 v 0.7734375 c -0.7734375,0.011719 -1.5234375,0.023437 -2.20312497,0.023437 z m 1.21875002,0.6328125 v 2.28515628 h 5.53125 v -0.609375 H 2.5434531 V -1.7684844 Z m 7.6875,-0.1640625 v 0.5976563 h 4.8632811 v 2.03906248 h 0.738281 V -1.9325469 Z m 3.0234371,-5.1796875 v 0.609375 h 1.019532 v 0.1289063 c 0,0.4804687 -0.421875,1.0898437 -1.183594,1.4296875 -0.75,-0.3398438 -1.183594,-0.984375 -1.183594,-1.4296875 v -0.1289063 h 1.03125 v -0.609375 H 9.1645469 v 0.609375 h 1.2656251 v 0.1757813 c 0,0.5390625 -0.5625001,1.2773437 -1.5000001,1.5820312 l 0.328125,0.5507813 c 0.7851561,-0.2578125 1.3242191,-0.796875 1.5703121,-1.3710938 0.257813,0.515625 0.761719,1.0195313 1.523438,1.265625 0.761719,-0.234375 1.265625,-0.7148437 1.523437,-1.2421875 0.257813,0.5859375 0.785157,1.1015625 1.582032,1.3476563 l 0.328125,-0.5507813 c -0.949219,-0.2695312 -1.5,-0.9726562 -1.5,-1.5820312 v -0.1757813 h 1.253906 v -0.609375 z m -0.527343,2.8945313 v 0.8203125 H 8.6957969 v 0.5976562 h 7.3476561 v -0.5976562 h -3.316406 v -0.8203125 z m 11.129882,-3.1992188 v 8.12109378 h 0.726563 V -7.4169219 Z m -4.347656,1.3710938 c 0.644531,0 1.042969,0.8203125 1.042969,2.1328125 0,1.3125 -0.398438,2.1328125 -1.042969,2.1328125 -0.632812,0 -1.03125,-0.8203125 -1.03125,-2.1328125 0,-1.3125 0.398438,-2.1328125 1.03125,-2.1328125 z m 0,-0.6914063 c -1.042969,0 -1.722656,1.0898438 -1.722656,2.8242188 0,1.734375 0.679687,2.8242187 1.722656,2.8242187 0.996094,0 1.664063,-0.9726562 1.722656,-2.5546875 h 1.019532 v 3.92578128 h 0.703125 V -7.2411406 H 21.51318 v 2.9882812 h -1.019532 c -0.08203,-1.5351562 -0.738281,-2.484375 -1.722656,-2.484375 z m 12.363281,-0.6796875 v 2.7539063 h -1.886718 v 0.609375 h 1.886718 v 4.75781248 h 0.726563 V -7.4169219 Z m -3.855468,0.703125 v 1.453125 c 0,1.5 -0.902344,3.0585938 -2.097657,3.6445313 l 0.46875,0.609375 c 0.914063,-0.5039063 1.675782,-1.5234375 2.015625,-2.71875 0.363282,1.1367187 1.101563,2.0976562 2.015625,2.5664062 l 0.445313,-0.5976562 c -1.171875,-0.5507813 -2.085938,-2.0390625 -2.085938,-3.5039063 v -1.453125 z m 11.818359,0.4335938 c 1.300781,0 2.238281,0.609375 2.238281,1.5234375 0,0.9257812 -0.9375,1.5351562 -2.238281,1.5351562 -1.277344,0 -2.214844,-0.609375 -2.214844,-1.5351562 0,-0.9140625 0.9375,-1.5234375 2.214844,-1.5234375 z m -3.65625,5.32031248 v 0.62109375 h 7.359375 V -0.95989062 H 39.472164 V -2.6473906 c 1.511719,-0.1171875 2.578125,-0.9140625 2.578125,-2.109375 0,-1.2890625 -1.242187,-2.1328125 -2.953125,-2.1328125 -1.699219,0 -2.941406,0.84375 -2.941406,2.1328125 0,1.1953125 1.066406,1.9921875 2.578125,2.109375 v 1.68749998 z m 8.238281,-1.95703128 v 0.609375 h 7.359375 v -0.609375 z m 0.972657,1.2421875 v 2.19140628 h 5.625 v -0.609375 h -4.875 V -1.6747344 Z m -0.01172,-2.5664062 v 0.5859375 h 5.625 v -0.5859375 h -4.898438 v -0.890625 h 4.722657 v -2.015625 h -5.472657 v 0.5976562 h 4.746094 v 0.8671875 h -4.722656 z m 8.094726,2.3085937 v 0.5976563 h 4.863282 v 2.03906248 h 0.738281 V -1.9325469 Z m 3.023438,-5.1796875 v 0.609375 h 1.019531 v 0.1289063 c 0,0.4804687 -0.421875,1.0898437 -1.183594,1.4296875 -0.75,-0.3398438 -1.183593,-0.984375 -1.183593,-1.4296875 v -0.1289063 h 1.03125 v -0.609375 h -3.035157 v 0.609375 h 1.265625 v 0.1757813 c 0,0.5390625 -0.5625,1.2773437 -1.5,1.5820312 l 0.328125,0.5507813 c 0.785157,-0.2578125 1.324219,-0.796875 1.570313,-1.3710938 0.257812,0.515625 0.761719,1.0195313 1.523437,1.265625 0.761719,-0.234375 1.265625,-0.7148437 1.523438,-1.2421875 0.257812,0.5859375 0.785156,1.1015625 1.582031,1.3476563 l 0.328125,-0.5507813 c -0.949219,-0.2695312 -1.5,-0.9726562 -1.5,-1.5820312 v -0.1757813 h 1.253906 v -0.609375 z m -0.527344,2.8945313 v 0.8203125 h -3.292969 v 0.5976562 h 7.347657 v -0.5976562 h -3.316407 v -0.8203125 z m 8.613281,-2.671875 c -1.675781,0 -2.941406,0.8789062 -2.941406,2.2265625 0,1.359375 1.265625,2.2382812 2.941406,2.2382812 1.6875,0 2.953125,-0.8789062 2.953125,-2.2382812 0,-1.3476563 -1.265625,-2.2265625 -2.953125,-2.2265625 z m 0,0.5976562 c 1.289063,0 2.238282,0.6679688 2.238282,1.6289063 0,0.984375 -0.949219,1.6289062 -2.238282,1.6289062 -1.265625,0 -2.226562,-0.6445312 -2.226562,-1.6289062 0,-0.9609375 0.960937,-1.6289063 2.226562,-1.6289063 z m -3.65625,5.29687503 v 0.62109375 h 7.359375 v -0.62109375 z m 9.164063,-2.05078123 v 0.609375 h 2.378906 v 1.51171873 h -3.292969 v 0.62109375 h 7.359375 V -0.92473437 H 72.469234 V -2.4364531 h 2.601563 v -0.609375 h -4.980469 v -1.3125 h 4.792969 v -2.4492188 h -5.542969 v 0.609375 h 4.804688 v 1.2539063 h -4.792969 z m 10.291992,-3.9492188 v 2.9179688 h 5.554688 v -0.609375 H 80.38232 v -2.3085938 z m -0.949219,4.125 v 0.6210938 h 3.269532 v 2.95312498 h 0.75 V -2.2489531 h 3.339843 v -0.6210938 z m 9.503907,0.75 v 0.609375 h 4.675781 v 2.21484378 h 0.738281 V -2.1200469 Z m -0.996094,-4.734375 v 0.609375 h 1.804687 v 0.3164063 c 0,1.1367187 -0.832031,2.2265625 -2.027343,2.6484375 l 0.375,0.5976562 c 0.960937,-0.3515625 1.699218,-1.1015625 2.050781,-2.0273437 0.339844,0.84375 1.042969,1.5117187 1.945312,1.828125 l 0.375,-0.5742188 c -1.171875,-0.4101562 -1.96875,-1.4296875 -1.96875,-2.4726562 v -0.3164063 h 1.78125 v -0.609375 z m 5.671875,-0.5625 v 2.1210938 h -1.582031 v 0.6210937 h 1.582031 v 2.109375 h 0.738281 v -4.8515625 z m 4.731445,2.0390625 c -1.160156,0 -1.945312,0.5976563 -1.945312,1.5117188 0,0.9140625 0.785156,1.5117187 1.945312,1.5117187 1.148438,0 1.933594,-0.5976562 1.933594,-1.5117187 0,-0.9140625 -0.785156,-1.5117188 -1.933594,-1.5117188 z m 0,0.5859375 c 0.738281,0 1.230469,0.3632813 1.230469,0.9257813 0,0.5625 -0.492188,0.9257812 -1.230469,0.9257812 -0.738281,0 -1.230469,-0.3632812 -1.230469,-0.9257812 0,-0.5625 0.492188,-0.9257813 1.230469,-0.9257813 z m 3.140628,-2.6132812 v 6.0820312 h 0.73828 v -2.8007812 h 1.19531 v -0.6210938 h -1.19531 v -2.6601562 z m -3.503909,0 v 0.984375 h -2.027344 v 0.609375 h 4.78125 v -0.609375 h -2.015625 v -0.984375 z m -0.796875,5.5898437 v 2.33203128 h 5.402344 v -0.609375 H 97.172359 V -1.8153594 Z m 12.480474,-5.6015625 v 8.12109378 h 0.75 V -3.5966094 h 1.32421 v -0.6210937 h -1.32421 v -3.1992188 z m -5.13282,0.796875 v 5.3085938 h 0.63282 c 1.52343,0 2.58984,-0.046875 3.84375,-0.2695313 l -0.0937,-0.6445312 c -1.1836,0.2226562 -2.21485,0.28125 -3.64454,0.28125 v -4.0664063 h 3.02344 v -0.609375 z m 8.69532,6.73828128 c 0.32812,0 0.59765,-0.24609375 0.59765,-0.62109375 0,-0.375 -0.26953,-0.62109373 -0.59765,-0.62109373 -0.32813,0 -0.58594,0.24609373 -0.58594,0.62109373 0,0.375 0.25781,0.62109375 0.58594,0.62109375 z m 0,0"
         style="fill:#000000;fill-opacity:1;fill-rule:nonzero;stroke:none" />
      <path
         id="path81"
         d="m 4.3950156,15.261789 c 0,-1.066406 -0.7734375,-1.980469 -1.78125,-1.980469 -0.421875,0 -0.796875,0.152344 -1.1015625,0.421875 v -1.605468 c 0,-0.304688 -0.082031,-0.375 -0.3867187,-0.375 H 0.44579688 c -0.1171875,0 -0.375,0 -0.375,0.28125 0,0.292968 0.24609375,0.292968 0.375,0.292968 h 0.3984375 v 4.511719 c 0,0.175781 0,0.386719 0.32812502,0.386719 0.3398437,0 0.3398437,-0.210938 0.3398437,-0.386719 0.2695313,0.269531 0.6210938,0.433594 1.0195313,0.433594 0.9960937,0 1.8632812,-0.855469 1.8632812,-1.980469 z m -0.6679687,0 c 0,0.796875 -0.5742188,1.394531 -1.2304688,1.394531 -0.6445312,0 -0.984375,-0.726562 -0.984375,-1.195312 v -0.621094 c 0,-0.527344 0.5273438,-0.972656 1.0664063,-0.972656 0.6210937,0 1.1484375,0.609375 1.1484375,1.394531 z m 5.1884765,0 c 0,-1.113281 -0.84375,-2.003906 -1.8632812,-2.003906 -1.0078125,0 -1.8515625,0.890625 -1.8515625,2.003906 0,1.113281 0.8554687,1.980469 1.8515625,1.980469 1.0078125,0 1.8632812,-0.867188 1.8632812,-1.980469 z m -0.6679687,-0.07031 c 0,0.808593 -0.5390625,1.464843 -1.1953125,1.464843 -0.6445313,0 -1.1835938,-0.65625 -1.1835938,-1.464843 0,-0.796875 0.5742188,-1.347657 1.1835938,-1.347657 0.6328125,0 1.1953125,0.550782 1.1953125,1.347657 z m 5.8183593,1.710937 c 0,-0.292969 -0.246094,-0.292969 -0.386719,-0.292969 -0.128906,0 -0.316406,0 -0.492187,-0.05859 v -1.886719 c 0,-0.703125 -0.539063,-1.40625 -1.792969,-1.40625 -0.410156,0 -1.3125,0 -1.3125,0.679687 0,0.257813 0.1875,0.410157 0.410156,0.410157 0.140625,0 0.421875,-0.04687 0.421875,-0.480469 0.246094,-0.02344 0.410157,-0.02344 0.492188,-0.02344 0.703125,0 1.113281,0.292969 1.113281,0.84375 -1.488281,0.01172 -2.6718749,0.433594 -2.6718749,1.3125 0,0.679688 0.6210939,1.242188 1.4882809,1.242188 0.105469,0 0.785157,0 1.265625,-0.351563 0.222657,0.304688 0.703125,0.304688 0.996094,0.304688 0.257813,0 0.46875,0 0.46875,-0.292969 z M 12.519039,15.92976 c 0,0.210937 0,0.398437 -0.351562,0.574219 -0.328125,0.152343 -0.726563,0.152343 -0.761719,0.152343 -0.527344,0 -0.902344,-0.292968 -0.902344,-0.65625 0,-0.433593 0.914063,-0.738281 2.015625,-0.75 z m 5.973633,-2.074219 c 0,-0.164062 -0.117188,-0.574219 -0.855469,-0.574219 -0.515625,0 -1.078125,0.222657 -1.511719,0.703125 v -0.28125 c 0,-0.292968 -0.07031,-0.375 -0.375,-0.375 h -0.996093 c -0.140625,0 -0.386719,0 -0.386719,0.292969 0,0.292969 0.234375,0.292969 0.386719,0.292969 h 0.714843 v 2.695312 h -0.714843 c -0.140625,0 -0.386719,0 -0.386719,0.292969 0,0.292969 0.234375,0.292969 0.386719,0.292969 h 2.367187 c 0.128906,0 0.386719,0 0.386719,-0.28125 0,-0.304688 -0.246094,-0.304688 -0.386719,-0.304688 h -0.996094 v -1.066406 c 0,-0.902344 0.609375,-1.675781 1.570313,-1.675781 0.03516,0.328125 0.28125,0.398437 0.398437,0.398437 0.199219,0 0.398438,-0.152343 0.398438,-0.410156 z m 4.96582,3.058594 c 0,-0.304688 -0.246094,-0.304688 -0.375,-0.304688 h -0.398437 v -4.511718 c 0,-0.304688 -0.07031,-0.375 -0.375,-0.375 h -0.679688 c -0.128906,0 -0.375,0 -0.375,0.28125 0,0.292968 0.234375,0.292968 0.375,0.292968 h 0.386719 v 1.371094 c -0.1875,-0.175781 -0.550781,-0.386719 -1.03125,-0.386719 -0.996094,0 -1.851563,0.867188 -1.851563,1.992188 0,1.101562 0.808594,1.96875 1.769532,1.96875 0.410156,0 0.796875,-0.152344 1.113281,-0.480469 0,0.28125 0,0.433594 0.375,0.433594 h 0.691406 c 0.117188,0 0.375,0 0.375,-0.28125 z m -1.441406,-1.464844 c 0,0.480469 -0.398438,1.207031 -1.066406,1.207031 -0.621094,0 -1.148438,-0.609375 -1.148438,-1.382812 0,-0.808594 0.574219,-1.40625 1.230469,-1.40625 0.539062,0 0.984375,0.46875 0.984375,0.949219 z m 5.856445,2.191406 c 0,-0.28125 -0.246093,-0.28125 -0.375,-0.28125 h -1.347656 v -5.800781 h 1.347656 c 0.140625,0 0.375,0 0.375,-0.292969 0,-0.292968 -0.246093,-0.292968 -0.375,-0.292968 h -1.628906 c -0.292969,0 -0.375,0.07031 -0.375,0.375 v 6.210937 c 0,0.304688 0.07031,0.375 0.375,0.375 h 1.628906 c 0.140625,0 0.375,0 0.375,-0.292969 z m 4.497071,-0.726562 c 0,-0.304688 -0.257813,-0.304688 -0.386719,-0.304688 h -0.9375 v -2.90625 c 0,-0.292968 -0.07031,-0.375 -0.375,-0.375 h -1.300781 c -0.140625,0 -0.386719,0 -0.386719,0.292969 0,0.292969 0.234375,0.292969 0.386719,0.292969 h 1.007812 v 2.695312 H 29.28857 c -0.128906,0 -0.375,0 -0.375,0.292969 0,0.292969 0.234375,0.292969 0.375,0.292969 h 2.695313 c 0.128906,0 0.386719,0 0.386719,-0.28125 z m -1.3125,-4.699219 c 0,-0.257812 -0.199219,-0.457031 -0.457032,-0.457031 -0.246093,0 -0.457031,0.199219 -0.457031,0.457031 0,0.246094 0.210938,0.457031 0.457031,0.457031 0.257813,0 0.457032,-0.210937 0.457032,-0.457031 z m 4.634765,5.34375 v -6.210937 c 0,-0.292969 -0.07031,-0.375 -0.375,-0.375 h -1.628906 c -0.128906,0 -0.375,0 -0.375,0.292968 0,0.292969 0.234375,0.292969 0.375,0.292969 h 1.335937 v 5.800781 h -1.335937 c -0.128906,0 -0.375,0 -0.375,0.28125 0,0.292969 0.234375,0.292969 0.375,0.292969 h 1.628906 c 0.292969,0 0.375,-0.07031 0.375,-0.375 z m 6.301758,0.08203 c 0,-0.28125 -0.246094,-0.28125 -0.375,-0.28125 h -1.347656 v -5.800781 h 1.347656 c 0.140625,0 0.375,0 0.375,-0.292969 0,-0.292968 -0.246094,-0.292968 -0.375,-0.292968 h -1.628906 c -0.292969,0 -0.375,0.07031 -0.375,0.375 v 6.210937 c 0,0.304688 0.07031,0.375 0.375,0.375 h 1.628906 c 0.140625,0 0.375,0 0.375,-0.292969 z m 3.700195,-0.08203 v -3.855469 c 0,-0.292968 -0.07031,-0.375 -0.375,-0.375 h -1.453125 c -0.140625,0 -0.375,0 -0.375,0.292969 0,0.292969 0.234375,0.292969 0.375,0.292969 h 1.160157 v 3.621094 c 0,0.140625 0,0.480468 -0.234375,0.808593 -0.234375,0.304688 -0.492188,0.304688 -0.691407,0.304688 -0.128906,0 -0.1875,0 -0.316406,-0.01172 -0.140625,-0.01172 -0.152344,-0.02344 -0.152344,-0.09375 -0.01172,-0.351562 -0.304687,-0.433594 -0.410156,-0.433594 -0.199219,0 -0.421875,0.140625 -0.421875,0.433594 0,0.691406 0.890625,0.691406 1.253906,0.691406 1.300782,0 1.640625,-1.066406 1.640625,-1.675781 z m 0.01172,-5.34375 c 0,-0.257812 -0.210937,-0.457031 -0.457031,-0.457031 -0.257813,0 -0.457031,0.199219 -0.457031,0.457031 0,0.246094 0.199218,0.457031 0.457031,0.457031 0.246094,0 0.457031,-0.210937 0.457031,-0.457031 z m 5.739258,2.25 c 0,-0.339844 -0.339844,-0.339844 -0.445313,-0.339844 h -1.242187 v -1.253906 c 0,-0.09375 0,-0.433594 -0.328125,-0.433594 -0.339844,0 -0.339844,0.328125 -0.339844,0.433594 v 1.253906 h -1.242187 c -0.105469,0 -0.445313,0 -0.445313,0.328125 0,0.339844 0.339844,0.339844 0.445313,0.339844 h 1.242187 v 1.242188 c 0,0.105468 0,0.445312 0.328125,0.445312 0.339844,0 0.339844,-0.339844 0.339844,-0.445312 v -1.242188 h 1.242187 c 0.09375,0 0.445313,0 0.445313,-0.328125 z m 4.318359,2.449219 c 0,-0.304688 -0.222656,-0.304688 -0.375,-0.304688 H 54.592282 V 11.99226 c 0,-0.128906 0,-0.375 -0.28125,-0.375 -0.152343,0 -0.222656,0.08203 -0.28125,0.199219 -0.28125,0.632812 -0.632812,0.867187 -0.996093,0.902343 -0.128907,0 -0.328125,0.02344 -0.328125,0.292969 0,0.175781 0.09375,0.28125 0.316406,0.28125 0.351562,0 0.703125,-0.1875 0.914062,-0.363281 v 3.679687 h -0.796875 c -0.152343,0 -0.386718,0 -0.386718,0.304688 0,0.28125 0.246093,0.28125 0.386718,0.28125 h 2.25 c 0.140625,0 0.375,0 0.375,-0.28125 z m 3.465821,0.644531 v -6.210937 c 0,-0.292969 -0.07031,-0.375 -0.375,-0.375 H 57.22607 c -0.128906,0 -0.375,0 -0.375,0.292968 0,0.292969 0.234375,0.292969 0.375,0.292969 h 1.335938 v 5.800781 H 57.22607 c -0.128906,0 -0.375,0 -0.375,0.28125 0,0.292969 0.234375,0.292969 0.375,0.292969 h 1.628907 c 0.292968,0 0.375,-0.07031 0.375001,-0.375 z m 11.036132,-3.09375 c 0,-0.339844 -0.339843,-0.339844 -0.445312,-0.339844 H 68.57861 v -1.253906 c 0,-0.09375 0,-0.433594 -0.328125,-0.433594 -0.339843,0 -0.339843,0.328125 -0.339843,0.433594 v 1.253906 h -1.242188 c -0.105469,0 -0.445312,0 -0.445312,0.328125 0,0.339844 0.339843,0.339844 0.445312,0.339844 h 1.242188 v 1.242188 c 0,0.105468 0,0.445312 0.328125,0.445312 0.339843,0 0.339843,-0.339844 0.339843,-0.445312 v -1.242188 h 1.242188 c 0.09375,0 0.445312,0 0.445312,-0.328125 z m 4.705079,-0.679687 c 0,-0.351563 -0.351563,-0.351563 -0.480469,-0.351563 h -3.082031 c -0.128907,0 -0.480469,0 -0.480469,0.351563 0,0.328125 0.328125,0.328125 0.421875,0.328125 h 3.199219 c 0.09375,0 0.421875,0 0.421875,-0.328125 z m 0,1.347656 c 0,-0.328125 -0.328125,-0.328125 -0.421875,-0.328125 h -3.199219 c -0.09375,0 -0.421875,0 -0.421875,0.328125 0,0.339844 0.351562,0.339844 0.480469,0.339844 h 3.082031 c 0.128906,0 0.480469,0 0.480469,-0.339844 z m 9.439453,0.128906 c 0,-1.066406 -0.773438,-1.980469 -1.78125,-1.980469 -0.421875,0 -0.796875,0.152344 -1.101563,0.421875 v -1.605468 c 0,-0.304688 -0.08203,-0.375 -0.386719,-0.375 h -0.679687 c -0.117188,0 -0.375,0 -0.375,0.28125 0,0.292968 0.246094,0.292968 0.375,0.292968 h 0.398437 v 4.511719 c 0,0.175781 0,0.386719 0.328125,0.386719 0.339844,0 0.339844,-0.210938 0.339844,-0.386719 0.269531,0.269531 0.621094,0.433594 1.019531,0.433594 0.996094,0 1.863282,-0.855469 1.863282,-1.980469 z m -0.667969,0 c 0,0.796875 -0.574219,1.394531 -1.230469,1.394531 -0.644531,0 -0.984375,-0.726562 -0.984375,-1.195312 v -0.621094 c 0,-0.527344 0.527344,-0.972656 1.066406,-0.972656 0.621094,0 1.148438,0.609375 1.148438,1.394531 z m 5.188476,0 c 0,-1.113281 -0.84375,-2.003906 -1.863281,-2.003906 -1.007812,0 -1.851562,0.890625 -1.851562,2.003906 0,1.113281 0.855468,1.980469 1.851562,1.980469 1.007813,0 1.863281,-0.867188 1.863281,-1.980469 z m -0.667968,-0.07031 c 0,0.808593 -0.539063,1.464843 -1.195313,1.464843 -0.644531,0 -1.183594,-0.65625 -1.183594,-1.464843 0,-0.796875 0.574219,-1.347657 1.183594,-1.347657 0.632813,0 1.195313,0.550782 1.195313,1.347657 z m 5.821289,1.710937 c 0,-0.292969 -0.246094,-0.292969 -0.386719,-0.292969 -0.128906,0 -0.316406,0 -0.492187,-0.05859 V 14.66414 c 0,-0.703125 -0.539063,-1.40625 -1.792969,-1.40625 -0.410156,0 -1.3125,0 -1.3125,0.679687 0,0.257813 0.1875,0.410157 0.410156,0.410157 0.140625,0 0.421875,-0.04687 0.421875,-0.480469 0.246094,-0.02344 0.410156,-0.02344 0.492188,-0.02344 0.703125,0 1.113281,0.292969 1.113281,0.84375 -1.488281,0.01172 -2.671875,0.433594 -2.671875,1.3125 0,0.679688 0.621094,1.242188 1.488281,1.242188 0.105469,0 0.785156,0 1.265625,-0.351563 0.222656,0.304688 0.703125,0.304688 0.996094,0.304688 0.257812,0 0.46875,0 0.46875,-0.292969 z m -1.546875,-0.972656 c 0,0.210937 0,0.398437 -0.351563,0.574219 -0.328125,0.152343 -0.726562,0.152343 -0.761718,0.152343 -0.527344,0 -0.902344,-0.292968 -0.902344,-0.65625 0,-0.433593 0.914062,-0.738281 2.015625,-0.75 z m 5.970703,-2.074219 c 0,-0.164062 -0.117188,-0.574219 -0.855469,-0.574219 -0.515625,0 -1.078125,0.222657 -1.511719,0.703125 v -0.28125 c 0,-0.292968 -0.07031,-0.375 -0.375,-0.375 h -0.996093 c -0.140625,0 -0.386719,0 -0.386719,0.292969 0,0.292969 0.234375,0.292969 0.386719,0.292969 h 0.714843 v 2.695312 h -0.714843 c -0.140625,0 -0.386719,0 -0.386719,0.292969 0,0.292969 0.234375,0.292969 0.386719,0.292969 h 2.367187 c 0.128906,0 0.386719,0 0.386719,-0.28125 0,-0.304688 -0.246094,-0.304688 -0.386719,-0.304688 H 96.14111 v -1.066406 c 0,-0.902344 0.609375,-1.675781 1.570313,-1.675781 0.03516,0.328125 0.28125,0.398437 0.398437,0.398437 0.199219,0 0.398438,-0.152343 0.398438,-0.410156 z m 4.965822,3.058594 c 0,-0.304688 -0.2461,-0.304688 -0.375,-0.304688 h -0.39844 v -4.511718 c 0,-0.304688 -0.0703,-0.375 -0.375,-0.375 h -0.67969 c -0.1289,0 -0.375,0 -0.375,0.28125 0,0.292968 0.23438,0.292968 0.375,0.292968 h 0.38672 v 1.371094 c -0.1875,-0.175781 -0.55078,-0.386719 -1.03125,-0.386719 -0.99609,0 -1.851561,0.867188 -1.851561,1.992188 0,1.101562 0.808594,1.96875 1.769531,1.96875 0.41016,0 0.79687,-0.152344 1.11328,-0.480469 0,0.28125 0,0.433594 0.375,0.433594 h 0.69141 c 0.11718,0 0.375,0 0.375,-0.28125 z m -1.44141,-1.464844 c 0,0.480469 -0.39844,1.207031 -1.06641,1.207031 -0.62109,0 -1.148432,-0.609375 -1.148432,-1.382812 0,-0.808594 0.574222,-1.40625 1.230472,-1.40625 0.53906,0 0.98437,0.46875 0.98437,0.949219 z m 5.85645,2.191406 c 0,-0.28125 -0.2461,-0.28125 -0.375,-0.28125 h -1.34766 v -5.800781 h 1.34766 c 0.14062,0 0.375,0 0.375,-0.292969 0,-0.292968 -0.2461,-0.292968 -0.375,-0.292968 h -1.62891 c -0.29297,0 -0.375,0.07031 -0.375,0.375 v 6.210937 c 0,0.304688 0.0703,0.375 0.375,0.375 h 1.62891 c 0.14062,0 0.375,0 0.375,-0.292969 z m 4.49707,-0.726562 c 0,-0.304688 -0.25782,-0.304688 -0.38672,-0.304688 h -0.9375 v -2.90625 c 0,-0.292968 -0.0703,-0.375 -0.375,-0.375 h -1.30078 c -0.14063,0 -0.38672,0 -0.38672,0.292969 0,0.292969 0.23437,0.292969 0.38672,0.292969 h 1.00781 v 2.695312 h -1.08984 c -0.12891,0 -0.375,0 -0.375,0.292969 0,0.292969 0.23437,0.292969 0.375,0.292969 h 2.69531 c 0.1289,0 0.38672,0 0.38672,-0.28125 z m -1.3125,-4.699219 c 0,-0.257812 -0.19922,-0.457031 -0.45703,-0.457031 -0.2461,0 -0.45704,0.199219 -0.45704,0.457031 0,0.246094 0.21094,0.457031 0.45704,0.457031 0.25781,0 0.45703,-0.210937 0.45703,-0.457031 z m 4.63476,5.34375 v -6.210937 c 0,-0.292969 -0.0703,-0.375 -0.375,-0.375 h -1.6289 c -0.12891,0 -0.375,0 -0.375,0.292968 0,0.292969 0.23437,0.292969 0.375,0.292969 h 1.33593 v 5.800781 h -1.33593 c -0.12891,0 -0.375,0 -0.375,0.28125 0,0.292969 0.23437,0.292969 0.375,0.292969 h 1.6289 c 0.29297,0 0.375,-0.07031 0.375,-0.375 z m 6.30176,0.08203 c 0,-0.28125 -0.24609,-0.28125 -0.375,-0.28125 h -1.34766 v -5.800781 h 1.34766 c 0.14063,0 0.375,0 0.375,-0.292969 0,-0.292968 -0.24609,-0.292968 -0.375,-0.292968 h -1.62891 c -0.29296,0 -0.375,0.07031 -0.375,0.375 v 6.210937 c 0,0.304688 0.0703,0.375 0.375,0.375 h 1.62891 c 0.14063,0 0.375,0 0.375,-0.292969 z m 3.7002,-0.08203 v -3.855469 c 0,-0.292968 -0.0703,-0.375 -0.375,-0.375 h -1.45313 c -0.14062,0 -0.375,0 -0.375,0.292969 0,0.292969 0.23438,0.292969 0.375,0.292969 h 1.16016 v 3.621094 c 0,0.140625 0,0.480468 -0.23438,0.808593 -0.23437,0.304688 -0.49219,0.304688 -0.6914,0.304688 -0.12891,0 -0.1875,0 -0.31641,-0.01172 -0.14063,-0.01172 -0.15234,-0.02344 -0.15234,-0.09375 -0.0117,-0.351562 -0.30469,-0.433594 -0.41016,-0.433594 -0.19922,0 -0.42188,0.140625 -0.42188,0.433594 0,0.691406 0.89063,0.691406 1.25391,0.691406 1.30078,0 1.64063,-1.066406 1.64063,-1.675781 z m 0.0117,-5.34375 c 0,-0.257812 -0.21093,-0.457031 -0.45703,-0.457031 -0.25781,0 -0.45703,0.199219 -0.45703,0.457031 0,0.246094 0.19922,0.457031 0.45703,0.457031 0.2461,0 0.45703,-0.210937 0.45703,-0.457031 z m 4.11036,5.34375 v -6.210937 c 0,-0.292969 -0.0703,-0.375 -0.375,-0.375 h -1.62891 c -0.12891,0 -0.375,0 -0.375,0.292968 0,0.292969 0.23437,0.292969 0.375,0.292969 h 1.33594 v 5.800781 h -1.33594 c -0.12891,0 -0.375,0 -0.375,0.28125 0,0.292969 0.23437,0.292969 0.375,0.292969 h 1.62891 c 0.29296,0 0.375,-0.07031 0.375,-0.375 z m 4.88378,-3.65625 c 0,-0.328125 -0.26953,-0.574219 -0.5625,-0.574219 -0.32812,0 -0.57421,0.28125 -0.57421,0.5625 0,0.339844 0.28125,0.574219 0.5625,0.574219 0.33984,0 0.57421,-0.269531 0.57421,-0.5625 z m 0.0469,3.046875 c 0,-0.550781 -0.23438,-0.890625 -0.62109,-0.890625 -0.31641,0 -0.5625,0.246094 -0.5625,0.5625 0,0.210938 0.1289,0.550781 0.57421,0.574219 -0.082,0.304687 -0.29296,0.550781 -0.5625,0.691406 -0.0586,0.02344 -0.19921,0.09375 -0.19921,0.257813 0,0.140625 0.14062,0.292968 0.30468,0.292968 0.19922,0 1.06641,-0.480468 1.06641,-1.488281 z m 0,0"
         style="fill:#000000;fill-opacity:1;fill-rule:nonzero;stroke:none" />
      <path
         id="path82"
         d="m 6.0004844,26.97175 v 4.335937 H 6.7387656 V 29.479562 H 7.9340781 V 28.858469 H 6.7387656 V 26.97175 Z m -5.17968752,0.574219 v 0.609375 H 3.7504844 C 3.6450156,29.40925 2.5082969,30.417062 0.48095313,30.862375 l 0.3046875,0.609375 C 3.1528281,30.920969 4.5707969,29.585031 4.5707969,27.545969 Z m 0.80859372,6.867187 v 0.5625 h 5.3320313 v -0.5625 H 2.3793906 v -0.832031 h 4.3125 v -0.550781 h -4.3125 v -0.796875 h 4.3945313 v -0.5625 H 1.6293906 Z M 8.6957969,31.237375 V 31.84675 H 16.020016 V 31.237375 Z M 12.352047,27.253 c -1.734375,0 -2.8476564,0.597656 -2.8476564,1.617187 0,1.007813 1.1132814,1.617188 2.8476564,1.617188 1.746094,0 2.859375,-0.609375 2.859375,-1.617188 0,-1.019531 -1.113281,-1.617187 -2.859375,-1.617187 z m 0,0.597656 c 1.289062,0 2.097656,0.386719 2.097656,1.019531 0,0.632813 -0.808594,1.007813 -2.097656,1.007813 -1.265625,0 -2.085938,-0.375 -2.085938,-1.007813 0,-0.632812 0.820313,-1.019531 2.085938,-1.019531 z m -2.7070314,4.710938 v 2.34375 H 15.211422 V 34.295969 H 10.383297 V 32.561594 Z M 20.959469,28.952219 c -1.007813,0 -1.722656,0.550781 -1.722656,1.394531 0,0.84375 0.714843,1.382812 1.722656,1.382812 1.03125,0 1.734375,-0.539062 1.734375,-1.382812 0,-0.84375 -0.703125,-1.394531 -1.734375,-1.394531 z m 0,0.5625 c 0.632812,0 1.066406,0.328125 1.066406,0.832031 0,0.503906 -0.433594,0.832031 -1.066406,0.832031 -0.621094,0 -1.054688,-0.328125 -1.054688,-0.832031 0,-0.503906 0.433594,-0.832031 1.054688,-0.832031 z m 2.15625,2.730468 c -1.699219,0 -2.707031,0.515625 -2.707031,1.417969 0,0.902344 1.007812,1.40625 2.707031,1.40625 1.699219,0 2.707031,-0.503906 2.707031,-1.40625 0,-0.902344 -1.007812,-1.417969 -2.707031,-1.417969 z m 0,0.574219 c 1.242187,0 1.96875,0.292969 1.96875,0.84375 0,0.527344 -0.726563,0.832031 -1.96875,0.832031 -1.242188,0 -1.96875,-0.304687 -1.96875,-0.832031 0,-0.550781 0.726562,-0.84375 1.96875,-0.84375 z m 0.210937,-5.683594 v 4.675782 h 0.703125 v -2.015625 h 1.042969 v 2.308593 h 0.703125 V 26.97175 H 25.07275 v 2.214844 h -1.042969 v -2.050782 z m -2.730468,-0.09375 v 0.902344 h -1.699219 v 0.585938 h 4.113281 v -0.585938 h -1.675781 v -0.902344 z m 12.770507,-0.07031 v 8.121094 h 0.726563 V 26.97175 Z m -4.347656,1.371094 c 0.644531,0 1.042969,0.820312 1.042969,2.132812 0,1.3125 -0.398438,2.132813 -1.042969,2.132813 -0.632812,0 -1.03125,-0.820313 -1.03125,-2.132813 0,-1.3125 0.398438,-2.132812 1.03125,-2.132812 z m 0,-0.691407 c -1.042969,0 -1.722656,1.089844 -1.722656,2.824219 0,1.734375 0.679687,2.824219 1.722656,2.824219 0.996094,0 1.664063,-0.972656 1.722656,-2.554688 h 1.019532 v 3.925782 h 0.703125 v -7.523438 h -0.703125 v 2.988281 h -1.019532 c -0.08203,-1.535156 -0.738281,-2.484375 -1.722656,-2.484375 z M 41.38232,26.97175 v 2.753906 h -1.886718 v 0.609375 h 1.886718 v 4.757813 h 0.726563 V 26.97175 Z m -3.855468,0.703125 V 29.128 c 0,1.5 -0.902344,3.058594 -2.097657,3.644531 l 0.46875,0.609375 c 0.914063,-0.503906 1.675782,-1.523437 2.015625,-2.71875 0.363282,1.136719 1.101563,2.097656 2.015625,2.566406 l 0.445313,-0.597656 C 39.202633,32.081125 38.28857,30.592844 38.28857,29.128 v -1.453125 z m 9.307617,1.851562 h 2.191406 V 31.003 h -2.191406 z m 4.792969,-0.457031 v 1.148438 h -1.863282 v -1.148438 z m -5.53125,-1.546875 v 4.078125 h 3.667968 v -0.773437 h 1.863282 v 2.15625 h 0.738281 v -6 h -0.738281 v 1.476562 h -1.863282 v -0.9375 h -0.738281 v 1.429688 h -2.191406 v -1.429688 z m 1.066406,4.875 v 2.507813 h 5.390625 v -0.609375 h -4.652344 v -1.898438 z m 9.257812,-2.789062 c 0.726563,0 1.207032,0.375 1.207032,0.925781 0,0.550781 -0.480469,0.914062 -1.207032,0.914062 -0.726562,0 -1.207031,-0.363281 -1.207031,-0.914062 0,-0.550781 0.480469,-0.925781 1.207031,-0.925781 z m 0,-0.574219 c -1.136718,0 -1.910156,0.597656 -1.910156,1.5 0,0.796875 0.609375,1.359375 1.535156,1.476562 v 0.878907 c -0.785156,0.03516 -1.546875,0.03516 -2.191406,0.03516 l 0.117188,0.621094 c 1.40625,0 3.304687,-0.01172 5.050781,-0.328125 l -0.04687,-0.550782 c -0.691406,0.105469 -1.441406,0.164063 -2.179688,0.199219 v -0.855469 c 0.925782,-0.117187 1.535157,-0.667968 1.535157,-1.476562 0,-0.902344 -0.773438,-1.5 -1.910157,-1.5 z m 3.035157,-2.0625 v 8.121094 h 0.738281 v -4.042969 h 1.265625 V 30.417062 H 60.193844 V 26.97175 Z m -3.410157,0.02344 v 0.960938 H 53.994625 V 28.5655 h 4.839844 v -0.609375 h -2.039063 v -0.960938 z m 9.855469,5.121094 c -1.652344,0 -2.671875,0.550781 -2.671875,1.488281 0,0.925782 1.019531,1.464844 2.671875,1.464844 1.652344,0 2.660156,-0.539062 2.660156,-1.464844 0,-0.9375 -1.007812,-1.488281 -2.660156,-1.488281 z m 0,0.585938 c 1.207031,0 1.933594,0.328125 1.933594,0.902343 0,0.5625 -0.726563,0.890625 -1.933594,0.890625 -1.207031,0 -1.945312,-0.328125 -1.945312,-0.890625 0,-0.574218 0.738281,-0.902343 1.945312,-0.902343 z m 1.851563,-5.71875 v 4.910156 h 0.738281 V 30.569409 H 69.69775 V 29.948315 H 68.490719 V 28.87019 h 1.207031 v -0.632812 h -1.207031 v -1.253906 z m -5.214844,0.503906 v 0.597656 h 2.917969 v 1.019531 h -2.90625 v 2.308594 h 0.632812 c 1.511719,0 2.578125,-0.04687 3.855469,-0.269531 l -0.07031,-0.609375 c -1.230468,0.210937 -2.261718,0.257812 -3.679687,0.257812 v -1.113281 h 2.894531 V 27.487375 Z M 76.339352,26.97175 v 8.121094 h 0.738281 V 26.97175 Z m -3.539063,0.632812 c -1.195312,0 -2.0625,1.101563 -2.0625,2.824219 0,1.734375 0.867188,2.835938 2.0625,2.835938 1.195313,0 2.0625,-1.101563 2.0625,-2.835938 0,-1.722656 -0.867187,-2.824219 -2.0625,-2.824219 z m 0,0.667969 c 0.796875,0 1.335938,0.84375 1.335938,2.15625 0,1.3125 -0.539063,2.167969 -1.335938,2.167969 -0.796875,0 -1.335937,-0.855469 -1.335937,-2.167969 0,-1.3125 0.539062,-2.15625 1.335937,-2.15625 z M 86.599117,26.97175 v 8.121094 h 0.738281 V 26.97175 Z m -3.539062,0.632812 c -1.195313,0 -2.0625,1.101563 -2.0625,2.824219 0,1.734375 0.867187,2.835938 2.0625,2.835938 1.195312,0 2.0625,-1.101563 2.0625,-2.835938 0,-1.722656 -0.867188,-2.824219 -2.0625,-2.824219 z m 0,0.667969 c 0.796875,0 1.335937,0.84375 1.335937,2.15625 0,1.3125 -0.539062,2.167969 -1.335937,2.167969 -0.796875,0 -1.335938,-0.855469 -1.335938,-2.167969 0,-1.3125 0.539063,-2.15625 1.335938,-2.15625 z m 8.05957,0 c 0.773438,0 1.3125,0.84375 1.3125,2.15625 0,1.3125 -0.539062,2.167969 -1.3125,2.167969 -0.773437,0 -1.3125,-0.855469 -1.3125,-2.167969 0,-1.3125 0.539063,-2.15625 1.3125,-2.15625 z m 3.773438,-1.300781 v 3.09375 h -1.769532 c -0.105468,-1.511719 -0.902343,-2.460938 -2.003906,-2.460938 -1.183594,0 -2.027344,1.101563 -2.027344,2.824219 0,1.734375 0.84375,2.835938 2.027344,2.835938 1.125,0 1.933594,-1.007813 2.003906,-2.589844 h 1.769532 v 4.417969 h 0.726562 V 26.97175 Z m 8.214847,0.01172 v 5.941406 h 0.73828 V 26.98347 Z m -5.601566,0.667968 v 0.609375 h 1.863281 v 0.433594 c 0,1.148438 -0.84375,2.203125 -2.0625,2.636719 l 0.386719,0.585937 c 0.972656,-0.351562 1.710937,-1.078125 2.0625,-1.992187 0.363286,0.84375 1.101566,1.511719 2.027346,1.828125 l 0.375,-0.585938 c -1.19531,-0.386718 -2.03906,-1.371093 -2.03906,-2.472656 v -0.433594 h 1.82812 v -0.609375 z m 1.136719,4.710938 v 2.542969 H 104.104 V 34.295969 H 99.381344 V 32.362375 Z M 110.93603,26.97175 v 8.121094 h 0.75 v -4.300782 h 1.32422 v -0.621093 h -1.32422 V 26.97175 Z m -5.13281,0.796875 v 5.308594 h 0.63281 c 1.52344,0 2.58985,-0.04687 3.84375,-0.269532 l -0.0937,-0.644531 c -1.18359,0.222656 -2.21484,0.28125 -3.64453,0.28125 V 28.378 h 3.02344 v -0.609375 z m 8.69238,6.738281 c 0.32813,0 0.59766,-0.246094 0.59766,-0.621094 0,-0.375 -0.26953,-0.621093 -0.59766,-0.621093 -0.32812,0 -0.58594,0.246093 -0.58594,0.621093 0,0.375 0.25782,0.621094 0.58594,0.621094 z m 0,0"
         style="fill:#000000;fill-opacity:1;fill-rule:nonzero;stroke:none" />
    </g>
  </g>
</svg>
