<?xml version="1.0" encoding="UTF-8" standalone="no"?>
<!-- Created with Inkscape (http://www.inkscape.org/) -->

<svg
   version="1.1"
   id="svg1"
   width="545.06665"
   height="259.01334"
   viewBox="0 0 545.06665 259.01334"
   sodipodi:docname="7.pdf"
   xmlns:inkscape="http://www.inkscape.org/namespaces/inkscape"
   xmlns:sodipodi="http://sodipodi.sourceforge.net/DTD/sodipodi-0.dtd"
   xmlns="http://www.w3.org/2000/svg"
   xmlns:svg="http://www.w3.org/2000/svg">
  <defs
     id="defs1" />
  <sodipodi:namedview
     id="namedview1"
     pagecolor="#ffffff"
     bordercolor="#000000"
     borderopacity="0.25"
     inkscape:showpageshadow="2"
     inkscape:pageopacity="0.0"
     inkscape:pagecheckerboard="0"
     inkscape:deskcolor="#d1d1d1">
    <inkscape:page
       x="0"
       y="0"
       inkscape:label="1"
       id="page1"
       width="545.06665"
       height="259.01334"
       margin="0"
       bleed="0" />
  </sodipodi:namedview>
  <g
     id="g1"
     inkscape:groupmode="layer"
     inkscape:label="1">
    <path
       id="path1"
       d="M -12.04738,-12.04738 H 12.04738 V 12.04738 H -12.04738 Z"
       style="fill:#ffffff;fill-opacity:1;fill-rule:nonzero;stroke:#666666;stroke-width:0.49814;stroke-linecap:butt;stroke-linejoin:miter;stroke-miterlimit:10;stroke-dasharray:none;stroke-opacity:1"
       transform="matrix(1.3333333,0,0,-1.3333333,75.992,58.133333)" />
    <path
       id="path2"
       d="M 14.03162,-12.04738 H 38.12638 V 12.04738 H 14.03162 Z"
       style="fill:#ffffff;fill-opacity:1;fill-rule:nonzero;stroke:#666666;stroke-width:0.49814;stroke-linecap:butt;stroke-linejoin:miter;stroke-miterlimit:10;stroke-dasharray:none;stroke-opacity:1"
       transform="matrix(1.3333333,0,0,-1.3333333,75.992,58.133333)" />
    <path
       id="path3"
       d="M 40.11063,-12.04738 H 64.20539 V 12.04738 H 40.11063 Z"
       style="fill:#ffffff;fill-opacity:1;fill-rule:nonzero;stroke:#666666;stroke-width:0.49814;stroke-linecap:butt;stroke-linejoin:miter;stroke-miterlimit:10;stroke-dasharray:none;stroke-opacity:1"
       transform="matrix(1.3333333,0,0,-1.3333333,75.992,58.133333)" />
    <path
       id="path4"
       d="M 66.18964,-12.04738 H 90.2844 V 12.04738 H 66.18964 Z"
       style="fill:#ffffff;fill-opacity:1;fill-rule:nonzero;stroke:#666666;stroke-width:0.49814;stroke-linecap:butt;stroke-linejoin:miter;stroke-miterlimit:10;stroke-dasharray:none;stroke-opacity:1"
       transform="matrix(1.3333333,0,0,-1.3333333,75.992,58.133333)" />
    <path
       id="path5"
       d="m 92.26866,-12.04738 h 24.09476 V 12.04738 H 92.26866 Z"
       style="fill:#ffffff;fill-opacity:1;fill-rule:nonzero;stroke:#666666;stroke-width:0.49814;stroke-linecap:butt;stroke-linejoin:miter;stroke-miterlimit:10;stroke-dasharray:none;stroke-opacity:1"
       transform="matrix(1.3333333,0,0,-1.3333333,75.992,58.133333)" />
    <path
       id="path6"
       d="m 118.34767,-12.04738 h 24.09476 v 24.09476 h -24.09476 z"
       style="fill:#ffffff;fill-opacity:1;fill-rule:nonzero;stroke:#666666;stroke-width:0.49814;stroke-linecap:butt;stroke-linejoin:miter;stroke-miterlimit:10;stroke-dasharray:none;stroke-opacity:1"
       transform="matrix(1.3333333,0,0,-1.3333333,75.992,58.133333)" />
    <path
       id="path7"
       d="m -12.04738,-38.12639 h 24.09476 v 24.09476 h -24.09476 z"
       style="fill:#ffffff;fill-opacity:1;fill-rule:nonzero;stroke:#666666;stroke-width:0.49814;stroke-linecap:butt;stroke-linejoin:miter;stroke-miterlimit:10;stroke-dasharray:none;stroke-opacity:1"
       transform="matrix(1.3333333,0,0,-1.3333333,75.992,58.133333)" />
    <path
       id="path8"
       d="m 14.03162,-38.12639 h 24.09476 v 24.09476 H 14.03162 Z"
       style="fill:#ffffff;fill-opacity:1;fill-rule:nonzero;stroke:#666666;stroke-width:0.49814;stroke-linecap:butt;stroke-linejoin:miter;stroke-miterlimit:10;stroke-dasharray:none;stroke-opacity:1"
       transform="matrix(1.3333333,0,0,-1.3333333,75.992,58.133333)" />
    <path
       id="path9"
       d="m 40.11063,-38.12639 h 24.09476 v 24.09476 H 40.11063 Z"
       style="fill:#ffffff;fill-opacity:1;fill-rule:nonzero;stroke:#666666;stroke-width:0.49814;stroke-linecap:butt;stroke-linejoin:miter;stroke-miterlimit:10;stroke-dasharray:none;stroke-opacity:1"
       transform="matrix(1.3333333,0,0,-1.3333333,75.992,58.133333)" />
    <path
       id="path10"
       d="M 66.18964,-38.12639 H 90.2844 v 24.09476 H 66.18964 Z"
       style="fill:#ffffff;fill-opacity:1;fill-rule:nonzero;stroke:#666666;stroke-width:0.49814;stroke-linecap:butt;stroke-linejoin:miter;stroke-miterlimit:10;stroke-dasharray:none;stroke-opacity:1"
       transform="matrix(1.3333333,0,0,-1.3333333,75.992,58.133333)" />
    <path
       id="path11"
       d="m 92.26866,-38.12639 h 24.09476 v 24.09476 H 92.26866 Z"
       style="fill:#ffffff;fill-opacity:1;fill-rule:nonzero;stroke:#666666;stroke-width:0.49814;stroke-linecap:butt;stroke-linejoin:miter;stroke-miterlimit:10;stroke-dasharray:none;stroke-opacity:1"
       transform="matrix(1.3333333,0,0,-1.3333333,75.992,58.133333)" />
    <path
       id="path12"
       d="m 118.34767,-38.12639 h 24.09476 v 24.09476 h -24.09476 z"
       style="fill:#ffffff;fill-opacity:1;fill-rule:nonzero;stroke:#666666;stroke-width:0.49814;stroke-linecap:butt;stroke-linejoin:miter;stroke-miterlimit:10;stroke-dasharray:none;stroke-opacity:1"
       transform="matrix(1.3333333,0,0,-1.3333333,75.992,58.133333)" />
    <path
       id="path13"
       d="m -12.04738,-64.2054 h 24.09476 v 24.09476 h -24.09476 z"
       style="fill:#ffffff;fill-opacity:1;fill-rule:nonzero;stroke:#666666;stroke-width:0.49814;stroke-linecap:butt;stroke-linejoin:miter;stroke-miterlimit:10;stroke-dasharray:none;stroke-opacity:1"
       transform="matrix(1.3333333,0,0,-1.3333333,75.992,58.133333)" />
    <path
       id="path14"
       d="m 14.03162,-64.2054 h 24.09476 v 24.09476 H 14.03162 Z"
       style="fill:#ffffff;fill-opacity:1;fill-rule:nonzero;stroke:#666666;stroke-width:0.49814;stroke-linecap:butt;stroke-linejoin:miter;stroke-miterlimit:10;stroke-dasharray:none;stroke-opacity:1"
       transform="matrix(1.3333333,0,0,-1.3333333,75.992,58.133333)" />
    <path
       id="path15"
       d="m 40.11063,-64.2054 h 24.09476 v 24.09476 H 40.11063 Z"
       style="fill:#ffffff;fill-opacity:1;fill-rule:nonzero;stroke:#666666;stroke-width:0.49814;stroke-linecap:butt;stroke-linejoin:miter;stroke-miterlimit:10;stroke-dasharray:none;stroke-opacity:1"
       transform="matrix(1.3333333,0,0,-1.3333333,75.992,58.133333)" />
    <path
       id="path16"
       d="M 66.18964,-64.2054 H 90.2844 v 24.09476 H 66.18964 Z"
       style="fill:#ffffff;fill-opacity:1;fill-rule:nonzero;stroke:#666666;stroke-width:0.49814;stroke-linecap:butt;stroke-linejoin:miter;stroke-miterlimit:10;stroke-dasharray:none;stroke-opacity:1"
       transform="matrix(1.3333333,0,0,-1.3333333,75.992,58.133333)" />
    <path
       id="path17"
       d="m 92.26866,-64.2054 h 24.09476 v 24.09476 H 92.26866 Z"
       style="fill:#ffffff;fill-opacity:1;fill-rule:nonzero;stroke:#666666;stroke-width:0.49814;stroke-linecap:butt;stroke-linejoin:miter;stroke-miterlimit:10;stroke-dasharray:none;stroke-opacity:1"
       transform="matrix(1.3333333,0,0,-1.3333333,75.992,58.133333)" />
    <path
       id="path18"
       d="m 118.34767,-64.2054 h 24.09476 v 24.09476 h -24.09476 z"
       style="fill:#ffffff;fill-opacity:1;fill-rule:nonzero;stroke:#666666;stroke-width:0.49814;stroke-linecap:butt;stroke-linejoin:miter;stroke-miterlimit:10;stroke-dasharray:none;stroke-opacity:1"
       transform="matrix(1.3333333,0,0,-1.3333333,75.992,58.133333)" />
    <path
       id="path19"
       d="m -12.04738,-90.28441 h 24.09476 v 24.09476 h -24.09476 z"
       style="fill:#ffffff;fill-opacity:1;fill-rule:nonzero;stroke:#666666;stroke-width:0.49814;stroke-linecap:butt;stroke-linejoin:miter;stroke-miterlimit:10;stroke-dasharray:none;stroke-opacity:1"
       transform="matrix(1.3333333,0,0,-1.3333333,75.992,58.133333)" />
    <path
       id="path20"
       d="m 14.03162,-90.28441 h 24.09476 v 24.09476 H 14.03162 Z"
       style="fill:#ffffff;fill-opacity:1;fill-rule:nonzero;stroke:#666666;stroke-width:0.49814;stroke-linecap:butt;stroke-linejoin:miter;stroke-miterlimit:10;stroke-dasharray:none;stroke-opacity:1"
       transform="matrix(1.3333333,0,0,-1.3333333,75.992,58.133333)" />
    <path
       id="path21"
       d="m 40.11063,-90.28441 h 24.09476 v 24.09476 H 40.11063 Z"
       style="fill:#ffffff;fill-opacity:1;fill-rule:nonzero;stroke:#666666;stroke-width:0.49814;stroke-linecap:butt;stroke-linejoin:miter;stroke-miterlimit:10;stroke-dasharray:none;stroke-opacity:1"
       transform="matrix(1.3333333,0,0,-1.3333333,75.992,58.133333)" />
    <path
       id="path22"
       d="M 66.18964,-90.28441 H 90.2844 v 24.09476 H 66.18964 Z"
       style="fill:#ffffff;fill-opacity:1;fill-rule:nonzero;stroke:#666666;stroke-width:0.49814;stroke-linecap:butt;stroke-linejoin:miter;stroke-miterlimit:10;stroke-dasharray:none;stroke-opacity:1"
       transform="matrix(1.3333333,0,0,-1.3333333,75.992,58.133333)" />
    <path
       id="path23"
       d="m 92.26866,-90.28441 h 24.09476 v 24.09476 H 92.26866 Z"
       style="fill:#ffffff;fill-opacity:1;fill-rule:nonzero;stroke:#666666;stroke-width:0.49814;stroke-linecap:butt;stroke-linejoin:miter;stroke-miterlimit:10;stroke-dasharray:none;stroke-opacity:1"
       transform="matrix(1.3333333,0,0,-1.3333333,75.992,58.133333)" />
    <path
       id="path24"
       d="m 118.34767,-90.28441 h 24.09476 v 24.09476 h -24.09476 z"
       style="fill:#ffffff;fill-opacity:1;fill-rule:nonzero;stroke:#666666;stroke-width:0.49814;stroke-linecap:butt;stroke-linejoin:miter;stroke-miterlimit:10;stroke-dasharray:none;stroke-opacity:1"
       transform="matrix(1.3333333,0,0,-1.3333333,75.992,58.133333)" />
    <path
       id="path25"
       d="m -12.04738,-116.36343 h 24.09476 v 24.09476 h -24.09476 z"
       style="fill:#ffffff;fill-opacity:1;fill-rule:nonzero;stroke:#666666;stroke-width:0.49814;stroke-linecap:butt;stroke-linejoin:miter;stroke-miterlimit:10;stroke-dasharray:none;stroke-opacity:1"
       transform="matrix(1.3333333,0,0,-1.3333333,75.992,58.133333)" />
    <path
       id="path26"
       d="m 14.03162,-116.36343 h 24.09476 v 24.09476 H 14.03162 Z"
       style="fill:#ffffff;fill-opacity:1;fill-rule:nonzero;stroke:#666666;stroke-width:0.49814;stroke-linecap:butt;stroke-linejoin:miter;stroke-miterlimit:10;stroke-dasharray:none;stroke-opacity:1"
       transform="matrix(1.3333333,0,0,-1.3333333,75.992,58.133333)" />
    <path
       id="path27"
       d="m 40.11063,-116.36343 h 24.09476 v 24.09476 H 40.11063 Z"
       style="fill:#ffffff;fill-opacity:1;fill-rule:nonzero;stroke:#666666;stroke-width:0.49814;stroke-linecap:butt;stroke-linejoin:miter;stroke-miterlimit:10;stroke-dasharray:none;stroke-opacity:1"
       transform="matrix(1.3333333,0,0,-1.3333333,75.992,58.133333)" />
    <path
       id="path28"
       d="M 66.18964,-116.36343 H 90.2844 v 24.09476 H 66.18964 Z"
       style="fill:#ffffff;fill-opacity:1;fill-rule:nonzero;stroke:#666666;stroke-width:0.49814;stroke-linecap:butt;stroke-linejoin:miter;stroke-miterlimit:10;stroke-dasharray:none;stroke-opacity:1"
       transform="matrix(1.3333333,0,0,-1.3333333,75.992,58.133333)" />
    <path
       id="path29"
       d="m 92.26866,-116.36343 h 24.09476 v 24.09476 H 92.26866 Z"
       style="fill:#ffffff;fill-opacity:1;fill-rule:nonzero;stroke:#666666;stroke-width:0.49814;stroke-linecap:butt;stroke-linejoin:miter;stroke-miterlimit:10;stroke-dasharray:none;stroke-opacity:1"
       transform="matrix(1.3333333,0,0,-1.3333333,75.992,58.133333)" />
    <path
       id="path30"
       d="m 118.34767,-116.36343 h 24.09476 v 24.09476 h -24.09476 z"
       style="fill:#ffffff;fill-opacity:1;fill-rule:nonzero;stroke:#666666;stroke-width:0.49814;stroke-linecap:butt;stroke-linejoin:miter;stroke-miterlimit:10;stroke-dasharray:none;stroke-opacity:1"
       transform="matrix(1.3333333,0,0,-1.3333333,75.992,58.133333)" />
    <path
       id="path31"
       d="m -12.04738,-142.44244 h 24.09476 v 24.09476 h -24.09476 z"
       style="fill:#ffffff;fill-opacity:1;fill-rule:nonzero;stroke:#666666;stroke-width:0.49814;stroke-linecap:butt;stroke-linejoin:miter;stroke-miterlimit:10;stroke-dasharray:none;stroke-opacity:1"
       transform="matrix(1.3333333,0,0,-1.3333333,75.992,58.133333)" />
    <path
       id="path32"
       d="m 14.03162,-142.44244 h 24.09476 v 24.09476 H 14.03162 Z"
       style="fill:#ffffff;fill-opacity:1;fill-rule:nonzero;stroke:#666666;stroke-width:0.49814;stroke-linecap:butt;stroke-linejoin:miter;stroke-miterlimit:10;stroke-dasharray:none;stroke-opacity:1"
       transform="matrix(1.3333333,0,0,-1.3333333,75.992,58.133333)" />
    <path
       id="path33"
       d="m 40.11063,-142.44244 h 24.09476 v 24.09476 H 40.11063 Z"
       style="fill:#ffffff;fill-opacity:1;fill-rule:nonzero;stroke:#666666;stroke-width:0.49814;stroke-linecap:butt;stroke-linejoin:miter;stroke-miterlimit:10;stroke-dasharray:none;stroke-opacity:1"
       transform="matrix(1.3333333,0,0,-1.3333333,75.992,58.133333)" />
    <path
       id="path34"
       d="M 66.18964,-142.44244 H 90.2844 v 24.09476 H 66.18964 Z"
       style="fill:#ffffff;fill-opacity:1;fill-rule:nonzero;stroke:#666666;stroke-width:0.49814;stroke-linecap:butt;stroke-linejoin:miter;stroke-miterlimit:10;stroke-dasharray:none;stroke-opacity:1"
       transform="matrix(1.3333333,0,0,-1.3333333,75.992,58.133333)" />
    <path
       id="path35"
       d="m 92.26866,-142.44244 h 24.09476 v 24.09476 H 92.26866 Z"
       style="fill:#ffffff;fill-opacity:1;fill-rule:nonzero;stroke:#666666;stroke-width:0.49814;stroke-linecap:butt;stroke-linejoin:miter;stroke-miterlimit:10;stroke-dasharray:none;stroke-opacity:1"
       transform="matrix(1.3333333,0,0,-1.3333333,75.992,58.133333)" />
    <path
       id="path36"
       d="m 118.34767,-142.44244 h 24.09476 v 24.09476 h -24.09476 z"
       style="fill:#ffffff;fill-opacity:1;fill-rule:nonzero;stroke:#666666;stroke-width:0.49814;stroke-linecap:butt;stroke-linejoin:miter;stroke-miterlimit:10;stroke-dasharray:none;stroke-opacity:1"
       transform="matrix(1.3333333,0,0,-1.3333333,75.992,58.133333)" />
    <path
       id="path37"
       d="m 1.9322109,0.09446875 c 0.9960938,0 1.59375,-0.92578125 1.59375,-2.60156245 0,-1.6523438 -0.5976562,-2.5546875 -1.59375,-2.5546875 -0.99609371,0 -1.58203121,0.890625 -1.58203121,2.5546875 0,1.6757812 0.5859375,2.60156245 1.58203121,2.60156245 z m 0,-0.515625 c -0.5742187,0 -0.97265621,-0.62109375 -0.97265621,-2.08593745 0,-1.453125 0.39843751,-2.0507813 0.97265621,-2.0507813 0.5859375,0 0.984375,0.5976563 0.984375,2.0507813 0,1.4648437 -0.3984375,2.08593745 -0.984375,2.08593745 z m 0,0"
       style="fill:#666666;fill-opacity:1;fill-rule:nonzero;stroke:none"
       aria-label="0"
       transform="matrix(1.3333333,0,0,1.3333333,73.412,38.014667)" />
    <path
       id="path38"
       d="M 0.60907031,7.1875e-4 H 3.4215703 V -0.526625 h -1.03125 V -4.9680312 H 1.8981328 c -0.2695312,0.1640625 -0.5976562,0.28125 -1.05468749,0.3632812 v 0.4101563 H 1.7575078 V -0.526625 H 0.60907031 Z m 0,0"
       style="fill:#666666;fill-opacity:1;fill-rule:nonzero;stroke:none"
       aria-label="1"
       transform="matrix(1.3333333,0,0,1.3333333,108.184,38.014667)" />
    <path
       id="path39"
       d="M 0.30546094,-0.00133594 H 3.5163984 V -0.55211719 H 2.0749922 c -0.2578125,0 -0.5625,0.0234375 -0.8320313,0.046875 1.171875,-1.23046871 2.0390625,-2.16796871 2.0390625,-3.10546871 0,-0.8789063 -0.5859375,-1.453125 -1.5,-1.453125 -0.6445312,0 -1.08984371,0.2929687 -1.49999996,0.75 l 0.36328125,0.3632812 c 0.29296875,-0.328125 0.64453121,-0.5976562 1.06640621,-0.5976562 0.6328125,0 0.9375,0.4101562 0.9375,0.9726562 0,0.8085938 -0.84375,1.7109375 -2.34374996,3.19921876 z m 0,0"
       style="fill:#666666;fill-opacity:1;fill-rule:nonzero;stroke:none"
       aria-label="2"
       transform="matrix(1.3333333,0,0,1.3333333,142.956,38.076)" />
    <path
       id="path40"
       d="m 1.8270469,0.09446875 c 0.9140625,0 1.6523437,-0.52734375 1.6523437,-1.41796875 0,-0.6796875 -0.4804687,-1.125 -1.078125,-1.265625 v -0.035156 c 0.5273438,-0.1875 0.9023438,-0.5742188 0.9023438,-1.1835938 0,-0.796875 -0.6328125,-1.2539062 -1.4882813,-1.2539062 -0.5859375,0 -1.04296872,0.2695312 -1.42968747,0.6210937 L 0.72548438,-4.04225 C 1.0184531,-4.3352187 1.3817344,-4.5461562 1.7918906,-4.5461562 c 0.5390625,0 0.8671875,0.3046875 0.8671875,0.7851562 0,0.5273438 -0.3632812,0.9257813 -1.4179687,0.9257813 v 0.5039062 c 1.1835937,0 1.59375,0.3867188 1.59375,0.984375 0,0.5625 -0.4335938,0.9140625 -1.0429688,0.9140625 -0.5742187,0 -0.96093747,-0.28125 -1.26562497,-0.5859375 l -0.328125,0.41015625 c 0.33984375,0.36328125 0.84374997,0.703125 1.62890627,0.703125 z m 0,0"
       style="fill:#666666;fill-opacity:1;fill-rule:nonzero;stroke:none"
       aria-label="3"
       transform="matrix(1.3333333,0,0,1.3333333,177.728,38.014667)" />
    <path
       id="path41"
       d="M 2.3671875,7.1875e-4 H 2.9648438 V -1.370375 H 3.65625 V -1.886 H 2.9648438 V -4.9680312 H 2.2617188 L 0.140625,-1.79225 v 0.421875 h 2.2265625 z m 0,-1.88671875 H 0.796875 L 1.96875,-3.5852187 c 0.140625,-0.2460938 0.28125,-0.46875 0.4101563,-0.703125 h 0.023437 c -0.011719,0.2578125 -0.035156,0.703125 -0.035156,0.9492187 z m 0,0"
       style="fill:#666666;fill-opacity:1;fill-rule:nonzero;stroke:none"
       aria-label="4"
       transform="matrix(1.3333333,0,0,1.3333333,212.5,38.014667)" />
    <path
       id="path42"
       d="m 1.8292031,0.09259375 c 0.8554688,0 1.6757813,-0.609375 1.6757813,-1.68749995 0,-1.0664063 -0.703125,-1.546875 -1.546875,-1.546875 -0.3046875,0 -0.5390625,0.070312 -0.7617188,0.1992187 L 1.3252969,-4.419125 h 1.921875 V -4.9699062 H 0.76279688 l -0.1640625,2.390625 0.33984375,0.2109375 c 0.29296877,-0.1875 0.51562497,-0.3046875 0.85546877,-0.3046875 0.6445312,0 1.0546875,0.4101562 1.0546875,1.1015625 0,0.6914062 -0.4804688,1.1367187 -1.078125,1.1367187 -0.5976563,0 -0.97265627,-0.28125 -1.26562502,-0.5742187 L 0.18857813,-0.58709375 C 0.54014063,-0.24725 1.0206094,0.09259375 1.8292031,0.09259375 Z m 0,0"
       style="fill:#666666;fill-opacity:1;fill-rule:nonzero;stroke:none"
       aria-label="5"
       transform="matrix(1.3333333,0,0,1.3333333,247.272,37.954667)" />
    <path
       id="path43"
       d="m 1.9349453,0.09466406 c 0.9960938,0 1.59375,-0.92578125 1.59375,-2.60156246 0,-1.6523438 -0.5976562,-2.5546875 -1.59375,-2.5546875 -0.99609374,0 -1.58203124,0.890625 -1.58203124,2.5546875 0,1.67578121 0.5859375,2.60156246 1.58203124,2.60156246 z m 0,-0.515625 c -0.5742187,0 -0.97265624,-0.62109376 -0.97265624,-2.08593746 0,-1.453125 0.39843754,-2.0507813 0.97265624,-2.0507813 0.5859375,0 0.984375,0.5976563 0.984375,2.0507813 0,1.4648437 -0.3984375,2.08593746 -0.984375,2.08593746 z m 0,0"
       style="fill:#666666;fill-opacity:1;fill-rule:nonzero;stroke:none"
       aria-label="0"
       transform="matrix(1.3333333,0,0,1.3333333,49.978667,61.448)" />
    <path
       id="path44"
       d="M 0.61072656,-9.375e-4 H 3.4232266 v -0.52734375 h -1.03125 V -4.9696875 H 1.8997891 c -0.2695313,0.1640625 -0.5976563,0.28125 -1.05468754,0.3632813 V -4.19625 H 1.7591641 v 3.66796875 H 0.61072656 Z m 0,0"
       style="fill:#666666;fill-opacity:1;fill-rule:nonzero;stroke:none"
       aria-label="1"
       transform="matrix(1.3333333,0,0,1.3333333,49.978667,96.22)" />
    <path
       id="path45"
       d="M 0.30603906,0.00101563 H 3.5169766 V -0.54976562 H 2.0755703 c -0.2578125,0 -0.5625,0.0234375 -0.8320312,0.046875 1.171875,-1.23046878 2.0390625,-2.16796878 2.0390625,-3.10546878 0,-0.8789062 -0.5859375,-1.453125 -1.5,-1.453125 -0.6445313,0 -1.08984379,0.2929688 -1.50000004,0.75 l 0.36328125,0.3632813 c 0.29296875,-0.328125 0.64453129,-0.5976563 1.06640629,-0.5976563 0.6328125,0 0.9375,0.4101563 0.9375,0.9726563 0,0.8085937 -0.84375,1.7109375 -2.34375004,3.19921873 z m 0,0"
       style="fill:#666666;fill-opacity:1;fill-rule:nonzero;stroke:none"
       aria-label="2"
       transform="matrix(1.3333333,0,0,1.3333333,49.978667,131.05333)" />
    <path
       id="path46"
       d="m 1.8294766,0.09496875 c 0.9140625,0 1.6523437,-0.52734375 1.6523437,-1.41796875 0,-0.6796875 -0.4804687,-1.125 -1.078125,-1.265625 v -0.035156 c 0.5273438,-0.1875 0.9023438,-0.5742188 0.9023438,-1.1835938 0,-0.796875 -0.6328125,-1.2539062 -1.4882813,-1.2539062 -0.5859375,0 -1.04296874,0.2695312 -1.42968749,0.6210937 L 0.72791406,-4.04175 C 1.0208828,-4.3347187 1.3841641,-4.5456562 1.7943203,-4.5456562 c 0.5390625,0 0.8671875,0.3046875 0.8671875,0.7851562 0,0.5273438 -0.3632812,0.9257813 -1.4179687,0.9257813 v 0.5039062 c 1.1835937,0 1.59375,0.3867188 1.59375,0.984375 0,0.5625 -0.4335938,0.9140625 -1.0429688,0.9140625 -0.5742187,0 -0.96093749,-0.28125 -1.26562499,-0.5859375 l -0.328125,0.41015625 c 0.33984375,0.36328125 0.84374999,0.703125 1.62890629,0.703125 z m 0,0"
       style="fill:#666666;fill-opacity:1;fill-rule:nonzero;stroke:none"
       aria-label="3"
       transform="matrix(1.3333333,0,0,1.3333333,49.978667,165.764)" />
    <path
       id="path47"
       d="M 2.3685391,-6.328125e-4 H 2.9661953 V -1.3717266 h 0.6914063 v -0.515625 H 2.9661953 v -3.0820312 h -0.703125 l -2.12109374,3.1757812 v 0.421875 H 2.3685391 Z m 0,-1.8867187875 H 0.79822656 L 1.9701016,-3.5865703 c 0.140625,-0.2460938 0.28125,-0.46875 0.4101562,-0.703125 h 0.023437 c -0.011719,0.2578125 -0.035156,0.703125 -0.035156,0.9492187 z m 0,0"
       style="fill:#666666;fill-opacity:1;fill-rule:nonzero;stroke:none"
       aria-label="4"
       transform="matrix(1.3333333,0,0,1.3333333,49.978667,200.536)" />
    <path
       id="path48"
       d="m 1.8294766,0.09232031 c 0.8554687,0 1.6757812,-0.609375 1.6757812,-1.68750001 0,-1.0664062 -0.703125,-1.546875 -1.546875,-1.546875 -0.3046875,0 -0.5390625,0.070312 -0.7617187,0.1992188 l 0.1289062,-1.4765625 h 1.921875 V -4.9701797 H 0.76307031 l -0.1640625,2.390625 0.33984375,0.2109375 c 0.29296874,-0.1875 0.51562504,-0.3046875 0.85546874,-0.3046875 0.6445313,0 1.0546875,0.4101563 1.0546875,1.1015625 0,0.69140626 -0.4804687,1.13671876 -1.078125,1.13671876 -0.5976562,0 -0.97265624,-0.28125 -1.26562499,-0.57421876 l -0.31640625,0.42187501 c 0.3515625,0.33984375 0.83203124,0.6796875 1.64062504,0.6796875 z m 0,0"
       style="fill:#666666;fill-opacity:1;fill-rule:nonzero;stroke:none"
       aria-label="5"
       transform="matrix(1.3333333,0,0,1.3333333,49.978667,235.248)" />
    <path
       id="path49"
       d="m 2.0736172,-5.0735781 c 0.609375,0 1.0664062,0.3984375 1.0664062,0.9609375 0,0.5625 -0.4570312,0.9609375 -1.0664062,0.9609375 -0.6210938,0 -1.07812501,-0.3984375 -1.07812501,-0.9609375 0,-0.5625 0.45703121,-0.9609375 1.07812501,-0.9609375 z m 1.546875,0.5273437 h 1.3359375 v 0.84375 H 3.6322109 c 0.035156,-0.1289062 0.058594,-0.2695312 0.058594,-0.4101562 0,-0.1523438 -0.023437,-0.3046875 -0.070313,-0.4335938 z m 1.3359375,-1.21875 v 0.7617188 h -1.59375 c -0.28125,-0.3398438 -0.7382813,-0.5507813 -1.2890625,-0.5507813 -0.9492188,0 -1.62890626,0.5859375 -1.62890626,1.4414063 0,0.84375 0.67968746,1.4414062 1.62890626,1.4414062 0.5507812,0 1.03125,-0.2109375 1.3125,-0.5742187 h 1.5703125 v 0.703125 h 0.5742187 v -3.2226563 z m -3.46875,5.75390628 v 0.46875 h 4.2773437 v -0.46875 h -3.703125 v -0.6796875 h 3.46875 V -2.2142031 H 1.4759609 v 0.46875 h 3.4804688 v 0.6210937 h -3.46875 z m 0,0"
       style="fill:#595959;fill-opacity:1;fill-rule:nonzero;stroke:none"
       aria-label="열"
       transform="matrix(1.3333333,0,0,1.3333333,158.64533,22.741333)" />
    <path
       id="path50"
       d="m 1.9205625,-4.2304531 c -0.796875,0 -1.34765625,0.4335937 -1.34765625,1.0898437 0,0.65625 0.55078125,1.0664063 1.34765625,1.0664063 0.7851562,0 1.3359375,-0.4101563 1.3359375,-1.0664063 0,-0.65625 -0.5507813,-1.0898437 -1.3359375,-1.0898437 z m 0,0.4335937 c 0.4804687,0 0.8203125,0.2578125 0.8203125,0.65625 0,0.3867188 -0.3398438,0.6445313 -0.8203125,0.6445313 -0.4921875,0 -0.8320313,-0.2578125 -0.8320313,-0.6445313 0,-0.3984375 0.3398438,-0.65625 0.8320313,-0.65625 z m 1.6640625,2.1328125 c -1.3125,0 -2.0976563,0.3984375 -2.0976563,1.10156253 0,0.69140625 0.7851563,1.08984375 2.0976563,1.08984375 1.3242187,0 2.109375,-0.3984375 2.109375,-1.08984375 0,-0.70312503 -0.7851563,-1.10156253 -2.109375,-1.10156253 z m 0,0.4453125 c 0.9726562,0 1.5351562,0.23437503 1.5351562,0.65625003 0,0.41015625 -0.5625,0.64453125 -1.5351562,0.64453125 -0.9609375,0 -1.5234375,-0.234375 -1.5234375,-0.64453125 0,-0.421875 0.5625,-0.65625003 1.5234375,-0.65625003 z m 0.1757812,-4.4179687 v 3.6328125 h 0.5390625 v -1.5703125 h 0.8085938 v 1.7929687 h 0.5507812 v -3.984375 H 5.1080625 v 1.7109375 H 4.2994687 v -1.5820312 z m -2.1328125,-0.082031 v 0.703125 H 0.31509375 v 0.4570313 H 3.5025937 V -5.0156094 H 2.2018125 v -0.703125 z m 0,0"
       style="fill:#595959;fill-opacity:1;fill-rule:nonzero;stroke:none"
       aria-label="행"
       transform="matrix(1.3333333,0,0,1.3333333,32.408,148.55467)" />
    <path
       id="path51"
       d="M -12.04738,-12.04738 H 12.04738 V 12.04738 H -12.04738 Z"
       style="fill:#e0e0e0;fill-opacity:1;fill-rule:nonzero;stroke:#666666;stroke-width:0.49814;stroke-linecap:butt;stroke-linejoin:miter;stroke-miterlimit:10;stroke-dasharray:none;stroke-opacity:1"
       transform="matrix(1.3333333,0,0,-1.3333333,75.992,58.133333)" />
    <path
       id="path52"
       d="m 2.731875,-5.7311875 c 0,-0.2226562 -0.011719,-0.234375 -0.234375,-0.234375 -0.5625,0.5625 -1.3828125,0.5625 -1.6640625,0.5625 v 0.28125 c 0.1757813,0 0.7148438,0 1.2070313,-0.234375 v 4.640625 c 0,0.328125 -0.035156,0.43359375 -0.8671875,0.43359375 H 0.89203125 v 0.28125 c 0.31640625,-0.0234375 1.11328125,-0.0234375 1.48828125,-0.0234375 0.3632813,0 1.171875,0 1.4882813,0.0234375 v -0.28125 h -0.28125 c -0.8320313,0 -0.8554688,-0.10546875 -0.8554688,-0.43359375 z m 0,0"
       style="fill:#000000;fill-opacity:1;fill-rule:nonzero;stroke:none"
       aria-label="1"
       transform="matrix(1.3333333,0,0,1.3333333,72.92,61.985333)" />
    <path
       id="path53"
       d="m -12.04738,-38.12639 h 24.09476 v 24.09476 h -24.09476 z"
       style="fill:#e0e0e0;fill-opacity:1;fill-rule:nonzero;stroke:#666666;stroke-width:0.49814;stroke-linecap:butt;stroke-linejoin:miter;stroke-miterlimit:10;stroke-dasharray:none;stroke-opacity:1"
       transform="matrix(1.3333333,0,0,-1.3333333,75.992,58.133333)" />
    <path
       id="path54"
       d="m 2.731875,-5.7301094 c 0,-0.2226562 -0.011719,-0.234375 -0.234375,-0.234375 -0.5625,0.5625 -1.3828125,0.5625 -1.6640625,0.5625 v 0.28125 c 0.1757813,0 0.7148438,0 1.2070313,-0.234375 v 4.64062503 c 0,0.328125 -0.035156,0.43359375 -0.8671875,0.43359375 H 0.89203125 V 3.59375e-4 C 1.2084375,-0.02307812 2.0053125,-0.02307812 2.3803125,-0.02307812 c 0.3632813,0 1.171875,0 1.4882813,0.023437495 V -0.28089062 h -0.28125 c -0.8320313,0 -0.8554688,-0.10546875 -0.8554688,-0.43359375 z m 0,0"
       style="fill:#000000;fill-opacity:1;fill-rule:nonzero;stroke:none"
       aria-label="1"
       transform="matrix(1.3333333,0,0,1.3333333,72.92,96.757333)" />
    <path
       id="path55"
       d="m -12.04738,-64.2054 h 24.09476 v 24.09476 h -24.09476 z"
       style="fill:#e0e0e0;fill-opacity:1;fill-rule:nonzero;stroke:#666666;stroke-width:0.49814;stroke-linecap:butt;stroke-linejoin:miter;stroke-miterlimit:10;stroke-dasharray:none;stroke-opacity:1"
       transform="matrix(1.3333333,0,0,-1.3333333,75.992,58.133333)" />
    <path
       id="path56"
       d="m 2.731875,-5.7290312 c 0,-0.2226563 -0.011719,-0.234375 -0.234375,-0.234375 -0.5625,0.5625 -1.3828125,0.5625 -1.6640625,0.5625 v 0.28125 c 0.1757813,0 0.7148438,0 1.2070313,-0.234375 v 4.64062495 c 0,0.328125 -0.035156,0.43359375 -0.8671875,0.43359375 H 0.89203125 v 0.28125 C 1.2084375,-0.022 2.0053125,-0.022 2.3803125,-0.022 c 0.3632813,0 1.171875,0 1.4882813,0.0234375 v -0.28125 h -0.28125 c -0.8320313,0 -0.8554688,-0.10546875 -0.8554688,-0.43359375 z m 0,0"
       style="fill:#000000;fill-opacity:1;fill-rule:nonzero;stroke:none"
       aria-label="1"
       transform="matrix(1.3333333,0,0,1.3333333,72.92,131.52933)" />
    <path
       id="path57"
       d="m -12.04738,-90.28441 h 24.09476 v 24.09476 h -24.09476 z"
       style="fill:#e0e0e0;fill-opacity:1;fill-rule:nonzero;stroke:#666666;stroke-width:0.49814;stroke-linecap:butt;stroke-linejoin:miter;stroke-miterlimit:10;stroke-dasharray:none;stroke-opacity:1"
       transform="matrix(1.3333333,0,0,-1.3333333,75.992,58.133333)" />
    <path
       id="path58"
       d="m 2.731875,-5.7308828 c 0,-0.2226563 -0.011719,-0.234375 -0.234375,-0.234375 -0.5625,0.5625 -1.3828125,0.5625 -1.6640625,0.5625 v 0.28125 c 0.1757813,0 0.7148438,0 1.2070313,-0.234375 v 4.64062499 c 0,0.328125 -0.035156,0.43359375 -0.8671875,0.43359375 H 0.89203125 V -4.140625e-4 C 1.2084375,-0.02385156 2.0053125,-0.02385156 2.3803125,-0.02385156 c 0.3632813,0 1.171875,0 1.4882813,0.0234374975 V -0.28166406 h -0.28125 c -0.8320313,0 -0.8554688,-0.10546875 -0.8554688,-0.43359375 z m 0,0"
       style="fill:#000000;fill-opacity:1;fill-rule:nonzero;stroke:none"
       aria-label="1"
       transform="matrix(1.3333333,0,0,1.3333333,72.92,166.30133)" />
    <path
       id="path59"
       d="m 14.03162,-116.36343 h 24.09476 v 24.09476 H 14.03162 Z"
       style="fill:#e0e0e0;fill-opacity:1;fill-rule:nonzero;stroke:#666666;stroke-width:0.49814;stroke-linecap:butt;stroke-linejoin:miter;stroke-miterlimit:10;stroke-dasharray:none;stroke-opacity:1"
       transform="matrix(1.3333333,0,0,-1.3333333,75.992,58.133333)" />
    <g
       id="g59"
       aria-label="−1"
       transform="matrix(1.3333333,0,0,1.3333333,102.91333,200.52)">
      <path
         id="path60"
         d="m 6.0474219,-2.0511328 c 0.1640625,0 0.3398437,0 0.3398437,-0.1992188 0,-0.1875 -0.1875,-0.1875 -0.3398437,-0.1875 H 1.1021094 c -0.15234378,0 -0.32812503,0 -0.32812503,0.1875 0,0.1992188 0.1640625,0.1992188 0.32812503,0.1992188 z m 0,0"
         style="fill:#000000;fill-opacity:1;fill-rule:nonzero;stroke:none" />
      <path
         id="path61"
         d="m 9.8970312,-5.7308203 c 0,-0.2226563 -0.011719,-0.234375 -0.234375,-0.234375 -0.5625,0.5625 -1.3828125,0.5625 -1.6640625,0.5625 v 0.28125 c 0.1757813,0 0.7148438,0 1.2070313,-0.234375 v 4.64062499 c 0,0.328125 -0.035156,0.43359375 -0.8671875,0.43359375 h -0.28125 V -3.515625e-4 C 8.3735937,-0.02378906 9.1704687,-0.02378906 9.5454687,-0.02378906 c 0.3632813,0 1.1718753,0 1.4882813,0.0234374975 V -0.28160156 H 10.7525 c -0.8320313,0 -0.8554688,-0.10546875 -0.8554688,-0.43359375 z m 0,0"
         style="fill:#000000;fill-opacity:1;fill-rule:nonzero;stroke:none" />
    </g>
    <path
       id="path62"
       d="m 40.11063,-116.36343 h 24.09476 v 24.09476 H 40.11063 Z"
       style="fill:#e0e0e0;fill-opacity:1;fill-rule:nonzero;stroke:#666666;stroke-width:0.49814;stroke-linecap:butt;stroke-linejoin:miter;stroke-miterlimit:10;stroke-dasharray:none;stroke-opacity:1"
       transform="matrix(1.3333333,0,0,-1.3333333,75.992,58.133333)" />
    <g
       id="g62"
       aria-label="−1"
       transform="matrix(1.3333333,0,0,1.3333333,137.68533,200.52)">
      <path
         id="path63"
         d="m 6.0455703,-2.0511328 c 0.1640625,0 0.3398438,0 0.3398438,-0.1992188 0,-0.1875 -0.1875,-0.1875 -0.3398438,-0.1875 H 1.1002578 c -0.15234374,0 -0.32812499,0 -0.32812499,0.1875 0,0.1992188 0.1640625,0.1992188 0.32812499,0.1992188 z m 0,0"
         style="fill:#000000;fill-opacity:1;fill-rule:nonzero;stroke:none" />
      <path
         id="path64"
         d="m 9.8981094,-5.7308203 c 0,-0.2226563 -0.011719,-0.234375 -0.234375,-0.234375 -0.5625,0.5625 -1.3828125,0.5625 -1.6640625,0.5625 v 0.28125 c 0.1757812,0 0.7148437,0 1.2070312,-0.234375 v 4.64062499 c 0,0.328125 -0.035156,0.43359375 -0.8671875,0.43359375 h -0.28125 V -3.515625e-4 C 8.3746719,-0.02378906 9.1715469,-0.02378906 9.5465469,-0.02378906 c 0.3632812,0 1.1718751,0 1.4882811,0.0234374975 V -0.28160156 h -0.28125 c -0.8320311,0 -0.8554686,-0.10546875 -0.8554686,-0.43359375 z m 0,0"
         style="fill:#000000;fill-opacity:1;fill-rule:nonzero;stroke:none" />
    </g>
    <path
       id="path65"
       d="M 66.18964,-116.36343 H 90.2844 v 24.09476 H 66.18964 Z"
       style="fill:#e0e0e0;fill-opacity:1;fill-rule:nonzero;stroke:#666666;stroke-width:0.49814;stroke-linecap:butt;stroke-linejoin:miter;stroke-miterlimit:10;stroke-dasharray:none;stroke-opacity:1"
       transform="matrix(1.3333333,0,0,-1.3333333,75.992,58.133333)" />
    <g
       id="g65"
       aria-label="−1"
       transform="matrix(1.3333333,0,0,1.3333333,172.45733,200.52)">
      <path
         id="path66"
         d="m 6.0466484,-2.0511328 c 0.1640625,0 0.3398438,0 0.3398438,-0.1992188 0,-0.1875 -0.1875,-0.1875 -0.3398438,-0.1875 H 1.1013359 c -0.15234371,0 -0.32812496,0 -0.32812496,0.1875 0,0.1992188 0.1640625,0.1992188 0.32812496,0.1992188 z m 0,0"
         style="fill:#000000;fill-opacity:1;fill-rule:nonzero;stroke:none" />
      <path
         id="path67"
         d="m 9.8962578,-5.7308203 c 0,-0.2226563 -0.011719,-0.234375 -0.234375,-0.234375 -0.5625,0.5625 -1.3828125,0.5625 -1.6640625,0.5625 v 0.28125 c 0.1757813,0 0.7148438,0 1.2070313,-0.234375 v 4.64062499 c 0,0.328125 -0.035156,0.43359375 -0.8671875,0.43359375 h -0.28125 V -3.515625e-4 C 8.3728203,-0.02378906 9.1696953,-0.02378906 9.5446953,-0.02378906 c 0.3632813,0 1.1718747,0 1.4882817,0.0234374975 V -0.28160156 h -0.28125 c -0.8320317,0 -0.8554692,-0.10546875 -0.8554692,-0.43359375 z m 0,0"
         style="fill:#000000;fill-opacity:1;fill-rule:nonzero;stroke:none" />
    </g>
    <path
       id="path68"
       d="m 92.26866,-116.36343 h 24.09476 v 24.09476 H 92.26866 Z"
       style="fill:#e0e0e0;fill-opacity:1;fill-rule:nonzero;stroke:#666666;stroke-width:0.49814;stroke-linecap:butt;stroke-linejoin:miter;stroke-miterlimit:10;stroke-dasharray:none;stroke-opacity:1"
       transform="matrix(1.3333333,0,0,-1.3333333,75.992,58.133333)" />
    <g
       id="g68"
       aria-label="−1"
       transform="matrix(1.3333333,0,0,1.3333333,207.22933,200.52)">
      <path
         id="path69"
         d="m 6.0477266,-2.0511328 c 0.1640625,0 0.3398437,0 0.3398437,-0.1992188 0,-0.1875 -0.1875,-0.1875 -0.3398437,-0.1875 H 1.1024141 c -0.15234379,0 -0.32812504,0 -0.32812504,0.1875 0,0.1992188 0.1640625,0.1992188 0.32812504,0.1992188 z m 0,0"
         style="fill:#000000;fill-opacity:1;fill-rule:nonzero;stroke:none" />
      <path
         id="path70"
         d="m 9.8973359,-5.7308203 c 0,-0.2226563 -0.011719,-0.234375 -0.234375,-0.234375 -0.5625,0.5625 -1.3828125,0.5625 -1.6640625,0.5625 v 0.28125 c 0.1757813,0 0.7148438,0 1.2070313,-0.234375 v 4.64062499 c 0,0.328125 -0.035156,0.43359375 -0.8671875,0.43359375 h -0.28125 V -3.515625e-4 C 8.3738984,-0.02378906 9.1707734,-0.02378906 9.5457734,-0.02378906 c 0.3632813,0 1.1718746,0 1.4882816,0.0234374975 V -0.28160156 h -0.28125 c -0.8320316,0 -0.8554691,-0.10546875 -0.8554691,-0.43359375 z m 0,0"
         style="fill:#000000;fill-opacity:1;fill-rule:nonzero;stroke:none" />
    </g>
    <path
       id="path71"
       d="M -32.03201,3.40146 V -130.45056"
       style="fill:none;stroke:#474747;stroke-width:0.67746;stroke-linecap:butt;stroke-linejoin:miter;stroke-miterlimit:10;stroke-dasharray:none;stroke-opacity:1"
       transform="matrix(1.3333333,0,0,-1.3333333,75.992,58.133333)" />
    <path
       id="path72"
       d="M 3.65054,0 C 3.20224,0.11142 1.23164,0.74284 0,1.42996 V -1.42996 C 1.23164,-0.74284 3.20224,-0.11142 3.65054,0 Z"
       style="fill:#474747;fill-opacity:1;fill-rule:nonzero;stroke:#474747;stroke-width:0.67746;stroke-linecap:butt;stroke-linejoin:miter;stroke-miterlimit:10;stroke-dasharray:none;stroke-opacity:1"
       transform="matrix(0,1.3333333,1.3333333,0,33.282653,232.06741)" />
    <path
       id="path73"
       d="M 5.1548828,-5.7663203 V 0.53836719 H 5.7056641 V -5.7663203 Z m -1.2890625,0.1289062 v 2.1328125 h -1.03125 v 0.4804688 h 1.03125 V 0.22196094 H 4.4166016 V -5.6374141 Z m -2.203125,0.46875 v 1.1953125 c 0,1.0898438 -0.515625,2.203125 -1.38281249,2.71875 l 0.36328125,0.43359379 C 1.2642578,-1.1960078 1.7095703,-1.9108516 1.9439453,-2.7428828 c 0.2226563,0.7617187 0.6445313,1.4296875 1.2421875,1.78124999 L 3.5142578,-1.4069453 C 2.6939453,-1.8991328 2.2134766,-2.9889766 2.2134766,-3.9850703 v -1.1835938 z m 5.8066406,2.8007813 v 0.46875 h 1.8515625 v 1.18359374 H 6.7662109 v 0.48046875 H 12.484961 V -0.71553906 H 9.8951172 V -1.8991328 h 2.0156248 v -0.46875 H 8.0435547 V -3.3874141 H 11.770117 V -5.2975703 H 7.4576172 v 0.46875 h 3.7382808 v 0.984375 H 7.4693359 Z m 7.9951171,-3.0820313 v 2.2734375 h 4.324219 v -0.46875 h -3.738281 v -1.8046875 z m -0.726562,3.2226563 v 0.4804687 h 2.542968 v 2.28515629 h 0.574219 V -1.7467891 h 2.601563 v -0.4804687 z m 7.388672,0.5742187 v 0.46875 h 3.632812 v 1.72265629 h 0.574219 V -1.6530391 Z m -0.773438,-3.6796875 v 0.46875 h 1.40625 v 0.2578125 c 0,0.8789063 -0.65625,1.7226563 -1.582031,2.0507813 l 0.292969,0.4570312 c 0.75,-0.2695312 1.324218,-0.84375 1.59375,-1.5585937 0.257812,0.6445312 0.808593,1.171875 1.511718,1.4179687 l 0.292969,-0.4570312 c -0.914062,-0.3164063 -1.523437,-1.1015625 -1.523437,-1.921875 v -0.2460938 h 1.371093 v -0.46875 z m 4.40625,-0.4335937 v 1.640625 h -1.230469 v 0.4804687 h 1.230469 v 1.6523438 h 0.574219 v -3.7734375 z m 4.297852,3.9492187 v 2.27343754 h 3.960937 V -1.8171016 h -0.574219 v 0.65625 h -2.8125 v -0.65625 z m 0.574218,1.11328129 h 2.8125 v 0.69140625 h -2.8125 z m 0.375,-3.65624999 c -0.914062,0 -1.511718,0.4335937 -1.511718,1.1015625 0,0.6796875 0.597656,1.1132812 1.511718,1.1132812 0.902344,0 1.5,-0.4335937 1.5,-1.1132812 0,-0.6679688 -0.597656,-1.1015625 -1.5,-1.1015625 z m 0,0.4453125 c 0.574219,0 0.949219,0.2578125 0.949219,0.65625 0,0.4101562 -0.375,0.6679687 -0.949219,0.6679687 -0.574218,0 -0.960937,-0.2578125 -0.960937,-0.6679687 0,-0.3984375 0.386719,-0.65625 0.960937,-0.65625 z m 2.4375,-1.8515625 v 3.6679687 h 0.574219 v -1.5703125 h 0.9375 v -0.4921875 h -0.9375 v -1.6054687 z m -2.730468,-0.058594 v 0.703125 h -1.570313 v 0.46875 h 3.726563 v -0.46875 h -1.570313 v -0.703125 z m 0,0"
       style="fill:#595959;fill-opacity:1;fill-rule:nonzero;stroke:none"
       aria-label="세로누적합"
       transform="matrix(0,-1.3333333,1.3333333,0,22.817333,168.53333)" />
    <path
       id="path74"
       d="M 341.65321,-21.26018 H 186.44606 c -1.10048,0 -1.99256,-0.89207 -1.99256,-1.99255 v -83.89002 c 0,-1.10046 0.89208,-1.99255 1.99256,-1.99255 h 155.20715 c 1.10047,0 1.99256,0.89209 1.99256,1.99255 v 83.89002 c 0,1.10048 -0.89209,1.99255 -1.99256,1.99255 z"
       style="fill:#fcfcfc;fill-opacity:1;fill-rule:nonzero;stroke:#c7c7c7;stroke-width:0.3985;stroke-linecap:butt;stroke-linejoin:miter;stroke-miterlimit:10;stroke-dasharray:none;stroke-opacity:1"
       transform="matrix(1.3333333,0,0,-1.3333333,75.992,58.133333)" />
    <g
       id="g74"
       aria-label="위에서아래로누적한다.&#10;board[i+1][j]+=board[i][j];&#10;같은열에서변화량이이어진다."
       transform="matrix(1.3333333,0,0,1.3333333,337.048,126.60933)">
      <path
         id="path75"
         d="m 3.0929062,-7.0312188 c -1.2070312,0 -2.0625,0.6796875 -2.0625,1.6757813 0,0.984375 0.8554688,1.6640625 2.0625,1.6640625 1.2070313,0 2.0742188,-0.6796875 2.0742188,-1.6640625 0,-0.9960938 -0.8671875,-1.6757813 -2.0742188,-1.6757813 z m 0,0.609375 c 0.796875,0 1.359375,0.4335938 1.359375,1.0664063 0,0.6210937 -0.5625,1.0429687 -1.359375,1.0429687 -0.7851562,0 -1.3476562,-0.421875 -1.3476562,-1.0429687 0,-0.6328125 0.5625,-1.0664063 1.3476562,-1.0664063 z m 3.2578125,-0.984375 V 0.70315625 H 7.089 V -7.4062188 Z M 0.5265,-2.378875 c 0.6679687,0 1.4414062,-0.011719 2.2382812,-0.046875 v 2.87109375 h 0.75 V -2.472625 C 4.2882187,-2.531219 5.0616562,-2.61325 5.823375,-2.753875 L 5.7765,-3.3046563 C 3.99525,-3.035125 1.93275,-3.0116875 0.43275,-3.0116875 Z m 14.34375,-5.0390625 v 8.12109375 h 0.726562 V -7.4179375 Z m -4.347656,1.3710937 c 0.644531,0 1.042968,0.8203125 1.042968,2.1328125 0,1.3125 -0.398437,2.1328125 -1.042968,2.1328125 -0.6328128,0 -1.0312503,-0.8203125 -1.0312503,-2.1328125 0,-1.3125 0.3984375,-2.1328125 1.0312503,-2.1328125 z m 0,-0.6914062 c -1.042969,0 -1.7226565,1.0898437 -1.7226565,2.8242187 0,1.734375 0.6796875,2.8242188 1.7226565,2.8242188 0.996093,0 1.664062,-0.9726563 1.722656,-2.5546875 h 1.019531 v 3.92578125 h 0.703125 V -7.2421563 H 13.264781 V -4.253875 H 12.24525 C 12.163219,-5.7890313 11.506969,-6.73825 10.522594,-6.73825 Z m 12.363281,-0.6796875 v 2.7539062 h -1.886719 v 0.609375 h 1.886719 v 4.75781255 h 0.726562 V -7.4179375 Z m -3.855469,0.703125 v 1.453125 c 0,1.5 -0.902344,3.0585937 -2.097656,3.6445312 l 0.46875,0.609375 c 0.914062,-0.5039062 1.675781,-1.5234375 2.015625,-2.71875 0.363281,1.1367188 1.101562,2.0976563 2.015625,2.5664063 l 0.445312,-0.5976563 c -1.171875,-0.5507812 -2.085937,-2.0390625 -2.085937,-3.5039062 v -1.453125 z m 10.31836,-0.070312 c -1.195313,0 -2.039063,1.1015625 -2.039063,2.8242187 0,1.734375 0.84375,2.8359375 2.039063,2.8359375 1.195312,0 2.039062,-1.1015625 2.039062,-2.8359375 0,-1.7226562 -0.84375,-2.8242187 -2.039062,-2.8242187 z m 0,0.6679687 c 0.785156,0 1.324218,0.84375 1.324218,2.15625 0,1.3125 -0.539062,2.1679688 -1.324218,2.1679688 -0.785157,0 -1.324219,-0.8554688 -1.324219,-2.1679688 0,-1.3125 0.539062,-2.15625 1.324219,-2.15625 z m 3.328125,-1.3007812 v 8.12109375 h 0.75 V -3.55075 h 1.324218 v -0.6210938 h -1.324218 v -3.2460937 z m 3.023437,0.8789062 v 0.6210938 h 2.308594 v 1.6289062 h -2.296875 v 3.046875 h 0.527344 c 1.019531,0 1.921875,-0.035156 3.046875,-0.2226562 l -0.05859,-0.609375 c -1.019535,0.1757807 -1.886723,0.210937 -2.800785,0.210937 v -1.8164063 h 2.296875 v -2.859375 z m 4.078125,-0.6914062 v 7.51171875 h 0.691406 V -3.6093438 h 1.148438 v 4.31250005 h 0.703125 V -7.4179375 h -0.703125 v 3.1992187 h -1.148438 v -3.0117187 z m 4.825195,4.1835937 v 0.609375 h 2.378907 V -0.92575 h -3.292969 v 0.62109375 h 7.359375 V -0.92575 h -3.328125 v -1.5117188 h 2.601562 v -0.609375 H 45.34193 v -1.3125 h 4.792968 V -6.8085625 H 44.59193 v 0.609375 h 4.804687 v 1.2539062 H 44.603648 Z M 54.895641,-6.996062 v 2.9179687 h 5.554687 v -0.609375 H 55.633922 V -6.996062 Z m -0.949219,4.125 v 0.6210937 h 3.269531 v 2.95312505 h 0.75 V -2.2499688 h 3.339844 v -0.6210937 z m 9.503906,0.75 v 0.609375 h 4.675781 v 2.21484375 h 0.738282 V -2.1210625 Z m -0.996094,-4.734375 v 0.609375 h 1.804688 v 0.3164062 c 0,1.1367188 -0.832031,2.2265625 -2.027344,2.6484375 l 0.375,0.5976563 c 0.960938,-0.3515625 1.699219,-1.1015625 2.050781,-2.0273438 0.339844,0.84375 1.042969,1.5117188 1.945313,1.828125 l 0.375,-0.5742187 c -1.171875,-0.4101563 -1.96875,-1.4296875 -1.96875,-2.4726563 V -6.246062 h 1.78125 v -0.609375 z m 5.671875,-0.5625 v 2.1210937 H 66.544078 V -4.67575 h 1.582031 v 2.109375 h 0.738282 v -4.8515625 z m 4.734375,2.0390625 c -1.160156,0 -1.945312,0.5976562 -1.945312,1.5117187 0,0.9140625 0.785156,1.5117188 1.945312,1.5117188 1.148438,0 1.933594,-0.5976563 1.933594,-1.5117188 0,-0.9140625 -0.785156,-1.5117187 -1.933594,-1.5117187 z m 0,0.5859375 c 0.738282,0 1.230469,0.3632812 1.230469,0.9257812 0,0.5625 -0.492187,0.9257813 -1.230469,0.9257813 -0.738281,0 -1.230468,-0.3632813 -1.230468,-0.9257813 0,-0.5625 0.492187,-0.9257812 1.230468,-0.9257812 z m 3.140625,-2.6132813 v 6.0820313 h 0.738282 v -2.8007813 h 1.195312 V -4.746062 h -1.195312 v -2.6601563 z m -3.503906,0 v 0.984375 h -2.027344 v 0.609375 h 4.78125 v -0.609375 h -2.015625 v -0.984375 z m -0.796875,5.5898438 v 2.33203125 h 5.402344 v -0.609375 H 72.426891 V -1.816375 Z M 84.180797,-7.417937 v 8.12109375 h 0.75 V -3.597625 h 1.324219 v -0.6210938 h -1.324219 v -3.1992187 z m -5.132813,0.796875 v 5.3085937 h 0.632813 c 1.523437,0 2.589844,-0.046875 3.84375,-0.2695312 l -0.09375,-0.6445313 c -1.183594,0.2226563 -2.214844,0.28125 -3.644531,0.28125 V -6.011687 h 3.023437 v -0.609375 z m 8.692383,6.73828125 c 0.328125,0 0.597656,-0.24609375 0.597656,-0.62109375 0,-0.375 -0.269531,-0.6210938 -0.597656,-0.6210938 -0.328125,0 -0.585937,0.2460938 -0.585937,0.6210938 0,0.375 0.257812,0.62109375 0.585937,0.62109375 z m 0,0"
         style="fill:#000000;fill-opacity:1;fill-rule:nonzero;stroke:none" />
      <path
         id="path76"
         d="m 4.3936875,15.260773 c 0,-1.066406 -0.7734375,-1.980468 -1.78125,-1.980468 -0.421875,0 -0.796875,0.152343 -1.1015625,0.421875 v -1.605469 c 0,-0.304688 -0.082031,-0.375 -0.3867188,-0.375 H 0.44446875 c -0.1171875,0 -0.375,0 -0.375,0.28125 0,0.292969 0.24609375,0.292969 0.375,0.292969 h 0.3984375 v 4.511718 c 0,0.175782 0,0.386719 0.32812495,0.386719 0.3398438,0 0.3398438,-0.210937 0.3398438,-0.386719 0.2695312,0.269532 0.6210937,0.433594 1.0195312,0.433594 0.9960938,0 1.8632813,-0.855469 1.8632813,-1.980469 z m -0.6679688,0 c 0,0.796875 -0.5742187,1.394532 -1.2304687,1.394532 -0.6445313,0 -0.984375,-0.726563 -0.984375,-1.195313 v -0.621094 c 0,-0.527343 0.5273437,-0.972656 1.0664062,-0.972656 0.6210938,0 1.1484375,0.609375 1.1484375,1.394531 z m 5.1884766,0 c 0,-1.113281 -0.84375,-2.003906 -1.8632812,-2.003906 -1.0078125,0 -1.8515625,0.890625 -1.8515625,2.003906 0,1.113282 0.8554687,1.980469 1.8515625,1.980469 1.0078125,0 1.8632812,-0.867187 1.8632812,-1.980469 z m -0.6679687,-0.07031 c 0,0.808594 -0.5390625,1.464844 -1.1953125,1.464844 -0.6445313,0 -1.1835938,-0.65625 -1.1835938,-1.464844 0,-0.796875 0.5742188,-1.347656 1.1835938,-1.347656 0.6328125,0 1.1953125,0.550781 1.1953125,1.347656 z M 14.067516,16.9014 c 0,-0.292968 -0.246094,-0.292968 -0.386719,-0.292968 -0.128906,0 -0.316406,0 -0.492188,-0.05859 v -1.886719 c 0,-0.703125 -0.539062,-1.40625 -1.792968,-1.40625 -0.410157,0 -1.3125,0 -1.3125,0.679688 0,0.257812 0.1875,0.410156 0.410156,0.410156 0.140625,0 0.421875,-0.04687 0.421875,-0.480469 0.246094,-0.02344 0.410156,-0.02344 0.492187,-0.02344 0.703125,0 1.113282,0.292968 1.113282,0.84375 -1.488282,0.01172 -2.6718754,0.433593 -2.6718754,1.3125 0,0.679687 0.6210934,1.242187 1.4882814,1.242187 0.105469,0 0.785156,0 1.265625,-0.351562 0.222656,0.304687 0.703125,0.304687 0.996094,0.304687 0.257812,0 0.46875,0 0.46875,-0.292969 z m -1.546875,-0.972656 c 0,0.210938 0,0.398438 -0.351563,0.574219 -0.328125,0.152344 -0.726562,0.152344 -0.761719,0.152344 -0.527343,0 -0.902343,-0.292969 -0.902343,-0.65625 0,-0.433594 0.914062,-0.738282 2.015625,-0.75 z m 5.973632,-2.074219 c 0,-0.164062 -0.117187,-0.574218 -0.855468,-0.574218 -0.515625,0 -1.078125,0.222656 -1.511719,0.703125 v -0.28125 c 0,-0.292969 -0.07031,-0.375 -0.375,-0.375 h -0.996094 c -0.140625,0 -0.386719,0 -0.386719,0.292968 0,0.292969 0.234375,0.292969 0.386719,0.292969 h 0.714844 v 2.695313 h -0.714844 c -0.140625,0 -0.386719,0 -0.386719,0.292968 0,0.292969 0.234375,0.292969 0.386719,0.292969 h 2.367188 c 0.128906,0 0.386718,0 0.386718,-0.28125 0,-0.304687 -0.246093,-0.304687 -0.386718,-0.304687 h -0.996094 v -1.066407 c 0,-0.902343 0.609375,-1.675781 1.570312,-1.675781 0.03516,0.328125 0.28125,0.398438 0.398438,0.398438 0.199219,0 0.398437,-0.152344 0.398437,-0.410157 z m 4.962891,3.058594 c 0,-0.304687 -0.246094,-0.304687 -0.375,-0.304687 h -0.398437 v -4.511719 c 0,-0.304688 -0.07031,-0.375 -0.375,-0.375 h -0.679688 c -0.128906,0 -0.375,0 -0.375,0.28125 0,0.292969 0.234375,0.292969 0.375,0.292969 h 0.386719 v 1.371093 c -0.1875,-0.175781 -0.550781,-0.386718 -1.03125,-0.386718 -0.996094,0 -1.851563,0.867187 -1.851563,1.992187 0,1.101563 0.808594,1.96875 1.769532,1.96875 0.410156,0 0.796875,-0.152344 1.113281,-0.480469 0,0.28125 0,0.433594 0.375,0.433594 h 0.691406 c 0.117188,0 0.375,0 0.375,-0.28125 z m -1.441406,-1.464844 c 0,0.480469 -0.398438,1.207032 -1.066406,1.207032 -0.621094,0 -1.148438,-0.609375 -1.148438,-1.382813 0,-0.808594 0.574219,-1.40625 1.230469,-1.40625 0.539062,0 0.984375,0.46875 0.984375,0.949219 z m 5.856445,2.191407 c 0,-0.28125 -0.246094,-0.28125 -0.375,-0.28125 H 26.149547 V 11.55765 h 1.347656 c 0.140625,0 0.375,0 0.375,-0.292968 0,-0.292969 -0.246094,-0.292969 -0.375,-0.292969 h -1.628906 c -0.292969,0 -0.375,0.07031 -0.375,0.375 v 6.210937 c 0,0.304688 0.07031,0.375 0.375,0.375 h 1.628906 c 0.140625,0 0.375,0 0.375,-0.292968 z m 4.49707,-0.726563 c 0,-0.304687 -0.257812,-0.304687 -0.386718,-0.304687 h -0.9375 v -2.90625 c 0,-0.292969 -0.07031,-0.375 -0.375,-0.375 h -1.300782 c -0.140625,0 -0.386718,0 -0.386718,0.292968 0,0.292969 0.234375,0.292969 0.386718,0.292969 h 1.007813 v 2.695313 h -1.089844 c -0.128906,0 -0.375,0 -0.375,0.292968 0,0.292969 0.234375,0.292969 0.375,0.292969 h 2.695313 c 0.128906,0 0.386718,0 0.386718,-0.28125 z m -1.3125,-4.699219 c 0,-0.257812 -0.199218,-0.457031 -0.457031,-0.457031 -0.246094,0 -0.457031,0.199219 -0.457031,0.457031 0,0.246094 0.210937,0.457032 0.457031,0.457032 0.257813,0 0.457031,-0.210938 0.457031,-0.457032 z m 6.266602,2.25 c 0,-0.339843 -0.339844,-0.339843 -0.445313,-0.339843 H 35.635875 V 12.87015 c 0,-0.09375 0,-0.433593 -0.328125,-0.433593 -0.339844,0 -0.339844,0.328125 -0.339844,0.433593 v 1.253907 h -1.242187 c -0.105469,0 -0.445313,0 -0.445313,0.328125 0,0.339843 0.339844,0.339843 0.445313,0.339843 h 1.242187 v 1.242188 c 0,0.105469 0,0.445312 0.328125,0.445312 0.339844,0 0.339844,-0.339843 0.339844,-0.445312 v -1.242188 h 1.242187 c 0.09375,0 0.445313,0 0.445313,-0.328125 z m 4.321289,2.449219 c 0,-0.304687 -0.222656,-0.304687 -0.375,-0.304687 h -0.796875 v -4.617188 c 0,-0.128906 0,-0.375 -0.28125,-0.375 -0.152344,0 -0.222656,0.08203 -0.28125,0.199219 -0.28125,0.632812 -0.632812,0.867187 -0.996094,0.902344 -0.128906,0 -0.328125,0.02344 -0.328125,0.292968 0,0.175782 0.09375,0.28125 0.316407,0.28125 0.351562,0 0.703125,-0.1875 0.914062,-0.363281 v 3.679688 h -0.796875 c -0.152344,0 -0.386719,0 -0.386719,0.304687 0,0.28125 0.246094,0.28125 0.386719,0.28125 h 2.25 c 0.140625,0 0.375,0 0.375,-0.28125 z m 3.462891,0.644531 v -6.210937 c 0,-0.292969 -0.07031,-0.375 -0.375,-0.375 h -1.628907 c -0.128906,0 -0.375,0 -0.375,0.292969 0,0.292968 0.234375,0.292968 0.375,0.292968 h 1.335938 v 5.800782 h -1.335938 c -0.128906,0 -0.375,0 -0.375,0.28125 0,0.292968 0.234375,0.292968 0.375,0.292968 h 1.628907 c 0.292968,0 0.375,-0.07031 0.375,-0.375 z m 6.301757,0.08203 c 0,-0.28125 -0.246093,-0.28125 -0.375,-0.28125 h -1.347656 v -5.800782 h 1.347656 c 0.140625,0 0.375,0 0.375,-0.292968 0,-0.292969 -0.246093,-0.292969 -0.375,-0.292969 h -1.628906 c -0.292969,0 -0.375,0.07031 -0.375,0.375 v 6.210937 c 0,0.304688 0.07031,0.375 0.375,0.375 h 1.628906 c 0.140625,0 0.375,0 0.375,-0.292968 z m 3.700196,-0.08203 v -3.85547 c 0,-0.292969 -0.07031,-0.375 -0.375,-0.375 h -1.453125 c -0.140625,0 -0.375,0 -0.375,0.292968 0,0.292969 0.234375,0.292969 0.375,0.292969 h 1.160156 v 3.621094 c 0,0.140625 0,0.480469 -0.234375,0.808594 -0.234375,0.304687 -0.492187,0.304687 -0.691406,0.304687 -0.128906,0 -0.1875,0 -0.316406,-0.01172 -0.140625,-0.01172 -0.152344,-0.02344 -0.152344,-0.09375 -0.01172,-0.351562 -0.304688,-0.433593 -0.410156,-0.433593 -0.199219,0 -0.421875,0.140625 -0.421875,0.433593 0,0.691407 0.890625,0.691407 1.253906,0.691407 1.300781,0 1.640625,-1.066407 1.640625,-1.675782 z m 0.01172,-5.34375 c 0,-0.257812 -0.210938,-0.457031 -0.457032,-0.457031 -0.257812,0 -0.457031,0.199219 -0.457031,0.457031 0,0.246094 0.199219,0.457032 0.457031,0.457032 0.246094,0 0.457032,-0.210938 0.457032,-0.457032 z m 4.110351,5.34375 v -6.210937 c 0,-0.292969 -0.07031,-0.375 -0.375,-0.375 h -1.628906 c -0.128906,0 -0.375,0 -0.375,0.292969 0,0.292968 0.234375,0.292968 0.375,0.292968 h 1.335937 v 5.800782 h -1.335937 c -0.128906,0 -0.375,0 -0.375,0.28125 0,0.292968 0.234375,0.292968 0.375,0.292968 h 1.628906 c 0.292969,0 0.375,-0.07031 0.375,-0.375 z M 70.264782,14.4639 c 0,-0.339843 -0.339844,-0.339843 -0.445312,-0.339843 H 68.577282 V 12.87015 c 0,-0.09375 0,-0.433593 -0.328125,-0.433593 -0.339844,0 -0.339844,0.328125 -0.339844,0.433593 v 1.253907 h -1.242187 c -0.105469,0 -0.445313,0 -0.445313,0.328125 0,0.339843 0.339844,0.339843 0.445313,0.339843 h 1.242187 v 1.242188 c 0,0.105469 0,0.445312 0.328125,0.445312 0.339844,0 0.339844,-0.339843 0.339844,-0.445312 v -1.242188 h 1.242188 c 0.09375,0 0.445312,0 0.445312,-0.328125 z m 4.716797,-0.679687 c 0,-0.351563 -0.351562,-0.351563 -0.480469,-0.351563 h -3.082031 c -0.128906,0 -0.480469,0 -0.480469,0.351563 0,0.328125 0.328125,0.328125 0.421875,0.328125 h 3.199219 c 0.09375,0 0.421875,0 0.421875,-0.328125 z m 0,1.347656 c 0,-0.328125 -0.328125,-0.328125 -0.421875,-0.328125 h -3.199219 c -0.09375,0 -0.421875,0 -0.421875,0.328125 0,0.339844 0.351563,0.339844 0.480469,0.339844 h 3.082031 c 0.128907,0 0.480469,0 0.480469,-0.339844 z m 9.439453,0.128906 c 0,-1.066406 -0.773437,-1.980468 -1.78125,-1.980468 -0.421875,0 -0.796875,0.152343 -1.101562,0.421875 v -1.605469 c 0,-0.304688 -0.08203,-0.375 -0.386719,-0.375 h -0.679688 c -0.117187,0 -0.375,0 -0.375,0.28125 0,0.292969 0.246094,0.292969 0.375,0.292969 h 0.398438 v 4.511718 c 0,0.175782 0,0.386719 0.328125,0.386719 0.339844,0 0.339844,-0.210937 0.339844,-0.386719 0.269531,0.269532 0.621093,0.433594 1.019531,0.433594 0.996094,0 1.863281,-0.855469 1.863281,-1.980469 z m -0.667969,0 c 0,0.796875 -0.574218,1.394532 -1.230468,1.394532 -0.644532,0 -0.984375,-0.726563 -0.984375,-1.195313 V 14.8389 c 0,-0.527343 0.527343,-0.972656 1.066406,-0.972656 0.621094,0 1.148437,0.609375 1.148437,1.394531 z m 5.185547,0 c 0,-1.113281 -0.84375,-2.003906 -1.863281,-2.003906 -1.007812,0 -1.851562,0.890625 -1.851562,2.003906 0,1.113282 0.855468,1.980469 1.851562,1.980469 1.007813,0 1.863281,-0.867187 1.863281,-1.980469 z m -0.667968,-0.07031 c 0,0.808594 -0.539063,1.464844 -1.195313,1.464844 -0.644531,0 -1.183594,-0.65625 -1.183594,-1.464844 0,-0.796875 0.574219,-1.347656 1.183594,-1.347656 0.632813,0 1.195313,0.550781 1.195313,1.347656 z m 5.821289,1.710937 c 0,-0.292968 -0.246094,-0.292968 -0.386719,-0.292968 -0.128906,0 -0.316406,0 -0.492188,-0.05859 v -1.886719 c 0,-0.703125 -0.539062,-1.40625 -1.792968,-1.40625 -0.410157,0 -1.3125,0 -1.3125,0.679688 0,0.257812 0.1875,0.410156 0.410156,0.410156 0.140625,0 0.421875,-0.04687 0.421875,-0.480469 0.246094,-0.02344 0.410156,-0.02344 0.492187,-0.02344 0.703125,0 1.113282,0.292968 1.113282,0.84375 -1.488282,0.01172 -2.671875,0.433593 -2.671875,1.3125 0,0.679687 0.621093,1.242187 1.488281,1.242187 0.105469,0 0.785156,0 1.265625,-0.351562 0.222656,0.304687 0.703125,0.304687 0.996094,0.304687 0.257812,0 0.46875,0 0.46875,-0.292969 z m -1.546875,-0.972656 c 0,0.210938 0,0.398438 -0.351563,0.574219 -0.328125,0.152344 -0.726562,0.152344 -0.761719,0.152344 -0.527343,0 -0.902343,-0.292969 -0.902343,-0.65625 0,-0.433594 0.914062,-0.738282 2.015625,-0.75 z m 5.973632,-2.074219 c 0,-0.164062 -0.117187,-0.574218 -0.855468,-0.574218 -0.515625,0 -1.078125,0.222656 -1.511719,0.703125 v -0.28125 c 0,-0.292969 -0.07031,-0.375 -0.375,-0.375 h -0.996094 c -0.140625,0 -0.386719,0 -0.386719,0.292968 0,0.292969 0.234375,0.292969 0.386719,0.292969 h 0.714844 v 2.695313 h -0.714844 c -0.140625,0 -0.386719,0 -0.386719,0.292968 0,0.292969 0.234375,0.292969 0.386719,0.292969 h 2.367188 c 0.128906,0 0.386718,0 0.386718,-0.28125 0,-0.304687 -0.246093,-0.304687 -0.386718,-0.304687 H 96.1515 v -1.066407 c 0,-0.902343 0.609375,-1.675781 1.570312,-1.675781 0.03516,0.328125 0.28125,0.398438 0.398438,0.398438 0.199219,0 0.398437,-0.152344 0.398438,-0.410157 z m 4.965822,3.058594 c 0,-0.304687 -0.2461,-0.304687 -0.375,-0.304687 h -0.39844 v -4.511719 c 0,-0.304688 -0.0703,-0.375 -0.375,-0.375 h -0.67969 c -0.1289,0 -0.375,0 -0.375,0.28125 0,0.292969 0.23438,0.292969 0.375,0.292969 h 0.38672 v 1.371093 c -0.1875,-0.175781 -0.55078,-0.386718 -1.03125,-0.386718 -0.99609,0 -1.85156,0.867187 -1.85156,1.992187 0,1.101563 0.808594,1.96875 1.76953,1.96875 0.41016,0 0.79688,-0.152344 1.11328,-0.480469 0,0.28125 0,0.433594 0.375,0.433594 h 0.69141 c 0.11719,0 0.375,0 0.375,-0.28125 z m -1.44141,-1.464844 c 0,0.480469 -0.39844,1.207032 -1.0664,1.207032 -0.6211,0 -1.148441,-0.609375 -1.148441,-1.382813 0,-0.808594 0.574221,-1.40625 1.230471,-1.40625 0.53906,0 0.98437,0.46875 0.98437,0.949219 z m 5.85352,2.191407 c 0,-0.28125 -0.2461,-0.28125 -0.375,-0.28125 h -1.34766 v -5.800782 h 1.34766 c 0.14062,0 0.375,0 0.375,-0.292968 0,-0.292969 -0.2461,-0.292969 -0.375,-0.292969 h -1.62891 c -0.29297,0 -0.375,0.07031 -0.375,0.375 v 6.210937 c 0,0.304688 0.0703,0.375 0.375,0.375 h 1.62891 c 0.14062,0 0.375,0 0.375,-0.292968 z m 4.49707,-0.726563 c 0,-0.304687 -0.25781,-0.304687 -0.38672,-0.304687 h -0.9375 v -2.90625 c 0,-0.292969 -0.0703,-0.375 -0.375,-0.375 h -1.30078 c -0.14063,0 -0.38672,0 -0.38672,0.292968 0,0.292969 0.23437,0.292969 0.38672,0.292969 h 1.00781 v 2.695313 h -1.08984 c -0.12891,0 -0.375,0 -0.375,0.292968 0,0.292969 0.23437,0.292969 0.375,0.292969 h 2.69531 c 0.12891,0 0.38672,0 0.38672,-0.28125 z m -1.3125,-4.699219 c 0,-0.257812 -0.19922,-0.457031 -0.45703,-0.457031 -0.2461,0 -0.45703,0.199219 -0.45703,0.457031 0,0.246094 0.21093,0.457032 0.45703,0.457032 0.25781,0 0.45703,-0.210938 0.45703,-0.457032 z m 4.63769,5.34375 v -6.210937 c 0,-0.292969 -0.0703,-0.375 -0.375,-0.375 h -1.6289 c -0.12891,0 -0.375,0 -0.375,0.292969 0,0.292968 0.23437,0.292968 0.375,0.292968 h 1.33593 v 5.800782 h -1.33593 c -0.12891,0 -0.375,0 -0.375,0.28125 0,0.292968 0.23437,0.292968 0.375,0.292968 h 1.6289 c 0.29297,0 0.375,-0.07031 0.375,-0.375 z m 6.30176,0.08203 c 0,-0.28125 -0.24609,-0.28125 -0.375,-0.28125 h -1.34766 V 11.55765 h 1.34766 c 0.14063,0 0.375,0 0.375,-0.292968 0,-0.292969 -0.24609,-0.292969 -0.375,-0.292969 h -1.62891 c -0.29296,0 -0.375,0.07031 -0.375,0.375 v 6.210937 c 0,0.304688 0.0703,0.375 0.375,0.375 h 1.62891 c 0.14063,0 0.375,0 0.375,-0.292968 z m 3.7002,-0.08203 V 13.70218 c 0,-0.292969 -0.0703,-0.375 -0.375,-0.375 h -1.45313 c -0.14062,0 -0.375,0 -0.375,0.292968 0,0.292969 0.23438,0.292969 0.375,0.292969 h 1.16016 v 3.621094 c 0,0.140625 0,0.480469 -0.23438,0.808594 -0.23437,0.304687 -0.49219,0.304687 -0.6914,0.304687 -0.12891,0 -0.1875,0 -0.31641,-0.01172 -0.14063,-0.01172 -0.15234,-0.02344 -0.15234,-0.09375 -0.0117,-0.351562 -0.30469,-0.433593 -0.41016,-0.433593 -0.19922,0 -0.42188,0.140625 -0.42188,0.433593 0,0.691407 0.89063,0.691407 1.25391,0.691407 1.30078,0 1.64063,-1.066407 1.64063,-1.675782 z m 0.0117,-5.34375 c 0,-0.257812 -0.21093,-0.457031 -0.45703,-0.457031 -0.25781,0 -0.45703,0.199219 -0.45703,0.457031 0,0.246094 0.19922,0.457032 0.45703,0.457032 0.2461,0 0.45703,-0.210938 0.45703,-0.457032 z m 4.10743,5.34375 v -6.210937 c 0,-0.292969 -0.0703,-0.375 -0.375,-0.375 h -1.62891 c -0.12891,0 -0.375,0 -0.375,0.292969 0,0.292968 0.23438,0.292968 0.375,0.292968 h 1.33594 v 5.800782 h -1.33594 c -0.12891,0 -0.375,0 -0.375,0.28125 0,0.292968 0.23438,0.292968 0.375,0.292968 h 1.62891 c 0.29297,0 0.375,-0.07031 0.375,-0.375 z m 4.88379,-3.65625 c 0,-0.328125 -0.26954,-0.574218 -0.5625,-0.574218 -0.32813,0 -0.57422,0.28125 -0.57422,0.5625 0,0.339843 0.28125,0.574218 0.5625,0.574218 0.33984,0 0.57422,-0.269531 0.57422,-0.5625 z m 0.0469,3.046875 c 0,-0.550781 -0.23437,-0.890625 -0.62109,-0.890625 -0.31641,0 -0.5625,0.246094 -0.5625,0.5625 0,0.210938 0.1289,0.550782 0.57422,0.574219 -0.082,0.304688 -0.29297,0.550781 -0.5625,0.691406 -0.0586,0.02344 -0.19922,0.09375 -0.19922,0.257813 0,0.140625 0.14062,0.292969 0.30468,0.292969 0.19922,0 1.06641,-0.480469 1.06641,-1.488282 z m 0,0"
         style="fill:#000000;fill-opacity:1;fill-rule:nonzero;stroke:none" />
      <path
         id="path77"
         d="m 5.9991562,26.970734 v 4.335938 H 6.7374375 V 29.478547 H 7.93275 V 28.857453 H 6.7374375 v -1.886719 z m -5.17968745,0.574219 v 0.609375 H 3.7491562 C 3.6436875,29.408234 2.5069687,30.416047 0.479625,30.861359 l 0.3046875,0.609375 C 3.1515,30.919953 4.5694687,29.584016 4.5694687,27.544953 Z m 0.80859375,6.867188 v 0.5625 h 5.3320312 v -0.5625 H 2.3780625 v -0.832032 h 4.3125 v -0.550781 h -4.3125 v -0.796875 h 4.3945312 v -0.5625 H 1.6280625 Z m 7.0664062,-3.175782 v 0.609375 h 7.3242183 v -0.609375 z m 3.6562503,-3.984375 c -1.734375,0 -2.8476565,0.597657 -2.8476565,1.617188 0,1.007812 1.1132815,1.617187 2.8476565,1.617187 1.746093,0 2.859375,-0.609375 2.859375,-1.617187 0,-1.019531 -1.113282,-1.617188 -2.859375,-1.617188 z m 0,0.597657 c 1.289062,0 2.097656,0.386718 2.097656,1.019531 0,0.632812 -0.808594,1.007812 -2.097656,1.007812 -1.265625,0 -2.085938,-0.375 -2.085938,-1.007812 0,-0.632813 0.820313,-1.019531 2.085938,-1.019531 z m -2.7070315,4.710937 v 2.34375 H 15.210094 V 34.294953 H 10.381969 V 32.560578 Z M 21.157359,27.861359 c 0.796875,0 1.371094,0.515625 1.371094,1.242188 0,0.726562 -0.574219,1.230469 -1.371094,1.230469 -0.796875,0 -1.382812,-0.503907 -1.382812,-1.230469 0,-0.726563 0.585937,-1.242188 1.382812,-1.242188 z m 2.003907,0.679688 h 1.710937 v 1.089844 h -1.699219 c 0.03516,-0.164063 0.07031,-0.339844 0.07031,-0.527344 0,-0.199219 -0.03516,-0.386719 -0.08203,-0.5625 z m 1.710937,-1.570313 v 0.984375 h -2.050781 c -0.363281,-0.445312 -0.949219,-0.703125 -1.664063,-0.703125 -1.207031,0 -2.085937,0.75 -2.085937,1.851563 0,1.078125 0.878906,1.839844 2.085937,1.839844 0.714844,0 1.324219,-0.269532 1.6875,-0.726563 h 2.027344 v 0.914063 h 0.738281 v -4.160157 z m -4.464844,7.40625 v 0.597657 h 5.507813 v -0.597657 h -4.769531 v -0.878906 h 4.464843 v -1.957031 h -5.226562 v 0.597656 h 4.488281 v 0.796875 h -4.464844 z m 12.960938,-7.40625 v 8.121094 h 0.726562 v -8.121094 z m -4.347656,1.371094 c 0.644531,0 1.042968,0.820313 1.042968,2.132813 0,1.3125 -0.398437,2.132812 -1.042968,2.132812 -0.632813,0 -1.03125,-0.820312 -1.03125,-2.132812 0,-1.3125 0.398437,-2.132813 1.03125,-2.132813 z m 0,-0.691406 c -1.042969,0 -1.722657,1.089844 -1.722657,2.824219 0,1.734375 0.679688,2.824218 1.722657,2.824218 0.996093,0 1.664062,-0.972656 1.722656,-2.554687 h 1.019531 v 3.925781 h 0.703125 v -7.523437 h -0.703125 v 2.988281 h -1.019531 c -0.08203,-1.535156 -0.738281,-2.484375 -1.722656,-2.484375 z m 12.363281,-0.679688 v 2.753907 h -1.886719 v 0.609375 h 1.886719 v 4.757812 h 0.726562 v -8.121094 z m -3.855469,0.703125 v 1.453125 c 0,1.5 -0.902344,3.058594 -2.097656,3.644532 l 0.46875,0.609375 c 0.914062,-0.503907 1.675781,-1.523438 2.015625,-2.71875 0.363281,1.136718 1.101562,2.097656 2.015625,2.566406 l 0.445312,-0.597656 c -1.171875,-0.550782 -2.085937,-2.039063 -2.085937,-3.503907 v -1.453125 z m 9.307617,1.851563 h 2.191407 v 1.476562 H 46.83607 Z m 4.792969,-0.457031 v 1.148437 h -1.863281 v -1.148437 z m -5.53125,-1.546875 v 4.078125 h 3.667969 v -0.773438 h 1.863281 v 2.15625 h 0.738281 v -6 h -0.738281 v 1.476563 h -1.863281 v -0.9375 h -0.738281 v 1.429687 H 46.83607 v -1.429687 z m 1.066406,4.875 v 2.507812 h 5.390625 v -0.609375 h -4.652343 v -1.898437 z m 9.254883,-2.789063 c 0.726563,0 1.207031,0.375 1.207031,0.925781 0,0.550782 -0.480468,0.914063 -1.207031,0.914063 -0.726562,0 -1.207031,-0.363281 -1.207031,-0.914063 0,-0.550781 0.480469,-0.925781 1.207031,-0.925781 z m 0,-0.574219 c -1.136719,0 -1.910156,0.597657 -1.910156,1.5 0,0.796875 0.609375,1.359375 1.535156,1.476563 v 0.878906 c -0.785156,0.03516 -1.546875,0.03516 -2.191406,0.03516 l 0.117187,0.621094 c 1.40625,0 3.304688,-0.01172 5.050782,-0.328125 l -0.04687,-0.550781 c -0.691407,0.105469 -1.441407,0.164062 -2.179688,0.199219 v -0.855469 c 0.925781,-0.117188 1.535156,-0.667969 1.535156,-1.476563 0,-0.902343 -0.773437,-1.5 -1.910156,-1.5 z m 3.035156,-2.0625 v 8.121094 h 0.738282 v -4.042969 h 1.265625 v -0.632812 h -1.265625 v -3.445313 z m -3.410156,0.02344 v 0.960937 h -2.050781 v 0.609375 h 4.839844 v -0.609375 h -2.039063 v -0.960937 z m 9.855469,5.121094 c -1.652344,0 -2.671875,0.550781 -2.671875,1.488281 0,0.925781 1.019531,1.464844 2.671875,1.464844 1.652344,0 2.660156,-0.539063 2.660156,-1.464844 0,-0.9375 -1.007812,-1.488281 -2.660156,-1.488281 z m 0,0.585937 c 1.207031,0 1.933594,0.328125 1.933594,0.902344 0,0.5625 -0.726563,0.890625 -1.933594,0.890625 -1.207031,0 -1.945313,-0.328125 -1.945313,-0.890625 0,-0.574219 0.738282,-0.902344 1.945313,-0.902344 z m 1.851562,-5.71875 v 4.910156 h 0.738282 v -1.324218 h 1.207031 v -0.621094 h -1.207031 v -1.078125 h 1.207031 v -0.632813 h -1.207031 v -1.253906 z m -5.214843,0.503906 v 0.597657 h 2.917968 v 1.019531 h -2.90625 v 2.308594 h 0.632813 c 1.511719,0 2.578125,-0.04687 3.855469,-0.269532 l -0.07031,-0.609375 c -1.230469,0.210938 -2.261719,0.257813 -3.679687,0.257813 V 29.677768 H 66.1808 v -2.191407 z m 13.804687,-0.515625 v 8.121094 h 0.738281 v -8.121094 z m -3.539062,0.632813 c -1.195313,0 -2.0625,1.101562 -2.0625,2.824219 0,1.734375 0.867187,2.835937 2.0625,2.835937 1.195312,0 2.0625,-1.101562 2.0625,-2.835937 0,-1.722657 -0.867188,-2.824219 -2.0625,-2.824219 z m 0,0.667969 c 0.796875,0 1.335937,0.84375 1.335937,2.15625 0,1.3125 -0.539062,2.167968 -1.335937,2.167968 -0.796875,0 -1.335938,-0.855468 -1.335938,-2.167968 0,-1.3125 0.539063,-2.15625 1.335938,-2.15625 z m 13.795898,-1.300782 v 8.121094 h 0.738281 v -8.121094 z m -3.539062,0.632813 c -1.195313,0 -2.0625,1.101562 -2.0625,2.824219 0,1.734375 0.867187,2.835937 2.0625,2.835937 1.195312,0 2.0625,-1.101562 2.0625,-2.835937 0,-1.722657 -0.867188,-2.824219 -2.0625,-2.824219 z m 0,0.667969 c 0.796875,0 1.335937,0.84375 1.335937,2.15625 0,1.3125 -0.539062,2.167968 -1.335937,2.167968 -0.796875,0 -1.335938,-0.855468 -1.335938,-2.167968 0,-1.3125 0.539063,-2.15625 1.335938,-2.15625 z m 8.0625,0 c 0.773437,0 1.3125,0.84375 1.3125,2.15625 0,1.3125 -0.539063,2.167968 -1.3125,2.167968 -0.773438,0 -1.3125,-0.855468 -1.3125,-2.167968 0,-1.3125 0.539062,-2.15625 1.3125,-2.15625 z m 3.773437,-1.300782 v 3.09375 h -1.769531 c -0.105469,-1.511718 -0.902344,-2.460937 -2.003906,-2.460937 -1.183594,0 -2.027344,1.101562 -2.027344,2.824219 0,1.734375 0.84375,2.835937 2.027344,2.835937 1.125,0 1.933593,-1.007812 2.003906,-2.589844 h 1.769531 v 4.417969 h 0.726563 v -8.121094 z m 8.211916,0.01172 v 5.941406 h 0.73828 v -5.941406 z m -5.601564,0.667969 V 28.2598 h 1.863281 v 0.433594 c 0,1.148437 -0.84375,2.203125 -2.0625,2.636718 l 0.386719,0.585938 c 0.972656,-0.351563 1.710937,-1.078125 2.0625,-1.992188 0.363284,0.84375 1.101564,1.511719 2.027344,1.828125 l 0.375,-0.585937 c -1.19531,-0.386719 -2.03906,-1.371094 -2.03906,-2.472656 V 28.2598 h 1.82812 v -0.609375 z m 1.136718,4.710937 v 2.542969 h 5.460936 V 34.294953 H 99.380016 V 32.361359 Z M 110.9347,26.970734 v 8.121094 h 0.75 v -4.300781 h 1.32422 v -0.621094 h -1.32422 v -3.199219 z m -5.13281,0.796875 v 5.308594 h 0.63281 c 1.52344,0 2.58985,-0.04687 3.84375,-0.269531 l -0.0937,-0.644531 c -1.18359,0.222656 -2.21484,0.28125 -3.64453,0.28125 v -4.066407 h 3.02344 v -0.609375 z m 8.69531,6.738282 c 0.32813,0 0.59766,-0.246094 0.59766,-0.621094 0,-0.375 -0.26953,-0.621094 -0.59766,-0.621094 -0.32812,0 -0.58593,0.246094 -0.58593,0.621094 0,0.375 0.25781,0.621094 0.58593,0.621094 z m 0,0"
         style="fill:#000000;fill-opacity:1;fill-rule:nonzero;stroke:none" />
    </g>
  </g>
</svg>
