<?xml version="1.0" encoding="UTF-8" standalone="no"?>
<!-- Created with Inkscape (http://www.inkscape.org/) -->

<svg
   version="1.1"
   id="svg1"
   width="540.26666"
   height="259.01334"
   viewBox="0 0 540.26666 259.01334"
   sodipodi:docname="8.pdf"
   xmlns:inkscape="http://www.inkscape.org/namespaces/inkscape"
   xmlns:sodipodi="http://sodipodi.sourceforge.net/DTD/sodipodi-0.dtd"
   xmlns="http://www.w3.org/2000/svg"
   xmlns:svg="http://www.w3.org/2000/svg">
  <defs
     id="defs1" />
  <sodipodi:namedview
     id="namedview1"
     pagecolor="#ffffff"
     bordercolor="#000000"
     borderopacity="0.25"
     inkscape:showpageshadow="2"
     inkscape:pageopacity="0.0"
     inkscape:pagecheckerboard="0"
     inkscape:deskcolor="#d1d1d1">
    <inkscape:page
       x="0"
       y="0"
       inkscape:label="1"
       id="page1"
       width="540.26666"
       height="259.01334"
       margin="0"
       bleed="0" />
  </sodipodi:namedview>
  <g
     id="g1"
     inkscape:groupmode="layer"
     inkscape:label="1">
    <path
       id="path1"
       d="M -12.04738,-12.04738 H 12.04738 V 12.04738 H -12.04738 Z"
       style="fill:#ffffff;fill-opacity:1;fill-rule:nonzero;stroke:#666666;stroke-width:0.49814;stroke-linecap:butt;stroke-linejoin:miter;stroke-miterlimit:10;stroke-dasharray:none;stroke-opacity:1"
       transform="matrix(1.3333333,0,0,-1.3333333,58.638667,58.133333)" />
    <path
       id="path2"
       d="M 14.03162,-12.04738 H 38.12638 V 12.04738 H 14.03162 Z"
       style="fill:#ffffff;fill-opacity:1;fill-rule:nonzero;stroke:#666666;stroke-width:0.49814;stroke-linecap:butt;stroke-linejoin:miter;stroke-miterlimit:10;stroke-dasharray:none;stroke-opacity:1"
       transform="matrix(1.3333333,0,0,-1.3333333,58.638667,58.133333)" />
    <path
       id="path3"
       d="M 40.11063,-12.04738 H 64.20539 V 12.04738 H 40.11063 Z"
       style="fill:#ffffff;fill-opacity:1;fill-rule:nonzero;stroke:#666666;stroke-width:0.49814;stroke-linecap:butt;stroke-linejoin:miter;stroke-miterlimit:10;stroke-dasharray:none;stroke-opacity:1"
       transform="matrix(1.3333333,0,0,-1.3333333,58.638667,58.133333)" />
    <path
       id="path4"
       d="M 66.18964,-12.04738 H 90.2844 V 12.04738 H 66.18964 Z"
       style="fill:#ffffff;fill-opacity:1;fill-rule:nonzero;stroke:#666666;stroke-width:0.49814;stroke-linecap:butt;stroke-linejoin:miter;stroke-miterlimit:10;stroke-dasharray:none;stroke-opacity:1"
       transform="matrix(1.3333333,0,0,-1.3333333,58.638667,58.133333)" />
    <path
       id="path5"
       d="m 92.26866,-12.04738 h 24.09476 V 12.04738 H 92.26866 Z"
       style="fill:#ffffff;fill-opacity:1;fill-rule:nonzero;stroke:#666666;stroke-width:0.49814;stroke-linecap:butt;stroke-linejoin:miter;stroke-miterlimit:10;stroke-dasharray:none;stroke-opacity:1"
       transform="matrix(1.3333333,0,0,-1.3333333,58.638667,58.133333)" />
    <path
       id="path6"
       d="m 118.34767,-12.04738 h 24.09476 v 24.09476 h -24.09476 z"
       style="fill:#ffffff;fill-opacity:1;fill-rule:nonzero;stroke:#666666;stroke-width:0.49814;stroke-linecap:butt;stroke-linejoin:miter;stroke-miterlimit:10;stroke-dasharray:none;stroke-opacity:1"
       transform="matrix(1.3333333,0,0,-1.3333333,58.638667,58.133333)" />
    <path
       id="path7"
       d="m -12.04738,-38.12639 h 24.09476 v 24.09476 h -24.09476 z"
       style="fill:#ffffff;fill-opacity:1;fill-rule:nonzero;stroke:#666666;stroke-width:0.49814;stroke-linecap:butt;stroke-linejoin:miter;stroke-miterlimit:10;stroke-dasharray:none;stroke-opacity:1"
       transform="matrix(1.3333333,0,0,-1.3333333,58.638667,58.133333)" />
    <path
       id="path8"
       d="m 14.03162,-38.12639 h 24.09476 v 24.09476 H 14.03162 Z"
       style="fill:#ffffff;fill-opacity:1;fill-rule:nonzero;stroke:#666666;stroke-width:0.49814;stroke-linecap:butt;stroke-linejoin:miter;stroke-miterlimit:10;stroke-dasharray:none;stroke-opacity:1"
       transform="matrix(1.3333333,0,0,-1.3333333,58.638667,58.133333)" />
    <path
       id="path9"
       d="m 40.11063,-38.12639 h 24.09476 v 24.09476 H 40.11063 Z"
       style="fill:#ffffff;fill-opacity:1;fill-rule:nonzero;stroke:#666666;stroke-width:0.49814;stroke-linecap:butt;stroke-linejoin:miter;stroke-miterlimit:10;stroke-dasharray:none;stroke-opacity:1"
       transform="matrix(1.3333333,0,0,-1.3333333,58.638667,58.133333)" />
    <path
       id="path10"
       d="M 66.18964,-38.12639 H 90.2844 v 24.09476 H 66.18964 Z"
       style="fill:#ffffff;fill-opacity:1;fill-rule:nonzero;stroke:#666666;stroke-width:0.49814;stroke-linecap:butt;stroke-linejoin:miter;stroke-miterlimit:10;stroke-dasharray:none;stroke-opacity:1"
       transform="matrix(1.3333333,0,0,-1.3333333,58.638667,58.133333)" />
    <path
       id="path11"
       d="m 92.26866,-38.12639 h 24.09476 v 24.09476 H 92.26866 Z"
       style="fill:#ffffff;fill-opacity:1;fill-rule:nonzero;stroke:#666666;stroke-width:0.49814;stroke-linecap:butt;stroke-linejoin:miter;stroke-miterlimit:10;stroke-dasharray:none;stroke-opacity:1"
       transform="matrix(1.3333333,0,0,-1.3333333,58.638667,58.133333)" />
    <path
       id="path12"
       d="m 118.34767,-38.12639 h 24.09476 v 24.09476 h -24.09476 z"
       style="fill:#ffffff;fill-opacity:1;fill-rule:nonzero;stroke:#666666;stroke-width:0.49814;stroke-linecap:butt;stroke-linejoin:miter;stroke-miterlimit:10;stroke-dasharray:none;stroke-opacity:1"
       transform="matrix(1.3333333,0,0,-1.3333333,58.638667,58.133333)" />
    <path
       id="path13"
       d="m -12.04738,-64.2054 h 24.09476 v 24.09476 h -24.09476 z"
       style="fill:#ffffff;fill-opacity:1;fill-rule:nonzero;stroke:#666666;stroke-width:0.49814;stroke-linecap:butt;stroke-linejoin:miter;stroke-miterlimit:10;stroke-dasharray:none;stroke-opacity:1"
       transform="matrix(1.3333333,0,0,-1.3333333,58.638667,58.133333)" />
    <path
       id="path14"
       d="m 14.03162,-64.2054 h 24.09476 v 24.09476 H 14.03162 Z"
       style="fill:#ffffff;fill-opacity:1;fill-rule:nonzero;stroke:#666666;stroke-width:0.49814;stroke-linecap:butt;stroke-linejoin:miter;stroke-miterlimit:10;stroke-dasharray:none;stroke-opacity:1"
       transform="matrix(1.3333333,0,0,-1.3333333,58.638667,58.133333)" />
    <path
       id="path15"
       d="m 40.11063,-64.2054 h 24.09476 v 24.09476 H 40.11063 Z"
       style="fill:#ffffff;fill-opacity:1;fill-rule:nonzero;stroke:#666666;stroke-width:0.49814;stroke-linecap:butt;stroke-linejoin:miter;stroke-miterlimit:10;stroke-dasharray:none;stroke-opacity:1"
       transform="matrix(1.3333333,0,0,-1.3333333,58.638667,58.133333)" />
    <path
       id="path16"
       d="M 66.18964,-64.2054 H 90.2844 v 24.09476 H 66.18964 Z"
       style="fill:#ffffff;fill-opacity:1;fill-rule:nonzero;stroke:#666666;stroke-width:0.49814;stroke-linecap:butt;stroke-linejoin:miter;stroke-miterlimit:10;stroke-dasharray:none;stroke-opacity:1"
       transform="matrix(1.3333333,0,0,-1.3333333,58.638667,58.133333)" />
    <path
       id="path17"
       d="m 92.26866,-64.2054 h 24.09476 v 24.09476 H 92.26866 Z"
       style="fill:#ffffff;fill-opacity:1;fill-rule:nonzero;stroke:#666666;stroke-width:0.49814;stroke-linecap:butt;stroke-linejoin:miter;stroke-miterlimit:10;stroke-dasharray:none;stroke-opacity:1"
       transform="matrix(1.3333333,0,0,-1.3333333,58.638667,58.133333)" />
    <path
       id="path18"
       d="m 118.34767,-64.2054 h 24.09476 v 24.09476 h -24.09476 z"
       style="fill:#ffffff;fill-opacity:1;fill-rule:nonzero;stroke:#666666;stroke-width:0.49814;stroke-linecap:butt;stroke-linejoin:miter;stroke-miterlimit:10;stroke-dasharray:none;stroke-opacity:1"
       transform="matrix(1.3333333,0,0,-1.3333333,58.638667,58.133333)" />
    <path
       id="path19"
       d="m -12.04738,-90.28441 h 24.09476 v 24.09476 h -24.09476 z"
       style="fill:#ffffff;fill-opacity:1;fill-rule:nonzero;stroke:#666666;stroke-width:0.49814;stroke-linecap:butt;stroke-linejoin:miter;stroke-miterlimit:10;stroke-dasharray:none;stroke-opacity:1"
       transform="matrix(1.3333333,0,0,-1.3333333,58.638667,58.133333)" />
    <path
       id="path20"
       d="m 14.03162,-90.28441 h 24.09476 v 24.09476 H 14.03162 Z"
       style="fill:#ffffff;fill-opacity:1;fill-rule:nonzero;stroke:#666666;stroke-width:0.49814;stroke-linecap:butt;stroke-linejoin:miter;stroke-miterlimit:10;stroke-dasharray:none;stroke-opacity:1"
       transform="matrix(1.3333333,0,0,-1.3333333,58.638667,58.133333)" />
    <path
       id="path21"
       d="m 40.11063,-90.28441 h 24.09476 v 24.09476 H 40.11063 Z"
       style="fill:#ffffff;fill-opacity:1;fill-rule:nonzero;stroke:#666666;stroke-width:0.49814;stroke-linecap:butt;stroke-linejoin:miter;stroke-miterlimit:10;stroke-dasharray:none;stroke-opacity:1"
       transform="matrix(1.3333333,0,0,-1.3333333,58.638667,58.133333)" />
    <path
       id="path22"
       d="M 66.18964,-90.28441 H 90.2844 v 24.09476 H 66.18964 Z"
       style="fill:#ffffff;fill-opacity:1;fill-rule:nonzero;stroke:#666666;stroke-width:0.49814;stroke-linecap:butt;stroke-linejoin:miter;stroke-miterlimit:10;stroke-dasharray:none;stroke-opacity:1"
       transform="matrix(1.3333333,0,0,-1.3333333,58.638667,58.133333)" />
    <path
       id="path23"
       d="m 92.26866,-90.28441 h 24.09476 v 24.09476 H 92.26866 Z"
       style="fill:#ffffff;fill-opacity:1;fill-rule:nonzero;stroke:#666666;stroke-width:0.49814;stroke-linecap:butt;stroke-linejoin:miter;stroke-miterlimit:10;stroke-dasharray:none;stroke-opacity:1"
       transform="matrix(1.3333333,0,0,-1.3333333,58.638667,58.133333)" />
    <path
       id="path24"
       d="m 118.34767,-90.28441 h 24.09476 v 24.09476 h -24.09476 z"
       style="fill:#ffffff;fill-opacity:1;fill-rule:nonzero;stroke:#666666;stroke-width:0.49814;stroke-linecap:butt;stroke-linejoin:miter;stroke-miterlimit:10;stroke-dasharray:none;stroke-opacity:1"
       transform="matrix(1.3333333,0,0,-1.3333333,58.638667,58.133333)" />
    <path
       id="path25"
       d="m -12.04738,-116.36343 h 24.09476 v 24.09476 h -24.09476 z"
       style="fill:#ffffff;fill-opacity:1;fill-rule:nonzero;stroke:#666666;stroke-width:0.49814;stroke-linecap:butt;stroke-linejoin:miter;stroke-miterlimit:10;stroke-dasharray:none;stroke-opacity:1"
       transform="matrix(1.3333333,0,0,-1.3333333,58.638667,58.133333)" />
    <path
       id="path26"
       d="m 14.03162,-116.36343 h 24.09476 v 24.09476 H 14.03162 Z"
       style="fill:#ffffff;fill-opacity:1;fill-rule:nonzero;stroke:#666666;stroke-width:0.49814;stroke-linecap:butt;stroke-linejoin:miter;stroke-miterlimit:10;stroke-dasharray:none;stroke-opacity:1"
       transform="matrix(1.3333333,0,0,-1.3333333,58.638667,58.133333)" />
    <path
       id="path27"
       d="m 40.11063,-116.36343 h 24.09476 v 24.09476 H 40.11063 Z"
       style="fill:#ffffff;fill-opacity:1;fill-rule:nonzero;stroke:#666666;stroke-width:0.49814;stroke-linecap:butt;stroke-linejoin:miter;stroke-miterlimit:10;stroke-dasharray:none;stroke-opacity:1"
       transform="matrix(1.3333333,0,0,-1.3333333,58.638667,58.133333)" />
    <path
       id="path28"
       d="M 66.18964,-116.36343 H 90.2844 v 24.09476 H 66.18964 Z"
       style="fill:#ffffff;fill-opacity:1;fill-rule:nonzero;stroke:#666666;stroke-width:0.49814;stroke-linecap:butt;stroke-linejoin:miter;stroke-miterlimit:10;stroke-dasharray:none;stroke-opacity:1"
       transform="matrix(1.3333333,0,0,-1.3333333,58.638667,58.133333)" />
    <path
       id="path29"
       d="m 92.26866,-116.36343 h 24.09476 v 24.09476 H 92.26866 Z"
       style="fill:#ffffff;fill-opacity:1;fill-rule:nonzero;stroke:#666666;stroke-width:0.49814;stroke-linecap:butt;stroke-linejoin:miter;stroke-miterlimit:10;stroke-dasharray:none;stroke-opacity:1"
       transform="matrix(1.3333333,0,0,-1.3333333,58.638667,58.133333)" />
    <path
       id="path30"
       d="m 118.34767,-116.36343 h 24.09476 v 24.09476 h -24.09476 z"
       style="fill:#ffffff;fill-opacity:1;fill-rule:nonzero;stroke:#666666;stroke-width:0.49814;stroke-linecap:butt;stroke-linejoin:miter;stroke-miterlimit:10;stroke-dasharray:none;stroke-opacity:1"
       transform="matrix(1.3333333,0,0,-1.3333333,58.638667,58.133333)" />
    <path
       id="path31"
       d="m -12.04738,-142.44244 h 24.09476 v 24.09476 h -24.09476 z"
       style="fill:#ffffff;fill-opacity:1;fill-rule:nonzero;stroke:#666666;stroke-width:0.49814;stroke-linecap:butt;stroke-linejoin:miter;stroke-miterlimit:10;stroke-dasharray:none;stroke-opacity:1"
       transform="matrix(1.3333333,0,0,-1.3333333,58.638667,58.133333)" />
    <path
       id="path32"
       d="m 14.03162,-142.44244 h 24.09476 v 24.09476 H 14.03162 Z"
       style="fill:#ffffff;fill-opacity:1;fill-rule:nonzero;stroke:#666666;stroke-width:0.49814;stroke-linecap:butt;stroke-linejoin:miter;stroke-miterlimit:10;stroke-dasharray:none;stroke-opacity:1"
       transform="matrix(1.3333333,0,0,-1.3333333,58.638667,58.133333)" />
    <path
       id="path33"
       d="m 40.11063,-142.44244 h 24.09476 v 24.09476 H 40.11063 Z"
       style="fill:#ffffff;fill-opacity:1;fill-rule:nonzero;stroke:#666666;stroke-width:0.49814;stroke-linecap:butt;stroke-linejoin:miter;stroke-miterlimit:10;stroke-dasharray:none;stroke-opacity:1"
       transform="matrix(1.3333333,0,0,-1.3333333,58.638667,58.133333)" />
    <path
       id="path34"
       d="M 66.18964,-142.44244 H 90.2844 v 24.09476 H 66.18964 Z"
       style="fill:#ffffff;fill-opacity:1;fill-rule:nonzero;stroke:#666666;stroke-width:0.49814;stroke-linecap:butt;stroke-linejoin:miter;stroke-miterlimit:10;stroke-dasharray:none;stroke-opacity:1"
       transform="matrix(1.3333333,0,0,-1.3333333,58.638667,58.133333)" />
    <path
       id="path35"
       d="m 92.26866,-142.44244 h 24.09476 v 24.09476 H 92.26866 Z"
       style="fill:#ffffff;fill-opacity:1;fill-rule:nonzero;stroke:#666666;stroke-width:0.49814;stroke-linecap:butt;stroke-linejoin:miter;stroke-miterlimit:10;stroke-dasharray:none;stroke-opacity:1"
       transform="matrix(1.3333333,0,0,-1.3333333,58.638667,58.133333)" />
    <path
       id="path36"
       d="m 118.34767,-142.44244 h 24.09476 v 24.09476 h -24.09476 z"
       style="fill:#ffffff;fill-opacity:1;fill-rule:nonzero;stroke:#666666;stroke-width:0.49814;stroke-linecap:butt;stroke-linejoin:miter;stroke-miterlimit:10;stroke-dasharray:none;stroke-opacity:1"
       transform="matrix(1.3333333,0,0,-1.3333333,58.638667,58.133333)" />
    <path
       id="path37"
       d="m 1.9335391,0.09446875 c 0.9960937,0 1.59375,-0.92578125 1.59375,-2.60156245 0,-1.6523438 -0.5976563,-2.5546875 -1.59375,-2.5546875 -0.99609379,0 -1.58203129,0.890625 -1.58203129,2.5546875 0,1.6757812 0.5859375,2.60156245 1.58203129,2.60156245 z m 0,-0.515625 c -0.5742188,0 -0.97265629,-0.62109375 -0.97265629,-2.08593745 0,-1.453125 0.39843749,-2.0507813 0.97265629,-2.0507813 0.5859375,0 0.984375,0.5976563 0.984375,2.0507813 0,1.4648437 -0.3984375,2.08593745 -0.984375,2.08593745 z m 0,0"
       style="fill:#666666;fill-opacity:1;fill-rule:nonzero;stroke:none"
       aria-label="0"
       transform="matrix(1.3333333,0,0,1.3333333,56.058667,38.014667)" />
    <path
       id="path38"
       d="M 0.61039844,7.1875e-4 H 3.4228984 V -0.526625 h -1.03125 V -4.9680312 H 1.8994609 c -0.2695312,0.1640625 -0.5976562,0.28125 -1.05468746,0.3632812 v 0.4101563 H 1.7588359 V -0.526625 H 0.61039844 Z m 0,0"
       style="fill:#666666;fill-opacity:1;fill-rule:nonzero;stroke:none"
       aria-label="1"
       transform="matrix(1.3333333,0,0,1.3333333,90.830667,38.014667)" />
    <path
       id="path39"
       d="M 0.30385938,-0.00133594 H 3.5147969 V -0.55211719 H 2.0733906 c -0.2578125,0 -0.5625,0.0234375 -0.8320312,0.046875 1.171875,-1.23046871 2.0390625,-2.16796871 2.0390625,-3.10546871 0,-0.8789063 -0.5859375,-1.453125 -1.5,-1.453125 -0.6445313,0 -1.08984377,0.2929687 -1.50000002,0.75 l 0.36328125,0.3632812 c 0.29296875,-0.328125 0.64453127,-0.5976562 1.06640627,-0.5976562 0.6328125,0 0.9375,0.4101562 0.9375,0.9726562 0,0.8085938 -0.84375,1.7109375 -2.34375002,3.19921876 z m 0,0"
       style="fill:#666666;fill-opacity:1;fill-rule:nonzero;stroke:none"
       aria-label="2"
       transform="matrix(1.3333333,0,0,1.3333333,125.60267,38.076)" />
    <path
       id="path40"
       d="m 1.828375,0.09446875 c 0.9140625,0 1.6523438,-0.52734375 1.6523438,-1.41796875 0,-0.6796875 -0.4804688,-1.125 -1.078125,-1.265625 v -0.035156 c 0.5273437,-0.1875 0.9023437,-0.5742188 0.9023437,-1.1835938 0,-0.796875 -0.6328125,-1.2539062 -1.4882812,-1.2539062 -0.5859375,0 -1.0429688,0.2695312 -1.42968755,0.6210937 L 0.7268125,-4.04225 c 0.2929688,-0.2929687 0.65625,-0.5039062 1.0664063,-0.5039062 0.5390625,0 0.8671875,0.3046875 0.8671875,0.7851562 0,0.5273438 -0.3632813,0.9257813 -1.4179688,0.9257813 v 0.5039062 c 1.1835938,0 1.59375,0.3867188 1.59375,0.984375 0,0.5625 -0.4335937,0.9140625 -1.0429687,0.9140625 -0.5742188,0 -0.96093755,-0.28125 -1.26562505,-0.5859375 l -0.328125,0.41015625 C 0.5393125,-0.245375 1.0432188,0.09446875 1.828375,0.09446875 Z m 0,0"
       style="fill:#666666;fill-opacity:1;fill-rule:nonzero;stroke:none"
       aria-label="3"
       transform="matrix(1.3333333,0,0,1.3333333,160.37467,38.014667)" />
    <path
       id="path41"
       d="M 2.3685156,7.1875e-4 H 2.9661719 V -1.370375 H 3.6575781 V -1.886 H 2.9661719 V -4.9680312 H 2.2630469 L 0.14195313,-1.79225 v 0.421875 H 2.3685156 Z m 0,-1.88671875 H 0.79820313 L 1.9700781,-3.5852187 c 0.140625,-0.2460938 0.28125,-0.46875 0.4101563,-0.703125 h 0.023437 c -0.011719,0.2578125 -0.035156,0.703125 -0.035156,0.9492187 z m 0,0"
       style="fill:#666666;fill-opacity:1;fill-rule:nonzero;stroke:none"
       aria-label="4"
       transform="matrix(1.3333333,0,0,1.3333333,195.14667,38.014667)" />
    <path
       id="path42"
       d="m 1.8276016,0.09259375 c 0.8554687,0 1.6757812,-0.609375 1.6757812,-1.68749995 0,-1.0664063 -0.703125,-1.546875 -1.546875,-1.546875 -0.3046875,0 -0.5390625,0.070312 -0.7617187,0.1992187 L 1.3236953,-4.419125 h 1.921875 V -4.9699062 H 0.76119531 l -0.1640625,2.390625 0.33984375,0.2109375 c 0.29296874,-0.1875 0.51562504,-0.3046875 0.85546874,-0.3046875 0.6445313,0 1.0546875,0.4101562 1.0546875,1.1015625 0,0.6914062 -0.4804687,1.1367187 -1.078125,1.1367187 -0.5976562,0 -0.97265624,-0.28125 -1.26562499,-0.5742187 L 0.18697656,-0.58709375 C 0.53853906,-0.24725 1.0190078,0.09259375 1.8276016,0.09259375 Z m 0,0"
       style="fill:#666666;fill-opacity:1;fill-rule:nonzero;stroke:none"
       aria-label="5"
       transform="matrix(1.3333333,0,0,1.3333333,229.91867,37.954667)" />
    <path
       id="path43"
       d="m 1.9333438,0.09466406 c 0.9960937,0 1.59375,-0.92578125 1.59375,-2.60156246 0,-1.6523438 -0.5976563,-2.5546875 -1.59375,-2.5546875 -0.9960938,0 -1.5820313,0.890625 -1.5820313,2.5546875 0,1.67578121 0.5859375,2.60156246 1.5820313,2.60156246 z m 0,-0.515625 c -0.5742188,0 -0.9726563,-0.62109376 -0.9726563,-2.08593746 0,-1.453125 0.3984375,-2.0507813 0.9726563,-2.0507813 0.5859375,0 0.984375,0.5976563 0.984375,2.0507813 0,1.4648437 -0.3984375,2.08593746 -0.984375,2.08593746 z m 0,0"
       style="fill:#666666;fill-opacity:1;fill-rule:nonzero;stroke:none"
       aria-label="0"
       transform="matrix(1.3333333,0,0,1.3333333,32.625333,61.448)" />
    <path
       id="path44"
       d="m 0.609125,-9.375e-4 h 2.8125 V -0.52828125 H 2.390375 V -4.9696875 H 1.8981875 C 1.6286563,-4.805625 1.3005313,-4.6884375 0.8435,-4.6064062 V -4.19625 h 0.9140625 v 3.66796875 H 0.609125 Z m 0,0"
       style="fill:#666666;fill-opacity:1;fill-rule:nonzero;stroke:none"
       aria-label="1"
       transform="matrix(1.3333333,0,0,1.3333333,32.625333,96.22)" />
    <path
       id="path45"
       d="M 0.3044375,0.00101563 H 3.515375 V -0.54976562 H 2.0739688 c -0.2578125,0 -0.5625,0.0234375 -0.8320313,0.046875 C 2.4138125,-1.7333594 3.281,-2.6708594 3.281,-3.6083594 c 0,-0.8789062 -0.5859375,-1.453125 -1.5,-1.453125 -0.6445312,0 -1.08984375,0.2929688 -1.5,0.75 l 0.36328125,0.3632813 C 0.93725,-4.2763281 1.2888125,-4.5458594 1.7106875,-4.5458594 c 0.6328125,0 0.9375,0.4101563 0.9375,0.9726563 0,0.8085937 -0.84375,1.7109375 -2.34375,3.19921873 z m 0,0"
       style="fill:#666666;fill-opacity:1;fill-rule:nonzero;stroke:none"
       aria-label="2"
       transform="matrix(1.3333333,0,0,1.3333333,32.625333,131.05333)" />
    <path
       id="path46"
       d="m 1.827875,0.09496875 c 0.9140625,0 1.6523438,-0.52734375 1.6523438,-1.41796875 0,-0.6796875 -0.4804688,-1.125 -1.078125,-1.265625 v -0.035156 c 0.5273437,-0.1875 0.9023437,-0.5742188 0.9023437,-1.1835938 0,-0.796875 -0.6328125,-1.2539062 -1.4882812,-1.2539062 -0.5859375,0 -1.0429688,0.2695312 -1.42968755,0.6210937 L 0.7263125,-4.04175 c 0.2929688,-0.2929687 0.65625,-0.5039062 1.0664063,-0.5039062 0.5390625,0 0.8671875,0.3046875 0.8671875,0.7851562 0,0.5273438 -0.3632813,0.9257813 -1.4179688,0.9257813 v 0.5039062 c 1.1835938,0 1.59375,0.3867188 1.59375,0.984375 0,0.5625 -0.4335937,0.9140625 -1.0429687,0.9140625 -0.5742188,0 -0.96093755,-0.28125 -1.26562505,-0.5859375 l -0.328125,0.41015625 C 0.5388125,-0.244875 1.0427188,0.09496875 1.827875,0.09496875 Z m 0,0"
       style="fill:#666666;fill-opacity:1;fill-rule:nonzero;stroke:none"
       aria-label="3"
       transform="matrix(1.3333333,0,0,1.3333333,32.625333,165.764)" />
    <path
       id="path47"
       d="M 2.3669375,-6.328125e-4 H 2.9645938 V -1.3717266 H 3.656 v -0.515625 H 2.9645938 V -4.9693828 H 2.2614688 L 0.140375,-1.7936016 v 0.421875 h 2.2265625 z m 0,-1.8867187875 H 0.796625 L 1.9685,-3.5865703 c 0.140625,-0.2460938 0.28125,-0.46875 0.4101563,-0.703125 h 0.023437 c -0.011719,0.2578125 -0.035156,0.703125 -0.035156,0.9492187 z m 0,0"
       style="fill:#666666;fill-opacity:1;fill-rule:nonzero;stroke:none"
       aria-label="4"
       transform="matrix(1.3333333,0,0,1.3333333,32.625333,200.536)" />
    <path
       id="path48"
       d="m 1.827875,0.09232031 c 0.8554688,0 1.6757813,-0.609375 1.6757813,-1.68750001 0,-1.0664062 -0.703125,-1.546875 -1.546875,-1.546875 -0.3046875,0 -0.5390625,0.070312 -0.7617188,0.1992188 l 0.1289063,-1.4765625 h 1.921875 V -4.9701797 H 0.76146875 l -0.1640625,2.390625 0.33984375,0.2109375 c 0.2929688,-0.1875 0.515625,-0.3046875 0.8554688,-0.3046875 0.6445312,0 1.0546875,0.4101563 1.0546875,1.1015625 0,0.69140626 -0.4804688,1.13671876 -1.078125,1.13671876 -0.5976563,0 -0.9726563,-0.28125 -1.26562505,-0.57421876 L 0.18725,-0.58736719 c 0.3515625,0.33984375 0.8320313,0.6796875 1.640625,0.6796875 z m 0,0"
       style="fill:#666666;fill-opacity:1;fill-rule:nonzero;stroke:none"
       aria-label="5"
       transform="matrix(1.3333333,0,0,1.3333333,32.625333,235.248)" />
    <path
       id="path49"
       d="m 2.0749453,-5.0735781 c 0.609375,0 1.0664063,0.3984375 1.0664063,0.9609375 0,0.5625 -0.4570313,0.9609375 -1.0664063,0.9609375 -0.6210937,0 -1.07812499,-0.3984375 -1.07812499,-0.9609375 0,-0.5625 0.45703129,-0.9609375 1.07812499,-0.9609375 z m 1.546875,0.5273437 h 1.3359375 v 0.84375 H 3.6335391 c 0.035156,-0.1289062 0.058594,-0.2695312 0.058594,-0.4101562 0,-0.1523438 -0.023437,-0.3046875 -0.070313,-0.4335938 z m 1.3359375,-1.21875 v 0.7617188 h -1.59375 c -0.28125,-0.3398438 -0.7382812,-0.5507813 -1.2890625,-0.5507813 -0.9492187,0 -1.62890624,0.5859375 -1.62890624,1.4414063 0,0.84375 0.67968754,1.4414062 1.62890624,1.4414062 0.5507813,0 1.03125,-0.2109375 1.3125,-0.5742187 h 1.5703125 v 0.703125 h 0.5742188 v -3.2226563 z m -3.46875,5.75390628 v 0.46875 h 4.2773438 v -0.46875 h -3.703125 v -0.6796875 h 3.46875 V -2.2142031 H 1.4772891 v 0.46875 h 3.4804687 v 0.6210937 h -3.46875 z m 0,0"
       style="fill:#595959;fill-opacity:1;fill-rule:nonzero;stroke:none"
       aria-label="열"
       transform="matrix(1.3333333,0,0,1.3333333,141.292,22.741333)" />
    <path
       id="path50"
       d="m 1.9218906,-4.2304531 c -0.796875,0 -1.34765622,0.4335937 -1.34765622,1.0898437 0,0.65625 0.55078122,1.0664063 1.34765622,1.0664063 0.7851563,0 1.3359375,-0.4101563 1.3359375,-1.0664063 0,-0.65625 -0.5507812,-1.0898437 -1.3359375,-1.0898437 z m 0,0.4335937 c 0.4804688,0 0.8203125,0.2578125 0.8203125,0.65625 0,0.3867188 -0.3398437,0.6445313 -0.8203125,0.6445313 -0.4921875,0 -0.8320312,-0.2578125 -0.8320312,-0.6445313 0,-0.3984375 0.3398437,-0.65625 0.8320312,-0.65625 z m 1.6640625,2.1328125 c -1.3125,0 -2.0976562,0.3984375 -2.0976562,1.10156253 0,0.69140625 0.7851562,1.08984375 2.0976562,1.08984375 1.3242188,0 2.109375,-0.3984375 2.109375,-1.08984375 0,-0.70312503 -0.7851562,-1.10156253 -2.109375,-1.10156253 z m 0,0.4453125 c 0.9726563,0 1.5351563,0.23437503 1.5351563,0.65625003 0,0.41015625 -0.5625,0.64453125 -1.5351563,0.64453125 -0.9609375,0 -1.5234375,-0.234375 -1.5234375,-0.64453125 0,-0.421875 0.5625,-0.65625003 1.5234375,-0.65625003 z m 0.1757813,-4.4179687 v 3.6328125 h 0.5390625 v -1.5703125 h 0.8085937 v 1.7929687 h 0.5507813 v -3.984375 H 5.1093906 v 1.7109375 H 4.3007969 v -1.5820312 z m -2.1328125,-0.082031 v 0.703125 H 0.31642188 v 0.4570313 H 3.5039219 V -5.0156094 H 2.2031406 v -0.703125 z m 0,0"
       style="fill:#595959;fill-opacity:1;fill-rule:nonzero;stroke:none"
       aria-label="행"
       transform="matrix(1.3333333,0,0,1.3333333,15.054667,148.55467)" />
    <path
       id="path51"
       d="M -12.04738,-12.04738 H 12.04738 V 12.04738 H -12.04738 Z"
       style="fill:#e0e0e0;fill-opacity:1;fill-rule:nonzero;stroke:#666666;stroke-width:0.49814;stroke-linecap:butt;stroke-linejoin:miter;stroke-miterlimit:10;stroke-dasharray:none;stroke-opacity:1"
       transform="matrix(1.3333333,0,0,-1.3333333,58.638667,58.133333)" />
    <path
       id="path52"
       d="m 2.7302734,-5.7311875 c 0,-0.2226562 -0.011719,-0.234375 -0.234375,-0.234375 -0.5625,0.5625 -1.3828125,0.5625 -1.66406246,0.5625 v 0.28125 c 0.17578126,0 0.71484376,0 1.20703126,-0.234375 v 4.640625 c 0,0.328125 -0.035156,0.43359375 -0.8671875,0.43359375 H 0.89042969 v 0.28125 c 0.31640621,-0.0234375 1.11328121,-0.0234375 1.48828121,-0.0234375 0.3632813,0 1.171875,0 1.4882813,0.0234375 v -0.28125 h -0.28125 c -0.8320313,0 -0.8554688,-0.10546875 -0.8554688,-0.43359375 z m 0,0"
       style="fill:#000000;fill-opacity:1;fill-rule:nonzero;stroke:none"
       aria-label="1"
       transform="matrix(1.3333333,0,0,1.3333333,55.566667,61.985333)" />
    <path
       id="path53"
       d="m -12.04738,-38.12639 h 24.09476 v 24.09476 h -24.09476 z"
       style="fill:#e0e0e0;fill-opacity:1;fill-rule:nonzero;stroke:#666666;stroke-width:0.49814;stroke-linecap:butt;stroke-linejoin:miter;stroke-miterlimit:10;stroke-dasharray:none;stroke-opacity:1"
       transform="matrix(1.3333333,0,0,-1.3333333,58.638667,58.133333)" />
    <path
       id="path54"
       d="m 2.7302734,-5.7301094 c 0,-0.2226562 -0.011719,-0.234375 -0.234375,-0.234375 -0.5625,0.5625 -1.3828125,0.5625 -1.66406246,0.5625 v 0.28125 c 0.17578126,0 0.71484376,0 1.20703126,-0.234375 v 4.64062503 c 0,0.328125 -0.035156,0.43359375 -0.8671875,0.43359375 H 0.89042969 V 3.59375e-4 C 1.2068359,-0.02307812 2.0037109,-0.02307812 2.3787109,-0.02307812 c 0.3632813,0 1.171875,0 1.4882813,0.023437495 V -0.28089062 h -0.28125 c -0.8320313,0 -0.8554688,-0.10546875 -0.8554688,-0.43359375 z m 0,0"
       style="fill:#000000;fill-opacity:1;fill-rule:nonzero;stroke:none"
       aria-label="1"
       transform="matrix(1.3333333,0,0,1.3333333,55.566667,96.757333)" />
    <path
       id="path55"
       d="m 14.03162,-38.12639 h 24.09476 v 24.09476 H 14.03162 Z"
       style="fill:#e0e0e0;fill-opacity:1;fill-rule:nonzero;stroke:#666666;stroke-width:0.49814;stroke-linecap:butt;stroke-linejoin:miter;stroke-miterlimit:10;stroke-dasharray:none;stroke-opacity:1"
       transform="matrix(1.3333333,0,0,-1.3333333,58.638667,58.133333)" />
    <path
       id="path56"
       d="m 2.7313516,-5.7301094 c 0,-0.2226562 -0.011719,-0.234375 -0.234375,-0.234375 -0.5625,0.5625 -1.3828125,0.5625 -1.66406254,0.5625 v 0.28125 c 0.17578124,0 0.71484374,0 1.20703124,-0.234375 v 4.64062503 c 0,0.328125 -0.035156,0.43359375 -0.8671875,0.43359375 H 0.89150781 V 3.59375e-4 C 1.2079141,-0.02307812 2.0047891,-0.02307812 2.3797891,-0.02307812 c 0.3632812,0 1.171875,0 1.4882812,0.023437495 V -0.28089062 h -0.28125 c -0.8320312,0 -0.8554687,-0.10546875 -0.8554687,-0.43359375 z m 0,0"
       style="fill:#000000;fill-opacity:1;fill-rule:nonzero;stroke:none"
       aria-label="1"
       transform="matrix(1.3333333,0,0,1.3333333,90.338667,96.757333)" />
    <path
       id="path57"
       d="m -12.04738,-64.2054 h 24.09476 v 24.09476 h -24.09476 z"
       style="fill:#e0e0e0;fill-opacity:1;fill-rule:nonzero;stroke:#666666;stroke-width:0.49814;stroke-linecap:butt;stroke-linejoin:miter;stroke-miterlimit:10;stroke-dasharray:none;stroke-opacity:1"
       transform="matrix(1.3333333,0,0,-1.3333333,58.638667,58.133333)" />
    <path
       id="path58"
       d="m 2.7302734,-5.7290312 c 0,-0.2226563 -0.011719,-0.234375 -0.234375,-0.234375 -0.5625,0.5625 -1.3828125,0.5625 -1.66406246,0.5625 v 0.28125 c 0.17578126,0 0.71484376,0 1.20703126,-0.234375 v 4.64062495 c 0,0.328125 -0.035156,0.43359375 -0.8671875,0.43359375 H 0.89042969 v 0.28125 C 1.2068359,-0.022 2.0037109,-0.022 2.3787109,-0.022 c 0.3632813,0 1.171875,0 1.4882813,0.0234375 v -0.28125 h -0.28125 c -0.8320313,0 -0.8554688,-0.10546875 -0.8554688,-0.43359375 z m 0,0"
       style="fill:#000000;fill-opacity:1;fill-rule:nonzero;stroke:none"
       aria-label="1"
       transform="matrix(1.3333333,0,0,1.3333333,55.566667,131.52933)" />
    <path
       id="path59"
       d="m 14.03162,-64.2054 h 24.09476 v 24.09476 H 14.03162 Z"
       style="fill:#e0e0e0;fill-opacity:1;fill-rule:nonzero;stroke:#666666;stroke-width:0.49814;stroke-linecap:butt;stroke-linejoin:miter;stroke-miterlimit:10;stroke-dasharray:none;stroke-opacity:1"
       transform="matrix(1.3333333,0,0,-1.3333333,58.638667,58.133333)" />
    <path
       id="path60"
       d="m 2.7313516,-5.7290312 c 0,-0.2226563 -0.011719,-0.234375 -0.234375,-0.234375 -0.5625,0.5625 -1.3828125,0.5625 -1.66406254,0.5625 v 0.28125 c 0.17578124,0 0.71484374,0 1.20703124,-0.234375 v 4.64062495 c 0,0.328125 -0.035156,0.43359375 -0.8671875,0.43359375 H 0.89150781 v 0.28125 C 1.2079141,-0.022 2.0047891,-0.022 2.3797891,-0.022 c 0.3632812,0 1.171875,0 1.4882812,0.0234375 v -0.28125 h -0.28125 c -0.8320312,0 -0.8554687,-0.10546875 -0.8554687,-0.43359375 z m 0,0"
       style="fill:#000000;fill-opacity:1;fill-rule:nonzero;stroke:none"
       aria-label="1"
       transform="matrix(1.3333333,0,0,1.3333333,90.338667,131.52933)" />
    <path
       id="path61"
       d="m 40.11063,-64.2054 h 24.09476 v 24.09476 H 40.11063 Z"
       style="fill:#e0e0e0;fill-opacity:1;fill-rule:nonzero;stroke:#666666;stroke-width:0.49814;stroke-linecap:butt;stroke-linejoin:miter;stroke-miterlimit:10;stroke-dasharray:none;stroke-opacity:1"
       transform="matrix(1.3333333,0,0,-1.3333333,58.638667,58.133333)" />
    <path
       id="path62"
       d="m 2.7295,-5.7290312 c 0,-0.2226563 -0.011719,-0.234375 -0.234375,-0.234375 -0.5625,0.5625 -1.3828125,0.5625 -1.6640625,0.5625 v 0.28125 c 0.1757813,0 0.7148438,0 1.2070313,-0.234375 v 4.64062495 c 0,0.328125 -0.035156,0.43359375 -0.8671875,0.43359375 H 0.88965625 v 0.28125 C 1.2060625,-0.022 2.0029375,-0.022 2.3779375,-0.022 c 0.3632813,0 1.171875,0 1.4882813,0.0234375 v -0.28125 h -0.28125 c -0.8320313,0 -0.8554688,-0.10546875 -0.8554688,-0.43359375 z m 0,0"
       style="fill:#000000;fill-opacity:1;fill-rule:nonzero;stroke:none"
       aria-label="1"
       transform="matrix(1.3333333,0,0,1.3333333,125.11067,131.52933)" />
    <path
       id="path63"
       d="m -12.04738,-90.28441 h 24.09476 v 24.09476 h -24.09476 z"
       style="fill:#e0e0e0;fill-opacity:1;fill-rule:nonzero;stroke:#666666;stroke-width:0.49814;stroke-linecap:butt;stroke-linejoin:miter;stroke-miterlimit:10;stroke-dasharray:none;stroke-opacity:1"
       transform="matrix(1.3333333,0,0,-1.3333333,58.638667,58.133333)" />
    <path
       id="path64"
       d="m 2.7302734,-5.7308828 c 0,-0.2226563 -0.011719,-0.234375 -0.234375,-0.234375 -0.5625,0.5625 -1.3828125,0.5625 -1.66406246,0.5625 v 0.28125 c 0.17578126,0 0.71484376,0 1.20703126,-0.234375 v 4.64062499 c 0,0.328125 -0.035156,0.43359375 -0.8671875,0.43359375 H 0.89042969 V -4.140625e-4 C 1.2068359,-0.02385156 2.0037109,-0.02385156 2.3787109,-0.02385156 c 0.3632813,0 1.171875,0 1.4882813,0.0234374975 V -0.28166406 h -0.28125 c -0.8320313,0 -0.8554688,-0.10546875 -0.8554688,-0.43359375 z m 0,0"
       style="fill:#000000;fill-opacity:1;fill-rule:nonzero;stroke:none"
       aria-label="1"
       transform="matrix(1.3333333,0,0,1.3333333,55.566667,166.30133)" />
    <path
       id="path65"
       d="m 14.03162,-90.28441 h 24.09476 v 24.09476 H 14.03162 Z"
       style="fill:#e0e0e0;fill-opacity:1;fill-rule:nonzero;stroke:#666666;stroke-width:0.49814;stroke-linecap:butt;stroke-linejoin:miter;stroke-miterlimit:10;stroke-dasharray:none;stroke-opacity:1"
       transform="matrix(1.3333333,0,0,-1.3333333,58.638667,58.133333)" />
    <path
       id="path66"
       d="m 2.7313516,-5.7308828 c 0,-0.2226563 -0.011719,-0.234375 -0.234375,-0.234375 -0.5625,0.5625 -1.3828125,0.5625 -1.66406254,0.5625 v 0.28125 c 0.17578124,0 0.71484374,0 1.20703124,-0.234375 v 4.64062499 c 0,0.328125 -0.035156,0.43359375 -0.8671875,0.43359375 H 0.89150781 V -4.140625e-4 C 1.2079141,-0.02385156 2.0047891,-0.02385156 2.3797891,-0.02385156 c 0.3632812,0 1.171875,0 1.4882812,0.0234374975 V -0.28166406 h -0.28125 c -0.8320312,0 -0.8554687,-0.10546875 -0.8554687,-0.43359375 z m 0,0"
       style="fill:#000000;fill-opacity:1;fill-rule:nonzero;stroke:none"
       aria-label="1"
       transform="matrix(1.3333333,0,0,1.3333333,90.338667,166.30133)" />
    <path
       id="path67"
       d="m 40.11063,-90.28441 h 24.09476 v 24.09476 H 40.11063 Z"
       style="fill:#e0e0e0;fill-opacity:1;fill-rule:nonzero;stroke:#666666;stroke-width:0.49814;stroke-linecap:butt;stroke-linejoin:miter;stroke-miterlimit:10;stroke-dasharray:none;stroke-opacity:1"
       transform="matrix(1.3333333,0,0,-1.3333333,58.638667,58.133333)" />
    <path
       id="path68"
       d="m 2.7295,-5.7308828 c 0,-0.2226563 -0.011719,-0.234375 -0.234375,-0.234375 -0.5625,0.5625 -1.3828125,0.5625 -1.6640625,0.5625 v 0.28125 c 0.1757813,0 0.7148438,0 1.2070313,-0.234375 v 4.64062499 c 0,0.328125 -0.035156,0.43359375 -0.8671875,0.43359375 H 0.88965625 V -4.140625e-4 C 1.2060625,-0.02385156 2.0029375,-0.02385156 2.3779375,-0.02385156 c 0.3632813,0 1.171875,0 1.4882813,0.0234374975 V -0.28166406 h -0.28125 c -0.8320313,0 -0.8554688,-0.10546875 -0.8554688,-0.43359375 z m 0,0"
       style="fill:#000000;fill-opacity:1;fill-rule:nonzero;stroke:none"
       aria-label="1"
       transform="matrix(1.3333333,0,0,1.3333333,125.11067,166.30133)" />
    <path
       id="path69"
       d="M 66.18964,-90.28441 H 90.2844 v 24.09476 H 66.18964 Z"
       style="fill:#e0e0e0;fill-opacity:1;fill-rule:nonzero;stroke:#666666;stroke-width:0.49814;stroke-linecap:butt;stroke-linejoin:miter;stroke-miterlimit:10;stroke-dasharray:none;stroke-opacity:1"
       transform="matrix(1.3333333,0,0,-1.3333333,58.638667,58.133333)" />
    <path
       id="path70"
       d="m 2.7305781,-5.7308828 c 0,-0.2226563 -0.011719,-0.234375 -0.234375,-0.234375 -0.5625,0.5625 -1.3828125,0.5625 -1.66406248,0.5625 v 0.28125 c 0.17578128,0 0.71484378,0 1.20703128,-0.234375 v 4.64062499 c 0,0.328125 -0.035156,0.43359375 -0.8671875,0.43359375 H 0.89073437 V -4.140625e-4 C 1.2071406,-0.02385156 2.0040156,-0.02385156 2.3790156,-0.02385156 c 0.3632813,0 1.171875,0 1.4882813,0.0234374975 V -0.28166406 h -0.28125 c -0.8320313,0 -0.8554688,-0.10546875 -0.8554688,-0.43359375 z m 0,0"
       style="fill:#000000;fill-opacity:1;fill-rule:nonzero;stroke:none"
       aria-label="1"
       transform="matrix(1.3333333,0,0,1.3333333,159.88267,166.30133)" />
    <path
       id="path71"
       d="M 351.06804,-21.26018 H 186.44606 c -1.10048,0 -1.99256,-0.89207 -1.99256,-1.99255 v -83.89002 c 0,-1.10046 0.89208,-1.99255 1.99256,-1.99255 h 164.62198 c 1.10046,0 1.99256,0.89209 1.99256,1.99255 v 83.89002 c 0,1.10048 -0.8921,1.99255 -1.99256,1.99255 z"
       style="fill:#fcfcfc;fill-opacity:1;fill-rule:nonzero;stroke:#c7c7c7;stroke-width:0.3985;stroke-linecap:butt;stroke-linejoin:miter;stroke-miterlimit:10;stroke-dasharray:none;stroke-opacity:1"
       transform="matrix(1.3333333,0,0,-1.3333333,58.638667,58.133333)" />
    <g
       id="g71"
       aria-label="오른쪽아래방향으로누적한다.&#10;board[i+1][j+1]+=board[i][j];&#10;직각삼각형모양이만들어진다."
       transform="matrix(1.3333333,0,0,1.3333333,319.69467,126.65067)">
      <path
         id="path72"
         d="m 4.1020469,-6.2799922 c 1.3007812,0 2.2382812,0.609375 2.2382812,1.5234375 0,0.9257813 -0.9375,1.5351563 -2.2382812,1.5351563 -1.2773438,0 -2.2148438,-0.609375 -2.2148438,-1.5351563 0,-0.9140625 0.9375,-1.5234375 2.2148438,-1.5234375 z m -3.65625002,5.32031251 v 0.62109375 H 7.8051719 V -0.95967969 H 4.4770469 V -2.6471797 c 1.5117187,-0.1171875 2.578125,-0.9140625 2.578125,-2.109375 0,-1.2890625 -1.2421875,-2.1328125 -2.953125,-2.1328125 -1.6992188,0 -2.9414063,0.84375 -2.9414063,2.1328125 0,1.1953125 1.0664063,1.9921875 2.578125,2.109375 v 1.68750001 z M 8.6840781,-2.9167109 v 0.609375 h 7.3593749 v -0.609375 z m 0.9726563,1.2421875 v 2.19140621 h 5.6249996 v -0.609375 h -4.875 V -1.6745234 Z m -0.011719,-2.5664063 v 0.5859375 h 5.6250006 v -0.5859375 h -4.898438 v -0.890625 h 4.722656 v -2.015625 H 9.6215781 v 0.5976563 h 4.7460939 v 0.8671875 H 9.6450156 Z m 8.0947266,2.3085938 v 0.5976562 h 4.863281 v 2.03906251 h 0.738282 V -1.9323359 Z m 3.023438,-5.1796875 v 0.609375 h 1.019531 v 0.1289062 c 0,0.4804688 -0.421875,1.0898438 -1.183594,1.4296875 -0.75,-0.3398437 -1.183594,-0.984375 -1.183594,-1.4296875 v -0.1289062 h 1.03125 v -0.609375 h -3.035156 v 0.609375 h 1.265625 v 0.1757812 c 0,0.5390625 -0.5625,1.2773438 -1.5,1.5820313 l 0.328125,0.5507812 c 0.785156,-0.2578125 1.324219,-0.796875 1.570313,-1.3710937 0.257812,0.515625 0.761718,1.0195312 1.523437,1.265625 0.761719,-0.234375 1.265625,-0.7148438 1.523438,-1.2421875 0.257812,0.5859375 0.785156,1.1015625 1.582031,1.3476562 l 0.328125,-0.5507812 c -0.949219,-0.2695313 -1.5,-0.9726563 -1.5,-1.5820313 v -0.1757812 h 1.253906 v -0.609375 z m -0.527344,2.8945312 v 0.8203125 h -3.292969 v 0.5976563 h 7.347656 v -0.5976563 h -3.316406 v -0.8203125 z m 9.111328,-2.5664062 c -1.195312,0 -2.039062,1.1015625 -2.039062,2.8242187 0,1.734375 0.84375,2.8359375 2.039062,2.8359375 1.195313,0 2.039063,-1.1015625 2.039063,-2.8359375 0,-1.7226562 -0.84375,-2.8242187 -2.039063,-2.8242187 z m 0,0.6679687 c 0.785156,0 1.324219,0.84375 1.324219,2.15625 0,1.3125 -0.539063,2.1679688 -1.324219,2.1679688 -0.785156,0 -1.324219,-0.8554688 -1.324219,-2.1679688 0,-1.3125 0.539063,-2.15625 1.324219,-2.15625 z m 3.328125,-1.3007812 v 8.12109371 h 0.75 V -3.5495234 h 1.324219 v -0.6210938 h -1.324219 v -3.2460937 z m 3.023438,0.8789062 v 0.6210938 h 2.308593 v 1.6289062 h -2.296875 v 3.046875 h 0.527344 c 1.019531,0 1.921875,-0.035156 3.046875,-0.2226562 l -0.05859,-0.609375 c -1.019531,0.1757812 -1.886718,0.2109375 -2.800781,0.2109375 v -1.8164063 h 2.296875 v -2.859375 z m 4.078125,-0.6914062 v 7.51171871 h 0.691406 V -3.6081172 h 1.148437 V 0.70438281 H 42.31982 V -7.4167109 h -0.703125 v 3.1992187 h -1.148437 v -3.0117187 z m 9.635742,4.9101562 c -1.664063,0 -2.671875,0.5507813 -2.671875,1.50000001 0,0.94921875 1.007812,1.51171875 2.671875,1.51171875 1.652344,0 2.648437,-0.5625 2.648437,-1.51171875 0,-0.94921871 -0.996093,-1.50000001 -2.648437,-1.50000001 z m 0,0.5859375 c 1.195312,0 1.921875,0.3398438 1.921875,0.91406251 0,0.57421875 -0.726563,0.9140625 -1.921875,0.9140625 -1.207031,0 -1.933594,-0.33984375 -1.933594,-0.9140625 0,-0.57421871 0.726563,-0.91406251 1.933594,-0.91406251 z m -3.375,-5.1679687 v 3.7382812 h 3.75 v -3.7382812 h -0.738281 v 1.21875 h -2.285157 v -1.21875 z m 0.726562,1.8046875 h 2.285157 v 1.3359375 h -2.285157 z m 4.488282,-2.3203125 v 4.875 h 0.738281 v -2.203125 h 1.195312 v -0.6328125 h -1.195312 v -2.0390625 z m 6.445312,5.296875 c -1.640625,0 -2.648437,0.515625 -2.648437,1.40624996 0,0.87890625 1.007812,1.39453125 2.648437,1.39453125 1.628906,0 2.636719,-0.515625 2.636719,-1.39453125 0,-0.89062496 -1.007813,-1.40624996 -2.636719,-1.40624996 z m 0,0.5742187 c 1.183594,0 1.898438,0.3046875 1.898438,0.83203126 0,0.515625 -0.714844,0.8203125 -1.898438,0.8203125 -1.195312,0 -1.910156,-0.3046875 -1.910156,-0.8203125 0,-0.52734376 0.714844,-0.83203126 1.910156,-0.83203126 z m -1.335937,-3.9492187 c -1.160157,0 -1.945313,0.5625 -1.945313,1.4296875 0,0.8789062 0.785156,1.4296875 1.945313,1.4296875 1.160156,0 1.933593,-0.5507813 1.933593,-1.4296875 0,-0.8671875 -0.773437,-1.4296875 -1.933593,-1.4296875 z m 0,0.5625 c 0.738281,0 1.230468,0.3398437 1.230468,0.8671875 0,0.5390625 -0.492187,0.8671875 -1.230468,0.8671875 -0.738282,0 -1.230469,-0.328125 -1.230469,-0.8671875 0,-0.5273438 0.492187,-0.8671875 1.230469,-0.8671875 z m 3.140625,-2.484375 v 5.2265625 h 0.738281 v -1.4765625 h 1.171875 v -0.6210938 h -1.171875 v -1.1132812 h 1.171875 v -0.609375 h -1.171875 v -1.40625 z m -3.503907,-0.058594 v 0.9726563 h -2.027343 v 0.5976562 h 4.78125 v -0.597656 H 56.736813 V -7.4753047 Z M 65.854,-6.8893672 c -1.675781,0 -2.941406,0.8789063 -2.941406,2.2265625 0,1.359375 1.265625,2.2382813 2.941406,2.2382813 1.6875,0 2.953125,-0.8789063 2.953125,-2.2382813 0,-1.3476562 -1.265625,-2.2265625 -2.953125,-2.2265625 z m 0,0.5976563 c 1.289063,0 2.238281,0.6679687 2.238281,1.6289062 0,0.984375 -0.949218,1.6289063 -2.238281,1.6289063 -1.265625,0 -2.226562,-0.6445313 -2.226562,-1.6289063 0,-0.9609375 0.960937,-1.6289062 2.226562,-1.6289062 z m -3.65625,5.29687496 v 0.62109375 h 7.359375 v -0.62109375 z m 9.161133,-2.05078126 v 0.609375 h 2.378906 v 1.51171876 H 70.44482 v 0.62109375 h 7.359375 V -0.92452344 H 74.47607 V -2.4362422 h 2.601563 v -0.609375 h -4.980469 v -1.3125 h 4.792969 v -2.4492187 h -5.542969 v 0.609375 h 4.804688 v 1.2539062 h -4.792969 z m 10.294922,-3.9492187 v 2.9179687 h 5.554687 v -0.609375 h -4.816406 v -2.3085937 z m -0.949219,4.125 v 0.6210937 h 3.269531 v 2.95312501 h 0.75 V -2.2487422 h 3.339844 v -0.6210937 z m 9.500977,0.75 v 0.609375 h 4.675781 v 2.21484371 h 0.738281 V -2.1198359 Z m -0.996094,-4.734375 v 0.609375 h 1.804687 v 0.3164062 c 0,1.1367188 -0.832031,2.2265625 -2.027343,2.6484375 l 0.375,0.5976563 c 0.960937,-0.3515625 1.699218,-1.1015625 2.050781,-2.0273438 0.339844,0.84375 1.042969,1.5117188 1.945312,1.828125 l 0.375,-0.5742187 c -1.171875,-0.4101563 -1.96875,-1.4296875 -1.96875,-2.4726563 v -0.3164062 h 1.78125 v -0.609375 z m 5.671875,-0.5625 v 2.1210937 h -1.582031 v 0.6210938 h 1.582031 v 2.109375 h 0.738281 v -4.8515625 z m 4.734375,2.0390625 c -1.160156,0 -1.945313,0.5976562 -1.945313,1.5117187 0,0.9140625 0.785157,1.5117188 1.945313,1.5117188 1.148441,0 1.933591,-0.5976563 1.933591,-1.5117188 0,-0.9140625 -0.78515,-1.5117187 -1.933591,-1.5117187 z m 0,0.5859375 c 0.738281,0 1.230471,0.3632812 1.230471,0.9257812 0,0.5625 -0.49219,0.9257813 -1.230471,0.9257813 -0.738281,0 -1.230469,-0.3632813 -1.230469,-0.9257813 0,-0.5625 0.492188,-0.9257812 1.230469,-0.9257812 z m 3.140621,-2.6132813 v 6.0820313 h 0.73829 v -2.8007813 h 1.19531 v -0.6210937 h -1.19531 v -2.6601563 z m -3.503902,0 v 0.984375 h -2.027344 v 0.609375 h 4.781246 v -0.609375 h -2.015621 v -0.984375 z m -0.796875,5.5898438 v 2.33203121 h 5.402347 v -0.609375 H 99.182125 V -1.8151484 Z m 12.480467,-5.6015625 v 8.12109371 h 0.75 V -3.5963984 h 1.32422 v -0.6210938 h -1.32422 v -3.1992187 z m -5.13281,0.796875 v 5.3085937 h 0.63281 c 1.52344,0 2.58985,-0.046875 3.84375,-0.2695312 l -0.0937,-0.6445313 c -1.18359,0.2226563 -2.21484,0.28125 -3.64453,0.28125 v -4.0664062 h 3.02344 v -0.609375 z m 8.69238,6.73828121 c 0.32813,0 0.59766,-0.24609375 0.59766,-0.62109375 0,-0.375 -0.26953,-0.62109376 -0.59766,-0.62109376 -0.32812,0 -0.58594,0.24609376 -0.58594,0.62109376 0,0.375 0.25782,0.62109375 0.58594,0.62109375 z m 0,0"
         style="fill:#000000;fill-opacity:1;fill-rule:nonzero;stroke:none" />
      <path
         id="path73"
         d="m 4.3950156,15.262 c 0,-1.066406 -0.7734375,-1.980469 -1.78125,-1.980469 -0.421875,0 -0.796875,0.152344 -1.1015625,0.421875 v -1.605468 c 0,-0.304688 -0.082031,-0.375 -0.3867187,-0.375 H 0.44579688 c -0.1171875,0 -0.375,0 -0.375,0.28125 0,0.292968 0.24609375,0.292968 0.375,0.292968 h 0.3984375 v 4.511719 c 0,0.175781 0,0.386719 0.32812502,0.386719 0.3398437,0 0.3398437,-0.210938 0.3398437,-0.386719 0.2695313,0.269531 0.6210938,0.433594 1.0195313,0.433594 0.9960937,0 1.8632812,-0.855469 1.8632812,-1.980469 z m -0.6679687,0 c 0,0.796875 -0.5742188,1.394531 -1.2304688,1.394531 -0.6445312,0 -0.984375,-0.726562 -0.984375,-1.195312 v -0.621094 c 0,-0.527344 0.5273438,-0.972656 1.0664063,-0.972656 0.6210937,0 1.1484375,0.609375 1.1484375,1.394531 z m 5.1884765,0 c 0,-1.113281 -0.84375,-2.003906 -1.8632812,-2.003906 -1.0078125,0 -1.8515625,0.890625 -1.8515625,2.003906 0,1.113281 0.8554687,1.980469 1.8515625,1.980469 1.0078125,0 1.8632812,-0.867188 1.8632812,-1.980469 z M 8.2475547,15.19169 c 0,0.808593 -0.5390625,1.464843 -1.1953125,1.464843 -0.6445313,0 -1.1835938,-0.65625 -1.1835938,-1.464843 0,-0.796875 0.5742188,-1.347657 1.1835938,-1.347657 0.6328125,0 1.1953125,0.550782 1.1953125,1.347657 z m 5.8183593,1.710937 c 0,-0.292969 -0.246094,-0.292969 -0.386719,-0.292969 -0.128906,0 -0.316406,0 -0.492187,-0.05859 v -1.886719 c 0,-0.703125 -0.539063,-1.40625 -1.792969,-1.40625 -0.410156,0 -1.3125,0 -1.3125,0.679687 0,0.257813 0.1875,0.410157 0.410156,0.410157 0.140625,0 0.421875,-0.04687 0.421875,-0.480469 0.246094,-0.02344 0.410157,-0.02344 0.492188,-0.02344 0.703125,0 1.113281,0.292969 1.113281,0.84375 -1.488281,0.01172 -2.6718749,0.433594 -2.6718749,1.3125 0,0.679688 0.6210939,1.242188 1.4882809,1.242188 0.105469,0 0.785157,0 1.265625,-0.351563 0.222657,0.304688 0.703125,0.304688 0.996094,0.304688 0.257813,0 0.46875,0 0.46875,-0.292969 z m -1.546875,-0.972656 c 0,0.210937 0,0.398437 -0.351562,0.574219 -0.328125,0.152343 -0.726563,0.152343 -0.761719,0.152343 -0.527344,0 -0.902344,-0.292968 -0.902344,-0.65625 0,-0.433593 0.914063,-0.738281 2.015625,-0.75 z m 5.973633,-2.074219 c 0,-0.164062 -0.117188,-0.574219 -0.855469,-0.574219 -0.515625,0 -1.078125,0.222657 -1.511719,0.703125 v -0.28125 c 0,-0.292968 -0.07031,-0.375 -0.375,-0.375 h -0.996093 c -0.140625,0 -0.386719,0 -0.386719,0.292969 0,0.292969 0.234375,0.292969 0.386719,0.292969 h 0.714843 v 2.695312 h -0.714843 c -0.140625,0 -0.386719,0 -0.386719,0.292969 0,0.292969 0.234375,0.292969 0.386719,0.292969 h 2.367187 c 0.128906,0 0.386719,0 0.386719,-0.28125 0,-0.304688 -0.246094,-0.304688 -0.386719,-0.304688 H 16.125484 V 15.54325 c 0,-0.902344 0.609375,-1.675781 1.570313,-1.675781 0.03516,0.328125 0.28125,0.398437 0.398437,0.398437 0.199219,0 0.398438,-0.152343 0.398438,-0.410156 z m 4.96582,3.058594 c 0,-0.304688 -0.246094,-0.304688 -0.375,-0.304688 H 22.685055 V 12.09794 c 0,-0.304688 -0.07031,-0.375 -0.375,-0.375 h -0.679688 c -0.128906,0 -0.375,0 -0.375,0.28125 0,0.292968 0.234375,0.292968 0.375,0.292968 h 0.386719 v 1.371094 c -0.1875,-0.175781 -0.550781,-0.386719 -1.03125,-0.386719 -0.996094,0 -1.851563,0.867188 -1.851563,1.992188 0,1.101562 0.808594,1.96875 1.769532,1.96875 0.410156,0 0.796875,-0.152344 1.113281,-0.480469 0,0.28125 0,0.433594 0.375,0.433594 h 0.691406 c 0.117188,0 0.375,0 0.375,-0.28125 z M 22.017086,15.4495 c 0,0.480469 -0.398438,1.207031 -1.066406,1.207031 -0.621094,0 -1.148438,-0.609375 -1.148438,-1.382812 0,-0.808594 0.574219,-1.40625 1.230469,-1.40625 0.539062,0 0.984375,0.46875 0.984375,0.949219 z m 5.856445,2.191406 c 0,-0.28125 -0.246093,-0.28125 -0.375,-0.28125 h -1.347656 v -5.800781 h 1.347656 c 0.140625,0 0.375,0 0.375,-0.292969 0,-0.292968 -0.246093,-0.292968 -0.375,-0.292968 h -1.628906 c -0.292969,0 -0.375,0.07031 -0.375,0.375 v 6.210937 c 0,0.304688 0.07031,0.375 0.375,0.375 h 1.628906 c 0.140625,0 0.375,0 0.375,-0.292969 z m 4.497071,-0.726562 c 0,-0.304688 -0.257813,-0.304688 -0.386719,-0.304688 h -0.9375 v -2.90625 c 0,-0.292968 -0.07031,-0.375 -0.375,-0.375 h -1.300781 c -0.140625,0 -0.386719,0 -0.386719,0.292969 0,0.292969 0.234375,0.292969 0.386719,0.292969 h 1.007812 v 2.695312 H 29.28857 c -0.128906,0 -0.375,0 -0.375,0.292969 0,0.292969 0.234375,0.292969 0.375,0.292969 h 2.695313 c 0.128906,0 0.386719,0 0.386719,-0.28125 z m -1.3125,-4.699219 c 0,-0.257812 -0.199219,-0.457031 -0.457032,-0.457031 -0.246093,0 -0.457031,0.199219 -0.457031,0.457031 0,0.246094 0.210938,0.457031 0.457031,0.457031 0.257813,0 0.457032,-0.210937 0.457032,-0.457031 z m 6.263671,2.25 c 0,-0.339844 -0.339843,-0.339844 -0.445312,-0.339844 h -1.242188 v -1.253906 c 0,-0.09375 0,-0.433594 -0.328125,-0.433594 -0.339843,0 -0.339843,0.328125 -0.339843,0.433594 v 1.253906 h -1.242188 c -0.105469,0 -0.445312,0 -0.445312,0.328125 0,0.339844 0.339843,0.339844 0.445312,0.339844 h 1.242188 v 1.242188 c 0,0.105468 0,0.445312 0.328125,0.445312 0.339843,0 0.339843,-0.339844 0.339843,-0.445312 V 14.79325 h 1.242188 c 0.09375,0 0.445312,0 0.445312,-0.328125 z m 4.32129,2.449219 c 0,-0.304688 -0.222657,-0.304688 -0.375,-0.304688 h -0.796875 v -4.617187 c 0,-0.128906 0,-0.375 -0.28125,-0.375 -0.152344,0 -0.222657,0.08203 -0.28125,0.199219 -0.28125,0.632812 -0.632813,0.867187 -0.996094,0.902343 -0.128906,0 -0.328125,0.02344 -0.328125,0.292969 0,0.175781 0.09375,0.28125 0.316406,0.28125 0.351563,0 0.703125,-0.1875 0.914063,-0.363281 v 3.679687 h -0.796875 c -0.152344,0 -0.386719,0 -0.386719,0.304688 0,0.28125 0.246094,0.28125 0.386719,0.28125 h 2.25 c 0.140625,0 0.375,0 0.375,-0.28125 z m 3.46582,0.644531 v -6.210937 c 0,-0.292969 -0.07031,-0.375 -0.375,-0.375 h -1.628906 c -0.128907,0 -0.375,0 -0.375,0.292968 0,0.292969 0.234375,0.292969 0.375,0.292969 h 1.335937 v 5.800781 h -1.335937 c -0.128907,0 -0.375,0 -0.375,0.28125 0,0.292969 0.234375,0.292969 0.375,0.292969 h 1.628906 c 0.292969,0 0.375,-0.07031 0.375,-0.375 z m 6.301758,0.08203 c 0,-0.28125 -0.246094,-0.28125 -0.375,-0.28125 h -1.347657 v -5.800781 h 1.347657 c 0.140625,0 0.375,0 0.375,-0.292969 0,-0.292968 -0.246094,-0.292968 -0.375,-0.292968 h -1.628907 c -0.292968,0 -0.375,0.07031 -0.375,0.375 v 6.210937 c 0,0.304688 0.07031,0.375 0.375,0.375 h 1.628907 c 0.140625,0 0.375,0 0.375,-0.292969 z m 3.697265,-0.08203 v -3.855469 c 0,-0.292968 -0.07031,-0.375 -0.375,-0.375 h -1.453125 c -0.140625,0 -0.375,0 -0.375,0.292969 0,0.292969 0.234375,0.292969 0.375,0.292969 h 1.160157 v 3.621094 c 0,0.140625 0,0.480468 -0.234375,0.808593 -0.234375,0.304688 -0.492188,0.304688 -0.691407,0.304688 -0.128906,0 -0.1875,0 -0.316406,-0.01172 -0.140625,-0.01172 -0.152344,-0.02344 -0.152344,-0.09375 -0.01172,-0.351562 -0.304687,-0.433594 -0.410156,-0.433594 -0.199219,0 -0.421875,0.140625 -0.421875,0.433594 0,0.691406 0.890625,0.691406 1.253906,0.691406 1.300782,0 1.640625,-1.066406 1.640625,-1.675781 z m 0.01172,-5.34375 c 0,-0.257812 -0.210937,-0.457031 -0.457031,-0.457031 -0.257813,0 -0.457031,0.199219 -0.457031,0.457031 0,0.246094 0.199218,0.457031 0.457031,0.457031 0.246094,0 0.457031,-0.210937 0.457031,-0.457031 z m 5.739258,2.25 c 0,-0.339844 -0.339844,-0.339844 -0.445313,-0.339844 h -1.242187 v -1.253906 c 0,-0.09375 0,-0.433594 -0.328125,-0.433594 -0.339844,0 -0.339844,0.328125 -0.339844,0.433594 v 1.253906 h -1.242187 c -0.105469,0 -0.445313,0 -0.445313,0.328125 0,0.339844 0.339844,0.339844 0.445313,0.339844 h 1.242187 v 1.242188 c 0,0.105468 0,0.445312 0.328125,0.445312 0.339844,0 0.339844,-0.339844 0.339844,-0.445312 V 14.79325 h 1.242187 c 0.09375,0 0.445313,0 0.445313,-0.328125 z m 4.321289,2.449219 c 0,-0.304688 -0.222656,-0.304688 -0.375,-0.304688 h -0.796875 v -4.617187 c 0,-0.128906 0,-0.375 -0.28125,-0.375 -0.152344,0 -0.222656,0.08203 -0.28125,0.199219 -0.28125,0.632812 -0.632813,0.867187 -0.996094,0.902343 -0.128906,0 -0.328125,0.02344 -0.328125,0.292969 0,0.175781 0.09375,0.28125 0.316406,0.28125 0.351563,0 0.703125,-0.1875 0.914063,-0.363281 v 3.679687 h -0.796875 c -0.152344,0 -0.386719,0 -0.386719,0.304688 0,0.28125 0.246094,0.28125 0.386719,0.28125 h 2.25 c 0.140625,0 0.375,0 0.375,-0.28125 z m 3.46582,0.644531 v -6.210937 c 0,-0.292969 -0.07031,-0.375 -0.375,-0.375 h -1.628906 c -0.128906,0 -0.375,0 -0.375,0.292968 0,0.292969 0.234375,0.292969 0.375,0.292969 h 1.335937 v 5.800781 h -1.335937 c -0.128906,0 -0.375,0 -0.375,0.28125 0,0.292969 0.234375,0.292969 0.375,0.292969 h 1.628906 c 0.292969,0 0.375,-0.07031 0.375,-0.375 z m 11.033203,-3.09375 c 0,-0.339844 -0.339843,-0.339844 -0.445312,-0.339844 h -1.242188 v -1.253906 c 0,-0.09375 0,-0.433594 -0.328125,-0.433594 -0.339843,0 -0.339843,0.328125 -0.339843,0.433594 v 1.253906 H 76.08154 c -0.105469,0 -0.445312,0 -0.445312,0.328125 0,0.339844 0.339843,0.339844 0.445312,0.339844 h 1.242188 v 1.242188 c 0,0.105468 0,0.445312 0.328125,0.445312 0.339843,0 0.339843,-0.339844 0.339843,-0.445312 V 14.79325 h 1.242188 c 0.09375,0 0.445312,0 0.445312,-0.328125 z m 4.708008,-0.679687 c 0,-0.351563 -0.351562,-0.351563 -0.480469,-0.351563 h -3.082031 c -0.128906,0 -0.480469,0 -0.480469,0.351563 0,0.328125 0.328125,0.328125 0.421875,0.328125 h 3.199219 c 0.09375,0 0.421875,0 0.421875,-0.328125 z m 0,1.347656 c 0,-0.328125 -0.328125,-0.328125 -0.421875,-0.328125 H 80.76611 c -0.09375,0 -0.421875,0 -0.421875,0.328125 0,0.339844 0.351563,0.339844 0.480469,0.339844 h 3.082031 c 0.128907,0 0.480469,0 0.480469,-0.339844 z M 93.826656,15.262 c 0,-1.066406 -0.773437,-1.980469 -1.78125,-1.980469 -0.421875,0 -0.796875,0.152344 -1.101562,0.421875 v -1.605468 c 0,-0.304688 -0.08203,-0.375 -0.386719,-0.375 h -0.679687 c -0.117188,0 -0.375,0 -0.375,0.28125 0,0.292968 0.246093,0.292968 0.375,0.292968 h 0.398437 v 4.511719 c 0,0.175781 0,0.386719 0.328125,0.386719 0.339844,0 0.339844,-0.210938 0.339844,-0.386719 0.269531,0.269531 0.621094,0.433594 1.019531,0.433594 0.996094,0 1.863281,-0.855469 1.863281,-1.980469 z m -0.667968,0 c 0,0.796875 -0.574219,1.394531 -1.230469,1.394531 -0.644531,0 -0.984375,-0.726562 -0.984375,-1.195312 v -0.621094 c 0,-0.527344 0.527344,-0.972656 1.066406,-0.972656 0.621094,0 1.148438,0.609375 1.148438,1.394531 z m 5.185546,0 c 0,-1.113281 -0.84375,-2.003906 -1.863281,-2.003906 -1.007812,0 -1.851562,0.890625 -1.851562,2.003906 0,1.113281 0.855468,1.980469 1.851562,1.980469 1.007813,0 1.863281,-0.867188 1.863281,-1.980469 z m -0.667968,-0.07031 c 0,0.808593 -0.539063,1.464843 -1.195313,1.464843 -0.644531,0 -1.183594,-0.65625 -1.183594,-1.464843 0,-0.796875 0.574219,-1.347657 1.183594,-1.347657 0.632813,0 1.195313,0.550782 1.195313,1.347657 z m 5.821284,1.710937 c 0,-0.292969 -0.24609,-0.292969 -0.38671,-0.292969 -0.12891,0 -0.31641,0 -0.49219,-0.05859 v -1.886719 c 0,-0.703125 -0.53906,-1.40625 -1.79297,-1.40625 -0.41016,0 -1.3125,0 -1.3125,0.679687 0,0.257813 0.1875,0.410157 0.410156,0.410157 0.140624,0 0.421874,-0.04687 0.421874,-0.480469 0.24609,-0.02344 0.41016,-0.02344 0.49219,-0.02344 0.70312,0 1.11328,0.292969 1.11328,0.84375 -1.48828,0.01172 -2.671875,0.433594 -2.671875,1.3125 0,0.679688 0.621093,1.242188 1.488285,1.242188 0.10546,0 0.78515,0 1.26562,-0.351563 0.22266,0.304688 0.70313,0.304688 0.99609,0.304688 0.25782,0 0.46875,0 0.46875,-0.292969 z m -1.54687,-0.972656 c 0,0.210937 0,0.398437 -0.35156,0.574219 -0.32813,0.152343 -0.72657,0.152343 -0.76172,0.152343 -0.52735,0 -0.902345,-0.292968 -0.902345,-0.65625 0,-0.433593 0.914065,-0.738281 2.015625,-0.75 z m 5.97363,-2.074219 c 0,-0.164062 -0.11718,-0.574219 -0.85547,-0.574219 -0.51562,0 -1.07812,0.222657 -1.51171,0.703125 v -0.28125 c 0,-0.292968 -0.0703,-0.375 -0.375,-0.375 h -0.9961 c -0.14062,0 -0.38672,0 -0.38672,0.292969 0,0.292969 0.23438,0.292969 0.38672,0.292969 h 0.71485 v 2.695312 h -0.71485 c -0.14062,0 -0.38672,0 -0.38672,0.292969 0,0.292969 0.23438,0.292969 0.38672,0.292969 h 2.36719 c 0.12891,0 0.38672,0 0.38672,-0.28125 0,-0.304688 -0.2461,-0.304688 -0.38672,-0.304688 h -0.99609 V 15.54325 c 0,-0.902344 0.60937,-1.675781 1.57031,-1.675781 0.0351,0.328125 0.28125,0.398437 0.39844,0.398437 0.19921,0 0.39843,-0.152343 0.39843,-0.410156 z m 4.96582,3.058594 c 0,-0.304688 -0.24609,-0.304688 -0.375,-0.304688 H 112.1167 V 12.09794 c 0,-0.304688 -0.0703,-0.375 -0.375,-0.375 h -0.67969 c -0.12891,0 -0.375,0 -0.375,0.28125 0,0.292968 0.23437,0.292968 0.375,0.292968 h 0.38672 v 1.371094 c -0.1875,-0.175781 -0.55078,-0.386719 -1.03125,-0.386719 -0.9961,0 -1.85157,0.867188 -1.85157,1.992188 0,1.101562 0.8086,1.96875 1.76954,1.96875 0.41015,0 0.79687,-0.152344 1.11328,-0.480469 0,0.28125 0,0.433594 0.375,0.433594 h 0.6914 c 0.11719,0 0.375,0 0.375,-0.28125 z m -1.4414,-1.464844 c 0,0.480469 -0.39844,1.207031 -1.06641,1.207031 -0.62109,0 -1.14844,-0.609375 -1.14844,-1.382812 0,-0.808594 0.57422,-1.40625 1.23047,-1.40625 0.53906,0 0.98438,0.46875 0.98438,0.949219 z m 5.85351,2.191406 c 0,-0.28125 -0.24609,-0.28125 -0.375,-0.28125 h -1.34765 v -5.800781 h 1.34765 c 0.14063,0 0.375,0 0.375,-0.292969 0,-0.292968 -0.24609,-0.292968 -0.375,-0.292968 h -1.6289 c -0.29297,0 -0.375,0.07031 -0.375,0.375 v 6.210937 c 0,0.304688 0.0703,0.375 0.375,0.375 h 1.6289 c 0.14063,0 0.375,0 0.375,-0.292969 z m 4.49707,-0.726562 c 0,-0.304688 -0.25781,-0.304688 -0.38672,-0.304688 h -0.9375 v -2.90625 c 0,-0.292968 -0.0703,-0.375 -0.375,-0.375 h -1.30078 c -0.14062,0 -0.38672,0 -0.38672,0.292969 0,0.292969 0.23438,0.292969 0.38672,0.292969 h 1.00782 v 2.695312 h -1.08985 c -0.1289,0 -0.375,0 -0.375,0.292969 0,0.292969 0.23438,0.292969 0.375,0.292969 h 2.69531 c 0.12891,0 0.38672,0 0.38672,-0.28125 z m -1.3125,-4.699219 c 0,-0.257812 -0.19922,-0.457031 -0.45703,-0.457031 -0.24609,0 -0.45703,0.199219 -0.45703,0.457031 0,0.246094 0.21094,0.457031 0.45703,0.457031 0.25781,0 0.45703,-0.210937 0.45703,-0.457031 z m 4.6377,5.34375 V 11.34794 c 0,-0.292969 -0.0703,-0.375 -0.375,-0.375 h -1.62891 c -0.1289,0 -0.375,0 -0.375,0.292968 0,0.292969 0.23438,0.292969 0.375,0.292969 h 1.33594 v 5.800781 h -1.33594 c -0.1289,0 -0.375,0 -0.375,0.28125 0,0.292969 0.23438,0.292969 0.375,0.292969 h 1.62891 c 0.29297,0 0.375,-0.07031 0.375,-0.375 z m 6.30176,0.08203 c 0,-0.28125 -0.2461,-0.28125 -0.375,-0.28125 h -1.34766 v -5.800781 h 1.34766 c 0.14062,0 0.375,0 0.375,-0.292969 0,-0.292968 -0.2461,-0.292968 -0.375,-0.292968 h -1.62891 c -0.29297,0 -0.375,0.07031 -0.375,0.375 v 6.210937 c 0,0.304688 0.0703,0.375 0.375,0.375 h 1.62891 c 0.14062,0 0.375,0 0.375,-0.292969 z m 3.70019,-0.08203 v -3.855469 c 0,-0.292968 -0.0703,-0.375 -0.375,-0.375 h -1.45312 c -0.14063,0 -0.375,0 -0.375,0.292969 0,0.292969 0.23437,0.292969 0.375,0.292969 h 1.16015 v 3.621094 c 0,0.140625 0,0.480468 -0.23437,0.808593 -0.23438,0.304688 -0.49219,0.304688 -0.69141,0.304688 -0.12891,0 -0.1875,0 -0.31641,-0.01172 -0.14062,-0.01172 -0.15234,-0.02344 -0.15234,-0.09375 -0.0117,-0.351562 -0.30469,-0.433594 -0.41016,-0.433594 -0.19921,0 -0.42187,0.140625 -0.42187,0.433594 0,0.691406 0.89062,0.691406 1.25391,0.691406 1.30078,0 1.64062,-1.066406 1.64062,-1.675781 z m 0.0117,-5.34375 c 0,-0.257812 -0.21094,-0.457031 -0.45703,-0.457031 -0.25781,0 -0.45703,0.199219 -0.45703,0.457031 0,0.246094 0.19922,0.457031 0.45703,0.457031 0.24609,0 0.45703,-0.210937 0.45703,-0.457031 z m 4.10742,5.34375 V 11.34794 c 0,-0.292969 -0.0703,-0.375 -0.375,-0.375 h -1.6289 c -0.12891,0 -0.375,0 -0.375,0.292968 0,0.292969 0.23437,0.292969 0.375,0.292969 h 1.33593 v 5.800781 h -1.33593 c -0.12891,0 -0.375,0 -0.375,0.28125 0,0.292969 0.23437,0.292969 0.375,0.292969 h 1.6289 c 0.29297,0 0.375,-0.07031 0.375,-0.375 z m 4.89258,-3.65625 c 0,-0.328125 -0.26953,-0.574219 -0.5625,-0.574219 -0.32813,0 -0.57422,0.28125 -0.57422,0.5625 0,0.339844 0.28125,0.574219 0.5625,0.574219 0.33984,0 0.57422,-0.269531 0.57422,-0.5625 z m 0.0469,3.046875 c 0,-0.550781 -0.23437,-0.890625 -0.62109,-0.890625 -0.31641,0 -0.5625,0.246094 -0.5625,0.5625 0,0.210938 0.12891,0.550781 0.57422,0.574219 -0.082,0.304687 -0.29297,0.550781 -0.5625,0.691406 -0.0586,0.02344 -0.19922,0.09375 -0.19922,0.257813 0,0.140625 0.14063,0.292968 0.30469,0.292968 0.19922,0 1.0664,-0.480468 1.0664,-1.488281 z m 0,0"
         style="fill:#000000;fill-opacity:1;fill-rule:nonzero;stroke:none" />
      <path
         id="path74"
         d="m 6.3520469,26.971961 v 4.910156 h 0.7382812 v -4.910156 z m -4.6757813,5.34375 v 0.609375 h 4.6757813 v 2.167969 H 7.0903281 V 32.315711 Z M 0.75048438,27.54618 v 0.609375 H 2.6137656 v 0.304687 c 0,1.148438 -0.84375,2.214844 -2.06249997,2.636719 L 0.93798438,31.67118 C 1.9106406,31.331336 2.6489219,30.604773 3.0004844,29.690711 c 0.3632812,0.84375 1.1015625,1.511719 2.0273437,1.828125 l 0.375,-0.585938 C 4.2075156,30.54618 3.3637656,29.550086 3.3637656,28.460242 v -0.304687 h 1.828125 V 27.54618 Z m 8.96484372,4.558593 v 0.609375 h 4.5351559 v 2.378907 h 0.738282 v -2.988282 z m 4.5351559,-5.132812 v 4.757812 h 0.738282 v -2.074218 h 1.195312 v -0.621094 h -1.195312 v -2.0625 z m -5.2031246,0.527344 v 0.597656 h 2.9296876 c -0.128906,1.359375 -1.324219,2.4375 -3.2929689,2.964844 l 0.3046875,0.585937 C 11.355953,31.01493 12.773922,29.550086 12.773922,27.499305 Z m 11.1035156,4.59375 v 2.882812 h 5.085938 v -2.882812 z m 4.359375,0.597656 v 1.675781 h -3.632812 v -1.675781 z m -3.574219,-5.296875 v 0.796875 c 0,1.230469 -0.796875,2.332031 -2.027343,2.777344 l 0.398437,0.585937 c 0.960938,-0.375 1.6875,-1.113281 2.027344,-2.0625 0.351562,0.832031 1.042969,1.5 1.921875,1.828125 l 0.398437,-0.574219 c -1.171875,-0.421875 -1.980468,-1.453125 -1.980468,-2.566406 v -0.785156 z m 3.5625,-0.421875 v 4.746094 h 0.738282 V 29.60868 h 1.195312 v -0.621094 h -1.195312 v -2.015625 z m 3.711914,5.132812 v 0.609375 h 4.535157 v 2.378907 h 0.738281 v -2.988282 z m 4.535157,-5.132812 v 4.757812 h 0.738281 v -2.074218 h 1.195312 v -0.621094 h -1.195312 v -2.0625 z m -5.203125,0.527344 v 0.597656 h 2.929687 c -0.128906,1.359375 -1.324219,2.4375 -3.292969,2.964844 l 0.304688,0.585937 c 2.367187,-0.632812 3.785156,-2.097656 3.785156,-4.148437 z m 10.207031,1.382812 c -1.089844,0 -1.828125,0.609375 -1.828125,1.511719 0,0.902344 0.738281,1.5 1.828125,1.5 1.078125,0 1.839844,-0.597656 1.839844,-1.5 0,-0.902344 -0.761719,-1.511719 -1.839844,-1.511719 z m 0,0.574219 c 0.679687,0 1.148437,0.375 1.148437,0.9375 0,0.5625 -0.46875,0.925781 -1.148437,0.925781 -0.679688,0 -1.136719,-0.363281 -1.136719,-0.925781 0,-0.5625 0.457031,-0.9375 1.136719,-0.9375 z m 1.710937,2.847656 c -1.6875,0 -2.707031,0.503906 -2.707031,1.382813 0,0.878906 1.019531,1.382812 2.707031,1.382812 1.675782,0 2.695313,-0.503906 2.695313,-1.382812 0,-0.878907 -1.019531,-1.382813 -2.695313,-1.382813 z m 0,0.574219 c 1.195313,0 1.921875,0.292969 1.921875,0.808594 0,0.515625 -0.726562,0.808593 -1.921875,0.808593 -1.207031,0 -1.933593,-0.292968 -1.933593,-0.808593 0,-0.515625 0.726562,-0.808594 1.933593,-0.808594 z m 1.910157,-5.90625 v 1.945312 h -1.371094 v 0.609375 h 1.371094 v 0.972657 h -1.382813 v 0.609375 h 1.382813 v 1.101562 h 0.738281 v -5.238281 z m -3.984375,-0.07031 v 0.972657 h -1.933594 v 0.597656 h 4.546875 v -0.597656 h -1.875 v -0.972657 z m 14.041992,1.347657 v 2.625 H 47.2915 v -2.625 z m -4.863281,-0.597657 v 3.820313 h 2.425781 v 1.957031 H 45.69775 v 0.621094 h 7.359375 V 33.428992 H 49.729 v -1.957031 h 2.425781 v -3.820313 z m 9.644531,-0.1875 c -1.21875,0 -2.121094,0.773438 -2.121094,1.910157 0,1.125 0.902344,1.910156 2.121094,1.910156 1.230469,0 2.121094,-0.785156 2.121094,-1.910156 0,-1.136719 -0.890625,-1.910157 -2.121094,-1.910157 z m 0,0.621094 c 0.808594,0 1.394531,0.527344 1.394531,1.289063 0,0.761718 -0.585937,1.277343 -1.394531,1.277343 -0.796875,0 -1.394531,-0.515625 -1.394531,-1.277343 0,-0.761719 0.597656,-1.289063 1.394531,-1.289063 z m 1.453125,3.949219 c -1.652344,0 -2.671875,0.5625 -2.671875,1.523437 0,0.949219 1.019531,1.511719 2.671875,1.511719 1.640625,0 2.648437,-0.5625 2.648437,-1.511719 0,-0.960937 -1.007812,-1.523437 -2.648437,-1.523437 z m 0,0.597656 c 1.195312,0 1.921875,0.339844 1.921875,0.925781 0,0.585938 -0.726563,0.914063 -1.921875,0.914063 -1.207031,0 -1.933594,-0.328125 -1.933594,-0.914063 0,-0.585937 0.726563,-0.925781 1.933594,-0.925781 z m 1.839844,-5.660156 v 4.804687 h 0.738281 v -1.242187 h 1.171875 V 29.91337 h -1.171875 v -1.113281 h 1.171875 v -0.609375 h -1.171875 v -1.21875 z m 8.589843,0 v 8.121094 h 0.738282 v -8.121094 z m -3.539062,0.632812 c -1.195313,0 -2.0625,1.101563 -2.0625,2.824219 0,1.734375 0.867187,2.835938 2.0625,2.835938 1.195312,0 2.0625,-1.101563 2.0625,-2.835938 0,-1.722656 -0.867188,-2.824219 -2.0625,-2.824219 z m 0,0.667969 c 0.796875,0 1.335937,0.84375 1.335937,2.15625 0,1.3125 -0.539062,2.167969 -1.335937,2.167969 -0.796875,0 -1.335938,-0.855469 -1.335938,-2.167969 0,-1.3125 0.539063,-2.15625 1.335938,-2.15625 z m 8.241211,-0.5625 v 3.75 h 3.726562 v -3.75 z m 3,0.597656 v 2.554688 h -2.273438 v -2.554688 z m 2.214843,-1.335937 v 5.953125 h 0.738282 v -2.859375 h 1.195312 V 29.44462 h -1.195312 v -2.472656 z m -4.300781,5.378906 v 2.554688 h 5.402344 V 34.29618 h -4.675781 v -1.945313 z m 6.996094,-1.980469 v 0.597657 h 7.335937 v -0.597657 z m 0.984375,-3.128906 v 2.472656 h 5.472656 V 29.104776 H 82.415523 V 27.85087 h 4.664063 v -0.609375 z m -0.07031,7.160156 v 0.585938 h 5.71875 V 34.401651 H 82.333495 V 33.56962 h 4.757813 v -1.89844 h -5.496094 v 0.585937 h 4.769531 v 0.761719 h -4.746094 z m 9.500977,-6.128906 c 0.773438,0 1.3125,0.84375 1.3125,2.15625 0,1.3125 -0.539062,2.167969 -1.3125,2.167969 -0.773437,0 -1.3125,-0.855469 -1.3125,-2.167969 0,-1.3125 0.539063,-2.15625 1.3125,-2.15625 z m 3.773438,-1.300781 v 3.09375 h -1.769532 c -0.105468,-1.511719 -0.902343,-2.460938 -2.003906,-2.460938 -1.183594,0 -2.027344,1.101563 -2.027344,2.824219 0,1.734375 0.84375,2.835938 2.027344,2.835938 1.125,0 1.933594,-1.007813 2.003906,-2.589844 h 1.769532 v 4.417969 h 0.726562 v -8.121094 z m 8.214844,0.01172 v 5.941406 h 0.73828 v -5.94141 z m -5.601563,0.667968 v 0.609375 h 1.863281 v 0.433594 c 0,1.148438 -0.84375,2.203125 -2.0625,2.636719 l 0.386719,0.585937 c 0.972656,-0.351562 1.710937,-1.078125 2.0625,-1.992187 0.363283,0.84375 1.101563,1.511719 2.027343,1.828125 l 0.375,-0.585938 c -1.19531,-0.386718 -2.03906,-1.371093 -2.03906,-2.472656 v -0.433594 h 1.82812 v -0.609375 z m 1.136719,4.710938 v 2.542969 H 104.104 V 34.29618 h -4.722656 v -1.933594 z m 12.292964,-5.390625 v 8.121094 h 0.75 v -4.300782 h 1.32422 V 30.17118 h -1.32422 v -3.199219 z m -5.13281,0.796875 v 5.308594 h 0.63281 c 1.52344,0 2.58985,-0.04687 3.84375,-0.269532 l -0.0937,-0.644531 c -1.18359,0.222656 -2.21484,0.28125 -3.64453,0.28125 v -4.066406 h 3.02344 V 27.76884 Z m 8.69238,6.738281 c 0.32813,0 0.59766,-0.246094 0.59766,-0.621094 0,-0.375 -0.26953,-0.621093 -0.59766,-0.621093 -0.32812,0 -0.58594,0.246093 -0.58594,0.621093 0,0.375 0.25782,0.621094 0.58594,0.621094 z m 0,0"
         style="fill:#000000;fill-opacity:1;fill-rule:nonzero;stroke:none" />
    </g>
  </g>
</svg>
