<svg xmlns="http://www.w3.org/2000/svg" width="420" height="300" viewBox="0 0 420 300">
<rect width="100%" height="100%" fill="white"/>

<style>
text{font-family:"Noto Sans CJK KR","Noto Sans KR","Apple SD Gothic Neo","Malgun Gothic",sans-serif;fill:#202020}
.node{fill:white;stroke:#202020;stroke-width:1.2}
.nodeHi{fill:#d9d9d9;stroke:#202020;stroke-width:1.6}
.edge{stroke:#999;stroke-width:1.15;fill:none}
.edgeHi{stroke:#202020;stroke-width:2.5;fill:none}
.edgeDash{stroke:#202020;stroke-width:1.6;stroke-dasharray:5 4;fill:none}
.edgeLight{stroke:#d0d0d0;stroke-width:1.1;fill:none}
.w{font-size:12px}
.label{font-size:14px}
</style>

<line x1="120" y1="50" x2="220" y2="115" class="edge"/>
<text x="170.0" y="72.5" text-anchor="middle" class="w">2</text>
<line x1="55" y1="150" x2="130" y2="255" class="edge"/>
<text x="79.5" y="202.5" text-anchor="middle" class="w">5</text>
<line x1="330" y1="155" x2="220" y2="115" class="edge"/>
<text x="279.0" y="123.0" text-anchor="middle" class="w">5</text>
<line x1="120" y1="50" x2="55" y2="150" class="edge"/>
<text x="70.5" y="96.0" text-anchor="middle" class="w">6</text>
<line x1="130" y1="255" x2="220" y2="115" class="edge"/>
<text x="188.0" y="185.0" text-anchor="middle" class="w">6</text>
<line x1="55" y1="150" x2="220" y2="115" class="edge"/>
<text x="137.5" y="120.5" text-anchor="middle" class="w">7</text>
<line x1="130" y1="255" x2="330" y2="155" class="edge"/>
<text x="241.0" y="215.0" text-anchor="middle" class="w">8</text>
<circle cx="120" cy="50" r="17" class="node"/>
<text x="120" y="55" text-anchor="middle" class="label">1</text>
<circle cx="55" cy="150" r="17" class="node"/>
<text x="55" y="155" text-anchor="middle" class="label">2</text>
<circle cx="130" cy="255" r="17" class="node"/>
<text x="130" y="260" text-anchor="middle" class="label">3</text>
<circle cx="220" cy="115" r="17" class="node"/>
<text x="220" y="120" text-anchor="middle" class="label">5</text>
<circle cx="330" cy="155" r="17" class="node"/>
<text x="330" y="160" text-anchor="middle" class="label">4</text>
</svg>