<svg xmlns="http://www.w3.org/2000/svg" width="1260" height="700" viewBox="0 0 1260 700"><style>
text { font-family: "Noto Sans CJK KR", "Malgun Gothic", Arial, sans-serif; fill:#202020; }
.title { font-size:23px; font-weight:700; }
.label { font-size:17px; }
.small { font-size:14px; fill:#5a5a5a; }
.node { fill:white; stroke:#555; stroke-width:1.6; }
.edge { stroke:#8a8a8a; stroke-width:1.7; }
.selected { stroke:#202020; stroke-width:4.2; }
.candidate { stroke:#202020; stroke-width:3; stroke-dasharray:9 6; }
.panel { fill:#fcfcfc; stroke:#c7c7c7; stroke-width:1.2; rx:10; }
.cell { fill:white; stroke:#777; stroke-width:1; }
.cellHi { fill:#e7e7e7; stroke:#202020; stroke-width:2; }
.group { fill:white; stroke:#777; stroke-width:1.1; rx:8; }
.groupHi { fill:#e7e7e7; stroke:#202020; stroke-width:2; rx:8; }
</style><text x="630.0" y="42" text-anchor="middle" class="title">간선을 가중치 기준으로 정렬하기</text><line x1="277.9" y1="119.3" x2="392.1" y2="190.7" class="edge"/><rect x="336.0" y="123.0" width="26" height="22" fill="white"/><text x="349.0" y="140.0" text-anchor="middle" class="label">2</text><line x1="120.5" y1="352.1" x2="254.5" y2="542.9" class="edge"/><rect x="148.5" y="428.5" width="26" height="22" fill="white"/><text x="161.5" y="445.5" text-anchor="middle" class="label">5</text><line x1="586.7" y1="306.3" x2="438.3" y2="218.7" class="edge"/><rect x="509.5" y="227.5" width="26" height="22" fill="white"/><text x="522.5" y="244.5" text-anchor="middle" class="label">5</text><line x1="240.0" y1="127.5" x2="120.0" y2="307.5" class="edge"/><rect x="145.0" y="190.5" width="26" height="22" fill="white"/><text x="158.0" y="207.5" text-anchor="middle" class="label">6</text><line x1="280.1" y1="540.0" x2="404.9" y2="230.0" class="edge"/><rect x="349.5" y="368.0" width="26" height="22" fill="white"/><text x="362.5" y="385.0" text-anchor="middle" class="label">6</text><line x1="278.1" y1="119.0" x2="586.9" y2="306.0" class="edge"/><line x1="130.0" y1="319.9" x2="390.0" y2="215.1" class="edge"/><rect x="221.0" y="247.5" width="26" height="22" fill="white"/><text x="234.0" y="264.5" text-anchor="middle" class="label">7</text><line x1="291.9" y1="549.2" x2="588.1" y2="335.8" class="edge"/><rect x="445.0" y="435.5" width="26" height="22" fill="white"/><text x="458.0" y="452.5" text-anchor="middle" class="label">8</text><circle cx="255" cy="105" r="25" class="node"/><text x="255" y="111" text-anchor="middle" class="label">1</text><circle cx="105" cy="330" r="25" class="node"/><text x="105" y="336" text-anchor="middle" class="label">2</text><circle cx="270" cy="565" r="25" class="node"/><text x="270" y="571" text-anchor="middle" class="label">3</text><circle cx="610" cy="320" r="25" class="node"/><text x="610" y="326" text-anchor="middle" class="label">4</text><circle cx="415" cy="205" r="25" class="node"/><text x="415" y="211" text-anchor="middle" class="label">5</text><rect x="730" y="72" width="330" height="500" class="panel"/><text x="770" y="112" class="label" font-weight="700">가중치 순으로 정렬한 간선</text><rect x="770" y="142" width="245" height="34" class="cellHi"/><text x="792" y="165" class="label">1 - 5</text><text x="985" y="165" text-anchor="end" class="label">비용 2</text><rect x="770" y="190" width="245" height="34" class="cell"/><text x="792" y="213" class="label">2 - 3</text><text x="985" y="213" text-anchor="end" class="label">비용 5</text><rect x="770" y="238" width="245" height="34" class="cell"/><text x="792" y="261" class="label">4 - 5</text><text x="985" y="261" text-anchor="end" class="label">비용 5</text><rect x="770" y="286" width="245" height="34" class="cell"/><text x="792" y="309" class="label">1 - 2</text><text x="985" y="309" text-anchor="end" class="label">비용 6</text><rect x="770" y="334" width="245" height="34" class="cell"/><text x="792" y="357" class="label">3 - 5</text><text x="985" y="357" text-anchor="end" class="label">비용 6</text><rect x="770" y="382" width="245" height="34" class="cell"/><text x="792" y="405" class="label">1 - 4</text><text x="985" y="405" text-anchor="end" class="label">비용 7</text><rect x="770" y="430" width="245" height="34" class="cell"/><text x="792" y="453" class="label">2 - 5</text><text x="985" y="453" text-anchor="end" class="label">비용 7</text><rect x="770" y="478" width="245" height="34" class="cell"/><text x="792" y="501" class="label">3 - 4</text><text x="985" y="501" text-anchor="end" class="label">비용 8</text><rect x="765" y="575" width="430" height="124" class="panel"/><text x="790" y="620" class="label">가중치가 작은 간선부터 확인한다.</text><text x="790" y="658" class="label">처음 확인할 간선은 1 - 5이다.</text></svg>