<svg xmlns="http://www.w3.org/2000/svg" width="1040" height="730" viewBox="0 0 1040 730"><style>
text{font-family:"Noto Sans CJK KR","Malgun Gothic",Arial,sans-serif;fill:#202020}
.title{font-size:23px;font-weight:700}.label{font-size:17px}.small{font-size:14px;fill:#5a5a5a}
.node{fill:white;stroke:#555;stroke-width:1.7}.edge{fill:none;stroke:#999;stroke-width:1.8;marker-end:url(#arrow)}
.selected{fill:none;stroke:#202020;stroke-width:4.1;marker-end:url(#arrowBold)}
.reverse{fill:none;stroke:#202020;stroke-width:3;stroke-dasharray:9 6;marker-end:url(#arrowBold)}
.box{fill:white;stroke:#777;stroke-width:1.2;rx:8}.boxHi{fill:#e7e7e7;stroke:#202020;stroke-width:2;rx:8}
</style><defs><marker id="arrow" markerWidth="10" markerHeight="10" refX="8" refY="3" orient="auto"><path d="M0,0 L0,6 L9,3 z" fill="#999"/></marker><marker id="arrowBold" markerWidth="10" markerHeight="10" refX="8" refY="3" orient="auto"><path d="M0,0 L0,6 L9,3 z" fill="#202020"/></marker></defs><text x="520.0" y="42" text-anchor="middle" class="title">초기 유량 네트워크</text><line x1="127.2" y1="309.8" x2="307.8" y2="145.2" class="edge"/><rect x="185" y="200" width="50" height="22" fill="white"/><text x="210" y="217" text-anchor="middle" class="label">0/2</text><rect x="194" y="229" width="32" height="20" fill="white"/><text x="210" y="244" text-anchor="middle" class="small">2</text><line x1="127.2" y1="350.2" x2="307.8" y2="514.8" class="edge"/><rect x="185" y="434" width="50" height="22" fill="white"/><text x="210" y="451" text-anchor="middle" class="label">0/2</text><rect x="194" y="463" width="32" height="20" fill="white"/><text x="210" y="478" text-anchor="middle" class="small">1</text><line x1="359.7" y1="129.5" x2="600.3" y2="165.5" class="edge"/><rect x="460" y="94" width="50" height="22" fill="white"/><text x="485" y="111" text-anchor="middle" class="label">0/2</text><rect x="469" y="123" width="32" height="20" fill="white"/><text x="485" y="138" text-anchor="middle" class="small">2</text><line x1="349.0" y1="511.8" x2="611.0" y2="193.2" class="edge"/><rect x="453" y="316" width="50" height="22" fill="white"/><text x="478" y="333" text-anchor="middle" class="label">0/1</text><rect x="462" y="345" width="32" height="20" fill="white"/><text x="478" y="360" text-anchor="middle" class="small">2</text><line x1="359.7" y1="530.5" x2="600.3" y2="494.5" class="edge"/><rect x="460" y="527" width="50" height="22" fill="white"/><text x="485" y="544" text-anchor="middle" class="label">0/2</text><rect x="469" y="556" width="32" height="20" fill="white"/><text x="485" y="571" text-anchor="middle" class="small">3</text><line x1="655.8" y1="185.3" x2="874.2" y2="314.7" class="edge"/><rect x="740" y="200" width="50" height="22" fill="white"/><text x="765" y="217" text-anchor="middle" class="label">0/2</text><rect x="749" y="229" width="32" height="20" fill="white"/><text x="765" y="244" text-anchor="middle" class="small">1</text><line x1="655.8" y1="474.7" x2="874.2" y2="345.3" class="edge"/><rect x="740" y="442" width="50" height="22" fill="white"/><text x="765" y="459" text-anchor="middle" class="label">0/1</text><rect x="749" y="471" width="32" height="20" fill="white"/><text x="765" y="486" text-anchor="middle" class="small">2</text><circle cx="105" cy="330" r="28" class="node"/><text x="105" y="336" text-anchor="middle" class="label">S</text><circle cx="330" cy="125" r="28" class="node"/><text x="330" y="131" text-anchor="middle" class="label">1</text><circle cx="330" cy="535" r="28" class="node"/><text x="330" y="541" text-anchor="middle" class="label">3</text><circle cx="630" cy="170" r="28" class="node"/><text x="630" y="176" text-anchor="middle" class="label">2</text><circle cx="630" cy="490" r="28" class="node"/><text x="630" y="496" text-anchor="middle" class="label">4</text><circle cx="900" cy="330" r="28" class="node"/><text x="900" y="336" text-anchor="middle" class="label">E</text><text x="520.0" y="635" text-anchor="middle" class="label">Total Flow = 0 , Total Cost = 0</text><text x="520.0" y="682" text-anchor="middle" class="small">위: 현재 유량 / 용량　　아래: 비용</text></svg>