<svg xmlns="http://www.w3.org/2000/svg" width="850" height="390" viewBox="0 0 850 390"><rect width="100%" height="100%" fill="white"/><style>
text{font-family:"JetBrains Mono","Consolas","Noto Sans Mono CJK KR",monospace;fill:#202020}
.label{font-size:18px}.small{font-size:14px;fill:#555}.tiny{font-size:13px;fill:#555}
.node{fill:white;stroke:#555;stroke-width:1.8}.nodeHi{fill:#eee;stroke:#202020;stroke-width:2.3}
.lazy{fill:white;stroke:#777;stroke-width:1.2;rx:5}.lazyHi{fill:#eee;stroke:#202020;stroke-width:2;rx:5}
.edge{fill:none;stroke:#888;stroke-width:1.7}.edgeHi{fill:none;stroke:#202020;stroke-width:3.2}
.cell{fill:white;stroke:#777;stroke-width:1.2}.cellHi{fill:#eee;stroke:#202020;stroke-width:2}
.arrow{fill:none;stroke:#202020;stroke-width:1.7;marker-end:url(#arrow)}
.guide{fill:none;stroke:#777;stroke-width:1.5;stroke-dasharray:6 5;marker-end:url(#arrowGray)}
</style><defs>
<marker id="arrow" markerWidth="9" markerHeight="9" refX="7" refY="3" orient="auto"><path d="M0,0 L0,6 L8,3 z" fill="#202020"/></marker>
<marker id="arrowGray" markerWidth="9" markerHeight="9" refX="7" refY="3" orient="auto"><path d="M0,0 L0,6 L8,3 z" fill="#777"/></marker>
</defs><line x1="420" y1="103" x2="255" y2="142" class="edge"/><line x1="420" y1="103" x2="585" y2="142" class="edge"/><line x1="255" y1="208" x2="175" y2="252" class="edge"/><line x1="255" y1="208" x2="335" y2="252" class="edge"/><line x1="585" y1="208" x2="505" y2="252" class="edge"/><line x1="585" y1="208" x2="665" y2="252" class="edge"/><circle cx="420" cy="70" r="32" class="nodeHi"/><text x="420" y="67" text-anchor="middle" class="label">24</text><text x="420" y="88" text-anchor="middle" class="tiny">[0,3]</text><rect x="388" y="109" width="64" height="25" class="lazy"/><text x="420" y="127" text-anchor="middle" class="tiny">lazy=0</text><circle cx="255" cy="175" r="32" class="node"/><text x="255" y="172" text-anchor="middle" class="label">9</text><text x="255" y="193" text-anchor="middle" class="tiny">[0,1]</text><rect x="223" y="214" width="64" height="25" class="lazyHi"/><text x="255" y="232" text-anchor="middle" class="tiny">lazy=1</text><circle cx="585" cy="175" r="32" class="node"/><text x="585" y="172" text-anchor="middle" class="label">11</text><text x="585" y="193" text-anchor="middle" class="tiny">[2,3]</text><rect x="553" y="214" width="64" height="25" class="lazyHi"/><text x="585" y="232" text-anchor="middle" class="tiny">lazy=1</text><circle cx="175" cy="285" r="32" class="node"/><text x="175" y="282" text-anchor="middle" class="label">3</text><text x="175" y="303" text-anchor="middle" class="tiny">[0,0]</text><rect x="143" y="324" width="64" height="25" class="lazy"/><text x="175" y="342" text-anchor="middle" class="tiny">lazy=0</text><circle cx="335" cy="285" r="32" class="node"/><text x="335" y="282" text-anchor="middle" class="label">6</text><text x="335" y="303" text-anchor="middle" class="tiny">[1,1]</text><rect x="303" y="324" width="64" height="25" class="lazy"/><text x="335" y="342" text-anchor="middle" class="tiny">lazy=0</text><circle cx="505" cy="285" r="32" class="node"/><text x="505" y="282" text-anchor="middle" class="label">9</text><text x="505" y="303" text-anchor="middle" class="tiny">[2,2]</text><rect x="473" y="324" width="64" height="25" class="lazy"/><text x="505" y="342" text-anchor="middle" class="tiny">lazy=0</text><circle cx="665" cy="285" r="32" class="node"/><text x="665" y="282" text-anchor="middle" class="label">2</text><text x="665" y="303" text-anchor="middle" class="tiny">[3,3]</text><rect x="633" y="324" width="64" height="25" class="lazy"/><text x="665" y="342" text-anchor="middle" class="tiny">lazy=0</text><text x="425" y="378" text-anchor="middle" class="label">updateRange(0, 3, +1)</text></svg>