<svg xmlns="http://www.w3.org/2000/svg" width="840" height="285" viewBox="0 0 840 285"><rect width="100%" height="100%" fill="white"/><style>
text{font-family:"JetBrains Mono","Consolas","Noto Sans Mono CJK KR",monospace;fill:#202020}
.label{font-size:18px}.small{font-size:14px;fill:#555}.tiny{font-size:13px;fill:#555}
.node{fill:white;stroke:#555;stroke-width:1.8}.nodeHi{fill:#eee;stroke:#202020;stroke-width:2.3}
.lazy{fill:white;stroke:#777;stroke-width:1.2;rx:5}.lazyHi{fill:#eee;stroke:#202020;stroke-width:2;rx:5}
.edge{fill:none;stroke:#888;stroke-width:1.7}.edgeHi{fill:none;stroke:#202020;stroke-width:3.2}
.cell{fill:white;stroke:#777;stroke-width:1.2}.cellHi{fill:#eee;stroke:#202020;stroke-width:2}
.arrow{fill:none;stroke:#202020;stroke-width:1.7;marker-end:url(#arrow)}
.guide{fill:none;stroke:#777;stroke-width:1.5;stroke-dasharray:6 5;marker-end:url(#arrowGray)}
</style><defs>
<marker id="arrow" markerWidth="9" markerHeight="9" refX="7" refY="3" orient="auto"><path d="M0,0 L0,6 L8,3 z" fill="#202020"/></marker>
<marker id="arrowGray" markerWidth="9" markerHeight="9" refX="7" refY="3" orient="auto"><path d="M0,0 L0,6 L8,3 z" fill="#777"/></marker>
</defs><text x="132" y="63" text-anchor="end" class="label">step</text><rect x="150" y="36" width="140" height="42" class="cell"/><text x="220.0" y="63" text-anchor="middle" class="label">visit</text><rect x="290" y="36" width="140" height="42" class="cell"/><text x="360.0" y="63" text-anchor="middle" class="label">push</text><rect x="430" y="36" width="140" height="42" class="cell"/><text x="500.0" y="63" text-anchor="middle" class="label">cover</text><rect x="570" y="36" width="140" height="42" class="cell"/><text x="640.0" y="63" text-anchor="middle" class="label">merge</text><text x="132" y="133" text-anchor="end" class="label">update</text><rect x="150" y="106" width="140" height="42" class="cell"/><text x="220.0" y="133" text-anchor="middle" class="label">node</text><rect x="290" y="106" width="140" height="42" class="cellHi"/><text x="360.0" y="133" text-anchor="middle" class="label">lazy</text><rect x="430" y="106" width="140" height="42" class="cellHi"/><text x="500.0" y="133" text-anchor="middle" class="label">arr += val×len</text><rect x="570" y="106" width="140" height="42" class="cell"/><text x="640.0" y="133" text-anchor="middle" class="label">parent</text><text x="132" y="203" text-anchor="end" class="label">query</text><rect x="150" y="176" width="140" height="42" class="cell"/><text x="220.0" y="203" text-anchor="middle" class="label">node</text><rect x="290" y="176" width="140" height="42" class="cellHi"/><text x="360.0" y="203" text-anchor="middle" class="label">lazy</text><rect x="430" y="176" width="140" height="42" class="cellHi"/><text x="500.0" y="203" text-anchor="middle" class="label">return arr</text><rect x="570" y="176" width="140" height="42" class="cell"/><text x="640.0" y="203" text-anchor="middle" class="label">sum</text></svg>