<?xml version="1.0" encoding="UTF-8" standalone="no"?>
<!-- Created with Inkscape (http://www.inkscape.org/) -->

<svg
   version="1.1"
   id="svg1"
   width="612.45331"
   height="223.26666"
   viewBox="0 0 612.45331 223.26666"
   sodipodi:docname="1.pdf"
   xmlns:inkscape="http://www.inkscape.org/namespaces/inkscape"
   xmlns:sodipodi="http://sodipodi.sourceforge.net/DTD/sodipodi-0.dtd"
   xmlns="http://www.w3.org/2000/svg"
   xmlns:svg="http://www.w3.org/2000/svg">
  <defs
     id="defs1" />
  <sodipodi:namedview
     id="namedview1"
     pagecolor="#ffffff"
     bordercolor="#000000"
     borderopacity="0.25"
     inkscape:showpageshadow="2"
     inkscape:pageopacity="0.0"
     inkscape:pagecheckerboard="0"
     inkscape:deskcolor="#d1d1d1">
    <inkscape:page
       x="0"
       y="0"
       inkscape:label="1"
       id="page1"
       width="612.45331"
       height="223.26666"
       margin="0"
       bleed="0" />
  </sodipodi:namedview>
  <g
     id="g1"
     inkscape:groupmode="layer"
     inkscape:label="1">
    <path
       id="path1"
       d="M 0,-22.67752 H 238.67021"
       style="fill:none;stroke:#808080;stroke-width:0.54794;stroke-linecap:butt;stroke-linejoin:miter;stroke-miterlimit:10;stroke-dasharray:none;stroke-opacity:1"
       transform="matrix(1.3333333,0,0,-1.3333333,51,160.17867)" />
    <path
       id="path2"
       d="M 3.41533,0 C 2.99591,0.10364 1.15227,0.69095 0,1.3301 V -1.3301 C 1.15227,-0.69095 2.99591,-0.10364 3.41533,0 Z"
       style="fill:#808080;fill-opacity:1;fill-rule:nonzero;stroke:#808080;stroke-width:0.54794;stroke-linecap:butt;stroke-linejoin:miter;stroke-miterlimit:10;stroke-dasharray:none;stroke-opacity:1"
       transform="matrix(1.3333333,0,0,-1.3333333,369.22695,190.41536)" />
    <path
       id="path3"
       d="m 0,-25.79568 v 6.23632"
       style="fill:none;stroke:#858585;stroke-width:0.44832;stroke-linecap:butt;stroke-linejoin:miter;stroke-miterlimit:10;stroke-dasharray:none;stroke-opacity:1"
       transform="matrix(1.3333333,0,0,-1.3333333,51,160.17867)" />
    <path
       id="path4"
       d="m 1.935,0.0950625 c 0.9960938,0 1.59375,-0.92578125 1.59375,-2.6015625 0,-1.6523438 -0.5976562,-2.5546875 -1.59375,-2.5546875 -0.99609375,0 -1.58203125,0.890625 -1.58203125,2.5546875 0,1.67578125 0.5859375,2.6015625 1.58203125,2.6015625 z m 0,-0.515625 c -0.5742187,0 -0.97265625,-0.6210938 -0.97265625,-2.0859375 0,-1.453125 0.39843755,-2.0507813 0.97265625,-2.0507813 0.5859375,0 0.984375,0.5976563 0.984375,2.0507813 0,1.4648437 -0.3984375,2.0859375 -0.984375,2.0859375 z m 0,0"
       style="fill:#525252;fill-opacity:1;fill-rule:nonzero;stroke:none"
       aria-label="0"
       transform="matrix(1.3333333,0,0,1.3333333,48.42,208.092)" />
    <path
       id="path5"
       d="m 22.11046,-25.79568 v 6.23632"
       style="fill:none;stroke:#858585;stroke-width:0.44832;stroke-linecap:butt;stroke-linejoin:miter;stroke-miterlimit:10;stroke-dasharray:none;stroke-opacity:1"
       transform="matrix(1.3333333,0,0,-1.3333333,51,160.17867)" />
    <path
       id="path6"
       d="M 0.60820312,0.0013125 H 3.4207031 v -0.52734375 h -1.03125 V -4.9674375 H 1.8972656 c -0.2695312,0.1640625 -0.5976562,0.28125 -1.05468748,0.3632812 V -4.194 H 1.7566406 v 3.66796875 H 0.60820312 Z m 0,0"
       style="fill:#525252;fill-opacity:1;fill-rule:nonzero;stroke:none"
       aria-label="1"
       transform="matrix(1.3333333,0,0,1.3333333,77.9,208.092)" />
    <path
       id="path7"
       d="m 44.22093,-25.79568 v 6.23632"
       style="fill:none;stroke:#858585;stroke-width:0.44832;stroke-linecap:butt;stroke-linejoin:miter;stroke-miterlimit:10;stroke-dasharray:none;stroke-opacity:1"
       transform="matrix(1.3333333,0,0,-1.3333333,51,160.17867)" />
    <path
       id="path8"
       d="M 0.30579688,-7.421875e-4 H 3.5167344 V -0.55152344 H 2.0753281 c -0.2578125,0 -0.5625,0.0234375 -0.8320312,0.046875 1.171875,-1.23046876 2.0390625,-2.16796876 2.0390625,-3.10546876 0,-0.8789062 -0.5859375,-1.453125 -1.5,-1.453125 -0.6445313,0 -1.08984377,0.2929688 -1.50000002,0.75 l 0.36328125,0.3632813 c 0.29296875,-0.328125 0.64453127,-0.5976563 1.06640627,-0.5976563 0.6328125,0 0.9375,0.4101563 0.9375,0.9726563 0,0.8085937 -0.84375,1.7109375 -2.34375002,3.19921871 z m 0,0"
       style="fill:#525252;fill-opacity:1;fill-rule:nonzero;stroke:none"
       aria-label="2"
       transform="matrix(1.3333333,0,0,1.3333333,107.38133,208.15333)" />
    <path
       id="path9"
       d="m 66.3314,-25.79568 v 6.23632"
       style="fill:none;stroke:#858585;stroke-width:0.44832;stroke-linecap:butt;stroke-linejoin:miter;stroke-miterlimit:10;stroke-dasharray:none;stroke-opacity:1"
       transform="matrix(1.3333333,0,0,-1.3333333,51,160.17867)" />
    <path
       id="path10"
       d="m 1.8295859,0.0950625 c 0.9140625,0 1.6523438,-0.52734375 1.6523438,-1.4179688 0,-0.6796875 -0.4804688,-1.125 -1.078125,-1.265625 v -0.035156 c 0.5273437,-0.1875 0.9023437,-0.5742188 0.9023437,-1.1835938 0,-0.796875 -0.6328125,-1.2539062 -1.4882812,-1.2539062 -0.5859375,0 -1.04296876,0.2695312 -1.42968751,0.6210937 l 0.33984375,0.3984375 C 1.0209922,-4.334625 1.3842734,-4.5455625 1.7944297,-4.5455625 c 0.5390625,0 0.8671875,0.3046875 0.8671875,0.7851562 0,0.5273438 -0.3632813,0.9257813 -1.4179688,0.9257813 v 0.5039062 c 1.1835938,0 1.59375,0.3867188 1.59375,0.984375 0,0.56250005 -0.4335937,0.91406255 -1.0429687,0.91406255 -0.5742188,0 -0.96093751,-0.28125 -1.26562501,-0.58593755 l -0.328125,0.4101563 c 0.33984375,0.36328125 0.84375001,0.703125 1.62890621,0.703125 z m 0,0"
       style="fill:#525252;fill-opacity:1;fill-rule:nonzero;stroke:none"
       aria-label="3"
       transform="matrix(1.3333333,0,0,1.3333333,136.86133,208.092)" />
    <path
       id="path11"
       d="m 88.44188,-25.79568 v 6.23632"
       style="fill:none;stroke:#858585;stroke-width:0.44832;stroke-linecap:butt;stroke-linejoin:miter;stroke-miterlimit:10;stroke-dasharray:none;stroke-opacity:1"
       transform="matrix(1.3333333,0,0,-1.3333333,51,160.17867)" />
    <path
       id="path12"
       d="m 2.368,0.0013125 h 0.5976562 v -1.3710938 h 0.6914063 v -0.515625 H 2.9656562 v -3.0820312 h -0.703125 l -2.1210937,3.1757812 v 0.421875 H 2.368 Z m 0,-1.8867188 H 0.7976875 l 1.171875,-1.6992187 c 0.140625,-0.2460938 0.28125,-0.46875 0.4101562,-0.703125 h 0.023437 C 2.3914375,-4.0299375 2.368,-3.584625 2.368,-3.3385313 Z m 0,0"
       style="fill:#525252;fill-opacity:1;fill-rule:nonzero;stroke:none"
       aria-label="4"
       transform="matrix(1.3333333,0,0,1.3333333,166.34267,208.092)" />
    <path
       id="path13"
       d="m 110.55235,-25.79568 v 6.23632"
       style="fill:none;stroke:#858585;stroke-width:0.44832;stroke-linecap:butt;stroke-linejoin:miter;stroke-miterlimit:10;stroke-dasharray:none;stroke-opacity:1"
       transform="matrix(1.3333333,0,0,-1.3333333,51,160.17867)" />
    <path
       id="path14"
       d="m 1.8292891,0.0931875 c 0.8554687,0 1.6757812,-0.609375 1.6757812,-1.6875 0,-1.0664063 -0.703125,-1.546875 -1.546875,-1.546875 -0.3046875,0 -0.5390625,0.070312 -0.7617187,0.1992187 l 0.1289062,-1.4765625 h 1.921875 V -4.9693125 H 0.76288281 l -0.1640625,2.390625 0.33984375,0.2109375 c 0.29296874,-0.1875 0.51562504,-0.3046875 0.85546874,-0.3046875 0.6445313,0 1.0546875,0.4101562 1.0546875,1.1015625 0,0.69140625 -0.4804687,1.13671875 -1.078125,1.13671875 -0.5976562,0 -0.97265624,-0.28125 -1.26562499,-0.57421875 L 0.18866406,-0.5865 c 0.3515625,0.33984375 0.83203124,0.6796875 1.64062504,0.6796875 z m 0,0"
       style="fill:#525252;fill-opacity:1;fill-rule:nonzero;stroke:none"
       aria-label="5"
       transform="matrix(1.3333333,0,0,1.3333333,195.82267,208.032)" />
    <path
       id="path15"
       d="m 132.66283,-25.79568 v 6.23632"
       style="fill:none;stroke:#858585;stroke-width:0.44832;stroke-linecap:butt;stroke-linejoin:miter;stroke-miterlimit:10;stroke-dasharray:none;stroke-opacity:1"
       transform="matrix(1.3333333,0,0,-1.3333333,51,160.17867)" />
    <path
       id="path16"
       d="m 2.0981719,0.0950625 c 0.7851562,0 1.453125,-0.64453125 1.453125,-1.59375 0,-1.0195313 -0.5507813,-1.5351563 -1.4179688,-1.5351563 -0.3984375,0 -0.84375,0.234375 -1.16015622,0.6328125 0.0351562,-1.5820312 0.62109372,-2.1328125 1.32421872,-2.1328125 0.3164063,0 0.6210938,0.1523438 0.8085938,0.3984375 l 0.3632812,-0.3984375 c -0.28125,-0.3046875 -0.6679687,-0.5273437 -1.2070312,-0.5273437 -0.984375,0 -1.88671877,0.7617187 -1.88671877,2.765625 0,1.59375 0.73828127,2.390625 1.72265627,2.390625 z M 0.98489063,-1.897125 c 0.35156247,-0.4804688 0.72656247,-0.65625 1.05468747,-0.65625 0.609375,0 0.9257813,0.4101562 0.9257813,1.0546875 0,0.65625 -0.3867188,1.08984375 -0.8789063,1.08984375 -0.6328125,0 -1.0078125,-0.515625 -1.10156247,-1.48828125 z m 0,0"
       style="fill:#525252;fill-opacity:1;fill-rule:nonzero;stroke:none"
       aria-label="6"
       transform="matrix(1.3333333,0,0,1.3333333,225.304,208.092)" />
    <path
       id="path17"
       d="m 154.7733,-25.79568 v 6.23632"
       style="fill:none;stroke:#858585;stroke-width:0.44832;stroke-linecap:butt;stroke-linejoin:miter;stroke-miterlimit:10;stroke-dasharray:none;stroke-opacity:1"
       transform="matrix(1.3333333,0,0,-1.3333333,51,160.17867)" />
    <path
       id="path18"
       d="m 1.3836797,0.0013125 h 0.65625 c 0.082031,-1.9335938 0.328125,-3.0703125 1.5,-4.5820313 V -4.9674375 H 0.34071094 v 0.5507812 H 2.8250859 c -0.984375,1.359375 -1.3476562,2.5429688 -1.4414062,4.4179688 z m 0,0"
       style="fill:#525252;fill-opacity:1;fill-rule:nonzero;stroke:none"
       aria-label="7"
       transform="matrix(1.3333333,0,0,1.3333333,254.784,208.092)" />
    <path
       id="path19"
       d="m 176.88377,-25.79568 v 6.23632"
       style="fill:none;stroke:#858585;stroke-width:0.44832;stroke-linecap:butt;stroke-linejoin:miter;stroke-miterlimit:10;stroke-dasharray:none;stroke-opacity:1"
       transform="matrix(1.3333333,0,0,-1.3333333,51,160.17867)" />
    <path
       id="path20"
       d="m 1.95725,0.0950625 c 0.9492188,0 1.59375,-0.5859375 1.59375,-1.3242188 0,-0.6679687 -0.421875,-1.0195312 -0.8554687,-1.2890625 v -0.023437 C 2.9885,-2.7760313 3.3635,-3.2213438 3.3635,-3.7486875 c 0,-0.7617188 -0.5273437,-1.3125 -1.3945312,-1.3125 -0.796875,0 -1.40625005,0.5039062 -1.40625005,1.265625 0,0.5273437 0.328125,0.890625 0.69140625,1.1484375 v 0.035156 c -0.45703125,0.2460938 -0.9375,0.6914063 -0.9375,1.3476563 0,0.78515625 0.6914063,1.359375 1.640625,1.3593752 z m 0.3398438,-2.8007813 c -0.5976563,-0.234375 -1.1484375,-0.4921875 -1.1484375,-1.0898437 0,-0.4804688 0.3398437,-0.796875 0.8085937,-0.796875 0.5507813,0 0.8671875,0.3984375 0.8671875,0.8789062 0,0.375 -0.1875,0.703125 -0.5273437,1.0078125 z M 1.95725,-0.38540625 c -0.609375,0 -1.06640625,-0.3984375 -1.06640625,-0.93750005 0,-0.46875 0.29296875,-0.8320312 0.70312505,-1.0898437 0.7148437,0.2929687 1.3476562,0.515625 1.3476562,1.1601562 0,0.51562505 -0.3867187,0.86718755 -0.984375,0.86718755 z m 0,0"
       style="fill:#525252;fill-opacity:1;fill-rule:nonzero;stroke:none"
       aria-label="8"
       transform="matrix(1.3333333,0,0,1.3333333,284.26533,208.092)" />
    <path
       id="path21"
       d="m 198.99423,-25.79568 v 6.23632"
       style="fill:none;stroke:#858585;stroke-width:0.44832;stroke-linecap:butt;stroke-linejoin:miter;stroke-miterlimit:10;stroke-dasharray:none;stroke-opacity:1"
       transform="matrix(1.3333333,0,0,-1.3333333,51,160.17867)" />
    <path
       id="path22"
       d="m 1.5943203,0.0950625 c 0.9960938,0 1.8984375,-0.7734375 1.8984375,-2.765625 0,-1.59375 -0.7382812,-2.390625 -1.7226562,-2.390625 -0.79687504,0 -1.46484379,0.6445312 -1.46484379,1.59375 0,1.0195312 0.5625,1.5351562 1.41796879,1.5351562 0.4101562,0 0.8554687,-0.2460937 1.171875,-0.6328125 -0.023437,1.59375005 -0.6210938,2.13281255 -1.3242188,2.13281255 -0.3046875,0 -0.60937499,-0.15234375 -0.82031249,-0.3984375 l -0.33984375,0.3984375 C 0.66853906,-0.12759375 1.0552578,0.0950625 1.5943203,0.0950625 Z m 1.2890625,-3.1757813 c -0.3398437,0.4921875 -0.7382812,0.6796875 -1.0546875,0.6796875 -0.609375,0 -0.92578124,-0.4101562 -0.92578124,-1.0664062 0,-0.65625 0.37500004,-1.1015625 0.87890624,-1.1015625 0.6210938,0 1.0195313,0.5273437 1.1015625,1.4882812 z m 0,0"
       style="fill:#525252;fill-opacity:1;fill-rule:nonzero;stroke:none"
       aria-label="9"
       transform="matrix(1.3333333,0,0,1.3333333,313.74533,208.092)" />
    <path
       id="path23"
       d="m 221.1047,-25.79568 v 6.23632"
       style="fill:none;stroke:#858585;stroke-width:0.44832;stroke-linecap:butt;stroke-linejoin:miter;stroke-miterlimit:10;stroke-dasharray:none;stroke-opacity:1"
       transform="matrix(1.3333333,0,0,-1.3333333,51,160.17867)" />
    <path
       id="path24"
       d="M 0.60877344,0.0013125 H 3.4212734 v -0.52734375 h -1.03125 V -4.9674375 H 1.8978359 c -0.2695312,0.1640625 -0.5976562,0.28125 -1.05468746,0.3632812 V -4.194 H 1.7572109 v 3.66796875 H 0.60877344 Z m 5.19433596,0.09375 c 0.9960937,0 1.59375,-0.92578125 1.59375,-2.6015625 0,-1.6523438 -0.5976563,-2.5546875 -1.59375,-2.5546875 -0.9960938,0 -1.5820313,0.890625 -1.5820313,2.5546875 0,1.67578125 0.5859375,2.6015625 1.5820313,2.6015625 z m 0,-0.515625 c -0.5742188,0 -0.9726563,-0.6210938 -0.9726563,-2.0859375 0,-1.453125 0.3984375,-2.0507813 0.9726563,-2.0507813 0.5859375,0 0.984375,0.5976563 0.984375,2.0507813 0,1.4648437 -0.3984375,2.0859375 -0.984375,2.0859375 z m 0,0"
       style="fill:#525252;fill-opacity:1;fill-rule:nonzero;stroke:none"
       aria-label="10"
       transform="matrix(1.3333333,0,0,1.3333333,340.64533,208.092)" />
    <path
       id="path25"
       d="M 22.11046,90.7097 H 66.3314"
       style="fill:none;stroke:#616161;stroke-width:2.1918;stroke-linecap:round;stroke-linejoin:miter;stroke-miterlimit:10;stroke-dasharray:none;stroke-opacity:1"
       transform="matrix(1.3333333,0,0,-1.3333333,51,160.17867)" />
    <path
       id="path26"
       d="m 25.79555,90.7097 c 0,2.03522 -1.64986,3.68508 -3.68509,3.68508 -2.03522,0 -3.68508,-1.64986 -3.68508,-3.68508 0,-2.03523 1.64986,-3.68509 3.68508,-3.68509 2.03523,0 3.68509,1.64986 3.68509,3.68509 z"
       style="fill:#ffffff;fill-opacity:1;fill-rule:nonzero;stroke:#000000;stroke-width:0.54794;stroke-linecap:butt;stroke-linejoin:miter;stroke-miterlimit:10;stroke-dasharray:none;stroke-opacity:1"
       transform="matrix(1.3333333,0,0,-1.3333333,51,160.17867)" />
    <path
       id="path27"
       d="m 70.0165,90.7097 c 0,2.03522 -1.64986,3.68508 -3.6851,3.68508 -2.03521,0 -3.68507,-1.64986 -3.68507,-3.68508 0,-2.03523 1.64986,-3.68509 3.68507,-3.68509 2.03524,0 3.6851,1.64986 3.6851,3.68509 z"
       style="fill:#ffffff;fill-opacity:1;fill-rule:nonzero;stroke:#000000;stroke-width:0.54794;stroke-linecap:butt;stroke-linejoin:miter;stroke-miterlimit:10;stroke-dasharray:none;stroke-opacity:1"
       transform="matrix(1.3333333,0,0,-1.3333333,51,160.17867)" />
    <path
       id="path28"
       d="M 44.22093,65.19774 H 154.7733"
       style="fill:none;stroke:#616161;stroke-width:2.1918;stroke-linecap:round;stroke-linejoin:miter;stroke-miterlimit:10;stroke-dasharray:none;stroke-opacity:1"
       transform="matrix(1.3333333,0,0,-1.3333333,51,160.17867)" />
    <path
       id="path29"
       d="m 47.90602,65.19774 c 0,2.03522 -1.64986,3.68507 -3.68509,3.68507 -2.03522,0 -3.68507,-1.64985 -3.68507,-3.68507 0,-2.03524 1.64985,-3.68509 3.68507,-3.68509 2.03523,0 3.68509,1.64985 3.68509,3.68509 z"
       style="fill:#ffffff;fill-opacity:1;fill-rule:nonzero;stroke:#000000;stroke-width:0.54794;stroke-linecap:butt;stroke-linejoin:miter;stroke-miterlimit:10;stroke-dasharray:none;stroke-opacity:1"
       transform="matrix(1.3333333,0,0,-1.3333333,51,160.17867)" />
    <path
       id="path30"
       d="m 158.45837,65.19774 c 0,2.03522 -1.64985,3.68507 -3.68507,3.68507 -2.03523,0 -3.68509,-1.64985 -3.68509,-3.68507 0,-2.03524 1.64986,-3.68509 3.68509,-3.68509 2.03522,0 3.68507,1.64985 3.68507,3.68509 z"
       style="fill:#ffffff;fill-opacity:1;fill-rule:nonzero;stroke:#000000;stroke-width:0.54794;stroke-linecap:butt;stroke-linejoin:miter;stroke-miterlimit:10;stroke-dasharray:none;stroke-opacity:1"
       transform="matrix(1.3333333,0,0,-1.3333333,51,160.17867)" />
    <path
       id="path31"
       d="m 88.44188,39.68535 h 44.22095"
       style="fill:none;stroke:#616161;stroke-width:2.1918;stroke-linecap:round;stroke-linejoin:miter;stroke-miterlimit:10;stroke-dasharray:none;stroke-opacity:1"
       transform="matrix(1.3333333,0,0,-1.3333333,51,160.17867)" />
    <path
       id="path32"
       d="m 92.12697,39.68535 c 0,2.03523 -1.64986,3.68509 -3.68509,3.68509 -2.03523,0 -3.68508,-1.64986 -3.68508,-3.68509 0,-2.03522 1.64985,-3.68508 3.68508,-3.68508 2.03523,0 3.68509,1.64986 3.68509,3.68508 z"
       style="fill:#ffffff;fill-opacity:1;fill-rule:nonzero;stroke:#000000;stroke-width:0.54794;stroke-linecap:butt;stroke-linejoin:miter;stroke-miterlimit:10;stroke-dasharray:none;stroke-opacity:1"
       transform="matrix(1.3333333,0,0,-1.3333333,51,160.17867)" />
    <path
       id="path33"
       d="m 136.3479,39.68535 c 0,2.03523 -1.64986,3.68509 -3.68507,3.68509 -2.03523,0 -3.68509,-1.64986 -3.68509,-3.68509 0,-2.03522 1.64986,-3.68508 3.68509,-3.68508 2.03521,0 3.68507,1.64986 3.68507,3.68508 z"
       style="fill:#ffffff;fill-opacity:1;fill-rule:nonzero;stroke:#000000;stroke-width:0.54794;stroke-linecap:butt;stroke-linejoin:miter;stroke-miterlimit:10;stroke-dasharray:none;stroke-opacity:1"
       transform="matrix(1.3333333,0,0,-1.3333333,51,160.17867)" />
    <path
       id="path34"
       d="M 176.88377,14.17339 H 221.1047"
       style="fill:none;stroke:#616161;stroke-width:2.1918;stroke-linecap:round;stroke-linejoin:miter;stroke-miterlimit:10;stroke-dasharray:none;stroke-opacity:1"
       transform="matrix(1.3333333,0,0,-1.3333333,51,160.17867)" />
    <path
       id="path35"
       d="m 180.56885,14.17339 c 0,2.03523 -1.64986,3.68508 -3.68508,3.68508 -2.03523,0 -3.68509,-1.64985 -3.68509,-3.68508 0,-2.03522 1.64986,-3.68508 3.68509,-3.68508 2.03522,0 3.68508,1.64986 3.68508,3.68508 z"
       style="fill:#ffffff;fill-opacity:1;fill-rule:nonzero;stroke:#000000;stroke-width:0.54794;stroke-linecap:butt;stroke-linejoin:miter;stroke-miterlimit:10;stroke-dasharray:none;stroke-opacity:1"
       transform="matrix(1.3333333,0,0,-1.3333333,51,160.17867)" />
    <path
       id="path36"
       d="m 224.7898,14.17339 c 0,2.03523 -1.64986,3.68508 -3.6851,3.68508 -2.03521,0 -3.68507,-1.64985 -3.68507,-3.68508 0,-2.03522 1.64986,-3.68508 3.68507,-3.68508 2.03524,0 3.6851,1.64986 3.6851,3.68508 z"
       style="fill:#ffffff;fill-opacity:1;fill-rule:nonzero;stroke:#000000;stroke-width:0.54794;stroke-linecap:butt;stroke-linejoin:miter;stroke-miterlimit:10;stroke-dasharray:none;stroke-opacity:1"
       transform="matrix(1.3333333,0,0,-1.3333333,51,160.17867)" />
    <path
       id="path37"
       d="m 2.4726719,-7.4424844 v 0.984375 H 0.66798437 v 0.5976563 H 2.4726719 v 0.1875 c 0,1.1015625 -0.8085938,2.0976562 -1.99218753,2.4960937 l 0.36328125,0.5976563 c 0.94921878,-0.3398438 1.66406248,-1.03125 2.01562498,-1.9101563 0.3515625,0.7734375 1.0546875,1.3945313 1.96875,1.6875 l 0.3515625,-0.5742187 c -1.1835937,-0.375 -1.96875,-1.3007813 -1.96875,-2.296875 v -0.1875 h 1.7929688 v -0.5976563 h -1.78125 v -0.984375 z m 3.9023437,0.023437 v 2.296875 H 4.7578281 v 0.6210938 h 1.6171875 v 2.7070312 h 0.7382813 v -5.625 z m -2.2382812,5.0742188 v 0.1757812 c 0,1.1015625 -1.2890625,1.99218752 -2.71875,2.23828127 l 0.28125,0.59765625 c 1.21875,-0.234375 2.3203125,-0.87890625 2.8125,-1.79296872 0.46875,0.92578122 1.5703125,1.55859372 2.8007812,1.79296872 L 7.6054844,0.06923437 C 6.1640781,-0.16514063 4.8984531,-1.0440469 4.8984531,-2.1690469 V -2.3448281 Z M 11.830094,-4.8643594 H 14.0215 v 1.4765625 h -2.191406 z m -0.738282,-2.0039062 v 4.078125 h 3.667969 v -1.734375 h 1.863281 v 3.1171875 h 0.738282 v -6 h -0.738282 v 2.2734375 h -1.863281 v -1.734375 H 14.0215 v 1.4296875 h -2.191406 v -1.4296875 z m 1.066407,4.875 v 2.50781247 h 5.390625 v -0.609375 H 12.8965 V -1.9932656 Z m 11.507812,-5.25 v 7.52343747 h 0.691406 V -3.4932656 h 0.878907 v 4.19531247 h 0.703125 V -7.4190469 h -0.703125 v 3.3164063 h -0.878907 v -3.140625 z m -2.378906,0.8085937 v 0.609375 h 0.480469 v 0.84375 c 0,0.796875 -0.03516,1.9921875 -0.597657,2.8476563 C 20.584,-3.0362344 20.548844,-4.3018594 20.548844,-4.9815469 v -0.84375 h 0.492187 v -0.609375 h -1.980469 v 0.609375 h 0.832032 v 0.84375 c 0,0.9960938 -0.175782,2.484375 -1.113282,3.2226563 l 0.433594,0.515625 c 0.527344,-0.421875 0.832031,-1.0898438 0.996094,-1.7929688 0.140625,0.7148438 0.433594,1.4179688 0.949219,1.875 0.527343,-0.4453125 0.808593,-1.125 0.960937,-1.8515625 0.175781,0.703125 0.480469,1.3476563 0.996094,1.7695313 l 0.421875,-0.515625 c -0.925781,-0.7382813 -1.113281,-2.1914063 -1.113281,-3.2226563 v -0.84375 H 23.209 v -0.609375 z m 0,0"
       style="fill:#000000;fill-opacity:1;fill-rule:nonzero;stroke:none"
       aria-label="첫번째"
       transform="matrix(1.3333333,0,0,1.3333333,15.054667,43.728)" />
    <path
       id="path38"
       d="m 1.4531406,-6.9365781 v 3.140625 H 6.8672031 V -4.3936094 H 2.2031406 v -1.9335937 h 4.5585938 v -0.609375 z m -1.01953123,4.2070312 v 0.609375 H 3.7265781 V 0.66889062 H 4.4648594 V -2.1201719 h 3.328125 v -0.609375 z M 11.830094,-4.8623594 H 14.0215 v 1.4765625 h -2.191406 z m -0.738282,-2.0039062 v 4.078125 h 3.667969 v -1.734375 h 1.863281 v 3.1171875 h 0.738282 v -6 h -0.738282 v 2.2734375 h -1.863281 v -1.734375 H 14.0215 v 1.4296875 h -2.191406 v -1.4296875 z m 1.066407,4.875 v 2.50781247 h 5.390625 v -0.609375 H 12.8965 V -1.9912656 Z m 11.507812,-5.25 v 7.52343747 h 0.691406 V -3.4912656 h 0.878907 v 4.19531247 h 0.703125 V -7.4170469 h -0.703125 v 3.3164063 h -0.878907 v -3.140625 z m -2.378906,0.8085937 v 0.609375 h 0.480469 v 0.84375 c 0,0.796875 -0.03516,1.9921875 -0.597657,2.8476563 C 20.584,-3.0342344 20.548844,-4.2998594 20.548844,-4.9795469 v -0.84375 h 0.492187 v -0.609375 h -1.980469 v 0.609375 h 0.832032 v 0.84375 c 0,0.9960938 -0.175782,2.484375 -1.113282,3.2226563 l 0.433594,0.515625 c 0.527344,-0.421875 0.832031,-1.0898438 0.996094,-1.7929688 0.140625,0.7148438 0.433594,1.4179688 0.949219,1.875 0.527343,-0.4453125 0.808593,-1.125 0.960937,-1.8515625 0.175781,0.703125 0.480469,1.3476563 0.996094,1.7695313 l 0.421875,-0.515625 c -0.925781,-0.7382813 -1.113281,-2.1914063 -1.113281,-3.2226563 v -0.84375 H 23.209 v -0.609375 z m 0,0"
       style="fill:#000000;fill-opacity:1;fill-rule:nonzero;stroke:none"
       aria-label="두번째"
       transform="matrix(1.3333333,0,0,1.3333333,15.054667,77.725333)" />
    <path
       id="path39"
       d="M 6.6211094,-7.4183281 V 0.70276562 H 7.3476719 V -7.4183281 Z m -1.640625,0.1757812 v 2.7304688 H 3.6445469 v 0.6210937 H 4.9804844 V 0.28089062 H 5.6718906 V -7.2425469 Z m -2.8476563,0.5859375 v 1.5585938 c 0,1.3828125 -0.6679687,2.8242187 -1.76953123,3.4921875 l 0.45703125,0.5507812 c 0.79687498,-0.4804687 1.38281248,-1.40625 1.67578128,-2.4726562 0.2929687,0.984375 0.8320312,1.828125 1.6054687,2.296875 l 0.421875,-0.5742188 C 3.4570469,-2.4495781 2.8476719,-3.8323906 2.8476719,-5.1331719 v -1.5234375 z m 9.6972659,1.7929688 H 14.0215 v 1.4765625 h -2.191406 z m -0.738282,-2.0039063 v 4.078125 h 3.667969 v -1.734375 h 1.863281 v 3.1171875 h 0.738282 v -6 h -0.738282 v 2.2734375 h -1.863281 v -1.734375 H 14.0215 v 1.4296875 h -2.191406 v -1.4296875 z m 1.066407,4.875 v 2.50781252 h 5.390625 v -0.609375 H 12.8965 V -1.9925469 Z m 11.507812,-5.25 v 7.52343752 h 0.691406 V -3.4925469 h 0.878907 v 4.19531252 h 0.703125 V -7.4183281 h -0.703125 v 3.3164062 h -0.878907 v -3.140625 z m -2.378906,0.8085938 v 0.609375 h 0.480469 v 0.84375 c 0,0.796875 -0.03516,1.9921875 -0.597657,2.8476562 C 20.584,-3.0355156 20.548844,-4.3011406 20.548844,-4.9808281 v -0.84375 h 0.492187 v -0.609375 h -1.980469 v 0.609375 h 0.832032 v 0.84375 c 0,0.9960937 -0.175782,2.484375 -1.113282,3.2226562 l 0.433594,0.515625 c 0.527344,-0.421875 0.832031,-1.0898437 0.996094,-1.7929687 0.140625,0.7148437 0.433594,1.4179687 0.949219,1.875 0.527343,-0.4453125 0.808593,-1.125 0.960937,-1.8515625 0.175781,0.703125 0.480469,1.3476562 0.996094,1.7695312 l 0.421875,-0.515625 c -0.925781,-0.7382812 -1.113281,-2.1914062 -1.113281,-3.2226562 v -0.84375 H 23.209 v -0.609375 z m 0,0"
       style="fill:#000000;fill-opacity:1;fill-rule:nonzero;stroke:none"
       aria-label="세번째"
       transform="matrix(1.3333333,0,0,1.3333333,15.054667,111.74267)" />
    <path
       id="path40"
       d="M 6.6211094,-7.4186094 V 0.70248437 H 7.3359531 V -7.4186094 Z m -5.78906253,5.4140625 v 0.6445313 H 1.3593906 c 0.984375,0 1.875,-0.035156 2.9414063,-0.2578125 L 4.1953281,-2.2623594 c -0.9375,0.1992188 -1.7578125,0.2578125 -2.6132812,0.2578125 V -6.5397031 H 0.83204687 Z M 4.8984531,-7.2193906 v 2.53125 H 3.0937656 v 0.609375 H 4.8984531 V 0.28060937 H 5.6132969 V -7.2193906 Z m 6.9316409,2.3554687 H 14.0215 v 1.4765625 h -2.191406 z m -0.738282,-2.0039062 v 4.078125 h 3.667969 v -1.734375 h 1.863281 v 3.1171875 h 0.738282 v -6 h -0.738282 v 2.2734375 h -1.863281 v -1.734375 H 14.0215 v 1.4296875 h -2.191406 v -1.4296875 z m 1.066407,4.875 v 2.50781247 h 5.390625 v -0.609375 H 12.8965 V -1.9928281 Z m 11.507812,-5.25 v 7.52343747 h 0.691406 V -3.4928281 h 0.878907 v 4.19531247 h 0.703125 V -7.4186094 h -0.703125 v 3.3164063 h -0.878907 v -3.140625 z m -2.378906,0.8085937 v 0.609375 h 0.480469 v 0.84375 c 0,0.796875 -0.03516,1.9921875 -0.597657,2.8476563 C 20.584,-3.0357969 20.548844,-4.3014219 20.548844,-4.9811094 v -0.84375 h 0.492187 v -0.609375 h -1.980469 v 0.609375 h 0.832032 v 0.84375 c 0,0.9960938 -0.175782,2.484375 -1.113282,3.2226563 l 0.433594,0.515625 c 0.527344,-0.421875 0.832031,-1.0898438 0.996094,-1.7929688 0.140625,0.7148438 0.433594,1.4179688 0.949219,1.875 0.527343,-0.4453125 0.808593,-1.125 0.960937,-1.8515625 0.175781,0.703125 0.480469,1.3476563 0.996094,1.7695313 l 0.421875,-0.515625 c -0.925781,-0.7382813 -1.113281,-2.1914063 -1.113281,-3.2226563 v -0.84375 H 23.209 v -0.609375 z m 0,0"
       style="fill:#000000;fill-opacity:1;fill-rule:nonzero;stroke:none"
       aria-label="네번째"
       transform="matrix(1.3333333,0,0,1.3333333,15.054667,145.75867)" />
    <path
       id="path41"
       d="M 410.9358,111.96982 H 267.51746 c -1.10047,0 -1.99256,-0.89209 -1.99256,-1.99256 V 14.7485 c 0,-1.10046 0.89209,-1.99255 1.99256,-1.99255 H 410.9358 c 1.10049,0 1.99256,0.89209 1.99256,1.99255 v 95.22876 c 0,1.10047 -0.89207,1.99256 -1.99256,1.99256 z"
       style="fill:#fcfcfc;fill-opacity:1;fill-rule:nonzero;stroke:#c7c7c7;stroke-width:0.3985;stroke-linecap:butt;stroke-linejoin:miter;stroke-miterlimit:10;stroke-dasharray:none;stroke-opacity:1"
       transform="matrix(1.3333333,0,0,-1.3333333,51,160.17867)" />
    <g
       id="g41"
       aria-label="시작점기준정렬&#10;[1,3]&#10;[2,7]&#10;[4,6]&#10;[8,10]"
       transform="matrix(1.3333333,0,0,1.3333333,462.092,48.965333)">
      <path
         id="path42"
         d="M 6.0599063,-7.5238047 V 0.80822656 H 7.2552188 V -7.5238047 Z m -3.6796875,0.65625 v 1.2070313 c 0,1.6054687 -0.6796875,3.2109375 -2.1210938,3.84375 l 0.71484375,0.98437496 C 1.9700625,-1.3011484 2.6380313,-2.1917734 3.0013125,-3.2933359 c 0.375,1.0195312 1.0195313,1.828125 1.96875,2.2617187 L 5.6614688,-2.0042734 C 4.2435,-2.6019297 3.58725,-4.1253672 3.58725,-5.6605234 v -1.2070313 z m 7.227539,4.7226563 v 0.9492187 h 4.3476562 v 1.99218751 h 1.183594 V -2.1448984 Z m -0.8085937,-4.875 v 0.9492187 h 1.6640629 c -0.02344,1.0195313 -0.6328129,2.0625 -1.9687504,2.5078125 l 0.609375,0.9140625 c 0.9609374,-0.3046875 1.6054684,-0.9492187 1.9804684,-1.7578125 0.363282,0.7382813 0.984375,1.3242188 1.886719,1.6171875 l 0.597656,-0.9257812 c -1.300781,-0.421875 -1.875,-1.40625 -1.910156,-2.3554688 h 1.640625 v -0.9492187 z m 5.1562499,-0.4804688 v 4.9921875 h 1.183594 v -2.015625 h 1.101562 v -0.984375 h -1.101562 v -1.9921875 z m 4.3125,5.1210938 v 3.08203121 h 5.542969 V -2.3792734 Z m 4.371094,0.9375 v 1.20703121 h -3.1875 V -1.4417734 Z m -0.02344,-6.0585938 v 1.8984375 h -1.253906 v 0.9609375 h 1.253906 v 1.9335938 h 1.195313 v -4.7929688 z m -5.472656,0.4101563 v 0.9492187 h 1.640625 c -0.02344,1.0195313 -0.621094,2.0625 -1.957031,2.5078125 l 0.585937,0.9492188 c 0.972657,-0.328125 1.628907,-0.9960938 1.992188,-1.8046875 0.351562,0.7382812 0.972656,1.3359375 1.886719,1.640625 l 0.574218,-0.9375 c -1.265625,-0.4335938 -1.839843,-1.40625 -1.875,-2.3554688 h 1.617188 v -0.9492187 z m 15.711914,-0.421875 v 8.29687496 h 1.195313 V -7.5120859 Z m -5.25,0.8554687 v 0.9492188 h 2.777344 c -0.1875,1.8398437 -1.113281,3.140625 -3.222656,4.1601562 l 0.621093,0.93750001 c 2.953125,-1.42968751 3.808594,-3.49218751 3.808594,-6.04687501 z m 8.472656,-0.4921875 v 0.9375 h 2.214844 c -0.140625,0.65625 -0.960937,1.3359375 -2.578125,1.5117188 l 0.433594,0.9375 c 1.546875,-0.1757813 2.554687,-0.8203125 2.988281,-1.6757813 0.433594,0.8554688 1.441406,1.5 3,1.6757813 l 0.421875,-0.9375 c -1.617187,-0.1757813 -2.4375,-0.8554688 -2.578125,-1.5117188 h 2.238281 v -0.9375 z m -0.691406,3.7734375 v 0.9492188 h 3.257813 v 1.40625 h 1.195312 v -1.40625 h 3.058594 v -0.9492188 z m 0.867188,1.640625 v 2.39062501 h 5.8125 v -0.9609375 H 37.448578 V -1.7347422 Z M 49.806,-2.3909922 c -1.757812,0 -2.835937,0.5976563 -2.835937,1.59375001 0,1.01953125 1.078125,1.60546875 2.835937,1.60546875 1.757813,0 2.847656,-0.5859375 2.847656,-1.60546875 0,-0.99609371 -1.089843,-1.59375001 -2.847656,-1.59375001 z m 0,0.9023438 c 1.078125,0 1.652344,0.2226562 1.652344,0.69140621 0,0.46875 -0.574219,0.703125 -1.652344,0.703125 -1.089844,0 -1.652344,-0.234375 -1.652344,-0.703125 0,-0.46875001 0.5625,-0.69140621 1.652344,-0.69140621 z m 1.617188,-6.0117188 v 1.9921875 h -1.253907 v 0.9726563 h 1.253907 v 1.9570312 H 52.6185 v -4.921875 z m -5.472657,0.5039063 v 0.9375 h 1.640625 c -0.03516,1.0429687 -0.621093,2.0859375 -1.957031,2.5429687 l 0.597656,0.9375 c 0.972657,-0.328125 1.628907,-0.9960937 1.992188,-1.828125 0.351562,0.7265625 0.960937,1.3242188 1.875,1.6171875 l 0.574219,-0.9257812 c -1.265625,-0.421875 -1.839844,-1.3945313 -1.875,-2.34375 h 1.617187 v -0.9375 z m 13.722657,-0.5039063 v 0.8671875 h -1.324219 v 0.9375 h 1.324219 v 0.6210938 h -1.324219 v 0.9375 h 1.324219 v 0.9492187 H 60.8685 v -4.3125 z m -5.449219,0.3632813 v 0.9023437 h 2.472656 v 0.5507813 h -2.460937 v 2.34375 H 54.8685 c 1.335938,0 2.273438,0 3.386719,-0.1640625 l -0.09375,-0.9023438 c -0.925781,0.1289063 -1.710938,0.1523438 -2.742188,0.1523438 V -4.8402109 H 57.8685 v -2.296875 z m 1.101562,6.98437496 v 0.90234375 h 5.789063 v -0.90234375 h -4.605469 v -0.515625 H 60.8685 V -2.8714609 h -5.554687 v 0.890625 h 4.371093 v 0.4804687 h -4.359375 z m 0,0"
         style="fill:#000000;fill-opacity:1;fill-rule:nonzero;stroke:none" />
      <path
         id="path43"
         d="m 4.33725,15.940062 c 0,-0.28125 -0.2460937,-0.28125 -0.375,-0.28125 H 2.6145938 V 9.8580312 H 3.96225 c 0.140625,0 0.375,0 0.375,-0.2929687 0,-0.2929688 -0.2460937,-0.2929688 -0.375,-0.2929688 H 2.3333438 c -0.2929688,0 -0.375,0.070312 -0.375,0.375 v 6.2109373 c 0,0.304688 0.070313,0.375 0.375,0.375 H 3.96225 c 0.140625,0 0.375,0 0.375,-0.292969 z M 8.6907656,15.2135 c 0,-0.304688 -0.2226562,-0.304688 -0.375,-0.304688 h -0.796875 v -4.617187 c 0,-0.128906 0,-0.375 -0.28125,-0.375 -0.1523437,0 -0.2226562,0.082031 -0.28125,0.199219 -0.28125,0.632812 -0.6328125,0.867187 -0.9960937,0.902343 -0.1289063,0 -0.328125,0.02344 -0.328125,0.292969 0,0.175781 0.09375,0.28125 0.3164062,0.28125 0.3515625,0 0.703125,-0.1875 0.9140625,-0.363281 v 3.679687 h -0.796875 c -0.1523437,0 -0.3867187,0 -0.3867187,0.304688 0,0.28125 0.2460937,0.28125 0.3867187,0.28125 h 2.25 c 0.140625,0 0.375,0 0.375,-0.28125 z m 3.8291014,0.04687 c 0,-0.515625 -0.328125,-0.902344 -0.75,-0.902344 -0.351562,0 -0.574219,0.269531 -0.574219,0.5625 0,0.328125 0.246094,0.574219 0.574219,0.574219 0.07031,0 0.128906,-0.01172 0.140625,-0.02344 -0.03516,0.199219 -0.199219,0.539063 -0.65625,0.691407 -0.08203,0.03516 -0.246094,0.08203 -0.246094,0.28125 0,0.140625 0.140625,0.292968 0.304688,0.292968 0.292969,0 1.207031,-0.46875 1.207031,-1.476562 z m 10.602539,-1.335938 c 0,-0.738281 -0.550781,-1.230468 -0.972656,-1.429687 0.65625,-0.457031 0.714844,-1.054688 0.714844,-1.289063 0,-0.691406 -0.679688,-1.289062 -1.699219,-1.289062 -1.101562,0 -1.6875,0.445312 -1.6875,1.054687 0,0.269532 0.199219,0.421875 0.421875,0.421875 0.222656,0 0.410156,-0.175781 0.410156,-0.410156 0,-0.08203 -0.02344,-0.175781 -0.07031,-0.234375 0.292969,-0.246094 0.878906,-0.246094 0.925781,-0.246094 0.632813,0 1.03125,0.328125 1.03125,0.703125 0,0.246094 -0.117187,0.609375 -0.457031,0.832032 -0.234375,0.152343 -0.398438,0.164062 -0.820313,0.199218 -0.351562,0.01172 -0.527343,0.03516 -0.527343,0.304688 0,0.292969 0.246093,0.292969 0.375,0.292969 h 0.375 c 0.925781,0 1.324218,0.621093 1.324218,1.078125 0,0.574218 -0.515625,1.101562 -1.289062,1.101562 -0.234375,0 -0.914063,-0.03516 -1.230469,-0.46875 l 0.02344,-0.02344 c 0.05859,-0.08203 0.05859,-0.105469 0.07031,-0.1875 0,0 0.01172,-0.03516 0.01172,-0.07031 0,-0.222656 -0.175781,-0.410156 -0.410156,-0.410156 -0.222657,0 -0.421875,0.128906 -0.421875,0.433594 0,0.796875 0.84375,1.300781 1.957031,1.300781 1.171875,0 1.945312,-0.808594 1.945312,-1.664063 z m 3.146485,1.933594 V 9.6470937 c 0,-0.2929687 -0.07031,-0.375 -0.375,-0.375 h -1.628907 c -0.128906,0 -0.375,0 -0.375,0.2929688 0,0.2929687 0.234375,0.2929687 0.375,0.2929687 h 1.335938 v 5.8007808 h -1.335938 c -0.128906,0 -0.375,0 -0.375,0.28125 0,0.292969 0.234375,0.292969 0.375,0.292969 h 1.628907 c 0.292968,0 0.375,-0.07031 0.375,-0.375 z M 4.33725,26.897094 c 0,-0.28125 -0.2460937,-0.28125 -0.375,-0.28125 H 2.6145938 V 20.815062 H 3.96225 c 0.140625,0 0.375,0 0.375,-0.292968 0,-0.292969 -0.2460937,-0.292969 -0.375,-0.292969 H 2.3333438 c -0.2929688,0 -0.375,0.07031 -0.375,0.375 v 6.210937 c 0,0.304688 0.070313,0.375 0.375,0.375 H 3.96225 c 0.140625,0 0.375,0 0.375,-0.292968 z m 4.5996094,-0.820313 v -0.257812 c 0,-0.175782 0,-0.375 -0.328125,-0.375 -0.3398438,0 -0.3398438,0.1875 -0.3398438,0.421875 h -2.015625 c 0.4804688,-0.410157 1.4882813,-1.207032 1.7109375,-1.417969 0.328125,-0.316406 0.9726563,-0.914063 0.9726563,-1.804688 0,-1.066406 -0.890625,-1.769531 -2.0039063,-1.769531 -1.0429687,0 -1.7578125,0.714844 -1.7578125,1.476563 0,0.363281 0.28125,0.457031 0.421875,0.457031 0.1757813,0 0.4101563,-0.152344 0.4101563,-0.421875 0,-0.1875 -0.070312,-0.257813 -0.1171875,-0.304688 0.1523437,-0.386718 0.5507812,-0.621093 1.0078125,-0.621093 0.7148437,0 1.3710937,0.410156 1.3710937,1.183593 0,0.621094 -0.4804687,1.160157 -0.8320312,1.464844 L 5.3040469,25.901 c -0.070312,0.05859 -0.1289063,0.117187 -0.1289063,0.257812 0,0.292969 0.234375,0.292969 0.3867188,0.292969 h 3 c 0.2929687,0 0.375,-0.07031 0.375,-0.375 z m 3.5830076,0.140625 c 0,-0.515625 -0.328125,-0.902344 -0.75,-0.902344 -0.351562,0 -0.574219,0.269532 -0.574219,0.5625 0,0.328125 0.246094,0.574219 0.574219,0.574219 0.07031,0 0.128906,-0.01172 0.140625,-0.02344 -0.03516,0.199218 -0.199219,0.539062 -0.65625,0.691406 -0.08203,0.03516 -0.246094,0.08203 -0.246094,0.28125 0,0.140625 0.140625,0.292969 0.304688,0.292969 0.292969,0 1.207031,-0.46875 1.207031,-1.476563 z m 10.602539,-4.945312 c 0,-0.292969 -0.234375,-0.292969 -0.375,-0.292969 h -2.90625 c -0.05859,-0.152344 -0.210937,-0.152344 -0.292968,-0.152344 -0.328125,0 -0.328125,0.210938 -0.328125,0.375 v 0.410156 c 0,0.164063 0,0.375 0.328125,0.375 0.328125,0 0.328125,-0.1875 0.328125,-0.433593 h 2.25 c -0.527344,0.597656 -0.960938,1.265625 -1.265625,1.992187 -0.46875,1.089844 -0.539063,2.15625 -0.539063,2.566406 0,0.117188 0,0.433594 0.328125,0.433594 0.328125,0 0.328125,-0.304687 0.328125,-0.445312 0.03516,-2.015625 1.019531,-3.609375 1.945313,-4.511719 0.175781,-0.164063 0.199218,-0.1875 0.199218,-0.316406 z m 3.146485,5.542968 v -6.210937 c 0,-0.292969 -0.07031,-0.375 -0.375,-0.375 h -1.628907 c -0.128906,0 -0.375,0 -0.375,0.292969 0,0.292968 0.234375,0.292968 0.375,0.292968 h 1.335938 v 5.800782 h -1.335938 c -0.128906,0 -0.375,0 -0.375,0.28125 0,0.292968 0.234375,0.292968 0.375,0.292968 h 1.628907 c 0.292968,0 0.375,-0.07031 0.375,-0.375 z M 4.33725,37.857055 c 0,-0.28125 -0.2460937,-0.28125 -0.375,-0.28125 H 2.6145938 V 31.775023 H 3.96225 c 0.140625,0 0.375,0 0.375,-0.292968 0,-0.292969 -0.2460937,-0.292969 -0.375,-0.292969 H 2.3333438 c -0.2929688,0 -0.375,0.07031 -0.375,0.375 v 6.210937 c 0,0.304688 0.070313,0.375 0.375,0.375 H 3.96225 c 0.140625,0 0.375,0 0.375,-0.292968 z m 4.8105469,-2.238282 c 0,-0.292968 -0.2460938,-0.292968 -0.375,-0.292968 H 8.1048281 v -3.128907 c 0,-0.304687 -0.070312,-0.386718 -0.3867187,-0.386718 H 7.4602969 c -0.2226563,0 -0.28125,0.01172 -0.3984375,0.199218 l -2.015625,3.1875 c -0.082031,0.117188 -0.082031,0.140625 -0.082031,0.328125 0,0.257813 0.035156,0.375 0.375,0.375 h 2.2265625 v 0.925782 H 7.0267031 c -0.1289062,0 -0.375,0 -0.375,0.292968 0,0.292969 0.2460938,0.292969 0.375,0.292969 h 1.6171875 c 0.1289063,0 0.375,0 0.375,-0.28125 0,-0.304687 -0.2460937,-0.304687 -0.375,-0.304687 H 8.1048281 v -0.925782 h 0.6679688 c 0.1171875,0 0.375,0 0.375,-0.28125 z M 7.5657656,35.325805 h -1.921875 l 1.921875,-3.058594 z m 4.9541014,1.851562 c 0,-0.515625 -0.328125,-0.902344 -0.75,-0.902344 -0.351562,0 -0.574219,0.269532 -0.574219,0.5625 0,0.328125 0.246094,0.574219 0.574219,0.574219 0.07031,0 0.128906,-0.01172 0.140625,-0.02344 -0.03516,0.199218 -0.199219,0.539062 -0.65625,0.691406 -0.08203,0.03516 -0.246094,0.08203 -0.246094,0.28125 0,0.140625 0.140625,0.292969 0.304688,0.292969 0.292969,0 1.207031,-0.46875 1.207031,-1.476563 z m 10.555664,-1.5 c 0,-1.007812 -0.796875,-1.816406 -1.804687,-1.816406 -0.492188,0 -0.949219,0.175781 -1.324219,0.492187 0.140625,-1.195312 0.9375,-1.933593 1.746094,-1.933593 0.08203,0 0.304687,0 0.445312,0.140625 -0.05859,0.05859 -0.08203,0.164062 -0.08203,0.246093 0,0.199219 0.152344,0.410157 0.410156,0.410157 0.246094,0 0.421875,-0.175782 0.421875,-0.445313 0,-0.410156 -0.28125,-0.9375 -1.195312,-0.9375 -1.207031,0 -2.425781,1.101563 -2.425781,2.894531 0,2.109375 0.996093,2.777344 1.933593,2.777344 0.972657,0 1.875,-0.738281 1.874999,-1.828125 z m -0.667968,0 c 0,0.738281 -0.574219,1.253906 -1.21875,1.253906 -0.855469,0 -1.160157,-0.960937 -1.160157,-1.511718 0,-0.503907 0.503907,-0.960938 1.195313,-0.960938 0.714844,0 1.183594,0.574219 1.183594,1.21875 z m 3.861328,2.097656 v -6.210937 c 0,-0.292969 -0.07031,-0.375 -0.375,-0.375 h -1.628907 c -0.128906,0 -0.375,0 -0.375,0.292969 0,0.292968 0.234375,0.292968 0.375,0.292968 h 1.335938 v 5.800782 h -1.335938 c -0.128906,0 -0.375,0 -0.375,0.28125 0,0.292968 0.234375,0.292968 0.375,0.292968 h 1.628907 c 0.292968,0 0.375,-0.07031 0.375,-0.375 z M 4.33725,48.817016 c 0,-0.28125 -0.2460937,-0.28125 -0.375,-0.28125 H 2.6145938 V 42.734984 H 3.96225 c 0.140625,0 0.375,0 0.375,-0.292968 0,-0.292969 -0.2460937,-0.292969 -0.375,-0.292969 H 2.3333438 c -0.2929688,0 -0.375,0.07031 -0.375,0.375 v 6.210937 c 0,0.304688 0.070313,0.375 0.375,0.375 H 3.96225 c 0.140625,0 0.375,0 0.375,-0.292968 z m 4.6699219,-2.015625 c 0,-0.738282 -0.6796875,-1.230469 -1.2421875,-1.382813 0.515625,-0.152344 1.1132812,-0.5625 1.1132812,-1.183594 0,-0.726562 -0.75,-1.441406 -1.828125,-1.441406 -1.0664062,0 -1.828125,0.714844 -1.828125,1.441406 0,0.621094 0.609375,1.03125 1.125,1.183594 -0.5859375,0.164063 -1.2421875,0.65625 -1.2421875,1.382813 0,0.878906 0.8203125,1.664062 1.9453125,1.664062 1.1367188,0 1.9570313,-0.796875 1.9570313,-1.664062 z M 8.2220156,44.246703 c 0,0.492188 -0.5390625,0.878906 -1.171875,0.878906 -0.6210937,0 -1.1601562,-0.386718 -1.1601562,-0.878906 0,-0.445312 0.4804687,-0.867187 1.1601562,-0.867187 0.6914063,0 1.171875,0.421875 1.171875,0.867187 z m 0.1289063,2.542969 c 0,0.597656 -0.5742188,1.101562 -1.3007813,1.101562 -0.7265625,0 -1.2890625,-0.503906 -1.2890625,-1.101562 0,-0.539063 0.515625,-1.078125 1.2890625,-1.078125 0.796875,0 1.3007813,0.539062 1.3007813,1.078125 z m 4.1689451,1.347656 c 0,-0.515625 -0.328125,-0.902344 -0.75,-0.902344 -0.351562,0 -0.574219,0.269532 -0.574219,0.5625 0,0.328125 0.246094,0.574219 0.574219,0.574219 0.07031,0 0.128906,-0.01172 0.140625,-0.02344 -0.03516,0.199218 -0.199219,0.539062 -0.65625,0.691406 -0.08203,0.03516 -0.246094,0.08203 -0.246094,0.28125 0,0.140625 0.140625,0.292969 0.304688,0.292969 0.292969,0 1.207031,-0.46875 1.207031,-1.476563 z M 22.806,48.090453 c 0,-0.304687 -0.222656,-0.304687 -0.375,-0.304687 h -0.796875 v -4.617188 c 0,-0.128906 0,-0.375 -0.28125,-0.375 -0.152344,0 -0.222656,0.08203 -0.28125,0.199219 -0.28125,0.632812 -0.632812,0.867187 -0.996094,0.902344 -0.128906,0 -0.328125,0.02344 -0.328125,0.292968 0,0.175782 0.09375,0.28125 0.316407,0.28125 0.351562,0 0.703125,-0.1875 0.914062,-0.363281 v 3.679688 H 20.181 c -0.152344,0 -0.386719,0 -0.386719,0.304687 0,0.28125 0.246094,0.28125 0.386719,0.28125 h 2.25 c 0.140625,0 0.375,0 0.375,-0.28125 z m 4.986328,-2.449219 c 0,-1.675781 -0.914062,-2.847656 -1.921875,-2.847656 -1.007812,0 -1.910156,1.207031 -1.910156,2.835938 0,1.664062 0.914062,2.835937 1.910156,2.835937 1.019531,0 1.921875,-1.195312 1.921875,-2.824219 z m -0.65625,-0.105468 c 0,1.300781 -0.5625,2.355468 -1.265625,2.355468 -0.691406,0 -1.253906,-1.066406 -1.253906,-2.355468 0,-1.300782 0.609375,-2.15625 1.253906,-2.15625 0.65625,0 1.265625,0.867187 1.265625,2.15625 z m 3.84082,3.199218 v -6.210937 c 0,-0.292969 -0.07031,-0.375 -0.375,-0.375 h -1.628906 c -0.128906,0 -0.375,0 -0.375,0.292969 0,0.292968 0.234375,0.292968 0.375,0.292968 h 1.335938 v 5.800782 h -1.335938 c -0.128906,0 -0.375,0 -0.375,0.28125 0,0.292968 0.234375,0.292968 0.375,0.292968 h 1.628906 c 0.292969,0 0.375,-0.07031 0.375,-0.375 z m 0,0"
         style="fill:#000000;fill-opacity:1;fill-rule:nonzero;stroke:none" />
    </g>
  </g>
</svg>
