<svg xmlns="http://www.w3.org/2000/svg" width="560" height="240" viewBox="0 0 560 240">
<rect width="100%" height="100%" fill="white"/>
<style>
text{font-family:"JetBrains Mono","Consolas","Noto Sans Mono CJK KR",monospace;fill:#202020}
.label{font-size:12px}
.num{font-size:10px;fill:#666}
.axis,.tick{stroke:#777;stroke-width:1}
.seg{stroke:#777;stroke-width:2.2}
.segHi{stroke:#202020;stroke-width:3.2}
.segLight{stroke:#c9c9c9;stroke-width:2.2}
.point{fill:white;stroke:#777;stroke-width:1.2}
.pointHi{fill:white;stroke:#202020;stroke-width:1.4}
.pointLight{fill:white;stroke:#c9c9c9;stroke-width:1.2}
</style>
<text x="72" y="62" text-anchor="middle" class="label">첫 번째</text>
<text x="72" y="94" text-anchor="middle" class="label">두 번째</text>
<text x="72" y="126" text-anchor="middle" class="label">세 번째</text>
<text x="72" y="158" text-anchor="middle" class="label">네 번째</text>
<line x1="171.0" y1="58" x2="233.0" y2="58" class="seg"/>
<circle cx="171.0" cy="58" r="5" class="point"/>
<circle cx="233.0" cy="58" r="5" class="point"/>
<line x1="202.0" y1="90" x2="357.0" y2="90" class="seg"/>
<circle cx="202.0" cy="90" r="5" class="point"/>
<circle cx="357.0" cy="90" r="5" class="point"/>
<line x1="264.0" y1="122" x2="326.0" y2="122" class="seg"/>
<circle cx="264.0" cy="122" r="5" class="point"/>
<circle cx="326.0" cy="122" r="5" class="point"/>
<line x1="388.0" y1="154" x2="450.0" y2="154" class="seg"/>
<circle cx="388.0" cy="154" r="5" class="point"/>
<circle cx="450.0" cy="154" r="5" class="point"/>
<line x1="140" y1="190" x2="466" y2="190" class="axis"/>
<path d="M 466 190 L 460 187 L 460 193 Z" fill="#777"/>
<line x1="140.0" y1="186" x2="140.0" y2="194" class="tick"/>
<text x="140.0" y="208" text-anchor="middle" class="num">0</text>
<line x1="171.0" y1="186" x2="171.0" y2="194" class="tick"/>
<text x="171.0" y="208" text-anchor="middle" class="num">1</text>
<line x1="202.0" y1="186" x2="202.0" y2="194" class="tick"/>
<text x="202.0" y="208" text-anchor="middle" class="num">2</text>
<line x1="233.0" y1="186" x2="233.0" y2="194" class="tick"/>
<text x="233.0" y="208" text-anchor="middle" class="num">3</text>
<line x1="264.0" y1="186" x2="264.0" y2="194" class="tick"/>
<text x="264.0" y="208" text-anchor="middle" class="num">4</text>
<line x1="295.0" y1="186" x2="295.0" y2="194" class="tick"/>
<text x="295.0" y="208" text-anchor="middle" class="num">5</text>
<line x1="326.0" y1="186" x2="326.0" y2="194" class="tick"/>
<text x="326.0" y="208" text-anchor="middle" class="num">6</text>
<line x1="357.0" y1="186" x2="357.0" y2="194" class="tick"/>
<text x="357.0" y="208" text-anchor="middle" class="num">7</text>
<line x1="388.0" y1="186" x2="388.0" y2="194" class="tick"/>
<text x="388.0" y="208" text-anchor="middle" class="num">8</text>
<line x1="419.0" y1="186" x2="419.0" y2="194" class="tick"/>
<text x="419.0" y="208" text-anchor="middle" class="num">9</text>
<line x1="450.0" y1="186" x2="450.0" y2="194" class="tick"/>
<text x="450.0" y="208" text-anchor="middle" class="num">10</text>
</svg>