<?xml version="1.0" encoding="UTF-8" standalone="no"?>
<!-- Created with Inkscape (http://www.inkscape.org/) -->

<svg
   version="1.1"
   id="svg1"
   width="623.45331"
   height="223.26666"
   viewBox="0 0 623.45331 223.26666"
   sodipodi:docname="2.pdf"
   xmlns:inkscape="http://www.inkscape.org/namespaces/inkscape"
   xmlns:sodipodi="http://sodipodi.sourceforge.net/DTD/sodipodi-0.dtd"
   xmlns="http://www.w3.org/2000/svg"
   xmlns:svg="http://www.w3.org/2000/svg">
  <defs
     id="defs1" />
  <sodipodi:namedview
     id="namedview1"
     pagecolor="#ffffff"
     bordercolor="#000000"
     borderopacity="0.25"
     inkscape:showpageshadow="2"
     inkscape:pageopacity="0.0"
     inkscape:pagecheckerboard="0"
     inkscape:deskcolor="#d1d1d1">
    <inkscape:page
       x="0"
       y="0"
       inkscape:label="1"
       id="page1"
       width="623.45331"
       height="223.26666"
       margin="0"
       bleed="0" />
  </sodipodi:namedview>
  <g
     id="g1"
     inkscape:groupmode="layer"
     inkscape:label="1">
    <path
       id="path1"
       d="M 0,-22.67752 H 238.67021"
       style="fill:none;stroke:#808080;stroke-width:0.54794;stroke-linecap:butt;stroke-linejoin:miter;stroke-miterlimit:10;stroke-dasharray:none;stroke-opacity:1"
       transform="matrix(1.3333333,0,0,-1.3333333,61.998667,160.17867)" />
    <path
       id="path2"
       d="M 3.41533,0 C 2.99591,0.10364 1.15227,0.69095 0,1.3301 V -1.3301 C 1.15227,-0.69095 2.99591,-0.10364 3.41533,0 Z"
       style="fill:#808080;fill-opacity:1;fill-rule:nonzero;stroke:#808080;stroke-width:0.54794;stroke-linecap:butt;stroke-linejoin:miter;stroke-miterlimit:10;stroke-dasharray:none;stroke-opacity:1"
       transform="matrix(1.3333333,0,0,-1.3333333,380.22561,190.41536)" />
    <path
       id="path3"
       d="m 0,-25.79568 v 6.23632"
       style="fill:none;stroke:#858585;stroke-width:0.44832;stroke-linecap:butt;stroke-linejoin:miter;stroke-miterlimit:10;stroke-dasharray:none;stroke-opacity:1"
       transform="matrix(1.3333333,0,0,-1.3333333,61.998667,160.17867)" />
    <path
       id="path4"
       d="m 1.9330703,0.0950625 c 0.9960938,0 1.59375,-0.92578125 1.59375,-2.6015625 0,-1.6523438 -0.5976562,-2.5546875 -1.59375,-2.5546875 -0.99609374,0 -1.58203124,0.890625 -1.58203124,2.5546875 0,1.67578125 0.5859375,2.6015625 1.58203124,2.6015625 z m 0,-0.515625 c -0.5742187,0 -0.97265624,-0.6210938 -0.97265624,-2.0859375 0,-1.453125 0.39843754,-2.0507813 0.97265624,-2.0507813 0.5859375,0 0.984375,0.5976563 0.984375,2.0507813 0,1.4648437 -0.3984375,2.0859375 -0.984375,2.0859375 z m 0,0"
       style="fill:#525252;fill-opacity:1;fill-rule:nonzero;stroke:none"
       aria-label="0"
       transform="matrix(1.3333333,0,0,1.3333333,59.418667,208.092)" />
    <path
       id="path5"
       d="m 22.11046,-25.79568 v 6.23632"
       style="fill:none;stroke:#858585;stroke-width:0.44832;stroke-linecap:butt;stroke-linejoin:miter;stroke-miterlimit:10;stroke-dasharray:none;stroke-opacity:1"
       transform="matrix(1.3333333,0,0,-1.3333333,61.998667,160.17867)" />
    <path
       id="path6"
       d="M 0.60920312,0.0013125 H 3.4217031 v -0.52734375 h -1.03125 V -4.9674375 H 1.8982656 c -0.2695312,0.1640625 -0.5976562,0.28125 -1.05468748,0.3632812 V -4.194 H 1.7576406 v 3.66796875 H 0.60920312 Z m 0,0"
       style="fill:#525252;fill-opacity:1;fill-rule:nonzero;stroke:none"
       aria-label="1"
       transform="matrix(1.3333333,0,0,1.3333333,88.898667,208.092)" />
    <path
       id="path7"
       d="m 44.22093,-25.79568 v 6.23632"
       style="fill:none;stroke:#858585;stroke-width:0.44832;stroke-linecap:butt;stroke-linejoin:miter;stroke-miterlimit:10;stroke-dasharray:none;stroke-opacity:1"
       transform="matrix(1.3333333,0,0,-1.3333333,61.998667,160.17867)" />
    <path
       id="path8"
       d="M 0.30386719,-7.421875e-4 H 3.5148047 V -0.55152344 H 2.0733984 c -0.2578125,0 -0.5625,0.0234375 -0.8320312,0.046875 1.171875,-1.23046876 2.0390625,-2.16796876 2.0390625,-3.10546876 0,-0.8789062 -0.5859375,-1.453125 -1.5,-1.453125 -0.6445313,0 -1.08984376,0.2929688 -1.50000001,0.75 l 0.36328125,0.3632813 c 0.29296875,-0.328125 0.64453126,-0.5976563 1.06640626,-0.5976563 0.6328125,0 0.9375,0.4101563 0.9375,0.9726563 0,0.8085937 -0.84375,1.7109375 -2.34375001,3.19921871 z m 0,0"
       style="fill:#525252;fill-opacity:1;fill-rule:nonzero;stroke:none"
       aria-label="2"
       transform="matrix(1.3333333,0,0,1.3333333,118.38,208.15333)" />
    <path
       id="path9"
       d="m 66.3314,-25.79568 v 6.23632"
       style="fill:none;stroke:#858585;stroke-width:0.44832;stroke-linecap:butt;stroke-linejoin:miter;stroke-miterlimit:10;stroke-dasharray:none;stroke-opacity:1"
       transform="matrix(1.3333333,0,0,-1.3333333,61.998667,160.17867)" />
    <path
       id="path10"
       d="m 1.8276562,0.0950625 c 0.9140625,0 1.6523438,-0.52734375 1.6523438,-1.4179688 0,-0.6796875 -0.4804688,-1.125 -1.078125,-1.265625 v -0.035156 c 0.5273437,-0.1875 0.9023437,-0.5742188 0.9023437,-1.1835938 0,-0.796875 -0.6328125,-1.2539062 -1.4882812,-1.2539062 -0.5859375,0 -1.04296875,0.2695312 -1.4296875,0.6210937 l 0.33984375,0.3984375 C 1.0190625,-4.334625 1.3823437,-4.5455625 1.7925,-4.5455625 c 0.5390625,0 0.8671875,0.3046875 0.8671875,0.7851562 0,0.5273438 -0.3632813,0.9257813 -1.4179688,0.9257813 v 0.5039062 c 1.1835938,0 1.59375,0.3867188 1.59375,0.984375 0,0.56250005 -0.4335937,0.91406255 -1.0429687,0.91406255 -0.5742188,0 -0.9609375,-0.28125 -1.265625,-0.58593755 L 0.19875,-0.6080625 c 0.33984375,0.36328125 0.84375,0.703125 1.6289062,0.703125 z m 0,0"
       style="fill:#525252;fill-opacity:1;fill-rule:nonzero;stroke:none"
       aria-label="3"
       transform="matrix(1.3333333,0,0,1.3333333,147.86,208.092)" />
    <path
       id="path11"
       d="m 88.44188,-25.79568 v 6.23632"
       style="fill:none;stroke:#858585;stroke-width:0.44832;stroke-linecap:butt;stroke-linejoin:miter;stroke-miterlimit:10;stroke-dasharray:none;stroke-opacity:1"
       transform="matrix(1.3333333,0,0,-1.3333333,61.998667,160.17867)" />
    <path
       id="path12"
       d="m 2.3660703,0.0013125 h 0.5976563 v -1.3710938 h 0.6914062 v -0.515625 H 2.9637266 v -3.0820312 h -0.703125 l -2.12109379,3.1757812 v 0.421875 H 2.3660703 Z m 0,-1.8867188 H 0.79575781 L 1.9676328,-3.584625 c 0.140625,-0.2460938 0.28125,-0.46875 0.4101563,-0.703125 h 0.023437 c -0.011719,0.2578125 -0.035156,0.703125 -0.035156,0.9492187 z m 0,0"
       style="fill:#525252;fill-opacity:1;fill-rule:nonzero;stroke:none"
       aria-label="4"
       transform="matrix(1.3333333,0,0,1.3333333,177.34133,208.092)" />
    <path
       id="path13"
       d="m 110.55235,-25.79568 v 6.23632"
       style="fill:none;stroke:#858585;stroke-width:0.44832;stroke-linecap:butt;stroke-linejoin:miter;stroke-miterlimit:10;stroke-dasharray:none;stroke-opacity:1"
       transform="matrix(1.3333333,0,0,-1.3333333,61.998667,160.17867)" />
    <path
       id="path14"
       d="m 1.8273594,0.0931875 c 0.8554687,0 1.6757812,-0.609375 1.6757812,-1.6875 0,-1.0664063 -0.703125,-1.546875 -1.546875,-1.546875 -0.3046875,0 -0.5390625,0.070312 -0.7617187,0.1992187 l 0.1289062,-1.4765625 h 1.921875 V -4.9693125 H 0.76095313 l -0.1640625,2.390625 0.33984375,0.2109375 c 0.29296872,-0.1875 0.51562502,-0.3046875 0.85546872,-0.3046875 0.6445313,0 1.0546875,0.4101562 1.0546875,1.1015625 0,0.69140625 -0.4804687,1.13671875 -1.078125,1.13671875 -0.5976562,0 -0.97265622,-0.28125 -1.26562497,-0.57421875 L 0.18673438,-0.5865 c 0.3515625,0.33984375 0.83203122,0.6796875 1.64062502,0.6796875 z m 0,0"
       style="fill:#525252;fill-opacity:1;fill-rule:nonzero;stroke:none"
       aria-label="5"
       transform="matrix(1.3333333,0,0,1.3333333,206.82133,208.032)" />
    <path
       id="path15"
       d="m 132.66283,-25.79568 v 6.23632"
       style="fill:none;stroke:#858585;stroke-width:0.44832;stroke-linecap:butt;stroke-linejoin:miter;stroke-miterlimit:10;stroke-dasharray:none;stroke-opacity:1"
       transform="matrix(1.3333333,0,0,-1.3333333,61.998667,160.17867)" />
    <path
       id="path16"
       d="m 2.0962422,0.0950625 c 0.7851562,0 1.453125,-0.64453125 1.453125,-1.59375 0,-1.0195313 -0.5507813,-1.5351563 -1.4179688,-1.5351563 -0.3984375,0 -0.84375,0.234375 -1.16015621,0.6328125 0.0351562,-1.5820312 0.62109371,-2.1328125 1.32421871,-2.1328125 0.3164063,0 0.6210938,0.1523438 0.8085938,0.3984375 l 0.3632812,-0.3984375 c -0.28125,-0.3046875 -0.6679687,-0.5273437 -1.2070312,-0.5273437 -0.984375,0 -1.88671876,0.7617187 -1.88671876,2.765625 0,1.59375 0.73828126,2.390625 1.72265626,2.390625 z M 0.98296094,-1.897125 c 0.35156246,-0.4804688 0.72656246,-0.65625 1.05468746,-0.65625 0.609375,0 0.9257813,0.4101562 0.9257813,1.0546875 0,0.65625 -0.3867188,1.08984375 -0.8789063,1.08984375 -0.6328125,0 -1.0078125,-0.515625 -1.10156246,-1.48828125 z m 0,0"
       style="fill:#525252;fill-opacity:1;fill-rule:nonzero;stroke:none"
       aria-label="6"
       transform="matrix(1.3333333,0,0,1.3333333,236.30267,208.092)" />
    <path
       id="path17"
       d="m 154.7733,-25.79568 v 6.23632"
       style="fill:none;stroke:#858585;stroke-width:0.44832;stroke-linecap:butt;stroke-linejoin:miter;stroke-miterlimit:10;stroke-dasharray:none;stroke-opacity:1"
       transform="matrix(1.3333333,0,0,-1.3333333,61.998667,160.17867)" />
    <path
       id="path18"
       d="M 1.38175,0.0013125 H 2.038 C 2.1200313,-1.9322813 2.366125,-3.069 3.538,-4.5807188 V -4.9674375 H 0.33878125 v 0.5507812 H 2.8231563 C 1.8387813,-3.0572813 1.4755,-1.8736875 1.38175,0.0013125 Z m 0,0"
       style="fill:#525252;fill-opacity:1;fill-rule:nonzero;stroke:none"
       aria-label="7"
       transform="matrix(1.3333333,0,0,1.3333333,265.78267,208.092)" />
    <path
       id="path19"
       d="m 176.88377,-25.79568 v 6.23632"
       style="fill:none;stroke:#858585;stroke-width:0.44832;stroke-linecap:butt;stroke-linejoin:miter;stroke-miterlimit:10;stroke-dasharray:none;stroke-opacity:1"
       transform="matrix(1.3333333,0,0,-1.3333333,61.998667,160.17867)" />
    <path
       id="path20"
       d="m 1.95825,0.0950625 c 0.9492188,0 1.59375,-0.5859375 1.59375,-1.3242188 0,-0.6679687 -0.421875,-1.0195312 -0.8554687,-1.2890625 v -0.023437 C 2.9895,-2.7760313 3.3645,-3.2213438 3.3645,-3.7486875 c 0,-0.7617188 -0.5273437,-1.3125 -1.3945312,-1.3125 -0.796875,0 -1.40625005,0.5039062 -1.40625005,1.265625 0,0.5273437 0.328125,0.890625 0.69140625,1.1484375 v 0.035156 c -0.45703125,0.2460938 -0.9375,0.6914063 -0.9375,1.3476563 0,0.78515625 0.6914063,1.359375 1.640625,1.3593752 z m 0.3398438,-2.8007813 c -0.5976563,-0.234375 -1.1484375,-0.4921875 -1.1484375,-1.0898437 0,-0.4804688 0.3398437,-0.796875 0.8085937,-0.796875 0.5507813,0 0.8671875,0.3984375 0.8671875,0.8789062 0,0.375 -0.1875,0.703125 -0.5273437,1.0078125 z M 1.95825,-0.38540625 c -0.609375,0 -1.06640625,-0.3984375 -1.06640625,-0.93750005 0,-0.46875 0.29296875,-0.8320312 0.70312505,-1.0898437 0.7148437,0.2929687 1.3476562,0.515625 1.3476562,1.1601562 0,0.51562505 -0.3867187,0.86718755 -0.984375,0.86718755 z m 0,0"
       style="fill:#525252;fill-opacity:1;fill-rule:nonzero;stroke:none"
       aria-label="8"
       transform="matrix(1.3333333,0,0,1.3333333,295.264,208.092)" />
    <path
       id="path21"
       d="m 198.99423,-25.79568 v 6.23632"
       style="fill:none;stroke:#858585;stroke-width:0.44832;stroke-linecap:butt;stroke-linejoin:miter;stroke-miterlimit:10;stroke-dasharray:none;stroke-opacity:1"
       transform="matrix(1.3333333,0,0,-1.3333333,61.998667,160.17867)" />
    <path
       id="path22"
       d="m 1.5923906,0.0950625 c 0.9960938,0 1.8984375,-0.7734375 1.8984375,-2.765625 0,-1.59375 -0.7382812,-2.390625 -1.7226562,-2.390625 -0.79687502,0 -1.46484377,0.6445312 -1.46484377,1.59375 0,1.0195312 0.5625,1.5351562 1.41796877,1.5351562 0.4101562,0 0.8554687,-0.2460937 1.171875,-0.6328125 -0.023437,1.59375005 -0.6210938,2.13281255 -1.3242188,2.13281255 -0.3046875,0 -0.60937497,-0.15234375 -0.82031247,-0.3984375 l -0.33984375,0.3984375 C 0.66660938,-0.12759375 1.0533281,0.0950625 1.5923906,0.0950625 Z m 1.2890625,-3.1757813 c -0.3398437,0.4921875 -0.7382812,0.6796875 -1.0546875,0.6796875 -0.609375,0 -0.92578122,-0.4101562 -0.92578122,-1.0664062 0,-0.65625 0.37500002,-1.1015625 0.87890622,-1.1015625 0.6210938,0 1.0195313,0.5273437 1.1015625,1.4882812 z m 0,0"
       style="fill:#525252;fill-opacity:1;fill-rule:nonzero;stroke:none"
       aria-label="9"
       transform="matrix(1.3333333,0,0,1.3333333,324.744,208.092)" />
    <path
       id="path23"
       d="m 221.1047,-25.79568 v 6.23632"
       style="fill:none;stroke:#858585;stroke-width:0.44832;stroke-linecap:butt;stroke-linejoin:miter;stroke-miterlimit:10;stroke-dasharray:none;stroke-opacity:1"
       transform="matrix(1.3333333,0,0,-1.3333333,61.998667,160.17867)" />
    <path
       id="path24"
       d="M 0.60977344,0.0013125 H 3.4222734 v -0.52734375 h -1.03125 V -4.9674375 H 1.8988359 c -0.2695312,0.1640625 -0.5976562,0.28125 -1.05468746,0.3632812 V -4.194 H 1.7582109 v 3.66796875 H 0.60977344 Z m 5.19433596,0.09375 c 0.9960937,0 1.59375,-0.92578125 1.59375,-2.6015625 0,-1.6523438 -0.5976563,-2.5546875 -1.59375,-2.5546875 -0.9960938,0 -1.5820313,0.890625 -1.5820313,2.5546875 0,1.67578125 0.5859375,2.6015625 1.5820313,2.6015625 z m 0,-0.515625 c -0.5742188,0 -0.9726563,-0.6210938 -0.9726563,-2.0859375 0,-1.453125 0.3984375,-2.0507813 0.9726563,-2.0507813 0.5859375,0 0.984375,0.5976563 0.984375,2.0507813 0,1.4648437 -0.3984375,2.0859375 -0.984375,2.0859375 z m 0,0"
       style="fill:#525252;fill-opacity:1;fill-rule:nonzero;stroke:none"
       aria-label="10"
       transform="matrix(1.3333333,0,0,1.3333333,351.644,208.092)" />
    <path
       id="path25"
       d="M 22.11046,72.28444 H 66.3314"
       style="fill:none;stroke:#000000;stroke-width:2.98883;stroke-linecap:round;stroke-linejoin:miter;stroke-miterlimit:10;stroke-dasharray:none;stroke-opacity:1"
       transform="matrix(1.3333333,0,0,-1.3333333,61.998667,160.17867)" />
    <path
       id="path26"
       d="m 25.79555,72.28444 c 0,2.03523 -1.64986,3.68509 -3.68509,3.68509 -2.03522,0 -3.68508,-1.64986 -3.68508,-3.68509 0,-2.03522 1.64986,-3.68507 3.68508,-3.68507 2.03523,0 3.68509,1.64985 3.68509,3.68507 z"
       style="fill:#ffffff;fill-opacity:1;fill-rule:nonzero;stroke:#000000;stroke-width:0.54794;stroke-linecap:butt;stroke-linejoin:miter;stroke-miterlimit:10;stroke-dasharray:none;stroke-opacity:1"
       transform="matrix(1.3333333,0,0,-1.3333333,61.998667,160.17867)" />
    <path
       id="path27"
       d="m 70.0165,72.28444 c 0,2.03523 -1.64986,3.68509 -3.6851,3.68509 -2.03521,0 -3.68507,-1.64986 -3.68507,-3.68509 0,-2.03522 1.64986,-3.68507 3.68507,-3.68507 2.03524,0 3.6851,1.64985 3.6851,3.68507 z"
       style="fill:#ffffff;fill-opacity:1;fill-rule:nonzero;stroke:#000000;stroke-width:0.54794;stroke-linecap:butt;stroke-linejoin:miter;stroke-miterlimit:10;stroke-dasharray:none;stroke-opacity:1"
       transform="matrix(1.3333333,0,0,-1.3333333,61.998667,160.17867)" />
    <path
       id="path28"
       d="M 44.22093,46.77203 H 154.7733"
       style="fill:none;stroke:#c7c7c7;stroke-width:2.1918;stroke-linecap:round;stroke-linejoin:miter;stroke-miterlimit:10;stroke-dasharray:none;stroke-opacity:1"
       transform="matrix(1.3333333,0,0,-1.3333333,61.998667,160.17867)" />
    <path
       id="path29"
       d="m 47.90602,46.77203 c 0,2.03524 -1.64986,3.68509 -3.68509,3.68509 -2.03522,0 -3.68507,-1.64985 -3.68507,-3.68509 0,-2.03521 1.64985,-3.68507 3.68507,-3.68507 2.03523,0 3.68509,1.64986 3.68509,3.68507 z"
       style="fill:#ffffff;fill-opacity:1;fill-rule:nonzero;stroke:#c2c2c2;stroke-width:0.44832;stroke-linecap:butt;stroke-linejoin:miter;stroke-miterlimit:10;stroke-dasharray:none;stroke-opacity:1"
       transform="matrix(1.3333333,0,0,-1.3333333,61.998667,160.17867)" />
    <path
       id="path30"
       d="m 158.45837,46.77203 c 0,2.03524 -1.64985,3.68509 -3.68507,3.68509 -2.03523,0 -3.68509,-1.64985 -3.68509,-3.68509 0,-2.03521 1.64986,-3.68507 3.68509,-3.68507 2.03522,0 3.68507,1.64986 3.68507,3.68507 z"
       style="fill:#ffffff;fill-opacity:1;fill-rule:nonzero;stroke:#c2c2c2;stroke-width:0.44832;stroke-linecap:butt;stroke-linejoin:miter;stroke-miterlimit:10;stroke-dasharray:none;stroke-opacity:1"
       transform="matrix(1.3333333,0,0,-1.3333333,61.998667,160.17867)" />
    <path
       id="path31"
       d="m 88.44188,21.2601 h 44.22095"
       style="fill:none;stroke:#c7c7c7;stroke-width:2.1918;stroke-linecap:round;stroke-linejoin:miter;stroke-miterlimit:10;stroke-dasharray:none;stroke-opacity:1"
       transform="matrix(1.3333333,0,0,-1.3333333,61.998667,160.17867)" />
    <path
       id="path32"
       d="m 92.12697,21.2601 c 0,2.03522 -1.64986,3.68508 -3.68509,3.68508 -2.03523,0 -3.68508,-1.64986 -3.68508,-3.68508 0,-2.03523 1.64985,-3.68509 3.68508,-3.68509 2.03523,0 3.68509,1.64986 3.68509,3.68509 z"
       style="fill:#ffffff;fill-opacity:1;fill-rule:nonzero;stroke:#c2c2c2;stroke-width:0.44832;stroke-linecap:butt;stroke-linejoin:miter;stroke-miterlimit:10;stroke-dasharray:none;stroke-opacity:1"
       transform="matrix(1.3333333,0,0,-1.3333333,61.998667,160.17867)" />
    <path
       id="path33"
       d="m 136.3479,21.2601 c 0,2.03522 -1.64986,3.68508 -3.68507,3.68508 -2.03523,0 -3.68509,-1.64986 -3.68509,-3.68508 0,-2.03523 1.64986,-3.68509 3.68509,-3.68509 2.03521,0 3.68507,1.64986 3.68507,3.68509 z"
       style="fill:#ffffff;fill-opacity:1;fill-rule:nonzero;stroke:#c2c2c2;stroke-width:0.44832;stroke-linecap:butt;stroke-linejoin:miter;stroke-miterlimit:10;stroke-dasharray:none;stroke-opacity:1"
       transform="matrix(1.3333333,0,0,-1.3333333,61.998667,160.17867)" />
    <path
       id="path34"
       d="M 176.88377,-4.25183 H 221.1047"
       style="fill:none;stroke:#c7c7c7;stroke-width:2.1918;stroke-linecap:round;stroke-linejoin:miter;stroke-miterlimit:10;stroke-dasharray:none;stroke-opacity:1"
       transform="matrix(1.3333333,0,0,-1.3333333,61.998667,160.17867)" />
    <path
       id="path35"
       d="m 180.56885,-4.25183 c 0,2.03522 -1.64986,3.68507 -3.68508,3.68507 -2.03523,0 -3.68509,-1.64985 -3.68509,-3.68507 0,-2.03523 1.64986,-3.68509 3.68509,-3.68509 2.03522,0 3.68508,1.64986 3.68508,3.68509 z"
       style="fill:#ffffff;fill-opacity:1;fill-rule:nonzero;stroke:#c2c2c2;stroke-width:0.44832;stroke-linecap:butt;stroke-linejoin:miter;stroke-miterlimit:10;stroke-dasharray:none;stroke-opacity:1"
       transform="matrix(1.3333333,0,0,-1.3333333,61.998667,160.17867)" />
    <path
       id="path36"
       d="m 224.7898,-4.25183 c 0,2.03522 -1.64986,3.68507 -3.6851,3.68507 -2.03521,0 -3.68507,-1.64985 -3.68507,-3.68507 0,-2.03523 1.64986,-3.68509 3.68507,-3.68509 2.03524,0 3.6851,1.64986 3.6851,3.68509 z"
       style="fill:#ffffff;fill-opacity:1;fill-rule:nonzero;stroke:#c2c2c2;stroke-width:0.44832;stroke-linecap:butt;stroke-linejoin:miter;stroke-miterlimit:10;stroke-dasharray:none;stroke-opacity:1"
       transform="matrix(1.3333333,0,0,-1.3333333,61.998667,160.17867)" />
    <path
       id="path37"
       d="m 2.7549219,-5.3797578 c -1.078125,0 -1.82812502,0.6328125 -1.82812502,1.546875 0,0.9257812 0.75000002,1.5585937 1.82812502,1.5585937 1.078125,0 1.8398437,-0.6328125 1.8398437,-1.5585937 0,-0.9140625 -0.7617187,-1.546875 -1.8398437,-1.546875 z m 0,0.5859375 c 0.6679687,0 1.1367187,0.3867187 1.1367187,0.9609375 0,0.5859375 -0.46875,0.9726562 -1.1367187,0.9726562 -0.6796875,0 -1.1367188,-0.3867187 -1.1367188,-0.9726562 0,-0.5742188 0.4570313,-0.9609375 1.1367188,-0.9609375 z m 2.25,1.2421875 v 0.5976562 h 1.3710937 v 1.734375 h 0.7382813 v -6.1875 H 6.3760156 v 2.15625 H 5.0049219 v 0.609375 h 1.3710937 v 1.0898438 z M 2.3916406,-7.4188203 v 0.9960937 H 0.45804688 v 0.609375 H 5.0049219 v -0.609375 h -1.875 v -0.9960937 z m -0.4804687,5.6601562 v 2.27343754 h 5.390625 v -0.609375 H 2.6494531 V -1.7586641 Z M 13.123086,-7.2430391 V 0.28039844 H 13.83793 V -3.5164766 h 1.054687 v 4.21875004 h 0.714844 V -7.4188203 h -0.714844 v 3.28125 H 13.83793 v -3.1054688 z m -4.3242188,0.7851563 v 0.609375 H 10.36918 v 0.6328125 c 0,1.640625 -0.5976566,3.0234375 -1.7578128,3.6679687 l 0.4570312,0.57421879 c 0.84375,-0.49218749 1.4062496,-1.37109379 1.6757816,-2.48437499 0.292968,0.984375 0.84375,1.7578125 1.640625,2.203125 l 0.445312,-0.5742188 C 11.68168,-2.4266328 11.095742,-3.7391328 11.095742,-5.2156953 v -0.6328125 h 1.464844 v -0.609375 z m 10.1455078,3.046875 v 0.6210937 h 3.269531 v 3.49218754 h 0.75 V -2.7899141 h 3.304688 V -3.4110078 H 25.085 c 0.222656,-1.1601563 0.222656,-2.0039063 0.222656,-2.765625 v -0.7148438 h -5.449218 v 0.609375 h 4.722656 v 0.1054688 c 0,0.75 0,1.6171875 -0.257813,2.765625 z m 13.790039,-4.0078125 v 5.9296875 h 0.75 v -2.8359375 h 1.195313 v -0.6328125 h -1.195313 v -2.4609375 z m -5.203125,0.6328125 v 0.6210937 h 2.976563 c -0.152344,1.4179688 -1.382813,2.5546875 -3.304688,3.1523438 l 0.316406,0.5976562 c 2.332032,-0.7382812 3.785157,-2.2734375 3.785157,-4.3710937 z m 0.902344,4.6992187 v 2.60156254 h 5.402344 v -0.609375 H 29.171914 V -2.0867891 Z m 0,0"
       style="fill:#000000;fill-opacity:1;fill-rule:nonzero;stroke:none"
       aria-label="현재구간"
       transform="matrix(1.3333333,0,0,1.3333333,15.053333,68.270667)" />
    <path
       id="path38"
       d="m 5.9307031,-7.4191016 v 8.12109379 h 0.75 V -3.5987891 H 8.0049219 V -4.2198828 H 6.6807031 v -3.1992188 z m -5.13281247,0.796875 v 5.3085938 H 1.4307031 c 1.5234375,0 2.5898438,-0.046875 3.84375,-0.2695313 l -0.09375,-0.6445312 c -1.1835937,0.2226562 -2.2148437,0.28125 -3.6445312,0.28125 v -4.0664063 h 3.0234375 v -0.609375 z M 12.349648,-7.2316016 c -1.746093,0 -2.8476558,0.5742188 -2.8476558,1.5351563 0,0.9609375 1.1015628,1.5234375 2.8476558,1.5234375 1.757813,0 2.859375,-0.5625 2.859375,-1.5234375 0,-0.9609375 -1.101562,-1.5351563 -2.859375,-1.5351563 z m 0,0.5859375 c 1.289063,0 2.097657,0.3515625 2.097657,0.9492188 0,0.5859375 -0.808594,0.9375 -2.097657,0.9375 -1.277343,0 -2.085937,-0.3515625 -2.085937,-0.9375 0,-0.5976563 0.808594,-0.9492188 2.085937,-0.9492188 z M 9.5957422,-2.0753516 V 0.58480469 H 15.126992 V -2.0753516 Z m 4.8046878,0.5976563 v 1.45312499 H 10.322305 V -1.4776953 Z M 8.6933984,-3.4816016 v 0.609375 h 7.3242186 v -0.609375 z M 24.874063,-7.4073828 v 1.8984375 h -1.769532 v 0.6210937 h 1.769532 v 3.5390625 h 0.738281 v -6.0585937 z m -3.890625,0.4804687 v 0.9960938 c 0,1.2539062 -0.820313,2.390625 -2.027344,2.8359375 l 0.398437,0.5976562 c 0.949219,-0.3867187 1.664063,-1.1484375 2.003907,-2.1210937 0.351562,0.8789062 1.042968,1.5820312 1.933593,1.9335937 l 0.398438,-0.5859375 c -1.171875,-0.4335937 -1.96875,-1.5 -1.96875,-2.625 v -1.03125 z m -0.574219,4.9101563 v 2.53124999 h 5.390625 v -0.609375 H 21.1475 V -2.0167578 Z m 7.754883,-5.1328125 v 3.234375 h 5.390625 v -3.234375 h -0.726563 v 1.03125 h -3.925781 v -1.03125 z m 0.738281,1.59375 h 3.925781 v 1.0429687 h -3.925781 z m -1.722656,2.4257812 v 0.5976563 h 3.363281 v 1.57031249 h 0.738281 V -2.5323828 h 3.257813 v -0.5976563 z m 0.9375,1.4414063 v 2.20312499 h 5.601562 v -0.609375 H 28.855508 V -1.6886328 Z m 0,0"
       style="fill:#000000;fill-opacity:1;fill-rule:nonzero;stroke:none"
       aria-label="다음선분"
       transform="matrix(1.3333333,0,0,1.3333333,15.053333,102.28667)" />
    <path
       id="path39"
       d="M 410.9358,111.96982 H 267.51746 c -1.10047,0 -1.99256,-0.89209 -1.99256,-1.99256 V 14.7485 c 0,-1.10046 0.89209,-1.99255 1.99256,-1.99255 H 410.9358 c 1.10049,0 1.99256,0.89209 1.99256,1.99255 v 95.22876 c 0,1.10047 -0.89207,1.99256 -1.99256,1.99256 z"
       style="fill:#fcfcfc;fill-opacity:1;fill-rule:nonzero;stroke:#c7c7c7;stroke-width:0.3985;stroke-linecap:butt;stroke-linejoin:miter;stroke-miterlimit:10;stroke-dasharray:none;stroke-opacity:1"
       transform="matrix(1.3333333,0,0,-1.3333333,61.998667,160.17867)" />
    <g
       id="g39"
       aria-label="첫번째선분확인&#10;left=1&#10;right=3&#10;sum=0"
       transform="matrix(1.3333333,0,0,1.3333333,471.73333,57.072)">
      <path
         id="path40"
         d="m 2.2273438,-7.5364219 v 0.8671875 H 0.58671875 v 0.9257813 H 2.2273438 v 0.035156 c 0,0.9492188 -0.5742188,1.8984375 -1.92187505,2.296875 l 0.5625,0.9140625 c 0.97265625,-0.269531 1.61718755,-0.8671873 1.98046875,-1.628906 0.375,0.6679687 1.0195313,1.171875 1.9453125,1.4296875 L 5.3210938,-3.6223594 C 3.9851563,-3.9856406 3.4109375,-4.8528281 3.4109375,-5.7082969 v -0.035156 h 1.640625 v -0.9257813 h -1.640625 v -0.8671875 z m 3.890625,0.035156 v 2.1914062 H 4.8289063 v 0.9609375 h 1.2890625 v 2.484375 h 1.1953125 v -5.6367187 z m -2.203125,5.1679687 v 0.1289063 c 0,0.8085937 -0.8789063,1.79296872 -2.6132813,2.03906247 l 0.4335938,0.9375 c 1.3359375,-0.1875 2.2851562,-0.80859375 2.7890625,-1.59375 0.4921875,0.796875 1.4414062,1.39453125 2.8007812,1.59375 l 0.4335938,-0.9375 c -1.78125,-0.24609375 -2.625,-1.18359377 -2.625,-2.03906247 v -0.1289063 z m 8.2470702,-2.4609375 h 1.582031 v 1.171875 H 12.161914 Z M 10.97832,-6.9622031 v 4.2890625 h 3.9375 v -1.6757813 h 1.476563 v 2.9648438 h 1.195312 v -6.1171875 h -1.195312 v 2.1914062 H 14.91582 v -1.6523437 h -1.171875 v 1.2539062 h -1.582031 v -1.2539062 z m 1.113282,4.9804687 v 2.63671877 h 5.683593 v -0.9609375 H 13.286914 V -1.9817344 Z m 9.117187,-4.6054687 v 0.9492187 h 0.328125 v 0.4335938 c 0,0.8320312 -0.01172,1.828125 -0.421875,2.6601562 -0.398437,-0.8320312 -0.421875,-1.8632812 -0.421875,-2.6601562 v -0.4335938 h 0.328125 v -0.9492187 h -2.0625 v 0.9492187 h 0.726563 v 0.4335938 c 0,1.1835937 -0.07031,2.5546875 -1.007813,3.3515625 l 0.65625,0.796875 c 0.421875,-0.3515625 0.691406,-0.8671875 0.855469,-1.4414063 0.175781,0.609375 0.457031,1.1601563 0.925781,1.54687502 0.46875,-0.38671872 0.75,-0.93750002 0.925781,-1.54687502 0.164063,0.5742188 0.433594,1.0898438 0.867188,1.4414063 l 0.5625,-0.6796875 v 2.15624997 h 1.078125 V -3.3411094 h 0.527344 v 4.13671877 h 1.113281 V -7.5012656 h -1.113281 v 3.2109375 h -0.527344 v -3.09375 h -1.078125 v 5.4609375 c -0.84375,-0.8085938 -0.925781,-2.1328125 -0.925781,-3.28125 v -0.4335938 h 0.609375 v -0.9492187 z m 13.716797,-0.9140625 v 1.7578125 h -1.523438 v 0.9609375 h 1.523438 v 3.3984375 h 1.195312 v -6.1171875 z m -3.84375,0.5039062 v 0.890625 c 0,1.171875 -0.585938,2.3203125 -1.957031,2.7890625 l 0.621093,0.9375 c 0.949219,-0.3515625 1.59375,-1.03125 1.945313,-1.8867187 0.351562,0.7617187 0.949219,1.359375 1.816406,1.6757812 l 0.621094,-0.9140625 C 32.82793,-3.9622031 32.277148,-5.0286094 32.277148,-6.0950156 v -0.9023438 z m -0.457031,5.0039063 v 2.64843747 h 5.683593 v -0.9609375 H 31.820117 V -1.9934531 Z m 7.746093,-5.25 v 3.4101562 h 5.613282 v -3.4101562 h -1.183594 v 0.84375 h -3.246094 v -0.84375 z m 1.183594,1.734375 h 3.246094 v 0.75 h -3.246094 z m -2.132812,2.25 v 0.9375 h 3.257812 v 1.3125 h 1.195313 v -1.3125 h 3.058593 v -0.9375 z m 0.867187,1.6289062 v 2.28515627 h 5.8125 v -0.9609375 H 39.48418 V -1.6301719 Z m 10.365235,0.1054688 v 0.92578122 h 4.441406 V 0.79560937 H 54.29082 V -1.5247031 Z m 1.523437,-3.5507813 c 0.550781,0 0.890625,0.1523438 0.890625,0.4570313 0,0.3046875 -0.339844,0.46875 -0.890625,0.46875 -0.5625,0 -0.890625,-0.1640625 -0.890625,-0.46875 0,-0.3046875 0.328125,-0.4570313 0.890625,-0.4570313 z m 0,-0.7734375 c -1.230469,0 -2.015625,0.4804688 -2.015625,1.2304688 0,0.6328125 0.539063,1.0664062 1.417969,1.1953125 v 0.46875 c -0.691406,0.011719 -1.371094,0.011719 -1.96875,0.011719 l 0.128906,0.9257813 c 1.453125,-0.011719 3.351563,-0.023437 5.085938,-0.328125 l -0.08203,-0.8085938 c -0.632812,0.082031 -1.300781,0.1171875 -1.96875,0.1523438 v -0.421875 c 0.878907,-0.1289063 1.429688,-0.5625 1.429688,-1.1953125 0,-0.75 -0.796875,-1.2304688 -2.027344,-1.2304688 z m 2.917969,-1.6523437 v 5.6484375 h 1.195312 v -2.296875 h 1.042969 v -0.984375 H 54.29082 v -2.3671875 z m -3.515625,-0.070312 v 0.6679687 H 47.82207 v 0.8554688 h 4.710938 v -0.8554688 h -1.757813 v -0.6679687 z m 12.082031,0.070312 v 5.953125 h 1.195313 v -5.953125 z m -3.328125,0.5273437 c -1.277344,0 -2.261719,0.8671875 -2.261719,2.109375 0,1.2070313 0.984375,2.0976563 2.261719,2.0976563 1.277344,0 2.261719,-0.890625 2.261719,-2.0976563 0,-1.2421875 -0.984375,-2.109375 -2.261719,-2.109375 z m 0,1.0195313 c 0.621094,0 1.089844,0.3984375 1.089844,1.0898437 0,0.65625 -0.46875,1.0664063 -1.089844,1.0664063 -0.621094,0 -1.089844,-0.4101563 -1.089844,-1.0664063 0,-0.6914062 0.46875,-1.0898437 1.089844,-1.0898437 z m -1.007812,3.8203125 v 2.78906247 h 5.742187 v -0.9609375 H 58.50957 V -2.1340781 Z m 0,0"
         style="fill:#000000;fill-opacity:1;fill-rule:nonzero;stroke:none" />
      <path
         id="path41"
         d="m 4.2195313,15.212602 c 0,-0.304688 -0.234375,-0.304688 -0.375,-0.304688 H 2.684375 v -4.511719 c 0,-0.304687 -0.070312,-0.375 -0.375,-0.375 H 0.85625 c -0.140625,0 -0.375,0 -0.375,0.28125 0,0.292969 0.22265625,0.292969 0.375,0.292969 h 1.1601563 v 4.3125 H 0.85625 c -0.140625,0 -0.375,0 -0.375,0.292969 0,0.292969 0.22265625,0.292969 0.375,0.292969 h 2.9882813 c 0.140625,0 0.375,0 0.375,-0.28125 z m 4.649414,-0.691407 c 0,-0.1875 -0.140625,-0.269531 -0.328125,-0.269531 -0.1289062,0 -0.2460937,0 -0.328125,0.1875 -0.2109375,0.515625 -0.7851562,0.515625 -0.890625,0.515625 -0.515625,0 -1.265625,-0.304687 -1.453125,-1.160156 h 2.625 c 0.1757813,0 0.375,0 0.375,-0.339844 0,-1.03125 -0.5859375,-1.898437 -1.734375,-1.898437 -1.1015625,0 -1.9453125,0.914062 -1.9453125,1.980468 0,1.113282 0.9257813,2.003907 2.0742188,2.003907 1.2070312,0 1.6054687,-0.808594 1.6054687,-1.019532 z M 8.1892578,13.220414 H 5.8806641 c 0.1757812,-0.726562 0.7382812,-1.078125 1.2539062,-1.078125 0.6210938,0 0.984375,0.410156 1.0546875,1.078125 z M 13.32793,10.525102 c 0,-0.5507817 -0.726563,-0.5507817 -0.867188,-0.5507817 -0.691406,0 -1.417969,0.3867187 -1.417969,1.2070317 v 0.445312 h -0.855468 c -0.140625,0 -0.3867191,0 -0.3867191,0.304688 0,0.28125 0.2460941,0.28125 0.3750001,0.28125 h 0.867187 v 2.695312 H 10.14043 c -0.128907,0 -0.3867191,0 -0.3867191,0.292969 0,0.292969 0.2460938,0.292969 0.3867191,0.292969 h 2.472656 c 0.128906,0 0.386719,0 0.386719,-0.28125 0,-0.304688 -0.246094,-0.304688 -0.386719,-0.304688 h -0.902344 v -2.695312 h 1.042969 c 0.128906,0 0.375,0 0.375,-0.28125 0,-0.304688 -0.234375,-0.304688 -0.375,-0.304688 h -1.042969 v -0.410156 c 0,-0.65625 0.550781,-0.667969 0.808594,-0.667969 0.03516,0.246094 0.222656,0.386719 0.410156,0.386719 0.164063,0 0.398438,-0.117188 0.398438,-0.410156 z m 4.813476,3.808593 c 0,-0.304687 -0.222656,-0.304687 -0.328125,-0.304687 -0.140625,0 -0.316406,0.01172 -0.328125,0.304687 -0.02344,0.421875 -0.375,0.621094 -0.679687,0.621094 -0.667969,0 -0.667969,-0.480469 -0.667969,-0.703125 v -2.039062 h 1.429688 c 0.117187,0 0.375,0 0.375,-0.28125 0,-0.304688 -0.246094,-0.304688 -0.375,-0.304688 H 16.1375 v -0.726562 c 0,-0.164063 0,-0.375 -0.328125,-0.375 -0.328125,0 -0.328125,0.210937 -0.328125,0.386718 v 0.714844 h -0.75 c -0.140625,0 -0.386719,0 -0.386719,0.304688 0,0.28125 0.246094,0.28125 0.375,0.28125 h 0.761719 v 2.074218 c 0,0.9375 0.644531,1.253907 1.277344,1.253907 0.773437,0 1.382812,-0.539063 1.382812,-1.207032 z m 9.758789,-2.25 c 0,-0.351562 -0.351562,-0.351562 -0.480468,-0.351562 h -3.082032 c -0.128906,0 -0.480468,0 -0.480468,0.351562 0,0.328125 0.328125,0.328125 0.421875,0.328125 h 3.199218 c 0.09375,0 0.421875,0 0.421875,-0.328125 z m 0,1.347657 c 0,-0.328125 -0.328125,-0.328125 -0.421875,-0.328125 h -3.199218 c -0.09375,0 -0.421875,0 -0.421875,0.328125 0,0.339843 0.351562,0.339843 0.480468,0.339843 h 3.082032 c 0.128906,0 0.480468,0 0.480468,-0.339843 z m 9.026368,1.78125 c 0,-0.304688 -0.222657,-0.304688 -0.375,-0.304688 h -0.796875 v -4.617187 c 0,-0.128907 0,-0.3750004 -0.28125,-0.3750004 -0.152344,0 -0.222657,0.082031 -0.28125,0.1992184 -0.28125,0.632813 -0.632813,0.867188 -0.996094,0.902344 -0.128906,0 -0.328125,0.02344 -0.328125,0.292969 0,0.175781 0.09375,0.28125 0.316406,0.28125 0.351563,0 0.703125,-0.1875 0.914063,-0.363281 v 3.679687 h -0.796875 c -0.152344,0 -0.386719,0 -0.386719,0.304688 0,0.28125 0.246094,0.28125 0.386719,0.28125 h 2.25 c 0.140625,0 0.375,0 0.375,-0.28125 z M 4.371875,23.113969 c 0,-0.164063 -0.1171875,-0.574219 -0.8554687,-0.574219 -0.515625,0 -1.078125,0.222656 -1.5117188,0.703125 v -0.28125 c 0,-0.292969 -0.070313,-0.375 -0.375,-0.375 H 0.63359375 c -0.140625,0 -0.38671875,0 -0.38671875,0.292969 0,0.292968 0.234375,0.292968 0.38671875,0.292968 H 1.3484375 v 2.695313 H 0.63359375 c -0.140625,0 -0.38671875,0 -0.38671875,0.292969 0,0.292968 0.234375,0.292968 0.38671875,0.292968 H 3.0007813 c 0.1289062,0 0.3867187,0 0.3867187,-0.28125 0,-0.304687 -0.2460937,-0.304687 -0.3867187,-0.304687 H 2.0046875 v -1.066406 c 0,-0.902344 0.609375,-1.675782 1.5703125,-1.675782 0.035156,0.328125 0.28125,0.398438 0.3984375,0.398438 0.1992188,0 0.3984375,-0.152344 0.3984375,-0.410156 z m 4.4619141,3.058593 c 0,-0.304687 -0.2578125,-0.304687 -0.3867188,-0.304687 h -0.9375 v -2.90625 c 0,-0.292969 -0.070312,-0.375 -0.375,-0.375 H 5.8337891 c -0.140625,0 -0.3867188,0 -0.3867188,0.292969 0,0.292968 0.234375,0.292968 0.3867188,0.292968 h 1.0078125 v 2.695313 H 5.7517578 c -0.1289062,0 -0.375,0 -0.375,0.292969 0,0.292968 0.234375,0.292968 0.375,0.292968 h 2.6953125 c 0.1289063,0 0.3867188,0 0.3867188,-0.28125 z m -1.3125,-4.699218 c 0,-0.257813 -0.1992188,-0.457032 -0.4570313,-0.457032 -0.2460937,0 -0.4570312,0.199219 -0.4570312,0.457032 0,0.246093 0.2109375,0.457031 0.4570312,0.457031 0.2578125,0 0.4570313,-0.210938 0.4570313,-0.457031 z M 13.972461,23.0085 c 0,-0.234375 -0.1875,-0.515625 -0.667969,-0.515625 -0.210937,0 -0.597656,0.04687 -0.9375,0.316406 -0.246094,-0.164062 -0.550781,-0.269531 -0.867187,-0.269531 -0.84375,0 -1.5000003,0.65625 -1.5000003,1.453125 0,0.328125 0.1171873,0.609375 0.2695313,0.832031 -0.07031,0.140625 -0.164063,0.375 -0.164063,0.609375 0,0.375 0.1875,0.621094 0.199219,0.644531 -0.6093748,0.375 -0.6328123,0.960938 -0.6328123,1.089844 0,0.796875 0.9492183,1.324219 2.0859373,1.324219 1.136719,0 2.097656,-0.527344 2.097656,-1.324219 0,-1.277344 -1.652343,-1.277344 -1.910156,-1.277344 h -0.644531 c -0.07031,0 -0.1875,0 -0.257813,-0.02344 -0.140625,0 -0.175781,0 -0.269531,-0.117188 -0.08203,-0.08203 -0.117187,-0.1875 -0.117187,-0.304687 0,-0.04687 0,-0.152344 0.04687,-0.234375 0.246093,0.140625 0.527343,0.222656 0.796875,0.222656 0.84375,0 1.511718,-0.65625 1.511718,-1.441406 0,-0.292969 -0.08203,-0.539063 -0.234375,-0.773438 0.199219,-0.105468 0.328125,-0.128906 0.457032,-0.140625 0.04687,0.234375 0.246093,0.304688 0.363281,0.304688 0.210937,0 0.375,-0.152344 0.375,-0.375 z m -1.628906,0.984375 c 0,0.480469 -0.386719,0.867187 -0.84375,0.867187 -0.457032,0 -0.84375,-0.386718 -0.84375,-0.867187 0,-0.492188 0.386718,-0.878906 0.84375,-0.878906 0.457031,0 0.84375,0.386718 0.84375,0.878906 z m 0.949218,3.1875 c 0,0.363281 -0.621093,0.738281 -1.535156,0.738281 -0.878906,0 -1.523437,-0.363281 -1.523437,-0.75 0,-0.328125 0.28125,-0.691406 0.738281,-0.738281 h 0.539062 c 0.808594,0 1.78125,0 1.78125,0.75 z m 5.458008,-1.007813 c 0,-0.304687 -0.246093,-0.304687 -0.375,-0.304687 h -0.398437 v -2.027344 c 0,-0.890625 -0.445313,-1.300781 -1.171875,-1.300781 -0.421875,0 -0.832031,0.152344 -1.171875,0.457031 v -1.640625 c 0,-0.304687 -0.08203,-0.375 -0.386719,-0.375 h -0.679687 c -0.117188,0 -0.375,0 -0.375,0.28125 0,0.292969 0.246093,0.292969 0.375,0.292969 h 0.398437 v 4.3125 h -0.398437 c -0.117188,0 -0.375,0 -0.375,0.292969 0,0.292968 0.246093,0.292968 0.375,0.292968 h 1.453125 c 0.128906,0 0.375,0 0.375,-0.28125 0,-0.304687 -0.234375,-0.304687 -0.375,-0.304687 H 15.633594 V 24.321 c 0,-0.878906 0.679687,-1.195313 1.113281,-1.195313 0.445313,0 0.5625,0.222657 0.5625,0.75 v 1.992188 h -0.28125 c -0.128906,0 -0.386719,0 -0.386719,0.292969 0,0.292968 0.246094,0.292968 0.386719,0.292968 h 1.347656 c 0.117188,0 0.375,0 0.375,-0.28125 z m 4.098633,-0.878906 c 0,-0.304687 -0.222656,-0.304687 -0.328125,-0.304687 -0.140625,0 -0.316406,0.01172 -0.328125,0.304687 -0.02344,0.421875 -0.375,0.621094 -0.679687,0.621094 -0.667969,0 -0.667969,-0.480469 -0.667969,-0.703125 v -2.039063 h 1.429687 c 0.117188,0 0.375,0 0.375,-0.28125 0,-0.304687 -0.246093,-0.304687 -0.375,-0.304687 h -1.429687 v -0.726563 c 0,-0.164062 0,-0.375 -0.328125,-0.375 -0.328125,0 -0.328125,0.210938 -0.328125,0.386719 v 0.714844 h -0.75 c -0.140625,0 -0.386719,0 -0.386719,0.304687 0,0.28125 0.246094,0.28125 0.375,0.28125 h 0.761719 v 2.074219 c 0,0.9375 0.644531,1.253906 1.277344,1.253906 0.773437,0 1.382812,-0.539062 1.382812,-1.207031 z m 9.755859,-2.25 c 0,-0.351562 -0.351562,-0.351562 -0.480468,-0.351562 h -3.082032 c -0.128906,0 -0.480468,0 -0.480468,0.351562 0,0.328125 0.328125,0.328125 0.421875,0.328125 h 3.199218 c 0.09375,0 0.421875,0 0.421875,-0.328125 z m 0,1.347656 c 0,-0.328125 -0.328125,-0.328125 -0.421875,-0.328125 H 28.98418 c -0.09375,0 -0.421875,0 -0.421875,0.328125 0,0.339844 0.351562,0.339844 0.480468,0.339844 h 3.082032 c 0.128906,0 0.480468,0 0.480468,-0.339844 z m 9.345704,0.492188 c 0,-0.738281 -0.550782,-1.230469 -0.972657,-1.429688 0.65625,-0.457031 0.714844,-1.054687 0.714844,-1.289062 0,-0.691406 -0.679687,-1.289063 -1.699219,-1.289063 -1.101562,0 -1.6875,0.445313 -1.6875,1.054688 0,0.269531 0.199219,0.421875 0.421875,0.421875 0.222657,0 0.410157,-0.175781 0.410157,-0.410156 0,-0.08203 -0.02344,-0.175782 -0.07031,-0.234375 0.292969,-0.246094 0.878906,-0.246094 0.925781,-0.246094 0.632813,0 1.03125,0.328125 1.03125,0.703125 0,0.246094 -0.117187,0.609375 -0.457031,0.832031 -0.234375,0.152344 -0.398437,0.164063 -0.820312,0.199219 -0.351563,0.01172 -0.527344,0.03516 -0.527344,0.304687 0,0.292969 0.246094,0.292969 0.375,0.292969 h 0.375 c 0.925781,0 1.324219,0.621094 1.324219,1.078125 0,0.574219 -0.515625,1.101563 -1.289063,1.101563 -0.234375,0 -0.914062,-0.03516 -1.230469,-0.46875 l 0.02344,-0.02344 c 0.05859,-0.08203 0.05859,-0.105469 0.07031,-0.1875 0,0 0.01172,-0.03516 0.01172,-0.07031 0,-0.222657 -0.175781,-0.410157 -0.410156,-0.410157 -0.222656,0 -0.421875,0.128907 -0.421875,0.433594 0,0.796875 0.84375,1.300781 1.957031,1.300781 1.171875,0 1.945313,-0.808593 1.945313,-1.664062 z M 4.1140625,36.285844 c 0,-0.445313 -0.28125,-0.726563 -0.4921875,-0.855469 C 3.2585938,35.207719 3.0359375,35.160844 2.1921875,35.031937 1.8171875,34.973344 1.23125,34.879594 1.23125,34.53975 c 0,-0.234375 0.28125,-0.480469 1.1015625,-0.480469 0.8203125,0 0.84375,0.304688 0.8554688,0.503906 0.011719,0.246094 0.2578125,0.246094 0.328125,0.246094 0.328125,0 0.328125,-0.199219 0.328125,-0.375 v -0.585937 c 0,-0.128907 0,-0.375 -0.28125,-0.375 -0.2109375,0 -0.2578125,0.105468 -0.28125,0.175781 -0.3398438,-0.175781 -0.7851563,-0.175781 -0.9375,-0.175781 -1.5585938,0 -1.6992188,0.820312 -1.6992188,1.066406 0,0.480469 0.3632813,0.691406 0.46875,0.761719 0.3046875,0.1875 0.5507813,0.234375 1.4765625,0.375 0.234375,0.03516 0.9375,0.152343 0.9375,0.609375 0,0.269531 -0.2578125,0.585937 -1.1132812,0.585937 -0.5507813,0 -0.9023438,-0.1875 -1.0898438,-0.714844 -0.058594,-0.175781 -0.09375,-0.28125 -0.3515625,-0.28125 -0.328125,0 -0.328125,0.210938 -0.328125,0.386719 v 0.820313 c 0,0.128906 0,0.375 0.29296875,0.375 0.12890625,0 0.25781255,-0.07031 0.32812505,-0.316407 0.4453125,0.316407 0.9609375,0.316407 1.1484375,0.316407 1.4882812,0 1.6992187,-0.832032 1.6992187,-1.171875 z m 5.2236328,0.84375 c 0,-0.304688 -0.2460937,-0.304688 -0.375,-0.304688 H 8.5642578 v -2.90625 c 0,-0.292969 -0.070312,-0.375 -0.375,-0.375 H 7.5095703 c -0.1289062,0 -0.375,0 -0.375,0.292969 0,0.292969 0.234375,0.292969 0.375,0.292969 h 0.3867188 v 1.886718 c 0,0.75 -0.6914063,0.855469 -0.9960938,0.855469 -0.6796875,0 -0.6796875,-0.257812 -0.6796875,-0.539062 v -2.414063 c 0,-0.292969 -0.082031,-0.375 -0.3867187,-0.375 H 5.1541016 c -0.1171875,0 -0.375,0 -0.375,0.292969 0,0.292969 0.2460937,0.292969 0.375,0.292969 h 0.3984375 v 2.25 c 0,0.84375 0.5976562,1.078125 1.2890625,1.078125 0.3164062,0 0.6679687,-0.04687 1.0546875,-0.316407 0.035156,0.269532 0.2226562,0.269532 0.375,0.269532 h 0.6914062 c 0.1171875,0 0.375,0 0.375,-0.28125 z m 4.7050777,0 c 0,-0.304688 -0.199218,-0.304688 -0.515625,-0.304688 v -2.121094 c 0,-0.199218 0,-1.207031 -0.796875,-1.207031 -0.09375,0 -0.515625,0 -0.890625,0.457031 -0.01172,-0.03516 -0.1875,-0.457031 -0.667968,-0.457031 -0.210938,0 -0.503907,0.08203 -0.761719,0.304688 -0.03516,-0.257813 -0.210938,-0.257813 -0.375,-0.257813 H 9.7419922 c -0.140625,0 -0.3867188,0 -0.3867188,0.292969 0,0.292969 0.1992188,0.292969 0.515625,0.292969 v 2.695312 c -0.3164062,0 -0.515625,0 -0.515625,0.304688 0,0.28125 0.2460938,0.28125 0.3867188,0.28125 h 0.7968748 c 0.140625,0 0.386719,0 0.386719,-0.28125 0,-0.304688 -0.199219,-0.304688 -0.515625,-0.304688 v -1.570312 c 0,-0.761719 0.363281,-1.171875 0.726562,-1.171875 0.175782,0 0.292969,0.128906 0.292969,0.679687 v 2.0625 c -0.08203,0 -0.339844,0 -0.339844,0.292969 0,0.292969 0.246094,0.292969 0.375,0.292969 h 0.632813 c 0.140625,0 0.386719,0 0.386719,-0.28125 0,-0.304688 -0.199219,-0.304688 -0.515625,-0.304688 v -1.570312 c 0,-0.761719 0.363281,-1.171875 0.726562,-1.171875 0.175781,0 0.292969,0.128906 0.292969,0.679687 v 2.0625 c -0.08203,0 -0.339844,0 -0.339844,0.292969 0,0.292969 0.246094,0.292969 0.375,0.292969 h 0.644531 c 0.128907,0 0.375,0 0.375,-0.28125 z m 9.149415,-3.128907 c 0,-0.351562 -0.351563,-0.351562 -0.480469,-0.351562 h -3.082031 c -0.128907,0 -0.480469,0 -0.480469,0.351562 0,0.328125 0.328125,0.328125 0.421875,0.328125 h 3.199219 c 0.09375,0 0.421875,0 0.421875,-0.328125 z m 0,1.347657 c 0,-0.328125 -0.328125,-0.328125 -0.421875,-0.328125 h -3.199219 c -0.09375,0 -0.421875,0 -0.421875,0.328125 0,0.339843 0.351562,0.339843 0.480469,0.339843 h 3.082031 c 0.128906,0 0.480469,0 0.480469,-0.339843 z m 9.307617,-0.667969 c 0,-1.675781 -0.914063,-2.847656 -1.921875,-2.847656 -1.007813,0 -1.910157,1.207031 -1.910157,2.835937 0,1.664063 0.914063,2.835938 1.910157,2.835938 1.019531,0 1.921875,-1.195313 1.921875,-2.824219 z m -0.65625,-0.105469 c 0,1.300781 -0.5625,2.355469 -1.265625,2.355469 -0.691407,0 -1.253907,-1.066406 -1.253907,-2.355469 0,-1.300781 0.609375,-2.15625 1.253907,-2.15625 0.65625,0 1.265625,0.867188 1.265625,2.15625 z m 0,0"
         style="fill:#000000;fill-opacity:1;fill-rule:nonzero;stroke:none" />
    </g>
  </g>
</svg>
