<svg xmlns="http://www.w3.org/2000/svg" width="560" height="240" viewBox="0 0 560 240">
<rect width="100%" height="100%" fill="white"/>
<style>
text{font-family:"JetBrains Mono","Consolas","Noto Sans Mono CJK KR",monospace;fill:#202020}
.label{font-size:12px}
.num{font-size:10px;fill:#666}
.axis,.tick{stroke:#777;stroke-width:1}
.seg{stroke:#777;stroke-width:2.2}
.segHi{stroke:#202020;stroke-width:3.2}
.segLight{stroke:#c9c9c9;stroke-width:2.2}
.point{fill:white;stroke:#777;stroke-width:1.2}
.pointHi{fill:white;stroke:#202020;stroke-width:1.4}
.pointLight{fill:white;stroke:#c9c9c9;stroke-width:1.2}
</style>
<text x="78" y="84" text-anchor="middle" class="label">합쳐진 구간</text>
<text x="78" y="116" text-anchor="middle" class="label">확인한 선분</text>
<line x1="171.0" y1="82" x2="357.0" y2="82" class="segHi"/>
<circle cx="171.0" cy="82" r="5" class="pointHi"/>
<circle cx="357.0" cy="82" r="5" class="pointHi"/>
<line x1="202.0" y1="114" x2="357.0" y2="114" class="segLight"/>
<circle cx="202.0" cy="114" r="5" class="pointLight"/>
<circle cx="357.0" cy="114" r="5" class="pointLight"/>
<line x1="264.0" y1="146" x2="326.0" y2="146" class="segLight"/>
<circle cx="264.0" cy="146" r="5" class="pointLight"/>
<circle cx="326.0" cy="146" r="5" class="pointLight"/>
<line x1="388.0" y1="178" x2="450.0" y2="178" class="segLight"/>
<circle cx="388.0" cy="178" r="5" class="pointLight"/>
<circle cx="450.0" cy="178" r="5" class="pointLight"/>
<line x1="140" y1="190" x2="466" y2="190" class="axis"/>
<path d="M 466 190 L 460 187 L 460 193 Z" fill="#777"/>
<line x1="140.0" y1="186" x2="140.0" y2="194" class="tick"/>
<text x="140.0" y="208" text-anchor="middle" class="num">0</text>
<line x1="171.0" y1="186" x2="171.0" y2="194" class="tick"/>
<text x="171.0" y="208" text-anchor="middle" class="num">1</text>
<line x1="202.0" y1="186" x2="202.0" y2="194" class="tick"/>
<text x="202.0" y="208" text-anchor="middle" class="num">2</text>
<line x1="233.0" y1="186" x2="233.0" y2="194" class="tick"/>
<text x="233.0" y="208" text-anchor="middle" class="num">3</text>
<line x1="264.0" y1="186" x2="264.0" y2="194" class="tick"/>
<text x="264.0" y="208" text-anchor="middle" class="num">4</text>
<line x1="295.0" y1="186" x2="295.0" y2="194" class="tick"/>
<text x="295.0" y="208" text-anchor="middle" class="num">5</text>
<line x1="326.0" y1="186" x2="326.0" y2="194" class="tick"/>
<text x="326.0" y="208" text-anchor="middle" class="num">6</text>
<line x1="357.0" y1="186" x2="357.0" y2="194" class="tick"/>
<text x="357.0" y="208" text-anchor="middle" class="num">7</text>
<line x1="388.0" y1="186" x2="388.0" y2="194" class="tick"/>
<text x="388.0" y="208" text-anchor="middle" class="num">8</text>
<line x1="419.0" y1="186" x2="419.0" y2="194" class="tick"/>
<text x="419.0" y="208" text-anchor="middle" class="num">9</text>
<line x1="450.0" y1="186" x2="450.0" y2="194" class="tick"/>
<text x="450.0" y="208" text-anchor="middle" class="num">10</text>
</svg>