<svg xmlns="http://www.w3.org/2000/svg" width="760" height="340" viewBox="0 0 760 340"><rect width="100%" height="100%" fill="white"/>
<style>
text{font-family:"JetBrains Mono","Consolas","Noto Sans Mono CJK KR",monospace;fill:#202020}
.label{font-size:16px}.small{font-size:13px;fill:#555}.tiny{font-size:12px;fill:#555}
.axis{stroke:#888;stroke-width:1.2}
.line{stroke:#aaa;stroke-width:1.5;fill:none}
.lineHi{stroke:#202020;stroke-width:3;fill:none}
.lineBad{stroke:#bbb;stroke-width:1.3;stroke-dasharray:5 4;fill:none}
.vline{stroke:#202020;stroke-width:1.5;stroke-dasharray:4 4}
.point{fill:white;stroke:#202020;stroke-width:1.6}
.cell{fill:white;stroke:#777;stroke-width:1.2}
.cellHi{fill:#efefef;stroke:#202020;stroke-width:2}
</style>
<line x1="85" y1="285" x2="515" y2="285" class="axis"/><line x1="85" y1="285" x2="85" y2="65" class="axis"/><text x="533" y="289" text-anchor="middle" class="small">x</text><text x="79" y="53" text-anchor="end" class="small">y</text><line x1="85.0" y1="275.57142857142856" x2="192.5" y2="225.28571428571428" class="lineHi"/><line x1="192.5" y1="225.28571428571428" x2="246.25" y2="212.71428571428572" class="lineHi"/><line x1="246.25" y1="212.71428571428572" x2="515.0" y2="181.28571428571428" class="lineHi"/><rect x="535" y="80" width="55" height="34" class="cell"/><text x="562.5" y="102" text-anchor="middle" class="small">line</text><rect x="590" y="80" width="55" height="34" class="cell"/><text x="617.5" y="102" text-anchor="middle" class="small">a</text><rect x="645" y="80" width="55" height="34" class="cell"/><text x="672.5" y="102" text-anchor="middle" class="small">b</text><rect x="700" y="80" width="55" height="34" class="cell"/><text x="727.5" y="102" text-anchor="middle" class="small">x</text><rect x="535" y="114" width="55" height="34" class="cell"/><text x="562.5" y="136" text-anchor="middle" class="label">L0</text><rect x="590" y="114" width="55" height="34" class="cell"/><text x="617.5" y="136" text-anchor="middle" class="label">8</text><rect x="645" y="114" width="55" height="34" class="cell"/><text x="672.5" y="136" text-anchor="middle" class="label">3</text><rect x="700" y="114" width="55" height="34" class="cellHi"/><text x="727.5" y="136" text-anchor="middle" class="label">0</text><rect x="535" y="148" width="55" height="34" class="cell"/><text x="562.5" y="170" text-anchor="middle" class="label">L1</text><rect x="590" y="148" width="55" height="34" class="cell"/><text x="617.5" y="170" text-anchor="middle" class="label">4</text><rect x="645" y="148" width="55" height="34" class="cell"/><text x="672.5" y="170" text-anchor="middle" class="label">11</text><rect x="700" y="148" width="55" height="34" class="cellHi"/><text x="727.5" y="170" text-anchor="middle" class="label">2</text><rect x="535" y="182" width="55" height="34" class="cell"/><text x="562.5" y="204" text-anchor="middle" class="label">L2</text><rect x="590" y="182" width="55" height="34" class="cell"/><text x="617.5" y="204" text-anchor="middle" class="label">2</text><rect x="645" y="182" width="55" height="34" class="cell"/><text x="672.5" y="204" text-anchor="middle" class="label">17</text><rect x="700" y="182" width="55" height="34" class="cellHi"/><text x="727.5" y="204" text-anchor="middle" class="label">3</text></svg>