<svg xmlns="http://www.w3.org/2000/svg" width="760" height="340" viewBox="0 0 760 340"><rect width="100%" height="100%" fill="white"/>
<style>
text{font-family:"JetBrains Mono","Consolas","Noto Sans Mono CJK KR",monospace;fill:#202020}
.label{font-size:16px}.small{font-size:13px;fill:#555}.tiny{font-size:12px;fill:#555}
.axis{stroke:#888;stroke-width:1.2}
.line{stroke:#aaa;stroke-width:1.5;fill:none}
.lineHi{stroke:#202020;stroke-width:3;fill:none}
.lineBad{stroke:#bbb;stroke-width:1.3;stroke-dasharray:5 4;fill:none}
.vline{stroke:#202020;stroke-width:1.5;stroke-dasharray:4 4}
.point{fill:white;stroke:#202020;stroke-width:1.6}
.cell{fill:white;stroke:#777;stroke-width:1.2}
.cellHi{fill:#efefef;stroke:#202020;stroke-width:2}
</style>
<line x1="85" y1="285" x2="515" y2="285" class="axis"/><line x1="85" y1="285" x2="85" y2="65" class="axis"/><text x="533" y="289" text-anchor="middle" class="small">x</text><text x="79" y="53" text-anchor="end" class="small">y</text><line x1="85.0" y1="275.57142857142856" x2="192.5" y2="225.28571428571428" class="line"/><line x1="192.5" y1="225.28571428571428" x2="246.25" y2="212.71428571428572" class="line"/><line x1="246.25" y1="212.71428571428572" x2="515.0" y2="181.28571428571428" class="lineHi"/><line x1="353.75" y1="285.0" x2="353.75" y2="65.0" class="vline"/><circle cx="353.75" cy="200.14285714285714" r="5" class="point"/><rect x="535" y="120" width="50" height="34" class="cell"/><text x="560.0" y="142" text-anchor="middle" class="small">x</text><rect x="585" y="120" width="70" height="34" class="cell"/><text x="620.0" y="142" text-anchor="middle" class="small">line</text><rect x="655" y="120" width="70" height="34" class="cell"/><text x="690.0" y="142" text-anchor="middle" class="small">value</text><rect x="535" y="154" width="50" height="34" class="cellHi"/><text x="560.0" y="176" text-anchor="middle" class="label">5</text><rect x="585" y="154" width="70" height="34" class="cellHi"/><text x="620.0" y="176" text-anchor="middle" class="label">L2</text><rect x="655" y="154" width="70" height="34" class="cellHi"/><text x="690.0" y="176" text-anchor="middle" class="label">27</text></svg>