<svg xmlns="http://www.w3.org/2000/svg" width="860" height="320" viewBox="0 0 860 320"><rect width="100%" height="100%" fill="white"/><style>
text{font-family:"JetBrains Mono","Consolas","Noto Sans Mono CJK KR",monospace;fill:#202020}
.label{font-size:18px}.small{font-size:14px;fill:#555}.tiny{font-size:13px;fill:#555}
.axis{stroke:#777;stroke-width:1.4;marker-end:url(#arrowGray)}
.line{fill:none;stroke:#777;stroke-width:1.8}
.lineHi{fill:none;stroke:#202020;stroke-width:3}
.hull{fill:none;stroke:#202020;stroke-width:3.2}
.dash{fill:none;stroke:#999;stroke-width:1.5;stroke-dasharray:6 5}
.point{fill:white;stroke:#202020;stroke-width:2}
.box{fill:white;stroke:#777;stroke-width:1.2;rx:5}.boxHi{fill:#eee;stroke:#202020;stroke-width:2;rx:5}
.cell{fill:white;stroke:#777;stroke-width:1.2}.cellHi{fill:#eee;stroke:#202020;stroke-width:2}.cellPop{fill:#f7f7f7;stroke:#202020;stroke-width:2;stroke-dasharray:5 4}
.arrow{fill:none;stroke:#202020;stroke-width:1.7;marker-end:url(#arrow)}
</style><defs>
<marker id="arrow" markerWidth="9" markerHeight="9" refX="7" refY="3" orient="auto"><path d="M0,0 L0,6 L8,3 z" fill="#202020"/></marker>
<marker id="arrowGray" markerWidth="9" markerHeight="9" refX="7" refY="3" orient="auto"><path d="M0,0 L0,6 L8,3 z" fill="#777"/></marker>
</defs><text x="147" y="72" text-anchor="end" class="label">stk</text><rect x="165" y="45" width="150" height="42" class="cellHi"/><text x="240.0" y="72" text-anchor="middle" class="label">l1</text><rect x="315" y="45" width="150" height="42" class="cellHi"/><text x="390.0" y="72" text-anchor="middle" class="label">l2</text><rect x="465" y="45" width="150" height="42" class="cellPop"/><text x="540.0" y="72" text-anchor="middle" class="label">l3</text><text x="147" y="132" text-anchor="end" class="label">x</text><rect x="165" y="105" width="150" height="42" class="cell"/><text x="240.0" y="132" text-anchor="middle" class="label">-∞</text><rect x="315" y="105" width="150" height="42" class="cell"/><text x="390.0" y="132" text-anchor="middle" class="label">3.75</text><rect x="465" y="105" width="150" height="42" class="cellPop"/><text x="540.0" y="132" text-anchor="middle" class="label">bad</text><rect x="215" y="200" width="430" height="48" class="boxHi"/><text x="430.0" y="230.0" text-anchor="middle" class="label">new line의 시작점이 이전 시작점 이하이면 pop</text></svg>