<svg xmlns="http://www.w3.org/2000/svg" width="850" height="500" viewBox="0 0 850 500"><rect width="100%" height="100%" fill="white"/>
<style>
text{font-family:"JetBrains Mono","Consolas","Noto Sans Mono CJK KR",monospace;fill:#202020}
.label{font-size:18px}.small{font-size:14px;fill:#555}.cnt{font-size:14px;fill:#333}
.node{fill:white;stroke:#555;stroke-width:1.8}
.nodeHi{fill:#eee;stroke:#202020;stroke-width:2.2}
.nodeMissing{fill:white;stroke:#888;stroke-width:1.6;stroke-dasharray:5 4}
.edge{fill:none;stroke:#888;stroke-width:1.8;marker-end:url(#arrowGray)}
.edgeHi{fill:none;stroke:#202020;stroke-width:3.4;marker-end:url(#arrow)}
.edgeMissing{fill:none;stroke:#888;stroke-width:1.6;stroke-dasharray:5 4;marker-end:url(#arrowGray)}
</style>

<defs>
<marker id="arrow" markerWidth="9" markerHeight="9" refX="7" refY="3" orient="auto">
<path d="M0,0 L0,6 L8,3 z" fill="#202020"/></marker>
<marker id="arrowGray" markerWidth="9" markerHeight="9" refX="7" refY="3" orient="auto">
<path d="M0,0 L0,6 L8,3 z" fill="#888"/></marker>
</defs>
<line x1="132.6" y1="215.2" x2="277.4" y2="119.8" class="edge"/><rect x="191.0" y="141.5" width="28" height="22" fill="white"/><text x="205.0" y="158.5" text-anchor="middle" class="label">s</text><line x1="327.0" y1="105.0" x2="478.0" y2="105.0" class="edge"/><rect x="388.5" y="79.0" width="28" height="22" fill="white"/><text x="402.5" y="96.0" text-anchor="middle" class="label">h</text><line x1="532.0" y1="105.0" x2="683.0" y2="105.0" class="edge"/><rect x="593.5" y="79.0" width="28" height="22" fill="white"/><text x="607.5" y="96.0" text-anchor="middle" class="label">e</text><line x1="132.8" y1="244.4" x2="277.2" y2="335.6" class="edgeHi"/><rect x="191.0" y="264.0" width="28" height="22" fill="white"/><text x="205.0" y="281.0" text-anchor="middle" class="label">h</text><line x1="327.0" y1="350.0" x2="478.0" y2="350.0" class="edgeHi"/><rect x="388.5" y="324.0" width="28" height="22" fill="white"/><text x="402.5" y="341.0" text-anchor="middle" class="label">e</text><circle cx="110" cy="230" r="27" class="node"/><text x="110" y="236" text-anchor="middle" class="small">root</text><circle cx="300" cy="105" r="27" class="node"/><text x="300" y="154" text-anchor="middle" class="cnt">cnt=1</text><circle cx="505" cy="105" r="27" class="node"/><text x="505" y="154" text-anchor="middle" class="cnt">cnt=1</text><circle cx="710" cy="105" r="27" class="node"/><text x="710" y="154" text-anchor="middle" class="cnt">cnt=1</text><circle cx="300" cy="350" r="27" class="nodeHi"/><text x="300" y="399" text-anchor="middle" class="cnt">cnt=1</text><circle cx="505" cy="350" r="27" class="nodeHi"/><text x="505" y="399" text-anchor="middle" class="cnt">cnt=1</text></svg>