<svg xmlns="http://www.w3.org/2000/svg" width="860" height="390" viewBox="0 0 860 390"><rect width="100%" height="100%" fill="white"/><style>
text{font-family:"JetBrains Mono","Consolas","Noto Sans Mono CJK KR",monospace;fill:#202020}
.label{font-size:18px}.small{font-size:14px;fill:#555}.tiny{font-size:13px;fill:#555}
.cell{fill:white;stroke:#777;stroke-width:1.2}
.cellHi{fill:#eee;stroke:#202020;stroke-width:2}
.cellMute{fill:#fafafa;stroke:#bbb;stroke-width:1}
.arrow{fill:none;stroke:#202020;stroke-width:1.8;marker-end:url(#arrow)}
.guide{fill:none;stroke:#777;stroke-width:1.5;stroke-dasharray:6 5;marker-end:url(#arrowGray)}
</style><defs>
<marker id="arrow" markerWidth="9" markerHeight="9" refX="7" refY="3" orient="auto"><path d="M0,0 L0,6 L8,3 z" fill="#202020"/></marker>
<marker id="arrowGray" markerWidth="9" markerHeight="9" refX="7" refY="3" orient="auto"><path d="M0,0 L0,6 L8,3 z" fill="#777"/></marker>
</defs><text x="112" y="57" text-anchor="end" class="label">i</text><rect x="130" y="30" width="82" height="42" class="cell"/><text x="171.0" y="57" text-anchor="middle" class="label">1</text><rect x="212" y="30" width="82" height="42" class="cell"/><text x="253.0" y="57" text-anchor="middle" class="label">2</text><rect x="294" y="30" width="82" height="42" class="cell"/><text x="335.0" y="57" text-anchor="middle" class="label">3</text><rect x="376" y="30" width="82" height="42" class="cell"/><text x="417.0" y="57" text-anchor="middle" class="label">4</text><rect x="458" y="30" width="82" height="42" class="cell"/><text x="499.0" y="57" text-anchor="middle" class="label">5</text><rect x="540" y="30" width="82" height="42" class="cell"/><text x="581.0" y="57" text-anchor="middle" class="label">6</text><rect x="622" y="30" width="82" height="42" class="cell"/><text x="663.0" y="57" text-anchor="middle" class="label">7</text><rect x="704" y="30" width="82" height="42" class="cell"/><text x="745.0" y="57" text-anchor="middle" class="label">8</text><text x="112" y="115" text-anchor="end" class="label">a</text><rect x="130" y="88" width="82" height="42" class="cell"/><text x="171.0" y="115" text-anchor="middle" class="label">3</text><rect x="212" y="88" width="82" height="42" class="cell"/><text x="253.0" y="115" text-anchor="middle" class="label">1</text><rect x="294" y="88" width="82" height="42" class="cell"/><text x="335.0" y="115" text-anchor="middle" class="label">4</text><rect x="376" y="88" width="82" height="42" class="cell"/><text x="417.0" y="115" text-anchor="middle" class="label">1</text><rect x="458" y="88" width="82" height="42" class="cell"/><text x="499.0" y="115" text-anchor="middle" class="label">5</text><rect x="540" y="88" width="82" height="42" class="cell"/><text x="581.0" y="115" text-anchor="middle" class="label">9</text><rect x="622" y="88" width="82" height="42" class="cell"/><text x="663.0" y="115" text-anchor="middle" class="label">2</text><rect x="704" y="88" width="82" height="42" class="cell"/><text x="745.0" y="115" text-anchor="middle" class="label">6</text><text x="112" y="193" text-anchor="end" class="label">tree</text><rect x="130" y="166" width="82" height="42" class="cellHi"/><text x="171.0" y="193" text-anchor="middle" class="label">[1]</text><rect x="212" y="166" width="82" height="42" class="cellHi"/><text x="253.0" y="193" text-anchor="middle" class="label">[1,2]</text><rect x="294" y="166" width="82" height="42" class="cell"/><text x="335.0" y="193" text-anchor="middle" class="label">[3]</text><rect x="376" y="166" width="82" height="42" class="cellHi"/><text x="417.0" y="193" text-anchor="middle" class="label">[1,4]</text><rect x="458" y="166" width="82" height="42" class="cell"/><text x="499.0" y="193" text-anchor="middle" class="label">[5]</text><rect x="540" y="166" width="82" height="42" class="cell"/><text x="581.0" y="193" text-anchor="middle" class="label">[5,6]</text><rect x="622" y="166" width="82" height="42" class="cell"/><text x="663.0" y="193" text-anchor="middle" class="label">[7]</text><rect x="704" y="166" width="82" height="42" class="cellHi"/><text x="745.0" y="193" text-anchor="middle" class="label">[1,8]</text><path d="M 130 260 L 212 260" class="guide"/><text x="171.0" y="251" text-anchor="middle" class="small">tree[1]</text><path d="M 130 290 L 294 290" class="guide"/><text x="212.0" y="281" text-anchor="middle" class="small">tree[2]</text><path d="M 130 320 L 458 320" class="arrow"/><text x="294.0" y="311" text-anchor="middle" class="small">tree[4]</text><path d="M 130 350 L 786 350" class="arrow"/><text x="458.0" y="341" text-anchor="middle" class="small">tree[8]</text></svg>