<svg xmlns="http://www.w3.org/2000/svg" width="860" height="290" viewBox="0 0 860 290"><rect width="100%" height="100%" fill="white"/><style>
text{font-family:"JetBrains Mono","Consolas","Noto Sans Mono CJK KR",monospace;fill:#202020}
.label{font-size:18px}.small{font-size:14px;fill:#555}.tiny{font-size:13px;fill:#555}
.cell{fill:white;stroke:#777;stroke-width:1.2}
.cellHi{fill:#eee;stroke:#202020;stroke-width:2}
.cellMute{fill:#fafafa;stroke:#bbb;stroke-width:1}
.arrow{fill:none;stroke:#202020;stroke-width:1.8;marker-end:url(#arrow)}
.guide{fill:none;stroke:#777;stroke-width:1.5;stroke-dasharray:6 5;marker-end:url(#arrowGray)}
</style><defs>
<marker id="arrow" markerWidth="9" markerHeight="9" refX="7" refY="3" orient="auto"><path d="M0,0 L0,6 L8,3 z" fill="#202020"/></marker>
<marker id="arrowGray" markerWidth="9" markerHeight="9" refX="7" refY="3" orient="auto"><path d="M0,0 L0,6 L8,3 z" fill="#777"/></marker>
</defs><text x="112" y="61" text-anchor="end" class="label">i</text><rect x="130" y="34" width="82" height="42" class="cell"/><text x="171.0" y="61" text-anchor="middle" class="label">1</text><rect x="212" y="34" width="82" height="42" class="cell"/><text x="253.0" y="61" text-anchor="middle" class="label">2</text><rect x="294" y="34" width="82" height="42" class="cell"/><text x="335.0" y="61" text-anchor="middle" class="label">3</text><rect x="376" y="34" width="82" height="42" class="cell"/><text x="417.0" y="61" text-anchor="middle" class="label">4</text><rect x="458" y="34" width="82" height="42" class="cell"/><text x="499.0" y="61" text-anchor="middle" class="label">5</text><rect x="540" y="34" width="82" height="42" class="cell"/><text x="581.0" y="61" text-anchor="middle" class="label">6</text><rect x="622" y="34" width="82" height="42" class="cell"/><text x="663.0" y="61" text-anchor="middle" class="label">7</text><rect x="704" y="34" width="82" height="42" class="cell"/><text x="745.0" y="61" text-anchor="middle" class="label">8</text><text x="112" y="119" text-anchor="end" class="label">tree</text><rect x="130" y="92" width="82" height="42" class="cell"/><text x="171.0" y="119" text-anchor="middle" class="label">1</text><rect x="212" y="92" width="82" height="42" class="cell"/><text x="253.0" y="119" text-anchor="middle" class="label">4</text><rect x="294" y="92" width="82" height="42" class="cellHi"/><text x="335.0" y="119" text-anchor="middle" class="label">4</text><rect x="376" y="92" width="82" height="42" class="cellHi"/><text x="417.0" y="119" text-anchor="middle" class="label">9</text><rect x="458" y="92" width="82" height="42" class="cell"/><text x="499.0" y="119" text-anchor="middle" class="label">5</text><rect x="540" y="92" width="82" height="42" class="cell"/><text x="581.0" y="119" text-anchor="middle" class="label">14</text><rect x="622" y="92" width="82" height="42" class="cell"/><text x="663.0" y="119" text-anchor="middle" class="label">2</text><rect x="704" y="92" width="82" height="42" class="cellHi"/><text x="745.0" y="119" text-anchor="middle" class="label">31</text><path d="M 335 158 Q 376.0 210 417 158" class="arrow"/><text x="376.0" y="224" text-anchor="middle" class="small">+ lowbit(3)</text><path d="M 417 158 Q 581.0 210 745 158" class="arrow"/><text x="581.0" y="224" text-anchor="middle" class="small">+ lowbit(4)</text><text x="458" y="266" text-anchor="middle" class="label">update(3, diff)</text></svg>