<?xml version="1.0" encoding="UTF-8" standalone="no"?>
<!-- Created with Inkscape (http://www.inkscape.org/) -->

<svg
   version="1.1"
   id="svg1"
   width="577.50665"
   height="262.61334"
   viewBox="0 0 577.50665 262.61334"
   sodipodi:docname="1.pdf"
   xmlns:inkscape="http://www.inkscape.org/namespaces/inkscape"
   xmlns:sodipodi="http://sodipodi.sourceforge.net/DTD/sodipodi-0.dtd"
   xmlns="http://www.w3.org/2000/svg"
   xmlns:svg="http://www.w3.org/2000/svg">
  <defs
     id="defs1" />
  <sodipodi:namedview
     id="namedview1"
     pagecolor="#ffffff"
     bordercolor="#000000"
     borderopacity="0.25"
     inkscape:showpageshadow="2"
     inkscape:pageopacity="0.0"
     inkscape:pagecheckerboard="0"
     inkscape:deskcolor="#d1d1d1">
    <inkscape:page
       x="0"
       y="0"
       inkscape:label="1"
       id="page1"
       width="577.50665"
       height="262.61334"
       margin="0"
       bleed="0" />
  </sodipodi:namedview>
  <g
     id="g1"
     inkscape:groupmode="layer"
     inkscape:label="1">
    <path
       id="path1"
       d="M 69.49881,81.48897 25.12749,14.41605"
       style="fill:none;stroke:#858585;stroke-width:0.57784;stroke-linecap:butt;stroke-linejoin:miter;stroke-miterlimit:10;stroke-dasharray:none;stroke-opacity:1"
       transform="matrix(1.3333333,0,0,-1.3333333,9.1026667,155.30933)" />
    <path
       id="path2"
       d="M 3.33876,0 C 2.92874,0.10161 1.12645,0.67744 0,1.30406 V -1.30406 C 1.12645,-0.67744 2.92874,-0.10161 3.33876,0 Z"
       style="fill:#858585;fill-opacity:1;fill-rule:nonzero;stroke:#858585;stroke-width:0.57784;stroke-linecap:butt;stroke-linejoin:miter;stroke-miterlimit:10;stroke-dasharray:none;stroke-opacity:1"
       transform="matrix(-0.7356,1.11196,1.11196,0.7356,42.606,136.08793)" />
    <path
       id="path3"
       d="M 83.57375,81.48897 127.94551,14.41605"
       style="fill:none;stroke:#858585;stroke-width:0.57784;stroke-linecap:butt;stroke-linejoin:miter;stroke-miterlimit:10;stroke-dasharray:none;stroke-opacity:1"
       transform="matrix(1.3333333,0,0,-1.3333333,9.1026667,155.30933)" />
    <path
       id="path4"
       d="M 3.33876,0 C 2.92874,0.10161 1.12645,0.67744 0,1.30406 V -1.30406 C 1.12645,-0.67744 2.92874,-0.10161 3.33876,0 Z"
       style="fill:#858585;fill-opacity:1;fill-rule:nonzero;stroke:#858585;stroke-width:0.57784;stroke-linecap:butt;stroke-linejoin:miter;stroke-miterlimit:10;stroke-dasharray:none;stroke-opacity:1"
       transform="matrix(0.7356,1.11196,1.11196,-0.7356,179.69667,136.08793)" />
    <path
       id="path5"
       d="M 76.53629,79.37106 V 62.07408"
       style="fill:none;stroke:#858585;stroke-width:0.57784;stroke-linecap:butt;stroke-linejoin:miter;stroke-miterlimit:10;stroke-dasharray:none;stroke-opacity:1"
       transform="matrix(1.3333333,0,0,-1.3333333,9.1026667,155.30933)" />
    <path
       id="path6"
       d="M 3.33876,0 C 2.92874,0.10161 1.12645,0.67744 0,1.30406 V -1.30406 C 1.12645,-0.67744 2.92874,-0.10161 3.33876,0 Z"
       style="fill:#858585;fill-opacity:1;fill-rule:nonzero;stroke:#858585;stroke-width:0.57784;stroke-linecap:butt;stroke-linejoin:miter;stroke-miterlimit:10;stroke-dasharray:none;stroke-opacity:1"
       transform="matrix(0,1.3333333,1.3333333,0,111.15105,72.543893)" />
    <path
       id="path7"
       d="M 66.25803,37.23453 29.51944,10.23564"
       style="fill:none;stroke:#858585;stroke-width:0.57784;stroke-linecap:butt;stroke-linejoin:miter;stroke-miterlimit:10;stroke-dasharray:none;stroke-opacity:1"
       transform="matrix(1.3333333,0,0,-1.3333333,9.1026667,155.30933)" />
    <path
       id="path8"
       d="M 3.33876,0 C 2.92874,0.10161 1.12645,0.67744 0,1.30406 V -1.30406 C 1.12645,-0.67744 2.92874,-0.10161 3.33876,0 Z"
       style="fill:#858585;fill-opacity:1;fill-rule:nonzero;stroke:#858585;stroke-width:0.57784;stroke-linecap:butt;stroke-linejoin:miter;stroke-miterlimit:10;stroke-dasharray:none;stroke-opacity:1"
       transform="matrix(-1.07436,0.78950667,0.78950667,1.07436,48.46192,141.66181)" />
    <path
       id="path9"
       d="m 76.53629,32.03194 v -68.6046"
       style="fill:none;stroke:#858585;stroke-width:0.57784;stroke-linecap:butt;stroke-linejoin:miter;stroke-miterlimit:10;stroke-dasharray:none;stroke-opacity:1"
       transform="matrix(1.3333333,0,0,-1.3333333,9.1026667,155.30933)" />
    <path
       id="path10"
       d="M 3.33876,0 C 2.92874,0.10161 1.12645,0.67744 0,1.30406 V -1.30406 C 1.12645,-0.67744 2.92874,-0.10161 3.33876,0 Z"
       style="fill:#858585;fill-opacity:1;fill-rule:nonzero;stroke:#858585;stroke-width:0.57784;stroke-linecap:butt;stroke-linejoin:miter;stroke-miterlimit:10;stroke-dasharray:none;stroke-opacity:1"
       transform="matrix(0,1.3333333,1.3333333,0,111.15105,204.07288)" />
    <path
       id="path11"
       d="M 25.1487,-8.44647 63.5844,-42.41241"
       style="fill:none;stroke:#858585;stroke-width:0.57784;stroke-linecap:butt;stroke-linejoin:miter;stroke-miterlimit:10;stroke-dasharray:none;stroke-opacity:1"
       transform="matrix(1.3333333,0,0,-1.3333333,9.1026667,155.30933)" />
    <path
       id="path12"
       d="M 3.33876,0 C 2.92874,0.10161 1.12645,0.67744 0,1.30406 V -1.30406 C 1.12645,-0.67744 2.92874,-0.10161 3.33876,0 Z"
       style="fill:#858585;fill-opacity:1;fill-rule:nonzero;stroke:#858585;stroke-width:0.57784;stroke-linecap:butt;stroke-linejoin:miter;stroke-miterlimit:10;stroke-dasharray:none;stroke-opacity:1"
       transform="matrix(0.99902667,0.88289333,0.88289333,-0.99902667,93.88184,211.85921)" />
    <path
       id="path13"
       d="M 127.9243,-8.44647 89.48845,-42.41269"
       style="fill:none;stroke:#858585;stroke-width:0.57784;stroke-linecap:butt;stroke-linejoin:miter;stroke-miterlimit:10;stroke-dasharray:none;stroke-opacity:1"
       transform="matrix(1.3333333,0,0,-1.3333333,9.1026667,155.30933)" />
    <path
       id="path14"
       d="M 3.33876,0 C 2.92874,0.10161 1.12645,0.67744 0,1.30406 V -1.30406 C 1.12645,-0.67744 2.92874,-0.10161 3.33876,0 Z"
       style="fill:#858585;fill-opacity:1;fill-rule:nonzero;stroke:#858585;stroke-width:0.57784;stroke-linecap:butt;stroke-linejoin:miter;stroke-miterlimit:10;stroke-dasharray:none;stroke-opacity:1"
       transform="matrix(-0.99904,0.88288,0.88288,0.99904,128.4206,211.85959)" />
    <path
       id="path15"
       d="m 34.76976,49.24258 h 5.86307 v 6.96497 h -5.86307 z"
       style="fill:#ffffff;fill-opacity:1;fill-rule:nonzero;stroke:none"
       transform="matrix(1.3333333,0,0,-1.3333333,9.1026667,155.30933)" />
    <path
       id="path16"
       d="m 1.3816094,1.640625e-4 h 0.65625 C 2.1198906,-1.9334297 2.3659844,-3.0701484 3.5378594,-4.5818672 V -4.9685859 H 0.33864062 v 0.5507812 H 2.8230156 c -0.984375,1.359375 -1.3476562,2.5429688 -1.4414062,4.4179687625 z m 0,0"
       style="fill:#000000;fill-opacity:1;fill-rule:nonzero;stroke:none"
       aria-label="7"
       transform="matrix(1.3333333,0,0,1.3333333,56.790667,88.324)" />
    <path
       id="path17"
       d="m 112.15643,49.24258 h 5.86307 v 6.96497 h -5.86307 z"
       style="fill:#ffffff;fill-opacity:1;fill-rule:nonzero;stroke:none"
       transform="matrix(1.3333333,0,0,-1.3333333,9.1026667,155.30933)" />
    <path
       id="path18"
       d="M 2.3666797,1.640625e-4 H 2.9643359 V -1.3709297 h 0.6914063 v -0.515625 H 2.9643359 v -3.0820312 h -0.703125 l -2.12109371,3.1757812 v 0.421875 H 2.3666797 Z m 0,-1.8867187625 H 0.79636719 L 1.9682422,-3.5857734 c 0.140625,-0.2460938 0.28125,-0.46875 0.4101562,-0.703125 h 0.023437 c -0.011719,0.2578125 -0.035156,0.703125 -0.035156,0.9492187 z m 0,0"
       style="fill:#000000;fill-opacity:1;fill-rule:nonzero;stroke:none"
       aria-label="4"
       transform="matrix(1.3333333,0,0,1.3333333,159.97333,88.324)" />
    <path
       id="path19"
       d="m 80.12439,65.11673 h 5.86307 v 6.96497 h -5.86307 z"
       style="fill:#ffffff;fill-opacity:1;fill-rule:nonzero;stroke:none"
       transform="matrix(1.3333333,0,0,-1.3333333,9.1026667,155.30933)" />
    <path
       id="path20"
       d="M 0.61059375,0.00111719 H 3.4230937 v -0.52734375 h -1.03125 V -4.9676328 H 1.8996562 C 1.630125,-4.8035703 1.302,-4.6863828 0.84496875,-4.6043516 v 0.4101563 H 1.7590312 v 3.66796874 H 0.61059375 Z m 0,0"
       style="fill:#000000;fill-opacity:1;fill-rule:nonzero;stroke:none"
       aria-label="1"
       transform="matrix(1.3333333,0,0,1.3333333,117.264,67.158667)" />
    <path
       id="path21"
       d="m 40.72235,22.26787 h 5.86307 v 7.05562 h -5.86307 z"
       style="fill:#ffffff;fill-opacity:1;fill-rule:nonzero;stroke:none"
       transform="matrix(1.3333333,0,0,-1.3333333,9.1026667,155.30933)" />
    <path
       id="path22"
       d="M 0.30360937,-0.00120313 H 3.5145469 V -0.55198438 H 2.0731406 c -0.2578125,0 -0.5625,0.0234375 -0.8320312,0.046875 1.171875,-1.23046872 2.0390625,-2.16796872 2.0390625,-3.10546872 0,-0.8789063 -0.5859375,-1.453125 -1.5,-1.453125 -0.6445313,0 -1.08984378,0.2929687 -1.50000003,0.75 l 0.36328125,0.3632812 c 0.29296875,-0.328125 0.64453128,-0.5976562 1.06640628,-0.5976562 0.6328125,0 0.9375,0.4101562 0.9375,0.9726562 0,0.8085938 -0.84375,1.7109375 -2.34375003,3.19921877 z m 0,0"
       style="fill:#000000;fill-opacity:1;fill-rule:nonzero;stroke:none"
       aria-label="2"
       transform="matrix(1.3333333,0,0,1.3333333,64.728,124.29067)" />
    <path
       id="path23"
       d="m 80.69145,-8.63 h 5.86307 v 7.05559 h -5.86307 z"
       style="fill:#ffffff;fill-opacity:1;fill-rule:nonzero;stroke:none"
       transform="matrix(1.3333333,0,0,-1.3333333,9.1026667,155.30933)" />
    <path
       id="path24"
       d="m 1.8277734,0.09414062 c 0.8554688,0 1.6757813,-0.609375 1.6757813,-1.68750002 0,-1.0664062 -0.703125,-1.546875 -1.546875,-1.546875 -0.3046875,0 -0.5390625,0.070312 -0.7617188,0.1992188 l 0.1289063,-1.4765625 h 1.921875 V -4.9683594 H 0.76136719 l -0.1640625,2.390625 0.33984375,0.2109375 c 0.29296876,-0.1875 0.51562496,-0.3046875 0.85546876,-0.3046875 0.6445312,0 1.0546875,0.4101563 1.0546875,1.1015625 0,0.69140627 -0.4804688,1.13671877 -1.078125,1.13671877 -0.5976563,0 -0.97265626,-0.28125 -1.26562501,-0.57421877 l -0.31640625,0.42187502 c 0.3515625,0.33984375 0.83203126,0.6796875 1.64062496,0.6796875 z m 0,0"
       style="fill:#000000;fill-opacity:1;fill-rule:nonzero;stroke:none"
       aria-label="5"
       transform="matrix(1.3333333,0,0,1.3333333,118.02,165.36667)" />
    <path
       id="path25"
       d="m 40.15573,-33.29204 h 5.86307 v 7.05562 h -5.86307 z"
       style="fill:#ffffff;fill-opacity:1;fill-rule:nonzero;stroke:none"
       transform="matrix(1.3333333,0,0,-1.3333333,9.1026667,155.30933)" />
    <path
       id="path26"
       d="M 0.30517969,3.203125e-4 H 3.5161172 V -0.55046094 H 2.0747109 c -0.2578125,0 -0.5625,0.0234375 -0.8320312,0.046875 1.171875,-1.23046876 2.0390625,-2.16796876 2.0390625,-3.10546876 0,-0.8789062 -0.5859375,-1.453125 -1.5,-1.453125 -0.6445313,0 -1.08984376,0.2929688 -1.50000001,0.75 l 0.36328125,0.3632813 c 0.29296875,-0.328125 0.64453126,-0.5976563 1.06640626,-0.5976563 0.6328125,0 0.9375,0.4101563 0.9375,0.9726563 0,0.8085937 -0.84375,1.7109375 -2.34375001,3.19921871 z m 0,0"
       style="fill:#000000;fill-opacity:1;fill-rule:nonzero;stroke:none"
       aria-label="2"
       transform="matrix(1.3333333,0,0,1.3333333,63.972,198.37067)" />
    <path
       id="path27"
       d="m 111.02275,-33.2467 h 5.86307 v 6.96497 h -5.86307 z"
       style="fill:#ffffff;fill-opacity:1;fill-rule:nonzero;stroke:none"
       transform="matrix(1.3333333,0,0,-1.3333333,9.1026667,155.30933)" />
    <path
       id="path28"
       d="M 0.60907812,-5.546875e-4 H 3.4215781 V -0.52789844 h -1.03125 V -4.9693047 H 1.8981406 c -0.2695312,0.1640625 -0.5976562,0.28125 -1.05468748,0.3632813 v 0.4101562 H 1.7575156 v 3.66796876 H 0.60907812 Z m 0,0"
       style="fill:#000000;fill-opacity:1;fill-rule:nonzero;stroke:none"
       aria-label="1"
       transform="matrix(1.3333333,0,0,1.3333333,158.46133,198.30933)" />
    <path
       id="path29"
       d="m 90.70969,92.1271 c 0,7.82786 -6.34555,14.1734 -14.1734,14.1734 -7.82785,0 -14.17341,-6.34554 -14.17341,-14.1734 0,-7.82783 6.34556,-14.17338 14.17341,-14.17338 7.82785,0 14.1734,6.34555 14.1734,14.17338 z"
       style="fill:#b8b8b8;fill-opacity:1;fill-rule:nonzero;stroke:#000000;stroke-width:1.04608;stroke-linecap:butt;stroke-linejoin:miter;stroke-miterlimit:10;stroke-dasharray:none;stroke-opacity:1"
       transform="matrix(1.3333333,0,0,-1.3333333,9.1026667,155.30933)" />
    <path
       id="path30"
       d="M 0.78417969,-2.1875e-4 H 4.3935547 v -0.6796875 H 3.0693359 V -6.3869375 H 2.4482422 C 2.0849609,-6.176 1.6630859,-6.0236563 1.0888672,-5.9181875 v 0.515625 h 1.171875 v 4.72265625 H 0.78417969 Z m 0,0"
       style="fill:#000000;fill-opacity:1;fill-rule:nonzero;stroke:none"
       aria-label="1"
       transform="matrix(1.3333333,0,0,1.3333333,107.83333,36.734667)" />
    <path
       id="path31"
       d="m 29.76422,0 c 0,7.82784 -6.34555,14.17339 -14.1734,14.17339 C 7.76297,14.17339 1.41742,7.82784 1.41742,0 c 0,-7.82784 6.34555,-14.17339 14.1734,-14.17339 7.82785,0 14.1734,6.34555 14.1734,14.17339 z"
       style="fill:#ffffff;fill-opacity:1;fill-rule:nonzero;stroke:#666666;stroke-width:0.54794;stroke-linecap:butt;stroke-linejoin:miter;stroke-miterlimit:10;stroke-dasharray:none;stroke-opacity:1"
       transform="matrix(1.3333333,0,0,-1.3333333,9.1026667,155.30933)" />
    <path
       id="path32"
       d="M 0.39910156,-6.71875e-4 H 4.5241016 V -0.70379688 H 2.6725391 c -0.328125,0 -0.7382813,0.0351563 -1.078125,0.0585938 1.5117187,-1.58203122 2.625,-2.78906252 2.625,-3.99609372 0,-1.125 -0.75,-1.8632812 -1.921875,-1.8632812 -0.8320313,0 -1.40625004,0.375 -1.93359379,0.9609375 l 0.46875,0.4570312 C 1.2076953,-5.5084843 1.6647266,-5.848328 2.1920703,-5.848328 c 0.8203125,0 1.21875,0.5273437 1.21875,1.2539062 0,1.0429687 -1.0898437,2.1914063 -3.01171874,4.11328122 z m 0,0"
       style="fill:#000000;fill-opacity:1;fill-rule:nonzero;stroke:none"
       aria-label="2"
       transform="matrix(1.3333333,0,0,1.3333333,26.573333,159.64933)" />
    <path
       id="path33"
       d="m 151.65558,0 c 0,7.82784 -6.34555,14.17339 -14.1734,14.17339 -7.82784,0 -14.17339,-6.34555 -14.17339,-14.17339 0,-7.82784 6.34555,-14.17339 14.17339,-14.17339 7.82785,0 14.1734,6.34555 14.1734,14.17339 z"
       style="fill:#ffffff;fill-opacity:1;fill-rule:nonzero;stroke:#666666;stroke-width:0.54794;stroke-linecap:butt;stroke-linejoin:miter;stroke-miterlimit:10;stroke-dasharray:none;stroke-opacity:1"
       transform="matrix(1.3333333,0,0,-1.3333333,9.1026667,155.30933)" />
    <path
       id="path34"
       d="m 2.3547813,0.11592187 c 1.171875,0 2.1210937,-0.6796875 2.1210937,-1.81640627 0,-0.8789062 -0.6210937,-1.453125 -1.3945312,-1.640625 v -0.035156 c 0.6914062,-0.2460938 1.171875,-0.7382813 1.171875,-1.5234375 0,-1.0195313 -0.8085938,-1.6054688 -1.921875,-1.6054688 -0.75,0 -1.33593755,0.3398438 -1.82812505,0.796875 l 0.43359375,0.515625 c 0.375,-0.3867187 0.8320313,-0.65625 1.3710938,-0.65625 0.6914062,0 1.1015625,0.3984375 1.1015625,1.0195313 0,0.6679687 -0.4570313,1.1835937 -1.8164063,1.1835937 v 0.6445313 c 1.5234375,0 2.0507813,0.5039062 2.0507813,1.265625 0,0.7265625 -0.5507813,1.17187497 -1.3359375,1.17187497 -0.75,0 -1.2421875,-0.36328125 -1.6289063,-0.74999997 l -0.421875,0.52734372 c 0.43359375,0.46875 1.078125,0.90234375 2.0976563,0.90234355 z m 0,0"
       style="fill:#000000;fill-opacity:1;fill-rule:nonzero;stroke:none"
       aria-label="3"
       transform="matrix(1.3333333,0,0,1.3333333,189.09467,159.572)" />
    <path
       id="path35"
       d="m 90.70969,-53.85875 c 0,7.82785 -6.34555,14.1734 -14.1734,14.1734 -7.82785,0 -14.17341,-6.34555 -14.17341,-14.1734 0,-7.82785 6.34556,-14.1734 14.17341,-14.1734 7.82785,0 14.1734,6.34555 14.1734,14.1734 z"
       style="fill:#ffffff;fill-opacity:1;fill-rule:nonzero;stroke:#666666;stroke-width:0.54794;stroke-linecap:butt;stroke-linejoin:miter;stroke-miterlimit:10;stroke-dasharray:none;stroke-opacity:1"
       transform="matrix(1.3333333,0,0,-1.3333333,9.1026667,155.30933)" />
    <path
       id="path36"
       d="M 3.0458984,1.09375e-4 H 3.8193359 V -1.7694219 h 0.8789063 v -0.65625 H 3.8193359 V -6.3866094 H 2.9169922 l -2.74218751,4.078125 v 0.5390625 H 3.0458984 Z m 0,-2.425781275 h -2.015625 l 1.5,-2.1796875 c 0.1875,-0.328125 0.3632813,-0.5976562 0.5273438,-0.9023437 h 0.035156 c -0.023437,0.328125 -0.046875,0.890625 -0.046875,1.21875 z m 0,0"
       style="fill:#000000;fill-opacity:1;fill-rule:nonzero;stroke:none"
       aria-label="4"
       transform="matrix(1.3333333,0,0,1.3333333,107.83333,231.38267)" />
    <path
       id="path37"
       d="m 90.70969,44.788 c 0,7.82784 -6.34555,14.1734 -14.1734,14.1734 -7.82785,0 -14.17341,-6.34556 -14.17341,-14.1734 0,-7.82784 6.34556,-14.17339 14.17341,-14.17339 7.82785,0 14.1734,6.34555 14.1734,14.17339 z"
       style="fill:#ffffff;fill-opacity:1;fill-rule:nonzero;stroke:#666666;stroke-width:0.54794;stroke-linecap:butt;stroke-linejoin:miter;stroke-miterlimit:10;stroke-dasharray:none;stroke-opacity:1"
       transform="matrix(1.3333333,0,0,-1.3333333,9.1026667,155.30933)" />
    <path
       id="path38"
       d="m 2.3427734,0.11819531 c 1.1132813,0 2.15625,-0.78515625 2.15625,-2.15625001 0,-1.3828125 -0.890625,-2.0039062 -1.9804687,-2.0039062 -0.3984375,0 -0.6914063,0.09375 -0.984375,0.2578125 l 0.1640625,-1.8984375 h 2.4726562 v -0.703125 H 0.98339844 l -0.2109375,3.0703125 0.43359376,0.28125 c 0.375,-0.2578125 0.65625,-0.3984375 1.1015625,-0.3984375 0.8203125,0 1.359375,0.5273437 1.359375,1.4179687 0,0.890625 -0.6210938,1.45312501 -1.3945313,1.45312501 -0.7617187,0 -1.2539062,-0.3515625 -1.61718746,-0.72656251 l -0.41015625,0.53906251 c 0.4453125,0.43359375 1.06640621,0.8671875 2.09765621,0.8671875 z m 0,0"
       style="fill:#000000;fill-opacity:1;fill-rule:nonzero;stroke:none"
       aria-label="5"
       transform="matrix(1.3333333,0,0,1.3333333,107.83333,99.776)" />
    <path
       id="path39"
       d="m 188.50609,-70.29189 v 176.58434 c 0,1.10048 0.89209,1.99255 1.99255,1.99255 h 225.62424 c 1.10048,0 1.99255,-0.89207 1.99255,-1.99255 V -70.29189 c 0,-1.10047 -0.89207,-1.99255 -1.99255,-1.99255 H 190.49864 c -1.10046,0 -1.99255,0.89208 -1.99255,1.99255 z"
       style="fill:#fcfcfc;fill-opacity:1;fill-rule:nonzero;stroke:#c7c7c7;stroke-width:0.44832;stroke-linecap:butt;stroke-linejoin:miter;stroke-miterlimit:10;stroke-dasharray:none;stroke-opacity:1"
       transform="matrix(1.3333333,0,0,-1.3333333,9.1026667,155.30933)" />
    <path
       id="path40"
       d="m 4.6042891,-0.34039844 c 0,-0.328125 -0.2695313,-0.328125 -0.421875,-0.328125 H 3.8660078 V -5.0513359 c 0,-0.3164063 -0.070312,-0.421875 -0.421875,-0.421875 H 2.7996016 c -0.1640625,0 -0.421875,0 -0.421875,0.3398437 0,0.3164063 0.2695312,0.328125 0.421875,0.328125 h 0.3164062 v 1.1601563 c -0.2695312,-0.1992188 -0.609375,-0.3046875 -0.9492187,-0.3046875 -0.984375,0 -1.86328129,0.84375 -1.86328129,2.0039062 0,1.12500001 0.82031249,2.00390626 1.78124999,2.00390626 0.4453125,0 0.7851563,-0.1875 1.03125,-0.41015625 0.023437,0.2578125 0.070312,0.3515625025 0.421875,0.3515625025 h 0.6328125 c 0.1757813,0 0.4335938,-0.0117187525 0.4335938,-0.3398437525 z m -1.5,-1.42968746 c 0,0.4570312 -0.3632813,1.14843746 -0.984375,1.14843746 -0.5976563,0 -1.078125,-0.58593746 -1.078125,-1.32421876 0,-0.796875 0.5742187,-1.3359375 1.1484375,-1.3359375 0.5273437,0 0.9140625,0.4453125 0.9140625,0.9023438 z m 5.7041015,1.44140621 c 0,-0.33984375 -0.2695312,-0.33984375 -0.421875,-0.33984375 h -0.84375 V -3.4810234 c 0,-0.3164063 -0.070312,-0.4335938 -0.421875,-0.4335938 H 5.8787031 c -0.1640625,0 -0.4335937,0.023437 -0.4335937,0.3398438 0,0.328125 0.2695312,0.3398437 0.4335937,0.3398437 h 0.9140625 v 2.56640626 h -0.984375 c -0.1640625,0 -0.4335937,0 -0.4335937,0.33984375 0,0.31640625 0.2695312,0.3281250025 0.4335937,0.3281250025 h 2.578125 c 0.1523438,0 0.421875,-0.0117187525 0.421875,-0.3281250025 z M 7.5779219,-4.9341484 c 0,-0.2695313 -0.2226563,-0.5039063 -0.515625,-0.5039063 -0.28125,0 -0.5039063,0.234375 -0.5039063,0.5039063 0,0.2929687 0.2226563,0.515625 0.5039063,0.515625 0.2929687,0 0.515625,-0.2226563 0.515625,-0.515625 z m 5.9736331,3.7734375 c 0,-0.9609375 -1.171875,-1.1601563 -1.464844,-1.2070313 l -0.902344,-0.1640625 c -0.234375,-0.046875 -0.480469,-0.1523437 -0.480469,-0.3515625 0,-0.2109375 0.28125,-0.421875 1.042969,-0.421875 0.65625,0 0.773438,0.2109375 0.808594,0.421875 0.01172,0.1757813 0.03516,0.3515625 0.363281,0.3515625 0.363281,0 0.375,-0.2109375 0.375,-0.421875 v -0.609375 c 0,-0.1640625 -0.01172,-0.421875 -0.328125,-0.421875 -0.199219,0 -0.269531,0.082031 -0.304687,0.1523438 -0.375,-0.1523438 -0.738282,-0.1523438 -0.902344,-0.1523438 -1.523438,0 -1.722656,0.7734375 -1.722656,1.1015625 0,0.84375 0.9375,1.0195313 1.78125,1.1484375 0.398437,0.058594 1.066406,0.1640625 1.066406,0.5742188 0,0.30468746 -0.316406,0.53906246 -1.042969,0.53906246 -0.386719,0 -0.84375,-0.0820313 -1.054687,-0.72656246 -0.05859,-0.1992188 -0.09375,-0.3046875 -0.375,-0.3046875 -0.363282,0 -0.375,0.2226562 -0.375,0.4335937 v 0.84375001 c 0,0.1640625 0.01172,0.43359375 0.328125,0.43359375 0.09375,0 0.246093,0 0.363281,-0.3046875 0.421875,0.28125 0.855469,0.3046875 1.101562,0.3046875 1.441407,0 1.722657,-0.78515625 1.722657,-1.21874996 z m 4.614258,-0.011719 c 0,-0.1875 0,-0.4101562 -0.375,-0.4101562 -0.351563,0 -0.363282,0.2226562 -0.363282,0.3984375 0,0.48046871 -0.457031,0.56249996 -0.644531,0.56249996 -0.597656,0 -0.597656,-0.41015626 -0.597656,-0.59765626 v -2.015625 h 1.359375 c 0.164062,0 0.421875,-0.011719 0.421875,-0.328125 0,-0.3398437 -0.246094,-0.3515625 -0.421875,-0.3515625 h -1.359375 v -0.6445312 c 0,-0.1875 -0.01172,-0.421875 -0.363281,-0.421875 -0.375,0 -0.386719,0.2226562 -0.386719,0.421875 v 0.6445312 h -0.679688 c -0.175781,0 -0.421875,0.023437 -0.421875,0.3515625 0,0.3164063 0.246094,0.328125 0.410157,0.328125 h 0.691406 v 2.0625 c 0,0.89062501 0.632812,1.23046876 1.3125,1.23046876 0.679687,0 1.417969,-0.41015625 1.417969,-1.23046876 z m 0,0"
       style="fill:#000000;fill-opacity:1;fill-rule:nonzero;stroke:none"
       aria-label="dist"
       transform="matrix(1.3333333,0,0,1.3333333,279.12267,32.309333)" />
    <path
       id="path41"
       d="M 0.60894531,-0.00133594 H 3.4214453 v -0.52734375 h -1.03125 V -4.9700859 H 1.8980078 c -0.2695312,0.1640625 -0.5976562,0.28125 -1.05468749,0.3632812 v 0.4101563 H 1.7573828 v 3.66796871 H 0.60894531 Z m 0,0"
       style="fill:#5c5c5c;fill-opacity:1;fill-rule:nonzero;stroke:none"
       aria-label="1"
       transform="matrix(1.3333333,0,0,1.3333333,290.74667,56.576)" />
    <path
       id="path42"
       d="M 0.30485938,5.390625e-4 H 3.5157969 V -0.55024219 H 2.0743906 c -0.2578125,0 -0.5625,0.0234375 -0.8320312,0.046875 1.171875,-1.23046871 2.0390625,-2.16796871 2.0390625,-3.10546871 0,-0.8789063 -0.5859375,-1.453125 -1.5,-1.453125 -0.6445313,0 -1.08984377,0.2929687 -1.50000002,0.75 l 0.36328125,0.3632812 c 0.29296875,-0.328125 0.64453127,-0.5976562 1.06640627,-0.5976562 0.6328125,0 0.9375,0.4101562 0.9375,0.9726562 0,0.8085938 -0.84375,1.7109375 -2.34375002,3.19921876 z m 0,0"
       style="fill:#5c5c5c;fill-opacity:1;fill-rule:nonzero;stroke:none"
       aria-label="2"
       transform="matrix(1.3333333,0,0,1.3333333,336.10133,56.636)" />
    <path
       id="path43"
       d="m 1.8288984,0.09241406 c 0.9140625,0 1.6523438,-0.52734375 1.6523438,-1.41796876 0,-0.6796875 -0.4804688,-1.125 -1.078125,-1.265625 v -0.035156 c 0.5273437,-0.1875 0.9023437,-0.5742188 0.9023437,-1.1835938 0,-0.796875 -0.6328125,-1.2539062 -1.4882812,-1.2539062 -0.5859375,0 -1.04296876,0.2695312 -1.42968751,0.6210937 l 0.33984375,0.3984375 C 1.0203047,-4.3372734 1.3835859,-4.5482109 1.7937422,-4.5482109 c 0.5390625,0 0.8671875,0.3046875 0.8671875,0.7851562 0,0.5273438 -0.3632813,0.9257813 -1.4179688,0.9257813 v 0.5039062 c 1.1835938,0 1.59375,0.3867188 1.59375,0.984375 0,0.56250001 -0.4335937,0.91406251 -1.0429687,0.91406251 -0.5742188,0 -0.96093751,-0.28125 -1.26562501,-0.58593751 l -0.328125,0.41015626 c 0.33984375,0.36328125 0.84375001,0.703125 1.62890621,0.703125 z m 0,0"
       style="fill:#5c5c5c;fill-opacity:1;fill-rule:nonzero;stroke:none"
       aria-label="3"
       transform="matrix(1.3333333,0,0,1.3333333,381.456,56.576)" />
    <path
       id="path44"
       d="M 2.3685625,-0.00133594 H 2.9662188 V -1.3724297 H 3.657625 v -0.515625 H 2.9662188 V -4.9700859 H 2.2630938 L 0.142,-1.7943047 v 0.421875 h 2.2265625 z m 0,-1.88671876 H 0.79825 l 1.171875,-1.6992187 c 0.140625,-0.2460938 0.28125,-0.46875 0.4101563,-0.703125 h 0.023437 c -0.011719,0.2578125 -0.035156,0.703125 -0.035156,0.9492187 z m 0,0"
       style="fill:#5c5c5c;fill-opacity:1;fill-rule:nonzero;stroke:none"
       aria-label="4"
       transform="matrix(1.3333333,0,0,1.3333333,426.81067,56.576)" />
    <path
       id="path45"
       d="m 1.8271719,0.09346875 c 0.8554687,0 1.6757812,-0.609375 1.6757812,-1.68750005 0,-1.0664062 -0.703125,-1.546875 -1.546875,-1.546875 -0.3046875,0 -0.5390625,0.070312 -0.7617187,0.1992188 L 1.3232656,-4.41825 h 1.921875 V -4.9690313 H 0.76076563 l -0.1640625,2.390625 0.33984375,0.2109375 c 0.29296872,-0.1875 0.51562502,-0.3046875 0.85546872,-0.3046875 0.6445313,0 1.0546875,0.4101563 1.0546875,1.1015625 0,0.6914063 -0.4804687,1.1367188 -1.078125,1.1367188 -0.5976562,0 -0.97265622,-0.28125 -1.26562497,-0.5742188 l -0.31640625,0.42187505 c 0.3515625,0.33984375 0.83203122,0.6796875 1.64062502,0.6796875 z m 0,0"
       style="fill:#5c5c5c;fill-opacity:1;fill-rule:nonzero;stroke:none"
       aria-label="5"
       transform="matrix(1.3333333,0,0,1.3333333,472.16533,56.516)" />
    <path
       id="path46"
       d="m 196.16005,45.35498 h 34.01616 v 25.5121 h -34.01616 z"
       style="fill:#ffffff;fill-opacity:1;fill-rule:nonzero;stroke:#6b6b6b;stroke-width:0.49814;stroke-linecap:butt;stroke-linejoin:miter;stroke-miterlimit:10;stroke-dasharray:none;stroke-opacity:1"
       transform="matrix(1.3333333,0,0,-1.3333333,9.1026667,155.30933)" />
    <path
       id="path47"
       d="m 4.2416172,-2.8713281 c 0,-0.5976563 -0.023437,-1.3710938 -0.3398438,-2.0390625 -0.3984375,-0.84375 -1.078125,-1.0546875 -1.59375,-1.0546875 -0.5390625,0 -1.21875,0.2109375 -1.61718746,1.0664062 -0.29296875,0.6210938 -0.328125,1.3476563 -0.328125,2.0273438 0,0.5859375 0.0117188,1.453125 0.3984375,2.16796872 0.42187496,0.76171875 1.12499996,0.90234375 1.53515626,0.90234375 0.5859375,0 1.2421875,-0.2578125 1.6171875,-1.078125 0.2695312,-0.59765627 0.328125,-1.27734377 0.328125,-1.99218747 z m -1.9335938,2.84765622 c -0.2695312,0 -0.9140625,-0.12890625 -1.0898437,-1.13671872 -0.09375,-0.5390625 -0.09375,-1.3007813 -0.09375,-1.8164063 0,-0.609375 0,-1.3125 0.1171875,-1.8164062 0.1757812,-0.796875 0.75,-0.9492188 1.0546875,-0.9492188 0.3398437,0 0.9023437,0.1757813 1.078125,1.0078125 0.09375,0.4921875 0.09375,1.1953125 0.09375,1.7578125 0,0.5507813 0,1.3125 -0.09375,1.8398438 -0.1875,1.01953122 -0.84375,1.11328122 -1.0664063,1.11328122 z m 0,0"
       style="fill:#000000;fill-opacity:1;fill-rule:nonzero;stroke:none"
       aria-label="0"
       transform="matrix(1.3333333,0,0,1.3333333,290.25467,81.68)" />
    <path
       id="path48"
       d="m 230.17613,45.35498 h 34.01616 v 25.5121 h -34.01616 z"
       style="fill:#ffffff;fill-opacity:1;fill-rule:nonzero;stroke:#6b6b6b;stroke-width:0.49814;stroke-linecap:butt;stroke-linejoin:miter;stroke-miterlimit:10;stroke-dasharray:none;stroke-opacity:1"
       transform="matrix(1.3333333,0,0,-1.3333333,9.1026667,155.30933)" />
    <path
       id="path49"
       d="m 4.6770781,-2.4484609 c -0.421875,-0.5390625 -0.5742187,-0.7265625 -0.9140625,-0.9726563 -0.609375,-0.46875 -1.1484375,-0.5390625 -1.4765625,-0.5390625 -1.0546875,0 -1.76953122,0.9726563 -1.76953122,2.0390625 0,1.03125001 0.69140622,2.01562501 1.74609372,2.01562501 1.2070313,0 1.9570313,-1.0546875 2.2734375,-1.51171871 0.421875,0.53906246 0.5742188,0.72656246 0.9023438,0.98437496 0.609375,0.45703125 1.1484375,0.52734375 1.4882812,0.52734375 1.0546875,0 1.7695313,-0.97265625 1.7695313,-2.02734371 0,-1.03125 -0.6914063,-2.0273438 -1.7460938,-2.0273438 -1.2070312,0 -1.96875,1.0546875 -2.2734375,1.5117188 z m 0.2578125,0.328125 c 0.4101563,-0.7148438 1.1132813,-1.5234375 2.0742188,-1.5234375 0.9492187,0 1.4648437,0.890625 1.4648437,1.7109375 0,0.9023437 -0.6679687,1.57031246 -1.40625,1.57031246 -0.75,0 -1.2304687,-0.609375 -2.1328125,-1.75781246 z m -0.65625,0.3867187 c -0.4101562,0.703125 -1.1132812,1.52343751 -2.0859375,1.52343751 -0.9375,0 -1.45312497,-0.90234371 -1.45312497,-1.71093751 0,-0.9140625 0.65624997,-1.5820312 1.40624997,-1.5820312 0.75,0 1.2304688,0.609375 2.1328125,1.7695312 z m 0,0"
       style="fill:#000000;fill-opacity:1;fill-rule:nonzero;stroke:none"
       aria-label="∞"
       transform="matrix(1.3333333,0,0,1.3333333,332.53733,80.401333)" />
    <path
       id="path50"
       d="m 264.19221,45.35498 h 34.01616 v 25.5121 h -34.01616 z"
       style="fill:#ffffff;fill-opacity:1;fill-rule:nonzero;stroke:#6b6b6b;stroke-width:0.49814;stroke-linecap:butt;stroke-linejoin:miter;stroke-miterlimit:10;stroke-dasharray:none;stroke-opacity:1"
       transform="matrix(1.3333333,0,0,-1.3333333,9.1026667,155.30933)" />
    <path
       id="path51"
       d="m 4.6766797,-2.4484609 c -0.421875,-0.5390625 -0.5742188,-0.7265625 -0.9140625,-0.9726563 -0.609375,-0.46875 -1.1484375,-0.5390625 -1.4765625,-0.5390625 -1.0546875,0 -1.76953126,0.9726563 -1.76953126,2.0390625 0,1.03125001 0.69140626,2.01562501 1.74609376,2.01562501 1.2070312,0 1.9570312,-1.0546875 2.2734375,-1.51171871 0.421875,0.53906246 0.5742187,0.72656246 0.9023437,0.98437496 0.609375,0.45703125 1.1484375,0.52734375 1.4882813,0.52734375 1.0546875,0 1.7695312,-0.97265625 1.7695312,-2.02734371 0,-1.03125 -0.6914062,-2.0273438 -1.7460937,-2.0273438 -1.2070313,0 -1.96875,1.0546875 -2.2734375,1.5117188 z m 0.2578125,0.328125 c 0.4101562,-0.7148438 1.1132812,-1.5234375 2.0742187,-1.5234375 0.9492188,0 1.4648438,0.890625 1.4648438,1.7109375 0,0.9023437 -0.6679688,1.57031246 -1.40625,1.57031246 -0.75,0 -1.2304688,-0.609375 -2.1328125,-1.75781246 z m -0.65625,0.3867187 c -0.4101563,0.703125 -1.1132813,1.52343751 -2.0859375,1.52343751 -0.9375,0 -1.45312501,-0.90234371 -1.45312501,-1.71093751 0,-0.9140625 0.65625001,-1.5820312 1.40625001,-1.5820312 0.75,0 1.2304687,0.609375 2.1328125,1.7695312 z m 0,0"
       style="fill:#000000;fill-opacity:1;fill-rule:nonzero;stroke:none"
       aria-label="∞"
       transform="matrix(1.3333333,0,0,1.3333333,377.89333,80.401333)" />
    <path
       id="path52"
       d="m 298.2083,45.35498 h 34.01616 v 25.5121 H 298.2083 Z"
       style="fill:#ffffff;fill-opacity:1;fill-rule:nonzero;stroke:#6b6b6b;stroke-width:0.49814;stroke-linecap:butt;stroke-linejoin:miter;stroke-miterlimit:10;stroke-dasharray:none;stroke-opacity:1"
       transform="matrix(1.3333333,0,0,-1.3333333,9.1026667,155.30933)" />
    <path
       id="path53"
       d="m 4.6743516,-2.4484609 c -0.421875,-0.5390625 -0.5742188,-0.7265625 -0.9140625,-0.9726563 -0.609375,-0.46875 -1.1484375,-0.5390625 -1.4765625,-0.5390625 -1.0546875,0 -1.76953129,0.9726563 -1.76953129,2.0390625 0,1.03125001 0.69140629,2.01562501 1.74609379,2.01562501 1.2070312,0 1.9570312,-1.0546875 2.2734375,-1.51171871 0.421875,0.53906246 0.5742187,0.72656246 0.9023437,0.98437496 0.609375,0.45703125 1.1484375,0.52734375 1.4882813,0.52734375 1.0546875,0 1.7695312,-0.97265625 1.7695312,-2.02734371 0,-1.03125 -0.6914062,-2.0273438 -1.7460937,-2.0273438 -1.2070313,0 -1.96875,1.0546875 -2.2734375,1.5117188 z m 0.2578125,0.328125 c 0.4101562,-0.7148438 1.1132812,-1.5234375 2.0742187,-1.5234375 0.9492188,0 1.4648438,0.890625 1.4648438,1.7109375 0,0.9023437 -0.6679688,1.57031246 -1.40625,1.57031246 -0.75,0 -1.2304688,-0.609375 -2.1328125,-1.75781246 z m -0.65625,0.3867187 c -0.4101563,0.703125 -1.1132813,1.52343751 -2.0859375,1.52343751 -0.9375,0 -1.45312504,-0.90234371 -1.45312504,-1.71093751 0,-0.9140625 0.65625004,-1.5820312 1.40625004,-1.5820312 0.75,0 1.2304687,0.609375 2.1328125,1.7695312 z m 0,0"
       style="fill:#000000;fill-opacity:1;fill-rule:nonzero;stroke:none"
       aria-label="∞"
       transform="matrix(1.3333333,0,0,1.3333333,423.248,80.401333)" />
    <path
       id="path54"
       d="m 332.22481,45.35498 h 34.01616 v 25.5121 h -34.01616 z"
       style="fill:#ffffff;fill-opacity:1;fill-rule:nonzero;stroke:#6b6b6b;stroke-width:0.49814;stroke-linecap:butt;stroke-linejoin:miter;stroke-miterlimit:10;stroke-dasharray:none;stroke-opacity:1"
       transform="matrix(1.3333333,0,0,-1.3333333,9.1026667,155.30933)" />
    <path
       id="path55"
       d="m 4.6749531,-2.4484609 c -0.421875,-0.5390625 -0.5742187,-0.7265625 -0.9140625,-0.9726563 -0.609375,-0.46875 -1.1484375,-0.5390625 -1.4765625,-0.5390625 -1.0546875,0 -1.76953122,0.9726563 -1.76953122,2.0390625 0,1.03125001 0.69140622,2.01562501 1.74609372,2.01562501 1.2070313,0 1.9570313,-1.0546875 2.2734375,-1.51171871 0.421875,0.53906246 0.5742188,0.72656246 0.9023438,0.98437496 0.609375,0.45703125 1.1484375,0.52734375 1.4882812,0.52734375 1.0546875,0 1.7695313,-0.97265625 1.7695313,-2.02734371 0,-1.03125 -0.6914063,-2.0273438 -1.7460938,-2.0273438 -1.2070312,0 -1.96875,1.0546875 -2.2734375,1.5117188 z m 0.2578125,0.328125 c 0.4101563,-0.7148438 1.1132813,-1.5234375 2.0742188,-1.5234375 0.9492187,0 1.4648437,0.890625 1.4648437,1.7109375 0,0.9023437 -0.6679687,1.57031246 -1.40625,1.57031246 -0.75,0 -1.2304687,-0.609375 -2.1328125,-1.75781246 z m -0.65625,0.3867187 c -0.4101562,0.703125 -1.1132812,1.52343751 -2.0859375,1.52343751 -0.9375,0 -1.45312497,-0.90234371 -1.45312497,-1.71093751 0,-0.9140625 0.65624997,-1.5820312 1.40624997,-1.5820312 0.75,0 1.2304688,0.609375 2.1328125,1.7695312 z m 0,0"
       style="fill:#000000;fill-opacity:1;fill-rule:nonzero;stroke:none"
       aria-label="∞"
       transform="matrix(1.3333333,0,0,1.3333333,468.60267,80.401333)" />
    <path
       id="path56"
       d="m 4.3933516,-1.9561719 c 0,-1.1132812 -0.8203125,-1.9921875 -1.78125,-1.9921875 -0.3867188,0 -0.75,0.1171875 -1.0429688,0.3398438 -0.011719,-0.1992188 -0.09375,-0.3046875 -0.4101562,-0.3046875 H 0.51444531 c -0.1640625,0 -0.421875,0.023437 -0.421875,0.3515625 0,0.3164062 0.26953125,0.328125 0.421875,0.328125 h 0.31640625 v 4.5 H 0.51444531 c -0.1640625,0 -0.421875,0.011719 -0.421875,0.3398437 0,0.3164063 0.26953125,0.328125 0.421875,0.328125 H 1.8972578 c 0.1523438,0 0.421875,-0.011719 0.421875,-0.328125 0,-0.328125 -0.2578125,-0.3398437 -0.4335937,-0.3398437 H 1.5808516 v -1.57031253 c 0.3398437,0.29296875 0.6796875,0.36328125 0.9375,0.36328125 0.984375,0 1.875,-0.8671875 1.875,-2.01562502 z m -0.7382813,0 c 0,0.796875 -0.5742187,1.33593752 -1.1601562,1.33593752 -0.6328125,0 -0.9140625,-0.72656252 -0.9140625,-1.11328122 v -0.6445313 c 0,-0.4804687 0.4804687,-0.9023437 0.9960937,-0.9023437 0.609375,0 1.078125,0.609375 1.078125,1.3242187 z m 5.4345703,-1.3828125 c 0,-0.1992187 -0.1054687,-0.609375 -0.890625,-0.609375 -0.4335937,0 -0.9609375,0.1289063 -1.4179687,0.5976563 v -0.1289063 c 0,-0.3164062 -0.070312,-0.4335937 -0.421875,-0.4335937 H 5.3982344 c -0.1640625,0 -0.421875,0.023437 -0.421875,0.3398437 0,0.328125 0.2460937,0.3398438 0.421875,0.3398438 h 0.6328125 v 2.56640622 H 5.3982344 c -0.1640625,0 -0.421875,0 -0.421875,0.328125 0,0.328125 0.2460937,0.339843755 0.421875,0.339843755 h 2.2734375 c 0.1640625,0 0.4335937,-0.011718755 0.4335937,-0.328125005 0,-0.33984375 -0.2695312,-0.33984375 -0.4335937,-0.33984375 H 6.7810469 V -1.6983594 c 0,-0.7617187 0.4570312,-1.5585937 1.4296875,-1.5820312 0,0.2109375 0.2109375,0.375 0.4453125,0.375 0.2226562,0 0.4335937,-0.1640625 0.4335937,-0.4335938 z m 4.4267574,3.01171877 c 0,-0.33984375 -0.269531,-0.33984375 -0.421875,-0.33984375 h -0.84375 V -3.4796094 c 0,-0.3164062 -0.07031,-0.4335937 -0.421875,-0.4335937 h -1.242187 c -0.164063,0 -0.433594,0.023437 -0.433594,0.3398437 0,0.328125 0.269531,0.3398438 0.433594,0.3398438 h 0.914062 v 2.56640622 h -0.984375 c -0.164062,0 -0.433593,0 -0.433593,0.33984375 0,0.31640625 0.269531,0.328125005 0.433593,0.328125005 h 2.578125 c 0.152344,0 0.421875,-0.011718755 0.421875,-0.328125005 z M 12.28593,-4.9327344 c 0,-0.2695312 -0.222657,-0.5039062 -0.515625,-0.5039062 -0.28125,0 -0.503907,0.234375 -0.503907,0.5039062 0,0.2929688 0.222657,0.515625 0.503907,0.515625 0.292968,0 0.515625,-0.2226562 0.515625,-0.515625 z m 6.055664,2.9765625 c 0,-1.1367187 -0.855469,-2.0273437 -1.875,-2.0273437 -1.007813,0 -1.863281,0.890625 -1.863281,2.0273437 0,1.14843752 0.878906,2.01562502 1.863281,2.01562502 0.996094,0 1.875,-0.87890625 1.875,-2.01562502 z m -0.75,-0.058594 c 0,0.7734375 -0.515625,1.39453122 -1.125,1.39453122 -0.609375,0 -1.113281,-0.62109372 -1.113281,-1.39453122 0,-0.75 0.539062,-1.2890625 1.113281,-1.2890625 0.597656,0 1.125,0.5390625 1.125,1.2890625 z m 5.62207,-1.3242188 c 0,-0.1992187 -0.105469,-0.609375 -0.890625,-0.609375 -0.433594,0 -0.960937,0.1289063 -1.417969,0.5976563 v -0.1289063 c 0,-0.3164062 -0.07031,-0.4335937 -0.421875,-0.4335937 h -0.960937 c -0.164063,0 -0.421875,0.023437 -0.421875,0.3398437 0,0.328125 0.246094,0.3398438 0.421875,0.3398438 h 0.632812 v 2.56640622 h -0.632812 c -0.164063,0 -0.421875,0 -0.421875,0.328125 0,0.328125 0.246094,0.339843755 0.421875,0.339843755 h 2.273437 c 0.164063,0 0.433594,-0.011718755 0.433594,-0.328125005 0,-0.33984375 -0.269531,-0.33984375 -0.433594,-0.33984375 H 20.90507 V -1.6983594 c 0,-0.7617187 0.457032,-1.5585937 1.429688,-1.5820312 0,0.2109375 0.210937,0.375 0.445312,0.375 0.222657,0 0.433594,-0.1640625 0.433594,-0.4335941 z m 4.423828,3.01171877 c 0,-0.33984375 -0.269531,-0.33984375 -0.421875,-0.33984375 h -0.84375 V -3.4796094 c 0,-0.3164062 -0.07031,-0.4335937 -0.421875,-0.4335937 h -1.242187 c -0.164063,0 -0.433594,0.023437 -0.433594,0.3398437 0,0.328125 0.269531,0.3398438 0.433594,0.3398438 h 0.914062 v 2.56640622 h -0.984375 c -0.164062,0 -0.433594,0 -0.433594,0.33984375 0,0.31640625 0.269532,0.328125005 0.433594,0.328125005 h 2.578125 c 0.152344,0 0.421875,-0.011718755 0.421875,-0.328125305 z M 26.407023,-4.9327344 c 0,-0.2695312 -0.222656,-0.5039062 -0.515625,-0.5039062 -0.28125,0 -0.503906,0.234375 -0.503906,0.5039062 0,0.2929688 0.222656,0.515625 0.503906,0.515625 0.292969,0 0.515625,-0.2226562 0.515625,-0.515625 z m 5.879883,3.7617188 c 0,-0.1875 0,-0.4101563 -0.375,-0.4101563 -0.351562,0 -0.363281,0.2226563 -0.363281,0.3984375 0,0.48046877 -0.457031,0.56250002 -0.644531,0.56250002 -0.597656,0 -0.597656,-0.41015622 -0.597656,-0.59765622 v -2.015625 h 1.359375 c 0.164062,0 0.421875,-0.011719 0.421875,-0.328125 0,-0.3398438 -0.246094,-0.3515625 -0.421875,-0.3515625 h -1.359375 v -0.6445313 c 0,-0.1875 -0.01172,-0.421875 -0.363282,-0.421875 -0.375,0 -0.386718,0.2226563 -0.386718,0.421875 v 0.6445313 H 28.87675 c -0.175781,0 -0.421875,0.023437 -0.421875,0.3515625 0,0.3164062 0.246094,0.328125 0.410156,0.328125 h 0.691407 v 2.0625 c 0,0.89062497 0.632812,1.23046872 1.3125,1.23046872 0.679687,0 1.417968,-0.41015625 1.417968,-1.23046872 z m 5.165039,-2.390625 c 0,-0.3398438 -0.246093,-0.3515625 -0.421875,-0.3515625 h -1.019531 c -0.164062,0 -0.421875,0.023437 -0.421875,0.3398437 0,0.328125 0.246094,0.3398438 0.421875,0.3398438 h 0.140625 L 35.377727,-0.88976563 34.49882,-3.2335156 h 0.117188 c 0.152344,0 0.410156,-0.011719 0.410156,-0.328125 0,-0.3398438 -0.246094,-0.3515625 -0.410156,-0.3515625 h -1.03125 c -0.164063,0 -0.421875,0.011719 -0.421875,0.3515625 0,0.3164062 0.269531,0.328125 0.421875,0.328125 h 0.222656 l 1.265625,3.16406247 c -0.04687,0.09375 -0.234375,0.7265625 -0.328125,0.92578125 -0.175781,0.33984378 -0.457031,0.53906248 -0.632812,0.53906248 0.01172,-0.035156 0.105468,-0.058594 0.105468,-0.1875 0,-0.26953123 -0.1875,-0.45703123 -0.445312,-0.45703123 -0.28125,0 -0.457031,0.1875 -0.457031,0.45703123 0,0.3984375 0.328125,0.7851563 0.796875,0.7851563 0.890625,0 1.335937,-1.19531253 1.371093,-1.28906253 l 1.335938,-3.93749997 h 0.210937 c 0.164063,0 0.421875,-0.011719 0.421875,-0.328125 z m 4.426758,4.6171875 c 0,-0.37500003 -0.351562,-0.38671878 -0.480469,-0.38671878 h -2.777343 c -0.128907,0 -0.480469,0.0117188 -0.480469,0.38671878 0,0.3632812 0.351562,0.375 0.480469,0.375 h 2.777343 c 0.128907,0 0.480469,-0.011719 0.480469,-0.375 z m 5.314453,0.5507812 c 0,-0.328125 -0.246093,-0.3398437 -0.421875,-0.3398437 h -0.351562 v -4.7929688 c 0,-0.1992187 -0.01172,-0.421875 -0.375,-0.421875 -0.304688,0 -0.363281,0.1054688 -0.375,0.3867188 -0.234375,-0.2226563 -0.574219,-0.3867188 -1.019531,-0.3867188 -1.007813,0 -1.933594,0.84375 -1.933594,2.0039063 0,1.12499997 0.855469,2.00390622 1.839844,2.00390622 0.515625,0 0.890625,-0.234375 1.113281,-0.43359375 V 1.2664844 h -0.351563 c -0.164062,0 -0.421875,0.011719 -0.421875,0.328125 0,0.328125 0.246094,0.3398437 0.421875,0.3398437 h 1.453125 c 0.164063,0 0.421875,-0.011719 0.421875,-0.328125 z m -1.523437,-3.375 c 0,0.46875 -0.410156,1.14843752 -1.078125,1.14843752 -0.609375,0 -1.148438,-0.58593752 -1.148438,-1.32421872 0,-0.7617188 0.585938,-1.3359375 1.242188,-1.3359375 0.609375,0 0.984375,0.6328125 0.984375,1.171875 z m 5.99707,1.42968752 c 0,-0.328125 -0.269531,-0.328125 -0.410156,-0.328125 H 50.940227 V -3.4796094 c 0,-0.3164062 -0.07031,-0.4335937 -0.421875,-0.4335937 H 49.87382 c -0.164062,0 -0.421875,0.023437 -0.421875,0.3515625 0,0.3164062 0.269532,0.328125 0.421875,0.328125 h 0.316407 v 1.7929687 c 0,0.72656252 -0.65625,0.82031252 -0.925782,0.82031252 -0.609375,0 -0.609375,-0.24609375 -0.609375,-0.50390622 v -2.3554688 c 0,-0.3164062 -0.07031,-0.4335937 -0.421875,-0.4335937 h -0.644531 c -0.164062,0 -0.421875,0.023437 -0.421875,0.3515625 0,0.3164062 0.269531,0.328125 0.421875,0.328125 h 0.316406 v 2.1679687 c 0,0.89062502 0.632813,1.12500002 1.324219,1.12500002 0.328125,0 0.667969,-0.08203125 0.972656,-0.28125 0.05859,0.2109375 0.246094,0.222656255 0.410157,0.222656255 h 0.632812 c 0.175781,0 0.421875,-0.011718755 0.421875,-0.339843755 z m 4.297852,-0.67968752 c 0,-0.3046875 -0.316407,-0.3164062 -0.375,-0.3164062 -0.199219,0 -0.28125,0.035156 -0.351563,0.234375 -0.1875,0.41015622 -0.621094,0.48046872 -0.84375,0.48046872 -0.609375,0 -1.207031,-0.38671872 -1.371094,-1.04296872 h 2.519532 c 0.222656,0 0.421875,0 0.421875,-0.3984375 0,-1.03125 -0.585938,-1.921875 -1.757813,-1.921875 -1.078125,0 -1.957031,0.9140625 -1.957031,2.015625 0,1.11328122 0.914062,2.02734372 2.074219,2.02734372 1.21875,0 1.640625,-0.84375 1.640625,-1.07812502 z m -0.773438,-1.3125 h -2.15625 c 0.140625,-0.5625 0.609375,-0.9726562 1.171875,-0.9726562 0.410156,0 0.890625,0.1992187 0.984375,0.9726562 z m 5.891602,1.99218752 c 0,-0.328125 -0.269532,-0.328125 -0.410157,-0.328125 H 60.356242 V -3.4796094 c 0,-0.3164062 -0.07031,-0.4335937 -0.421875,-0.4335937 h -0.644531 c -0.164063,0 -0.421875,0.023437 -0.421875,0.3515625 0,0.3164062 0.269531,0.328125 0.421875,0.328125 h 0.316406 v 1.7929687 c 0,0.72656252 -0.65625,0.82031252 -0.925781,0.82031252 -0.609375,0 -0.609375,-0.24609375 -0.609375,-0.50390622 v -2.3554688 c 0,-0.3164062 -0.07031,-0.4335937 -0.421875,-0.4335937 H 57.00468 c -0.164063,0 -0.421875,0.023437 -0.421875,0.3515625 0,0.3164062 0.269531,0.328125 0.421875,0.328125 h 0.316406 v 2.1679687 c 0,0.89062502 0.632812,1.12500002 1.324219,1.12500002 0.328125,0 0.667968,-0.08203125 0.972656,-0.28125 0.05859,0.2109375 0.246094,0.222656255 0.410156,0.222656255 h 0.632813 c 0.175781,0 0.421875,-0.011718755 0.421875,-0.339843755 z m 4.297851,-0.67968752 c 0,-0.3046875 -0.316406,-0.3164062 -0.375,-0.3164062 -0.199218,0 -0.28125,0.035156 -0.351562,0.234375 -0.1875,0.41015622 -0.621094,0.48046872 -0.84375,0.48046872 -0.609375,0 -1.207031,-0.38671872 -1.371094,-1.04296872 h 2.519531 c 0.222657,0 0.421875,0 0.421875,-0.3984375 0,-1.03125 -0.585937,-1.921875 -1.757812,-1.921875 -1.078125,0 -1.957031,0.9140625 -1.957031,2.015625 0,1.11328122 0.914062,2.02734372 2.074218,2.02734372 1.21875,0 1.640625,-0.84375 1.640625,-1.07812502 z m -0.773437,-1.3125 h -2.15625 c 0.140625,-0.5625 0.609375,-0.9726562 1.171875,-0.9726562 0.410156,0 0.890625,0.1992187 0.984375,0.9726562 z m 0,0"
       style="fill:#000000;fill-opacity:1;fill-rule:nonzero;stroke:none"
       aria-label="priority_queue"
       transform="matrix(1.3333333,0,0,1.3333333,279.12267,113.00667)" />
    <path
       id="path57"
       d="m 195.30948,-0.85045 h 70.86702 v 25.5121 h -70.86702 z"
       style="fill:#dbdbdb;fill-opacity:1;fill-rule:nonzero;stroke:#000000;stroke-width:0.84683;stroke-linecap:butt;stroke-linejoin:miter;stroke-miterlimit:10;stroke-dasharray:none;stroke-opacity:1"
       transform="matrix(1.3333333,0,0,-1.3333333,9.1026667,155.30933)" />
    <path
       id="path58"
       d="m 3.9133281,0.48089844 c 0,-0.15234375 -0.082031,-0.19921875 -0.1640625,-0.26953125 -1.1835937,-0.7734375 -1.5585937,-2.01562499 -1.5585937,-2.94140629 0,-0.6796875 0.1875,-1.265625 0.3867187,-1.6757812 0.3632813,-0.6796875 0.796875,-1.0429688 1.21875,-1.3242188 0.070312,-0.046875 0.1171875,-0.1289062 0.1171875,-0.2226562 0,-0.09375 -0.046875,-0.2695313 -0.2929687,-0.2695313 -0.2109375,0 -0.9609375,0.515625 -1.4648438,1.3007813 -0.46875,0.75 -0.6210937,1.546875 -0.6210937,2.1796875 0,0.5976562 0.1289062,1.453125 0.7148437,2.30859374 0.4335938,0.64453125 1.1484375,1.171875 1.3710938,1.171875 0.2460937,0 0.2929687,-0.17578125 0.2929687,-0.2578125 z M 8.9728984,-2.7300391 c 0,-1.6757812 -0.9140625,-2.8476562 -1.921875,-2.8476562 -1.0078125,0 -1.9101562,1.2070312 -1.9101562,2.8359375 0,1.6640625 0.9140625,2.83593749 1.9101562,2.83593749 1.0195313,0 1.921875,-1.19531249 1.921875,-2.82421879 z m -0.65625,-0.1054687 c 0,1.3007812 -0.5625,2.35546874 -1.265625,2.35546874 -0.6914062,0 -1.2539062,-1.06640624 -1.2539062,-2.35546874 0,-1.3007813 0.609375,-2.15625 1.2539062,-2.15625 0.65625,0 1.265625,0.8671875 1.265625,2.15625 z m 4.2041016,2.60156249 c 0,-0.515625 -0.328125,-0.90234379 -0.75,-0.90234379 -0.351562,0 -0.574219,0.26953129 -0.574219,0.56250004 0,0.328125 0.246094,0.5742187475 0.574219,0.5742187475 0.07031,0 0.128906,-0.0117187475 0.140625,-0.0234374975 -0.03516,0.19921875 -0.199219,0.5390625 -0.65625,0.69140625 -0.08203,0.0351563 -0.246094,0.0820313 -0.246094,0.28125 0,0.14062496 0.140625,0.29296876 0.304688,0.29296876 0.292969,0 1.207031,-0.46875001 1.207031,-1.47656251 z m 10.283203,-0.046875 c 0,-0.3046875 -0.222656,-0.3046875 -0.375,-0.3046875 H 21.632078 V -5.2026953 c 0,-0.1289063 0,-0.375 -0.28125,-0.375 -0.152344,0 -0.222656,0.082031 -0.28125,0.1992187 -0.28125,0.6328125 -0.632812,0.8671875 -0.996094,0.9023438 -0.128906,0 -0.328125,0.023437 -0.328125,0.2929687 0,0.1757813 0.09375,0.28125 0.316407,0.28125 0.351562,0 0.703125,-0.1875 0.914062,-0.3632812 v 3.67968749 h -0.796875 c -0.152344,0 -0.386719,0 -0.386719,0.3046875 0,0.2812499975 0.246094,0.2812499975 0.386719,0.2812499975 h 2.25 c 0.140625,0 0.375,0 0.375,-0.2812499975 z m 3.887695,-2.44921879 c 0,-0.609375 -0.128906,-1.453125 -0.714843,-2.3085937 -0.445313,-0.6445313 -1.136719,-1.1835938 -1.371094,-1.1835938 -0.257813,0 -0.292969,0.1992188 -0.292969,0.2695313 0,0.140625 0.08203,0.2109375 0.164063,0.2578125 1.183593,0.7851562 1.546875,2.015625 1.546875,2.953125 0,0.6796875 -0.1875,1.265625 -0.375,1.6640625 -0.363282,0.67968749 -0.808594,1.05468749 -1.230469,1.32421874 -0.07031,0.0585937 -0.105469,0.15234375 -0.105469,0.234375 0,0.0703125 0.04687,0.2578125 0.292969,0.2578125 0.199219,0 0.960937,-0.515625 1.453125,-1.2890625 0.480469,-0.75000004 0.632812,-1.54687504 0.632812,-2.17968754 z m 0,0"
       style="fill:#000000;fill-opacity:1;fill-rule:nonzero;stroke:none"
       aria-label="(0,1)"
       transform="matrix(1.3333333,0,0,1.3333333,297.93067,142.75333)" />
    <g
       id="g58"
       aria-label="시작정점의거리를0으로둔다."
       transform="matrix(1.3333333,0,0,1.3333333,279.12267,180.568)">
      <path
         id="path59"
         d="M 6.3386641,-7.4191641 V 0.70192969 H 7.0769453 V -7.4191641 Z m -3.7617188,0.703125 v 1.453125 c 0,1.546875 -0.9609375,3.09375 -2.17968749,3.65625 l 0.45703125,0.62109379 C 1.8152266,-1.4660391 2.5886641,-2.4855703 2.9636641,-3.7043203 c 0.375,1.1601562 1.1601562,2.109375 2.0742187,2.5546875 l 0.4453125,-0.5859375 c -1.1953125,-0.5507813 -2.15625,-2.0507813 -2.15625,-3.5273438 v -1.453125 z m 7.1367188,4.6171875 v 0.609375 H 14.24882 v 2.19140629 h 0.738282 V -2.0988516 Z M 8.8816328,-6.8449453 v 0.609375 h 1.8164062 v 0.3046875 c 0,1.1601562 -0.8203124,2.2148437 -2.0390624,2.6367187 l 0.3984375,0.5742188 c 0.9492189,-0.3398438 1.6757809,-1.0429688 2.0273439,-1.9570313 0.339844,0.8203125 1.03125,1.4882813 1.945312,1.8046875 l 0.375,-0.5859375 c -1.195312,-0.4101562 -1.96875,-1.3945312 -1.96875,-2.4726562 v -0.3046875 h 1.792969 v -0.609375 z M 14.24882,-7.4191641 v 4.8867188 h 0.738282 v -2.1210938 h 1.195312 v -0.6328125 h -1.195312 v -2.1328125 z m 8.689453,5.0859375 c -1.675781,0 -2.695312,0.5625 -2.695312,1.51171879 0,0.94921875 1.019531,1.51171875 2.695312,1.51171875 1.675782,0 2.707032,-0.5625 2.707032,-1.51171875 0,-0.94921879 -1.03125,-1.51171879 -2.707032,-1.51171879 z m 0,0.5859375 c 1.21875,0 1.96875,0.3398438 1.96875,0.92578129 0,0.5859375 -0.75,0.92578125 -1.96875,0.92578125 -1.21875,0 -1.957031,-0.33984375 -1.957031,-0.92578125 0,-0.58593749 0.738281,-0.92578129 1.957031,-0.92578129 z m 1.933594,-5.671875 v 2.109375 h -1.59375 v 0.6210938 h 1.59375 v 2.109375 h 0.738281 v -4.8398438 z m -5.671875,0.5976563 v 0.609375 h 1.804688 v 0.28125 c 0,1.1484375 -0.820313,2.25 -2.027344,2.6835937 l 0.375,0.5976563 c 0.960937,-0.375 1.699219,-1.1132813 2.050781,-2.0625 0.351563,0.8320312 1.042969,1.5 1.945313,1.828125 l 0.375,-0.5859375 c -1.171875,-0.4101563 -1.96875,-1.4296875 -1.96875,-2.4726563 v -0.2695312 h 1.78125 v -0.609375 z m 9.398438,4.546875 v 2.85937499 h 5.261718 V -2.2746328 Z m 4.535156,0.5976562 v 1.65234379 H 29.336711 V -1.6769766 Z m -0.01172,-5.7421875 v 2.0273438 h -1.605469 v 0.6210937 h 1.605469 v 2.0976563 h 0.738281 v -4.7460938 z m -5.671875,0.5273438 v 0.609375 h 1.804688 v 0.2929687 c 0,1.1484375 -0.832032,2.2265625 -2.027344,2.6484375 l 0.375,0.5976563 c 0.960937,-0.3515625 1.699219,-1.0898438 2.039062,-2.015625 0.351563,0.8320312 1.054688,1.5 1.957032,1.8398437 l 0.375,-0.5976562 c -1.171875,-0.421875 -1.96875,-1.4296875 -1.96875,-2.4726563 v -0.2929687 h 1.78125 v -0.609375 z m 10.617188,0.070312 c -1.253907,0 -2.179688,0.7734375 -2.179688,1.9101562 0,1.125 0.925781,1.9101563 2.179688,1.9101563 1.265625,0 2.179687,-0.7851563 2.179687,-1.9101563 0,-1.1367187 -0.914062,-1.9101562 -2.179687,-1.9101562 z m 0,0.6445312 c 0.84375,0 1.453125,0.515625 1.453125,1.265625 0,0.75 -0.609375,1.265625 -1.453125,1.265625 -0.832032,0 -1.441407,-0.515625 -1.441407,-1.265625 0,-0.75 0.609375,-1.265625 1.441407,-1.265625 z m 3.246093,-1.2421875 v 8.12109379 h 0.738282 V -7.4191641 Z m -5.730468,6.3515625 c 1.453125,0 3.433593,-0.011719 5.261718,-0.3632812 l -0.07031,-0.5390625 c -1.757813,0.2695312 -3.808594,0.2695312 -5.285156,0.2695312 z m 14.147461,-3.09375 v 0.6210938 h 1.898437 v 4.24218749 h 0.738281 V -7.4191641 h -0.738281 v 3.2578125 z m -3.679688,-2.3789062 v 0.609375 h 2.964844 c -0.152344,1.8867187 -1.136719,3.4335937 -3.316406,4.5 l 0.410156,0.58593749 c 2.695312,-1.34765629 3.644531,-3.37499999 3.644531,-5.69531249 z m 13.804688,-0.8789063 v 8.12109379 h 0.738281 V -7.4191641 Z m -5.460938,0.7617188 v 0.609375 h 3 v 1.6757812 h -2.976562 v 3.1171875 h 0.667968 c 1.40625,0 2.625,-0.058594 4.078125,-0.2929687 l -0.07031,-0.609375 c -1.417969,0.2226562 -2.589844,0.28125 -3.925781,0.28125 v -1.8867188 h 2.976562 v -2.8945312 z m 7.790039,3.0117187 v 0.5742188 h 7.359375 v -0.5742188 z m 0.902344,3.70312504 v 0.52734375 h 5.800781 V 0.05739844 h -5.0625 V -0.70432031 H 68.62968 V -2.4269766 h -5.566407 v 0.5390625 h 4.828125 v 0.6796875 H 63.086711 Z M 63.1453,-4.7941646 v 0.5390625 h 5.601562 v -0.5390625 h -4.875 v -0.6914062 h 4.722656 v -1.6875 h -5.472656 v 0.5273437 h 4.746094 v 0.65625 H 63.1453 Z m 0,0"
         style="fill:#000000;fill-opacity:1;fill-rule:nonzero;stroke:none" />
      <path
         id="path60"
         d="m 76.284953,-2.7316641 c 0,-1.6757812 -0.914062,-2.8476562 -1.921875,-2.8476562 -1.007812,0 -1.910156,1.2070312 -1.910156,2.8359375 0,1.6640625 0.914062,2.83593749 1.910156,2.83593749 1.019531,0 1.921875,-1.19531249 1.921875,-2.82421879 z m -0.65625,-0.1054687 c 0,1.3007812 -0.5625,2.35546874 -1.265625,2.35546874 -0.691406,0 -1.253906,-1.06640624 -1.253906,-2.35546874 0,-1.3007813 0.609375,-2.15625 1.253906,-2.15625 0.65625,0 1.265625,0.8671875 1.265625,2.15625 z m 0,0"
         style="fill:#000000;fill-opacity:1;fill-rule:nonzero;stroke:none" />
      <path
         id="path61"
         d="m 81.274211,-6.8918203 c -1.675781,0 -2.941406,0.8789062 -2.941406,2.2265625 0,1.359375 1.265625,2.2382812 2.941406,2.2382812 1.6875,0 2.953125,-0.8789062 2.953125,-2.2382812 0,-1.3476563 -1.265625,-2.2265625 -2.953125,-2.2265625 z m 0,0.5976562 c 1.289062,0 2.238281,0.6679688 2.238281,1.6289063 0,0.984375 -0.949219,1.6289062 -2.238281,1.6289062 -1.265625,0 -2.226563,-0.6445312 -2.226563,-1.6289062 0,-0.9609375 0.960938,-1.6289063 2.226563,-1.6289063 z m -3.65625,5.29687504 v 0.62109375 h 7.359375 v -0.62109375 z m 9.164062,-2.05078124 v 0.609375 h 2.378907 v 1.51171874 h -3.292969 v 0.62109375 h 7.359375 V -0.92697656 H 89.899211 V -2.4386953 h 2.601562 v -0.609375 h -4.980468 v -1.3125 h 4.792968 v -2.4492188 h -5.542968 v 0.609375 h 4.804687 v 1.2539063 h -4.792969 z m 10.268555,-3.9609375 v 2.8710937 h 5.566402 v -0.609375 h -4.816402 v -1.6523437 h 4.746092 v -0.609375 z m -0.925781,3.7382812 v 0.609375 h 3.386719 v 1.59375 h 0.738284 v -1.59375 h 3.21093 v -0.609375 z m 0.9375,1.5 v 2.28515629 h 5.613283 v -0.609375 H 97.800578 V -1.7707266 Z m 12.796873,-5.6484375 v 8.12109379 h 0.75 V -3.5988516 h 1.32422 v -0.6210937 h -1.32422 v -3.1992188 z m -5.13281,0.796875 v 5.3085938 h 0.63281 c 1.52344,0 2.58985,-0.046875 3.84375,-0.2695313 l -0.0937,-0.6445312 c -1.18359,0.2226562 -2.21484,0.28125 -3.64453,0.28125 v -4.0664063 h 3.02344 v -0.609375 z m 8.69238,6.73828129 c 0.32813,0 0.59766,-0.24609375 0.59766,-0.62109375 0,-0.375 -0.26953,-0.62109374 -0.59766,-0.62109374 -0.32812,0 -0.58594,0.24609374 -0.58594,0.62109374 0,0.375 0.25782,0.62109375 0.58594,0.62109375 z m 0,0"
         style="fill:#000000;fill-opacity:1;fill-rule:nonzero;stroke:none" />
    </g>
    <path
       id="path62"
       d="m 3.9128828,0.47923437 c 0,-0.15234375 -0.082031,-0.19921875 -0.1640625,-0.26953125 -1.1835937,-0.7734375 -1.5585937,-2.01562502 -1.5585937,-2.94140622 0,-0.6796875 0.1875,-1.265625 0.3867187,-1.6757813 0.3632813,-0.6796875 0.796875,-1.0429687 1.21875,-1.3242187 0.070312,-0.046875 0.1171875,-0.1289063 0.1171875,-0.2226563 0,-0.09375 -0.046875,-0.2695312 -0.2929687,-0.2695312 -0.2109375,0 -0.9609375,0.515625 -1.4648438,1.3007812 -0.46875,0.75 -0.6210937,1.546875 -0.6210937,2.1796875 0,0.5976563 0.1289062,1.453125 0.7148437,2.30859377 0.4335938,0.64453125 1.1484375,1.171875 1.3710938,1.171875 0.2460937,0 0.2929687,-0.17578125 0.2929687,-0.2578125 z m 0,0"
       style="fill:#000000;fill-opacity:1;fill-rule:nonzero;stroke:none"
       aria-label="("
       transform="matrix(1.3333333,0,0,1.3333333,279.12267,201.68133)" />
    <text
       id="text62"
       xml:space="preserve"
       transform="matrix(1.3333333,0,0,1.2698413,285.39867,201.68133)"><tspan
         id="tspan62"
         style="font-variant:normal;font-weight:normal;font-size:9.41472px;font-family:UnDotum;writing-mode:lr-tb;fill:#000000;fill-opacity:1;fill-rule:nonzero;stroke:none"
         x="0"
         y="0">거리</tspan></text>
    <path
       id="path63"
       d="m 3.1053984,-0.23560938 c 0,-0.515625 -0.328125,-0.90234372 -0.75,-0.90234372 -0.3515625,0 -0.5742187,0.26953122 -0.5742187,0.56249997 0,0.328125 0.2460937,0.57421875 0.5742187,0.57421875 0.070312,0 0.1289063,-0.01171875 0.140625,-0.0234375 -0.035156,0.19921875 -0.1992187,0.5390625 -0.65625,0.69140625 -0.082031,0.0351563 -0.2460937,0.0820313 -0.2460937,0.28125 0,0.14062503 0.140625,0.29296873 0.3046875,0.29296873 0.2929687,0 1.2070312,-0.46874998 1.2070312,-1.47656248 z m 0,0"
       style="fill:#000000;fill-opacity:1;fill-rule:nonzero;stroke:none"
       aria-label=","
       transform="matrix(1.3333333,0,0,1.3333333,310.504,201.68133)" />
    <text
       id="text63"
       xml:space="preserve"
       transform="matrix(1.3333333,0,0,1.2698413,323.05733,201.68133)"><tspan
         id="tspan63"
         style="font-variant:normal;font-weight:normal;font-size:9.41472px;font-family:UnDotum;writing-mode:lr-tb;fill:#000000;fill-opacity:1;fill-rule:nonzero;stroke:none"
         x="0"
         y="0">정점</tspan></text>
    <path
       id="path64"
       d="m 3.1651094,-2.7317031 c 0,-0.609375 -0.1289063,-1.453125 -0.7148438,-2.3085938 -0.4453125,-0.6445312 -1.1367187,-1.1835937 -1.3710937,-1.1835937 -0.25781253,0 -0.29296878,0.1992187 -0.29296878,0.2695312 0,0.140625 0.0820313,0.2109375 0.1640625,0.2578125 1.18359378,0.7851563 1.54687498,2.015625 1.54687498,2.953125 0,0.6796875 -0.1875,1.265625 -0.375,1.6640625 -0.3632812,0.67968752 -0.8085937,1.05468752 -1.23046873,1.32421877 -0.0703125,0.0585938 -0.10546875,0.15234375 -0.10546875,0.234375 0,0.0703125 0.046875,0.2578125 0.29296878,0.2578125 0.1992187,0 0.9609375,-0.515625 1.453125,-1.2890625 C 3.0127656,-1.3020156 3.1651094,-2.0988906 3.1651094,-2.7317031 Z m 0,0"
       style="fill:#000000;fill-opacity:1;fill-rule:nonzero;stroke:none"
       aria-label=")"
       transform="matrix(1.3333333,0,0,1.3333333,348.16267,201.68133)" />
    <path
       id="path65"
       d="m 4.1028594,-7.2668594 c -1.7929688,0 -2.8476563,0.4921875 -2.8476563,1.3945313 0,0.9023437 1.0546875,1.40625 2.8476563,1.40625 1.7929687,0 2.859375,-0.5039063 2.859375,-1.40625 0,-0.9023438 -1.0664063,-1.3945313 -2.859375,-1.3945313 z m 0,0.5507813 c 1.3359375,0 2.0976562,0.3164062 2.0976562,0.84375 0,0.5507812 -0.7617187,0.84375 -2.0976562,0.84375 -1.3125,0 -2.0742188,-0.2929688 -2.0742188,-0.84375 0,-0.5273438 0.7617188,-0.84375 2.0742188,-0.84375 z m -3.65625003,2.8007812 v 0.5976563 H 7.7708281 V -3.9152969 Z M 1.3606719,0.02220312 v 0.5859375 h 5.71875 V 0.02220312 H 2.0755156 v -0.8203125 H 6.8333281 V -2.6262344 H 1.3372344 v 0.5625 h 4.7695312 v 0.7148438 H 1.3606719 Z M 10.694656,-3.0949844 v 0.609375 h 1.898438 v 3.17578127 h 0.738281 V -2.4856094 h 2.027344 v 3.17578127 h 0.75 V -2.4856094 h 1.910156 v -0.609375 h -1.207031 c 0.28125,-1.3125 0.28125,-2.2382812 0.28125,-3.09375 v -0.7382812 h -5.472657 v 0.609375 h 4.757813 v 0.1289062 c 0,0.328125 0,0.65625 -0.01172,1.0195313 l -4.980469,0.1640625 0.105469,0.6445312 4.839844,-0.234375 c -0.04687,0.4453125 -0.128906,0.9492188 -0.269531,1.5 z M 25.117508,-7.4192031 V 0.70189062 H 25.84407 V -7.4192031 Z m -4.347656,1.3710937 c 0.644531,0 1.042968,0.8203125 1.042968,2.1328125 0,1.3125 -0.398437,2.1328125 -1.042968,2.1328125 -0.632813,0 -1.03125,-0.8203125 -1.03125,-2.1328125 0,-1.3125 0.398437,-2.1328125 1.03125,-2.1328125 z m 0,-0.6914062 c -1.042969,0 -1.722657,1.0898437 -1.722657,2.8242187 0,1.734375 0.679688,2.8242188 1.722657,2.8242188 0.996093,0 1.664062,-0.9726563 1.722656,-2.5546875 h 1.019531 v 3.92578122 h 0.703125 V -7.2434219 h -0.703125 v 2.9882813 h -1.019531 c -0.08203,-1.5351563 -0.738281,-2.484375 -1.722656,-2.484375 z m 12.427734,5.0390625 c -1.394531,0 -2.261719,0.421875 -2.261719,1.18359372 0,0.76171875 0.867188,1.1953125 2.261719,1.1953125 1.417969,0 2.273437,-0.43359375 2.273437,-1.1953125 0,-0.76171872 -0.855468,-1.18359372 -2.273437,-1.18359372 z m 0,0.5390625 c 0.960937,0 1.523437,0.23437497 1.523437,0.64453122 0,0.421875 -0.5625,0.65625 -1.523437,0.65625 -0.949219,0 -1.523438,-0.234375 -1.523438,-0.65625 0,-0.41015625 0.574219,-0.64453122 1.523438,-0.64453122 z m -3.527344,-3.234375 v 0.6328125 h 0.632813 c 1.3125,0 2.414062,-0.070312 3.679687,-0.3164063 l -0.09375,-0.6210937 c -1.183594,0.234375 -2.25,0.3046875 -3.46875,0.3046875 v -2.6367188 h -0.75 z m 5.460938,-3.0234375 v 1.2421875 h -2.308594 v 0.5976562 h 2.308594 v 2.4960938 h 0.738281 v -4.3359375 z m -2.296875,3.9726562 v 0.8085938 h -2.496094 v 0.5976562 h 5.71875 v -0.5976562 h -2.472656 v -0.8085938 z m 4.602539,0.1640625 v 0.5976563 h 7.359375 v -0.5976563 z m 0.996093,-3.8320312 v 2.7421875 h 5.519532 v -0.609375 h -4.78125 v -2.1328125 z m -0.04687,5.25 v 2.36718747 h 5.613282 v -0.609375 h -4.875 V -1.8645156 Z m 12.796875,-5.5546875 v 8.12109372 h 0.75 V -3.5988906 h 1.324219 v -0.6210938 h -1.324219 v -3.1992187 z m -5.132812,0.796875 v 5.3085937 h 0.632812 c 1.523438,0 2.589844,-0.046875 3.84375,-0.2695312 l -0.09375,-0.6445313 c -1.183593,0.2226563 -2.214843,0.28125 -3.644531,0.28125 v -4.0664062 h 3.023438 v -0.609375 z m 8.695312,6.73828122 c 0.328125,0 0.597657,-0.24609375 0.597657,-0.62109375 0,-0.375 -0.269532,-0.62109377 -0.597657,-0.62109377 -0.328125,0 -0.585937,0.24609377 -0.585937,0.62109377 0,0.375 0.257812,0.62109375 0.585937,0.62109375 z m 0,0"
       style="fill:#000000;fill-opacity:1;fill-rule:nonzero;stroke:none"
       aria-label="을큐에넣는다."
       transform="matrix(1.3333333,0,0,1.3333333,355.03733,201.68133)" />
  </g>
</svg>
