<?xml version="1.0" encoding="UTF-8" standalone="no"?>
<!-- Created with Inkscape (http://www.inkscape.org/) -->

<svg
   version="1.1"
   id="svg1"
   width="583.78668"
   height="262.61334"
   viewBox="0 0 583.78668 262.61334"
   sodipodi:docname="2.pdf"
   xmlns:inkscape="http://www.inkscape.org/namespaces/inkscape"
   xmlns:sodipodi="http://sodipodi.sourceforge.net/DTD/sodipodi-0.dtd"
   xmlns="http://www.w3.org/2000/svg"
   xmlns:svg="http://www.w3.org/2000/svg">
  <defs
     id="defs1" />
  <sodipodi:namedview
     id="namedview1"
     pagecolor="#ffffff"
     bordercolor="#000000"
     borderopacity="0.25"
     inkscape:showpageshadow="2"
     inkscape:pageopacity="0.0"
     inkscape:pagecheckerboard="0"
     inkscape:deskcolor="#d1d1d1">
    <inkscape:page
       x="0"
       y="0"
       inkscape:label="1"
       id="page1"
       width="583.78668"
       height="262.61334"
       margin="0"
       bleed="0" />
  </sodipodi:namedview>
  <g
     id="g1"
     inkscape:groupmode="layer"
     inkscape:label="1">
    <path
       id="path1"
       d="M 69.49881,81.48897 25.12749,14.41605"
       style="fill:none;stroke:#858585;stroke-width:0.57784;stroke-linecap:butt;stroke-linejoin:miter;stroke-miterlimit:10;stroke-dasharray:none;stroke-opacity:1"
       transform="matrix(1.3333333,0,0,-1.3333333,9.3013333,155.30933)" />
    <path
       id="path2"
       d="M 3.33876,0 C 2.92874,0.10161 1.12645,0.67744 0,1.30406 V -1.30406 C 1.12645,-0.67744 2.92874,-0.10161 3.33876,0 Z"
       style="fill:#858585;fill-opacity:1;fill-rule:nonzero;stroke:#858585;stroke-width:0.57784;stroke-linecap:butt;stroke-linejoin:miter;stroke-miterlimit:10;stroke-dasharray:none;stroke-opacity:1"
       transform="matrix(-0.7356,1.11196,1.11196,0.7356,42.804667,136.08793)" />
    <path
       id="path3"
       d="M 83.57375,81.48897 127.94551,14.41605"
       style="fill:none;stroke:#858585;stroke-width:0.57784;stroke-linecap:butt;stroke-linejoin:miter;stroke-miterlimit:10;stroke-dasharray:none;stroke-opacity:1"
       transform="matrix(1.3333333,0,0,-1.3333333,9.3013333,155.30933)" />
    <path
       id="path4"
       d="M 3.33876,0 C 2.92874,0.10161 1.12645,0.67744 0,1.30406 V -1.30406 C 1.12645,-0.67744 2.92874,-0.10161 3.33876,0 Z"
       style="fill:#858585;fill-opacity:1;fill-rule:nonzero;stroke:#858585;stroke-width:0.57784;stroke-linecap:butt;stroke-linejoin:miter;stroke-miterlimit:10;stroke-dasharray:none;stroke-opacity:1"
       transform="matrix(0.7356,1.11196,1.11196,-0.7356,179.89533,136.08793)" />
    <path
       id="path5"
       d="M 76.53629,79.37106 V 62.07408"
       style="fill:none;stroke:#858585;stroke-width:0.57784;stroke-linecap:butt;stroke-linejoin:miter;stroke-miterlimit:10;stroke-dasharray:none;stroke-opacity:1"
       transform="matrix(1.3333333,0,0,-1.3333333,9.3013333,155.30933)" />
    <path
       id="path6"
       d="M 3.33876,0 C 2.92874,0.10161 1.12645,0.67744 0,1.30406 V -1.30406 C 1.12645,-0.67744 2.92874,-0.10161 3.33876,0 Z"
       style="fill:#858585;fill-opacity:1;fill-rule:nonzero;stroke:#858585;stroke-width:0.57784;stroke-linecap:butt;stroke-linejoin:miter;stroke-miterlimit:10;stroke-dasharray:none;stroke-opacity:1"
       transform="matrix(0,1.3333333,1.3333333,0,111.34972,72.543893)" />
    <path
       id="path7"
       d="M 66.25803,37.23453 29.51944,10.23564"
       style="fill:none;stroke:#858585;stroke-width:0.57784;stroke-linecap:butt;stroke-linejoin:miter;stroke-miterlimit:10;stroke-dasharray:none;stroke-opacity:1"
       transform="matrix(1.3333333,0,0,-1.3333333,9.3013333,155.30933)" />
    <path
       id="path8"
       d="M 3.33876,0 C 2.92874,0.10161 1.12645,0.67744 0,1.30406 V -1.30406 C 1.12645,-0.67744 2.92874,-0.10161 3.33876,0 Z"
       style="fill:#858585;fill-opacity:1;fill-rule:nonzero;stroke:#858585;stroke-width:0.57784;stroke-linecap:butt;stroke-linejoin:miter;stroke-miterlimit:10;stroke-dasharray:none;stroke-opacity:1"
       transform="matrix(-1.07436,0.78950667,0.78950667,1.07436,48.660587,141.66181)" />
    <path
       id="path9"
       d="m 76.53629,32.03194 v -68.6046"
       style="fill:none;stroke:#858585;stroke-width:0.57784;stroke-linecap:butt;stroke-linejoin:miter;stroke-miterlimit:10;stroke-dasharray:none;stroke-opacity:1"
       transform="matrix(1.3333333,0,0,-1.3333333,9.3013333,155.30933)" />
    <path
       id="path10"
       d="M 3.33876,0 C 2.92874,0.10161 1.12645,0.67744 0,1.30406 V -1.30406 C 1.12645,-0.67744 2.92874,-0.10161 3.33876,0 Z"
       style="fill:#858585;fill-opacity:1;fill-rule:nonzero;stroke:#858585;stroke-width:0.57784;stroke-linecap:butt;stroke-linejoin:miter;stroke-miterlimit:10;stroke-dasharray:none;stroke-opacity:1"
       transform="matrix(0,1.3333333,1.3333333,0,111.34972,204.07288)" />
    <path
       id="path11"
       d="M 25.1487,-8.44647 63.5844,-42.41241"
       style="fill:none;stroke:#858585;stroke-width:0.57784;stroke-linecap:butt;stroke-linejoin:miter;stroke-miterlimit:10;stroke-dasharray:none;stroke-opacity:1"
       transform="matrix(1.3333333,0,0,-1.3333333,9.3013333,155.30933)" />
    <path
       id="path12"
       d="M 3.33876,0 C 2.92874,0.10161 1.12645,0.67744 0,1.30406 V -1.30406 C 1.12645,-0.67744 2.92874,-0.10161 3.33876,0 Z"
       style="fill:#858585;fill-opacity:1;fill-rule:nonzero;stroke:#858585;stroke-width:0.57784;stroke-linecap:butt;stroke-linejoin:miter;stroke-miterlimit:10;stroke-dasharray:none;stroke-opacity:1"
       transform="matrix(0.99902667,0.88289333,0.88289333,-0.99902667,94.080507,211.85921)" />
    <path
       id="path13"
       d="M 127.9243,-8.44647 89.48845,-42.41269"
       style="fill:none;stroke:#858585;stroke-width:0.57784;stroke-linecap:butt;stroke-linejoin:miter;stroke-miterlimit:10;stroke-dasharray:none;stroke-opacity:1"
       transform="matrix(1.3333333,0,0,-1.3333333,9.3013333,155.30933)" />
    <path
       id="path14"
       d="M 3.33876,0 C 2.92874,0.10161 1.12645,0.67744 0,1.30406 V -1.30406 C 1.12645,-0.67744 2.92874,-0.10161 3.33876,0 Z"
       style="fill:#858585;fill-opacity:1;fill-rule:nonzero;stroke:#858585;stroke-width:0.57784;stroke-linecap:butt;stroke-linejoin:miter;stroke-miterlimit:10;stroke-dasharray:none;stroke-opacity:1"
       transform="matrix(-0.99904,0.88288,0.88288,0.99904,128.61927,211.85959)" />
    <path
       id="path15"
       d="m 34.76976,49.24258 h 5.86307 v 6.96497 h -5.86307 z"
       style="fill:#ffffff;fill-opacity:1;fill-rule:nonzero;stroke:none"
       transform="matrix(1.3333333,0,0,-1.3333333,9.3013333,155.30933)" />
    <path
       id="path16"
       d="m 1.3820234,1.640625e-4 h 0.65625 C 2.1203047,-1.9334297 2.3663984,-3.0701484 3.5382734,-4.5818672 V -4.9685859 H 0.33905469 v 0.5507812 H 2.8234297 c -0.984375,1.359375 -1.3476563,2.5429688 -1.4414063,4.4179687625 z m 0,0"
       style="fill:#000000;fill-opacity:1;fill-rule:nonzero;stroke:none"
       aria-label="7"
       transform="matrix(1.3333333,0,0,1.3333333,56.989333,88.324)" />
    <path
       id="path17"
       d="m 112.15643,49.24258 h 5.86307 v 6.96497 h -5.86307 z"
       style="fill:#ffffff;fill-opacity:1;fill-rule:nonzero;stroke:none"
       transform="matrix(1.3333333,0,0,-1.3333333,9.3013333,155.30933)" />
    <path
       id="path18"
       d="M 2.3670938,1.640625e-4 H 2.96475 V -1.3709297 h 0.6914063 v -0.515625 H 2.96475 V -4.9685859 H 2.261625 l -2.12109375,3.1757812 v 0.421875 H 2.3670938 Z m 0,-1.8867187625 H 0.79678125 L 1.9686563,-3.5857734 c 0.140625,-0.2460938 0.28125,-0.46875 0.4101562,-0.703125 H 2.40225 c -0.011719,0.2578125 -0.035156,0.703125 -0.035156,0.9492187 z m 0,0"
       style="fill:#000000;fill-opacity:1;fill-rule:nonzero;stroke:none"
       aria-label="4"
       transform="matrix(1.3333333,0,0,1.3333333,160.172,88.324)" />
    <path
       id="path19"
       d="m 80.12439,65.11673 h 5.86307 v 6.96497 h -5.86307 z"
       style="fill:#ffffff;fill-opacity:1;fill-rule:nonzero;stroke:none"
       transform="matrix(1.3333333,0,0,-1.3333333,9.3013333,155.30933)" />
    <path
       id="path20"
       d="M 0.60807813,0.00111719 H 3.4205781 v -0.52734375 h -1.03125 V -4.9676328 H 1.8971406 c -0.2695312,0.1640625 -0.5976562,0.28125 -1.05468747,0.3632812 v 0.4101563 H 1.7565156 v 3.66796874 H 0.60807813 Z m 0,0"
       style="fill:#000000;fill-opacity:1;fill-rule:nonzero;stroke:none"
       aria-label="1"
       transform="matrix(1.3333333,0,0,1.3333333,117.46267,67.158667)" />
    <path
       id="path21"
       d="m 40.72235,22.26787 h 5.86307 v 7.05562 h -5.86307 z"
       style="fill:#ffffff;fill-opacity:1;fill-rule:nonzero;stroke:none"
       transform="matrix(1.3333333,0,0,-1.3333333,9.3013333,155.30933)" />
    <path
       id="path22"
       d="M 0.30402344,-0.00120313 H 3.5149609 V -0.55198438 H 2.0735547 c -0.2578125,0 -0.5625,0.0234375 -0.8320313,0.046875 1.171875,-1.23046872 2.0390625,-2.16796872 2.0390625,-3.10546872 0,-0.8789063 -0.5859375,-1.453125 -1.5,-1.453125 -0.6445312,0 -1.08984371,0.2929687 -1.49999996,0.75 l 0.36328125,0.3632812 c 0.29296875,-0.328125 0.64453121,-0.5976562 1.06640621,-0.5976562 0.6328125,0 0.9375,0.4101562 0.9375,0.9726562 0,0.8085938 -0.84375,1.7109375 -2.34374996,3.19921877 z m 0,0"
       style="fill:#000000;fill-opacity:1;fill-rule:nonzero;stroke:none"
       aria-label="2"
       transform="matrix(1.3333333,0,0,1.3333333,64.926667,124.29067)" />
    <path
       id="path23"
       d="m 80.69145,-8.63 h 5.86307 v 7.05559 h -5.86307 z"
       style="fill:#ffffff;fill-opacity:1;fill-rule:nonzero;stroke:none"
       transform="matrix(1.3333333,0,0,-1.3333333,9.3013333,155.30933)" />
    <path
       id="path24"
       d="m 1.8281875,0.09414062 c 0.8554688,0 1.6757813,-0.609375 1.6757813,-1.68750002 0,-1.0664062 -0.703125,-1.546875 -1.546875,-1.546875 -0.3046875,0 -0.5390625,0.070312 -0.7617188,0.1992188 l 0.1289063,-1.4765625 h 1.921875 V -4.9683594 H 0.76178125 l -0.1640625,2.390625 0.33984375,0.2109375 c 0.2929688,-0.1875 0.515625,-0.3046875 0.8554688,-0.3046875 0.6445312,0 1.0546875,0.4101563 1.0546875,1.1015625 0,0.69140627 -0.4804688,1.13671877 -1.078125,1.13671877 -0.5976563,0 -0.9726563,-0.28125 -1.26562505,-0.57421877 L 0.1875625,-0.58554688 c 0.3515625,0.33984375 0.8320313,0.6796875 1.640625,0.6796875 z m 0,0"
       style="fill:#000000;fill-opacity:1;fill-rule:nonzero;stroke:none"
       aria-label="5"
       transform="matrix(1.3333333,0,0,1.3333333,118.21867,165.36667)" />
    <path
       id="path25"
       d="m 40.15573,-33.29204 h 5.86307 v 7.05562 h -5.86307 z"
       style="fill:#ffffff;fill-opacity:1;fill-rule:nonzero;stroke:none"
       transform="matrix(1.3333333,0,0,-1.3333333,9.3013333,155.30933)" />
    <path
       id="path26"
       d="M 0.30559375,3.203125e-4 H 3.5165313 V -0.55046094 H 2.075125 c -0.2578125,0 -0.5625,0.0234375 -0.8320312,0.046875 1.171875,-1.23046876 2.0390625,-2.16796876 2.0390625,-3.10546876 0,-0.8789062 -0.5859375,-1.453125 -1.5,-1.453125 -0.6445313,0 -1.0898438,0.2929688 -1.50000005,0.75 l 0.36328125,0.3632813 c 0.29296875,-0.328125 0.6445313,-0.5976563 1.0664063,-0.5976563 0.6328125,0 0.9375,0.4101563 0.9375,0.9726563 0,0.8085937 -0.84375,1.7109375 -2.34375005,3.19921871 z m 0,0"
       style="fill:#000000;fill-opacity:1;fill-rule:nonzero;stroke:none"
       aria-label="2"
       transform="matrix(1.3333333,0,0,1.3333333,64.170667,198.37067)" />
    <path
       id="path27"
       d="m 111.02275,-33.2467 h 5.86307 v 6.96497 h -5.86307 z"
       style="fill:#ffffff;fill-opacity:1;fill-rule:nonzero;stroke:none"
       transform="matrix(1.3333333,0,0,-1.3333333,9.3013333,155.30933)" />
    <path
       id="path28"
       d="M 0.60949219,-5.546875e-4 H 3.4219922 V -0.52789844 h -1.03125 V -4.9693047 H 1.8985547 c -0.2695313,0.1640625 -0.5976563,0.28125 -1.05468751,0.3632813 v 0.4101562 H 1.7579297 v 3.66796876 H 0.60949219 Z m 0,0"
       style="fill:#000000;fill-opacity:1;fill-rule:nonzero;stroke:none"
       aria-label="1"
       transform="matrix(1.3333333,0,0,1.3333333,158.66,198.30933)" />
    <path
       id="path29"
       d="M 76.53629,79.37106 V 62.4318"
       style="fill:none;stroke:#000000;stroke-width:0.99628;stroke-linecap:butt;stroke-linejoin:miter;stroke-miterlimit:10;stroke-dasharray:2.98883, 2.98883;stroke-dashoffset:0;stroke-opacity:1"
       transform="matrix(1.3333333,0,0,-1.3333333,9.3013333,155.30933)" />
    <path
       id="path30"
       d="M 2.8339,0 C 2.48589,0.0898 0.9561,0.59866 0,1.15242 V -1.15242 C 0.9561,-0.59866 2.48589,-0.0898 2.8339,0 Z"
       style="fill:#000000;fill-opacity:1;fill-rule:nonzero;stroke:#000000;stroke-width:0.99628;stroke-linecap:butt;stroke-linejoin:miter;stroke-miterlimit:10;stroke-dasharray:none;stroke-opacity:1"
       transform="matrix(0,1.3333333,1.3333333,0,111.34972,72.066933)" />
    <path
       id="path31"
       d="m 83.57375,81.48897 44.1744,-66.7746"
       style="fill:none;stroke:#000000;stroke-width:0.99628;stroke-linecap:butt;stroke-linejoin:miter;stroke-miterlimit:10;stroke-dasharray:2.98883, 2.98883;stroke-dashoffset:0;stroke-opacity:1"
       transform="matrix(1.3333333,0,0,-1.3333333,9.3013333,155.30933)" />
    <path
       id="path32"
       d="M 2.8339,0 C 2.48589,0.0898 0.9561,0.59866 0,1.15242 V -1.15242 C 0.9561,-0.59866 2.48589,-0.0898 2.8339,0 Z"
       style="fill:#000000;fill-opacity:1;fill-rule:nonzero;stroke:#000000;stroke-width:0.99628;stroke-linecap:butt;stroke-linejoin:miter;stroke-miterlimit:10;stroke-dasharray:none;stroke-opacity:1"
       transform="matrix(0.7356,1.11196,1.11196,-0.7356,179.6322,135.69017)" />
    <path
       id="path33"
       d="M 69.49881,81.48897 25.32484,14.71437"
       style="fill:none;stroke:#000000;stroke-width:0.99628;stroke-linecap:butt;stroke-linejoin:miter;stroke-miterlimit:10;stroke-dasharray:2.98883, 2.98883;stroke-dashoffset:0;stroke-opacity:1"
       transform="matrix(1.3333333,0,0,-1.3333333,9.3013333,155.30933)" />
    <path
       id="path34"
       d="M 2.8339,0 C 2.48589,0.0898 0.9561,0.59866 0,1.15242 V -1.15242 C 0.9561,-0.59866 2.48589,-0.0898 2.8339,0 Z"
       style="fill:#000000;fill-opacity:1;fill-rule:nonzero;stroke:#000000;stroke-width:0.99628;stroke-linecap:butt;stroke-linejoin:miter;stroke-miterlimit:10;stroke-dasharray:none;stroke-opacity:1"
       transform="matrix(-0.7356,1.11196,1.11196,0.7356,43.067787,135.69017)" />
    <path
       id="path35"
       d="m 90.70969,92.1271 c 0,7.82786 -6.34555,14.1734 -14.1734,14.1734 -7.82785,0 -14.17341,-6.34554 -14.17341,-14.1734 0,-7.82783 6.34556,-14.17338 14.17341,-14.17338 7.82785,0 14.1734,6.34555 14.1734,14.17338 z"
       style="fill:#b8b8b8;fill-opacity:1;fill-rule:nonzero;stroke:#000000;stroke-width:1.04608;stroke-linecap:butt;stroke-linejoin:miter;stroke-miterlimit:10;stroke-dasharray:none;stroke-opacity:1"
       transform="matrix(1.3333333,0,0,-1.3333333,9.3013333,155.30933)" />
    <path
       id="path36"
       d="M 0.78459375,-2.1875e-4 H 4.3939688 v -0.6796875 H 3.06975 V -6.3869375 H 2.4486563 C 2.085375,-6.176 1.6635,-6.0236563 1.0892813,-5.9181875 v 0.515625 h 1.171875 v 4.72265625 H 0.78459375 Z m 0,0"
       style="fill:#000000;fill-opacity:1;fill-rule:nonzero;stroke:none"
       aria-label="1"
       transform="matrix(1.3333333,0,0,1.3333333,108.032,36.734667)" />
    <path
       id="path37"
       d="m 29.76422,0 c 0,7.82784 -6.34555,14.17339 -14.1734,14.17339 C 7.76297,14.17339 1.41742,7.82784 1.41742,0 c 0,-7.82784 6.34555,-14.17339 14.1734,-14.17339 7.82785,0 14.1734,6.34555 14.1734,14.17339 z"
       style="fill:#dedede;fill-opacity:1;fill-rule:nonzero;stroke:#000000;stroke-width:0.84683;stroke-linecap:butt;stroke-linejoin:miter;stroke-miterlimit:10;stroke-dasharray:none;stroke-opacity:1"
       transform="matrix(1.3333333,0,0,-1.3333333,9.3013333,155.30933)" />
    <path
       id="path38"
       d="M 0.39951563,-6.71875e-4 H 4.5245156 V -0.70379688 H 2.6729531 c -0.328125,0 -0.7382812,0.0351563 -1.078125,0.0585938 1.5117188,-1.58203122 2.625,-2.78906252 2.625,-3.99609372 0,-1.125 -0.75,-1.8632812 -1.921875,-1.8632812 -0.8320312,0 -1.40624997,0.375 -1.93359372,0.9609375 l 0.46875,0.4570312 C 1.2081094,-5.5084843 1.6651406,-5.848328 2.1924844,-5.848328 c 0.8203125,0 1.21875,0.5273437 1.21875,1.2539062 0,1.0429687 -1.0898438,2.1914063 -3.01171877,4.11328122 z m 0,0"
       style="fill:#000000;fill-opacity:1;fill-rule:nonzero;stroke:none"
       aria-label="2"
       transform="matrix(1.3333333,0,0,1.3333333,26.772,159.64933)" />
    <path
       id="path39"
       d="m 151.65558,0 c 0,7.82784 -6.34555,14.17339 -14.1734,14.17339 -7.82784,0 -14.17339,-6.34555 -14.17339,-14.17339 0,-7.82784 6.34555,-14.17339 14.17339,-14.17339 7.82785,0 14.1734,6.34555 14.1734,14.17339 z"
       style="fill:#dedede;fill-opacity:1;fill-rule:nonzero;stroke:#000000;stroke-width:0.84683;stroke-linecap:butt;stroke-linejoin:miter;stroke-miterlimit:10;stroke-dasharray:none;stroke-opacity:1"
       transform="matrix(1.3333333,0,0,-1.3333333,9.3013333,155.30933)" />
    <path
       id="path40"
       d="m 2.3551953,0.11592187 c 1.171875,0 2.1210938,-0.6796875 2.1210938,-1.81640627 0,-0.8789062 -0.6210938,-1.453125 -1.3945313,-1.640625 v -0.035156 c 0.6914063,-0.2460938 1.171875,-0.7382813 1.171875,-1.5234375 0,-1.0195313 -0.8085937,-1.6054688 -1.921875,-1.6054688 -0.75,0 -1.33593749,0.3398438 -1.82812499,0.796875 l 0.43359375,0.515625 c 0.37500004,-0.3867187 0.83203124,-0.65625 1.37109374,-0.65625 0.6914063,0 1.1015625,0.3984375 1.1015625,1.0195313 0,0.6679687 -0.4570312,1.1835937 -1.8164062,1.1835937 v 0.6445313 c 1.5234375,0 2.0507812,0.5039062 2.0507812,1.265625 0,0.7265625 -0.5507812,1.17187497 -1.3359375,1.17187497 -0.75,0 -1.2421875,-0.36328125 -1.62890624,-0.74999997 l -0.421875,0.52734372 c 0.43359375,0.46875 1.07812504,0.90234375 2.09765624,0.90234355 z m 0,0"
       style="fill:#000000;fill-opacity:1;fill-rule:nonzero;stroke:none"
       aria-label="3"
       transform="matrix(1.3333333,0,0,1.3333333,189.29333,159.572)" />
    <path
       id="path41"
       d="m 90.70969,-53.85875 c 0,7.82785 -6.34555,14.1734 -14.1734,14.1734 -7.82785,0 -14.17341,-6.34555 -14.17341,-14.1734 0,-7.82785 6.34556,-14.1734 14.17341,-14.1734 7.82785,0 14.1734,6.34555 14.1734,14.1734 z"
       style="fill:#ffffff;fill-opacity:1;fill-rule:nonzero;stroke:#666666;stroke-width:0.54794;stroke-linecap:butt;stroke-linejoin:miter;stroke-miterlimit:10;stroke-dasharray:none;stroke-opacity:1"
       transform="matrix(1.3333333,0,0,-1.3333333,9.3013333,155.30933)" />
    <path
       id="path42"
       d="M 3.0463125,1.09375e-4 H 3.81975 V -1.7694219 h 0.8789063 v -0.65625 H 3.81975 V -6.3866094 H 2.9174063 l -2.74218755,4.078125 v 0.5390625 H 3.0463125 Z m 0,-2.425781275 h -2.015625 l 1.5,-2.1796875 c 0.1875,-0.328125 0.3632813,-0.5976562 0.5273438,-0.9023437 h 0.035156 c -0.023437,0.328125 -0.046875,0.890625 -0.046875,1.21875 z m 0,0"
       style="fill:#000000;fill-opacity:1;fill-rule:nonzero;stroke:none"
       aria-label="4"
       transform="matrix(1.3333333,0,0,1.3333333,108.032,231.38267)" />
    <path
       id="path43"
       d="m 90.70969,44.788 c 0,7.82784 -6.34555,14.1734 -14.1734,14.1734 -7.82785,0 -14.17341,-6.34556 -14.17341,-14.1734 0,-7.82784 6.34556,-14.17339 14.17341,-14.17339 7.82785,0 14.1734,6.34555 14.1734,14.17339 z"
       style="fill:#dedede;fill-opacity:1;fill-rule:nonzero;stroke:#000000;stroke-width:0.84683;stroke-linecap:butt;stroke-linejoin:miter;stroke-miterlimit:10;stroke-dasharray:none;stroke-opacity:1"
       transform="matrix(1.3333333,0,0,-1.3333333,9.3013333,155.30933)" />
    <path
       id="path44"
       d="m 2.3431875,0.11819531 c 1.1132813,0 2.15625,-0.78515625 2.15625,-2.15625001 0,-1.3828125 -0.890625,-2.0039062 -1.9804687,-2.0039062 -0.3984375,0 -0.6914063,0.09375 -0.984375,0.2578125 l 0.1640625,-1.8984375 h 2.4726562 v -0.703125 h -3.1875 l -0.2109375,3.0703125 0.4335938,0.28125 c 0.375,-0.2578125 0.65625,-0.3984375 1.1015625,-0.3984375 0.8203125,0 1.359375,0.5273437 1.359375,1.4179687 0,0.890625 -0.6210938,1.45312501 -1.3945313,1.45312501 -0.7617187,0 -1.2539062,-0.3515625 -1.6171875,-0.72656251 l -0.41015625,0.53906251 c 0.4453125,0.43359375 1.06640625,0.8671875 2.09765625,0.8671875 z m 0,0"
       style="fill:#000000;fill-opacity:1;fill-rule:nonzero;stroke:none"
       aria-label="5"
       transform="matrix(1.3333333,0,0,1.3333333,108.032,99.776)" />
    <path
       id="path45"
       d="m 188.50609,-70.29189 v 176.58434 c 0,1.10048 0.89209,1.99255 1.99255,1.99255 h 225.62424 c 1.10048,0 1.99255,-0.89207 1.99255,-1.99255 V -70.29189 c 0,-1.10047 -0.89207,-1.99255 -1.99255,-1.99255 H 190.49864 c -1.10046,0 -1.99255,0.89208 -1.99255,1.99255 z"
       style="fill:#fcfcfc;fill-opacity:1;fill-rule:nonzero;stroke:#c7c7c7;stroke-width:0.44832;stroke-linecap:butt;stroke-linejoin:miter;stroke-miterlimit:10;stroke-dasharray:none;stroke-opacity:1"
       transform="matrix(1.3333333,0,0,-1.3333333,9.3013333,155.30933)" />
    <path
       id="path46"
       d="m 4.6047031,-0.34039844 c 0,-0.328125 -0.2695312,-0.328125 -0.421875,-0.328125 H 3.8664219 V -5.0513359 c 0,-0.3164063 -0.070312,-0.421875 -0.421875,-0.421875 H 2.8000156 c -0.1640625,0 -0.421875,0 -0.421875,0.3398437 0,0.3164063 0.2695313,0.328125 0.421875,0.328125 h 0.3164063 v 1.1601563 c -0.2695313,-0.1992188 -0.609375,-0.3046875 -0.9492188,-0.3046875 -0.984375,0 -1.86328122,0.84375 -1.86328122,2.0039062 0,1.12500001 0.82031252,2.00390626 1.78125002,2.00390626 0.4453125,0 0.7851562,-0.1875 1.03125,-0.41015625 0.023437,0.2578125 0.070312,0.3515625025 0.421875,0.3515625025 h 0.6328125 c 0.1757812,0 0.4335937,-0.0117187525 0.4335937,-0.3398437525 z m -1.5,-1.42968746 c 0,0.4570312 -0.3632812,1.14843746 -0.984375,1.14843746 -0.5976562,0 -1.078125,-0.58593746 -1.078125,-1.32421876 0,-0.796875 0.5742188,-1.3359375 1.1484375,-1.3359375 0.5273438,0 0.9140625,0.4453125 0.9140625,0.9023438 z m 5.7041016,1.44140621 c 0,-0.33984375 -0.2695313,-0.33984375 -0.421875,-0.33984375 h -0.84375 V -3.4810234 c 0,-0.3164063 -0.070312,-0.4335938 -0.421875,-0.4335938 H 5.8791172 c -0.1640625,0 -0.4335938,0.023437 -0.4335938,0.3398438 0,0.328125 0.2695313,0.3398437 0.4335938,0.3398437 h 0.9140625 v 2.56640626 h -0.984375 c -0.1640625,0 -0.4335938,0 -0.4335938,0.33984375 0,0.31640625 0.2695313,0.3281250025 0.4335938,0.3281250025 h 2.578125 c 0.1523437,0 0.421875,-0.0117187525 0.421875,-0.3281250025 z M 7.5783359,-4.9341484 c 0,-0.2695313 -0.2226562,-0.5039063 -0.515625,-0.5039063 -0.28125,0 -0.5039062,0.234375 -0.5039062,0.5039063 0,0.2929687 0.2226562,0.515625 0.5039062,0.515625 0.2929688,0 0.515625,-0.2226563 0.515625,-0.515625 z m 5.9736331,3.7734375 c 0,-0.9609375 -1.171875,-1.1601563 -1.464844,-1.2070313 l -0.902344,-0.1640625 c -0.234375,-0.046875 -0.480468,-0.1523437 -0.480468,-0.3515625 0,-0.2109375 0.28125,-0.421875 1.042968,-0.421875 0.65625,0 0.773438,0.2109375 0.808594,0.421875 0.01172,0.1757813 0.03516,0.3515625 0.363281,0.3515625 0.363282,0 0.375,-0.2109375 0.375,-0.421875 v -0.609375 c 0,-0.1640625 -0.01172,-0.421875 -0.328125,-0.421875 -0.199218,0 -0.269531,0.082031 -0.304687,0.1523438 -0.375,-0.1523438 -0.738281,-0.1523438 -0.902344,-0.1523438 -1.523437,0 -1.722656,0.7734375 -1.722656,1.1015625 0,0.84375 0.9375,1.0195313 1.78125,1.1484375 0.398437,0.058594 1.066406,0.1640625 1.066406,0.5742188 0,0.30468746 -0.316406,0.53906246 -1.042969,0.53906246 -0.386718,0 -0.84375,-0.0820313 -1.054687,-0.72656246 -0.05859,-0.1992188 -0.09375,-0.3046875 -0.375,-0.3046875 -0.363281,0 -0.375,0.2226562 -0.375,0.4335937 v 0.84375001 c 0,0.1640625 0.01172,0.43359375 0.328125,0.43359375 0.09375,0 0.246094,0 0.363281,-0.3046875 0.421875,0.28125 0.855469,0.3046875 1.101563,0.3046875 1.441406,0 1.722656,-0.78515625 1.722656,-1.21874996 z m 4.614258,-0.011719 c 0,-0.1875 0,-0.4101562 -0.375,-0.4101562 -0.351563,0 -0.363282,0.2226562 -0.363282,0.3984375 0,0.48046871 -0.457031,0.56249996 -0.644531,0.56249996 -0.597656,0 -0.597656,-0.41015626 -0.597656,-0.59765626 v -2.015625 h 1.359375 c 0.164062,0 0.421875,-0.011719 0.421875,-0.328125 0,-0.3398437 -0.246094,-0.3515625 -0.421875,-0.3515625 h -1.359375 v -0.6445312 c 0,-0.1875 -0.01172,-0.421875 -0.363281,-0.421875 -0.375,0 -0.386719,0.2226562 -0.386719,0.421875 v 0.6445312 H 14.75607 c -0.175781,0 -0.421875,0.023437 -0.421875,0.3515625 0,0.3164063 0.246094,0.328125 0.410157,0.328125 h 0.691406 v 2.0625 c 0,0.89062501 0.632812,1.23046876 1.3125,1.23046876 0.679687,0 1.417969,-0.41015625 1.417969,-1.23046876 z m 0,0"
       style="fill:#000000;fill-opacity:1;fill-rule:nonzero;stroke:none"
       aria-label="dist"
       transform="matrix(1.3333333,0,0,1.3333333,279.32133,32.309333)" />
    <path
       id="path47"
       d="M 0.60935938,-0.00133594 H 3.4218594 v -0.52734375 h -1.03125 V -4.9700859 H 1.8984219 c -0.2695313,0.1640625 -0.5976563,0.28125 -1.05468752,0.3632812 v 0.4101563 H 1.7577969 v 3.66796871 H 0.60935938 Z m 0,0"
       style="fill:#5c5c5c;fill-opacity:1;fill-rule:nonzero;stroke:none"
       aria-label="1"
       transform="matrix(1.3333333,0,0,1.3333333,290.94533,56.576)" />
    <path
       id="path48"
       d="M 0.30527344,5.390625e-4 H 3.5162109 V -0.55024219 H 2.0748047 c -0.2578125,0 -0.5625,0.0234375 -0.8320313,0.046875 1.171875,-1.23046871 2.0390625,-2.16796871 2.0390625,-3.10546871 0,-0.8789063 -0.5859375,-1.453125 -1.5,-1.453125 -0.6445312,0 -1.08984371,0.2929687 -1.49999996,0.75 l 0.36328125,0.3632812 c 0.29296875,-0.328125 0.64453121,-0.5976562 1.06640621,-0.5976562 0.6328125,0 0.9375,0.4101562 0.9375,0.9726562 0,0.8085938 -0.84375,1.7109375 -2.34374996,3.19921876 z m 0,0"
       style="fill:#5c5c5c;fill-opacity:1;fill-rule:nonzero;stroke:none"
       aria-label="2"
       transform="matrix(1.3333333,0,0,1.3333333,336.3,56.636)" />
    <path
       id="path49"
       d="m 1.8293125,0.09241406 c 0.9140625,0 1.6523438,-0.52734375 1.6523438,-1.41796876 0,-0.6796875 -0.4804688,-1.125 -1.078125,-1.265625 v -0.035156 c 0.5273437,-0.1875 0.9023437,-0.5742188 0.9023437,-1.1835938 0,-0.796875 -0.6328125,-1.2539062 -1.4882812,-1.2539062 -0.5859375,0 -1.0429688,0.2695312 -1.42968755,0.6210937 L 0.72775,-4.0443047 c 0.2929688,-0.2929687 0.65625,-0.5039062 1.0664063,-0.5039062 0.5390625,0 0.8671875,0.3046875 0.8671875,0.7851562 0,0.5273438 -0.3632813,0.9257813 -1.4179688,0.9257813 v 0.5039062 c 1.1835938,0 1.59375,0.3867188 1.59375,0.984375 0,0.56250001 -0.4335937,0.91406251 -1.0429687,0.91406251 -0.5742188,0 -0.96093755,-0.28125 -1.26562505,-0.58593751 l -0.328125,0.41015626 c 0.33984375,0.36328125 0.84375005,0.703125 1.62890625,0.703125 z m 0,0"
       style="fill:#5c5c5c;fill-opacity:1;fill-rule:nonzero;stroke:none"
       aria-label="3"
       transform="matrix(1.3333333,0,0,1.3333333,381.65467,56.576)" />
    <path
       id="path50"
       d="M 2.3660469,-0.00133594 H 2.9637031 V -1.3724297 h 0.6914063 v -0.515625 H 2.9637031 v -3.0820312 h -0.703125 l -2.12109372,3.1757812 v 0.421875 H 2.3660469 Z m 0,-1.88671876 H 0.79573438 L 1.9676094,-3.5872734 c 0.140625,-0.2460938 0.28125,-0.46875 0.4101562,-0.703125 h 0.023437 c -0.011719,0.2578125 -0.035156,0.703125 -0.035156,0.9492187 z m 0,0"
       style="fill:#5c5c5c;fill-opacity:1;fill-rule:nonzero;stroke:none"
       aria-label="4"
       transform="matrix(1.3333333,0,0,1.3333333,427.00933,56.576)" />
    <path
       id="path51"
       d="m 1.8275859,0.09346875 c 0.8554688,0 1.6757813,-0.609375 1.6757813,-1.68750005 0,-1.0664062 -0.703125,-1.546875 -1.546875,-1.546875 -0.3046875,0 -0.5390625,0.070312 -0.7617188,0.1992188 L 1.3236797,-4.41825 h 1.921875 V -4.9690313 H 0.76117969 l -0.1640625,2.390625 0.33984375,0.2109375 c 0.29296876,-0.1875 0.51562496,-0.3046875 0.85546876,-0.3046875 0.6445312,0 1.0546875,0.4101563 1.0546875,1.1015625 0,0.6914063 -0.4804688,1.1367188 -1.078125,1.1367188 -0.5976563,0 -0.97265626,-0.28125 -1.26562501,-0.5742188 l -0.31640625,0.42187505 c 0.3515625,0.33984375 0.83203126,0.6796875 1.64062496,0.6796875 z m 0,0"
       style="fill:#5c5c5c;fill-opacity:1;fill-rule:nonzero;stroke:none"
       aria-label="5"
       transform="matrix(1.3333333,0,0,1.3333333,472.364,56.516)" />
    <path
       id="path52"
       d="m 196.16005,45.35498 h 34.01616 v 25.5121 h -34.01616 z"
       style="fill:#ffffff;fill-opacity:1;fill-rule:nonzero;stroke:#6b6b6b;stroke-width:0.49814;stroke-linecap:butt;stroke-linejoin:miter;stroke-miterlimit:10;stroke-dasharray:none;stroke-opacity:1"
       transform="matrix(1.3333333,0,0,-1.3333333,9.3013333,155.30933)" />
    <path
       id="path53"
       d="m 4.2420313,-2.8713281 c 0,-0.5976563 -0.023437,-1.3710938 -0.3398438,-2.0390625 -0.3984375,-0.84375 -1.078125,-1.0546875 -1.59375,-1.0546875 -0.5390625,0 -1.21875,0.2109375 -1.6171875,1.0664062 -0.29296875,0.6210938 -0.328125,1.3476563 -0.328125,2.0273438 0,0.5859375 0.0117188,1.453125 0.3984375,2.16796872 0.421875,0.76171875 1.125,0.90234375 1.5351563,0.90234375 0.5859375,0 1.2421875,-0.2578125 1.6171875,-1.078125 0.2695312,-0.59765627 0.328125,-1.27734377 0.328125,-1.99218747 z m -1.9335938,2.84765622 c -0.2695312,0 -0.9140625,-0.12890625 -1.0898437,-1.13671872 -0.09375,-0.5390625 -0.09375,-1.3007813 -0.09375,-1.8164063 0,-0.609375 0,-1.3125 0.1171875,-1.8164062 0.1757812,-0.796875 0.75,-0.9492188 1.0546875,-0.9492188 0.3398437,0 0.9023437,0.1757813 1.078125,1.0078125 0.09375,0.4921875 0.09375,1.1953125 0.09375,1.7578125 0,0.5507813 0,1.3125 -0.09375,1.8398438 -0.1875,1.01953122 -0.84375,1.11328122 -1.0664063,1.11328122 z m 0,0"
       style="fill:#000000;fill-opacity:1;fill-rule:nonzero;stroke:none"
       aria-label="0"
       transform="matrix(1.3333333,0,0,1.3333333,290.45333,81.68)" />
    <path
       id="path54"
       d="m 230.17613,45.35498 h 34.01616 v 25.5121 h -34.01616 z"
       style="fill:#ffffff;fill-opacity:1;fill-rule:nonzero;stroke:#6b6b6b;stroke-width:0.49814;stroke-linecap:butt;stroke-linejoin:miter;stroke-miterlimit:10;stroke-dasharray:none;stroke-opacity:1"
       transform="matrix(1.3333333,0,0,-1.3333333,9.3013333,155.30933)" />
    <path
       id="path55"
       d="m 4.3949766,-5.4728906 c 0.082031,-0.09375 0.082031,-0.1171875 0.082031,-0.3046875 h -2.238281 c -1.125,0 -1.1484375,-0.1171875 -1.1835938,-0.28125 H 0.80903906 l -0.29296875,1.875 h 0.24609375 c 0.0351563,-0.2109375 0.10546875,-0.7148438 0.22265625,-0.8203125 0.0703125,-0.046875 0.77343749,-0.046875 0.90234379,-0.046875 h 1.875 l -0.8554688,1.171875 c -1.171875,1.6054687 -1.2773437,3.05859372 -1.2773437,3.57421872 0,0.09375 0,0.50390625 0.4101562,0.50390625 0.421875,0 0.421875,-0.3984375 0.421875,-0.515625 v -0.43359375 c 0,-1.32421872 0.1992188,-2.35546872 0.6796875,-3.01171872 z m 0,0"
       style="fill:#000000;fill-opacity:1;fill-rule:nonzero;stroke:none"
       aria-label="7"
       transform="matrix(1.3333333,0,0,1.3333333,335.808,81.68)" />
    <path
       id="path56"
       d="m 264.19221,45.35498 h 34.01616 v 25.5121 h -34.01616 z"
       style="fill:#ffffff;fill-opacity:1;fill-rule:nonzero;stroke:#6b6b6b;stroke-width:0.49814;stroke-linecap:butt;stroke-linejoin:miter;stroke-miterlimit:10;stroke-dasharray:none;stroke-opacity:1"
       transform="matrix(1.3333333,0,0,-1.3333333,9.3013333,155.30933)" />
    <path
       id="path57"
       d="m 0.25885938,-1.7580469 v 0.28125 H 2.7080781 v 0.77343752 c 0,0.328125 -0.023437,0.421875 -0.703125,0.421875 h -0.1875 v 0.281250005 c 0.5625,-0.023437505 1.1835938,-0.023437505 1.2539063,-0.023437505 0.035156,0 0.6914062,0 1.2539062,0.023437505 V -0.28148438 H 4.1260469 c -0.6679688,0 -0.703125,-0.09375 -0.703125,-0.421875 V -1.4767969 h 0.9140625 v -0.28125 H 3.4229219 v -4.0664062 c 0,-0.1875 0,-0.2460938 -0.1640625,-0.2460938 -0.1054688,0 -0.1171875,0.011719 -0.1992188,0.140625 z m 0.29296875,0 2.21484377,-3.3164062 v 3.3164062 z m 0,0"
       style="fill:#000000;fill-opacity:1;fill-rule:nonzero;stroke:none"
       aria-label="4"
       transform="matrix(1.3333333,0,0,1.3333333,381.16267,81.68)" />
    <path
       id="path58"
       d="m 298.2083,45.35498 h 34.01616 v 25.5121 H 298.2083 Z"
       style="fill:#ffffff;fill-opacity:1;fill-rule:nonzero;stroke:#6b6b6b;stroke-width:0.49814;stroke-linecap:butt;stroke-linejoin:miter;stroke-miterlimit:10;stroke-dasharray:none;stroke-opacity:1"
       transform="matrix(1.3333333,0,0,-1.3333333,9.3013333,155.30933)" />
    <path
       id="path59"
       d="m 4.6747656,-2.4484609 c -0.421875,-0.5390625 -0.5742187,-0.7265625 -0.9140625,-0.9726563 -0.609375,-0.46875 -1.1484375,-0.5390625 -1.4765625,-0.5390625 -1.0546875,0 -1.76953123,0.9726563 -1.76953123,2.0390625 0,1.03125001 0.69140623,2.01562501 1.74609373,2.01562501 1.2070313,0 1.9570313,-1.0546875 2.2734375,-1.51171871 0.421875,0.53906246 0.5742188,0.72656246 0.9023438,0.98437496 0.609375,0.45703125 1.1484375,0.52734375 1.4882812,0.52734375 1.0546875,0 1.7695313,-0.97265625 1.7695313,-2.02734371 0,-1.03125 -0.6914063,-2.0273438 -1.7460938,-2.0273438 -1.2070312,0 -1.96875,1.0546875 -2.2734375,1.5117188 z m 0.2578125,0.328125 c 0.4101563,-0.7148438 1.1132813,-1.5234375 2.0742188,-1.5234375 0.9492187,0 1.4648437,0.890625 1.4648437,1.7109375 0,0.9023437 -0.6679687,1.57031246 -1.40625,1.57031246 -0.75,0 -1.2304687,-0.609375 -2.1328125,-1.75781246 z m -0.65625,0.3867187 c -0.4101562,0.703125 -1.1132812,1.52343751 -2.0859375,1.52343751 -0.9375,0 -1.45312498,-0.90234371 -1.45312498,-1.71093751 0,-0.9140625 0.65624998,-1.5820312 1.40624998,-1.5820312 0.75,0 1.2304688,0.609375 2.1328125,1.7695312 z m 0,0"
       style="fill:#000000;fill-opacity:1;fill-rule:nonzero;stroke:none"
       aria-label="∞"
       transform="matrix(1.3333333,0,0,1.3333333,423.44667,80.401333)" />
    <path
       id="path60"
       d="m 332.22481,45.35498 h 34.01616 v 25.5121 h -34.01616 z"
       style="fill:#ffffff;fill-opacity:1;fill-rule:nonzero;stroke:#6b6b6b;stroke-width:0.49814;stroke-linecap:butt;stroke-linejoin:miter;stroke-miterlimit:10;stroke-dasharray:none;stroke-opacity:1"
       transform="matrix(1.3333333,0,0,-1.3333333,9.3013333,155.30933)" />
    <path
       id="path61"
       d="m 2.7317188,-5.7307031 c 0,-0.2226563 -0.011719,-0.234375 -0.234375,-0.234375 -0.5625,0.5625 -1.3828125,0.5625 -1.66406255,0.5625 v 0.28125 c 0.17578125,0 0.71484375,0 1.20703125,-0.234375 v 4.64062497 c 0,0.328125 -0.035156,0.43359375 -0.8671875,0.43359375 H 0.891875 V -2.34375e-4 C 1.2082813,-0.02367188 2.0051563,-0.02367188 2.3801563,-0.02367188 c 0.3632812,0 1.171875,0 1.4882812,0.023437505 V -0.28148438 h -0.28125 c -0.8320312,0 -0.8554687,-0.10546875 -0.8554687,-0.43359375 z m 0,0"
       style="fill:#000000;fill-opacity:1;fill-rule:nonzero;stroke:none"
       aria-label="1"
       transform="matrix(1.3333333,0,0,1.3333333,471.87333,81.68)" />
    <path
       id="path62"
       d="m 4.3937656,-1.9561719 c 0,-1.1132812 -0.8203125,-1.9921875 -1.78125,-1.9921875 -0.3867187,0 -0.75,0.1171875 -1.0429687,0.3398438 -0.011719,-0.1992188 -0.09375,-0.3046875 -0.4101563,-0.3046875 H 0.51485938 c -0.1640625,0 -0.421875,0.023437 -0.421875,0.3515625 0,0.3164062 0.26953125,0.328125 0.421875,0.328125 h 0.31640625 v 4.5 H 0.51485938 c -0.1640625,0 -0.421875,0.011719 -0.421875,0.3398437 0,0.3164063 0.26953125,0.328125 0.421875,0.328125 H 1.8976719 c 0.1523437,0 0.421875,-0.011719 0.421875,-0.328125 0,-0.328125 -0.2578125,-0.3398437 -0.4335938,-0.3398437 H 1.5812656 v -1.57031253 c 0.3398438,0.29296875 0.6796875,0.36328125 0.9375,0.36328125 0.984375,0 1.875,-0.8671875 1.875,-2.01562502 z m -0.7382812,0 c 0,0.796875 -0.5742188,1.33593752 -1.1601563,1.33593752 -0.6328125,0 -0.9140625,-0.72656252 -0.9140625,-1.11328122 v -0.6445313 c 0,-0.4804687 0.4804688,-0.9023437 0.9960938,-0.9023437 0.609375,0 1.078125,0.609375 1.078125,1.3242187 z m 5.4345703,-1.3828125 c 0,-0.1992187 -0.1054688,-0.609375 -0.890625,-0.609375 -0.4335938,0 -0.9609375,0.1289063 -1.4179688,0.5976563 v -0.1289063 c 0,-0.3164062 -0.070312,-0.4335937 -0.421875,-0.4335937 H 5.3986484 c -0.1640625,0 -0.421875,0.023437 -0.421875,0.3398437 0,0.328125 0.2460938,0.3398438 0.421875,0.3398438 h 0.6328125 v 2.56640622 H 5.3986484 c -0.1640625,0 -0.421875,0 -0.421875,0.328125 0,0.328125 0.2460938,0.339843755 0.421875,0.339843755 h 2.2734375 c 0.1640625,0 0.4335938,-0.011718755 0.4335938,-0.328125005 0,-0.33984375 -0.2695313,-0.33984375 -0.4335938,-0.33984375 H 6.7814609 V -1.6983594 c 0,-0.7617187 0.4570313,-1.5585937 1.4296875,-1.5820312 0,0.2109375 0.2109375,0.375 0.4453125,0.375 0.2226563,0 0.4335938,-0.1640625 0.4335938,-0.4335938 z m 4.4267583,3.01171877 c 0,-0.33984375 -0.269532,-0.33984375 -0.421875,-0.33984375 h -0.84375 V -3.4796094 c 0,-0.3164062 -0.07031,-0.4335937 -0.421875,-0.4335937 h -1.242188 c -0.164062,0 -0.433594,0.023437 -0.433594,0.3398437 0,0.328125 0.269532,0.3398438 0.433594,0.3398438 h 0.914063 v 2.56640622 h -0.984375 c -0.164063,0 -0.433594,0 -0.433594,0.33984375 0,0.31640625 0.269531,0.328125005 0.433594,0.328125005 h 2.578125 c 0.152343,0 0.421875,-0.011718755 0.421875,-0.328125005 z M 12.286344,-4.9327344 c 0,-0.2695312 -0.222656,-0.5039062 -0.515625,-0.5039062 -0.28125,0 -0.503906,0.234375 -0.503906,0.5039062 0,0.2929688 0.222656,0.515625 0.503906,0.515625 0.292969,0 0.515625,-0.2226562 0.515625,-0.515625 z m 6.055664,2.9765625 c 0,-1.1367187 -0.855469,-2.0273437 -1.875,-2.0273437 -1.007813,0 -1.863281,0.890625 -1.863281,2.0273437 0,1.14843752 0.878906,2.01562502 1.863281,2.01562502 0.996094,0 1.875,-0.87890625 1.875,-2.01562502 z m -0.75,-0.058594 c 0,0.7734375 -0.515625,1.39453122 -1.125,1.39453122 -0.609375,0 -1.113281,-0.62109372 -1.113281,-1.39453122 0,-0.75 0.539062,-1.2890625 1.113281,-1.2890625 0.597656,0 1.125,0.5390625 1.125,1.2890625 z m 5.61914,-1.3242188 c 0,-0.1992187 -0.105468,-0.609375 -0.890625,-0.609375 -0.433593,0 -0.960937,0.1289063 -1.417968,0.5976563 v -0.1289063 c 0,-0.3164062 -0.07031,-0.4335937 -0.421875,-0.4335937 h -0.960938 c -0.164062,0 -0.421875,0.023437 -0.421875,0.3398437 0,0.328125 0.246094,0.3398438 0.421875,0.3398438 h 0.632813 v 2.56640622 h -0.632813 c -0.164062,0 -0.421875,0 -0.421875,0.328125 0,0.328125 0.246094,0.339843755 0.421875,0.339843755 h 2.273438 c 0.164062,0 0.433593,-0.011718755 0.433593,-0.328125005 0,-0.33984375 -0.269531,-0.33984375 -0.433593,-0.33984375 H 20.902555 V -1.6983594 c 0,-0.7617187 0.457031,-1.5585937 1.429687,-1.5820312 0,0.2109375 0.210938,0.375 0.445313,0.375 0.222656,0 0.433593,-0.1640625 0.433593,-0.4335941 z m 4.426758,3.01171877 c 0,-0.33984375 -0.269531,-0.33984375 -0.421875,-0.33984375 h -0.84375 V -3.4796094 c 0,-0.3164062 -0.07031,-0.4335937 -0.421875,-0.4335937 h -1.242187 c -0.164063,0 -0.433594,0.023437 -0.433594,0.3398437 0,0.328125 0.269531,0.3398438 0.433594,0.3398438 h 0.914062 v 2.56640622 h -0.984375 c -0.164062,0 -0.433593,0 -0.433593,0.33984375 0,0.31640625 0.269531,0.328125005 0.433593,0.328125005 h 2.578125 c 0.152344,0 0.421875,-0.011718755 0.421875,-0.328125305 z M 26.407438,-4.9327344 c 0,-0.2695312 -0.222657,-0.5039062 -0.515625,-0.5039062 -0.28125,0 -0.503907,0.234375 -0.503907,0.5039062 0,0.2929688 0.222657,0.515625 0.503907,0.515625 0.292968,0 0.515625,-0.2226562 0.515625,-0.515625 z m 5.879882,3.7617188 c 0,-0.1875 0,-0.4101563 -0.375,-0.4101563 -0.351562,0 -0.363281,0.2226563 -0.363281,0.3984375 0,0.48046877 -0.457031,0.56250002 -0.644531,0.56250002 -0.597656,0 -0.597656,-0.41015622 -0.597656,-0.59765622 v -2.015625 h 1.359375 c 0.164062,0 0.421875,-0.011719 0.421875,-0.328125 0,-0.3398438 -0.246094,-0.3515625 -0.421875,-0.3515625 h -1.359375 v -0.6445313 c 0,-0.1875 -0.01172,-0.421875 -0.363282,-0.421875 -0.375,0 -0.386718,0.2226563 -0.386718,0.421875 v 0.6445313 h -0.679688 c -0.175781,0 -0.421875,0.023437 -0.421875,0.3515625 0,0.3164062 0.246094,0.328125 0.410156,0.328125 h 0.691407 v 2.0625 c 0,0.89062497 0.632812,1.23046872 1.3125,1.23046872 0.679687,0 1.417968,-0.41015625 1.417968,-1.23046872 z m 5.165039,-2.390625 c 0,-0.3398438 -0.246093,-0.3515625 -0.421875,-0.3515625 h -1.019531 c -0.164062,0 -0.421875,0.023437 -0.421875,0.3398437 0,0.328125 0.246094,0.3398438 0.421875,0.3398438 h 0.140625 l -0.773437,2.34374997 -0.878907,-2.34374997 h 0.117188 c 0.152344,0 0.410156,-0.011719 0.410156,-0.328125 0,-0.3398438 -0.246094,-0.3515625 -0.410156,-0.3515625 h -1.03125 c -0.164063,0 -0.421875,0.011719 -0.421875,0.3515625 0,0.3164062 0.269531,0.328125 0.421875,0.328125 h 0.222656 l 1.265625,3.16406247 c -0.04687,0.09375 -0.234375,0.7265625 -0.328125,0.92578125 -0.175781,0.33984378 -0.457031,0.53906248 -0.632812,0.53906248 0.01172,-0.035156 0.105468,-0.058594 0.105468,-0.1875 0,-0.26953123 -0.1875,-0.45703123 -0.445312,-0.45703123 -0.28125,0 -0.457031,0.1875 -0.457031,0.45703123 0,0.3984375 0.328125,0.7851563 0.796875,0.7851563 0.890625,0 1.335937,-1.19531253 1.371093,-1.28906253 l 1.335938,-3.93749997 h 0.210937 c 0.164063,0 0.421875,-0.011719 0.421875,-0.328125 z m 4.423829,4.6171875 c 0,-0.37500003 -0.351563,-0.38671878 -0.480469,-0.38671878 h -2.777344 c -0.128906,0 -0.480469,0.0117188 -0.480469,0.38671878 0,0.3632812 0.351563,0.375 0.480469,0.375 h 2.777344 c 0.128906,0 0.480469,-0.011719 0.480469,-0.375 z m 5.317382,0.5507812 c 0,-0.328125 -0.246093,-0.3398437 -0.421875,-0.3398437 h -0.351562 v -4.7929688 c 0,-0.1992187 -0.01172,-0.421875 -0.375,-0.421875 -0.304688,0 -0.363281,0.1054688 -0.375,0.3867188 -0.234375,-0.2226563 -0.574219,-0.3867188 -1.019531,-0.3867188 -1.007813,0 -1.933594,0.84375 -1.933594,2.0039063 0,1.12499997 0.855469,2.00390622 1.839844,2.00390622 0.515625,0 0.890625,-0.234375 1.113281,-0.43359375 V 1.2664844 H 45.31857 c -0.164062,0 -0.421875,0.011719 -0.421875,0.328125 0,0.328125 0.246094,0.3398437 0.421875,0.3398437 h 1.453125 c 0.164063,0 0.421875,-0.011719 0.421875,-0.328125 z m -1.523437,-3.375 c 0,0.46875 -0.410156,1.14843752 -1.078125,1.14843752 -0.609375,0 -1.148438,-0.58593752 -1.148438,-1.32421872 0,-0.7617188 0.585938,-1.3359375 1.242188,-1.3359375 0.609375,0 0.984375,0.6328125 0.984375,1.171875 z m 5.99707,1.42968752 c 0,-0.328125 -0.269531,-0.328125 -0.410156,-0.328125 H 50.940641 V -3.4796094 c 0,-0.3164062 -0.07031,-0.4335937 -0.421875,-0.4335937 h -0.644532 c -0.164062,0 -0.421875,0.023437 -0.421875,0.3515625 0,0.3164062 0.269532,0.328125 0.421875,0.328125 h 0.316407 v 1.7929687 c 0,0.72656252 -0.65625,0.82031252 -0.925782,0.82031252 -0.609375,0 -0.609375,-0.24609375 -0.609375,-0.50390622 v -2.3554688 c 0,-0.3164062 -0.07031,-0.4335937 -0.421875,-0.4335937 h -0.644531 c -0.164062,0 -0.421875,0.023437 -0.421875,0.3515625 0,0.3164062 0.269531,0.328125 0.421875,0.328125 h 0.316406 v 2.1679687 c 0,0.89062502 0.632813,1.12500002 1.324219,1.12500002 0.328125,0 0.667969,-0.08203125 0.972656,-0.28125 0.05859,0.2109375 0.246094,0.222656255 0.410157,0.222656255 h 0.632812 c 0.175781,0 0.421875,-0.011718755 0.421875,-0.339843755 z m 4.297852,-0.67968752 c 0,-0.3046875 -0.316407,-0.3164062 -0.375,-0.3164062 -0.199219,0 -0.28125,0.035156 -0.351563,0.234375 -0.1875,0.41015622 -0.621094,0.48046872 -0.84375,0.48046872 -0.609375,0 -1.207031,-0.38671872 -1.371094,-1.04296872 h 2.519532 c 0.222656,0 0.421875,0 0.421875,-0.3984375 0,-1.03125 -0.585938,-1.921875 -1.757813,-1.921875 -1.078125,0 -1.957031,0.9140625 -1.957031,2.015625 0,1.11328122 0.914062,2.02734372 2.074219,2.02734372 1.21875,0 1.640625,-0.84375 1.640625,-1.07812502 z m -0.773438,-1.3125 h -2.15625 c 0.140625,-0.5625 0.609375,-0.9726562 1.171875,-0.9726562 0.410156,0 0.890625,0.1992187 0.984375,0.9726562 z m 5.891602,1.99218752 c 0,-0.328125 -0.269531,-0.328125 -0.410156,-0.328125 H 60.356656 V -3.4796094 c 0,-0.3164062 -0.07031,-0.4335937 -0.421875,-0.4335937 H 59.29025 c -0.164062,0 -0.421875,0.023437 -0.421875,0.3515625 0,0.3164062 0.269531,0.328125 0.421875,0.328125 h 0.316406 v 1.7929687 c 0,0.72656252 -0.65625,0.82031252 -0.925781,0.82031252 -0.609375,0 -0.609375,-0.24609375 -0.609375,-0.50390622 v -2.3554688 c 0,-0.3164062 -0.07031,-0.4335937 -0.421875,-0.4335937 h -0.644531 c -0.164063,0 -0.421875,0.023437 -0.421875,0.3515625 0,0.3164062 0.269531,0.328125 0.421875,0.328125 H 57.3215 v 2.1679687 c 0,0.89062502 0.632813,1.12500002 1.324219,1.12500002 0.328125,0 0.667969,-0.08203125 0.972656,-0.28125 0.05859,0.2109375 0.246094,0.222656255 0.410156,0.222656255 h 0.632813 c 0.175781,0 0.421875,-0.011718755 0.421875,-0.339843755 z m 4.294922,-0.67968752 c 0,-0.3046875 -0.316407,-0.3164062 -0.375,-0.3164062 -0.199219,0 -0.28125,0.035156 -0.351563,0.234375 -0.1875,0.41015622 -0.621094,0.48046872 -0.84375,0.48046872 -0.609375,0 -1.207031,-0.38671872 -1.371094,-1.04296872 h 2.519532 c 0.222656,0 0.421875,0 0.421875,-0.3984375 0,-1.03125 -0.585938,-1.921875 -1.757813,-1.921875 -1.078125,0 -1.957031,0.9140625 -1.957031,2.015625 0,1.11328122 0.914062,2.02734372 2.074219,2.02734372 1.21875,0 1.640625,-0.84375 1.640625,-1.07812502 z m -0.773438,-1.3125 h -2.15625 c 0.140625,-0.5625 0.609375,-0.9726562 1.171875,-0.9726562 0.410156,0 0.890625,0.1992187 0.984375,0.9726562 z m 0,0"
       style="fill:#000000;fill-opacity:1;fill-rule:nonzero;stroke:none"
       aria-label="priority_queue"
       transform="matrix(1.3333333,0,0,1.3333333,279.32133,113.00667)" />
    <path
       id="path63"
       d="m 195.30948,-0.85045 h 70.86702 v 25.5121 h -70.86702 z"
       style="fill:#dbdbdb;fill-opacity:1;fill-rule:nonzero;stroke:#000000;stroke-width:0.84683;stroke-linecap:butt;stroke-linejoin:miter;stroke-miterlimit:10;stroke-dasharray:none;stroke-opacity:1"
       transform="matrix(1.3333333,0,0,-1.3333333,9.3013333,155.30933)" />
    <path
       id="path64"
       d="m 3.9137422,0.48089844 c 0,-0.15234375 -0.082031,-0.19921875 -0.1640625,-0.26953125 -1.1835938,-0.7734375 -1.5585938,-2.01562499 -1.5585938,-2.94140629 0,-0.6796875 0.1875,-1.265625 0.3867188,-1.6757812 0.3632812,-0.6796875 0.796875,-1.0429688 1.21875,-1.3242188 0.070312,-0.046875 0.1171875,-0.1289062 0.1171875,-0.2226562 0,-0.09375 -0.046875,-0.2695313 -0.2929688,-0.2695313 -0.2109375,0 -0.9609375,0.515625 -1.4648437,1.3007813 -0.46875,0.75 -0.6210938,1.546875 -0.6210938,2.1796875 0,0.5976562 0.1289063,1.453125 0.7148438,2.30859374 0.4335937,0.64453125 1.1484375,1.171875 1.3710937,1.171875 0.2460938,0 0.2929688,-0.17578125 0.2929688,-0.2578125 z m 4.7783203,-0.76171875 c 0,-0.3046875 -0.2226562,-0.3046875 -0.375,-0.3046875 H 7.5201875 V -5.2026953 c 0,-0.1289063 0,-0.375 -0.28125,-0.375 -0.1523437,0 -0.2226562,0.082031 -0.28125,0.1992187 -0.28125,0.6328125 -0.6328125,0.8671875 -0.9960937,0.9023438 -0.1289063,0 -0.328125,0.023437 -0.328125,0.2929687 0,0.1757813 0.09375,0.28125 0.3164062,0.28125 0.3515625,0 0.703125,-0.1875 0.9140625,-0.3632812 v 3.67968749 h -0.796875 c -0.1523437,0 -0.3867187,0 -0.3867187,0.3046875 0,0.2812499975 0.2460937,0.2812499975 0.3867187,0.2812499975 h 2.25 c 0.140625,0 0.375,0 0.375,-0.2812499975 z m 3.8291015,0.046875 c 0,-0.515625 -0.328125,-0.90234379 -0.75,-0.90234379 -0.351562,0 -0.574219,0.26953129 -0.574219,0.56250004 0,0.328125 0.246094,0.5742187475 0.574219,0.5742187475 0.07031,0 0.128906,-0.0117187475 0.140625,-0.0234374975 -0.03516,0.19921875 -0.199219,0.5390625 -0.65625,0.69140625 -0.08203,0.0351563 -0.246094,0.0820313 -0.246094,0.28125 0,0.14062496 0.140625,0.29296876 0.304688,0.29296876 0.292969,0 1.207031,-0.46875001 1.207031,-1.47656251 z M 23.05925,-1.6987891 c 0,-0.9140625 -0.703125,-1.7929687 -1.757812,-1.7929687 -0.292969,0 -0.65625,0.046875 -1.042969,0.2460937 v -1.6523437 h 2.109375 c 0.128906,0 0.375,0 0.375,-0.28125 0,-0.2929688 -0.234375,-0.2929688 -0.375,-0.2929688 h -2.390625 c -0.304688,0 -0.386719,0.070312 -0.386719,0.4101563 v 2.3320312 c 0,0.1757813 0,0.4101563 0.316406,0.4101563 0.164063,0 0.199219,-0.046875 0.28125,-0.140625 0.257813,-0.3164063 0.667969,-0.4453125 1.101563,-0.4453125 0.714844,0 1.101562,0.6328125 1.101562,1.2070312 0,0.6914063 -0.609375,1.21875004 -1.347656,1.21875004 -0.363281,0 -0.820312,-0.15234375 -1.019531,-0.52734374 l 0.01172,-0.011719 c 0.05859,-0.09375 0.07031,-0.1054687 0.08203,-0.2226562 0,0 0.01172,-0.023437 0.01172,-0.058594 0,-0.234375 -0.175782,-0.4101562 -0.410157,-0.4101562 -0.175781,0 -0.421875,0.1054687 -0.421875,0.4453125 0,0.72656249 0.738282,1.35937499 1.746094,1.35937499 1.125,0 2.015625,-0.796875 2.015625,-1.79296879 z m 3.641602,-1.03125 c 0,-0.609375 -0.128907,-1.453125 -0.714844,-2.3085937 -0.445313,-0.6445313 -1.136719,-1.1835938 -1.371094,-1.1835938 -0.257812,0 -0.292969,0.1992188 -0.292969,0.2695313 0,0.140625 0.08203,0.2109375 0.164063,0.2578125 1.183594,0.7851562 1.546875,2.015625 1.546875,2.953125 0,0.6796875 -0.1875,1.265625 -0.375,1.6640625 -0.363281,0.67968749 -0.808594,1.05468749 -1.230469,1.32421874 -0.07031,0.0585937 -0.105469,0.15234375 -0.105469,0.234375 0,0.0703125 0.04687,0.2578125 0.292969,0.2578125 0.199219,0 0.960938,-0.515625 1.453125,-1.2890625 0.480469,-0.75000004 0.632813,-1.54687504 0.632813,-2.17968754 z m 0,0"
       style="fill:#000000;fill-opacity:1;fill-rule:nonzero;stroke:none"
       aria-label="(1,5)"
       transform="matrix(1.3333333,0,0,1.3333333,298.12933,142.75333)" />
    <path
       id="path65"
       d="m 273.54652,-0.85045 h 70.86702 v 25.5121 h -70.86702 z"
       style="fill:#ffffff;fill-opacity:1;fill-rule:nonzero;stroke:#6b6b6b;stroke-width:0.49814;stroke-linecap:butt;stroke-linejoin:miter;stroke-miterlimit:10;stroke-dasharray:none;stroke-opacity:1"
       transform="matrix(1.3333333,0,0,-1.3333333,9.3013333,155.30933)" />
    <path
       id="path66"
       d="m 3.9140469,0.48089844 c 0,-0.15234375 -0.082031,-0.19921875 -0.1640625,-0.26953125 -1.1835938,-0.7734375 -1.5585938,-2.01562499 -1.5585938,-2.94140629 0,-0.6796875 0.1875,-1.265625 0.3867188,-1.6757812 0.3632812,-0.6796875 0.796875,-1.0429688 1.21875,-1.3242188 0.070312,-0.046875 0.1171875,-0.1289062 0.1171875,-0.2226562 0,-0.09375 -0.046875,-0.2695313 -0.2929688,-0.2695313 -0.2109375,0 -0.9609375,0.515625 -1.4648437,1.3007813 -0.46875,0.75 -0.6210938,1.546875 -0.6210938,2.1796875 0,0.5976562 0.1289063,1.453125 0.7148438,2.30859374 0.4335937,0.64453125 1.1484375,1.171875 1.3710937,1.171875 0.2460938,0 0.2929688,-0.17578125 0.2929688,-0.2578125 z M 9.1493984,-1.7925391 c 0,-0.2929687 -0.2460937,-0.2929687 -0.375,-0.2929687 H 8.1064297 v -3.1289063 c 0,-0.3046875 -0.070312,-0.3867187 -0.3867188,-0.3867187 H 7.4618984 c -0.2226562,0 -0.28125,0.011719 -0.3984375,0.1992187 l -2.015625,3.1875 c -0.082031,0.1171875 -0.082031,0.140625 -0.082031,0.328125 0,0.2578125 0.035156,0.375 0.375,0.375 h 2.2265625 v 0.92578129 H 7.0283047 c -0.1289063,0 -0.375,0 -0.375,0.29296875 0,0.2929687475 0.2460937,0.2929687475 0.375,0.2929687475 h 1.6171875 c 0.1289062,0 0.375,0 0.375,-0.2812499975 0,-0.3046875 -0.2460938,-0.3046875 -0.375,-0.3046875 H 8.1064297 V -1.5112891 h 0.6679687 c 0.1171875,0 0.375,0 0.375,-0.28125 z M 7.5673672,-2.0855078 h -1.921875 l 1.921875,-3.0585938 z m 4.9541018,1.85156249 c 0,-0.515625 -0.328125,-0.90234379 -0.75,-0.90234379 -0.351563,0 -0.574219,0.26953129 -0.574219,0.56250004 0,0.328125 0.246094,0.5742187475 0.574219,0.5742187475 0.07031,0 0.128906,-0.0117187475 0.140625,-0.0234374975 -0.03516,0.19921875 -0.199219,0.5390625 -0.65625,0.69140625 -0.08203,0.0351563 -0.246094,0.0820313 -0.246094,0.28125 0,0.14062496 0.140625,0.29296876 0.304687,0.29296876 0.292969,0 1.207032,-0.46875001 1.207032,-1.47656251 z M 23.129867,-1.5698828 c 0,-0.7382813 -0.550781,-1.2304688 -0.972656,-1.4296875 0.65625,-0.4570313 0.714844,-1.0546875 0.714844,-1.2890625 0,-0.6914063 -0.679688,-1.2890625 -1.699219,-1.2890625 -1.101563,0 -1.6875,0.4453125 -1.6875,1.0546875 0,0.2695312 0.199219,0.421875 0.421875,0.421875 0.222656,0 0.410156,-0.1757813 0.410156,-0.4101563 0,-0.082031 -0.02344,-0.1757812 -0.07031,-0.234375 0.292968,-0.2460937 0.878906,-0.2460937 0.925781,-0.2460937 0.632812,0 1.03125,0.328125 1.03125,0.703125 0,0.2460937 -0.117188,0.609375 -0.457031,0.8320312 -0.234375,0.1523438 -0.398438,0.1640625 -0.820313,0.1992188 -0.351562,0.011719 -0.527344,0.035156 -0.527344,0.3046875 0,0.2929687 0.246094,0.2929687 0.375,0.2929687 h 0.375 c 0.925782,0 1.324219,0.6210938 1.324219,1.078125 0,0.5742188 -0.515625,1.10156254 -1.289062,1.10156254 -0.234375,0 -0.914063,-0.0351562 -1.230469,-0.46875 l 0.02344,-0.0234375 c 0.05859,-0.0820312 0.05859,-0.10546874 0.07031,-0.18750004 0,0 0.01172,-0.035156 0.01172,-0.070312 0,-0.2226562 -0.175782,-0.4101562 -0.410157,-0.4101562 -0.222656,0 -0.421875,0.1289062 -0.421875,0.4335937 0,0.79687504 0.84375,1.30078129 1.957032,1.30078129 1.171875,0 1.945312,-0.80859375 1.945312,-1.66406249 z m 3.571289,-1.1601563 c 0,-0.609375 -0.128906,-1.453125 -0.714844,-2.3085937 -0.445312,-0.6445313 -1.136718,-1.1835938 -1.371093,-1.1835938 -0.257813,0 -0.292969,0.1992188 -0.292969,0.2695313 0,0.140625 0.08203,0.2109375 0.164062,0.2578125 1.183594,0.7851562 1.546875,2.015625 1.546875,2.953125 0,0.6796875 -0.1875,1.265625 -0.375,1.6640625 -0.363281,0.67968749 -0.808593,1.05468749 -1.230468,1.32421874 -0.07031,0.0585937 -0.105469,0.15234375 -0.105469,0.234375 0,0.0703125 0.04687,0.2578125 0.292969,0.2578125 0.199218,0 0.960937,-0.515625 1.453125,-1.2890625 0.480468,-0.75000004 0.632812,-1.54687504 0.632812,-2.17968754 z m 0,0"
       style="fill:#000000;fill-opacity:1;fill-rule:nonzero;stroke:none"
       aria-label="(4,3)"
       transform="matrix(1.3333333,0,0,1.3333333,402.44533,142.75333)" />
    <path
       id="path67"
       d="M 351.78398,-0.85045 H 422.651 v 25.5121 h -70.86702 z"
       style="fill:#ffffff;fill-opacity:1;fill-rule:nonzero;stroke:#6b6b6b;stroke-width:0.49814;stroke-linecap:butt;stroke-linejoin:miter;stroke-miterlimit:10;stroke-dasharray:none;stroke-opacity:1"
       transform="matrix(1.3333333,0,0,-1.3333333,9.3013333,155.30933)" />
    <path
       id="path68"
       d="m 3.9143516,0.48089844 c 0,-0.15234375 -0.082031,-0.19921875 -0.1640625,-0.26953125 -1.1835938,-0.7734375 -1.5585938,-2.01562499 -1.5585938,-2.94140629 0,-0.6796875 0.1875,-1.265625 0.3867188,-1.6757812 0.3632812,-0.6796875 0.796875,-1.0429688 1.21875,-1.3242188 0.070312,-0.046875 0.1171875,-0.1289062 0.1171875,-0.2226562 0,-0.09375 -0.046875,-0.2695313 -0.2929688,-0.2695313 -0.2109375,0 -0.9609375,0.515625 -1.4648437,1.3007813 -0.46875,0.75 -0.6210938,1.546875 -0.6210938,2.1796875 0,0.5976562 0.1289063,1.453125 0.7148438,2.30859374 0.4335937,0.64453125 1.1484375,1.171875 1.3710937,1.171875 0.2460938,0 0.2929688,-0.17578125 0.2929688,-0.2578125 z M 9.0090781,-5.1792578 c 0,-0.2929688 -0.234375,-0.2929688 -0.375,-0.2929688 h -2.90625 c -0.058594,-0.1523437 -0.2109375,-0.1523437 -0.2929687,-0.1523437 -0.328125,0 -0.328125,0.2109375 -0.328125,0.375 v 0.4101562 c 0,0.1640625 0,0.375 0.328125,0.375 0.328125,0 0.328125,-0.1875 0.328125,-0.4335937 h 2.25 c -0.5273438,0.5976562 -0.9609375,1.265625 -1.265625,1.9921875 -0.46875,1.0898437 -0.5390625,2.15624999 -0.5390625,2.56640624 0,0.1171875 0,0.43359375 0.328125,0.43359375 0.328125,0 0.328125,-0.3046875 0.328125,-0.4453125 0.035156,-2.01562499 1.0195312,-3.60937499 1.9453125,-4.51171879 0.1757812,-0.1640625 0.1992187,-0.1875 0.1992187,-0.3164062 z m 3.5097659,4.94531249 c 0,-0.515625 -0.328125,-0.90234379 -0.75,-0.90234379 -0.351563,0 -0.574219,0.26953129 -0.574219,0.56250004 0,0.328125 0.246094,0.5742187475 0.574219,0.5742187475 0.07031,0 0.128906,-0.0117187475 0.140625,-0.0234374975 -0.03516,0.19921875 -0.199219,0.5390625 -0.65625,0.69140625 -0.08203,0.0351563 -0.246094,0.0820313 -0.246094,0.28125 0,0.14062496 0.140625,0.29296876 0.304688,0.29296876 0.292968,0 1.207031,-0.46875001 1.207031,-1.47656251 z m 10.541015,-0.140625 v -0.2578125 c 0,-0.17578125 0,-0.37499999 -0.328125,-0.37499999 -0.339843,0 -0.339843,0.18749999 -0.339843,0.42187499 h -2.015625 c 0.480468,-0.41015625 1.488281,-1.20703129 1.710937,-1.41796879 0.328125,-0.3164062 0.972656,-0.9140625 0.972656,-1.8046875 0,-1.0664062 -0.890625,-1.7695312 -2.003906,-1.7695312 -1.042969,0 -1.757812,0.7148437 -1.757812,1.4765625 0,0.3632812 0.28125,0.4570312 0.421875,0.4570312 0.175781,0 0.410156,-0.1523437 0.410156,-0.421875 0,-0.1875 -0.07031,-0.2578125 -0.117188,-0.3046875 0.152344,-0.3867187 0.550782,-0.6210937 1.007813,-0.6210937 0.714844,0 1.371094,0.4101562 1.371094,1.1835937 0,0.6210938 -0.480469,1.1601563 -0.832032,1.4648438 l -2.132812,1.79296874 c -0.07031,0.0585937 -0.128906,0.1171875 -0.128906,0.2578125 0,0.2929687475 0.234375,0.2929687475 0.386718,0.2929687475 h 3 c 0.292969,0 0.375,-0.0703124975 0.375,-0.3749999975 z m 3.641602,-2.35546879 c 0,-0.609375 -0.128906,-1.453125 -0.714844,-2.3085937 -0.445312,-0.6445313 -1.136719,-1.1835938 -1.371094,-1.1835938 -0.257812,0 -0.292968,0.1992188 -0.292968,0.2695313 0,0.140625 0.08203,0.2109375 0.164062,0.2578125 1.183594,0.7851562 1.546875,2.015625 1.546875,2.953125 0,0.6796875 -0.1875,1.265625 -0.375,1.6640625 -0.363281,0.67968749 -0.808594,1.05468749 -1.230469,1.32421874 -0.07031,0.0585937 -0.105468,0.15234375 -0.105468,0.234375 0,0.0703125 0.04687,0.2578125 0.292968,0.2578125 0.199219,0 0.960938,-0.515625 1.453125,-1.2890625 0.480469,-0.75000004 0.632813,-1.54687504 0.632813,-2.17968754 z m 0,0"
       style="fill:#000000;fill-opacity:1;fill-rule:nonzero;stroke:none"
       aria-label="(7,2)"
       transform="matrix(1.3333333,0,0,1.3333333,506.76133,142.75333)" />
    <path
       id="path69"
       d="M 0.78439063,-0.00119531 H 4.3937656 v -0.6796875 H 3.0695469 V -6.3879141 H 2.4484531 c -0.3632812,0.2109375 -0.7851562,0.3632813 -1.359375,0.46875 v 0.515625 h 1.171875 v 4.72265629 H 0.78439063 Z M 7.0070469,-4.8644766 h 2.1914062 v 1.4765625 H 7.0070469 Z M 6.2687656,-6.8683828 v 4.078125 h 3.6679688 v -1.734375 h 1.8632816 v 3.1171875 h 0.738281 v -6 h -0.738281 v 2.2734375 H 9.9367344 v -1.734375 H 9.1984531 v 1.4296875 H 7.0070469 v -1.4296875 z m 1.0664063,4.875 v 2.50781249 h 5.3906251 v -0.609375 H 8.0734531 V -1.9933828 Z M 20.296109,-7.4191641 v 8.12109379 h 0.726563 V -7.4191641 Z m -4.347656,1.3710938 c 0.644531,0 1.042969,0.8203125 1.042969,2.1328125 0,1.3125 -0.398438,2.1328125 -1.042969,2.1328125 -0.632812,0 -1.03125,-0.8203125 -1.03125,-2.1328125 0,-1.3125 0.398438,-2.1328125 1.03125,-2.1328125 z m 0,-0.6914063 c -1.042969,0 -1.722656,1.0898438 -1.722656,2.8242188 0,1.734375 0.679687,2.8242187 1.722656,2.8242187 0.996094,0 1.664063,-0.9726562 1.722656,-2.5546875 h 1.019532 v 3.92578129 h 0.703125 V -7.2433828 h -0.703125 v 2.9882812 h -1.019532 c -0.08203,-1.5351562 -0.738281,-2.484375 -1.722656,-2.484375 z m 12.360352,-0.6796875 v 2.7539063 h -1.886719 v 0.609375 h 1.886719 v 4.75781249 h 0.726562 V -7.4191641 Z m -3.855469,0.703125 v 1.453125 c 0,1.5 -0.902344,3.0585938 -2.097656,3.6445313 l 0.46875,0.609375 c 0.914062,-0.5039063 1.675781,-1.5234375 2.015625,-2.71875 0.363281,1.1367187 1.101562,2.0976562 2.015625,2.5664062 l 0.445312,-0.5976562 c -1.171875,-0.5507813 -2.085937,-2.0390625 -2.085937,-3.5039063 v -1.453125 z m 13.728516,-0.703125 v 4.125 h 0.738281 v -1.6875 h 1.195312 v -0.6210937 h -1.195312 v -1.8164063 z m -5.179688,0.3984375 v 0.609375 h 2.90625 c -0.117187,1.265625 -1.277344,2.2617188 -3.269531,2.7070313 l 0.28125,0.6210937 c 2.355469,-0.5625 3.820312,-1.8984375 3.820312,-3.9375 z m 0.796875,7.04296879 v 0.59765625 h 5.414063 V 0.02224219 h -4.6875 v -0.92578125 h 4.394531 V -2.9191641 h -5.144531 v 0.5976563 h 4.417968 v 0.84375 H 33.799039 Z M 46.16525,-7.1261953 v 0.4570312 c 0,1.1484375 -1.417969,2.1210938 -2.90625,2.34375 l 0.304688,0.5976563 c 1.253906,-0.2109375 2.484375,-0.9140625 3,-1.8984375 0.515625,0.984375 1.734375,1.6875 2.988281,1.8984375 l 0.304687,-0.5976563 c -1.476562,-0.2226562 -2.917968,-1.21875 -2.917968,-2.34375 V -7.1261953 Z M 42.884,-2.8488516 v 0.6210938 h 3.28125 v 2.92968749 h 0.738281 V -2.2277578 h 3.304688 v -0.6210938 z m 16.163086,-4.5585937 v 4.6289062 h 0.738281 v -4.6289062 z m -3.609375,0.46875 c -1.21875,0 -2.109375,0.7734375 -2.109375,1.8984375 0,1.1132812 0.890625,1.8867187 2.109375,1.8867187 1.230469,0 2.121094,-0.7734375 2.121094,-1.8867187 0,-1.125 -0.890625,-1.8984375 -2.121094,-1.8984375 z m 0,0.6210937 c 0.808594,0 1.394531,0.5273438 1.394531,1.2773438 0,0.75 -0.585937,1.265625 -1.394531,1.265625 -0.808594,0 -1.382813,-0.515625 -1.382813,-1.265625 0,-0.75 0.574219,-1.2773438 1.382813,-1.2773438 z m 2.730469,3.890625 v 0.4335938 c 0,0.6328125 -0.398438,1.44140624 -1.160157,1.92187499 -0.75,-0.4453125 -1.125,-1.20703129 -1.125,-1.92187499 v -0.4335938 h -0.726562 v 0.4335938 c 0,0.7851562 -0.597656,1.65234374 -1.617188,2.02734374 l 0.363282,0.55078125 c 0.773437,-0.29296875 1.324218,-0.84375 1.605468,-1.5 0.246094,0.66796875 0.738282,1.265625 1.511719,1.5703125 0.75,-0.31640625 1.242188,-0.9375 1.488281,-1.59375 0.28125,0.6796875 0.84375,1.23046875 1.640625,1.5234375 L 60.51193,0.03396094 C 59.48068,-0.31760156 58.894742,-1.1496328 58.894742,-1.9933828 v -0.4335938 z m 3.210937,-0.8554687 v 0.5976562 h 7.359375 v -0.5976562 z m 0.996094,-3.8320313 v 2.7421875 h 5.519531 v -0.609375 h -4.78125 v -2.1328125 z m -0.04687,5.25 v 2.36718754 h 5.613281 v -0.609375 h -4.875 V -1.8644766 Z m 13.31543,-0.46875 c -1.675782,0 -2.695313,0.5625 -2.695313,1.51171879 0,0.94921875 1.019531,1.51171875 2.695313,1.51171875 1.675781,0 2.707031,-0.5625 2.707031,-1.51171875 0,-0.94921879 -1.03125,-1.51171879 -2.707031,-1.51171879 z m 0,0.5859375 c 1.21875,0 1.96875,0.3398438 1.96875,0.92578129 0,0.5859375 -0.75,0.92578125 -1.96875,0.92578125 -1.21875,0 -1.957032,-0.33984375 -1.957032,-0.92578125 0,-0.58593749 0.738282,-0.92578129 1.957032,-0.92578129 z m 1.933593,-5.671875 v 2.109375 h -1.59375 v 0.6210938 h 1.59375 v 2.109375 h 0.738282 v -4.8398438 z m -5.671875,0.5976563 v 0.609375 h 1.804688 v 0.28125 c 0,1.1484375 -0.820313,2.25 -2.027344,2.6835937 l 0.375,0.5976563 c 0.960938,-0.375 1.699219,-1.1132813 2.050781,-2.0625 0.351563,0.8320312 1.042969,1.5 1.945313,1.828125 l 0.375,-0.5859375 c -1.171875,-0.4101563 -1.96875,-1.4296875 -1.96875,-2.4726563 v -0.2695312 h 1.78125 v -0.609375 z m 9.398438,4.546875 v 2.85937499 h 5.261719 V -2.2746328 Z m 4.535156,0.5976562 v 1.65234379 h -3.79688 V -1.6769766 Z m -0.01172,-5.7421875 v 2.0273438 h -1.605468 v 0.6210937 h 1.605468 v 2.0976563 h 0.738282 v -4.7460938 z m -5.671875,0.5273438 v 0.609375 h 1.804688 v 0.2929687 c 0,1.1484375 -0.832031,2.2265625 -2.027344,2.6484375 l 0.375,0.5976563 c 0.960938,-0.3515625 1.699219,-1.0898438 2.039063,-2.015625 0.351562,0.8320312 1.054687,1.5 1.957031,1.8398437 l 0.375,-0.5976562 c -1.171875,-0.421875 -1.96875,-1.4296875 -1.96875,-2.4726563 v -0.2929687 h 1.78125 v -0.609375 z m 10.614258,0.070312 c -1.253906,0 -2.179687,0.7734375 -2.179687,1.9101562 0,1.125 0.925781,1.9101563 2.179687,1.9101563 1.265625,0 2.179688,-0.7851563 2.179688,-1.9101563 0,-1.1367187 -0.914063,-1.9101562 -2.179688,-1.9101562 z m 0,0.6445312 c 0.84375,0 1.453125,0.515625 1.453125,1.265625 0,0.75 -0.609375,1.265625 -1.453125,1.265625 -0.832031,0 -1.441406,-0.515625 -1.441406,-1.265625 0,-0.75 0.609375,-1.265625 1.441406,-1.265625 z m 3.246094,-1.2421875 v 8.12109379 h 0.738281 V -7.4191641 Z m -5.730469,6.3515625 c 1.453125,0 3.433594,-0.011719 5.261719,-0.3632812 l -0.07031,-0.5390625 c -1.757812,0.2695312 -3.808593,0.2695312 -5.285156,0.2695312 z m 14.150389,-3.09375 v 0.6210938 h 1.89844 v 4.24218749 h 0.73828 V -7.4191641 h -0.73828 v 3.2578125 z m -3.679686,-2.3789062 v 0.609375 h 2.964836 c -0.15234,1.8867187 -1.13671,3.4335937 -3.316398,4.5 l 0.410156,0.58593749 C 101.50998,-2.1926016 102.4592,-4.2199453 102.4592,-6.5402578 Z m 13.801756,-0.8789063 v 8.12109379 h 0.73828 V -7.4191641 Z m -5.46094,0.7617188 v 0.609375 h 3 v 1.6757812 h -2.97656 v 3.1171875 h 0.66797 c 1.40625,0 2.625,-0.058594 4.07812,-0.2929687 l -0.0703,-0.609375 c -1.41797,0.2226562 -2.58984,0.28125 -3.92578,0.28125 v -1.8867188 h 2.97656 v -2.8945312 z m 7.79297,3.0117187 v 0.5742188 h 7.35937 v -0.5742188 z m 0.90234,3.70312504 v 0.52734375 h 5.80078 V 0.05739844 h -5.0625 v -0.76171875 h 4.80469 V -2.4269766 h -5.5664 v 0.5390625 h 4.82812 v 0.6796875 h -4.80469 z m 0.0586,-4.85156254 v 0.5390625 h 5.60156 v -0.5390625 h -4.875 v -0.6914062 h 4.72266 v -1.6875 h -5.47266 v 0.5273437 h 4.74609 v 0.65625 h -4.72265 z m 13.47949,2.4492188 c -1.69922,0 -2.74219,0.5625 -2.74219,1.49999999 0,0.94921875 1.04297,1.51171875 2.74219,1.51171875 1.69922,0 2.75391,-0.5625 2.75391,-1.51171875 0,-0.93749999 -1.05469,-1.49999999 -2.75391,-1.49999999 z m 0,0.5742187 c 1.23047,0 2.00391,0.3398438 2.00391,0.92578129 0,0.5859375 -0.77344,0.92578125 -2.00391,0.92578125 -1.24219,0 -2.00391,-0.33984375 -2.00391,-0.92578125 0,-0.58593749 0.76172,-0.92578129 2.00391,-0.92578129 z m 0.17578,-5.484375 v 4.5351563 h 0.71484 v -1.9570313 h 1.06641 v 2.2382813 h 0.70313 v -4.96875 h -0.70313 v 2.1210937 h -1.06641 v -1.96875 z m -3.94922,0.5039063 v 0.609375 h 2.36719 c -0.14063,1.3710937 -1.07813,2.4492187 -2.71875,3.1289062 l 0.375,0.5507813 c 2.03906,-0.8671875 3.11719,-2.3320313 3.11719,-4.2890625 z m 13.75781,-0.65625 v 5.9414062 h 0.73829 v -5.9414062 z m -4.46484,5.4023437 v 2.51953129 h 5.46094 v -0.609375 H 135.5881 V -2.0051016 Z m 0.66797,-4.9570312 v 0.8203125 c 0,1.265625 -0.80859,2.4492187 -2.02734,2.9179687 l 0.39843,0.5976563 c 0.9375,-0.3867188 1.66407,-1.171875 2.01563,-2.15625 0.36328,0.9257812 1.07812,1.640625 2.0039,2.0039062 l 0.375,-0.5976562 c -1.19531,-0.4335938 -2.01562,-1.546875 -2.01562,-2.765625 v -0.8203125 z m 8.55469,1.5820312 c -1.16016,0 -1.94532,0.5976563 -1.94532,1.5117188 0,0.9140625 0.78516,1.5117187 1.94532,1.5117187 1.14843,0 1.93359,-0.5976562 1.93359,-1.5117187 0,-0.9140625 -0.78516,-1.5117188 -1.93359,-1.5117188 z m 0,0.5859375 c 0.73828,0 1.23047,0.3632813 1.23047,0.9257813 0,0.5625 -0.49219,0.9257812 -1.23047,0.9257812 -0.73828,0 -1.23047,-0.3632812 -1.23047,-0.9257812 0,-0.5625 0.49219,-0.9257813 1.23047,-0.9257813 z m 3.14062,-2.6132812 v 6.0820312 h 0.73828 v -2.8007812 h 1.19532 v -0.6210938 h -1.19532 v -2.6601562 z m -3.5039,0 v 0.984375 h -2.02735 v 0.609375 h 4.78125 v -0.609375 h -2.01562 v -0.984375 z m -0.79688,5.5898437 v 2.33203129 h 5.40234 v -0.609375 h -4.67578 V -1.8176016 Z m 12.47754,-5.6015625 v 8.12109379 h 0.75 V -3.5988516 h 1.32422 v -0.6210937 h -1.32422 v -3.1992188 z m -5.13281,0.796875 v 5.3085938 h 0.63281 c 1.52344,0 2.58984,-0.046875 3.84375,-0.2695313 l -0.0937,-0.6445312 c -1.18359,0.2226562 -2.21484,0.28125 -3.64453,0.28125 v -4.0664063 h 3.02344 v -0.609375 z m 8.69531,6.73828129 c 0.32812,0 0.59766,-0.24609375 0.59766,-0.62109375 0,-0.375 -0.26954,-0.62109374 -0.59766,-0.62109374 -0.32813,0 -0.58594,0.24609374 -0.58594,0.62109374 0,0.375 0.25781,0.62109375 0.58594,0.62109375 z m 0,0"
       style="fill:#000000;fill-opacity:1;fill-rule:nonzero;stroke:none"
       aria-label="1번에서갈수있는정점의거리를갱신한다."
       transform="matrix(1.3333333,0,0,1.3333333,279.32133,180.568)" />
    <g
       id="g69"
       aria-label="거리가가장짧은(1,5)가먼저나온다."
       transform="matrix(1.3333333,0,0,1.3333333,279.32133,201.75333)">
      <path
         id="path70"
         d="m 4.4757969,-4.1597266 v 0.6210938 H 6.3742344 V 0.70355469 H 7.1125156 V -7.4175391 H 6.3742344 v 3.2578125 z M 0.79610938,-6.5386328 v 0.609375 H 3.7609531 c -0.1523437,1.8867187 -1.1367187,3.4335937 -3.31640622,4.5 l 0.41015625,0.58593749 C 3.5500156,-2.1909766 4.4992344,-4.2183203 4.4992344,-6.5386328 Z M 14.600797,-7.4175391 v 8.12109379 h 0.738281 V -7.4175391 Z m -5.4609376,0.7617188 v 0.609375 h 2.9999996 v 1.6757812 H 9.1632969 v 3.1171875 h 0.6679687 c 1.4062504,0 2.6250004,-0.058594 4.0781254,-0.2929687 l -0.07031,-0.609375 c -1.417969,0.2226562 -2.589844,0.28125 -3.9257811,0.28125 V -3.7612891 H 12.889859 V -6.6558203 Z M 22.428922,-7.4175391 v 8.10937504 h 0.75 V -3.5034766 h 1.289062 v -0.6210937 h -1.289062 v -3.2929688 z m -5.0625,0.8789063 v 0.609375 h 2.976562 c -0.164062,1.921875 -1.289062,3.46875 -3.351562,4.5117187 l 0.410156,0.57421879 c 2.625,-1.31249999 3.691406,-3.39843749 3.691406,-5.69531249 z m 15.319336,-0.8789063 v 8.10937504 h 0.75 V -3.5034766 h 1.289062 v -0.6210937 h -1.289062 v -3.2929688 z m -5.0625,0.8789063 v 0.609375 h 2.976562 c -0.164062,1.921875 -1.289062,3.46875 -3.351562,4.5117187 l 0.410156,0.57421879 c 2.625,-1.31249999 3.691406,-3.39843749 3.691406,-5.69531249 z m 11.542969,4.2304687 c -1.664063,0 -2.671875,0.5507813 -2.671875,1.48828129 0,0.94921875 1.007812,1.5 2.671875,1.5 1.652343,0 2.648437,-0.55078125 2.648437,-1.5 0,-0.93749999 -0.996094,-1.48828129 -2.648437,-1.48828129 z m 0,0.5976563 c 1.195312,0 1.921875,0.328125 1.921875,0.89062499 0,0.57421875 -0.726563,0.9140625 -1.921875,0.9140625 -1.207032,0 -1.933594,-0.33984375 -1.933594,-0.9140625 0,-0.56249999 0.726562,-0.89062499 1.933594,-0.89062499 z m -3.527344,-5.0976563 v 0.609375 h 1.816406 v 0.3164063 c 0,1.1601562 -0.820312,2.203125 -2.039062,2.625 l 0.375,0.5976562 c 0.972656,-0.3515625 1.710937,-1.0664062 2.050781,-1.9921875 0.351562,0.8085938 1.03125,1.4296875 1.957031,1.7460938 l 0.351563,-0.5859375 C 38.967008,-3.8784766 38.19357,-4.8276953 38.19357,-5.8941016 v -0.3046875 h 1.792969 v -0.609375 z m 5.367187,-0.609375 v 4.8867188 h 0.738282 v -2.203125 h 1.195312 v -0.6210938 h -1.195312 v -2.0625 z m 8.581055,4.6640625 V 0.60980469 H 52.16525 V -2.7534766 h -0.667969 v 1.0429688 h -1.21875 v -1.0429688 z m 0.691406,1.6054688 h 1.21875 v 1.17187499 h -1.21875 z m -1.746093,-5.8125 v 0.609375 h 0.5625 v 0.4570312 c 0,0.5390625 -0.175782,1.3359375 -0.726563,1.8632813 -0.574219,-0.5390625 -0.75,-1.3710938 -0.75,-1.8632813 v -0.4570312 h 0.574219 v -0.609375 h -2.285156 v 0.609375 h 1.019531 v 0.4570312 c 0,0.6445313 -0.410156,1.6054688 -1.300781,2.0390625 l 0.375,0.5390625 c 0.621093,-0.3046875 1.03125,-0.8554687 1.242187,-1.4296875 0.175781,0.5859375 0.503906,1.1835938 1.113281,1.5117188 0.621094,-0.328125 0.949219,-0.9140625 1.125,-1.5117188 0.210938,0.5859375 0.609375,1.1367188 1.253907,1.4296875 l 0.363281,-0.5390625 c -0.890625,-0.4335937 -1.289063,-1.3476562 -1.289063,-2.0390625 v -0.4570312 h 0.972657 v -0.609375 z m 2.894531,-0.4570313 v 4.2304688 H 52.16525 V -5.0737891 H 53.1965 V -5.7066016 H 52.16525 V -7.4175391 Z M 46.587125,0.03558594 V 0.60980469 H 47.009 c 1.03125,0 1.59375,-0.0117188 2.34375,-0.15234375 l -0.07031,-0.5625 c -0.644532,0.12890625 -1.136719,0.140625 -1.980469,0.140625 v -0.85546875 h 1.804687 V -2.6714453 h -2.53125 v 0.5507812 h 1.816407 v 0.7617188 h -1.804688 z m 7.371094,-3.18750004 v 0.609375 h 7.324219 v -0.609375 z m 3.65625,-3.984375 c -1.734375,0 -2.847656,0.5976563 -2.847656,1.6171875 0,1.0078125 1.113281,1.6171875 2.847656,1.6171875 1.746094,0 2.859375,-0.609375 2.859375,-1.6171875 0,-1.0195312 -1.113281,-1.6171875 -2.859375,-1.6171875 z m 0,0.5976563 c 1.289062,0 2.097656,0.3867187 2.097656,1.0195312 0,0.6328125 -0.808594,1.0078125 -2.097656,1.0078125 -1.265625,0 -2.085938,-0.375 -2.085938,-1.0078125 0,-0.6328125 0.820313,-1.0195312 2.085938,-1.0195312 z m -2.707031,4.7109375 v 2.34374999 h 5.566406 v -0.609375 H 55.645719 V -1.8276953 Z m 0,0"
         style="fill:#000000;fill-opacity:1;fill-rule:nonzero;stroke:none" />
      <path
         id="path71"
         d="m 67.683805,0.48089844 c 0,-0.15234375 -0.08203,-0.19921875 -0.164063,-0.26953125 -1.183594,-0.7734375 -1.558594,-2.01562499 -1.558594,-2.94140629 0,-0.6796875 0.1875,-1.265625 0.386719,-1.6757812 0.363281,-0.6796875 0.796875,-1.0429688 1.21875,-1.3242188 0.07031,-0.046875 0.117188,-0.1289062 0.117188,-0.2226562 0,-0.09375 -0.04687,-0.2695313 -0.292969,-0.2695313 -0.210938,0 -0.960938,0.515625 -1.464844,1.3007813 -0.46875,0.75 -0.621094,1.546875 -0.621094,2.1796875 0,0.5976562 0.128907,1.453125 0.714844,2.30859374 0.433594,0.64453125 1.148438,1.171875 1.371094,1.171875 0.246094,0 0.292969,-0.17578125 0.292969,-0.2578125 z m 4.77832,-0.76171875 c 0,-0.3046875 -0.222656,-0.3046875 -0.375,-0.3046875 H 71.29025 V -5.2026953 c 0,-0.1289063 0,-0.375 -0.28125,-0.375 -0.152344,0 -0.222656,0.082031 -0.28125,0.1992187 -0.28125,0.6328125 -0.632812,0.8671875 -0.996094,0.9023438 -0.128906,0 -0.328125,0.023437 -0.328125,0.2929687 0,0.1757813 0.09375,0.28125 0.316407,0.28125 0.351562,0 0.703125,-0.1875 0.914062,-0.3632812 v 3.67968749 h -0.796875 c -0.152344,0 -0.386719,0 -0.386719,0.3046875 0,0.2812499975 0.246094,0.2812499975 0.386719,0.2812499975 h 2.25 c 0.140625,0 0.375,0 0.375,-0.2812499975 z m 3.826172,0.046875 c 0,-0.515625 -0.328125,-0.90234379 -0.75,-0.90234379 -0.351563,0 -0.574219,0.26953129 -0.574219,0.56250004 0,0.328125 0.246094,0.5742187475 0.574219,0.5742187475 0.07031,0 0.128906,-0.0117187475 0.140625,-0.0234374975 -0.03516,0.19921875 -0.199219,0.5390625 -0.65625,0.69140625 -0.08203,0.0351563 -0.246094,0.0820313 -0.246094,0.28125 0,0.14062496 0.140625,0.29296876 0.304688,0.29296876 0.292968,0 1.207031,-0.46875001 1.207031,-1.47656251 z M 86.829313,-1.6987891 c 0,-0.9140625 -0.703125,-1.7929687 -1.757813,-1.7929687 -0.292969,0 -0.65625,0.046875 -1.042969,0.2460937 v -1.6523437 h 2.109375 c 0.128907,0 0.375,0 0.375,-0.28125 0,-0.2929688 -0.234375,-0.2929688 -0.375,-0.2929688 h -2.390625 c -0.304687,0 -0.386718,0.070312 -0.386718,0.4101563 v 2.3320312 c 0,0.1757813 0,0.4101563 0.316406,0.4101563 0.164062,0 0.199219,-0.046875 0.28125,-0.140625 0.257812,-0.3164063 0.667969,-0.4453125 1.101562,-0.4453125 0.714844,0 1.101563,0.6328125 1.101563,1.2070312 0,0.6914063 -0.609375,1.21875004 -1.347656,1.21875004 -0.363282,0 -0.820313,-0.15234375 -1.019532,-0.52734374 l 0.01172,-0.011719 c 0.05859,-0.09375 0.07031,-0.1054687 0.08203,-0.2226562 0,0 0.01172,-0.023437 0.01172,-0.058594 0,-0.234375 -0.175781,-0.4101562 -0.410156,-0.4101562 -0.175781,0 -0.421875,0.1054687 -0.421875,0.4453125 0,0.72656249 0.738281,1.35937499 1.746094,1.35937499 1.125,0 2.015625,-0.796875 2.015625,-1.79296879 z m 3.641601,-1.03125 c 0,-0.609375 -0.128906,-1.453125 -0.714844,-2.3085937 -0.445312,-0.6445313 -1.136718,-1.1835938 -1.371093,-1.1835938 -0.257813,0 -0.292969,0.1992188 -0.292969,0.2695313 0,0.140625 0.08203,0.2109375 0.164062,0.2578125 1.183594,0.7851562 1.546875,2.015625 1.546875,2.953125 0,0.6796875 -0.1875,1.265625 -0.375,1.6640625 -0.363281,0.67968749 -0.808593,1.05468749 -1.230468,1.32421874 -0.07031,0.0585937 -0.105469,0.15234375 -0.105469,0.234375 0,0.0703125 0.04687,0.2578125 0.292969,0.2578125 0.199218,0 0.960937,-0.515625 1.453125,-1.2890625 0.480468,-0.75000004 0.632812,-1.54687504 0.632812,-2.17968754 z m 0,0"
         style="fill:#000000;fill-opacity:1;fill-rule:nonzero;stroke:none" />
      <path
         id="path72"
         d="m 98.389859,-7.4175391 v 8.10937504 h 0.75 V -3.5034766 h 1.289061 v -0.6210937 h -1.289061 v -3.2929688 z m -5.0625,0.8789063 v 0.609375 h 2.976563 c -0.164063,1.921875 -1.289063,3.46875 -3.351563,4.5117187 l 0.410157,0.57421879 c 2.625,-1.31249999 3.691406,-3.39843749 3.691406,-5.69531249 z m 13.189451,0.4335937 v 2.578125 h -2.25 v -2.578125 z m 2.57813,-1.3007812 v 2.25 h -1.85156 v -1.546875 h -3.70313 v 3.7734375 h 3.70313 v -1.6289063 h 1.85156 v 3.0703125 h 0.73828 v -5.9179687 z m -4.42969,5.3789062 v 2.54296879 h 5.40234 v -0.609375 h -4.66406 V -2.0269141 Z m 10.94238,-2.4375 v 0.609375 h 1.73438 v 4.55859379 h 0.73828 V -7.4175391 h -0.73828 v 2.953125 z m -3.96093,-2.1210937 v 0.6210937 h 1.8164 v 0.9257813 c 0,1.4414062 -0.94922,2.9765625 -2.12109,3.5507812 l 0.44531,0.59765629 c 0.92578,-0.49218749 1.71094,-1.53515629 2.0625,-2.74218749 0.375,1.1367187 1.125,2.109375 2.05078,2.5664062 l 0.4336,-0.5976562 c -1.17188,-0.5390625 -2.10938,-2.015625 -2.10938,-3.375 v -0.9257813 h 1.82813 v -0.6210937 z m 15.50683,-0.8320313 v 8.10937504 h 0.75 V -3.5620703 h 1.28906 v -0.609375 h -1.28906 v -3.2460938 z m -5.15625,5.4375 v 0.6210938 h 0.64453 c 1.23047,0 2.47266,-0.082031 3.85547,-0.3632813 l -0.0937,-0.6210937 c -1.3125,0.2695312 -2.50781,0.3515625 -3.66797,0.3632812 v -4.640625 h -0.73828 z m 11.57813,-4.59375 c 1.28906,0 2.09765,0.3867188 2.09765,1.0195313 0,0.6445312 -0.80859,1.0078125 -2.09765,1.0078125 -1.26563,0 -2.08594,-0.3632813 -2.08594,-1.0078125 0,-0.6328125 0.82031,-1.0195313 2.08594,-1.0195313 z m 0,-0.5976562 c -1.73438,0 -2.84766,0.609375 -2.84766,1.6171875 0,0.9492187 0.96094,1.5351562 2.48438,1.6054687 v 0.84375 h -3.29297 v 0.609375 h 7.32422 v -0.609375 h -3.29297 v -0.84375 c 1.53515,-0.070312 2.48437,-0.65625 2.48437,-1.6054687 0,-1.0078125 -1.11328,-1.6171875 -2.85937,-1.6171875 z m -2.70703,5.34375 v 2.34374999 h 5.5664 v -0.609375 h -4.82812 V -1.8276953 Z m 12.78515,-5.5898438 v 8.12109379 h 0.75 V -3.5972266 h 1.32422 v -0.6210937 h -1.32422 v -3.1992188 z m -5.13281,0.796875 v 5.3085938 h 0.63281 c 1.52344,0 2.58985,-0.046875 3.84375,-0.2695313 l -0.0937,-0.6445312 c -1.18359,0.2226562 -2.21484,0.28125 -3.64453,0.28125 v -4.0664063 h 3.02344 v -0.609375 z m 8.69531,6.73828129 c 0.32813,0 0.59766,-0.24609375 0.59766,-0.62109375 0,-0.375 -0.26953,-0.62109374 -0.59766,-0.62109374 -0.32812,0 -0.58594,0.24609374 -0.58594,0.62109374 0,0.375 0.25782,0.62109375 0.58594,0.62109375 z m 0,0"
         style="fill:#000000;fill-opacity:1;fill-rule:nonzero;stroke:none" />
    </g>
  </g>
</svg>
