<?xml version="1.0" encoding="UTF-8" standalone="no"?>
<!-- Created with Inkscape (http://www.inkscape.org/) -->

<svg
   version="1.1"
   id="svg1"
   width="583.91998"
   height="262.61334"
   viewBox="0 0 583.91998 262.61334"
   sodipodi:docname="3.pdf"
   xmlns:inkscape="http://www.inkscape.org/namespaces/inkscape"
   xmlns:sodipodi="http://sodipodi.sourceforge.net/DTD/sodipodi-0.dtd"
   xmlns="http://www.w3.org/2000/svg"
   xmlns:svg="http://www.w3.org/2000/svg">
  <defs
     id="defs1" />
  <sodipodi:namedview
     id="namedview1"
     pagecolor="#ffffff"
     bordercolor="#000000"
     borderopacity="0.25"
     inkscape:showpageshadow="2"
     inkscape:pageopacity="0.0"
     inkscape:pagecheckerboard="0"
     inkscape:deskcolor="#d1d1d1">
    <inkscape:page
       x="0"
       y="0"
       inkscape:label="1"
       id="page1"
       width="583.91998"
       height="262.61334"
       margin="0"
       bleed="0" />
  </sodipodi:namedview>
  <g
     id="g1"
     inkscape:groupmode="layer"
     inkscape:label="1">
    <path
       id="path1"
       d="M 69.49881,81.48897 25.12749,14.41605"
       style="fill:none;stroke:#858585;stroke-width:0.57784;stroke-linecap:butt;stroke-linejoin:miter;stroke-miterlimit:10;stroke-dasharray:none;stroke-opacity:1"
       transform="matrix(1.3333333,0,0,-1.3333333,9.4346667,155.30933)" />
    <path
       id="path2"
       d="M 3.33876,0 C 2.92874,0.10161 1.12645,0.67744 0,1.30406 V -1.30406 C 1.12645,-0.67744 2.92874,-0.10161 3.33876,0 Z"
       style="fill:#858585;fill-opacity:1;fill-rule:nonzero;stroke:#858585;stroke-width:0.57784;stroke-linecap:butt;stroke-linejoin:miter;stroke-miterlimit:10;stroke-dasharray:none;stroke-opacity:1"
       transform="matrix(-0.7356,1.11196,1.11196,0.7356,42.938,136.08793)" />
    <path
       id="path3"
       d="M 83.57375,81.48897 127.94551,14.41605"
       style="fill:none;stroke:#858585;stroke-width:0.57784;stroke-linecap:butt;stroke-linejoin:miter;stroke-miterlimit:10;stroke-dasharray:none;stroke-opacity:1"
       transform="matrix(1.3333333,0,0,-1.3333333,9.4346667,155.30933)" />
    <path
       id="path4"
       d="M 3.33876,0 C 2.92874,0.10161 1.12645,0.67744 0,1.30406 V -1.30406 C 1.12645,-0.67744 2.92874,-0.10161 3.33876,0 Z"
       style="fill:#858585;fill-opacity:1;fill-rule:nonzero;stroke:#858585;stroke-width:0.57784;stroke-linecap:butt;stroke-linejoin:miter;stroke-miterlimit:10;stroke-dasharray:none;stroke-opacity:1"
       transform="matrix(0.7356,1.11196,1.11196,-0.7356,180.02867,136.08793)" />
    <path
       id="path5"
       d="M 76.53629,79.37106 V 62.07408"
       style="fill:none;stroke:#858585;stroke-width:0.57784;stroke-linecap:butt;stroke-linejoin:miter;stroke-miterlimit:10;stroke-dasharray:none;stroke-opacity:1"
       transform="matrix(1.3333333,0,0,-1.3333333,9.4346667,155.30933)" />
    <path
       id="path6"
       d="M 3.33876,0 C 2.92874,0.10161 1.12645,0.67744 0,1.30406 V -1.30406 C 1.12645,-0.67744 2.92874,-0.10161 3.33876,0 Z"
       style="fill:#858585;fill-opacity:1;fill-rule:nonzero;stroke:#858585;stroke-width:0.57784;stroke-linecap:butt;stroke-linejoin:miter;stroke-miterlimit:10;stroke-dasharray:none;stroke-opacity:1"
       transform="matrix(0,1.3333333,1.3333333,0,111.48305,72.543893)" />
    <path
       id="path7"
       d="M 66.25803,37.23453 29.51944,10.23564"
       style="fill:none;stroke:#858585;stroke-width:0.57784;stroke-linecap:butt;stroke-linejoin:miter;stroke-miterlimit:10;stroke-dasharray:none;stroke-opacity:1"
       transform="matrix(1.3333333,0,0,-1.3333333,9.4346667,155.30933)" />
    <path
       id="path8"
       d="M 3.33876,0 C 2.92874,0.10161 1.12645,0.67744 0,1.30406 V -1.30406 C 1.12645,-0.67744 2.92874,-0.10161 3.33876,0 Z"
       style="fill:#858585;fill-opacity:1;fill-rule:nonzero;stroke:#858585;stroke-width:0.57784;stroke-linecap:butt;stroke-linejoin:miter;stroke-miterlimit:10;stroke-dasharray:none;stroke-opacity:1"
       transform="matrix(-1.07436,0.78950667,0.78950667,1.07436,48.79392,141.66181)" />
    <path
       id="path9"
       d="m 76.53629,32.03194 v -68.6046"
       style="fill:none;stroke:#858585;stroke-width:0.57784;stroke-linecap:butt;stroke-linejoin:miter;stroke-miterlimit:10;stroke-dasharray:none;stroke-opacity:1"
       transform="matrix(1.3333333,0,0,-1.3333333,9.4346667,155.30933)" />
    <path
       id="path10"
       d="M 3.33876,0 C 2.92874,0.10161 1.12645,0.67744 0,1.30406 V -1.30406 C 1.12645,-0.67744 2.92874,-0.10161 3.33876,0 Z"
       style="fill:#858585;fill-opacity:1;fill-rule:nonzero;stroke:#858585;stroke-width:0.57784;stroke-linecap:butt;stroke-linejoin:miter;stroke-miterlimit:10;stroke-dasharray:none;stroke-opacity:1"
       transform="matrix(0,1.3333333,1.3333333,0,111.48305,204.07288)" />
    <path
       id="path11"
       d="M 25.1487,-8.44647 63.5844,-42.41241"
       style="fill:none;stroke:#858585;stroke-width:0.57784;stroke-linecap:butt;stroke-linejoin:miter;stroke-miterlimit:10;stroke-dasharray:none;stroke-opacity:1"
       transform="matrix(1.3333333,0,0,-1.3333333,9.4346667,155.30933)" />
    <path
       id="path12"
       d="M 3.33876,0 C 2.92874,0.10161 1.12645,0.67744 0,1.30406 V -1.30406 C 1.12645,-0.67744 2.92874,-0.10161 3.33876,0 Z"
       style="fill:#858585;fill-opacity:1;fill-rule:nonzero;stroke:#858585;stroke-width:0.57784;stroke-linecap:butt;stroke-linejoin:miter;stroke-miterlimit:10;stroke-dasharray:none;stroke-opacity:1"
       transform="matrix(0.99902667,0.88289333,0.88289333,-0.99902667,94.21384,211.85921)" />
    <path
       id="path13"
       d="M 127.9243,-8.44647 89.48845,-42.41269"
       style="fill:none;stroke:#858585;stroke-width:0.57784;stroke-linecap:butt;stroke-linejoin:miter;stroke-miterlimit:10;stroke-dasharray:none;stroke-opacity:1"
       transform="matrix(1.3333333,0,0,-1.3333333,9.4346667,155.30933)" />
    <path
       id="path14"
       d="M 3.33876,0 C 2.92874,0.10161 1.12645,0.67744 0,1.30406 V -1.30406 C 1.12645,-0.67744 2.92874,-0.10161 3.33876,0 Z"
       style="fill:#858585;fill-opacity:1;fill-rule:nonzero;stroke:#858585;stroke-width:0.57784;stroke-linecap:butt;stroke-linejoin:miter;stroke-miterlimit:10;stroke-dasharray:none;stroke-opacity:1"
       transform="matrix(-0.99904,0.88288,0.88288,0.99904,128.7526,211.85959)" />
    <path
       id="path15"
       d="m 34.76976,49.24258 h 5.86307 v 6.96497 h -5.86307 z"
       style="fill:#ffffff;fill-opacity:1;fill-rule:nonzero;stroke:none"
       transform="matrix(1.3333333,0,0,-1.3333333,9.4346667,155.30933)" />
    <path
       id="path16"
       d="m 1.3816328,1.640625e-4 h 0.65625 C 2.1199141,-1.9334297 2.3660078,-3.0701484 3.5378828,-4.5818672 V -4.9685859 H 0.33866406 v 0.5507812 H 2.8230391 c -0.984375,1.359375 -1.3476563,2.5429688 -1.4414063,4.4179687625 z m 0,0"
       style="fill:#000000;fill-opacity:1;fill-rule:nonzero;stroke:none"
       aria-label="7"
       transform="matrix(1.3333333,0,0,1.3333333,57.122667,88.324)" />
    <path
       id="path17"
       d="m 112.15643,49.24258 h 5.86307 v 6.96497 h -5.86307 z"
       style="fill:#ffffff;fill-opacity:1;fill-rule:nonzero;stroke:none"
       transform="matrix(1.3333333,0,0,-1.3333333,9.4346667,155.30933)" />
    <path
       id="path18"
       d="M 2.3667031,1.640625e-4 H 2.9643594 V -1.3709297 h 0.6914062 v -0.515625 H 2.9643594 v -3.0820312 h -0.703125 l -2.12109377,3.1757812 v 0.421875 H 2.3667031 Z m 0,-1.8867187625 H 0.79639063 L 1.9682656,-3.5857734 c 0.140625,-0.2460938 0.28125,-0.46875 0.4101563,-0.703125 h 0.023437 c -0.011719,0.2578125 -0.035156,0.703125 -0.035156,0.9492187 z m 0,0"
       style="fill:#000000;fill-opacity:1;fill-rule:nonzero;stroke:none"
       aria-label="4"
       transform="matrix(1.3333333,0,0,1.3333333,160.30533,88.324)" />
    <path
       id="path19"
       d="m 80.12439,65.11673 h 5.86307 v 6.96497 h -5.86307 z"
       style="fill:#ffffff;fill-opacity:1;fill-rule:nonzero;stroke:none"
       transform="matrix(1.3333333,0,0,-1.3333333,9.4346667,155.30933)" />
    <path
       id="path20"
       d="M 0.61061719,0.00111719 H 3.4231172 v -0.52734375 h -1.03125 V -4.9676328 H 1.8996797 c -0.2695313,0.1640625 -0.5976563,0.28125 -1.05468751,0.3632812 v 0.4101563 H 1.7590547 v 3.66796874 H 0.61061719 Z m 0,0"
       style="fill:#000000;fill-opacity:1;fill-rule:nonzero;stroke:none"
       aria-label="1"
       transform="matrix(1.3333333,0,0,1.3333333,117.596,67.158667)" />
    <path
       id="path21"
       d="m 40.72235,22.26787 h 5.86307 v 7.05562 h -5.86307 z"
       style="fill:#ffffff;fill-opacity:1;fill-rule:nonzero;stroke:none"
       transform="matrix(1.3333333,0,0,-1.3333333,9.4346667,155.30933)" />
    <path
       id="path22"
       d="M 0.30363281,-0.00120313 H 3.5145703 V -0.55198438 H 2.0731641 c -0.2578125,0 -0.5625,0.0234375 -0.8320313,0.046875 1.171875,-1.23046872 2.0390625,-2.16796872 2.0390625,-3.10546872 0,-0.8789063 -0.5859375,-1.453125 -1.5,-1.453125 -0.6445312,0 -1.08984374,0.2929687 -1.49999999,0.75 l 0.36328125,0.3632812 c 0.29296875,-0.328125 0.64453124,-0.5976562 1.06640624,-0.5976562 0.6328125,0 0.9375,0.4101562 0.9375,0.9726562 0,0.8085938 -0.84375,1.7109375 -2.34374999,3.19921877 z m 0,0"
       style="fill:#000000;fill-opacity:1;fill-rule:nonzero;stroke:none"
       aria-label="2"
       transform="matrix(1.3333333,0,0,1.3333333,65.06,124.29067)" />
    <path
       id="path23"
       d="m 80.69145,-8.63 h 5.86307 v 7.05559 h -5.86307 z"
       style="fill:#ffffff;fill-opacity:1;fill-rule:nonzero;stroke:none"
       transform="matrix(1.3333333,0,0,-1.3333333,9.4346667,155.30933)" />
    <path
       id="path24"
       d="m 1.8277969,0.09414062 c 0.8554687,0 1.6757812,-0.609375 1.6757812,-1.68750002 0,-1.0664062 -0.703125,-1.546875 -1.546875,-1.546875 -0.3046875,0 -0.5390625,0.070312 -0.7617187,0.1992188 l 0.1289062,-1.4765625 h 1.921875 V -4.9683594 H 0.76139063 l -0.1640625,2.390625 0.33984375,0.2109375 c 0.29296872,-0.1875 0.51562502,-0.3046875 0.85546872,-0.3046875 0.6445313,0 1.0546875,0.4101563 1.0546875,1.1015625 0,0.69140627 -0.4804687,1.13671877 -1.078125,1.13671877 -0.5976562,0 -0.97265622,-0.28125 -1.26562497,-0.57421877 l -0.31640625,0.42187502 c 0.3515625,0.33984375 0.83203122,0.6796875 1.64062502,0.6796875 z m 0,0"
       style="fill:#000000;fill-opacity:1;fill-rule:nonzero;stroke:none"
       aria-label="5"
       transform="matrix(1.3333333,0,0,1.3333333,118.352,165.36667)" />
    <path
       id="path25"
       d="m 40.15573,-33.29204 h 5.86307 v 7.05562 h -5.86307 z"
       style="fill:#ffffff;fill-opacity:1;fill-rule:nonzero;stroke:none"
       transform="matrix(1.3333333,0,0,-1.3333333,9.4346667,155.30933)" />
    <path
       id="path26"
       d="M 0.30520313,3.203125e-4 H 3.5161406 V -0.55046094 H 2.0747344 c -0.2578125,0 -0.5625,0.0234375 -0.8320313,0.046875 1.171875,-1.23046876 2.0390625,-2.16796876 2.0390625,-3.10546876 0,-0.8789062 -0.5859375,-1.453125 -1.5,-1.453125 -0.6445312,0 -1.08984372,0.2929688 -1.49999997,0.75 l 0.36328125,0.3632813 c 0.29296875,-0.328125 0.64453122,-0.5976563 1.06640622,-0.5976563 0.6328125,0 0.9375,0.4101563 0.9375,0.9726563 0,0.8085937 -0.84375,1.7109375 -2.34374997,3.19921871 z m 0,0"
       style="fill:#000000;fill-opacity:1;fill-rule:nonzero;stroke:none"
       aria-label="2"
       transform="matrix(1.3333333,0,0,1.3333333,64.304,198.37067)" />
    <path
       id="path27"
       d="m 111.02275,-33.2467 h 5.86307 v 6.96497 h -5.86307 z"
       style="fill:#ffffff;fill-opacity:1;fill-rule:nonzero;stroke:none"
       transform="matrix(1.3333333,0,0,-1.3333333,9.4346667,155.30933)" />
    <path
       id="path28"
       d="M 0.60910156,-5.546875e-4 H 3.4216016 V -0.52789844 h -1.03125 V -4.9693047 H 1.8981641 c -0.2695313,0.1640625 -0.5976563,0.28125 -1.05468754,0.3632813 v 0.4101562 H 1.7575391 v 3.66796876 H 0.60910156 Z m 0,0"
       style="fill:#000000;fill-opacity:1;fill-rule:nonzero;stroke:none"
       aria-label="1"
       transform="matrix(1.3333333,0,0,1.3333333,158.79333,198.30933)" />
    <path
       id="path29"
       d="M 76.53629,79.37106 V 62.39136"
       style="fill:none;stroke:#000000;stroke-width:1.11581;stroke-linecap:butt;stroke-linejoin:miter;stroke-miterlimit:10;stroke-dasharray:none;stroke-opacity:1"
       transform="matrix(1.3333333,0,0,-1.3333333,9.4346667,155.30933)" />
    <path
       id="path30"
       d="M 2.62674,0 C 2.30415,0.0843 0.88622,0.56209 0,1.08202 V -1.08202 C 0.88622,-0.56209 2.30415,-0.0843 2.62674,0 Z"
       style="fill:#000000;fill-opacity:1;fill-rule:nonzero;stroke:#000000;stroke-width:1.07715;stroke-linecap:butt;stroke-linejoin:miter;stroke-miterlimit:10;stroke-dasharray:none;stroke-opacity:1"
       transform="matrix(0,1.3333333,1.3333333,0,111.48305,72.120853)" />
    <path
       id="path31"
       d="M 66.25803,37.23453 29.77509,10.42351"
       style="fill:none;stroke:#000000;stroke-width:1.11581;stroke-linecap:butt;stroke-linejoin:miter;stroke-miterlimit:10;stroke-dasharray:none;stroke-opacity:1"
       transform="matrix(1.3333333,0,0,-1.3333333,9.4346667,155.30933)" />
    <path
       id="path32"
       d="M 2.62674,0 C 2.30415,0.0843 0.88622,0.56209 0,1.08202 V -1.08202 C 0.88622,-0.56209 2.30415,-0.0843 2.62674,0 Z"
       style="fill:#000000;fill-opacity:1;fill-rule:nonzero;stroke:#000000;stroke-width:1.07715;stroke-linecap:butt;stroke-linejoin:miter;stroke-miterlimit:10;stroke-dasharray:none;stroke-opacity:1"
       transform="matrix(-1.07436,0.78950667,0.78950667,1.07436,49.1348,141.41132)" />
    <path
       id="path33"
       d="M 25.1487,-8.44647 63.31638,-42.17555"
       style="fill:none;stroke:#000000;stroke-width:0.99628;stroke-linecap:butt;stroke-linejoin:miter;stroke-miterlimit:10;stroke-dasharray:2.98883, 2.98883;stroke-dashoffset:0;stroke-opacity:1"
       transform="matrix(1.3333333,0,0,-1.3333333,9.4346667,155.30933)" />
    <path
       id="path34"
       d="M 2.8339,0 C 2.48589,0.0898 0.9561,0.59866 0,1.15242 V -1.15242 C 0.9561,-0.59866 2.48589,-0.0898 2.8339,0 Z"
       style="fill:#000000;fill-opacity:1;fill-rule:nonzero;stroke:#000000;stroke-width:0.99628;stroke-linecap:butt;stroke-linejoin:miter;stroke-miterlimit:10;stroke-dasharray:none;stroke-opacity:1"
       transform="matrix(0.99902667,0.88289333,0.88289333,-0.99902667,93.856507,211.5434)" />
    <path
       id="path35"
       d="m 90.70969,92.1271 c 0,7.82786 -6.34555,14.1734 -14.1734,14.1734 -7.82785,0 -14.17341,-6.34554 -14.17341,-14.1734 0,-7.82783 6.34556,-14.17338 14.17341,-14.17338 7.82785,0 14.1734,6.34555 14.1734,14.17338 z"
       style="fill:#dedede;fill-opacity:1;fill-rule:nonzero;stroke:#000000;stroke-width:0.84683;stroke-linecap:butt;stroke-linejoin:miter;stroke-miterlimit:10;stroke-dasharray:none;stroke-opacity:1"
       transform="matrix(1.3333333,0,0,-1.3333333,9.4346667,155.30933)" />
    <path
       id="path36"
       d="M 0.78420313,-2.1875e-4 H 4.3935781 v -0.6796875 H 3.0693594 V -6.3869375 H 2.4482656 C 2.0849844,-6.176 1.6631094,-6.0236563 1.0888906,-5.9181875 v 0.515625 h 1.171875 v 4.72265625 H 0.78420313 Z m 0,0"
       style="fill:#000000;fill-opacity:1;fill-rule:nonzero;stroke:none"
       aria-label="1"
       transform="matrix(1.3333333,0,0,1.3333333,108.16533,36.734667)" />
    <path
       id="path37"
       d="m 29.76422,0 c 0,7.82784 -6.34555,14.17339 -14.1734,14.17339 C 7.76297,14.17339 1.41742,7.82784 1.41742,0 c 0,-7.82784 6.34555,-14.17339 14.1734,-14.17339 7.82785,0 14.1734,6.34555 14.1734,14.17339 z"
       style="fill:#b8b8b8;fill-opacity:1;fill-rule:nonzero;stroke:#000000;stroke-width:1.04608;stroke-linecap:butt;stroke-linejoin:miter;stroke-miterlimit:10;stroke-dasharray:none;stroke-opacity:1"
       transform="matrix(1.3333333,0,0,-1.3333333,9.4346667,155.30933)" />
    <path
       id="path38"
       d="m 0.399125,-6.71875e-4 h 4.125 V -0.70379688 H 2.6725625 c -0.328125,0 -0.7382812,0.0351563 -1.078125,0.0585938 1.5117188,-1.58203122 2.625,-2.78906252 2.625,-3.99609372 0,-1.125 -0.75,-1.8632812 -1.921875,-1.8632812 -0.8320312,0 -1.40625,0.375 -1.93359375,0.9609375 l 0.46875,0.4570312 C 1.2077188,-5.5084844 1.66475,-5.8483281 2.1920938,-5.8483281 c 0.8203125,0 1.21875,0.5273437 1.21875,1.2539062 0,1.0429688 -1.0898438,2.1914063 -3.0117188,4.11328127 z m 0,0"
       style="fill:#000000;fill-opacity:1;fill-rule:nonzero;stroke:none"
       aria-label="2"
       transform="matrix(1.3333333,0,0,1.3333333,26.905333,159.64933)" />
    <path
       id="path39"
       d="m 151.65558,0 c 0,7.82784 -6.34555,14.17339 -14.1734,14.17339 -7.82784,0 -14.17339,-6.34555 -14.17339,-14.17339 0,-7.82784 6.34555,-14.17339 14.17339,-14.17339 7.82785,0 14.1734,6.34555 14.1734,14.17339 z"
       style="fill:#dedede;fill-opacity:1;fill-rule:nonzero;stroke:#000000;stroke-width:0.84683;stroke-linecap:butt;stroke-linejoin:miter;stroke-miterlimit:10;stroke-dasharray:none;stroke-opacity:1"
       transform="matrix(1.3333333,0,0,-1.3333333,9.4346667,155.30933)" />
    <path
       id="path40"
       d="m 2.3548047,0.11592187 c 1.171875,0 2.1210937,-0.6796875 2.1210937,-1.81640627 0,-0.8789062 -0.6210937,-1.453125 -1.3945312,-1.640625 v -0.035156 c 0.6914062,-0.2460938 1.171875,-0.7382813 1.171875,-1.5234375 0,-1.0195313 -0.8085938,-1.6054688 -1.921875,-1.6054688 -0.75,0 -1.33593751,0.3398438 -1.82812501,0.796875 l 0.43359375,0.515625 c 0.37499996,-0.3867187 0.83203126,-0.65625 1.37109376,-0.65625 0.6914062,0 1.1015625,0.3984375 1.1015625,1.0195313 0,0.6679687 -0.4570313,1.1835937 -1.8164063,1.1835937 v 0.6445313 c 1.5234375,0 2.0507813,0.5039062 2.0507813,1.265625 0,0.7265625 -0.5507813,1.17187497 -1.3359375,1.17187497 -0.75,0 -1.2421875,-0.36328125 -1.62890626,-0.74999997 l -0.421875,0.52734372 c 0.43359375,0.46875 1.07812496,0.90234375 2.09765626,0.90234355 z m 0,0"
       style="fill:#000000;fill-opacity:1;fill-rule:nonzero;stroke:none"
       aria-label="3"
       transform="matrix(1.3333333,0,0,1.3333333,189.42667,159.572)" />
    <path
       id="path41"
       d="m 90.70969,-53.85875 c 0,7.82785 -6.34555,14.1734 -14.1734,14.1734 -7.82785,0 -14.17341,-6.34555 -14.17341,-14.1734 0,-7.82785 6.34556,-14.1734 14.17341,-14.1734 7.82785,0 14.1734,6.34555 14.1734,14.1734 z"
       style="fill:#dedede;fill-opacity:1;fill-rule:nonzero;stroke:#000000;stroke-width:0.84683;stroke-linecap:butt;stroke-linejoin:miter;stroke-miterlimit:10;stroke-dasharray:none;stroke-opacity:1"
       transform="matrix(1.3333333,0,0,-1.3333333,9.4346667,155.30933)" />
    <path
       id="path42"
       d="M 3.0459219,1.09375e-4 H 3.8193594 V -1.7694219 h 0.8789062 v -0.65625 H 3.8193594 V -6.3866094 H 2.9170156 l -2.74218747,4.078125 v 0.5390625 H 3.0459219 Z m 0,-2.425781275 h -2.015625 l 1.5,-2.1796875 c 0.1875,-0.328125 0.3632812,-0.5976562 0.5273437,-0.9023437 h 0.035156 c -0.023437,0.328125 -0.046875,0.890625 -0.046875,1.21875 z m 0,0"
       style="fill:#000000;fill-opacity:1;fill-rule:nonzero;stroke:none"
       aria-label="4"
       transform="matrix(1.3333333,0,0,1.3333333,108.16533,231.38267)" />
    <path
       id="path43"
       d="m 90.70969,44.788 c 0,7.82784 -6.34555,14.1734 -14.1734,14.1734 -7.82785,0 -14.17341,-6.34556 -14.17341,-14.1734 0,-7.82784 6.34556,-14.17339 14.17341,-14.17339 7.82785,0 14.1734,6.34555 14.1734,14.17339 z"
       style="fill:#dedede;fill-opacity:1;fill-rule:nonzero;stroke:#000000;stroke-width:0.84683;stroke-linecap:butt;stroke-linejoin:miter;stroke-miterlimit:10;stroke-dasharray:none;stroke-opacity:1"
       transform="matrix(1.3333333,0,0,-1.3333333,9.4346667,155.30933)" />
    <path
       id="path44"
       d="m 2.3427969,0.11819531 c 1.1132812,0 2.15625,-0.78515625 2.15625,-2.15625001 0,-1.3828125 -0.890625,-2.0039062 -1.9804688,-2.0039062 -0.3984375,0 -0.6914062,0.09375 -0.984375,0.2578125 l 0.1640625,-1.8984375 h 2.4726563 v -0.703125 H 0.98342188 l -0.2109375,3.0703125 0.43359372,0.28125 c 0.375,-0.2578125 0.65625,-0.3984375 1.1015625,-0.3984375 0.8203125,0 1.359375,0.5273437 1.359375,1.4179687 0,0.890625 -0.6210937,1.45312501 -1.3945312,1.45312501 -0.7617188,0 -1.2539063,-0.3515625 -1.61718752,-0.72656251 l -0.41015625,0.53906251 c 0.4453125,0.43359375 1.06640627,0.8671875 2.09765627,0.8671875 z m 0,0"
       style="fill:#000000;fill-opacity:1;fill-rule:nonzero;stroke:none"
       aria-label="5"
       transform="matrix(1.3333333,0,0,1.3333333,108.16533,99.776)" />
    <path
       id="path45"
       d="m 188.50609,-70.29189 v 176.58434 c 0,1.10048 0.89209,1.99255 1.99255,1.99255 h 225.62424 c 1.10048,0 1.99255,-0.89207 1.99255,-1.99255 V -70.29189 c 0,-1.10047 -0.89207,-1.99255 -1.99255,-1.99255 H 190.49864 c -1.10046,0 -1.99255,0.89208 -1.99255,1.99255 z"
       style="fill:#fcfcfc;fill-opacity:1;fill-rule:nonzero;stroke:#c7c7c7;stroke-width:0.44832;stroke-linecap:butt;stroke-linejoin:miter;stroke-miterlimit:10;stroke-dasharray:none;stroke-opacity:1"
       transform="matrix(1.3333333,0,0,-1.3333333,9.4346667,155.30933)" />
    <path
       id="path46"
       d="m 4.6043125,-0.34039844 c 0,-0.328125 -0.2695312,-0.328125 -0.421875,-0.328125 H 3.8660313 V -5.0513359 c 0,-0.3164063 -0.070312,-0.421875 -0.421875,-0.421875 H 2.799625 c -0.1640625,0 -0.421875,0 -0.421875,0.3398437 0,0.3164063 0.2695313,0.328125 0.421875,0.328125 h 0.3164063 v 1.1601563 C 2.8465,-3.8443047 2.5066563,-3.9497734 2.1668125,-3.9497734 c -0.984375,0 -1.86328125,0.84375 -1.86328125,2.0039062 0,1.12500001 0.82031255,2.00390626 1.78125005,2.00390626 0.4453125,0 0.7851562,-0.1875 1.03125,-0.41015625 0.023437,0.2578125 0.070312,0.3515625025 0.421875,0.3515625025 h 0.6328125 c 0.1757812,0 0.4335937,-0.0117187525 0.4335937,-0.3398437525 z m -1.5,-1.42968746 c 0,0.4570312 -0.3632812,1.14843746 -0.984375,1.14843746 -0.5976562,0 -1.078125,-0.58593746 -1.078125,-1.32421876 0,-0.796875 0.5742188,-1.3359375 1.1484375,-1.3359375 0.5273438,0 0.9140625,0.4453125 0.9140625,0.9023438 z m 5.7041016,1.44140621 c 0,-0.33984375 -0.2695313,-0.33984375 -0.421875,-0.33984375 h -0.84375 V -3.4810234 c 0,-0.3164063 -0.070312,-0.4335938 -0.421875,-0.4335938 H 5.8787266 c -0.1640625,0 -0.4335938,0.023437 -0.4335938,0.3398438 0,0.328125 0.2695313,0.3398437 0.4335938,0.3398437 h 0.9140625 v 2.56640626 h -0.984375 c -0.1640625,0 -0.4335938,0 -0.4335938,0.33984375 0,0.31640625 0.2695313,0.3281250025 0.4335938,0.3281250025 h 2.578125 c 0.1523437,0 0.421875,-0.0117187525 0.421875,-0.3281250025 z M 7.5779453,-4.9341484 c 0,-0.2695313 -0.2226562,-0.5039063 -0.515625,-0.5039063 -0.28125,0 -0.5039062,0.234375 -0.5039062,0.5039063 0,0.2929687 0.2226562,0.515625 0.5039062,0.515625 0.2929688,0 0.515625,-0.2226563 0.515625,-0.515625 z m 5.9736327,3.7734375 c 0,-0.9609375 -1.171875,-1.1601563 -1.464844,-1.2070313 l -0.902343,-0.1640625 c -0.234375,-0.046875 -0.480469,-0.1523437 -0.480469,-0.3515625 0,-0.2109375 0.28125,-0.421875 1.042969,-0.421875 0.65625,0 0.773437,0.2109375 0.808593,0.421875 0.01172,0.1757813 0.03516,0.3515625 0.363282,0.3515625 0.363281,0 0.375,-0.2109375 0.375,-0.421875 v -0.609375 c 0,-0.1640625 -0.01172,-0.421875 -0.328125,-0.421875 -0.199219,0 -0.269532,0.082031 -0.304688,0.1523438 -0.375,-0.1523438 -0.738281,-0.1523438 -0.902344,-0.1523438 -1.523437,0 -1.722656,0.7734375 -1.722656,1.1015625 0,0.84375 0.9375,1.0195313 1.78125,1.1484375 0.398438,0.058594 1.066406,0.1640625 1.066406,0.5742188 0,0.30468746 -0.316406,0.53906246 -1.042968,0.53906246 -0.386719,0 -0.84375,-0.0820313 -1.054688,-0.72656246 -0.05859,-0.1992188 -0.09375,-0.3046875 -0.375,-0.3046875 -0.363281,0 -0.375,0.2226562 -0.375,0.4335937 v 0.84375001 c 0,0.1640625 0.01172,0.43359375 0.328125,0.43359375 0.09375,0 0.246094,0 0.363281,-0.3046875 0.421875,0.28125 0.855469,0.3046875 1.101563,0.3046875 1.441406,0 1.722656,-0.78515625 1.722656,-1.21874996 z m 4.614258,-0.011719 c 0,-0.1875 0,-0.4101562 -0.375,-0.4101562 -0.351563,0 -0.363281,0.2226562 -0.363281,0.3984375 0,0.48046871 -0.457032,0.56249996 -0.644532,0.56249996 -0.597656,0 -0.597656,-0.41015626 -0.597656,-0.59765626 v -2.015625 h 1.359375 c 0.164063,0 0.421875,-0.011719 0.421875,-0.328125 0,-0.3398437 -0.246094,-0.3515625 -0.421875,-0.3515625 h -1.359375 v -0.6445312 c 0,-0.1875 -0.01172,-0.421875 -0.363281,-0.421875 -0.375,0 -0.386719,0.2226562 -0.386719,0.421875 v 0.6445312 H 14.75568 c -0.175782,0 -0.421875,0.023437 -0.421875,0.3515625 0,0.3164063 0.246093,0.328125 0.410156,0.328125 h 0.691406 v 2.0625 c 0,0.89062501 0.632813,1.23046876 1.3125,1.23046876 0.679688,0 1.417969,-0.41015625 1.417969,-1.23046876 z m 0,0"
       style="fill:#000000;fill-opacity:1;fill-rule:nonzero;stroke:none"
       aria-label="dist"
       transform="matrix(1.3333333,0,0,1.3333333,279.45467,32.309333)" />
    <path
       id="path47"
       d="M 0.60896875,-0.00133594 H 3.4214688 v -0.52734375 h -1.03125 V -4.9700859 H 1.8980313 C 1.6285,-4.8060234 1.300375,-4.6888359 0.84334375,-4.6068047 v 0.4101563 H 1.7574063 v 3.66796871 H 0.60896875 Z m 0,0"
       style="fill:#5c5c5c;fill-opacity:1;fill-rule:nonzero;stroke:none"
       aria-label="1"
       transform="matrix(1.3333333,0,0,1.3333333,291.07867,56.576)" />
    <path
       id="path48"
       d="M 0.30488281,5.390625e-4 H 3.5158203 V -0.55024219 H 2.0744141 c -0.2578125,0 -0.5625,0.0234375 -0.8320313,0.046875 1.171875,-1.23046871 2.0390625,-2.16796871 2.0390625,-3.10546871 0,-0.8789063 -0.5859375,-1.453125 -1.5,-1.453125 -0.6445312,0 -1.08984374,0.2929687 -1.49999999,0.75 l 0.36328125,0.3632812 c 0.29296875,-0.328125 0.64453124,-0.5976562 1.06640624,-0.5976562 0.6328125,0 0.9375,0.4101562 0.9375,0.9726562 0,0.8085938 -0.84375,1.7109375 -2.34374999,3.19921876 z m 0,0"
       style="fill:#5c5c5c;fill-opacity:1;fill-rule:nonzero;stroke:none"
       aria-label="2"
       transform="matrix(1.3333333,0,0,1.3333333,336.43333,56.636)" />
    <path
       id="path49"
       d="m 1.8289219,0.09241406 c 0.9140625,0 1.6523437,-0.52734375 1.6523437,-1.41796876 0,-0.6796875 -0.4804687,-1.125 -1.078125,-1.265625 v -0.035156 c 0.5273438,-0.1875 0.9023438,-0.5742188 0.9023438,-1.1835938 0,-0.796875 -0.6328125,-1.2539062 -1.4882813,-1.2539062 -0.5859375,0 -1.04296872,0.2695312 -1.42968747,0.6210937 l 0.33984375,0.3984375 C 1.0203281,-4.3372734 1.3836094,-4.5482109 1.7937656,-4.5482109 c 0.5390625,0 0.8671875,0.3046875 0.8671875,0.7851562 0,0.5273438 -0.3632812,0.9257813 -1.4179687,0.9257813 v 0.5039062 c 1.1835937,0 1.59375,0.3867188 1.59375,0.984375 0,0.56250001 -0.4335938,0.91406251 -1.0429688,0.91406251 -0.5742187,0 -0.96093747,-0.28125 -1.26562497,-0.58593751 l -0.328125,0.41015626 c 0.33984375,0.36328125 0.84374997,0.703125 1.62890627,0.703125 z m 0,0"
       style="fill:#5c5c5c;fill-opacity:1;fill-rule:nonzero;stroke:none"
       aria-label="3"
       transform="matrix(1.3333333,0,0,1.3333333,381.788,56.576)" />
    <path
       id="path50"
       d="M 2.3685859,-0.00133594 H 2.9662422 V -1.3724297 h 0.6914062 v -0.515625 H 2.9662422 v -3.0820312 h -0.703125 l -2.12109376,3.1757812 v 0.421875 H 2.3685859 Z m 0,-1.88671876 H 0.79827344 L 1.9701484,-3.5872734 c 0.140625,-0.2460938 0.28125,-0.46875 0.4101563,-0.703125 h 0.023437 c -0.011719,0.2578125 -0.035156,0.703125 -0.035156,0.9492187 z m 0,0"
       style="fill:#5c5c5c;fill-opacity:1;fill-rule:nonzero;stroke:none"
       aria-label="4"
       transform="matrix(1.3333333,0,0,1.3333333,427.14267,56.576)" />
    <path
       id="path51"
       d="m 1.8271953,0.09346875 c 0.8554688,0 1.6757813,-0.609375 1.6757813,-1.68750005 0,-1.0664062 -0.703125,-1.546875 -1.546875,-1.546875 -0.3046875,0 -0.5390625,0.070312 -0.7617188,0.1992188 L 1.3232891,-4.41825 h 1.921875 V -4.9690313 H 0.76078906 l -0.1640625,2.390625 0.33984375,0.2109375 c 0.29296879,-0.1875 0.51562499,-0.3046875 0.85546879,-0.3046875 0.6445312,0 1.0546875,0.4101563 1.0546875,1.1015625 0,0.6914063 -0.4804688,1.1367188 -1.078125,1.1367188 -0.5976563,0 -0.97265629,-0.28125 -1.26562504,-0.5742188 l -0.31640625,0.42187505 c 0.3515625,0.33984375 0.83203129,0.6796875 1.64062499,0.6796875 z m 0,0"
       style="fill:#5c5c5c;fill-opacity:1;fill-rule:nonzero;stroke:none"
       aria-label="5"
       transform="matrix(1.3333333,0,0,1.3333333,472.49733,56.516)" />
    <path
       id="path52"
       d="m 196.16005,45.35498 h 34.01616 v 25.5121 h -34.01616 z"
       style="fill:#ffffff;fill-opacity:1;fill-rule:nonzero;stroke:#6b6b6b;stroke-width:0.49814;stroke-linecap:butt;stroke-linejoin:miter;stroke-miterlimit:10;stroke-dasharray:none;stroke-opacity:1"
       transform="matrix(1.3333333,0,0,-1.3333333,9.4346667,155.30933)" />
    <path
       id="path53"
       d="m 4.2416406,-2.8713281 c 0,-0.5976563 -0.023437,-1.3710938 -0.3398437,-2.0390625 -0.3984375,-0.84375 -1.078125,-1.0546875 -1.59375,-1.0546875 -0.5390625,0 -1.21875,0.2109375 -1.61718752,1.0664062 -0.29296875,0.6210938 -0.328125,1.3476563 -0.328125,2.0273438 0,0.5859375 0.0117188,1.453125 0.3984375,2.16796872 0.42187502,0.76171875 1.12500002,0.90234375 1.53515622,0.90234375 0.5859375,0 1.2421875,-0.2578125 1.6171875,-1.078125 0.2695313,-0.59765627 0.328125,-1.27734377 0.328125,-1.99218747 z m -1.9335937,2.84765622 c -0.2695313,0 -0.9140625,-0.12890625 -1.0898438,-1.13671872 -0.09375,-0.5390625 -0.09375,-1.3007813 -0.09375,-1.8164063 0,-0.609375 0,-1.3125 0.1171875,-1.8164062 0.1757813,-0.796875 0.75,-0.9492188 1.0546875,-0.9492188 0.3398438,0 0.9023438,0.1757813 1.078125,1.0078125 0.09375,0.4921875 0.09375,1.1953125 0.09375,1.7578125 0,0.5507813 0,1.3125 -0.09375,1.8398438 -0.1875,1.01953122 -0.84375,1.11328122 -1.0664062,1.11328122 z m 0,0"
       style="fill:#000000;fill-opacity:1;fill-rule:nonzero;stroke:none"
       aria-label="0"
       transform="matrix(1.3333333,0,0,1.3333333,290.58667,81.68)" />
    <path
       id="path54"
       d="m 230.17613,45.35498 h 34.01616 v 25.5121 h -34.01616 z"
       style="fill:#ffffff;fill-opacity:1;fill-rule:nonzero;stroke:#6b6b6b;stroke-width:0.49814;stroke-linecap:butt;stroke-linejoin:miter;stroke-miterlimit:10;stroke-dasharray:none;stroke-opacity:1"
       transform="matrix(1.3333333,0,0,-1.3333333,9.4346667,155.30933)" />
    <path
       id="path55"
       d="m 2.7305234,-3.1525781 c 0.8320313,-0.3164063 1.2304688,-0.9726563 1.2304688,-1.59375 0,-0.6914063 -0.7617188,-1.21875 -1.6875,-1.21875 -0.9375,0 -1.64062501,0.5273437 -1.64062501,1.2070312 0,0.2929688 0.19921875,0.46875 0.45703121,0.46875 0.2695313,0 0.4570313,-0.1875 0.4570313,-0.4570312 0,-0.3046875 -0.2226563,-0.4453125 -0.5273438,-0.4453125 0.234375,-0.375 0.7851563,-0.5507813 1.21875,-0.5507813 0.75,0 0.890625,0.5859375 0.890625,1.0078125 0,0.2695313 -0.058594,0.703125 -0.28125,1.0429688 -0.2695312,0.3984375 -0.5859375,0.421875 -0.84375,0.4335937 -0.234375,0.023437 -0.2460937,0.023437 -0.3164062,0.023437 -0.082031,0.011719 -0.1523438,0.011719 -0.1523438,0.1171875 0,0.1171875 0.070312,0.1171875 0.2226563,0.1171875 h 0.421875 c 0.7734375,0 1.125,0.6210938 1.125,1.4765625 0,1.14843752 -0.6210938,1.46484377 -1.078125,1.46484377 -0.1640625,0 -1.03125,-0.03515625 -1.44140626,-0.703125 0.32812496,0.046875 0.57421876,-0.17578125 0.57421876,-0.48046877 0,-0.3046875 -0.2226563,-0.4921875 -0.48046876,-0.4921875 -0.22265625,0 -0.4921875,0.140625 -0.4921875,0.515625 0,0.79687502 0.83203126,1.41796877 1.87499996,1.41796877 1.1132813,0 1.9570313,-0.80859375 1.9570313,-1.72265627 0,-0.7851562 -0.6210938,-1.4414062 -1.4882813,-1.6289057 z m 0,0"
       style="fill:#000000;fill-opacity:1;fill-rule:nonzero;stroke:none"
       aria-label="3"
       transform="matrix(1.3333333,0,0,1.3333333,335.94133,81.68)" />
    <path
       id="path56"
       d="m 264.19221,45.35498 h 34.01616 v 25.5121 h -34.01616 z"
       style="fill:#ffffff;fill-opacity:1;fill-rule:nonzero;stroke:#6b6b6b;stroke-width:0.49814;stroke-linecap:butt;stroke-linejoin:miter;stroke-miterlimit:10;stroke-dasharray:none;stroke-opacity:1"
       transform="matrix(1.3333333,0,0,-1.3333333,9.4346667,155.30933)" />
    <path
       id="path57"
       d="m 0.25846875,-1.7580469 v 0.28125 H 2.7076875 v 0.77343752 c 0,0.328125 -0.023437,0.421875 -0.703125,0.421875 h -0.1875 v 0.281250005 c 0.5625,-0.023437505 1.1835938,-0.023437505 1.2539063,-0.023437505 0.035156,0 0.6914062,0 1.2539062,0.023437505 V -0.28148438 H 4.1256563 c -0.6679688,0 -0.703125,-0.09375 -0.703125,-0.421875 V -1.4767969 h 0.9140625 v -0.28125 H 3.4225313 v -4.0664062 c 0,-0.1875 0,-0.2460938 -0.1640625,-0.2460938 -0.1054688,0 -0.1171875,0.011719 -0.1992188,0.140625 z m 0.29296875,0 2.2148438,-3.3164062 v 3.3164062 z m 0,0"
       style="fill:#000000;fill-opacity:1;fill-rule:nonzero;stroke:none"
       aria-label="4"
       transform="matrix(1.3333333,0,0,1.3333333,381.296,81.68)" />
    <path
       id="path58"
       d="m 298.2083,45.35498 h 34.01616 v 25.5121 H 298.2083 Z"
       style="fill:#ffffff;fill-opacity:1;fill-rule:nonzero;stroke:#6b6b6b;stroke-width:0.49814;stroke-linecap:butt;stroke-linejoin:miter;stroke-miterlimit:10;stroke-dasharray:none;stroke-opacity:1"
       transform="matrix(1.3333333,0,0,-1.3333333,9.4346667,155.30933)" />
    <path
       id="path59"
       d="m 0.93775781,-3.0939844 c 0,0.1640625 0,0.2578125 0.11718749,0.2578125 0.070312,0 0.1054688,-0.035156 0.1523438,-0.1171875 0.2695312,-0.375 0.703125,-0.5859375 1.171875,-0.5859375 0.9609375,0 0.9609375,1.3828125 0.9609375,1.6992188 0,0.28125 0,0.8320312 -0.2578125,1.24218747 -0.234375,0.375 -0.6210938,0.5390625 -0.9609375,0.5390625 -0.5390625,0 -1.13671879,-0.328125 -1.34765629,-0.99609377 0.0117188,0 0.0585938,0.023437 0.1171875,0.023437 0.18749999,0 0.44531249,-0.1171875 0.44531249,-0.4335937 0,-0.28125 -0.1992187,-0.4453125 -0.44531249,-0.4453125 -0.1875,0 -0.43359375,0.1054687 -0.43359375,0.46875 0,0.80859372 0.67968754,1.64062497 1.67578124,1.64062497 1.0898438,0 2.0039063,-0.87890625 2.0039063,-1.99218747 0,-1.0898438 -0.7617188,-1.96875 -1.7460938,-1.96875 -0.421875,0 -0.8671875,0.140625 -1.1835937,0.4570312 v -1.7578125 c 0.2695312,0.082031 0.5507812,0.1171875 0.8320312,0.1171875 1.1015625,0 1.7460938,-0.796875 1.7460938,-0.9140625 0,-0.070312 -0.058594,-0.1054687 -0.1054688,-0.1054687 -0.011719,0 -0.035156,0 -0.1171875,0.035156 -0.4101562,0.1757813 -0.8320312,0.2460938 -1.2070312,0.2460938 -0.3867188,0 -0.7851563,-0.070312 -1.1953125,-0.2460938 -0.09375,-0.035156 -0.1054688,-0.035156 -0.1171875,-0.035156 -0.10546879,0 -0.10546879,0.082031 -0.10546879,0.234375 z m 0,0"
       style="fill:#000000;fill-opacity:1;fill-rule:nonzero;stroke:none"
       aria-label="5"
       transform="matrix(1.3333333,0,0,1.3333333,426.652,81.68)" />
    <path
       id="path60"
       d="m 332.22481,45.35498 h 34.01616 v 25.5121 h -34.01616 z"
       style="fill:#ffffff;fill-opacity:1;fill-rule:nonzero;stroke:#6b6b6b;stroke-width:0.49814;stroke-linecap:butt;stroke-linejoin:miter;stroke-miterlimit:10;stroke-dasharray:none;stroke-opacity:1"
       transform="matrix(1.3333333,0,0,-1.3333333,9.4346667,155.30933)" />
    <path
       id="path61"
       d="m 2.7313281,-5.7307031 c 0,-0.2226563 -0.011719,-0.234375 -0.234375,-0.234375 -0.5625,0.5625 -1.3828125,0.5625 -1.66406247,0.5625 v 0.28125 c 0.17578127,0 0.71484377,0 1.20703127,-0.234375 v 4.64062497 c 0,0.328125 -0.035156,0.43359375 -0.8671875,0.43359375 H 0.89148438 V -2.34375e-4 C 1.2078906,-0.02367188 2.0047656,-0.02367188 2.3797656,-0.02367188 c 0.3632813,0 1.171875,0 1.4882813,0.023437505 V -0.28148438 h -0.28125 c -0.8320313,0 -0.8554688,-0.10546875 -0.8554688,-0.43359375 z m 0,0"
       style="fill:#000000;fill-opacity:1;fill-rule:nonzero;stroke:none"
       aria-label="1"
       transform="matrix(1.3333333,0,0,1.3333333,472.00667,81.68)" />
    <path
       id="path62"
       d="m 4.393375,-1.9561719 c 0,-1.1132812 -0.8203125,-1.9921875 -1.78125,-1.9921875 -0.3867187,0 -0.75,0.1171875 -1.0429687,0.3398438 C 1.5574375,-3.8077344 1.4754063,-3.9132031 1.159,-3.9132031 H 0.51446875 c -0.1640625,0 -0.421875,0.023437 -0.421875,0.3515625 0,0.3164062 0.26953125,0.328125 0.421875,0.328125 H 0.830875 v 4.5 H 0.51446875 c -0.1640625,0 -0.421875,0.011719 -0.421875,0.3398437 0,0.3164063 0.26953125,0.328125 0.421875,0.328125 H 1.8972813 c 0.1523437,0 0.421875,-0.011719 0.421875,-0.328125 0,-0.328125 -0.2578125,-0.3398437 -0.4335938,-0.3398437 H 1.580875 v -1.57031253 c 0.3398438,0.29296875 0.6796875,0.36328125 0.9375,0.36328125 0.984375,0 1.875,-0.8671875 1.875,-2.01562502 z m -0.7382812,0 c 0,0.796875 -0.5742188,1.33593752 -1.1601563,1.33593752 -0.6328125,0 -0.9140625,-0.72656252 -0.9140625,-1.11328122 v -0.6445313 c 0,-0.4804687 0.4804688,-0.9023437 0.9960938,-0.9023437 0.609375,0 1.078125,0.609375 1.078125,1.3242187 z m 5.4345703,-1.3828125 c 0,-0.1992187 -0.1054688,-0.609375 -0.890625,-0.609375 -0.4335938,0 -0.9609375,0.1289063 -1.4179688,0.5976563 v -0.1289063 c 0,-0.3164062 -0.070312,-0.4335937 -0.421875,-0.4335937 H 5.3982578 c -0.1640625,0 -0.421875,0.023437 -0.421875,0.3398437 0,0.328125 0.2460938,0.3398438 0.421875,0.3398438 h 0.6328125 v 2.56640622 H 5.3982578 c -0.1640625,0 -0.421875,0 -0.421875,0.328125 0,0.328125 0.2460938,0.339843755 0.421875,0.339843755 h 2.2734375 c 0.1640625,0 0.4335938,-0.011718755 0.4335938,-0.328125005 0,-0.33984375 -0.2695313,-0.33984375 -0.4335938,-0.33984375 H 6.7810703 V -1.6983594 c 0,-0.7617187 0.4570313,-1.5585937 1.4296875,-1.5820312 0,0.2109375 0.2109375,0.375 0.4453125,0.375 0.2226563,0 0.4335938,-0.1640625 0.4335938,-0.4335938 z m 4.4267579,3.01171877 c 0,-0.33984375 -0.269531,-0.33984375 -0.421875,-0.33984375 h -0.84375 V -3.4796094 c 0,-0.3164062 -0.07031,-0.4335937 -0.421875,-0.4335937 h -1.242188 c -0.164062,0 -0.433593,0.023437 -0.433593,0.3398437 0,0.328125 0.269531,0.3398438 0.433593,0.3398438 h 0.914063 v 2.56640622 h -0.984375 c -0.164063,0 -0.433594,0 -0.433594,0.33984375 0,0.31640625 0.269531,0.328125005 0.433594,0.328125005 h 2.578125 c 0.152344,0 0.421875,-0.011718755 0.421875,-0.328125005 z M 12.285953,-4.9327344 c 0,-0.2695312 -0.222656,-0.5039062 -0.515625,-0.5039062 -0.28125,0 -0.503906,0.234375 -0.503906,0.5039062 0,0.2929688 0.222656,0.515625 0.503906,0.515625 0.292969,0 0.515625,-0.2226562 0.515625,-0.515625 z m 6.055664,2.9765625 c 0,-1.1367187 -0.855469,-2.0273437 -1.875,-2.0273437 -1.007812,0 -1.863281,0.890625 -1.863281,2.0273437 0,1.14843752 0.878906,2.01562502 1.863281,2.01562502 0.996094,0 1.875,-0.87890625 1.875,-2.01562502 z m -0.75,-0.058594 c 0,0.7734375 -0.515625,1.39453122 -1.125,1.39453122 -0.609375,0 -1.113281,-0.62109372 -1.113281,-1.39453122 0,-0.75 0.539062,-1.2890625 1.113281,-1.2890625 0.597656,0 1.125,0.5390625 1.125,1.2890625 z m 5.622071,-1.3242188 c 0,-0.1992187 -0.105469,-0.609375 -0.890625,-0.609375 -0.433594,0 -0.960938,0.1289063 -1.417969,0.5976563 v -0.1289063 c 0,-0.3164062 -0.07031,-0.4335937 -0.421875,-0.4335937 h -0.960938 c -0.164062,0 -0.421875,0.023437 -0.421875,0.3398437 0,0.328125 0.246094,0.3398438 0.421875,0.3398438 h 0.632813 v 2.56640622 h -0.632813 c -0.164062,0 -0.421875,0 -0.421875,0.328125 0,0.328125 0.246094,0.339843755 0.421875,0.339843755 h 2.273438 c 0.164062,0 0.433594,-0.011718755 0.433594,-0.328125005 0,-0.33984375 -0.269532,-0.33984375 -0.433594,-0.33984375 H 20.905094 V -1.6983594 c 0,-0.7617187 0.457031,-1.5585937 1.429687,-1.5820312 0,0.2109375 0.210938,0.375 0.445313,0.375 0.222656,0 0.433594,-0.1640625 0.433594,-0.4335941 z m 4.423828,3.01171877 c 0,-0.33984375 -0.269532,-0.33984375 -0.421875,-0.33984375 h -0.84375 V -3.4796094 c 0,-0.3164062 -0.07031,-0.4335937 -0.421875,-0.4335937 h -1.242188 c -0.164062,0 -0.433594,0.023437 -0.433594,0.3398437 0,0.328125 0.269532,0.3398438 0.433594,0.3398438 h 0.914063 v 2.56640622 h -0.984375 c -0.164063,0 -0.433594,0 -0.433594,0.33984375 0,0.31640625 0.269531,0.328125005 0.433594,0.328125005 h 2.578125 c 0.152343,0 0.421875,-0.011718755 0.421875,-0.328125305 z M 26.407047,-4.9327344 c 0,-0.2695312 -0.222656,-0.5039062 -0.515625,-0.5039062 -0.28125,0 -0.503906,0.234375 -0.503906,0.5039062 0,0.2929688 0.222656,0.515625 0.503906,0.515625 0.292969,0 0.515625,-0.2226562 0.515625,-0.515625 z m 5.879883,3.7617188 c 0,-0.1875 0,-0.4101563 -0.375,-0.4101563 -0.351563,0 -0.363282,0.2226563 -0.363282,0.3984375 0,0.48046877 -0.457031,0.56250002 -0.644531,0.56250002 -0.597656,0 -0.597656,-0.41015622 -0.597656,-0.59765622 v -2.015625 h 1.359375 c 0.164062,0 0.421875,-0.011719 0.421875,-0.328125 0,-0.3398438 -0.246094,-0.3515625 -0.421875,-0.3515625 h -1.359375 v -0.6445313 c 0,-0.1875 -0.01172,-0.421875 -0.363281,-0.421875 -0.375,0 -0.386719,0.2226563 -0.386719,0.421875 v 0.6445313 h -0.679688 c -0.175781,0 -0.421875,0.023437 -0.421875,0.3515625 0,0.3164062 0.246094,0.328125 0.410157,0.328125 h 0.691406 v 2.0625 c 0,0.89062497 0.632812,1.23046872 1.3125,1.23046872 0.679687,0 1.417969,-0.41015625 1.417969,-1.23046872 z m 5.165039,-2.390625 c 0,-0.3398438 -0.246094,-0.3515625 -0.421875,-0.3515625 h -1.019531 c -0.164063,0 -0.421875,0.023437 -0.421875,0.3398437 0,0.328125 0.246093,0.3398438 0.421875,0.3398438 h 0.140625 L 35.37775,-0.88976563 34.498844,-3.2335156 h 0.117187 c 0.152344,0 0.410157,-0.011719 0.410157,-0.328125 0,-0.3398438 -0.246094,-0.3515625 -0.410157,-0.3515625 h -1.03125 c -0.164062,0 -0.421875,0.011719 -0.421875,0.3515625 0,0.3164062 0.269532,0.328125 0.421875,0.328125 h 0.222657 l 1.265625,3.16406247 c -0.04687,0.09375 -0.234375,0.7265625 -0.328125,0.92578125 -0.175782,0.33984378 -0.457032,0.53906248 -0.632813,0.53906248 0.01172,-0.035156 0.105469,-0.058594 0.105469,-0.1875 0,-0.26953123 -0.1875,-0.45703123 -0.445313,-0.45703123 -0.28125,0 -0.457031,0.1875 -0.457031,0.45703123 0,0.3984375 0.328125,0.7851563 0.796875,0.7851563 0.890625,0 1.335938,-1.19531253 1.371094,-1.28906253 l 1.335937,-3.93749997 h 0.210938 c 0.164062,0 0.421875,-0.011719 0.421875,-0.328125 z m 4.426758,4.6171875 c 0,-0.37500003 -0.351563,-0.38671878 -0.480469,-0.38671878 h -2.777344 c -0.128906,0 -0.480469,0.0117188 -0.480469,0.38671878 0,0.3632812 0.351563,0.375 0.480469,0.375 h 2.777344 c 0.128906,0 0.480469,-0.011719 0.480469,-0.375 z m 5.314453,0.5507812 c 0,-0.328125 -0.246094,-0.3398437 -0.421875,-0.3398437 h -0.351563 v -4.7929688 c 0,-0.1992187 -0.01172,-0.421875 -0.375,-0.421875 -0.304687,0 -0.363281,0.1054688 -0.375,0.3867188 -0.234375,-0.2226563 -0.574219,-0.3867188 -1.019531,-0.3867188 -1.007813,0 -1.933594,0.84375 -1.933594,2.0039063 0,1.12499997 0.855469,2.00390622 1.839844,2.00390622 0.515625,0 0.890625,-0.234375 1.113281,-0.43359375 V 1.2664844 H 45.31818 c -0.164063,0 -0.421875,0.011719 -0.421875,0.328125 0,0.328125 0.246093,0.3398437 0.421875,0.3398437 h 1.453125 c 0.164062,0 0.421875,-0.011719 0.421875,-0.328125 z m -1.523438,-3.375 c 0,0.46875 -0.410156,1.14843752 -1.078125,1.14843752 -0.609375,0 -1.148437,-0.58593752 -1.148437,-1.32421872 0,-0.7617188 0.585937,-1.3359375 1.242187,-1.3359375 0.609375,0 0.984375,0.6328125 0.984375,1.171875 z m 5.997071,1.42968752 c 0,-0.328125 -0.269532,-0.328125 -0.410157,-0.328125 H 50.94025 V -3.4796094 c 0,-0.3164062 -0.07031,-0.4335937 -0.421875,-0.4335937 h -0.644531 c -0.164063,0 -0.421875,0.023437 -0.421875,0.3515625 0,0.3164062 0.269531,0.328125 0.421875,0.328125 h 0.316406 v 1.7929687 c 0,0.72656252 -0.65625,0.82031252 -0.925781,0.82031252 -0.609375,0 -0.609375,-0.24609375 -0.609375,-0.50390622 v -2.3554688 c 0,-0.3164062 -0.07031,-0.4335937 -0.421875,-0.4335937 h -0.644531 c -0.164063,0 -0.421875,0.023437 -0.421875,0.3515625 0,0.3164062 0.269531,0.328125 0.421875,0.328125 h 0.316406 v 2.1679687 c 0,0.89062502 0.632812,1.12500002 1.324219,1.12500002 0.328125,0 0.667968,-0.08203125 0.972656,-0.28125 0.05859,0.2109375 0.246094,0.222656255 0.410156,0.222656255 h 0.632813 c 0.175781,0 0.421875,-0.011718755 0.421875,-0.339843755 z m 4.297851,-0.67968752 c 0,-0.3046875 -0.316406,-0.3164062 -0.375,-0.3164062 -0.199219,0 -0.28125,0.035156 -0.351562,0.234375 -0.1875,0.41015622 -0.621094,0.48046872 -0.84375,0.48046872 -0.609375,0 -1.207032,-0.38671872 -1.371094,-1.04296872 h 2.519531 c 0.222656,0 0.421875,0 0.421875,-0.3984375 0,-1.03125 -0.585937,-1.921875 -1.757812,-1.921875 -1.078125,0 -1.957032,0.9140625 -1.957032,2.015625 0,1.11328122 0.914063,2.02734372 2.074219,2.02734372 1.21875,0 1.640625,-0.84375 1.640625,-1.07812502 z m -0.773437,-1.3125 h -2.15625 c 0.140625,-0.5625 0.609375,-0.9726562 1.171875,-0.9726562 0.410156,0 0.890625,0.1992187 0.984375,0.9726562 z m 5.891601,1.99218752 c 0,-0.328125 -0.269531,-0.328125 -0.410156,-0.328125 H 60.356266 V -3.4796094 c 0,-0.3164062 -0.07031,-0.4335937 -0.421875,-0.4335937 h -0.644532 c -0.164062,0 -0.421875,0.023437 -0.421875,0.3515625 0,0.3164062 0.269532,0.328125 0.421875,0.328125 h 0.316407 v 1.7929687 c 0,0.72656252 -0.65625,0.82031252 -0.925782,0.82031252 -0.609375,0 -0.609375,-0.24609375 -0.609375,-0.50390622 v -2.3554688 c 0,-0.3164062 -0.07031,-0.4335937 -0.421875,-0.4335937 h -0.644531 c -0.164062,0 -0.421875,0.023437 -0.421875,0.3515625 0,0.3164062 0.269531,0.328125 0.421875,0.328125 h 0.316406 v 2.1679687 c 0,0.89062502 0.632813,1.12500002 1.324219,1.12500002 0.328125,0 0.667969,-0.08203125 0.972656,-0.28125 0.05859,0.2109375 0.246094,0.222656255 0.410157,0.222656255 h 0.632812 c 0.175781,0 0.421875,-0.011718755 0.421875,-0.339843755 z M 65.38068,-1.0186719 c 0,-0.3046875 -0.316407,-0.3164062 -0.375,-0.3164062 -0.199219,0 -0.28125,0.035156 -0.351563,0.234375 -0.1875,0.41015622 -0.621094,0.48046872 -0.84375,0.48046872 -0.609375,0 -1.207031,-0.38671872 -1.371094,-1.04296872 h 2.519532 c 0.222656,0 0.421875,0 0.421875,-0.3984375 0,-1.03125 -0.585938,-1.921875 -1.757813,-1.921875 -1.078125,0 -1.957031,0.9140625 -1.957031,2.015625 0,1.11328122 0.914062,2.02734372 2.074219,2.02734372 1.21875,0 1.640625,-0.84375 1.640625,-1.07812502 z m -0.773438,-1.3125 h -2.15625 c 0.140625,-0.5625 0.609375,-0.9726562 1.171875,-0.9726562 0.410156,0 0.890625,0.1992187 0.984375,0.9726562 z m 0,0"
       style="fill:#000000;fill-opacity:1;fill-rule:nonzero;stroke:none"
       aria-label="priority_queue"
       transform="matrix(1.3333333,0,0,1.3333333,279.45467,113.00667)" />
    <path
       id="path63"
       d="m 195.30948,-0.85045 h 70.86702 v 25.5121 h -70.86702 z"
       style="fill:#dbdbdb;fill-opacity:1;fill-rule:nonzero;stroke:#000000;stroke-width:0.84683;stroke-linecap:butt;stroke-linejoin:miter;stroke-miterlimit:10;stroke-dasharray:none;stroke-opacity:1"
       transform="matrix(1.3333333,0,0,-1.3333333,9.4346667,155.30933)" />
    <path
       id="path64"
       d="m 3.9133516,0.48089844 c 0,-0.15234375 -0.082031,-0.19921875 -0.1640625,-0.26953125 -1.1835938,-0.7734375 -1.5585938,-2.01562499 -1.5585938,-2.94140629 0,-0.6796875 0.1875,-1.265625 0.3867188,-1.6757812 0.3632812,-0.6796875 0.796875,-1.0429688 1.21875,-1.3242188 0.070312,-0.046875 0.1171875,-0.1289062 0.1171875,-0.2226562 0,-0.09375 -0.046875,-0.2695313 -0.2929688,-0.2695313 -0.2109375,0 -0.9609375,0.515625 -1.4648437,1.3007813 -0.46875,0.75 -0.6210938,1.546875 -0.6210938,2.1796875 0,0.5976562 0.1289063,1.453125 0.7148438,2.30859374 0.4335937,0.64453125 1.1484375,1.171875 1.3710937,1.171875 0.2460938,0 0.2929688,-0.17578125 0.2929688,-0.2578125 z M 9.1487031,-1.7925391 c 0,-0.2929687 -0.2460937,-0.2929687 -0.375,-0.2929687 H 8.1057344 v -3.1289063 c 0,-0.3046875 -0.070312,-0.3867187 -0.3867188,-0.3867187 H 7.4612031 c -0.2226562,0 -0.28125,0.011719 -0.3984375,0.1992187 l -2.015625,3.1875 c -0.082031,0.1171875 -0.082031,0.140625 -0.082031,0.328125 0,0.2578125 0.035156,0.375 0.375,0.375 h 2.2265625 v 0.92578129 H 7.0276094 c -0.1289063,0 -0.375,0 -0.375,0.29296875 0,0.2929687475 0.2460937,0.2929687475 0.375,0.2929687475 h 1.6171875 c 0.1289062,0 0.375,0 0.375,-0.2812499975 0,-0.3046875 -0.2460938,-0.3046875 -0.375,-0.3046875 H 8.1057344 V -1.5112891 h 0.6679687 c 0.1171875,0 0.375,0 0.375,-0.28125 z M 7.5666719,-2.0855078 h -1.921875 l 1.921875,-3.0585938 z m 4.9541011,1.85156249 c 0,-0.515625 -0.328125,-0.90234379 -0.75,-0.90234379 -0.351562,0 -0.574218,0.26953129 -0.574218,0.56250004 0,0.328125 0.246093,0.5742187475 0.574218,0.5742187475 0.07031,0 0.128907,-0.0117187475 0.140625,-0.0234374975 -0.03516,0.19921875 -0.199218,0.5390625 -0.65625,0.69140625 -0.08203,0.0351563 -0.246093,0.0820313 -0.246093,0.28125 0,0.14062496 0.140625,0.29296876 0.304687,0.29296876 0.292969,0 1.207031,-0.46875001 1.207031,-1.47656251 z m 10.59961,-1.33593749 c 0,-0.7382813 -0.550781,-1.2304688 -0.972656,-1.4296875 0.65625,-0.4570313 0.714843,-1.0546875 0.714843,-1.2890625 0,-0.6914063 -0.679687,-1.2890625 -1.699218,-1.2890625 -1.101563,0 -1.6875,0.4453125 -1.6875,1.0546875 0,0.2695312 0.199218,0.421875 0.421875,0.421875 0.222656,0 0.410156,-0.1757813 0.410156,-0.4101563 0,-0.082031 -0.02344,-0.1757812 -0.07031,-0.234375 0.292969,-0.2460937 0.878907,-0.2460937 0.925782,-0.2460937 0.632812,0 1.03125,0.328125 1.03125,0.703125 0,0.2460937 -0.117188,0.609375 -0.457032,0.8320312 -0.234375,0.1523438 -0.398437,0.1640625 -0.820312,0.1992188 -0.351563,0.011719 -0.527344,0.035156 -0.527344,0.3046875 0,0.2929687 0.246094,0.2929687 0.375,0.2929687 h 0.375 c 0.925781,0 1.324219,0.6210938 1.324219,1.078125 0,0.5742188 -0.515625,1.10156254 -1.289063,1.10156254 -0.234375,0 -0.914062,-0.0351562 -1.230468,-0.46875 l 0.02344,-0.0234375 c 0.05859,-0.0820312 0.05859,-0.10546874 0.07031,-0.18750004 0,0 0.01172,-0.035156 0.01172,-0.070312 0,-0.2226562 -0.175781,-0.4101562 -0.410156,-0.4101562 -0.222656,0 -0.421875,0.1289062 -0.421875,0.4335937 0,0.79687504 0.84375,1.30078129 1.957031,1.30078129 1.171875,0 1.945313,-0.80859375 1.945313,-1.66406249 z m 3.571289,-1.1601563 c 0,-0.609375 -0.128906,-1.453125 -0.714844,-2.3085937 -0.445312,-0.6445313 -1.136719,-1.1835938 -1.371094,-1.1835938 -0.257812,0 -0.292968,0.1992188 -0.292968,0.2695313 0,0.140625 0.08203,0.2109375 0.164062,0.2578125 1.183594,0.7851562 1.546875,2.015625 1.546875,2.953125 0,0.6796875 -0.1875,1.265625 -0.375,1.6640625 -0.363281,0.67968749 -0.808594,1.05468749 -1.230469,1.32421874 -0.07031,0.0585937 -0.105468,0.15234375 -0.105468,0.234375 0,0.0703125 0.04687,0.2578125 0.292968,0.2578125 0.199219,0 0.960938,-0.515625 1.453125,-1.2890625 0.480469,-0.75000004 0.632813,-1.54687504 0.632813,-2.17968754 z m 0,0"
       style="fill:#000000;fill-opacity:1;fill-rule:nonzero;stroke:none"
       aria-label="(4,3)"
       transform="matrix(1.3333333,0,0,1.3333333,298.26267,142.75333)" />
    <path
       id="path65"
       d="m 273.54652,-0.85045 h 70.86702 v 25.5121 h -70.86702 z"
       style="fill:#dbdbdb;fill-opacity:1;fill-rule:nonzero;stroke:#000000;stroke-width:0.84683;stroke-linecap:butt;stroke-linejoin:miter;stroke-miterlimit:10;stroke-dasharray:none;stroke-opacity:1"
       transform="matrix(1.3333333,0,0,-1.3333333,9.4346667,155.30933)" />
    <path
       id="path66"
       d="m 3.9136563,0.48089844 c 0,-0.15234375 -0.082031,-0.19921875 -0.1640625,-0.26953125 C 2.566,-0.56207031 2.191,-1.8042578 2.191,-2.7300391 c 0,-0.6796875 0.1875,-1.265625 0.3867188,-1.6757812 0.3632812,-0.6796875 0.796875,-1.0429688 1.21875,-1.3242188 0.070312,-0.046875 0.1171875,-0.1289062 0.1171875,-0.2226562 0,-0.09375 -0.046875,-0.2695313 -0.2929688,-0.2695313 -0.2109375,0 -0.9609375,0.515625 -1.4648437,1.3007813 -0.46875,0.75 -0.6210938,1.546875 -0.6210938,2.1796875 0,0.5976562 0.1289063,1.453125 0.7148438,2.30859374 0.4335937,0.64453125 1.1484375,1.171875 1.3710937,1.171875 0.2460938,0 0.2929688,-0.17578125 0.2929688,-0.2578125 z m 5.024414,-2.17968754 c 0,-0.9140625 -0.703125,-1.7929687 -1.7578125,-1.7929687 -0.2929687,0 -0.65625,0.046875 -1.0429687,0.2460937 v -1.6523437 h 2.109375 c 0.1289062,0 0.375,0 0.375,-0.28125 0,-0.2929688 -0.234375,-0.2929688 -0.375,-0.2929688 h -2.390625 c -0.3046875,0 -0.3867188,0.070312 -0.3867188,0.4101563 v 2.3320312 c 0,0.1757813 0,0.4101563 0.3164063,0.4101563 0.1640625,0 0.1992187,-0.046875 0.28125,-0.140625 0.2578125,-0.3164063 0.6679687,-0.4453125 1.1015625,-0.4453125 0.7148437,0 1.1015625,0.6328125 1.1015625,1.2070312 0,0.6914063 -0.609375,1.21875004 -1.3476563,1.21875004 -0.3632812,0 -0.8203125,-0.15234375 -1.0195312,-0.52734374 l 0.011719,-0.011719 c 0.058594,-0.09375 0.070312,-0.1054687 0.082031,-0.2226562 0,0 0.011719,-0.023437 0.011719,-0.058594 0,-0.234375 -0.1757812,-0.4101562 -0.4101562,-0.4101562 -0.1757813,0 -0.421875,0.1054687 -0.421875,0.4453125 0,0.72656249 0.7382812,1.35937499 1.7460937,1.35937499 1.125,0 2.015625,-0.796875 2.0156247,-1.79296839 z m 3.5830077,1.46484379 c 0,-0.515625 -0.328125,-0.90234379 -0.75,-0.90234379 -0.351562,0 -0.574219,0.26953129 -0.574219,0.56250004 0,0.328125 0.246094,0.5742187475 0.574219,0.5742187475 0.07031,0 0.128906,-0.0117187475 0.140625,-0.0234374975 -0.03516,0.19921875 -0.199219,0.5390625 -0.65625,0.69140625 -0.08203,0.0351563 -0.246094,0.0820313 -0.246094,0.28125 0,0.14062496 0.140625,0.29296876 0.304688,0.29296876 0.292969,0 1.207031,-0.46875001 1.207031,-1.47656251 z M 23.261313,-1.7925391 c 0,-0.2929687 -0.246094,-0.2929687 -0.375,-0.2929687 h -0.667969 v -3.1289063 c 0,-0.3046875 -0.07031,-0.3867187 -0.386719,-0.3867187 h -0.257812 c -0.222657,0 -0.28125,0.011719 -0.398438,0.1992187 l -2.015625,3.1875 c -0.08203,0.1171875 -0.08203,0.140625 -0.08203,0.328125 0,0.2578125 0.03516,0.375 0.375,0.375 h 2.226562 v 0.92578129 H 21.14022 c -0.128906,0 -0.375,0 -0.375,0.29296875 0,0.2929687475 0.246094,0.2929687475 0.375,0.2929687475 h 1.617187 c 0.128907,0 0.375,0 0.375,-0.2812499975 0,-0.3046875 -0.246093,-0.3046875 -0.375,-0.3046875 H 22.218344 V -1.5112891 h 0.667969 c 0.117187,0 0.375,0 0.375,-0.28125 z m -1.582032,-0.2929687 h -1.921875 l 1.921875,-3.0585938 z m 5.012696,-0.6445313 c 0,-0.609375 -0.128907,-1.453125 -0.714844,-2.3085937 -0.445313,-0.6445313 -1.136719,-1.1835938 -1.371094,-1.1835938 -0.257812,0 -0.292969,0.1992188 -0.292969,0.2695313 0,0.140625 0.08203,0.2109375 0.164063,0.2578125 1.183594,0.7851562 1.546875,2.015625 1.546875,2.953125 0,0.6796875 -0.1875,1.265625 -0.375,1.6640625 -0.363281,0.67968749 -0.808594,1.05468749 -1.230469,1.32421874 -0.07031,0.0585937 -0.105469,0.15234375 -0.105469,0.234375 0,0.0703125 0.04687,0.2578125 0.292969,0.2578125 0.199219,0 0.960938,-0.515625 1.453125,-1.2890625 0.480469,-0.75000004 0.632813,-1.54687504 0.632813,-2.17968754 z m 0,0"
       style="fill:#000000;fill-opacity:1;fill-rule:nonzero;stroke:none"
       aria-label="(5,4)"
       transform="matrix(1.3333333,0,0,1.3333333,402.57867,142.75333)" />
    <path
       id="path67"
       d="M 351.78398,-0.85045 H 422.651 v 25.5121 h -70.86702 z"
       style="fill:#fafafa;fill-opacity:1;fill-rule:nonzero;stroke:#bfbfbf;stroke-width:0.49814;stroke-linecap:butt;stroke-linejoin:miter;stroke-miterlimit:10;stroke-dasharray:none;stroke-opacity:1"
       transform="matrix(1.3333333,0,0,-1.3333333,9.4346667,155.30933)" />
    <path
       id="path68"
       d="m 3.9139609,0.48089844 c 0,-0.15234375 -0.082031,-0.19921875 -0.1640625,-0.26953125 -1.1835937,-0.7734375 -1.5585937,-2.01562499 -1.5585937,-2.94140629 0,-0.6796875 0.1875,-1.265625 0.3867187,-1.6757812 0.3632813,-0.6796875 0.796875,-1.0429688 1.21875,-1.3242188 0.070312,-0.046875 0.1171875,-0.1289062 0.1171875,-0.2226562 0,-0.09375 -0.046875,-0.2695313 -0.2929687,-0.2695313 -0.2109375,0 -0.9609375,0.515625 -1.4648438,1.3007813 -0.46875,0.75 -0.6210937,1.546875 -0.6210937,2.1796875 0,0.5976562 0.1289062,1.453125 0.7148437,2.30859374 0.4335938,0.64453125 1.1484375,1.171875 1.3710938,1.171875 0.2460937,0 0.2929687,-0.17578125 0.2929687,-0.2578125 z M 8.9618125,-1.7339453 c 0,-1.0078125 -0.796875,-1.8164063 -1.8046875,-1.8164063 -0.4921875,0 -0.9492187,0.1757813 -1.3242187,0.4921875 0.140625,-1.1953125 0.9375,-1.9335937 1.7460937,-1.9335937 0.082031,0 0.3046875,0 0.4453125,0.140625 -0.058594,0.058594 -0.082031,0.1640625 -0.082031,0.2460937 0,0.1992188 0.1523437,0.4101563 0.4101562,0.4101563 0.2460938,0 0.421875,-0.1757813 0.421875,-0.4453125 0,-0.4101563 -0.28125,-0.9375 -1.1953125,-0.9375 -1.2070312,0 -2.4257812,1.1015625 -2.4257812,2.8945312 0,2.10937504 0.9960937,2.77734379 1.9335937,2.77734379 0.9726563,0 1.875,-0.73828125 1.8749998,-1.82812499 z m -0.6679687,0 c 0,0.73828124 -0.5742188,1.25390624 -1.21875,1.25390624 -0.8554688,0 -1.1601563,-0.96093754 -1.1601563,-1.51171874 0,-0.5039063 0.5039063,-0.9609375 1.1953125,-0.9609375 0.7148438,0 1.1835938,0.5742187 1.1835938,1.21875 z m 4.2275392,1.49999999 c 0,-0.515625 -0.328125,-0.90234379 -0.75,-0.90234379 -0.351563,0 -0.574219,0.26953129 -0.574219,0.56250004 0,0.328125 0.246094,0.5742187475 0.574219,0.5742187475 0.07031,0 0.128906,-0.0117187475 0.140625,-0.0234374975 -0.03516,0.19921875 -0.199219,0.5390625 -0.65625,0.69140625 -0.08203,0.0351563 -0.246094,0.0820313 -0.246094,0.28125 0,0.14062496 0.140625,0.29296876 0.304688,0.29296876 0.292968,0 1.207031,-0.46875001 1.207031,-1.47656251 z M 23.261617,-1.7925391 c 0,-0.2929687 -0.246094,-0.2929687 -0.375,-0.2929687 h -0.667969 v -3.1289063 c 0,-0.3046875 -0.07031,-0.3867187 -0.386718,-0.3867187 h -0.257813 c -0.222656,0 -0.28125,0.011719 -0.398437,0.1992187 l -2.015625,3.1875 c -0.08203,0.1171875 -0.08203,0.140625 -0.08203,0.328125 0,0.2578125 0.03516,0.375 0.375,0.375 h 2.226563 v 0.92578129 h -0.539063 c -0.128906,0 -0.375,0 -0.375,0.29296875 0,0.2929687475 0.246094,0.2929687475 0.375,0.2929687475 h 1.617188 c 0.128906,0 0.375,0 0.375,-0.2812499975 0,-0.3046875 -0.246094,-0.3046875 -0.375,-0.3046875 H 22.218648 V -1.5112891 h 0.667969 c 0.117188,0 0.375,0 0.375,-0.28125 z m -1.582031,-0.2929687 h -1.921875 l 1.921875,-3.0585938 z m 5.012695,-0.6445313 c 0,-0.609375 -0.128906,-1.453125 -0.714843,-2.3085937 -0.445313,-0.6445313 -1.136719,-1.1835938 -1.371094,-1.1835938 -0.257813,0 -0.292969,0.1992188 -0.292969,0.2695313 0,0.140625 0.08203,0.2109375 0.164063,0.2578125 1.183593,0.7851562 1.546875,2.015625 1.546875,2.953125 0,0.6796875 -0.1875,1.265625 -0.375,1.6640625 -0.363282,0.67968749 -0.808594,1.05468749 -1.230469,1.32421874 -0.07031,0.0585937 -0.105469,0.15234375 -0.105469,0.234375 0,0.0703125 0.04687,0.2578125 0.292969,0.2578125 0.199219,0 0.960937,-0.515625 1.453125,-1.2890625 0.480469,-0.75000004 0.632812,-1.54687504 0.632812,-2.17968754 z m 0,0"
       style="fill:#949494;fill-opacity:1;fill-rule:nonzero;stroke:none"
       aria-label="(6,4)"
       transform="matrix(1.3333333,0,0,1.3333333,506.89467,142.75333)" />
    <path
       id="path69"
       d="m 195.30948,-26.92944 h 70.86702 v 25.5121 h -70.86702 z"
       style="fill:#fafafa;fill-opacity:1;fill-rule:nonzero;stroke:#bfbfbf;stroke-width:0.49814;stroke-linecap:butt;stroke-linejoin:miter;stroke-miterlimit:10;stroke-dasharray:none;stroke-opacity:1"
       transform="matrix(1.3333333,0,0,-1.3333333,9.4346667,155.30933)" />
    <path
       id="path70"
       d="m 3.9133516,0.47904687 c 0,-0.15234375 -0.082031,-0.19921875 -0.1640625,-0.26953125 -1.1835938,-0.7734375 -1.5585938,-2.01562502 -1.5585938,-2.94140622 0,-0.6796875 0.1875,-1.265625 0.3867188,-1.6757813 0.3632812,-0.6796875 0.796875,-1.0429687 1.21875,-1.3242187 0.070312,-0.046875 0.1171875,-0.1289063 0.1171875,-0.2226563 0,-0.09375 -0.046875,-0.2695312 -0.2929688,-0.2695312 -0.2109375,0 -0.9609375,0.515625 -1.4648437,1.3007812 -0.46875,0.75 -0.6210938,1.546875 -0.6210938,2.1796875 0,0.5976563 0.1289063,1.453125 0.7148438,2.30859377 0.4335937,0.64453125 1.1484375,1.171875 1.3710937,1.171875 0.2460938,0 0.2929688,-0.17578125 0.2929688,-0.2578125 z M 9.0080781,-5.1811094 c 0,-0.2929687 -0.234375,-0.2929687 -0.375,-0.2929687 h -2.90625 c -0.058594,-0.1523438 -0.2109375,-0.1523438 -0.2929687,-0.1523438 -0.328125,0 -0.328125,0.2109375 -0.328125,0.375 v 0.4101563 c 0,0.1640625 0,0.375 0.328125,0.375 0.328125,0 0.328125,-0.1875 0.328125,-0.4335938 h 2.25 c -0.5273438,0.5976563 -0.9609375,1.265625 -1.265625,1.9921875 -0.46875,1.0898438 -0.5390625,2.15625002 -0.5390625,2.56640627 0,0.1171875 0,0.43359375 0.328125,0.43359375 0.328125,0 0.328125,-0.3046875 0.328125,-0.4453125 0.035156,-2.01562502 1.0195312,-3.60937502 1.9453125,-4.51171872 0.1757812,-0.1640625 0.1992187,-0.1875 0.1992187,-0.3164063 z m 3.5126949,4.94531252 c 0,-0.515625 -0.328125,-0.90234372 -0.75,-0.90234372 -0.351562,0 -0.574218,0.26953122 -0.574218,0.56249997 0,0.328125 0.246093,0.57421875 0.574218,0.57421875 0.07031,0 0.128907,-0.01171875 0.140625,-0.0234375 -0.03516,0.19921875 -0.199218,0.5390625 -0.65625,0.69140625 -0.08203,0.0351563 -0.246093,0.0820313 -0.246093,0.28125 0,0.14062503 0.140625,0.29296873 0.304687,0.29296873 0.292969,0 1.207031,-0.46874998 1.207031,-1.47656248 z m 10.529297,-0.140625 v -0.2578125 c 0,-0.17578125 0,-0.37500002 -0.328125,-0.37500002 -0.339843,0 -0.339843,0.18750002 -0.339843,0.42187502 h -2.015625 c 0.480468,-0.41015625 1.488281,-1.20703122 1.710937,-1.41796872 0.328125,-0.3164063 0.972656,-0.9140625 0.972656,-1.8046875 0,-1.0664063 -0.890625,-1.7695313 -2.003906,-1.7695313 -1.042969,0 -1.757812,0.7148438 -1.757812,1.4765625 0,0.3632813 0.28125,0.4570313 0.421875,0.4570313 0.175781,0 0.410156,-0.1523438 0.410156,-0.421875 0,-0.1875 -0.07031,-0.2578125 -0.117188,-0.3046875 0.152344,-0.3867188 0.550782,-0.6210938 1.007813,-0.6210938 0.714844,0 1.371094,0.4101563 1.371094,1.1835938 0,0.6210937 -0.480469,1.1601562 -0.832032,1.4648437 l -2.132812,1.79296877 c -0.07031,0.0585938 -0.128906,0.1171875 -0.128906,0.2578125 0,0.29296875 0.234375,0.29296875 0.386718,0.29296875 h 3 c 0.292969,0 0.375,-0.0703125 0.375,-0.375 z m 3.641602,-2.35546872 c 0,-0.609375 -0.128906,-1.453125 -0.714844,-2.3085938 -0.445312,-0.6445312 -1.136719,-1.1835937 -1.371094,-1.1835937 -0.257812,0 -0.292968,0.1992187 -0.292968,0.2695312 0,0.140625 0.08203,0.2109375 0.164062,0.2578125 1.183594,0.7851563 1.546875,2.015625 1.546875,2.953125 0,0.6796875 -0.1875,1.265625 -0.375,1.6640625 -0.363281,0.67968752 -0.808594,1.05468752 -1.230469,1.32421877 -0.07031,0.0585938 -0.105468,0.15234375 -0.105468,0.234375 0,0.0703125 0.04687,0.2578125 0.292968,0.2578125 0.199219,0 0.960938,-0.515625 1.453125,-1.2890625 0.480469,-0.74999997 0.632813,-1.54687497 0.632813,-2.17968747 z m 0,0"
       style="fill:#949494;fill-opacity:1;fill-rule:nonzero;stroke:none"
       aria-label="(7,2)"
       transform="matrix(1.3333333,0,0,1.3333333,298.26267,177.52533)" />
    <g
       id="g70"
       aria-label="더짧은경로를찾으면dist를갱신한다."
       transform="matrix(1.3333333,0,0,1.3333333,279.45467,211.96267)">
      <path
         id="path71"
         d="m 0.8543125,-6.6458281 v 5.3554687 h 0.609375 c 1.546875,0 2.5195313,-0.058594 3.703125,-0.28125 l -0.09375,-0.609375 C 3.9832188,-1.9700469 3.034,-1.9231719 1.5925938,-1.9231719 V -6.0247344 H 4.534 V -6.6458281 Z M 4.06525,-4.4778594 v 0.6210938 H 6.3855625 V 0.70182812 H 7.1238438 V -7.4192656 H 6.3855625 v 2.9414062 z m 10.508789,1.7226563 v 3.36328122 h 2.578125 V -2.7552031 h -0.667969 v 1.0429687 h -1.21875 v -1.0429687 z m 0.691406,1.6054687 h 1.21875 v 1.17187502 h -1.21875 z m -1.746093,-5.8125 v 0.609375 h 0.5625 v 0.4570313 c 0,0.5390625 -0.175782,1.3359375 -0.726563,1.8632812 -0.574219,-0.5390625 -0.75,-1.3710937 -0.75,-1.8632812 v -0.4570313 h 0.574219 v -0.609375 h -2.285156 v 0.609375 h 1.019531 v 0.4570313 c 0,0.6445312 -0.410156,1.6054687 -1.300781,2.0390625 l 0.375,0.5390625 c 0.621093,-0.3046875 1.03125,-0.8554688 1.242187,-1.4296875 0.175781,0.5859375 0.503906,1.1835937 1.113281,1.5117187 0.621094,-0.328125 0.949219,-0.9140625 1.125,-1.5117187 0.210938,0.5859375 0.609375,1.1367187 1.253907,1.4296875 l 0.363281,-0.5390625 c -0.890625,-0.4335938 -1.289063,-1.3476563 -1.289063,-2.0390625 v -0.4570313 h 0.972657 v -0.609375 z m 2.894531,-0.4570312 v 4.2304687 h 0.738281 v -1.8867187 h 1.03125 v -0.6328125 h -1.03125 v -1.7109375 z m -4.839844,7.45312497 v 0.57421875 h 0.421875 c 1.03125,0 1.59375,-0.0117188 2.34375,-0.15234375 l -0.07031,-0.5625 c -0.644532,0.12890625 -1.136719,0.140625 -1.980469,0.140625 V -0.82160938 H 14.09357 V -2.6731719 h -2.53125 v 0.5507813 h 1.816407 v 0.7617187 h -1.804688 z m 7.368164,-3.18749997 v 0.609375 h 7.324219 v -0.609375 z m 3.65625,-3.984375 c -1.734375,0 -2.847656,0.5976562 -2.847656,1.6171875 0,1.0078125 1.113281,1.6171875 2.847656,1.6171875 1.746094,0 2.859375,-0.609375 2.859375,-1.6171875 0,-1.0195313 -1.113281,-1.6171875 -2.859375,-1.6171875 z m 0,0.5976562 c 1.289063,0 2.097656,0.3867188 2.097656,1.0195313 0,0.6328125 -0.808593,1.0078125 -2.097656,1.0078125 -1.265625,0 -2.085937,-0.375 -2.085937,-1.0078125 0,-0.6328125 0.820312,-1.0195313 2.085937,-1.0195313 z m -2.707031,4.7109375 v 2.34375002 h 5.566406 v -0.609375 H 20.629703 V -1.8294219 Z m 13.341797,-0.6328125 c -1.628906,0 -2.683594,0.5859375 -2.683594,1.55859377 0,0.97265625 1.054688,1.5703125 2.683594,1.5703125 1.640625,0 2.683594,-0.59765625 2.683594,-1.5703125 0,-0.97265627 -1.042969,-1.55859377 -2.683594,-1.55859377 z m 0,0.5859375 c 1.183594,0 1.957031,0.3632813 1.957031,0.97265627 0,0.609375 -0.773437,0.9609375 -1.957031,0.9609375 -1.183594,0 -1.945313,-0.3515625 -1.945313,-0.9609375 0,-0.60937497 0.761719,-0.97265627 1.945313,-0.97265627 z m -3.503906,-4.9335937 v 0.609375 h 2.847656 c -0.140625,1.40625 -1.335938,2.484375 -3.269531,3.046875 l 0.304687,0.5976562 c 1.734375,-0.515625 2.976563,-1.453125 3.492188,-2.765625 h 2.027343 v 1.0898438 h -2.121093 v 0.609375 h 2.121093 v 1.0664062 h 0.738282 v -4.8515625 h -0.738282 v 1.4882813 h -1.839843 c 0.05859,-0.28125 0.09375,-0.5742188 0.09375,-0.890625 z m 8.633789,3.7617187 v 0.609375 h 2.378906 v 1.51171877 h -3.292969 v 0.62109375 h 7.359375 V -0.92707813 H 41.480289 V -2.4387969 h 2.601563 v -0.609375 h -4.980469 v -1.3125 h 4.792969 v -2.4492187 h -5.542969 v 0.609375 h 4.804687 v 1.2539062 h -4.792968 z m 7.324218,-0.5976562 v 0.5742187 h 7.359375 v -0.5742187 z m 0.902344,3.70312497 v 0.52734375 h 5.800781 V 0.05729687 h -5.0625 v -0.76171875 h 4.804688 V -2.4270781 h -5.566406 v 0.5390625 h 4.828125 v 0.6796875 h -4.804688 z m 0.05859,-4.85156247 v 0.5390625 h 5.601562 v -0.5390625 h -4.875 v -0.6914063 h 4.722657 v -1.6875 H 46.62482 v 0.5273438 h 4.746094 v 0.65625 h -4.722656 z m 11.334961,-2.6601563 v 0.984375 h -1.804688 v 0.5976563 h 1.804688 v 0.140625 c 0,1.0546875 -0.820313,1.9921875 -2.027344,2.3554687 l 0.363281,0.5859375 c 0.960938,-0.3164062 1.6875,-0.9609375 2.039063,-1.8046875 0.351562,0.7617188 1.066406,1.359375 2.003906,1.640625 l 0.339844,-0.5742187 C 59.506656,-3.8684844 58.7215,-4.7591094 58.7215,-5.7317656 v -0.140625 h 1.792969 v -0.5976563 h -1.78125 v -0.984375 z m 3.527344,0.035156 v 4.7109375 h 0.738281 v -2.0859375 h 1.195312 V -5.4153597 H 62.24884 v -2.0039062 z m -4.429688,5.1445312 v 0.609375 h 2.261719 c -0.128906,0.84375002 -1.265625,1.54687502 -2.578125,1.75781252 l 0.28125,0.57421875 c 1.183594,-0.19921875 2.226562,-0.7734375 2.683594,-1.58203125 0.457031,0.796875 1.511718,1.39453125 2.695312,1.58203125 l 0.28125,-0.57421875 C 61.405094,-0.11848438 60.256656,-0.83332813 60.12775,-1.6653594 h 2.261719 v -0.609375 z m 10.78125,-4.6171875 c -1.675781,0 -2.941406,0.8789063 -2.941406,2.2265625 0,1.359375 1.265625,2.2382813 2.941406,2.2382813 1.6875,0 2.953125,-0.8789063 2.953125,-2.2382813 0,-1.3476562 -1.265625,-2.2265625 -2.953125,-2.2265625 z m 0,0.5976563 c 1.289063,0 2.238281,0.6679687 2.238281,1.6289062 0,0.984375 -0.949218,1.6289063 -2.238281,1.6289063 -1.265625,0 -2.226562,-0.6445313 -2.226562,-1.6289063 0,-0.9609375 0.960937,-1.6289062 2.226562,-1.6289062 z m -3.65625,5.29687497 v 0.62109375 H 71.56525 V -0.99739063 Z M 75.807438,-6.1067656 v 2.6015625 h -2.25 V -6.1067656 Z M 76.534,-5.3684844 h 1.851563 v 1.1132813 H 76.534 Z m 1.851563,-2.0390625 v 1.4179688 H 76.534 v -0.7148438 h -3.703125 v 3.7851563 H 76.534 v -0.7265625 h 1.851563 v 2.15625 h 0.738281 v -5.9179688 z m -4.464844,5.390625 v 2.53125002 h 5.390625 v -0.609375 H 74.659 V -2.0169219 Z m 0,0"
         style="fill:#000000;fill-opacity:1;fill-rule:nonzero;stroke:none" />
      <path
         id="path72"
         d="m 86.905094,-0.28254688 c 0,-0.3046875 -0.246094,-0.3046875 -0.375,-0.3046875 H 86.131656 V -5.0989531 c 0,-0.3046875 -0.07031,-0.375 -0.375,-0.375 h -0.679687 c -0.128906,0 -0.375,0 -0.375,0.28125 0,0.2929687 0.234375,0.2929687 0.375,0.2929687 h 0.386719 v 1.3710938 c -0.1875,-0.1757813 -0.550782,-0.3867188 -1.03125,-0.3867188 -0.996094,0 -1.851563,0.8671875 -1.851563,1.9921875 0,1.10156252 0.808594,1.96875002 1.769531,1.96875002 0.410157,0 0.796875,-0.15234375 1.113282,-0.48046875 0,0.28125 0,0.43359375 0.375,0.43359375 h 0.691406 c 0.117187,0 0.375,0 0.375,-0.28125 z M 85.463688,-1.7473906 c 0,0.4804687 -0.398438,1.20703122 -1.066407,1.20703122 -0.621093,0 -1.148437,-0.60937502 -1.148437,-1.38281252 0,-0.8085937 0.574219,-1.40625 1.230469,-1.40625 0.539062,0 0.984375,0.46875 0.984375,0.9492188 z m 5.642578,1.46484372 c 0,-0.3046875 -0.257813,-0.3046875 -0.386719,-0.3046875 h -0.9375 V -3.4934844 c 0,-0.2929687 -0.07031,-0.375 -0.375,-0.375 h -1.300781 c -0.140625,0 -0.386719,0 -0.386719,0.2929688 0,0.2929687 0.234375,0.2929687 0.386719,0.2929687 h 1.007812 v 2.69531252 h -1.089844 c -0.128906,0 -0.375,0 -0.375,0.29296875 0,0.29296875 0.234375,0.29296875 0.375,0.29296875 h 2.695313 c 0.128906,0 0.386719,0 0.386719,-0.28125 z m -1.3125,-4.69921872 c 0,-0.2578125 -0.199219,-0.4570313 -0.457032,-0.4570313 -0.246093,0 -0.457031,0.1992188 -0.457031,0.4570313 0,0.2460937 0.210938,0.4570312 0.457031,0.4570312 0.257813,0 0.457032,-0.2109375 0.457032,-0.4570312 z m 6.008789,3.8554687 c 0,-0.4453125 -0.28125,-0.7265625 -0.492188,-0.8554687 -0.363281,-0.2226563 -0.585937,-0.2695313 -1.429687,-0.3984375 -0.375,-0.058594 -0.960938,-0.1523438 -0.960938,-0.4921875 0,-0.234375 0.28125,-0.4804688 1.101563,-0.4804688 0.820312,0 0.84375,0.3046875 0.855468,0.5039063 0.01172,0.2460937 0.257813,0.2460937 0.328125,0.2460937 0.328125,0 0.328125,-0.1992187 0.328125,-0.375 v -0.5859375 c 0,-0.1289062 0,-0.375 -0.28125,-0.375 -0.210937,0 -0.257812,0.1054688 -0.28125,0.1757813 -0.339843,-0.1757813 -0.785156,-0.1757813 -0.9375,-0.1757813 -1.558593,0 -1.699218,0.8203125 -1.699218,1.0664063 0,0.4804687 0.363281,0.6914062 0.46875,0.7617187 0.304687,0.1875 0.550781,0.234375 1.476562,0.375 0.234375,0.035156 0.9375,0.1523438 0.9375,0.609375 0,0.26953127 -0.257812,0.58593752 -1.113281,0.58593752 -0.550781,0 -0.902344,-0.1875 -1.089844,-0.71484372 -0.05859,-0.1757813 -0.09375,-0.28125 -0.351562,-0.28125 -0.328125,0 -0.328125,0.2109375 -0.328125,0.3867187 v 0.82031252 c 0,0.12890625 0,0.375 0.292968,0.375 0.128907,0 0.257813,-0.0703125 0.328125,-0.31640625 0.445313,0.31640625 0.960938,0.31640625 1.148438,0.31640625 1.488281,0 1.699219,-0.83203125 1.699219,-1.17187502 z m 4.614255,-0.035156 c 0,-0.3046875 -0.22265,-0.3046875 -0.32812,-0.3046875 -0.140627,0 -0.316409,0.011719 -0.328127,0.3046875 -0.02344,0.42187497 -0.375,0.62109372 -0.679688,0.62109372 -0.667969,0 -0.667969,-0.48046872 -0.667969,-0.70312502 v -2.0390625 h 1.429688 c 0.117187,0 0.374996,0 0.374996,-0.28125 0,-0.3046875 -0.24609,-0.3046875 -0.374996,-0.3046875 h -1.429688 v -0.7265625 c 0,-0.1640625 0,-0.375 -0.328125,-0.375 -0.328125,0 -0.328125,0.2109375 -0.328125,0.3867188 v 0.7148437 h -0.75 c -0.140625,0 -0.386718,0 -0.386718,0.3046875 0,0.28125 0.246093,0.28125 0.375,0.28125 h 0.761718 v 2.0742188 c 0,0.93749997 0.644532,1.25390622 1.277344,1.25390622 0.773438,0 1.38281,-0.5390625 1.38281,-1.20703122 z m 0,0"
         style="fill:#000000;fill-opacity:1;fill-rule:nonzero;stroke:none" />
      <path
         id="path73"
         d="m 101.98713,-3.6458281 v 0.5742187 h 7.35937 v -0.5742187 z m 0.90234,3.70312497 v 0.52734375 h 5.80078 V 0.05729687 h -5.0625 v -0.76171875 h 4.80469 V -2.4270781 h -5.56641 v 0.5390625 h 4.82813 v 0.6796875 h -4.80469 z m 0.0586,-4.85156247 v 0.5390625 h 5.60157 v -0.5390625 h -4.875 v -0.6914063 h 4.72265 v -1.6875 h -5.47265 v 0.5273438 h 4.74609 v 0.65625 h -4.72266 z m 13.47071,2.4492187 c -1.69922,0 -2.74219,0.5625 -2.74219,1.50000002 0,0.94921875 1.04297,1.51171875 2.74219,1.51171875 1.69921,0 2.7539,-0.5625 2.7539,-1.51171875 0,-0.93750002 -1.05469,-1.50000002 -2.7539,-1.50000002 z m 0,0.5742188 c 1.23046,0 2.0039,0.3398437 2.0039,0.92578122 0,0.5859375 -0.77344,0.92578125 -2.0039,0.92578125 -1.24219,0 -2.00391,-0.33984375 -2.00391,-0.92578125 0,-0.58593752 0.76172,-0.92578122 2.00391,-0.92578122 z m 0.17578,-5.484375 v 4.5351562 h 0.71484 v -1.9570312 h 1.06641 v 2.2382812 h 0.70312 v -4.96875 h -0.70312 v 2.1210938 h -1.06641 v -1.96875 z m -3.94922,0.5039062 v 0.609375 h 2.36719 c -0.14063,1.3710938 -1.07813,2.4492188 -2.71875,3.1289063 l 0.375,0.5507812 c 2.03906,-0.8671875 3.11718,-2.3320312 3.11718,-4.2890625 z m 13.75781,-0.65625 v 5.9414063 h 0.73828 v -5.9414063 z m -4.46484,5.4023438 v 2.51953122 h 5.46093 v -0.609375 h -4.72265 V -2.0052031 Z m 0.66797,-4.9570313 v 0.8203125 c 0,1.265625 -0.8086,2.4492188 -2.02735,2.9179688 l 0.39844,0.5976562 c 0.9375,-0.3867187 1.66406,-1.171875 2.01562,-2.15625 0.36329,0.9257813 1.07813,1.640625 2.00391,2.0039063 l 0.375,-0.5976563 c -1.19531,-0.4335937 -2.01562,-1.546875 -2.01562,-2.765625 v -0.8203125 z m 8.55175,1.5820313 c -1.16015,0 -1.94531,0.5976562 -1.94531,1.5117187 0,0.9140625 0.78516,1.5117188 1.94531,1.5117188 1.14844,0 1.9336,-0.5976563 1.9336,-1.5117188 0,-0.9140625 -0.78516,-1.5117187 -1.9336,-1.5117187 z m 0,0.5859375 c 0.73828,0 1.23047,0.3632812 1.23047,0.9257812 0,0.5625 -0.49219,0.9257813 -1.23047,0.9257813 -0.73828,0 -1.23047,-0.3632813 -1.23047,-0.9257813 0,-0.5625 0.49219,-0.9257812 1.23047,-0.9257812 z m 3.14063,-2.6132813 v 6.0820313 h 0.73828 v -2.8007813 h 1.19531 v -0.6210937 h -1.19531 v -2.6601563 z m -3.50391,0 v 0.984375 h -2.02734 v 0.609375 h 4.78125 v -0.609375 h -2.01563 v -0.984375 z m -0.79687,5.5898438 v 2.33203122 h 5.40234 v -0.609375 h -4.67578 V -1.8177031 Z m 12.48047,-5.6015625 v 8.12109372 h 0.75 V -3.5989531 h 1.32421 v -0.6210938 h -1.32421 v -3.1992187 z m -5.13282,0.796875 v 5.3085937 h 0.63282 c 1.52343,0 2.58984,-0.046875 3.84375,-0.2695312 l -0.0937,-0.6445313 c -1.1836,0.2226563 -2.21485,0.28125 -3.64454,0.28125 v -4.0664062 h 3.02344 v -0.609375 z m 8.69532,6.73828122 c 0.32812,0 0.59765,-0.24609375 0.59765,-0.62109375 0,-0.375 -0.26953,-0.62109377 -0.59765,-0.62109377 -0.32813,0 -0.58594,0.24609377 -0.58594,0.62109377 0,0.375 0.25781,0.62109375 0.58594,0.62109375 z m 0,0"
         style="fill:#000000;fill-opacity:1;fill-rule:nonzero;stroke:none" />
    </g>
    <path
       id="path74"
       d="M 6.6199375,-7.4181797 V 0.70291406 H 7.3465 V -7.4181797 Z m -4.3476562,1.3710938 c 0.6445312,0 1.0546875,0.8203125 1.0546875,2.1328125 0,1.3125 -0.4101563,2.1328125 -1.0546875,2.1328125 -0.6445313,0 -1.0429688,-0.8203125 -1.0429688,-2.1328125 0,-1.3125 0.3984375,-2.1328125 1.0429688,-2.1328125 z m 2.7539062,1.2070312 v 1.8515625 H 3.9363438 c 0.046875,-0.28125 0.070313,-0.5976562 0.070313,-0.9257812 0,-0.3398438 -0.023438,-0.6445313 -0.070313,-0.9257813 z M 2.2722813,-6.7384922 c -1.0429688,0 -1.7226563,1.0898438 -1.7226563,2.8242188 0,1.734375 0.6796875,2.8242187 1.7226563,2.8242187 0.6796875,0 1.21875,-0.4570312 1.5,-1.2773437 H 5.0261875 V 0.28103906 H 5.7410313 V -7.2423984 H 5.0261875 v 1.7929687 H 3.784 C 3.4910313,-6.2697422 2.9636875,-6.7384922 2.2722813,-6.7384922 Z M 14.623844,-7.4064609 v 2.2382812 h -1.628906 v 0.609375 h 1.628906 v 3.09375 h 0.738281 v -5.9414062 z m -4.429688,5.4140625 V 0.51541406 H 15.5965 v -0.609375 H 10.932438 V -1.9923984 Z M 8.9519688,-6.7502109 v 0.609375 h 1.8046872 v 0.3984375 c 0,1.1484375 -0.832031,2.2265625 -2.0273435,2.6484375 l 0.375,0.5976562 c 0.9609375,-0.3515625 1.6992185,-1.1015625 2.0390625,-2.0273437 0.351563,0.84375 1.054688,1.5117187 1.957031,1.8398437 l 0.375,-0.5859375 c -1.171875,-0.4101562 -1.96875,-1.4414062 -1.96875,-2.4726562 v -0.3984375 h 1.78125 v -0.609375 z m 13.6464842,1.3359375 c -1.640625,0 -2.636719,0.4804687 -2.636719,1.3476562 0,0.8671875 0.996094,1.3476563 2.636719,1.3476563 1.652344,0 2.636719,-0.4804688 2.636719,-1.3476563 0,-0.8671875 -0.984375,-1.3476562 -2.636719,-1.3476562 z m 0,0.5625 c 1.183594,0 1.863281,0.2929687 1.863281,0.7851562 0,0.5039063 -0.679687,0.7851563 -1.863281,0.7851563 -1.183594,0 -1.863281,-0.28125 -1.863281,-0.7851563 0,-0.4921875 0.679687,-0.7851562 1.863281,-0.7851562 z m -0.363281,-2.6015625 v 0.9609375 h -2.90625 v 0.609375 h 6.515625 v -0.609375 h -2.871094 v -0.9609375 z m -3.292969,5.296875 v 0.609375 h 3.292969 v 2.24999996 h 0.738281 V -1.5470859 h 3.328125 v -0.609375 z m 9.855469,-2.6367188 h 4.125 v 1.4882813 h -4.125 z m -0.738281,-2.0507812 v 4.1601562 h 2.425781 v 1.73437501 h -3.292969 v 0.62109375 h 7.359375 V -0.94942969 H 31.223453 V -2.6838047 h 2.4375 v -4.1601562 h -0.738281 v 1.4414062 h -4.125 v -1.4414062 z m 7.371093,3.5625 v 0.5976562 h 7.359375 v -0.5976562 z m 0.996094,-3.8320313 v 2.7421875 h 5.519531 v -0.609375 h -4.78125 v -2.1328125 z m -0.04687,5.25 v 2.36718751 h 5.613281 v -0.609375 h -4.875 V -1.8634922 Z m 9.319336,-1.2304687 v 0.609375 h 1.898438 v 3.17578121 h 0.738281 V -2.4845859 h 2.027344 v 3.17578121 h 0.75 V -2.4845859 h 1.910156 v -0.609375 h -1.207031 c 0.28125,-1.3125 0.28125,-2.2382813 0.28125,-3.09375 V -6.9259922 H 46.62482 v 0.609375 h 4.757813 v 0.1289063 c 0,0.328125 0,0.65625 -0.01172,1.0195312 l -4.980469,0.1640625 0.105469,0.6445313 4.839844,-0.234375 c -0.04687,0.4453125 -0.128906,0.9492187 -0.269531,1.5 z M 60.12482,-7.4181797 v 8.12109376 h 0.726563 V -7.4181797 Z m -4.347656,1.3710938 c 0.644531,0 1.042969,0.8203125 1.042969,2.1328125 0,1.3125 -0.398438,2.1328125 -1.042969,2.1328125 -0.632812,0 -1.03125,-0.8203125 -1.03125,-2.1328125 0,-1.3125 0.398438,-2.1328125 1.03125,-2.1328125 z m 0,-0.6914063 c -1.042969,0 -1.722656,1.0898438 -1.722656,2.8242188 0,1.734375 0.679687,2.8242187 1.722656,2.8242187 0.996094,0 1.664063,-0.9726562 1.722656,-2.5546875 h 1.019532 v 3.92578126 h 0.703125 V -7.2423984 h -0.703125 v 2.9882812 H 57.49982 c -0.08203,-1.5351562 -0.738281,-2.484375 -1.722656,-2.484375 z m 9.612305,4.359375 v 2.96484376 h 5.109375 V -2.3791172 Z m 4.382812,0.5859375 v 1.76953126 h -3.65625 V -1.7931797 Z m -0.01172,-5.6132812 v 4.5820312 h 0.738281 v -2.109375 h 1.207031 v -0.6210937 h -1.207031 v -1.8515625 z m -5.167969,3.3398437 v 0.6210938 h 0.644531 c 1.207031,0 2.425781,-0.082031 3.785156,-0.3515625 l -0.09375,-0.6210938 c -1.289062,0.2578125 -2.449218,0.3515625 -3.585937,0.3515625 v -2.9296875 h -0.75 z m 10.019531,-2.71875 c -1.195312,0 -2.039062,1.1015625 -2.039062,2.8242188 0,1.734375 0.84375,2.8359375 2.039062,2.8359375 1.195313,0 2.039063,-1.1015625 2.039063,-2.8359375 0,-1.7226563 -0.84375,-2.8242188 -2.039063,-2.8242188 z m 0,0.6679688 c 0.785156,0 1.324219,0.84375 1.324219,2.15625 0,1.3125 -0.539063,2.1679687 -1.324219,2.1679687 -0.785156,0 -1.324219,-0.8554687 -1.324219,-2.1679687 0,-1.3125 0.539063,-2.15625 1.324219,-2.15625 z m 3.328125,-1.3007813 v 8.12109376 h 0.75 V -3.5509922 h 1.324219 V -4.1720859 H 78.69025 v -3.2460938 z m 10.678711,0.011719 v 4.6289062 h 0.738281 v -4.6289062 z m -3.609375,0.46875 c -1.21875,0 -2.109375,0.7734375 -2.109375,1.8984375 0,1.1132812 0.890625,1.8867187 2.109375,1.8867187 1.230469,0 2.121094,-0.7734375 2.121094,-1.8867187 0,-1.125 -0.890625,-1.8984375 -2.121094,-1.8984375 z m 0,0.6210937 c 0.808594,0 1.394531,0.5273438 1.394531,1.2773438 0,0.75 -0.585937,1.265625 -1.394531,1.265625 -0.808594,0 -1.382813,-0.515625 -1.382813,-1.265625 0,-0.75 0.574219,-1.2773438 1.382813,-1.2773438 z m 2.730469,3.890625 v 0.4335938 c 0,0.6328125 -0.398438,1.44140621 -1.160157,1.92187496 -0.75,-0.4453125 -1.125,-1.20703126 -1.125,-1.92187496 V -2.425992 h -0.726562 v 0.4335938 c 0,0.7851562 -0.597656,1.65234371 -1.617188,2.02734371 l 0.363282,0.55078125 c 0.773437,-0.29296875 1.324218,-0.84375 1.605468,-1.5 0.246094,0.66796875 0.738282,1.265625 1.511719,1.5703125 0.75,-0.31640625 1.242188,-0.9375 1.488281,-1.59375 0.28125,0.6796875 0.84375,1.23046875 1.640625,1.5234375 L 90.083803,0.03494551 C 89.052553,-0.31661699 88.466615,-1.1486482 88.466615,-1.9923982 V -2.425992 Z m 5.387695,-3.6914062 c 0.773438,0 1.3125,0.84375 1.3125,2.15625 0,1.3125 -0.539062,2.1679687 -1.3125,2.1679687 -0.773437,0 -1.3125,-0.8554687 -1.3125,-2.1679687 0,-1.3125 0.539063,-2.15625 1.3125,-2.15625 z m 3.773438,-1.3007813 v 3.09375 h -1.769532 c -0.105468,-1.5117187 -0.902343,-2.4609375 -2.003906,-2.4609375 -1.183594,0 -2.027344,1.1015625 -2.027344,2.8242188 0,1.734375 0.84375,2.8359375 2.027344,2.8359375 1.125,0 1.933594,-1.0078125 2.003906,-2.5898438 h 1.769532 V 0.70291406 H 97.62775 V -7.4181797 Z m 3.246094,0.65625 v 3.7382813 h 2.35547 v 2.08593746 h -3.292971 v 0.609375 h 7.359381 v -0.609375 h -3.32813 V -3.0236484 h 2.47266 v -0.5976563 h -4.82813 v -2.53125 h 4.7461 v -0.609375 z m 9.68262,-0.011719 v 0.609375 h 2.67187 c 0,0.5390625 -0.0117,1.1953125 -0.1875,2.0976562 l 0.69141,0.082031 c 0.1875,-0.9609375 0.1875,-1.6757813 0.1875,-2.25 v -0.5390625 z m -0.36328,4.1367187 c 1.10156,0 2.8125,-0.035156 4.11328,-0.2695312 l -0.0352,-0.5390625 c -0.60937,0.082031 -1.33594,0.1289062 -2.0625,0.1523437 v -1.640625 h -0.6914 v 1.6640625 l -1.40625,0.011719 z m 4.46484,-4.6289062 v 5.7773437 h 0.70313 V -4.218961 h 0.94921 v 2.9648437 h 0.71485 V -7.406461 h -0.71485 v 2.578125 h -0.94921 v -2.4375 z m -3.09375,5.3789062 v 2.40234376 h 5.68359 v -0.609375 h -4.93359 V -1.8869297 Z m 11.94141,0.3867188 c -0.87891,0 -1.51172,0.4335937 -1.51172,1.10156246 0,0.65625 0.63281,1.08984375 1.51172,1.08984375 0.86718,0 1.48828,-0.43359375 1.48828,-1.08984375 0,-0.66796876 -0.6211,-1.10156246 -1.48828,-1.10156246 z m 0,0.52734371 c 0.46875,0 0.82031,0.22265625 0.82031,0.57421875 0,0.33984375 -0.35156,0.57421875 -0.82031,0.57421875 -0.49219,0 -0.83203,-0.234375 -0.83203,-0.57421875 0,-0.3515625 0.33984,-0.57421875 0.83203,-0.57421875 z m 0.49218,-6.44531251 v 4.1953125 h 0.73829 v -1.734375 h 1.19531 V -5.578336 h -1.19531 v -1.8398438 z m -4.71093,4.9335938 v 2.99999996 h 0.39843 c 0.53907,0 1.30079,-0.0351563 2.07422,-0.29296875 l -0.11718,-0.5859375 c -0.5625,0.1875 -1.16016,0.234375 -1.62891,0.2578125 V -2.4845859 Z m 3.85547,-0.5742188 v 0.7148438 h -1.67579 v 0.5507812 h 4.06641 V -2.343961 h -1.66406 v -0.7148438 z m -2.67188,-4.3828125 v 0.8554688 h -1.80469 v 0.609375 h 1.80469 v 0.140625 c 0,0.9726562 -0.84375,1.8046875 -2.03906,2.1210937 l 0.32812,0.5742188 c 0.9961,-0.2695313 1.75782,-0.8789063 2.10938,-1.6757813 0.35156,0.6796875 1.08984,1.2070313 2.02734,1.4414063 l 0.31641,-0.5742188 c -1.17188,-0.2929687 -2.00391,-1.03125 -2.00391,-1.8867187 v -0.140625 h 1.79297 v -0.609375 h -1.78125 v -0.8554688 z m 11.70703,0.023437 v 8.12109376 h 0.75 V -3.5978672 h 1.32422 v -0.6210937 h -1.32422 v -3.1992188 z m -5.13281,0.796875 v 5.3085938 h 0.63281 c 1.52344,0 2.58985,-0.046875 3.84375,-0.2695313 l -0.0937,-0.6445312 c -1.18359,0.2226562 -2.21484,0.28125 -3.64453,0.28125 v -4.0664063 h 3.02344 v -0.609375 z m 8.69238,6.73828126 c 0.32813,0 0.59766,-0.24609375 0.59766,-0.62109375 0,-0.375 -0.26953,-0.62109371 -0.59766,-0.62109371 -0.32812,0 -0.58593,0.24609371 -0.58593,0.62109371 0,0.375 0.25781,0.62109375 0.58593,0.62109375 z m 0,0"
       style="fill:#000000;fill-opacity:1;fill-rule:nonzero;stroke:none"
       aria-label="예전후보는큐에남아있어도괜찮다."
       transform="matrix(1.3333333,0,0,1.3333333,279.45467,233.512)" />
  </g>
</svg>
