<svg xmlns="http://www.w3.org/2000/svg" width="760" height="300" viewBox="0 0 760 300">
<rect width="100%" height="100%" fill="white"/>

<style>
text{font-family:"JetBrains Mono","Consolas","Noto Sans Mono CJK KR",monospace;fill:#202020}
.node{fill:white;stroke:#202020;stroke-width:1.2}
.nodeHi{fill:#d9d9d9;stroke:#202020;stroke-width:1.6}
.edge{stroke:#777;stroke-width:1.1;fill:none;marker-end:url(#arrow)}
.edgeHi{stroke:#202020;stroke-width:2.4;fill:none;marker-end:url(#arrowHi)}
.edgeDash{stroke:#777;stroke-width:1.4;stroke-dasharray:5 4;fill:none;marker-end:url(#arrow)}
.w{font-size:11px}
.label{font-size:13px}
.small{font-size:12px}
.tiny{font-size:10px}
.card{fill:white;stroke:#d0d0d0;stroke-width:1.1}
.cell{fill:white;stroke:#999;stroke-width:1}
.cellHi{fill:#e0e0e0;stroke:#202020;stroke-width:1.2}
.cellLight{fill:white;stroke:#d0d0d0;stroke-width:1}
.disabled{font-size:12px;fill:#999}
</style>
<defs>
<marker id="arrow" markerWidth="8" markerHeight="8" refX="7" refY="3" orient="auto"><path d="M0,0 L0,6 L8,3 z" fill="#777"/></marker>
<marker id="arrowHi" markerWidth="8" markerHeight="8" refX="7" refY="3" orient="auto"><path d="M0,0 L0,6 L8,3 z" fill="#202020"/></marker>
</defs>

<line x1="205.0" y1="78.0" x2="205.0" y2="107.0" class="edgeHi"/><text x="217.0" y="92.5" text-anchor="middle" class="w">1</text>
<line x1="217.9" y1="74.0" x2="287.1" y2="176.0" class="edgeHi"/><text x="268.5" y="117.0" text-anchor="middle" class="w">4</text>
<line x1="193.6" y1="75.0" x2="136.4" y2="175.0" class="edgeDash"/><text x="147.0" y="117.0" text-anchor="middle" class="w">7</text>
<line x1="187.1" y1="144.5" x2="142.9" y2="180.5" class="edgeHi"/><text x="147.0" y="159.5" text-anchor="middle" class="w">2</text>
<line x1="205.0" y1="153.0" x2="205.0" y2="232.0" class="edgeDash"/><text x="219.0" y="192.5" text-anchor="middle" class="w">5</text>
<line x1="143.4" y1="208.8" x2="186.6" y2="241.2" class="edgeHi"/><text x="151.0" y="233.0" text-anchor="middle" class="w">2</text>
<line x1="280.6" y1="207.3" x2="224.4" y2="242.7" class="edge"/><text x="266.5" y="233.0" text-anchor="middle" class="w">1</text>
<circle cx="205" cy="55" r="19" class="nodeHi"/>
<text x="205" y="60" text-anchor="middle" class="label">1</text>
<circle cx="205" cy="130" r="19" class="nodeHi"/>
<text x="205" y="135" text-anchor="middle" class="label">5</text>
<circle cx="125" cy="195" r="19" class="nodeHi"/>
<text x="125" y="200" text-anchor="middle" class="label">2</text>
<circle cx="300" cy="195" r="19" class="nodeHi"/>
<text x="300" y="200" text-anchor="middle" class="label">3</text>
<circle cx="205" cy="255" r="19" class="nodeHi"/>
<text x="205" y="260" text-anchor="middle" class="label">4</text>
<rect x="370" y="28" width="350" height="190" rx="3" class="card"/>
<text x="395" y="37" class="small">dist</text>
<text x="421.0" y="50" text-anchor="middle" class="tiny">1</text>
<rect x="395" y="55" width="52" height="28" class="cell"/>
<text x="421.0" y="73" text-anchor="middle" class="small">0</text>
<text x="473.0" y="50" text-anchor="middle" class="tiny">2</text>
<rect x="447" y="55" width="52" height="28" class="cellHi"/>
<text x="473.0" y="73" text-anchor="middle" class="small">3</text>
<text x="525.0" y="50" text-anchor="middle" class="tiny">3</text>
<rect x="499" y="55" width="52" height="28" class="cell"/>
<text x="525.0" y="73" text-anchor="middle" class="small">4</text>
<text x="577.0" y="50" text-anchor="middle" class="tiny">4</text>
<rect x="551" y="55" width="52" height="28" class="cellHi"/>
<text x="577.0" y="73" text-anchor="middle" class="small">5</text>
<text x="629.0" y="50" text-anchor="middle" class="tiny">5</text>
<rect x="603" y="55" width="52" height="28" class="cell"/>
<text x="629.0" y="73" text-anchor="middle" class="small">1</text>
<text x="395" y="111" class="small">priority_queue</text>
<rect x="395" y="125" width="62" height="32" class="cellHi"/>
<text x="426.0" y="145" text-anchor="middle" class="small">(4, 3)</text>
<rect x="467" y="125" width="62" height="32" class="cell"/>
<text x="498.0" y="145" text-anchor="middle" class="small">(5, 4)</text>
<rect x="539" y="125" width="62" height="32" class="cellLight"/>
<text x="570.0" y="145" text-anchor="middle" class="disabled">(6, 4)</text>
<rect x="611" y="125" width="62" height="32" class="cellLight"/>
<text x="642.0" y="145" text-anchor="middle" class="disabled">(7, 2)</text>
</svg>