<?xml version="1.0" encoding="UTF-8" standalone="no"?>
<!-- Created with Inkscape (http://www.inkscape.org/) -->

<svg
   version="1.1"
   id="svg1"
   width="577.70667"
   height="262.61334"
   viewBox="0 0 577.70667 262.61334"
   sodipodi:docname="4.pdf"
   xmlns:inkscape="http://www.inkscape.org/namespaces/inkscape"
   xmlns:sodipodi="http://sodipodi.sourceforge.net/DTD/sodipodi-0.dtd"
   xmlns="http://www.w3.org/2000/svg"
   xmlns:svg="http://www.w3.org/2000/svg">
  <defs
     id="defs1" />
  <sodipodi:namedview
     id="namedview1"
     pagecolor="#ffffff"
     bordercolor="#000000"
     borderopacity="0.25"
     inkscape:showpageshadow="2"
     inkscape:pageopacity="0.0"
     inkscape:pagecheckerboard="0"
     inkscape:deskcolor="#d1d1d1">
    <inkscape:page
       x="0"
       y="0"
       inkscape:label="1"
       id="page1"
       width="577.70667"
       height="262.61334"
       margin="0"
       bleed="0" />
  </sodipodi:namedview>
  <g
     id="g1"
     inkscape:groupmode="layer"
     inkscape:label="1">
    <path
       id="path1"
       d="M 69.49881,81.48897 25.12749,14.41605"
       style="fill:none;stroke:#858585;stroke-width:0.57784;stroke-linecap:butt;stroke-linejoin:miter;stroke-miterlimit:10;stroke-dasharray:none;stroke-opacity:1"
       transform="matrix(1.3333333,0,0,-1.3333333,9.3013333,155.30933)" />
    <path
       id="path2"
       d="M 3.33876,0 C 2.92874,0.10161 1.12645,0.67744 0,1.30406 V -1.30406 C 1.12645,-0.67744 2.92874,-0.10161 3.33876,0 Z"
       style="fill:#858585;fill-opacity:1;fill-rule:nonzero;stroke:#858585;stroke-width:0.57784;stroke-linecap:butt;stroke-linejoin:miter;stroke-miterlimit:10;stroke-dasharray:none;stroke-opacity:1"
       transform="matrix(-0.7356,1.11196,1.11196,0.7356,42.804667,136.08793)" />
    <path
       id="path3"
       d="M 83.57375,81.48897 127.94551,14.41605"
       style="fill:none;stroke:#858585;stroke-width:0.57784;stroke-linecap:butt;stroke-linejoin:miter;stroke-miterlimit:10;stroke-dasharray:none;stroke-opacity:1"
       transform="matrix(1.3333333,0,0,-1.3333333,9.3013333,155.30933)" />
    <path
       id="path4"
       d="M 3.33876,0 C 2.92874,0.10161 1.12645,0.67744 0,1.30406 V -1.30406 C 1.12645,-0.67744 2.92874,-0.10161 3.33876,0 Z"
       style="fill:#858585;fill-opacity:1;fill-rule:nonzero;stroke:#858585;stroke-width:0.57784;stroke-linecap:butt;stroke-linejoin:miter;stroke-miterlimit:10;stroke-dasharray:none;stroke-opacity:1"
       transform="matrix(0.7356,1.11196,1.11196,-0.7356,179.89533,136.08793)" />
    <path
       id="path5"
       d="M 76.53629,79.37106 V 62.07408"
       style="fill:none;stroke:#858585;stroke-width:0.57784;stroke-linecap:butt;stroke-linejoin:miter;stroke-miterlimit:10;stroke-dasharray:none;stroke-opacity:1"
       transform="matrix(1.3333333,0,0,-1.3333333,9.3013333,155.30933)" />
    <path
       id="path6"
       d="M 3.33876,0 C 2.92874,0.10161 1.12645,0.67744 0,1.30406 V -1.30406 C 1.12645,-0.67744 2.92874,-0.10161 3.33876,0 Z"
       style="fill:#858585;fill-opacity:1;fill-rule:nonzero;stroke:#858585;stroke-width:0.57784;stroke-linecap:butt;stroke-linejoin:miter;stroke-miterlimit:10;stroke-dasharray:none;stroke-opacity:1"
       transform="matrix(0,1.3333333,1.3333333,0,111.34972,72.543893)" />
    <path
       id="path7"
       d="M 66.25803,37.23453 29.51944,10.23564"
       style="fill:none;stroke:#858585;stroke-width:0.57784;stroke-linecap:butt;stroke-linejoin:miter;stroke-miterlimit:10;stroke-dasharray:none;stroke-opacity:1"
       transform="matrix(1.3333333,0,0,-1.3333333,9.3013333,155.30933)" />
    <path
       id="path8"
       d="M 3.33876,0 C 2.92874,0.10161 1.12645,0.67744 0,1.30406 V -1.30406 C 1.12645,-0.67744 2.92874,-0.10161 3.33876,0 Z"
       style="fill:#858585;fill-opacity:1;fill-rule:nonzero;stroke:#858585;stroke-width:0.57784;stroke-linecap:butt;stroke-linejoin:miter;stroke-miterlimit:10;stroke-dasharray:none;stroke-opacity:1"
       transform="matrix(-1.07436,0.78950667,0.78950667,1.07436,48.660587,141.66181)" />
    <path
       id="path9"
       d="m 76.53629,32.03194 v -68.6046"
       style="fill:none;stroke:#858585;stroke-width:0.57784;stroke-linecap:butt;stroke-linejoin:miter;stroke-miterlimit:10;stroke-dasharray:none;stroke-opacity:1"
       transform="matrix(1.3333333,0,0,-1.3333333,9.3013333,155.30933)" />
    <path
       id="path10"
       d="M 3.33876,0 C 2.92874,0.10161 1.12645,0.67744 0,1.30406 V -1.30406 C 1.12645,-0.67744 2.92874,-0.10161 3.33876,0 Z"
       style="fill:#858585;fill-opacity:1;fill-rule:nonzero;stroke:#858585;stroke-width:0.57784;stroke-linecap:butt;stroke-linejoin:miter;stroke-miterlimit:10;stroke-dasharray:none;stroke-opacity:1"
       transform="matrix(0,1.3333333,1.3333333,0,111.34972,204.07288)" />
    <path
       id="path11"
       d="M 25.1487,-8.44647 63.5844,-42.41241"
       style="fill:none;stroke:#858585;stroke-width:0.57784;stroke-linecap:butt;stroke-linejoin:miter;stroke-miterlimit:10;stroke-dasharray:none;stroke-opacity:1"
       transform="matrix(1.3333333,0,0,-1.3333333,9.3013333,155.30933)" />
    <path
       id="path12"
       d="M 3.33876,0 C 2.92874,0.10161 1.12645,0.67744 0,1.30406 V -1.30406 C 1.12645,-0.67744 2.92874,-0.10161 3.33876,0 Z"
       style="fill:#858585;fill-opacity:1;fill-rule:nonzero;stroke:#858585;stroke-width:0.57784;stroke-linecap:butt;stroke-linejoin:miter;stroke-miterlimit:10;stroke-dasharray:none;stroke-opacity:1"
       transform="matrix(0.99902667,0.88289333,0.88289333,-0.99902667,94.080507,211.85921)" />
    <path
       id="path13"
       d="M 127.9243,-8.44647 89.48845,-42.41269"
       style="fill:none;stroke:#858585;stroke-width:0.57784;stroke-linecap:butt;stroke-linejoin:miter;stroke-miterlimit:10;stroke-dasharray:none;stroke-opacity:1"
       transform="matrix(1.3333333,0,0,-1.3333333,9.3013333,155.30933)" />
    <path
       id="path14"
       d="M 3.33876,0 C 2.92874,0.10161 1.12645,0.67744 0,1.30406 V -1.30406 C 1.12645,-0.67744 2.92874,-0.10161 3.33876,0 Z"
       style="fill:#858585;fill-opacity:1;fill-rule:nonzero;stroke:#858585;stroke-width:0.57784;stroke-linecap:butt;stroke-linejoin:miter;stroke-miterlimit:10;stroke-dasharray:none;stroke-opacity:1"
       transform="matrix(-0.99904,0.88288,0.88288,0.99904,128.61927,211.85959)" />
    <path
       id="path15"
       d="m 34.76976,49.24258 h 5.86307 v 6.96497 h -5.86307 z"
       style="fill:#ffffff;fill-opacity:1;fill-rule:nonzero;stroke:none"
       transform="matrix(1.3333333,0,0,-1.3333333,9.3013333,155.30933)" />
    <path
       id="path16"
       d="m 1.3820234,1.640625e-4 h 0.65625 C 2.1203047,-1.9334297 2.3663984,-3.0701484 3.5382734,-4.5818672 V -4.9685859 H 0.33905469 v 0.5507812 H 2.8234297 c -0.984375,1.359375 -1.3476563,2.5429688 -1.4414063,4.4179687625 z m 0,0"
       style="fill:#000000;fill-opacity:1;fill-rule:nonzero;stroke:none"
       aria-label="7"
       transform="matrix(1.3333333,0,0,1.3333333,56.989333,88.324)" />
    <path
       id="path17"
       d="m 112.15643,49.24258 h 5.86307 v 6.96497 h -5.86307 z"
       style="fill:#ffffff;fill-opacity:1;fill-rule:nonzero;stroke:none"
       transform="matrix(1.3333333,0,0,-1.3333333,9.3013333,155.30933)" />
    <path
       id="path18"
       d="M 2.3670938,1.640625e-4 H 2.96475 V -1.3709297 h 0.6914063 v -0.515625 H 2.96475 V -4.9685859 H 2.261625 l -2.12109375,3.1757812 v 0.421875 H 2.3670938 Z m 0,-1.8867187625 H 0.79678125 L 1.9686563,-3.5857734 c 0.140625,-0.2460938 0.28125,-0.46875 0.4101562,-0.703125 H 2.40225 c -0.011719,0.2578125 -0.035156,0.703125 -0.035156,0.9492187 z m 0,0"
       style="fill:#000000;fill-opacity:1;fill-rule:nonzero;stroke:none"
       aria-label="4"
       transform="matrix(1.3333333,0,0,1.3333333,160.172,88.324)" />
    <path
       id="path19"
       d="m 80.12439,65.11673 h 5.86307 v 6.96497 h -5.86307 z"
       style="fill:#ffffff;fill-opacity:1;fill-rule:nonzero;stroke:none"
       transform="matrix(1.3333333,0,0,-1.3333333,9.3013333,155.30933)" />
    <path
       id="path20"
       d="M 0.60807813,0.00111719 H 3.4205781 v -0.52734375 h -1.03125 V -4.9676328 H 1.8971406 c -0.2695312,0.1640625 -0.5976562,0.28125 -1.05468747,0.3632812 v 0.4101563 H 1.7565156 v 3.66796874 H 0.60807813 Z m 0,0"
       style="fill:#000000;fill-opacity:1;fill-rule:nonzero;stroke:none"
       aria-label="1"
       transform="matrix(1.3333333,0,0,1.3333333,117.46267,67.158667)" />
    <path
       id="path21"
       d="m 40.72235,22.26787 h 5.86307 v 7.05562 h -5.86307 z"
       style="fill:#ffffff;fill-opacity:1;fill-rule:nonzero;stroke:none"
       transform="matrix(1.3333333,0,0,-1.3333333,9.3013333,155.30933)" />
    <path
       id="path22"
       d="M 0.30402344,-0.00120313 H 3.5149609 V -0.55198438 H 2.0735547 c -0.2578125,0 -0.5625,0.0234375 -0.8320313,0.046875 1.171875,-1.23046872 2.0390625,-2.16796872 2.0390625,-3.10546872 0,-0.8789063 -0.5859375,-1.453125 -1.5,-1.453125 -0.6445312,0 -1.08984371,0.2929687 -1.49999996,0.75 l 0.36328125,0.3632812 c 0.29296875,-0.328125 0.64453121,-0.5976562 1.06640621,-0.5976562 0.6328125,0 0.9375,0.4101562 0.9375,0.9726562 0,0.8085938 -0.84375,1.7109375 -2.34374996,3.19921877 z m 0,0"
       style="fill:#000000;fill-opacity:1;fill-rule:nonzero;stroke:none"
       aria-label="2"
       transform="matrix(1.3333333,0,0,1.3333333,64.926667,124.29067)" />
    <path
       id="path23"
       d="m 80.69145,-8.63 h 5.86307 v 7.05559 h -5.86307 z"
       style="fill:#ffffff;fill-opacity:1;fill-rule:nonzero;stroke:none"
       transform="matrix(1.3333333,0,0,-1.3333333,9.3013333,155.30933)" />
    <path
       id="path24"
       d="m 1.8281875,0.09414062 c 0.8554688,0 1.6757813,-0.609375 1.6757813,-1.68750002 0,-1.0664062 -0.703125,-1.546875 -1.546875,-1.546875 -0.3046875,0 -0.5390625,0.070312 -0.7617188,0.1992188 l 0.1289063,-1.4765625 h 1.921875 V -4.9683594 H 0.76178125 l -0.1640625,2.390625 0.33984375,0.2109375 c 0.2929688,-0.1875 0.515625,-0.3046875 0.8554688,-0.3046875 0.6445312,0 1.0546875,0.4101563 1.0546875,1.1015625 0,0.69140627 -0.4804688,1.13671877 -1.078125,1.13671877 -0.5976563,0 -0.9726563,-0.28125 -1.26562505,-0.57421877 L 0.1875625,-0.58554688 c 0.3515625,0.33984375 0.8320313,0.6796875 1.640625,0.6796875 z m 0,0"
       style="fill:#000000;fill-opacity:1;fill-rule:nonzero;stroke:none"
       aria-label="5"
       transform="matrix(1.3333333,0,0,1.3333333,118.21867,165.36667)" />
    <path
       id="path25"
       d="m 40.15573,-33.29204 h 5.86307 v 7.05562 h -5.86307 z"
       style="fill:#ffffff;fill-opacity:1;fill-rule:nonzero;stroke:none"
       transform="matrix(1.3333333,0,0,-1.3333333,9.3013333,155.30933)" />
    <path
       id="path26"
       d="M 0.30559375,3.203125e-4 H 3.5165313 V -0.55046094 H 2.075125 c -0.2578125,0 -0.5625,0.0234375 -0.8320312,0.046875 1.171875,-1.23046876 2.0390625,-2.16796876 2.0390625,-3.10546876 0,-0.8789062 -0.5859375,-1.453125 -1.5,-1.453125 -0.6445313,0 -1.0898438,0.2929688 -1.50000005,0.75 l 0.36328125,0.3632813 c 0.29296875,-0.328125 0.6445313,-0.5976563 1.0664063,-0.5976563 0.6328125,0 0.9375,0.4101563 0.9375,0.9726563 0,0.8085937 -0.84375,1.7109375 -2.34375005,3.19921871 z m 0,0"
       style="fill:#000000;fill-opacity:1;fill-rule:nonzero;stroke:none"
       aria-label="2"
       transform="matrix(1.3333333,0,0,1.3333333,64.170667,198.37067)" />
    <path
       id="path27"
       d="m 111.02275,-33.2467 h 5.86307 v 6.96497 h -5.86307 z"
       style="fill:#ffffff;fill-opacity:1;fill-rule:nonzero;stroke:none"
       transform="matrix(1.3333333,0,0,-1.3333333,9.3013333,155.30933)" />
    <path
       id="path28"
       d="M 0.60949219,-5.546875e-4 H 3.4219922 V -0.52789844 h -1.03125 V -4.9693047 H 1.8985547 c -0.2695313,0.1640625 -0.5976563,0.28125 -1.05468751,0.3632813 v 0.4101562 H 1.7579297 v 3.66796876 H 0.60949219 Z m 0,0"
       style="fill:#000000;fill-opacity:1;fill-rule:nonzero;stroke:none"
       aria-label="1"
       transform="matrix(1.3333333,0,0,1.3333333,158.66,198.30933)" />
    <path
       id="path29"
       d="M 76.53629,79.37106 V 62.39136"
       style="fill:none;stroke:#000000;stroke-width:1.11581;stroke-linecap:butt;stroke-linejoin:miter;stroke-miterlimit:10;stroke-dasharray:none;stroke-opacity:1"
       transform="matrix(1.3333333,0,0,-1.3333333,9.3013333,155.30933)" />
    <path
       id="path30"
       d="M 2.62674,0 C 2.30415,0.0843 0.88622,0.56209 0,1.08202 V -1.08202 C 0.88622,-0.56209 2.30415,-0.0843 2.62674,0 Z"
       style="fill:#000000;fill-opacity:1;fill-rule:nonzero;stroke:#000000;stroke-width:1.07715;stroke-linecap:butt;stroke-linejoin:miter;stroke-miterlimit:10;stroke-dasharray:none;stroke-opacity:1"
       transform="matrix(0,1.3333333,1.3333333,0,111.34972,72.120853)" />
    <path
       id="path31"
       d="M 66.25803,37.23453 29.77509,10.42351"
       style="fill:none;stroke:#000000;stroke-width:1.11581;stroke-linecap:butt;stroke-linejoin:miter;stroke-miterlimit:10;stroke-dasharray:none;stroke-opacity:1"
       transform="matrix(1.3333333,0,0,-1.3333333,9.3013333,155.30933)" />
    <path
       id="path32"
       d="M 2.62674,0 C 2.30415,0.0843 0.88622,0.56209 0,1.08202 V -1.08202 C 0.88622,-0.56209 2.30415,-0.0843 2.62674,0 Z"
       style="fill:#000000;fill-opacity:1;fill-rule:nonzero;stroke:#000000;stroke-width:1.07715;stroke-linecap:butt;stroke-linejoin:miter;stroke-miterlimit:10;stroke-dasharray:none;stroke-opacity:1"
       transform="matrix(-1.07436,0.78950667,0.78950667,1.07436,49.001467,141.41132)" />
    <path
       id="path33"
       d="M 83.57375,81.48897 127.77048,14.68065"
       style="fill:none;stroke:#000000;stroke-width:1.11581;stroke-linecap:butt;stroke-linejoin:miter;stroke-miterlimit:10;stroke-dasharray:none;stroke-opacity:1"
       transform="matrix(1.3333333,0,0,-1.3333333,9.3013333,155.30933)" />
    <path
       id="path34"
       d="M 2.62674,0 C 2.30415,0.0843 0.88622,0.56209 0,1.08202 V -1.08202 C 0.88622,-0.56209 2.30415,-0.0843 2.62674,0 Z"
       style="fill:#000000;fill-opacity:1;fill-rule:nonzero;stroke:#000000;stroke-width:1.07715;stroke-linecap:butt;stroke-linejoin:miter;stroke-miterlimit:10;stroke-dasharray:none;stroke-opacity:1"
       transform="matrix(0.7356,1.11196,1.11196,-0.7356,179.66195,135.73513)" />
    <path
       id="path35"
       d="M 25.1487,-8.44647 63.34666,-42.20233"
       style="fill:none;stroke:#000000;stroke-width:1.11581;stroke-linecap:butt;stroke-linejoin:miter;stroke-miterlimit:10;stroke-dasharray:none;stroke-opacity:1"
       transform="matrix(1.3333333,0,0,-1.3333333,9.3013333,155.30933)" />
    <path
       id="path36"
       d="M 2.62674,0 C 2.30415,0.0843 0.88622,0.56209 0,1.08202 V -1.08202 C 0.88622,-0.56209 2.30415,-0.0843 2.62674,0 Z"
       style="fill:#000000;fill-opacity:1;fill-rule:nonzero;stroke:#000000;stroke-width:1.07715;stroke-linecap:butt;stroke-linejoin:miter;stroke-miterlimit:10;stroke-dasharray:none;stroke-opacity:1"
       transform="matrix(0.99902667,0.88289333,0.88289333,-0.99902667,93.763547,211.57911)" />
    <path
       id="path37"
       d="m 90.70969,92.1271 c 0,7.82786 -6.34555,14.1734 -14.1734,14.1734 -7.82785,0 -14.17341,-6.34554 -14.17341,-14.1734 0,-7.82783 6.34556,-14.17338 14.17341,-14.17338 7.82785,0 14.1734,6.34555 14.1734,14.17338 z"
       style="fill:#dedede;fill-opacity:1;fill-rule:nonzero;stroke:#000000;stroke-width:0.84683;stroke-linecap:butt;stroke-linejoin:miter;stroke-miterlimit:10;stroke-dasharray:none;stroke-opacity:1"
       transform="matrix(1.3333333,0,0,-1.3333333,9.3013333,155.30933)" />
    <path
       id="path38"
       d="M 0.78459375,-2.1875e-4 H 4.3939688 v -0.6796875 H 3.06975 V -6.3869375 H 2.4486563 C 2.085375,-6.176 1.6635,-6.0236563 1.0892813,-5.9181875 v 0.515625 h 1.171875 v 4.72265625 H 0.78459375 Z m 0,0"
       style="fill:#000000;fill-opacity:1;fill-rule:nonzero;stroke:none"
       aria-label="1"
       transform="matrix(1.3333333,0,0,1.3333333,108.032,36.734667)" />
    <path
       id="path39"
       d="m 29.76422,0 c 0,7.82784 -6.34555,14.17339 -14.1734,14.17339 C 7.76297,14.17339 1.41742,7.82784 1.41742,0 c 0,-7.82784 6.34555,-14.17339 14.1734,-14.17339 7.82785,0 14.1734,6.34555 14.1734,14.17339 z"
       style="fill:#dedede;fill-opacity:1;fill-rule:nonzero;stroke:#000000;stroke-width:0.84683;stroke-linecap:butt;stroke-linejoin:miter;stroke-miterlimit:10;stroke-dasharray:none;stroke-opacity:1"
       transform="matrix(1.3333333,0,0,-1.3333333,9.3013333,155.30933)" />
    <path
       id="path40"
       d="M 0.39951563,-6.71875e-4 H 4.5245156 V -0.70379688 H 2.6729531 c -0.328125,0 -0.7382812,0.0351563 -1.078125,0.0585938 1.5117188,-1.58203122 2.625,-2.78906252 2.625,-3.99609372 0,-1.125 -0.75,-1.8632812 -1.921875,-1.8632812 -0.8320312,0 -1.40624997,0.375 -1.93359372,0.9609375 l 0.46875,0.4570312 C 1.2081094,-5.5084843 1.6651406,-5.848328 2.1924844,-5.848328 c 0.8203125,0 1.21875,0.5273437 1.21875,1.2539062 0,1.0429687 -1.0898438,2.1914063 -3.01171877,4.11328122 z m 0,0"
       style="fill:#000000;fill-opacity:1;fill-rule:nonzero;stroke:none"
       aria-label="2"
       transform="matrix(1.3333333,0,0,1.3333333,26.772,159.64933)" />
    <path
       id="path41"
       d="m 151.65558,0 c 0,7.82784 -6.34555,14.17339 -14.1734,14.17339 -7.82784,0 -14.17339,-6.34555 -14.17339,-14.17339 0,-7.82784 6.34555,-14.17339 14.17339,-14.17339 7.82785,0 14.1734,6.34555 14.1734,14.17339 z"
       style="fill:#dedede;fill-opacity:1;fill-rule:nonzero;stroke:#000000;stroke-width:0.84683;stroke-linecap:butt;stroke-linejoin:miter;stroke-miterlimit:10;stroke-dasharray:none;stroke-opacity:1"
       transform="matrix(1.3333333,0,0,-1.3333333,9.3013333,155.30933)" />
    <path
       id="path42"
       d="m 2.3551953,0.11592187 c 1.171875,0 2.1210938,-0.6796875 2.1210938,-1.81640627 0,-0.8789062 -0.6210938,-1.453125 -1.3945313,-1.640625 v -0.035156 c 0.6914063,-0.2460938 1.171875,-0.7382813 1.171875,-1.5234375 0,-1.0195313 -0.8085937,-1.6054688 -1.921875,-1.6054688 -0.75,0 -1.33593749,0.3398438 -1.82812499,0.796875 l 0.43359375,0.515625 c 0.37500004,-0.3867187 0.83203124,-0.65625 1.37109374,-0.65625 0.6914063,0 1.1015625,0.3984375 1.1015625,1.0195313 0,0.6679687 -0.4570312,1.1835937 -1.8164062,1.1835937 v 0.6445313 c 1.5234375,0 2.0507812,0.5039062 2.0507812,1.265625 0,0.7265625 -0.5507812,1.17187497 -1.3359375,1.17187497 -0.75,0 -1.2421875,-0.36328125 -1.62890624,-0.74999997 l -0.421875,0.52734372 c 0.43359375,0.46875 1.07812504,0.90234375 2.09765624,0.90234355 z m 0,0"
       style="fill:#000000;fill-opacity:1;fill-rule:nonzero;stroke:none"
       aria-label="3"
       transform="matrix(1.3333333,0,0,1.3333333,189.29333,159.572)" />
    <path
       id="path43"
       d="m 90.70969,-53.85875 c 0,7.82785 -6.34555,14.1734 -14.1734,14.1734 -7.82785,0 -14.17341,-6.34555 -14.17341,-14.1734 0,-7.82785 6.34556,-14.1734 14.17341,-14.1734 7.82785,0 14.1734,6.34555 14.1734,14.1734 z"
       style="fill:#dedede;fill-opacity:1;fill-rule:nonzero;stroke:#000000;stroke-width:0.84683;stroke-linecap:butt;stroke-linejoin:miter;stroke-miterlimit:10;stroke-dasharray:none;stroke-opacity:1"
       transform="matrix(1.3333333,0,0,-1.3333333,9.3013333,155.30933)" />
    <path
       id="path44"
       d="M 3.0463125,1.09375e-4 H 3.81975 V -1.7694219 h 0.8789063 v -0.65625 H 3.81975 V -6.3866094 H 2.9174063 l -2.74218755,4.078125 v 0.5390625 H 3.0463125 Z m 0,-2.425781275 h -2.015625 l 1.5,-2.1796875 c 0.1875,-0.328125 0.3632813,-0.5976562 0.5273438,-0.9023437 h 0.035156 c -0.023437,0.328125 -0.046875,0.890625 -0.046875,1.21875 z m 0,0"
       style="fill:#000000;fill-opacity:1;fill-rule:nonzero;stroke:none"
       aria-label="4"
       transform="matrix(1.3333333,0,0,1.3333333,108.032,231.38267)" />
    <path
       id="path45"
       d="m 90.70969,44.788 c 0,7.82784 -6.34555,14.1734 -14.1734,14.1734 -7.82785,0 -14.17341,-6.34556 -14.17341,-14.1734 0,-7.82784 6.34556,-14.17339 14.17341,-14.17339 7.82785,0 14.1734,6.34555 14.1734,14.17339 z"
       style="fill:#dedede;fill-opacity:1;fill-rule:nonzero;stroke:#000000;stroke-width:0.84683;stroke-linecap:butt;stroke-linejoin:miter;stroke-miterlimit:10;stroke-dasharray:none;stroke-opacity:1"
       transform="matrix(1.3333333,0,0,-1.3333333,9.3013333,155.30933)" />
    <path
       id="path46"
       d="m 2.3431875,0.11819531 c 1.1132813,0 2.15625,-0.78515625 2.15625,-2.15625001 0,-1.3828125 -0.890625,-2.0039062 -1.9804687,-2.0039062 -0.3984375,0 -0.6914063,0.09375 -0.984375,0.2578125 l 0.1640625,-1.8984375 h 2.4726562 v -0.703125 h -3.1875 l -0.2109375,3.0703125 0.4335938,0.28125 c 0.375,-0.2578125 0.65625,-0.3984375 1.1015625,-0.3984375 0.8203125,0 1.359375,0.5273437 1.359375,1.4179687 0,0.890625 -0.6210938,1.45312501 -1.3945313,1.45312501 -0.7617187,0 -1.2539062,-0.3515625 -1.6171875,-0.72656251 l -0.41015625,0.53906251 c 0.4453125,0.43359375 1.06640625,0.8671875 2.09765625,0.8671875 z m 0,0"
       style="fill:#000000;fill-opacity:1;fill-rule:nonzero;stroke:none"
       aria-label="5"
       transform="matrix(1.3333333,0,0,1.3333333,108.032,99.776)" />
    <path
       id="path47"
       d="m 188.50609,-70.29189 v 176.58434 c 0,1.10048 0.89209,1.99255 1.99255,1.99255 h 225.62424 c 1.10048,0 1.99255,-0.89207 1.99255,-1.99255 V -70.29189 c 0,-1.10047 -0.89207,-1.99255 -1.99255,-1.99255 H 190.49864 c -1.10046,0 -1.99255,0.89208 -1.99255,1.99255 z"
       style="fill:#fcfcfc;fill-opacity:1;fill-rule:nonzero;stroke:#c7c7c7;stroke-width:0.44832;stroke-linecap:butt;stroke-linejoin:miter;stroke-miterlimit:10;stroke-dasharray:none;stroke-opacity:1"
       transform="matrix(1.3333333,0,0,-1.3333333,9.3013333,155.30933)" />
    <path
       id="path48"
       d="m 4.6047031,-0.34039844 c 0,-0.328125 -0.2695312,-0.328125 -0.421875,-0.328125 H 3.8664219 V -5.0513359 c 0,-0.3164063 -0.070312,-0.421875 -0.421875,-0.421875 H 2.8000156 c -0.1640625,0 -0.421875,0 -0.421875,0.3398437 0,0.3164063 0.2695313,0.328125 0.421875,0.328125 h 0.3164063 v 1.1601563 c -0.2695313,-0.1992188 -0.609375,-0.3046875 -0.9492188,-0.3046875 -0.984375,0 -1.86328122,0.84375 -1.86328122,2.0039062 0,1.12500001 0.82031252,2.00390626 1.78125002,2.00390626 0.4453125,0 0.7851562,-0.1875 1.03125,-0.41015625 0.023437,0.2578125 0.070312,0.3515625025 0.421875,0.3515625025 h 0.6328125 c 0.1757812,0 0.4335937,-0.0117187525 0.4335937,-0.3398437525 z m -1.5,-1.42968746 c 0,0.4570312 -0.3632812,1.14843746 -0.984375,1.14843746 -0.5976562,0 -1.078125,-0.58593746 -1.078125,-1.32421876 0,-0.796875 0.5742188,-1.3359375 1.1484375,-1.3359375 0.5273438,0 0.9140625,0.4453125 0.9140625,0.9023438 z m 5.7041016,1.44140621 c 0,-0.33984375 -0.2695313,-0.33984375 -0.421875,-0.33984375 h -0.84375 V -3.4810234 c 0,-0.3164063 -0.070312,-0.4335938 -0.421875,-0.4335938 H 5.8791172 c -0.1640625,0 -0.4335938,0.023437 -0.4335938,0.3398438 0,0.328125 0.2695313,0.3398437 0.4335938,0.3398437 h 0.9140625 v 2.56640626 h -0.984375 c -0.1640625,0 -0.4335938,0 -0.4335938,0.33984375 0,0.31640625 0.2695313,0.3281250025 0.4335938,0.3281250025 h 2.578125 c 0.1523437,0 0.421875,-0.0117187525 0.421875,-0.3281250025 z M 7.5783359,-4.9341484 c 0,-0.2695313 -0.2226562,-0.5039063 -0.515625,-0.5039063 -0.28125,0 -0.5039062,0.234375 -0.5039062,0.5039063 0,0.2929687 0.2226562,0.515625 0.5039062,0.515625 0.2929688,0 0.515625,-0.2226563 0.515625,-0.515625 z m 5.9736331,3.7734375 c 0,-0.9609375 -1.171875,-1.1601563 -1.464844,-1.2070313 l -0.902344,-0.1640625 c -0.234375,-0.046875 -0.480468,-0.1523437 -0.480468,-0.3515625 0,-0.2109375 0.28125,-0.421875 1.042968,-0.421875 0.65625,0 0.773438,0.2109375 0.808594,0.421875 0.01172,0.1757813 0.03516,0.3515625 0.363281,0.3515625 0.363282,0 0.375,-0.2109375 0.375,-0.421875 v -0.609375 c 0,-0.1640625 -0.01172,-0.421875 -0.328125,-0.421875 -0.199218,0 -0.269531,0.082031 -0.304687,0.1523438 -0.375,-0.1523438 -0.738281,-0.1523438 -0.902344,-0.1523438 -1.523437,0 -1.722656,0.7734375 -1.722656,1.1015625 0,0.84375 0.9375,1.0195313 1.78125,1.1484375 0.398437,0.058594 1.066406,0.1640625 1.066406,0.5742188 0,0.30468746 -0.316406,0.53906246 -1.042969,0.53906246 -0.386718,0 -0.84375,-0.0820313 -1.054687,-0.72656246 -0.05859,-0.1992188 -0.09375,-0.3046875 -0.375,-0.3046875 -0.363281,0 -0.375,0.2226562 -0.375,0.4335937 v 0.84375001 c 0,0.1640625 0.01172,0.43359375 0.328125,0.43359375 0.09375,0 0.246094,0 0.363281,-0.3046875 0.421875,0.28125 0.855469,0.3046875 1.101563,0.3046875 1.441406,0 1.722656,-0.78515625 1.722656,-1.21874996 z m 4.614258,-0.011719 c 0,-0.1875 0,-0.4101562 -0.375,-0.4101562 -0.351563,0 -0.363282,0.2226562 -0.363282,0.3984375 0,0.48046871 -0.457031,0.56249996 -0.644531,0.56249996 -0.597656,0 -0.597656,-0.41015626 -0.597656,-0.59765626 v -2.015625 h 1.359375 c 0.164062,0 0.421875,-0.011719 0.421875,-0.328125 0,-0.3398437 -0.246094,-0.3515625 -0.421875,-0.3515625 h -1.359375 v -0.6445312 c 0,-0.1875 -0.01172,-0.421875 -0.363281,-0.421875 -0.375,0 -0.386719,0.2226562 -0.386719,0.421875 v 0.6445312 H 14.75607 c -0.175781,0 -0.421875,0.023437 -0.421875,0.3515625 0,0.3164063 0.246094,0.328125 0.410157,0.328125 h 0.691406 v 2.0625 c 0,0.89062501 0.632812,1.23046876 1.3125,1.23046876 0.679687,0 1.417969,-0.41015625 1.417969,-1.23046876 z m 0,0"
       style="fill:#000000;fill-opacity:1;fill-rule:nonzero;stroke:none"
       aria-label="dist"
       transform="matrix(1.3333333,0,0,1.3333333,279.32133,32.309333)" />
    <path
       id="path49"
       d="M 0.60935938,-0.00133594 H 3.4218594 v -0.52734375 h -1.03125 V -4.9700859 H 1.8984219 c -0.2695313,0.1640625 -0.5976563,0.28125 -1.05468752,0.3632812 v 0.4101563 H 1.7577969 v 3.66796871 H 0.60935938 Z m 0,0"
       style="fill:#5c5c5c;fill-opacity:1;fill-rule:nonzero;stroke:none"
       aria-label="1"
       transform="matrix(1.3333333,0,0,1.3333333,290.94533,56.576)" />
    <path
       id="path50"
       d="M 0.30527344,5.390625e-4 H 3.5162109 V -0.55024219 H 2.0748047 c -0.2578125,0 -0.5625,0.0234375 -0.8320313,0.046875 1.171875,-1.23046871 2.0390625,-2.16796871 2.0390625,-3.10546871 0,-0.8789063 -0.5859375,-1.453125 -1.5,-1.453125 -0.6445312,0 -1.08984371,0.2929687 -1.49999996,0.75 l 0.36328125,0.3632812 c 0.29296875,-0.328125 0.64453121,-0.5976562 1.06640621,-0.5976562 0.6328125,0 0.9375,0.4101562 0.9375,0.9726562 0,0.8085938 -0.84375,1.7109375 -2.34374996,3.19921876 z m 0,0"
       style="fill:#5c5c5c;fill-opacity:1;fill-rule:nonzero;stroke:none"
       aria-label="2"
       transform="matrix(1.3333333,0,0,1.3333333,336.3,56.636)" />
    <path
       id="path51"
       d="m 1.8293125,0.09241406 c 0.9140625,0 1.6523438,-0.52734375 1.6523438,-1.41796876 0,-0.6796875 -0.4804688,-1.125 -1.078125,-1.265625 v -0.035156 c 0.5273437,-0.1875 0.9023437,-0.5742188 0.9023437,-1.1835938 0,-0.796875 -0.6328125,-1.2539062 -1.4882812,-1.2539062 -0.5859375,0 -1.0429688,0.2695312 -1.42968755,0.6210937 L 0.72775,-4.0443047 c 0.2929688,-0.2929687 0.65625,-0.5039062 1.0664063,-0.5039062 0.5390625,0 0.8671875,0.3046875 0.8671875,0.7851562 0,0.5273438 -0.3632813,0.9257813 -1.4179688,0.9257813 v 0.5039062 c 1.1835938,0 1.59375,0.3867188 1.59375,0.984375 0,0.56250001 -0.4335937,0.91406251 -1.0429687,0.91406251 -0.5742188,0 -0.96093755,-0.28125 -1.26562505,-0.58593751 l -0.328125,0.41015626 c 0.33984375,0.36328125 0.84375005,0.703125 1.62890625,0.703125 z m 0,0"
       style="fill:#5c5c5c;fill-opacity:1;fill-rule:nonzero;stroke:none"
       aria-label="3"
       transform="matrix(1.3333333,0,0,1.3333333,381.65467,56.576)" />
    <path
       id="path52"
       d="M 2.3660469,-0.00133594 H 2.9637031 V -1.3724297 h 0.6914063 v -0.515625 H 2.9637031 v -3.0820312 h -0.703125 l -2.12109372,3.1757812 v 0.421875 H 2.3660469 Z m 0,-1.88671876 H 0.79573438 L 1.9676094,-3.5872734 c 0.140625,-0.2460938 0.28125,-0.46875 0.4101562,-0.703125 h 0.023437 c -0.011719,0.2578125 -0.035156,0.703125 -0.035156,0.9492187 z m 0,0"
       style="fill:#5c5c5c;fill-opacity:1;fill-rule:nonzero;stroke:none"
       aria-label="4"
       transform="matrix(1.3333333,0,0,1.3333333,427.00933,56.576)" />
    <path
       id="path53"
       d="m 1.8275859,0.09346875 c 0.8554688,0 1.6757813,-0.609375 1.6757813,-1.68750005 0,-1.0664062 -0.703125,-1.546875 -1.546875,-1.546875 -0.3046875,0 -0.5390625,0.070312 -0.7617188,0.1992188 L 1.3236797,-4.41825 h 1.921875 V -4.9690313 H 0.76117969 l -0.1640625,2.390625 0.33984375,0.2109375 c 0.29296876,-0.1875 0.51562496,-0.3046875 0.85546876,-0.3046875 0.6445312,0 1.0546875,0.4101563 1.0546875,1.1015625 0,0.6914063 -0.4804688,1.1367188 -1.078125,1.1367188 -0.5976563,0 -0.97265626,-0.28125 -1.26562501,-0.5742188 l -0.31640625,0.42187505 c 0.3515625,0.33984375 0.83203126,0.6796875 1.64062496,0.6796875 z m 0,0"
       style="fill:#5c5c5c;fill-opacity:1;fill-rule:nonzero;stroke:none"
       aria-label="5"
       transform="matrix(1.3333333,0,0,1.3333333,472.364,56.516)" />
    <path
       id="path54"
       d="m 196.16005,45.35498 h 34.01616 v 25.5121 h -34.01616 z"
       style="fill:#ffffff;fill-opacity:1;fill-rule:nonzero;stroke:#6b6b6b;stroke-width:0.49814;stroke-linecap:butt;stroke-linejoin:miter;stroke-miterlimit:10;stroke-dasharray:none;stroke-opacity:1"
       transform="matrix(1.3333333,0,0,-1.3333333,9.3013333,155.30933)" />
    <path
       id="path55"
       d="m 4.2420313,-2.8713281 c 0,-0.5976563 -0.023437,-1.3710938 -0.3398438,-2.0390625 -0.3984375,-0.84375 -1.078125,-1.0546875 -1.59375,-1.0546875 -0.5390625,0 -1.21875,0.2109375 -1.6171875,1.0664062 -0.29296875,0.6210938 -0.328125,1.3476563 -0.328125,2.0273438 0,0.5859375 0.0117188,1.453125 0.3984375,2.16796872 0.421875,0.76171875 1.125,0.90234375 1.5351563,0.90234375 0.5859375,0 1.2421875,-0.2578125 1.6171875,-1.078125 0.2695312,-0.59765627 0.328125,-1.27734377 0.328125,-1.99218747 z m -1.9335938,2.84765622 c -0.2695312,0 -0.9140625,-0.12890625 -1.0898437,-1.13671872 -0.09375,-0.5390625 -0.09375,-1.3007813 -0.09375,-1.8164063 0,-0.609375 0,-1.3125 0.1171875,-1.8164062 0.1757812,-0.796875 0.75,-0.9492188 1.0546875,-0.9492188 0.3398437,0 0.9023437,0.1757813 1.078125,1.0078125 0.09375,0.4921875 0.09375,1.1953125 0.09375,1.7578125 0,0.5507813 0,1.3125 -0.09375,1.8398438 -0.1875,1.01953122 -0.84375,1.11328122 -1.0664063,1.11328122 z m 0,0"
       style="fill:#000000;fill-opacity:1;fill-rule:nonzero;stroke:none"
       aria-label="0"
       transform="matrix(1.3333333,0,0,1.3333333,290.45333,81.68)" />
    <path
       id="path56"
       d="m 230.17613,45.35498 h 34.01616 v 25.5121 h -34.01616 z"
       style="fill:#ffffff;fill-opacity:1;fill-rule:nonzero;stroke:#6b6b6b;stroke-width:0.49814;stroke-linecap:butt;stroke-linejoin:miter;stroke-miterlimit:10;stroke-dasharray:none;stroke-opacity:1"
       transform="matrix(1.3333333,0,0,-1.3333333,9.3013333,155.30933)" />
    <path
       id="path57"
       d="m 2.7309141,-3.1525781 c 0.8320312,-0.3164063 1.2304687,-0.9726563 1.2304687,-1.59375 0,-0.6914063 -0.7617187,-1.21875 -1.6875,-1.21875 -0.9375,0 -1.64062499,0.5273437 -1.64062499,1.2070312 0,0.2929688 0.19921875,0.46875 0.45703129,0.46875 0.2695312,0 0.4570312,-0.1875 0.4570312,-0.4570312 0,-0.3046875 -0.2226562,-0.4453125 -0.5273437,-0.4453125 0.234375,-0.375 0.7851562,-0.5507813 1.21875,-0.5507813 0.75,0 0.890625,0.5859375 0.890625,1.0078125 0,0.2695313 -0.058594,0.703125 -0.28125,1.0429688 -0.2695313,0.3984375 -0.5859375,0.421875 -0.84375,0.4335937 -0.234375,0.023437 -0.2460938,0.023437 -0.3164063,0.023437 -0.082031,0.011719 -0.1523437,0.011719 -0.1523437,0.1171875 0,0.1171875 0.070312,0.1171875 0.2226562,0.1171875 h 0.421875 c 0.7734375,0 1.125,0.6210938 1.125,1.4765625 0,1.14843752 -0.6210937,1.46484377 -1.078125,1.46484377 -0.1640625,0 -1.03125,-0.03515625 -1.44140624,-0.703125 0.32812504,0.046875 0.57421874,-0.17578125 0.57421874,-0.48046877 0,-0.3046875 -0.2226562,-0.4921875 -0.48046874,-0.4921875 -0.22265625,0 -0.4921875,0.140625 -0.4921875,0.515625 0,0.79687502 0.83203124,1.41796877 1.87500004,1.41796877 1.1132812,0 1.9570312,-0.80859375 1.9570312,-1.72265627 0,-0.7851562 -0.6210937,-1.4414062 -1.4882812,-1.6289057 z m 0,0"
       style="fill:#000000;fill-opacity:1;fill-rule:nonzero;stroke:none"
       aria-label="3"
       transform="matrix(1.3333333,0,0,1.3333333,335.808,81.68)" />
    <path
       id="path58"
       d="m 264.19221,45.35498 h 34.01616 v 25.5121 h -34.01616 z"
       style="fill:#ffffff;fill-opacity:1;fill-rule:nonzero;stroke:#6b6b6b;stroke-width:0.49814;stroke-linecap:butt;stroke-linejoin:miter;stroke-miterlimit:10;stroke-dasharray:none;stroke-opacity:1"
       transform="matrix(1.3333333,0,0,-1.3333333,9.3013333,155.30933)" />
    <path
       id="path59"
       d="m 0.25885938,-1.7580469 v 0.28125 H 2.7080781 v 0.77343752 c 0,0.328125 -0.023437,0.421875 -0.703125,0.421875 h -0.1875 v 0.281250005 c 0.5625,-0.023437505 1.1835938,-0.023437505 1.2539063,-0.023437505 0.035156,0 0.6914062,0 1.2539062,0.023437505 V -0.28148438 H 4.1260469 c -0.6679688,0 -0.703125,-0.09375 -0.703125,-0.421875 V -1.4767969 h 0.9140625 v -0.28125 H 3.4229219 v -4.0664062 c 0,-0.1875 0,-0.2460938 -0.1640625,-0.2460938 -0.1054688,0 -0.1171875,0.011719 -0.1992188,0.140625 z m 0.29296875,0 2.21484377,-3.3164062 v 3.3164062 z m 0,0"
       style="fill:#000000;fill-opacity:1;fill-rule:nonzero;stroke:none"
       aria-label="4"
       transform="matrix(1.3333333,0,0,1.3333333,381.16267,81.68)" />
    <path
       id="path60"
       d="m 298.2083,45.35498 h 34.01616 v 25.5121 H 298.2083 Z"
       style="fill:#ffffff;fill-opacity:1;fill-rule:nonzero;stroke:#6b6b6b;stroke-width:0.49814;stroke-linecap:butt;stroke-linejoin:miter;stroke-miterlimit:10;stroke-dasharray:none;stroke-opacity:1"
       transform="matrix(1.3333333,0,0,-1.3333333,9.3013333,155.30933)" />
    <path
       id="path61"
       d="m 0.93814844,-3.0939844 c 0,0.1640625 0,0.2578125 0.11718746,0.2578125 0.070312,0 0.1054688,-0.035156 0.1523438,-0.1171875 0.2695312,-0.375 0.703125,-0.5859375 1.171875,-0.5859375 0.9609375,0 0.9609375,1.3828125 0.9609375,1.6992188 0,0.28125 0,0.8320312 -0.2578125,1.24218747 -0.234375,0.375 -0.6210938,0.5390625 -0.9609375,0.5390625 -0.5390625,0 -1.13671876,-0.328125 -1.34765626,-0.99609377 0.0117188,0 0.0585938,0.023437 0.1171875,0.023437 0.18749996,0 0.44531246,-0.1171875 0.44531246,-0.4335937 0,-0.28125 -0.1992187,-0.4453125 -0.44531246,-0.4453125 -0.1875,0 -0.43359375,0.1054687 -0.43359375,0.46875 0,0.80859372 0.67968751,1.64062497 1.67578121,1.64062497 1.0898438,0 2.0039063,-0.87890625 2.0039063,-1.99218747 0,-1.0898438 -0.7617188,-1.96875 -1.7460938,-1.96875 -0.421875,0 -0.8671875,0.140625 -1.1835937,0.4570312 v -1.7578125 c 0.2695312,0.082031 0.5507812,0.1171875 0.8320312,0.1171875 1.1015625,0 1.7460938,-0.796875 1.7460938,-0.9140625 0,-0.070312 -0.058594,-0.1054687 -0.1054688,-0.1054687 -0.011719,0 -0.035156,0 -0.1171875,0.035156 -0.4101562,0.1757813 -0.8320312,0.2460938 -1.2070312,0.2460938 -0.3867188,0 -0.7851563,-0.070312 -1.1953125,-0.2460938 -0.09375,-0.035156 -0.1054688,-0.035156 -0.1171875,-0.035156 -0.10546876,0 -0.10546876,0.082031 -0.10546876,0.234375 z m 0,0"
       style="fill:#000000;fill-opacity:1;fill-rule:nonzero;stroke:none"
       aria-label="5"
       transform="matrix(1.3333333,0,0,1.3333333,426.51867,81.68)" />
    <path
       id="path62"
       d="m 332.22481,45.35498 h 34.01616 v 25.5121 h -34.01616 z"
       style="fill:#ffffff;fill-opacity:1;fill-rule:nonzero;stroke:#6b6b6b;stroke-width:0.49814;stroke-linecap:butt;stroke-linejoin:miter;stroke-miterlimit:10;stroke-dasharray:none;stroke-opacity:1"
       transform="matrix(1.3333333,0,0,-1.3333333,9.3013333,155.30933)" />
    <path
       id="path63"
       d="m 2.7317188,-5.7307031 c 0,-0.2226563 -0.011719,-0.234375 -0.234375,-0.234375 -0.5625,0.5625 -1.3828125,0.5625 -1.66406255,0.5625 v 0.28125 c 0.17578125,0 0.71484375,0 1.20703125,-0.234375 v 4.64062497 c 0,0.328125 -0.035156,0.43359375 -0.8671875,0.43359375 H 0.891875 V -2.34375e-4 C 1.2082813,-0.02367188 2.0051563,-0.02367188 2.3801563,-0.02367188 c 0.3632812,0 1.171875,0 1.4882812,0.023437505 V -0.28148438 h -0.28125 c -0.8320312,0 -0.8554687,-0.10546875 -0.8554687,-0.43359375 z m 0,0"
       style="fill:#000000;fill-opacity:1;fill-rule:nonzero;stroke:none"
       aria-label="1"
       transform="matrix(1.3333333,0,0,1.3333333,471.87333,81.68)" />
    <path
       id="path64"
       d="m 4.3937656,-1.9561719 c 0,-1.1132812 -0.8203125,-1.9921875 -1.78125,-1.9921875 -0.3867187,0 -0.75,0.1171875 -1.0429687,0.3398438 -0.011719,-0.1992188 -0.09375,-0.3046875 -0.4101563,-0.3046875 H 0.51485938 c -0.1640625,0 -0.421875,0.023437 -0.421875,0.3515625 0,0.3164062 0.26953125,0.328125 0.421875,0.328125 h 0.31640625 v 4.5 H 0.51485938 c -0.1640625,0 -0.421875,0.011719 -0.421875,0.3398437 0,0.3164063 0.26953125,0.328125 0.421875,0.328125 H 1.8976719 c 0.1523437,0 0.421875,-0.011719 0.421875,-0.328125 0,-0.328125 -0.2578125,-0.3398437 -0.4335938,-0.3398437 H 1.5812656 v -1.57031253 c 0.3398438,0.29296875 0.6796875,0.36328125 0.9375,0.36328125 0.984375,0 1.875,-0.8671875 1.875,-2.01562502 z m -0.7382812,0 c 0,0.796875 -0.5742188,1.33593752 -1.1601563,1.33593752 -0.6328125,0 -0.9140625,-0.72656252 -0.9140625,-1.11328122 v -0.6445313 c 0,-0.4804687 0.4804688,-0.9023437 0.9960938,-0.9023437 0.609375,0 1.078125,0.609375 1.078125,1.3242187 z m 5.4345703,-1.3828125 c 0,-0.1992187 -0.1054688,-0.609375 -0.890625,-0.609375 -0.4335938,0 -0.9609375,0.1289063 -1.4179688,0.5976563 v -0.1289063 c 0,-0.3164062 -0.070312,-0.4335937 -0.421875,-0.4335937 H 5.3986484 c -0.1640625,0 -0.421875,0.023437 -0.421875,0.3398437 0,0.328125 0.2460938,0.3398438 0.421875,0.3398438 h 0.6328125 v 2.56640622 H 5.3986484 c -0.1640625,0 -0.421875,0 -0.421875,0.328125 0,0.328125 0.2460938,0.339843755 0.421875,0.339843755 h 2.2734375 c 0.1640625,0 0.4335938,-0.011718755 0.4335938,-0.328125005 0,-0.33984375 -0.2695313,-0.33984375 -0.4335938,-0.33984375 H 6.7814609 V -1.6983594 c 0,-0.7617187 0.4570313,-1.5585937 1.4296875,-1.5820312 0,0.2109375 0.2109375,0.375 0.4453125,0.375 0.2226563,0 0.4335938,-0.1640625 0.4335938,-0.4335938 z m 4.4267583,3.01171877 c 0,-0.33984375 -0.269532,-0.33984375 -0.421875,-0.33984375 h -0.84375 V -3.4796094 c 0,-0.3164062 -0.07031,-0.4335937 -0.421875,-0.4335937 h -1.242188 c -0.164062,0 -0.433594,0.023437 -0.433594,0.3398437 0,0.328125 0.269532,0.3398438 0.433594,0.3398438 h 0.914063 v 2.56640622 h -0.984375 c -0.164063,0 -0.433594,0 -0.433594,0.33984375 0,0.31640625 0.269531,0.328125005 0.433594,0.328125005 h 2.578125 c 0.152343,0 0.421875,-0.011718755 0.421875,-0.328125005 z M 12.286344,-4.9327344 c 0,-0.2695312 -0.222656,-0.5039062 -0.515625,-0.5039062 -0.28125,0 -0.503906,0.234375 -0.503906,0.5039062 0,0.2929688 0.222656,0.515625 0.503906,0.515625 0.292969,0 0.515625,-0.2226562 0.515625,-0.515625 z m 6.055664,2.9765625 c 0,-1.1367187 -0.855469,-2.0273437 -1.875,-2.0273437 -1.007813,0 -1.863281,0.890625 -1.863281,2.0273437 0,1.14843752 0.878906,2.01562502 1.863281,2.01562502 0.996094,0 1.875,-0.87890625 1.875,-2.01562502 z m -0.75,-0.058594 c 0,0.7734375 -0.515625,1.39453122 -1.125,1.39453122 -0.609375,0 -1.113281,-0.62109372 -1.113281,-1.39453122 0,-0.75 0.539062,-1.2890625 1.113281,-1.2890625 0.597656,0 1.125,0.5390625 1.125,1.2890625 z m 5.61914,-1.3242188 c 0,-0.1992187 -0.105468,-0.609375 -0.890625,-0.609375 -0.433593,0 -0.960937,0.1289063 -1.417968,0.5976563 v -0.1289063 c 0,-0.3164062 -0.07031,-0.4335937 -0.421875,-0.4335937 h -0.960938 c -0.164062,0 -0.421875,0.023437 -0.421875,0.3398437 0,0.328125 0.246094,0.3398438 0.421875,0.3398438 h 0.632813 v 2.56640622 h -0.632813 c -0.164062,0 -0.421875,0 -0.421875,0.328125 0,0.328125 0.246094,0.339843755 0.421875,0.339843755 h 2.273438 c 0.164062,0 0.433593,-0.011718755 0.433593,-0.328125005 0,-0.33984375 -0.269531,-0.33984375 -0.433593,-0.33984375 H 20.902555 V -1.6983594 c 0,-0.7617187 0.457031,-1.5585937 1.429687,-1.5820312 0,0.2109375 0.210938,0.375 0.445313,0.375 0.222656,0 0.433593,-0.1640625 0.433593,-0.4335941 z m 4.426758,3.01171877 c 0,-0.33984375 -0.269531,-0.33984375 -0.421875,-0.33984375 h -0.84375 V -3.4796094 c 0,-0.3164062 -0.07031,-0.4335937 -0.421875,-0.4335937 h -1.242187 c -0.164063,0 -0.433594,0.023437 -0.433594,0.3398437 0,0.328125 0.269531,0.3398438 0.433594,0.3398438 h 0.914062 v 2.56640622 h -0.984375 c -0.164062,0 -0.433593,0 -0.433593,0.33984375 0,0.31640625 0.269531,0.328125005 0.433593,0.328125005 h 2.578125 c 0.152344,0 0.421875,-0.011718755 0.421875,-0.328125305 z M 26.407438,-4.9327344 c 0,-0.2695312 -0.222657,-0.5039062 -0.515625,-0.5039062 -0.28125,0 -0.503907,0.234375 -0.503907,0.5039062 0,0.2929688 0.222657,0.515625 0.503907,0.515625 0.292968,0 0.515625,-0.2226562 0.515625,-0.515625 z m 5.879882,3.7617188 c 0,-0.1875 0,-0.4101563 -0.375,-0.4101563 -0.351562,0 -0.363281,0.2226563 -0.363281,0.3984375 0,0.48046877 -0.457031,0.56250002 -0.644531,0.56250002 -0.597656,0 -0.597656,-0.41015622 -0.597656,-0.59765622 v -2.015625 h 1.359375 c 0.164062,0 0.421875,-0.011719 0.421875,-0.328125 0,-0.3398438 -0.246094,-0.3515625 -0.421875,-0.3515625 h -1.359375 v -0.6445313 c 0,-0.1875 -0.01172,-0.421875 -0.363282,-0.421875 -0.375,0 -0.386718,0.2226563 -0.386718,0.421875 v 0.6445313 h -0.679688 c -0.175781,0 -0.421875,0.023437 -0.421875,0.3515625 0,0.3164062 0.246094,0.328125 0.410156,0.328125 h 0.691407 v 2.0625 c 0,0.89062497 0.632812,1.23046872 1.3125,1.23046872 0.679687,0 1.417968,-0.41015625 1.417968,-1.23046872 z m 5.165039,-2.390625 c 0,-0.3398438 -0.246093,-0.3515625 -0.421875,-0.3515625 h -1.019531 c -0.164062,0 -0.421875,0.023437 -0.421875,0.3398437 0,0.328125 0.246094,0.3398438 0.421875,0.3398438 h 0.140625 l -0.773437,2.34374997 -0.878907,-2.34374997 h 0.117188 c 0.152344,0 0.410156,-0.011719 0.410156,-0.328125 0,-0.3398438 -0.246094,-0.3515625 -0.410156,-0.3515625 h -1.03125 c -0.164063,0 -0.421875,0.011719 -0.421875,0.3515625 0,0.3164062 0.269531,0.328125 0.421875,0.328125 h 0.222656 l 1.265625,3.16406247 c -0.04687,0.09375 -0.234375,0.7265625 -0.328125,0.92578125 -0.175781,0.33984378 -0.457031,0.53906248 -0.632812,0.53906248 0.01172,-0.035156 0.105468,-0.058594 0.105468,-0.1875 0,-0.26953123 -0.1875,-0.45703123 -0.445312,-0.45703123 -0.28125,0 -0.457031,0.1875 -0.457031,0.45703123 0,0.3984375 0.328125,0.7851563 0.796875,0.7851563 0.890625,0 1.335937,-1.19531253 1.371093,-1.28906253 l 1.335938,-3.93749997 h 0.210937 c 0.164063,0 0.421875,-0.011719 0.421875,-0.328125 z m 4.423829,4.6171875 c 0,-0.37500003 -0.351563,-0.38671878 -0.480469,-0.38671878 h -2.777344 c -0.128906,0 -0.480469,0.0117188 -0.480469,0.38671878 0,0.3632812 0.351563,0.375 0.480469,0.375 h 2.777344 c 0.128906,0 0.480469,-0.011719 0.480469,-0.375 z m 5.317382,0.5507812 c 0,-0.328125 -0.246093,-0.3398437 -0.421875,-0.3398437 h -0.351562 v -4.7929688 c 0,-0.1992187 -0.01172,-0.421875 -0.375,-0.421875 -0.304688,0 -0.363281,0.1054688 -0.375,0.3867188 -0.234375,-0.2226563 -0.574219,-0.3867188 -1.019531,-0.3867188 -1.007813,0 -1.933594,0.84375 -1.933594,2.0039063 0,1.12499997 0.855469,2.00390622 1.839844,2.00390622 0.515625,0 0.890625,-0.234375 1.113281,-0.43359375 V 1.2664844 H 45.31857 c -0.164062,0 -0.421875,0.011719 -0.421875,0.328125 0,0.328125 0.246094,0.3398437 0.421875,0.3398437 h 1.453125 c 0.164063,0 0.421875,-0.011719 0.421875,-0.328125 z m -1.523437,-3.375 c 0,0.46875 -0.410156,1.14843752 -1.078125,1.14843752 -0.609375,0 -1.148438,-0.58593752 -1.148438,-1.32421872 0,-0.7617188 0.585938,-1.3359375 1.242188,-1.3359375 0.609375,0 0.984375,0.6328125 0.984375,1.171875 z m 5.99707,1.42968752 c 0,-0.328125 -0.269531,-0.328125 -0.410156,-0.328125 H 50.940641 V -3.4796094 c 0,-0.3164062 -0.07031,-0.4335937 -0.421875,-0.4335937 h -0.644532 c -0.164062,0 -0.421875,0.023437 -0.421875,0.3515625 0,0.3164062 0.269532,0.328125 0.421875,0.328125 h 0.316407 v 1.7929687 c 0,0.72656252 -0.65625,0.82031252 -0.925782,0.82031252 -0.609375,0 -0.609375,-0.24609375 -0.609375,-0.50390622 v -2.3554688 c 0,-0.3164062 -0.07031,-0.4335937 -0.421875,-0.4335937 h -0.644531 c -0.164062,0 -0.421875,0.023437 -0.421875,0.3515625 0,0.3164062 0.269531,0.328125 0.421875,0.328125 h 0.316406 v 2.1679687 c 0,0.89062502 0.632813,1.12500002 1.324219,1.12500002 0.328125,0 0.667969,-0.08203125 0.972656,-0.28125 0.05859,0.2109375 0.246094,0.222656255 0.410157,0.222656255 h 0.632812 c 0.175781,0 0.421875,-0.011718755 0.421875,-0.339843755 z m 4.297852,-0.67968752 c 0,-0.3046875 -0.316407,-0.3164062 -0.375,-0.3164062 -0.199219,0 -0.28125,0.035156 -0.351563,0.234375 -0.1875,0.41015622 -0.621094,0.48046872 -0.84375,0.48046872 -0.609375,0 -1.207031,-0.38671872 -1.371094,-1.04296872 h 2.519532 c 0.222656,0 0.421875,0 0.421875,-0.3984375 0,-1.03125 -0.585938,-1.921875 -1.757813,-1.921875 -1.078125,0 -1.957031,0.9140625 -1.957031,2.015625 0,1.11328122 0.914062,2.02734372 2.074219,2.02734372 1.21875,0 1.640625,-0.84375 1.640625,-1.07812502 z m -0.773438,-1.3125 h -2.15625 c 0.140625,-0.5625 0.609375,-0.9726562 1.171875,-0.9726562 0.410156,0 0.890625,0.1992187 0.984375,0.9726562 z m 5.891602,1.99218752 c 0,-0.328125 -0.269531,-0.328125 -0.410156,-0.328125 H 60.356656 V -3.4796094 c 0,-0.3164062 -0.07031,-0.4335937 -0.421875,-0.4335937 H 59.29025 c -0.164062,0 -0.421875,0.023437 -0.421875,0.3515625 0,0.3164062 0.269531,0.328125 0.421875,0.328125 h 0.316406 v 1.7929687 c 0,0.72656252 -0.65625,0.82031252 -0.925781,0.82031252 -0.609375,0 -0.609375,-0.24609375 -0.609375,-0.50390622 v -2.3554688 c 0,-0.3164062 -0.07031,-0.4335937 -0.421875,-0.4335937 h -0.644531 c -0.164063,0 -0.421875,0.023437 -0.421875,0.3515625 0,0.3164062 0.269531,0.328125 0.421875,0.328125 H 57.3215 v 2.1679687 c 0,0.89062502 0.632813,1.12500002 1.324219,1.12500002 0.328125,0 0.667969,-0.08203125 0.972656,-0.28125 0.05859,0.2109375 0.246094,0.222656255 0.410156,0.222656255 h 0.632813 c 0.175781,0 0.421875,-0.011718755 0.421875,-0.339843755 z m 4.294922,-0.67968752 c 0,-0.3046875 -0.316407,-0.3164062 -0.375,-0.3164062 -0.199219,0 -0.28125,0.035156 -0.351563,0.234375 -0.1875,0.41015622 -0.621094,0.48046872 -0.84375,0.48046872 -0.609375,0 -1.207031,-0.38671872 -1.371094,-1.04296872 h 2.519532 c 0.222656,0 0.421875,0 0.421875,-0.3984375 0,-1.03125 -0.585938,-1.921875 -1.757813,-1.921875 -1.078125,0 -1.957031,0.9140625 -1.957031,2.015625 0,1.11328122 0.914062,2.02734372 2.074219,2.02734372 1.21875,0 1.640625,-0.84375 1.640625,-1.07812502 z m -0.773438,-1.3125 h -2.15625 c 0.140625,-0.5625 0.609375,-0.9726562 1.171875,-0.9726562 0.410156,0 0.890625,0.1992187 0.984375,0.9726562 z m 0,0"
       style="fill:#000000;fill-opacity:1;fill-rule:nonzero;stroke:none"
       aria-label="priority_queue"
       transform="matrix(1.3333333,0,0,1.3333333,279.32133,113.00667)" />
    <path
       id="path65"
       d="m 195.30948,-0.85045 h 70.86702 v 25.5121 h -70.86702 z"
       style="fill:#fafafa;fill-opacity:1;fill-rule:nonzero;stroke:#bfbfbf;stroke-width:0.49814;stroke-linecap:butt;stroke-linejoin:miter;stroke-miterlimit:10;stroke-dasharray:none;stroke-opacity:1"
       transform="matrix(1.3333333,0,0,-1.3333333,9.3013333,155.30933)" />
    <path
       id="path66"
       d="m 3.9137422,0.48089844 c 0,-0.15234375 -0.082031,-0.19921875 -0.1640625,-0.26953125 -1.1835938,-0.7734375 -1.5585938,-2.01562499 -1.5585938,-2.94140629 0,-0.6796875 0.1875,-1.265625 0.3867188,-1.6757812 0.3632812,-0.6796875 0.796875,-1.0429688 1.21875,-1.3242188 0.070312,-0.046875 0.1171875,-0.1289062 0.1171875,-0.2226562 0,-0.09375 -0.046875,-0.2695313 -0.2929688,-0.2695313 -0.2109375,0 -0.9609375,0.515625 -1.4648437,1.3007813 -0.46875,0.75 -0.6210938,1.546875 -0.6210938,2.1796875 0,0.5976562 0.1289063,1.453125 0.7148438,2.30859374 0.4335937,0.64453125 1.1484375,1.171875 1.3710937,1.171875 0.2460938,0 0.2929688,-0.17578125 0.2929688,-0.2578125 z M 8.9615938,-1.7339453 c 0,-1.0078125 -0.796875,-1.8164063 -1.8046875,-1.8164063 -0.4921875,0 -0.9492188,0.1757813 -1.3242188,0.4921875 0.140625,-1.1953125 0.9375,-1.9335937 1.7460938,-1.9335937 0.082031,0 0.3046875,0 0.4453125,0.140625 -0.058594,0.058594 -0.082031,0.1640625 -0.082031,0.2460937 0,0.1992188 0.1523438,0.4101563 0.4101563,0.4101563 0.2460937,0 0.421875,-0.1757813 0.421875,-0.4453125 0,-0.4101563 -0.28125,-0.9375 -1.1953125,-0.9375 -1.2070313,0 -2.4257813,1.1015625 -2.4257813,2.8945312 0,2.10937504 0.9960938,2.77734379 1.9335938,2.77734379 0.9726562,0 1.875,-0.73828125 1.8749997,-1.82812499 z m -0.6679688,0 c 0,0.73828124 -0.5742187,1.25390624 -1.21875,1.25390624 -0.8554687,0 -1.1601562,-0.96093754 -1.1601562,-1.51171874 0,-0.5039063 0.5039062,-0.9609375 1.1953125,-0.9609375 0.7148437,0 1.1835937,0.5742187 1.1835937,1.21875 z m 4.227539,1.49999999 c 0,-0.515625 -0.328125,-0.90234379 -0.75,-0.90234379 -0.351562,0 -0.574219,0.26953129 -0.574219,0.56250004 0,0.328125 0.246094,0.5742187475 0.574219,0.5742187475 0.07031,0 0.128906,-0.0117187475 0.140625,-0.0234374975 -0.03516,0.19921875 -0.199219,0.5390625 -0.65625,0.69140625 -0.08203,0.0351563 -0.246094,0.0820313 -0.246094,0.28125 0,0.14062496 0.140625,0.29296876 0.304688,0.29296876 0.292969,0 1.207031,-0.46875001 1.207031,-1.47656251 z M 23.270188,-1.7925391 c 0,-0.2929687 -0.246094,-0.2929687 -0.375,-0.2929687 h -0.667969 v -3.1289063 c 0,-0.3046875 -0.07031,-0.3867187 -0.386719,-0.3867187 h -0.257812 c -0.222657,0 -0.28125,0.011719 -0.398438,0.1992187 l -2.015625,3.1875 c -0.08203,0.1171875 -0.08203,0.140625 -0.08203,0.328125 0,0.2578125 0.03516,0.375 0.375,0.375 h 2.226562 v 0.92578129 h -0.539062 c -0.128906,0 -0.375,0 -0.375,0.29296875 0,0.2929687475 0.246094,0.2929687475 0.375,0.2929687475 h 1.617187 c 0.128907,0 0.375,0 0.375,-0.2812499975 0,-0.3046875 -0.246093,-0.3046875 -0.375,-0.3046875 H 22.227219 V -1.5112891 h 0.667969 c 0.117187,0 0.375,0 0.375,-0.28125 z m -1.582032,-0.2929687 h -1.921875 l 1.921875,-3.0585938 z m 5.012696,-0.6445313 c 0,-0.609375 -0.128907,-1.453125 -0.714844,-2.3085937 -0.445313,-0.6445313 -1.136719,-1.1835938 -1.371094,-1.1835938 -0.257812,0 -0.292969,0.1992188 -0.292969,0.2695313 0,0.140625 0.08203,0.2109375 0.164063,0.2578125 1.183594,0.7851562 1.546875,2.015625 1.546875,2.953125 0,0.6796875 -0.1875,1.265625 -0.375,1.6640625 -0.363281,0.67968749 -0.808594,1.05468749 -1.230469,1.32421874 -0.07031,0.0585937 -0.105469,0.15234375 -0.105469,0.234375 0,0.0703125 0.04687,0.2578125 0.292969,0.2578125 0.199219,0 0.960938,-0.515625 1.453125,-1.2890625 0.480469,-0.75000004 0.632813,-1.54687504 0.632813,-2.17968754 z m 0,0"
       style="fill:#949494;fill-opacity:1;fill-rule:nonzero;stroke:none"
       aria-label="(6,4)"
       transform="matrix(1.3333333,0,0,1.3333333,298.12933,142.75333)" />
    <path
       id="path67"
       d="m 273.54652,-0.85045 h 70.86702 v 25.5121 h -70.86702 z"
       style="fill:#fafafa;fill-opacity:1;fill-rule:nonzero;stroke:#bfbfbf;stroke-width:0.49814;stroke-linecap:butt;stroke-linejoin:miter;stroke-miterlimit:10;stroke-dasharray:none;stroke-opacity:1"
       transform="matrix(1.3333333,0,0,-1.3333333,9.3013333,155.30933)" />
    <path
       id="path68"
       d="m 3.9140469,0.48089844 c 0,-0.15234375 -0.082031,-0.19921875 -0.1640625,-0.26953125 -1.1835938,-0.7734375 -1.5585938,-2.01562499 -1.5585938,-2.94140629 0,-0.6796875 0.1875,-1.265625 0.3867188,-1.6757812 0.3632812,-0.6796875 0.796875,-1.0429688 1.21875,-1.3242188 0.070312,-0.046875 0.1171875,-0.1289062 0.1171875,-0.2226562 0,-0.09375 -0.046875,-0.2695313 -0.2929688,-0.2695313 -0.2109375,0 -0.9609375,0.515625 -1.4648437,1.3007813 -0.46875,0.75 -0.6210938,1.546875 -0.6210938,2.1796875 0,0.5976562 0.1289063,1.453125 0.7148438,2.30859374 0.4335937,0.64453125 1.1484375,1.171875 1.3710937,1.171875 0.2460938,0 0.2929688,-0.17578125 0.2929688,-0.2578125 z M 9.0087734,-5.1792578 c 0,-0.2929688 -0.234375,-0.2929688 -0.375,-0.2929688 h -2.90625 c -0.058594,-0.1523437 -0.2109375,-0.1523437 -0.2929687,-0.1523437 -0.328125,0 -0.328125,0.2109375 -0.328125,0.375 v 0.4101562 c 0,0.1640625 0,0.375 0.328125,0.375 0.328125,0 0.328125,-0.1875 0.328125,-0.4335937 h 2.25 c -0.5273438,0.5976562 -0.9609375,1.265625 -1.265625,1.9921875 -0.46875,1.0898437 -0.5390625,2.15624999 -0.5390625,2.56640624 0,0.1171875 0,0.43359375 0.328125,0.43359375 0.328125,0 0.328125,-0.3046875 0.328125,-0.4453125 0.035156,-2.01562499 1.0195312,-3.60937499 1.9453125,-4.51171879 0.1757812,-0.1640625 0.1992187,-0.1875 0.1992187,-0.3164062 z m 3.5126956,4.94531249 c 0,-0.515625 -0.328125,-0.90234379 -0.75,-0.90234379 -0.351563,0 -0.574219,0.26953129 -0.574219,0.56250004 0,0.328125 0.246094,0.5742187475 0.574219,0.5742187475 0.07031,0 0.128906,-0.0117187475 0.140625,-0.0234374975 -0.03516,0.19921875 -0.199219,0.5390625 -0.65625,0.69140625 -0.08203,0.0351563 -0.246094,0.0820313 -0.246094,0.28125 0,0.14062496 0.140625,0.29296876 0.304687,0.29296876 0.292969,0 1.207032,-0.46875001 1.207032,-1.47656251 z m 10.538086,-0.140625 v -0.2578125 c 0,-0.17578125 0,-0.37499999 -0.328125,-0.37499999 -0.339844,0 -0.339844,0.18749999 -0.339844,0.42187499 h -2.015625 c 0.480469,-0.41015625 1.488281,-1.20703129 1.710937,-1.41796879 0.328125,-0.3164062 0.972657,-0.9140625 0.972657,-1.8046875 0,-1.0664062 -0.890625,-1.7695312 -2.003907,-1.7695312 -1.042968,0 -1.757812,0.7148437 -1.757812,1.4765625 0,0.3632812 0.28125,0.4570312 0.421875,0.4570312 0.175781,0 0.410156,-0.1523437 0.410156,-0.421875 0,-0.1875 -0.07031,-0.2578125 -0.117187,-0.3046875 0.152343,-0.3867187 0.550781,-0.6210937 1.007812,-0.6210937 0.714844,0 1.371094,0.4101562 1.371094,1.1835937 0,0.6210938 -0.480469,1.1601563 -0.832031,1.4648438 l -2.132813,1.79296874 c -0.07031,0.0585937 -0.128906,0.1171875 -0.128906,0.2578125 0,0.2929687475 0.234375,0.2929687475 0.386719,0.2929687475 h 3 c 0.292968,0 0.375,-0.0703124975 0.375,-0.3749999975 z m 3.641601,-2.35546879 c 0,-0.609375 -0.128906,-1.453125 -0.714844,-2.3085937 -0.445312,-0.6445313 -1.136718,-1.1835938 -1.371093,-1.1835938 -0.257813,0 -0.292969,0.1992188 -0.292969,0.2695313 0,0.140625 0.08203,0.2109375 0.164062,0.2578125 1.183594,0.7851562 1.546875,2.015625 1.546875,2.953125 0,0.6796875 -0.1875,1.265625 -0.375,1.6640625 -0.363281,0.67968749 -0.808593,1.05468749 -1.230468,1.32421874 -0.07031,0.0585937 -0.105469,0.15234375 -0.105469,0.234375 0,0.0703125 0.04687,0.2578125 0.292969,0.2578125 0.199218,0 0.960937,-0.515625 1.453125,-1.2890625 0.480468,-0.75000004 0.632812,-1.54687504 0.632812,-2.17968754 z m 0,0"
       style="fill:#949494;fill-opacity:1;fill-rule:nonzero;stroke:none"
       aria-label="(7,2)"
       transform="matrix(1.3333333,0,0,1.3333333,402.44533,142.75333)" />
    <g
       id="g68"
       aria-label="dist[4]=5&lt;6이므로(6,4)는무시한다."
       transform="matrix(1.3333333,0,0,1.3333333,279.32133,180.20933)">
      <path
         id="path69"
         d="m 4.6281406,-0.28004688 c 0,-0.3046875 -0.2460937,-0.3046875 -0.375,-0.3046875 H 3.8547031 V -5.0964531 c 0,-0.3046875 -0.070312,-0.375 -0.375,-0.375 H 2.8000156 c -0.1289062,0 -0.375,0 -0.375,0.28125 0,0.2929687 0.234375,0.2929687 0.375,0.2929687 h 0.3867188 v 1.3710938 c -0.1875,-0.1757813 -0.5507813,-0.3867188 -1.03125,-0.3867188 -0.9960938,0 -1.85156252,0.8671875 -1.85156252,1.9921875 0,1.10156252 0.80859372,1.96875002 1.76953122,1.96875002 0.4101563,0 0.796875,-0.15234375 1.1132813,-0.48046875 0,0.28125 0,0.43359375 0.375,0.43359375 h 0.6914062 c 0.1171875,0 0.375,0 0.375,-0.28125 z M 3.1867344,-1.7448906 c 0,0.4804687 -0.3984375,1.20703122 -1.0664063,1.20703122 -0.6210937,0 -1.14843747,-0.60937502 -1.14843747,-1.38281252 0,-0.8085937 0.57421877,-1.40625 1.23046877,-1.40625 0.5390625,0 0.984375,0.46875 0.984375,0.9492188 z m 5.6455078,1.46484372 c 0,-0.3046875 -0.2578125,-0.3046875 -0.3867188,-0.3046875 h -0.9375 V -3.4909844 c 0,-0.2929687 -0.070312,-0.375 -0.375,-0.375 H 5.8322422 c -0.140625,0 -0.3867188,0 -0.3867188,0.2929688 0,0.2929687 0.234375,0.2929687 0.3867188,0.2929687 h 1.0078125 v 2.69531252 H 5.7502109 c -0.1289062,0 -0.375,0 -0.375,0.29296875 0,0.29296875 0.234375,0.29296875 0.375,0.29296875 h 2.6953125 c 0.1289063,0 0.3867188,0 0.3867188,-0.28125 z m -1.3125,-4.69921872 c 0,-0.2578125 -0.1992188,-0.4570313 -0.4570313,-0.4570313 -0.2460937,0 -0.4570312,0.1992188 -0.4570312,0.4570313 0,0.2460937 0.2109375,0.4570312 0.4570312,0.4570312 0.2578125,0 0.4570313,-0.2109375 0.4570313,-0.4570312 z m 6.0087888,3.8554687 c 0,-0.4453125 -0.28125,-0.7265625 -0.492187,-0.8554687 -0.363281,-0.2226563 -0.585938,-0.2695313 -1.429688,-0.3984375 -0.375,-0.058594 -0.960937,-0.1523438 -0.960937,-0.4921875 0,-0.234375 0.28125,-0.4804688 1.101562,-0.4804688 0.820313,0 0.84375,0.3046875 0.855469,0.5039063 0.01172,0.2460937 0.257813,0.2460937 0.328125,0.2460937 0.328125,0 0.328125,-0.1992187 0.328125,-0.375 v -0.5859375 c 0,-0.1289062 0,-0.375 -0.28125,-0.375 -0.210937,0 -0.257812,0.1054688 -0.28125,0.1757813 -0.339844,-0.1757813 -0.785156,-0.1757813 -0.9375,-0.1757813 -1.558594,0 -1.699219,0.8203125 -1.699219,1.0664063 0,0.4804687 0.363282,0.6914062 0.46875,0.7617187 0.304688,0.1875 0.550782,0.234375 1.476563,0.375 0.234375,0.035156 0.9375,0.1523438 0.9375,0.609375 0,0.26953127 -0.257813,0.58593752 -1.113281,0.58593752 -0.550782,0 -0.902344,-0.1875 -1.089844,-0.71484372 -0.05859,-0.1757813 -0.09375,-0.28125 -0.351563,-0.28125 -0.328125,0 -0.328125,0.2109375 -0.328125,0.3867187 v 0.82031252 c 0,0.12890625 0,0.375 0.292969,0.375 0.128906,0 0.257813,-0.0703125 0.328125,-0.31640625 0.445313,0.31640625 0.960938,0.31640625 1.148438,0.31640625 1.488281,0 1.699218,-0.83203125 1.699218,-1.17187502 z m 4.614258,-0.035156 c 0,-0.3046875 -0.222656,-0.3046875 -0.328125,-0.3046875 -0.140625,0 -0.316406,0.011719 -0.328125,0.3046875 -0.02344,0.42187497 -0.375,0.62109372 -0.679687,0.62109372 -0.667969,0 -0.667969,-0.48046872 -0.667969,-0.70312502 v -2.0390625 h 1.429687 c 0.117188,0 0.375,0 0.375,-0.28125 0,-0.3046875 -0.246093,-0.3046875 -0.375,-0.3046875 h -1.429687 v -0.7265625 c 0,-0.1640625 0,-0.375 -0.328125,-0.375 -0.328125,0 -0.328125,0.2109375 -0.328125,0.3867188 v 0.7148437 h -0.75 c -0.140625,0 -0.386719,0 -0.386719,0.3046875 0,0.28125 0.246094,0.28125 0.375,0.28125 h 0.761719 v 2.0742188 c 0,0.93749997 0.644531,1.25390622 1.277344,1.25390622 0.773437,0 1.382812,-0.5390625 1.382812,-1.20703122 z m 5.021484,1.60546872 c 0,-0.28125 -0.246093,-0.28125 -0.375,-0.28125 H 21.441617 V -5.6355156 h 1.347656 c 0.140625,0 0.375,0 0.375,-0.2929688 0,-0.2929687 -0.246093,-0.2929687 -0.375,-0.2929687 h -1.628906 c -0.292969,0 -0.375,0.070312 -0.375,0.375 v 6.21093747 c 0,0.3046875 0.07031,0.375 0.375,0.375 h 1.628906 c 0.140625,0 0.375,0 0.375,-0.29296855 z M 27.97775,-1.7917656 c 0,-0.2929688 -0.246094,-0.2929688 -0.375,-0.2929688 h -0.667969 v -3.1289062 c 0,-0.3046875 -0.07031,-0.3867188 -0.386718,-0.3867188 H 26.29025 c -0.222656,0 -0.28125,0.011719 -0.398437,0.1992188 l -2.015625,3.1875 c -0.08203,0.1171875 -0.08203,0.140625 -0.08203,0.328125 0,0.2578125 0.03516,0.375 0.375,0.375 h 2.226563 v 0.92578122 h -0.539063 c -0.128906,0 -0.375,0 -0.375,0.29296875 0,0.29296875 0.246094,0.29296875 0.375,0.29296875 h 1.617188 c 0.128906,0 0.375,0 0.375,-0.28125 0,-0.3046875 -0.246094,-0.3046875 -0.375,-0.3046875 H 26.934781 V -1.5105156 h 0.667969 c 0.117188,0 0.375,0 0.375,-0.28125 z m -1.582031,-0.2929688 h -1.921875 l 1.921875,-3.0585937 z m 4.59082,2.44921877 V -5.8464531 c 0,-0.2929688 -0.07031,-0.375 -0.375,-0.375 h -1.628906 c -0.128906,0 -0.375,0 -0.375,0.2929687 0,0.2929688 0.234375,0.2929688 0.375,0.2929688 h 1.335937 v 5.80078122 h -1.335937 c -0.128906,0 -0.375,0 -0.375,0.28125 0,0.29296875 0.234375,0.29296875 0.375,0.29296875 h 1.628906 c 0.292969,0 0.375,-0.0703125 0.375,-0.375 z m 6.336914,-3.77343747 c 0,-0.3515625 -0.351562,-0.3515625 -0.480469,-0.3515625 h -3.082031 c -0.128906,0 -0.480469,0 -0.480469,0.3515625 0,0.328125 0.328125,0.328125 0.421875,0.328125 h 3.199219 c 0.09375,0 0.421875,0 0.421875,-0.328125 z m 0,1.3476562 c 0,-0.328125 -0.328125,-0.328125 -0.421875,-0.328125 h -3.199219 c -0.09375,0 -0.421875,0 -0.421875,0.328125 0,0.3398438 0.351563,0.3398438 0.480469,0.3398438 h 3.082031 c 0.128907,0 0.480469,0 0.480469,-0.3398438 z m 4.564453,0.3632813 c 0,-0.9140625 -0.703125,-1.7929688 -1.757812,-1.7929688 -0.292969,0 -0.65625,0.046875 -1.042969,0.2460938 V -4.8972344 H 41.1965 c 0.128906,0 0.375,0 0.375,-0.28125 0,-0.2929687 -0.234375,-0.2929687 -0.375,-0.2929687 h -2.390625 c -0.304687,0 -0.386719,0.070312 -0.386719,0.4101562 v 2.3320313 c 0,0.1757812 0,0.4101562 0.316407,0.4101562 0.164062,0 0.199218,-0.046875 0.28125,-0.140625 0.257812,-0.3164062 0.667968,-0.4453125 1.101562,-0.4453125 0.714844,0 1.101563,0.6328125 1.101563,1.2070313 0,0.6914062 -0.609375,1.21874997 -1.347657,1.21874997 -0.363281,0 -0.820312,-0.15234375 -1.019531,-0.52734377 l 0.01172,-0.011719 c 0.05859,-0.09375 0.07031,-0.1054688 0.08203,-0.2226563 0,0 0.01172,-0.023437 0.01172,-0.058594 0,-0.234375 -0.175781,-0.4101563 -0.410156,-0.4101563 -0.175782,0 -0.421875,0.1054688 -0.421875,0.4453125 0,0.72656252 0.738281,1.35937502 1.746093,1.35937502 1.125,0 2.015625,-0.796875 2.015625,-1.79296872 z m 9.38086,0.89062497 c 0,-0.17578125 -0.117188,-0.25781247 -0.210938,-0.31640627 l -2.519531,-1.6054687 2.519531,-1.6171875 c 0.08203,-0.058594 0.210938,-0.1289063 0.210938,-0.328125 0,-0.2226563 -0.199219,-0.3398438 -0.328125,-0.3398438 0,0 -0.117188,0 -0.257813,0.1054688 l -2.90625,1.8632812 c -0.105469,0.070312 -0.199219,0.1289063 -0.199219,0.3164063 0,0.1757812 0.128907,0.2578125 0.199219,0.3046875 l 3.011719,1.92187497 c 0.05859,0.0234375 0.140625,0.0351563 0.140625,0.0351563 0.164062,0 0.339844,-0.12890625 0.339844,-0.3398438 z m 9.474609,-0.92578127 c 0,-1.0078125 -0.796875,-1.8164062 -1.804687,-1.8164062 -0.492188,0 -0.949219,0.1757812 -1.324219,0.4921875 0.140625,-1.1953125 0.9375,-1.9335938 1.746094,-1.9335938 0.08203,0 0.304687,0 0.445312,0.140625 -0.05859,0.058594 -0.08203,0.1640625 -0.08203,0.2460938 0,0.1992187 0.152344,0.4101562 0.410156,0.4101562 0.246094,0 0.421875,-0.1757812 0.421875,-0.4453125 0,-0.4101562 -0.28125,-0.9375 -1.195312,-0.9375 -1.207032,0 -2.425782,1.1015625 -2.425782,2.8945313 0,2.10937497 0.996094,2.77734372 1.933594,2.77734372 0.972656,0 1.875,-0.73828125 1.874999,-1.82812502 z m -0.667969,0 c 0,0.73828127 -0.574218,1.25390627 -1.21875,1.25390627 -0.855468,0 -1.160156,-0.96093747 -1.160156,-1.51171877 0,-0.5039062 0.503906,-0.9609375 1.195313,-0.9609375 0.714843,0 1.183593,0.5742188 1.183593,1.21875 z m 0,0"
         style="fill:#000000;fill-opacity:1;fill-rule:nonzero;stroke:none" />
      <path
         id="path70"
         d="m 67.982633,-7.4167656 v 8.12109372 h 0.738281 V -7.4167656 Z m -3.539063,0.6328125 c -1.195312,0 -2.0625,1.1015625 -2.0625,2.8242187 0,1.734375 0.867188,2.8359375 2.0625,2.8359375 1.195313,0 2.0625,-1.1015625 2.0625,-2.8359375 0,-1.7226562 -0.867187,-2.8242187 -2.0625,-2.8242187 z m 0,0.6679687 c 0.796875,0 1.335938,0.84375 1.335938,2.15625 0,1.3125 -0.539063,2.1679688 -1.335938,2.1679688 -0.796875,0 -1.335937,-0.8554688 -1.335937,-2.1679688 0,-1.3125 0.539062,-2.15625 1.335937,-2.15625 z m 5.894532,5.12109377 v 0.62109375 h 7.359375 v -0.62109375 z m 0.867187,-5.70703127 v 3.84375 h 5.589844 v -3.84375 z m 4.863281,0.5976563 v 2.6484375 h -4.136718 v -2.6484375 z m 3.433594,3.0585937 v 0.609375 h 2.378906 v 1.51171877 h -3.292968 v 0.62109375 h 7.359375 V -0.92457813 H 82.619352 V -2.4362969 h 2.601562 v -0.609375 h -4.980469 v -1.3125 h 4.792969 v -2.4492187 h -5.542969 v 0.609375 h 4.804688 v 1.2539062 h -4.792969 z m 0,0"
         style="fill:#000000;fill-opacity:1;fill-rule:nonzero;stroke:none" />
      <path
         id="path71"
         d="m 92.313688,0.48167187 c 0,-0.15234375 -0.08203,-0.19921875 -0.164063,-0.26953125 -1.183594,-0.7734375 -1.558594,-2.01562502 -1.558594,-2.94140622 0,-0.6796875 0.1875,-1.265625 0.386719,-1.6757813 0.363281,-0.6796875 0.796875,-1.0429687 1.21875,-1.3242187 0.07031,-0.046875 0.117188,-0.1289063 0.117188,-0.2226563 0,-0.09375 -0.04687,-0.2695312 -0.292969,-0.2695312 -0.210938,0 -0.960938,0.515625 -1.464844,1.3007812 -0.46875,0.75 -0.621094,1.546875 -0.621094,2.1796875 0,0.5976563 0.128907,1.453125 0.714844,2.30859377 0.433594,0.64453125 1.148438,1.171875 1.371094,1.171875 0.246094,0 0.292969,-0.17578125 0.292969,-0.2578125 z m 5.047851,-2.21484377 c 0,-1.0078125 -0.796875,-1.8164062 -1.804687,-1.8164062 -0.492188,0 -0.949219,0.1757812 -1.324219,0.4921875 0.140625,-1.1953125 0.9375,-1.9335938 1.746094,-1.9335938 0.08203,0 0.304687,0 0.445312,0.140625 -0.05859,0.058594 -0.08203,0.1640625 -0.08203,0.2460938 0,0.1992187 0.152344,0.4101562 0.410156,0.4101562 0.246094,0 0.421875,-0.1757812 0.421875,-0.4453125 0,-0.4101562 -0.28125,-0.9375 -1.195312,-0.9375 -1.207032,0 -2.425782,1.1015625 -2.425782,2.8945313 0,2.10937497 0.996094,2.77734372 1.933594,2.77734372 0.972656,0 1.875,-0.73828125 1.874999,-1.82812502 z m -0.667969,0 c 0,0.73828127 -0.574218,1.25390627 -1.21875,1.25390627 -0.855468,0 -1.160156,-0.96093747 -1.160156,-1.51171877 0,-0.5039062 0.503906,-0.9609375 1.195313,-0.9609375 0.714843,0 1.183593,0.5742188 1.183593,1.21875 z m 4.22754,1.50000002 c 0,-0.515625 -0.32813,-0.90234372 -0.75,-0.90234372 -0.351563,0 -0.574219,0.26953122 -0.574219,0.56249997 0,0.328125 0.246093,0.57421875 0.574219,0.57421875 0.0703,0 0.12891,-0.01171875 0.14062,-0.0234375 -0.0352,0.19921875 -0.19921,0.5390625 -0.656246,0.69140625 -0.08203,0.0351563 -0.246093,0.0820313 -0.246093,0.28125 0,0.14062503 0.140625,0.29296873 0.304687,0.29296873 0.292972,0 1.207032,-0.46874998 1.207032,-1.47656248 z m 10.74023,-1.55859372 c 0,-0.2929688 -0.24609,-0.2929688 -0.375,-0.2929688 h -0.66796 v -3.1289062 c 0,-0.3046875 -0.0703,-0.3867188 -0.38672,-0.3867188 h -0.25782 c -0.22265,0 -0.28125,0.011719 -0.39843,0.1992188 l -2.01563,3.1875 c -0.082,0.1171875 -0.082,0.140625 -0.082,0.328125 0,0.2578125 0.0352,0.375 0.375,0.375 h 2.22656 v 0.92578122 h -0.53906 c -0.12891,0 -0.375,0 -0.375,0.29296875 0,0.29296875 0.24609,0.29296875 0.375,0.29296875 h 1.61719 c 0.1289,0 0.375,0 0.375,-0.28125 0,-0.3046875 -0.2461,-0.3046875 -0.375,-0.3046875 h -0.53906 V -1.5105156 h 0.66796 c 0.11719,0 0.375,0 0.375,-0.28125 z m -1.58203,-0.2929688 h -1.92187 l 1.92187,-3.0585937 z m 5.0127,-0.6445312 c 0,-0.609375 -0.12891,-1.453125 -0.71485,-2.3085938 -0.44531,-0.6445312 -1.13671,-1.1835937 -1.37109,-1.1835937 -0.25781,0 -0.29297,0.1992187 -0.29297,0.2695312 0,0.140625 0.082,0.2109375 0.16406,0.2578125 1.1836,0.7851563 1.54688,2.015625 1.54688,2.953125 0,0.6796875 -0.1875,1.265625 -0.375,1.6640625 -0.36328,0.67968752 -0.80859,1.05468752 -1.23047,1.32421877 -0.0703,0.0585938 -0.10547,0.15234375 -0.10547,0.234375 0,0.0703125 0.0469,0.2578125 0.29297,0.2578125 0.19922,0 0.96094,-0.515625 1.45313,-1.2890625 0.48046,-0.74999997 0.63281,-1.54687497 0.63281,-2.17968747 z m 0,0"
         style="fill:#000000;fill-opacity:1;fill-rule:nonzero;stroke:none" />
      <path
         id="path72"
         d="m 117.52658,-3.2800469 v 0.5976563 h 7.35937 v -0.5976563 z m 0.99609,-3.8320312 v 2.7421875 h 5.51953 v -0.609375 h -4.78125 v -2.1328125 z m -0.0469,5.25 v 2.36718747 h 5.61328 v -0.609375 h -4.875 V -1.8620781 Z m 10.25683,-5.0976563 v 3.1640625 h 5.46094 v -3.1640625 z m 4.73438,0.5976563 v 1.96875 h -4.00781 v -1.96875 z m -5.6836,3.65625 v 0.609375 h 3.29297 v 2.78906247 h 0.73828 V -2.0964531 h 3.32813 v -0.609375 z m 14.15625,-4.7109375 v 8.12109372 h 0.73829 V -7.4167656 Z m -3.76171,0.703125 v 1.453125 c 0,1.546875 -0.96094,3.09375 -2.17969,3.65625 l 0.45703,0.62109372 c 0.96094,-0.48046872 1.73437,-1.50000002 2.10937,-2.71875002 0.375,1.1601563 1.16016,2.109375 2.07422,2.5546875 l 0.44532,-0.5859375 c -1.19532,-0.5507812 -2.15625,-2.0507812 -2.15625,-3.5273437 v -1.453125 z m 8.52832,1.3359375 c -1.16016,0 -1.94532,0.5976562 -1.94532,1.5117187 0,0.9140625 0.78516,1.5117188 1.94532,1.5117188 1.14843,0 1.93359,-0.5976563 1.93359,-1.5117188 0,-0.9140625 -0.78516,-1.5117187 -1.93359,-1.5117187 z m 0,0.5859375 c 0.73828,0 1.23046,0.3632812 1.23046,0.9257812 0,0.5625 -0.49218,0.9257813 -1.23046,0.9257813 -0.73829,0 -1.23047,-0.3632813 -1.23047,-0.9257813 0,-0.5625 0.49218,-0.9257812 1.23047,-0.9257812 z m 3.14062,-2.6132813 v 6.0820313 h 0.73828 v -2.8007813 h 1.19531 v -0.6210937 h -1.19531 v -2.6601563 z m -3.50391,0 v 0.984375 h -2.02734 v 0.609375 h 4.78125 v -0.609375 h -2.01562 v -0.984375 z m -0.79687,5.5898438 v 2.33203122 h 5.40234 v -0.609375 h -4.67578 V -1.8152031 Z m 12.48047,-5.6015625 v 8.12109372 h 0.75 V -3.5964531 h 1.32422 v -0.6210938 h -1.32422 v -3.1992187 z m -5.13281,0.796875 v 5.3085937 h 0.63281 c 1.52344,0 2.58984,-0.046875 3.84375,-0.2695312 l -0.0937,-0.6445313 c -1.1836,0.2226563 -2.21485,0.28125 -3.64453,0.28125 v -4.0664062 h 3.02343 v -0.609375 z m 8.69531,6.73828122 c 0.32812,0 0.59765,-0.24609375 0.59765,-0.62109375 0,-0.375 -0.26953,-0.62109377 -0.59765,-0.62109377 -0.32813,0 -0.58594,0.24609377 -0.58594,0.62109377 0,0.375 0.25781,0.62109375 0.58594,0.62109375 z m 0,0"
         style="fill:#000000;fill-opacity:1;fill-rule:nonzero;stroke:none" />
    </g>
    <g
       id="g72"
       aria-label="dist[2]=3&lt;7이므로(7,2)도무시한다."
       transform="matrix(1.3333333,0,0,1.3333333,279.32133,201.75333)">
      <path
         id="path73"
         d="m 4.6281406,-0.28082031 c 0,-0.3046875 -0.2460937,-0.3046875 -0.375,-0.3046875 H 3.8547031 V -5.0972266 c 0,-0.3046875 -0.070312,-0.375 -0.375,-0.375 H 2.8000156 c -0.1289062,0 -0.375,0 -0.375,0.28125 0,0.2929688 0.234375,0.2929688 0.375,0.2929688 h 0.3867188 v 1.3710937 c -0.1875,-0.1757812 -0.5507813,-0.3867187 -1.03125,-0.3867187 -0.9960938,0 -1.85156252,0.8671875 -1.85156252,1.9921875 0,1.10156249 0.80859372,1.96874999 1.76953122,1.96874999 0.4101563,0 0.796875,-0.15234375 1.1132813,-0.48046875 0,0.28125 0,0.4335937475 0.375,0.4335937475 h 0.6914062 c 0.1171875,0 0.375,0 0.375,-0.2812499975 z M 3.1867344,-1.7456641 c 0,0.4804688 -0.3984375,1.20703129 -1.0664063,1.20703129 -0.6210937,0 -1.14843747,-0.60937499 -1.14843747,-1.38281249 0,-0.8085938 0.57421877,-1.40625 1.23046877,-1.40625 0.5390625,0 0.984375,0.46875 0.984375,0.9492187 z m 5.6455078,1.46484379 c 0,-0.3046875 -0.2578125,-0.3046875 -0.3867188,-0.3046875 h -0.9375 V -3.4917578 c 0,-0.2929688 -0.070312,-0.375 -0.375,-0.375 H 5.8322422 c -0.140625,0 -0.3867188,0 -0.3867188,0.2929687 0,0.2929688 0.234375,0.2929688 0.3867188,0.2929688 h 1.0078125 v 2.69531249 H 5.7502109 c -0.1289062,0 -0.375,0 -0.375,0.29296875 0,0.2929687475 0.234375,0.2929687475 0.375,0.2929687475 h 2.6953125 c 0.1289063,0 0.3867188,0 0.3867188,-0.2812499975 z m -1.3125,-4.69921879 c 0,-0.2578125 -0.1992188,-0.4570312 -0.4570313,-0.4570312 -0.2460937,0 -0.4570312,0.1992187 -0.4570312,0.4570312 0,0.2460938 0.2109375,0.4570313 0.4570312,0.4570313 0.2578125,0 0.4570313,-0.2109375 0.4570313,-0.4570313 z m 6.0087888,3.8554688 c 0,-0.4453125 -0.28125,-0.7265625 -0.492187,-0.8554688 -0.363281,-0.2226562 -0.585938,-0.2695312 -1.429688,-0.3984375 -0.375,-0.058594 -0.960937,-0.1523437 -0.960937,-0.4921875 0,-0.234375 0.28125,-0.4804687 1.101562,-0.4804687 0.820313,0 0.84375,0.3046875 0.855469,0.5039062 0.01172,0.2460938 0.257813,0.2460938 0.328125,0.2460938 0.328125,0 0.328125,-0.1992188 0.328125,-0.375 v -0.5859375 c 0,-0.1289063 0,-0.375 -0.28125,-0.375 -0.210937,0 -0.257812,0.1054687 -0.28125,0.1757812 -0.339844,-0.1757812 -0.785156,-0.1757812 -0.9375,-0.1757812 -1.558594,0 -1.699219,0.8203125 -1.699219,1.0664062 0,0.4804688 0.363282,0.6914063 0.46875,0.7617188 0.304688,0.1875 0.550782,0.234375 1.476563,0.375 0.234375,0.035156 0.9375,0.1523437 0.9375,0.609375 0,0.26953124 -0.257813,0.58593749 -1.113281,0.58593749 -0.550782,0 -0.902344,-0.1875 -1.089844,-0.71484379 -0.05859,-0.1757812 -0.09375,-0.28125 -0.351563,-0.28125 -0.328125,0 -0.328125,0.2109375 -0.328125,0.3867188 v 0.82031249 c 0,0.12890625 0,0.375 0.292969,0.375 0.128906,0 0.257813,-0.0703125 0.328125,-0.31640625 0.445313,0.31640625 0.960938,0.31640625 1.148438,0.31640625 1.488281,0 1.699218,-0.83203125 1.699218,-1.17187499 z m 4.614258,-0.035156 c 0,-0.3046875 -0.222656,-0.3046875 -0.328125,-0.3046875 -0.140625,0 -0.316406,0.011719 -0.328125,0.3046875 -0.02344,0.42187504 -0.375,0.62109379 -0.679687,0.62109379 -0.667969,0 -0.667969,-0.48046879 -0.667969,-0.70312499 V -3.28082 h 1.429687 c 0.117188,0 0.375,0 0.375,-0.28125 0,-0.3046875 -0.246093,-0.3046875 -0.375,-0.3046875 H 16.138883 V -4.59332 c 0,-0.1640625 0,-0.375 -0.328125,-0.375 -0.328125,0 -0.328125,0.2109375 -0.328125,0.3867187 v 0.7148438 h -0.75 c -0.140625,0 -0.386719,0 -0.386719,0.3046875 0,0.28125 0.246094,0.28125 0.375,0.28125 h 0.761719 v 2.0742187 c 0,0.93750004 0.644531,1.25390629 1.277344,1.25390629 0.773437,0 1.382812,-0.5390625 1.382812,-1.20703129 z m 5.021484,1.60546879 c 0,-0.28125 -0.246093,-0.28125 -0.375,-0.28125 H 21.441617 V -5.6362891 h 1.347656 c 0.140625,0 0.375,0 0.375,-0.2929687 0,-0.2929688 -0.246093,-0.2929688 -0.375,-0.2929688 h -1.628906 c -0.292969,0 -0.375,0.070312 -0.375,0.375 v 6.21093754 c 0,0.3046875 0.07031,0.375 0.375,0.375 h 1.628906 c 0.140625,0 0.375,0 0.375,-0.29296845 z m 4.60254,-0.8203125 v -0.2578125 c 0,-0.17578125 0,-0.37499999 -0.328125,-0.37499999 -0.339844,0 -0.339844,0.18749999 -0.339844,0.42187499 h -2.015625 c 0.480469,-0.41015625 1.488281,-1.20703129 1.710937,-1.41796879 0.328125,-0.3164062 0.972657,-0.9140625 0.972657,-1.8046875 0,-1.0664062 -0.890625,-1.7695312 -2.003907,-1.7695312 -1.042968,0 -1.757812,0.7148437 -1.757812,1.4765625 0,0.3632812 0.28125,0.4570312 0.421875,0.4570312 0.175781,0 0.410156,-0.1523437 0.410156,-0.421875 0,-0.1875 -0.07031,-0.2578125 -0.117187,-0.3046875 0.152343,-0.3867187 0.550781,-0.6210937 1.007812,-0.6210937 0.714844,0 1.371094,0.4101562 1.371094,1.1835937 0,0.6210938 -0.480469,1.1601563 -0.832031,1.4648438 L 24.134,-0.55035156 c -0.07031,0.0585937 -0.128906,0.1171875 -0.128906,0.2578125 0,0.2929687475 0.234375,0.2929687475 0.386719,0.2929687475 h 3 c 0.292968,0 0.375,-0.0703124975 0.375,-0.3749996975 z m 3.219726,0.73828125 V -5.8472266 c 0,-0.2929687 -0.07031,-0.375 -0.375,-0.375 h -1.628906 c -0.128906,0 -0.375,0 -0.375,0.2929688 0,0.2929687 0.234375,0.2929687 0.375,0.2929687 h 1.335937 v 5.80078129 h -1.335937 c -0.128906,0 -0.375,0 -0.375,0.28125 0,0.29296875 0.234375,0.29296875 0.375,0.29296875 h 1.628906 c 0.292969,0 0.375,-0.0703125 0.375,-0.3749997 z m 6.336914,-3.77343754 c 0,-0.3515625 -0.351562,-0.3515625 -0.480469,-0.3515625 h -3.082031 c -0.128906,0 -0.480469,0 -0.480469,0.3515625 0,0.328125 0.328125,0.328125 0.421875,0.328125 h 3.199219 c 0.09375,0 0.421875,0 0.421875,-0.328125 z m 0,1.3476563 c 0,-0.328125 -0.328125,-0.328125 -0.421875,-0.328125 h -3.199219 c -0.09375,0 -0.421875,0 -0.421875,0.328125 0,0.3398437 0.351563,0.3398437 0.480469,0.3398437 h 3.082031 c 0.128907,0 0.480469,0 0.480469,-0.3398437 z m 4.634766,0.4921875 c 0,-0.7382813 -0.550781,-1.2304688 -0.972656,-1.4296875 0.65625,-0.4570313 0.714843,-1.0546875 0.714843,-1.2890625 0,-0.6914063 -0.679687,-1.2890625 -1.699218,-1.2890625 -1.101563,0 -1.6875,0.4453125 -1.6875,1.0546875 0,0.2695312 0.199218,0.421875 0.421875,0.421875 0.222656,0 0.410156,-0.1757813 0.410156,-0.4101563 0,-0.082031 -0.02344,-0.1757812 -0.07031,-0.234375 0.292969,-0.2460937 0.878907,-0.2460937 0.925782,-0.2460937 0.632812,0 1.03125,0.328125 1.03125,0.703125 0,0.2460937 -0.117188,0.609375 -0.457032,0.8320312 -0.234375,0.1523438 -0.398437,0.1640625 -0.820312,0.1992188 -0.351563,0.011719 -0.527344,0.035156 -0.527344,0.3046875 0,0.2929687 0.246094,0.2929687 0.375,0.2929687 h 0.375 c 0.925781,0 1.324219,0.6210938 1.324219,1.078125 0,0.5742188 -0.515625,1.10156254 -1.289063,1.10156254 -0.234375,0 -0.914062,-0.0351562 -1.230468,-0.46875 l 0.02344,-0.0234375 c 0.05859,-0.0820312 0.05859,-0.10546874 0.07031,-0.18750004 0,0 0.01172,-0.035156 0.01172,-0.070312 0,-0.2226562 -0.175781,-0.4101562 -0.410156,-0.4101562 -0.222656,0 -0.421875,0.1289062 -0.421875,0.4335937 0,0.79687504 0.84375,1.30078129 1.957031,1.30078129 1.171875,0 1.945313,-0.80859375 1.945313,-1.66406249 z m 9.310547,0.76171874 c 0,-0.17578125 -0.117188,-0.25781254 -0.210938,-0.31640624 l -2.519531,-1.6054688 2.519531,-1.6171875 c 0.08203,-0.058594 0.210938,-0.1289062 0.210938,-0.328125 0,-0.2226562 -0.199219,-0.3398437 -0.328125,-0.3398437 0,0 -0.117188,0 -0.257813,0.1054687 l -2.90625,1.8632813 c -0.105469,0.070312 -0.199219,0.1289062 -0.199219,0.3164062 0,0.1757813 0.128907,0.2578125 0.199219,0.3046875 l 3.011719,1.92187504 c 0.05859,0.0234375 0.140625,0.0351562 0.140625,0.0351562 0.164062,0 0.339844,-0.12890625 0.339844,-0.3398437 z M 60.79025,-5.1792578 c 0,-0.2929688 -0.234375,-0.2929688 -0.375,-0.2929688 H 57.509 c -0.05859,-0.1523437 -0.210937,-0.1523437 -0.292969,-0.1523437 -0.328125,0 -0.328125,0.2109375 -0.328125,0.375 v 0.4101562 c 0,0.1640625 0,0.375 0.328125,0.375 0.328125,0 0.328125,-0.1875 0.328125,-0.4335937 h 2.25 c -0.527343,0.5976562 -0.960937,1.265625 -1.265625,1.9921875 -0.46875,1.0898437 -0.539062,2.15624999 -0.539062,2.56640624 0,0.1171875 0,0.43359375 0.328125,0.43359375 0.328125,0 0.328125,-0.3046875 0.328125,-0.4453125 0.03516,-2.01562499 1.019531,-3.60937499 1.945312,-4.51171879 0.175782,-0.1640625 0.199219,-0.1875 0.199219,-0.3164062 z m 0,0"
         style="fill:#000000;fill-opacity:1;fill-rule:nonzero;stroke:none" />
      <path
         id="path74"
         d="m 67.982633,-7.4175391 v 8.12109379 h 0.738281 V -7.4175391 Z m -3.539063,0.6328125 c -1.195312,0 -2.0625,1.1015625 -2.0625,2.8242188 0,1.734375 0.867188,2.8359375 2.0625,2.8359375 1.195313,0 2.0625,-1.1015625 2.0625,-2.8359375 0,-1.7226563 -0.867187,-2.8242188 -2.0625,-2.8242188 z m 0,0.6679688 c 0.796875,0 1.335938,0.84375 1.335938,2.15625 0,1.3125 -0.539063,2.1679687 -1.335938,2.1679687 -0.796875,0 -1.335937,-0.8554687 -1.335937,-2.1679687 0,-1.3125 0.539062,-2.15625 1.335937,-2.15625 z m 5.894532,5.12109374 v 0.62109375 h 7.359375 v -0.62109375 z m 0.867187,-5.70703124 v 3.84375 h 5.589844 v -3.84375 z m 4.863281,0.5976562 v 2.6484375 h -4.136718 v -2.6484375 z m 3.433594,3.0585938 v 0.609375 h 2.378906 v 1.51171874 h -3.292968 v 0.62109375 h 7.359375 V -0.92535156 H 82.619352 V -2.4370703 h 2.601562 v -0.609375 h -4.980469 v -1.3125 h 4.792969 v -2.4492188 h -5.542969 v 0.609375 h 4.804688 v 1.2539063 h -4.792969 z m 0,0"
         style="fill:#000000;fill-opacity:1;fill-rule:nonzero;stroke:none" />
      <path
         id="path75"
         d="m 92.313688,0.48089844 c 0,-0.15234375 -0.08203,-0.19921875 -0.164063,-0.26953125 -1.183594,-0.7734375 -1.558594,-2.01562499 -1.558594,-2.94140629 0,-0.6796875 0.1875,-1.265625 0.386719,-1.6757812 0.363281,-0.6796875 0.796875,-1.0429688 1.21875,-1.3242188 0.07031,-0.046875 0.117188,-0.1289062 0.117188,-0.2226562 0,-0.09375 -0.04687,-0.2695313 -0.292969,-0.2695313 -0.210938,0 -0.960938,0.515625 -1.464844,1.3007813 -0.46875,0.75 -0.621094,1.546875 -0.621094,2.1796875 0,0.5976562 0.128907,1.453125 0.714844,2.30859374 0.433594,0.64453125 1.148438,1.171875 1.371094,1.171875 0.246094,0 0.292969,-0.17578125 0.292969,-0.2578125 z m 5.094726,-5.66015624 c 0,-0.2929688 -0.234375,-0.2929688 -0.375,-0.2929688 h -2.90625 c -0.05859,-0.1523437 -0.210937,-0.1523437 -0.292969,-0.1523437 -0.328125,0 -0.328125,0.2109375 -0.328125,0.375 v 0.4101562 c 0,0.1640625 0,0.375 0.328125,0.375 0.328125,0 0.328125,-0.1875 0.328125,-0.4335937 h 2.25 c -0.527343,0.5976562 -0.960937,1.265625 -1.265625,1.9921875 -0.46875,1.0898437 -0.539062,2.15624999 -0.539062,2.56640624 0,0.1171875 0,0.43359375 0.328125,0.43359375 0.328125,0 0.328125,-0.3046875 0.328125,-0.4453125 0.03516,-2.01562499 1.019531,-3.60937499 1.945312,-4.51171879 0.175782,-0.1640625 0.199219,-0.1875 0.199219,-0.3164062 z m 3.512696,4.94531249 c 0,-0.515625 -0.32813,-0.90234379 -0.75,-0.90234379 -0.351563,0 -0.574219,0.26953129 -0.574219,0.56250004 0,0.328125 0.246093,0.5742187475 0.574219,0.5742187475 0.0703,0 0.12891,-0.0117187475 0.14062,-0.0234374975 -0.0352,0.19921875 -0.19921,0.5390625 -0.656246,0.69140625 -0.08203,0.0351563 -0.246093,0.0820313 -0.246093,0.28125 0,0.14062496 0.140625,0.29296876 0.304687,0.29296876 0.292972,0 1.207032,-0.46875001 1.207032,-1.47656251 z m 10.5293,-0.140625 v -0.2578125 c 0,-0.17578125 0,-0.37499999 -0.32813,-0.37499999 -0.33984,0 -0.33984,0.18749999 -0.33984,0.42187499 h -2.01563 c 0.48047,-0.41015625 1.48828,-1.20703129 1.71094,-1.41796879 0.32813,-0.3164062 0.97266,-0.9140625 0.97266,-1.8046875 0,-1.0664062 -0.89063,-1.7695312 -2.00391,-1.7695312 -1.04297,0 -1.75781,0.7148437 -1.75781,1.4765625 0,0.3632812 0.28125,0.4570312 0.42187,0.4570312 0.17578,0 0.41016,-0.1523437 0.41016,-0.421875 0,-0.1875 -0.0703,-0.2578125 -0.11719,-0.3046875 0.15235,-0.3867187 0.55078,-0.6210937 1.00781,-0.6210937 0.71485,0 1.3711,0.4101562 1.3711,1.1835937 0,0.6210938 -0.48047,1.1601563 -0.83203,1.4648438 l -2.13282,1.79296874 c -0.0703,0.0585937 -0.1289,0.1171875 -0.1289,0.2578125 0,0.2929687475 0.23437,0.2929687475 0.38672,0.2929687475 h 3 c 0.29297,0 0.375,-0.0703124975 0.375,-0.3749999975 z m 3.6416,-2.35546879 c 0,-0.609375 -0.12891,-1.453125 -0.71485,-2.3085937 -0.44531,-0.6445313 -1.13671,-1.1835938 -1.37109,-1.1835938 -0.25781,0 -0.29297,0.1992188 -0.29297,0.2695313 0,0.140625 0.082,0.2109375 0.16406,0.2578125 1.1836,0.7851562 1.54688,2.015625 1.54688,2.953125 0,0.6796875 -0.1875,1.265625 -0.375,1.6640625 -0.36328,0.67968749 -0.80859,1.05468749 -1.23047,1.32421874 -0.0703,0.0585937 -0.10547,0.15234375 -0.10547,0.234375 0,0.0703125 0.0469,0.2578125 0.29297,0.2578125 0.19922,0 0.96094,-0.515625 1.45313,-1.2890625 0.48046,-0.75000004 0.63281,-1.54687504 0.63281,-2.17968754 z m 0,0"
         style="fill:#000000;fill-opacity:1;fill-rule:nonzero;stroke:none" />
      <path
         id="path76"
         d="m 118.4758,-6.7612891 v 3.7382813 h 2.35547 v 2.08593749 h -3.29297 v 0.609375 h 7.35937 v -0.609375 h -3.32812 V -3.0230078 h 2.47265 v -0.5976563 h -4.82812 v -2.53125 h 4.74609 v -0.609375 z m 10.25683,-0.1992187 v 3.1640625 h 5.46094 v -3.1640625 z m 4.73438,0.5976562 v 1.96875 h -4.00781 v -1.96875 z m -5.6836,3.65625 v 0.609375 h 3.29297 v 2.78906254 h 0.73828 V -2.0972266 h 3.32813 v -0.609375 z m 14.15625,-4.7109375 v 8.12109379 h 0.73829 V -7.4175391 Z m -3.76171,0.703125 v 1.453125 c 0,1.546875 -0.96094,3.09375 -2.17969,3.65625 l 0.45703,0.62109379 c 0.96094,-0.48046879 1.73437,-1.49999999 2.10937,-2.71874999 0.375,1.1601562 1.16016,2.109375 2.07422,2.5546875 l 0.44532,-0.5859375 c -1.19532,-0.5507813 -2.15625,-2.0507813 -2.15625,-3.5273438 v -1.453125 z m 8.52832,1.3359375 c -1.16016,0 -1.94532,0.5976563 -1.94532,1.5117188 0,0.9140625 0.78516,1.5117187 1.94532,1.5117187 1.14843,0 1.93359,-0.5976562 1.93359,-1.5117187 0,-0.9140625 -0.78516,-1.5117188 -1.93359,-1.5117188 z m 0,0.5859375 c 0.73828,0 1.23046,0.3632813 1.23046,0.9257813 0,0.5625 -0.49218,0.9257812 -1.23046,0.9257812 -0.73829,0 -1.23047,-0.3632812 -1.23047,-0.9257812 0,-0.5625 0.49218,-0.9257813 1.23047,-0.9257813 z m 3.14062,-2.6132812 v 6.0820312 h 0.73828 v -2.8007812 h 1.19531 v -0.6210938 h -1.19531 v -2.6601562 z m -3.50391,0 v 0.984375 h -2.02734 v 0.609375 h 4.78125 v -0.609375 h -2.01562 v -0.984375 z m -0.79687,5.5898437 v 2.33203129 h 5.40234 v -0.609375 h -4.67578 V -1.8159766 Z m 12.48047,-5.6015625 v 8.12109379 h 0.75 V -3.5972266 h 1.32422 v -0.6210937 h -1.32422 v -3.1992188 z m -5.13281,0.796875 v 5.3085938 h 0.63281 c 1.52344,0 2.58984,-0.046875 3.84375,-0.2695313 l -0.0937,-0.6445312 c -1.1836,0.2226562 -2.21485,0.28125 -3.64453,0.28125 v -4.0664063 h 3.02343 v -0.609375 z m 8.69531,6.73828129 c 0.32812,0 0.59765,-0.24609375 0.59765,-0.62109375 0,-0.375 -0.26953,-0.62109374 -0.59765,-0.62109374 -0.32813,0 -0.58594,0.24609374 -0.58594,0.62109374 0,0.375 0.25781,0.62109375 0.58594,0.62109375 z m 0,0"
         style="fill:#000000;fill-opacity:1;fill-rule:nonzero;stroke:none" />
    </g>
    <g
       id="g76"
       aria-label="최종거리:0,3,4,5,1"
       transform="matrix(1.3333333,0,0,1.3333333,279.32133,223.29733)">
      <path
         id="path77"
         d="M 6.3156406,-7.4183125 V 0.70278125 H 7.0539219 V -7.4183125 Z M 0.58517188,-0.973 c 1.45312502,0 3.43359372,0 5.26171872,-0.3398438 l -0.070312,-0.5625 c -0.7265625,0.1171875 -1.5,0.1757813 -2.2617187,0.2226563 V -3.12925 h -0.75 v 1.5117187 c -0.820313,0.035156 -1.6054693,0.035156 -2.27343802,0.035156 z M 2.7648594,-7.348 v 0.9960937 H 0.93673438 v 0.609375 H 2.7648594 C 2.7297031,-4.676125 1.9211094,-3.7855 0.73751563,-3.4339375 l 0.35156247,0.5742187 c 0.9609375,-0.2929687 1.7109375,-0.9375 2.0625,-1.7929687 0.3515625,0.8085937 1.1015625,1.4296875 2.0625,1.7109375 L 5.5539219,-3.5276875 C 4.3703281,-3.8558125 3.5382969,-4.7112813 3.5148594,-5.7425313 h 1.8632812 v -0.609375 H 3.5148594 V -7.348 Z m 9.5859376,5.2265625 c -1.734375,0 -2.7773439,0.5039062 -2.7773439,1.40625 0,0.890625 1.0429689,1.39453125 2.7773439,1.39453125 1.746094,0 2.777344,-0.50390625 2.777344,-1.39453125 0,-0.9023438 -1.03125,-1.40625 -2.777344,-1.40625 z m 0,0.5859375 c 1.277344,0 2.027344,0.2929687 2.027344,0.8203125 0,0.52734375 -0.75,0.8203125 -2.027344,0.8203125 -1.277344,0 -2.027344,-0.29296875 -2.027344,-0.8203125 0,-0.5273438 0.75,-0.8203125 2.027344,-0.8203125 z M 8.6945469,-3.3753438 v 0.609375 h 7.3242191 v -0.609375 h -3.292969 v -1.1484375 h -0.738281 v 1.1484375 z m 0.6796875,-3.6679687 v 0.609375 h 2.5078126 c -0.07031,0.8789062 -1.359375,1.5703125 -2.7773439,1.7226562 l 0.2695313,0.5859375 c 1.3359376,-0.1640625 2.5546876,-0.75 2.9765626,-1.640625 0.457031,0.890625 1.664062,1.4765625 3,1.640625 l 0.269531,-0.5859375 c -1.417969,-0.1523437 -2.71875,-0.84375 -2.777344,-1.7226562 h 2.519532 v -0.609375 z M 22.982633,-4.1605 v 0.6210937 h 1.898437 v 4.24218755 h 0.738282 V -7.4183125 H 24.88107 V -4.1605 Z m -3.679688,-2.3789063 v 0.609375 h 2.964844 c -0.152344,1.8867188 -1.136719,3.4335938 -3.316406,4.5 l 0.410156,0.58593755 C 22.056852,-2.19175 23.00607,-4.2190938 23.00607,-6.5394063 Z m 13.804688,-0.8789062 v 8.12109375 h 0.738281 V -7.4183125 Z m -5.460938,0.7617187 v 0.609375 h 3 v 1.6757813 H 27.670133 V -1.25425 h 0.667969 c 1.40625,0 2.625,-0.058594 4.078125,-0.2929688 l -0.07031,-0.609375 c -1.417969,0.2226563 -2.589844,0.28125 -3.925781,0.28125 v -1.8867187 h 2.976562 v -2.8945313 z m 9.049805,3.1640625 c 0.328125,0 0.597656,-0.2578125 0.597656,-0.6328125 0,-0.3632812 -0.269531,-0.6210937 -0.597656,-0.6210937 -0.328125,0 -0.585937,0.2578125 -0.585937,0.6210937 0,0.375 0.257812,0.6328125 0.585937,0.6328125 z m 0,3.60937505 c 0.328125,0 0.597656,-0.24609375 0.597656,-0.62109375 0,-0.375 -0.269531,-0.6210938 -0.597656,-0.6210938 -0.328125,0 -0.585937,0.2460938 -0.585937,0.6210938 0,0.375 0.257812,0.62109375 0.585937,0.62109375 z m 0,0"
         style="fill:#000000;fill-opacity:1;fill-rule:nonzero;stroke:none" />
      <path
         id="path78"
         d="m 44.890836,-2.7308125 c 0,-1.6757813 -0.914063,-2.8476563 -1.921875,-2.8476563 -1.007813,0 -1.910156,1.2070313 -1.910156,2.8359375 0,1.6640625 0.914062,2.83593755 1.910156,2.83593755 1.019531,0 1.921875,-1.19531255 1.921875,-2.82421875 z m -0.65625,-0.1054688 c 0,1.3007813 -0.5625,2.3554688 -1.265625,2.3554688 -0.691406,0 -1.253906,-1.0664063 -1.253906,-2.3554688 0,-1.3007812 0.609375,-2.15625 1.253906,-2.15625 0.65625,0 1.265625,0.8671875 1.265625,2.15625 z m 4.201172,2.60156255 c 0,-0.515625 -0.328125,-0.90234375 -0.75,-0.90234375 -0.351563,0 -0.574219,0.26953125 -0.574219,0.5625 0,0.328125 0.246094,0.57421875 0.574219,0.57421875 0.07031,0 0.128906,-0.01171875 0.140625,-0.0234375 -0.03516,0.19921875 -0.199219,0.5390625 -0.65625,0.69140625 -0.08203,0.0351563 -0.246094,0.0820313 -0.246094,0.28125 0,0.140625 0.140625,0.2929687 0.304688,0.2929687 0.292968,0 1.207031,-0.46874995 1.207031,-1.47656245 z M 59.038297,-1.5706563 c 0,-0.7382812 -0.550781,-1.2304687 -0.972656,-1.4296875 0.65625,-0.4570312 0.714843,-1.0546875 0.714843,-1.2890625 0,-0.6914062 -0.679687,-1.2890625 -1.699218,-1.2890625 -1.101563,0 -1.6875,0.4453125 -1.6875,1.0546875 0,0.2695313 0.199218,0.421875 0.421875,0.421875 0.222656,0 0.410156,-0.1757812 0.410156,-0.4101562 0,-0.082031 -0.02344,-0.1757813 -0.07031,-0.234375 0.292969,-0.2460938 0.878907,-0.2460938 0.925782,-0.2460938 0.632812,0 1.03125,0.328125 1.03125,0.703125 0,0.2460938 -0.117188,0.609375 -0.457032,0.8320313 -0.234375,0.1523437 -0.398437,0.1640625 -0.820312,0.1992187 -0.351563,0.011719 -0.527344,0.035156 -0.527344,0.3046875 0,0.2929688 0.246094,0.2929688 0.375,0.2929688 h 0.375 c 0.925781,0 1.324219,0.6210937 1.324219,1.078125 0,0.5742187 -0.515625,1.1015625 -1.289063,1.1015625 -0.234375,0 -0.914062,-0.0351563 -1.230468,-0.46875 L 55.885953,-0.973 c 0.05859,-0.0820313 0.05859,-0.1054688 0.07031,-0.1875 0,0 0.01172,-0.035156 0.01172,-0.070312 0,-0.2226563 -0.175781,-0.4101563 -0.410156,-0.4101563 -0.222656,0 -0.421875,0.1289063 -0.421875,0.4335938 0,0.796875 0.84375,1.30078125 1.957031,1.30078125 1.171875,0 1.945313,-0.80859375 1.945313,-1.66406255 z m 3.512695,1.33593755 c 0,-0.515625 -0.328125,-0.90234375 -0.75,-0.90234375 -0.351562,0 -0.574219,0.26953125 -0.574219,0.5625 0,0.328125 0.246094,0.57421875 0.574219,0.57421875 0.07031,0 0.128906,-0.01171875 0.140625,-0.0234375 -0.03516,0.19921875 -0.199219,0.5390625 -0.65625,0.69140625 -0.08203,0.0351563 -0.246094,0.0820313 -0.246094,0.28125 0,0.140625 0.140625,0.2929687 0.304688,0.2929687 0.292969,0 1.207031,-0.46874995 1.207031,-1.47656245 z M 73.300016,-1.7933125 c 0,-0.2929688 -0.246094,-0.2929688 -0.375,-0.2929688 h -0.667969 v -3.1289062 c 0,-0.3046875 -0.07031,-0.3867188 -0.386719,-0.3867188 h -0.257812 c -0.222657,0 -0.28125,0.011719 -0.398438,0.1992188 l -2.015625,3.1875 c -0.08203,0.1171875 -0.08203,0.140625 -0.08203,0.328125 0,0.2578125 0.03516,0.375 0.375,0.375 h 2.226562 v 0.92578125 h -0.539062 c -0.128906,0 -0.375,0 -0.375,0.29296875 0,0.29296875 0.246094,0.29296875 0.375,0.29296875 h 1.617187 c 0.128907,0 0.375,0 0.375,-0.28125 0,-0.3046875 -0.246093,-0.3046875 -0.375,-0.3046875 H 72.257047 V -1.5120625 h 0.667969 c 0.117187,0 0.375,0 0.375,-0.28125 z m -1.582032,-0.2929688 h -1.921875 l 1.921875,-3.0585937 z m 4.954102,1.85156255 c 0,-0.515625 -0.328125,-0.90234375 -0.75,-0.90234375 -0.351563,0 -0.574219,0.26953125 -0.574219,0.5625 0,0.328125 0.246094,0.57421875 0.574219,0.57421875 0.07031,0 0.128906,-0.01171875 0.140625,-0.0234375 -0.03516,0.19921875 -0.199219,0.5390625 -0.65625,0.69140625 -0.08203,0.0351563 -0.246094,0.0820313 -0.246094,0.28125 0,0.140625 0.140625,0.2929687 0.304688,0.2929687 0.292968,0 1.207031,-0.46874995 1.207031,-1.47656245 z M 87.213102,-1.6995625 c 0,-0.9140625 -0.703125,-1.7929688 -1.757813,-1.7929688 -0.292969,0 -0.65625,0.046875 -1.042969,0.2460938 v -1.6523438 h 2.109375 c 0.128907,0 0.375,0 0.375,-0.28125 C 86.896695,-5.473 86.66232,-5.473 86.521695,-5.473 H 84.13107 c -0.304687,0 -0.386718,0.070312 -0.386718,0.4101562 v 2.3320313 c 0,0.1757812 0,0.4101562 0.316406,0.4101562 0.164062,0 0.199219,-0.046875 0.28125,-0.140625 0.257812,-0.3164062 0.667969,-0.4453125 1.101562,-0.4453125 0.714844,0 1.101563,0.6328125 1.101563,1.2070313 0,0.6914062 -0.609375,1.21875 -1.347656,1.21875 -0.363282,0 -0.820313,-0.15234375 -1.019532,-0.5273438 l 0.01172,-0.011719 c 0.05859,-0.09375 0.07031,-0.1054688 0.08203,-0.2226563 0,0 0.01172,-0.023437 0.01172,-0.058594 0,-0.234375 -0.175781,-0.4101563 -0.410156,-0.4101563 -0.175781,0 -0.421875,0.1054688 -0.421875,0.4453125 0,0.72656255 0.738281,1.35937505 1.746094,1.35937505 1.125,0 2.015625,-0.796875 2.015625,-1.79296875 z m 3.580078,1.46484375 c 0,-0.515625 -0.328125,-0.90234375 -0.75,-0.90234375 -0.351563,0 -0.574219,0.26953125 -0.574219,0.5625 0,0.328125 0.246094,0.57421875 0.574219,0.57421875 0.07031,0 0.128906,-0.01171875 0.140625,-0.0234375 -0.03516,0.19921875 -0.199219,0.5390625 -0.65625,0.69140625 -0.08203,0.0351563 -0.246094,0.0820313 -0.246094,0.28125 0,0.140625 0.140625,0.2929687 0.304687,0.2929687 0.292969,0 1.207032,-0.46874995 1.207032,-1.47656245 z m 10.29492,-0.046875 c 0,-0.3046875 -0.22265,-0.3046875 -0.375,-0.3046875 H 99.916227 V -5.2034688 c 0,-0.1289062 0,-0.375 -0.28125,-0.375 -0.152344,0 -0.222657,0.082031 -0.28125,0.1992188 -0.28125,0.6328125 -0.632813,0.8671875 -0.996094,0.9023437 -0.128906,0 -0.328125,0.023437 -0.328125,0.2929688 0,0.1757812 0.09375,0.28125 0.316406,0.28125 0.351563,0 0.703125,-0.1875 0.914063,-0.3632813 v 3.67968755 h -0.796875 c -0.152344,0 -0.386719,0 -0.386719,0.3046875 0,0.28125 0.246094,0.28125 0.386719,0.28125 h 2.249998 c 0.14063,0 0.375,0 0.375,-0.28125 z m 0,0"
         style="fill:#000000;fill-opacity:1;fill-rule:nonzero;stroke:none" />
    </g>
  </g>
</svg>
