<?xml version="1.0" encoding="UTF-8" standalone="no"?>
<!-- Created with Inkscape (http://www.inkscape.org/) -->

<svg
   version="1.1"
   id="svg1"
   width="388.20001"
   height="145.29066"
   viewBox="0 0 388.20001 145.29066"
   sodipodi:docname="2.pdf"
   xmlns:inkscape="http://www.inkscape.org/namespaces/inkscape"
   xmlns:sodipodi="http://sodipodi.sourceforge.net/DTD/sodipodi-0.dtd"
   xmlns="http://www.w3.org/2000/svg"
   xmlns:svg="http://www.w3.org/2000/svg">
  <defs
     id="defs1" />
  <sodipodi:namedview
     id="namedview1"
     pagecolor="#ffffff"
     bordercolor="#000000"
     borderopacity="0.25"
     inkscape:showpageshadow="2"
     inkscape:pageopacity="0.0"
     inkscape:pagecheckerboard="0"
     inkscape:deskcolor="#d1d1d1">
    <inkscape:page
       x="0"
       y="0"
       inkscape:label="1"
       id="page1"
       width="388.20001"
       height="145.29066"
       margin="0"
       bleed="0" />
  </sodipodi:namedview>
  <g
     id="g1"
     inkscape:groupmode="layer"
     inkscape:label="1">
    <path
       id="path1"
       d="M -14.17339,-11.33871 H 14.1734 v 22.67743 h -28.34679 z"
       style="fill:#fafafa;fill-opacity:1;fill-rule:nonzero;stroke:#d1d1d1;stroke-width:0.44832;stroke-linecap:butt;stroke-linejoin:miter;stroke-miterlimit:10;stroke-dasharray:none;stroke-opacity:1"
       transform="matrix(1.3333333,0,0,-1.3333333,75.3,38.826667)" />
    <path
       id="path2"
       d="m 0.25673438,-1.7570469 v 0.28125 H 2.7059531 v 0.77343753 c 0,0.328125 -0.023437,0.421875 -0.703125,0.421875 h -0.1875 V 7.65625e-4 c 0.5625,-0.023437495 1.1835938,-0.023437495 1.2539063,-0.023437495 0.035156,0 0.6914062,0 1.2539062,0.023437495 V -0.28048437 H 4.1239219 c -0.6679688,0 -0.703125,-0.09375 -0.703125,-0.421875 V -1.4757969 h 0.9140625 v -0.28125 H 3.4207969 v -4.0664062 c 0,-0.1875 0,-0.2460938 -0.1640625,-0.2460938 -0.1054688,0 -0.1171875,0.011719 -0.1992188,0.140625 z m 0.29296875,0 2.21484377,-3.3164062 v 3.3164062 z m 0,0"
       style="fill:#b3b3b3;fill-opacity:1;fill-rule:nonzero;stroke:none"
       aria-label="4"
       transform="matrix(1.3333333,0,0,1.3333333,72.228,42.678667)" />
    <path
       id="path3"
       d="m 3.5969141,-2.2265937 c 0,-0.7617188 -0.09375,-1.3125 -0.4101563,-1.8046875 -0.2226562,-0.3164063 -0.6445312,-0.5976563 -1.2070312,-0.5976563 -1.61718754,0 -1.61718754,1.8984375 -1.61718754,2.4023438 0,0.5039062 0,2.36718745 1.61718754,2.36718745 1.6171875,0 1.6171875,-1.86328125 1.6171875,-2.36718745 z M 1.9797266,-0.058625 c -0.3164063,0 -0.75,-0.1875 -0.890625,-0.76171875 -0.09375,-0.41015625 -0.09375,-0.98437495 -0.09375,-1.49999995 0,-0.5039063 0,-1.03125 0.1054687,-1.4179688 0.1523438,-0.5507812 0.5976563,-0.6914062 0.8789063,-0.6914062 0.375,0 0.7382812,0.2226562 0.8671875,0.6328125 0.1054687,0.375 0.1171875,0.8789062 0.1171875,1.4765625 0,0.515625 0,1.0429687 -0.09375,1.47656245 -0.140625,0.6328125 -0.609375,0.78515625 -0.890625,0.78515625 z m 0,0"
       style="fill:#737373;fill-opacity:1;fill-rule:nonzero;stroke:none"
       aria-label="0"
       transform="matrix(1.3333333,0,0,1.3333333,72.653333,18.390667)" />
    <path
       id="path4"
       d="M 16.4412,-11.33871 H 44.78799 V 11.33872 H 16.4412 Z"
       style="fill:#fafafa;fill-opacity:1;fill-rule:nonzero;stroke:#d1d1d1;stroke-width:0.44832;stroke-linecap:butt;stroke-linejoin:miter;stroke-miterlimit:10;stroke-dasharray:none;stroke-opacity:1"
       transform="matrix(1.3333333,0,0,-1.3333333,75.3,38.826667)" />
    <path
       id="path5"
       d="m 1.5460312,-4.0656406 c -0.2695312,-0.1757813 -0.4804687,-0.4101563 -0.4804687,-0.75 0,-0.5859375 0.6328125,-0.9257813 1.21875,-0.9257813 0.6914062,0 1.2421875,0.4804688 1.2421875,1.1015625 0,0.6328125 -0.5273438,1.0429688 -0.890625,1.2539063 z m 1.3125,0.8203125 c 0.4453125,-0.2109375 1.1015625,-0.6679688 1.1015625,-1.3945313 0,-0.8320312 -0.84375,-1.3242187 -1.6523437,-1.3242187 -0.9375,0 -1.67578125,0.6679687 -1.67578125,1.4882812 0,0.3398438 0.12890625,0.6679688 0.33984375,0.9257813 0.1523437,0.1757812 0.2109375,0.2109375 0.7265625,0.5390625 -0.78515625,0.375 -1.3125,0.9257812 -1.3125,1.6523437 0,0.96093753 0.9375,1.55859378 1.9101562,1.55859378 1.0429688,0 1.921875,-0.73828125 1.921875,-1.71093748 0,-0.8671875 -0.6679687,-1.2890625 -0.890625,-1.4414063 C 3.2218125,-3.0226719 2.964,-3.1867344 2.8585312,-3.2453281 Z m -0.9140625,0.3867187 1.125,0.703125 c 0.2109375,0.1289063 0.65625,0.421875 0.65625,0.9609375 0,0.71484378 -0.7148437,1.13671878 -1.4179687,1.13671878 -0.7851563,0 -1.44140625,-0.55078125 -1.44140625,-1.30078128 0,-0.6445312 0.44531245,-1.171875 1.07812495,-1.5 z m 0,0"
       style="fill:#b3b3b3;fill-opacity:1;fill-rule:nonzero;stroke:none"
       aria-label="8"
       transform="matrix(1.3333333,0,0,1.3333333,113.048,42.678667)" />
    <path
       id="path6"
       d="m 2.3325234,-4.4297187 c 0,-0.1875 -0.011719,-0.1992188 -0.2109375,-0.1992188 -0.4453125,0.4335938 -1.078125,0.4453125 -1.35937496,0.4453125 v 0.2460938 c 0.1640625,0 0.62109376,0 1.00781246,-0.1875 V -0.57425 c 0,0.234375 0,0.328125 -0.6914062,0.328125 H 0.80908594 V -3.125e-5 C 0.93799219,-0.01175 1.7934609,-0.02346875 2.0512734,-0.02346875 c 0.2109375,0 1.0898438,0.01171875 1.2421875,0.0234375 V -0.246125 H 3.0356484 c -0.703125,0 -0.703125,-0.09375 -0.703125,-0.328125 z m 0,0"
       style="fill:#737373;fill-opacity:1;fill-rule:nonzero;stroke:none"
       aria-label="1"
       transform="matrix(1.3333333,0,0,1.3333333,113.472,18.390667)" />
    <path
       id="path7"
       d="M 47.0558,-11.33871 H 75.40259 V 11.33872 H 47.0558 Z"
       style="fill:#e0e0e0;fill-opacity:1;fill-rule:nonzero;stroke:#000000;stroke-width:0.79701;stroke-linecap:butt;stroke-linejoin:miter;stroke-miterlimit:10;stroke-dasharray:none;stroke-opacity:1"
       transform="matrix(1.3333333,0,0,-1.3333333,75.3,38.826667)" />
    <path
       id="path8"
       d="m 0.93789062,-3.0929844 c 0,0.1640625 0,0.2578125 0.11718748,0.2578125 0.070312,0 0.1054688,-0.035156 0.1523438,-0.1171875 0.2695312,-0.375 0.703125,-0.5859375 1.171875,-0.5859375 0.9609375,0 0.9609375,1.3828125 0.9609375,1.6992188 0,0.28125 0,0.8320312 -0.2578125,1.24218748 -0.234375,0.375 -0.6210938,0.5390625 -0.9609375,0.5390625 -0.5390625,0 -1.13671878,-0.328125 -1.34765628,-0.99609378 0.0117188,0 0.0585938,0.023437 0.1171875,0.023437 0.18749998,0 0.44531248,-0.1171875 0.44531248,-0.4335937 0,-0.28125 -0.1992187,-0.4453125 -0.44531248,-0.4453125 -0.1875,0 -0.43359375,0.1054687 -0.43359375,0.46875 0,0.80859373 0.67968753,1.64062498 1.67578123,1.64062498 1.0898438,0 2.0039063,-0.87890625 2.0039063,-1.99218748 0,-1.0898438 -0.7617188,-1.96875 -1.7460938,-1.96875 -0.421875,0 -0.8671875,0.140625 -1.1835937,0.4570312 v -1.7578125 c 0.2695312,0.082031 0.5507812,0.1171875 0.8320312,0.1171875 1.1015625,0 1.7460938,-0.796875 1.7460938,-0.9140625 0,-0.070312 -0.058594,-0.1054687 -0.1054688,-0.1054687 -0.011719,0 -0.035156,0 -0.1171875,0.035156 -0.4101562,0.1757813 -0.8320312,0.2460938 -1.2070312,0.2460938 -0.3867188,0 -0.7851563,-0.070312 -1.1953125,-0.2460938 -0.09375,-0.035156 -0.1054688,-0.035156 -0.1171875,-0.035156 -0.10546878,0 -0.10546878,0.082031 -0.10546878,0.234375 z m 0,0"
       style="fill:#000000;fill-opacity:1;fill-rule:nonzero;stroke:none"
       aria-label="5"
       transform="matrix(1.3333333,0,0,1.3333333,153.86667,42.678667)" />
    <path
       id="path9"
       d="m 3.5144219,-1.2656562 h -0.234375 c -0.023437,0.1523437 -0.082031,0.56249995 -0.1757813,0.63281245 -0.058594,0.0351563 -0.5976562,0.0351563 -0.6914062,0.0351563 H 1.1237969 c 0.7382812,-0.64453115 0.984375,-0.84374995 1.3945312,-1.17187495 0.515625,-0.4101563 0.9960938,-0.8437501 0.9960938,-1.5000001 0,-0.84375 -0.7382813,-1.359375 -1.6289063,-1.359375 -0.8671875,0 -1.45312497,0.609375 -1.45312497,1.2421875 0,0.3632813 0.3046875,0.3984375 0.375,0.3984375 0.1640625,0 0.37499997,-0.1171875 0.37499997,-0.375 0,-0.1289062 -0.058594,-0.3632812 -0.42187497,-0.3632812 C 0.98317188,-4.2305 1.4519219,-4.3828436 1.7800469,-4.3828436 c 0.703125,0 1.0664062,0.5507811 1.0664062,1.1132812 0,0.609375 -0.4335937,1.0898437 -0.65625,1.3359375 L 0.50270313,-0.2695625 C 0.43239063,-0.21096875 0.43239063,-0.19925 0.43239063,-3.125e-5 H 3.3152031 Z m 0,0"
       style="fill:#737373;fill-opacity:1;fill-rule:nonzero;stroke:none"
       aria-label="2"
       transform="matrix(1.3333333,0,0,1.3333333,154.29067,18.390667)" />
    <path
       id="path10"
       d="M 77.67041,-11.33871 H 106.0172 V 11.33872 H 77.67041 Z"
       style="fill:#e0e0e0;fill-opacity:1;fill-rule:nonzero;stroke:#000000;stroke-width:0.79701;stroke-linecap:butt;stroke-linejoin:miter;stroke-miterlimit:10;stroke-dasharray:none;stroke-opacity:1"
       transform="matrix(1.3333333,0,0,-1.3333333,75.3,38.826667)" />
    <path
       id="path11"
       d="m 2.7291641,-3.1515781 c 0.8320312,-0.3164063 1.2304687,-0.9726563 1.2304687,-1.59375 0,-0.6914063 -0.7617187,-1.21875 -1.6875,-1.21875 -0.9375,0 -1.64062499,0.5273437 -1.64062499,1.2070312 0,0.2929688 0.19921875,0.46875 0.45703129,0.46875 0.2695312,0 0.4570312,-0.1875 0.4570312,-0.4570312 0,-0.3046875 -0.2226562,-0.4453125 -0.5273437,-0.4453125 0.234375,-0.375 0.7851562,-0.5507813 1.21875,-0.5507813 0.75,0 0.890625,0.5859375 0.890625,1.0078125 0,0.2695313 -0.058594,0.703125 -0.28125,1.0429688 -0.2695313,0.3984375 -0.5859375,0.421875 -0.84375,0.4335937 -0.234375,0.023437 -0.2460938,0.023437 -0.3164063,0.023437 -0.082031,0.011719 -0.1523437,0.011719 -0.1523437,0.1171875 0,0.1171875 0.070312,0.1171875 0.2226562,0.1171875 h 0.421875 c 0.7734375,0 1.125,0.6210938 1.125,1.4765625 0,1.14843753 -0.6210937,1.46484378 -1.078125,1.46484378 -0.1640625,0 -1.03125,-0.03515625 -1.44140624,-0.703125 0.32812504,0.046875 0.57421874,-0.17578125 0.57421874,-0.48046878 0,-0.3046875 -0.2226562,-0.4921875 -0.48046874,-0.4921875 -0.22265625,0 -0.4921875,0.140625 -0.4921875,0.515625 0,0.79687503 0.83203124,1.41796878 1.87500004,1.41796878 1.1132812,0 1.9570312,-0.80859375 1.9570312,-1.72265628 0,-0.7851562 -0.6210937,-1.4414062 -1.4882812,-1.6289057 z m 0,0"
       style="fill:#000000;fill-opacity:1;fill-rule:nonzero;stroke:none"
       aria-label="3"
       transform="matrix(1.3333333,0,0,1.3333333,194.68533,42.678667)" />
    <path
       id="path12"
       d="m 1.8984688,-2.3320625 c 0.5507812,0 0.9375,0.375 0.9375,1.125 0,0.8671875 -0.5039063,1.125 -0.9023438,1.125 -0.28125,0 -0.890625,-0.08203125 -1.18359375,-0.4921875 0.32812505,-0.0117188 0.39843755,-0.24609375 0.39843755,-0.38671875 0,-0.22265625 -0.16406255,-0.38671875 -0.3867188,-0.38671875 -0.1875,0 -0.38671875,0.1171875 -0.38671875,0.41015625 0,0.65625 0.72656255,1.078125 1.57031255,1.078125 0.9726562,0 1.640625,-0.64453125 1.640625,-1.34765625 0,-0.5390625 -0.4453125,-1.0898437 -1.21875,-1.2421875 C 3.1055,-2.7187812 3.3633125,-3.246125 3.3633125,-3.668 c 0,-0.5507812 -0.6328125,-0.9609375 -1.40625,-0.9609375 -0.7734375,0 -1.359375,0.375 -1.359375,0.9375 0,0.234375 0.15234375,0.3632813 0.36328125,0.3632813 0.21093755,0 0.35156255,-0.1640625 0.35156255,-0.3515625 0,-0.1992188 -0.140625,-0.3515625 -0.35156255,-0.3632813 0.23437505,-0.3046875 0.71484375,-0.3867187 0.97265625,-0.3867187 0.3164063,0 0.7617188,0.1523437 0.7617188,0.7617187 0,0.2929688 -0.1054688,0.609375 -0.28125,0.8320313 -0.234375,0.2578125 -0.421875,0.28125 -0.7734375,0.2929687 -0.1757813,0.023437 -0.1875,0.023437 -0.2226563,0.023437 -0.011719,0 -0.070312,0.011719 -0.070312,0.09375 0,0.09375 0.058594,0.09375 0.1757813,0.09375 z m 0,0"
       style="fill:#737373;fill-opacity:1;fill-rule:nonzero;stroke:none"
       aria-label="3"
       transform="matrix(1.3333333,0,0,1.3333333,195.10933,18.390667)" />
    <path
       id="path13"
       d="m 108.285,-11.33871 h 28.34679 V 11.33872 H 108.285 Z"
       style="fill:#e0e0e0;fill-opacity:1;fill-rule:nonzero;stroke:#000000;stroke-width:0.79701;stroke-linecap:butt;stroke-linejoin:miter;stroke-miterlimit:10;stroke-dasharray:none;stroke-opacity:1"
       transform="matrix(1.3333333,0,0,-1.3333333,75.3,38.826667)" />
    <path
       id="path14"
       d="m 0.93742969,-3.0929844 c 0,0.1640625 0,0.2578125 0.11718751,0.2578125 0.070312,0 0.1054687,-0.035156 0.1523437,-0.1171875 0.2695313,-0.375 0.703125,-0.5859375 1.171875,-0.5859375 0.9609375,0 0.9609375,1.3828125 0.9609375,1.6992188 0,0.28125 0,0.8320312 -0.2578125,1.24218748 -0.234375,0.375 -0.6210937,0.5390625 -0.9609375,0.5390625 -0.5390625,0 -1.13671871,-0.328125 -1.34765621,-0.99609378 0.0117188,0 0.0585938,0.023437 0.1171875,0.023437 0.18750001,0 0.44531251,-0.1171875 0.44531251,-0.4335937 0,-0.28125 -0.1992188,-0.4453125 -0.44531251,-0.4453125 -0.1875,0 -0.43359375,0.1054687 -0.43359375,0.46875 0,0.80859373 0.67968746,1.64062498 1.67578126,1.64062498 1.0898437,0 2.0039062,-0.87890625 2.0039062,-1.99218748 0,-1.0898438 -0.7617187,-1.96875 -1.7460937,-1.96875 -0.421875,0 -0.8671875,0.140625 -1.1835938,0.4570312 v -1.7578125 c 0.2695313,0.082031 0.5507813,0.1171875 0.8320313,0.1171875 1.1015625,0 1.7460937,-0.796875 1.7460937,-0.9140625 0,-0.070312 -0.058594,-0.1054687 -0.1054687,-0.1054687 -0.011719,0 -0.035156,0 -0.1171875,0.035156 -0.4101563,0.1757813 -0.8320313,0.2460938 -1.2070313,0.2460938 -0.3867187,0 -0.7851562,-0.070312 -1.1953125,-0.2460938 -0.09375,-0.035156 -0.1054687,-0.035156 -0.1171875,-0.035156 -0.10546871,0 -0.10546871,0.082031 -0.10546871,0.234375 z m 0,0"
       style="fill:#000000;fill-opacity:1;fill-rule:nonzero;stroke:none"
       aria-label="5"
       transform="matrix(1.3333333,0,0,1.3333333,235.504,42.678667)" />
    <path
       id="path15"
       d="M 3.6926719,-1.1484687 V -1.3945625 H 2.9192344 v -3.1054687 c 0,-0.1523438 0,-0.1992188 -0.1523438,-0.1992188 -0.09375,0 -0.1171875,0 -0.1875,0.09375 l -2.30859372,3.2109375 v 0.2460938 H 2.3215781 V -0.57425 c 0,0.234375 0,0.328125 -0.5625,0.328125 h -0.1875 V -3.125e-5 c 0.3515625,-0.01171875 0.796875,-0.0234375 1.0429688,-0.0234375 0.2578125,0 0.703125,0.01171875 1.0546875,0.0234375 V -0.246125 h -0.1875 c -0.5625,0 -0.5625,-0.09375 -0.5625,-0.328125 V -1.1484687 Z M 2.3684531,-3.94925 v 2.5546875 H 0.52860938 Z m 0,0"
       style="fill:#737373;fill-opacity:1;fill-rule:nonzero;stroke:none"
       aria-label="4"
       transform="matrix(1.3333333,0,0,1.3333333,235.928,18.390667)" />
    <path
       id="path16"
       d="M 138.89961,-11.33871 H 167.2464 V 11.33872 H 138.89961 Z"
       style="fill:#e0e0e0;fill-opacity:1;fill-rule:nonzero;stroke:#000000;stroke-width:0.79701;stroke-linecap:butt;stroke-linejoin:miter;stroke-miterlimit:10;stroke-dasharray:none;stroke-opacity:1"
       transform="matrix(1.3333333,0,0,-1.3333333,75.3,38.826667)" />
    <path
       id="path17"
       d="m 4.3956953,-5.4718906 c 0.082031,-0.09375 0.082031,-0.1171875 0.082031,-0.3046875 h -2.238281 c -1.125,0 -1.1484375,-0.1171875 -1.1835937,-0.28125 H 0.80975781 l -0.29296875,1.875 h 0.24609375 c 0.0351563,-0.2109375 0.10546875,-0.7148438 0.22265625,-0.8203125 0.0703125,-0.046875 0.77343754,-0.046875 0.90234374,-0.046875 h 1.875 l -0.8554687,1.171875 c -1.171875,1.6054687 -1.2773438,3.05859373 -1.2773438,3.57421873 0,0.09375 0,0.50390625 0.4101563,0.50390625 0.421875,0 0.421875,-0.3984375 0.421875,-0.515625 v -0.43359375 c 0,-1.32421873 0.1992187,-2.35546873 0.6796875,-3.01171873 z m 0,0"
       style="fill:#000000;fill-opacity:1;fill-rule:nonzero;stroke:none"
       aria-label="7"
       transform="matrix(1.3333333,0,0,1.3333333,276.32267,42.678667)" />
    <path
       id="path18"
       d="m 1.0766953,-3.8906562 c 0.3632813,0.09375 0.5625,0.09375 0.6796875,0.09375 0.9140625,0 1.4648438,-0.6328125 1.4648438,-0.7382813 0,-0.070312 -0.046875,-0.09375 -0.082031,-0.09375 -0.011719,0 -0.035156,0 -0.058594,0.023437 -0.1640625,0.058594 -0.5390625,0.1992188 -1.0546875,0.1992188 -0.1992188,0 -0.5625,-0.011719 -1.0195313,-0.1875 -0.0703125,-0.035156 -0.0820312,-0.035156 -0.0820312,-0.035156 -0.09375,0 -0.09375,0.070312 -0.09375,0.1875 v 2.0625 c 0,0.1171875 0,0.1992188 0.10546875,0.1992188 0.0703124,0 0.0703124,-0.011719 0.14062495,-0.1054688 0.3046875,-0.375 0.7265625,-0.4335937 0.9726563,-0.4335937 0.421875,0 0.609375,0.3398437 0.6445312,0.3867187 0.1171875,0.234375 0.1640625,0.5039063 0.1640625,0.9023438 0,0.2109375 0,0.6210937 -0.2109375,0.9257812 -0.1757812,0.2578125 -0.46875,0.421875 -0.8203125,0.421875 -0.4453125,0 -0.91406245,-0.2578125 -1.0898437,-0.71484375 0.2695312,0.0234377 0.3984375,-0.15234355 0.3984375,-0.33984355 0,-0.3046875 -0.25781254,-0.3515625 -0.35156254,-0.3515625 -0.0117188,0 -0.3515625,0 -0.3515625,0.375 0,0.62109375 0.57421874,1.25390625 1.41796874,1.25390625 0.890625,0 1.6640625,-0.66796875 1.6640625,-1.54687495 0,-0.7851563 -0.5976562,-1.5117188 -1.453125,-1.5117188 -0.3164062,0 -0.6796875,0.082031 -0.984375,0.3398438 z m 0,0"
       style="fill:#737373;fill-opacity:1;fill-rule:nonzero;stroke:none"
       aria-label="5"
       transform="matrix(1.3333333,0,0,1.3333333,276.748,18.390667)" />
    <path
       id="path19"
       d="m 169.51422,-11.33871 h 28.34679 v 22.67743 h -28.34679 z"
       style="fill:#fafafa;fill-opacity:1;fill-rule:nonzero;stroke:#d1d1d1;stroke-width:0.44832;stroke-linecap:butt;stroke-linejoin:miter;stroke-miterlimit:10;stroke-dasharray:none;stroke-opacity:1"
       transform="matrix(1.3333333,0,0,-1.3333333,75.3,38.826667)" />
    <path
       id="path20"
       d="m 1.2084297,-2.9640781 c 0,-0.9140625 0.09375,-1.4296875 0.3398437,-1.8984375 0.1757813,-0.3632813 0.609375,-0.8789063 1.2773438,-0.8789063 0.1757812,0 0.5859375,0.035156 0.796875,0.3515625 -0.328125,0 -0.46875,0.1757813 -0.46875,0.4101563 0,0.234375 0.1523437,0.421875 0.4101562,0.421875 0.2460938,0 0.421875,-0.1640625 0.421875,-0.4335938 0,-0.5039062 -0.3632812,-0.9726562 -1.1835937,-0.9726562 -1.1484375,0 -2.41406251,1.1367187 -2.41406251,3.1289062 0,2.43750003 1.08984371,3.03515628 1.93359371,3.03515628 0.9960938,0 1.8984375,-0.83203125 1.8984375,-2.01562498 0,-1.1367188 -0.8320312,-2.0039063 -1.8398437,-2.0039063 -0.5390625,0 -0.9257813,0.3164063 -1.171875,0.8554688 z m 1.1015625,2.90624998 c -0.5039063,0 -0.796875,-0.421875 -0.9140625,-0.6796875 C 1.2318672,-1.1359531 1.2201484,-1.8859531 1.2201484,-2.0265781 c 0,-0.5976563 0.28125,-1.5703125 1.1367188,-1.5703125 0.140625,0 0.5859375,0 0.8671875,0.5625 0.1757812,0.3398437 0.1757812,0.7734375 0.1757812,1.2070312 0,0.4335938 0,0.86718753 -0.1757812,1.19531253 -0.2695313,0.515625 -0.6679688,0.57421875 -0.9140625,0.57421875 z m 0,0"
       style="fill:#b3b3b3;fill-opacity:1;fill-rule:nonzero;stroke:none"
       aria-label="6"
       transform="matrix(1.3333333,0,0,1.3333333,317.14267,42.678667)" />
    <path
       id="path21"
       d="m 1.0427734,-2.2851875 c 0,-0.5625 0.046875,-1.078125 0.3164063,-1.5117187 0.234375,-0.375 0.609375,-0.6328125 1.0546875,-0.6328125 0.2109375,0 0.4921875,0.058594 0.6328125,0.2460937 -0.1757813,0.011719 -0.3164063,0.1289063 -0.3164063,0.3398438 0,0.1640625 0.1171875,0.328125 0.328125,0.328125 0.1992188,0 0.328125,-0.140625 0.328125,-0.3515625 0,-0.3984375 -0.2929687,-0.7617188 -0.984375,-0.7617188 -0.9960937,0 -2.02734371,0.9140625 -2.02734371,2.4140625 0,1.8046875 0.85546871,2.35546875 1.61718751,2.35546875 0.8554687,0 1.59375,-0.64453125 1.59375,-1.55859375 0,-0.890625 -0.703125,-1.546875 -1.5234375,-1.546875 -0.5507813,0 -0.8671875,0.375 -1.0195313,0.6796875 z m 0.9492188,2.203125 c -0.3515625,0 -0.6210938,-0.19921875 -0.7617188,-0.515625 -0.1054687,-0.19921875 -0.1640625,-0.5507812 -0.1640625,-0.9726562 0,-0.6796875 0.4101563,-1.1953125 0.9609375,-1.1953125 0.328125,0 0.5390625,0.1171875 0.7148438,0.3867187 0.1640625,0.2578125 0.1757812,0.5507813 0.1757812,0.9609375 0,0.3984375 0,0.69140625 -0.1875,0.9609375 -0.1757812,0.24609375 -0.3984375,0.375 -0.7382812,0.375 z m 0,0"
       style="fill:#737373;fill-opacity:1;fill-rule:nonzero;stroke:none"
       aria-label="6"
       transform="matrix(1.3333333,0,0,1.3333333,317.56667,18.390667)" />
    <path
       id="path22"
       d="m 200.12885,-11.33871 h 28.34679 v 22.67743 h -28.34679 z"
       style="fill:#fafafa;fill-opacity:1;fill-rule:nonzero;stroke:#d1d1d1;stroke-width:0.44832;stroke-linecap:butt;stroke-linejoin:miter;stroke-miterlimit:10;stroke-dasharray:none;stroke-opacity:1"
       transform="matrix(1.3333333,0,0,-1.3333333,75.3,38.826667)" />
    <path
       id="path23"
       d="m 2.7301719,-5.7297031 c 0,-0.2226563 -0.011719,-0.234375 -0.234375,-0.234375 -0.5625,0.5625 -1.3828125,0.5625 -1.66406253,0.5625 v 0.28125 c 0.17578123,0 0.71484373,0 1.20703123,-0.234375 v 4.64062498 c 0,0.328125 -0.035156,0.43359375 -0.8671875,0.43359375 H 0.89032812 V 7.65625e-4 C 1.2067344,-0.02267187 2.0036094,-0.02267187 2.3786094,-0.02267187 c 0.3632812,0 1.171875,0 1.4882812,0.023437495 V -0.28048437 h -0.28125 c -0.8320312,0 -0.8554687,-0.10546875 -0.8554687,-0.43359375 z m 0,0"
       style="fill:#b3b3b3;fill-opacity:1;fill-rule:nonzero;stroke:none"
       aria-label="1"
       transform="matrix(1.3333333,0,0,1.3333333,357.96133,42.678667)" />
    <path
       id="path24"
       d="m 3.7276016,-4.2070625 c 0.070312,-0.09375 0.070312,-0.1054687 0.070312,-0.28125 h -1.828125 c -0.2695313,0 -0.3515625,-0.011719 -0.5976563,-0.035156 -0.3632812,-0.023437 -0.38671874,-0.070312 -0.39843749,-0.1875 H 0.72760156 l -0.234375,1.4882812 h 0.234375 c 0.0117188,-0.1054687 0.0820313,-0.5625 0.19921875,-0.6328125 0.046875,-0.046875 0.60937499,-0.046875 0.71484379,-0.046875 H 3.1651016 C 2.9424453,-3.6094062 2.5908828,-3.1758125 2.4385391,-2.9765937 1.5244766,-1.7812812 1.4424453,-0.668 1.4424453,-0.25784375 c 0,0.0820312 0,0.3984375 0.328125,0.3984375 0.3398438,0 0.3398438,-0.31640625 0.3398438,-0.41015625 v -0.26953125 c 0,-1.35937495 0.2695312,-1.98046875 0.5742187,-2.35546875 z m 0,0"
       style="fill:#737373;fill-opacity:1;fill-rule:nonzero;stroke:none"
       aria-label="7"
       transform="matrix(1.3333333,0,0,1.3333333,358.38533,18.390667)" />
    <path
       id="path25"
       d="M 1.6290312,-1.0560703 C 1.1954375,-0.32950781 0.797,-0.30607031 0.43371875,-0.28263281 0.375125,-0.27091406 0.32825,-0.20060156 0.32825,-0.11857031 c 0,0.05859375 0.0351563,0.1171875 0.12890625,0.1171875 0.17578125,0 0.59765625,-0.0234375 0.76171875,-0.0234375 0.1992187,0 0.6796875,0.0234375 0.8789062,0.0234375 0.058594,0 0.1757813,0 0.1757813,-0.1640625 0,-0.10546875 -0.1171875,-0.1171875 -0.140625,-0.1171875 -0.082031,0 -0.421875,-0.0234375 -0.421875,-0.29296875 0,-0.12890625 0.1054687,-0.29296875 0.1289062,-0.33984375 l 0.703125,-1.16015629 h 2.34375 c 0.023437,0.2109375 0.058594,0.515625 0.082031,0.7382813 0.035156,0.35156249 0.082031,0.74999999 0.082031,0.77343749 0,0.12890625 -0.1171875,0.28125 -0.6445312,0.28125 -0.082031,0 -0.1992188,0 -0.1992188,0.1640625 0,0.09375 0.070312,0.1171875 0.1289063,0.1171875 0.1757812,0 0.3867187,-0.0234375 0.5625,-0.0234375 0.1875,0 0.3984375,0 0.5390625,0 0.3046875,0 0.3164062,0 0.5273437,0 0.1523438,0.01171875 0.3515625,0.0234375 0.5039063,0.0234375 0.046875,0 0.1640625,0 0.1640625,-0.1640625 0,-0.1171875 -0.09375,-0.1171875 -0.1992188,-0.1171875 -0.5390625,0 -0.5507812,-0.0585938 -0.5742187,-0.31640625 L 5.2266875,-6.1771641 C 5.20325,-6.3763828 5.20325,-6.4232578 5.0509062,-6.4232578 c -0.1289062,0 -0.1875,0.070312 -0.2578125,0.1875 z m 1.0898438,-1.2890625 1.8046875,-2.9648438 0.3398437,2.9648438 z m 0,0"
       style="fill:#000000;fill-opacity:1;fill-rule:nonzero;stroke:none"
       aria-label="A"
       transform="matrix(1.3333333,0,0,1.3333333,34.937333,42.912)" />
    <path
       id="path26"
       d="M -14.17339,-55.27635 H 14.1734 v 22.67743 h -28.34679 z"
       style="fill:#fafafa;fill-opacity:1;fill-rule:nonzero;stroke:#d1d1d1;stroke-width:0.44832;stroke-linecap:butt;stroke-linejoin:miter;stroke-miterlimit:10;stroke-dasharray:none;stroke-opacity:1"
       transform="matrix(1.3333333,0,0,-1.3333333,75.3,38.826667)" />
    <path
       id="path27"
       d="m 0.25673438,-1.7585234 v 0.28125 H 2.7059531 v 0.77343746 c 0,0.328125 -0.023437,0.421875 -0.703125,0.421875 h -0.1875 V -7.109375e-4 C 2.3778281,-0.02414844 2.9989219,-0.02414844 3.0692344,-0.02414844 c 0.035156,0 0.6914062,0 1.2539062,0.0234375025 V -0.28196094 H 4.1239219 c -0.6679688,0 -0.703125,-0.09375 -0.703125,-0.421875 V -1.4772734 h 0.9140625 v -0.28125 H 3.4207969 v -4.0664063 c 0,-0.1875 0,-0.2460937 -0.1640625,-0.2460937 -0.1054688,0 -0.1171875,0.011719 -0.1992188,0.140625 z m 0.29296875,0 2.21484377,-3.3164063 v 3.3164063 z m 0,0"
       style="fill:#b3b3b3;fill-opacity:1;fill-rule:nonzero;stroke:none"
       aria-label="4"
       transform="matrix(1.3333333,0,0,1.3333333,72.228,101.26267)" />
    <path
       id="path28"
       d="m 16.4412,-55.27635 h 28.34679 v 22.67743 H 16.4412 Z"
       style="fill:#e0e0e0;fill-opacity:1;fill-rule:nonzero;stroke:#000000;stroke-width:0.79701;stroke-linecap:butt;stroke-linejoin:miter;stroke-miterlimit:10;stroke-dasharray:none;stroke-opacity:1"
       transform="matrix(1.3333333,0,0,-1.3333333,75.3,38.826667)" />
    <path
       id="path29"
       d="m 2.7308906,-5.7311797 c 0,-0.2226562 -0.011719,-0.234375 -0.234375,-0.234375 -0.5625,0.5625 -1.3828125,0.5625 -1.66406247,0.5625 v 0.28125 c 0.17578127,0 0.71484377,0 1.20703127,-0.234375 v 4.64062501 c 0,0.328125 -0.035156,0.43359375 -0.8671875,0.43359375 H 0.89104688 V -7.109375e-4 C 1.2074531,-0.02414844 2.0043281,-0.02414844 2.3793281,-0.02414844 c 0.3632813,0 1.171875,0 1.4882813,0.0234375025 V -0.28196094 h -0.28125 c -0.8320313,0 -0.8554688,-0.10546875 -0.8554688,-0.43359375 z m 6.0146485,4.1484375 H 8.4994453 c -0.023437,0.1171875 -0.09375,0.64453126 -0.2109375,0.78515626 -0.046875,0.0820313 -0.6679687,0.0820313 -0.84375,0.0820313 h -1.59375 L 6.7299141,-1.5593047 c 1.4765625,-1.2773437 2.015625,-1.7460937 2.015625,-2.6601562 0,-1.03125 -0.84375,-1.7460938 -1.9453125,-1.7460938 -1.03125,0 -1.734375,0.8085938 -1.734375,1.6289063 0,0.4453125 0.3867187,0.4921875 0.46875,0.4921875 0.1992187,0 0.46875,-0.140625 0.46875,-0.46875 0,-0.2695313 -0.1875,-0.46875 -0.46875,-0.46875 -0.046875,0 -0.070312,0 -0.1054688,0.011719 0.2109375,-0.6328125 0.7851563,-0.9257812 1.265625,-0.9257812 0.9140625,0 1.2304688,0.8554687 1.2304688,1.4765625 0,0.9140625 -0.6914063,1.6523437 -1.125,2.1210937 l -1.640625,1.76953126 c -0.09375,0.10546875 -0.09375,0.1171875 -0.09375,0.3281250025 h 3.4335937 z m 0,0"
       style="fill:#000000;fill-opacity:1;fill-rule:nonzero;stroke:none"
       aria-label="12"
       transform="matrix(1.3333333,0,0,1.3333333,109.976,101.26267)" />
    <path
       id="path30"
       d="m 47.0558,-55.27635 h 28.34679 v 22.67743 H 47.0558 Z"
       style="fill:#fafafa;fill-opacity:1;fill-rule:nonzero;stroke:#d1d1d1;stroke-width:0.44832;stroke-linecap:butt;stroke-linejoin:miter;stroke-miterlimit:10;stroke-dasharray:none;stroke-opacity:1"
       transform="matrix(1.3333333,0,0,-1.3333333,75.3,38.826667)" />
    <path
       id="path31"
       d="m 2.7291953,-5.7311797 c 0,-0.2226562 -0.011719,-0.234375 -0.234375,-0.234375 -0.5625,0.5625 -1.3828125,0.5625 -1.66406249,0.5625 v 0.28125 c 0.17578129,0 0.71484379,0 1.20703129,-0.234375 v 4.64062501 c 0,0.328125 -0.035156,0.43359375 -0.8671875,0.43359375 H 0.88935156 V -7.109375e-4 C 1.2057578,-0.02414844 2.0026328,-0.02414844 2.3776328,-0.02414844 c 0.3632813,0 1.171875,0 1.4882813,0.0234375025 V -0.28196094 h -0.28125 c -0.8320313,0 -0.8554688,-0.10546875 -0.8554688,-0.43359375 z m 6.2724609,0.2578125 c 0.082031,-0.09375 0.082031,-0.1171875 0.082031,-0.3046875 h -2.238281 c -1.125,0 -1.1484375,-0.1171875 -1.1835937,-0.28125 H 5.4157187 l -0.2929687,1.875 H 5.3688437 C 5.404,-4.3952422 5.4743125,-4.8991484 5.5915,-5.0046172 c 0.070312,-0.046875 0.7734375,-0.046875 0.9023437,-0.046875 h 1.875 l -0.8554687,1.171875 c -1.171875,1.6054688 -1.2773438,3.05859376 -1.2773438,3.57421876 0,0.09375 0,0.50390625 0.4101563,0.50390625 0.421875,0 0.421875,-0.3984375 0.421875,-0.515625 v -0.43359375 c 0,-1.32421876 0.1992187,-2.35546876 0.6796875,-3.01171876 z m 0,0"
       style="fill:#b3b3b3;fill-opacity:1;fill-rule:nonzero;stroke:none"
       aria-label="17"
       transform="matrix(1.3333333,0,0,1.3333333,150.79467,101.26267)" />
    <path
       id="path32"
       d="m 77.67041,-55.27635 h 28.34679 v 22.67743 H 77.67041 Z"
       style="fill:#fafafa;fill-opacity:1;fill-rule:nonzero;stroke:#d1d1d1;stroke-width:0.44832;stroke-linecap:butt;stroke-linejoin:miter;stroke-miterlimit:10;stroke-dasharray:none;stroke-opacity:1"
       transform="matrix(1.3333333,0,0,-1.3333333,75.3,38.826667)" />
    <path
       id="path33"
       d="M 4.1366797,-1.5827422 H 3.8905859 c -0.023437,0.1171875 -0.09375,0.64453126 -0.2109375,0.78515626 -0.046875,0.0820313 -0.6679687,0.0820313 -0.84375,0.0820313 h -1.59375 L 2.1210547,-1.5593047 c 1.4765625,-1.2773437 2.015625,-1.7460937 2.015625,-2.6601562 0,-1.03125 -0.84375,-1.7460938 -1.9453125,-1.7460938 -1.03125,0 -1.73437501,0.8085938 -1.73437501,1.6289063 0,0.4453125 0.38671875,0.4921875 0.46875,0.4921875 0.19921871,0 0.46875001,-0.140625 0.46875001,-0.46875 0,-0.2695313 -0.1875,-0.46875 -0.46875001,-0.46875 -0.046875,0 -0.0703125,0 -0.10546875,0.011719 0.21093746,-0.6328125 0.78515626,-0.9257812 1.26562496,-0.9257812 0.9140625,0 1.2304688,0.8554687 1.2304688,1.4765625 0,0.9140625 -0.6914063,1.6523437 -1.125,2.1210937 l -1.64062501,1.76953126 c -0.09375,0.10546875 -0.09375,0.1171875 -0.09375,0.3281250025 H 3.8905859 Z m 4.7138672,-1.2890625 c 0,-0.5976562 -0.023437,-1.3710937 -0.3398438,-2.0390625 -0.3984375,-0.84375 -1.078125,-1.0546875 -1.59375,-1.0546875 -0.5390625,0 -1.21875,0.2109375 -1.6171875,1.0664063 -0.2929687,0.6210937 -0.328125,1.3476562 -0.328125,2.0273437 0,0.5859375 0.011719,1.453125 0.3984375,2.16796876 0.421875,0.76171875 1.125,0.90234375 1.5351563,0.90234375 0.5859375,0 1.2421875,-0.2578125 1.6171875,-1.078125 0.2695312,-0.59765621 0.328125,-1.27734371 0.328125,-1.99218751 z m -1.9335938,2.84765626 c -0.2695312,0 -0.9140625,-0.12890625 -1.0898437,-1.13671876 -0.09375,-0.5390625 -0.09375,-1.3007812 -0.09375,-1.8164062 0,-0.609375 0,-1.3125 0.1171875,-1.8164063 0.1757812,-0.796875 0.75,-0.9492187 1.0546875,-0.9492187 0.3398437,0 0.9023437,0.1757812 1.078125,1.0078125 0.09375,0.4921875 0.09375,1.1953125 0.09375,1.7578125 0,0.5507812 0,1.3125 -0.09375,1.8398437 -0.1875,1.01953126 -0.84375,1.11328126 -1.0664063,1.11328126 z m 0,0"
       style="fill:#b3b3b3;fill-opacity:1;fill-rule:nonzero;stroke:none"
       aria-label="20"
       transform="matrix(1.3333333,0,0,1.3333333,191.61333,101.26267)" />
    <path
       id="path34"
       d="m 108.285,-55.27635 h 28.34679 v 22.67743 H 108.285 Z"
       style="fill:#fafafa;fill-opacity:1;fill-rule:nonzero;stroke:#d1d1d1;stroke-width:0.44832;stroke-linecap:butt;stroke-linejoin:miter;stroke-miterlimit:10;stroke-dasharray:none;stroke-opacity:1"
       transform="matrix(1.3333333,0,0,-1.3333333,75.3,38.826667)" />
    <path
       id="path35"
       d="M 4.1379141,-1.5827422 H 3.8918203 c -0.023437,0.1171875 -0.09375,0.64453126 -0.2109375,0.78515626 -0.046875,0.0820313 -0.6679687,0.0820313 -0.84375,0.0820313 h -1.59375 L 2.1222891,-1.5593047 c 1.4765625,-1.2773437 2.015625,-1.7460937 2.015625,-2.6601562 0,-1.03125 -0.84375,-1.7460938 -1.9453125,-1.7460938 -1.03125,0 -1.73437504,0.8085938 -1.73437504,1.6289063 0,0.4453125 0.38671875,0.4921875 0.46875,0.4921875 0.19921874,0 0.46875004,-0.140625 0.46875004,-0.46875 0,-0.2695313 -0.1875,-0.46875 -0.46875004,-0.46875 -0.046875,0 -0.0703125,0 -0.10546875,0.011719 0.21093749,-0.6328125 0.78515629,-0.9257812 1.26562499,-0.9257812 0.9140625,0 1.2304688,0.8554687 1.2304688,1.4765625 0,0.9140625 -0.6914063,1.6523437 -1.125,2.1210937 l -1.64062504,1.76953126 c -0.09375,0.10546875 -0.09375,0.1171875 -0.09375,0.3281250025 H 3.8918203 Z m 1.40625,-1.5117187 c 0,0.1640625 0,0.2578125 0.1171875,0.2578125 0.070312,0 0.1054687,-0.035156 0.1523437,-0.1171875 0.2695313,-0.375 0.703125,-0.5859375 1.171875,-0.5859375 0.9609375,0 0.9609375,1.3828125 0.9609375,1.6992187 0,0.28125 0,0.8320313 -0.2578125,1.24218751 -0.234375,0.375 -0.6210937,0.5390625 -0.9609375,0.5390625 -0.5390625,0 -1.1367187,-0.328125 -1.3476562,-0.99609371 0.011719,0 0.058594,0.023437 0.1171875,0.023437 0.1875,0 0.4453125,-0.1171875 0.4453125,-0.4335938 0,-0.28125 -0.1992188,-0.4453125 -0.4453125,-0.4453125 -0.1875,0 -0.4335938,0.1054688 -0.4335938,0.46875 0,0.80859376 0.6796875,1.64062501 1.6757813,1.64062501 1.0898437,0 2.0039062,-0.87890625 2.0039062,-1.99218751 0,-1.0898437 -0.7617187,-1.96875 -1.7460937,-1.96875 -0.421875,0 -0.8671875,0.140625 -1.1835938,0.4570313 v -1.7578125 c 0.2695313,0.082031 0.5507813,0.1171875 0.8320313,0.1171875 1.1015625,0 1.7460937,-0.796875 1.7460937,-0.9140625 0,-0.070312 -0.058594,-0.1054688 -0.1054687,-0.1054688 -0.011719,0 -0.035156,0 -0.1171875,0.035156 -0.4101563,0.1757812 -0.8320313,0.2460937 -1.2070313,0.2460937 -0.3867187,0 -0.7851562,-0.070312 -1.1953125,-0.2460937 -0.09375,-0.035156 -0.1054687,-0.035156 -0.1171875,-0.035156 -0.1054687,0 -0.1054687,0.082031 -0.1054687,0.234375 z m 0,0"
       style="fill:#b3b3b3;fill-opacity:1;fill-rule:nonzero;stroke:none"
       aria-label="25"
       transform="matrix(1.3333333,0,0,1.3333333,232.432,101.26267)" />
    <path
       id="path36"
       d="m 138.89961,-55.27635 h 28.34679 v 22.67743 h -28.34679 z"
       style="fill:#e0e0e0;fill-opacity:1;fill-rule:nonzero;stroke:#000000;stroke-width:0.79701;stroke-linecap:butt;stroke-linejoin:miter;stroke-miterlimit:10;stroke-dasharray:none;stroke-opacity:1"
       transform="matrix(1.3333333,0,0,-1.3333333,75.3,38.826667)" />
    <path
       id="path37"
       d="m 2.7318984,-3.1530547 c 0.8320313,-0.3164062 1.2304688,-0.9726562 1.2304688,-1.59375 0,-0.6914062 -0.7617188,-1.21875 -1.6875,-1.21875 -0.9375,0 -1.64062501,0.5273438 -1.64062501,1.2070313 0,0.2929687 0.19921875,0.46875 0.45703121,0.46875 0.2695313,0 0.4570313,-0.1875 0.4570313,-0.4570313 0,-0.3046875 -0.2226563,-0.4453125 -0.5273438,-0.4453125 0.234375,-0.375 0.7851563,-0.5507812 1.21875,-0.5507812 0.75,0 0.890625,0.5859375 0.890625,1.0078125 0,0.2695312 -0.058594,0.703125 -0.28125,1.0429687 -0.2695312,0.3984375 -0.5859375,0.421875 -0.84375,0.4335938 -0.234375,0.023437 -0.2460937,0.023437 -0.3164062,0.023437 -0.082031,0.011719 -0.1523438,0.011719 -0.1523438,0.1171875 0,0.1171875 0.070312,0.1171875 0.2226563,0.1171875 h 0.421875 c 0.7734375,0 1.125,0.6210937 1.125,1.4765625 0,1.14843746 -0.6210938,1.46484371 -1.078125,1.46484371 -0.1640625,0 -1.03125,-0.03515625 -1.44140626,-0.703125 0.32812496,0.046875 0.57421876,-0.17578125 0.57421876,-0.48046871 0,-0.3046875 -0.2226563,-0.4921875 -0.48046876,-0.4921875 -0.22265625,0 -0.4921875,0.140625 -0.4921875,0.515625 0,0.79687496 0.83203126,1.41796871 1.87499996,1.41796871 1.1132813,0 1.9570313,-0.80859375 1.9570313,-1.72265621 0,-0.7851563 -0.6210938,-1.4414063 -1.4882813,-1.6289058 z m 6.0117188,1.5703125 H 8.4975234 c -0.023437,0.1171875 -0.09375,0.64453126 -0.2109375,0.78515626 -0.046875,0.0820313 -0.6679687,0.0820313 -0.84375,0.0820313 h -1.59375 L 6.7279922,-1.5593047 c 1.4765625,-1.2773437 2.015625,-1.7460937 2.015625,-2.6601562 0,-1.03125 -0.84375,-1.7460938 -1.9453125,-1.7460938 -1.03125,0 -1.734375,0.8085938 -1.734375,1.6289063 0,0.4453125 0.3867187,0.4921875 0.46875,0.4921875 0.1992187,0 0.46875,-0.140625 0.46875,-0.46875 0,-0.2695313 -0.1875,-0.46875 -0.46875,-0.46875 -0.046875,0 -0.070312,0 -0.1054688,0.011719 0.2109375,-0.6328125 0.7851563,-0.9257812 1.265625,-0.9257812 0.9140625,0 1.2304688,0.8554687 1.2304688,1.4765625 0,0.9140625 -0.6914063,1.6523437 -1.125,2.1210937 l -1.640625,1.76953126 c -0.09375,0.10546875 -0.09375,0.1171875 -0.09375,0.3281250025 h 3.4335937 z m 0,0"
       style="fill:#000000;fill-opacity:1;fill-rule:nonzero;stroke:none"
       aria-label="32"
       transform="matrix(1.3333333,0,0,1.3333333,273.252,101.26267)" />
    <path
       id="path38"
       d="m 169.51422,-55.27635 h 28.34679 v 22.67743 h -28.34679 z"
       style="fill:#fafafa;fill-opacity:1;fill-rule:nonzero;stroke:#d1d1d1;stroke-width:0.44832;stroke-linecap:butt;stroke-linejoin:miter;stroke-miterlimit:10;stroke-dasharray:none;stroke-opacity:1"
       transform="matrix(1.3333333,0,0,-1.3333333,75.3,38.826667)" />
    <path
       id="path39"
       d="m 2.7302031,-3.1530547 c 0.8320313,-0.3164062 1.2304688,-0.9726562 1.2304688,-1.59375 0,-0.6914062 -0.7617188,-1.21875 -1.6875,-1.21875 -0.9375,0 -1.64062502,0.5273438 -1.64062502,1.2070313 0,0.2929687 0.19921875,0.46875 0.45703122,0.46875 0.2695313,0 0.4570313,-0.1875 0.4570313,-0.4570313 0,-0.3046875 -0.2226563,-0.4453125 -0.5273438,-0.4453125 0.234375,-0.375 0.7851563,-0.5507812 1.21875,-0.5507812 0.75,0 0.890625,0.5859375 0.890625,1.0078125 0,0.2695312 -0.058594,0.703125 -0.28125,1.0429687 -0.2695312,0.3984375 -0.5859375,0.421875 -0.84375,0.4335938 -0.234375,0.023437 -0.2460937,0.023437 -0.3164062,0.023437 -0.082031,0.011719 -0.1523438,0.011719 -0.1523438,0.1171875 0,0.1171875 0.070312,0.1171875 0.2226563,0.1171875 h 0.421875 c 0.7734375,0 1.125,0.6210937 1.125,1.4765625 0,1.14843746 -0.6210938,1.46484371 -1.078125,1.46484371 -0.1640625,0 -1.03125,-0.03515625 -1.44140627,-0.703125 0.32812497,0.046875 0.57421877,-0.17578125 0.57421877,-0.48046871 0,-0.3046875 -0.2226563,-0.4921875 -0.48046877,-0.4921875 -0.22265625,0 -0.4921875,0.140625 -0.4921875,0.515625 0,0.79687496 0.83203127,1.41796871 1.87499997,1.41796871 1.1132813,0 1.9570313,-0.80859375 1.9570313,-1.72265621 0,-0.7851563 -0.6210938,-1.4414063 -1.4882813,-1.6289058 z m 3.4248047,-0.9140625 c -0.2695312,-0.1757812 -0.4804687,-0.4101562 -0.4804687,-0.75 0,-0.5859375 0.6328125,-0.9257812 1.21875,-0.9257812 0.6914062,0 1.2421875,0.4804687 1.2421875,1.1015625 0,0.6328125 -0.5273438,1.0429687 -0.890625,1.2539062 z m 1.3125,0.8203125 c 0.4453125,-0.2109375 1.1015625,-0.6679687 1.1015625,-1.3945312 0,-0.8320313 -0.84375,-1.3242188 -1.6523437,-1.3242188 -0.9375,0 -1.6757813,0.6679688 -1.6757813,1.4882813 0,0.3398437 0.1289063,0.6679687 0.3398438,0.9257812 0.1523437,0.1757813 0.2109375,0.2109375 0.7265625,0.5390625 -0.7851563,0.375 -1.3125,0.9257813 -1.3125,1.6523438 0,0.96093746 0.9375,1.55859371 1.9101562,1.55859371 1.0429688,0 1.921875,-0.73828125 1.921875,-1.71093751 0,-0.8671875 -0.6679687,-1.2890625 -0.890625,-1.4414062 -0.1054687,-0.070312 -0.3632812,-0.234375 -0.46875,-0.2929688 z m -0.9140625,0.3867188 1.125,0.703125 c 0.2109375,0.1289062 0.65625,0.421875 0.65625,0.9609375 0,0.71484371 -0.7148437,1.13671871 -1.4179687,1.13671871 -0.7851563,0 -1.4414063,-0.55078125 -1.4414063,-1.30078121 0,-0.6445313 0.4453125,-1.171875 1.078125,-1.5 z m 0,0"
       style="fill:#b3b3b3;fill-opacity:1;fill-rule:nonzero;stroke:none"
       aria-label="38"
       transform="matrix(1.3333333,0,0,1.3333333,314.07067,101.26267)" />
    <path
       id="path40"
       d="m 200.12885,-55.27635 h 28.34679 v 22.67743 h -28.34679 z"
       style="fill:#fafafa;fill-opacity:1;fill-rule:nonzero;stroke:#d1d1d1;stroke-width:0.44832;stroke-linecap:butt;stroke-linejoin:miter;stroke-miterlimit:10;stroke-dasharray:none;stroke-opacity:1"
       transform="matrix(1.3333333,0,0,-1.3333333,75.3,38.826667)" />
    <path
       id="path41"
       d="m 2.7314375,-3.1530547 c 0.8320312,-0.3164062 1.2304687,-0.9726562 1.2304687,-1.59375 0,-0.6914062 -0.7617187,-1.21875 -1.6875,-1.21875 -0.9375,0 -1.64062495,0.5273438 -1.64062495,1.2070313 0,0.2929687 0.19921875,0.46875 0.45703125,0.46875 0.2695312,0 0.4570312,-0.1875 0.4570312,-0.4570313 0,-0.3046875 -0.2226562,-0.4453125 -0.5273437,-0.4453125 0.234375,-0.375 0.7851562,-0.5507812 1.21875,-0.5507812 0.75,0 0.890625,0.5859375 0.890625,1.0078125 0,0.2695312 -0.058594,0.703125 -0.28125,1.0429687 -0.2695313,0.3984375 -0.5859375,0.421875 -0.84375,0.4335938 -0.234375,0.023437 -0.2460938,0.023437 -0.3164063,0.023437 -0.082031,0.011719 -0.1523437,0.011719 -0.1523437,0.1171875 0,0.1171875 0.070312,0.1171875 0.2226562,0.1171875 h 0.421875 c 0.7734375,0 1.125,0.6210937 1.125,1.4765625 0,1.14843746 -0.6210937,1.46484371 -1.078125,1.46484371 -0.1640625,0 -1.03125,-0.03515625 -1.4414062,-0.703125 0.328125,0.046875 0.5742187,-0.17578125 0.5742187,-0.48046871 0,-0.3046875 -0.2226562,-0.4921875 -0.4804687,-0.4921875 -0.22265625,0 -0.4921875,0.140625 -0.4921875,0.515625 0,0.79687496 0.8320312,1.41796871 1.875,1.41796871 1.1132812,0 1.9570312,-0.80859375 1.9570312,-1.72265621 0,-0.7851563 -0.6210937,-1.4414063 -1.4882812,-1.6289058 z m 5.2734375,0.328125 v 0.1992188 c 0,2.19140621 -0.9960938,2.56640621 -1.5117188,2.56640621 -0.1992187,0 -0.65625,-0.03515625 -0.890625,-0.328125 h 0.035156 c 0.070312,0.0234375 0.421875,-0.046875 0.421875,-0.41015625 0,-0.23437496 -0.1640625,-0.41015626 -0.4101563,-0.41015626 -0.2578125,0 -0.421875,0.1523438 -0.421875,0.42187501 0,0.59765625 0.46875,0.984375 1.2773438,0.984375 1.1601562,0 2.3203125,-1.18359375 2.3203125,-3.15234371 0,-2.4257813 -1.078125,-3.0117188 -1.8867188,-3.0117188 -1.03125,0 -1.9453125,0.8320313 -1.9453125,2.0039063 0,1.1367187 0.8203125,1.9921875 1.8398438,1.9921875 0.65625,0 1.0078125,-0.46875 1.1718753,-0.8554688 z m -1.1601563,0.6328125 c -0.140625,0 -0.5742187,0 -0.8671875,-0.5507812 -0.1640625,-0.3398438 -0.1640625,-0.7851563 -0.1640625,-1.2070313 0,-0.4335937 0,-0.8789062 0.1875,-1.21875 0.2695313,-0.4570312 0.609375,-0.5742187 0.9375,-0.5742187 0.609375,0 0.8554688,0.609375 0.890625,0.703125 0.1171875,0.328125 0.1523438,0.8789062 0.1523438,1.265625 0,0.65625 -0.2929688,1.5820312 -1.1367188,1.5820312 z m 0,0"
       style="fill:#b3b3b3;fill-opacity:1;fill-rule:nonzero;stroke:none"
       aria-label="39"
       transform="matrix(1.3333333,0,0,1.3333333,354.88933,101.26267)" />
    <path
       id="path42"
       d="m 0.41098437,1.1250234 c -0.0585938,0.2578125 -0.0820313,0.3398438 -0.46875,0.3398438 -0.09375,0 -0.19921875,0 -0.19921875,0.1523437 0,0.046875 0.0117188,0.1171875 0.1171875,0.1171875 l 0.38671875,-0.011719 c 0.046875,-0.011719 0.2578125,-0.011719 0.38671875,-0.011719 0.15234375,0 0.3046875,0.011719 0.45703128,0.011719 0.140625,0 0.2929687,0.011719 0.421875,0.011719 0.058594,0 0.1757812,0 0.1757812,-0.1523437 0,-0.1171875 -0.09375,-0.1171875 -0.2460937,-0.1171875 -0.421875,0 -0.421875,-0.070312 -0.421875,-0.1523438 0,-0.046875 0.070312,-0.2929687 0.1054687,-0.43359371 l 0.328125,-1.3359375 c 0.09375,0.1875 0.3398438,0.55078125 0.8554688,0.55078125 1.0429687,0 2.1914062,-1.25390624 2.1914062,-2.60156254 0,-0.9140625 -0.5625,-1.453125 -1.2421875,-1.453125 -0.1875,0 -0.6328125,0.046875 -1.1835937,0.65625 -0.1289063,-0.5039062 -0.5390625,-0.65625 -0.84375,-0.65625 -0.37500003,0 -0.56250003,0.28125 -0.69140628,0.515625 -0.15234375,0.3164063 -0.28125,0.8320313 -0.28125,0.8671875 0,0.082031 0.0703125,0.1054688 0.12890625,0.1054688 0.09375,0 0.1171875,-0.046875 0.1640625,-0.2226563 0.1640625,-0.7148437 0.3515625,-1.0429687 0.65625003,-1.0429687 0.2695312,0 0.2695312,0.28125 0.2695312,0.421875 0,0.070312 -0.011719,0.2109375 -0.023437,0.28125 z m 1.62890623,-3.890625 c 0.035156,-0.1757812 0.035156,-0.1875 0.1523438,-0.328125 0.2460937,-0.3046875 0.65625,-0.6445312 1.0546875,-0.6445312 0.421875,0 0.5859375,0.421875 0.5859375,0.84375 0,0.3984375 -0.2460938,1.5117187 -0.5273438,1.99218749 -0.3046875,0.50390625 -0.6796875,0.7734375 -1.0078125,0.7734375 -0.5859375,0 -0.7265625,-0.703125 -0.7265625,-0.76171875 0,-0.0585938 0.011719,-0.10546875 0.023437,-0.15234374 z m 6.2080078,-0.8671875 c -0.2929687,0.058594 -0.4453125,0.3046875 -0.4453125,0.4921875 0,0.1757813 0.1289063,0.328125 0.3515625,0.328125 0.234375,0 0.4921875,-0.2109375 0.4921875,-0.5390625 0,-0.3515625 -0.328125,-0.609375 -0.7617187,-0.609375 -0.6796875,0 -1.0546875,0.5039063 -1.1835938,0.6679688 -0.1054687,-0.4921875 -0.5039062,-0.6679688 -0.84375,-0.6679688 -0.328125,0 -0.5273437,0.1992188 -0.6796875,0.5039063 -0.1757812,0.328125 -0.2929687,0.84375 -0.2929687,0.8789062 0,0.082031 0.070312,0.1054688 0.1289062,0.1054688 0.09375,0 0.1171875,-0.046875 0.1640625,-0.2226563 0.1640625,-0.7148437 0.3515625,-1.0429687 0.65625,-1.0429687 0.2695313,0 0.2695313,0.28125 0.2695313,0.421875 0,0.1875 -0.070312,0.46875 -0.1171875,0.703125 -0.070312,0.234375 -0.1523438,0.609375 -0.1992188,0.7265625 l -0.3515625,1.46484374 c -0.070312,0.2109375 -0.070312,0.234375 -0.070312,0.2578125 0,0.1171875 0.082031,0.2578125 0.28125,0.2578125 0.2929688,0 0.3515625,-0.234375 0.4101563,-0.4921875 0.1171875,-0.38671875 0.1171875,-0.41015625 0.1992187,-0.77343754 0.3398438,-1.3476562 0.3867188,-1.5585937 0.4101563,-1.6054687 0.046875,-0.1054688 0.4570312,-0.9609375 1.2070312,-0.9609375 0.2109375,0 0.328125,0.070312 0.3749995,0.1054687 z m 2.0273436,1.5820313 c 0.539063,0 1.125,0 1.605469,-0.1171875 0.84375,-0.2109375 0.996094,-0.7148438 0.996094,-1.0195313 0,-0.5039062 -0.480469,-0.7734375 -1.007813,-0.7734375 -1.042969,0 -2.4023436,0.8789063 -2.4023436,2.4140625 0,0.85546879 0.5039063,1.64062504 1.4648436,1.64062504 1.347656,0 2.097656,-0.92578125 2.097656,-1.04296875 0,-0.0585938 -0.05859,-0.12890629 -0.117187,-0.12890629 -0.04687,0 -0.05859,0.011719 -0.140625,0.10546879 -0.539063,0.66796875 -1.347656,0.84375 -1.816406,0.84375 -0.632813,0 -0.808594,-0.59765625 -0.808594,-1.04296879 0,-0.023437 0,-0.3398437 0.128906,-0.8789062 z m 0.05859,-0.2226563 c 0.398437,-1.4179687 1.394531,-1.4648437 1.535156,-1.4648437 0.304688,0 0.667969,0.140625 0.667969,0.5507812 0,0.9140625 -1.347656,0.9140625 -2.203125,0.9140625 z m 8.853516,-3.8085937 c 0.03516,-0.09375 0.03516,-0.1171875 0.03516,-0.140625 0,-0.011719 -0.01172,-0.09375 -0.117188,-0.09375 -0.03516,0 -0.04687,0 -0.152343,0.1289062 -0.128907,0.140625 -0.02344,0.023437 -0.433594,0.5039063 -0.328125,-0.5039063 -0.855469,-0.6328125 -1.324219,-0.6328125 -1.160156,0 -2.25,1.03125 -2.25,2.0976562 0,0.375 0.117188,0.6796875 0.351563,0.9257813 0.257812,0.2695312 0.480468,0.328125 1.125,0.4921875 l 0.75,0.1875 c 0.292968,0.1054687 0.585937,0.3867187 0.585937,0.890625 0,0.79687499 -0.761719,1.64062499 -1.664062,1.64062499 -0.527344,0 -1.59375,-0.1640625 -1.59375,-1.31249999 0,-0.070312 0,-0.2109375 0.05859,-0.4804688 0.01172,-0.035156 0.01172,-0.046875 0.01172,-0.058594 0,-0.035156 -0.01172,-0.1054688 -0.117187,-0.1054688 -0.117188,0 -0.117188,0.046875 -0.152344,0.1992188 l -0.480469,1.93359374 c 0,0.05859375 0.04687,0.10546875 0.105469,0.10546875 0.04687,0 0.05859,-0.0117188 0.175781,-0.140625 0.04687,-0.0585937525 0.316406,-0.38671875 0.421875,-0.4921875 0.46875,0.59765625 1.289063,0.6328125 1.558594,0.6328125 1.230469,0 2.308594,-1.16015625 2.308594,-2.28515629 0,-1.1132812 -0.878907,-1.3359375 -1.148438,-1.40625 l -0.820312,-0.2109375 c -0.292969,-0.070312 -0.84375,-0.2109375 -0.84375,-0.890625 0,-0.6914062 0.714843,-1.4765625 1.617187,-1.4765625 0.351563,0 0.703125,0.1054688 0.960938,0.3515625 0.339843,0.328125 0.339843,0.8203125 0.339843,1.0429688 0,0.3046875 -0.03516,0.3984375 -0.03516,0.46875 0,0.070312 0.03516,0.1171875 0.128906,0.1171875 0.09375,0 0.09375,-0.011719 0.140625,-0.1875 z m 4.652343,3.1640625 c 0.04687,-0.234375 0.152344,-0.6445313 0.152344,-0.6914063 0,-0.1054687 -0.08203,-0.2578125 -0.269531,-0.2578125 -0.128906,0 -0.269531,0.082031 -0.328125,0.1875 -0.04687,0.09375 -0.65625,2.5195313 -0.703125,2.82421879 -0.1875,0.31640625 -0.550781,0.7265625 -1.042969,0.7265625 -0.5625,0 -0.5625,-0.5625 -0.5625,-0.7265625 0,-0.41015629 0.117188,-0.84374999 0.503906,-1.85156249 0.07031,-0.2109375 0.128907,-0.328125 0.128907,-0.5039063 0,-0.4335937 -0.328125,-0.75 -0.773438,-0.75 -0.855469,0 -1.21875,1.2773438 -1.21875,1.3828125 0,0.082031 0.07031,0.1054688 0.128906,0.1054688 0.09375,0 0.105469,-0.058594 0.140625,-0.1757813 0.1875,-0.6445312 0.539063,-1.0898437 0.925782,-1.0898437 0.1875,0 0.210937,0.1289062 0.210937,0.2929687 0,0.1523438 -0.03516,0.3164063 -0.117187,0.5273438 -0.421875,1.1132812 -0.539063,1.4882812 -0.539063,1.92187499 0,0.9960937475 0.808594,1.08984375 1.148438,1.08984375 0.503906,0 0.878906,-0.3046875 1.089843,-0.5859375 0.164063,0.5859375 0.761719,0.5859375 0.820313,0.5859375 0.257812,0 0.480469,-0.1171875 0.667969,-0.46875 0.164062,-0.29296875 0.292968,-0.86718754 0.292968,-0.90234374 0,-0.046875 -0.02344,-0.1171875 -0.117187,-0.1171875 -0.105469,0 -0.117188,0.046875 -0.152344,0.2226562 -0.175781,0.70312504 -0.363281,1.04296879 -0.667969,1.04296879 -0.222656,0 -0.28125,-0.1875 -0.28125,-0.41015625 0,-0.1640625 0.04687,-0.3515625 0.128907,-0.66796874 l 0.222656,-0.9140625 z m 2.63086,1.5117187 c 0.09375,-0.421875 0.269531,-1.078125 0.269531,-1.1484375 0.02344,-0.058594 0.246094,-0.4804687 0.5625,-0.796875 0.269531,-0.2460937 0.609375,-0.3867187 0.960937,-0.3867187 0.480469,0 0.480469,0.4804687 0.480469,0.6328125 0,0.1054687 0,0.2226562 -0.105469,0.6679687 l -0.210937,0.796875 c -0.28125,1.16015629 -0.351563,1.42968754 -0.351563,1.47656254 0,0.1171875 0.07031,0.2578125 0.269532,0.2578125 0.128906,0 0.257812,-0.0703125 0.328125,-0.1875 0.02344,-0.046875 0.09375,-0.33984375 0.140625,-0.515625 l 0.210937,-0.79687504 c 0.09375,-0.421875 0.269531,-1.078125 0.269531,-1.1484375 0.02344,-0.058594 0.246094,-0.4804687 0.574219,-0.796875 0.257813,-0.2460937 0.597656,-0.3867187 0.949219,-0.3867187 0.480469,0 0.480469,0.4804687 0.480469,0.6328125 0,0.5390625 -0.421875,1.640625 -0.515625,1.9101562 -0.117188,0.28125004 -0.152344,0.37500004 -0.152344,0.53906254 0,0.48046875 0.375,0.75 0.773437,0.75 0.867188,0 1.207032,-1.27734374 1.207032,-1.37109374 0,-0.046875 -0.02344,-0.1171875 -0.117188,-0.1171875 -0.09375,0 -0.105469,0.046875 -0.140625,0.1640625 -0.222656,0.76171874 -0.597656,1.10156249 -0.925781,1.10156249 -0.05859,0 -0.222656,0 -0.222656,-0.28125 0,-0.22265625 0.09375,-0.45703125 0.164062,-0.65624999 0.175781,-0.4570313 0.539063,-1.40625 0.539063,-1.9101563 0,-0.796875 -0.597657,-0.984375 -1.066407,-0.984375 -0.855468,0 -1.324218,0.6328125 -1.476562,0.8554688 -0.09375,-0.7382813 -0.703125,-0.8554688 -1.078125,-0.8554688 -0.832031,0 -1.277344,0.5859375 -1.417969,0.7734375 -0.05859,-0.4804687 -0.421875,-0.7734375 -0.867187,-0.7734375 -0.375,0 -0.5625,0.28125 -0.691407,0.515625 -0.152343,0.3164063 -0.28125,0.8320313 -0.28125,0.8671875 0,0.082031 0.07031,0.1054688 0.128907,0.1054688 0.09375,0 0.117187,-0.046875 0.164062,-0.2226563 0.164063,-0.7148437 0.351563,-1.0429687 0.65625,-1.0429687 0.269531,0 0.269531,0.28125 0.269531,0.421875 0,0.1875 -0.07031,0.46875 -0.117187,0.703125 -0.07031,0.234375 -0.152344,0.609375 -0.199219,0.7265625 l -0.351562,1.46484374 c -0.07031,0.2109375 -0.07031,0.234375 -0.07031,0.2578125 0,0.1171875 0.08203,0.2578125 0.28125,0.2578125 0.128906,0 0.257813,-0.0703125 0.328125,-0.1875 0.02344,-0.046875 0.09375,-0.33984375 0.140625,-0.515625 z m 0,0"
       style="fill:#000000;fill-opacity:1;fill-rule:nonzero;stroke:none"
       aria-label="preSum"
       transform="matrix(1.3333333,0,0,1.3333333,12.397333,100.332)" />
    <path
       id="path43"
       d="m 47.0558,-26.07916 c 0.59775,-1.19556 1.99256,-1.99256 3.98511,-1.99256 H 103.166 c 1.99255,0 3.38736,-0.79701 3.98511,-1.99255 0.59775,1.19554 1.99255,1.99255 3.98511,1.99255 h 52.12508 c 1.99256,0 3.38737,0.797 3.98511,1.99256"
       style="fill:none;stroke:#000000;stroke-width:0.44832;stroke-linecap:butt;stroke-linejoin:miter;stroke-miterlimit:10;stroke-dasharray:none;stroke-opacity:1"
       transform="matrix(1.3333333,0,0,-1.3333333,75.3,38.826667)" />
    <g
       id="g43"
       aria-label="A&#10;2&#10;+···+A&#10;5&#10;=preSum&#10;5&#10;−preSum&#10;1&#10;=32−12=20"
       transform="matrix(1.3333333,0,0,1.3333333,73.828,130.568)">
      <path
         id="path44"
         d="m 1.629,-1.0558828 c -0.4335938,0.72656249 -0.83203125,0.74999999 -1.1953125,0.77343749 -0.0585938,0.0117188 -0.10546875,0.0820313 -0.10546875,0.1640625 0,0.05859375 0.0351563,0.1171875 0.12890625,0.1171875 0.17578125,0 0.5976562,-0.0234375 0.7617187,-0.0234375 0.1992188,0 0.6796875,0.0234375 0.8789063,0.0234375 0.058594,0 0.1757812,0 0.1757812,-0.1640625 0,-0.10546875 -0.1171875,-0.1171875 -0.140625,-0.1171875 -0.082031,0 -0.421875,-0.0234375 -0.421875,-0.29296875 0,-0.12890625 0.1054688,-0.29296875 0.1289063,-0.33984375 l 0.703125,-1.16015629 h 2.34375 c 0.023437,0.2109375 0.058594,0.515625 0.082031,0.7382813 0.035156,0.35156249 0.082031,0.74999999 0.082031,0.77343749 0,0.12890625 -0.1171875,0.28125 -0.6445313,0.28125 -0.082031,0 -0.1992187,0 -0.1992187,0.1640625 0,0.09375 0.070312,0.1171875 0.1289062,0.1171875 0.1757813,0 0.3867188,-0.0234375 0.5625,-0.0234375 0.1875,0 0.3984375,0 0.5390625,0 0.3046875,0 0.3164063,0 0.5273438,0 0.1523437,0.01171875 0.3515625,0.0234375 0.5039062,0.0234375 0.046875,0 0.1640625,0 0.1640625,-0.1640625 0,-0.1171875 -0.09375,-0.1171875 -0.1992187,-0.1171875 -0.5390625,0 -0.5507813,-0.0585938 -0.5742188,-0.31640625 L 5.2266562,-6.1769766 c -0.023437,-0.1992187 -0.023437,-0.2460937 -0.1757812,-0.2460937 -0.1289063,0 -0.1875,0.070312 -0.2578125,0.1875 z m 1.0898437,-1.2890625 1.8046875,-2.9648438 0.3398438,2.9648438 z m 0,0"
         style="fill:#000000;fill-opacity:1;fill-rule:nonzero;stroke:none" />
      <path
         id="path45"
         d="M 10.122164,-0.11545312 H 9.9112266 c -0.023437,0.08203125 -0.082031,0.46875 -0.1640625,0.5390625 -0.046875,0.0351563 -0.5273438,0.0351563 -0.609375,0.0351563 h -1.125 l 0.7734375,-0.62109375 c 0.1992187,-0.1640625 0.7265625,-0.5390625 0.9140625,-0.7265625 0.1757812,-0.17578133 0.4218749,-0.48046883 0.4218749,-0.90234383 0,-0.75 -0.6679687,-1.1835937 -1.4765624,-1.1835937 -0.7617188,0 -1.3007813,0.5039062 -1.3007813,1.0664062 0,0.3046875 0.2578125,0.3398438 0.3164063,0.3398438 0.1523437,0 0.328125,-0.1054688 0.328125,-0.3164063 0,-0.140625 -0.082031,-0.328125 -0.3398438,-0.328125 0.1289063,-0.3046875 0.5039063,-0.5273436 0.9140625,-0.5273436 0.6210938,0 0.9609375,0.46875 0.9609375,0.9492187 0,0.421875 -0.28125,0.85546873 -0.703125,1.24218748 l -1.4179687,1.3007812 c -0.058594,0.0585938 -0.058594,0.0585938 -0.058594,0.24609375 h 2.6015625 z m 0,0"
         style="fill:#000000;fill-opacity:1;fill-rule:nonzero;stroke:none" />
      <path
         id="path46"
         d="m 19.43857,-2.0519766 c 0.128907,0 0.316407,0 0.316407,-0.1875 0,-0.1992187 -0.175782,-0.1992187 -0.316407,-0.1992187 h -2.554687 v -2.5664063 c 0,-0.140625 0,-0.3164062 -0.199219,-0.3164062 -0.1875,0 -0.1875,0.1875 -0.1875,0.3164062 v 2.5664063 h -2.566406 c -0.117188,0 -0.304688,0 -0.304688,0.1875 0,0.1992187 0.164063,0.1992187 0.304688,0.1992187 h 2.566406 v 2.56640629 c 0,0.140625 0,0.3046875 0.199219,0.3046875 0.1875,0 0.1875,-0.1875 0.1875,-0.3046875 V -2.0519766 Z m 0,0"
         style="fill:#000000;fill-opacity:1;fill-rule:nonzero;stroke:none" />
      <path
         id="path47"
         d="m 24.082125,-2.2511953 c 0,-0.2578125 -0.210938,-0.4804688 -0.480469,-0.4804688 -0.28125,0 -0.492187,0.2226563 -0.492187,0.4804688 0,0.2578125 0.210937,0.4804687 0.492187,0.4804687 0.269531,0 0.480469,-0.2226562 0.480469,-0.4804687 z m 4.092773,0 c 0,-0.2578125 -0.210937,-0.4804688 -0.480468,-0.4804688 -0.28125,0 -0.492188,0.2226563 -0.492188,0.4804688 0,0.2578125 0.210938,0.4804687 0.492188,0.4804687 0.269531,0 0.480468,-0.2226562 0.480468,-0.4804687 z m 4.101563,0 c 0,-0.2578125 -0.210938,-0.4804688 -0.480469,-0.4804688 -0.28125,0 -0.492187,0.2226563 -0.492187,0.4804688 0,0.2578125 0.210937,0.4804687 0.492187,0.4804687 0.269531,0 0.480469,-0.2226562 0.480469,-0.4804687 z m 0,0"
         style="fill:#000000;fill-opacity:1;fill-rule:nonzero;stroke:none" />
      <path
         id="path48"
         d="m 41.452242,-2.0519766 c 0.128906,0 0.316406,0 0.316406,-0.1875 0,-0.1992187 -0.175781,-0.1992187 -0.316406,-0.1992187 h -2.554687 v -2.5664063 c 0,-0.140625 0,-0.3164062 -0.199219,-0.3164062 -0.1875,0 -0.1875,0.1875 -0.1875,0.3164062 v 2.5664063 H 35.94443 c -0.117188,0 -0.304688,0 -0.304688,0.1875 0,0.1992187 0.164063,0.1992187 0.304688,0.1992187 h 2.566406 v 2.56640629 c 0,0.140625 0,0.3046875 0.199219,0.3046875 0.1875,0 0.1875,-0.1875 0.1875,-0.3046875 V -2.0519766 Z m 0,0"
         style="fill:#000000;fill-opacity:1;fill-rule:nonzero;stroke:none" />
      <path
         id="path49"
         d="m 45.966891,-1.0558828 c -0.433594,0.72656249 -0.832032,0.74999999 -1.195313,0.77343749 -0.05859,0.0117188 -0.105469,0.0820313 -0.105469,0.1640625 0,0.05859375 0.03516,0.1171875 0.128907,0.1171875 0.175781,0 0.597656,-0.0234375 0.761718,-0.0234375 0.199219,0 0.679688,0.0234375 0.878907,0.0234375 0.05859,0 0.175781,0 0.175781,-0.1640625 0,-0.10546875 -0.117188,-0.1171875 -0.140625,-0.1171875 -0.08203,0 -0.421875,-0.0234375 -0.421875,-0.29296875 0,-0.12890625 0.105469,-0.29296875 0.128906,-0.33984375 l 0.703125,-1.16015629 h 2.34375 c 0.02344,0.2109375 0.05859,0.515625 0.08203,0.7382813 0.03516,0.35156249 0.08203,0.74999999 0.08203,0.77343749 0,0.12890625 -0.117188,0.28125 -0.644532,0.28125 -0.08203,0 -0.199218,0 -0.199218,0.1640625 0,0.09375 0.07031,0.1171875 0.128906,0.1171875 0.175781,0 0.386719,-0.0234375 0.5625,-0.0234375 0.1875,0 0.398437,0 0.539062,0 0.304688,0 0.316407,0 0.527344,0 0.152344,0.01171875 0.351563,0.0234375 0.503906,0.0234375 0.04687,0 0.164063,0 0.164063,-0.1640625 0,-0.1171875 -0.09375,-0.1171875 -0.199219,-0.1171875 -0.539062,0 -0.550781,-0.0585938 -0.574219,-0.31640625 L 49.564547,-6.1769766 c -0.02344,-0.1992187 -0.02344,-0.2460937 -0.175781,-0.2460937 -0.128907,0 -0.1875,0.070312 -0.257813,0.1875 z m 1.089843,-1.2890625 1.804688,-2.9648438 0.339844,2.9648438 z m 0,0"
         style="fill:#000000;fill-opacity:1;fill-rule:nonzero;stroke:none" />
      <path
         id="path50"
         d="m 52.268648,-2.3185781 c 0.199219,0.058594 0.398438,0.082031 0.609375,0.082031 0.128907,0 0.457032,0 0.84375,-0.2109375 0.09375,-0.058594 0.46875,-0.3046875 0.46875,-0.4335937 0,-0.082031 -0.05859,-0.09375 -0.08203,-0.09375 -0.02344,0 -0.02344,0 -0.09375,0.023437 -0.210937,0.082031 -0.515625,0.1640625 -0.902344,0.1640625 -0.292968,0 -0.621093,-0.046875 -0.890625,-0.1523438 -0.05859,-0.023437 -0.08203,-0.035156 -0.105468,-0.035156 -0.08203,0 -0.08203,0.058594 -0.08203,0.1640625 v 1.7929687 c 0,0.09375 0,0.16406253 0.105469,0.16406253 0.05859,0 0.07031,-0.0234375 0.117188,-0.0703125 0.140625,-0.18750003 0.410156,-0.38671873 0.878906,-0.38671873 0.726562,0 0.726562,0.89062498 0.726562,1.07812498 0,0.234375 -0.01172,0.57421875 -0.210937,0.8203125 -0.1875,0.22265625 -0.457031,0.31640625 -0.714844,0.31640625 -0.410156,0 -0.832031,-0.22265625 -0.972656,-0.57421875 0.292969,0 0.328125,-0.234375 0.328125,-0.3046875 0,-0.1640625 -0.117188,-0.3046875 -0.304688,-0.3046875 -0.05859,0 -0.304687,0.0234375 -0.304687,0.328125 0,0.55078125 0.515625,1.07812502 1.265625,1.07812502 0.820312,0 1.511719,-0.58593752 1.511719,-1.33593752 0,-0.6796875 -0.550782,-1.30078128 -1.3125,-1.30078128 -0.386719,0 -0.691407,0.1289063 -0.878907,0.2929688 z m 0,0"
         style="fill:#000000;fill-opacity:1;fill-rule:nonzero;stroke:none" />
      <path
         id="path51"
         d="m 64.312594,-2.9660391 c 0.117187,0 0.292968,0 0.292968,-0.1875 0,-0.1992187 -0.199218,-0.1992187 -0.328125,-0.1992187 h -5.472656 c -0.140625,0 -0.328125,0 -0.328125,0.1992187 0,0.1875 0.175781,0.1875 0.292969,0.1875 z m -0.03516,1.828125 c 0.128907,0 0.328125,0 0.328125,-0.1992187 0,-0.1875 -0.175781,-0.1875 -0.292968,-0.1875 h -5.542969 c -0.117188,0 -0.292969,0 -0.292969,0.1875 0,0.1992187 0.1875,0.1992187 0.328125,0.1992187 z m 0,0"
         style="fill:#000000;fill-opacity:1;fill-rule:nonzero;stroke:none" />
      <path
         id="path52"
         d="m 68.09775,1.1238047 c -0.05859,0.2578125 -0.08203,0.3398437 -0.46875,0.3398437 -0.09375,0 -0.199219,0 -0.199219,0.1523438 0,0.046875 0.01172,0.1171875 0.117188,0.1171875 l 0.386718,-0.011719 c 0.04687,-0.011719 0.257813,-0.011719 0.386719,-0.011719 0.152344,0 0.304688,0.011719 0.457031,0.011719 0.140625,0 0.292969,0.011719 0.421875,0.011719 0.05859,0 0.175782,0 0.175782,-0.1523438 0,-0.1171875 -0.09375,-0.1171875 -0.246094,-0.1171875 -0.421875,0 -0.421875,-0.070312 -0.421875,-0.1523437 0,-0.046875 0.07031,-0.2929688 0.105469,-0.43359376 l 0.328125,-1.3359375 c 0.09375,0.1875 0.339843,0.55078125 0.855468,0.55078125 1.042969,0 2.191407,-1.25390629 2.191407,-2.60156249 0,-0.9140625 -0.5625,-1.453125 -1.242188,-1.453125 -0.1875,0 -0.632812,0.046875 -1.183594,0.65625 -0.128906,-0.5039063 -0.539062,-0.65625 -0.84375,-0.65625 -0.375,0 -0.5625,0.28125 -0.691406,0.515625 -0.152344,0.3164062 -0.28125,0.8320312 -0.28125,0.8671875 0,0.082031 0.07031,0.1054687 0.128906,0.1054687 0.09375,0 0.117188,-0.046875 0.164063,-0.2226562 0.164062,-0.7148438 0.351562,-1.0429688 0.65625,-1.0429688 0.269531,0 0.269531,0.28125 0.269531,0.421875 0,0.070312 -0.01172,0.2109375 -0.02344,0.28125 z m 1.628906,-3.890625 c 0.03516,-0.1757813 0.03516,-0.1875 0.152344,-0.328125 0.246094,-0.3046875 0.65625,-0.6445313 1.054687,-0.6445313 0.421875,0 0.585938,0.421875 0.585938,0.84375 0,0.3984375 -0.246094,1.5117188 -0.527344,1.99218754 -0.304687,0.50390625 -0.679687,0.7734375 -1.007812,0.7734375 -0.585938,0 -0.726563,-0.703125 -0.726563,-0.76171875 0,-0.0585938 0.01172,-0.10546875 0.02344,-0.15234379 z m 6.208008,-0.8671875 c -0.292969,0.058594 -0.445312,0.3046875 -0.445312,0.4921875 0,0.1757812 0.128906,0.328125 0.351562,0.328125 0.234375,0 0.492188,-0.2109375 0.492188,-0.5390625 0,-0.3515625 -0.328125,-0.609375 -0.761719,-0.609375 -0.679688,0 -1.054688,0.5039062 -1.183594,0.6679687 -0.105469,-0.4921875 -0.503906,-0.6679687 -0.84375,-0.6679687 -0.328125,0 -0.527344,0.1992187 -0.679687,0.5039062 -0.175782,0.328125 -0.292969,0.84375 -0.292969,0.8789063 0,0.082031 0.07031,0.1054687 0.128906,0.1054687 0.09375,0 0.117188,-0.046875 0.164063,-0.2226562 0.164062,-0.7148438 0.351562,-1.0429688 0.65625,-1.0429688 0.269531,0 0.269531,0.28125 0.269531,0.421875 0,0.1875 -0.07031,0.46875 -0.117188,0.703125 -0.07031,0.234375 -0.152343,0.609375 -0.199218,0.7265625 l -0.351563,1.46484379 c -0.07031,0.2109375 -0.07031,0.234375 -0.07031,0.2578125 0,0.1171875 0.08203,0.2578125 0.28125,0.2578125 0.292968,0 0.351562,-0.234375 0.410156,-0.4921875 0.117187,-0.38671875 0.117187,-0.41015625 0.199219,-0.77343749 0.339843,-1.3476563 0.386718,-1.5585938 0.410156,-1.6054688 0.04687,-0.1054687 0.457031,-0.9609375 1.207031,-0.9609375 0.210938,0 0.328125,0.070312 0.375,0.1054688 z m 2.027344,1.5820312 c 0.539062,0 1.125,0 1.605469,-0.1171875 0.84375,-0.2109375 0.996093,-0.7148437 0.996093,-1.0195312 0,-0.5039063 -0.480468,-0.7734375 -1.007812,-0.7734375 -1.042969,0 -2.402344,0.8789062 -2.402344,2.4140625 0,0.85546874 0.503906,1.64062499 1.464844,1.64062499 1.347656,0 2.097656,-0.92578125 2.097656,-1.04296875 0,-0.0585937 -0.05859,-0.12890624 -0.117187,-0.12890624 -0.04687,0 -0.05859,0.011719 -0.140625,0.10546874 -0.539063,0.66796875 -1.347657,0.84375 -1.816407,0.84375 -0.632812,0 -0.808593,-0.59765625 -0.808593,-1.04296874 0,-0.023437 0,-0.3398438 0.128906,-0.8789063 z m 0.05859,-0.2226562 c 0.398437,-1.4179688 1.394531,-1.4648438 1.535156,-1.4648438 0.304687,0 0.667969,0.140625 0.667969,0.5507813 0,0.9140625 -1.347657,0.9140625 -2.203125,0.9140625 z m 8.853515,-3.8085938 c 0.03516,-0.09375 0.03516,-0.1171875 0.03516,-0.140625 0,-0.011719 -0.01172,-0.09375 -0.117187,-0.09375 -0.03516,0 -0.04687,0 -0.152344,0.1289063 -0.128906,0.140625 -0.02344,0.023437 -0.433594,0.5039062 -0.328125,-0.5039062 -0.855468,-0.6328125 -1.324218,-0.6328125 -1.160157,0 -2.25,1.03125 -2.25,2.0976563 0,0.375 0.117187,0.6796875 0.351562,0.9257812 0.257813,0.2695313 0.480469,0.328125 1.125,0.4921875 l 0.75,0.1875 c 0.292969,0.1054688 0.585938,0.3867188 0.585938,0.890625 0,0.79687504 -0.761719,1.64062504 -1.664063,1.64062504 -0.527344,0 -1.59375,-0.1640625 -1.59375,-1.31250004 0,-0.070312 0,-0.2109375 0.05859,-0.4804687 0.01172,-0.035156 0.01172,-0.046875 0.01172,-0.058594 0,-0.035156 -0.01172,-0.1054687 -0.117188,-0.1054687 -0.117187,0 -0.117187,0.046875 -0.152344,0.1992187 L 81.50693,0.09255469 c 0,0.05859375 0.04687,0.10546875 0.105468,0.10546875 0.04687,0 0.05859,-0.0117188 0.175782,-0.140625 0.04687,-0.05859375 0.316406,-0.38671875 0.421875,-0.4921875 0.46875,0.59765625 1.289062,0.6328125 1.558593,0.6328125 1.230469,0 2.308594,-1.16015625 2.308594,-2.28515624 0,-1.1132813 -0.878906,-1.3359375 -1.148437,-1.40625 l -0.820313,-0.2109375 c -0.292969,-0.070312 -0.84375,-0.2109375 -0.84375,-0.890625 0,-0.6914063 0.714844,-1.4765625 1.617188,-1.4765625 0.351562,0 0.703125,0.1054687 0.960937,0.3515625 0.339844,0.328125 0.339844,0.8203125 0.339844,1.0429687 0,0.3046875 -0.03516,0.3984375 -0.03516,0.46875 0,0.070312 0.03516,0.1171875 0.128906,0.1171875 0.09375,0 0.09375,-0.011719 0.140625,-0.1875 z m 4.652344,3.1640625 c 0.04687,-0.234375 0.152344,-0.6445312 0.152344,-0.6914062 0,-0.1054688 -0.08203,-0.2578125 -0.269532,-0.2578125 -0.128906,0 -0.269531,0.082031 -0.328125,0.1875 -0.04687,0.09375 -0.65625,2.5195312 -0.703125,2.82421874 -0.1875,0.31640625 -0.550781,0.7265625 -1.042968,0.7265625 -0.5625,0 -0.5625,-0.5625 -0.5625,-0.7265625 0,-0.41015624 0.117187,-0.84375004 0.503906,-1.85156254 0.07031,-0.2109375 0.128906,-0.328125 0.128906,-0.5039062 0,-0.4335938 -0.328125,-0.75 -0.773437,-0.75 -0.855469,0 -1.21875,1.2773437 -1.21875,1.3828125 0,0.082031 0.07031,0.1054687 0.128906,0.1054687 0.09375,0 0.105469,-0.058594 0.140625,-0.1757812 0.1875,-0.6445313 0.539062,-1.0898438 0.925781,-1.0898438 0.1875,0 0.210938,0.1289063 0.210938,0.2929688 0,0.1523437 -0.03516,0.3164062 -0.117188,0.5273437 -0.421875,1.1132813 -0.539062,1.4882813 -0.539062,1.92187504 0,0.99609375 0.808593,1.08984375 1.148437,1.08984375 0.503906,0 0.878906,-0.3046875 1.089844,-0.5859375 0.164062,0.5859375 0.761719,0.5859375 0.820312,0.5859375 0.257813,0 0.480469,-0.1171875 0.667969,-0.46875 0.164063,-0.29296875 0.292969,-0.86718749 0.292969,-0.90234379 0,-0.046875 -0.02344,-0.1171875 -0.117188,-0.1171875 -0.105468,0 -0.117187,0.046875 -0.152343,0.2226563 -0.175782,0.70312499 -0.363282,1.04296874 -0.667969,1.04296874 -0.222656,0 -0.28125,-0.1875 -0.28125,-0.41015625 0,-0.1640625 0.04687,-0.3515625 0.128906,-0.66796879 l 0.222656,-0.9140625 z m 2.630859,1.5117188 c 0.09375,-0.421875 0.269532,-1.078125 0.269532,-1.1484375 0.02344,-0.058594 0.246093,-0.4804688 0.5625,-0.796875 0.269531,-0.2460938 0.609375,-0.3867188 0.960937,-0.3867188 0.480469,0 0.480469,0.4804688 0.480469,0.6328125 0,0.1054688 0,0.2226563 -0.105469,0.6679688 l -0.210937,0.796875 c -0.28125,1.16015624 -0.351563,1.42968749 -0.351563,1.47656249 0,0.1171875 0.07031,0.2578125 0.269531,0.2578125 0.128907,0 0.257813,-0.0703125 0.328125,-0.1875 0.02344,-0.046875 0.09375,-0.33984375 0.140625,-0.515625 l 0.210938,-0.79687499 c 0.09375,-0.421875 0.269531,-1.078125 0.269531,-1.1484375 0.02344,-0.058594 0.246094,-0.4804688 0.574219,-0.796875 0.257812,-0.2460938 0.597656,-0.3867188 0.949219,-0.3867188 0.480468,0 0.480468,0.4804688 0.480468,0.6328125 0,0.5390625 -0.421875,1.640625 -0.515625,1.9101563 -0.117187,0.28124999 -0.152343,0.37499999 -0.152343,0.53906249 0,0.48046875 0.375,0.75 0.773437,0.75 0.867188,0 1.20704,-1.27734379 1.20704,-1.37109379 0,-0.046875 -0.0234,-0.1171875 -0.11719,-0.1171875 -0.0937,0 -0.10547,0.046875 -0.14063,0.1640625 -0.222657,0.76171879 -0.597657,1.10156254 -0.925782,1.10156254 -0.05859,0 -0.222657,0 -0.222657,-0.28125 0,-0.22265625 0.09375,-0.45703125 0.164063,-0.65625004 0.175781,-0.4570312 0.539062,-1.40625 0.539062,-1.9101562 0,-0.796875 -0.597656,-0.984375 -1.066406,-0.984375 -0.855469,0 -1.324219,0.6328125 -1.476562,0.8554687 -0.09375,-0.7382812 -0.703125,-0.8554687 -1.078125,-0.8554687 -0.832032,0 -1.277344,0.5859375 -1.417969,0.7734375 -0.05859,-0.4804688 -0.421875,-0.7734375 -0.867188,-0.7734375 -0.375,0 -0.5625,0.28125 -0.691406,0.515625 -0.152344,0.3164062 -0.28125,0.8320312 -0.28125,0.8671875 0,0.082031 0.07031,0.1054687 0.128906,0.1054687 0.09375,0 0.117188,-0.046875 0.164063,-0.2226562 0.164062,-0.7148438 0.351562,-1.0429688 0.65625,-1.0429688 0.269531,0 0.269531,0.28125 0.269531,0.421875 0,0.1875 -0.07031,0.46875 -0.117187,0.703125 -0.07031,0.234375 -0.152344,0.609375 -0.199219,0.7265625 l -0.351563,1.46484379 c -0.07031,0.2109375 -0.07031,0.234375 -0.07031,0.2578125 0,0.1171875 0.08203,0.2578125 0.28125,0.2578125 0.128906,0 0.257812,-0.0703125 0.328125,-0.1875 0.02344,-0.046875 0.09375,-0.33984375 0.140625,-0.515625 z m 0,0"
         style="fill:#000000;fill-opacity:1;fill-rule:nonzero;stroke:none" />
      <path
         id="path53"
         d="m 101.59287,-2.3185781 c 0.19922,0.058594 0.39843,0.082031 0.60937,0.082031 0.12891,0 0.45703,0 0.84375,-0.2109375 0.0937,-0.058594 0.46875,-0.3046875 0.46875,-0.4335937 0,-0.082031 -0.0586,-0.09375 -0.082,-0.09375 -0.0234,0 -0.0234,0 -0.0937,0.023437 -0.21094,0.082031 -0.51562,0.1640625 -0.90234,0.1640625 -0.29297,0 -0.6211,-0.046875 -0.89063,-0.1523438 -0.0586,-0.023437 -0.082,-0.035156 -0.10547,-0.035156 -0.082,0 -0.082,0.058594 -0.082,0.1640625 v 1.7929687 c 0,0.09375 0,0.16406253 0.10547,0.16406253 0.0586,0 0.0703,-0.0234375 0.11719,-0.0703125 0.14062,-0.18750003 0.41015,-0.38671873 0.8789,-0.38671873 0.72657,0 0.72657,0.89062498 0.72657,1.07812498 0,0.234375 -0.0117,0.57421875 -0.21094,0.8203125 -0.1875,0.22265625 -0.45703,0.31640625 -0.71484,0.31640625 -0.41016,0 -0.83204,-0.22265625 -0.97266,-0.57421875 0.29297,0 0.32812,-0.234375 0.32812,-0.3046875 0,-0.1640625 -0.11718,-0.3046875 -0.30468,-0.3046875 -0.0586,0 -0.30469,0.0234375 -0.30469,0.328125 0,0.55078125 0.51562,1.07812502 1.26562,1.07812502 0.82032,0 1.51172,-0.58593752 1.51172,-1.33593752 0,-0.6796875 -0.55078,-1.30078128 -1.3125,-1.30078128 -0.38672,0 -0.6914,0.1289063 -0.8789,0.2929688 z m 0,0"
         style="fill:#000000;fill-opacity:1;fill-rule:nonzero;stroke:none" />
      <path
         id="path54"
         d="m 112.81943,-2.0519766 c 0.16406,0 0.33984,0 0.33984,-0.1992187 0,-0.1875 -0.1875,-0.1875 -0.33984,-0.1875 h -4.94531 c -0.15235,0 -0.32813,0 -0.32813,0.1875 0,0.1992187 0.16406,0.1992187 0.32813,0.1992187 z m 0,0"
         style="fill:#000000;fill-opacity:1;fill-rule:nonzero;stroke:none" />
      <path
         id="path55"
         d="m 116.39658,1.1238047 c -0.0586,0.2578125 -0.082,0.3398437 -0.46875,0.3398437 -0.0937,0 -0.19922,0 -0.19922,0.1523438 0,0.046875 0.0117,0.1171875 0.11719,0.1171875 l 0.38672,-0.011719 c 0.0469,-0.011719 0.25781,-0.011719 0.38671,-0.011719 0.15235,0 0.30469,0.011719 0.45704,0.011719 0.14062,0 0.29296,0.011719 0.42187,0.011719 0.0586,0 0.17578,0 0.17578,-0.1523438 0,-0.1171875 -0.0937,-0.1171875 -0.24609,-0.1171875 -0.42188,0 -0.42188,-0.070312 -0.42188,-0.1523437 0,-0.046875 0.0703,-0.2929688 0.10547,-0.43359376 l 0.32813,-1.3359375 c 0.0937,0.1875 0.33984,0.55078125 0.85547,0.55078125 1.04296,0 2.1914,-1.25390629 2.1914,-2.60156249 0,-0.9140625 -0.5625,-1.453125 -1.24219,-1.453125 -0.1875,0 -0.63281,0.046875 -1.18359,0.65625 -0.12891,-0.5039063 -0.53906,-0.65625 -0.84375,-0.65625 -0.375,0 -0.5625,0.28125 -0.69141,0.515625 -0.15234,0.3164062 -0.28125,0.8320312 -0.28125,0.8671875 0,0.082031 0.0703,0.1054687 0.12891,0.1054687 0.0937,0 0.11719,-0.046875 0.16406,-0.2226562 0.16407,-0.7148438 0.35157,-1.0429688 0.65625,-1.0429688 0.26953,0 0.26953,0.28125 0.26953,0.421875 0,0.070312 -0.0117,0.2109375 -0.0234,0.28125 z m 1.6289,-3.890625 c 0.0352,-0.1757813 0.0352,-0.1875 0.15235,-0.328125 0.24609,-0.3046875 0.65625,-0.6445313 1.05469,-0.6445313 0.42187,0 0.58593,0.421875 0.58593,0.84375 0,0.3984375 -0.24609,1.5117188 -0.52734,1.99218754 -0.30469,0.50390625 -0.67969,0.7734375 -1.00781,0.7734375 -0.58594,0 -0.72657,-0.703125 -0.72657,-0.76171875 0,-0.0585938 0.0117,-0.10546875 0.0234,-0.15234379 z m 6.20801,-0.8671875 c -0.29297,0.058594 -0.44531,0.3046875 -0.44531,0.4921875 0,0.1757812 0.12891,0.328125 0.35156,0.328125 0.23438,0 0.49219,-0.2109375 0.49219,-0.5390625 0,-0.3515625 -0.32813,-0.609375 -0.76172,-0.609375 -0.67969,0 -1.05469,0.5039062 -1.18359,0.6679687 -0.10547,-0.4921875 -0.50391,-0.6679687 -0.84375,-0.6679687 -0.32813,0 -0.52735,0.1992187 -0.67969,0.5039062 -0.17578,0.328125 -0.29297,0.84375 -0.29297,0.8789063 0,0.082031 0.0703,0.1054687 0.12891,0.1054687 0.0937,0 0.11718,-0.046875 0.16406,-0.2226562 0.16406,-0.7148438 0.35156,-1.0429688 0.65625,-1.0429688 0.26953,0 0.26953,0.28125 0.26953,0.421875 0,0.1875 -0.0703,0.46875 -0.11719,0.703125 -0.0703,0.234375 -0.15234,0.609375 -0.19922,0.7265625 l -0.35156,1.46484379 c -0.0703,0.2109375 -0.0703,0.234375 -0.0703,0.2578125 0,0.1171875 0.082,0.2578125 0.28125,0.2578125 0.29297,0 0.35156,-0.234375 0.41016,-0.4921875 0.11718,-0.38671875 0.11718,-0.41015625 0.19921,-0.77343749 0.33985,-1.3476563 0.38672,-1.5585938 0.41016,-1.6054688 0.0469,-0.1054687 0.45703,-0.9609375 1.20703,-0.9609375 0.21094,0 0.32813,0.070312 0.375,0.1054688 z m 2.02735,1.5820312 c 0.53906,0 1.125,0 1.60546,-0.1171875 0.84375,-0.2109375 0.9961,-0.7148437 0.9961,-1.0195312 0,-0.5039063 -0.48047,-0.7734375 -1.00781,-0.7734375 -1.04297,0 -2.40235,0.8789062 -2.40235,2.4140625 0,0.85546874 0.50391,1.64062499 1.46485,1.64062499 1.34765,0 2.09765,-0.92578125 2.09765,-1.04296875 0,-0.0585937 -0.0586,-0.12890624 -0.11719,-0.12890624 -0.0469,0 -0.0586,0.011719 -0.14062,0.10546874 -0.53906,0.66796875 -1.34766,0.84375 -1.81641,0.84375 -0.63281,0 -0.80859,-0.59765625 -0.80859,-1.04296874 0,-0.023437 0,-0.3398438 0.12891,-0.8789063 z m 0.0586,-0.2226562 c 0.39844,-1.4179688 1.39453,-1.4648438 1.53516,-1.4648438 0.30468,0 0.66796,0.140625 0.66796,0.5507813 0,0.9140625 -1.34765,0.9140625 -2.20312,0.9140625 z m 8.85352,-3.8085938 c 0.0352,-0.09375 0.0352,-0.1171875 0.0352,-0.140625 0,-0.011719 -0.0117,-0.09375 -0.11719,-0.09375 -0.0352,0 -0.0469,0 -0.15234,0.1289063 -0.12891,0.140625 -0.0234,0.023437 -0.43359,0.5039062 -0.32813,-0.5039062 -0.85547,-0.6328125 -1.32422,-0.6328125 -1.16016,0 -2.25,1.03125 -2.25,2.0976563 0,0.375 0.11719,0.6796875 0.35156,0.9257812 0.25781,0.2695313 0.48047,0.328125 1.125,0.4921875 l 0.75,0.1875 c 0.29297,0.1054688 0.58594,0.3867188 0.58594,0.890625 0,0.79687504 -0.76172,1.64062504 -1.66406,1.64062504 -0.52735,0 -1.59375,-0.1640625 -1.59375,-1.31250004 0,-0.070312 0,-0.2109375 0.0586,-0.4804687 0.0117,-0.035156 0.0117,-0.046875 0.0117,-0.058594 0,-0.035156 -0.0117,-0.1054687 -0.11719,-0.1054687 -0.11719,0 -0.11719,0.046875 -0.15234,0.1992187 l -0.48047,1.93359379 c 0,0.05859375 0.0469,0.10546875 0.10547,0.10546875 0.0469,0 0.0586,-0.0117188 0.17578,-0.140625 0.0469,-0.05859375 0.3164,-0.38671875 0.42187,-0.4921875 0.46875,0.59765625 1.28907,0.6328125 1.5586,0.6328125 1.23047,0 2.30859,-1.16015625 2.30859,-2.28515624 0,-1.1132813 -0.87891,-1.3359375 -1.14844,-1.40625 l -0.82031,-0.2109375 c -0.29297,-0.070312 -0.84375,-0.2109375 -0.84375,-0.890625 0,-0.6914063 0.71484,-1.4765625 1.61719,-1.4765625 0.35156,0 0.70312,0.1054687 0.96094,0.3515625 0.33984,0.328125 0.33984,0.8203125 0.33984,1.0429687 0,0.3046875 -0.0352,0.3984375 -0.0352,0.46875 0,0.070312 0.0352,0.1171875 0.12891,0.1171875 0.0937,0 0.0937,-0.011719 0.14062,-0.1875 z m 4.65234,3.1640625 c 0.0469,-0.234375 0.15234,-0.6445312 0.15234,-0.6914062 0,-0.1054688 -0.082,-0.2578125 -0.26953,-0.2578125 -0.1289,0 -0.26953,0.082031 -0.32812,0.1875 -0.0469,0.09375 -0.65625,2.5195312 -0.70313,2.82421874 -0.1875,0.31640625 -0.55078,0.7265625 -1.04297,0.7265625 -0.5625,0 -0.5625,-0.5625 -0.5625,-0.7265625 0,-0.41015624 0.11719,-0.84375004 0.50391,-1.85156254 0.0703,-0.2109375 0.12891,-0.328125 0.12891,-0.5039062 0,-0.4335938 -0.32813,-0.75 -0.77344,-0.75 -0.85547,0 -1.21875,1.2773437 -1.21875,1.3828125 0,0.082031 0.0703,0.1054687 0.1289,0.1054687 0.0937,0 0.10547,-0.058594 0.14063,-0.1757812 0.1875,-0.6445313 0.53906,-1.0898438 0.92578,-1.0898438 0.1875,0 0.21094,0.1289063 0.21094,0.2929688 0,0.1523437 -0.0352,0.3164062 -0.11719,0.5273437 -0.42187,1.1132813 -0.53906,1.4882813 -0.53906,1.92187504 0,0.99609375 0.80859,1.08984375 1.14844,1.08984375 0.5039,0 0.8789,-0.3046875 1.08984,-0.5859375 0.16406,0.5859375 0.76172,0.5859375 0.82031,0.5859375 0.25781,0 0.48047,-0.1171875 0.66797,-0.46875 0.16406,-0.29296875 0.29297,-0.86718749 0.29297,-0.90234379 0,-0.046875 -0.0234,-0.1171875 -0.11719,-0.1171875 -0.10547,0 -0.11719,0.046875 -0.15234,0.2226563 -0.17578,0.70312499 -0.36328,1.04296874 -0.66797,1.04296874 -0.22266,0 -0.28125,-0.1875 -0.28125,-0.41015625 0,-0.1640625 0.0469,-0.3515625 0.12891,-0.66796879 l 0.22265,-0.9140625 z m 2.63086,1.5117188 c 0.0937,-0.421875 0.26953,-1.078125 0.26953,-1.1484375 0.0234,-0.058594 0.24609,-0.4804688 0.5625,-0.796875 0.26953,-0.2460938 0.60937,-0.3867188 0.96094,-0.3867188 0.48047,0 0.48047,0.4804688 0.48047,0.6328125 0,0.1054688 0,0.2226563 -0.10547,0.6679688 l -0.21094,0.796875 c -0.28125,1.16015624 -0.35156,1.42968749 -0.35156,1.47656249 0,0.1171875 0.0703,0.2578125 0.26953,0.2578125 0.1289,0 0.25781,-0.0703125 0.32812,-0.1875 0.0234,-0.046875 0.0937,-0.33984375 0.14063,-0.515625 l 0.21094,-0.79687499 c 0.0937,-0.421875 0.26953,-1.078125 0.26953,-1.1484375 0.0234,-0.058594 0.24609,-0.4804688 0.57422,-0.796875 0.25781,-0.2460938 0.59765,-0.3867188 0.94921,-0.3867188 0.48047,0 0.48047,0.4804688 0.48047,0.6328125 0,0.5390625 -0.42187,1.640625 -0.51562,1.9101563 -0.11719,0.28124999 -0.15235,0.37499999 -0.15235,0.53906249 0,0.48046875 0.375,0.75 0.77344,0.75 0.86719,0 1.20703,-1.27734379 1.20703,-1.37109379 0,-0.046875 -0.0234,-0.1171875 -0.11718,-0.1171875 -0.0937,0 -0.10547,0.046875 -0.14063,0.1640625 -0.22266,0.76171879 -0.59766,1.10156254 -0.92578,1.10156254 -0.0586,0 -0.22266,0 -0.22266,-0.28125 0,-0.22265625 0.0937,-0.45703125 0.16407,-0.65625004 0.17578,-0.4570312 0.53906,-1.40625 0.53906,-1.9101562 0,-0.796875 -0.59766,-0.984375 -1.06641,-0.984375 -0.85547,0 -1.32422,0.6328125 -1.47656,0.8554687 -0.0937,-0.7382812 -0.70313,-0.8554687 -1.07813,-0.8554687 -0.83203,0 -1.27734,0.5859375 -1.41796,0.7734375 -0.0586,-0.4804688 -0.42188,-0.7734375 -0.86719,-0.7734375 -0.375,0 -0.5625,0.28125 -0.69141,0.515625 -0.15234,0.3164062 -0.28125,0.8320312 -0.28125,0.8671875 0,0.082031 0.0703,0.1054687 0.12891,0.1054687 0.0937,0 0.11719,-0.046875 0.16406,-0.2226562 0.16406,-0.7148438 0.35156,-1.0429688 0.65625,-1.0429688 0.26953,0 0.26953,0.28125 0.26953,0.421875 0,0.1875 -0.0703,0.46875 -0.11719,0.703125 -0.0703,0.234375 -0.15234,0.609375 -0.19921,0.7265625 l -0.35157,1.46484379 c -0.0703,0.2109375 -0.0703,0.234375 -0.0703,0.2578125 0,0.1171875 0.082,0.2578125 0.28125,0.2578125 0.12891,0 0.25781,-0.0703125 0.32813,-0.1875 0.0234,-0.046875 0.0937,-0.33984375 0.14062,-0.515625 z m 0,0"
         style="fill:#000000;fill-opacity:1;fill-rule:nonzero;stroke:none" />
      <path
         id="path56"
         d="m 151.0167,-2.7990469 c 0,-0.1757812 -0.0234,-0.1757812 -0.19922,-0.1757812 -0.39844,0.375 -1.00782,0.375 -1.21875,0.375 v 0.234375 c 0.15234,0 0.55078,0 0.90234,-0.1640625 v 3.02343748 c 0,0.1875 0,0.26953125 -0.60937,0.26953125 h -0.25782 v 0.234375 c 0.32813,-0.0234375 0.79688,-0.0234375 1.125,-0.0234375 0.33985,0 0.79688,0 1.13672,0.0234375 v -0.234375 h -0.25781 c -0.62109,0 -0.62109,-0.0820313 -0.62109,-0.26953125 z m 0,0"
         style="fill:#000000;fill-opacity:1;fill-rule:nonzero;stroke:none" />
      <path
         id="path57"
         d="m 161.93564,-2.9660391 c 0.11719,0 0.29297,0 0.29297,-0.1875 0,-0.1992187 -0.19922,-0.1992187 -0.32813,-0.1992187 h -5.47265 c -0.14063,0 -0.32813,0 -0.32813,0.1992187 0,0.1875 0.17578,0.1875 0.29297,0.1875 z m -0.0352,1.828125 c 0.12891,0 0.32813,0 0.32813,-0.1992187 0,-0.1875 -0.17578,-0.1875 -0.29297,-0.1875 h -5.54297 c -0.11719,0 -0.29297,0 -0.29297,0.1875 0,0.1992187 0.1875,0.1992187 0.32813,0.1992187 z m 6.1377,-2.015625 c 0.83203,-0.3164062 1.23047,-0.9726562 1.23047,-1.59375 0,-0.6914062 -0.76172,-1.21875 -1.6875,-1.21875 -0.9375,0 -1.64063,0.5273438 -1.64063,1.2070313 0,0.2929687 0.19922,0.46875 0.45703,0.46875 0.26954,0 0.45704,-0.1875 0.45704,-0.4570313 0,-0.3046875 -0.22266,-0.4453125 -0.52735,-0.4453125 0.23438,-0.375 0.78516,-0.5507812 1.21875,-0.5507812 0.75,0 0.89063,0.5859375 0.89063,1.0078125 0,0.2695312 -0.0586,0.703125 -0.28125,1.0429687 -0.26953,0.3984375 -0.58594,0.421875 -0.84375,0.4335938 -0.23438,0.023437 -0.2461,0.023437 -0.31641,0.023437 -0.082,0.011719 -0.15234,0.011719 -0.15234,0.1171875 0,0.1171875 0.0703,0.1171875 0.22265,0.1171875 h 0.42188 c 0.77344,0 1.125,0.6210937 1.125,1.4765625 0,1.14843749 -0.6211,1.46484374 -1.07813,1.46484374 -0.16406,0 -1.03125,-0.03515625 -1.4414,-0.703125 0.32812,0.046875 0.57422,-0.17578125 0.57422,-0.48046874 0,-0.3046875 -0.22266,-0.4921875 -0.48047,-0.4921875 -0.22266,0 -0.49219,0.140625 -0.49219,0.515625 0,0.79687499 0.83203,1.41796874 1.875,1.41796874 1.11328,0 1.95703,-0.80859375 1.95703,-1.72265624 0,-0.7851563 -0.62109,-1.4414063 -1.48828,-1.6289058 z m 6.01465,1.5703125 h -0.2461 c -0.0234,0.1171875 -0.0937,0.64453129 -0.21093,0.78515629 -0.0469,0.0820313 -0.66797,0.0820313 -0.84375,0.0820313 h -1.59375 l 0.8789,-0.84374999 c 1.47657,-1.2773438 2.01563,-1.7460938 2.01563,-2.6601563 0,-1.03125 -0.84375,-1.7460937 -1.94531,-1.7460937 -1.03125,0 -1.73438,0.8085937 -1.73438,1.6289062 0,0.4453125 0.38672,0.4921875 0.46875,0.4921875 0.19922,0 0.46875,-0.140625 0.46875,-0.46875 0,-0.2695312 -0.1875,-0.46875 -0.46875,-0.46875 -0.0469,0 -0.0703,0 -0.10547,0.011719 0.21094,-0.6328125 0.78516,-0.9257813 1.26563,-0.9257813 0.91406,0 1.23047,0.8554688 1.23047,1.4765625 0,0.9140625 -0.69141,1.6523437 -1.125,2.1210937 l -1.64063,1.76953134 c -0.0937,0.10546875 -0.0937,0.1171875 -0.0937,0.328125 h 3.43359 z m 0,0"
         style="fill:#000000;fill-opacity:1;fill-rule:nonzero;stroke:none" />
      <path
         id="path58"
         d="m 182.62216,-2.0519766 c 0.16407,0 0.33985,0 0.33985,-0.1992187 0,-0.1875 -0.1875,-0.1875 -0.33985,-0.1875 h -4.94531 c -0.15234,0 -0.32812,0 -0.32812,0.1875 0,0.1992187 0.16406,0.1992187 0.32812,0.1992187 z m 0,0"
         style="fill:#000000;fill-opacity:1;fill-rule:nonzero;stroke:none" />
      <path
         id="path59"
         d="m 188.51962,-5.7316641 c 0,-0.2226562 -0.0117,-0.234375 -0.23437,-0.234375 -0.5625,0.5625 -1.38281,0.5625 -1.66406,0.5625 v 0.28125 c 0.17578,0 0.71484,0 1.20703,-0.234375 v 4.64062504 c 0,0.328125 -0.0352,0.43359375 -0.86719,0.43359375 h -0.28125 v 0.28125 c 0.31641,-0.0234375 1.11328,-0.0234375 1.48828,-0.0234375 0.36328,0 1.17188,0 1.48828,0.0234375 v -0.28125 h -0.28125 c -0.83203,0 -0.85547,-0.10546875 -0.85547,-0.43359375 z m 6.01465,4.1484375 h -0.24609 c -0.0234,0.1171875 -0.0937,0.64453129 -0.21094,0.78515629 -0.0469,0.0820313 -0.66797,0.0820313 -0.84375,0.0820313 h -1.59375 l 0.87891,-0.84374999 c 1.47656,-1.2773437 2.01562,-1.7460937 2.01562,-2.6601562 0,-1.03125 -0.84375,-1.7460938 -1.94531,-1.7460938 -1.03125,0 -1.73437,0.8085938 -1.73437,1.6289063 0,0.4453125 0.38671,0.4921875 0.46875,0.4921875 0.19921,0 0.46875,-0.140625 0.46875,-0.46875 0,-0.2695313 -0.1875,-0.46875 -0.46875,-0.46875 -0.0469,0 -0.0703,0 -0.10547,0.011719 0.21093,-0.6328125 0.78515,-0.9257812 1.26562,-0.9257812 0.91406,0 1.23047,0.8554687 1.23047,1.4765625 0,0.9140625 -0.69141,1.6523437 -1.125,2.1210937 l -1.64062,1.76953124 c -0.0937,0.10546875 -0.0937,0.1171875 -0.0937,0.328125 h 3.43359 z m 9.37793,-1.3828125 c 0.11719,0 0.29297,0 0.29297,-0.1875 0,-0.1992187 -0.19922,-0.1992187 -0.32812,-0.1992187 h -5.47266 c -0.14062,0 -0.32812,0 -0.32812,0.1992187 0,0.1875 0.17578,0.1875 0.29296,0.1875 z m -0.0352,1.828125 c 0.1289,0 0.32812,0 0.32812,-0.1992187 0,-0.1875 -0.17578,-0.1875 -0.29297,-0.1875 h -5.54297 c -0.11718,0 -0.29296,0 -0.29296,0.1875 0,0.1992187 0.1875,0.1992187 0.32812,0.1992187 z m 7.55273,-0.4453125 h -0.24609 c -0.0234,0.1171875 -0.0937,0.64453129 -0.21094,0.78515629 -0.0469,0.0820313 -0.66797,0.0820313 -0.84375,0.0820313 h -1.59375 l 0.87891,-0.84374999 c 1.47656,-1.2773437 2.01562,-1.7460937 2.01562,-2.6601562 0,-1.03125 -0.84375,-1.7460938 -1.94531,-1.7460938 -1.03125,0 -1.73438,0.8085938 -1.73438,1.6289063 0,0.4453125 0.38672,0.4921875 0.46875,0.4921875 0.19922,0 0.46875,-0.140625 0.46875,-0.46875 0,-0.2695313 -0.1875,-0.46875 -0.46875,-0.46875 -0.0469,0 -0.0703,0 -0.10547,0.011719 0.21094,-0.6328125 0.78516,-0.9257812 1.26563,-0.9257812 0.91406,0 1.23047,0.8554687 1.23047,1.4765625 0,0.9140625 -0.69141,1.6523437 -1.125,2.1210937 l -1.64063,1.76953124 c -0.0937,0.10546875 -0.0937,0.1171875 -0.0937,0.328125 h 3.4336 z m 4.71387,-1.2890625 c 0,-0.5976562 -0.0234,-1.3710937 -0.33985,-2.0390625 -0.39843,-0.84375 -1.07812,-1.0546875 -1.59375,-1.0546875 -0.53906,0 -1.21875,0.2109375 -1.61718,1.0664063 -0.29297,0.6210937 -0.32813,1.3476562 -0.32813,2.0273437 0,0.5859375 0.0117,1.453125 0.39844,2.16796879 0.42187,0.76171875 1.125,0.90234375 1.53516,0.90234375 0.58593,0 1.24218,-0.2578125 1.61718,-1.078125 0.26953,-0.59765624 0.32813,-1.27734374 0.32813,-1.99218754 z m -1.9336,2.84765629 c -0.26953,0 -0.91406,-0.12890625 -1.08984,-1.13671879 -0.0937,-0.5390625 -0.0937,-1.3007812 -0.0937,-1.8164062 0,-0.609375 0,-1.3125 0.11719,-1.8164063 0.17578,-0.796875 0.75,-0.9492187 1.05469,-0.9492187 0.33984,0 0.90234,0.1757812 1.07812,1.0078125 0.0937,0.4921875 0.0937,1.1953125 0.0937,1.7578125 0,0.5507812 0,1.3125 -0.0937,1.8398437 -0.1875,1.01953129 -0.84375,1.11328129 -1.06641,1.11328129 z m 0,0"
         style="fill:#000000;fill-opacity:1;fill-rule:nonzero;stroke:none" />
    </g>
  </g>
</svg>
