<svg xmlns="http://www.w3.org/2000/svg" width="900" height="340" viewBox="0 0 900 340"><rect width="100%" height="100%" fill="white"/><style>
text{font-family:"JetBrains Mono","Consolas","Noto Sans Mono CJK KR",monospace;fill:#202020}
.label{font-size:18px}.small{font-size:14px;fill:#555}.tiny{font-size:13px;fill:#555}
.node{fill:white;stroke:#202020;stroke-width:2}.nodeHi{fill:#eee;stroke:#202020;stroke-width:2.6}
.edge{fill:none;stroke:#777;stroke-width:2}.edgeCut{fill:none;stroke:#202020;stroke-width:2.4;stroke-dasharray:6 5}.edgeHi{fill:none;stroke:#202020;stroke-width:3.2}
.cell{fill:white;stroke:#777;stroke-width:1.2}.cellHi{fill:#eee;stroke:#202020;stroke-width:2}.cellMute{fill:#fafafa;stroke:#bbb;stroke-width:1}
.box{fill:white;stroke:#777;stroke-width:1.2;rx:5}.boxHi{fill:#eee;stroke:#202020;stroke-width:2;rx:5}
.arrow{fill:none;stroke:#202020;stroke-width:1.7;marker-end:url(#arrow)}
</style><defs><marker id="arrow" markerWidth="9" markerHeight="9" refX="7" refY="3" orient="auto"><path d="M0,0 L0,6 L8,3 z" fill="#202020"/></marker></defs><text x="112" y="67" text-anchor="end" class="label">order</text><rect x="130" y="40" width="140" height="42" class="cell"/><text x="200.0" y="67" text-anchor="middle" class="label">1</text><rect x="270" y="40" width="140" height="42" class="cell"/><text x="340.0" y="67" text-anchor="middle" class="label">2</text><rect x="410" y="40" width="140" height="42" class="cell"/><text x="480.0" y="67" text-anchor="middle" class="label">3</text><rect x="550" y="40" width="140" height="42" class="cell"/><text x="620.0" y="67" text-anchor="middle" class="label">4</text><rect x="690" y="40" width="140" height="42" class="cell"/><text x="760.0" y="67" text-anchor="middle" class="label">5</text><text x="112" y="129" text-anchor="end" class="label">query</text><rect x="130" y="102" width="140" height="42" class="cellHi"/><text x="200.0" y="129" text-anchor="middle" class="label">ask 4 5</text><rect x="270" y="102" width="140" height="42" class="cell"/><text x="340.0" y="129" text-anchor="middle" class="label">cut 5</text><rect x="410" y="102" width="140" height="42" class="cellHi"/><text x="480.0" y="129" text-anchor="middle" class="label">ask 4 5</text><rect x="550" y="102" width="140" height="42" class="cellHi"/><text x="620.0" y="129" text-anchor="middle" class="label">ask 3 4</text><rect x="690" y="102" width="140" height="42" class="cell"/><text x="760.0" y="129" text-anchor="middle" class="label">cut 3</text><text x="112" y="231" text-anchor="end" class="label">reverse</text><rect x="130" y="204" width="140" height="42" class="cell"/><text x="200.0" y="231" text-anchor="middle" class="label">cut 3</text><rect x="270" y="204" width="140" height="42" class="cellHi"/><text x="340.0" y="231" text-anchor="middle" class="label">ask 3 4</text><rect x="410" y="204" width="140" height="42" class="cellHi"/><text x="480.0" y="231" text-anchor="middle" class="label">ask 4 5</text><rect x="550" y="204" width="140" height="42" class="cell"/><text x="620.0" y="231" text-anchor="middle" class="label">cut 5</text><rect x="690" y="204" width="140" height="42" class="cellHi"/><text x="760.0" y="231" text-anchor="middle" class="label">ask 4 5</text><path d="M 475 165 L 475 198" class="arrow"/></svg>