<svg xmlns="http://www.w3.org/2000/svg" width="760" height="380" viewBox="0 0 760 380"><rect width="100%" height="100%" fill="white"/><style>
text{font-family:"JetBrains Mono","Consolas","Noto Sans Mono CJK KR",monospace;fill:#202020}
.label{font-size:18px}.small{font-size:14px;fill:#555}.tiny{font-size:13px;fill:#555}
.node{fill:white;stroke:#202020;stroke-width:2}.nodeHi{fill:#eee;stroke:#202020;stroke-width:2.6}
.edge{fill:none;stroke:#777;stroke-width:2}.edgeCut{fill:none;stroke:#202020;stroke-width:2.4;stroke-dasharray:6 5}.edgeHi{fill:none;stroke:#202020;stroke-width:3.2}
.cell{fill:white;stroke:#777;stroke-width:1.2}.cellHi{fill:#eee;stroke:#202020;stroke-width:2}.cellMute{fill:#fafafa;stroke:#bbb;stroke-width:1}
.box{fill:white;stroke:#777;stroke-width:1.2;rx:5}.boxHi{fill:#eee;stroke:#202020;stroke-width:2;rx:5}
.arrow{fill:none;stroke:#202020;stroke-width:1.7;marker-end:url(#arrow)}
</style><defs><marker id="arrow" markerWidth="9" markerHeight="9" refX="7" refY="3" orient="auto"><path d="M0,0 L0,6 L8,3 z" fill="#202020"/></marker></defs><line x1="390" y1="70" x2="270" y2="175" class="edge"/><line x1="390" y1="70" x2="510" y2="175" class="edge"/><line x1="270" y1="175" x2="200" y2="290" class="edge"/><line x1="270" y1="175" x2="340" y2="290" class="edgeCut"/><circle cx="390" cy="70" r="26" class="node"/><text x="390" y="76" text-anchor="middle" class="label">1</text><circle cx="270" cy="175" r="26" class="node"/><text x="270" y="181" text-anchor="middle" class="label">2</text><circle cx="510" cy="175" r="26" class="nodeHi"/><text x="510" y="181" text-anchor="middle" class="label">3</text><circle cx="200" cy="290" r="26" class="nodeHi"/><text x="200" y="296" text-anchor="middle" class="label">4</text><circle cx="340" cy="290" r="26" class="node"/><text x="340" y="296" text-anchor="middle" class="label">5</text><rect x="500" y="65" width="200" height="42" class="boxHi"/><text x="600.0" y="92.0" text-anchor="middle" class="label">ask 3 4</text><rect x="500" y="125" width="200" height="42" class="box"/><text x="600.0" y="152.0" text-anchor="middle" class="label">find(3)==find(4)</text><rect x="500" y="185" width="200" height="42" class="box"/><text x="600.0" y="212.0" text-anchor="middle" class="label">YES</text></svg>