<svg xmlns="http://www.w3.org/2000/svg" width="760" height="310" viewBox="0 0 760 310"><rect width="100%" height="100%" fill="white"/><style>
text{font-family:"JetBrains Mono","Consolas","Noto Sans Mono CJK KR",monospace;fill:#202020}
.label{font-size:18px}.small{font-size:14px;fill:#555}.tiny{font-size:13px;fill:#555}
.node{fill:white;stroke:#202020;stroke-width:2}.nodeHi{fill:#eee;stroke:#202020;stroke-width:2.6}
.edge{fill:none;stroke:#777;stroke-width:2}.edgeCut{fill:none;stroke:#202020;stroke-width:2.4;stroke-dasharray:6 5}.edgeHi{fill:none;stroke:#202020;stroke-width:3.2}
.cell{fill:white;stroke:#777;stroke-width:1.2}.cellHi{fill:#eee;stroke:#202020;stroke-width:2}.cellMute{fill:#fafafa;stroke:#bbb;stroke-width:1}
.box{fill:white;stroke:#777;stroke-width:1.2;rx:5}.boxHi{fill:#eee;stroke:#202020;stroke-width:2;rx:5}
.arrow{fill:none;stroke:#202020;stroke-width:1.7;marker-end:url(#arrow)}
</style><defs><marker id="arrow" markerWidth="9" markerHeight="9" refX="7" refY="3" orient="auto"><path d="M0,0 L0,6 L8,3 z" fill="#202020"/></marker></defs><text x="162" y="72" text-anchor="end" class="label">reverse answer</text><rect x="180" y="45" width="140" height="42" class="cellHi"/><text x="250.0" y="72" text-anchor="middle" class="label">YES</text><rect x="320" y="45" width="140" height="42" class="cellHi"/><text x="390.0" y="72" text-anchor="middle" class="label">NO</text><rect x="460" y="45" width="140" height="42" class="cellHi"/><text x="530.0" y="72" text-anchor="middle" class="label">YES</text><path d="M 390 110 L 390 150" class="arrow"/><text x="162" y="192" text-anchor="end" class="label">output</text><rect x="180" y="165" width="140" height="42" class="cellHi"/><text x="250.0" y="192" text-anchor="middle" class="label">YES</text><rect x="320" y="165" width="140" height="42" class="cellHi"/><text x="390.0" y="192" text-anchor="middle" class="label">NO</text><rect x="460" y="165" width="140" height="42" class="cellHi"/><text x="530.0" y="192" text-anchor="middle" class="label">YES</text><rect x="520" y="138" width="150" height="42" class="box"/><text x="595.0" y="165.0" text-anchor="middle" class="label">stack</text></svg>