<svg xmlns="http://www.w3.org/2000/svg" width="860" height="310" viewBox="0 0 860 310"><rect width="100%" height="100%" fill="white"/><style>
text{font-family:"JetBrains Mono","Consolas","Noto Sans Mono CJK KR",monospace;fill:#202020}
.label{font-size:18px}.small{font-size:14px;fill:#555}.tiny{font-size:13px;fill:#555}
.node{fill:white;stroke:#202020;stroke-width:2}.nodeHi{fill:#eee;stroke:#202020;stroke-width:2.6}
.edge{fill:none;stroke:#777;stroke-width:2}.edgeCut{fill:none;stroke:#202020;stroke-width:2.4;stroke-dasharray:6 5}.edgeHi{fill:none;stroke:#202020;stroke-width:3.2}
.cell{fill:white;stroke:#777;stroke-width:1.2}.cellHi{fill:#eee;stroke:#202020;stroke-width:2}.cellMute{fill:#fafafa;stroke:#bbb;stroke-width:1}
.box{fill:white;stroke:#777;stroke-width:1.2;rx:5}.boxHi{fill:#eee;stroke:#202020;stroke-width:2;rx:5}
.arrow{fill:none;stroke:#202020;stroke-width:1.7;marker-end:url(#arrow)}
</style><defs><marker id="arrow" markerWidth="9" markerHeight="9" refX="7" refY="3" orient="auto"><path d="M0,0 L0,6 L8,3 z" fill="#202020"/></marker></defs><text x="142" y="72" text-anchor="end" class="label">online</text><rect x="160" y="45" width="180" height="42" class="cellHi"/><text x="250.0" y="72" text-anchor="middle" class="label">delete edge</text><rect x="340" y="45" width="180" height="42" class="cell"/><text x="430.0" y="72" text-anchor="middle" class="label">connectivity</text><rect x="520" y="45" width="180" height="42" class="cell"/><text x="610.0" y="72" text-anchor="middle" class="label">hard</text><text x="142" y="152" text-anchor="end" class="label">offline</text><rect x="160" y="125" width="180" height="42" class="cellHi"/><text x="250.0" y="152" text-anchor="middle" class="label">add edge</text><rect x="340" y="125" width="180" height="42" class="cellHi"/><text x="430.0" y="152" text-anchor="middle" class="label">DSU find</text><rect x="520" y="125" width="180" height="42" class="cell"/><text x="610.0" y="152" text-anchor="middle" class="label">easy</text><text x="142" y="232" text-anchor="end" class="label">tool</text><rect x="160" y="205" width="180" height="42" class="cell"/><text x="250.0" y="232" text-anchor="middle" class="label">reverse order</text><rect x="340" y="205" width="180" height="42" class="cell"/><text x="430.0" y="232" text-anchor="middle" class="label">merge</text><rect x="520" y="205" width="180" height="42" class="cell"/><text x="610.0" y="232" text-anchor="middle" class="label">answer stack</text></svg>