<?xml version="1.0" encoding="UTF-8" standalone="no"?>
<!-- Created with Inkscape (http://www.inkscape.org/) -->

<svg
   version="1.1"
   id="svg1"
   width="337.40933"
   height="135.04134"
   viewBox="0 0 337.40933 135.04134"
   sodipodi:docname="2.pdf"
   xmlns:inkscape="http://www.inkscape.org/namespaces/inkscape"
   xmlns:sodipodi="http://sodipodi.sourceforge.net/DTD/sodipodi-0.dtd"
   xmlns="http://www.w3.org/2000/svg"
   xmlns:svg="http://www.w3.org/2000/svg">
  <defs
     id="defs1" />
  <sodipodi:namedview
     id="namedview1"
     pagecolor="#ffffff"
     bordercolor="#000000"
     borderopacity="0.25"
     inkscape:showpageshadow="2"
     inkscape:pageopacity="0.0"
     inkscape:pagecheckerboard="0"
     inkscape:deskcolor="#d1d1d1">
    <inkscape:page
       x="0"
       y="0"
       inkscape:label="1"
       id="page1"
       width="337.40933"
       height="135.04134"
       margin="0"
       bleed="0" />
  </sodipodi:namedview>
  <g
     id="g1"
     inkscape:groupmode="layer"
     inkscape:label="1">
    <path
       id="path1"
       d="M -14.17339,-11.33871 H 14.1734 v 22.67743 h -28.34679 z"
       style="fill:#fafafa;fill-opacity:1;fill-rule:nonzero;stroke:#d1d1d1;stroke-width:0.44832;stroke-linecap:butt;stroke-linejoin:miter;stroke-miterlimit:10;stroke-dasharray:none;stroke-opacity:1"
       transform="matrix(1.3333333,0,0,-1.3333333,25.838667,58.684)" />
    <path
       id="path2"
       d="m 4.2414062,-2.8717266 c 0,-0.5976562 -0.023437,-1.3710937 -0.3398437,-2.0390625 -0.3984375,-0.84375 -1.078125,-1.0546875 -1.59375,-1.0546875 -0.5390625,0 -1.21875,0.2109375 -1.6171875,1.0664063 -0.29296875,0.6210937 -0.328125,1.3476562 -0.328125,2.0273437 0,0.5859375 0.0117188,1.453125 0.3984375,2.16796879 0.421875,0.76171875 1.125,0.90234375 1.5351562,0.90234375 0.5859375,0 1.2421875,-0.2578125 1.6171875,-1.078125 0.2695313,-0.59765624 0.328125,-1.27734374 0.328125,-1.99218754 z m -1.9335937,2.84765629 c -0.2695313,0 -0.9140625,-0.12890625 -1.0898438,-1.13671879 -0.09375,-0.5390625 -0.09375,-1.3007812 -0.09375,-1.8164062 0,-0.609375 0,-1.3125 0.1171875,-1.8164063 0.1757813,-0.796875 0.75,-0.9492187 1.0546875,-0.9492187 0.3398438,0 0.9023438,0.1757812 1.078125,1.0078125 0.09375,0.4921875 0.09375,1.1953125 0.09375,1.7578125 0,0.5507812 0,1.3125 -0.09375,1.8398437 -0.1875,1.01953129 -0.84375,1.11328129 -1.0664062,1.11328129 z m 0,0"
       style="fill:#bfbfbf;fill-opacity:1;fill-rule:nonzero;stroke:none"
       aria-label="0"
       transform="matrix(1.3333333,0,0,1.3333333,22.766667,62.536)" />
    <path
       id="path3"
       d="m 3.5982109,-2.2263906 c 0,-0.7617188 -0.09375,-1.3125 -0.4101562,-1.8046875 -0.2226563,-0.3164063 -0.6445313,-0.5976563 -1.2070313,-0.5976563 -1.61718746,0 -1.61718746,1.8984375 -1.61718746,2.4023438 0,0.5039062 0,2.36718747 1.61718746,2.36718747 1.6171875,0 1.6171875,-1.86328127 1.6171875,-2.36718747 z m -1.6171875,2.16796872 c -0.3164062,0 -0.75,-0.1875 -0.890625,-0.76171875 -0.09375,-0.41015627 -0.09375,-0.98437497 -0.09375,-1.49999997 0,-0.5039063 0,-1.03125 0.1054688,-1.4179688 0.1523437,-0.5507812 0.5976562,-0.6914062 0.8789062,-0.6914062 0.375,0 0.7382813,0.2226562 0.8671875,0.6328125 0.1054688,0.375 0.1171875,0.8789062 0.1171875,1.4765625 0,0.515625 0,1.0429687 -0.09375,1.47656247 -0.140625,0.6328125 -0.609375,0.78515625 -0.890625,0.78515625 z m 0,0"
       style="fill:#737373;fill-opacity:1;fill-rule:nonzero;stroke:none"
       aria-label="0"
       transform="matrix(1.3333333,0,0,1.3333333,23.190667,83.601333)" />
    <path
       id="path4"
       d="M 16.4412,-11.33871 H 44.78799 V 11.33872 H 16.4412 Z"
       style="fill:#fafafa;fill-opacity:1;fill-rule:nonzero;stroke:#d1d1d1;stroke-width:0.44832;stroke-linecap:butt;stroke-linejoin:miter;stroke-miterlimit:10;stroke-dasharray:none;stroke-opacity:1"
       transform="matrix(1.3333333,0,0,-1.3333333,25.838667,58.684)" />
    <path
       id="path5"
       d="m 0.25826562,-1.7584453 v 0.28125 H 2.7074844 v 0.77343749 c 0,0.328125 -0.023437,0.421875 -0.703125,0.421875 h -0.1875 V -6.328125e-4 C 2.3793594,-0.02407031 3.0004531,-0.02407031 3.0707656,-0.02407031 c 0.035156,0 0.6914063,0 1.2539063,0.0234374975 V -0.28188281 H 4.1254531 c -0.6679687,0 -0.703125,-0.09375 -0.703125,-0.421875 V -1.4771953 h 0.9140625 v -0.28125 H 3.4223281 v -4.0664063 c 0,-0.1875 0,-0.2460937 -0.1640625,-0.2460937 -0.1054687,0 -0.1171875,0.011719 -0.1992187,0.140625 z m 0.29296875,0 2.21484373,-3.3164063 v 3.3164063 z m 0,0"
       style="fill:#bfbfbf;fill-opacity:1;fill-rule:nonzero;stroke:none"
       aria-label="4"
       transform="matrix(1.3333333,0,0,1.3333333,63.585333,62.536)" />
    <path
       id="path6"
       d="m 2.3308906,-4.4295156 c 0,-0.1875 -0.011719,-0.1992188 -0.2109375,-0.1992188 -0.4453125,0.4335938 -1.078125,0.4453125 -1.35937497,0.4453125 v 0.2460938 c 0.1640625,0 0.62109377,0 1.00781247,-0.1875 v 3.55078122 c 0,0.234375 0,0.328125 -0.6914062,0.328125 H 0.80745313 V 1.71875e-4 C 0.93635938,-0.01154688 1.7918281,-0.02326563 2.0496406,-0.02326563 c 0.2109375,0 1.0898438,0.01171875 1.2421875,0.023437505 V -0.24592188 H 3.0340156 c -0.703125,0 -0.703125,-0.09375 -0.703125,-0.328125 z m 0,0"
       style="fill:#737373;fill-opacity:1;fill-rule:nonzero;stroke:none"
       aria-label="1"
       transform="matrix(1.3333333,0,0,1.3333333,64.009333,83.601333)" />
    <path
       id="path7"
       d="M 47.0558,-11.33871 H 75.40259 V 11.33872 H 47.0558 Z"
       style="fill:#fafafa;fill-opacity:1;fill-rule:nonzero;stroke:#d1d1d1;stroke-width:0.44832;stroke-linecap:butt;stroke-linejoin:miter;stroke-miterlimit:10;stroke-dasharray:none;stroke-opacity:1"
       transform="matrix(1.3333333,0,0,-1.3333333,25.838667,58.684)" />
    <path
       id="path8"
       d="m 4.3932891,-5.4732891 c 0.082031,-0.09375 0.082031,-0.1171875 0.082031,-0.3046875 h -2.238281 c -1.125,0 -1.1484375,-0.1171875 -1.1835938,-0.28125 H 0.80735156 l -0.29296875,1.875 h 0.24609375 c 0.0351563,-0.2109375 0.10546875,-0.7148437 0.22265625,-0.8203125 0.0703125,-0.046875 0.77343749,-0.046875 0.90234379,-0.046875 h 1.875 l -0.8554688,1.171875 c -1.171875,1.6054688 -1.2773437,3.05859379 -1.2773437,3.57421879 0,0.09375 0,0.50390625 0.4101562,0.50390625 0.421875,0 0.421875,-0.3984375 0.421875,-0.515625 v -0.43359375 c 0,-1.32421879 0.1992188,-2.35546879 0.6796875,-3.01171879 z m 0,0"
       style="fill:#bfbfbf;fill-opacity:1;fill-rule:nonzero;stroke:none"
       aria-label="7"
       transform="matrix(1.3333333,0,0,1.3333333,104.404,62.536)" />
    <path
       id="path9"
       d="m 3.5157187,-1.2654531 h -0.234375 c -0.023437,0.1523437 -0.082031,0.56249997 -0.1757812,0.63281247 -0.058594,0.0351563 -0.5976563,0.0351563 -0.6914063,0.0351563 H 1.1250937 C 1.863375,-1.2420156 2.1094687,-1.4412344 2.519625,-1.7693594 c 0.515625,-0.4101562 0.9960937,-0.84375 0.9960937,-1.5 0,-0.84375 -0.7382812,-1.359375 -1.6289062,-1.359375 -0.8671875,0 -1.453125,0.609375 -1.453125,1.2421875 0,0.3632813 0.3046875,0.3984375 0.375,0.3984375 0.1640625,0 0.375,-0.1171875 0.375,-0.375 0,-0.1289062 -0.058594,-0.3632812 -0.421875,-0.3632812 0.22265625,-0.5039063 0.6914062,-0.65625 1.0195312,-0.65625 0.703125,0 1.0664063,0.5507812 1.0664063,1.1132812 0,0.609375 -0.4335938,1.0898438 -0.65625,1.3359375 L 0.504,-0.26935938 C 0.4336875,-0.21076563 0.4336875,-0.19904688 0.4336875,1.71875e-4 H 3.3165 Z m 0,0"
       style="fill:#737373;fill-opacity:1;fill-rule:nonzero;stroke:none"
       aria-label="2"
       transform="matrix(1.3333333,0,0,1.3333333,104.828,83.601333)" />
    <path
       id="path10"
       d="M 77.67041,-11.33871 H 106.0172 V 11.33872 H 77.67041 Z"
       style="fill:#fafafa;fill-opacity:1;fill-rule:nonzero;stroke:#d1d1d1;stroke-width:0.44832;stroke-linecap:butt;stroke-linejoin:miter;stroke-miterlimit:10;stroke-dasharray:none;stroke-opacity:1"
       transform="matrix(1.3333333,0,0,-1.3333333,25.838667,58.684)" />
    <path
       id="path11"
       d="m 2.7307266,-5.7311016 c 0,-0.2226562 -0.011719,-0.234375 -0.234375,-0.234375 -0.5625,0.5625 -1.3828125,0.5625 -1.66406254,0.5625 v 0.28125 c 0.17578124,0 0.71484374,0 1.20703124,-0.234375 v 4.64062504 c 0,0.328125 -0.035156,0.43359375 -0.8671875,0.43359375 H 0.89088281 V -6.328125e-4 C 1.2072891,-0.02407031 2.0041641,-0.02407031 2.3791641,-0.02407031 c 0.3632812,0 1.171875,0 1.4882812,0.0234374975 V -0.28188281 h -0.28125 c -0.8320312,0 -0.8554687,-0.10546875 -0.8554687,-0.43359375 z m 6.1201172,2.859375 c 0,-0.5976562 -0.023437,-1.3710937 -0.3398438,-2.0390625 -0.3984375,-0.84375 -1.078125,-1.0546875 -1.59375,-1.0546875 -0.5390625,0 -1.21875,0.2109375 -1.6171875,1.0664063 -0.2929687,0.6210937 -0.328125,1.3476562 -0.328125,2.0273437 0,0.5859375 0.011719,1.453125 0.3984375,2.16796879 0.421875,0.76171875 1.125,0.90234375 1.5351563,0.90234375 0.5859375,0 1.2421875,-0.2578125 1.6171875,-1.078125 C 8.79225,-1.4771953 8.8508438,-2.1568828 8.8508438,-2.8717266 Z M 6.91725,-0.02407031 c -0.2695312,0 -0.9140625,-0.12890625 -1.0898437,-1.13671879 -0.09375,-0.5390625 -0.09375,-1.3007812 -0.09375,-1.8164062 0,-0.609375 0,-1.3125 0.1171875,-1.8164063 0.1757812,-0.796875 0.75,-0.9492187 1.0546875,-0.9492187 0.3398437,0 0.9023437,0.1757812 1.078125,1.0078125 0.09375,0.4921875 0.09375,1.1953125 0.09375,1.7578125 0,0.5507812 0,1.3125 -0.09375,1.8398437 -0.1875,1.01953129 -0.84375,1.11328129 -1.0664063,1.11328129 z m 0,0"
       style="fill:#bfbfbf;fill-opacity:1;fill-rule:nonzero;stroke:none"
       aria-label="10"
       transform="matrix(1.3333333,0,0,1.3333333,142.152,62.536)" />
    <path
       id="path12"
       d="m 1.8987656,-2.3318594 c 0.5507813,0 0.9375,0.375 0.9375,1.125 0,0.86718752 -0.5039062,1.12500002 -0.9023437,1.12500002 -0.28125,0 -0.890625,-0.08203125 -1.18359377,-0.4921875 0.32812497,-0.0117188 0.39843747,-0.24609375 0.39843747,-0.38671875 0,-0.22265627 -0.16406247,-0.38671877 -0.38671872,-0.38671877 -0.1875,0 -0.38671875,0.1171875 -0.38671875,0.41015627 0,0.65625 0.72656247,1.078125 1.57031247,1.078125 0.9726563,0 1.640625,-0.64453125 1.640625,-1.34765627 0,-0.5390625 -0.4453125,-1.0898437 -1.21875,-1.2421875 0.7382813,-0.2695312 0.9960938,-0.796875 0.9960938,-1.21875 0,-0.5507812 -0.6328125,-0.9609375 -1.40625,-0.9609375 -0.7734375,0 -1.35937502,0.375 -1.35937502,0.9375 0,0.234375 0.15234375,0.3632813 0.36328125,0.3632813 0.21093747,0 0.35156247,-0.1640625 0.35156247,-0.3515625 0,-0.1992188 -0.140625,-0.3515625 -0.35156247,-0.3632813 0.23437497,-0.3046875 0.71484377,-0.3867187 0.97265627,-0.3867187 0.3164062,0 0.7617187,0.1523437 0.7617187,0.7617187 0,0.2929688 -0.1054687,0.609375 -0.28125,0.8320313 -0.234375,0.2578125 -0.421875,0.28125 -0.7734375,0.2929687 -0.1757812,0.023437 -0.1875,0.023437 -0.2226562,0.023437 -0.011719,0 -0.070312,0.011719 -0.070312,0.09375 0,0.09375 0.058594,0.09375 0.1757812,0.09375 z m 0,0"
       style="fill:#737373;fill-opacity:1;fill-rule:nonzero;stroke:none"
       aria-label="3"
       transform="matrix(1.3333333,0,0,1.3333333,145.648,83.601333)" />
    <path
       id="path13"
       d="m 108.285,-11.33871 h 28.34679 V 11.33872 H 108.285 Z"
       style="fill:#ffffff;fill-opacity:1;fill-rule:nonzero;stroke:#666666;stroke-width:0.44832;stroke-linecap:butt;stroke-linejoin:miter;stroke-miterlimit:10;stroke-dasharray:none;stroke-opacity:1"
       transform="matrix(1.3333333,0,0,-1.3333333,25.838667,58.684)" />
    <path
       id="path14"
       d="m 2.7290312,-5.7311016 c 0,-0.2226562 -0.011719,-0.234375 -0.234375,-0.234375 -0.5625,0.5625 -1.3828125,0.5625 -1.66406245,0.5625 v 0.28125 c 0.17578125,0 0.71484375,0 1.20703125,-0.234375 v 4.64062504 c 0,0.328125 -0.035156,0.43359375 -0.8671875,0.43359375 h -0.28125 V -6.328125e-4 C 1.2055937,-0.02407031 2.0024687,-0.02407031 2.3774687,-0.02407031 c 0.3632813,0 1.171875,0 1.4882813,0.0234374975 V -0.28188281 H 3.5845 c -0.8320313,0 -0.8554688,-0.10546875 -0.8554688,-0.43359375 z m 2.8154297,2.6367188 c 0,0.1640625 0,0.2578125 0.1171875,0.2578125 0.070312,0 0.1054688,-0.035156 0.1523438,-0.1171875 0.2695312,-0.375 0.703125,-0.5859375 1.171875,-0.5859375 0.9609375,0 0.9609375,1.3828125 0.9609375,1.6992187 0,0.28125 0,0.8320313 -0.2578125,1.24218754 -0.234375,0.375 -0.6210938,0.5390625 -0.9609375,0.5390625 -0.5390625,0 -1.1367188,-0.328125 -1.3476563,-0.99609374 0.011719,0 0.058594,0.023437 0.1171875,0.023437 0.1875,0 0.4453125,-0.1171875 0.4453125,-0.4335938 0,-0.28125 -0.1992187,-0.4453125 -0.4453125,-0.4453125 -0.1875,0 -0.4335937,0.1054688 -0.4335937,0.46875 0,0.80859379 0.6796875,1.64062504 1.6757812,1.64062504 1.0898438,0 2.0039063,-0.87890625 2.0039063,-1.99218754 0,-1.0898437 -0.7617188,-1.96875 -1.7460938,-1.96875 -0.421875,0 -0.8671875,0.140625 -1.1835937,0.4570313 v -1.7578125 c 0.2695312,0.082031 0.5507812,0.1171875 0.8320312,0.1171875 1.1015625,0 1.7460938,-0.796875 1.7460938,-0.9140625 0,-0.070312 -0.058594,-0.1054688 -0.1054688,-0.1054688 -0.011719,0 -0.035156,0 -0.1171875,0.035156 -0.4101562,0.1757812 -0.8320312,0.2460937 -1.2070312,0.2460937 -0.3867188,0 -0.7851563,-0.070312 -1.1953125,-0.2460937 -0.09375,-0.035156 -0.1054688,-0.035156 -0.1171875,-0.035156 -0.1054688,0 -0.1054688,0.082031 -0.1054688,0.234375 z m 0,0"
       style="fill:#000000;fill-opacity:1;fill-rule:nonzero;stroke:none"
       aria-label="15"
       transform="matrix(1.3333333,0,0,1.3333333,182.97067,62.536)" />
    <path
       id="path15"
       d="M 3.6900391,-1.1482656 V -1.3943594 H 2.9166016 v -3.1054687 c 0,-0.1523438 0,-0.1992188 -0.1523438,-0.1992188 -0.09375,0 -0.1171875,0 -0.1875,0.09375 l -2.30859374,3.2109375 v 0.2460938 H 2.3189453 v 0.57421872 c 0,0.234375 0,0.328125 -0.5625,0.328125 h -0.1875 V 1.71875e-4 c 0.3515625,-0.011718755 0.796875,-0.023437505 1.0429688,-0.023437505 0.2578125,0 0.703125,0.01171875 1.0546875,0.023437505 V -0.24592188 h -0.1875 c -0.5625,0 -0.5625,-0.09375 -0.5625,-0.328125 V -1.1482656 Z M 2.3658203,-3.9490469 v 2.5546875 H 0.52597656 Z m 0,0"
       style="fill:#737373;fill-opacity:1;fill-rule:nonzero;stroke:none"
       aria-label="4"
       transform="matrix(1.3333333,0,0,1.3333333,186.46667,83.601333)" />
    <path
       id="path16"
       d="M 138.89961,-11.33871 H 167.2464 V 11.33872 H 138.89961 Z"
       style="fill:#e0e0e0;fill-opacity:1;fill-rule:nonzero;stroke:#000000;stroke-width:0.84683;stroke-linecap:butt;stroke-linejoin:miter;stroke-miterlimit:10;stroke-dasharray:none;stroke-opacity:1"
       transform="matrix(1.3333333,0,0,-1.3333333,25.838667,58.684)" />
    <path
       id="path17"
       d="M 4.1365156,-1.5826641 H 3.8904219 c -0.023437,0.1171875 -0.09375,0.64453129 -0.2109375,0.78515629 -0.046875,0.0820313 -0.6679688,0.0820313 -0.84375,0.0820313 h -1.59375 L 2.1208906,-1.5592266 c 1.4765625,-1.2773437 2.015625,-1.7460937 2.015625,-2.6601562 0,-1.03125 -0.84375,-1.7460938 -1.9453125,-1.7460938 -1.03125,0 -1.73437497,0.8085938 -1.73437497,1.6289063 0,0.4453125 0.38671875,0.4921875 0.46875,0.4921875 0.19921877,0 0.46874997,-0.140625 0.46874997,-0.46875 0,-0.2695313 -0.1875,-0.46875 -0.46874997,-0.46875 -0.046875,0 -0.0703125,0 -0.10546875,0.011719 C 1.0310469,-5.4029763 1.6052656,-5.695945 2.0857344,-5.695945 c 0.9140625,0 1.2304687,0.8554687 1.2304687,1.4765625 0,0.9140625 -0.6914062,1.6523437 -1.125,2.1210937 l -1.64062497,1.76953129 c -0.09375,0.10546875 -0.09375,0.1171875 -0.09375,0.3281249975 H 3.8904219 Z m 4.7138672,-1.2890625 c 0,-0.5976562 -0.023437,-1.3710937 -0.3398437,-2.0390625 -0.3984375,-0.84375 -1.078125,-1.0546875 -1.59375,-1.0546875 -0.5390625,0 -1.21875,0.2109375 -1.6171875,1.0664063 -0.2929688,0.6210937 -0.328125,1.3476562 -0.328125,2.0273437 0,0.5859375 0.011719,1.453125 0.3984375,2.16796879 0.421875,0.76171875 1.125,0.90234375 1.5351562,0.90234375 0.5859375,0 1.2421875,-0.2578125 1.6171875,-1.078125 0.2695313,-0.59765624 0.328125,-1.27734374 0.328125,-1.99218754 z m -1.9335937,2.84765629 c -0.2695313,0 -0.9140625,-0.12890625 -1.0898438,-1.13671879 -0.09375,-0.5390625 -0.09375,-1.3007812 -0.09375,-1.8164062 0,-0.609375 0,-1.3125 0.1171875,-1.8164063 0.1757813,-0.796875 0.75,-0.9492187 1.0546875,-0.9492187 0.3398438,0 0.9023438,0.1757812 1.078125,1.0078125 0.09375,0.4921875 0.09375,1.1953125 0.09375,1.7578125 0,0.5507812 0,1.3125 -0.09375,1.8398437 -0.1875,1.01953129 -0.84375,1.11328129 -1.0664062,1.11328129 z m 0,0"
       style="fill:#000000;fill-opacity:1;fill-rule:nonzero;stroke:none"
       aria-label="20"
       transform="matrix(1.3333333,0,0,1.3333333,223.78933,62.536)" />
    <path
       id="path18"
       d="m 1.0779922,-3.8904531 c 0.3632812,0.09375 0.5625,0.09375 0.6796875,0.09375 0.9140625,0 1.4648437,-0.6328125 1.4648437,-0.7382813 0,-0.070312 -0.046875,-0.09375 -0.082031,-0.09375 -0.011719,0 -0.035156,0 -0.058594,0.023437 -0.1640625,0.058594 -0.5390625,0.1992188 -1.0546875,0.1992188 -0.1992187,0 -0.5625,-0.011719 -1.0195312,-0.1875 -0.0703125,-0.035156 -0.0820313,-0.035156 -0.0820313,-0.035156 -0.09375,0 -0.09375,0.070312 -0.09375,0.1875 v 2.0625 c 0,0.1171875 0,0.1992188 0.10546875,0.1992188 0.0703124,0 0.0703124,-0.011719 0.14062505,-0.1054688 0.3046875,-0.375 0.7265625,-0.4335937 0.9726562,-0.4335937 0.421875,0 0.609375,0.3398437 0.6445313,0.3867187 0.1171875,0.234375 0.1640625,0.5039063 0.1640625,0.9023438 0,0.2109375 0,0.62109372 -0.2109375,0.92578122 -0.1757813,0.2578125 -0.46875,0.421875 -0.8203125,0.421875 -0.4453125,0 -0.91406255,-0.2578125 -1.0898438,-0.71484375 0.2695313,0.0234375 0.3984375,-0.15234375 0.3984375,-0.33984377 0,-0.3046875 -0.2578125,-0.3515625 -0.3515625,-0.3515625 -0.0117188,0 -0.3515625,0 -0.3515625,0.375 0,0.62109377 0.5742188,1.25390627 1.4179688,1.25390627 0.890625,0 1.6640625,-0.66796875 1.6640625,-1.54687497 0,-0.7851563 -0.5976563,-1.5117188 -1.453125,-1.5117188 -0.3164063,0 -0.6796875,0.082031 -0.984375,0.3398438 z m 0,0"
       style="fill:#737373;fill-opacity:1;fill-rule:nonzero;stroke:none"
       aria-label="5"
       transform="matrix(1.3333333,0,0,1.3333333,227.28533,83.601333)" />
    <path
       id="path19"
       d="m 169.51422,-11.33871 h 28.34679 v 22.67743 h -28.34679 z"
       style="fill:#ffffff;fill-opacity:1;fill-rule:nonzero;stroke:#666666;stroke-width:0.44832;stroke-linecap:butt;stroke-linejoin:miter;stroke-miterlimit:10;stroke-dasharray:none;stroke-opacity:1"
       transform="matrix(1.3333333,0,0,-1.3333333,25.838667,58.684)" />
    <path
       id="path20"
       d="m 2.7315,-3.1529766 c 0.8320312,-0.3164062 1.2304687,-0.9726562 1.2304687,-1.59375 0,-0.6914062 -0.7617187,-1.21875 -1.6875,-1.21875 -0.9375,0 -1.64062495,0.5273438 -1.64062495,1.2070313 0,0.2929687 0.19921875,0.46875 0.45703125,0.46875 0.2695312,0 0.4570312,-0.1875 0.4570312,-0.4570313 0,-0.3046875 -0.2226562,-0.4453125 -0.5273437,-0.4453125 0.234375,-0.375 0.7851562,-0.5507812 1.21875,-0.5507812 0.75,0 0.890625,0.5859375 0.890625,1.0078125 0,0.2695312 -0.058594,0.703125 -0.28125,1.0429687 -0.2695313,0.3984375 -0.5859375,0.421875 -0.84375,0.4335938 -0.234375,0.023437 -0.2460938,0.023437 -0.3164063,0.023437 -0.082031,0.011719 -0.1523437,0.011719 -0.1523437,0.1171875 0,0.1171875 0.070312,0.1171875 0.2226562,0.1171875 h 0.421875 c 0.7734375,0 1.125,0.6210937 1.125,1.4765625 0,1.14843749 -0.6210937,1.46484374 -1.078125,1.46484374 -0.1640625,0 -1.03125,-0.03515625 -1.4414062,-0.703125 0.328125,0.046875 0.5742187,-0.17578125 0.5742187,-0.48046874 0,-0.3046875 -0.2226562,-0.4921875 -0.4804687,-0.4921875 -0.22265625,0 -0.4921875,0.140625 -0.4921875,0.515625 0,0.79687499 0.8320312,1.41796874 1.875,1.41796874 1.1132812,0 1.9570312,-0.80859375 1.9570312,-1.72265624 0,-0.7851563 -0.6210937,-1.4414063 -1.4882812,-1.6289058 z m 6.1171875,0.28125 c 0,-0.5976562 -0.023437,-1.3710937 -0.3398438,-2.0390625 -0.3984375,-0.84375 -1.078125,-1.0546875 -1.59375,-1.0546875 -0.5390625,0 -1.21875,0.2109375 -1.6171875,1.0664063 -0.2929687,0.6210937 -0.328125,1.3476562 -0.328125,2.0273437 0,0.5859375 0.011719,1.453125 0.3984375,2.16796879 0.421875,0.76171875 1.125,0.90234375 1.5351563,0.90234375 0.5859375,0 1.2421875,-0.2578125 1.6171875,-1.078125 0.2695312,-0.59765624 0.328125,-1.27734374 0.328125,-1.99218754 z m -1.9335938,2.84765629 c -0.2695312,0 -0.9140625,-0.12890625 -1.0898437,-1.13671879 C 5.7315,-1.6998516 5.7315,-2.4615703 5.7315,-2.9771953 c 0,-0.609375 0,-1.3125 0.1171875,-1.8164063 0.1757812,-0.796875 0.75,-0.9492187 1.0546875,-0.9492187 0.3398437,0 0.9023437,0.1757812 1.078125,1.0078125 0.09375,0.4921875 0.09375,1.1953125 0.09375,1.7578125 0,0.5507812 0,1.3125 -0.09375,1.8398437 -0.1875,1.01953129 -0.84375,1.11328129 -1.0664063,1.11328129 z m 0,0"
       style="fill:#000000;fill-opacity:1;fill-rule:nonzero;stroke:none"
       aria-label="30"
       transform="matrix(1.3333333,0,0,1.3333333,264.608,62.536)" />
    <path
       id="path21"
       d="m 1.0440703,-2.2849844 c 0,-0.5625 0.046875,-1.078125 0.3164063,-1.5117187 0.234375,-0.375 0.609375,-0.6328125 1.0546875,-0.6328125 0.2109375,0 0.4921875,0.058594 0.6328125,0.2460937 -0.1757813,0.011719 -0.3164063,0.1289063 -0.3164063,0.3398438 0,0.1640625 0.1171875,0.328125 0.328125,0.328125 0.1992188,0 0.328125,-0.140625 0.328125,-0.3515625 0,-0.3984375 -0.2929687,-0.7617188 -0.984375,-0.7617188 -0.9960937,0 -2.02734374,0.9140625 -2.02734374,2.4140625 0,1.80468752 0.85546874,2.35546877 1.61718754,2.35546877 0.8554687,0 1.59375,-0.64453125 1.59375,-1.55859377 0,-0.890625 -0.703125,-1.546875 -1.5234375,-1.546875 -0.5507813,0 -0.8671875,0.375 -1.0195313,0.6796875 z m 0.9492188,2.20312502 c -0.3515625,0 -0.6210938,-0.19921875 -0.7617188,-0.515625 C 1.1261016,-0.79670313 1.0675078,-1.1482656 1.0675078,-1.5701406 c 0,-0.6796875 0.4101563,-1.1953125 0.9609375,-1.1953125 0.328125,0 0.5390625,0.1171875 0.7148438,0.3867187 0.1640625,0.2578125 0.1757812,0.5507813 0.1757812,0.9609375 0,0.3984375 0,0.69140627 -0.1875,0.96093752 -0.1757812,0.24609375 -0.3984375,0.375 -0.7382812,0.375 z m 0,0"
       style="fill:#737373;fill-opacity:1;fill-rule:nonzero;stroke:none"
       aria-label="6"
       transform="matrix(1.3333333,0,0,1.3333333,268.104,83.601333)" />
    <path
       id="path22"
       d="m 200.12885,-11.33871 h 28.34679 v 22.67743 h -28.34679 z"
       style="fill:#ffffff;fill-opacity:1;fill-rule:nonzero;stroke:#666666;stroke-width:0.44832;stroke-linecap:butt;stroke-linejoin:miter;stroke-miterlimit:10;stroke-dasharray:none;stroke-opacity:1"
       transform="matrix(1.3333333,0,0,-1.3333333,25.838667,58.684)" />
    <path
       id="path23"
       d="m 2.7298047,-3.1529766 c 0.8320312,-0.3164062 1.2304687,-0.9726562 1.2304687,-1.59375 0,-0.6914062 -0.7617187,-1.21875 -1.6875,-1.21875 -0.9375,0 -1.64062496,0.5273438 -1.64062496,1.2070313 0,0.2929687 0.19921875,0.46875 0.45703126,0.46875 0.2695312,0 0.4570312,-0.1875 0.4570312,-0.4570313 0,-0.3046875 -0.2226562,-0.4453125 -0.5273437,-0.4453125 0.234375,-0.375 0.7851562,-0.5507812 1.21875,-0.5507812 0.75,0 0.890625,0.5859375 0.890625,1.0078125 0,0.2695312 -0.058594,0.703125 -0.28125,1.0429687 -0.2695313,0.3984375 -0.5859375,0.421875 -0.84375,0.4335938 -0.234375,0.023437 -0.2460938,0.023437 -0.3164063,0.023437 -0.082031,0.011719 -0.1523437,0.011719 -0.1523437,0.1171875 0,0.1171875 0.070312,0.1171875 0.2226562,0.1171875 h 0.421875 c 0.7734375,0 1.125,0.6210937 1.125,1.4765625 0,1.14843749 -0.6210937,1.46484374 -1.078125,1.46484374 -0.1640625,0 -1.03125,-0.03515625 -1.44140621,-0.703125 0.32812501,0.046875 0.57421871,-0.17578125 0.57421871,-0.48046874 0,-0.3046875 -0.2226562,-0.4921875 -0.48046871,-0.4921875 -0.22265625,0 -0.4921875,0.140625 -0.4921875,0.515625 0,0.79687499 0.83203121,1.41796874 1.87500001,1.41796874 1.1132812,0 1.9570312,-0.80859375 1.9570312,-1.72265624 0,-0.7851563 -0.6210937,-1.4414063 -1.4882812,-1.6289058 z m 2.8154297,0.058594 c 0,0.1640625 0,0.2578125 0.1171875,0.2578125 0.070312,0 0.1054687,-0.035156 0.1523437,-0.1171875 0.2695313,-0.375 0.703125,-0.5859375 1.171875,-0.5859375 0.9609375,0 0.9609375,1.3828125 0.9609375,1.6992187 0,0.28125 0,0.8320313 -0.2578125,1.24218754 -0.234375,0.375 -0.6210937,0.5390625 -0.9609375,0.5390625 -0.5390625,0 -1.1367187,-0.328125 -1.3476562,-0.99609374 0.011719,0 0.058594,0.023437 0.1171875,0.023437 0.1875,0 0.4453125,-0.1171875 0.4453125,-0.4335938 0,-0.28125 -0.1992188,-0.4453125 -0.4453125,-0.4453125 -0.1875,0 -0.4335938,0.1054688 -0.4335938,0.46875 0,0.80859379 0.6796875,1.64062504 1.6757813,1.64062504 1.0898437,0 2.0039062,-0.87890625 2.0039062,-1.99218754 0,-1.0898437 -0.7617187,-1.96875 -1.7460937,-1.96875 -0.421875,0 -0.8671875,0.140625 -1.1835938,0.4570313 v -1.7578125 c 0.2695313,0.082031 0.5507813,0.1171875 0.8320313,0.1171875 1.1015625,0 1.7460937,-0.796875 1.7460937,-0.9140625 0,-0.070312 -0.058594,-0.1054688 -0.1054687,-0.1054688 -0.011719,0 -0.035156,0 -0.1171875,0.035156 -0.4101563,0.1757812 -0.8320313,0.2460937 -1.2070313,0.2460937 -0.3867187,0 -0.7851562,-0.070312 -1.1953125,-0.2460937 -0.09375,-0.035156 -0.1054687,-0.035156 -0.1171875,-0.035156 -0.1054687,0 -0.1054687,0.082031 -0.1054687,0.234375 z m 0,0"
       style="fill:#000000;fill-opacity:1;fill-rule:nonzero;stroke:none"
       aria-label="35"
       transform="matrix(1.3333333,0,0,1.3333333,305.42667,62.536)" />
    <path
       id="path24"
       d="m 3.7278984,-4.2068594 c 0.070312,-0.09375 0.070312,-0.1054687 0.070312,-0.28125 h -1.828125 c -0.2695312,0 -0.3515625,-0.011719 -0.5976562,-0.035156 -0.3632813,-0.023437 -0.38671876,-0.070312 -0.39843751,-0.1875 H 0.72789844 l -0.234375,1.4882812 h 0.234375 c 0.0117188,-0.1054687 0.0820313,-0.5625 0.19921875,-0.6328125 0.046875,-0.046875 0.60937501,-0.046875 0.71484371,-0.046875 h 1.5234375 c -0.2226562,0.2929688 -0.5742187,0.7265625 -0.7265625,0.9257813 -0.9140625,1.1953125 -0.9960937,2.30859372 -0.9960937,2.71874997 0,0.0820312 0,0.3984375 0.328125,0.3984375 0.3398437,0 0.3398437,-0.31640625 0.3398437,-0.41015625 v -0.26953125 c 0,-1.35937497 0.2695313,-1.98046877 0.5742188,-2.35546877 z m 0,0"
       style="fill:#737373;fill-opacity:1;fill-rule:nonzero;stroke:none"
       aria-label="7"
       transform="matrix(1.3333333,0,0,1.3333333,308.924,83.601333)" />
    <path
       id="path25"
       d="m 2.3073594,-5.9176484 c 0.035156,-0.1289063 0.035156,-0.140625 0.035156,-0.1757813 0,-0.082031 -0.046875,-0.1289062 -0.1289062,-0.1289062 -0.1523438,0 -0.9023438,0.070312 -1.0898438,0.09375 -0.070312,0.011719 -0.18749997,0.011719 -0.18749997,0.1640625 0,0.1171875 0.10546877,0.1171875 0.23437497,0.1171875 0.421875,0 0.421875,0.070312 0.421875,0.140625 0,0.046875 0,0.058594 -0.046875,0.2226562 l -1.10156247,4.40625 c -0.046875,0.18750001 -0.046875,0.30468751 -0.046875,0.33984376 0,0.5625 0.45703125,0.83203125 0.85546877,0.83203125 0.4101562,0 0.5976562,-0.31640625 0.6914062,-0.515625 0.1640625,-0.31640625 0.2695313,-0.83203121 0.2695313,-0.85546871 0,-0.046875 -0.023437,-0.1171875 -0.1171875,-0.1171875 -0.1054688,0 -0.1171875,0.046875 -0.1523438,0.2226562 -0.1523437,0.60937501 -0.328125,1.04296876 -0.6679687,1.04296876 -0.1757813,0 -0.2695313,-0.1171875 -0.2695313,-0.41015625 0,-0.1875 0.011719,-0.24609375 0.046875,-0.3984375 z m 0,0"
       style="fill:#000000;fill-opacity:1;fill-rule:nonzero;stroke:none"
       aria-label="l"
       transform="matrix(1.3333333,0,0,1.3333333,187.18133,19.370667)" />
    <path
       id="path26"
       d="M 122.4584,25.96545 V 17.32582"
       style="fill:none;stroke:#000000;stroke-width:0.49814;stroke-linecap:butt;stroke-linejoin:miter;stroke-miterlimit:10;stroke-dasharray:none;stroke-opacity:1"
       transform="matrix(1.3333333,0,0,-1.3333333,25.838667,58.684)" />
    <path
       id="path27"
       d="M 3.54292,0 C 3.10782,0.10701 1.19533,0.71347 0,1.37344 V -1.37344 C 1.19533,-0.71347 3.10782,-0.10701 3.54292,0 Z"
       style="fill:#000000;fill-opacity:1;fill-rule:nonzero;stroke:#000000;stroke-width:0.49814;stroke-linecap:butt;stroke-linejoin:miter;stroke-miterlimit:10;stroke-dasharray:none;stroke-opacity:1"
       transform="matrix(0,1.3333333,1.3333333,0,189.11653,35.582907)" />
    <path
       id="path28"
       d="m 1.6988672,-1.4065234 c 0.09375,-0.421875 0.2695312,-1.078125 0.2695312,-1.1484375 0.023437,-0.058594 0.2460938,-0.4804688 0.5625,-0.796875 0.2695313,-0.2460938 0.609375,-0.3867188 0.9609375,-0.3867188 0.4804688,0 0.4804688,0.4804688 0.4804688,0.6328125 0,0.1054688 0,0.2226563 -0.1054688,0.6679688 l -0.2109375,0.796875 c -0.28125,1.16015621 -0.3515625,1.42968746 -0.3515625,1.47656246 0,0.1171875 0.070312,0.2578125 0.2695313,0.2578125 0.1289062,0 0.2578125,-0.0703125 0.328125,-0.1875 0.023437,-0.046875 0.09375,-0.33984375 0.140625,-0.515625 L 4.2535547,-1.4065234 c 0.09375,-0.421875 0.2695312,-1.078125 0.2695312,-1.1484375 0.023437,-0.058594 0.2460938,-0.4804688 0.5742188,-0.796875 0.2578125,-0.2460938 0.5976562,-0.3867188 0.9492187,-0.3867188 0.4804688,0 0.4804688,0.4804688 0.4804688,0.6328125 0,0.5390625 -0.421875,1.640625 -0.515625,1.9101563 -0.1171875,0.28124996 -0.1523438,0.37499996 -0.1523438,0.53906246 0,0.48046875 0.375,0.75 0.7734375,0.75 0.8671875,0 1.2070313,-1.27734376 1.2070313,-1.37109376 0,-0.046875 -0.023437,-0.1171875 -0.1171875,-0.1171875 -0.09375,0 -0.1054688,0.046875 -0.140625,0.1640625 -0.2226563,0.76171876 -0.5976563,1.10156251 -0.9257813,1.10156251 -0.058594,0 -0.2226562,0 -0.2226562,-0.28125 0,-0.22265625 0.09375,-0.45703125 0.1640625,-0.65625001 0.1757812,-0.4570312 0.5390625,-1.40625 0.5390625,-1.9101562 0,-0.796875 -0.5976563,-0.984375 -1.0664063,-0.984375 -0.8554687,0 -1.3242187,0.6328125 -1.4765625,0.8554687 -0.09375,-0.7382812 -0.703125,-0.8554687 -1.078125,-0.8554687 -0.8320312,0 -1.2773437,0.5859375 -1.4179687,0.7734375 -0.058594,-0.4804688 -0.421875,-0.7734375 -0.8671875,-0.7734375 -0.37500001,0 -0.56250001,0.28125 -0.69140626,0.515625 -0.15234375,0.3164062 -0.28125,0.8320312 -0.28125,0.8671875 0,0.082031 0.0703125,0.1054687 0.12890625,0.1054687 0.09375,0 0.1171875,-0.046875 0.1640625,-0.2226562 0.1640625,-0.7148438 0.3515625,-1.0429688 0.65625001,-1.0429688 0.2695312,0 0.2695312,0.28125 0.2695312,0.421875 0,0.1875 -0.070312,0.46875 -0.1171875,0.703125 -0.070312,0.234375 -0.1523437,0.609375 -0.1992187,0.7265625 l -0.35156251,1.46484376 c -0.0703125,0.2109375 -0.0703125,0.234375 -0.0703125,0.2578125 0,0.1171875 0.0820313,0.2578125 0.28125001,0.2578125 0.1289062,0 0.2578125,-0.0703125 0.328125,-0.1875 0.023437,-0.046875 0.09375,-0.33984375 0.140625,-0.515625 z m 0,0"
       style="fill:#000000;fill-opacity:1;fill-rule:nonzero;stroke:none"
       aria-label="m"
       transform="matrix(1.3333333,0,0,1.3333333,224.52,17.793333)" />
    <path
       id="path29"
       d="M 153.07259,27.14854 V 17.32582"
       style="fill:none;stroke:#000000;stroke-width:0.49814;stroke-linecap:butt;stroke-linejoin:miter;stroke-miterlimit:10;stroke-dasharray:none;stroke-opacity:1"
       transform="matrix(1.3333333,0,0,-1.3333333,25.838667,58.684)" />
    <path
       id="path30"
       d="M 3.54292,0 C 3.10782,0.10701 1.19533,0.71347 0,1.37344 V -1.37344 C 1.19533,-0.71347 3.10782,-0.10701 3.54292,0 Z"
       style="fill:#000000;fill-opacity:1;fill-rule:nonzero;stroke:#000000;stroke-width:0.49814;stroke-linecap:butt;stroke-linejoin:miter;stroke-miterlimit:10;stroke-dasharray:none;stroke-opacity:1"
       transform="matrix(0,1.3333333,1.3333333,0,229.93545,35.582907)" />
    <path
       id="path31"
       d="m 3.6217734,-3.6330859 c -0.2929687,0.058594 -0.4453125,0.3046875 -0.4453125,0.4921875 0,0.1757812 0.1289063,0.328125 0.3515625,0.328125 0.234375,0 0.4921875,-0.2109375 0.4921875,-0.5390625 0,-0.3515625 -0.328125,-0.609375 -0.7617187,-0.609375 -0.6796875,0 -1.0546875,0.5039062 -1.1835938,0.6679687 -0.1054687,-0.4921875 -0.5039062,-0.6679687 -0.84375,-0.6679687 -0.32812496,0 -0.52734371,0.1992187 -0.67968746,0.5039062 -0.17578125,0.328125 -0.29296875,0.84375 -0.29296875,0.8789063 0,0.082031 0.0703125,0.1054687 0.12890625,0.1054687 0.09375,0 0.1171875,-0.046875 0.1640625,-0.2226562 0.1640625,-0.7148438 0.3515625,-1.0429688 0.65624996,-1.0429688 0.2695313,0 0.2695313,0.28125 0.2695313,0.421875 0,0.1875 -0.070312,0.46875 -0.1171875,0.703125 -0.070312,0.234375 -0.1523438,0.609375 -0.1992188,0.7265625 l -0.35156246,1.46484376 c -0.0703125,0.2109375 -0.0703125,0.234375 -0.0703125,0.2578125 0,0.1171875 0.0820313,0.2578125 0.28124996,0.2578125 0.2929688,0 0.3515625,-0.234375 0.4101563,-0.4921875 0.1171875,-0.38671875 0.1171875,-0.41015625 0.1992187,-0.77343746 0.3398438,-1.3476563 0.3867188,-1.5585938 0.4101563,-1.6054688 0.046875,-0.1054687 0.4570312,-0.9609375 1.2070312,-0.9609375 0.2109375,0 0.328125,0.070312 0.375,0.1054688 z m 0,0"
       style="fill:#000000;fill-opacity:1;fill-rule:nonzero;stroke:none"
       aria-label="r"
       transform="matrix(1.3333333,0,0,1.3333333,308.628,17.793333)" />
    <path
       id="path32"
       d="M 214.30179,27.14854 V 17.32582"
       style="fill:none;stroke:#000000;stroke-width:0.49814;stroke-linecap:butt;stroke-linejoin:miter;stroke-miterlimit:10;stroke-dasharray:none;stroke-opacity:1"
       transform="matrix(1.3333333,0,0,-1.3333333,25.838667,58.684)" />
    <path
       id="path33"
       d="M 3.54292,0 C 3.10782,0.10701 1.19533,0.71347 0,1.37344 V -1.37344 C 1.19533,-0.71347 3.10782,-0.10701 3.54292,0 Z"
       style="fill:#000000;fill-opacity:1;fill-rule:nonzero;stroke:#000000;stroke-width:0.49814;stroke-linecap:butt;stroke-linejoin:miter;stroke-miterlimit:10;stroke-dasharray:none;stroke-opacity:1"
       transform="matrix(0,1.3333333,1.3333333,0,311.57439,35.582907)" />
    <path
       id="path34"
       d="m 108.285,-36.28403 c 0.59775,-1.19554 1.99256,-1.99255 3.98511,-1.99255 h 52.12509 c 1.99256,0 3.38738,-0.79702 3.98511,-1.99255 0.59775,1.19553 1.99255,1.99255 3.98511,1.99255 h 52.1251 c 1.99256,0 3.38738,0.79701 3.98511,1.99255"
       style="fill:none;stroke:#000000;stroke-width:0.44832;stroke-linecap:butt;stroke-linejoin:miter;stroke-miterlimit:10;stroke-dasharray:none;stroke-opacity:1"
       transform="matrix(1.3333333,0,0,-1.3333333,25.838667,58.684)" />
    <g
       id="g34"
       aria-label="A&#10;5&#10;=20&lt;21⇒l=6"
       transform="matrix(1.3333333,0,0,1.3333333,106.49467,122.644)">
      <path
         id="path35"
         d="m 1.6299766,-1.0542891 c -0.4335938,0.72656254 -0.83203129,0.75000004 -1.19531254,0.77343754 -0.0585938,0.0117188 -0.10546875,0.0820313 -0.10546875,0.1640625 0,0.05859375 0.0351563,0.1171874975 0.12890625,0.1171874975 0.17578125,0 0.59765624,-0.0234374975 0.76171874,-0.0234374975 0.1992188,0 0.6796875,0.0234374975 0.8789063,0.0234374975 0.058594,0 0.1757812,0 0.1757812,-0.1640624975 0,-0.10546875 -0.1171875,-0.1171875 -0.140625,-0.1171875 -0.082031,0 -0.421875,-0.0234375 -0.421875,-0.29296875 0,-0.12890625 0.1054688,-0.29296875 0.1289063,-0.33984375 l 0.703125,-1.16015624 h 2.34375 c 0.023437,0.2109375 0.058594,0.515625 0.082031,0.7382812 0.035156,0.35156254 0.082031,0.75000004 0.082031,0.77343754 0,0.12890625 -0.1171875,0.28125 -0.6445313,0.28125 -0.082031,0 -0.1992187,0 -0.1992187,0.1640625 0,0.09375 0.070312,0.1171874975 0.1289062,0.1171874975 0.1757813,0 0.3867188,-0.0234374975 0.5625,-0.0234374975 0.1875,0 0.3984375,0 0.5390625,0 0.3046875,0 0.3164063,0 0.5273438,0 0.1523437,0.01171875 0.3515625,0.0234374975 0.5039062,0.0234374975 0.046875,0 0.1640625,0 0.1640625,-0.1640624975 0,-0.1171875 -0.09375,-0.1171875 -0.1992187,-0.1171875 -0.5390625,0 -0.5507813,-0.0585938 -0.5742188,-0.31640625 L 5.2276328,-6.1753828 c -0.023437,-0.1992188 -0.023437,-0.2460938 -0.1757812,-0.2460938 -0.1289063,0 -0.1875,0.070312 -0.2578125,0.1875 z m 1.0898437,-1.2890625 1.8046875,-2.9648437 0.3398438,2.9648437 z m 0,0"
         style="fill:#000000;fill-opacity:1;fill-rule:nonzero;stroke:none" />
      <path
         id="path36"
         d="m 7.9288047,-2.3199141 c 0.1992187,0.058594 0.3984375,0.082031 0.609375,0.082031 0.1289062,0 0.4570312,0 0.84375,-0.2109375 0.09375,-0.058594 0.46875,-0.3046875 0.46875,-0.4335938 0,-0.082031 -0.058594,-0.09375 -0.082031,-0.09375 -0.023437,0 -0.023437,0 -0.09375,0.023437 -0.2109375,0.082031 -0.515625,0.1640625 -0.9023437,0.1640625 -0.2929688,0 -0.6210938,-0.046875 -0.890625,-0.1523437 -0.058594,-0.023437 -0.082031,-0.035156 -0.1054688,-0.035156 -0.082031,0 -0.082031,0.058594 -0.082031,0.1640625 v 1.7929688 c 0,0.09375 0,0.16406249 0.1054687,0.16406249 0.058594,0 0.070312,-0.0234375 0.1171875,-0.0703125 0.140625,-0.18749999 0.4101563,-0.38671879 0.8789063,-0.38671879 0.7265625,0 0.7265625,0.89062504 0.7265625,1.07812504 0,0.2343749975 -0.011719,0.57421875 -0.2109375,0.8203125 -0.1875,0.22265625 -0.4570313,0.31640625 -0.7148438,0.31640625 -0.4101562,0 -0.8320312,-0.22265625 -0.9726562,-0.57421875 0.2929687,0 0.328125,-0.234375 0.328125,-0.3046875 0,-0.1640625 -0.1171875,-0.3046875 -0.3046875,-0.3046875 -0.058594,0 -0.3046875,0.0234375 -0.3046875,0.328125 0,0.55078125 0.515625,1.07812496 1.265625,1.07812496 0.8203125,0 1.5117193,-0.58593746 1.5117193,-1.33593746 0,-0.6796875 -0.5507818,-1.30078124 -1.3125006,-1.30078124 -0.3867187,0 -0.6914062,0.1289062 -0.8789062,0.2929687 z m 0,0"
         style="fill:#000000;fill-opacity:1;fill-rule:nonzero;stroke:none" />
      <path
         id="path37"
         d="m 19.97275,-2.9644453 c 0.117187,0 0.292969,0 0.292969,-0.1875 0,-0.1992188 -0.199219,-0.1992188 -0.328125,-0.1992188 h -5.472657 c -0.140625,0 -0.328125,0 -0.328125,0.1992188 0,0.1875 0.175782,0.1875 0.292969,0.1875 z m -0.03516,1.828125 c 0.128906,0 0.328125,0 0.328125,-0.1992188 0,-0.1875 -0.175782,-0.1875 -0.292969,-0.1875 h -5.542969 c -0.117187,0 -0.292969,0 -0.292969,0.1875 0,0.1992188 0.1875,0.1992188 0.328125,0.1992188 z m 7.543945,-0.4453125 h -0.246094 c -0.02344,0.1171875 -0.09375,0.64453124 -0.210937,0.78515624 -0.04687,0.0820313 -0.667969,0.0820313 -0.84375,0.0820313 h -1.59375 L 25.46591,-1.5581952 c 1.476563,-1.2773438 2.015625,-1.7460938 2.015625,-2.6601563 0,-1.03125 -0.84375,-1.7460937 -1.945312,-1.7460937 -1.03125,0 -1.734375,0.8085937 -1.734375,1.6289062 0,0.4453125 0.386718,0.4921875 0.46875,0.4921875 0.199218,0 0.46875,-0.140625 0.46875,-0.46875 0,-0.2695312 -0.1875,-0.46875 -0.46875,-0.46875 -0.04687,0 -0.07031,0 -0.105469,0.011719 0.210937,-0.6328125 0.785156,-0.9257813 1.265625,-0.9257813 0.914062,0 1.230469,0.8554688 1.230469,1.4765625 0,0.9140625 -0.691407,1.6523438 -1.125,2.1210938 l -1.640625,1.76953119 c -0.09375,0.10546875 -0.09375,0.1171875 -0.09375,0.3281249975 h 3.433593 z m 4.713867,-1.2890625 c 0,-0.5976563 -0.02344,-1.3710938 -0.339844,-2.0390625 -0.398437,-0.84375 -1.078125,-1.0546875 -1.59375,-1.0546875 -0.539062,0 -1.21875,0.2109375 -1.617187,1.0664062 -0.292969,0.6210938 -0.328125,1.3476563 -0.328125,2.0273438 0,0.5859375 0.01172,1.453125 0.398437,2.16796874 0.421875,0.76171875 1.125,0.90234375 1.535157,0.90234375 0.585937,0 1.242187,-0.2578125 1.617187,-1.078125 0.269531,-0.59765629 0.328125,-1.27734379 0.328125,-1.99218749 z m -1.933594,2.84765624 c -0.269531,0 -0.914062,-0.12890625 -1.089843,-1.13671874 -0.09375,-0.5390625 -0.09375,-1.3007813 -0.09375,-1.8164063 0,-0.609375 0,-1.3125 0.117187,-1.8164062 0.175781,-0.796875 0.75,-0.9492188 1.054688,-0.9492188 0.339843,0 0.902343,0.1757813 1.078125,1.0078125 0.09375,0.4921875 0.09375,1.1953125 0.09375,1.7578125 0,0.5507813 0,1.3125 -0.09375,1.8398438 -0.1875,1.01953124 -0.84375,1.11328124 -1.066407,1.11328124 z m 0,0"
         style="fill:#000000;fill-opacity:1;fill-rule:nonzero;stroke:none" />
      <path
         id="path38"
         d="m 41.321383,-4.5464766 c 0.08203,-0.035156 0.1875,-0.09375 0.1875,-0.1992187 0,-0.1054688 -0.07031,-0.1992188 -0.199219,-0.1992188 -0.01172,0 -0.05859,0 -0.164062,0.046875 l -5.074219,2.4375 c -0.08203,0.035156 -0.175781,0.09375 -0.175781,0.2109375 0,0.1289063 0.08203,0.1757813 0.175781,0.2109375 l 5.0625,2.43750004 c 0.117187,0.0585938 0.152344,0.0585938 0.175781,0.0585938 0.140625,0 0.199219,-0.12890625 0.199219,-0.1875 0,-0.1171875 -0.07031,-0.15234375 -0.164063,-0.19921875 L 36.528414,-2.2496016 Z m 0,0"
         style="fill:#000000;fill-opacity:1;fill-rule:nonzero;stroke:none" />
      <path
         id="path39"
         d="m 48.988375,-1.5816328 h -0.246094 c -0.02344,0.1171875 -0.09375,0.64453124 -0.210937,0.78515624 -0.04687,0.0820313 -0.667969,0.0820313 -0.84375,0.0820313 h -1.59375 L 46.97275,-1.5581953 c 1.476562,-1.2773438 2.015625,-1.7460938 2.015625,-2.6601563 0,-1.03125 -0.84375,-1.7460937 -1.945313,-1.7460937 -1.03125,0 -1.734375,0.8085937 -1.734375,1.6289062 0,0.4453125 0.386719,0.4921875 0.46875,0.4921875 0.199219,0 0.46875,-0.140625 0.46875,-0.46875 0,-0.2695312 -0.1875,-0.46875 -0.46875,-0.46875 -0.04687,0 -0.07031,0 -0.105468,0.011719 0.210937,-0.6328125 0.785156,-0.9257813 1.265625,-0.9257813 0.914062,0 1.230468,0.8554688 1.230468,1.4765625 0,0.9140625 -0.691406,1.6523438 -1.125,2.1210938 l -1.640625,1.76953124 c -0.09375,0.10546875 -0.09375,0.1171875 -0.09375,0.3281249975 h 3.433594 z m 3.202148,-4.1484375 c 0,-0.2226563 -0.01172,-0.234375 -0.234375,-0.234375 -0.5625,0.5625 -1.382812,0.5625 -1.664062,0.5625 v 0.28125 c 0.175781,0 0.714844,0 1.207031,-0.234375 v 4.64062499 c 0,0.328125 -0.03516,0.43359375 -0.867187,0.43359375 H 50.35068 V 3.984375e-4 C 50.667086,-0.02303906 51.463961,-0.02303906 51.838961,-0.02303906 c 0.363281,0 1.171875,0 1.488281,0.0234374975 V -0.28085156 h -0.28125 c -0.832031,0 -0.855469,-0.10546875 -0.855469,-0.43359375 z m 0,0"
         style="fill:#000000;fill-opacity:1;fill-rule:nonzero;stroke:none" />
      <path
         id="path40"
         d="m 65.81943,-2.9644453 c 0.457031,0.3867187 0.902343,0.5976562 1.195312,0.7148437 -0.386719,0.1757813 -0.785156,0.3867188 -1.195312,0.7265625 h -5.8125 c -0.128907,0 -0.304688,0 -0.304688,0.1875 0,0.1992188 0.1875,0.1992188 0.351563,0.1992188 h 5.332031 c -0.5625,0.59765624 -0.878906,1.21874999 -0.878906,1.28906249 0,0.1171875 0.117187,0.1171875 0.1875,0.1171875 0.117187,0 0.152343,0 0.199218,-0.0820313 0.726563,-1.39453129 1.734375,-2.00390619 2.894532,-2.32031259 0.07031,-0.023437 0.09375,-0.070312 0.09375,-0.1054687 0,-0.09375 -0.08203,-0.1054688 -0.09375,-0.1171875 -0.445313,-0.1289063 -1.066407,-0.2929688 -1.839844,-0.9492188 -0.328125,-0.2929687 -0.714844,-0.7148436 -1.007813,-1.2773436 -0.09375,-0.1640625 -0.09375,-0.1757813 -0.246093,-0.1757813 -0.07031,0 -0.1875,0 -0.1875,0.1171875 0,0.070312 0.304687,0.6796875 0.878906,1.2890625 h -5.332031 c -0.164063,0 -0.351563,0 -0.351563,0.1992188 0,0.1875 0.175781,0.1875 0.304688,0.1875 z m 0,0"
         style="fill:#000000;fill-opacity:1;fill-rule:nonzero;stroke:none" />
      <path
         id="path41"
         d="m 75.830172,-5.9175703 c 0.03516,-0.1289063 0.03516,-0.140625 0.03516,-0.1757813 0,-0.082031 -0.04687,-0.1289062 -0.128906,-0.1289062 -0.152344,0 -0.902344,0.070312 -1.089844,0.09375 -0.07031,0.011719 -0.1875,0.011719 -0.1875,0.1640625 0,0.1171875 0.105469,0.1171875 0.234375,0.1171875 0.421875,0 0.421875,0.070312 0.421875,0.140625 0,0.046875 0,0.058594 -0.04687,0.2226562 l -1.101562,4.40625 c -0.04687,0.18750004 -0.04687,0.30468754 -0.04687,0.33984379 0,0.5625 0.457031,0.83203125 0.855468,0.83203125 0.410157,0 0.597657,-0.31640625 0.691407,-0.515625 0.164062,-0.31640625 0.269531,-0.83203124 0.269531,-0.85546874 0,-0.046875 -0.02344,-0.1171875 -0.117188,-0.1171875 -0.105468,0 -0.117187,0.046875 -0.152343,0.2226562 -0.152344,0.60937504 -0.328125,1.04296879 -0.667969,1.04296879 -0.175781,0 -0.269531,-0.1171875 -0.269531,-0.41015625 0,-0.1875 0.01172,-0.24609375 0.04687,-0.3984375 z m 0,0"
         style="fill:#000000;fill-opacity:1;fill-rule:nonzero;stroke:none" />
      <path
         id="path42"
         d="m 85.331148,-2.9644453 c 0.117188,0 0.292969,0 0.292969,-0.1875 0,-0.1992188 -0.199219,-0.1992188 -0.328125,-0.1992188 h -5.472656 c -0.140625,0 -0.328125,0 -0.328125,0.1992188 0,0.1875 0.175781,0.1875 0.292969,0.1875 z m -0.03516,1.828125 c 0.128906,0 0.328125,0 0.328125,-0.1992188 0,-0.1875 -0.175781,-0.1875 -0.292969,-0.1875 H 79.78818 c -0.117188,0 -0.292969,0 -0.292969,0.1875 0,0.1992188 0.1875,0.1992188 0.328125,0.1992188 z m 4.614258,-1.828125 c 0,-0.9140625 0.09375,-1.4296875 0.339844,-1.8984375 0.175781,-0.3632813 0.609375,-0.8789063 1.277343,-0.8789063 0.175782,0 0.585938,0.035156 0.796875,0.3515625 -0.328125,0 -0.46875,0.1757813 -0.46875,0.4101563 0,0.234375 0.152344,0.421875 0.410157,0.421875 0.246093,0 0.421875,-0.1640625 0.421875,-0.4335938 0,-0.5039062 -0.363282,-0.9726562 -1.183594,-0.9726562 -1.148438,0 -2.414063,1.1367187 -2.414063,3.1289062 0,2.43750004 1.089844,3.03515629 1.933594,3.03515629 0.996094,0 1.898438,-0.83203125 1.898438,-2.01562499 0,-1.1367188 -0.832032,-2.0039063 -1.839844,-2.0039063 -0.539063,0 -0.925781,0.3164063 -1.171875,0.8554688 z m 1.101562,2.90624999 c -0.503906,0 -0.796875,-0.421875 -0.914062,-0.6796875 -0.164063,-0.39843749 -0.175781,-1.14843749 -0.175781,-1.28906249 0,-0.5976563 0.28125,-1.5703125 1.136718,-1.5703125 0.140625,0 0.585938,0 0.867188,0.5625 0.175781,0.3398437 0.175781,0.7734375 0.175781,1.2070312 0,0.4335938 0,0.86718754 -0.175781,1.19531254 -0.269531,0.515625 -0.667969,0.57421875 -0.914063,0.57421875 z m 0,0"
         style="fill:#000000;fill-opacity:1;fill-rule:nonzero;stroke:none" />
    </g>
  </g>
</svg>
